solid OpenSCAD_Model
  facet normal -1 0 0
    outer loop
      vertex 0 0 0
      vertex 0 0 10
      vertex 0 10 10
    endloop
  endfacet
  facet normal 0 0 -1
    outer loop
      vertex 0 0 0
      vertex 0 10 0
      vertex 10 10 0
    endloop
  endfacet
  facet normal -1 0 0
    outer loop
      vertex 0 0 0
      vertex 0 10 10
      vertex 0 10 0
    endloop
  endfacet
  facet normal 0 -1 0
    outer loop
      vertex 0 0 0
      vertex 10 0 0
      vertex 10 0 10
    endloop
  endfacet
  facet normal 0 -1 0
    outer loop
      vertex 0 0 0
      vertex 10 0 10
      vertex 0 0 10
    endloop
  endfacet
  facet normal 0 0 -1
    outer loop
      vertex 0 0 0
      vertex 10 10 0
      vertex 10 0 0
    endloop
  endfacet
  facet normal 0 0 1
    outer loop
      vertex 0 0 10
      vertex 1 1 10
      vertex 1 9 10
    endloop
  endfacet
  facet normal 0 0 1
    outer loop
      vertex 0 0 10
      vertex 1 9 10
      vertex 0 10 10
    endloop
  endfacet
  facet normal 0 0 1
    outer loop
      vertex 0 0 10
      vertex 9 1 10
      vertex 1 1 10
    endloop
  endfacet
  facet normal 0 0 1
    outer loop
      vertex 0 0 10
      vertex 10 0 10
      vertex 9 1 10
    endloop
  endfacet
  facet normal 0 1 0
    outer loop
      vertex 0 10 0
      vertex 0 10 10
      vertex 10 10 0
    endloop
  endfacet
  facet normal -0 0 1
    outer loop
      vertex 0 10 10
      vertex 1 9 10
      vertex 10 10 10
    endloop
  endfacet
  facet normal -0 1 0
    outer loop
      vertex 0 10 10
      vertex 10 10 10
      vertex 10 10 0
    endloop
  endfacet
  facet normal -1 0 0
    outer loop
      vertex 1 1 10
      vertex 1 1 17
      vertex 1 9 10
    endloop
  endfacet
  facet normal 0 -1 0
    outer loop
      vertex 1 1 10
      vertex 9 1 10
      vertex 9 1 17
    endloop
  endfacet
  facet normal 0 -1 0
    outer loop
      vertex 1 1 10
      vertex 9 1 17
      vertex 1 1 17
    endloop
  endfacet
  facet normal -1 0 0
    outer loop
      vertex 1 1 17
      vertex 1 9 17
      vertex 1 9 10
    endloop
  endfacet
  facet normal 0 0 1
    outer loop
      vertex 1 1 17
      vertex 9 1 17
      vertex 1 9 17
    endloop
  endfacet
  facet normal 0 1 0
    outer loop
      vertex 1 9 10
      vertex 1 9 17
      vertex 9 9 10
    endloop
  endfacet
  facet normal 0 0 1
    outer loop
      vertex 1 9 10
      vertex 9 9 10
      vertex 10 10 10
    endloop
  endfacet
  facet normal -0 0 1
    outer loop
      vertex 1 9 17
      vertex 9 1 17
      vertex 9 9 17
    endloop
  endfacet
  facet normal -0 1 0
    outer loop
      vertex 1 9 17
      vertex 9 9 17
      vertex 9 9 10
    endloop
  endfacet
  facet normal 1 0 0
    outer loop
      vertex 9 1 10
      vertex 9 9 10
      vertex 9 9 17
    endloop
  endfacet
  facet normal 1 0 0
    outer loop
      vertex 9 1 10
      vertex 9 9 17
      vertex 9 1 17
    endloop
  endfacet
  facet normal -0 0 1
    outer loop
      vertex 9 1 10
      vertex 10 0 10
      vertex 9 9 10
    endloop
  endfacet
  facet normal -0 0 1
    outer loop
      vertex 9 9 10
      vertex 10 0 10
      vertex 10 10 10
    endloop
  endfacet
  facet normal 1 0 0
    outer loop
      vertex 10 0 0
      vertex 10 10 0
      vertex 10 0 10
    endloop
  endfacet
  facet normal 1 -0 0
    outer loop
      vertex 10 0 10
      vertex 10 10 0
      vertex 10 10 10
    endloop
  endfacet
endsolid OpenSCAD_Model
