solid OpenSCAD_Model
  facet normal -1 0 0
    outer loop
      vertex 0 0 0
      vertex 0 0 1.23456788
      vertex 0 1.23456788 1.23456788
    endloop
  endfacet
  facet normal 0 0 -1.47171605e-07
    outer loop
      vertex 0 0 0
      vertex 0 1.23456788 0
      vertex 1.19208998e-07 1.23456788 0
    endloop
  endfacet
  facet normal -1 0 0
    outer loop
      vertex 0 0 0
      vertex 0 1.23456788 1.23456788
      vertex 0 1.23456788 0
    endloop
  endfacet
  facet normal 0 -1.47171605e-07 0
    outer loop
      vertex 0 0 0
      vertex 1.19208998e-07 0 0
      vertex 1.19208998e-07 0 1.23456788
    endloop
  endfacet
  facet normal 0 -1.47171605e-07 0
    outer loop
      vertex 0 0 0
      vertex 1.19208998e-07 0 1.23456788
      vertex 0 0 1.23456788
    endloop
  endfacet
  facet normal 0 0 -1.47171605e-07
    outer loop
      vertex 0 0 0
      vertex 1.19208998e-07 1.23456788 0
      vertex 1.19208998e-07 0 0
    endloop
  endfacet
  facet normal 0 0 1.47171605e-07
    outer loop
      vertex 0 0 1.23456788
      vertex 1.19208998e-07 0 1.23456788
      vertex 0 1.23456788 1.23456788
    endloop
  endfacet
  facet normal 0 1.47171605e-07 0
    outer loop
      vertex 0 1.23456788 0
      vertex 0 1.23456788 1.23456788
      vertex 1.19208998e-07 1.23456788 0
    endloop
  endfacet
  facet normal -0 0 1.47171605e-07
    outer loop
      vertex 0 1.23456788 1.23456788
      vertex 1.19208998e-07 0 1.23456788
      vertex 1.19208998e-07 1.23456788 1.23456788
    endloop
  endfacet
  facet normal -0 1.47171605e-07 0
    outer loop
      vertex 0 1.23456788 1.23456788
      vertex 1.19208998e-07 1.23456788 1.23456788
      vertex 1.19208998e-07 1.23456788 0
    endloop
  endfacet
  facet normal 1 0 0
    outer loop
      vertex 1.19208998e-07 0 0
      vertex 1.19208998e-07 1.23456788 0
      vertex 1.19208998e-07 0 1.23456788
    endloop
  endfacet
  facet normal 1 -0 0
    outer loop
      vertex 1.19208998e-07 0 1.23456788
      vertex 1.19208998e-07 1.23456788 0
      vertex 1.19208998e-07 1.23456788 1.23456788
    endloop
  endfacet
endsolid OpenSCAD_Model
