<?xml version="1.0" standalone="no"?>
<!DOCTYPE svg PUBLIC "-//W3C//DTD SVG 1.1//EN" "http://www.w3.org/Graphics/SVG/1.1/DTD/svg11.dtd">
<svg width="100mm" height="100mm" viewBox="-8 -108 116 116" xmlns="http://www.w3.org/2000/svg" version="1.1">
<title>OpenSCAD Model</title>
<path d="
M 84.1993,-0.00497437 L 84.3984,-0.0149078 L 84.5973,-0.0298004 L 84.7955,-0.0546417 L 84.9926,-0.0843658 L 85.1891,-0.119003
 L 85.3832,-0.163315 L 85.5764,-0.212509 L 85.7684,-0.266525 L 85.9575,-0.330063 L 86.1449,-0.398254 L 86.3306,-0.471115
 L 86.5125,-0.553223 L 86.6922,-0.63974 L 86.8696,-0.730728 L 87.0423,-0.830399 L 87.2124,-0.934357 L 87.3799,-1.04256
 L 87.5419,-1.15901 L 87.7008,-1.2794 L 87.8568,-1.40376 L 88.0063,-1.53571 L 88.1524,-1.67133 L 88.2952,-1.81058
 L 88.4308,-1.95677 L 88.5628,-2.10626 L 88.691,-2.25905 L 88.8113,-2.41792 L 88.9277,-2.5798 L 89.0401,-2.74458
 L 89.1443,-2.9151 L 89.244,-3.08778 L 89.3393,-3.26295 L 89.4258,-3.44243 L 89.5078,-3.62416 L 89.5852,-3.80795
 L 89.6534,-3.99522 L 89.7169,-4.18422 L 89.7757,-4.3748 L 89.825,-4.56818 L 89.8693,-4.76257 L 89.9088,-4.95807
 L 89.9386,-5.15555 L 89.9634,-5.35338 L 89.9832,-5.55183 L 89.9916,-5.70078 L 89.9972,-5.85023 L 90,-6
 L 90,-94 L 89.995,-94.1993 L 89.9851,-94.3984 L 89.9702,-94.5973 L 89.9454,-94.7955 L 89.9156,-94.9926
 L 89.881,-95.1891 L 89.8367,-95.3832 L 89.7875,-95.5764 L 89.7335,-95.7684 L 89.6699,-95.9575 L 89.6017,-96.1449
 L 89.5289,-96.3306 L 89.4468,-96.5125 L 89.3603,-96.6922 L 89.2693,-96.8696 L 89.1696,-97.0423 L 89.0656,-97.2124
 L 88.9574,-97.3799 L 88.841,-97.5419 L 88.7206,-97.7008 L 88.5962,-97.8568 L 88.4643,-98.0063 L 88.3287,-98.1524
 L 88.1894,-98.2952 L 88.0432,-98.4308 L 87.8937,-98.5628 L 87.741,-98.691 L 87.5821,-98.8113 L 87.4202,-98.9277
 L 87.2554,-99.0401 L 87.0849,-99.1443 L 86.9122,-99.244 L 86.737,-99.3393 L 86.5576,-99.4258 L 86.3758,-99.5078
 L 86.192,-99.5852 L 86.0048,-99.6534 L 85.8158,-99.7169 L 85.6252,-99.7757 L 85.4318,-99.825 L 85.2374,-99.8693
 L 85.0419,-99.9088 L 84.8445,-99.9386 L 84.6466,-99.9634 L 84.4482,-99.9832 L 84.2992,-99.9916 L 84.1498,-99.9972
 L 84,-100 L 36,-100 L 10,-74 L 10,-50 L 14,-50 L 14,-70
 L 34,-70 L 34.1993,-70.005 L 34.3984,-70.0149 L 34.5973,-70.0298 L 34.7955,-70.0546 L 34.9926,-70.0844
 L 35.1891,-70.119 L 35.3832,-70.1633 L 35.5764,-70.2125 L 35.7684,-70.2665 L 35.9575,-70.3301 L 36.1449,-70.3983
 L 36.3306,-70.4711 L 36.5125,-70.5532 L 36.6922,-70.6397 L 36.8696,-70.7307 L 37.0423,-70.8304 L 37.2124,-70.9344
 L 37.3799,-71.0426 L 37.5419,-71.159 L 37.7008,-71.2794 L 37.8568,-71.4038 L 38.0063,-71.5357 L 38.1524,-71.6713
 L 38.2952,-71.8106 L 38.4308,-71.9568 L 38.5628,-72.1063 L 38.691,-72.259 L 38.8113,-72.4179 L 38.9277,-72.5798
 L 39.0401,-72.7446 L 39.1443,-72.9151 L 39.244,-73.0878 L 39.3393,-73.263 L 39.4258,-73.4424 L 39.5078,-73.6242
 L 39.5852,-73.808 L 39.6534,-73.9952 L 39.7169,-74.1842 L 39.7757,-74.3748 L 39.825,-74.5682 L 39.8693,-74.7626
 L 39.9088,-74.9581 L 39.9386,-75.1555 L 39.9634,-75.3534 L 39.9832,-75.5518 L 39.9916,-75.7008 L 39.9972,-75.8502
 L 40,-76 L 40,-96 L 84,-96 L 84.1495,-95.9944 L 84.3473,-95.9696 L 84.5417,-95.9252
 L 84.7307,-95.8617 L 84.9124,-95.7797 L 85.0851,-95.6801 L 85.247,-95.5637 L 85.3965,-95.4317 L 85.5321,-95.2856
 L 85.6525,-95.1266 L 85.7564,-94.9565 L 85.843,-94.7769 L 85.9111,-94.5895 L 85.9603,-94.3963 L 85.9901,-94.1991
 L 86,-94 L 86,-6 L 85.9944,-5.85054 L 85.9696,-5.65271 L 85.9252,-5.45831 L 85.8617,-5.26932
 L 85.7797,-5.08759 L 85.6801,-4.9149 L 85.5637,-4.75302 L 85.4317,-4.60353 L 85.2856,-4.46791 L 85.1266,-4.34752
 L 84.9565,-4.24356 L 84.7769,-4.15704 L 84.5895,-4.08885 L 84.3963,-4.03966 L 84.1991,-4.00993 L 84,-4
 L 80,-4 L 80,-0 L 84,-0 z
M 15.9291,-20.9574 L 15.9389,-21.019 L 15.949,-21.0823 L 15.9592,-21.1474 L 15.9696,-21.2143 L 15.9802,-21.2829
 L 15.9909,-21.3533 L 16.0019,-21.4255 L 16.013,-21.4995 L 16.0243,-21.5752 L 16.0358,-21.6527 L 16.0474,-21.732
 L 16.0592,-21.813 L 16.0713,-21.8959 L 16.0835,-21.9804 L 16.0958,-22.0668 L 16.1084,-22.1549 L 16.1211,-22.2448
 L 16.134,-22.3365 L 16.1604,-22.5251 L 16.1738,-22.6221 L 16.1874,-22.7209 L 16.2012,-22.8214 L 16.2152,-22.9237
 L 16.2294,-23.0278 L 16.2438,-23.1336 L 16.273,-23.3506 L 16.2879,-23.4617 L 16.3029,-23.5746 L 16.3182,-23.6893
 L 16.3336,-23.8058 L 16.365,-24.044 L 16.3971,-24.2894 L 16.4299,-24.5418 L 16.4466,-24.6706 L 16.4805,-24.9337
 L 16.4977,-25.0678 L 16.5326,-25.3415 L 16.5504,-25.481 L 16.5862,-25.7635 L 16.6038,-25.9032 L 16.6211,-26.0411
 L 16.6381,-26.1773 L 16.6548,-26.3118 L 16.6712,-26.4447 L 16.6873,-26.5758 L 16.7032,-26.7053 L 16.7187,-26.8331
 L 16.7339,-26.9591 L 16.7489,-27.0835 L 16.7635,-27.2062 L 16.7779,-27.3272 L 16.792,-27.4464 L 16.8057,-27.564
 L 16.8192,-27.6799 L 16.8324,-27.7941 L 16.8453,-27.9067 L 16.8579,-28.0175 L 16.8702,-28.1266 L 16.8822,-28.2341
 L 16.8939,-28.3398 L 16.9053,-28.4438 L 16.9164,-28.5462 L 16.9273,-28.6469 L 16.9378,-28.7458 L 16.948,-28.8431
 L 16.958,-28.9387 L 16.9677,-29.0325 L 16.977,-29.1247 L 16.9861,-29.2152 L 16.9949,-29.304 L 17.0033,-29.3911
 L 17.0115,-29.4765 L 17.0194,-29.5602 L 17.027,-29.6423 L 17.0343,-29.7226 L 17.0413,-29.8013 L 17.048,-29.8782
 L 17.0544,-29.9534 L 17.0606,-30.027 L 17.0664,-30.0988 L 17.0719,-30.169 L 17.0772,-30.2375 L 17.0821,-30.3043
 L 17.0868,-30.3694 L 17.09,-30.3159 L 17.0935,-30.2603 L 17.0974,-30.2025 L 17.1017,-30.1425 L 17.1064,-30.0803
 L 17.1114,-30.0159 L 17.1168,-29.9494 L 17.1226,-29.8807 L 17.1287,-29.8098 L 17.1352,-29.7366 L 17.142,-29.6614
 L 17.1492,-29.5839 L 17.1569,-29.5042 L 17.1648,-29.4224 L 17.1731,-29.3383 L 17.1818,-29.2522 L 17.1909,-29.1637
 L 17.2003,-29.0732 L 17.2101,-28.9804 L 17.2203,-28.8854 L 17.2309,-28.7883 L 17.2417,-28.689 L 17.253,-28.5875
 L 17.2646,-28.4838 L 17.2767,-28.3779 L 17.289,-28.2698 L 17.3018,-28.1596 L 17.3149,-28.0471 L 17.3284,-27.9325
 L 17.3422,-27.8157 L 17.3564,-27.6967 L 17.371,-27.5755 L 17.3859,-27.4522 L 17.4012,-27.3266 L 17.4169,-27.1989
 L 17.433,-27.069 L 17.4494,-26.9369 L 17.4662,-26.8026 L 17.4833,-26.6661 L 17.5008,-26.5275 L 17.5187,-26.3866
 L 17.537,-26.2436 L 17.5556,-26.0984 L 17.5746,-25.951 L 17.5939,-25.8014 L 17.6136,-25.6497 L 17.6334,-25.4979
 L 17.6722,-25.2013 L 17.6912,-25.0563 L 17.7285,-24.7732 L 17.7648,-24.4992 L 17.8,-24.2342 L 17.8173,-24.1051
 L 17.8343,-23.9783 L 17.851,-23.8537 L 17.8838,-23.6113 L 17.8997,-23.4936 L 17.9155,-23.378 L 17.9309,-23.2648
 L 17.9462,-23.1538 L 17.9611,-23.0451 L 17.9903,-22.8344 L 18.0045,-22.7324 L 18.0185,-22.6328 L 18.0322,-22.5353
 L 18.0456,-22.4402 L 18.0588,-22.3473 L 18.0718,-22.2567 L 18.0845,-22.1683 L 18.0969,-22.0822 L 18.1091,-21.9983
 L 18.121,-21.9168 L 18.1327,-21.8374 L 18.1441,-21.7604 L 18.1553,-21.6856 L 18.1662,-21.6131 L 18.1769,-21.5428
 L 18.1873,-21.4748 L 18.1975,-21.4091 L 18.2074,-21.3456 L 18.217,-21.2844 L 18.2265,-21.2254 L 18.2356,-21.1688
 L 18.2445,-21.1143 L 18.2531,-21.0622 L 18.2615,-21.0123 L 21.6824,-0 L 27.7811,-0 L 34.208,-40
 L 28.9385,-40 L 25.7251,-18.1671 L 25.7115,-18.0808 L 25.6979,-17.9934 L 25.6842,-17.9049 L 25.6705,-17.8152
 L 25.6566,-17.7244 L 25.6427,-17.6324 L 25.6288,-17.5393 L 25.6148,-17.445 L 25.6007,-17.3495 L 25.5866,-17.253
 L 25.5724,-17.1552 L 25.5581,-17.0563 L 25.5437,-16.9563 L 25.5293,-16.8551 L 25.5149,-16.7528 L 25.5003,-16.6493
 L 25.4857,-16.5446 L 25.4711,-16.4389 L 25.4563,-16.3319 L 25.4415,-16.2238 L 25.4267,-16.1146 L 25.4117,-16.0042
 L 25.3967,-15.8926 L 25.3817,-15.78 L 25.3666,-15.6661 L 25.3514,-15.5511 L 25.3361,-15.435 L 25.3208,-15.3177
 L 25.3054,-15.1992 L 25.29,-15.0796 L 25.2744,-14.9589 L 25.2589,-14.837 L 25.2432,-14.7139 L 25.2275,-14.5897
 L 25.2117,-14.4644 L 25.1959,-14.3379 L 25.18,-14.2102 L 25.164,-14.0814 L 25.148,-13.9515 L 25.1319,-13.8204
 L 25.1157,-13.6881 L 25.0995,-13.5547 L 25.0832,-13.4202 L 25.0668,-13.2845 L 25.0504,-13.1476 L 25.0339,-13.0096
 L 25.0175,-12.8715 L 25.0012,-12.7344 L 24.9852,-12.5984 L 24.9693,-12.4633 L 24.9537,-12.3291 L 24.9382,-12.196
 L 24.923,-12.0639 L 24.9079,-11.9328 L 24.8931,-11.8027 L 24.8784,-11.6736 L 24.8639,-11.5454 L 24.8497,-11.4183
 L 24.8356,-11.2922 L 24.8217,-11.167 L 24.808,-11.0429 L 24.7945,-10.9197 L 24.7812,-10.7976 L 24.7681,-10.6764
 L 24.7552,-10.5562 L 24.7425,-10.4371 L 24.73,-10.3189 L 24.7177,-10.2017 L 24.7056,-10.0855 L 24.6937,-9.97034
 L 24.682,-9.85614 L 24.6704,-9.74294 L 24.6591,-9.63074 L 24.648,-9.51952 L 24.637,-9.4093 L 24.6263,-9.30008
 L 24.6157,-9.19186 L 24.6054,-9.08464 L 24.5952,-8.97839 L 24.5853,-8.87317 L 24.5755,-8.76892 L 24.5659,-8.66566
 L 24.5566,-8.56343 L 24.5474,-8.46217 L 24.5384,-8.36189 L 24.5296,-8.26265 L 24.521,-8.16437 L 24.5126,-8.06709
 L 24.5044,-7.97081 L 24.4964,-7.87553 L 24.4886,-7.78125 L 24.481,-7.68794 L 24.4727,-7.78471 L 24.4642,-7.88232
 L 24.4555,-7.98074 L 24.4467,-8.08 L 24.4377,-8.18007 L 24.4285,-8.28099 L 24.4192,-8.38272 L 24.4097,-8.48529
 L 24.4,-8.58868 L 24.3902,-8.6929 L 24.3802,-8.79794 L 24.3701,-8.90381 L 24.3598,-9.01051 L 24.3493,-9.11806
 L 24.3387,-9.22641 L 24.3279,-9.33559 L 24.317,-9.4456 L 24.3058,-9.55643 L 24.2946,-9.66811 L 24.2831,-9.78059
 L 24.2715,-9.89392 L 24.2597,-10.0081 L 24.2478,-10.123 L 24.2357,-10.2388 L 24.2234,-10.3555 L 24.211,-10.4729
 L 24.1984,-10.5912 L 24.1857,-10.7103 L 24.1727,-10.8303 L 24.1597,-10.951 L 24.1464,-11.0726 L 24.133,-11.1951
 L 24.1194,-11.3183 L 24.1057,-11.4424 L 24.0918,-11.5673 L 24.0777,-11.693 L 24.0635,-11.8196 L 24.0491,-11.947
 L 24.0199,-12.2043 L 23.99,-12.4648 L 23.9747,-12.5963 L 23.9594,-12.7287 L 23.9439,-12.8619 L 23.9282,-12.9959
 L 23.9125,-13.1296 L 23.8969,-13.2617 L 23.8814,-13.3924 L 23.866,-13.5216 L 23.8507,-13.6492 L 23.8356,-13.7754
 L 23.8206,-13.9001 L 23.8056,-14.0233 L 23.7908,-14.1449 L 23.7762,-14.2651 L 23.7616,-14.3838 L 23.7471,-14.5009
 L 23.7328,-14.6166 L 23.7186,-14.7308 L 23.7044,-14.8435 L 23.6904,-14.9546 L 23.6765,-15.0643 L 23.6628,-15.1725
 L 23.6491,-15.2791 L 23.6356,-15.3843 L 23.6221,-15.488 L 23.6088,-15.5901 L 23.5956,-15.6908 L 23.5825,-15.79
 L 23.5696,-15.8876 L 23.5567,-15.9838 L 23.544,-16.0785 L 23.5313,-16.1716 L 23.5188,-16.2633 L 23.5064,-16.3535
 L 23.4942,-16.4422 L 23.482,-16.5293 L 23.4699,-16.615 L 23.458,-16.6991 L 23.4462,-16.7818 L 23.4344,-16.863
 L 23.4228,-16.9426 L 23.4114,-17.0208 L 23.4,-17.0975 L 23.3887,-17.1727 L 23.3776,-17.2463 L 23.3666,-17.3185
 L 23.3557,-17.3891 L 23.3448,-17.4583 L 23.3342,-17.526 L 23.3236,-17.5921 L 19.6437,-40 L 14.5816,-40
 L 10.9017,-17.5921 L 10.8874,-17.5129 L 10.873,-17.4324 L 10.8587,-17.3504 L 10.8442,-17.2671 L 10.8298,-17.1823
 L 10.8153,-17.0962 L 10.8007,-17.0087 L 10.7861,-16.9198 L 10.7715,-16.8296 L 10.7569,-16.7379 L 10.7422,-16.6449
 L 10.7274,-16.5505 L 10.7126,-16.4547 L 10.6978,-16.3575 L 10.6829,-16.2589 L 10.668,-16.159 L 10.6531,-16.0577
 L 10.6381,-15.9549 L 10.623,-15.8508 L 10.608,-15.7453 L 10.5929,-15.6385 L 10.5777,-15.5302 L 10.5625,-15.4206
 L 10.5473,-15.3096 L 10.532,-15.1972 L 10.5167,-15.0834 L 10.5013,-14.9682 L 10.4859,-14.8517 L 10.4705,-14.7337
 L 10.455,-14.6144 L 10.4395,-14.4937 L 10.4239,-14.3716 L 10.4083,-14.2481 L 10.3927,-14.1232 L 10.377,-13.997
 L 10.3613,-13.8694 L 10.3455,-13.7404 L 10.3297,-13.61 L 10.3139,-13.4782 L 10.298,-13.345 L 10.2821,-13.2105
 L 10.2661,-13.0745 L 10.2501,-12.9372 L 10.234,-12.7985 L 10.2179,-12.6584 L 10.2018,-12.517 L 10.1858,-12.3756
 L 10.17,-12.2359 L 10.1545,-12.0978 L 10.1393,-11.9613 L 10.1242,-11.8265 L 10.1095,-11.6932 L 10.095,-11.5616
 L 10.0807,-11.4315 L 10.0667,-11.3031 L 10.053,-11.1764 L 10.0395,-11.0512 L 10.0262,-10.9276 L 10.0132,-10.8057
 L 10.0005,-10.6853 L 9.98804,-10.5666 L 9.97581,-10.4495 L 9.96384,-10.334 L 9.95212,-10.2202 L 9.94064,-10.1079
 L 9.92943,-9.9973 L 9.91847,-9.88829 L 9.90776,-9.78088 L 9.89731,-9.67509 L 9.8871,-9.57092 L 9.87715,-9.46838
 L 9.86746,-9.36743 L 9.85802,-9.26811 L 9.84882,-9.17039 L 9.83989,-9.07431 L 9.83119,-8.97983 L 9.82277,-8.88698
 L 9.81459,-8.79572 L 9.80667,-8.7061 L 9.799,-8.61807 L 9.79158,-8.53169 L 9.78441,-8.4469 L 9.7775,-8.36372
 L 9.77083,-8.2822 L 9.76443,-8.20226 L 9.75829,-8.12393 L 9.75238,-8.04723 L 9.74673,-7.97214 L 9.74133,-7.89867
 L 9.73619,-7.82681 L 9.73131,-7.75658 L 9.72667,-7.68794 L 9.70993,-7.88142 L 9.69275,-8.07643 L 9.67514,-8.27295
 L 9.65707,-8.47101 L 9.63858,-8.67059 L 9.61964,-8.87169 L 9.60025,-9.07433 L 9.58043,-9.27849 L 9.56017,-9.48416
 L 9.53944,-9.69138 L 9.5183,-9.90012 L 9.49672,-10.1104 L 9.47469,-10.3222 L 9.45221,-10.5355 L 9.42931,-10.7503
 L 9.40596,-10.9667 L 9.38216,-11.1846 L 9.35793,-11.404 L 9.33324,-11.6249 L 9.30812,-11.8474 L 9.28256,-12.0714
 L 9.25656,-12.2969 L 9.23012,-12.5239 L 9.20323,-12.7525 L 9.1759,-12.9826 L 9.14815,-13.2142 L 9.11993,-13.4474
 L 9.09129,-13.6821 L 9.06221,-13.9182 L 9.03267,-14.156 L 9.0027,-14.3952 L 8.97229,-14.636 L 8.94144,-14.8783
 L 8.91014,-15.1221 L 8.8784,-15.3675 L 8.84622,-15.6143 L 8.81361,-15.8628 L 8.78055,-16.1127 L 8.74706,-16.3642
 L 8.7131,-16.6171 L 8.67873,-16.8716 L 8.64391,-17.1277 L 8.60864,-17.3852 L 8.57294,-17.6443 L 8.53679,-17.9049
 L 8.5002,-18.1671 L 5.26944,-40 L 0,-40 L 6.4442,-0 L 12.5256,-0 z
M 41.9428,-15.3489 L 44.7935,-15.3489 L 50.8231,-0 L 56.7665,-0 L 56.6895,-0.175781 L 56.6087,-0.360626
 L 56.5242,-0.554474 L 56.4359,-0.75737 L 56.3439,-0.969284 L 56.2481,-1.19022 L 56.1486,-1.42017 L 56.0453,-1.65915
 L 55.9382,-1.90717 L 55.8274,-2.1642 L 55.7129,-2.43027 L 55.5946,-2.70535 L 55.4725,-2.98946 L 55.3467,-3.28259
 L 55.2171,-3.58476 L 55.0838,-3.89595 L 54.9467,-4.21616 L 54.8058,-4.54539 L 54.6612,-4.88367 L 54.5128,-5.23096
 L 54.3607,-5.58727 L 54.2049,-5.95261 L 54.0452,-6.32697 L 53.8819,-6.71036 L 53.7147,-7.10277 L 53.5438,-7.50421
 L 53.3692,-7.91469 L 53.1908,-8.33417 L 53.0086,-8.7627 L 52.8227,-9.20023 L 52.633,-9.64679 L 52.4396,-10.1024
 L 52.2424,-10.567 L 51.8368,-11.5233 L 51.6284,-12.015 L 51.4162,-12.5157 L 50.9805,-13.5442 L 50.757,-14.072
 L 50.5298,-14.6088 L 50.2988,-15.1547 L 50.0641,-15.7096 L 49.8256,-16.2735 L 49.5833,-16.8464 L 49.3373,-17.4283
 L 49.4345,-17.4967 L 49.5307,-17.5662 L 49.6259,-17.6368 L 49.7202,-17.7085 L 49.8135,-17.7814 L 49.9059,-17.8554
 L 49.9973,-17.9305 L 50.0877,-18.0067 L 50.1772,-18.0841 L 50.2657,-18.1626 L 50.3532,-18.2422 L 50.4398,-18.3229
 L 50.5254,-18.4048 L 50.61,-18.4877 L 50.6937,-18.5719 L 50.7764,-18.6571 L 50.8582,-18.7435 L 50.939,-18.8309
 L 51.0188,-18.9196 L 51.0977,-19.0093 L 51.1756,-19.1002 L 51.2525,-19.1921 L 51.3285,-19.2853 L 51.4035,-19.3795
 L 51.4775,-19.4748 L 51.5506,-19.5713 L 51.6227,-19.6689 L 51.6939,-19.7677 L 51.7641,-19.8675 L 51.8333,-19.9685
 L 51.9016,-20.0706 L 51.9689,-20.1739 L 52.0352,-20.2782 L 52.1006,-20.3837 L 52.165,-20.4903 L 52.2284,-20.5981
 L 52.2909,-20.7069 L 52.3524,-20.8169 L 52.413,-20.928 L 52.4725,-21.0403 L 52.5312,-21.1536 L 52.5888,-21.2681
 L 52.6455,-21.3837 L 52.7013,-21.5004 L 52.7561,-21.6183 L 52.8099,-21.7373 L 52.8626,-21.8572 L 52.9142,-21.9779
 L 52.9646,-22.0993 L 53.0139,-22.2214 L 53.062,-22.3443 L 53.109,-22.4678 L 53.1548,-22.5922 L 53.1994,-22.7173
 L 53.2429,-22.8431 L 53.2852,-22.9696 L 53.3264,-23.0969 L 53.3664,-23.2249 L 53.4052,-23.3537 L 53.4429,-23.4832
 L 53.4794,-23.6134 L 53.5148,-23.7444 L 53.549,-23.8761 L 53.5821,-24.0086 L 53.614,-24.1417 L 53.6447,-24.2757
 L 53.6742,-24.4103 L 53.7027,-24.5457 L 53.7299,-24.6819 L 53.756,-24.8187 L 53.7809,-24.9563 L 53.8047,-25.0947
 L 53.8273,-25.2337 L 53.8487,-25.3736 L 53.869,-25.5141 L 53.8882,-25.6554 L 53.9061,-25.7975 L 53.923,-25.9402
 L 53.9386,-26.0837 L 53.9531,-26.228 L 53.9664,-26.373 L 53.9786,-26.5187 L 53.9896,-26.6651 L 53.9995,-26.8123
 L 54.0082,-26.9602 L 54.0157,-27.1089 L 54.0221,-27.2583 L 54.0273,-27.4084 L 54.0314,-27.5593 L 54.0343,-27.7109
 L 54.036,-27.8633 L 54.0366,-28.0164 L 54.0354,-28.2778 L 54.0319,-28.5363 L 54.0261,-28.792 L 54.0179,-29.0447
 L 54.0074,-29.2945 L 53.9945,-29.5414 L 53.9794,-29.7854 L 53.9619,-30.0264 L 53.942,-30.2646 L 53.9198,-30.4999
 L 53.8953,-30.7322 L 53.8685,-30.9617 L 53.8393,-31.1882 L 53.8077,-31.4118 L 53.7739,-31.6325 L 53.7377,-31.8503
 L 53.6992,-32.0652 L 53.6583,-32.2772 L 53.6151,-32.4863 L 53.5696,-32.6924 L 53.5217,-32.8957 L 53.4715,-33.096
 L 53.4189,-33.2934 L 53.3641,-33.488 L 53.3069,-33.6796 L 53.2473,-33.8683 L 53.1854,-34.0541 L 53.1212,-34.237
 L 53.0547,-34.4169 L 52.9858,-34.594 L 52.9146,-34.7682 L 52.841,-34.9394 L 52.7651,-35.1077 L 52.6869,-35.2732
 L 52.6063,-35.4357 L 52.5234,-35.5953 L 52.4382,-35.752 L 52.3506,-35.9058 L 52.2607,-36.0566 L 52.1685,-36.2046
 L 52.0739,-36.3497 L 51.977,-36.4918 L 51.8778,-36.6311 L 51.7762,-36.7674 L 51.6723,-36.9008 L 51.5661,-37.0313
 L 51.4574,-37.159 L 51.3462,-37.2838 L 51.2324,-37.4059 L 51.1161,-37.5252 L 50.9973,-37.6416 L 50.876,-37.7552
 L 50.7522,-37.8661 L 50.6257,-37.9741 L 50.4968,-38.0793 L 50.3654,-38.1817 L 50.2314,-38.2814 L 50.0948,-38.3782
 L 49.9558,-38.4722 L 49.8142,-38.5634 L 49.6701,-38.6517 L 49.5235,-38.7373 L 49.3743,-38.8201 L 49.2226,-38.9001
 L 49.0683,-38.9772 L 48.9116,-39.0516 L 48.7523,-39.1231 L 48.5904,-39.1919 L 48.4261,-39.2578 L 48.2592,-39.321
 L 48.0897,-39.3813 L 47.9178,-39.4388 L 47.7433,-39.4935 L 47.5663,-39.5454 L 47.3867,-39.5945 L 47.2046,-39.6408
 L 47.02,-39.6843 L 46.8329,-39.725 L 46.6432,-39.7629 L 46.451,-39.798 L 46.2563,-39.8302 L 46.059,-39.8597
 L 45.8592,-39.8864 L 45.6569,-39.9102 L 45.452,-39.9312 L 45.2446,-39.9495 L 45.0347,-39.9649 L 44.8222,-39.9775
 L 44.6072,-39.9874 L 44.3897,-39.9944 L 44.1697,-39.9986 L 43.9471,-40 L 36.5872,-40 L 36.5872,-0
 L 41.9428,-0 z
M 41.9428,-22.2436 L 41.9428,-33.0508 L 43.567,-33.0508 L 43.679,-33.0502 L 43.7898,-33.0485 L 43.8992,-33.0456
 L 44.0074,-33.0417 L 44.1143,-33.0365 L 44.22,-33.0303 L 44.3243,-33.0229 L 44.4274,-33.0143 L 44.5291,-33.0047
 L 44.6296,-32.9939 L 44.7289,-32.9819 L 44.8268,-32.9688 L 44.9234,-32.9546 L 45.0188,-32.9392 L 45.1129,-32.9227
 L 45.2057,-32.9051 L 45.2972,-32.8863 L 45.3875,-32.8664 L 45.4764,-32.8454 L 45.5641,-32.8232 L 45.6505,-32.7999
 L 45.7356,-32.7754 L 45.8194,-32.7498 L 45.902,-32.723 L 45.9832,-32.6952 L 46.0632,-32.6662 L 46.1419,-32.636
 L 46.2193,-32.6047 L 46.2955,-32.5723 L 46.3703,-32.5387 L 46.4439,-32.504 L 46.5162,-32.4681 L 46.5872,-32.4312
 L 46.6569,-32.393 L 46.7254,-32.3538 L 46.7925,-32.3134 L 46.8584,-32.2719 L 46.923,-32.2292 L 46.9863,-32.1854
 L 47.0484,-32.1404 L 47.1091,-32.0943 L 47.1686,-32.0471 L 47.2268,-31.9987 L 47.2837,-31.9492 L 47.3393,-31.8986
 L 47.3937,-31.8468 L 47.4468,-31.7937 L 47.4987,-31.739 L 47.5495,-31.6828 L 47.5992,-31.625 L 47.6476,-31.5657
 L 47.6949,-31.5048 L 47.741,-31.4424 L 47.786,-31.3784 L 47.8298,-31.3129 L 47.8724,-31.2458 L 47.9138,-31.1772
 L 47.9541,-31.107 L 47.9933,-31.0353 L 48.0312,-30.962 L 48.068,-30.8871 L 48.1036,-30.8107 L 48.138,-30.7328
 L 48.1713,-30.6533 L 48.2034,-30.5723 L 48.2344,-30.4897 L 48.2641,-30.4055 L 48.2928,-30.3198 L 48.3202,-30.2326
 L 48.3465,-30.1438 L 48.3716,-30.0534 L 48.3955,-29.9615 L 48.4183,-29.8681 L 48.4399,-29.7731 L 48.4603,-29.6765
 L 48.4796,-29.5784 L 48.4977,-29.4787 L 48.5146,-29.3775 L 48.5304,-29.2748 L 48.545,-29.1705 L 48.5584,-29.0646
 L 48.5707,-28.9572 L 48.5818,-28.8482 L 48.5917,-28.7377 L 48.6004,-28.6256 L 48.608,-28.512 L 48.6145,-28.3968
 L 48.6197,-28.2801 L 48.6238,-28.1618 L 48.6267,-28.042 L 48.6285,-27.9206 L 48.629,-27.7977 L 48.6285,-27.6735
 L 48.6268,-27.5508 L 48.6239,-27.4295 L 48.6199,-27.3096 L 48.6147,-27.1912 L 48.6085,-27.0743 L 48.601,-26.9588
 L 48.5925,-26.8447 L 48.5827,-26.7321 L 48.5719,-26.6209 L 48.5599,-26.5112 L 48.5467,-26.403 L 48.5325,-26.2962
 L 48.517,-26.1908 L 48.5004,-26.0869 L 48.4827,-25.9844 L 48.4639,-25.8834 L 48.4439,-25.7838 L 48.4227,-25.6857
 L 48.4004,-25.5891 L 48.377,-25.4938 L 48.3524,-25.4001 L 48.3267,-25.3077 L 48.2998,-25.2168 L 48.2718,-25.1274
 L 48.2427,-25.0394 L 48.2124,-24.9529 L 48.1809,-24.8678 L 48.1484,-24.7842 L 48.1147,-24.702 L 48.0798,-24.6212
 L 48.0438,-24.5419 L 48.0066,-24.4641 L 47.9683,-24.3877 L 47.9289,-24.3128 L 47.8883,-24.2393 L 47.8466,-24.1672
 L 47.8037,-24.0966 L 47.7597,-24.0275 L 47.7146,-23.9597 L 47.6683,-23.8935 L 47.6208,-23.8287 L 47.5723,-23.7653
 L 47.5225,-23.7034 L 47.4716,-23.643 L 47.4196,-23.5839 L 47.3664,-23.5263 L 47.312,-23.4699 L 47.2562,-23.4148
 L 47.1992,-23.361 L 47.141,-23.3084 L 47.0815,-23.2571 L 47.0208,-23.2071 L 46.9588,-23.1583 L 46.8955,-23.1108
 L 46.8309,-23.0645 L 46.7652,-23.0196 L 46.6981,-22.9759 L 46.6298,-22.9334 L 46.5603,-22.8923 L 46.4895,-22.8523
 L 46.4174,-22.8137 L 46.3441,-22.7763 L 46.2695,-22.7402 L 46.1936,-22.7054 L 46.1165,-22.6718 L 46.0382,-22.6395
 L 45.9586,-22.6085 L 45.8777,-22.5787 L 45.7956,-22.5502 L 45.7122,-22.523 L 45.6275,-22.497 L 45.5416,-22.4723
 L 45.4545,-22.4489 L 45.3661,-22.4267 L 45.2764,-22.4058 L 45.1855,-22.3862 L 45.0933,-22.3678 L 44.9998,-22.3507
 L 44.9051,-22.3348 L 44.8092,-22.3203 L 44.712,-22.307 L 44.6135,-22.2949 L 44.5138,-22.2842 L 44.4128,-22.2747
 L 44.3105,-22.2664 L 44.207,-22.2595 L 44.1023,-22.2538 L 43.9963,-22.2493 L 43.889,-22.2462 L 43.7805,-22.2443
 L 43.6707,-22.2436 z
M 75,-7.00407 L 64.7549,-7.00407 L 64.7549,-40 L 59.3993,-40 L 59.3993,-0 L 75,-0
 z
" stroke="black" fill="black" stroke-width="0.5"/>
</svg>
