<?xml version="1.0" standalone="no"?>
<!DOCTYPE svg PUBLIC "-//W3C//DTD SVG 1.1//EN" "http://www.w3.org/Graphics/SVG/1.1/DTD/svg11.dtd">
<svg width="100mm" height="100mm" viewBox="-8 -108 116 116" xmlns="http://www.w3.org/2000/svg" version="1.1">
<title>OpenSCAD Model</title>
<path d="
M 84.1993,-0.00497437 L 84.3984,-0.0149078 L 84.5973,-0.0298004 L 84.7955,-0.0546417 L 84.9926,-0.0843658 L 85.1891,-0.119003
 L 85.3832,-0.163315 L 85.5764,-0.212509 L 85.7684,-0.266525 L 85.9575,-0.330063 L 86.1449,-0.398254 L 86.3306,-0.471115
 L 86.5125,-0.553223 L 86.6922,-0.63974 L 86.8696,-0.730728 L 87.0423,-0.830399 L 87.2124,-0.934357 L 87.3799,-1.04256
 L 87.5419,-1.15901 L 87.7008,-1.2794 L 87.8568,-1.40376 L 88.0063,-1.53571 L 88.1524,-1.67133 L 88.2952,-1.81058
 L 88.4308,-1.95677 L 88.5628,-2.10626 L 88.691,-2.25905 L 88.8113,-2.41792 L 88.9277,-2.5798 L 89.0401,-2.74458
 L 89.1443,-2.9151 L 89.244,-3.08778 L 89.3393,-3.26295 L 89.4258,-3.44243 L 89.5078,-3.62416 L 89.5852,-3.80795
 L 89.6534,-3.99522 L 89.7169,-4.18422 L 89.7757,-4.3748 L 89.825,-4.56818 L 89.8693,-4.76257 L 89.9088,-4.95807
 L 89.9386,-5.15555 L 89.9634,-5.35338 L 89.9832,-5.55183 L 89.9916,-5.70078 L 89.9972,-5.85023 L 90,-6
 L 90,-94 L 89.995,-94.1993 L 89.9851,-94.3984 L 89.9702,-94.5973 L 89.9454,-94.7955 L 89.9156,-94.9926
 L 89.881,-95.1891 L 89.8367,-95.3832 L 89.7875,-95.5764 L 89.7335,-95.7684 L 89.6699,-95.9575 L 89.6017,-96.1449
 L 89.5289,-96.3306 L 89.4468,-96.5125 L 89.3603,-96.6922 L 89.2693,-96.8696 L 89.1696,-97.0423 L 89.0656,-97.2124
 L 88.9574,-97.3799 L 88.841,-97.5419 L 88.7206,-97.7008 L 88.5962,-97.8568 L 88.4643,-98.0063 L 88.3287,-98.1524
 L 88.1894,-98.2952 L 88.0432,-98.4308 L 87.8937,-98.5628 L 87.741,-98.691 L 87.5821,-98.8113 L 87.4202,-98.9277
 L 87.2554,-99.0401 L 87.0849,-99.1443 L 86.9122,-99.244 L 86.737,-99.3393 L 86.5576,-99.4258 L 86.3758,-99.5078
 L 86.192,-99.5852 L 86.0048,-99.6534 L 85.8158,-99.7169 L 85.6252,-99.7757 L 85.4318,-99.825 L 85.2374,-99.8693
 L 85.0419,-99.9088 L 84.8445,-99.9386 L 84.6466,-99.9634 L 84.4482,-99.9832 L 84.2992,-99.9916 L 84.1498,-99.9972
 L 84,-100 L 36,-100 L 10,-74 L 10,-50 L 14,-50 L 14,-70
 L 34,-70 L 34.1993,-70.005 L 34.3984,-70.0149 L 34.5973,-70.0298 L 34.7955,-70.0546 L 34.9926,-70.0844
 L 35.1891,-70.119 L 35.3832,-70.1633 L 35.5764,-70.2125 L 35.7684,-70.2665 L 35.9575,-70.3301 L 36.1449,-70.3983
 L 36.3306,-70.4711 L 36.5125,-70.5532 L 36.6922,-70.6397 L 36.8696,-70.7307 L 37.0423,-70.8304 L 37.2124,-70.9344
 L 37.3799,-71.0426 L 37.5419,-71.159 L 37.7008,-71.2794 L 37.8568,-71.4038 L 38.0063,-71.5357 L 38.1524,-71.6713
 L 38.2952,-71.8106 L 38.4308,-71.9568 L 38.5628,-72.1063 L 38.691,-72.259 L 38.8113,-72.4179 L 38.9277,-72.5798
 L 39.0401,-72.7446 L 39.1443,-72.9151 L 39.244,-73.0878 L 39.3393,-73.263 L 39.4258,-73.4424 L 39.5078,-73.6242
 L 39.5852,-73.808 L 39.6534,-73.9952 L 39.7169,-74.1842 L 39.7757,-74.3748 L 39.825,-74.5682 L 39.8693,-74.7626
 L 39.9088,-74.9581 L 39.9386,-75.1555 L 39.9634,-75.3534 L 39.9832,-75.5518 L 39.9916,-75.7008 L 39.9972,-75.8502
 L 40,-76 L 40,-96 L 84,-96 L 84.1495,-95.9944 L 84.3473,-95.9696 L 84.5417,-95.9252
 L 84.7307,-95.8617 L 84.9124,-95.7797 L 85.0851,-95.6801 L 85.247,-95.5637 L 85.3965,-95.4317 L 85.5321,-95.2856
 L 85.6525,-95.1266 L 85.7564,-94.9565 L 85.843,-94.7769 L 85.9111,-94.5895 L 85.9603,-94.3963 L 85.9901,-94.1991
 L 86,-94 L 86,-6 L 85.9944,-5.85054 L 85.9696,-5.65271 L 85.9252,-5.45831 L 85.8617,-5.26932
 L 85.7797,-5.08759 L 85.6801,-4.9149 L 85.5637,-4.75302 L 85.4317,-4.60353 L 85.2856,-4.46791 L 85.1266,-4.34752
 L 84.9565,-4.24356 L 84.7769,-4.15704 L 84.5895,-4.08885 L 84.3963,-4.03966 L 84.1991,-4.00993 L 84,-4
 L 80,-4 L 80,-0 L 84,-0 z
M 10.7914,0.530716 L 11.0177,0.526413 L 11.2419,0.519241 L 11.4638,0.509216 L 11.6836,0.496307 L 11.9012,0.480545
 L 12.1165,0.461914 L 12.3297,0.440399 L 12.5407,0.416016 L 12.7495,0.388794 L 12.9561,0.358688 L 13.1606,0.325699
 L 13.3628,0.289856 L 13.5628,0.251144 L 13.7607,0.209579 L 13.9563,0.165131 L 14.1498,0.117813 L 14.3411,0.0676422
 L 14.5302,0.0145874 L 14.717,-0.0412903 L 14.9017,-0.100067 L 15.0842,-0.161728 L 15.2646,-0.226242 L 15.4427,-0.293625
 L 15.6186,-0.363861 L 15.7924,-0.436981 L 15.9639,-0.51297 L 16.1333,-0.591827 L 16.3004,-0.673553 L 16.4654,-0.758148
 L 16.6282,-0.845581 L 16.7888,-0.935913 L 16.9472,-1.0291 L 17.1034,-1.12515 L 17.2575,-1.22409 L 17.4093,-1.32587
 L 17.5589,-1.43054 L 17.7064,-1.53806 L 17.8516,-1.64845 L 17.9947,-1.76172 L 18.1356,-1.87785 L 18.2742,-1.99684
 L 18.4108,-2.11871 L 18.545,-2.24345 L 18.6772,-2.37105 L 18.8071,-2.50151 L 18.9345,-2.63448 L 19.0591,-2.76956
 L 19.181,-2.90677 L 19.3,-3.04608 L 19.4162,-3.18752 L 19.5297,-3.33104 L 19.6403,-3.47668 L 19.7481,-3.62445
 L 19.8532,-3.77432 L 19.9554,-3.92632 L 20.0548,-4.08043 L 20.1514,-4.23663 L 20.2453,-4.39497 L 20.3363,-4.5554
 L 20.4245,-4.71796 L 20.5099,-4.88261 L 20.5926,-5.04939 L 20.6724,-5.21831 L 20.7494,-5.3893 L 20.8236,-5.56242
 L 20.895,-5.73764 L 20.9637,-5.91499 L 21.0295,-6.09445 L 21.0925,-6.27602 L 21.1527,-6.4597 L 21.2101,-6.64549
 L 21.2648,-6.8334 L 21.3166,-7.02342 L 21.3656,-7.21556 L 21.4118,-7.40981 L 21.4552,-7.60617 L 21.4958,-7.80464
 L 21.5336,-8.00522 L 21.5686,-8.20793 L 21.6008,-8.41273 L 21.6302,-8.61966 L 21.6568,-8.8287 L 21.6807,-9.03984
 L 21.7017,-9.25311 L 21.7199,-9.46849 L 21.7353,-9.68597 L 21.7479,-9.90558 L 21.7577,-10.1273 L 21.7647,-10.3511
 L 21.7689,-10.5771 L 21.7703,-10.8051 L 21.7695,-10.97 L 21.7673,-11.1338 L 21.7636,-11.2965 L 21.7583,-11.458
 L 21.7516,-11.6184 L 21.7434,-11.7778 L 21.7337,-11.9359 L 21.7225,-12.093 L 21.7098,-12.2489 L 21.6956,-12.4038
 L 21.6799,-12.5575 L 21.6627,-12.7101 L 21.6441,-12.8615 L 21.6239,-13.0119 L 21.6022,-13.1611 L 21.5791,-13.3092
 L 21.5544,-13.4562 L 21.5283,-13.6021 L 21.5007,-13.7468 L 21.4715,-13.8905 L 21.4409,-14.033 L 21.4088,-14.1744
 L 21.3752,-14.3147 L 21.3401,-14.4538 L 21.3035,-14.5919 L 21.2654,-14.7288 L 21.2258,-14.8646 L 21.1848,-14.9993
 L 21.1422,-15.1328 L 21.0981,-15.2652 L 21.0526,-15.3965 L 21.0055,-15.5267 L 20.957,-15.6558 L 20.9069,-15.7838
 L 20.8554,-15.9106 L 20.8024,-16.0363 L 20.7478,-16.161 L 20.6918,-16.2844 L 20.6343,-16.4068 L 20.5753,-16.528
 L 20.5148,-16.6482 L 20.4528,-16.7672 L 20.3893,-16.8851 L 20.3244,-17.0018 L 20.2579,-17.1175 L 20.1899,-17.232
 L 20.12,-17.346 L 20.0475,-17.4599 L 19.9724,-17.5739 L 19.8948,-17.6878 L 19.8147,-17.8018 L 19.7321,-17.9157
 L 19.6469,-18.0296 L 19.5591,-18.1434 L 19.4689,-18.2573 L 19.3761,-18.3712 L 19.2808,-18.485 L 19.1829,-18.5989
 L 19.0825,-18.7127 L 18.9796,-18.8265 L 18.8741,-18.9403 L 18.7661,-19.0541 L 18.6556,-19.1679 L 18.5425,-19.2816
 L 18.4269,-19.3954 L 18.3087,-19.5091 L 18.188,-19.6229 L 18.0648,-19.7366 L 17.9391,-19.8503 L 17.8108,-19.964
 L 17.68,-20.0776 L 17.5466,-20.1913 L 17.4108,-20.3049 L 17.2723,-20.4186 L 17.1314,-20.5322 L 16.9879,-20.6458
 L 16.8418,-20.7594 L 16.6933,-20.873 L 16.5422,-20.9866 L 16.3885,-21.1001 L 16.2324,-21.2137 L 16.0737,-21.3272
 L 15.9124,-21.4407 L 15.7487,-21.5542 L 15.5824,-21.6677 L 15.4135,-21.7812 L 15.2421,-21.8947 L 15.0682,-22.0082
 L 14.8918,-22.1216 L 14.7128,-22.235 L 14.5313,-22.3485 L 14.3472,-22.4619 L 14.2082,-22.5469 L 14.0714,-22.6308
 L 13.9369,-22.7136 L 13.8046,-22.7952 L 13.6745,-22.8757 L 13.5466,-22.955 L 13.421,-23.0332 L 13.2976,-23.1102
 L 13.1764,-23.1861 L 13.0575,-23.2609 L 12.9408,-23.3345 L 12.8263,-23.407 L 12.7141,-23.4783 L 12.604,-23.5484
 L 12.4962,-23.6175 L 12.3907,-23.6853 L 12.2874,-23.7521 L 12.1863,-23.8177 L 12.0874,-23.8821 L 11.9908,-23.9454
 L 11.8964,-24.0076 L 11.8042,-24.0686 L 11.7142,-24.1284 L 11.6265,-24.1872 L 11.541,-24.2447 L 11.4578,-24.3012
 L 11.3768,-24.3565 L 11.298,-24.4106 L 11.2214,-24.4636 L 11.1471,-24.5155 L 11.075,-24.5662 L 11.0051,-24.6157
 L 10.9375,-24.6642 L 10.8721,-24.7114 L 10.8089,-24.7576 L 10.748,-24.8026 L 10.6892,-24.8464 L 10.6328,-24.8891
 L 10.5785,-24.9306 L 10.5265,-24.9711 L 10.4767,-25.0103 L 10.4291,-25.0484 L 10.3838,-25.0854 L 10.3407,-25.1212
 L 10.2998,-25.1559 L 10.2612,-25.1895 L 10.2239,-25.2225 L 10.187,-25.2555 L 10.1506,-25.2886 L 10.1146,-25.3218
 L 10.0791,-25.355 L 10.044,-25.3883 L 10.0094,-25.4216 L 9.97517,-25.4549 L 9.94142,-25.4883 L 9.90811,-25.5218
 L 9.87523,-25.5553 L 9.8428,-25.5889 L 9.81081,-25.6225 L 9.77927,-25.6561 L 9.74815,-25.6898 L 9.7175,-25.7236
 L 9.68727,-25.7574 L 9.65749,-25.7913 L 9.62814,-25.8252 L 9.59926,-25.8591 L 9.5708,-25.8931 L 9.54279,-25.9272
 L 9.51521,-25.9613 L 9.48808,-25.9955 L 9.4614,-26.0297 L 9.43517,-26.0639 L 9.40936,-26.0983 L 9.384,-26.1326
 L 9.35907,-26.167 L 9.33459,-26.2015 L 9.31056,-26.236 L 9.28697,-26.2706 L 9.26381,-26.3052 L 9.2411,-26.3398
 L 9.21884,-26.3746 L 9.19701,-26.4093 L 9.17563,-26.4441 L 9.15469,-26.479 L 9.13419,-26.5139 L 9.11414,-26.5488
 L 9.09453,-26.5839 L 9.07535,-26.6189 L 9.05661,-26.654 L 9.03833,-26.6892 L 9.02049,-26.7244 L 9.00308,-26.7597
 L 8.9861,-26.7951 L 8.96948,-26.8308 L 8.95325,-26.8668 L 8.93738,-26.903 L 8.92189,-26.9395 L 8.90677,-26.9762
 L 8.89203,-27.0133 L 8.87766,-27.0505 L 8.86365,-27.0881 L 8.85002,-27.1259 L 8.83678,-27.164 L 8.8239,-27.2023
 L 8.81139,-27.2409 L 8.79927,-27.2798 L 8.78751,-27.3189 L 8.77612,-27.3583 L 8.76511,-27.398 L 8.75447,-27.4379
 L 8.7442,-27.4781 L 8.73431,-27.5185 L 8.72479,-27.5592 L 8.71565,-27.6002 L 8.70688,-27.6414 L 8.69849,-27.6829
 L 8.69044,-27.7247 L 8.6828,-27.7667 L 8.67552,-27.809 L 8.66862,-27.8516 L 8.66208,-27.8944 L 8.65591,-27.9375
 L 8.65015,-27.9808 L 8.64473,-28.0244 L 8.63968,-28.0683 L 8.63503,-28.1125 L 8.63072,-28.1569 L 8.6268,-28.2015
 L 8.62326,-28.2465 L 8.62009,-28.2917 L 8.61728,-28.3371 L 8.61487,-28.3828 L 8.61281,-28.4288 L 8.61113,-28.4751
 L 8.60982,-28.5216 L 8.60889,-28.5684 L 8.60834,-28.6154 L 8.60815,-28.6627 L 8.60861,-28.7388 L 8.60999,-28.8142
 L 8.6123,-28.889 L 8.61552,-28.9632 L 8.61969,-29.0367 L 8.62477,-29.1096 L 8.63077,-29.1819 L 8.6377,-29.2536
 L 8.64555,-29.3246 L 8.65433,-29.395 L 8.66403,-29.4648 L 8.67465,-29.5339 L 8.68619,-29.6024 L 8.69865,-29.6703
 L 8.71205,-29.7376 L 8.72636,-29.8042 L 8.74161,-29.8702 L 8.75778,-29.9355 L 8.77487,-30.0003 L 8.79288,-30.0644
 L 8.8118,-30.1279 L 8.83167,-30.1907 L 8.85245,-30.2529 L 8.87416,-30.3145 L 8.89677,-30.3755 L 8.92033,-30.4358
 L 8.94481,-30.4955 L 8.97021,-30.5546 L 8.99654,-30.6131 L 9.02379,-30.6709 L 9.05196,-30.728 L 9.08105,-30.7846
 L 9.11107,-30.8405 L 9.14201,-30.8958 L 9.17387,-30.9505 L 9.20667,-31.0045 L 9.24037,-31.058 L 9.27502,-31.1107
 L 9.31058,-31.1629 L 9.34706,-31.2144 L 9.38446,-31.2653 L 9.42279,-31.3156 L 9.46205,-31.3652 L 9.50223,-31.4142
 L 9.54333,-31.4626 L 9.58536,-31.5104 L 9.62827,-31.5573 L 9.67197,-31.6032 L 9.71648,-31.648 L 9.76181,-31.6919
 L 9.80792,-31.7346 L 9.85486,-31.7764 L 9.9026,-31.8172 L 9.95114,-31.8569 L 10.0005,-31.8955 L 10.0506,-31.9332
 L 10.1016,-31.9698 L 10.1534,-32.0054 L 10.2059,-32.0399 L 10.2593,-32.0734 L 10.3135,-32.1059 L 10.3685,-32.1373
 L 10.4243,-32.1678 L 10.4808,-32.1972 L 10.5383,-32.2255 L 10.5965,-32.2529 L 10.6555,-32.2791 L 10.7153,-32.3044
 L 10.7759,-32.3286 L 10.8373,-32.3519 L 10.8996,-32.374 L 10.9626,-32.3952 L 11.0264,-32.4153 L 11.0911,-32.4343
 L 11.1566,-32.4524 L 11.2228,-32.4694 L 11.2899,-32.4854 L 11.3577,-32.5003 L 11.4264,-32.5143 L 11.4959,-32.5271
 L 11.5662,-32.539 L 11.6373,-32.5499 L 11.7092,-32.5596 L 11.7819,-32.5684 L 11.8554,-32.5761 L 11.9297,-32.5828
 L 12.0048,-32.5885 L 12.0807,-32.5932 L 12.1575,-32.5968 L 12.235,-32.5993 L 12.3134,-32.6009 L 12.3925,-32.6014
 L 12.4594,-32.6012 L 12.5264,-32.6004 L 12.5934,-32.5992 L 12.6605,-32.5976 L 12.7276,-32.5954 L 12.7948,-32.5928
 L 12.862,-32.5897 L 12.9293,-32.5861 L 12.9966,-32.582 L 13.0639,-32.5775 L 13.1313,-32.5725 L 13.1988,-32.567
 L 13.2663,-32.561 L 13.3339,-32.5546 L 13.4015,-32.5476 L 13.4692,-32.5402 L 13.5369,-32.5323 L 13.6046,-32.5239
 L 13.6724,-32.5151 L 13.7403,-32.5058 L 13.8082,-32.496 L 13.8762,-32.4857 L 13.9442,-32.4749 L 14.0122,-32.4637
 L 14.0803,-32.452 L 14.1485,-32.4398 L 14.2167,-32.4271 L 14.2849,-32.414 L 14.3532,-32.4003 L 14.4216,-32.3862
 L 14.49,-32.3717 L 14.5584,-32.3566 L 14.6269,-32.341 L 14.6955,-32.325 L 14.7641,-32.3085 L 14.8327,-32.2916
 L 14.9014,-32.2741 L 14.9702,-32.2562 L 15.039,-32.2378 L 15.1078,-32.2189 L 15.1767,-32.1995 L 15.2456,-32.1797
 L 15.3146,-32.1593 L 15.3837,-32.1386 L 15.4528,-32.1173 L 15.5219,-32.0955 L 15.5915,-32.0732 L 15.6618,-32.0501
 L 15.733,-32.0263 L 15.8049,-32.0018 L 15.8777,-31.9765 L 15.9512,-31.9505 L 16.0255,-31.9238 L 16.1007,-31.8964
 L 16.1766,-31.8682 L 16.2533,-31.8393 L 16.3309,-31.8096 L 16.4092,-31.7793 L 16.4883,-31.7482 L 16.5682,-31.7163
 L 16.6489,-31.6838 L 16.7304,-31.6505 L 16.8127,-31.6165 L 16.8958,-31.5817 L 16.9797,-31.5462 L 17.0643,-31.51
 L 17.1498,-31.4731 L 17.2361,-31.4354 L 17.3232,-31.397 L 17.411,-31.3579 L 17.4997,-31.3181 L 17.5891,-31.2775
 L 17.6794,-31.2362 L 17.7705,-31.1941 L 17.8623,-31.1514 L 17.9549,-31.1079 L 18.0484,-31.0636 L 18.1426,-31.0187
 L 18.2376,-30.973 L 18.3335,-30.9265 L 18.4301,-30.8794 L 18.5275,-30.8315 L 18.6257,-30.7829 L 18.7247,-30.7336
 L 18.8245,-30.6835 L 18.9251,-30.6327 L 19.0265,-30.5812 L 19.1287,-30.5289 L 19.2317,-30.4759 L 19.3355,-30.4222
 L 19.44,-30.3678 L 19.5454,-30.3126 L 21.6246,-36.7265 L 21.5226,-36.7829 L 21.4207,-36.8388 L 21.319,-36.8941
 L 21.2175,-36.9489 L 21.1162,-37.0031 L 21.015,-37.0568 L 20.9141,-37.1099 L 20.8133,-37.1624 L 20.7128,-37.2144
 L 20.6124,-37.2659 L 20.5122,-37.3167 L 20.4122,-37.3671 L 20.3123,-37.4169 L 20.2127,-37.4661 L 20.1133,-37.5148
 L 20.014,-37.5629 L 19.9149,-37.6105 L 19.816,-37.6575 L 19.7173,-37.7039 L 19.6188,-37.7499 L 19.5204,-37.7952
 L 19.4223,-37.84 L 19.3243,-37.8843 L 19.2266,-37.9279 L 19.129,-37.9711 L 19.0316,-38.0137 L 18.9344,-38.0557
 L 18.8373,-38.0972 L 18.7405,-38.1381 L 18.6439,-38.1785 L 18.5474,-38.2183 L 18.4511,-38.2576 L 18.355,-38.2963
 L 18.2591,-38.3345 L 18.1634,-38.3721 L 18.0679,-38.4091 L 17.9725,-38.4456 L 17.8773,-38.4816 L 17.7824,-38.517
 L 17.6876,-38.5518 L 17.593,-38.5861 L 17.4986,-38.6198 L 17.4043,-38.653 L 17.3103,-38.6857 L 17.2164,-38.7177
 L 17.1228,-38.7492 L 17.0291,-38.7801 L 16.9352,-38.8104 L 16.8412,-38.8399 L 16.7469,-38.8688 L 16.6524,-38.897
 L 16.5577,-38.9245 L 16.4628,-38.9513 L 16.3677,-38.9774 L 16.2724,-39.0029 L 16.1768,-39.0277 L 16.0811,-39.0518
 L 15.9852,-39.0753 L 15.889,-39.098 L 15.7927,-39.1201 L 15.6961,-39.1415 L 15.5994,-39.1622 L 15.5024,-39.1822
 L 15.4052,-39.2016 L 15.3078,-39.2203 L 15.2103,-39.2383 L 15.1125,-39.2556 L 15.0145,-39.2722 L 14.9162,-39.2882
 L 14.8178,-39.3035 L 14.7192,-39.3181 L 14.6204,-39.332 L 14.5213,-39.3452 L 14.4221,-39.3578 L 14.3226,-39.3697
 L 14.223,-39.3809 L 14.1231,-39.3914 L 14.0231,-39.4013 L 13.9228,-39.4104 L 13.8223,-39.4189 L 13.7216,-39.4267
 L 13.6207,-39.4339 L 13.5196,-39.4403 L 13.4183,-39.4461 L 13.3168,-39.4512 L 13.2151,-39.4556 L 13.1131,-39.4593
 L 13.011,-39.4624 L 12.9087,-39.4648 L 12.8061,-39.4665 L 12.7034,-39.4675 L 12.6004,-39.4678 L 12.3916,-39.4664
 L 12.1849,-39.4622 L 11.9801,-39.4553 L 11.7773,-39.4455 L 11.5764,-39.4329 L 11.3775,-39.4176 L 11.1807,-39.3994
 L 10.9857,-39.3785 L 10.7928,-39.3548 L 10.6018,-39.3282 L 10.4128,-39.2989 L 10.2258,-39.2668 L 10.0408,-39.2319
 L 9.8577,-39.1942 L 9.67659,-39.1537 L 9.49747,-39.1104 L 9.32033,-39.0644 L 9.14516,-39.0155 L 8.97195,-38.9639
 L 8.80074,-38.9094 L 8.63148,-38.8522 L 8.4642,-38.7921 L 8.2989,-38.7293 L 8.13559,-38.6637 L 7.97424,-38.5953
 L 7.81488,-38.5241 L 7.65747,-38.4501 L 7.50204,-38.3733 L 7.3486,-38.2938 L 7.19713,-38.2114 L 7.04762,-38.1262
 L 6.9001,-38.0383 L 6.75455,-37.9475 L 6.61098,-37.854 L 6.46938,-37.7577 L 6.32974,-37.6586 L 6.19209,-37.5566
 L 6.05643,-37.452 L 5.92273,-37.3444 L 5.791,-37.2342 L 5.66124,-37.1211 L 5.53346,-37.0052 L 5.40767,-36.8866
 L 5.28383,-36.7651 L 5.16199,-36.6409 L 5.04211,-36.5138 L 4.92451,-36.3843 L 4.80952,-36.2527 L 4.69711,-36.1191
 L 4.58728,-35.9834 L 4.48003,-35.8455 L 4.37537,-35.7056 L 4.27328,-35.5636 L 4.17378,-35.4195 L 4.07687,-35.2733
 L 3.98256,-35.125 L 3.89082,-34.9747 L 3.80165,-34.8222 L 3.71509,-34.6677 L 3.63109,-34.5111 L 3.5497,-34.3524
 L 3.47087,-34.1916 L 3.39462,-34.0287 L 3.32098,-33.8637 L 3.24992,-33.6966 L 3.18143,-33.5275 L 3.11554,-33.3562
 L 3.05222,-33.1829 L 2.99149,-33.0075 L 2.93335,-32.83 L 2.87778,-32.6504 L 2.8248,-32.4687 L 2.77441,-32.2849
 L 2.72659,-32.0991 L 2.68137,-31.9111 L 2.63873,-31.7211 L 2.59868,-31.529 L 2.5612,-31.3348 L 2.52632,-31.1385
 L 2.49402,-30.9401 L 2.46429,-30.7396 L 2.43715,-30.5371 L 2.4126,-30.3324 L 2.39064,-30.1257 L 2.37126,-29.9169
 L 2.35446,-29.7059 L 2.34024,-29.4929 L 2.32863,-29.2778 L 2.31958,-29.0607 L 2.31311,-28.8414 L 2.30923,-28.6201
 L 2.30794,-28.3966 L 2.30833,-28.2778 L 2.30952,-28.1595 L 2.31148,-28.042 L 2.31424,-27.9251 L 2.31776,-27.8089
 L 2.3221,-27.6933 L 2.32721,-27.5783 L 2.3331,-27.464 L 2.33978,-27.3504 L 2.34724,-27.2374 L 2.3555,-27.1251
 L 2.36453,-27.0134 L 2.37436,-26.9024 L 2.38498,-26.7921 L 2.39636,-26.6824 L 2.40854,-26.5733 L 2.42152,-26.4649
 L 2.43527,-26.3572 L 2.44981,-26.2501 L 2.46515,-26.1437 L 2.48125,-26.0379 L 2.49815,-25.9327 L 2.51584,-25.8283
 L 2.5343,-25.7245 L 2.55356,-25.6213 L 2.57361,-25.5188 L 2.59444,-25.4169 L 2.61604,-25.3157 L 2.63844,-25.2152
 L 2.66164,-25.1153 L 2.68561,-25.016 L 2.71037,-24.9174 L 2.73592,-24.8195 L 2.76224,-24.7222 L 2.78935,-24.6256
 L 2.81726,-24.5296 L 2.84595,-24.4343 L 2.87543,-24.3397 L 2.90569,-24.2456 L 2.93672,-24.1523 L 2.96857,-24.0596
 L 3.00117,-23.9675 L 3.03458,-23.8761 L 3.06877,-23.7854 L 3.10374,-23.6953 L 3.13951,-23.6059 L 3.17595,-23.517
 L 3.21291,-23.4287 L 3.2504,-23.3408 L 3.28842,-23.2534 L 3.32698,-23.1664 L 3.36607,-23.08 L 3.40569,-22.994
 L 3.44583,-22.9085 L 3.48651,-22.8235 L 3.52771,-22.7389 L 3.56944,-22.6548 L 3.61171,-22.5712 L 3.65451,-22.4881
 L 3.69785,-22.4055 L 3.7417,-22.3233 L 3.78609,-22.2416 L 3.83101,-22.1604 L 3.87645,-22.0797 L 3.92244,-21.9995
 L 3.96895,-21.9197 L 4.01599,-21.8404 L 4.06355,-21.7616 L 4.11165,-21.6832 L 4.16029,-21.6054 L 4.20946,-21.528
 L 4.25916,-21.4511 L 4.30936,-21.3747 L 4.36012,-21.2987 L 4.41141,-21.2233 L 4.46323,-21.1483 L 4.51556,-21.0737
 L 4.56844,-20.9997 L 4.62184,-20.9261 L 4.67578,-20.8531 L 4.73026,-20.7805 L 4.78523,-20.7083 L 4.84077,-20.6367
 L 4.89682,-20.5655 L 4.95341,-20.4948 L 5.01053,-20.4246 L 5.06818,-20.3549 L 5.12636,-20.2856 L 5.18507,-20.2168
 L 5.24429,-20.1485 L 5.30406,-20.0807 L 5.36436,-20.0133 L 5.42561,-19.9462 L 5.48816,-19.8789 L 5.55203,-19.8114
 L 5.61722,-19.7439 L 5.68372,-19.6762 L 5.75154,-19.6084 L 5.82068,-19.5405 L 5.89113,-19.4724 L 5.96291,-19.4043
 L 6.03598,-19.3359 L 6.11038,-19.2675 L 6.18611,-19.199 L 6.26315,-19.1303 L 6.34149,-19.0615 L 6.42117,-18.9925
 L 6.50215,-18.9235 L 6.58446,-18.8543 L 6.66808,-18.785 L 6.75301,-18.7155 L 6.83926,-18.646 L 6.92683,-18.5763
 L 7.01572,-18.5065 L 7.10593,-18.4365 L 7.19743,-18.3665 L 7.29027,-18.2963 L 7.38443,-18.226 L 7.47989,-18.1555
 L 7.57668,-18.085 L 7.67479,-18.0143 L 7.7742,-17.9434 L 7.87494,-17.8725 L 7.97699,-17.8014 L 8.08035,-17.7302
 L 8.18504,-17.6589 L 8.29105,-17.5875 L 8.39836,-17.5159 L 8.507,-17.4442 L 8.61694,-17.3724 L 8.72821,-17.3004
 L 8.84081,-17.2283 L 8.9547,-17.1561 L 9.06993,-17.0838 L 9.18646,-17.0113 L 9.30431,-16.9388 L 9.42348,-16.8661
 L 9.54396,-16.7932 L 9.67229,-16.715 L 9.79872,-16.6377 L 9.92325,-16.5613 L 10.0459,-16.4859 L 10.1666,-16.4114
 L 10.2855,-16.3378 L 10.4024,-16.2652 L 10.5175,-16.1935 L 10.6306,-16.1227 L 10.7419,-16.0528 L 10.8513,-15.9839
 L 10.9587,-15.9159 L 11.0643,-15.8489 L 11.168,-15.7827 L 11.2697,-15.7175 L 11.3696,-15.6533 L 11.4676,-15.5899
 L 11.5637,-15.5275 L 11.6579,-15.4661 L 11.7502,-15.4055 L 11.8406,-15.3459 L 11.929,-15.2872 L 12.0157,-15.2295
 L 12.1004,-15.1727 L 12.1832,-15.1168 L 12.2641,-15.0618 L 12.3431,-15.0078 L 12.4202,-14.9547 L 12.4954,-14.9026
 L 12.5688,-14.8513 L 12.6402,-14.801 L 12.7097,-14.7517 L 12.7774,-14.7032 L 12.8431,-14.6557 L 12.907,-14.6091
 L 12.9689,-14.5635 L 13.029,-14.5188 L 13.0871,-14.475 L 13.1434,-14.4321 L 13.1977,-14.3902 L 13.2502,-14.3492
 L 13.3008,-14.3092 L 13.3494,-14.2701 L 13.3962,-14.2319 L 13.4411,-14.1946 L 13.4841,-14.1583 L 13.5259,-14.1224
 L 13.5673,-14.0864 L 13.6082,-14.0504 L 13.6487,-14.0143 L 13.6888,-13.9781 L 13.7284,-13.9419 L 13.7676,-13.9057
 L 13.8063,-13.8693 L 13.8446,-13.8329 L 13.8824,-13.7964 L 13.9198,-13.7599 L 13.9568,-13.7233 L 13.9933,-13.6867
 L 14.0294,-13.6499 L 14.065,-13.6132 L 14.1002,-13.5763 L 14.1349,-13.5394 L 14.1692,-13.5024 L 14.2031,-13.4654
 L 14.2365,-13.4283 L 14.2695,-13.3911 L 14.302,-13.3539 L 14.3341,-13.3166 L 14.3658,-13.2793 L 14.397,-13.2419
 L 14.4277,-13.2044 L 14.458,-13.1669 L 14.4879,-13.1293 L 14.5174,-13.0916 L 14.5464,-13.0539 L 14.5749,-13.0161
 L 14.603,-12.9782 L 14.6307,-12.9403 L 14.6579,-12.9023 L 14.6847,-12.8643 L 14.711,-12.8262 L 14.7369,-12.788
 L 14.7624,-12.7498 L 14.7874,-12.7115 L 14.812,-12.6731 L 14.8361,-12.6347 L 14.8597,-12.5962 L 14.883,-12.5577
 L 14.9058,-12.5191 L 14.9281,-12.4804 L 14.95,-12.4417 L 14.9715,-12.4028 L 14.9925,-12.3637 L 15.013,-12.3243
 L 15.0331,-12.2847 L 15.0527,-12.2449 L 15.0718,-12.2048 L 15.0904,-12.1645 L 15.1086,-12.124 L 15.1263,-12.0832
 L 15.1435,-12.0422 L 15.1602,-12.0009 L 15.1765,-11.9594 L 15.1923,-11.9177 L 15.2077,-11.8757 L 15.2225,-11.8335
 L 15.2369,-11.791 L 15.2508,-11.7483 L 15.2643,-11.7054 L 15.2773,-11.6622 L 15.2897,-11.6188 L 15.3018,-11.5751
 L 15.3134,-11.5312 L 15.3244,-11.4871 L 15.3351,-11.4427 L 15.3452,-11.3981 L 15.3549,-11.3533 L 15.3641,-11.3082
 L 15.3728,-11.2628 L 15.381,-11.2173 L 15.3888,-11.1715 L 15.3961,-11.1254 L 15.403,-11.0791 L 15.4094,-11.0326
 L 15.4153,-10.9858 L 15.4207,-10.9388 L 15.4256,-10.8916 L 15.4301,-10.8441 L 15.4341,-10.7964 L 15.4377,-10.7484
 L 15.4407,-10.7002 L 15.4433,-10.6518 L 15.4454,-10.6031 L 15.4471,-10.5542 L 15.4483,-10.505 L 15.449,-10.4556
 L 15.4492,-10.406 L 15.4487,-10.3174 L 15.4471,-10.2297 L 15.4444,-10.143 L 15.4407,-10.0572 L 15.4358,-9.9724
 L 15.4299,-9.88857 L 15.423,-9.80568 L 15.415,-9.72374 L 15.4059,-9.64276 L 15.3957,-9.56274 L 15.3844,-9.48366
 L 15.3721,-9.40555 L 15.3587,-9.3284 L 15.3443,-9.2522 L 15.3287,-9.17694 L 15.3121,-9.10266 L 15.2944,-9.02933
 L 15.2757,-8.95697 L 15.2559,-8.88553 L 15.235,-8.81506 L 15.213,-8.74557 L 15.19,-8.67702 L 15.1659,-8.60941
 L 15.1407,-8.54277 L 15.1145,-8.4771 L 15.0872,-8.41235 L 15.0588,-8.34859 L 15.0293,-8.28577 L 14.9988,-8.22391
 L 14.9672,-8.16301 L 14.9345,-8.10306 L 14.9008,-8.04405 L 14.866,-7.98602 L 14.8301,-7.92894 L 14.7932,-7.87282
 L 14.7551,-7.81766 L 14.716,-7.76344 L 14.6759,-7.71017 L 14.6346,-7.65788 L 14.5923,-7.60652 L 14.5489,-7.55614
 L 14.5045,-7.5067 L 14.459,-7.45822 L 14.4124,-7.41071 L 14.3647,-7.36414 L 14.3159,-7.31853 L 14.2662,-7.2739
 L 14.2155,-7.23026 L 14.1639,-7.18759 L 14.1114,-7.14592 L 14.0579,-7.10521 L 14.0035,-7.06549 L 13.9482,-7.02675
 L 13.8919,-6.98898 L 13.8347,-6.95221 L 13.7766,-6.91641 L 13.7175,-6.88159 L 13.6575,-6.84775 L 13.5965,-6.81491
 L 13.5346,-6.78304 L 13.4718,-6.75214 L 13.4081,-6.72221 L 13.3434,-6.69328 L 13.2778,-6.66533 L 13.2113,-6.63837
 L 13.1438,-6.61238 L 13.0754,-6.58736 L 13.006,-6.56332 L 12.9358,-6.54028 L 12.8645,-6.5182 L 12.7924,-6.49713
 L 12.7193,-6.47702 L 12.6453,-6.4579 L 12.5704,-6.43976 L 12.4945,-6.42259 L 12.4177,-6.4064 L 12.3399,-6.3912
 L 12.2613,-6.37698 L 12.1816,-6.36374 L 12.1011,-6.35149 L 12.0196,-6.34021 L 11.9372,-6.32991 L 11.8539,-6.32059
 L 11.7696,-6.31226 L 11.6844,-6.3049 L 11.5982,-6.29852 L 11.5112,-6.29314 L 11.4231,-6.28871 L 11.3342,-6.28529
 L 11.2443,-6.28284 L 11.1535,-6.28137 L 11.0618,-6.28087 L 10.9847,-6.2812 L 10.9074,-6.28223 L 10.8297,-6.28392
 L 10.7516,-6.2863 L 10.6732,-6.28937 L 10.5945,-6.29309 L 10.5154,-6.2975 L 10.436,-6.30261 L 10.3562,-6.30838
 L 10.2761,-6.31482 L 10.1957,-6.32196 L 10.1149,-6.32977 L 10.0337,-6.33826 L 9.95224,-6.34743 L 9.87041,-6.35728
 L 9.78824,-6.36781 L 9.70572,-6.37901 L 9.62286,-6.3909 L 9.53964,-6.40347 L 9.4561,-6.4167 L 9.37219,-6.43063
 L 9.28796,-6.44524 L 9.20337,-6.46051 L 9.11845,-6.47649 L 9.03317,-6.49312 L 8.94757,-6.51044 L 8.8616,-6.52843
 L 8.77531,-6.54712 L 8.68866,-6.56648 L 8.60167,-6.5865 L 8.51433,-6.60722 L 8.42665,-6.62862 L 8.33864,-6.65068
 L 8.25026,-6.67345 L 8.16156,-6.69687 L 8.07249,-6.72099 L 7.98309,-6.74579 L 7.89336,-6.77126 L 7.80327,-6.79741
 L 7.71283,-6.82423 L 7.62207,-6.85173 L 7.53094,-6.87993 L 7.43948,-6.90878 L 7.34767,-6.93832 L 7.25552,-6.96855
 L 7.16302,-6.99945 L 7.06993,-7.03119 L 6.97594,-7.0639 L 6.88104,-7.09761 L 6.78525,-7.13228 L 6.68857,-7.16794
 L 6.59099,-7.20457 L 6.49254,-7.24219 L 6.39317,-7.28079 L 6.29291,-7.32037 L 6.19176,-7.36093 L 6.08971,-7.40248
 L 5.98677,-7.44499 L 5.88293,-7.48849 L 5.7782,-7.53297 L 5.67258,-7.57845 L 5.56606,-7.62488 L 5.45863,-7.67232
 L 5.35033,-7.72072 L 5.24112,-7.7701 L 5.13101,-7.82047 L 5.02002,-7.87181 L 4.90813,-7.92415 L 4.79535,-7.97746
 L 4.68167,-8.03175 L 4.56711,-8.08702 L 4.45163,-8.14326 L 4.33527,-8.2005 L 4.21802,-8.25873 L 4.09987,-8.31792
 L 3.98082,-8.3781 L 3.86087,-8.43925 L 3.74005,-8.50139 L 3.6183,-8.56451 L 3.4957,-8.6286 L 3.37218,-8.69368
 L 3.24776,-8.75975 L 3.12245,-8.82678 L 2.99623,-8.89481 L 2.86914,-8.96381 L 2.74115,-9.0338 L 2.61227,-9.10475
 L 2.48248,-9.17671 L 2.35181,-9.24963 L 2.22025,-9.32355 L 2.08777,-9.39842 L 1.95441,-9.47429 L 1.95441,-1.8096
 L 2.11768,-1.70889 L 2.28201,-1.6104 L 2.44739,-1.51411 L 2.61385,-1.42004 L 2.78136,-1.3282 L 2.94994,-1.23854
 L 3.11957,-1.15112 L 3.29025,-1.0659 L 3.46202,-0.982895 L 3.63484,-0.9021 L 3.8087,-0.823532 L 3.98364,-0.747162
 L 4.15965,-0.673019 L 4.33672,-0.601074 L 4.51483,-0.531357 L 4.69402,-0.463852 L 4.87425,-0.398544 L 5.05556,-0.33548
 L 5.23793,-0.274612 L 5.42136,-0.215942 L 5.60585,-0.159515 L 5.7914,-0.10527 L 5.978,-0.0532532 L 6.16568,-0.00346375
 L 6.3544,0.0440979 L 6.54419,0.0894775 L 6.73505,0.132629 L 6.92697,0.173584 L 7.11995,0.212311 L 7.31398,0.24884
 L 7.50908,0.283157 L 7.70525,0.315231 L 7.90247,0.345123 L 8.10074,0.372787 L 8.30008,0.398254 L 8.50049,0.421494
 L 8.70195,0.442505 L 8.90448,0.461319 L 9.10806,0.477936 L 9.3127,0.49231 L 9.51842,0.504486 L 9.72517,0.51445
 L 9.93301,0.522202 L 10.1419,0.52774 L 10.3519,0.531052 L 10.5629,0.53215 z
M 66.2594,0.531921 L 66.3768,0.531219 L 66.494,0.53006 L 66.6112,0.528427 L 66.7282,0.526352 L 66.8452,0.523788
 L 66.962,0.520752 L 67.0787,0.517258 L 67.1953,0.513306 L 67.3118,0.508881 L 67.4282,0.503998 L 67.5445,0.498627
 L 67.6607,0.492828 L 67.7767,0.486542 L 67.8927,0.479782 L 68.0085,0.472565 L 68.1243,0.46489 L 68.2399,0.456741
 L 68.3554,0.44812 L 68.4709,0.439041 L 68.5862,0.429504 L 68.7014,0.419495 L 68.8165,0.409012 L 68.9314,0.398087
 L 69.0463,0.386673 L 69.1611,0.374802 L 69.2757,0.362473 L 69.3903,0.34967 L 69.5047,0.336411 L 69.619,0.322662
 L 69.7333,0.308472 L 69.8474,0.293793 L 69.9614,0.278671 L 70.0753,0.263077 L 70.1891,0.247009 L 70.3028,0.230484
 L 70.4164,0.213501 L 70.5298,0.196045 L 70.6432,0.178116 L 70.7564,0.159729 L 70.8696,0.140869 L 70.9826,0.121552
 L 71.0955,0.101761 L 71.2083,0.0815277 L 71.321,0.0608063 L 71.4336,0.0396271 L 71.5464,0.0178833 L 71.6594,-0.00453186
 L 71.7728,-0.0276642 L 71.8865,-0.0514832 L 72.0005,-0.0759888 L 72.1148,-0.101181 L 72.2295,-0.127075 L 72.3445,-0.153671
 L 72.4598,-0.180954 L 72.5754,-0.208908 L 72.6914,-0.237564 L 72.8077,-0.266922 L 72.9243,-0.296967 L 73.0412,-0.327713
 L 73.1585,-0.359131 L 73.2761,-0.391266 L 73.394,-0.424057 L 73.5122,-0.457565 L 73.6308,-0.491776 L 73.7496,-0.526657
 L 73.8689,-0.562225 L 73.9884,-0.598511 L 74.1082,-0.635468 L 74.2284,-0.673126 L 74.3489,-0.711472 L 74.4698,-0.750504
 L 74.5909,-0.790237 L 74.7124,-0.830658 L 74.8342,-0.871765 L 74.9563,-0.913589 L 75.0788,-0.95607 L 75.2015,-0.999268
 L 75.3246,-1.04315 L 75.448,-1.08772 L 75.5718,-1.13298 L 75.6959,-1.17896 L 75.8203,-1.2256 L 75.945,-1.27293
 L 76.07,-1.32097 L 76.1954,-1.36969 L 76.3211,-1.41911 L 76.4471,-1.46921 L 76.5734,-1.52002 L 76.7001,-1.5715
 L 76.8271,-1.62369 L 76.9544,-1.67656 L 76.9544,-21.8496 L 64.8943,-21.8496 L 64.8943,-14.9832 L 70.6542,-14.9832
 L 70.6542,-6.86642 L 70.5638,-6.84352 L 70.4735,-6.82112 L 70.3832,-6.79921 L 70.293,-6.77782 L 70.2029,-6.75694
 L 70.1128,-6.73654 L 70.0228,-6.71666 L 69.9328,-6.69728 L 69.8429,-6.67842 L 69.753,-6.66003 L 69.6632,-6.64217
 L 69.5735,-6.6248 L 69.4838,-6.60793 L 69.3942,-6.59158 L 69.3046,-6.57571 L 69.2151,-6.56036 L 69.1257,-6.54552
 L 69.0363,-6.53117 L 68.947,-6.51732 L 68.8577,-6.50398 L 68.7685,-6.49115 L 68.6794,-6.47882 L 68.5903,-6.467
 L 68.5013,-6.45566 L 68.4123,-6.44485 L 68.3234,-6.43452 L 68.2346,-6.42471 L 68.1458,-6.41541 L 68.0571,-6.40659
 L 67.9684,-6.39827 L 67.8798,-6.39047 L 67.7912,-6.38318 L 67.7027,-6.37639 L 67.6143,-6.3701 L 67.5259,-6.3643
 L 67.4376,-6.35902 L 67.3493,-6.35423 L 67.2612,-6.34996 L 67.173,-6.34618 L 67.0849,-6.34291 L 66.9969,-6.34015
 L 66.909,-6.33788 L 66.8211,-6.33612 L 66.7332,-6.33485 L 66.6454,-6.33411 L 66.5577,-6.33386 L 66.3904,-6.33543
 L 66.2249,-6.34016 L 66.0611,-6.34807 L 65.899,-6.35912 L 65.7387,-6.37331 L 65.5801,-6.39067 L 65.4233,-6.41119
 L 65.2682,-6.43486 L 65.1148,-6.4617 L 64.9632,-6.49168 L 64.8133,-6.52483 L 64.6651,-6.56113 L 64.5187,-6.6006
 L 64.3741,-6.6432 L 64.2311,-6.68898 L 64.0899,-6.73792 L 63.9505,-6.78999 L 63.8128,-6.84523 L 63.6768,-6.90364
 L 63.5425,-6.96519 L 63.41,-7.02991 L 63.2793,-7.09778 L 63.1503,-7.16881 L 63.023,-7.24298 L 62.8974,-7.32033
 L 62.7737,-7.40083 L 62.6516,-7.48447 L 62.5313,-7.57129 L 62.4127,-7.66125 L 62.2958,-7.75436 L 62.1807,-7.85066
 L 62.0674,-7.95009 L 61.9557,-8.05269 L 61.8459,-8.15843 L 61.7377,-8.26733 L 61.6313,-8.37941 L 61.5266,-8.49463
 L 61.4237,-8.61301 L 61.3225,-8.73454 L 61.2231,-8.85924 L 61.1253,-8.98708 L 61.0294,-9.11809 L 60.9351,-9.25224
 L 60.8426,-9.38956 L 60.7519,-9.53003 L 60.6629,-9.67366 L 60.5757,-9.8203 L 60.4904,-9.96977 L 60.4071,-10.1221
 L 60.3257,-10.2772 L 60.2461,-10.4352 L 60.1685,-10.596 L 60.0929,-10.7596 L 60.0191,-10.926 L 59.9473,-11.0953
 L 59.8773,-11.2674 L 59.8093,-11.4424 L 59.7432,-11.6201 L 59.679,-11.8007 L 59.6167,-11.9842 L 59.5564,-12.1704
 L 59.498,-12.3595 L 59.4414,-12.5514 L 59.3868,-12.7462 L 59.3341,-12.9438 L 59.2834,-13.1442 L 59.2345,-13.3474
 L 59.1876,-13.5535 L 59.1425,-13.7624 L 59.0994,-13.9741 L 59.0582,-14.1887 L 59.019,-14.4061 L 58.9816,-14.6263
 L 58.9462,-14.8493 L 58.9126,-15.0752 L 58.881,-15.3039 L 58.8513,-15.5354 L 58.8235,-15.7698 L 58.7977,-16.007
 L 58.7737,-16.247 L 58.7517,-16.4899 L 58.7316,-16.7356 L 58.7134,-16.9841 L 58.6971,-17.2355 L 58.6827,-17.4896
 L 58.6703,-17.7466 L 58.6597,-18.0065 L 58.6511,-18.2691 L 58.6444,-18.5347 L 58.6396,-18.803 L 58.6367,-19.0741
 L 58.6358,-19.3481 L 58.637,-19.6108 L 58.6405,-19.8711 L 58.6465,-20.129 L 58.6548,-20.3847 L 58.6655,-20.638
 L 58.6786,-20.8889 L 58.694,-21.1375 L 58.7119,-21.3838 L 58.7321,-21.6277 L 58.7547,-21.8693 L 58.7796,-22.1086
 L 58.807,-22.3455 L 58.8367,-22.58 L 58.8688,-22.8123 L 58.9033,-23.0422 L 58.9402,-23.2697 L 58.9794,-23.4949
 L 59.021,-23.7178 L 59.065,-23.9383 L 59.1114,-24.1566 L 59.1601,-24.3724 L 59.2112,-24.5859 L 59.2647,-24.7971
 L 59.3206,-25.0059 L 59.3789,-25.2124 L 59.4395,-25.4166 L 59.5025,-25.6184 L 59.5679,-25.8179 L 59.6357,-26.015
 L 59.7058,-26.2098 L 59.7784,-26.4023 L 59.8533,-26.5924 L 59.9305,-26.7802 L 60.0102,-26.9656 L 60.0923,-27.1487
 L 60.1767,-27.3295 L 60.2635,-27.5079 L 60.3526,-27.684 L 60.4442,-27.8578 L 60.5381,-28.0292 L 60.6344,-28.1982
 L 60.7331,-28.3649 L 60.8342,-28.5293 L 60.9376,-28.6914 L 61.0434,-28.8511 L 61.1516,-29.0085 L 61.2618,-29.163
 L 61.3736,-29.3141 L 61.4869,-29.4618 L 61.6018,-29.6061 L 61.7183,-29.7471 L 61.8363,-29.8846 L 61.9559,-30.0188
 L 62.0771,-30.1495 L 62.1999,-30.2769 L 62.3242,-30.4008 L 62.4501,-30.5214 L 62.5776,-30.6385 L 62.7066,-30.7523
 L 62.8372,-30.8627 L 62.9694,-30.9696 L 63.1032,-31.0732 L 63.2385,-31.1734 L 63.3754,-31.2702 L 63.5139,-31.3636
 L 63.654,-31.4536 L 63.7956,-31.5401 L 63.9388,-31.6234 L 64.0836,-31.7032 L 64.2299,-31.7796 L 64.3778,-31.8526
 L 64.5273,-31.9222 L 64.6783,-31.9884 L 64.831,-32.0513 L 64.9852,-32.1107 L 65.1409,-32.1667 L 65.2983,-32.2194
 L 65.4572,-32.2686 L 65.6177,-32.3144 L 65.7797,-32.3569 L 65.9434,-32.3959 L 66.1086,-32.4316 L 66.2753,-32.4639
 L 66.4437,-32.4927 L 66.6136,-32.5182 L 66.7851,-32.5403 L 66.9582,-32.5589 L 67.1328,-32.5742 L 67.309,-32.5861
 L 67.4868,-32.5946 L 67.6661,-32.5997 L 67.847,-32.6014 L 68.0033,-32.6004 L 68.1593,-32.5974 L 68.3151,-32.5923
 L 68.4706,-32.5853 L 68.6258,-32.5762 L 68.7808,-32.5652 L 68.9355,-32.5521 L 69.09,-32.537 L 69.2442,-32.5199
 L 69.3982,-32.5008 L 69.5519,-32.4796 L 69.7054,-32.4565 L 69.8586,-32.4314 L 70.0115,-32.4042 L 70.1642,-32.375
 L 70.3166,-32.3438 L 70.4688,-32.3106 L 70.6207,-32.2754 L 70.7724,-32.2382 L 70.9238,-32.1989 L 71.075,-32.1577
 L 71.2259,-32.1144 L 71.3765,-32.0691 L 71.5269,-32.0219 L 71.6771,-31.9725 L 71.8269,-31.9212 L 71.9766,-31.8679
 L 72.1259,-31.8125 L 72.275,-31.7552 L 72.4239,-31.6958 L 72.5725,-31.6345 L 72.7209,-31.5711 L 72.869,-31.5057
 L 73.0168,-31.4383 L 73.1644,-31.3688 L 73.3117,-31.2974 L 73.4588,-31.2239 L 73.6056,-31.1485 L 73.7522,-31.071
 L 73.8985,-30.9915 L 74.0445,-30.91 L 74.1903,-30.8265 L 74.3358,-30.741 L 74.4811,-30.6534 L 74.6261,-30.5639
 L 74.7709,-30.4723 L 76.9127,-37.0727 L 76.7236,-37.1757 L 76.5342,-37.2764 L 76.3444,-37.3749 L 76.1544,-37.4711
 L 75.964,-37.565 L 75.7734,-37.6567 L 75.5824,-37.7462 L 75.3911,-37.8333 L 75.1994,-37.9182 L 75.0075,-38.0009
 L 74.8152,-38.0812 L 74.6227,-38.1593 L 74.4298,-38.2352 L 74.2366,-38.3087 L 74.0431,-38.3801 L 73.8493,-38.4491
 L 73.6552,-38.5159 L 73.4607,-38.5804 L 73.2659,-38.6427 L 73.0709,-38.7027 L 72.8755,-38.7604 L 72.6798,-38.8158
 L 72.4837,-38.869 L 72.2874,-38.92 L 72.0908,-38.9687 L 71.8938,-39.0151 L 71.6965,-39.0592 L 71.4989,-39.1011
 L 71.301,-39.1407 L 71.1028,-39.1781 L 70.9043,-39.2132 L 70.7054,-39.246 L 70.5062,-39.2765 L 70.3068,-39.3048
 L 70.1069,-39.3309 L 69.9068,-39.3546 L 69.7064,-39.3761 L 69.5057,-39.3954 L 69.3046,-39.4124 L 69.1033,-39.4271
 L 68.9016,-39.4395 L 68.6996,-39.4497 L 68.4973,-39.4576 L 68.2946,-39.4633 L 68.0917,-39.4667 L 67.8884,-39.4678
 L 67.5655,-39.4653 L 67.2455,-39.4579 L 66.9287,-39.4454 L 66.6149,-39.428 L 66.3042,-39.4056 L 65.9966,-39.3782
 L 65.692,-39.3458 L 65.3905,-39.3085 L 65.0921,-39.2661 L 64.7968,-39.2188 L 64.5046,-39.1665 L 64.2154,-39.1092
 L 63.9293,-39.047 L 63.6463,-38.9797 L 63.3663,-38.9075 L 63.0895,-38.8303 L 62.8157,-38.7481 L 62.5449,-38.661
 L 62.2773,-38.5688 L 62.0127,-38.4717 L 61.7512,-38.3696 L 61.4928,-38.2625 L 61.2375,-38.1505 L 60.9852,-38.0334
 L 60.736,-37.9114 L 60.4899,-37.7844 L 60.2469,-37.6524 L 60.0069,-37.5154 L 59.77,-37.3735 L 59.5362,-37.2265
 L 59.3055,-37.0746 L 59.0778,-36.9177 L 58.8532,-36.7559 L 58.6317,-36.589 L 58.4133,-36.4172 L 58.1979,-36.2404
 L 57.9856,-36.0586 L 57.7764,-35.8718 L 57.5703,-35.6801 L 57.3672,-35.4833 L 57.1672,-35.2816 L 56.9703,-35.0749
 L 56.7765,-34.8632 L 56.5857,-34.6466 L 56.398,-34.4249 L 56.2134,-34.1983 L 56.0324,-33.9672 L 55.8553,-33.7322
 L 55.6822,-33.4933 L 55.513,-33.2505 L 55.3478,-33.0037 L 55.1867,-32.753 L 55.0295,-32.4984 L 54.8763,-32.2399
 L 54.727,-31.9774 L 54.5818,-31.711 L 54.4405,-31.4407 L 54.3032,-31.1665 L 54.1698,-30.8883 L 54.0405,-30.6062
 L 53.9151,-30.3202 L 53.7938,-30.0303 L 53.6764,-29.7365 L 53.5629,-29.4387 L 53.4535,-29.137 L 53.348,-28.8313
 L 53.2466,-28.5218 L 53.149,-28.2083 L 53.0555,-27.8909 L 52.966,-27.5696 L 52.8804,-27.2444 L 52.7988,-26.9152
 L 52.7212,-26.5821 L 52.6476,-26.2451 L 52.578,-25.9042 L 52.5123,-25.5593 L 52.4506,-25.2105 L 52.3929,-24.8578
 L 52.3392,-24.5012 L 52.2894,-24.1406 L 52.2437,-23.7761 L 52.2019,-23.4077 L 52.1641,-23.0354 L 52.1302,-22.6591
 L 52.1004,-22.2789 L 52.0745,-21.8949 L 52.0526,-21.5068 L 52.0347,-21.1149 L 52.0208,-20.719 L 52.0108,-20.3192
 L 52.0049,-19.9155 L 52.0029,-19.5079 L 52.0046,-19.0888 L 52.0097,-18.674 L 52.0183,-18.2635 L 52.0303,-17.8572
 L 52.0458,-17.4552 L 52.0646,-17.0574 L 52.0869,-16.664 L 52.1126,-16.2747 L 52.1418,-15.8898 L 52.1743,-15.5091
 L 52.2104,-15.1327 L 52.2498,-14.7605 L 52.2927,-14.3926 L 52.339,-14.029 L 52.3887,-13.6696 L 52.4418,-13.3145
 L 52.4984,-12.9637 L 52.5584,-12.6171 L 52.6219,-12.2748 L 52.6888,-11.9367 L 52.7591,-11.603 L 52.8328,-11.2734
 L 52.9099,-10.9482 L 52.9905,-10.6272 L 53.0746,-10.3104 L 53.162,-9.99796 L 53.2529,-9.68977 L 53.3472,-9.38582
 L 53.4449,-9.08614 L 53.5461,-8.79073 L 53.6507,-8.49957 L 53.7587,-8.21268 L 53.8702,-7.93005 L 53.9851,-7.6517
 L 54.1034,-7.37761 L 54.2251,-7.10777 L 54.3503,-6.84219 L 54.4789,-6.58089 L 54.6109,-6.32385 L 54.7464,-6.07108
 L 54.8853,-5.82256 L 55.0276,-5.57829 L 55.1733,-5.3383 L 55.3225,-5.10258 L 55.4751,-4.87112 L 55.6312,-4.64392
 L 55.7905,-4.42133 L 55.9528,-4.20363 L 56.1183,-3.9908 L 56.2868,-3.78288 L 56.4584,-3.57983 L 56.633,-3.3817
 L 56.8108,-3.18845 L 56.9916,-3.00011 L 57.1755,-2.81664 L 57.3625,-2.63806 L 57.5525,-2.46437 L 57.7456,-2.29559
 L 57.9418,-2.1317 L 58.1411,-1.9727 L 58.3435,-1.81859 L 58.5489,-1.66937 L 58.7574,-1.52505 L 58.969,-1.38562
 L 59.1836,-1.25108 L 59.4014,-1.12143 L 59.6221,-0.996674 L 59.846,-0.876816 L 60.073,-0.761841 L 60.303,-0.651764
 L 60.5361,-0.546585 L 60.7723,-0.446274 L 61.0116,-0.350891 L 61.2539,-0.260376 L 61.4993,-0.174759 L 61.7478,-0.0940399
 L 61.9994,-0.0182037 L 62.254,0.0527039 L 62.5117,0.118759 L 62.7725,0.179901 L 63.0364,0.236176 L 63.3033,0.287537
 L 63.5733,0.334015 L 63.8464,0.375595 L 64.1226,0.412292 L 64.4019,0.444092 L 64.6842,0.470993 L 64.9696,0.493011
 L 65.2581,0.510147 L 65.5496,0.522385 L 65.8442,0.529709 L 66.1419,0.53215 z
M 50.5813,-38.909 L 44.0732,-38.909 L 38.3136,-15.7552 L 38.2563,-15.4908 L 38.2,-15.2298 L 38.1447,-14.9724
 L 38.0905,-14.7184 L 38.0373,-14.4679 L 37.9852,-14.2208 L 37.9341,-13.9773 L 37.884,-13.7372 L 37.8351,-13.5005
 L 37.7871,-13.2674 L 37.7402,-13.0377 L 37.6943,-12.8115 L 37.6494,-12.5887 L 37.6056,-12.3694 L 37.5629,-12.1536
 L 37.5212,-11.9413 L 37.4805,-11.7325 L 37.4409,-11.5271 L 37.4023,-11.3251 L 37.3647,-11.1267 L 37.3282,-10.9317
 L 37.2928,-10.7402 L 37.2583,-10.5522 L 37.225,-10.3676 L 37.1926,-10.1865 L 37.1613,-10.0089 L 37.1311,-9.83476
 L 37.1019,-9.66408 L 37.0737,-9.49687 L 37.0466,-9.33315 L 37.0205,-9.17288 L 36.9954,-9.01608 L 36.9714,-8.86276
 L 36.9484,-8.71292 L 36.9265,-8.56653 L 36.9056,-8.42363 L 36.8858,-8.28419 L 36.867,-8.14822 L 36.8492,-8.01573
 L 36.8325,-7.88672 L 36.8168,-7.76117 L 36.8022,-7.63908 L 36.7886,-7.52048 L 36.7761,-7.40535 L 36.7646,-7.29369
 L 36.7541,-7.18549 L 36.7485,-7.23257 L 36.7425,-7.2812 L 36.7362,-7.33144 L 36.7295,-7.38322 L 36.7224,-7.4366
 L 36.715,-7.49153 L 36.7072,-7.54803 L 36.6991,-7.60612 L 36.6905,-7.66577 L 36.6817,-7.72701 L 36.6724,-7.78979
 L 36.6628,-7.85417 L 36.6528,-7.9201 L 36.6425,-7.98761 L 36.6318,-8.05669 L 36.6207,-8.12733 L 36.6093,-8.19957
 L 36.5975,-8.27338 L 36.5854,-8.34874 L 36.5728,-8.42567 L 36.56,-8.5042 L 36.5467,-8.58427 L 36.5331,-8.66592
 L 36.5191,-8.74915 L 36.5048,-8.83395 L 36.4901,-8.92033 L 36.475,-9.00827 L 36.4596,-9.09778 L 36.4438,-9.18886
 L 36.4276,-9.28152 L 36.4111,-9.37575 L 36.3943,-9.47156 L 36.377,-9.56894 L 36.3594,-9.66788 L 36.3414,-9.76839
 L 36.3231,-9.87048 L 36.3044,-9.97414 L 36.2853,-10.0794 L 36.2659,-10.1862 L 36.2461,-10.2946 L 36.2259,-10.4045
 L 36.2054,-10.516 L 36.1845,-10.6291 L 36.1633,-10.7438 L 36.1417,-10.86 L 36.1197,-10.9778 L 36.0976,-11.0961
 L 36.0755,-11.2137 L 36.0534,-11.3307 L 36.0314,-11.4471 L 36.0094,-11.5628 L 35.9874,-11.6779 L 35.9654,-11.7923
 L 35.9435,-11.9061 L 35.9216,-12.0193 L 35.8997,-12.1318 L 35.8779,-12.2437 L 35.8561,-12.3549 L 35.8343,-12.4655
 L 35.8126,-12.5755 L 35.7909,-12.6848 L 35.7692,-12.7934 L 35.7475,-12.9014 L 35.7259,-13.0088 L 35.7043,-13.1156
 L 35.6827,-13.2217 L 35.6612,-13.3271 L 35.6397,-13.4319 L 35.6182,-13.5361 L 35.5968,-13.6397 L 35.5753,-13.7426
 L 35.554,-13.8448 L 35.5326,-13.9464 L 35.5113,-14.0474 L 35.49,-14.1477 L 35.4687,-14.2474 L 35.4474,-14.3465
 L 35.4262,-14.4449 L 35.4051,-14.5426 L 35.3839,-14.6397 L 35.3628,-14.7362 L 35.3417,-14.8321 L 35.3206,-14.9272
 L 35.2996,-15.0218 L 35.2786,-15.1157 L 35.2576,-15.209 L 35.2367,-15.3016 L 35.2157,-15.3936 L 35.1949,-15.485
 L 35.174,-15.5757 L 35.1532,-15.6657 L 35.1324,-15.7552 L 29.4141,-38.909 L 22.9061,-38.909 L 33.2193,-0
 L 40.2475,-0 z
" stroke="black" fill="black" stroke-width="0.5"/>
</svg>
