<?xml version="1.0" standalone="no"?>
<!DOCTYPE svg PUBLIC "-//W3C//DTD SVG 1.1//EN" "http://www.w3.org/Graphics/SVG/1.1/DTD/svg11.dtd">
<svg width="100mm" height="100mm" viewBox="-8 -108 116 116" xmlns="http://www.w3.org/2000/svg" version="1.1">
<title>OpenSCAD Model</title>
<path d="
M 45.1991,-28.0099 L 45.3963,-28.0397 L 45.5895,-28.0889 L 45.7769,-28.157 L 45.9565,-28.2436 L 46.1266,-28.3475
 L 46.2856,-28.4679 L 46.4317,-28.6035 L 46.5637,-28.753 L 46.6801,-28.9149 L 46.7797,-29.0876 L 46.8617,-29.2693
 L 46.9252,-29.4583 L 46.9696,-29.6527 L 46.9944,-29.8505 L 47,-30 L 47,-70 L 46.9901,-70.1991
 L 46.9603,-70.3963 L 46.9111,-70.5895 L 46.843,-70.7769 L 46.7564,-70.9565 L 46.6525,-71.1266 L 46.5321,-71.2856
 L 46.3965,-71.4317 L 46.247,-71.5637 L 46.0851,-71.6801 L 45.9124,-71.7797 L 45.7307,-71.8617 L 45.5417,-71.9252
 L 45.3473,-71.9696 L 45.1495,-71.9944 L 45,-72 L 35,-72 L 34.8009,-71.9901 L 34.6037,-71.9603
 L 34.4105,-71.9111 L 34.2231,-71.843 L 34.0435,-71.7564 L 33.8734,-71.6525 L 33.7144,-71.5321 L 33.5683,-71.3965
 L 33.4363,-71.247 L 33.3199,-71.0851 L 33.2203,-70.9124 L 33.1383,-70.7307 L 33.0748,-70.5417 L 33.0304,-70.3473
 L 33.0056,-70.1495 L 33,-70 L 33,-30 L 33.0099,-29.8009 L 33.0397,-29.6037 L 33.0889,-29.4105
 L 33.157,-29.2231 L 33.2436,-29.0435 L 33.3475,-28.8734 L 33.4679,-28.7144 L 33.6035,-28.5683 L 33.753,-28.4363
 L 33.9149,-28.3199 L 34.0876,-28.2203 L 34.2693,-28.1383 L 34.4583,-28.0748 L 34.6527,-28.0304 L 34.8505,-28.0056
 L 35,-28 L 45,-28 z
M 65.1991,-28.0099 L 65.3963,-28.0397 L 65.5895,-28.0889 L 65.7769,-28.157 L 65.9565,-28.2436 L 66.1266,-28.3475
 L 66.2856,-28.4679 L 66.4317,-28.6035 L 66.5637,-28.753 L 66.6801,-28.9149 L 66.7797,-29.0876 L 66.8617,-29.2693
 L 66.9252,-29.4583 L 66.9696,-29.6527 L 66.9944,-29.8505 L 67,-30 L 67,-70 L 66.9901,-70.1991
 L 66.9603,-70.3963 L 66.9111,-70.5895 L 66.843,-70.7769 L 66.7564,-70.9565 L 66.6525,-71.1266 L 66.5321,-71.2856
 L 66.3965,-71.4317 L 66.247,-71.5637 L 66.0851,-71.6801 L 65.9124,-71.7797 L 65.7307,-71.8617 L 65.5417,-71.9252
 L 65.3473,-71.9696 L 65.1495,-71.9944 L 65,-72 L 55,-72 L 54.8009,-71.9901 L 54.6037,-71.9603
 L 54.4105,-71.9111 L 54.2231,-71.843 L 54.0435,-71.7564 L 53.8734,-71.6525 L 53.7144,-71.5321 L 53.5683,-71.3965
 L 53.4363,-71.247 L 53.3199,-71.0851 L 53.2203,-70.9124 L 53.1383,-70.7307 L 53.0748,-70.5417 L 53.0304,-70.3473
 L 53.0056,-70.1495 L 53,-70 L 53,-30 L 53.0099,-29.8009 L 53.0397,-29.6037 L 53.0889,-29.4105
 L 53.157,-29.2231 L 53.2436,-29.0435 L 53.3475,-28.8734 L 53.4679,-28.7144 L 53.6035,-28.5683 L 53.753,-28.4363
 L 53.9149,-28.3199 L 54.0876,-28.2203 L 54.2693,-28.1383 L 54.4583,-28.0748 L 54.6527,-28.0304 L 54.8505,-28.0056
 L 55,-28 L 65,-28 z
" stroke="black" fill="black" stroke-width="0.5"/>
</svg>
