<?xml version="1.0" standalone="no"?>
<!DOCTYPE svg PUBLIC "-//W3C//DTD SVG 1.1//EN" "http://www.w3.org/Graphics/SVG/1.1/DTD/svg11.dtd">
<svg width="100mm" height="100mm" viewBox="-8 -108 116 116" xmlns="http://www.w3.org/2000/svg" version="1.1">
<title>OpenSCAD Model</title>
<path d="
M 12.8992,-8.00993 L 13.0963,-8.03966 L 13.2895,-8.08885 L 13.4769,-8.15704 L 13.6565,-8.24356 L 13.8266,-8.34752
 L 13.9856,-8.46791 L 14.1317,-8.60353 L 14.2637,-8.75302 L 14.3801,-8.9149 L 14.4798,-9.08759 L 14.5618,-9.26932
 L 14.6253,-9.45831 L 14.6696,-9.65271 L 14.6944,-9.85054 L 14.7,-10 L 14.7,-30.3716 L 31.4858,-13.5858
 L 31.6336,-13.452 L 31.7941,-13.3336 L 31.9655,-13.2318 L 32.1462,-13.1475 L 32.3344,-13.0816 L 32.5282,-13.0349
 L 32.7257,-13.0076 L 32.9249,-13.0002 L 33.1239,-13.0126 L 33.3207,-13.0448 L 33.5133,-13.0964 L 33.6998,-13.1669
 L 33.8783,-13.2556 L 34.0472,-13.3617 L 34.2046,-13.4841 L 34.349,-13.6215 L 34.4791,-13.7726 L 34.5935,-13.9359
 L 34.691,-14.1098 L 34.7707,-14.2926 L 34.8319,-14.4824 L 34.8738,-14.6773 L 34.8961,-14.8754 L 34.9,-15
 L 34.9,-31 L 65.1,-31 L 65.1,-15 L 65.1099,-14.8009 L 65.1396,-14.6037 L 65.1888,-14.4105
 L 65.257,-14.2231 L 65.3436,-14.0435 L 65.4475,-13.8734 L 65.5679,-13.7144 L 65.7035,-13.5683 L 65.853,-13.4363
 L 66.0149,-13.3199 L 66.1876,-13.2203 L 66.3693,-13.1383 L 66.5583,-13.0748 L 66.7527,-13.0304 L 66.9505,-13.0056
 L 67.1499,-13.0006 L 67.3487,-13.0155 L 67.545,-13.0501 L 67.737,-13.1041 L 67.9226,-13.177 L 68.1,-13.2679
 L 68.2675,-13.3761 L 68.4234,-13.5004 L 68.5142,-13.5858 L 85.3,-30.3716 L 85.3,-10 L 85.3099,-9.80086
 L 85.3396,-9.60371 L 85.3888,-9.41049 L 85.457,-9.22313 L 85.5435,-9.04349 L 85.6475,-8.87337 L 85.7679,-8.71443
 L 85.9035,-8.56827 L 86.053,-8.43634 L 86.2149,-8.31995 L 86.3876,-8.22026 L 86.5693,-8.13826 L 86.7583,-8.07475
 L 86.9527,-8.03038 L 87.1505,-8.0056 L 87.3,-8 L 87.7,-8 L 87.8991,-8.00993 L 88.0963,-8.03966
 L 88.2895,-8.08885 L 88.4769,-8.15704 L 88.6565,-8.24356 L 88.8266,-8.34752 L 88.9856,-8.46791 L 89.1317,-8.60353
 L 89.2637,-8.75302 L 89.3801,-8.9149 L 89.4797,-9.08759 L 89.5617,-9.26932 L 89.6252,-9.45831 L 89.6696,-9.65271
 L 89.6944,-9.85054 L 89.7,-10 L 89.7,-90 L 89.6901,-90.1991 L 89.6603,-90.3963 L 89.6111,-90.5895
 L 89.543,-90.7769 L 89.4564,-90.9565 L 89.3525,-91.1266 L 89.2321,-91.2856 L 89.0965,-91.4317 L 88.947,-91.5637
 L 88.7851,-91.6801 L 88.6124,-91.7797 L 88.4307,-91.8617 L 88.2417,-91.9252 L 88.0473,-91.9696 L 87.8495,-91.9944
 L 87.7,-92 L 87.3,-92 L 87.1008,-91.9901 L 86.9037,-91.9603 L 86.7105,-91.9111 L 86.5231,-91.843
 L 86.3435,-91.7564 L 86.1734,-91.6525 L 86.0144,-91.5321 L 85.8683,-91.3965 L 85.7363,-91.247 L 85.6199,-91.0851
 L 85.5202,-90.9124 L 85.4382,-90.7307 L 85.3747,-90.5417 L 85.3304,-90.3473 L 85.3056,-90.1495 L 85.3,-90
 L 85.3,-39.6284 L 68.5142,-56.4142 L 68.3664,-56.548 L 68.2059,-56.6664 L 68.0345,-56.7682 L 67.8538,-56.8525
 L 67.6656,-56.9184 L 67.4718,-56.9651 L 67.2743,-56.9924 L 67.0751,-56.9998 L 66.8761,-56.9874 L 66.6793,-56.9552
 L 66.4867,-56.9036 L 66.3002,-56.8331 L 66.1217,-56.7444 L 65.9528,-56.6383 L 65.7954,-56.5159 L 65.7519,-56.4746
 L 65.8338,-56.735 L 65.9134,-57.0001 L 65.9908,-57.2702 L 66.0659,-57.5453 L 66.1387,-57.8254 L 66.2093,-58.1105
 L 66.2777,-58.4007 L 66.3438,-58.6958 L 66.4077,-58.9959 L 66.4694,-59.301 L 66.5288,-59.6111 L 66.586,-59.9262
 L 66.6409,-60.2463 L 66.6935,-60.5714 L 66.744,-60.9015 L 66.7922,-61.2366 L 66.8382,-61.5767 L 66.8819,-61.9218
 L 66.9233,-62.2719 L 66.9626,-62.627 L 66.9996,-62.9872 L 67.0343,-63.3522 L 67.0668,-63.7223 L 67.0971,-64.0974
 L 67.1251,-64.4775 L 67.1509,-64.8626 L 67.1744,-65.2527 L 67.1957,-65.6478 L 67.2148,-66.0479 L 67.2316,-66.453
 L 67.2461,-66.8631 L 67.2585,-67.2781 L 67.2686,-67.6982 L 67.2764,-68.1233 L 67.282,-68.5534 L 67.2854,-68.9885
 L 67.2865,-69.4286 L 67.2853,-69.8539 L 67.2819,-70.2747 L 67.2761,-70.6911 L 67.268,-71.103 L 67.2576,-71.5105
 L 67.2449,-71.9135 L 67.2298,-72.312 L 67.2125,-72.706 L 67.1928,-73.0956 L 67.1708,-73.4806 L 67.1466,-73.8613
 L 67.1199,-74.2374 L 67.091,-74.6091 L 67.0598,-74.9763 L 67.0263,-75.339 L 66.9904,-75.6972 L 66.9523,-76.051
 L 66.9118,-76.4003 L 66.869,-76.7452 L 66.8239,-77.0855 L 66.7765,-77.4214 L 66.7267,-77.7529 L 66.6747,-78.0798
 L 66.6203,-78.4023 L 66.5636,-78.7203 L 66.5047,-79.0339 L 66.4434,-79.3429 L 66.3797,-79.6475 L 66.3138,-79.9476
 L 66.2456,-80.2433 L 66.175,-80.5345 L 66.1022,-80.8212 L 66.027,-81.1034 L 65.9495,-81.3812 L 65.8697,-81.6545
 L 65.7876,-81.9233 L 65.7032,-82.1876 L 65.6164,-82.4475 L 65.5274,-82.7029 L 65.436,-82.9539 L 65.3423,-83.2003
 L 65.2463,-83.4423 L 65.148,-83.6798 L 65.0474,-83.9129 L 64.9444,-84.1414 L 64.8392,-84.3656 L 64.7317,-84.585
 L 64.622,-84.7997 L 64.5101,-85.0095 L 64.3959,-85.2144 L 64.2796,-85.4146 L 64.1611,-85.6099 L 64.0403,-85.8005
 L 63.9174,-85.9862 L 63.7922,-86.167 L 63.6649,-86.3431 L 63.5353,-86.5143 L 63.4035,-86.6807 L 63.2696,-86.8423
 L 63.1334,-86.999 L 62.995,-87.151 L 62.8544,-87.2981 L 62.7116,-87.4404 L 62.5666,-87.5778 L 62.4194,-87.7105
 L 62.27,-87.8383 L 62.1184,-87.9613 L 61.9645,-88.0795 L 61.8085,-88.1928 L 61.6503,-88.3013 L 61.4898,-88.405
 L 61.3272,-88.5039 L 61.1623,-88.5979 L 60.9953,-88.6872 L 60.826,-88.7716 L 60.6545,-88.8512 L 60.4808,-88.9259
 L 60.305,-88.9959 L 60.1269,-89.061 L 59.9466,-89.1213 L 59.7641,-89.1767 L 59.5794,-89.2274 L 59.3925,-89.2732
 L 59.2033,-89.3142 L 59.012,-89.3504 L 58.8185,-89.3817 L 58.6228,-89.4083 L 58.4248,-89.4299 L 58.2247,-89.4468
 L 58.0223,-89.4589 L 57.8178,-89.4661 L 57.611,-89.4685 L 57.3986,-89.4662 L 57.1886,-89.4593 L 56.981,-89.4478
 L 56.7758,-89.4317 L 56.573,-89.4109 L 56.3726,-89.3856 L 56.1747,-89.3556 L 55.9791,-89.321 L 55.786,-89.2818
 L 55.5952,-89.2381 L 55.4069,-89.1896 L 55.221,-89.1366 L 55.0375,-89.079 L 54.8565,-89.0168 L 54.6778,-88.9499
 L 54.5015,-88.8785 L 54.3277,-88.8024 L 54.1563,-88.7217 L 53.9872,-88.6365 L 53.8206,-88.5466 L 53.6564,-88.4521
 L 53.4946,-88.353 L 53.3353,-88.2492 L 53.1783,-88.1409 L 53.0238,-88.028 L 52.8716,-87.9104 L 52.7219,-87.7882
 L 52.5746,-87.6615 L 52.4296,-87.5301 L 52.2872,-87.3941 L 52.1471,-87.2535 L 52.0094,-87.1083 L 51.8741,-86.9585
 L 51.7413,-86.804 L 51.6108,-86.645 L 51.4828,-86.4814 L 51.3572,-86.3131 L 51.234,-86.1402 L 51.1132,-85.9628
 L 50.9948,-85.7807 L 50.8788,-85.594 L 50.7653,-85.4026 L 50.6541,-85.2067 L 50.5454,-85.0062 L 50.4391,-84.8011
 L 50.3351,-84.5913 L 50.2336,-84.3767 L 50.1342,-84.157 L 50.0371,-83.9321 L 49.9422,-83.7022 L 49.8496,-83.4671
 L 49.7592,-83.227 L 49.671,-82.9817 L 49.585,-82.7313 L 49.5013,-82.4758 L 49.4198,-82.2152 L 49.3406,-81.9495
 L 49.2635,-81.6786 L 49.1888,-81.4027 L 49.1162,-81.1216 L 49.0459,-80.8354 L 48.9778,-80.5441 L 48.9119,-80.2477
 L 48.8483,-79.9462 L 48.7869,-79.6396 L 48.7277,-79.3279 L 48.6708,-79.011 L 48.6161,-78.6891 L 48.5636,-78.362
 L 48.5134,-78.0298 L 48.4654,-77.6925 L 48.4196,-77.3501 L 48.3761,-77.0026 L 48.3348,-76.65 L 48.2957,-76.2922
 L 48.2589,-75.9294 L 48.2243,-75.5614 L 48.1919,-75.1884 L 48.1618,-74.8102 L 48.1339,-74.4269 L 48.1082,-74.0385
 L 48.0848,-73.6449 L 48.0636,-73.2463 L 48.0446,-72.8426 L 48.0278,-72.4337 L 48.0133,-72.0197 L 48.001,-71.6006
 L 47.991,-71.1765 L 47.9832,-70.7471 L 47.9776,-70.3127 L 47.9742,-69.8732 L 47.9731,-69.4286 L 47.9743,-69.0021
 L 47.9777,-68.5802 L 47.9835,-68.1629 L 47.9915,-67.7501 L 48.0018,-67.3419 L 48.0145,-66.9381 L 48.0294,-66.539
 L 48.0466,-66.1444 L 48.0661,-65.7543 L 48.0879,-65.3688 L 48.112,-64.9878 L 48.1384,-64.6114 L 48.1671,-64.2395
 L 48.1981,-63.8722 L 48.2313,-63.5094 L 48.2669,-63.1512 L 48.3048,-62.7975 L 48.345,-62.4483 L 48.3874,-62.1037
 L 48.4322,-61.7637 L 48.4792,-61.4282 L 48.5286,-61.0972 L 48.5802,-60.7708 L 48.6342,-60.449 L 48.6904,-60.1316
 L 48.7489,-59.8189 L 48.8097,-59.5106 L 48.8729,-59.207 L 48.9383,-58.9078 L 49.006,-58.6133 L 49.076,-58.3232
 L 49.1483,-58.0377 L 49.2229,-57.7568 L 49.2998,-57.4804 L 49.379,-57.2085 L 49.4604,-56.9412 L 49.5442,-56.6785
 L 49.6303,-56.4202 L 49.7186,-56.1666 L 49.8093,-55.9174 L 49.9023,-55.6729 L 49.9975,-55.4328 L 50.0951,-55.1974
 L 50.1949,-54.9664 L 50.2971,-54.7401 L 50.4015,-54.5182 L 50.5082,-54.301 L 50.6171,-54.0886 L 50.7282,-53.881
 L 50.8416,-53.6782 L 50.9572,-53.4801 L 51.075,-53.2868 L 51.195,-53.0983 L 51.3173,-52.9145 L 51.4418,-52.7355
 L 51.5685,-52.5613 L 51.6974,-52.3919 L 51.8286,-52.2272 L 51.9619,-52.0673 L 52.0975,-51.9122 L 52.2354,-51.7619
 L 52.3754,-51.6163 L 52.5177,-51.4755 L 52.6622,-51.3395 L 52.8089,-51.2082 L 52.9579,-51.0818 L 53.109,-50.96
 L 53.2624,-50.8431 L 53.418,-50.7309 L 53.5759,-50.6236 L 53.7359,-50.5209 L 53.8982,-50.4231 L 54.0627,-50.33
 L 54.2295,-50.2417 L 54.3984,-50.1582 L 54.5696,-50.0794 L 54.743,-50.0055 L 54.9187,-49.9363 L 55.0965,-49.8718
 L 55.2766,-49.8122 L 55.4589,-49.7573 L 55.6434,-49.7072 L 55.8302,-49.6618 L 56.0191,-49.6213 L 56.2103,-49.5855
 L 56.4038,-49.5544 L 56.5994,-49.5282 L 56.7973,-49.5067 L 56.9974,-49.49 L 57.1997,-49.4781 L 57.4042,-49.4709
 L 57.611,-49.4685 L 57.8242,-49.4708 L 58.035,-49.4778 L 58.2434,-49.4893 L 58.4494,-49.5055 L 58.653,-49.5263
 L 58.8541,-49.5517 L 59.0528,-49.5818 L 59.2491,-49.6164 L 59.443,-49.6557 L 59.6344,-49.6996 L 59.8235,-49.7482
 L 60.0101,-49.8013 L 60.1943,-49.8591 L 60.376,-49.9215 L 60.5554,-49.9885 L 60.7323,-50.0602 L 60.9068,-50.1364
 L 61.0789,-50.2173 L 61.2486,-50.3028 L 61.4158,-50.3929 L 61.5807,-50.4877 L 61.7431,-50.5871 L 61.903,-50.6911
 L 62.0606,-50.7997 L 62.2157,-50.9129 L 62.3685,-51.0308 L 62.5188,-51.1533 L 62.6667,-51.2804 L 62.8121,-51.4121
 L 62.9552,-51.5485 L 63.0958,-51.6894 L 63.234,-51.835 L 63.3698,-51.9852 L 63.5032,-52.1401 L 63.6341,-52.2995
 L 63.7626,-52.4636 L 63.8887,-52.6323 L 64.0124,-52.8057 L 64.1337,-52.9836 L 64.2525,-53.1662 L 64.3689,-53.3534
 L 64.4829,-53.5452 L 64.5945,-53.7416 L 64.7037,-53.9427 L 64.8104,-54.1484 L 64.9147,-54.3587 L 65.0167,-54.5738
 L 65.1,-54.7576 L 65.1,-39 L 34.9,-39 L 34.9,-55 L 34.8901,-55.1991 L 34.8604,-55.3963
 L 34.8112,-55.5895 L 34.743,-55.7769 L 34.6564,-55.9565 L 34.5525,-56.1266 L 34.4321,-56.2856 L 34.2965,-56.4317
 L 34.147,-56.5637 L 33.9851,-56.6801 L 33.8124,-56.7797 L 33.6307,-56.8617 L 33.4417,-56.9252 L 33.2473,-56.9696
 L 33.0495,-56.9944 L 32.8501,-56.9994 L 32.6513,-56.9845 L 32.455,-56.9499 L 32.263,-56.8959 L 32.0774,-56.823
 L 31.9,-56.7321 L 31.7325,-56.6239 L 31.5766,-56.4996 L 31.4858,-56.4142 L 14.7,-39.6284 L 14.7,-90
 L 14.6901,-90.1991 L 14.6604,-90.3963 L 14.6112,-90.5895 L 14.543,-90.7769 L 14.4565,-90.9565 L 14.3525,-91.1266
 L 14.2321,-91.2856 L 14.0965,-91.4317 L 13.947,-91.5637 L 13.7851,-91.6801 L 13.6124,-91.7797 L 13.4307,-91.8617
 L 13.2417,-91.9252 L 13.0473,-91.9696 L 12.8495,-91.9944 L 12.7,-92 L 12.3,-92 L 12.1009,-91.9901
 L 11.9037,-91.9603 L 11.7105,-91.9111 L 11.5231,-91.843 L 11.3435,-91.7564 L 11.1734,-91.6525 L 11.0144,-91.5321
 L 10.8683,-91.3965 L 10.7363,-91.247 L 10.6199,-91.0851 L 10.5203,-90.9124 L 10.4383,-90.7307 L 10.3748,-90.5417
 L 10.3304,-90.3473 L 10.3056,-90.1495 L 10.3,-90 L 10.3,-10 L 10.3099,-9.80086 L 10.3397,-9.60371
 L 10.3889,-9.41049 L 10.457,-9.22313 L 10.5436,-9.04349 L 10.6475,-8.87337 L 10.7679,-8.71443 L 10.9035,-8.56827
 L 11.053,-8.43634 L 11.2149,-8.31995 L 11.3876,-8.22026 L 11.5693,-8.13826 L 11.7583,-8.07475 L 11.9527,-8.03038
 L 12.1505,-8.0056 L 12.3,-8 L 12.7,-8 z
M 57.5212,-56.0878 L 57.4325,-56.0922 L 57.345,-56.0995 L 57.2585,-56.1097 L 57.1732,-56.1229 L 57.0891,-56.139
 L 57.0061,-56.158 L 56.9242,-56.18 L 56.8435,-56.2048 L 56.7639,-56.2327 L 56.6854,-56.2634 L 56.608,-56.297
 L 56.5318,-56.3336 L 56.4568,-56.3731 L 56.3828,-56.4156 L 56.31,-56.4609 L 56.2384,-56.5092 L 56.1678,-56.5604
 L 56.0984,-56.6146 L 56.0302,-56.6716 L 55.963,-56.7316 L 55.897,-56.7946 L 55.8322,-56.8604 L 55.7684,-56.9292
 L 55.7058,-57.0009 L 55.6444,-57.0755 L 55.5841,-57.153 L 55.5249,-57.2335 L 55.4668,-57.3169 L 55.4099,-57.4033
 L 55.3541,-57.4925 L 55.2995,-57.5847 L 55.246,-57.6798 L 55.1936,-57.7779 L 55.1423,-57.8788 L 55.0922,-57.9827
 L 55.0432,-58.0895 L 54.9954,-58.1993 L 54.9487,-58.312 L 54.9031,-58.4276 L 54.8586,-58.5461 L 54.8153,-58.6675
 L 54.7732,-58.7919 L 54.7321,-58.9192 L 54.6922,-59.0495 L 54.6535,-59.1826 L 54.6157,-59.3192 L 54.5787,-59.4595
 L 54.5426,-59.6037 L 54.5073,-59.7517 L 54.4728,-59.9036 L 54.4392,-60.0593 L 54.4064,-60.2188 L 54.3744,-60.3822
 L 54.3433,-60.5494 L 54.313,-60.7204 L 54.2835,-60.8952 L 54.2548,-61.0739 L 54.227,-61.2564 L 54.2,-61.4428
 L 54.1739,-61.6329 L 54.1485,-61.8269 L 54.124,-62.0248 L 54.1004,-62.2264 L 54.0775,-62.4319 L 54.0555,-62.6413
 L 54.0343,-62.8544 L 54.014,-63.0714 L 53.9945,-63.2922 L 53.9758,-63.5169 L 53.9579,-63.7454 L 53.9409,-63.9777
 L 53.9247,-64.2138 L 53.9093,-64.4538 L 53.8948,-64.6976 L 53.8811,-64.9453 L 53.8682,-65.1967 L 53.8562,-65.452
 L 53.845,-65.7112 L 53.8346,-65.9741 L 53.825,-66.2409 L 53.8163,-66.5116 L 53.8084,-66.786 L 53.8014,-67.0643
 L 53.7952,-67.3464 L 53.7897,-67.6324 L 53.7852,-67.9222 L 53.7814,-68.2158 L 53.7785,-68.5132 L 53.7765,-68.8145
 L 53.7752,-69.1196 L 53.7748,-69.4286 L 53.7752,-69.7375 L 53.7765,-70.0426 L 53.7786,-70.344 L 53.7815,-70.6415
 L 53.7853,-70.9352 L 53.7899,-71.2252 L 53.7954,-71.5113 L 53.8017,-71.7936 L 53.8088,-72.0721 L 53.8168,-72.3468
 L 53.8256,-72.6177 L 53.8352,-72.8848 L 53.8457,-73.148 L 53.8571,-73.4075 L 53.8692,-73.6632 L 53.8822,-73.915
 L 53.8961,-74.1631 L 53.9108,-74.4073 L 53.9263,-74.6478 L 53.9427,-74.8844 L 53.9599,-75.1172 L 53.978,-75.3462
 L 53.9968,-75.5714 L 54.0166,-75.7928 L 54.0371,-76.0104 L 54.0585,-76.2242 L 54.0808,-76.4342 L 54.1039,-76.6404
 L 54.1278,-76.8428 L 54.1526,-77.0414 L 54.1782,-77.2361 L 54.2046,-77.4271 L 54.2319,-77.6142 L 54.26,-77.7975
 L 54.289,-77.9771 L 54.3188,-78.1528 L 54.3494,-78.3247 L 54.3809,-78.4928 L 54.4132,-78.6572 L 54.4464,-78.8177
 L 54.4803,-78.9744 L 54.5152,-79.1273 L 54.5509,-79.2763 L 54.5874,-79.4216 L 54.6247,-79.5631 L 54.6629,-79.7008
 L 54.7021,-79.8351 L 54.7424,-79.9664 L 54.7838,-80.0948 L 54.8262,-80.2203 L 54.8698,-80.3428 L 54.9146,-80.4623
 L 54.9604,-80.5789 L 55.0073,-80.6925 L 55.0553,-80.8032 L 55.1045,-80.911 L 55.1547,-81.0158 L 55.206,-81.1176
 L 55.2585,-81.2165 L 55.3121,-81.3124 L 55.3667,-81.4054 L 55.4225,-81.4954 L 55.4794,-81.5825 L 55.5374,-81.6666
 L 55.5965,-81.7478 L 55.6567,-81.826 L 55.718,-81.9013 L 55.7805,-81.9736 L 55.844,-82.043 L 55.9087,-82.1094
 L 55.9744,-82.1728 L 56.0413,-82.2333 L 56.1092,-82.2909 L 56.1783,-82.3455 L 56.2485,-82.3972 L 56.3198,-82.4459
 L 56.3922,-82.4916 L 56.4657,-82.5344 L 56.5403,-82.5743 L 56.616,-82.6112 L 56.6928,-82.6451 L 56.7708,-82.6761
 L 56.8498,-82.7041 L 56.9299,-82.7292 L 57.0112,-82.7514 L 57.0936,-82.7706 L 57.177,-82.7868 L 57.2616,-82.8001
 L 57.3473,-82.8104 L 57.4341,-82.8178 L 57.522,-82.8222 L 57.611,-82.8237 L 57.6984,-82.8222 L 57.7847,-82.8178
 L 57.87,-82.8104 L 57.9543,-82.8001 L 58.0375,-82.7868 L 58.1196,-82.7706 L 58.2007,-82.7514 L 58.2808,-82.7292
 L 58.3598,-82.7041 L 58.4378,-82.6761 L 58.5147,-82.6451 L 58.5906,-82.6112 L 58.6655,-82.5743 L 58.7393,-82.5344
 L 58.812,-82.4916 L 58.8837,-82.4459 L 58.9544,-82.3972 L 59.024,-82.3455 L 59.0926,-82.2909 L 59.1601,-82.2333
 L 59.2266,-82.1728 L 59.2921,-82.1094 L 59.3565,-82.043 L 59.4198,-81.9736 L 59.4821,-81.9013 L 59.5434,-81.826
 L 59.6036,-81.7478 L 59.6628,-81.6666 L 59.7209,-81.5825 L 59.778,-81.4954 L 59.834,-81.4054 L 59.889,-81.3124
 L 59.943,-81.2165 L 59.9959,-81.1176 L 60.0478,-81.0158 L 60.0986,-80.911 L 60.1484,-80.8032 L 60.1971,-80.6925
 L 60.2448,-80.5789 L 60.2914,-80.4623 L 60.337,-80.3428 L 60.3816,-80.2203 L 60.4251,-80.0948 L 60.4675,-79.9664
 L 60.5089,-79.8351 L 60.5493,-79.7008 L 60.5887,-79.5631 L 60.6273,-79.4216 L 60.665,-79.2763 L 60.7018,-79.1273
 L 60.7377,-78.9744 L 60.7728,-78.8177 L 60.8071,-78.6572 L 60.8404,-78.4928 L 60.8729,-78.3247 L 60.9045,-78.1528
 L 60.9353,-77.9771 L 60.9651,-77.7975 L 60.9942,-77.6142 L 61.0223,-77.4271 L 61.0496,-77.2361 L 61.076,-77.0414
 L 61.1016,-76.8428 L 61.1263,-76.6404 L 61.1501,-76.4342 L 61.173,-76.2242 L 61.1952,-76.0104 L 61.2164,-75.7928
 L 61.2367,-75.5714 L 61.2562,-75.3462 L 61.2749,-75.1172 L 61.2926,-74.8844 L 61.3095,-74.6478 L 61.3255,-74.4073
 L 61.3407,-74.1631 L 61.355,-73.915 L 61.3684,-73.6632 L 61.381,-73.4075 L 61.3927,-73.148 L 61.4035,-72.8848
 L 61.4135,-72.6177 L 61.4226,-72.3468 L 61.4308,-72.0721 L 61.4382,-71.7936 L 61.4446,-71.5113 L 61.4503,-71.2252
 L 61.455,-70.9352 L 61.4589,-70.6415 L 61.462,-70.344 L 61.4641,-70.0426 L 61.4654,-69.7375 L 61.4659,-69.4286
 L 61.4655,-69.123 L 61.4642,-68.8212 L 61.462,-68.5231 L 61.459,-68.2288 L 61.4552,-67.9381 L 61.4504,-67.6512
 L 61.4449,-67.368 L 61.4384,-67.0885 L 61.4312,-66.8127 L 61.423,-66.5406 L 61.414,-66.2723 L 61.4041,-66.0077
 L 61.3934,-65.7468 L 61.3819,-65.4896 L 61.3694,-65.2361 L 61.3561,-64.9864 L 61.342,-64.7403 L 61.327,-64.498
 L 61.3111,-64.2594 L 61.2944,-64.0246 L 61.2768,-63.7934 L 61.2584,-63.5659 L 61.2391,-63.3422 L 61.219,-63.1222
 L 61.198,-62.9059 L 61.1761,-62.6933 L 61.1534,-62.4845 L 61.1298,-62.2793 L 61.1054,-62.0779 L 61.0801,-61.8802
 L 61.0539,-61.6862 L 61.0269,-61.496 L 60.999,-61.3094 L 60.9703,-61.1266 L 60.9408,-60.9475 L 60.9103,-60.7721
 L 60.879,-60.6004 L 60.8469,-60.4324 L 60.8139,-60.2682 L 60.78,-60.1077 L 60.7453,-59.9509 L 60.7097,-59.7978
 L 60.6732,-59.6484 L 60.636,-59.5027 L 60.5978,-59.3608 L 60.5588,-59.2226 L 60.5188,-59.0877 L 60.4778,-58.9558
 L 60.4357,-58.8269 L 60.3925,-58.7009 L 60.3482,-58.5779 L 60.3029,-58.4578 L 60.2565,-58.3407 L 60.209,-58.2266
 L 60.1605,-58.1154 L 60.1108,-58.0072 L 60.0602,-57.902 L 60.0084,-57.7997 L 59.9556,-57.7004 L 59.9017,-57.6041
 L 59.8467,-57.5107 L 59.7906,-57.4203 L 59.7335,-57.3328 L 59.6753,-57.2484 L 59.6161,-57.1668 L 59.5557,-57.0883
 L 59.4943,-57.0127 L 59.4319,-56.94 L 59.3683,-56.8704 L 59.3037,-56.8037 L 59.238,-56.74 L 59.1712,-56.6792
 L 59.1034,-56.6214 L 59.0345,-56.5665 L 58.9645,-56.5147 L 58.8935,-56.4658 L 58.8214,-56.4198 L 58.7482,-56.3768
 L 58.6739,-56.3368 L 58.5986,-56.2998 L 58.5222,-56.2657 L 58.4447,-56.2345 L 58.3661,-56.2064 L 58.2865,-56.1812
 L 58.2058,-56.159 L 58.1241,-56.1397 L 58.0412,-56.1234 L 57.9573,-56.11 L 57.8724,-56.0997 L 57.7863,-56.0923
 L 57.6992,-56.0878 L 57.611,-56.0863 z
M 40.9871,-88.8571 L 36.1873,-88.8571 L 27.2865,-78.8902 L 30.1022,-73.9468 L 33.2771,-77.5349 L 33.3022,-77.5633
 L 33.3281,-77.593 L 33.3548,-77.6241 L 33.3824,-77.6565 L 33.4108,-77.6902 L 33.4401,-77.7253 L 33.4702,-77.7616
 L 33.5011,-77.7993 L 33.5329,-77.8384 L 33.5655,-77.8788 L 33.599,-77.9205 L 33.6333,-77.9635 L 33.6684,-78.0079
 L 33.7044,-78.0536 L 33.7412,-78.1006 L 33.7789,-78.149 L 33.8174,-78.1987 L 33.8567,-78.2497 L 33.8969,-78.3021
 L 33.9379,-78.3558 L 33.9798,-78.4108 L 34.0225,-78.4672 L 34.066,-78.5249 L 34.1104,-78.5839 L 34.1556,-78.6442
 L 34.2017,-78.7059 L 34.2486,-78.7689 L 34.2963,-78.8333 L 34.3449,-78.899 L 34.3943,-78.966 L 34.4446,-79.0343
 L 34.4957,-79.104 L 34.5476,-79.175 L 34.6004,-79.2473 L 34.654,-79.321 L 34.7084,-79.396 L 34.7637,-79.4724
 L 34.8199,-79.55 L 34.8768,-79.629 L 34.9346,-79.7093 L 34.9933,-79.791 L 35.0528,-79.874 L 35.1131,-79.9583
 L 35.1743,-80.044 L 35.2363,-80.131 L 35.2991,-80.2193 L 35.2047,-76.1792 L 35.1478,-72.4848 L 35.1478,-50
 L 40.9871,-50 z
" stroke="white" fill="white" stroke-width="0.5"/>
</svg>
