<?xml version="1.0" standalone="no"?>
<!DOCTYPE svg PUBLIC "-//W3C//DTD SVG 1.1//EN" "http://www.w3.org/Graphics/SVG/1.1/DTD/svg11.dtd">
<svg width="100mm" height="100mm" viewBox="-8 -108 116 116" xmlns="http://www.w3.org/2000/svg" version="1.1">
<title>OpenSCAD Model</title>
<path d="
M 29.7513,-91.9845 L 29.5549,-91.9498 L 29.363,-91.8958 L 29.1774,-91.823 L 29,-91.732 L 28.8325,-91.6239
 L 28.6766,-91.4996 L 28.5339,-91.3603 L 8.53389,-71.3603 L 8.40573,-71.2076 L 8.29341,-71.0429 L 8.19806,-70.8678
 L 8.12061,-70.684 L 8.06184,-70.4935 L 8.02232,-70.2981 L 8.00247,-70.0997 L 8.00247,-9.9003 L 8.02232,-9.7019
 L 8.06184,-9.50648 L 8.12061,-9.31595 L 8.19806,-9.13222 L 8.29341,-8.95712 L 8.40573,-8.79239 L 8.53389,-8.63965
 L 8.67662,-8.50043 L 8.8325,-8.37611 L 9,-8.26794 L 9.17741,-8.17699 L 9.36302,-8.10414 L 9.55495,-8.05014
 L 9.75131,-8.01552 L 9.95013,-8.00061 L 69.9501,-8.00061 L 70.1495,-8.00558 L 70.3473,-8.03038 L 70.5417,-8.07474
 L 70.7307,-8.13824 L 70.9124,-8.22025 L 71.0851,-8.31995 L 71.247,-8.43633 L 71.3965,-8.56825 L 91.3965,-28.5683
 L 91.5321,-28.7144 L 91.6525,-28.8734 L 91.7564,-29.0435 L 91.8429,-29.2231 L 91.9111,-29.4105 L 91.9603,-29.6037
 L 91.9901,-29.8009 L 92,-30 L 92,-90 L 91.9901,-90.1991 L 91.9603,-90.3963 L 91.9111,-90.5895
 L 91.8429,-90.7769 L 91.7564,-90.9565 L 91.6525,-91.1266 L 91.5321,-91.2856 L 91.3965,-91.4317 L 91.247,-91.5637
 L 91.0851,-91.68 L 90.9124,-91.7797 L 90.7307,-91.8617 L 90.5417,-91.9252 L 90.3473,-91.9696 L 90.1495,-91.9944
 L 89.9501,-91.9994 L 29.9501,-91.9994 z
M 32,-71.9994 L 32,-88.0006 L 85.1742,-88.0006 L 69.1729,-71.9994 z
M 14.8276,-71.9994 L 28.0025,-85.1743 L 28.0025,-71.9994 z
M 72,-31.9994 L 72,-69.1718 L 88.0025,-85.1743 L 88.0025,-31.9994 z
M 12,-68.0006 L 28.0025,-68.0006 L 28.0025,-30.8289 L 12,-14.8264 z
M 32,-31.9994 L 32,-68.0006 L 68.0025,-68.0006 L 68.0025,-31.9994 z
M 14.8276,-11.9994 L 30.8288,-28.0006 L 68.0025,-28.0006 L 68.0025,-11.9994 z
M 72,-28.0006 L 85.1742,-28.0006 L 72,-14.8264 z
" stroke="white" fill="white" stroke-width="0.5"/>
</svg>
