solid OpenSCAD_Model
  facet normal 0 0 -1
    outer loop
      vertex -7.65257 10.6773 -14
      vertex -32.5 14 -14
      vertex 32.5 14 -14
    endloop
  endfacet
  facet normal 0 0 -1
    outer loop
      vertex -32.5 -14 -14
      vertex -32.5 14 -14
      vertex -26.5224 10.6773 -14
    endloop
  endfacet
  facet normal 0 0 -1
    outer loop
      vertex -32.5 -14 -14
      vertex -26.5224 10.6773 -14
      vertex -26.5224 -11.3315 -14
    endloop
  endfacet
  facet normal 0 0 -1
    outer loop
      vertex -32.5 -14 -14
      vertex -26.5224 -11.3315 -14
      vertex 32.5 -14 -14
    endloop
  endfacet
  facet normal 0 0 -1
    outer loop
      vertex -23.7935 10.6773 -14
      vertex -16.3205 4.61329 -14
      vertex -18.1041 4.61329 -14
    endloop
  endfacet
  facet normal 0 0 -1
    outer loop
      vertex -26.5224 -11.3315 -14
      vertex -22.5272 -11.3315 -14
      vertex 32.5 -14 -14
    endloop
  endfacet
  facet normal 0 0 -1
    outer loop
      vertex -23.7935 10.6773 -14
      vertex -18.1041 4.61329 -14
      vertex -23.7935 -8.28166 -14
    endloop
  endfacet
  facet normal 0 0 -1
    outer loop
      vertex -22.5272 -11.3315 -14
      vertex -17.034 0.921371 -14
      vertex -11.719 -11.3315 -14
    endloop
  endfacet
  facet normal 0 0 -1
    outer loop
      vertex -22.5272 -11.3315 -14
      vertex -11.719 -11.3315 -14
      vertex 32.5 -14 -14
    endloop
  endfacet
  facet normal 0 0 -1
    outer loop
      vertex -11.719 -11.3315 -14
      vertex -7.65257 -11.3315 -14
      vertex 32.5 -14 -14
    endloop
  endfacet
  facet normal 0 0 -1
    outer loop
      vertex -10.5776 10.6773 -14
      vertex -32.5 14 -14
      vertex -7.65257 10.6773 -14
    endloop
  endfacet
  facet normal 0 0 -1
    outer loop
      vertex 7.54052 10.6773 -14
      vertex -7.65257 10.6773 -14
      vertex 32.5 14 -14
    endloop
  endfacet
  facet normal 0 0 -1
    outer loop
      vertex -23.7935 10.6773 -14
      vertex -32.5 14 -14
      vertex -10.5776 10.6773 -14
    endloop
  endfacet
  facet normal 0 0 -1
    outer loop
      vertex 26.4103 10.6773 -14
      vertex 32.5 -14 -14
      vertex 26.4103 -11.3315 -14
    endloop
  endfacet
  facet normal 0 0 -1
    outer loop
      vertex 10.2693 10.6773 -14
      vertex 15.9588 4.61329 -14
      vertex 10.2693 -8.28166 -14
    endloop
  endfacet
  facet normal 0 0 -1
    outer loop
      vertex -10.5776 -8.28166 -14
      vertex -16.3205 4.61329 -14
      vertex -10.5776 10.6773 -14
    endloop
  endfacet
  facet normal 0 0 -1
    outer loop
      vertex 10.2693 10.6773 -14
      vertex 7.54052 10.6773 -14
      vertex 32.5 14 -14
    endloop
  endfacet
  facet normal 0 0 -1
    outer loop
      vertex -7.65257 -11.3315 -14
      vertex 7.54052 -11.3315 -14
      vertex 32.5 -14 -14
    endloop
  endfacet
  facet normal 0 0 -1
    outer loop
      vertex 7.54052 -11.3315 -14
      vertex 11.5356 -11.3315 -14
      vertex 32.5 -14 -14
    endloop
  endfacet
  facet normal 0 0 -1
    outer loop
      vertex 11.5356 -11.3315 -14
      vertex 22.3438 -11.3315 -14
      vertex 32.5 -14 -14
    endloop
  endfacet
  facet normal 0 0 -1
    outer loop
      vertex 26.4103 -11.3315 -14
      vertex 32.5 -14 -14
      vertex 22.3438 -11.3315 -14
    endloop
  endfacet
  facet normal 0 0 -1
    outer loop
      vertex 32.5 -14 -14
      vertex 26.4103 10.6773 -14
      vertex 32.5 14 -14
    endloop
  endfacet
  facet normal 0 0 -1
    outer loop
      vertex 17.7423 4.61329 -14
      vertex 10.2693 10.6773 -14
      vertex 23.4853 10.6773 -14
    endloop
  endfacet
  facet normal 0 0 -1
    outer loop
      vertex 26.4103 10.6773 -14
      vertex 23.4853 10.6773 -14
      vertex 32.5 14 -14
    endloop
  endfacet
  facet normal 0 0 -1
    outer loop
      vertex 23.4853 -8.28166 -14
      vertex 17.7423 4.61329 -14
      vertex 23.4853 10.6773 -14
    endloop
  endfacet
  facet normal 0 0 -1
    outer loop
      vertex 23.4853 10.6773 -14
      vertex 10.2693 10.6773 -14
      vertex 32.5 14 -14
    endloop
  endfacet
  facet normal 0 0 -1
    outer loop
      vertex -26.5224 10.6773 -14
      vertex -32.5 14 -14
      vertex -23.7935 10.6773 -14
    endloop
  endfacet
  facet normal 0 0 -1
    outer loop
      vertex 10.2693 10.6773 -14
      vertex 17.7423 4.61329 -14
      vertex 15.9588 4.61329 -14
    endloop
  endfacet
  facet normal 0 0 -1
    outer loop
      vertex 17.0289 0.921371 -14
      vertex 22.3438 -11.3315 -14
      vertex 11.5356 -11.3315 -14
    endloop
  endfacet
  facet normal 0 0 -1
    outer loop
      vertex -7.65257 10.6773 -14
      vertex 7.54052 -11.3315 -14
      vertex -7.65257 -11.3315 -14
    endloop
  endfacet
  facet normal 0 0 -1
    outer loop
      vertex 7.54052 -11.3315 -14
      vertex -7.65257 10.6773 -14
      vertex 7.54052 10.6773 -14
    endloop
  endfacet
  facet normal 0 0 -1
    outer loop
      vertex -16.3205 4.61329 -14
      vertex -23.7935 10.6773 -14
      vertex -10.5776 10.6773 -14
    endloop
  endfacet
  facet normal -1 0 0
    outer loop
      vertex -32.5 -14 -14
      vertex -32.5 -14 14
      vertex -32.5 14 -14
    endloop
  endfacet
  facet normal -1 0 0
    outer loop
      vertex -32.5 14 -14
      vertex -32.5 -14 14
      vertex -32.5 14 14
    endloop
  endfacet
  facet normal 0 -1 0
    outer loop
      vertex -26.5224 -14 -10.6773
      vertex -32.5 -14 -14
      vertex 32.5 -14 -14
    endloop
  endfacet
  facet normal 0 -1 0
    outer loop
      vertex -7.65257 -14 -10.6773
      vertex -10.5776 -14 -10.6773
      vertex 32.5 -14 -14
    endloop
  endfacet
  facet normal 0 -1 0
    outer loop
      vertex -32.5 -14 14
      vertex -32.5 -14 -14
      vertex -26.5224 -14 -10.6773
    endloop
  endfacet
  facet normal 0 -1 0
    outer loop
      vertex -32.5 -14 14
      vertex -26.5224 -14 -10.6773
      vertex -26.5224 -14 11.3315
    endloop
  endfacet
  facet normal 0 -1 0
    outer loop
      vertex 32.5 -14 14
      vertex -32.5 -14 14
      vertex -22.5272 -14 11.3315
    endloop
  endfacet
  facet normal 0 -1 0
    outer loop
      vertex -23.7935 -14 8.28166
      vertex -23.7935 -14 -10.6773
      vertex -18.1041 -14 -4.61329
    endloop
  endfacet
  facet normal 0 -1 0
    outer loop
      vertex 32.5 -14 14
      vertex -22.5272 -14 11.3315
      vertex -11.719 -14 11.3315
    endloop
  endfacet
  facet normal 0 -1 0
    outer loop
      vertex 32.5 -14 14
      vertex -11.719 -14 11.3315
      vertex -7.65257 -14 11.3315
    endloop
  endfacet
  facet normal 0 -1 0
    outer loop
      vertex 7.54052 -14 -10.6773
      vertex -7.65257 -14 -10.6773
      vertex 32.5 -14 -14
    endloop
  endfacet
  facet normal 0 -1 0
    outer loop
      vertex -10.5776 -14 -10.6773
      vertex -23.7935 -14 -10.6773
      vertex 32.5 -14 -14
    endloop
  endfacet
  facet normal 0 -1 0
    outer loop
      vertex -10.5776 -14 8.28166
      vertex -16.3205 -14 -4.61329
      vertex -10.5776 -14 -10.6773
    endloop
  endfacet
  facet normal 0 -1 0
    outer loop
      vertex -23.7935 -14 -10.6773
      vertex -26.5224 -14 -10.6773
      vertex 32.5 -14 -14
    endloop
  endfacet
  facet normal 0 -1 0
    outer loop
      vertex 7.54052 -14 -10.6773
      vertex 7.54052 -14 11.3315
      vertex -7.65257 -14 11.3315
    endloop
  endfacet
  facet normal 0 -1 0
    outer loop
      vertex 23.4853 -14 -10.6773
      vertex 17.7423 -14 -4.61329
      vertex 15.9588 -14 -4.61329
    endloop
  endfacet
  facet normal 0 -1 0
    outer loop
      vertex -18.1041 -14 -4.61329
      vertex -23.7935 -14 -10.6773
      vertex -16.3205 -14 -4.61329
    endloop
  endfacet
  facet normal 0 -1 0
    outer loop
      vertex -16.3205 -14 -4.61329
      vertex -23.7935 -14 -10.6773
      vertex -10.5776 -14 -10.6773
    endloop
  endfacet
  facet normal 0 -1 0
    outer loop
      vertex 10.2693 -14 8.28166
      vertex 10.2693 -14 -10.6773
      vertex 15.9588 -14 -4.61329
    endloop
  endfacet
  facet normal 0 -1 0
    outer loop
      vertex 10.2693 -14 -10.6773
      vertex 7.54052 -14 -10.6773
      vertex 32.5 -14 -14
    endloop
  endfacet
  facet normal 0 -1 0
    outer loop
      vertex 17.0289 -14 -0.921371
      vertex 22.3438 -14 11.3315
      vertex 11.5356 -14 11.3315
    endloop
  endfacet
  facet normal 0 -1 0
    outer loop
      vertex 32.5 -14 14
      vertex -7.65257 -14 11.3315
      vertex 7.54052 -14 11.3315
    endloop
  endfacet
  facet normal 0 -1 0
    outer loop
      vertex 23.4853 -14 8.28166
      vertex 17.7423 -14 -4.61329
      vertex 23.4853 -14 -10.6773
    endloop
  endfacet
  facet normal 0 -1 0
    outer loop
      vertex 32.5 -14 14
      vertex 7.54052 -14 11.3315
      vertex 11.5356 -14 11.3315
    endloop
  endfacet
  facet normal 0 -1 0
    outer loop
      vertex 32.5 -14 14
      vertex 11.5356 -14 11.3315
      vertex 22.3438 -14 11.3315
    endloop
  endfacet
  facet normal 0 -1 0
    outer loop
      vertex 32.5 -14 14
      vertex 26.4103 -14 11.3315
      vertex 32.5 -14 -14
    endloop
  endfacet
  facet normal 0 -1 0
    outer loop
      vertex 32.5 -14 14
      vertex 22.3438 -14 11.3315
      vertex 26.4103 -14 11.3315
    endloop
  endfacet
  facet normal 0 -1 0
    outer loop
      vertex 15.9588 -14 -4.61329
      vertex 10.2693 -14 -10.6773
      vertex 23.4853 -14 -10.6773
    endloop
  endfacet
  facet normal 0 -1 0
    outer loop
      vertex -17.034 -14 -0.921371
      vertex -11.719 -14 11.3315
      vertex -22.5272 -14 11.3315
    endloop
  endfacet
  facet normal 0 -1 0
    outer loop
      vertex -26.5224 -14 11.3315
      vertex -22.5272 -14 11.3315
      vertex -32.5 -14 14
    endloop
  endfacet
  facet normal 0 -1 0
    outer loop
      vertex 26.4103 -14 -10.6773
      vertex 23.4853 -14 -10.6773
      vertex 32.5 -14 -14
    endloop
  endfacet
  facet normal 0 -1 0
    outer loop
      vertex 23.4853 -14 -10.6773
      vertex 10.2693 -14 -10.6773
      vertex 32.5 -14 -14
    endloop
  endfacet
  facet normal 0 -1 0
    outer loop
      vertex 26.4103 -14 11.3315
      vertex 26.4103 -14 -10.6773
      vertex 32.5 -14 -14
    endloop
  endfacet
  facet normal 0 -1 0
    outer loop
      vertex -7.65257 -14 11.3315
      vertex -7.65257 -14 -10.6773
      vertex 7.54052 -14 -10.6773
    endloop
  endfacet
  facet normal 1 0 0
    outer loop
      vertex 32.5 -14 14
      vertex 32.5 -14 -14
      vertex 32.5 14 -14
    endloop
  endfacet
  facet normal 1 0 0
    outer loop
      vertex 32.5 14 14
      vertex 32.5 -14 14
      vertex 32.5 14 -14
    endloop
  endfacet
  facet normal 0 1 0
    outer loop
      vertex -7.65257 14 10.6773
      vertex -32.5 14 14
      vertex 32.5 14 14
    endloop
  endfacet
  facet normal 0 1 0
    outer loop
      vertex -32.5 14 -14
      vertex -32.5 14 14
      vertex -26.5224 14 10.6773
    endloop
  endfacet
  facet normal 0 1 0
    outer loop
      vertex -32.5 14 -14
      vertex -26.5224 14 10.6773
      vertex -26.5224 14 -11.3315
    endloop
  endfacet
  facet normal 0 1 0
    outer loop
      vertex -32.5 14 -14
      vertex -26.5224 14 -11.3315
      vertex 32.5 14 -14
    endloop
  endfacet
  facet normal 0 1 0
    outer loop
      vertex -23.7935 14 10.6773
      vertex -16.3205 14 4.61329
      vertex -18.1041 14 4.61329
    endloop
  endfacet
  facet normal 0 1 0
    outer loop
      vertex -26.5224 14 -11.3315
      vertex -22.5272 14 -11.3315
      vertex 32.5 14 -14
    endloop
  endfacet
  facet normal 0 1 0
    outer loop
      vertex -23.7935 14 10.6773
      vertex -18.1041 14 4.61329
      vertex -23.7935 14 -8.28166
    endloop
  endfacet
  facet normal 0 1 0
    outer loop
      vertex -22.5272 14 -11.3315
      vertex -17.034 14 0.921371
      vertex -11.719 14 -11.3315
    endloop
  endfacet
  facet normal 0 1 0
    outer loop
      vertex -22.5272 14 -11.3315
      vertex -11.719 14 -11.3315
      vertex 32.5 14 -14
    endloop
  endfacet
  facet normal 0 1 0
    outer loop
      vertex -11.719 14 -11.3315
      vertex -7.65257 14 -11.3315
      vertex 32.5 14 -14
    endloop
  endfacet
  facet normal 0 1 0
    outer loop
      vertex -10.5776 14 10.6773
      vertex -32.5 14 14
      vertex -7.65257 14 10.6773
    endloop
  endfacet
  facet normal 0 1 0
    outer loop
      vertex 7.54052 14 10.6773
      vertex -7.65257 14 10.6773
      vertex 32.5 14 14
    endloop
  endfacet
  facet normal 0 1 0
    outer loop
      vertex -23.7935 14 10.6773
      vertex -32.5 14 14
      vertex -10.5776 14 10.6773
    endloop
  endfacet
  facet normal 0 1 0
    outer loop
      vertex 26.4103 14 10.6773
      vertex 32.5 14 -14
      vertex 26.4103 14 -11.3315
    endloop
  endfacet
  facet normal 0 1 0
    outer loop
      vertex 10.2693 14 10.6773
      vertex 15.9588 14 4.61329
      vertex 10.2693 14 -8.28166
    endloop
  endfacet
  facet normal 0 1 0
    outer loop
      vertex -10.5776 14 -8.28166
      vertex -16.3205 14 4.61329
      vertex -10.5776 14 10.6773
    endloop
  endfacet
  facet normal 0 1 0
    outer loop
      vertex 10.2693 14 10.6773
      vertex 7.54052 14 10.6773
      vertex 32.5 14 14
    endloop
  endfacet
  facet normal 0 1 0
    outer loop
      vertex -7.65257 14 -11.3315
      vertex 7.54052 14 -11.3315
      vertex 32.5 14 -14
    endloop
  endfacet
  facet normal 0 1 0
    outer loop
      vertex 7.54052 14 -11.3315
      vertex 11.5356 14 -11.3315
      vertex 32.5 14 -14
    endloop
  endfacet
  facet normal 0 1 0
    outer loop
      vertex 11.5356 14 -11.3315
      vertex 22.3438 14 -11.3315
      vertex 32.5 14 -14
    endloop
  endfacet
  facet normal 0 1 0
    outer loop
      vertex 26.4103 14 -11.3315
      vertex 32.5 14 -14
      vertex 22.3438 14 -11.3315
    endloop
  endfacet
  facet normal 0 1 0
    outer loop
      vertex 32.5 14 -14
      vertex 26.4103 14 10.6773
      vertex 32.5 14 14
    endloop
  endfacet
  facet normal 0 1 0
    outer loop
      vertex 17.7423 14 4.61329
      vertex 10.2693 14 10.6773
      vertex 23.4853 14 10.6773
    endloop
  endfacet
  facet normal 0 1 0
    outer loop
      vertex 26.4103 14 10.6773
      vertex 23.4853 14 10.6773
      vertex 32.5 14 14
    endloop
  endfacet
  facet normal 0 1 0
    outer loop
      vertex 23.4853 14 -8.28166
      vertex 17.7423 14 4.61329
      vertex 23.4853 14 10.6773
    endloop
  endfacet
  facet normal 0 1 0
    outer loop
      vertex 23.4853 14 10.6773
      vertex 10.2693 14 10.6773
      vertex 32.5 14 14
    endloop
  endfacet
  facet normal 0 1 0
    outer loop
      vertex -26.5224 14 10.6773
      vertex -32.5 14 14
      vertex -23.7935 14 10.6773
    endloop
  endfacet
  facet normal 0 1 0
    outer loop
      vertex 10.2693 14 10.6773
      vertex 17.7423 14 4.61329
      vertex 15.9588 14 4.61329
    endloop
  endfacet
  facet normal 0 1 0
    outer loop
      vertex 17.0289 14 0.921371
      vertex 22.3438 14 -11.3315
      vertex 11.5356 14 -11.3315
    endloop
  endfacet
  facet normal 0 1 0
    outer loop
      vertex -7.65257 14 10.6773
      vertex 7.54052 14 -11.3315
      vertex -7.65257 14 -11.3315
    endloop
  endfacet
  facet normal 0 1 0
    outer loop
      vertex 7.54052 14 -11.3315
      vertex -7.65257 14 10.6773
      vertex 7.54052 14 10.6773
    endloop
  endfacet
  facet normal 0 1 0
    outer loop
      vertex -16.3205 14 4.61329
      vertex -23.7935 14 10.6773
      vertex -10.5776 14 10.6773
    endloop
  endfacet
  facet normal 1 0 0
    outer loop
      vertex -26.5224 5 5
      vertex -26.5224 5 -5
      vertex -26.5224 14 -11.3315
    endloop
  endfacet
  facet normal 1 0 0
    outer loop
      vertex -26.5224 -14 11.3315
      vertex -26.5224 -14 -10.6773
      vertex -26.5224 -11.3315 -10.6773
    endloop
  endfacet
  facet normal 1 0 0
    outer loop
      vertex -26.5224 -5 -5
      vertex -26.5224 -14 11.3315
      vertex -26.5224 -11.3315 -10.6773
    endloop
  endfacet
  facet normal 1 0 0
    outer loop
      vertex -26.5224 -11.3315 -14
      vertex -26.5224 10.6773 -14
      vertex -26.5224 -11.3315 -10.6773
    endloop
  endfacet
  facet normal 1 0 0
    outer loop
      vertex -26.5224 5 -5
      vertex -26.5224 -5 -5
      vertex -26.5224 10.6773 -14
    endloop
  endfacet
  facet normal 1 0 0
    outer loop
      vertex -26.5224 -5 5
      vertex -26.5224 11.3315 10.6773
      vertex -26.5224 -14 11.3315
    endloop
  endfacet
  facet normal 1 0 0
    outer loop
      vertex -26.5224 14 -11.3315
      vertex -26.5224 14 10.6773
      vertex -26.5224 11.3315 10.6773
    endloop
  endfacet
  facet normal 1 0 0
    outer loop
      vertex -26.5224 5 -5
      vertex -26.5224 10.6773 -14
      vertex -26.5224 10.6773 -11.3315
    endloop
  endfacet
  facet normal 1 0 0
    outer loop
      vertex -26.5224 -10.6773 14
      vertex -26.5224 -10.6773 11.3315
      vertex -26.5224 11.3315 14
    endloop
  endfacet
  facet normal 1 0 0
    outer loop
      vertex -26.5224 10.6773 -14
      vertex -26.5224 -5 -5
      vertex -26.5224 -11.3315 -10.6773
    endloop
  endfacet
  facet normal 1 0 0
    outer loop
      vertex -26.5224 5 5
      vertex -26.5224 11.3315 10.6773
      vertex -26.5224 -5 5
    endloop
  endfacet
  facet normal 1 0 0
    outer loop
      vertex -26.5224 14 -11.3315
      vertex -26.5224 11.3315 10.6773
      vertex -26.5224 5 5
    endloop
  endfacet
  facet normal 1 0 0
    outer loop
      vertex -26.5224 -5 -5
      vertex -26.5224 -5 5
      vertex -26.5224 -14 11.3315
    endloop
  endfacet
  facet normal 1 0 0
    outer loop
      vertex -26.5224 10.6773 -11.3315
      vertex -26.5224 14 -11.3315
      vertex -26.5224 5 -5
    endloop
  endfacet
  facet normal 1 0 0
    outer loop
      vertex -26.5224 11.3315 10.6773
      vertex -26.5224 -10.6773 11.3315
      vertex -26.5224 -14 11.3315
    endloop
  endfacet
  facet normal 1 0 0
    outer loop
      vertex -26.5224 11.3315 10.6773
      vertex -26.5224 11.3315 14
      vertex -26.5224 -10.6773 11.3315
    endloop
  endfacet
  facet normal 0 -1 1.22465e-16
    outer loop
      vertex -26.5224 10.6773 -11.3315
      vertex -26.5224 10.6773 -14
      vertex -23.7935 10.6773 -14
    endloop
  endfacet
  facet normal 0 -1 1.22465e-16
    outer loop
      vertex -23.7935 10.6773 -11.3315
      vertex -26.5224 10.6773 -11.3315
      vertex -23.7935 10.6773 -14
    endloop
  endfacet
  facet normal -1 0 0
    outer loop
      vertex -23.7935 -14 -10.6773
      vertex -23.7935 -14 8.28166
      vertex -23.7935 -11.3315 -10.6773
    endloop
  endfacet
  facet normal -1 0 0
    outer loop
      vertex -23.7935 -11.3315 -5
      vertex -23.7935 -14 8.28166
      vertex -23.7935 -5 8.28166
    endloop
  endfacet
  facet normal -1 0 0
    outer loop
      vertex -23.7935 -11.3315 -5
      vertex -23.7935 -5 8.28166
      vertex -23.7935 -8.28166 -5
    endloop
  endfacet
  facet normal -1 0 0
    outer loop
      vertex -23.7935 -5 11.3315
      vertex -23.7935 -10.6773 11.3315
      vertex -23.7935 -10.6773 14
    endloop
  endfacet
  facet normal -1 0 0
    outer loop
      vertex -23.7935 -5 11.3315
      vertex -23.7935 -10.6773 14
      vertex -23.7935 8.28166 14
    endloop
  endfacet
  facet normal -1 0 0
    outer loop
      vertex -23.7935 -5 11.3315
      vertex -23.7935 8.28166 14
      vertex -23.7935 -5 8.28166
    endloop
  endfacet
  facet normal -1 0 0
    outer loop
      vertex -23.7935 5 5
      vertex -23.7935 8.28166 14
      vertex -23.7935 8.28166 5
    endloop
  endfacet
  facet normal -1 0 0
    outer loop
      vertex -23.7935 11.3315 5
      vertex -23.7935 11.3315 10.6773
      vertex -23.7935 14 10.6773
    endloop
  endfacet
  facet normal -1 0 0
    outer loop
      vertex -23.7935 11.3315 5
      vertex -23.7935 14 10.6773
      vertex -23.7935 14 -8.28166
    endloop
  endfacet
  facet normal -1 0 0
    outer loop
      vertex -23.7935 11.3315 5
      vertex -23.7935 14 -8.28166
      vertex -23.7935 5 -8.28166
    endloop
  endfacet
  facet normal -1 0 0
    outer loop
      vertex -23.7935 5 -11.3315
      vertex -23.7935 10.6773 -11.3315
      vertex -23.7935 10.6773 -14
    endloop
  endfacet
  facet normal -1 0 0
    outer loop
      vertex -23.7935 -5 -5
      vertex -23.7935 -8.28166 -5
      vertex -23.7935 -5 5
    endloop
  endfacet
  facet normal -1 0 0
    outer loop
      vertex -23.7935 8.28166 5
      vertex -23.7935 11.3315 5
      vertex -23.7935 5 -5
    endloop
  endfacet
  facet normal -1 0 0
    outer loop
      vertex -23.7935 -11.3315 -10.6773
      vertex -23.7935 -14 8.28166
      vertex -23.7935 -11.3315 -5
    endloop
  endfacet
  facet normal -1 0 0
    outer loop
      vertex -23.7935 -5 5
      vertex -23.7935 8.28166 14
      vertex -23.7935 5 5
    endloop
  endfacet
  facet normal -1 0 0
    outer loop
      vertex -23.7935 -5 8.28166
      vertex -23.7935 8.28166 14
      vertex -23.7935 -5 5
    endloop
  endfacet
  facet normal -1 0 0
    outer loop
      vertex -23.7935 -5 8.28166
      vertex -23.7935 -5 5
      vertex -23.7935 -8.28166 -5
    endloop
  endfacet
  facet normal -1 0 0
    outer loop
      vertex -23.7935 5 5
      vertex -23.7935 8.28166 5
      vertex -23.7935 5 -5
    endloop
  endfacet
  facet normal -1 0 0
    outer loop
      vertex -23.7935 11.3315 5
      vertex -23.7935 5 -8.28166
      vertex -23.7935 5 -5
    endloop
  endfacet
  facet normal -1 0 0
    outer loop
      vertex -23.7935 -5 -5
      vertex -23.7935 5 -5
      vertex -23.7935 5 -8.28166
    endloop
  endfacet
  facet normal -1 0 0
    outer loop
      vertex -23.7935 -8.28166 -5
      vertex -23.7935 -5 -5
      vertex -23.7935 5 -8.28166
    endloop
  endfacet
  facet normal -1 0 0
    outer loop
      vertex -23.7935 -8.28166 -5
      vertex -23.7935 5 -8.28166
      vertex -23.7935 5 -11.3315
    endloop
  endfacet
  facet normal -1 0 0
    outer loop
      vertex -23.7935 5 -11.3315
      vertex -23.7935 10.6773 -14
      vertex -23.7935 -8.28166 -14
    endloop
  endfacet
  facet normal -1 0 0
    outer loop
      vertex -23.7935 -8.28166 -5
      vertex -23.7935 5 -11.3315
      vertex -23.7935 -8.28166 -14
    endloop
  endfacet
  facet normal 0.914904 -0.403671 4.94355e-17
    outer loop
      vertex -23.7935 -8.28166 -5
      vertex -23.7935 -8.28166 -14
      vertex -18.1041 4.61329 -14
    endloop
  endfacet
  facet normal 0.914904 -0.403671 4.94355e-17
    outer loop
      vertex -18.1041 4.61329 -5
      vertex -23.7935 -8.28166 -5
      vertex -18.1041 4.61329 -14
    endloop
  endfacet
  facet normal 0 -1 1.22465e-16
    outer loop
      vertex -18.1041 4.61329 -5
      vertex -18.1041 4.61329 -14
      vertex -16.3205 4.61329 -14
    endloop
  endfacet
  facet normal 0 -1 1.22465e-16
    outer loop
      vertex -16.3205 4.61329 -5
      vertex -18.1041 4.61329 -5
      vertex -16.3205 4.61329 -14
    endloop
  endfacet
  facet normal -0.913499 -0.406842 4.98238e-17
    outer loop
      vertex -16.3205 4.61329 -14
      vertex -10.5776 -8.28166 -14
      vertex -16.3205 4.61329 -5
    endloop
  endfacet
  facet normal -0.913499 -0.406842 4.98238e-17
    outer loop
      vertex -16.3205 4.61329 -5
      vertex -10.5776 -8.28166 -14
      vertex -10.5776 -8.28166 -5
    endloop
  endfacet
  facet normal 1 0 0
    outer loop
      vertex -10.5776 -14 8.28166
      vertex -10.5776 -14 -10.6773
      vertex -10.5776 -11.3315 -10.6773
    endloop
  endfacet
  facet normal 1 0 0
    outer loop
      vertex -10.5776 -8.28166 -5
      vertex -10.5776 -14 8.28166
      vertex -10.5776 -11.3315 -5
    endloop
  endfacet
  facet normal 1 0 0
    outer loop
      vertex -10.5776 -11.3315 -5
      vertex -10.5776 -14 8.28166
      vertex -10.5776 -11.3315 -10.6773
    endloop
  endfacet
  facet normal 1 0 0
    outer loop
      vertex -10.5776 -5 -5
      vertex -10.5776 -14 8.28166
      vertex -10.5776 -8.28166 -5
    endloop
  endfacet
  facet normal 1 0 0
    outer loop
      vertex -10.5776 5 -11.3315
      vertex -10.5776 -8.28166 -5
      vertex -10.5776 -8.28166 -14
    endloop
  endfacet
  facet normal 1 0 0
    outer loop
      vertex -10.5776 5 -5
      vertex -10.5776 -5 -5
      vertex -10.5776 5 -8.28166
    endloop
  endfacet
  facet normal 1 0 0
    outer loop
      vertex -10.5776 10.6773 -14
      vertex -10.5776 5 -11.3315
      vertex -10.5776 -8.28166 -14
    endloop
  endfacet
  facet normal 1 0 0
    outer loop
      vertex -10.5776 8.28166 5
      vertex -10.5776 8.28166 14
      vertex -10.5776 -5 8.28166
    endloop
  endfacet
  facet normal 1 0 0
    outer loop
      vertex -10.5776 11.3315 10.6773
      vertex -10.5776 11.3315 5
      vertex -10.5776 14 10.6773
    endloop
  endfacet
  facet normal 1 0 0
    outer loop
      vertex -10.5776 8.28166 5
      vertex -10.5776 -5 8.28166
      vertex -10.5776 -14 8.28166
    endloop
  endfacet
  facet normal 1 0 0
    outer loop
      vertex -10.5776 14 10.6773
      vertex -10.5776 11.3315 5
      vertex -10.5776 14 -8.28166
    endloop
  endfacet
  facet normal 1 0 0
    outer loop
      vertex -10.5776 11.3315 5
      vertex -10.5776 8.28166 5
      vertex -10.5776 14 -8.28166
    endloop
  endfacet
  facet normal 1 0 0
    outer loop
      vertex -10.5776 5 -8.28166
      vertex -10.5776 -5 -5
      vertex -10.5776 5 -11.3315
    endloop
  endfacet
  facet normal 1 0 0
    outer loop
      vertex -10.5776 -10.6773 14
      vertex -10.5776 -10.6773 11.3315
      vertex -10.5776 8.28166 14
    endloop
  endfacet
  facet normal 1 0 0
    outer loop
      vertex -10.5776 -10.6773 11.3315
      vertex -10.5776 -5 11.3315
      vertex -10.5776 8.28166 14
    endloop
  endfacet
  facet normal 1 0 0
    outer loop
      vertex -10.5776 -5 -5
      vertex -10.5776 -5 5
      vertex -10.5776 -14 8.28166
    endloop
  endfacet
  facet normal 1 0 0
    outer loop
      vertex -10.5776 5 -8.28166
      vertex -10.5776 14 -8.28166
      vertex -10.5776 5 -5
    endloop
  endfacet
  facet normal 1 0 0
    outer loop
      vertex -10.5776 8.28166 5
      vertex -10.5776 5 5
      vertex -10.5776 14 -8.28166
    endloop
  endfacet
  facet normal 1 0 0
    outer loop
      vertex -10.5776 5 5
      vertex -10.5776 -14 8.28166
      vertex -10.5776 -5 5
    endloop
  endfacet
  facet normal 1 0 0
    outer loop
      vertex -10.5776 8.28166 5
      vertex -10.5776 -14 8.28166
      vertex -10.5776 5 5
    endloop
  endfacet
  facet normal 1 0 0
    outer loop
      vertex -10.5776 -5 11.3315
      vertex -10.5776 -5 8.28166
      vertex -10.5776 8.28166 14
    endloop
  endfacet
  facet normal 1 0 0
    outer loop
      vertex -10.5776 5 5
      vertex -10.5776 5 -5
      vertex -10.5776 14 -8.28166
    endloop
  endfacet
  facet normal 1 0 0
    outer loop
      vertex -10.5776 5 -11.3315
      vertex -10.5776 -5 -5
      vertex -10.5776 -8.28166 -5
    endloop
  endfacet
  facet normal 1 0 0
    outer loop
      vertex -10.5776 10.6773 -11.3315
      vertex -10.5776 5 -11.3315
      vertex -10.5776 10.6773 -14
    endloop
  endfacet
  facet normal 0 -1 1.22465e-16
    outer loop
      vertex -10.5776 10.6773 -11.3315
      vertex -10.5776 10.6773 -14
      vertex -7.65257 10.6773 -14
    endloop
  endfacet
  facet normal 0 -1 1.22465e-16
    outer loop
      vertex -7.65257 10.6773 -11.3315
      vertex -10.5776 10.6773 -11.3315
      vertex -7.65257 10.6773 -14
    endloop
  endfacet
  facet normal -1 0 0
    outer loop
      vertex -7.65257 -14 -10.6773
      vertex -7.65257 -14 11.3315
      vertex -7.65257 -11.3315 -10.6773
    endloop
  endfacet
  facet normal -1 0 0
    outer loop
      vertex -7.65257 -11.3315 -10.6773
      vertex -7.65257 -14 11.3315
      vertex -7.65257 -10.6773 11.3315
    endloop
  endfacet
  facet normal -1 0 0
    outer loop
      vertex -7.65257 -10.6773 11.3315
      vertex -7.65257 -10.6773 14
      vertex -7.65257 11.3315 14
    endloop
  endfacet
  facet normal -1 0 0
    outer loop
      vertex -7.65257 -5 -5
      vertex -7.65257 -11.3315 -10.6773
      vertex -7.65257 -5 5
    endloop
  endfacet
  facet normal -1 0 0
    outer loop
      vertex -7.65257 5 5
      vertex -7.65257 11.3315 14
      vertex -7.65257 11.3315 10.6773
    endloop
  endfacet
  facet normal -1 0 0
    outer loop
      vertex -7.65257 5 -5
      vertex -7.65257 14 10.6773
      vertex -7.65257 14 -11.3315
    endloop
  endfacet
  facet normal -1 0 0
    outer loop
      vertex -7.65257 -5 5
      vertex -7.65257 11.3315 14
      vertex -7.65257 5 5
    endloop
  endfacet
  facet normal -1 0 0
    outer loop
      vertex -7.65257 -10.6773 11.3315
      vertex -7.65257 11.3315 14
      vertex -7.65257 -5 5
    endloop
  endfacet
  facet normal -1 0 0
    outer loop
      vertex -7.65257 -10.6773 11.3315
      vertex -7.65257 -5 5
      vertex -7.65257 -11.3315 -10.6773
    endloop
  endfacet
  facet normal -1 0 0
    outer loop
      vertex -7.65257 5 -5
      vertex -7.65257 -11.3315 -10.6773
      vertex -7.65257 -5 -5
    endloop
  endfacet
  facet normal -1 0 0
    outer loop
      vertex -7.65257 5 5
      vertex -7.65257 14 10.6773
      vertex -7.65257 5 -5
    endloop
  endfacet
  facet normal -1 0 0
    outer loop
      vertex -7.65257 5 5
      vertex -7.65257 11.3315 10.6773
      vertex -7.65257 14 10.6773
    endloop
  endfacet
  facet normal -1 0 0
    outer loop
      vertex -7.65257 -11.3315 -10.6773
      vertex -7.65257 5 -5
      vertex -7.65257 14 -11.3315
    endloop
  endfacet
  facet normal -1 0 0
    outer loop
      vertex -7.65257 -11.3315 -10.6773
      vertex -7.65257 14 -11.3315
      vertex -7.65257 10.6773 -11.3315
    endloop
  endfacet
  facet normal -1 0 0
    outer loop
      vertex -7.65257 -11.3315 -10.6773
      vertex -7.65257 10.6773 -11.3315
      vertex -7.65257 10.6773 -14
    endloop
  endfacet
  facet normal -1 0 0
    outer loop
      vertex -7.65257 -11.3315 -10.6773
      vertex -7.65257 10.6773 -14
      vertex -7.65257 -11.3315 -14
    endloop
  endfacet
  facet normal 0 1 -1.22465e-16
    outer loop
      vertex -7.65257 -11.3315 -10.6773
      vertex -7.65257 -11.3315 -14
      vertex -10.5776 -11.3315 -10.6773
    endloop
  endfacet
  facet normal 0 1 -1.22465e-16
    outer loop
      vertex -11.719 -11.3315 -14
      vertex -11.719 -11.3315 -5
      vertex -10.5776 -11.3315 -10.6773
    endloop
  endfacet
  facet normal 0 1 -1.22465e-16
    outer loop
      vertex -11.719 -11.3315 -14
      vertex -10.5776 -11.3315 -10.6773
      vertex -7.65257 -11.3315 -14
    endloop
  endfacet
  facet normal 0 1 -1.22465e-16
    outer loop
      vertex -10.5776 -11.3315 -10.6773
      vertex -11.719 -11.3315 -5
      vertex -10.5776 -11.3315 -5
    endloop
  endfacet
  facet normal 0.917409 0.397945 -4.87342e-17
    outer loop
      vertex -11.719 -11.3315 -14
      vertex -17.034 0.921371 -14
      vertex -17.034 0.921371 -5
    endloop
  endfacet
  facet normal 0.917409 0.397945 -4.87342e-17
    outer loop
      vertex -11.719 -11.3315 -5
      vertex -11.719 -11.3315 -14
      vertex -17.034 0.921371 -5
    endloop
  endfacet
  facet normal -0.912492 0.409094 -5.00996e-17
    outer loop
      vertex -22.5272 -11.3315 -14
      vertex -22.5272 -11.3315 -5
      vertex -17.034 0.921371 -14
    endloop
  endfacet
  facet normal -0.912492 0.409094 -5.00996e-17
    outer loop
      vertex -17.034 0.921371 -14
      vertex -22.5272 -11.3315 -5
      vertex -17.034 0.921371 -5
    endloop
  endfacet
  facet normal 0 1 -1.22465e-16
    outer loop
      vertex -26.5224 -11.3315 -14
      vertex -26.5224 -11.3315 -10.6773
      vertex -22.5272 -11.3315 -14
    endloop
  endfacet
  facet normal 0 1 -1.22465e-16
    outer loop
      vertex -22.5272 -11.3315 -14
      vertex -26.5224 -11.3315 -10.6773
      vertex -23.7935 -11.3315 -10.6773
    endloop
  endfacet
  facet normal 0 1 -1.22465e-16
    outer loop
      vertex -22.5272 -11.3315 -14
      vertex -23.7935 -11.3315 -10.6773
      vertex -23.7935 -11.3315 -5
    endloop
  endfacet
  facet normal 0 1 -1.22465e-16
    outer loop
      vertex -22.5272 -11.3315 -14
      vertex -23.7935 -11.3315 -5
      vertex -22.5272 -11.3315 -5
    endloop
  endfacet
  facet normal 0 -1 1.22465e-16
    outer loop
      vertex 7.54052 10.6773 -11.3315
      vertex 7.54052 10.6773 -14
      vertex 10.2693 10.6773 -14
    endloop
  endfacet
  facet normal 0 -1 1.22465e-16
    outer loop
      vertex 10.2693 10.6773 -11.3315
      vertex 7.54052 10.6773 -11.3315
      vertex 10.2693 10.6773 -14
    endloop
  endfacet
  facet normal 1 0 0
    outer loop
      vertex 7.54052 5 5
      vertex 7.54052 5 -5
      vertex 7.54052 14 -11.3315
    endloop
  endfacet
  facet normal 1 0 0
    outer loop
      vertex 7.54052 -14 11.3315
      vertex 7.54052 -14 -10.6773
      vertex 7.54052 -11.3315 -10.6773
    endloop
  endfacet
  facet normal 1 0 0
    outer loop
      vertex 7.54052 -5 -5
      vertex 7.54052 -14 11.3315
      vertex 7.54052 -11.3315 -10.6773
    endloop
  endfacet
  facet normal 1 0 0
    outer loop
      vertex 7.54052 -11.3315 -14
      vertex 7.54052 10.6773 -14
      vertex 7.54052 -11.3315 -10.6773
    endloop
  endfacet
  facet normal 1 0 0
    outer loop
      vertex 7.54052 5 -5
      vertex 7.54052 -5 -5
      vertex 7.54052 10.6773 -14
    endloop
  endfacet
  facet normal 1 0 0
    outer loop
      vertex 7.54052 -5 5
      vertex 7.54052 11.3315 10.6773
      vertex 7.54052 -14 11.3315
    endloop
  endfacet
  facet normal 1 0 0
    outer loop
      vertex 7.54052 14 -11.3315
      vertex 7.54052 14 10.6773
      vertex 7.54052 11.3315 10.6773
    endloop
  endfacet
  facet normal 1 0 0
    outer loop
      vertex 7.54052 5 -5
      vertex 7.54052 10.6773 -14
      vertex 7.54052 10.6773 -11.3315
    endloop
  endfacet
  facet normal 1 0 0
    outer loop
      vertex 7.54052 -10.6773 14
      vertex 7.54052 -10.6773 11.3315
      vertex 7.54052 11.3315 14
    endloop
  endfacet
  facet normal 1 0 0
    outer loop
      vertex 7.54052 10.6773 -14
      vertex 7.54052 -5 -5
      vertex 7.54052 -11.3315 -10.6773
    endloop
  endfacet
  facet normal 1 0 0
    outer loop
      vertex 7.54052 5 5
      vertex 7.54052 11.3315 10.6773
      vertex 7.54052 -5 5
    endloop
  endfacet
  facet normal 1 0 0
    outer loop
      vertex 7.54052 14 -11.3315
      vertex 7.54052 11.3315 10.6773
      vertex 7.54052 5 5
    endloop
  endfacet
  facet normal 1 0 0
    outer loop
      vertex 7.54052 -5 -5
      vertex 7.54052 -5 5
      vertex 7.54052 -14 11.3315
    endloop
  endfacet
  facet normal 1 0 0
    outer loop
      vertex 7.54052 10.6773 -11.3315
      vertex 7.54052 14 -11.3315
      vertex 7.54052 5 -5
    endloop
  endfacet
  facet normal 1 0 0
    outer loop
      vertex 7.54052 11.3315 10.6773
      vertex 7.54052 -10.6773 11.3315
      vertex 7.54052 -14 11.3315
    endloop
  endfacet
  facet normal 1 0 0
    outer loop
      vertex 7.54052 11.3315 10.6773
      vertex 7.54052 11.3315 14
      vertex 7.54052 -10.6773 11.3315
    endloop
  endfacet
  facet normal -1 0 0
    outer loop
      vertex 10.2693 -14 -10.6773
      vertex 10.2693 -14 8.28166
      vertex 10.2693 -11.3315 -10.6773
    endloop
  endfacet
  facet normal -1 0 0
    outer loop
      vertex 10.2693 -11.3315 -5
      vertex 10.2693 -14 8.28166
      vertex 10.2693 -5 8.28166
    endloop
  endfacet
  facet normal -1 0 0
    outer loop
      vertex 10.2693 -11.3315 -5
      vertex 10.2693 -5 8.28166
      vertex 10.2693 -8.28166 -5
    endloop
  endfacet
  facet normal -1 0 0
    outer loop
      vertex 10.2693 -5 11.3315
      vertex 10.2693 -10.6773 11.3315
      vertex 10.2693 -10.6773 14
    endloop
  endfacet
  facet normal -1 0 0
    outer loop
      vertex 10.2693 -5 11.3315
      vertex 10.2693 -10.6773 14
      vertex 10.2693 8.28166 14
    endloop
  endfacet
  facet normal -1 0 0
    outer loop
      vertex 10.2693 -5 11.3315
      vertex 10.2693 8.28166 14
      vertex 10.2693 -5 8.28166
    endloop
  endfacet
  facet normal -1 0 0
    outer loop
      vertex 10.2693 5 5
      vertex 10.2693 8.28166 14
      vertex 10.2693 8.28166 5
    endloop
  endfacet
  facet normal -1 0 0
    outer loop
      vertex 10.2693 11.3315 5
      vertex 10.2693 11.3315 10.6773
      vertex 10.2693 14 10.6773
    endloop
  endfacet
  facet normal -1 0 0
    outer loop
      vertex 10.2693 11.3315 5
      vertex 10.2693 14 10.6773
      vertex 10.2693 14 -8.28166
    endloop
  endfacet
  facet normal -1 0 0
    outer loop
      vertex 10.2693 11.3315 5
      vertex 10.2693 14 -8.28166
      vertex 10.2693 5 -8.28166
    endloop
  endfacet
  facet normal -1 0 0
    outer loop
      vertex 10.2693 5 -11.3315
      vertex 10.2693 10.6773 -11.3315
      vertex 10.2693 10.6773 -14
    endloop
  endfacet
  facet normal -1 0 0
    outer loop
      vertex 10.2693 -5 -5
      vertex 10.2693 -8.28166 -5
      vertex 10.2693 -5 5
    endloop
  endfacet
  facet normal -1 0 0
    outer loop
      vertex 10.2693 8.28166 5
      vertex 10.2693 11.3315 5
      vertex 10.2693 5 -5
    endloop
  endfacet
  facet normal -1 0 0
    outer loop
      vertex 10.2693 -11.3315 -10.6773
      vertex 10.2693 -14 8.28166
      vertex 10.2693 -11.3315 -5
    endloop
  endfacet
  facet normal -1 0 0
    outer loop
      vertex 10.2693 -5 5
      vertex 10.2693 8.28166 14
      vertex 10.2693 5 5
    endloop
  endfacet
  facet normal -1 0 0
    outer loop
      vertex 10.2693 -5 8.28166
      vertex 10.2693 8.28166 14
      vertex 10.2693 -5 5
    endloop
  endfacet
  facet normal -1 0 0
    outer loop
      vertex 10.2693 -5 8.28166
      vertex 10.2693 -5 5
      vertex 10.2693 -8.28166 -5
    endloop
  endfacet
  facet normal -1 0 0
    outer loop
      vertex 10.2693 5 5
      vertex 10.2693 8.28166 5
      vertex 10.2693 5 -5
    endloop
  endfacet
  facet normal -1 0 0
    outer loop
      vertex 10.2693 11.3315 5
      vertex 10.2693 5 -8.28166
      vertex 10.2693 5 -5
    endloop
  endfacet
  facet normal -1 0 0
    outer loop
      vertex 10.2693 -5 -5
      vertex 10.2693 5 -5
      vertex 10.2693 5 -8.28166
    endloop
  endfacet
  facet normal -1 0 0
    outer loop
      vertex 10.2693 -8.28166 -5
      vertex 10.2693 -5 -5
      vertex 10.2693 5 -8.28166
    endloop
  endfacet
  facet normal -1 0 0
    outer loop
      vertex 10.2693 -8.28166 -5
      vertex 10.2693 5 -8.28166
      vertex 10.2693 5 -11.3315
    endloop
  endfacet
  facet normal -1 0 0
    outer loop
      vertex 10.2693 5 -11.3315
      vertex 10.2693 10.6773 -14
      vertex 10.2693 -8.28166 -14
    endloop
  endfacet
  facet normal -1 0 0
    outer loop
      vertex 10.2693 -8.28166 -5
      vertex 10.2693 5 -11.3315
      vertex 10.2693 -8.28166 -14
    endloop
  endfacet
  facet normal 0.914904 -0.403671 4.94355e-17
    outer loop
      vertex 10.2693 -8.28166 -5
      vertex 10.2693 -8.28166 -14
      vertex 15.9588 4.61329 -14
    endloop
  endfacet
  facet normal 0.914904 -0.403671 4.94355e-17
    outer loop
      vertex 15.9588 4.61329 -5
      vertex 10.2693 -8.28166 -5
      vertex 15.9588 4.61329 -14
    endloop
  endfacet
  facet normal 0 -1 1.22465e-16
    outer loop
      vertex 15.9588 4.61329 -5
      vertex 15.9588 4.61329 -14
      vertex 17.7423 4.61329 -14
    endloop
  endfacet
  facet normal 0 -1 1.22465e-16
    outer loop
      vertex 17.7423 4.61329 -5
      vertex 15.9588 4.61329 -5
      vertex 17.7423 4.61329 -14
    endloop
  endfacet
  facet normal -0.913499 -0.406842 4.98237e-17
    outer loop
      vertex 17.7423 4.61329 -14
      vertex 23.4853 -8.28166 -14
      vertex 17.7423 4.61329 -5
    endloop
  endfacet
  facet normal -0.913499 -0.406842 4.98237e-17
    outer loop
      vertex 17.7423 4.61329 -5
      vertex 23.4853 -8.28166 -14
      vertex 23.4853 -8.28166 -5
    endloop
  endfacet
  facet normal 1 0 0
    outer loop
      vertex 23.4853 -14 8.28166
      vertex 23.4853 -14 -10.6773
      vertex 23.4853 -11.3315 -10.6773
    endloop
  endfacet
  facet normal 1 0 0
    outer loop
      vertex 23.4853 -8.28166 -5
      vertex 23.4853 -14 8.28166
      vertex 23.4853 -11.3315 -5
    endloop
  endfacet
  facet normal 1 0 0
    outer loop
      vertex 23.4853 -11.3315 -5
      vertex 23.4853 -14 8.28166
      vertex 23.4853 -11.3315 -10.6773
    endloop
  endfacet
  facet normal 1 0 0
    outer loop
      vertex 23.4853 -5 -5
      vertex 23.4853 -14 8.28166
      vertex 23.4853 -8.28166 -5
    endloop
  endfacet
  facet normal 1 0 0
    outer loop
      vertex 23.4853 5 -11.3315
      vertex 23.4853 -8.28166 -5
      vertex 23.4853 -8.28166 -14
    endloop
  endfacet
  facet normal 1 0 0
    outer loop
      vertex 23.4853 5 -5
      vertex 23.4853 -5 -5
      vertex 23.4853 5 -8.28166
    endloop
  endfacet
  facet normal 1 0 0
    outer loop
      vertex 23.4853 10.6773 -14
      vertex 23.4853 5 -11.3315
      vertex 23.4853 -8.28166 -14
    endloop
  endfacet
  facet normal 1 0 0
    outer loop
      vertex 23.4853 8.28166 5
      vertex 23.4853 8.28166 14
      vertex 23.4853 -5 8.28166
    endloop
  endfacet
  facet normal 1 0 0
    outer loop
      vertex 23.4853 11.3315 10.6773
      vertex 23.4853 11.3315 5
      vertex 23.4853 14 10.6773
    endloop
  endfacet
  facet normal 1 0 0
    outer loop
      vertex 23.4853 8.28166 5
      vertex 23.4853 -5 8.28166
      vertex 23.4853 -14 8.28166
    endloop
  endfacet
  facet normal 1 0 0
    outer loop
      vertex 23.4853 14 10.6773
      vertex 23.4853 11.3315 5
      vertex 23.4853 14 -8.28166
    endloop
  endfacet
  facet normal 1 0 0
    outer loop
      vertex 23.4853 11.3315 5
      vertex 23.4853 8.28166 5
      vertex 23.4853 14 -8.28166
    endloop
  endfacet
  facet normal 1 0 0
    outer loop
      vertex 23.4853 5 -8.28166
      vertex 23.4853 -5 -5
      vertex 23.4853 5 -11.3315
    endloop
  endfacet
  facet normal 1 0 0
    outer loop
      vertex 23.4853 -10.6773 14
      vertex 23.4853 -10.6773 11.3315
      vertex 23.4853 8.28166 14
    endloop
  endfacet
  facet normal 1 0 0
    outer loop
      vertex 23.4853 -10.6773 11.3315
      vertex 23.4853 -5 11.3315
      vertex 23.4853 8.28166 14
    endloop
  endfacet
  facet normal 1 0 0
    outer loop
      vertex 23.4853 -5 -5
      vertex 23.4853 -5 5
      vertex 23.4853 -14 8.28166
    endloop
  endfacet
  facet normal 1 0 0
    outer loop
      vertex 23.4853 5 -8.28166
      vertex 23.4853 14 -8.28166
      vertex 23.4853 5 -5
    endloop
  endfacet
  facet normal 1 0 0
    outer loop
      vertex 23.4853 8.28166 5
      vertex 23.4853 5 5
      vertex 23.4853 14 -8.28166
    endloop
  endfacet
  facet normal 1 0 0
    outer loop
      vertex 23.4853 5 5
      vertex 23.4853 -14 8.28166
      vertex 23.4853 -5 5
    endloop
  endfacet
  facet normal 1 0 0
    outer loop
      vertex 23.4853 8.28166 5
      vertex 23.4853 -14 8.28166
      vertex 23.4853 5 5
    endloop
  endfacet
  facet normal 1 0 0
    outer loop
      vertex 23.4853 -5 11.3315
      vertex 23.4853 -5 8.28166
      vertex 23.4853 8.28166 14
    endloop
  endfacet
  facet normal 1 0 0
    outer loop
      vertex 23.4853 5 5
      vertex 23.4853 5 -5
      vertex 23.4853 14 -8.28166
    endloop
  endfacet
  facet normal 1 0 0
    outer loop
      vertex 23.4853 5 -11.3315
      vertex 23.4853 -5 -5
      vertex 23.4853 -8.28166 -5
    endloop
  endfacet
  facet normal 1 0 0
    outer loop
      vertex 23.4853 10.6773 -11.3315
      vertex 23.4853 5 -11.3315
      vertex 23.4853 10.6773 -14
    endloop
  endfacet
  facet normal 0 -1 1.22465e-16
    outer loop
      vertex 23.4853 10.6773 -11.3315
      vertex 23.4853 10.6773 -14
      vertex 26.4103 10.6773 -14
    endloop
  endfacet
  facet normal 0 -1 1.22465e-16
    outer loop
      vertex 26.4103 10.6773 -11.3315
      vertex 23.4853 10.6773 -11.3315
      vertex 26.4103 10.6773 -14
    endloop
  endfacet
  facet normal -1 0 0
    outer loop
      vertex 26.4103 -14 -10.6773
      vertex 26.4103 -14 11.3315
      vertex 26.4103 -11.3315 -10.6773
    endloop
  endfacet
  facet normal -1 0 0
    outer loop
      vertex 26.4103 -11.3315 -10.6773
      vertex 26.4103 -14 11.3315
      vertex 26.4103 -10.6773 11.3315
    endloop
  endfacet
  facet normal -1 0 0
    outer loop
      vertex 26.4103 -10.6773 11.3315
      vertex 26.4103 -10.6773 14
      vertex 26.4103 11.3315 14
    endloop
  endfacet
  facet normal -1 0 0
    outer loop
      vertex 26.4103 -5 -5
      vertex 26.4103 -11.3315 -10.6773
      vertex 26.4103 -5 5
    endloop
  endfacet
  facet normal -1 0 0
    outer loop
      vertex 26.4103 5 5
      vertex 26.4103 11.3315 14
      vertex 26.4103 11.3315 10.6773
    endloop
  endfacet
  facet normal -1 0 0
    outer loop
      vertex 26.4103 5 -5
      vertex 26.4103 14 10.6773
      vertex 26.4103 14 -11.3315
    endloop
  endfacet
  facet normal -1 0 0
    outer loop
      vertex 26.4103 -5 5
      vertex 26.4103 11.3315 14
      vertex 26.4103 5 5
    endloop
  endfacet
  facet normal -1 0 0
    outer loop
      vertex 26.4103 -10.6773 11.3315
      vertex 26.4103 11.3315 14
      vertex 26.4103 -5 5
    endloop
  endfacet
  facet normal -1 0 0
    outer loop
      vertex 26.4103 -10.6773 11.3315
      vertex 26.4103 -5 5
      vertex 26.4103 -11.3315 -10.6773
    endloop
  endfacet
  facet normal -1 0 0
    outer loop
      vertex 26.4103 5 -5
      vertex 26.4103 -11.3315 -10.6773
      vertex 26.4103 -5 -5
    endloop
  endfacet
  facet normal -1 0 0
    outer loop
      vertex 26.4103 5 5
      vertex 26.4103 14 10.6773
      vertex 26.4103 5 -5
    endloop
  endfacet
  facet normal -1 0 0
    outer loop
      vertex 26.4103 5 5
      vertex 26.4103 11.3315 10.6773
      vertex 26.4103 14 10.6773
    endloop
  endfacet
  facet normal -1 0 0
    outer loop
      vertex 26.4103 -11.3315 -10.6773
      vertex 26.4103 5 -5
      vertex 26.4103 14 -11.3315
    endloop
  endfacet
  facet normal -1 0 0
    outer loop
      vertex 26.4103 -11.3315 -10.6773
      vertex 26.4103 14 -11.3315
      vertex 26.4103 10.6773 -11.3315
    endloop
  endfacet
  facet normal -1 0 0
    outer loop
      vertex 26.4103 -11.3315 -10.6773
      vertex 26.4103 10.6773 -11.3315
      vertex 26.4103 10.6773 -14
    endloop
  endfacet
  facet normal -1 0 0
    outer loop
      vertex 26.4103 -11.3315 -10.6773
      vertex 26.4103 10.6773 -14
      vertex 26.4103 -11.3315 -14
    endloop
  endfacet
  facet normal 0 1 -1.22465e-16
    outer loop
      vertex 26.4103 -11.3315 -10.6773
      vertex 26.4103 -11.3315 -14
      vertex 23.4853 -11.3315 -10.6773
    endloop
  endfacet
  facet normal 0 1 -1.22465e-16
    outer loop
      vertex 22.3438 -11.3315 -14
      vertex 22.3438 -11.3315 -5
      vertex 23.4853 -11.3315 -10.6773
    endloop
  endfacet
  facet normal 0 1 -1.22465e-16
    outer loop
      vertex 22.3438 -11.3315 -14
      vertex 23.4853 -11.3315 -10.6773
      vertex 26.4103 -11.3315 -14
    endloop
  endfacet
  facet normal 0 1 -1.22465e-16
    outer loop
      vertex 23.4853 -11.3315 -10.6773
      vertex 22.3438 -11.3315 -5
      vertex 23.4853 -11.3315 -5
    endloop
  endfacet
  facet normal 0.917409 0.397945 -4.87342e-17
    outer loop
      vertex 22.3438 -11.3315 -14
      vertex 17.0289 0.921371 -14
      vertex 17.0289 0.921371 -5
    endloop
  endfacet
  facet normal 0.917409 0.397945 -4.87342e-17
    outer loop
      vertex 22.3438 -11.3315 -5
      vertex 22.3438 -11.3315 -14
      vertex 17.0289 0.921371 -5
    endloop
  endfacet
  facet normal -0.912492 0.409094 -5.00996e-17
    outer loop
      vertex 11.5356 -11.3315 -14
      vertex 11.5356 -11.3315 -5
      vertex 17.0289 0.921371 -14
    endloop
  endfacet
  facet normal -0.912492 0.409094 -5.00996e-17
    outer loop
      vertex 17.0289 0.921371 -14
      vertex 11.5356 -11.3315 -5
      vertex 17.0289 0.921371 -5
    endloop
  endfacet
  facet normal 0 1 -1.22465e-16
    outer loop
      vertex 7.54052 -11.3315 -14
      vertex 7.54052 -11.3315 -10.6773
      vertex 11.5356 -11.3315 -14
    endloop
  endfacet
  facet normal 0 1 -1.22465e-16
    outer loop
      vertex 11.5356 -11.3315 -14
      vertex 7.54052 -11.3315 -10.6773
      vertex 10.2693 -11.3315 -10.6773
    endloop
  endfacet
  facet normal 0 1 -1.22465e-16
    outer loop
      vertex 11.5356 -11.3315 -14
      vertex 10.2693 -11.3315 -10.6773
      vertex 10.2693 -11.3315 -5
    endloop
  endfacet
  facet normal 0 1 -1.22465e-16
    outer loop
      vertex 11.5356 -11.3315 -14
      vertex 10.2693 -11.3315 -5
      vertex 11.5356 -11.3315 -5
    endloop
  endfacet
  facet normal 0 0 1
    outer loop
      vertex -26.5224 -10.6773 14
      vertex -32.5 -14 14
      vertex 32.5 -14 14
    endloop
  endfacet
  facet normal 0 0 1
    outer loop
      vertex -7.65257 -10.6773 14
      vertex -10.5776 -10.6773 14
      vertex 32.5 -14 14
    endloop
  endfacet
  facet normal 0 0 1
    outer loop
      vertex -32.5 14 14
      vertex -32.5 -14 14
      vertex -26.5224 -10.6773 14
    endloop
  endfacet
  facet normal 0 0 1
    outer loop
      vertex -32.5 14 14
      vertex -26.5224 -10.6773 14
      vertex -26.5224 11.3315 14
    endloop
  endfacet
  facet normal 0 0 1
    outer loop
      vertex 32.5 14 14
      vertex -32.5 14 14
      vertex -22.5272 11.3315 14
    endloop
  endfacet
  facet normal 0 0 1
    outer loop
      vertex -23.7935 8.28166 14
      vertex -23.7935 -10.6773 14
      vertex -18.1041 -4.61329 14
    endloop
  endfacet
  facet normal 0 0 1
    outer loop
      vertex 32.5 14 14
      vertex -22.5272 11.3315 14
      vertex -11.719 11.3315 14
    endloop
  endfacet
  facet normal 0 0 1
    outer loop
      vertex 32.5 14 14
      vertex -11.719 11.3315 14
      vertex -7.65257 11.3315 14
    endloop
  endfacet
  facet normal 0 0 1
    outer loop
      vertex 7.54052 -10.6773 14
      vertex -7.65257 -10.6773 14
      vertex 32.5 -14 14
    endloop
  endfacet
  facet normal 0 0 1
    outer loop
      vertex -10.5776 -10.6773 14
      vertex -23.7935 -10.6773 14
      vertex 32.5 -14 14
    endloop
  endfacet
  facet normal 0 0 1
    outer loop
      vertex -10.5776 8.28166 14
      vertex -16.3205 -4.61329 14
      vertex -10.5776 -10.6773 14
    endloop
  endfacet
  facet normal 0 0 1
    outer loop
      vertex -23.7935 -10.6773 14
      vertex -26.5224 -10.6773 14
      vertex 32.5 -14 14
    endloop
  endfacet
  facet normal 0 0 1
    outer loop
      vertex 7.54052 -10.6773 14
      vertex 7.54052 11.3315 14
      vertex -7.65257 11.3315 14
    endloop
  endfacet
  facet normal 0 0 1
    outer loop
      vertex 23.4853 -10.6773 14
      vertex 17.7423 -4.61329 14
      vertex 15.9588 -4.61329 14
    endloop
  endfacet
  facet normal 0 0 1
    outer loop
      vertex -18.1041 -4.61329 14
      vertex -23.7935 -10.6773 14
      vertex -16.3205 -4.61329 14
    endloop
  endfacet
  facet normal 0 0 1
    outer loop
      vertex -16.3205 -4.61329 14
      vertex -23.7935 -10.6773 14
      vertex -10.5776 -10.6773 14
    endloop
  endfacet
  facet normal 0 0 1
    outer loop
      vertex 10.2693 8.28166 14
      vertex 10.2693 -10.6773 14
      vertex 15.9588 -4.61329 14
    endloop
  endfacet
  facet normal 0 0 1
    outer loop
      vertex 10.2693 -10.6773 14
      vertex 7.54052 -10.6773 14
      vertex 32.5 -14 14
    endloop
  endfacet
  facet normal 0 0 1
    outer loop
      vertex 17.0289 -0.921371 14
      vertex 22.3438 11.3315 14
      vertex 11.5356 11.3315 14
    endloop
  endfacet
  facet normal 0 0 1
    outer loop
      vertex 32.5 14 14
      vertex -7.65257 11.3315 14
      vertex 7.54052 11.3315 14
    endloop
  endfacet
  facet normal 0 0 1
    outer loop
      vertex 23.4853 8.28166 14
      vertex 17.7423 -4.61329 14
      vertex 23.4853 -10.6773 14
    endloop
  endfacet
  facet normal 0 0 1
    outer loop
      vertex 32.5 14 14
      vertex 7.54052 11.3315 14
      vertex 11.5356 11.3315 14
    endloop
  endfacet
  facet normal 0 0 1
    outer loop
      vertex 32.5 14 14
      vertex 11.5356 11.3315 14
      vertex 22.3438 11.3315 14
    endloop
  endfacet
  facet normal 0 0 1
    outer loop
      vertex 32.5 14 14
      vertex 26.4103 11.3315 14
      vertex 32.5 -14 14
    endloop
  endfacet
  facet normal 0 0 1
    outer loop
      vertex 32.5 14 14
      vertex 22.3438 11.3315 14
      vertex 26.4103 11.3315 14
    endloop
  endfacet
  facet normal 0 0 1
    outer loop
      vertex 15.9588 -4.61329 14
      vertex 10.2693 -10.6773 14
      vertex 23.4853 -10.6773 14
    endloop
  endfacet
  facet normal 0 0 1
    outer loop
      vertex -17.034 -0.921371 14
      vertex -11.719 11.3315 14
      vertex -22.5272 11.3315 14
    endloop
  endfacet
  facet normal 0 0 1
    outer loop
      vertex -26.5224 11.3315 14
      vertex -22.5272 11.3315 14
      vertex -32.5 14 14
    endloop
  endfacet
  facet normal 0 0 1
    outer loop
      vertex 26.4103 -10.6773 14
      vertex 23.4853 -10.6773 14
      vertex 32.5 -14 14
    endloop
  endfacet
  facet normal 0 0 1
    outer loop
      vertex 23.4853 -10.6773 14
      vertex 10.2693 -10.6773 14
      vertex 32.5 -14 14
    endloop
  endfacet
  facet normal 0 0 1
    outer loop
      vertex 26.4103 11.3315 14
      vertex 26.4103 -10.6773 14
      vertex 32.5 -14 14
    endloop
  endfacet
  facet normal 0 0 1
    outer loop
      vertex -7.65257 11.3315 14
      vertex -7.65257 -10.6773 14
      vertex 7.54052 -10.6773 14
    endloop
  endfacet
  facet normal 0 6.12323e-17 1
    outer loop
      vertex -26.5224 -11.3315 -10.6773
      vertex -26.5224 -14 -10.6773
      vertex -23.7935 -14 -10.6773
    endloop
  endfacet
  facet normal 0 6.12323e-17 1
    outer loop
      vertex -23.7935 -11.3315 -10.6773
      vertex -26.5224 -11.3315 -10.6773
      vertex -23.7935 -14 -10.6773
    endloop
  endfacet
  facet normal 0.914904 2.47177e-17 0.403671
    outer loop
      vertex -23.7935 -5 8.28166
      vertex -23.7935 -14 8.28166
      vertex -18.1041 -14 -4.61329
    endloop
  endfacet
  facet normal 0.914904 2.47177e-17 0.403671
    outer loop
      vertex -18.1041 -5 -4.61329
      vertex -23.7935 -5 8.28166
      vertex -18.1041 -14 -4.61329
    endloop
  endfacet
  facet normal 0 6.12323e-17 1
    outer loop
      vertex -18.1041 -5 -4.61329
      vertex -18.1041 -14 -4.61329
      vertex -16.3205 -14 -4.61329
    endloop
  endfacet
  facet normal 0 6.12323e-17 1
    outer loop
      vertex -16.3205 -5 -4.61329
      vertex -18.1041 -5 -4.61329
      vertex -16.3205 -14 -4.61329
    endloop
  endfacet
  facet normal -0.913499 2.49119e-17 0.406842
    outer loop
      vertex -16.3205 -14 -4.61329
      vertex -10.5776 -14 8.28166
      vertex -16.3205 -5 -4.61329
    endloop
  endfacet
  facet normal -0.913499 2.49119e-17 0.406842
    outer loop
      vertex -16.3205 -5 -4.61329
      vertex -10.5776 -14 8.28166
      vertex -10.5776 -5 8.28166
    endloop
  endfacet
  facet normal 0 6.12323e-17 1
    outer loop
      vertex -10.5776 -11.3315 -10.6773
      vertex -10.5776 -14 -10.6773
      vertex -7.65257 -14 -10.6773
    endloop
  endfacet
  facet normal 0 6.12323e-17 1
    outer loop
      vertex -7.65257 -11.3315 -10.6773
      vertex -10.5776 -11.3315 -10.6773
      vertex -7.65257 -14 -10.6773
    endloop
  endfacet
  facet normal 0 -6.12323e-17 -1
    outer loop
      vertex -7.65257 -10.6773 11.3315
      vertex -7.65257 -14 11.3315
      vertex -10.5776 -10.6773 11.3315
    endloop
  endfacet
  facet normal 0 -6.12323e-17 -1
    outer loop
      vertex -11.719 -14 11.3315
      vertex -11.719 -5 11.3315
      vertex -10.5776 -10.6773 11.3315
    endloop
  endfacet
  facet normal 0 -6.12323e-17 -1
    outer loop
      vertex -11.719 -14 11.3315
      vertex -10.5776 -10.6773 11.3315
      vertex -7.65257 -14 11.3315
    endloop
  endfacet
  facet normal 0 -6.12323e-17 -1
    outer loop
      vertex -10.5776 -10.6773 11.3315
      vertex -11.719 -5 11.3315
      vertex -10.5776 -5 11.3315
    endloop
  endfacet
  facet normal 0.917409 -2.43671e-17 -0.397945
    outer loop
      vertex -11.719 -14 11.3315
      vertex -17.034 -14 -0.921371
      vertex -17.034 -5 -0.921371
    endloop
  endfacet
  facet normal 0.917409 -2.43671e-17 -0.397945
    outer loop
      vertex -11.719 -5 11.3315
      vertex -11.719 -14 11.3315
      vertex -17.034 -5 -0.921371
    endloop
  endfacet
  facet normal -0.912492 -2.50498e-17 -0.409094
    outer loop
      vertex -22.5272 -14 11.3315
      vertex -22.5272 -5 11.3315
      vertex -17.034 -14 -0.921371
    endloop
  endfacet
  facet normal -0.912492 -2.50498e-17 -0.409094
    outer loop
      vertex -17.034 -14 -0.921371
      vertex -22.5272 -5 11.3315
      vertex -17.034 -5 -0.921371
    endloop
  endfacet
  facet normal 0 -6.12323e-17 -1
    outer loop
      vertex -26.5224 -14 11.3315
      vertex -26.5224 -10.6773 11.3315
      vertex -22.5272 -14 11.3315
    endloop
  endfacet
  facet normal 0 -6.12323e-17 -1
    outer loop
      vertex -22.5272 -14 11.3315
      vertex -26.5224 -10.6773 11.3315
      vertex -23.7935 -10.6773 11.3315
    endloop
  endfacet
  facet normal 0 -6.12323e-17 -1
    outer loop
      vertex -22.5272 -14 11.3315
      vertex -23.7935 -10.6773 11.3315
      vertex -23.7935 -5 11.3315
    endloop
  endfacet
  facet normal 0 -6.12323e-17 -1
    outer loop
      vertex -22.5272 -14 11.3315
      vertex -23.7935 -5 11.3315
      vertex -22.5272 -5 11.3315
    endloop
  endfacet
  facet normal 0 6.12323e-17 1
    outer loop
      vertex 7.54052 -11.3315 -10.6773
      vertex 7.54052 -14 -10.6773
      vertex 10.2693 -14 -10.6773
    endloop
  endfacet
  facet normal 0 6.12323e-17 1
    outer loop
      vertex 10.2693 -11.3315 -10.6773
      vertex 7.54052 -11.3315 -10.6773
      vertex 10.2693 -14 -10.6773
    endloop
  endfacet
  facet normal 0.914904 2.47177e-17 0.403671
    outer loop
      vertex 10.2693 -5 8.28166
      vertex 10.2693 -14 8.28166
      vertex 15.9588 -14 -4.61329
    endloop
  endfacet
  facet normal 0.914904 2.47177e-17 0.403671
    outer loop
      vertex 15.9588 -5 -4.61329
      vertex 10.2693 -5 8.28166
      vertex 15.9588 -14 -4.61329
    endloop
  endfacet
  facet normal 0 6.12323e-17 1
    outer loop
      vertex 15.9588 -5 -4.61329
      vertex 15.9588 -14 -4.61329
      vertex 17.7423 -14 -4.61329
    endloop
  endfacet
  facet normal 0 6.12323e-17 1
    outer loop
      vertex 17.7423 -5 -4.61329
      vertex 15.9588 -5 -4.61329
      vertex 17.7423 -14 -4.61329
    endloop
  endfacet
  facet normal -0.913499 2.49119e-17 0.406842
    outer loop
      vertex 17.7423 -14 -4.61329
      vertex 23.4853 -14 8.28166
      vertex 17.7423 -5 -4.61329
    endloop
  endfacet
  facet normal -0.913499 2.49119e-17 0.406842
    outer loop
      vertex 17.7423 -5 -4.61329
      vertex 23.4853 -14 8.28166
      vertex 23.4853 -5 8.28166
    endloop
  endfacet
  facet normal 0 6.12323e-17 1
    outer loop
      vertex 23.4853 -11.3315 -10.6773
      vertex 23.4853 -14 -10.6773
      vertex 26.4103 -14 -10.6773
    endloop
  endfacet
  facet normal 0 6.12323e-17 1
    outer loop
      vertex 26.4103 -11.3315 -10.6773
      vertex 23.4853 -11.3315 -10.6773
      vertex 26.4103 -14 -10.6773
    endloop
  endfacet
  facet normal 0 -6.12323e-17 -1
    outer loop
      vertex 26.4103 -10.6773 11.3315
      vertex 26.4103 -14 11.3315
      vertex 23.4853 -10.6773 11.3315
    endloop
  endfacet
  facet normal 0 -6.12323e-17 -1
    outer loop
      vertex 22.3438 -14 11.3315
      vertex 22.3438 -5 11.3315
      vertex 23.4853 -10.6773 11.3315
    endloop
  endfacet
  facet normal 0 -6.12323e-17 -1
    outer loop
      vertex 22.3438 -14 11.3315
      vertex 23.4853 -10.6773 11.3315
      vertex 26.4103 -14 11.3315
    endloop
  endfacet
  facet normal 0 -6.12323e-17 -1
    outer loop
      vertex 23.4853 -10.6773 11.3315
      vertex 22.3438 -5 11.3315
      vertex 23.4853 -5 11.3315
    endloop
  endfacet
  facet normal 0.917409 -2.43671e-17 -0.397945
    outer loop
      vertex 22.3438 -14 11.3315
      vertex 17.0289 -14 -0.921371
      vertex 17.0289 -5 -0.921371
    endloop
  endfacet
  facet normal 0.917409 -2.43671e-17 -0.397945
    outer loop
      vertex 22.3438 -5 11.3315
      vertex 22.3438 -14 11.3315
      vertex 17.0289 -5 -0.921371
    endloop
  endfacet
  facet normal -0.912492 -2.50498e-17 -0.409094
    outer loop
      vertex 11.5356 -14 11.3315
      vertex 11.5356 -5 11.3315
      vertex 17.0289 -14 -0.921371
    endloop
  endfacet
  facet normal -0.912492 -2.50498e-17 -0.409094
    outer loop
      vertex 17.0289 -14 -0.921371
      vertex 11.5356 -5 11.3315
      vertex 17.0289 -5 -0.921371
    endloop
  endfacet
  facet normal 0 -6.12323e-17 -1
    outer loop
      vertex 7.54052 -14 11.3315
      vertex 7.54052 -10.6773 11.3315
      vertex 11.5356 -14 11.3315
    endloop
  endfacet
  facet normal 0 -6.12323e-17 -1
    outer loop
      vertex 11.5356 -14 11.3315
      vertex 7.54052 -10.6773 11.3315
      vertex 10.2693 -10.6773 11.3315
    endloop
  endfacet
  facet normal 0 -6.12323e-17 -1
    outer loop
      vertex 11.5356 -14 11.3315
      vertex 10.2693 -10.6773 11.3315
      vertex 10.2693 -5 11.3315
    endloop
  endfacet
  facet normal 0 -6.12323e-17 -1
    outer loop
      vertex 11.5356 -14 11.3315
      vertex 10.2693 -5 11.3315
      vertex 11.5356 -5 11.3315
    endloop
  endfacet
  facet normal 0 -1.83697e-16 -1
    outer loop
      vertex -26.5224 11.3315 10.6773
      vertex -26.5224 14 10.6773
      vertex -23.7935 11.3315 10.6773
    endloop
  endfacet
  facet normal 0 -1.83697e-16 -1
    outer loop
      vertex -23.7935 11.3315 10.6773
      vertex -26.5224 14 10.6773
      vertex -23.7935 14 10.6773
    endloop
  endfacet
  facet normal 0.914904 -7.41532e-17 -0.403671
    outer loop
      vertex -18.1041 5 4.61329
      vertex -23.7935 5 -8.28166
      vertex -23.7935 14 -8.28166
    endloop
  endfacet
  facet normal 0.914904 -7.41532e-17 -0.403671
    outer loop
      vertex -18.1041 14 4.61329
      vertex -18.1041 5 4.61329
      vertex -23.7935 14 -8.28166
    endloop
  endfacet
  facet normal 0 -1.83697e-16 -1
    outer loop
      vertex -18.1041 5 4.61329
      vertex -18.1041 14 4.61329
      vertex -16.3205 5 4.61329
    endloop
  endfacet
  facet normal 0 -1.83697e-16 -1
    outer loop
      vertex -16.3205 5 4.61329
      vertex -18.1041 14 4.61329
      vertex -16.3205 14 4.61329
    endloop
  endfacet
  facet normal -0.913499 -7.47356e-17 -0.406842
    outer loop
      vertex -16.3205 5 4.61329
      vertex -16.3205 14 4.61329
      vertex -10.5776 5 -8.28166
    endloop
  endfacet
  facet normal -0.913499 -7.47356e-17 -0.406842
    outer loop
      vertex -10.5776 5 -8.28166
      vertex -16.3205 14 4.61329
      vertex -10.5776 14 -8.28166
    endloop
  endfacet
  facet normal 0 -1.83697e-16 -1
    outer loop
      vertex -10.5776 11.3315 10.6773
      vertex -10.5776 14 10.6773
      vertex -7.65257 11.3315 10.6773
    endloop
  endfacet
  facet normal 0 -1.83697e-16 -1
    outer loop
      vertex -7.65257 11.3315 10.6773
      vertex -10.5776 14 10.6773
      vertex -7.65257 14 10.6773
    endloop
  endfacet
  facet normal 0 1.83697e-16 1
    outer loop
      vertex -11.719 14 -11.3315
      vertex -11.719 5 -11.3315
      vertex -10.5776 5 -11.3315
    endloop
  endfacet
  facet normal 0 1.83697e-16 1
    outer loop
      vertex -7.65257 10.6773 -11.3315
      vertex -11.719 14 -11.3315
      vertex -10.5776 10.6773 -11.3315
    endloop
  endfacet
  facet normal 0 1.83697e-16 1
    outer loop
      vertex -10.5776 10.6773 -11.3315
      vertex -11.719 14 -11.3315
      vertex -10.5776 5 -11.3315
    endloop
  endfacet
  facet normal 0 1.83697e-16 1
    outer loop
      vertex -7.65257 14 -11.3315
      vertex -11.719 14 -11.3315
      vertex -7.65257 10.6773 -11.3315
    endloop
  endfacet
  facet normal 0.917409 7.31013e-17 0.397945
    outer loop
      vertex -17.034 14 0.921371
      vertex -17.034 5 0.921371
      vertex -11.719 5 -11.3315
    endloop
  endfacet
  facet normal 0.917409 7.31013e-17 0.397945
    outer loop
      vertex -11.719 14 -11.3315
      vertex -17.034 14 0.921371
      vertex -11.719 5 -11.3315
    endloop
  endfacet
  facet normal -0.912492 7.51494e-17 0.409094
    outer loop
      vertex -22.5272 5 -11.3315
      vertex -17.034 5 0.921371
      vertex -22.5272 14 -11.3315
    endloop
  endfacet
  facet normal -0.912492 7.51494e-17 0.409094
    outer loop
      vertex -22.5272 14 -11.3315
      vertex -17.034 5 0.921371
      vertex -17.034 14 0.921371
    endloop
  endfacet
  facet normal 0 1.83697e-16 1
    outer loop
      vertex -26.5224 14 -11.3315
      vertex -26.5224 10.6773 -11.3315
      vertex -23.7935 10.6773 -11.3315
    endloop
  endfacet
  facet normal 0 1.83697e-16 1
    outer loop
      vertex -22.5272 14 -11.3315
      vertex -26.5224 14 -11.3315
      vertex -23.7935 10.6773 -11.3315
    endloop
  endfacet
  facet normal 0 1.83697e-16 1
    outer loop
      vertex -23.7935 5 -11.3315
      vertex -22.5272 5 -11.3315
      vertex -23.7935 10.6773 -11.3315
    endloop
  endfacet
  facet normal 0 1.83697e-16 1
    outer loop
      vertex -22.5272 5 -11.3315
      vertex -22.5272 14 -11.3315
      vertex -23.7935 10.6773 -11.3315
    endloop
  endfacet
  facet normal 0 -1.83697e-16 -1
    outer loop
      vertex 7.54052 11.3315 10.6773
      vertex 7.54052 14 10.6773
      vertex 10.2693 11.3315 10.6773
    endloop
  endfacet
  facet normal 0 -1.83697e-16 -1
    outer loop
      vertex 10.2693 11.3315 10.6773
      vertex 7.54052 14 10.6773
      vertex 10.2693 14 10.6773
    endloop
  endfacet
  facet normal 0.914904 -7.41532e-17 -0.403671
    outer loop
      vertex 15.9588 5 4.61329
      vertex 10.2693 5 -8.28166
      vertex 10.2693 14 -8.28166
    endloop
  endfacet
  facet normal 0.914904 -7.41532e-17 -0.403671
    outer loop
      vertex 15.9588 14 4.61329
      vertex 15.9588 5 4.61329
      vertex 10.2693 14 -8.28166
    endloop
  endfacet
  facet normal 0 -1.83697e-16 -1
    outer loop
      vertex 15.9588 5 4.61329
      vertex 15.9588 14 4.61329
      vertex 17.7423 5 4.61329
    endloop
  endfacet
  facet normal 0 -1.83697e-16 -1
    outer loop
      vertex 17.7423 5 4.61329
      vertex 15.9588 14 4.61329
      vertex 17.7423 14 4.61329
    endloop
  endfacet
  facet normal -0.913499 -7.47356e-17 -0.406842
    outer loop
      vertex 17.7423 5 4.61329
      vertex 17.7423 14 4.61329
      vertex 23.4853 5 -8.28166
    endloop
  endfacet
  facet normal -0.913499 -7.47356e-17 -0.406842
    outer loop
      vertex 23.4853 5 -8.28166
      vertex 17.7423 14 4.61329
      vertex 23.4853 14 -8.28166
    endloop
  endfacet
  facet normal 0 -1.83697e-16 -1
    outer loop
      vertex 23.4853 11.3315 10.6773
      vertex 23.4853 14 10.6773
      vertex 26.4103 11.3315 10.6773
    endloop
  endfacet
  facet normal 0 -1.83697e-16 -1
    outer loop
      vertex 26.4103 11.3315 10.6773
      vertex 23.4853 14 10.6773
      vertex 26.4103 14 10.6773
    endloop
  endfacet
  facet normal 0 1.83697e-16 1
    outer loop
      vertex 22.3438 14 -11.3315
      vertex 22.3438 5 -11.3315
      vertex 23.4853 5 -11.3315
    endloop
  endfacet
  facet normal 0 1.83697e-16 1
    outer loop
      vertex 26.4103 10.6773 -11.3315
      vertex 22.3438 14 -11.3315
      vertex 23.4853 10.6773 -11.3315
    endloop
  endfacet
  facet normal 0 1.83697e-16 1
    outer loop
      vertex 23.4853 10.6773 -11.3315
      vertex 22.3438 14 -11.3315
      vertex 23.4853 5 -11.3315
    endloop
  endfacet
  facet normal 0 1.83697e-16 1
    outer loop
      vertex 26.4103 14 -11.3315
      vertex 22.3438 14 -11.3315
      vertex 26.4103 10.6773 -11.3315
    endloop
  endfacet
  facet normal 0.917409 7.31013e-17 0.397945
    outer loop
      vertex 17.0289 14 0.921371
      vertex 17.0289 5 0.921371
      vertex 22.3438 5 -11.3315
    endloop
  endfacet
  facet normal 0.917409 7.31013e-17 0.397945
    outer loop
      vertex 22.3438 14 -11.3315
      vertex 17.0289 14 0.921371
      vertex 22.3438 5 -11.3315
    endloop
  endfacet
  facet normal -0.912492 7.51494e-17 0.409094
    outer loop
      vertex 11.5356 5 -11.3315
      vertex 17.0289 5 0.921371
      vertex 11.5356 14 -11.3315
    endloop
  endfacet
  facet normal -0.912492 7.51494e-17 0.409094
    outer loop
      vertex 11.5356 14 -11.3315
      vertex 17.0289 5 0.921371
      vertex 17.0289 14 0.921371
    endloop
  endfacet
  facet normal 0 1.83697e-16 1
    outer loop
      vertex 7.54052 14 -11.3315
      vertex 7.54052 10.6773 -11.3315
      vertex 10.2693 10.6773 -11.3315
    endloop
  endfacet
  facet normal 0 1.83697e-16 1
    outer loop
      vertex 11.5356 14 -11.3315
      vertex 7.54052 14 -11.3315
      vertex 10.2693 10.6773 -11.3315
    endloop
  endfacet
  facet normal 0 1.83697e-16 1
    outer loop
      vertex 10.2693 5 -11.3315
      vertex 11.5356 5 -11.3315
      vertex 10.2693 10.6773 -11.3315
    endloop
  endfacet
  facet normal 0 1.83697e-16 1
    outer loop
      vertex 11.5356 5 -11.3315
      vertex 11.5356 14 -11.3315
      vertex 10.2693 10.6773 -11.3315
    endloop
  endfacet
  facet normal 0 1 0
    outer loop
      vertex -26.5224 -10.6773 11.3315
      vertex -26.5224 -10.6773 14
      vertex -23.7935 -10.6773 11.3315
    endloop
  endfacet
  facet normal 0 1 0
    outer loop
      vertex -23.7935 -10.6773 11.3315
      vertex -26.5224 -10.6773 14
      vertex -23.7935 -10.6773 14
    endloop
  endfacet
  facet normal 0 -1 0
    outer loop
      vertex -26.5224 11.3315 14
      vertex -26.5224 11.3315 10.6773
      vertex -23.7935 11.3315 10.6773
    endloop
  endfacet
  facet normal 0 -1 0
    outer loop
      vertex -22.5272 11.3315 14
      vertex -26.5224 11.3315 14
      vertex -23.7935 11.3315 10.6773
    endloop
  endfacet
  facet normal 0 -1 0
    outer loop
      vertex -23.7935 11.3315 5
      vertex -22.5272 11.3315 5
      vertex -23.7935 11.3315 10.6773
    endloop
  endfacet
  facet normal 0 -1 0
    outer loop
      vertex -22.5272 11.3315 5
      vertex -22.5272 11.3315 14
      vertex -23.7935 11.3315 10.6773
    endloop
  endfacet
  facet normal 0 -1 6.12323e-17
    outer loop
      vertex -26.5224 -5 5
      vertex -26.5224 -5 -5
      vertex -23.7935 -5 -5
    endloop
  endfacet
  facet normal 0 -1 6.12323e-17
    outer loop
      vertex -23.7935 -5 5
      vertex -26.5224 -5 5
      vertex -23.7935 -5 -5
    endloop
  endfacet
  facet normal 0 -1.22465e-16 -1
    outer loop
      vertex -26.5224 -5 -5
      vertex -26.5224 5 -5
      vertex -23.7935 -5 -5
    endloop
  endfacet
  facet normal 0 -1.22465e-16 -1
    outer loop
      vertex -23.7935 -5 -5
      vertex -26.5224 5 -5
      vertex -23.7935 5 -5
    endloop
  endfacet
  facet normal 0 1 -1.83697e-16
    outer loop
      vertex -26.5224 5 -5
      vertex -26.5224 5 5
      vertex -23.7935 5 -5
    endloop
  endfacet
  facet normal 0 1 -1.83697e-16
    outer loop
      vertex -23.7935 5 -5
      vertex -26.5224 5 5
      vertex -23.7935 5 5
    endloop
  endfacet
  facet normal 0 0 1
    outer loop
      vertex -26.5224 5 5
      vertex -26.5224 -5 5
      vertex -23.7935 -5 5
    endloop
  endfacet
  facet normal 0 0 1
    outer loop
      vertex -23.7935 5 5
      vertex -26.5224 5 5
      vertex -23.7935 -5 5
    endloop
  endfacet
  facet normal 0 -1.22465e-16 -1
    outer loop
      vertex -23.7935 -11.3315 -5
      vertex -23.7935 -8.28166 -5
      vertex -22.5272 -11.3315 -5
    endloop
  endfacet
  facet normal 0 -1.22465e-16 -1
    outer loop
      vertex -22.5272 -11.3315 -5
      vertex -23.7935 -8.28166 -5
      vertex -18.1041 4.61329 -5
    endloop
  endfacet
  facet normal 0 -1.22465e-16 -1
    outer loop
      vertex -22.5272 -11.3315 -5
      vertex -18.1041 4.61329 -5
      vertex -16.3205 4.61329 -5
    endloop
  endfacet
  facet normal 0 -1.22465e-16 -1
    outer loop
      vertex -17.034 0.921371 -5
      vertex -16.3205 4.61329 -5
      vertex -10.5776 -8.28166 -5
    endloop
  endfacet
  facet normal 0 -1.22465e-16 -1
    outer loop
      vertex -11.719 -11.3315 -5
      vertex -10.5776 -8.28166 -5
      vertex -10.5776 -11.3315 -5
    endloop
  endfacet
  facet normal 0 -1.22465e-16 -1
    outer loop
      vertex -22.5272 -11.3315 -5
      vertex -16.3205 4.61329 -5
      vertex -17.034 0.921371 -5
    endloop
  endfacet
  facet normal 0 -1.22465e-16 -1
    outer loop
      vertex -17.034 0.921371 -5
      vertex -10.5776 -8.28166 -5
      vertex -11.719 -11.3315 -5
    endloop
  endfacet
  facet normal 0 1 -1.83697e-16
    outer loop
      vertex -23.7935 5 -11.3315
      vertex -23.7935 5 -8.28166
      vertex -22.5272 5 -11.3315
    endloop
  endfacet
  facet normal 0 1 -1.83697e-16
    outer loop
      vertex -22.5272 5 -11.3315
      vertex -23.7935 5 -8.28166
      vertex -18.1041 5 4.61329
    endloop
  endfacet
  facet normal 0 1 -1.83697e-16
    outer loop
      vertex -22.5272 5 -11.3315
      vertex -18.1041 5 4.61329
      vertex -16.3205 5 4.61329
    endloop
  endfacet
  facet normal 0 1 -1.83697e-16
    outer loop
      vertex -17.034 5 0.921371
      vertex -16.3205 5 4.61329
      vertex -10.5776 5 -8.28166
    endloop
  endfacet
  facet normal 0 1 -1.83697e-16
    outer loop
      vertex -11.719 5 -11.3315
      vertex -10.5776 5 -8.28166
      vertex -10.5776 5 -11.3315
    endloop
  endfacet
  facet normal 0 1 -1.83697e-16
    outer loop
      vertex -22.5272 5 -11.3315
      vertex -16.3205 5 4.61329
      vertex -17.034 5 0.921371
    endloop
  endfacet
  facet normal 0 1 -1.83697e-16
    outer loop
      vertex -17.034 5 0.921371
      vertex -10.5776 5 -8.28166
      vertex -11.719 5 -11.3315
    endloop
  endfacet
  facet normal 0 0 1
    outer loop
      vertex -23.7935 11.3315 5
      vertex -23.7935 8.28166 5
      vertex -18.1041 -4.61329 5
    endloop
  endfacet
  facet normal 0 0 1
    outer loop
      vertex -17.034 -0.921371 5
      vertex -23.7935 11.3315 5
      vertex -16.3205 -4.61329 5
    endloop
  endfacet
  facet normal 0 0 1
    outer loop
      vertex -16.3205 -4.61329 5
      vertex -23.7935 11.3315 5
      vertex -18.1041 -4.61329 5
    endloop
  endfacet
  facet normal 0 0 1
    outer loop
      vertex -10.5776 11.3315 5
      vertex -11.719 11.3315 5
      vertex -10.5776 8.28166 5
    endloop
  endfacet
  facet normal 0 0 1
    outer loop
      vertex -10.5776 8.28166 5
      vertex -17.034 -0.921371 5
      vertex -16.3205 -4.61329 5
    endloop
  endfacet
  facet normal 0 0 1
    outer loop
      vertex -17.034 -0.921371 5
      vertex -22.5272 11.3315 5
      vertex -23.7935 11.3315 5
    endloop
  endfacet
  facet normal 0 0 1
    outer loop
      vertex -11.719 11.3315 5
      vertex -17.034 -0.921371 5
      vertex -10.5776 8.28166 5
    endloop
  endfacet
  facet normal 0.914904 0.403671 0
    outer loop
      vertex -18.1041 -4.61329 5
      vertex -23.7935 8.28166 5
      vertex -23.7935 8.28166 14
    endloop
  endfacet
  facet normal 0.914904 0.403671 0
    outer loop
      vertex -18.1041 -4.61329 14
      vertex -18.1041 -4.61329 5
      vertex -23.7935 8.28166 14
    endloop
  endfacet
  facet normal 0 -1 6.12323e-17
    outer loop
      vertex -23.7935 -5 11.3315
      vertex -23.7935 -5 8.28166
      vertex -18.1041 -5 -4.61329
    endloop
  endfacet
  facet normal 0 -1 6.12323e-17
    outer loop
      vertex -17.034 -5 -0.921371
      vertex -23.7935 -5 11.3315
      vertex -16.3205 -5 -4.61329
    endloop
  endfacet
  facet normal 0 -1 6.12323e-17
    outer loop
      vertex -16.3205 -5 -4.61329
      vertex -23.7935 -5 11.3315
      vertex -18.1041 -5 -4.61329
    endloop
  endfacet
  facet normal 0 -1 6.12323e-17
    outer loop
      vertex -10.5776 -5 11.3315
      vertex -11.719 -5 11.3315
      vertex -10.5776 -5 8.28166
    endloop
  endfacet
  facet normal 0 -1 6.12323e-17
    outer loop
      vertex -10.5776 -5 8.28166
      vertex -17.034 -5 -0.921371
      vertex -16.3205 -5 -4.61329
    endloop
  endfacet
  facet normal 0 -1 6.12323e-17
    outer loop
      vertex -17.034 -5 -0.921371
      vertex -22.5272 -5 11.3315
      vertex -23.7935 -5 11.3315
    endloop
  endfacet
  facet normal 0 -1 6.12323e-17
    outer loop
      vertex -11.719 -5 11.3315
      vertex -17.034 -5 -0.921371
      vertex -10.5776 -5 8.28166
    endloop
  endfacet
  facet normal 0 1 0
    outer loop
      vertex -10.5776 -10.6773 11.3315
      vertex -10.5776 -10.6773 14
      vertex -7.65257 -10.6773 11.3315
    endloop
  endfacet
  facet normal 0 1 0
    outer loop
      vertex -7.65257 -10.6773 11.3315
      vertex -10.5776 -10.6773 14
      vertex -7.65257 -10.6773 14
    endloop
  endfacet
  facet normal -0.913499 0.406842 0
    outer loop
      vertex -16.3205 -4.61329 5
      vertex -16.3205 -4.61329 14
      vertex -10.5776 8.28166 5
    endloop
  endfacet
  facet normal -0.913499 0.406842 0
    outer loop
      vertex -10.5776 8.28166 5
      vertex -16.3205 -4.61329 14
      vertex -10.5776 8.28166 14
    endloop
  endfacet
  facet normal 0 -1 0
    outer loop
      vertex -11.719 11.3315 14
      vertex -11.719 11.3315 5
      vertex -10.5776 11.3315 5
    endloop
  endfacet
  facet normal 0 -1 0
    outer loop
      vertex -7.65257 11.3315 10.6773
      vertex -11.719 11.3315 14
      vertex -10.5776 11.3315 10.6773
    endloop
  endfacet
  facet normal 0 -1 0
    outer loop
      vertex -10.5776 11.3315 10.6773
      vertex -11.719 11.3315 14
      vertex -10.5776 11.3315 5
    endloop
  endfacet
  facet normal 0 -1 0
    outer loop
      vertex -7.65257 11.3315 14
      vertex -11.719 11.3315 14
      vertex -7.65257 11.3315 10.6773
    endloop
  endfacet
  facet normal 0 -1 6.12323e-17
    outer loop
      vertex -10.5776 -5 5
      vertex -10.5776 -5 -5
      vertex -7.65257 -5 -5
    endloop
  endfacet
  facet normal 0 -1 6.12323e-17
    outer loop
      vertex -7.65257 -5 5
      vertex -10.5776 -5 5
      vertex -7.65257 -5 -5
    endloop
  endfacet
  facet normal 0 -1.22465e-16 -1
    outer loop
      vertex -10.5776 -5 -5
      vertex -10.5776 5 -5
      vertex -7.65257 -5 -5
    endloop
  endfacet
  facet normal 0 -1.22465e-16 -1
    outer loop
      vertex -7.65257 -5 -5
      vertex -10.5776 5 -5
      vertex -7.65257 5 -5
    endloop
  endfacet
  facet normal 0 1 -1.83697e-16
    outer loop
      vertex -10.5776 5 -5
      vertex -10.5776 5 5
      vertex -7.65257 5 -5
    endloop
  endfacet
  facet normal 0 1 -1.83697e-16
    outer loop
      vertex -7.65257 5 -5
      vertex -10.5776 5 5
      vertex -7.65257 5 5
    endloop
  endfacet
  facet normal 0 0 1
    outer loop
      vertex -10.5776 5 5
      vertex -10.5776 -5 5
      vertex -7.65257 -5 5
    endloop
  endfacet
  facet normal 0 0 1
    outer loop
      vertex -7.65257 5 5
      vertex -10.5776 5 5
      vertex -7.65257 -5 5
    endloop
  endfacet
  facet normal 0 1 0
    outer loop
      vertex 7.54052 -10.6773 11.3315
      vertex 7.54052 -10.6773 14
      vertex 10.2693 -10.6773 11.3315
    endloop
  endfacet
  facet normal 0 1 0
    outer loop
      vertex 10.2693 -10.6773 11.3315
      vertex 7.54052 -10.6773 14
      vertex 10.2693 -10.6773 14
    endloop
  endfacet
  facet normal 0 -1 0
    outer loop
      vertex 7.54052 11.3315 14
      vertex 7.54052 11.3315 10.6773
      vertex 10.2693 11.3315 10.6773
    endloop
  endfacet
  facet normal 0 -1 0
    outer loop
      vertex 11.5356 11.3315 14
      vertex 7.54052 11.3315 14
      vertex 10.2693 11.3315 10.6773
    endloop
  endfacet
  facet normal 0 -1 0
    outer loop
      vertex 10.2693 11.3315 5
      vertex 11.5356 11.3315 5
      vertex 10.2693 11.3315 10.6773
    endloop
  endfacet
  facet normal 0 -1 0
    outer loop
      vertex 11.5356 11.3315 5
      vertex 11.5356 11.3315 14
      vertex 10.2693 11.3315 10.6773
    endloop
  endfacet
  facet normal 0 -1 6.12323e-17
    outer loop
      vertex 7.54052 -5 5
      vertex 7.54052 -5 -5
      vertex 10.2693 -5 -5
    endloop
  endfacet
  facet normal 0 -1 6.12323e-17
    outer loop
      vertex 10.2693 -5 5
      vertex 7.54052 -5 5
      vertex 10.2693 -5 -5
    endloop
  endfacet
  facet normal 0 -1.22465e-16 -1
    outer loop
      vertex 7.54052 -5 -5
      vertex 7.54052 5 -5
      vertex 10.2693 -5 -5
    endloop
  endfacet
  facet normal 0 -1.22465e-16 -1
    outer loop
      vertex 10.2693 -5 -5
      vertex 7.54052 5 -5
      vertex 10.2693 5 -5
    endloop
  endfacet
  facet normal 0 1 -1.83697e-16
    outer loop
      vertex 7.54052 5 -5
      vertex 7.54052 5 5
      vertex 10.2693 5 -5
    endloop
  endfacet
  facet normal 0 1 -1.83697e-16
    outer loop
      vertex 10.2693 5 -5
      vertex 7.54052 5 5
      vertex 10.2693 5 5
    endloop
  endfacet
  facet normal 0 0 1
    outer loop
      vertex 7.54052 5 5
      vertex 7.54052 -5 5
      vertex 10.2693 -5 5
    endloop
  endfacet
  facet normal 0 0 1
    outer loop
      vertex 10.2693 5 5
      vertex 7.54052 5 5
      vertex 10.2693 -5 5
    endloop
  endfacet
  facet normal 0 -1.22465e-16 -1
    outer loop
      vertex 10.2693 -11.3315 -5
      vertex 10.2693 -8.28166 -5
      vertex 11.5356 -11.3315 -5
    endloop
  endfacet
  facet normal 0 -1.22465e-16 -1
    outer loop
      vertex 11.5356 -11.3315 -5
      vertex 10.2693 -8.28166 -5
      vertex 15.9588 4.61329 -5
    endloop
  endfacet
  facet normal 0 -1.22465e-16 -1
    outer loop
      vertex 11.5356 -11.3315 -5
      vertex 15.9588 4.61329 -5
      vertex 17.7423 4.61329 -5
    endloop
  endfacet
  facet normal 0 -1.22465e-16 -1
    outer loop
      vertex 17.0289 0.921371 -5
      vertex 17.7423 4.61329 -5
      vertex 23.4853 -8.28166 -5
    endloop
  endfacet
  facet normal 0 -1.22465e-16 -1
    outer loop
      vertex 22.3438 -11.3315 -5
      vertex 23.4853 -8.28166 -5
      vertex 23.4853 -11.3315 -5
    endloop
  endfacet
  facet normal 0 -1.22465e-16 -1
    outer loop
      vertex 11.5356 -11.3315 -5
      vertex 17.7423 4.61329 -5
      vertex 17.0289 0.921371 -5
    endloop
  endfacet
  facet normal 0 -1.22465e-16 -1
    outer loop
      vertex 17.0289 0.921371 -5
      vertex 23.4853 -8.28166 -5
      vertex 22.3438 -11.3315 -5
    endloop
  endfacet
  facet normal 0 1 -1.83697e-16
    outer loop
      vertex 10.2693 5 -11.3315
      vertex 10.2693 5 -8.28166
      vertex 11.5356 5 -11.3315
    endloop
  endfacet
  facet normal 0 1 -1.83697e-16
    outer loop
      vertex 11.5356 5 -11.3315
      vertex 10.2693 5 -8.28166
      vertex 15.9588 5 4.61329
    endloop
  endfacet
  facet normal 0 1 -1.83697e-16
    outer loop
      vertex 11.5356 5 -11.3315
      vertex 15.9588 5 4.61329
      vertex 17.7423 5 4.61329
    endloop
  endfacet
  facet normal 0 1 -1.83697e-16
    outer loop
      vertex 17.0289 5 0.921371
      vertex 17.7423 5 4.61329
      vertex 23.4853 5 -8.28166
    endloop
  endfacet
  facet normal 0 1 -1.83697e-16
    outer loop
      vertex 22.3438 5 -11.3315
      vertex 23.4853 5 -8.28166
      vertex 23.4853 5 -11.3315
    endloop
  endfacet
  facet normal 0 1 -1.83697e-16
    outer loop
      vertex 11.5356 5 -11.3315
      vertex 17.7423 5 4.61329
      vertex 17.0289 5 0.921371
    endloop
  endfacet
  facet normal 0 1 -1.83697e-16
    outer loop
      vertex 17.0289 5 0.921371
      vertex 23.4853 5 -8.28166
      vertex 22.3438 5 -11.3315
    endloop
  endfacet
  facet normal 0 0 1
    outer loop
      vertex 10.2693 11.3315 5
      vertex 10.2693 8.28166 5
      vertex 15.9588 -4.61329 5
    endloop
  endfacet
  facet normal 0 0 1
    outer loop
      vertex 17.0289 -0.921371 5
      vertex 10.2693 11.3315 5
      vertex 17.7423 -4.61329 5
    endloop
  endfacet
  facet normal 0 0 1
    outer loop
      vertex 17.7423 -4.61329 5
      vertex 10.2693 11.3315 5
      vertex 15.9588 -4.61329 5
    endloop
  endfacet
  facet normal 0 0 1
    outer loop
      vertex 23.4853 11.3315 5
      vertex 22.3438 11.3315 5
      vertex 23.4853 8.28166 5
    endloop
  endfacet
  facet normal 0 0 1
    outer loop
      vertex 23.4853 8.28166 5
      vertex 17.0289 -0.921371 5
      vertex 17.7423 -4.61329 5
    endloop
  endfacet
  facet normal 0 0 1
    outer loop
      vertex 17.0289 -0.921371 5
      vertex 11.5356 11.3315 5
      vertex 10.2693 11.3315 5
    endloop
  endfacet
  facet normal 0 0 1
    outer loop
      vertex 22.3438 11.3315 5
      vertex 17.0289 -0.921371 5
      vertex 23.4853 8.28166 5
    endloop
  endfacet
  facet normal 0.914904 0.403671 0
    outer loop
      vertex 15.9588 -4.61329 5
      vertex 10.2693 8.28166 5
      vertex 10.2693 8.28166 14
    endloop
  endfacet
  facet normal 0.914904 0.403671 0
    outer loop
      vertex 15.9588 -4.61329 14
      vertex 15.9588 -4.61329 5
      vertex 10.2693 8.28166 14
    endloop
  endfacet
  facet normal 0 -1 6.12323e-17
    outer loop
      vertex 10.2693 -5 11.3315
      vertex 10.2693 -5 8.28166
      vertex 15.9588 -5 -4.61329
    endloop
  endfacet
  facet normal 0 -1 6.12323e-17
    outer loop
      vertex 17.0289 -5 -0.921371
      vertex 10.2693 -5 11.3315
      vertex 17.7423 -5 -4.61329
    endloop
  endfacet
  facet normal 0 -1 6.12323e-17
    outer loop
      vertex 17.7423 -5 -4.61329
      vertex 10.2693 -5 11.3315
      vertex 15.9588 -5 -4.61329
    endloop
  endfacet
  facet normal 0 -1 6.12323e-17
    outer loop
      vertex 23.4853 -5 11.3315
      vertex 22.3438 -5 11.3315
      vertex 23.4853 -5 8.28166
    endloop
  endfacet
  facet normal 0 -1 6.12323e-17
    outer loop
      vertex 23.4853 -5 8.28166
      vertex 17.0289 -5 -0.921371
      vertex 17.7423 -5 -4.61329
    endloop
  endfacet
  facet normal 0 -1 6.12323e-17
    outer loop
      vertex 17.0289 -5 -0.921371
      vertex 11.5356 -5 11.3315
      vertex 10.2693 -5 11.3315
    endloop
  endfacet
  facet normal 0 -1 6.12323e-17
    outer loop
      vertex 22.3438 -5 11.3315
      vertex 17.0289 -5 -0.921371
      vertex 23.4853 -5 8.28166
    endloop
  endfacet
  facet normal 0 1 0
    outer loop
      vertex 23.4853 -10.6773 11.3315
      vertex 23.4853 -10.6773 14
      vertex 26.4103 -10.6773 11.3315
    endloop
  endfacet
  facet normal 0 1 0
    outer loop
      vertex 26.4103 -10.6773 11.3315
      vertex 23.4853 -10.6773 14
      vertex 26.4103 -10.6773 14
    endloop
  endfacet
  facet normal -0.913499 0.406842 0
    outer loop
      vertex 17.7423 -4.61329 5
      vertex 17.7423 -4.61329 14
      vertex 23.4853 8.28166 5
    endloop
  endfacet
  facet normal -0.913499 0.406842 0
    outer loop
      vertex 23.4853 8.28166 5
      vertex 17.7423 -4.61329 14
      vertex 23.4853 8.28166 14
    endloop
  endfacet
  facet normal 0 -1 0
    outer loop
      vertex 22.3438 11.3315 14
      vertex 22.3438 11.3315 5
      vertex 23.4853 11.3315 5
    endloop
  endfacet
  facet normal 0 -1 0
    outer loop
      vertex 26.4103 11.3315 10.6773
      vertex 22.3438 11.3315 14
      vertex 23.4853 11.3315 10.6773
    endloop
  endfacet
  facet normal 0 -1 0
    outer loop
      vertex 23.4853 11.3315 10.6773
      vertex 22.3438 11.3315 14
      vertex 23.4853 11.3315 5
    endloop
  endfacet
  facet normal 0 -1 0
    outer loop
      vertex 26.4103 11.3315 14
      vertex 22.3438 11.3315 14
      vertex 26.4103 11.3315 10.6773
    endloop
  endfacet
  facet normal 0 -1 6.12323e-17
    outer loop
      vertex 23.4853 -5 5
      vertex 23.4853 -5 -5
      vertex 26.4103 -5 -5
    endloop
  endfacet
  facet normal 0 -1 6.12323e-17
    outer loop
      vertex 26.4103 -5 5
      vertex 23.4853 -5 5
      vertex 26.4103 -5 -5
    endloop
  endfacet
  facet normal 0 -1.22465e-16 -1
    outer loop
      vertex 23.4853 -5 -5
      vertex 23.4853 5 -5
      vertex 26.4103 -5 -5
    endloop
  endfacet
  facet normal 0 -1.22465e-16 -1
    outer loop
      vertex 26.4103 -5 -5
      vertex 23.4853 5 -5
      vertex 26.4103 5 -5
    endloop
  endfacet
  facet normal 0 1 -1.83697e-16
    outer loop
      vertex 23.4853 5 -5
      vertex 23.4853 5 5
      vertex 26.4103 5 -5
    endloop
  endfacet
  facet normal 0 1 -1.83697e-16
    outer loop
      vertex 26.4103 5 -5
      vertex 23.4853 5 5
      vertex 26.4103 5 5
    endloop
  endfacet
  facet normal 0 0 1
    outer loop
      vertex 23.4853 5 5
      vertex 23.4853 -5 5
      vertex 26.4103 -5 5
    endloop
  endfacet
  facet normal 0 0 1
    outer loop
      vertex 26.4103 5 5
      vertex 23.4853 5 5
      vertex 26.4103 -5 5
    endloop
  endfacet
  facet normal 0 1 0
    outer loop
      vertex -18.1041 -4.61329 5
      vertex -18.1041 -4.61329 14
      vertex -16.3205 -4.61329 5
    endloop
  endfacet
  facet normal 0 1 0
    outer loop
      vertex -16.3205 -4.61329 5
      vertex -18.1041 -4.61329 14
      vertex -16.3205 -4.61329 14
    endloop
  endfacet
  facet normal 0.917409 -0.397945 0
    outer loop
      vertex -17.034 -0.921371 14
      vertex -17.034 -0.921371 5
      vertex -11.719 11.3315 5
    endloop
  endfacet
  facet normal 0.917409 -0.397945 0
    outer loop
      vertex -11.719 11.3315 14
      vertex -17.034 -0.921371 14
      vertex -11.719 11.3315 5
    endloop
  endfacet
  facet normal -0.912492 -0.409094 0
    outer loop
      vertex -22.5272 11.3315 5
      vertex -17.034 -0.921371 5
      vertex -22.5272 11.3315 14
    endloop
  endfacet
  facet normal -0.912492 -0.409094 0
    outer loop
      vertex -22.5272 11.3315 14
      vertex -17.034 -0.921371 5
      vertex -17.034 -0.921371 14
    endloop
  endfacet
  facet normal 0 1 0
    outer loop
      vertex 15.9588 -4.61329 5
      vertex 15.9588 -4.61329 14
      vertex 17.7423 -4.61329 5
    endloop
  endfacet
  facet normal 0 1 0
    outer loop
      vertex 17.7423 -4.61329 5
      vertex 15.9588 -4.61329 14
      vertex 17.7423 -4.61329 14
    endloop
  endfacet
  facet normal 0.917409 -0.397945 0
    outer loop
      vertex 17.0289 -0.921371 14
      vertex 17.0289 -0.921371 5
      vertex 22.3438 11.3315 5
    endloop
  endfacet
  facet normal 0.917409 -0.397945 0
    outer loop
      vertex 22.3438 11.3315 14
      vertex 17.0289 -0.921371 14
      vertex 22.3438 11.3315 5
    endloop
  endfacet
  facet normal -0.912492 -0.409094 0
    outer loop
      vertex 11.5356 11.3315 5
      vertex 17.0289 -0.921371 5
      vertex 11.5356 11.3315 14
    endloop
  endfacet
  facet normal -0.912492 -0.409094 0
    outer loop
      vertex 11.5356 11.3315 14
      vertex 17.0289 -0.921371 5
      vertex 17.0289 -0.921371 14
    endloop
  endfacet
endsolid OpenSCAD_Model
