solid OpenSCAD_Model
  facet normal -0.994522 -0.104529 0
    outer loop
      vertex -11 0 -10
      vertex -10.7596 -2.28703 -10
      vertex -11 0 1
    endloop
  endfacet
  facet normal -0.994522 -0.104529 0
    outer loop
      vertex -11 0 1
      vertex -10.7596 -2.28703 -10
      vertex -10.7596 -2.28703 1
    endloop
  endfacet
  facet normal 0 0 -1
    outer loop
      vertex -11 0 -10
      vertex -10.7596 2.28703 -10
      vertex -10.7596 -2.28703 -10
    endloop
  endfacet
  facet normal 0 0 -1
    outer loop
      vertex -10.7596 -2.28703 -10
      vertex -10.7596 2.28703 -10
      vertex -10.049 4.4741 -10
    endloop
  endfacet
  facet normal 0 0 -1
    outer loop
      vertex -10.7596 -2.28703 -10
      vertex -10.049 4.4741 -10
      vertex -8.89919 6.46564 -10
    endloop
  endfacet
  facet normal 0 0 -1
    outer loop
      vertex -10.7596 -2.28703 -10
      vertex -8.89919 6.46564 -10
      vertex -7.36044 8.17459 -10
    endloop
  endfacet
  facet normal 0 0 -1
    outer loop
      vertex -10.7596 -2.28703 -10
      vertex -7.36044 8.17459 -10
      vertex -5.5 9.52628 -10
    endloop
  endfacet
  facet normal 0 0 -1
    outer loop
      vertex -10.7596 -2.28703 -10
      vertex -5.5 9.52628 -10
      vertex -3.39919 10.4616 -10
    endloop
  endfacet
  facet normal 0 0 -1
    outer loop
      vertex -10.7596 -2.28703 -10
      vertex -3.39919 10.4616 -10
      vertex -1.14981 10.9397 -10
    endloop
  endfacet
  facet normal 0 0 -1
    outer loop
      vertex -10.7596 -2.28703 -10
      vertex -1.14981 10.9397 -10
      vertex 1.14981 10.9397 -10
    endloop
  endfacet
  facet normal 0 0 -1
    outer loop
      vertex -10.7596 -2.28703 -10
      vertex 1.14981 10.9397 -10
      vertex 3.39919 10.4616 -10
    endloop
  endfacet
  facet normal 0 0 -1
    outer loop
      vertex -10.7596 -2.28703 -10
      vertex 3.39919 10.4616 -10
      vertex 5.5 9.52628 -10
    endloop
  endfacet
  facet normal 0 0 -1
    outer loop
      vertex -10.7596 -2.28703 -10
      vertex 5.5 9.52628 -10
      vertex 7.36044 8.17459 -10
    endloop
  endfacet
  facet normal 0 0 -1
    outer loop
      vertex -10.7596 -2.28703 -10
      vertex 7.36044 8.17459 -10
      vertex 8.89919 6.46564 -10
    endloop
  endfacet
  facet normal 0 0 -1
    outer loop
      vertex -10.7596 -2.28703 -10
      vertex 8.89919 6.46564 -10
      vertex 10.049 4.4741 -10
    endloop
  endfacet
  facet normal 0 0 -1
    outer loop
      vertex -10.7596 -2.28703 -10
      vertex 10.049 4.4741 -10
      vertex 10.7596 2.28703 -10
    endloop
  endfacet
  facet normal 0 0 -1
    outer loop
      vertex -10.7596 -2.28703 -10
      vertex 10.7596 2.28703 -10
      vertex 11 0 -10
    endloop
  endfacet
  facet normal 0 0 -1
    outer loop
      vertex -10.7596 -2.28703 -10
      vertex 11 0 -10
      vertex 10.7596 -2.28703 -10
    endloop
  endfacet
  facet normal 0 0 -1
    outer loop
      vertex -10.7596 -2.28703 -10
      vertex 10.7596 -2.28703 -10
      vertex 10.049 -4.4741 -10
    endloop
  endfacet
  facet normal 0 0 -1
    outer loop
      vertex -10.7596 -2.28703 -10
      vertex 10.049 -4.4741 -10
      vertex 8.89919 -6.46564 -10
    endloop
  endfacet
  facet normal 0 0 -1
    outer loop
      vertex -10.7596 -2.28703 -10
      vertex 8.89919 -6.46564 -10
      vertex 7.36044 -8.17459 -10
    endloop
  endfacet
  facet normal 0 0 -1
    outer loop
      vertex -10.7596 -2.28703 -10
      vertex 7.36044 -8.17459 -10
      vertex 5.5 -9.52628 -10
    endloop
  endfacet
  facet normal 0 0 -1
    outer loop
      vertex -10.7596 -2.28703 -10
      vertex 5.5 -9.52628 -10
      vertex 3.39919 -10.4616 -10
    endloop
  endfacet
  facet normal 0 0 -1
    outer loop
      vertex -10.7596 -2.28703 -10
      vertex 3.39919 -10.4616 -10
      vertex 1.14981 -10.9397 -10
    endloop
  endfacet
  facet normal 0 0 -1
    outer loop
      vertex -10.7596 -2.28703 -10
      vertex 1.14981 -10.9397 -10
      vertex -1.14981 -10.9397 -10
    endloop
  endfacet
  facet normal 0 0 -1
    outer loop
      vertex -10.7596 -2.28703 -10
      vertex -1.14981 -10.9397 -10
      vertex -3.39919 -10.4616 -10
    endloop
  endfacet
  facet normal 0 0 -1
    outer loop
      vertex -10.7596 -2.28703 -10
      vertex -3.39919 -10.4616 -10
      vertex -5.5 -9.52628 -10
    endloop
  endfacet
  facet normal 0 0 -1
    outer loop
      vertex -10.7596 -2.28703 -10
      vertex -5.5 -9.52628 -10
      vertex -7.36044 -8.17459 -10
    endloop
  endfacet
  facet normal 0 0 -1
    outer loop
      vertex -10.7596 -2.28703 -10
      vertex -7.36044 -8.17459 -10
      vertex -8.89919 -6.46564 -10
    endloop
  endfacet
  facet normal 0 0 -1
    outer loop
      vertex -10.7596 -2.28703 -10
      vertex -8.89919 -6.46564 -10
      vertex -10.049 -4.4741 -10
    endloop
  endfacet
  facet normal -0.994522 0.104529 0
    outer loop
      vertex -11 0 -10
      vertex -11 0 1
      vertex -10.7596 2.28703 -10
    endloop
  endfacet
  facet normal -0.994522 0.104529 0
    outer loop
      vertex -10.7596 2.28703 -10
      vertex -11 0 1
      vertex -10.7596 2.28703 1
    endloop
  endfacet
  facet normal 0 0 1
    outer loop
      vertex -10.7596 2.28703 1
      vertex -11 0 1
      vertex -10.7596 -2.28703 1
    endloop
  endfacet
  facet normal 0 0 1
    outer loop
      vertex -8.89919 -6.46564 1
      vertex -10.7596 2.28703 1
      vertex -10.049 -4.4741 1
    endloop
  endfacet
  facet normal 0 0 1
    outer loop
      vertex -10.049 -4.4741 1
      vertex -10.7596 2.28703 1
      vertex -10.7596 -2.28703 1
    endloop
  endfacet
  facet normal 0 0 1
    outer loop
      vertex -7.36044 -8.17459 1
      vertex -10.7596 2.28703 1
      vertex -8.89919 -6.46564 1
    endloop
  endfacet
  facet normal 0 0 1
    outer loop
      vertex -5.5 -9.52628 1
      vertex -10.7596 2.28703 1
      vertex -7.36044 -8.17459 1
    endloop
  endfacet
  facet normal 0 0 1
    outer loop
      vertex -3.39919 -10.4616 1
      vertex -10.7596 2.28703 1
      vertex -5.5 -9.52628 1
    endloop
  endfacet
  facet normal 0 0 1
    outer loop
      vertex -1.14981 -10.9397 1
      vertex -10.7596 2.28703 1
      vertex -3.39919 -10.4616 1
    endloop
  endfacet
  facet normal 0 0 1
    outer loop
      vertex -5.66312 -4.1145 1
      vertex -10.7596 2.28703 1
      vertex -1.14981 -10.9397 1
    endloop
  endfacet
  facet normal 0 0 1
    outer loop
      vertex 5.66312 4.1145 1
      vertex 6.39482 2.84716 1
      vertex 10.049 4.4741 1
    endloop
  endfacet
  facet normal 0 0 1
    outer loop
      vertex -0.731699 6.96165 1
      vertex 0.731699 6.96165 1
      vertex 5.5 9.52628 1
    endloop
  endfacet
  facet normal 0 0 1
    outer loop
      vertex 2.16312 6.6574 1
      vertex 3.5 6.06218 1
      vertex 7.36044 8.17459 1
    endloop
  endfacet
  facet normal 0 0 1
    outer loop
      vertex 1.14981 10.9397 1
      vertex -10.7596 2.28703 1
      vertex 3.39919 10.4616 1
    endloop
  endfacet
  facet normal 0 0 1
    outer loop
      vertex -1.14981 10.9397 1
      vertex -10.7596 2.28703 1
      vertex 1.14981 10.9397 1
    endloop
  endfacet
  facet normal 0 0 1
    outer loop
      vertex -3.39919 10.4616 1
      vertex -10.7596 2.28703 1
      vertex -1.14981 10.9397 1
    endloop
  endfacet
  facet normal 0 0 1
    outer loop
      vertex -5.5 9.52628 1
      vertex -10.7596 2.28703 1
      vertex -3.39919 10.4616 1
    endloop
  endfacet
  facet normal 0 0 1
    outer loop
      vertex -7.36044 8.17459 1
      vertex -10.7596 2.28703 1
      vertex -5.5 9.52628 1
    endloop
  endfacet
  facet normal 0 0 1
    outer loop
      vertex -8.89919 6.46564 1
      vertex -10.7596 2.28703 1
      vertex -7.36044 8.17459 1
    endloop
  endfacet
  facet normal 0 0 1
    outer loop
      vertex -10.049 4.4741 1
      vertex -10.7596 2.28703 1
      vertex -8.89919 6.46564 1
    endloop
  endfacet
  facet normal 0 0 1
    outer loop
      vertex -5.66312 -4.1145 1
      vertex -6.39482 -2.84716 1
      vertex -10.7596 2.28703 1
    endloop
  endfacet
  facet normal 0 0 1
    outer loop
      vertex 0.731699 -6.96165 1
      vertex -0.731699 -6.96165 1
      vertex 3.39919 -10.4616 1
    endloop
  endfacet
  facet normal 0 0 1
    outer loop
      vertex 5.66312 -4.1145 1
      vertex 4.68391 -5.20201 1
      vertex 8.89919 -6.46564 1
    endloop
  endfacet
  facet normal 0 0 1
    outer loop
      vertex 6.39482 2.84716 1
      vertex 6.84703 1.45538 1
      vertex 10.7596 2.28703 1
    endloop
  endfacet
  facet normal 0 0 1
    outer loop
      vertex -3.5 6.06218 1
      vertex -2.16312 6.6574 1
      vertex 3.39919 10.4616 1
    endloop
  endfacet
  facet normal 0 0 1
    outer loop
      vertex 3.5 6.06218 1
      vertex 4.68391 5.20201 1
      vertex 8.89919 6.46564 1
    endloop
  endfacet
  facet normal 0 0 1
    outer loop
      vertex -3.5 6.06218 1
      vertex -10.7596 2.28703 1
      vertex -4.68391 5.20201 1
    endloop
  endfacet
  facet normal 0 0 1
    outer loop
      vertex 3.39919 10.4616 1
      vertex -10.7596 2.28703 1
      vertex -3.5 6.06218 1
    endloop
  endfacet
  facet normal 0 0 1
    outer loop
      vertex 3.39919 10.4616 1
      vertex -2.16312 6.6574 1
      vertex 5.5 9.52628 1
    endloop
  endfacet
  facet normal 0 0 1
    outer loop
      vertex -2.16312 6.6574 1
      vertex -0.731699 6.96165 1
      vertex 5.5 9.52628 1
    endloop
  endfacet
  facet normal 0 0 1
    outer loop
      vertex 5.5 9.52628 1
      vertex 0.731699 6.96165 1
      vertex 7.36044 8.17459 1
    endloop
  endfacet
  facet normal 0 0 1
    outer loop
      vertex 0.731699 6.96165 1
      vertex 2.16312 6.6574 1
      vertex 7.36044 8.17459 1
    endloop
  endfacet
  facet normal 0 0 1
    outer loop
      vertex 7.36044 8.17459 1
      vertex 3.5 6.06218 1
      vertex 8.89919 6.46564 1
    endloop
  endfacet
  facet normal 0 0 1
    outer loop
      vertex -5.66312 4.1145 1
      vertex -4.68391 5.20201 1
      vertex -10.7596 2.28703 1
    endloop
  endfacet
  facet normal 0 0 1
    outer loop
      vertex 8.89919 6.46564 1
      vertex 4.68391 5.20201 1
      vertex 10.049 4.4741 1
    endloop
  endfacet
  facet normal 0 0 1
    outer loop
      vertex 4.68391 5.20201 1
      vertex 5.66312 4.1145 1
      vertex 10.049 4.4741 1
    endloop
  endfacet
  facet normal 0 0 1
    outer loop
      vertex 10.049 4.4741 1
      vertex 6.39482 2.84716 1
      vertex 10.7596 2.28703 1
    endloop
  endfacet
  facet normal 0 0 1
    outer loop
      vertex 4.68391 -5.20201 1
      vertex 3.5 -6.06218 1
      vertex 7.36044 -8.17459 1
    endloop
  endfacet
  facet normal 0 0 1
    outer loop
      vertex 10.7596 2.28703 1
      vertex 6.84703 1.45538 1
      vertex 11 0 1
    endloop
  endfacet
  facet normal 0 0 1
    outer loop
      vertex -6.39482 2.84716 1
      vertex -5.66312 4.1145 1
      vertex -10.7596 2.28703 1
    endloop
  endfacet
  facet normal 0 0 1
    outer loop
      vertex 11 0 1
      vertex 7 0 1
      vertex 10.7596 -2.28703 1
    endloop
  endfacet
  facet normal 0 0 1
    outer loop
      vertex 7 0 1
      vertex 6.84703 -1.45538 1
      vertex 10.7596 -2.28703 1
    endloop
  endfacet
  facet normal 0 0 1
    outer loop
      vertex 10.7596 -2.28703 1
      vertex 6.39482 -2.84716 1
      vertex 10.049 -4.4741 1
    endloop
  endfacet
  facet normal 0 0 1
    outer loop
      vertex 10.049 -4.4741 1
      vertex 5.66312 -4.1145 1
      vertex 8.89919 -6.46564 1
    endloop
  endfacet
  facet normal 0 0 1
    outer loop
      vertex 6.84703 1.45538 1
      vertex 7 0 1
      vertex 11 0 1
    endloop
  endfacet
  facet normal 0 0 1
    outer loop
      vertex 8.89919 -6.46564 1
      vertex 4.68391 -5.20201 1
      vertex 7.36044 -8.17459 1
    endloop
  endfacet
  facet normal 0 0 1
    outer loop
      vertex 6.84703 -1.45538 1
      vertex 6.39482 -2.84716 1
      vertex 10.7596 -2.28703 1
    endloop
  endfacet
  facet normal 0 0 1
    outer loop
      vertex 7.36044 -8.17459 1
      vertex 3.5 -6.06218 1
      vertex 5.5 -9.52628 1
    endloop
  endfacet
  facet normal 0 0 1
    outer loop
      vertex 3.5 -6.06218 1
      vertex 2.16312 -6.6574 1
      vertex 5.5 -9.52628 1
    endloop
  endfacet
  facet normal 0 0 1
    outer loop
      vertex 5.5 -9.52628 1
      vertex 0.731699 -6.96165 1
      vertex 3.39919 -10.4616 1
    endloop
  endfacet
  facet normal 0 0 1
    outer loop
      vertex 3.39919 -10.4616 1
      vertex -0.731699 -6.96165 1
      vertex 1.14981 -10.9397 1
    endloop
  endfacet
  facet normal 0 0 1
    outer loop
      vertex -0.731699 -6.96165 1
      vertex -2.16312 -6.6574 1
      vertex 1.14981 -10.9397 1
    endloop
  endfacet
  facet normal 0 0 1
    outer loop
      vertex 1.14981 -10.9397 1
      vertex -3.5 -6.06218 1
      vertex -1.14981 -10.9397 1
    endloop
  endfacet
  facet normal 0 0 1
    outer loop
      vertex -3.5 -6.06218 1
      vertex -4.68391 -5.20201 1
      vertex -1.14981 -10.9397 1
    endloop
  endfacet
  facet normal 0 0 1
    outer loop
      vertex -4.68391 -5.20201 1
      vertex -5.66312 -4.1145 1
      vertex -1.14981 -10.9397 1
    endloop
  endfacet
  facet normal 0 0 1
    outer loop
      vertex -2.16312 -6.6574 1
      vertex -3.5 -6.06218 1
      vertex 1.14981 -10.9397 1
    endloop
  endfacet
  facet normal 0 0 1
    outer loop
      vertex -6.39482 -2.84716 1
      vertex -6.84703 -1.45538 1
      vertex -10.7596 2.28703 1
    endloop
  endfacet
  facet normal 0 0 1
    outer loop
      vertex -6.84703 -1.45538 1
      vertex -7 0 1
      vertex -10.7596 2.28703 1
    endloop
  endfacet
  facet normal 0 0 1
    outer loop
      vertex 2.16312 -6.6574 1
      vertex 0.731699 -6.96165 1
      vertex 5.5 -9.52628 1
    endloop
  endfacet
  facet normal 0 0 1
    outer loop
      vertex -7 0 1
      vertex -6.84703 1.45538 1
      vertex -10.7596 2.28703 1
    endloop
  endfacet
  facet normal 0 0 1
    outer loop
      vertex 6.39482 -2.84716 1
      vertex 5.66312 -4.1145 1
      vertex 10.049 -4.4741 1
    endloop
  endfacet
  facet normal 0 0 1
    outer loop
      vertex -6.84703 1.45538 1
      vertex -6.39482 2.84716 1
      vertex -10.7596 2.28703 1
    endloop
  endfacet
  facet normal -0.951057 -0.309017 0
    outer loop
      vertex -10.7596 -2.28703 -10
      vertex -10.049 -4.4741 -10
      vertex -10.7596 -2.28703 1
    endloop
  endfacet
  facet normal -0.951057 -0.309017 0
    outer loop
      vertex -10.7596 -2.28703 1
      vertex -10.049 -4.4741 -10
      vertex -10.049 -4.4741 1
    endloop
  endfacet
  facet normal -0.866026 -0.5 0
    outer loop
      vertex -10.049 -4.4741 -10
      vertex -8.89919 -6.46564 -10
      vertex -10.049 -4.4741 1
    endloop
  endfacet
  facet normal -0.866026 -0.5 0
    outer loop
      vertex -10.049 -4.4741 1
      vertex -8.89919 -6.46564 -10
      vertex -8.89919 -6.46564 1
    endloop
  endfacet
  facet normal -0.743145 -0.669131 0
    outer loop
      vertex -8.89919 -6.46564 -10
      vertex -7.36044 -8.17459 -10
      vertex -8.89919 -6.46564 1
    endloop
  endfacet
  facet normal -0.743145 -0.669131 0
    outer loop
      vertex -8.89919 -6.46564 1
      vertex -7.36044 -8.17459 -10
      vertex -7.36044 -8.17459 1
    endloop
  endfacet
  facet normal -0.587785 -0.809017 0
    outer loop
      vertex -7.36044 -8.17459 1
      vertex -7.36044 -8.17459 -10
      vertex -5.5 -9.52628 -10
    endloop
  endfacet
  facet normal -0.587785 -0.809017 0
    outer loop
      vertex -5.5 -9.52628 1
      vertex -7.36044 -8.17459 1
      vertex -5.5 -9.52628 -10
    endloop
  endfacet
  facet normal -0.406737 -0.913546 0
    outer loop
      vertex -5.5 -9.52628 1
      vertex -5.5 -9.52628 -10
      vertex -3.39919 -10.4616 -10
    endloop
  endfacet
  facet normal -0.406737 -0.913546 0
    outer loop
      vertex -3.39919 -10.4616 1
      vertex -5.5 -9.52628 1
      vertex -3.39919 -10.4616 -10
    endloop
  endfacet
  facet normal -0.207912 -0.978148 0
    outer loop
      vertex -3.39919 -10.4616 1
      vertex -3.39919 -10.4616 -10
      vertex -1.14981 -10.9397 -10
    endloop
  endfacet
  facet normal -0.207912 -0.978148 0
    outer loop
      vertex -1.14981 -10.9397 1
      vertex -3.39919 -10.4616 1
      vertex -1.14981 -10.9397 -10
    endloop
  endfacet
  facet normal 0 -1 0
    outer loop
      vertex -1.14981 -10.9397 1
      vertex -1.14981 -10.9397 -10
      vertex 1.14981 -10.9397 -10
    endloop
  endfacet
  facet normal 0 -1 0
    outer loop
      vertex 1.14981 -10.9397 1
      vertex -1.14981 -10.9397 1
      vertex 1.14981 -10.9397 -10
    endloop
  endfacet
  facet normal 0.207912 -0.978148 0
    outer loop
      vertex 1.14981 -10.9397 1
      vertex 1.14981 -10.9397 -10
      vertex 3.39919 -10.4616 -10
    endloop
  endfacet
  facet normal 0.207912 -0.978148 0
    outer loop
      vertex 3.39919 -10.4616 1
      vertex 1.14981 -10.9397 1
      vertex 3.39919 -10.4616 -10
    endloop
  endfacet
  facet normal 0.406737 -0.913546 0
    outer loop
      vertex 3.39919 -10.4616 1
      vertex 3.39919 -10.4616 -10
      vertex 5.5 -9.52628 -10
    endloop
  endfacet
  facet normal 0.406737 -0.913546 0
    outer loop
      vertex 5.5 -9.52628 1
      vertex 3.39919 -10.4616 1
      vertex 5.5 -9.52628 -10
    endloop
  endfacet
  facet normal 0.587785 -0.809017 0
    outer loop
      vertex 5.5 -9.52628 1
      vertex 5.5 -9.52628 -10
      vertex 7.36044 -8.17459 -10
    endloop
  endfacet
  facet normal 0.587785 -0.809017 0
    outer loop
      vertex 7.36044 -8.17459 1
      vertex 5.5 -9.52628 1
      vertex 7.36044 -8.17459 -10
    endloop
  endfacet
  facet normal 0.743145 -0.669131 0
    outer loop
      vertex 7.36044 -8.17459 1
      vertex 7.36044 -8.17459 -10
      vertex 8.89919 -6.46564 -10
    endloop
  endfacet
  facet normal 0.743145 -0.669131 0
    outer loop
      vertex 8.89919 -6.46564 1
      vertex 7.36044 -8.17459 1
      vertex 8.89919 -6.46564 -10
    endloop
  endfacet
  facet normal 0.866026 -0.5 0
    outer loop
      vertex 8.89919 -6.46564 1
      vertex 8.89919 -6.46564 -10
      vertex 10.049 -4.4741 -10
    endloop
  endfacet
  facet normal 0.866026 -0.5 0
    outer loop
      vertex 10.049 -4.4741 1
      vertex 8.89919 -6.46564 1
      vertex 10.049 -4.4741 -10
    endloop
  endfacet
  facet normal 0.951057 -0.309017 0
    outer loop
      vertex 10.049 -4.4741 1
      vertex 10.049 -4.4741 -10
      vertex 10.7596 -2.28703 -10
    endloop
  endfacet
  facet normal 0.951057 -0.309017 0
    outer loop
      vertex 10.7596 -2.28703 1
      vertex 10.049 -4.4741 1
      vertex 10.7596 -2.28703 -10
    endloop
  endfacet
  facet normal 0.994522 -0.104529 0
    outer loop
      vertex 10.7596 -2.28703 1
      vertex 10.7596 -2.28703 -10
      vertex 11 0 -10
    endloop
  endfacet
  facet normal 0.994522 -0.104529 0
    outer loop
      vertex 11 0 1
      vertex 10.7596 -2.28703 1
      vertex 11 0 -10
    endloop
  endfacet
  facet normal 0.994522 0.104529 0
    outer loop
      vertex 11 0 -10
      vertex 10.7596 2.28703 -10
      vertex 10.7596 2.28703 1
    endloop
  endfacet
  facet normal 0.994522 0.104529 0
    outer loop
      vertex 11 0 1
      vertex 11 0 -10
      vertex 10.7596 2.28703 1
    endloop
  endfacet
  facet normal 0.951057 0.309017 0
    outer loop
      vertex 10.7596 2.28703 -10
      vertex 10.049 4.4741 -10
      vertex 10.049 4.4741 1
    endloop
  endfacet
  facet normal 0.951057 0.309017 0
    outer loop
      vertex 10.7596 2.28703 1
      vertex 10.7596 2.28703 -10
      vertex 10.049 4.4741 1
    endloop
  endfacet
  facet normal 0.866026 0.5 0
    outer loop
      vertex 10.049 4.4741 -10
      vertex 8.89919 6.46564 -10
      vertex 8.89919 6.46564 1
    endloop
  endfacet
  facet normal 0.866026 0.5 0
    outer loop
      vertex 10.049 4.4741 1
      vertex 10.049 4.4741 -10
      vertex 8.89919 6.46564 1
    endloop
  endfacet
  facet normal 0.743145 0.669131 0
    outer loop
      vertex 8.89919 6.46564 -10
      vertex 7.36044 8.17459 -10
      vertex 7.36044 8.17459 1
    endloop
  endfacet
  facet normal 0.743145 0.669131 0
    outer loop
      vertex 8.89919 6.46564 1
      vertex 8.89919 6.46564 -10
      vertex 7.36044 8.17459 1
    endloop
  endfacet
  facet normal 0.587785 0.809017 0
    outer loop
      vertex 5.5 9.52628 -10
      vertex 5.5 9.52628 1
      vertex 7.36044 8.17459 -10
    endloop
  endfacet
  facet normal 0.587785 0.809017 0
    outer loop
      vertex 7.36044 8.17459 -10
      vertex 5.5 9.52628 1
      vertex 7.36044 8.17459 1
    endloop
  endfacet
  facet normal 0.406737 0.913546 0
    outer loop
      vertex 3.39919 10.4616 -10
      vertex 3.39919 10.4616 1
      vertex 5.5 9.52628 -10
    endloop
  endfacet
  facet normal 0.406737 0.913546 0
    outer loop
      vertex 5.5 9.52628 -10
      vertex 3.39919 10.4616 1
      vertex 5.5 9.52628 1
    endloop
  endfacet
  facet normal 0.207912 0.978148 0
    outer loop
      vertex 1.14981 10.9397 -10
      vertex 1.14981 10.9397 1
      vertex 3.39919 10.4616 -10
    endloop
  endfacet
  facet normal 0.207912 0.978148 0
    outer loop
      vertex 3.39919 10.4616 -10
      vertex 1.14981 10.9397 1
      vertex 3.39919 10.4616 1
    endloop
  endfacet
  facet normal 0 1 0
    outer loop
      vertex -1.14981 10.9397 -10
      vertex -1.14981 10.9397 1
      vertex 1.14981 10.9397 -10
    endloop
  endfacet
  facet normal 0 1 0
    outer loop
      vertex 1.14981 10.9397 -10
      vertex -1.14981 10.9397 1
      vertex 1.14981 10.9397 1
    endloop
  endfacet
  facet normal -0.207912 0.978148 0
    outer loop
      vertex -3.39919 10.4616 -10
      vertex -3.39919 10.4616 1
      vertex -1.14981 10.9397 -10
    endloop
  endfacet
  facet normal -0.207912 0.978148 0
    outer loop
      vertex -1.14981 10.9397 -10
      vertex -3.39919 10.4616 1
      vertex -1.14981 10.9397 1
    endloop
  endfacet
  facet normal -0.406737 0.913546 0
    outer loop
      vertex -5.5 9.52628 -10
      vertex -5.5 9.52628 1
      vertex -3.39919 10.4616 -10
    endloop
  endfacet
  facet normal -0.406737 0.913546 0
    outer loop
      vertex -3.39919 10.4616 -10
      vertex -5.5 9.52628 1
      vertex -3.39919 10.4616 1
    endloop
  endfacet
  facet normal -0.587785 0.809017 0
    outer loop
      vertex -7.36044 8.17459 -10
      vertex -7.36044 8.17459 1
      vertex -5.5 9.52628 -10
    endloop
  endfacet
  facet normal -0.587785 0.809017 0
    outer loop
      vertex -5.5 9.52628 -10
      vertex -7.36044 8.17459 1
      vertex -5.5 9.52628 1
    endloop
  endfacet
  facet normal -0.743145 0.669131 0
    outer loop
      vertex -8.89919 6.46564 -10
      vertex -8.89919 6.46564 1
      vertex -7.36044 8.17459 -10
    endloop
  endfacet
  facet normal -0.743145 0.669131 0
    outer loop
      vertex -7.36044 8.17459 -10
      vertex -8.89919 6.46564 1
      vertex -7.36044 8.17459 1
    endloop
  endfacet
  facet normal -0.866026 0.5 0
    outer loop
      vertex -10.049 4.4741 -10
      vertex -10.049 4.4741 1
      vertex -8.89919 6.46564 -10
    endloop
  endfacet
  facet normal -0.866026 0.5 0
    outer loop
      vertex -8.89919 6.46564 -10
      vertex -10.049 4.4741 1
      vertex -8.89919 6.46564 1
    endloop
  endfacet
  facet normal -0.951057 0.309017 0
    outer loop
      vertex -10.7596 2.28703 -10
      vertex -10.7596 2.28703 1
      vertex -10.049 4.4741 -10
    endloop
  endfacet
  facet normal -0.951057 0.309017 0
    outer loop
      vertex -10.049 4.4741 -10
      vertex -10.7596 2.28703 1
      vertex -10.049 4.4741 1
    endloop
  endfacet
  facet normal 0.994522 0.104528 0
    outer loop
      vertex -6.84703 -1.45538 -8
      vertex -7 0 -8
      vertex -7 0 1
    endloop
  endfacet
  facet normal 0.994522 0.104528 0
    outer loop
      vertex -6.84703 -1.45538 1
      vertex -6.84703 -1.45538 -8
      vertex -7 0 1
    endloop
  endfacet
  facet normal 0.951057 0.309017 0
    outer loop
      vertex -6.39482 -2.84716 -8
      vertex -6.84703 -1.45538 -8
      vertex -6.84703 -1.45538 1
    endloop
  endfacet
  facet normal 0.951057 0.309017 0
    outer loop
      vertex -6.39482 -2.84716 1
      vertex -6.39482 -2.84716 -8
      vertex -6.84703 -1.45538 1
    endloop
  endfacet
  facet normal 0.866026 0.5 0
    outer loop
      vertex -5.66312 -4.1145 -8
      vertex -6.39482 -2.84716 -8
      vertex -6.39482 -2.84716 1
    endloop
  endfacet
  facet normal 0.866026 0.5 0
    outer loop
      vertex -5.66312 -4.1145 1
      vertex -5.66312 -4.1145 -8
      vertex -6.39482 -2.84716 1
    endloop
  endfacet
  facet normal 0.743145 0.669131 0
    outer loop
      vertex -4.68391 -5.20201 -8
      vertex -5.66312 -4.1145 -8
      vertex -5.66312 -4.1145 1
    endloop
  endfacet
  facet normal 0.743145 0.669131 0
    outer loop
      vertex -4.68391 -5.20201 1
      vertex -4.68391 -5.20201 -8
      vertex -5.66312 -4.1145 1
    endloop
  endfacet
  facet normal 0.587785 0.809017 0
    outer loop
      vertex -4.68391 -5.20201 -8
      vertex -4.68391 -5.20201 1
      vertex -3.5 -6.06218 -8
    endloop
  endfacet
  facet normal 0.587785 0.809017 0
    outer loop
      vertex -3.5 -6.06218 -8
      vertex -4.68391 -5.20201 1
      vertex -3.5 -6.06218 1
    endloop
  endfacet
  facet normal 0.406737 0.913545 0
    outer loop
      vertex -3.5 -6.06218 -8
      vertex -3.5 -6.06218 1
      vertex -2.16312 -6.6574 -8
    endloop
  endfacet
  facet normal 0.406737 0.913545 0
    outer loop
      vertex -2.16312 -6.6574 -8
      vertex -3.5 -6.06218 1
      vertex -2.16312 -6.6574 1
    endloop
  endfacet
  facet normal 0.207912 0.978148 0
    outer loop
      vertex -2.16312 -6.6574 -8
      vertex -2.16312 -6.6574 1
      vertex -0.731699 -6.96165 -8
    endloop
  endfacet
  facet normal 0.207912 0.978148 0
    outer loop
      vertex -0.731699 -6.96165 -8
      vertex -2.16312 -6.6574 1
      vertex -0.731699 -6.96165 1
    endloop
  endfacet
  facet normal 0 1 0
    outer loop
      vertex -0.731699 -6.96165 -8
      vertex -0.731699 -6.96165 1
      vertex 0.731699 -6.96165 -8
    endloop
  endfacet
  facet normal 0 1 0
    outer loop
      vertex 0.731699 -6.96165 -8
      vertex -0.731699 -6.96165 1
      vertex 0.731699 -6.96165 1
    endloop
  endfacet
  facet normal -0.207912 0.978148 0
    outer loop
      vertex 0.731699 -6.96165 -8
      vertex 0.731699 -6.96165 1
      vertex 2.16312 -6.6574 -8
    endloop
  endfacet
  facet normal -0.207912 0.978148 0
    outer loop
      vertex 2.16312 -6.6574 -8
      vertex 0.731699 -6.96165 1
      vertex 2.16312 -6.6574 1
    endloop
  endfacet
  facet normal -0.406737 0.913545 0
    outer loop
      vertex 2.16312 -6.6574 -8
      vertex 2.16312 -6.6574 1
      vertex 3.5 -6.06218 -8
    endloop
  endfacet
  facet normal -0.406737 0.913545 0
    outer loop
      vertex 3.5 -6.06218 -8
      vertex 2.16312 -6.6574 1
      vertex 3.5 -6.06218 1
    endloop
  endfacet
  facet normal -0.587785 0.809017 0
    outer loop
      vertex 3.5 -6.06218 -8
      vertex 3.5 -6.06218 1
      vertex 4.68391 -5.20201 -8
    endloop
  endfacet
  facet normal -0.587785 0.809017 0
    outer loop
      vertex 4.68391 -5.20201 -8
      vertex 3.5 -6.06218 1
      vertex 4.68391 -5.20201 1
    endloop
  endfacet
  facet normal -0.743145 0.669131 0
    outer loop
      vertex 4.68391 -5.20201 -8
      vertex 4.68391 -5.20201 1
      vertex 5.66312 -4.1145 -8
    endloop
  endfacet
  facet normal -0.743145 0.669131 0
    outer loop
      vertex 5.66312 -4.1145 -8
      vertex 4.68391 -5.20201 1
      vertex 5.66312 -4.1145 1
    endloop
  endfacet
  facet normal -0.866026 0.5 0
    outer loop
      vertex 5.66312 -4.1145 -8
      vertex 5.66312 -4.1145 1
      vertex 6.39482 -2.84716 -8
    endloop
  endfacet
  facet normal -0.866026 0.5 0
    outer loop
      vertex 6.39482 -2.84716 -8
      vertex 5.66312 -4.1145 1
      vertex 6.39482 -2.84716 1
    endloop
  endfacet
  facet normal -0.951057 0.309017 0
    outer loop
      vertex 6.39482 -2.84716 -8
      vertex 6.39482 -2.84716 1
      vertex 6.84703 -1.45538 -8
    endloop
  endfacet
  facet normal -0.951057 0.309017 0
    outer loop
      vertex 6.84703 -1.45538 -8
      vertex 6.39482 -2.84716 1
      vertex 6.84703 -1.45538 1
    endloop
  endfacet
  facet normal -0.994522 0.104528 0
    outer loop
      vertex 6.84703 -1.45538 -8
      vertex 6.84703 -1.45538 1
      vertex 7 0 -8
    endloop
  endfacet
  facet normal -0.994522 0.104528 0
    outer loop
      vertex 7 0 -8
      vertex 6.84703 -1.45538 1
      vertex 7 0 1
    endloop
  endfacet
  facet normal -0.994522 -0.104528 0
    outer loop
      vertex 6.84703 1.45538 -8
      vertex 7 0 -8
      vertex 6.84703 1.45538 1
    endloop
  endfacet
  facet normal -0.994522 -0.104528 0
    outer loop
      vertex 6.84703 1.45538 1
      vertex 7 0 -8
      vertex 7 0 1
    endloop
  endfacet
  facet normal -0.951057 -0.309017 0
    outer loop
      vertex 6.39482 2.84716 -8
      vertex 6.84703 1.45538 -8
      vertex 6.39482 2.84716 1
    endloop
  endfacet
  facet normal -0.951057 -0.309017 0
    outer loop
      vertex 6.39482 2.84716 1
      vertex 6.84703 1.45538 -8
      vertex 6.84703 1.45538 1
    endloop
  endfacet
  facet normal -0.866026 -0.5 0
    outer loop
      vertex 5.66312 4.1145 -8
      vertex 6.39482 2.84716 -8
      vertex 5.66312 4.1145 1
    endloop
  endfacet
  facet normal -0.866026 -0.5 0
    outer loop
      vertex 5.66312 4.1145 1
      vertex 6.39482 2.84716 -8
      vertex 6.39482 2.84716 1
    endloop
  endfacet
  facet normal -0.743145 -0.669131 0
    outer loop
      vertex 4.68391 5.20201 -8
      vertex 5.66312 4.1145 -8
      vertex 4.68391 5.20201 1
    endloop
  endfacet
  facet normal -0.743145 -0.669131 0
    outer loop
      vertex 4.68391 5.20201 1
      vertex 5.66312 4.1145 -8
      vertex 5.66312 4.1145 1
    endloop
  endfacet
  facet normal -0.587785 -0.809017 0
    outer loop
      vertex 3.5 6.06218 1
      vertex 3.5 6.06218 -8
      vertex 4.68391 5.20201 -8
    endloop
  endfacet
  facet normal -0.587785 -0.809017 0
    outer loop
      vertex 4.68391 5.20201 1
      vertex 3.5 6.06218 1
      vertex 4.68391 5.20201 -8
    endloop
  endfacet
  facet normal -0.406737 -0.913545 0
    outer loop
      vertex 2.16312 6.6574 1
      vertex 2.16312 6.6574 -8
      vertex 3.5 6.06218 -8
    endloop
  endfacet
  facet normal -0.406737 -0.913545 0
    outer loop
      vertex 3.5 6.06218 1
      vertex 2.16312 6.6574 1
      vertex 3.5 6.06218 -8
    endloop
  endfacet
  facet normal -0.207912 -0.978148 0
    outer loop
      vertex 0.731699 6.96165 1
      vertex 0.731699 6.96165 -8
      vertex 2.16312 6.6574 -8
    endloop
  endfacet
  facet normal -0.207912 -0.978148 0
    outer loop
      vertex 2.16312 6.6574 1
      vertex 0.731699 6.96165 1
      vertex 2.16312 6.6574 -8
    endloop
  endfacet
  facet normal 0 -1 0
    outer loop
      vertex -0.731699 6.96165 1
      vertex -0.731699 6.96165 -8
      vertex 0.731699 6.96165 -8
    endloop
  endfacet
  facet normal 0 -1 0
    outer loop
      vertex 0.731699 6.96165 1
      vertex -0.731699 6.96165 1
      vertex 0.731699 6.96165 -8
    endloop
  endfacet
  facet normal 0.207912 -0.978148 0
    outer loop
      vertex -2.16312 6.6574 1
      vertex -2.16312 6.6574 -8
      vertex -0.731699 6.96165 -8
    endloop
  endfacet
  facet normal 0.207912 -0.978148 0
    outer loop
      vertex -0.731699 6.96165 1
      vertex -2.16312 6.6574 1
      vertex -0.731699 6.96165 -8
    endloop
  endfacet
  facet normal 0.406737 -0.913545 0
    outer loop
      vertex -3.5 6.06218 1
      vertex -3.5 6.06218 -8
      vertex -2.16312 6.6574 -8
    endloop
  endfacet
  facet normal 0.406737 -0.913545 0
    outer loop
      vertex -2.16312 6.6574 1
      vertex -3.5 6.06218 1
      vertex -2.16312 6.6574 -8
    endloop
  endfacet
  facet normal 0.587785 -0.809017 0
    outer loop
      vertex -4.68391 5.20201 1
      vertex -4.68391 5.20201 -8
      vertex -3.5 6.06218 -8
    endloop
  endfacet
  facet normal 0.587785 -0.809017 0
    outer loop
      vertex -3.5 6.06218 1
      vertex -4.68391 5.20201 1
      vertex -3.5 6.06218 -8
    endloop
  endfacet
  facet normal 0.743145 -0.669131 0
    outer loop
      vertex -5.66312 4.1145 1
      vertex -5.66312 4.1145 -8
      vertex -4.68391 5.20201 -8
    endloop
  endfacet
  facet normal 0.743145 -0.669131 0
    outer loop
      vertex -4.68391 5.20201 1
      vertex -5.66312 4.1145 1
      vertex -4.68391 5.20201 -8
    endloop
  endfacet
  facet normal 0.866026 -0.5 0
    outer loop
      vertex -6.39482 2.84716 1
      vertex -6.39482 2.84716 -8
      vertex -5.66312 4.1145 -8
    endloop
  endfacet
  facet normal 0.866026 -0.5 0
    outer loop
      vertex -5.66312 4.1145 1
      vertex -6.39482 2.84716 1
      vertex -5.66312 4.1145 -8
    endloop
  endfacet
  facet normal 0.951057 -0.309017 0
    outer loop
      vertex -6.84703 1.45538 1
      vertex -6.84703 1.45538 -8
      vertex -6.39482 2.84716 -8
    endloop
  endfacet
  facet normal 0.951057 -0.309017 0
    outer loop
      vertex -6.39482 2.84716 1
      vertex -6.84703 1.45538 1
      vertex -6.39482 2.84716 -8
    endloop
  endfacet
  facet normal 0.994522 -0.104528 0
    outer loop
      vertex -7 0 1
      vertex -7 0 -8
      vertex -6.84703 1.45538 -8
    endloop
  endfacet
  facet normal 0.994522 -0.104528 0
    outer loop
      vertex -6.84703 1.45538 1
      vertex -7 0 1
      vertex -6.84703 1.45538 -8
    endloop
  endfacet
  facet normal 0 0 1
    outer loop
      vertex -6.84703 1.45538 -8
      vertex -7 0 -8
      vertex -6.84703 -1.45538 -8
    endloop
  endfacet
  facet normal 0 0 1
    outer loop
      vertex -5.66312 -4.1145 -8
      vertex -6.84703 1.45538 -8
      vertex -6.39482 -2.84716 -8
    endloop
  endfacet
  facet normal 0 0 1
    outer loop
      vertex -6.39482 -2.84716 -8
      vertex -6.84703 1.45538 -8
      vertex -6.84703 -1.45538 -8
    endloop
  endfacet
  facet normal 0 0 1
    outer loop
      vertex -4.68391 -5.20201 -8
      vertex -6.84703 1.45538 -8
      vertex -5.66312 -4.1145 -8
    endloop
  endfacet
  facet normal 0 0 1
    outer loop
      vertex -3.5 -6.06218 -8
      vertex -6.84703 1.45538 -8
      vertex -4.68391 -5.20201 -8
    endloop
  endfacet
  facet normal 0 0 1
    outer loop
      vertex -2.16312 -6.6574 -8
      vertex -6.84703 1.45538 -8
      vertex -3.5 -6.06218 -8
    endloop
  endfacet
  facet normal 0 0 1
    outer loop
      vertex -4.04508 -2.93893 -8
      vertex -6.84703 1.45538 -8
      vertex -2.16312 -6.6574 -8
    endloop
  endfacet
  facet normal 0 0 1
    outer loop
      vertex 4.04508 -2.93893 -8
      vertex 3.34565 -3.71572 -8
      vertex 5.66312 -4.1145 -8
    endloop
  endfacet
  facet normal 0 0 1
    outer loop
      vertex -4.89074 1.03956 -8
      vertex -4.56773 2.03368 -8
      vertex -6.84703 1.45538 -8
    endloop
  endfacet
  facet normal 0 0 1
    outer loop
      vertex 2.5 -4.33013 -8
      vertex 1.54508 -4.75528 -8
      vertex 3.5 -6.06218 -8
    endloop
  endfacet
  facet normal 0 0 1
    outer loop
      vertex 3.34565 3.71572 -8
      vertex 4.04508 2.93893 -8
      vertex 5.66312 4.1145 -8
    endloop
  endfacet
  facet normal 0 0 1
    outer loop
      vertex -1.54508 4.75528 -8
      vertex -0.522642 4.97261 -8
      vertex 2.16312 6.6574 -8
    endloop
  endfacet
  facet normal 0 0 1
    outer loop
      vertex 0.522642 4.97261 -8
      vertex 1.54508 4.75528 -8
      vertex 3.5 6.06218 -8
    endloop
  endfacet
  facet normal 0 0 1
    outer loop
      vertex -0.731699 6.96165 -8
      vertex -6.84703 1.45538 -8
      vertex 0.731699 6.96165 -8
    endloop
  endfacet
  facet normal 0 0 1
    outer loop
      vertex -2.16312 6.6574 -8
      vertex -6.84703 1.45538 -8
      vertex -0.731699 6.96165 -8
    endloop
  endfacet
  facet normal 0 0 1
    outer loop
      vertex -3.5 6.06218 -8
      vertex -6.84703 1.45538 -8
      vertex -2.16312 6.6574 -8
    endloop
  endfacet
  facet normal 0 0 1
    outer loop
      vertex -4.68391 5.20201 -8
      vertex -6.84703 1.45538 -8
      vertex -3.5 6.06218 -8
    endloop
  endfacet
  facet normal 0 0 1
    outer loop
      vertex -5.66312 4.1145 -8
      vertex -6.84703 1.45538 -8
      vertex -4.68391 5.20201 -8
    endloop
  endfacet
  facet normal 0 0 1
    outer loop
      vertex -6.39482 2.84716 -8
      vertex -6.84703 1.45538 -8
      vertex -5.66312 4.1145 -8
    endloop
  endfacet
  facet normal 0 0 1
    outer loop
      vertex 4.56773 -2.03368 -8
      vertex 4.04508 -2.93893 -8
      vertex 6.39482 -2.84716 -8
    endloop
  endfacet
  facet normal 0 0 1
    outer loop
      vertex 4.04508 2.93893 -8
      vertex 4.56773 2.03368 -8
      vertex 6.39482 2.84716 -8
    endloop
  endfacet
  facet normal 0 0 1
    outer loop
      vertex 1.54508 4.75528 -8
      vertex 2.5 4.33013 -8
      vertex 4.68391 5.20201 -8
    endloop
  endfacet
  facet normal 0 0 1
    outer loop
      vertex 0.731699 6.96165 -8
      vertex -6.84703 1.45538 -8
      vertex -3.34565 3.71572 -8
    endloop
  endfacet
  facet normal 0 0 1
    outer loop
      vertex 0.731699 6.96165 -8
      vertex -2.5 4.33013 -8
      vertex 2.16312 6.6574 -8
    endloop
  endfacet
  facet normal 0 0 1
    outer loop
      vertex 0.731699 6.96165 -8
      vertex -3.34565 3.71572 -8
      vertex -2.5 4.33013 -8
    endloop
  endfacet
  facet normal 0 0 1
    outer loop
      vertex -2.5 4.33013 -8
      vertex -1.54508 4.75528 -8
      vertex 2.16312 6.6574 -8
    endloop
  endfacet
  facet normal 0 0 1
    outer loop
      vertex 2.16312 6.6574 -8
      vertex -0.522642 4.97261 -8
      vertex 3.5 6.06218 -8
    endloop
  endfacet
  facet normal 0 0 1
    outer loop
      vertex -0.522642 4.97261 -8
      vertex 0.522642 4.97261 -8
      vertex 3.5 6.06218 -8
    endloop
  endfacet
  facet normal 0 0 1
    outer loop
      vertex 3.5 6.06218 -8
      vertex 1.54508 4.75528 -8
      vertex 4.68391 5.20201 -8
    endloop
  endfacet
  facet normal 0 0 1
    outer loop
      vertex -4.04508 2.93893 -8
      vertex -3.34565 3.71572 -8
      vertex -6.84703 1.45538 -8
    endloop
  endfacet
  facet normal 0 0 1
    outer loop
      vertex 4.68391 5.20201 -8
      vertex 2.5 4.33013 -8
      vertex 5.66312 4.1145 -8
    endloop
  endfacet
  facet normal 0 0 1
    outer loop
      vertex 2.5 4.33013 -8
      vertex 3.34565 3.71572 -8
      vertex 5.66312 4.1145 -8
    endloop
  endfacet
  facet normal 0 0 1
    outer loop
      vertex 5.66312 4.1145 -8
      vertex 4.04508 2.93893 -8
      vertex 6.39482 2.84716 -8
    endloop
  endfacet
  facet normal 0 0 1
    outer loop
      vertex 4.89074 1.03956 -8
      vertex 5 0 -8
      vertex 7 0 -8
    endloop
  endfacet
  facet normal 0 0 1
    outer loop
      vertex 6.39482 2.84716 -8
      vertex 4.56773 2.03368 -8
      vertex 6.84703 1.45538 -8
    endloop
  endfacet
  facet normal 0 0 1
    outer loop
      vertex -4.56773 2.03368 -8
      vertex -4.04508 2.93893 -8
      vertex -6.84703 1.45538 -8
    endloop
  endfacet
  facet normal 0 0 1
    outer loop
      vertex 6.84703 1.45538 -8
      vertex 4.89074 1.03956 -8
      vertex 7 0 -8
    endloop
  endfacet
  facet normal 0 0 1
    outer loop
      vertex 7 0 -8
      vertex 5 0 -8
      vertex 6.84703 -1.45538 -8
    endloop
  endfacet
  facet normal 0 0 1
    outer loop
      vertex 6.84703 -1.45538 -8
      vertex 4.89074 -1.03956 -8
      vertex 6.39482 -2.84716 -8
    endloop
  endfacet
  facet normal 0 0 1
    outer loop
      vertex 4.56773 2.03368 -8
      vertex 4.89074 1.03956 -8
      vertex 6.84703 1.45538 -8
    endloop
  endfacet
  facet normal 0 0 1
    outer loop
      vertex 4.89074 -1.03956 -8
      vertex 4.56773 -2.03368 -8
      vertex 6.39482 -2.84716 -8
    endloop
  endfacet
  facet normal 0 0 1
    outer loop
      vertex 6.39482 -2.84716 -8
      vertex 4.04508 -2.93893 -8
      vertex 5.66312 -4.1145 -8
    endloop
  endfacet
  facet normal 0 0 1
    outer loop
      vertex 5.66312 -4.1145 -8
      vertex 3.34565 -3.71572 -8
      vertex 4.68391 -5.20201 -8
    endloop
  endfacet
  facet normal 0 0 1
    outer loop
      vertex 5 0 -8
      vertex 4.89074 -1.03956 -8
      vertex 6.84703 -1.45538 -8
    endloop
  endfacet
  facet normal 0 0 1
    outer loop
      vertex 4.68391 -5.20201 -8
      vertex 2.5 -4.33013 -8
      vertex 3.5 -6.06218 -8
    endloop
  endfacet
  facet normal 0 0 1
    outer loop
      vertex 3.5 -6.06218 -8
      vertex 1.54508 -4.75528 -8
      vertex 2.16312 -6.6574 -8
    endloop
  endfacet
  facet normal 0 0 1
    outer loop
      vertex 1.54508 -4.75528 -8
      vertex 0.522642 -4.97261 -8
      vertex 2.16312 -6.6574 -8
    endloop
  endfacet
  facet normal 0 0 1
    outer loop
      vertex 2.16312 -6.6574 -8
      vertex -0.522642 -4.97261 -8
      vertex 0.731699 -6.96165 -8
    endloop
  endfacet
  facet normal 0 0 1
    outer loop
      vertex 0.731699 -6.96165 -8
      vertex -1.54508 -4.75528 -8
      vertex -0.731699 -6.96165 -8
    endloop
  endfacet
  facet normal 0 0 1
    outer loop
      vertex -1.54508 -4.75528 -8
      vertex -2.5 -4.33013 -8
      vertex -0.731699 -6.96165 -8
    endloop
  endfacet
  facet normal 0 0 1
    outer loop
      vertex -0.731699 -6.96165 -8
      vertex -3.34565 -3.71572 -8
      vertex -2.16312 -6.6574 -8
    endloop
  endfacet
  facet normal 0 0 1
    outer loop
      vertex -3.34565 -3.71572 -8
      vertex -4.04508 -2.93893 -8
      vertex -2.16312 -6.6574 -8
    endloop
  endfacet
  facet normal 0 0 1
    outer loop
      vertex -4.56773 -2.03368 -8
      vertex -6.84703 1.45538 -8
      vertex -4.04508 -2.93893 -8
    endloop
  endfacet
  facet normal 0 0 1
    outer loop
      vertex -2.5 -4.33013 -8
      vertex -3.34565 -3.71572 -8
      vertex -0.731699 -6.96165 -8
    endloop
  endfacet
  facet normal 0 0 1
    outer loop
      vertex -4.56773 -2.03368 -8
      vertex -4.89074 -1.03956 -8
      vertex -6.84703 1.45538 -8
    endloop
  endfacet
  facet normal 0 0 1
    outer loop
      vertex -4.89074 -1.03956 -8
      vertex -5 0 -8
      vertex -6.84703 1.45538 -8
    endloop
  endfacet
  facet normal 0 0 1
    outer loop
      vertex 3.34565 -3.71572 -8
      vertex 2.5 -4.33013 -8
      vertex 4.68391 -5.20201 -8
    endloop
  endfacet
  facet normal 0 0 1
    outer loop
      vertex -0.522642 -4.97261 -8
      vertex -1.54508 -4.75528 -8
      vertex 0.731699 -6.96165 -8
    endloop
  endfacet
  facet normal 0 0 1
    outer loop
      vertex 0.522642 -4.97261 -8
      vertex -0.522642 -4.97261 -8
      vertex 2.16312 -6.6574 -8
    endloop
  endfacet
  facet normal 0 0 1
    outer loop
      vertex -5 0 -8
      vertex -4.89074 1.03956 -8
      vertex -6.84703 1.45538 -8
    endloop
  endfacet
  facet normal -0.994522 -0.104529 0
    outer loop
      vertex -5 0 -8
      vertex -4.89074 -1.03956 -8
      vertex -5 0 -7
    endloop
  endfacet
  facet normal -0.994522 -0.104529 0
    outer loop
      vertex -5 0 -7
      vertex -4.89074 -1.03956 -8
      vertex -4.89074 -1.03956 -7
    endloop
  endfacet
  facet normal -0.951057 -0.309017 0
    outer loop
      vertex -4.89074 -1.03956 -8
      vertex -4.56773 -2.03368 -8
      vertex -4.89074 -1.03956 -7
    endloop
  endfacet
  facet normal -0.951057 -0.309017 0
    outer loop
      vertex -4.57867 -2 -7
      vertex -4.56773 -2.03368 -8
      vertex -4.56773 -2.03368 2
    endloop
  endfacet
  facet normal -0.951057 -0.309017 0
    outer loop
      vertex -4.89074 -1.03956 -7
      vertex -4.56773 -2.03368 -8
      vertex -4.57867 -2 -7
    endloop
  endfacet
  facet normal -0.951057 -0.309017 0
    outer loop
      vertex -4.57867 -2 -7
      vertex -4.56773 -2.03368 2
      vertex -4.57867 -2 2
    endloop
  endfacet
  facet normal -0.866026 -0.5 0
    outer loop
      vertex -4.56773 -2.03368 -8
      vertex -4.04508 -2.93893 -8
      vertex -4.56773 -2.03368 2
    endloop
  endfacet
  facet normal -0.866026 -0.5 0
    outer loop
      vertex -4.56773 -2.03368 2
      vertex -4.04508 -2.93893 -8
      vertex -4.04508 -2.93893 2
    endloop
  endfacet
  facet normal -0.743144 -0.669131 0
    outer loop
      vertex -4.04508 -2.93893 -8
      vertex -3.34565 -3.71572 -8
      vertex -4.04508 -2.93893 2
    endloop
  endfacet
  facet normal -0.743144 -0.669131 0
    outer loop
      vertex -4.04508 -2.93893 2
      vertex -3.34565 -3.71572 -8
      vertex -3.34565 -3.71572 2
    endloop
  endfacet
  facet normal -0.587785 -0.809017 0
    outer loop
      vertex -3.34565 -3.71572 2
      vertex -3.34565 -3.71572 -8
      vertex -2.5 -4.33013 -8
    endloop
  endfacet
  facet normal -0.587785 -0.809017 0
    outer loop
      vertex -2.5 -4.33013 2
      vertex -3.34565 -3.71572 2
      vertex -2.5 -4.33013 -8
    endloop
  endfacet
  facet normal -0.406737 -0.913545 0
    outer loop
      vertex -2 -4.55274 -7
      vertex -2.5 -4.33013 -8
      vertex -1.54508 -4.75528 -8
    endloop
  endfacet
  facet normal -0.406737 -0.913545 0
    outer loop
      vertex -2 -4.55274 -7
      vertex -2 -4.55274 2
      vertex -2.5 -4.33013 2
    endloop
  endfacet
  facet normal -0.406737 -0.913545 0
    outer loop
      vertex -2.5 -4.33013 2
      vertex -2.5 -4.33013 -8
      vertex -2 -4.55274 -7
    endloop
  endfacet
  facet normal -0.406737 -0.913545 0
    outer loop
      vertex -1.54508 -4.75528 -7
      vertex -2 -4.55274 -7
      vertex -1.54508 -4.75528 -8
    endloop
  endfacet
  facet normal -0.207912 -0.978148 0
    outer loop
      vertex -1.54508 -4.75528 -7
      vertex -1.54508 -4.75528 -8
      vertex -0.522642 -4.97261 -8
    endloop
  endfacet
  facet normal -0.207912 -0.978148 0
    outer loop
      vertex -0.522642 -4.97261 -7
      vertex -1.54508 -4.75528 -7
      vertex -0.522642 -4.97261 -8
    endloop
  endfacet
  facet normal 0 -1 0
    outer loop
      vertex -0.522642 -4.97261 -7
      vertex -0.522642 -4.97261 -8
      vertex 0.522642 -4.97261 -8
    endloop
  endfacet
  facet normal 0 -1 0
    outer loop
      vertex 0.522642 -4.97261 -7
      vertex -0.522642 -4.97261 -7
      vertex 0.522642 -4.97261 -8
    endloop
  endfacet
  facet normal 0.207912 -0.978148 0
    outer loop
      vertex 0.522642 -4.97261 -7
      vertex 0.522642 -4.97261 -8
      vertex 1.54508 -4.75528 -8
    endloop
  endfacet
  facet normal 0.207912 -0.978148 0
    outer loop
      vertex 1.54508 -4.75528 -7
      vertex 0.522642 -4.97261 -7
      vertex 1.54508 -4.75528 -8
    endloop
  endfacet
  facet normal 0.406737 -0.913545 0
    outer loop
      vertex 1.54508 -4.75528 -7
      vertex 1.54508 -4.75528 -8
      vertex 2.5 -4.33013 -8
    endloop
  endfacet
  facet normal 0.406737 -0.913545 0
    outer loop
      vertex 2 -4.55274 -7
      vertex 1.54508 -4.75528 -7
      vertex 2.5 -4.33013 -8
    endloop
  endfacet
  facet normal 0.406737 -0.913545 0
    outer loop
      vertex 2.5 -4.33013 2
      vertex 2 -4.55274 -7
      vertex 2.5 -4.33013 -8
    endloop
  endfacet
  facet normal 0.406737 -0.913545 0
    outer loop
      vertex 2 -4.55274 2
      vertex 2 -4.55274 -7
      vertex 2.5 -4.33013 2
    endloop
  endfacet
  facet normal 0.587785 -0.809017 0
    outer loop
      vertex 2.5 -4.33013 2
      vertex 2.5 -4.33013 -8
      vertex 3.34565 -3.71572 -8
    endloop
  endfacet
  facet normal 0.587785 -0.809017 0
    outer loop
      vertex 3.34565 -3.71572 2
      vertex 2.5 -4.33013 2
      vertex 3.34565 -3.71572 -8
    endloop
  endfacet
  facet normal 0.743144 -0.669131 0
    outer loop
      vertex 3.34565 -3.71572 2
      vertex 3.34565 -3.71572 -8
      vertex 4.04508 -2.93893 -8
    endloop
  endfacet
  facet normal 0.743144 -0.669131 0
    outer loop
      vertex 4.04508 -2.93893 2
      vertex 3.34565 -3.71572 2
      vertex 4.04508 -2.93893 -8
    endloop
  endfacet
  facet normal 0.866026 -0.5 0
    outer loop
      vertex 4.04508 -2.93893 2
      vertex 4.04508 -2.93893 -8
      vertex 4.56773 -2.03368 -8
    endloop
  endfacet
  facet normal 0.866026 -0.5 0
    outer loop
      vertex 4.56773 -2.03368 2
      vertex 4.04508 -2.93893 2
      vertex 4.56773 -2.03368 -8
    endloop
  endfacet
  facet normal 0.951057 -0.309017 0
    outer loop
      vertex 4.57867 -2 -7
      vertex 4.56773 -2.03368 -8
      vertex 4.89074 -1.03956 -8
    endloop
  endfacet
  facet normal 0.951057 -0.309017 0
    outer loop
      vertex 4.57867 -2 -7
      vertex 4.57867 -2 2
      vertex 4.56773 -2.03368 2
    endloop
  endfacet
  facet normal 0.951057 -0.309017 0
    outer loop
      vertex 4.56773 -2.03368 2
      vertex 4.56773 -2.03368 -8
      vertex 4.57867 -2 -7
    endloop
  endfacet
  facet normal 0.951057 -0.309017 0
    outer loop
      vertex 4.89074 -1.03956 -7
      vertex 4.57867 -2 -7
      vertex 4.89074 -1.03956 -8
    endloop
  endfacet
  facet normal 0.994522 -0.104529 0
    outer loop
      vertex 4.89074 -1.03956 -7
      vertex 4.89074 -1.03956 -8
      vertex 5 0 -8
    endloop
  endfacet
  facet normal 0.994522 -0.104529 0
    outer loop
      vertex 5 0 -7
      vertex 4.89074 -1.03956 -7
      vertex 5 0 -8
    endloop
  endfacet
  facet normal 0.994522 0.104529 0
    outer loop
      vertex 5 0 -8
      vertex 4.89074 1.03956 -8
      vertex 4.89074 1.03956 -7
    endloop
  endfacet
  facet normal 0.994522 0.104529 0
    outer loop
      vertex 5 0 -7
      vertex 5 0 -8
      vertex 4.89074 1.03956 -7
    endloop
  endfacet
  facet normal 0.951057 0.309017 0
    outer loop
      vertex 4.57867 2 -7
      vertex 4.56773 2.03368 -8
      vertex 4.56773 2.03368 2
    endloop
  endfacet
  facet normal 0.951057 0.309017 0
    outer loop
      vertex 4.57867 2 -7
      vertex 4.89074 1.03956 -7
      vertex 4.89074 1.03956 -8
    endloop
  endfacet
  facet normal 0.951057 0.309017 0
    outer loop
      vertex 4.89074 1.03956 -8
      vertex 4.56773 2.03368 -8
      vertex 4.57867 2 -7
    endloop
  endfacet
  facet normal 0.951057 0.309017 0
    outer loop
      vertex 4.57867 2 2
      vertex 4.57867 2 -7
      vertex 4.56773 2.03368 2
    endloop
  endfacet
  facet normal 0.866026 0.5 0
    outer loop
      vertex 4.56773 2.03368 -8
      vertex 4.04508 2.93893 -8
      vertex 4.04508 2.93893 2
    endloop
  endfacet
  facet normal 0.866026 0.5 0
    outer loop
      vertex 4.56773 2.03368 2
      vertex 4.56773 2.03368 -8
      vertex 4.04508 2.93893 2
    endloop
  endfacet
  facet normal 0.743144 0.669131 0
    outer loop
      vertex 4.04508 2.93893 -8
      vertex 3.34565 3.71572 -8
      vertex 3.34565 3.71572 2
    endloop
  endfacet
  facet normal 0.743144 0.669131 0
    outer loop
      vertex 4.04508 2.93893 2
      vertex 4.04508 2.93893 -8
      vertex 3.34565 3.71572 2
    endloop
  endfacet
  facet normal 0.587785 0.809017 0
    outer loop
      vertex 2.5 4.33013 -8
      vertex 2.5 4.33013 2
      vertex 3.34565 3.71572 -8
    endloop
  endfacet
  facet normal 0.587785 0.809017 0
    outer loop
      vertex 3.34565 3.71572 -8
      vertex 2.5 4.33013 2
      vertex 3.34565 3.71572 2
    endloop
  endfacet
  facet normal 0.406737 0.913545 0
    outer loop
      vertex 1.54508 4.75528 -8
      vertex 1.54508 4.75528 -7
      vertex 2.5 4.33013 -8
    endloop
  endfacet
  facet normal 0.406737 0.913545 0
    outer loop
      vertex 2.5 4.33013 -8
      vertex 1.54508 4.75528 -7
      vertex 2 4.55274 -7
    endloop
  endfacet
  facet normal 0.406737 0.913545 0
    outer loop
      vertex 2.5 4.33013 -8
      vertex 2 4.55274 -7
      vertex 2 4.55274 2
    endloop
  endfacet
  facet normal 0.406737 0.913545 0
    outer loop
      vertex 2.5 4.33013 -8
      vertex 2 4.55274 2
      vertex 2.5 4.33013 2
    endloop
  endfacet
  facet normal 0.207912 0.978148 0
    outer loop
      vertex 0.522642 4.97261 -8
      vertex 0.522642 4.97261 -7
      vertex 1.54508 4.75528 -8
    endloop
  endfacet
  facet normal 0.207912 0.978148 0
    outer loop
      vertex 1.54508 4.75528 -8
      vertex 0.522642 4.97261 -7
      vertex 1.54508 4.75528 -7
    endloop
  endfacet
  facet normal 0 1 0
    outer loop
      vertex -0.522642 4.97261 -8
      vertex -0.522642 4.97261 -7
      vertex 0.522642 4.97261 -8
    endloop
  endfacet
  facet normal 0 1 0
    outer loop
      vertex 0.522642 4.97261 -8
      vertex -0.522642 4.97261 -7
      vertex 0.522642 4.97261 -7
    endloop
  endfacet
  facet normal -0.207912 0.978148 0
    outer loop
      vertex -1.54508 4.75528 -8
      vertex -1.54508 4.75528 -7
      vertex -0.522642 4.97261 -8
    endloop
  endfacet
  facet normal -0.207912 0.978148 0
    outer loop
      vertex -0.522642 4.97261 -8
      vertex -1.54508 4.75528 -7
      vertex -0.522642 4.97261 -7
    endloop
  endfacet
  facet normal -0.406737 0.913545 0
    outer loop
      vertex -1.54508 4.75528 -7
      vertex -1.54508 4.75528 -8
      vertex -2 4.55274 -7
    endloop
  endfacet
  facet normal -0.406737 0.913545 0
    outer loop
      vertex -2.5 4.33013 -8
      vertex -2.5 4.33013 2
      vertex -2 4.55274 -7
    endloop
  endfacet
  facet normal -0.406737 0.913545 0
    outer loop
      vertex -2.5 4.33013 -8
      vertex -2 4.55274 -7
      vertex -1.54508 4.75528 -8
    endloop
  endfacet
  facet normal -0.406737 0.913545 0
    outer loop
      vertex -2 4.55274 -7
      vertex -2.5 4.33013 2
      vertex -2 4.55274 2
    endloop
  endfacet
  facet normal -0.587785 0.809017 0
    outer loop
      vertex -3.34565 3.71572 -8
      vertex -3.34565 3.71572 2
      vertex -2.5 4.33013 -8
    endloop
  endfacet
  facet normal -0.587785 0.809017 0
    outer loop
      vertex -2.5 4.33013 -8
      vertex -3.34565 3.71572 2
      vertex -2.5 4.33013 2
    endloop
  endfacet
  facet normal -0.743144 0.669131 0
    outer loop
      vertex -4.04508 2.93893 -8
      vertex -4.04508 2.93893 2
      vertex -3.34565 3.71572 -8
    endloop
  endfacet
  facet normal -0.743144 0.669131 0
    outer loop
      vertex -3.34565 3.71572 -8
      vertex -4.04508 2.93893 2
      vertex -3.34565 3.71572 2
    endloop
  endfacet
  facet normal -0.866026 0.5 0
    outer loop
      vertex -4.56773 2.03368 -8
      vertex -4.56773 2.03368 2
      vertex -4.04508 2.93893 -8
    endloop
  endfacet
  facet normal -0.866026 0.5 0
    outer loop
      vertex -4.04508 2.93893 -8
      vertex -4.56773 2.03368 2
      vertex -4.04508 2.93893 2
    endloop
  endfacet
  facet normal -0.951057 0.309017 0
    outer loop
      vertex -4.89074 1.03956 -8
      vertex -4.89074 1.03956 -7
      vertex -4.56773 2.03368 -8
    endloop
  endfacet
  facet normal -0.951057 0.309017 0
    outer loop
      vertex -4.56773 2.03368 -8
      vertex -4.89074 1.03956 -7
      vertex -4.57867 2 -7
    endloop
  endfacet
  facet normal -0.951057 0.309017 0
    outer loop
      vertex -4.56773 2.03368 -8
      vertex -4.57867 2 -7
      vertex -4.57867 2 2
    endloop
  endfacet
  facet normal -0.951057 0.309017 0
    outer loop
      vertex -4.56773 2.03368 -8
      vertex -4.57867 2 2
      vertex -4.56773 2.03368 2
    endloop
  endfacet
  facet normal -0.994522 0.104529 0
    outer loop
      vertex -5 0 -8
      vertex -5 0 -7
      vertex -4.89074 1.03956 -8
    endloop
  endfacet
  facet normal -0.994522 0.104529 0
    outer loop
      vertex -4.89074 1.03956 -8
      vertex -5 0 -7
      vertex -4.89074 1.03956 -7
    endloop
  endfacet
  facet normal 0 0 1
    outer loop
      vertex 2 2 -7
      vertex 2 4.55274 -7
      vertex -4.89074 -1.03956 -7
    endloop
  endfacet
  facet normal 0 0 1
    outer loop
      vertex -4.89074 -1.03956 -7
      vertex -4.57867 -2 -7
      vertex -2 -2 -7
    endloop
  endfacet
  facet normal 0 0 1
    outer loop
      vertex 2 -2 -7
      vertex -4.89074 -1.03956 -7
      vertex -2 -2 -7
    endloop
  endfacet
  facet normal 0 0 1
    outer loop
      vertex -2 -4.55274 -7
      vertex -1.54508 -4.75528 -7
      vertex -2 -2 -7
    endloop
  endfacet
  facet normal 0 0 1
    outer loop
      vertex -1.54508 -4.75528 -7
      vertex -0.522642 -4.97261 -7
      vertex -2 -2 -7
    endloop
  endfacet
  facet normal 0 0 1
    outer loop
      vertex -0.522642 -4.97261 -7
      vertex 0.522642 -4.97261 -7
      vertex -2 -2 -7
    endloop
  endfacet
  facet normal 0 0 1
    outer loop
      vertex 0.522642 -4.97261 -7
      vertex 1.54508 -4.75528 -7
      vertex -2 -2 -7
    endloop
  endfacet
  facet normal 0 0 1
    outer loop
      vertex 1.54508 -4.75528 -7
      vertex 2 -4.55274 -7
      vertex -2 -2 -7
    endloop
  endfacet
  facet normal 0 0 1
    outer loop
      vertex 2 -4.55274 -7
      vertex 2 -2 -7
      vertex -2 -2 -7
    endloop
  endfacet
  facet normal 0 0 1
    outer loop
      vertex 2 -2 -7
      vertex 4.57867 -2 -7
      vertex -4.89074 -1.03956 -7
    endloop
  endfacet
  facet normal 0 0 1
    outer loop
      vertex 4.57867 -2 -7
      vertex 4.89074 -1.03956 -7
      vertex -4.89074 -1.03956 -7
    endloop
  endfacet
  facet normal 0 0 1
    outer loop
      vertex 4.89074 -1.03956 -7
      vertex 5 0 -7
      vertex -4.89074 -1.03956 -7
    endloop
  endfacet
  facet normal 0 0 1
    outer loop
      vertex 5 0 -7
      vertex 4.89074 1.03956 -7
      vertex -4.89074 -1.03956 -7
    endloop
  endfacet
  facet normal 0 0 1
    outer loop
      vertex 4.89074 1.03956 -7
      vertex 4.57867 2 -7
      vertex -4.89074 -1.03956 -7
    endloop
  endfacet
  facet normal 0 0 1
    outer loop
      vertex 4.57867 2 -7
      vertex 2 2 -7
      vertex -4.89074 -1.03956 -7
    endloop
  endfacet
  facet normal 0 0 1
    outer loop
      vertex 2 4.55274 -7
      vertex 1.54508 4.75528 -7
      vertex -4.89074 -1.03956 -7
    endloop
  endfacet
  facet normal 0 0 1
    outer loop
      vertex -2 2 -7
      vertex -4.57867 2 -7
      vertex -4.89074 -1.03956 -7
    endloop
  endfacet
  facet normal 0 0 1
    outer loop
      vertex 1.54508 4.75528 -7
      vertex -2 2 -7
      vertex -4.89074 -1.03956 -7
    endloop
  endfacet
  facet normal 0 0 1
    outer loop
      vertex 1.54508 4.75528 -7
      vertex 0.522642 4.97261 -7
      vertex -2 2 -7
    endloop
  endfacet
  facet normal 0 0 1
    outer loop
      vertex -4.57867 2 -7
      vertex -4.89074 1.03956 -7
      vertex -4.89074 -1.03956 -7
    endloop
  endfacet
  facet normal 0 0 1
    outer loop
      vertex -4.89074 1.03956 -7
      vertex -5 0 -7
      vertex -4.89074 -1.03956 -7
    endloop
  endfacet
  facet normal 0 0 1
    outer loop
      vertex -2 4.55274 -7
      vertex -0.522642 4.97261 -7
      vertex -1.54508 4.75528 -7
    endloop
  endfacet
  facet normal 0 0 1
    outer loop
      vertex -2 4.55274 -7
      vertex 0.522642 4.97261 -7
      vertex -0.522642 4.97261 -7
    endloop
  endfacet
  facet normal 0 0 1
    outer loop
      vertex -2 4.55274 -7
      vertex -2 2 -7
      vertex 0.522642 4.97261 -7
    endloop
  endfacet
  facet normal 6.12323e-17 1 0
    outer loop
      vertex -2.75276 -2 13.6201
      vertex -2 -2 14.6748
      vertex -4.49207 -2 10.7803
    endloop
  endfacet
  facet normal 6.12323e-17 1 0
    outer loop
      vertex -4.49207 -2 10.7803
      vertex -2 -2 14.6748
      vertex -2 -2 -7
    endloop
  endfacet
  facet normal 6.12323e-17 1 0
    outer loop
      vertex -4.49207 -2 10.7803
      vertex -2 -2 -7
      vertex -4.57867 -2 -7
    endloop
  endfacet
  facet normal 6.12323e-17 1 0
    outer loop
      vertex -4.49207 -2 10.7803
      vertex -4.57867 -2 -7
      vertex -4.57867 -2 2
    endloop
  endfacet
  facet normal 6.12323e-17 1 0
    outer loop
      vertex -4.49207 -2 10.7803
      vertex -4.57867 -2 2
      vertex -4.86396 -2 2.27282
    endloop
  endfacet
  facet normal 6.12323e-17 1 0
    outer loop
      vertex -4.49207 -2 10.7803
      vertex -4.86396 -2 2.27282
      vertex -7.71578 -2 5
    endloop
  endfacet
  facet normal -0.674343 -0.219107 -0.705162
    outer loop
      vertex -4.56773 -2.03368 2
      vertex -4.86396 -2 2.27282
      vertex -4.57867 -2 2
    endloop
  endfacet
  facet normal -0.674343 -0.219107 -0.705162
    outer loop
      vertex -7.71578 -2 5
      vertex -4.86396 -2 2.27282
      vertex -7.30836 -3.25389 5
    endloop
  endfacet
  facet normal -0.674343 -0.219107 -0.705162
    outer loop
      vertex -7.30836 -3.25389 5
      vertex -4.86396 -2 2.27282
      vertex -4.56773 -2.03368 2
    endloop
  endfacet
  facet normal -0.614052 -0.354523 -0.705162
    outer loop
      vertex -4.04508 -2.93893 2
      vertex -7.30836 -3.25389 5
      vertex -4.56773 -2.03368 2
    endloop
  endfacet
  facet normal -0.614052 -0.354523 -0.705162
    outer loop
      vertex -6.47214 -4.70228 5
      vertex -7.30836 -3.25389 5
      vertex -4.04508 -2.93893 2
    endloop
  endfacet
  facet normal -0.526924 -0.474445 -0.705162
    outer loop
      vertex -3.34565 -3.71572 2
      vertex -6.47214 -4.70228 5
      vertex -4.04508 -2.93893 2
    endloop
  endfacet
  facet normal -0.526924 -0.474444 -0.705162
    outer loop
      vertex -5.35304 -5.94516 5
      vertex -6.47214 -4.70228 5
      vertex -3.34565 -3.71572 2
    endloop
  endfacet
  facet normal -0.416767 -0.57363 -0.705162
    outer loop
      vertex -2.5 -4.33013 2
      vertex -5.35304 -5.94516 5
      vertex -3.34565 -3.71572 2
    endloop
  endfacet
  facet normal -0.416767 -0.57363 -0.705162
    outer loop
      vertex -4 -6.9282 5
      vertex -5.35304 -5.94516 5
      vertex -2.5 -4.33013 2
    endloop
  endfacet
  facet normal -0.288395 -0.647746 -0.705162
    outer loop
      vertex -4 -6.9282 5
      vertex -2.5 -4.33013 2
      vertex -2 -5.15794 2.55592
    endloop
  endfacet
  facet normal -0.288395 -0.647746 -0.705162
    outer loop
      vertex -2 -5.15794 2.55592
      vertex -2.5 -4.33013 2
      vertex -2 -4.55274 2
    endloop
  endfacet
  facet normal 1 0 0
    outer loop
      vertex -2 -6.97009 4.27345
      vertex -2 -6.15537 3.47214
      vertex -2 -5.15794 2.55592
    endloop
  endfacet
  facet normal 1 0 0
    outer loop
      vertex -2 -2 14.6748
      vertex -2 -6.97009 4.27345
      vertex -2 -4.55274 2
    endloop
  endfacet
  facet normal 1 0 0
    outer loop
      vertex -2 -4.55274 2
      vertex -2 -6.97009 4.27345
      vertex -2 -5.15794 2.55592
    endloop
  endfacet
  facet normal 1 0 0
    outer loop
      vertex -2 -4.55274 -7
      vertex -2 -2 -7
      vertex -2 -4.55274 2
    endloop
  endfacet
  facet normal 1 0 0
    outer loop
      vertex -2 -2 -7
      vertex -2 -2 14.6748
      vertex -2 -4.55274 2
    endloop
  endfacet
  facet normal 1 0 0
    outer loop
      vertex -2 -2 14.6748
      vertex -2 -2.22123 14.3957
      vertex -2 -6.97009 4.27345
    endloop
  endfacet
  facet normal 1 0 0
    outer loop
      vertex -2 -2.22123 14.3957
      vertex -2 -3.4641 12.5
      vertex -2 -6.97009 4.27345
    endloop
  endfacet
  facet normal 1 0 0
    outer loop
      vertex -2 -3.4641 12.5
      vertex -2 -6.15537 7.86474
      vertex -2 -6.97009 4.27345
    endloop
  endfacet
  facet normal 1 0 0
    outer loop
      vertex -2 -6.15537 7.86474
      vertex -2 -7.70881 5
      vertex -2 -6.97009 4.27345
    endloop
  endfacet
  facet normal -1 0 0
    outer loop
      vertex 2 -3.4641 12.5
      vertex 2 -2.22123 14.3957
      vertex 2 -6.15537 7.86474
    endloop
  endfacet
  facet normal -1 0 0
    outer loop
      vertex 2 -6.15537 7.86474
      vertex 2 -2.22123 14.3957
      vertex 2 -2 14.6748
    endloop
  endfacet
  facet normal -1 0 0
    outer loop
      vertex 2 -6.15537 7.86474
      vertex 2 -2 14.6748
      vertex 2 -2 -7
    endloop
  endfacet
  facet normal -1 0 0
    outer loop
      vertex 2 -4.55274 2
      vertex 2 -2 -7
      vertex 2 -4.55274 -7
    endloop
  endfacet
  facet normal -1 0 0
    outer loop
      vertex 2 -6.15537 7.86474
      vertex 2 -2 -7
      vertex 2 -4.55274 2
    endloop
  endfacet
  facet normal -1 0 0
    outer loop
      vertex 2 -6.15537 7.86474
      vertex 2 -6.15537 3.47214
      vertex 2 -7.70881 5
    endloop
  endfacet
  facet normal -1 0 0
    outer loop
      vertex 2 -6.15537 3.47214
      vertex 2 -6.15537 7.86474
      vertex 2 -4.55274 2
    endloop
  endfacet
  facet normal 0.288395 -0.647746 -0.705162
    outer loop
      vertex 2 -6.15537 3.47214
      vertex 2 -4.55274 2
      vertex 2.47214 -7.60845 5
    endloop
  endfacet
  facet normal 0.288395 -0.647746 -0.705162
    outer loop
      vertex 2.47214 -7.60845 5
      vertex 2 -4.55274 2
      vertex 2.5 -4.33013 2
    endloop
  endfacet
  facet normal 0.288395 -0.647746 -0.705162
    outer loop
      vertex 4 -6.9282 5
      vertex 2.47214 -7.60845 5
      vertex 2.5 -4.33013 2
    endloop
  endfacet
  facet normal 0.416767 -0.57363 -0.705162
    outer loop
      vertex 4 -6.9282 5
      vertex 2.5 -4.33013 2
      vertex 3.34565 -3.71572 2
    endloop
  endfacet
  facet normal 0.416767 -0.57363 -0.705162
    outer loop
      vertex 4 -6.9282 5
      vertex 3.34565 -3.71572 2
      vertex 5.35304 -5.94516 5
    endloop
  endfacet
  facet normal 0.526924 -0.474445 -0.705162
    outer loop
      vertex 5.35304 -5.94516 5
      vertex 3.34565 -3.71572 2
      vertex 4.04508 -2.93893 2
    endloop
  endfacet
  facet normal 0.526924 -0.474444 -0.705162
    outer loop
      vertex 5.35304 -5.94516 5
      vertex 4.04508 -2.93893 2
      vertex 6.47214 -4.70228 5
    endloop
  endfacet
  facet normal 0.614052 -0.354523 -0.705162
    outer loop
      vertex 6.47214 -4.70228 5
      vertex 4.04508 -2.93893 2
      vertex 4.56773 -2.03368 2
    endloop
  endfacet
  facet normal 0.614052 -0.354523 -0.705162
    outer loop
      vertex 6.47214 -4.70228 5
      vertex 4.56773 -2.03368 2
      vertex 7.30836 -3.25389 5
    endloop
  endfacet
  facet normal 0.674343 -0.219107 -0.705162
    outer loop
      vertex 4.56773 -2.03368 2
      vertex 4.57867 -2 2
      vertex 7.30836 -3.25389 5
    endloop
  endfacet
  facet normal 0.674343 -0.219107 -0.705162
    outer loop
      vertex 7.30836 -3.25389 5
      vertex 4.57867 -2 2
      vertex 5.93935 -2 3.30121
    endloop
  endfacet
  facet normal 6.12323e-17 1 0
    outer loop
      vertex 2.75276 -2 13.6201
      vertex 4.49207 -2 10.7803
      vertex 2 -2 14.6748
    endloop
  endfacet
  facet normal 6.12323e-17 1 0
    outer loop
      vertex 2 -2 14.6748
      vertex 4.49207 -2 10.7803
      vertex 7.71578 -2 5
    endloop
  endfacet
  facet normal 6.12323e-17 1 0
    outer loop
      vertex 2 -2 14.6748
      vertex 7.71578 -2 5
      vertex 5.93935 -2 3.30121
    endloop
  endfacet
  facet normal 6.12323e-17 1 0
    outer loop
      vertex 2 -2 14.6748
      vertex 5.93935 -2 3.30121
      vertex 4.57867 -2 2
    endloop
  endfacet
  facet normal 6.12323e-17 1 0
    outer loop
      vertex 4.57867 -2 2
      vertex 4.57867 -2 -7
      vertex 2 -2 14.6748
    endloop
  endfacet
  facet normal 6.12323e-17 1 0
    outer loop
      vertex 2 -2 14.6748
      vertex 4.57867 -2 -7
      vertex 2 -2 -7
    endloop
  endfacet
  facet normal -6.12323e-17 -1 0
    outer loop
      vertex 7.71578 2 5
      vertex 4.57867 2 2
      vertex 4.86396 2 2.27282
    endloop
  endfacet
  facet normal -6.12323e-17 -1 0
    outer loop
      vertex 4.57867 2 -7
      vertex 4.57867 2 2
      vertex 4.49207 2 10.7803
    endloop
  endfacet
  facet normal -6.12323e-17 -1 0
    outer loop
      vertex 7.71578 2 5
      vertex 4.49207 2 10.7803
      vertex 4.57867 2 2
    endloop
  endfacet
  facet normal -6.12323e-17 -1 0
    outer loop
      vertex 4.49207 2 10.7803
      vertex 2.75276 2 13.6201
      vertex 4.57867 2 -7
    endloop
  endfacet
  facet normal -6.12323e-17 -1 0
    outer loop
      vertex 2.75276 2 13.6201
      vertex 2 2 14.6748
      vertex 4.57867 2 -7
    endloop
  endfacet
  facet normal -6.12323e-17 -1 0
    outer loop
      vertex 2 2 14.6748
      vertex 2 2 -7
      vertex 4.57867 2 -7
    endloop
  endfacet
  facet normal 0.674343 0.219107 -0.705162
    outer loop
      vertex 4.57867 2 2
      vertex 4.56773 2.03368 2
      vertex 4.86396 2 2.27282
    endloop
  endfacet
  facet normal 0.674343 0.219107 -0.705162
    outer loop
      vertex 4.56773 2.03368 2
      vertex 7.30836 3.25389 5
      vertex 4.86396 2 2.27282
    endloop
  endfacet
  facet normal 0.674343 0.219107 -0.705162
    outer loop
      vertex 4.86396 2 2.27282
      vertex 7.30836 3.25389 5
      vertex 7.71578 2 5
    endloop
  endfacet
  facet normal 0.614052 0.354523 -0.705162
    outer loop
      vertex 4.56773 2.03368 2
      vertex 4.04508 2.93893 2
      vertex 7.30836 3.25389 5
    endloop
  endfacet
  facet normal 0.614052 0.354523 -0.705162
    outer loop
      vertex 7.30836 3.25389 5
      vertex 4.04508 2.93893 2
      vertex 6.47214 4.70228 5
    endloop
  endfacet
  facet normal 0.526924 0.474445 -0.705162
    outer loop
      vertex 4.04508 2.93893 2
      vertex 3.34565 3.71572 2
      vertex 6.47214 4.70228 5
    endloop
  endfacet
  facet normal 0.526924 0.474444 -0.705162
    outer loop
      vertex 6.47214 4.70228 5
      vertex 3.34565 3.71572 2
      vertex 5.35304 5.94516 5
    endloop
  endfacet
  facet normal 0.416767 0.57363 -0.705162
    outer loop
      vertex 3.34565 3.71572 2
      vertex 2.5 4.33013 2
      vertex 5.35304 5.94516 5
    endloop
  endfacet
  facet normal 0.416767 0.57363 -0.705162
    outer loop
      vertex 5.35304 5.94516 5
      vertex 2.5 4.33013 2
      vertex 4 6.9282 5
    endloop
  endfacet
  facet normal 0.288395 0.647746 -0.705162
    outer loop
      vertex 2 4.55274 2
      vertex 2 5.15794 2.55592
      vertex 2.5 4.33013 2
    endloop
  endfacet
  facet normal 0.288395 0.647746 -0.705162
    outer loop
      vertex 2.5 4.33013 2
      vertex 2 5.15794 2.55592
      vertex 4 6.9282 5
    endloop
  endfacet
  facet normal -1 0 0
    outer loop
      vertex 2 2.22123 14.3957
      vertex 2 3.4641 12.5
      vertex 2 2 14.6748
    endloop
  endfacet
  facet normal -1 0 0
    outer loop
      vertex 2 2 14.6748
      vertex 2 3.4641 12.5
      vertex 2 6.15537 7.86474
    endloop
  endfacet
  facet normal -1 0 0
    outer loop
      vertex 2 2 14.6748
      vertex 2 6.15537 7.86474
      vertex 2 7.70881 5
    endloop
  endfacet
  facet normal -1 0 0
    outer loop
      vertex 2 2 14.6748
      vertex 2 7.70881 5
      vertex 2 6.97009 4.27345
    endloop
  endfacet
  facet normal -1 0 0
    outer loop
      vertex 2 2 14.6748
      vertex 2 6.97009 4.27345
      vertex 2 6.15537 3.47214
    endloop
  endfacet
  facet normal -1 0 0
    outer loop
      vertex 2 2 14.6748
      vertex 2 6.15537 3.47214
      vertex 2 5.15794 2.55592
    endloop
  endfacet
  facet normal -1 0 0
    outer loop
      vertex 2 2 14.6748
      vertex 2 5.15794 2.55592
      vertex 2 4.55274 2
    endloop
  endfacet
  facet normal -1 0 0
    outer loop
      vertex 2 2 14.6748
      vertex 2 4.55274 2
      vertex 2 4.55274 -7
    endloop
  endfacet
  facet normal -1 0 0
    outer loop
      vertex 2 2 14.6748
      vertex 2 4.55274 -7
      vertex 2 2 -7
    endloop
  endfacet
  facet normal 1 0 0
    outer loop
      vertex -2 7.70881 5
      vertex -2 4.55274 2
      vertex -2 6.15537 3.47214
    endloop
  endfacet
  facet normal 1 0 0
    outer loop
      vertex -2 4.55274 -7
      vertex -2 4.55274 2
      vertex -2 3.4641 12.5
    endloop
  endfacet
  facet normal 1 0 0
    outer loop
      vertex -2 7.70881 5
      vertex -2 6.15537 7.86474
      vertex -2 4.55274 2
    endloop
  endfacet
  facet normal 1 0 0
    outer loop
      vertex -2 6.15537 7.86474
      vertex -2 3.4641 12.5
      vertex -2 4.55274 2
    endloop
  endfacet
  facet normal 1 0 0
    outer loop
      vertex -2 3.4641 12.5
      vertex -2 2.22123 14.3957
      vertex -2 4.55274 -7
    endloop
  endfacet
  facet normal 1 0 0
    outer loop
      vertex -2 2.22123 14.3957
      vertex -2 2 14.6748
      vertex -2 4.55274 -7
    endloop
  endfacet
  facet normal 1 0 0
    outer loop
      vertex -2 2 14.6748
      vertex -2 2 -7
      vertex -2 4.55274 -7
    endloop
  endfacet
  facet normal -0.288395 0.647746 -0.705162
    outer loop
      vertex -2.5 4.33013 2
      vertex -2.47214 7.60845 5
      vertex -2 4.55274 2
    endloop
  endfacet
  facet normal -0.288395 0.647746 -0.705162
    outer loop
      vertex -2 4.55274 2
      vertex -2.47214 7.60845 5
      vertex -2 6.15537 3.47214
    endloop
  endfacet
  facet normal -0.288395 0.647746 -0.705162
    outer loop
      vertex -2.5 4.33013 2
      vertex -4 6.9282 5
      vertex -2.47214 7.60845 5
    endloop
  endfacet
  facet normal -0.416767 0.57363 -0.705162
    outer loop
      vertex -3.34565 3.71572 2
      vertex -4 6.9282 5
      vertex -2.5 4.33013 2
    endloop
  endfacet
  facet normal -0.416767 0.57363 -0.705162
    outer loop
      vertex -3.34565 3.71572 2
      vertex -5.35304 5.94516 5
      vertex -4 6.9282 5
    endloop
  endfacet
  facet normal -0.526924 0.474445 -0.705162
    outer loop
      vertex -4.04508 2.93893 2
      vertex -5.35304 5.94516 5
      vertex -3.34565 3.71572 2
    endloop
  endfacet
  facet normal -0.526924 0.474444 -0.705162
    outer loop
      vertex -4.04508 2.93893 2
      vertex -6.47214 4.70228 5
      vertex -5.35304 5.94516 5
    endloop
  endfacet
  facet normal -0.614052 0.354523 -0.705162
    outer loop
      vertex -4.56773 2.03368 2
      vertex -6.47214 4.70228 5
      vertex -4.04508 2.93893 2
    endloop
  endfacet
  facet normal -0.614052 0.354523 -0.705162
    outer loop
      vertex -4.56773 2.03368 2
      vertex -7.30836 3.25389 5
      vertex -6.47214 4.70228 5
    endloop
  endfacet
  facet normal -0.674343 0.219107 -0.705162
    outer loop
      vertex -7.30836 3.25389 5
      vertex -4.56773 2.03368 2
      vertex -5.93935 2 3.30121
    endloop
  endfacet
  facet normal -0.674343 0.219107 -0.705162
    outer loop
      vertex -5.93935 2 3.30121
      vertex -4.56773 2.03368 2
      vertex -4.57867 2 2
    endloop
  endfacet
  facet normal -6.12323e-17 -1 0
    outer loop
      vertex -2 2 -7
      vertex -4.57867 2 2
      vertex -4.57867 2 -7
    endloop
  endfacet
  facet normal -6.12323e-17 -1 0
    outer loop
      vertex -2 2 14.6748
      vertex -4.57867 2 2
      vertex -2 2 -7
    endloop
  endfacet
  facet normal -6.12323e-17 -1 0
    outer loop
      vertex -5.93935 2 3.30121
      vertex -4.57867 2 2
      vertex -2 2 14.6748
    endloop
  endfacet
  facet normal -6.12323e-17 -1 0
    outer loop
      vertex -2.75276 2 13.6201
      vertex -5.93935 2 3.30121
      vertex -2 2 14.6748
    endloop
  endfacet
  facet normal -6.12323e-17 -1 0
    outer loop
      vertex -4.49207 2 10.7803
      vertex -5.93935 2 3.30121
      vertex -2.75276 2 13.6201
    endloop
  endfacet
  facet normal -6.12323e-17 -1 0
    outer loop
      vertex -7.71578 2 5
      vertex -5.93935 2 3.30121
      vertex -4.49207 2 10.7803
    endloop
  endfacet
  facet normal -0.765066 -0.441711 0.468578
    outer loop
      vertex -7.30836 -3.25389 5
      vertex -6.47214 -4.70228 5
      vertex -4.49207 -2 10.7803
    endloop
  endfacet
  facet normal -0.765066 -0.441711 0.468578
    outer loop
      vertex -4.49207 -2 10.7803
      vertex -6.47214 -4.70228 5
      vertex -2.75276 -2 13.6201
    endloop
  endfacet
  facet normal -0.840185 -0.272993 0.468578
    outer loop
      vertex -4.49207 -2 10.7803
      vertex -7.71578 -2 5
      vertex -7.30836 -3.25389 5
    endloop
  endfacet
  facet normal -0.656511 -0.591125 0.468578
    outer loop
      vertex -6.47214 -4.70228 5
      vertex -5.35304 -5.94516 5
      vertex -2.75276 -2 13.6201
    endloop
  endfacet
  facet normal -0.656511 -0.591125 0.468578
    outer loop
      vertex -2.75276 -2 13.6201
      vertex -5.35304 -5.94516 5
      vertex -2 -2.22123 14.3957
    endloop
  endfacet
  facet normal -0.656511 -0.591125 0.468578
    outer loop
      vertex -2.75276 -2 13.6201
      vertex -2 -2.22123 14.3957
      vertex -2 -2 14.6748
    endloop
  endfacet
  facet normal -0.519263 -0.714704 0.468578
    outer loop
      vertex -2 -2.22123 14.3957
      vertex -5.35304 -5.94516 5
      vertex -4 -6.9282 5
    endloop
  endfacet
  facet normal -0.519263 -0.714704 0.468578
    outer loop
      vertex -2 -3.4641 12.5
      vertex -2 -2.22123 14.3957
      vertex -4 -6.9282 5
    endloop
  endfacet
  facet normal -0.35932 -0.807047 0.468578
    outer loop
      vertex -2 -3.4641 12.5
      vertex -4 -6.9282 5
      vertex -2.47214 -7.60845 5
    endloop
  endfacet
  facet normal -0.35932 -0.807047 0.468578
    outer loop
      vertex -2 -6.15537 7.86474
      vertex -2 -3.4641 12.5
      vertex -2.47214 -7.60845 5
    endloop
  endfacet
  facet normal -0.288395 -0.647746 -0.705162
    outer loop
      vertex -4 -6.9282 5
      vertex -2 -5.15794 2.55592
      vertex -2.47214 -7.60845 5
    endloop
  endfacet
  facet normal -0.288395 -0.647746 -0.705162
    outer loop
      vertex -2.47214 -7.60845 5
      vertex -2 -5.15794 2.55592
      vertex -2 -6.15537 3.47214
    endloop
  endfacet
  facet normal -0.147419 -0.693552 -0.705162
    outer loop
      vertex -2 -6.97009 4.27345
      vertex -2.47214 -7.60845 5
      vertex -2 -6.15537 3.47214
    endloop
  endfacet
  facet normal -0.147419 -0.693552 -0.705162
    outer loop
      vertex -2 -7.70881 5
      vertex -2.47214 -7.60845 5
      vertex -2 -6.97009 4.27345
    endloop
  endfacet
  facet normal -0.183674 -0.864117 0.468578
    outer loop
      vertex -2 -6.15537 7.86474
      vertex -2.47214 -7.60845 5
      vertex -2 -7.70881 5
    endloop
  endfacet
  facet normal 0.35932 -0.807047 0.468578
    outer loop
      vertex 2 -3.4641 12.5
      vertex 2 -6.15537 7.86474
      vertex 2.47214 -7.60845 5
    endloop
  endfacet
  facet normal 0.35932 -0.807047 0.468578
    outer loop
      vertex 4 -6.9282 5
      vertex 2 -3.4641 12.5
      vertex 2.47214 -7.60845 5
    endloop
  endfacet
  facet normal 0.183674 -0.864117 0.468578
    outer loop
      vertex 2 -6.15537 7.86474
      vertex 2 -7.70881 5
      vertex 2.47214 -7.60845 5
    endloop
  endfacet
  facet normal 0.147419 -0.693552 -0.705162
    outer loop
      vertex 2.47214 -7.60845 5
      vertex 2 -7.70881 5
      vertex 2 -6.15537 3.47214
    endloop
  endfacet
  facet normal 0.656511 -0.591125 0.468578
    outer loop
      vertex 2 -2 14.6748
      vertex 2 -2.22123 14.3957
      vertex 5.35304 -5.94516 5
    endloop
  endfacet
  facet normal 0.656511 -0.591125 0.468578
    outer loop
      vertex 2.75276 -2 13.6201
      vertex 2 -2 14.6748
      vertex 6.47214 -4.70228 5
    endloop
  endfacet
  facet normal 0.656511 -0.591125 0.468578
    outer loop
      vertex 6.47214 -4.70228 5
      vertex 2 -2 14.6748
      vertex 5.35304 -5.94516 5
    endloop
  endfacet
  facet normal 0.519263 -0.714704 0.468578
    outer loop
      vertex 2 -2.22123 14.3957
      vertex 2 -3.4641 12.5
      vertex 4 -6.9282 5
    endloop
  endfacet
  facet normal 0.519263 -0.714704 0.468578
    outer loop
      vertex 5.35304 -5.94516 5
      vertex 2 -2.22123 14.3957
      vertex 4 -6.9282 5
    endloop
  endfacet
  facet normal 0.765066 -0.441711 0.468578
    outer loop
      vertex 4.49207 -2 10.7803
      vertex 2.75276 -2 13.6201
      vertex 6.47214 -4.70228 5
    endloop
  endfacet
  facet normal 0.765066 -0.441711 0.468578
    outer loop
      vertex 7.30836 -3.25389 5
      vertex 4.49207 -2 10.7803
      vertex 6.47214 -4.70228 5
    endloop
  endfacet
  facet normal 0.840185 -0.272993 0.468578
    outer loop
      vertex 7.71578 -2 5
      vertex 4.49207 -2 10.7803
      vertex 7.30836 -3.25389 5
    endloop
  endfacet
  facet normal 0.674343 -0.219107 -0.705162
    outer loop
      vertex 7.30836 -3.25389 5
      vertex 5.93935 -2 3.30121
      vertex 7.71578 -2 5
    endloop
  endfacet
  facet normal 0.656511 0.591125 0.468578
    outer loop
      vertex 2 2.22123 14.3957
      vertex 2 2 14.6748
      vertex 2.75276 2 13.6201
    endloop
  endfacet
  facet normal 0.656511 0.591125 0.468578
    outer loop
      vertex 5.35304 5.94516 5
      vertex 2 2.22123 14.3957
      vertex 6.47214 4.70228 5
    endloop
  endfacet
  facet normal 0.656511 0.591125 0.468578
    outer loop
      vertex 6.47214 4.70228 5
      vertex 2 2.22123 14.3957
      vertex 2.75276 2 13.6201
    endloop
  endfacet
  facet normal 0.765066 0.441711 0.468578
    outer loop
      vertex 6.47214 4.70228 5
      vertex 2.75276 2 13.6201
      vertex 4.49207 2 10.7803
    endloop
  endfacet
  facet normal 0.765066 0.441711 0.468578
    outer loop
      vertex 7.30836 3.25389 5
      vertex 6.47214 4.70228 5
      vertex 4.49207 2 10.7803
    endloop
  endfacet
  facet normal 0.840185 0.272993 0.468578
    outer loop
      vertex 7.30836 3.25389 5
      vertex 4.49207 2 10.7803
      vertex 7.71578 2 5
    endloop
  endfacet
  facet normal 0.519263 0.714704 0.468578
    outer loop
      vertex 2 2.22123 14.3957
      vertex 5.35304 5.94516 5
      vertex 2 3.4641 12.5
    endloop
  endfacet
  facet normal 0.519263 0.714704 0.468578
    outer loop
      vertex 2 3.4641 12.5
      vertex 5.35304 5.94516 5
      vertex 4 6.9282 5
    endloop
  endfacet
  facet normal 0.35932 0.807047 0.468578
    outer loop
      vertex 2 3.4641 12.5
      vertex 4 6.9282 5
      vertex 2 6.15537 7.86474
    endloop
  endfacet
  facet normal 0.35932 0.807047 0.468578
    outer loop
      vertex 2 6.15537 7.86474
      vertex 4 6.9282 5
      vertex 2.47214 7.60845 5
    endloop
  endfacet
  facet normal 0.288395 0.647746 -0.705162
    outer loop
      vertex 2 5.15794 2.55592
      vertex 2 6.15537 3.47214
      vertex 4 6.9282 5
    endloop
  endfacet
  facet normal 0.288395 0.647746 -0.705162
    outer loop
      vertex 4 6.9282 5
      vertex 2 6.15537 3.47214
      vertex 2.47214 7.60845 5
    endloop
  endfacet
  facet normal 0.147419 0.693552 -0.705162
    outer loop
      vertex 2.47214 7.60845 5
      vertex 2 6.15537 3.47214
      vertex 2 6.97009 4.27345
    endloop
  endfacet
  facet normal 0.147419 0.693552 -0.705162
    outer loop
      vertex 2.47214 7.60845 5
      vertex 2 6.97009 4.27345
      vertex 2 7.70881 5
    endloop
  endfacet
  facet normal 0.183674 0.864117 0.468578
    outer loop
      vertex 2 7.70881 5
      vertex 2 6.15537 7.86474
      vertex 2.47214 7.60845 5
    endloop
  endfacet
  facet normal -0.656511 0.591125 0.468578
    outer loop
      vertex -6.47214 4.70228 5
      vertex -2.75276 2 13.6201
      vertex -5.35304 5.94516 5
    endloop
  endfacet
  facet normal -0.656511 0.591125 0.468578
    outer loop
      vertex -5.35304 5.94516 5
      vertex -2.75276 2 13.6201
      vertex -2 2 14.6748
    endloop
  endfacet
  facet normal -0.656511 0.591125 0.468578
    outer loop
      vertex -5.35304 5.94516 5
      vertex -2 2 14.6748
      vertex -2 2.22123 14.3957
    endloop
  endfacet
  facet normal -0.519263 0.714704 0.468578
    outer loop
      vertex -5.35304 5.94516 5
      vertex -2 2.22123 14.3957
      vertex -4 6.9282 5
    endloop
  endfacet
  facet normal -0.519263 0.714704 0.468578
    outer loop
      vertex -4 6.9282 5
      vertex -2 2.22123 14.3957
      vertex -2 3.4641 12.5
    endloop
  endfacet
  facet normal -0.35932 0.807047 0.468578
    outer loop
      vertex -4 6.9282 5
      vertex -2 3.4641 12.5
      vertex -2.47214 7.60845 5
    endloop
  endfacet
  facet normal -0.35932 0.807047 0.468578
    outer loop
      vertex -2.47214 7.60845 5
      vertex -2 3.4641 12.5
      vertex -2 6.15537 7.86474
    endloop
  endfacet
  facet normal -0.183674 0.864117 0.468578
    outer loop
      vertex -2 7.70881 5
      vertex -2.47214 7.60845 5
      vertex -2 6.15537 7.86474
    endloop
  endfacet
  facet normal -0.147419 0.693552 -0.705162
    outer loop
      vertex -2 6.15537 3.47214
      vertex -2.47214 7.60845 5
      vertex -2 7.70881 5
    endloop
  endfacet
  facet normal -0.765066 0.441711 0.468578
    outer loop
      vertex -7.30836 3.25389 5
      vertex -4.49207 2 10.7803
      vertex -6.47214 4.70228 5
    endloop
  endfacet
  facet normal -0.765066 0.441711 0.468578
    outer loop
      vertex -6.47214 4.70228 5
      vertex -4.49207 2 10.7803
      vertex -2.75276 2 13.6201
    endloop
  endfacet
  facet normal -0.840185 0.272993 0.468578
    outer loop
      vertex -7.30836 3.25389 5
      vertex -7.71578 2 5
      vertex -4.49207 2 10.7803
    endloop
  endfacet
  facet normal -0.674343 0.219107 -0.705162
    outer loop
      vertex -5.93935 2 3.30121
      vertex -7.71578 2 5
      vertex -7.30836 3.25389 5
    endloop
  endfacet
endsolid OpenSCAD_Model
