solid OpenSCAD_Model
  facet normal 0 0 -1
    outer loop
      vertex -15 -10.8165 -15
      vertex -15 10.8165 -15
      vertex -14.9668 -10.874 -15
    endloop
  endfacet
  facet normal 0 0 -1
    outer loop
      vertex -14.9668 -10.874 -15
      vertex -15 10.8165 -15
      vertex -14.9668 10.874 -15
    endloop
  endfacet
  facet normal 0 0 -1
    outer loop
      vertex -14.9668 -10.874 -15
      vertex -14.9668 10.874 -15
      vertex -12.3789 13.7482 -15
    endloop
  endfacet
  facet normal 0 0 -1
    outer loop
      vertex -14.9668 -10.874 -15
      vertex -12.3789 13.7482 -15
      vertex -10.6559 15 -15
    endloop
  endfacet
  facet normal 0 0 -1
    outer loop
      vertex -7.5 7.5 -15
      vertex -10.6559 15 -15
      vertex 10.6559 15 -15
    endloop
  endfacet
  facet normal 0 0 -1
    outer loop
      vertex 7.5 7.5 -15
      vertex 14.9668 10.874 -15
      vertex 15 10.8165 -15
    endloop
  endfacet
  facet normal 0 0 -1
    outer loop
      vertex 7.5 7.5 -15
      vertex 12.3789 13.7482 -15
      vertex 14.9668 10.874 -15
    endloop
  endfacet
  facet normal 0 0 -1
    outer loop
      vertex 7.5 -7.5 -15
      vertex 15 10.8165 -15
      vertex 15 -10.8165 -15
    endloop
  endfacet
  facet normal 0 0 -1
    outer loop
      vertex -14.9668 -10.874 -15
      vertex 15 -10.8165 -15
      vertex 14.9668 -10.874 -15
    endloop
  endfacet
  facet normal 0 0 -1
    outer loop
      vertex -14.9668 -10.874 -15
      vertex 14.9668 -10.874 -15
      vertex 12.3789 -13.7482 -15
    endloop
  endfacet
  facet normal 0 0 -1
    outer loop
      vertex -14.9668 -10.874 -15
      vertex 12.3789 -13.7482 -15
      vertex 10.6559 -15 -15
    endloop
  endfacet
  facet normal 0 0 -1
    outer loop
      vertex -14.9668 -10.874 -15
      vertex 10.6559 -15 -15
      vertex -10.6559 -15 -15
    endloop
  endfacet
  facet normal 0 0 -1
    outer loop
      vertex -14.9668 -10.874 -15
      vertex -10.6559 -15 -15
      vertex -12.3789 -13.7482 -15
    endloop
  endfacet
  facet normal 0 0 -1
    outer loop
      vertex -14.9668 -10.874 -15
      vertex -10.6559 15 -15
      vertex -7.5 7.5 -15
    endloop
  endfacet
  facet normal 0 0 -1
    outer loop
      vertex -7.5 -7.5 -15
      vertex -14.9668 -10.874 -15
      vertex -7.5 7.5 -15
    endloop
  endfacet
  facet normal 0 0 -1
    outer loop
      vertex 7.5 7.5 -15
      vertex 15 10.8165 -15
      vertex 7.5 -7.5 -15
    endloop
  endfacet
  facet normal 0 0 -1
    outer loop
      vertex -14.9668 -10.874 -15
      vertex -7.5 -7.5 -15
      vertex 15 -10.8165 -15
    endloop
  endfacet
  facet normal 0 0 -1
    outer loop
      vertex -7.5 -7.5 -15
      vertex 7.5 -7.5 -15
      vertex 15 -10.8165 -15
    endloop
  endfacet
  facet normal 0 0 -1
    outer loop
      vertex -7.5 7.5 -15
      vertex 10.6559 15 -15
      vertex 12.3789 13.7482 -15
    endloop
  endfacet
  facet normal 0 0 -1
    outer loop
      vertex -7.5 7.5 -15
      vertex 12.3789 13.7482 -15
      vertex 7.5 7.5 -15
    endloop
  endfacet
  facet normal -1 0 0
    outer loop
      vertex -15 -10.8165 -15
      vertex -15 -6.67843 -8.06515
      vertex -15 10.8165 -15
    endloop
  endfacet
  facet normal -1 0 0
    outer loop
      vertex -15 10.8165 -15
      vertex -15 -6.67843 -8.06515
      vertex -15 -3.71902 -5
    endloop
  endfacet
  facet normal -1 0 0
    outer loop
      vertex -15 10.8165 -15
      vertex -15 -3.71902 -5
      vertex -15 3.71902 -5
    endloop
  endfacet
  facet normal -1 0 0
    outer loop
      vertex -15 10.8165 -15
      vertex -15 3.71902 -5
      vertex -15 6.67843 -8.06515
    endloop
  endfacet
  facet normal -0.829876 -0.479129 0.285903
    outer loop
      vertex -15 -10.8165 -15
      vertex -14.9668 -10.874 -15
      vertex -15 -6.67843 -8.06515
    endloop
  endfacet
  facet normal -0.829876 -0.479129 0.285903
    outer loop
      vertex -15 -6.67843 -8.06515
      vertex -14.9668 -10.874 -15
      vertex -7.68566 -5.58396 15
    endloop
  endfacet
  facet normal -0.829876 -0.479129 0.285903
    outer loop
      vertex -15 -6.67843 -8.06515
      vertex -7.68566 -5.58396 15
      vertex -8.67868 -3.864 15
    endloop
  endfacet
  facet normal -0.712125 -0.6412 0.285903
    outer loop
      vertex -14.9668 -10.874 -15
      vertex -12.3789 -13.7482 -15
      vertex -7.68566 -5.58396 15
    endloop
  endfacet
  facet normal -0.712125 -0.6412 0.285903
    outer loop
      vertex -7.68566 -5.58396 15
      vertex -12.3789 -13.7482 -15
      vertex -6.35674 -7.05988 15
    endloop
  endfacet
  facet normal -0.56325 -0.775248 0.285903
    outer loop
      vertex -6.35674 -7.05988 15
      vertex -12.3789 -13.7482 -15
      vertex -10.6559 -15 -15
    endloop
  endfacet
  facet normal -0.56325 -0.775248 0.285903
    outer loop
      vertex -4.75 -8.22724 15
      vertex -6.35674 -7.05988 15
      vertex -8.66025 -15 -11.0684
    endloop
  endfacet
  facet normal -0.56325 -0.775248 0.285903
    outer loop
      vertex -8.66025 -15 -11.0684
      vertex -6.35674 -7.05988 15
      vertex -10.6559 -15 -15
    endloop
  endfacet
  facet normal 0 -1 0
    outer loop
      vertex -8.66025 -15 -11.0684
      vertex -10.6559 -15 -15
      vertex 10.6559 -15 -15
    endloop
  endfacet
  facet normal 0 -1 0
    outer loop
      vertex 4.8738 -15 -5.90644
      vertex -8.66025 -15 -11.0684
      vertex 8.66025 -15 -11.0684
    endloop
  endfacet
  facet normal 0 -1 0
    outer loop
      vertex 8.66025 -15 -11.0684
      vertex -8.66025 -15 -11.0684
      vertex 10.6559 -15 -15
    endloop
  endfacet
  facet normal 0 -1 0
    outer loop
      vertex 3.57303 -15 -5
      vertex -8.66025 -15 -11.0684
      vertex 4.8738 -15 -5.90644
    endloop
  endfacet
  facet normal 0 -1 0
    outer loop
      vertex -3.57303 -15 -5
      vertex -8.66025 -15 -11.0684
      vertex 3.57303 -15 -5
    endloop
  endfacet
  facet normal 0 -1 0
    outer loop
      vertex -4.8738 -15 -5.90644
      vertex -8.66025 -15 -11.0684
      vertex -3.57303 -15 -5
    endloop
  endfacet
  facet normal 0.56325 -0.775248 0.285903
    outer loop
      vertex 6.35674 -7.05988 15
      vertex 4.75 -8.22724 15
      vertex 8.66025 -15 -11.0684
    endloop
  endfacet
  facet normal 0.56325 -0.775248 0.285903
    outer loop
      vertex 12.3789 -13.7482 -15
      vertex 6.35674 -7.05988 15
      vertex 10.6559 -15 -15
    endloop
  endfacet
  facet normal 0.56325 -0.775248 0.285903
    outer loop
      vertex 10.6559 -15 -15
      vertex 6.35674 -7.05988 15
      vertex 8.66025 -15 -11.0684
    endloop
  endfacet
  facet normal 0.712125 -0.6412 0.285903
    outer loop
      vertex 7.68566 -5.58396 15
      vertex 6.35674 -7.05988 15
      vertex 12.3789 -13.7482 -15
    endloop
  endfacet
  facet normal 0.712125 -0.6412 0.285903
    outer loop
      vertex 14.9668 -10.874 -15
      vertex 7.68566 -5.58396 15
      vertex 12.3789 -13.7482 -15
    endloop
  endfacet
  facet normal 0.829876 -0.479129 0.285903
    outer loop
      vertex 8.67868 -3.864 15
      vertex 7.68566 -5.58396 15
      vertex 14.9668 -10.874 -15
    endloop
  endfacet
  facet normal 0.829876 -0.479129 0.285903
    outer loop
      vertex 15 -6.67843 -8.06515
      vertex 8.67868 -3.864 15
      vertex 15 -10.8165 -15
    endloop
  endfacet
  facet normal 0.829876 -0.479129 0.285903
    outer loop
      vertex 15 -10.8165 -15
      vertex 8.67868 -3.864 15
      vertex 14.9668 -10.874 -15
    endloop
  endfacet
  facet normal 1 0 0
    outer loop
      vertex 15 -6.67843 -8.06515
      vertex 15 -10.8165 -15
      vertex 15 10.8165 -15
    endloop
  endfacet
  facet normal 1 0 0
    outer loop
      vertex 15 3.71902 -5
      vertex 15 -6.67843 -8.06515
      vertex 15 6.67843 -8.06515
    endloop
  endfacet
  facet normal 1 0 0
    outer loop
      vertex 15 6.67843 -8.06515
      vertex 15 -6.67843 -8.06515
      vertex 15 10.8165 -15
    endloop
  endfacet
  facet normal 1 0 0
    outer loop
      vertex 15 -3.71902 -5
      vertex 15 -6.67843 -8.06515
      vertex 15 3.71902 -5
    endloop
  endfacet
  facet normal 0.829876 0.479129 0.285903
    outer loop
      vertex 14.9668 10.874 -15
      vertex 7.68566 5.58396 15
      vertex 8.67868 3.864 15
    endloop
  endfacet
  facet normal 0.829876 0.479129 0.285903
    outer loop
      vertex 15 10.8165 -15
      vertex 14.9668 10.874 -15
      vertex 15 6.67843 -8.06515
    endloop
  endfacet
  facet normal 0.829876 0.479129 0.285903
    outer loop
      vertex 15 6.67843 -8.06515
      vertex 14.9668 10.874 -15
      vertex 8.67868 3.864 15
    endloop
  endfacet
  facet normal 0.712125 0.6412 0.285903
    outer loop
      vertex 12.3789 13.7482 -15
      vertex 6.35674 7.05988 15
      vertex 7.68566 5.58396 15
    endloop
  endfacet
  facet normal 0.712125 0.6412 0.285903
    outer loop
      vertex 14.9668 10.874 -15
      vertex 12.3789 13.7482 -15
      vertex 7.68566 5.58396 15
    endloop
  endfacet
  facet normal 0.56325 0.775248 0.285903
    outer loop
      vertex 4.75 8.22724 15
      vertex 6.35674 7.05988 15
      vertex 8.66025 15 -11.0684
    endloop
  endfacet
  facet normal 0.56325 0.775248 0.285903
    outer loop
      vertex 8.66025 15 -11.0684
      vertex 6.35674 7.05988 15
      vertex 12.3789 13.7482 -15
    endloop
  endfacet
  facet normal 0.56325 0.775248 0.285903
    outer loop
      vertex 8.66025 15 -11.0684
      vertex 12.3789 13.7482 -15
      vertex 10.6559 15 -15
    endloop
  endfacet
  facet normal 0 1 0
    outer loop
      vertex -10.6559 15 -15
      vertex -8.66025 15 -11.0684
      vertex 10.6559 15 -15
    endloop
  endfacet
  facet normal 0 1 0
    outer loop
      vertex 10.6559 15 -15
      vertex -8.66025 15 -11.0684
      vertex -4.8738 15 -5.90644
    endloop
  endfacet
  facet normal 0 1 0
    outer loop
      vertex 10.6559 15 -15
      vertex -4.8738 15 -5.90644
      vertex -3.57303 15 -5
    endloop
  endfacet
  facet normal 0 1 0
    outer loop
      vertex 10.6559 15 -15
      vertex -3.57303 15 -5
      vertex 3.57303 15 -5
    endloop
  endfacet
  facet normal 0 1 0
    outer loop
      vertex 10.6559 15 -15
      vertex 3.57303 15 -5
      vertex 4.8738 15 -5.90644
    endloop
  endfacet
  facet normal 0 1 0
    outer loop
      vertex 10.6559 15 -15
      vertex 4.8738 15 -5.90644
      vertex 8.66025 15 -11.0684
    endloop
  endfacet
  facet normal -0.56325 0.775248 0.285903
    outer loop
      vertex -12.3789 13.7482 -15
      vertex -6.35674 7.05988 15
      vertex -10.6559 15 -15
    endloop
  endfacet
  facet normal -0.56325 0.775248 0.285903
    outer loop
      vertex -10.6559 15 -15
      vertex -6.35674 7.05988 15
      vertex -4.75 8.22724 15
    endloop
  endfacet
  facet normal -0.56325 0.775248 0.285903
    outer loop
      vertex -10.6559 15 -15
      vertex -4.75 8.22724 15
      vertex -8.66025 15 -11.0684
    endloop
  endfacet
  facet normal -0.712125 0.6412 0.285903
    outer loop
      vertex -14.9668 10.874 -15
      vertex -7.68566 5.58396 15
      vertex -12.3789 13.7482 -15
    endloop
  endfacet
  facet normal -0.712125 0.6412 0.285903
    outer loop
      vertex -12.3789 13.7482 -15
      vertex -7.68566 5.58396 15
      vertex -6.35674 7.05988 15
    endloop
  endfacet
  facet normal -0.829876 0.479129 0.285903
    outer loop
      vertex -15 6.67843 -8.06515
      vertex -8.67868 3.864 15
      vertex -15 10.8165 -15
    endloop
  endfacet
  facet normal -0.829876 0.479129 0.285903
    outer loop
      vertex -15 10.8165 -15
      vertex -8.67868 3.864 15
      vertex -7.68566 5.58396 15
    endloop
  endfacet
  facet normal -0.829876 0.479129 0.285903
    outer loop
      vertex -15 10.8165 -15
      vertex -7.68566 5.58396 15
      vertex -14.9668 10.874 -15
    endloop
  endfacet
  facet normal -1 0 0
    outer loop
      vertex -7.5 -7.5 -20
      vertex -7.5 -7.5 -15
      vertex -7.5 7.5 -20
    endloop
  endfacet
  facet normal -1 0 0
    outer loop
      vertex -7.5 7.5 -20
      vertex -7.5 -7.5 -15
      vertex -7.5 7.5 -15
    endloop
  endfacet
  facet normal 0 1 0
    outer loop
      vertex -7.5 7.5 -20
      vertex -7.5 7.5 -15
      vertex 7.5 7.5 -20
    endloop
  endfacet
  facet normal 0 1 0
    outer loop
      vertex 7.5 7.5 -20
      vertex -7.5 7.5 -15
      vertex 7.5 7.5 -15
    endloop
  endfacet
  facet normal 1 0 0
    outer loop
      vertex 7.5 -7.5 -15
      vertex 7.5 -7.5 -20
      vertex 7.5 7.5 -20
    endloop
  endfacet
  facet normal 1 0 0
    outer loop
      vertex 7.5 7.5 -15
      vertex 7.5 -7.5 -15
      vertex 7.5 7.5 -20
    endloop
  endfacet
  facet normal 0 -1 0
    outer loop
      vertex -7.5 -7.5 -15
      vertex -7.5 -7.5 -20
      vertex 7.5 -7.5 -20
    endloop
  endfacet
  facet normal 0 -1 0
    outer loop
      vertex 7.5 -7.5 -15
      vertex -7.5 -7.5 -15
      vertex 7.5 -7.5 -20
    endloop
  endfacet
  facet normal -0.911358 0.296118 0.285903
    outer loop
      vertex -15 3.71902 -5
      vertex -14.5838 5 -5
      vertex -15 6.67843 -8.06515
    endloop
  endfacet
  facet normal -0.911358 0.296118 0.285903
    outer loop
      vertex -15 6.67843 -8.06515
      vertex -14.5838 5 -5
      vertex -11.4467 5 5
    endloop
  endfacet
  facet normal -0.911358 0.296118 0.285903
    outer loop
      vertex -11.4467 5 5
      vertex -12.2268 2.5989 5
      vertex -9.2924 1.97516 15
    endloop
  endfacet
  facet normal -0.911358 0.296118 0.285903
    outer loop
      vertex -11.4467 5 5
      vertex -9.2924 1.97516 15
      vertex -8.67868 3.864 15
    endloop
  endfacet
  facet normal -0.911358 0.296118 0.285903
    outer loop
      vertex -11.4467 5 5
      vertex -8.67868 3.864 15
      vertex -15 6.67843 -8.06515
    endloop
  endfacet
  facet normal 0 0 1
    outer loop
      vertex -14.5838 -5 -5
      vertex -5 -5 -5
      vertex -5 5 -5
    endloop
  endfacet
  facet normal 0 0 1
    outer loop
      vertex -15 3.71902 -5
      vertex -14.5838 -5 -5
      vertex -14.5838 5 -5
    endloop
  endfacet
  facet normal 0 0 1
    outer loop
      vertex -14.5838 5 -5
      vertex -14.5838 -5 -5
      vertex -5 5 -5
    endloop
  endfacet
  facet normal 0 0 1
    outer loop
      vertex -15 -3.71902 -5
      vertex -14.5838 -5 -5
      vertex -15 3.71902 -5
    endloop
  endfacet
  facet normal -0.911358 -0.296118 0.285903
    outer loop
      vertex -15 -6.67843 -8.06515
      vertex -8.67868 -3.864 15
      vertex -11.4467 -5 5
    endloop
  endfacet
  facet normal -0.911358 -0.296118 0.285903
    outer loop
      vertex -15 -6.67843 -8.06515
      vertex -11.4467 -5 5
      vertex -14.5838 -5 -5
    endloop
  endfacet
  facet normal -0.911358 -0.296118 0.285903
    outer loop
      vertex -15 -6.67843 -8.06515
      vertex -14.5838 -5 -5
      vertex -15 -3.71902 -5
    endloop
  endfacet
  facet normal -0.911358 -0.296118 0.285903
    outer loop
      vertex -11.4467 -5 5
      vertex -8.67868 -3.864 15
      vertex -9.2924 -1.97516 15
    endloop
  endfacet
  facet normal -0.911358 -0.296118 0.285903
    outer loop
      vertex -11.4467 -5 5
      vertex -9.2924 -1.97516 15
      vertex -12.2268 -2.5989 5
    endloop
  endfacet
  facet normal 0 0 1
    outer loop
      vertex -9.2924 1.97516 15
      vertex -9.5 5.38226e-15 15
      vertex -9.2924 -1.97516 15
    endloop
  endfacet
  facet normal 0 0 1
    outer loop
      vertex -7.68566 -5.58396 15
      vertex -9.2924 1.97516 15
      vertex -8.67868 -3.864 15
    endloop
  endfacet
  facet normal 0 0 1
    outer loop
      vertex -8.67868 -3.864 15
      vertex -9.2924 1.97516 15
      vertex -9.2924 -1.97516 15
    endloop
  endfacet
  facet normal 0 0 1
    outer loop
      vertex -6.35674 -7.05988 15
      vertex -9.2924 1.97516 15
      vertex -7.68566 -5.58396 15
    endloop
  endfacet
  facet normal 0 0 1
    outer loop
      vertex -4.75 -8.22724 15
      vertex -9.2924 1.97516 15
      vertex -6.35674 -7.05988 15
    endloop
  endfacet
  facet normal 0 0 1
    outer loop
      vertex -2.93566 -9.03504 15
      vertex -9.2924 1.97516 15
      vertex -4.75 -8.22724 15
    endloop
  endfacet
  facet normal 0 0 1
    outer loop
      vertex -5 -5 15
      vertex -9.2924 1.97516 15
      vertex -2.93566 -9.03504 15
    endloop
  endfacet
  facet normal 0 0 1
    outer loop
      vertex -5 5 15
      vertex 6.35674 7.05988 15
      vertex 4.75 8.22724 15
    endloop
  endfacet
  facet normal 0 0 1
    outer loop
      vertex -5 5 15
      vertex 7.68566 5.58396 15
      vertex 6.35674 7.05988 15
    endloop
  endfacet
  facet normal 0 0 1
    outer loop
      vertex -5 5 15
      vertex 5 5 15
      vertex 7.68566 5.58396 15
    endloop
  endfacet
  facet normal 0 0 1
    outer loop
      vertex 5 5 15
      vertex 5 -5 15
      vertex 7.68566 -5.58396 15
    endloop
  endfacet
  facet normal 0 0 1
    outer loop
      vertex 5 5 15
      vertex 7.68566 -5.58396 15
      vertex 8.67868 -3.864 15
    endloop
  endfacet
  facet normal 0 0 1
    outer loop
      vertex 5 5 15
      vertex 9.2924 -1.97516 15
      vertex 9.5 0 15
    endloop
  endfacet
  facet normal 0 0 1
    outer loop
      vertex 5 5 15
      vertex 9.5 0 15
      vertex 9.2924 1.97516 15
    endloop
  endfacet
  facet normal 0 0 1
    outer loop
      vertex 5 5 15
      vertex 9.2924 1.97516 15
      vertex 8.67868 3.864 15
    endloop
  endfacet
  facet normal 0 0 1
    outer loop
      vertex -0.99302 9.44796 15
      vertex -9.2924 1.97516 15
      vertex 0.99302 9.44796 15
    endloop
  endfacet
  facet normal 0 0 1
    outer loop
      vertex -2.93566 9.03504 15
      vertex -9.2924 1.97516 15
      vertex -0.99302 9.44796 15
    endloop
  endfacet
  facet normal 0 0 1
    outer loop
      vertex -4.75 8.22724 15
      vertex -9.2924 1.97516 15
      vertex -2.93566 9.03504 15
    endloop
  endfacet
  facet normal 0 0 1
    outer loop
      vertex -6.35674 7.05988 15
      vertex -9.2924 1.97516 15
      vertex -4.75 8.22724 15
    endloop
  endfacet
  facet normal 0 0 1
    outer loop
      vertex -7.68566 5.58396 15
      vertex -9.2924 1.97516 15
      vertex -6.35674 7.05988 15
    endloop
  endfacet
  facet normal 0 0 1
    outer loop
      vertex -8.67868 3.864 15
      vertex -9.2924 1.97516 15
      vertex -7.68566 5.58396 15
    endloop
  endfacet
  facet normal 0 0 1
    outer loop
      vertex -0.99302 -9.44796 15
      vertex -5 -5 15
      vertex -2.93566 -9.03504 15
    endloop
  endfacet
  facet normal 0 0 1
    outer loop
      vertex -5 5 15
      vertex 4.75 8.22724 15
      vertex 2.93566 9.03504 15
    endloop
  endfacet
  facet normal 0 0 1
    outer loop
      vertex 0.99302 9.44796 15
      vertex -5 5 15
      vertex 2.93566 9.03504 15
    endloop
  endfacet
  facet normal 0 0 1
    outer loop
      vertex 0.99302 9.44796 15
      vertex -9.2924 1.97516 15
      vertex -5 5 15
    endloop
  endfacet
  facet normal 0 0 1
    outer loop
      vertex 7.68566 5.58396 15
      vertex 5 5 15
      vertex 8.67868 3.864 15
    endloop
  endfacet
  facet normal 0 0 1
    outer loop
      vertex 5 5 15
      vertex 8.67868 -3.864 15
      vertex 9.2924 -1.97516 15
    endloop
  endfacet
  facet normal 0 0 1
    outer loop
      vertex 7.68566 -5.58396 15
      vertex 5 -5 15
      vertex 6.35674 -7.05988 15
    endloop
  endfacet
  facet normal 0 0 1
    outer loop
      vertex 5 -5 15
      vertex 4.75 -8.22724 15
      vertex 6.35674 -7.05988 15
    endloop
  endfacet
  facet normal 0 0 1
    outer loop
      vertex 5 -5 15
      vertex 2.93566 -9.03504 15
      vertex 4.75 -8.22724 15
    endloop
  endfacet
  facet normal 0 0 1
    outer loop
      vertex 5 -5 15
      vertex 0.99302 -9.44796 15
      vertex 2.93566 -9.03504 15
    endloop
  endfacet
  facet normal 0 0 1
    outer loop
      vertex 5 -5 15
      vertex -0.99302 -9.44796 15
      vertex 0.99302 -9.44796 15
    endloop
  endfacet
  facet normal 0 0 1
    outer loop
      vertex 5 -5 15
      vertex -5 -5 15
      vertex -0.99302 -9.44796 15
    endloop
  endfacet
  facet normal 0 0 1
    outer loop
      vertex -5 -5 15
      vertex -5 5 15
      vertex -9.2924 1.97516 15
    endloop
  endfacet
  facet normal -0.389759 -0.875413 0.285903
    outer loop
      vertex -5 -14.6478 -5
      vertex -8.66025 -15 -11.0684
      vertex -4.8738 -15 -5.90644
    endloop
  endfacet
  facet normal -0.389759 -0.875413 0.285903
    outer loop
      vertex -5 -11.3819 5
      vertex -8.66025 -15 -11.0684
      vertex -5 -14.6478 -5
    endloop
  endfacet
  facet normal -0.389759 -0.875413 0.285903
    outer loop
      vertex -4.75 -8.22724 15
      vertex -8.66025 -15 -11.0684
      vertex -5 -11.3819 5
    endloop
  endfacet
  facet normal -0.389759 -0.875413 0.285903
    outer loop
      vertex -2.93566 -9.03504 15
      vertex -4.75 -8.22724 15
      vertex -3.86271 -11.8882 5
    endloop
  endfacet
  facet normal -0.389759 -0.875413 0.285903
    outer loop
      vertex -4.78976 -14.7414 -5
      vertex -5 -14.6478 -5
      vertex -4.8738 -15 -5.90644
    endloop
  endfacet
  facet normal -0.389759 -0.875413 0.285903
    outer loop
      vertex -5 -11.3819 5
      vertex -3.86271 -11.8882 5
      vertex -4.75 -8.22724 15
    endloop
  endfacet
  facet normal -0.199233 -0.937318 0.285903
    outer loop
      vertex -4.78976 -14.7414 -5
      vertex -4.8738 -15 -5.90644
      vertex -3.57303 -15 -5
    endloop
  endfacet
  facet normal 0 0 1
    outer loop
      vertex -4.78976 -14.7414 -5
      vertex -3.57303 -15 -5
      vertex 3.57303 -15 -5
    endloop
  endfacet
  facet normal 0 0 1
    outer loop
      vertex 5 -14.6478 -5
      vertex -4.78976 -14.7414 -5
      vertex 4.78976 -14.7414 -5
    endloop
  endfacet
  facet normal 0 0 1
    outer loop
      vertex 4.78976 -14.7414 -5
      vertex -4.78976 -14.7414 -5
      vertex 3.57303 -15 -5
    endloop
  endfacet
  facet normal 0 0 1
    outer loop
      vertex 5 -5 -5
      vertex -4.78976 -14.7414 -5
      vertex 5 -14.6478 -5
    endloop
  endfacet
  facet normal 0 0 1
    outer loop
      vertex -5 -5 -5
      vertex -4.78976 -14.7414 -5
      vertex 5 -5 -5
    endloop
  endfacet
  facet normal 0 0 1
    outer loop
      vertex -5 -14.6478 -5
      vertex -4.78976 -14.7414 -5
      vertex -5 -5 -5
    endloop
  endfacet
  facet normal 0.199233 -0.937318 0.285903
    outer loop
      vertex 4.78976 -14.7414 -5
      vertex 3.57303 -15 -5
      vertex 4.8738 -15 -5.90644
    endloop
  endfacet
  facet normal 0.389759 -0.875413 0.285903
    outer loop
      vertex 4.75 -8.22724 15
      vertex 2.93566 -9.03504 15
      vertex 3.86271 -11.8882 5
    endloop
  endfacet
  facet normal 0.389759 -0.875413 0.285903
    outer loop
      vertex 8.66025 -15 -11.0684
      vertex 4.75 -8.22724 15
      vertex 5 -11.3819 5
    endloop
  endfacet
  facet normal 0.389759 -0.875413 0.285903
    outer loop
      vertex 5 -11.3819 5
      vertex 4.75 -8.22724 15
      vertex 3.86271 -11.8882 5
    endloop
  endfacet
  facet normal 0.389759 -0.875413 0.285903
    outer loop
      vertex 8.66025 -15 -11.0684
      vertex 5 -11.3819 5
      vertex 5 -14.6478 -5
    endloop
  endfacet
  facet normal 0.389759 -0.875413 0.285903
    outer loop
      vertex 4.8738 -15 -5.90644
      vertex 5 -14.6478 -5
      vertex 4.78976 -14.7414 -5
    endloop
  endfacet
  facet normal 0.389759 -0.875413 0.285903
    outer loop
      vertex 8.66025 -15 -11.0684
      vertex 5 -14.6478 -5
      vertex 4.8738 -15 -5.90644
    endloop
  endfacet
  facet normal 0.911358 -0.296118 0.285903
    outer loop
      vertex 11.4467 -5 5
      vertex 8.67868 -3.864 15
      vertex 15 -6.67843 -8.06515
    endloop
  endfacet
  facet normal 0.911358 -0.296118 0.285903
    outer loop
      vertex 15 -3.71902 -5
      vertex 14.5838 -5 -5
      vertex 15 -6.67843 -8.06515
    endloop
  endfacet
  facet normal 0.911358 -0.296118 0.285903
    outer loop
      vertex 9.2924 -1.97516 15
      vertex 8.67868 -3.864 15
      vertex 11.4467 -5 5
    endloop
  endfacet
  facet normal 0.911358 -0.296118 0.285903
    outer loop
      vertex 14.5838 -5 -5
      vertex 11.4467 -5 5
      vertex 15 -6.67843 -8.06515
    endloop
  endfacet
  facet normal 0.911358 -0.296118 0.285903
    outer loop
      vertex 11.4467 -5 5
      vertex 12.2268 -2.5989 5
      vertex 9.2924 -1.97516 15
    endloop
  endfacet
  facet normal 0 0 1
    outer loop
      vertex 14.5838 -5 -5
      vertex 15 -3.71902 -5
      vertex 15 3.71902 -5
    endloop
  endfacet
  facet normal 0 0 1
    outer loop
      vertex 5 5 -5
      vertex 14.5838 -5 -5
      vertex 14.5838 5 -5
    endloop
  endfacet
  facet normal 0 0 1
    outer loop
      vertex 14.5838 5 -5
      vertex 14.5838 -5 -5
      vertex 15 3.71902 -5
    endloop
  endfacet
  facet normal 0 0 1
    outer loop
      vertex 5 -5 -5
      vertex 14.5838 -5 -5
      vertex 5 5 -5
    endloop
  endfacet
  facet normal 0.911358 0.296118 0.285903
    outer loop
      vertex 11.4467 5 5
      vertex 8.67868 3.864 15
      vertex 9.2924 1.97516 15
    endloop
  endfacet
  facet normal 0.911358 0.296118 0.285903
    outer loop
      vertex 11.4467 5 5
      vertex 14.5838 5 -5
      vertex 15 6.67843 -8.06515
    endloop
  endfacet
  facet normal 0.911358 0.296118 0.285903
    outer loop
      vertex 15 6.67843 -8.06515
      vertex 8.67868 3.864 15
      vertex 11.4467 5 5
    endloop
  endfacet
  facet normal 0.911358 0.296118 0.285903
    outer loop
      vertex 15 3.71902 -5
      vertex 15 6.67843 -8.06515
      vertex 14.5838 5 -5
    endloop
  endfacet
  facet normal 0.911358 0.296118 0.285903
    outer loop
      vertex 12.2268 2.5989 5
      vertex 11.4467 5 5
      vertex 9.2924 1.97516 15
    endloop
  endfacet
  facet normal 0.389759 0.875413 0.285903
    outer loop
      vertex 2.93566 9.03504 15
      vertex 4.75 8.22724 15
      vertex 3.86271 11.8882 5
    endloop
  endfacet
  facet normal 0.389759 0.875413 0.285903
    outer loop
      vertex 5 11.3819 5
      vertex 4.75 8.22724 15
      vertex 8.66025 15 -11.0684
    endloop
  endfacet
  facet normal 0.389759 0.875413 0.285903
    outer loop
      vertex 4.78976 14.7414 -5
      vertex 8.66025 15 -11.0684
      vertex 4.8738 15 -5.90644
    endloop
  endfacet
  facet normal 0.389759 0.875413 0.285903
    outer loop
      vertex 5 14.6478 -5
      vertex 8.66025 15 -11.0684
      vertex 4.78976 14.7414 -5
    endloop
  endfacet
  facet normal 0.389759 0.875413 0.285903
    outer loop
      vertex 3.86271 11.8882 5
      vertex 4.75 8.22724 15
      vertex 5 11.3819 5
    endloop
  endfacet
  facet normal 0.389759 0.875413 0.285903
    outer loop
      vertex 5 11.3819 5
      vertex 8.66025 15 -11.0684
      vertex 5 14.6478 -5
    endloop
  endfacet
  facet normal 0.199233 0.937318 0.285903
    outer loop
      vertex 4.8738 15 -5.90644
      vertex 3.57303 15 -5
      vertex 4.78976 14.7414 -5
    endloop
  endfacet
  facet normal 0 0 1
    outer loop
      vertex 5 5 -5
      vertex 5 14.6478 -5
      vertex 4.78976 14.7414 -5
    endloop
  endfacet
  facet normal 0 0 1
    outer loop
      vertex -3.57303 15 -5
      vertex 5 5 -5
      vertex 3.57303 15 -5
    endloop
  endfacet
  facet normal 0 0 1
    outer loop
      vertex 3.57303 15 -5
      vertex 5 5 -5
      vertex 4.78976 14.7414 -5
    endloop
  endfacet
  facet normal 0 0 1
    outer loop
      vertex -4.78976 14.7414 -5
      vertex 5 5 -5
      vertex -3.57303 15 -5
    endloop
  endfacet
  facet normal 0 0 1
    outer loop
      vertex -5 14.6478 -5
      vertex 5 5 -5
      vertex -4.78976 14.7414 -5
    endloop
  endfacet
  facet normal 0 0 1
    outer loop
      vertex -5 5 -5
      vertex 5 5 -5
      vertex -5 14.6478 -5
    endloop
  endfacet
  facet normal -0.199233 0.937318 0.285903
    outer loop
      vertex -3.57303 15 -5
      vertex -4.8738 15 -5.90644
      vertex -4.78976 14.7414 -5
    endloop
  endfacet
  facet normal -0.389759 0.875413 0.285903
    outer loop
      vertex -4.78976 14.7414 -5
      vertex -4.8738 15 -5.90644
      vertex -5 14.6478 -5
    endloop
  endfacet
  facet normal -0.389759 0.875413 0.285903
    outer loop
      vertex -3.86271 11.8882 5
      vertex -4.75 8.22724 15
      vertex -2.93566 9.03504 15
    endloop
  endfacet
  facet normal -0.389759 0.875413 0.285903
    outer loop
      vertex -8.66025 15 -11.0684
      vertex -4.75 8.22724 15
      vertex -5 11.3819 5
    endloop
  endfacet
  facet normal -0.389759 0.875413 0.285903
    outer loop
      vertex -8.66025 15 -11.0684
      vertex -5 11.3819 5
      vertex -5 14.6478 -5
    endloop
  endfacet
  facet normal -0.389759 0.875413 0.285903
    outer loop
      vertex -8.66025 15 -11.0684
      vertex -5 14.6478 -5
      vertex -4.8738 15 -5.90644
    endloop
  endfacet
  facet normal -0.389759 0.875413 0.285903
    outer loop
      vertex -5 11.3819 5
      vertex -4.75 8.22724 15
      vertex -3.86271 11.8882 5
    endloop
  endfacet
  facet normal 0 0 -1
    outer loop
      vertex -5 -5 -20
      vertex 5 -5 -20
      vertex 7.5 -7.5 -20
    endloop
  endfacet
  facet normal 0 0 -1
    outer loop
      vertex -5 5 -20
      vertex -7.5 7.5 -20
      vertex 7.5 7.5 -20
    endloop
  endfacet
  facet normal 0 0 -1
    outer loop
      vertex -7.5 -7.5 -20
      vertex -7.5 7.5 -20
      vertex -5 5 -20
    endloop
  endfacet
  facet normal 0 0 -1
    outer loop
      vertex 5 5 -20
      vertex -5 5 -20
      vertex 7.5 7.5 -20
    endloop
  endfacet
  facet normal 0 0 -1
    outer loop
      vertex -7.5 -7.5 -20
      vertex -5 5 -20
      vertex -5 -5 -20
    endloop
  endfacet
  facet normal 0 0 -1
    outer loop
      vertex -7.5 -7.5 -20
      vertex -5 -5 -20
      vertex 7.5 -7.5 -20
    endloop
  endfacet
  facet normal 0 0 -1
    outer loop
      vertex 7.5 -7.5 -20
      vertex 5 -5 -20
      vertex 7.5 7.5 -20
    endloop
  endfacet
  facet normal 0 0 -1
    outer loop
      vertex 5 -5 -20
      vertex 5 5 -20
      vertex 7.5 7.5 -20
    endloop
  endfacet
  facet normal -0.953009 0.100165 0.285903
    outer loop
      vertex -12.5 7.08192e-15 5
      vertex -9.5 5.38226e-15 15
      vertex -12.2268 2.5989 5
    endloop
  endfacet
  facet normal -0.953009 0.100165 0.285903
    outer loop
      vertex -12.2268 2.5989 5
      vertex -9.5 5.38226e-15 15
      vertex -9.2924 1.97516 15
    endloop
  endfacet
  facet normal 0 0 -1
    outer loop
      vertex -11.4467 5 5
      vertex -5 5 5
      vertex -12.2268 2.5989 5
    endloop
  endfacet
  facet normal 0 0 -1
    outer loop
      vertex -12.2268 2.5989 5
      vertex -5 5 5
      vertex -5 -5 5
    endloop
  endfacet
  facet normal 0 0 -1
    outer loop
      vertex -12.2268 2.5989 5
      vertex -5 -5 5
      vertex -11.4467 -5 5
    endloop
  endfacet
  facet normal 0 0 -1
    outer loop
      vertex -12.2268 2.5989 5
      vertex -11.4467 -5 5
      vertex -12.2268 -2.5989 5
    endloop
  endfacet
  facet normal 0 0 -1
    outer loop
      vertex -12.2268 2.5989 5
      vertex -12.2268 -2.5989 5
      vertex -12.5 7.08192e-15 5
    endloop
  endfacet
  facet normal 0 -1 0
    outer loop
      vertex -5 5 -5
      vertex -5 5 5
      vertex -11.4467 5 5
    endloop
  endfacet
  facet normal 0 -1 0
    outer loop
      vertex -14.5838 5 -5
      vertex -5 5 -5
      vertex -11.4467 5 5
    endloop
  endfacet
  facet normal 0 1 0
    outer loop
      vertex -5 -5 5
      vertex -5 -5 -5
      vertex -11.4467 -5 5
    endloop
  endfacet
  facet normal 0 1 0
    outer loop
      vertex -11.4467 -5 5
      vertex -5 -5 -5
      vertex -14.5838 -5 -5
    endloop
  endfacet
  facet normal 1 0 0
    outer loop
      vertex -5 14.6478 -5
      vertex -5 11.3819 5
      vertex -5 5 5
    endloop
  endfacet
  facet normal 1 0 0
    outer loop
      vertex -5 5 -5
      vertex -5 14.6478 -5
      vertex -5 5 5
    endloop
  endfacet
  facet normal 0 -1 0
    outer loop
      vertex 5 5 -20
      vertex 5 5 -5
      vertex -5 5 -5
    endloop
  endfacet
  facet normal 0 -1 0
    outer loop
      vertex -5 5 -20
      vertex 5 5 -20
      vertex -5 5 -5
    endloop
  endfacet
  facet normal 1 0 0
    outer loop
      vertex -5 5 -20
      vertex -5 5 -5
      vertex -5 -5 -5
    endloop
  endfacet
  facet normal 1 0 0
    outer loop
      vertex -5 -5 -20
      vertex -5 5 -20
      vertex -5 -5 -5
    endloop
  endfacet
  facet normal 1 0 0
    outer loop
      vertex -5 -5 -5
      vertex -5 -5 5
      vertex -5 -11.3819 5
    endloop
  endfacet
  facet normal 1 0 0
    outer loop
      vertex -5 -14.6478 -5
      vertex -5 -5 -5
      vertex -5 -11.3819 5
    endloop
  endfacet
  facet normal 0 1 0
    outer loop
      vertex 5 -5 -5
      vertex 5 -5 -20
      vertex -5 -5 -5
    endloop
  endfacet
  facet normal 0 1 0
    outer loop
      vertex -5 -5 -5
      vertex 5 -5 -20
      vertex -5 -5 -20
    endloop
  endfacet
  facet normal -0.953009 -0.100165 0.285903
    outer loop
      vertex -12.5 7.08192e-15 5
      vertex -12.2268 -2.5989 5
      vertex -9.5 5.38226e-15 15
    endloop
  endfacet
  facet normal -0.953009 -0.100165 0.285903
    outer loop
      vertex -9.5 5.38226e-15 15
      vertex -12.2268 -2.5989 5
      vertex -9.2924 -1.97516 15
    endloop
  endfacet
  facet normal -0.199233 0.937318 0.285903
    outer loop
      vertex -3.86271 11.8882 5
      vertex -2.93566 9.03504 15
      vertex -1.30661 12.4315 5
    endloop
  endfacet
  facet normal -0.199233 0.937318 0.285903
    outer loop
      vertex -1.30661 12.4315 5
      vertex -2.93566 9.03504 15
      vertex -0.99302 9.44796 15
    endloop
  endfacet
  facet normal 0 0.958259 0.285903
    outer loop
      vertex -1.30661 12.4315 5
      vertex -0.99302 9.44796 15
      vertex 1.30661 12.4315 5
    endloop
  endfacet
  facet normal 0 0.958259 0.285903
    outer loop
      vertex 1.30661 12.4315 5
      vertex -0.99302 9.44796 15
      vertex 0.99302 9.44796 15
    endloop
  endfacet
  facet normal 0.199233 0.937318 0.285903
    outer loop
      vertex 0.99302 9.44796 15
      vertex 2.93566 9.03504 15
      vertex 1.30661 12.4315 5
    endloop
  endfacet
  facet normal 0.199233 0.937318 0.285903
    outer loop
      vertex 1.30661 12.4315 5
      vertex 2.93566 9.03504 15
      vertex 3.86271 11.8882 5
    endloop
  endfacet
  facet normal 0.953009 0.100165 0.285903
    outer loop
      vertex 12.2268 2.5989 5
      vertex 9.2924 1.97516 15
      vertex 9.5 0 15
    endloop
  endfacet
  facet normal 0.953009 0.100165 0.285903
    outer loop
      vertex 12.5 0 5
      vertex 12.2268 2.5989 5
      vertex 9.5 0 15
    endloop
  endfacet
  facet normal 0.953009 -0.100165 0.285903
    outer loop
      vertex 9.5 0 15
      vertex 9.2924 -1.97516 15
      vertex 12.2268 -2.5989 5
    endloop
  endfacet
  facet normal 0.953009 -0.100165 0.285903
    outer loop
      vertex 12.5 0 5
      vertex 9.5 0 15
      vertex 12.2268 -2.5989 5
    endloop
  endfacet
  facet normal 0.199233 -0.937318 0.285903
    outer loop
      vertex 2.93566 -9.03504 15
      vertex 0.99302 -9.44796 15
      vertex 1.30661 -12.4315 5
    endloop
  endfacet
  facet normal 0.199233 -0.937318 0.285903
    outer loop
      vertex 3.86271 -11.8882 5
      vertex 2.93566 -9.03504 15
      vertex 1.30661 -12.4315 5
    endloop
  endfacet
  facet normal 0 -0.958259 0.285903
    outer loop
      vertex -0.99302 -9.44796 15
      vertex -1.30661 -12.4315 5
      vertex 1.30661 -12.4315 5
    endloop
  endfacet
  facet normal 0 -0.958259 0.285903
    outer loop
      vertex 0.99302 -9.44796 15
      vertex -0.99302 -9.44796 15
      vertex 1.30661 -12.4315 5
    endloop
  endfacet
  facet normal -0.199233 -0.937318 0.285903
    outer loop
      vertex -2.93566 -9.03504 15
      vertex -3.86271 -11.8882 5
      vertex -1.30661 -12.4315 5
    endloop
  endfacet
  facet normal -0.199233 -0.937318 0.285903
    outer loop
      vertex -0.99302 -9.44796 15
      vertex -2.93566 -9.03504 15
      vertex -1.30661 -12.4315 5
    endloop
  endfacet
  facet normal 0 1 0
    outer loop
      vertex 5 -5 15
      vertex 5 -5 5
      vertex -5 -5 15
    endloop
  endfacet
  facet normal 0 1 0
    outer loop
      vertex -5 -5 15
      vertex 5 -5 5
      vertex -5 -5 5
    endloop
  endfacet
  facet normal 1 0 0
    outer loop
      vertex -5 5 5
      vertex -5 5 15
      vertex -5 -5 15
    endloop
  endfacet
  facet normal 1 0 0
    outer loop
      vertex -5 -5 5
      vertex -5 5 5
      vertex -5 -5 15
    endloop
  endfacet
  facet normal -1 0 0
    outer loop
      vertex 5 5 15
      vertex 5 5 5
      vertex 5 -5 15
    endloop
  endfacet
  facet normal -1 0 0
    outer loop
      vertex 5 -5 15
      vertex 5 5 5
      vertex 5 -5 5
    endloop
  endfacet
  facet normal 0 -1 0
    outer loop
      vertex 5 5 5
      vertex 5 5 15
      vertex -5 5 15
    endloop
  endfacet
  facet normal 0 -1 0
    outer loop
      vertex -5 5 5
      vertex 5 5 5
      vertex -5 5 15
    endloop
  endfacet
  facet normal 0 0 -1
    outer loop
      vertex 5 -5 5
      vertex 5 -11.3819 5
      vertex -5 -5 5
    endloop
  endfacet
  facet normal 0 0 -1
    outer loop
      vertex -5 -5 5
      vertex 5 -11.3819 5
      vertex 3.86271 -11.8882 5
    endloop
  endfacet
  facet normal 0 0 -1
    outer loop
      vertex -5 -5 5
      vertex 3.86271 -11.8882 5
      vertex 1.30661 -12.4315 5
    endloop
  endfacet
  facet normal 0 0 -1
    outer loop
      vertex -5 -5 5
      vertex 1.30661 -12.4315 5
      vertex -1.30661 -12.4315 5
    endloop
  endfacet
  facet normal 0 0 -1
    outer loop
      vertex -5 -5 5
      vertex -1.30661 -12.4315 5
      vertex -3.86271 -11.8882 5
    endloop
  endfacet
  facet normal 0 0 -1
    outer loop
      vertex -5 -5 5
      vertex -3.86271 -11.8882 5
      vertex -5 -11.3819 5
    endloop
  endfacet
  facet normal -1 0 0
    outer loop
      vertex 5 5 -5
      vertex 5 5 -20
      vertex 5 -5 -5
    endloop
  endfacet
  facet normal -1 0 0
    outer loop
      vertex 5 -5 -5
      vertex 5 5 -20
      vertex 5 -5 -20
    endloop
  endfacet
  facet normal 0 1 0
    outer loop
      vertex 11.4467 -5 5
      vertex 14.5838 -5 -5
      vertex 5 -5 5
    endloop
  endfacet
  facet normal 0 1 0
    outer loop
      vertex 5 -5 5
      vertex 14.5838 -5 -5
      vertex 5 -5 -5
    endloop
  endfacet
  facet normal -1 0 0
    outer loop
      vertex 5 -5 5
      vertex 5 -5 -5
      vertex 5 -11.3819 5
    endloop
  endfacet
  facet normal -1 0 0
    outer loop
      vertex 5 -11.3819 5
      vertex 5 -5 -5
      vertex 5 -14.6478 -5
    endloop
  endfacet
  facet normal 0 0 -1
    outer loop
      vertex 11.4467 5 5
      vertex 12.2268 2.5989 5
      vertex 5 5 5
    endloop
  endfacet
  facet normal 0 0 -1
    outer loop
      vertex 5 5 5
      vertex 12.2268 2.5989 5
      vertex 12.5 0 5
    endloop
  endfacet
  facet normal 0 0 -1
    outer loop
      vertex 5 5 5
      vertex 12.5 0 5
      vertex 12.2268 -2.5989 5
    endloop
  endfacet
  facet normal 0 0 -1
    outer loop
      vertex 5 5 5
      vertex 12.2268 -2.5989 5
      vertex 11.4467 -5 5
    endloop
  endfacet
  facet normal 0 0 -1
    outer loop
      vertex 5 5 5
      vertex 11.4467 -5 5
      vertex 5 -5 5
    endloop
  endfacet
  facet normal -1 0 0
    outer loop
      vertex 5 11.3819 5
      vertex 5 14.6478 -5
      vertex 5 5 5
    endloop
  endfacet
  facet normal -1 0 0
    outer loop
      vertex 5 5 5
      vertex 5 14.6478 -5
      vertex 5 5 -5
    endloop
  endfacet
  facet normal 0 -1 0
    outer loop
      vertex 14.5838 5 -5
      vertex 11.4467 5 5
      vertex 5 5 5
    endloop
  endfacet
  facet normal 0 -1 0
    outer loop
      vertex 5 5 -5
      vertex 14.5838 5 -5
      vertex 5 5 5
    endloop
  endfacet
  facet normal 0 0 -1
    outer loop
      vertex -3.86271 11.8882 5
      vertex -1.30661 12.4315 5
      vertex -5 11.3819 5
    endloop
  endfacet
  facet normal 0 0 -1
    outer loop
      vertex -5 11.3819 5
      vertex -1.30661 12.4315 5
      vertex 1.30661 12.4315 5
    endloop
  endfacet
  facet normal 0 0 -1
    outer loop
      vertex -5 11.3819 5
      vertex 1.30661 12.4315 5
      vertex 3.86271 11.8882 5
    endloop
  endfacet
  facet normal 0 0 -1
    outer loop
      vertex -5 11.3819 5
      vertex 3.86271 11.8882 5
      vertex 5 11.3819 5
    endloop
  endfacet
  facet normal 0 0 -1
    outer loop
      vertex -5 11.3819 5
      vertex 5 11.3819 5
      vertex 5 5 5
    endloop
  endfacet
  facet normal 0 0 -1
    outer loop
      vertex -5 11.3819 5
      vertex 5 5 5
      vertex -5 5 5
    endloop
  endfacet
endsolid OpenSCAD_Model
