solid OpenSCAD_Model
  facet normal -0.882564 -0.44097 -0.163176
    outer loop
      vertex -12.5122 3.12221 -2.0466
      vertex -12.1239 3.45997 -5.05956
      vertex -12.5025 1.41103 2.52506
    endloop
  endfacet
  facet normal -0.882564 -0.44097 -0.163176
    outer loop
      vertex -12.5025 1.41103 2.52506
      vertex -12.1239 3.45997 -5.05956
      vertex -7.99055 -4.87683 -4.88611
    endloop
  endfacet
  facet normal -0.882564 -0.44097 -0.163176
    outer loop
      vertex -12.5025 1.41103 2.52506
      vertex -7.99055 -4.87683 -4.88611
      vertex -6.71233 -7.45493 -4.83247
    endloop
  endfacet
  facet normal -0.882564 -0.44097 -0.163176
    outer loop
      vertex -12.5025 1.41103 2.52506
      vertex -6.71233 -7.45493 -4.83247
      vertex -7.51966 -6.47717 -3.10823
    endloop
  endfacet
  facet normal -0.601928 0.798461 0.0119363
    outer loop
      vertex -12.5122 3.12221 -2.0466
      vertex -6.27035 7.77448 1.51448
      vertex -12.1239 3.45997 -5.05956
    endloop
  endfacet
  facet normal -0.601928 0.798461 0.0119363
    outer loop
      vertex -12.1239 3.45997 -5.05956
      vertex -6.27035 7.77448 1.51448
      vertex -4.73652 9.05819 -7.00861
    endloop
  endfacet
  facet normal -0.601928 0.798461 0.0119363
    outer loop
      vertex -12.1239 3.45997 -5.05956
      vertex -4.73652 9.05819 -7.00861
      vertex -9.38499 5.57384 -8.34325
    endloop
  endfacet
  facet normal -0.668356 0.696172 0.262003
    outer loop
      vertex -12.5122 3.12221 -2.0466
      vertex -12.5025 1.41103 2.52506
      vertex -6.27035 7.77448 1.51448
    endloop
  endfacet
  facet normal -0.668356 0.696172 0.262003
    outer loop
      vertex -6.27035 7.77448 1.51448
      vertex -12.5025 1.41103 2.52506
      vertex -12.4919 -0.455272 7.51113
    endloop
  endfacet
  facet normal -0.668356 0.696172 0.262003
    outer loop
      vertex -6.27035 7.77448 1.51448
      vertex -12.4919 -0.455272 7.51113
      vertex -12.1417 -1.05582 10
    endloop
  endfacet
  facet normal -0.668356 0.696172 0.262003
    outer loop
      vertex -6.27035 7.77448 1.51448
      vertex -12.1417 -1.05582 10
      vertex -9.44186 1.53619 10
    endloop
  endfacet
  facet normal -0.882564 -0.44097 -0.163176
    outer loop
      vertex -12.5025 1.41103 2.52506
      vertex -7.51966 -6.47717 -3.10823
      vertex -12.4919 -0.455272 7.51113
    endloop
  endfacet
  facet normal -0.882564 -0.44097 -0.163176
    outer loop
      vertex -12.4919 -0.455272 7.51113
      vertex -7.51966 -6.47717 -3.10823
      vertex -8.13279 -5.73459 -1.79873
    endloop
  endfacet
  facet normal -0.798324 -0.601335 -0.0327948
    outer loop
      vertex -8.13279 -5.73459 -1.79873
      vertex -7.51966 -6.47717 -3.10823
      vertex -7.15153 -7.5636 7.85153
    endloop
  endfacet
  facet normal -0.798324 -0.601335 -0.0327948
    outer loop
      vertex -7.15153 -7.5636 7.85153
      vertex -7.51966 -6.47717 -3.10823
      vertex -6.71233 -7.45493 -4.83247
    endloop
  endfacet
  facet normal -0.798324 -0.601335 -0.0327948
    outer loop
      vertex -7.15153 -7.5636 7.85153
      vertex -6.71233 -7.45493 -4.83247
      vertex -4.77365 -10 -5.35853
    endloop
  endfacet
  facet normal -0.798324 -0.601335 -0.0327948
    outer loop
      vertex -7.15153 -7.5636 7.85153
      vertex -4.77365 -10 -5.35853
      vertex -5.27387 -10 6.8184
    endloop
  endfacet
  facet normal -0.615817 -0.320299 -0.719846
    outer loop
      vertex -7.99055 -4.87683 -4.88611
      vertex -3.93814 -1.17504 -10
      vertex -6.71233 -7.45493 -4.83247
    endloop
  endfacet
  facet normal -0.615817 -0.320299 -0.719846
    outer loop
      vertex -6.71233 -7.45493 -4.83247
      vertex -3.93814 -1.17504 -10
      vertex 0.643205 -9.98329 -10
    endloop
  endfacet
  facet normal -0.615817 -0.320299 -0.719846
    outer loop
      vertex -6.71233 -7.45493 -4.83247
      vertex 0.643205 -9.98329 -10
      vertex 0.632351 -10 -9.98328
    endloop
  endfacet
  facet normal -0.615817 -0.320299 -0.719846
    outer loop
      vertex -6.71233 -7.45493 -4.83247
      vertex 0.632351 -10 -9.98328
      vertex -4.77365 -10 -5.35853
    endloop
  endfacet
  facet normal -0.615817 -0.320299 -0.719846
    outer loop
      vertex -12.1239 3.45997 -5.05956
      vertex -9.38499 5.57384 -8.34325
      vertex -7.99055 -4.87683 -4.88611
    endloop
  endfacet
  facet normal -0.615817 -0.320299 -0.719846
    outer loop
      vertex -7.99055 -4.87683 -4.88611
      vertex -9.38499 5.57384 -8.34325
      vertex -5.43939 1.71132 -10
    endloop
  endfacet
  facet normal -0.615817 -0.320299 -0.719846
    outer loop
      vertex -7.99055 -4.87683 -4.88611
      vertex -5.43939 1.71132 -10
      vertex -3.93814 -1.17504 -10
    endloop
  endfacet
  facet normal -0.0180283 0.378522 -0.925417
    outer loop
      vertex -9.38499 5.57384 -8.34325
      vertex -4.73652 9.05819 -7.00861
      vertex -5.43939 1.71132 -10
    endloop
  endfacet
  facet normal -0.0180283 0.378522 -0.925417
    outer loop
      vertex -5.43939 1.71132 -10
      vertex -4.73652 9.05819 -7.00861
      vertex -3.48005 10 -6.64786
    endloop
  endfacet
  facet normal -0.0180283 0.378522 -0.925417
    outer loop
      vertex -5.43939 1.71132 -10
      vertex -3.48005 10 -6.64786
      vertex -2.20137 10 -6.67277
    endloop
  endfacet
  facet normal -0.0180283 0.378522 -0.925417
    outer loop
      vertex -5.43939 1.71132 -10
      vertex -2.20137 10 -6.67277
      vertex 0.403662 1.98961 -10
    endloop
  endfacet
  facet normal -0.601928 0.798461 0.0119363
    outer loop
      vertex -6.27035 7.77448 1.51448
      vertex -3.28441 10 3.218
      vertex -4.73652 9.05819 -7.00861
    endloop
  endfacet
  facet normal -0.601928 0.798461 0.0119363
    outer loop
      vertex -4.73652 9.05819 -7.00861
      vertex -3.28441 10 3.218
      vertex -3.48005 10 -6.64786
    endloop
  endfacet
  facet normal -0.668356 0.696172 0.262003
    outer loop
      vertex -9.44186 1.53619 10
      vertex -0.643205 9.98329 10
      vertex -6.27035 7.77448 1.51448
    endloop
  endfacet
  facet normal -0.668356 0.696172 0.262003
    outer loop
      vertex -6.27035 7.77448 1.51448
      vertex -0.643205 9.98329 10
      vertex -0.632351 10 9.98328
    endloop
  endfacet
  facet normal -0.668356 0.696172 0.262003
    outer loop
      vertex -6.27035 7.77448 1.51448
      vertex -0.632351 10 9.98328
      vertex -3.28441 10 3.218
    endloop
  endfacet
  facet normal 0 0 1
    outer loop
      vertex -9.44186 1.53619 10
      vertex -12.1417 -1.05582 10
      vertex -11.0562 -2.49697 10
    endloop
  endfacet
  facet normal 0 0 1
    outer loop
      vertex 5.43939 -1.71132 10
      vertex -9.44186 1.53619 10
      vertex -0.403662 -1.98961 10
    endloop
  endfacet
  facet normal 0 0 1
    outer loop
      vertex -0.403662 -1.98961 10
      vertex -9.44186 1.53619 10
      vertex -11.0562 -2.49697 10
    endloop
  endfacet
  facet normal 0 0 1
    outer loop
      vertex 3.93814 1.17504 10
      vertex -9.44186 1.53619 10
      vertex 5.43939 -1.71132 10
    endloop
  endfacet
  facet normal 0 0 1
    outer loop
      vertex -0.643205 9.98329 10
      vertex -9.44186 1.53619 10
      vertex 3.93814 1.17504 10
    endloop
  endfacet
  facet normal -0.798324 -0.601335 -0.0327948
    outer loop
      vertex -12.4919 -0.455272 7.51113
      vertex -8.13279 -5.73459 -1.79873
      vertex -12.1417 -1.05582 10
    endloop
  endfacet
  facet normal -0.798324 -0.601335 -0.0327948
    outer loop
      vertex -12.1417 -1.05582 10
      vertex -8.13279 -5.73459 -1.79873
      vertex -7.15153 -7.5636 7.85153
    endloop
  endfacet
  facet normal -0.798324 -0.601335 -0.0327948
    outer loop
      vertex -12.1417 -1.05582 10
      vertex -7.15153 -7.5636 7.85153
      vertex -11.0562 -2.49697 10
    endloop
  endfacet
  facet normal 0.0180283 -0.378522 0.925417
    outer loop
      vertex -0.403662 -1.98961 10
      vertex -11.0562 -2.49697 10
      vertex -7.15153 -7.5636 7.85153
    endloop
  endfacet
  facet normal 0.0180283 -0.378522 0.925417
    outer loop
      vertex 2.20137 -10 6.67277
      vertex -0.403662 -1.98961 10
      vertex -5.27387 -10 6.8184
    endloop
  endfacet
  facet normal 0.0180283 -0.378522 0.925417
    outer loop
      vertex -5.27387 -10 6.8184
      vertex -0.403662 -1.98961 10
      vertex -7.15153 -7.5636 7.85153
    endloop
  endfacet
  facet normal 0 -1 0
    outer loop
      vertex 2.20137 -10 6.67277
      vertex -5.27387 -10 6.8184
      vertex -4.77365 -10 -5.35853
    endloop
  endfacet
  facet normal 0 -1 0
    outer loop
      vertex 3.28441 -10 -3.218
      vertex 2.20137 -10 6.67277
      vertex 0.632351 -10 -9.98328
    endloop
  endfacet
  facet normal 0 -1 0
    outer loop
      vertex 0.632351 -10 -9.98328
      vertex 2.20137 -10 6.67277
      vertex -4.77365 -10 -5.35853
    endloop
  endfacet
  facet normal 0 -1 0
    outer loop
      vertex 3.48005 -10 6.64786
      vertex 2.20137 -10 6.67277
      vertex 3.28441 -10 -3.218
    endloop
  endfacet
  facet normal 0.668356 -0.696172 -0.262003
    outer loop
      vertex 3.28441 -10 -3.218
      vertex 0.632351 -10 -9.98328
      vertex 0.643205 -9.98329 -10
    endloop
  endfacet
  facet normal 0.668356 -0.696172 -0.262003
    outer loop
      vertex 6.27035 -7.77448 -1.51448
      vertex 3.28441 -10 -3.218
      vertex 9.44186 -1.53619 -10
    endloop
  endfacet
  facet normal 0.668356 -0.696172 -0.262003
    outer loop
      vertex 9.44186 -1.53619 -10
      vertex 3.28441 -10 -3.218
      vertex 0.643205 -9.98329 -10
    endloop
  endfacet
  facet normal 0 0 -1
    outer loop
      vertex -5.43939 1.71132 -10
      vertex 0.403662 1.98961 -10
      vertex -3.93814 -1.17504 -10
    endloop
  endfacet
  facet normal 0 0 -1
    outer loop
      vertex -3.93814 -1.17504 -10
      vertex 0.403662 1.98961 -10
      vertex 11.0562 2.49697 -10
    endloop
  endfacet
  facet normal 0 0 -1
    outer loop
      vertex -3.93814 -1.17504 -10
      vertex 11.0562 2.49697 -10
      vertex 12.1417 1.05582 -10
    endloop
  endfacet
  facet normal 0 0 -1
    outer loop
      vertex -3.93814 -1.17504 -10
      vertex 12.1417 1.05582 -10
      vertex 9.44186 -1.53619 -10
    endloop
  endfacet
  facet normal 0 0 -1
    outer loop
      vertex -3.93814 -1.17504 -10
      vertex 9.44186 -1.53619 -10
      vertex 0.643205 -9.98329 -10
    endloop
  endfacet
  facet normal -0.0180283 0.378522 -0.925417
    outer loop
      vertex -2.20137 10 -6.67277
      vertex 5.27387 10 -6.8184
      vertex 0.403662 1.98961 -10
    endloop
  endfacet
  facet normal -0.0180283 0.378522 -0.925417
    outer loop
      vertex 0.403662 1.98961 -10
      vertex 5.27387 10 -6.8184
      vertex 7.15153 7.5636 -7.85153
    endloop
  endfacet
  facet normal -0.0180283 0.378522 -0.925417
    outer loop
      vertex 0.403662 1.98961 -10
      vertex 7.15153 7.5636 -7.85153
      vertex 11.0562 2.49697 -10
    endloop
  endfacet
  facet normal 0 1 0
    outer loop
      vertex -3.48005 10 -6.64786
      vertex -3.28441 10 3.218
      vertex -2.20137 10 -6.67277
    endloop
  endfacet
  facet normal 0 1 0
    outer loop
      vertex -2.20137 10 -6.67277
      vertex -3.28441 10 3.218
      vertex -0.632351 10 9.98328
    endloop
  endfacet
  facet normal 0 1 0
    outer loop
      vertex -2.20137 10 -6.67277
      vertex -0.632351 10 9.98328
      vertex 4.77365 10 5.35853
    endloop
  endfacet
  facet normal 0 1 0
    outer loop
      vertex -2.20137 10 -6.67277
      vertex 4.77365 10 5.35853
      vertex 5.27387 10 -6.8184
    endloop
  endfacet
  facet normal 0.615817 0.320299 0.719846
    outer loop
      vertex -0.632351 10 9.98328
      vertex -0.643205 9.98329 10
      vertex 3.93814 1.17504 10
    endloop
  endfacet
  facet normal 0.615817 0.320299 0.719846
    outer loop
      vertex 6.71233 7.45493 4.83247
      vertex -0.632351 10 9.98328
      vertex 7.99055 4.87683 4.88611
    endloop
  endfacet
  facet normal 0.615817 0.320299 0.719846
    outer loop
      vertex 7.99055 4.87683 4.88611
      vertex -0.632351 10 9.98328
      vertex 3.93814 1.17504 10
    endloop
  endfacet
  facet normal 0.615817 0.320299 0.719846
    outer loop
      vertex 4.77365 10 5.35853
      vertex -0.632351 10 9.98328
      vertex 6.71233 7.45493 4.83247
    endloop
  endfacet
  facet normal 0.615817 0.320299 0.719846
    outer loop
      vertex 7.99055 4.87683 4.88611
      vertex 3.93814 1.17504 10
      vertex 5.43939 -1.71132 10
    endloop
  endfacet
  facet normal 0.615817 0.320299 0.719846
    outer loop
      vertex 12.1239 -3.45997 5.05956
      vertex 7.99055 4.87683 4.88611
      vertex 9.38499 -5.57384 8.34325
    endloop
  endfacet
  facet normal 0.615817 0.320299 0.719846
    outer loop
      vertex 9.38499 -5.57384 8.34325
      vertex 7.99055 4.87683 4.88611
      vertex 5.43939 -1.71132 10
    endloop
  endfacet
  facet normal 0.0180283 -0.378522 0.925417
    outer loop
      vertex 5.43939 -1.71132 10
      vertex -0.403662 -1.98961 10
      vertex 2.20137 -10 6.67277
    endloop
  endfacet
  facet normal 0.0180283 -0.378522 0.925417
    outer loop
      vertex 4.73652 -9.05819 7.00861
      vertex 5.43939 -1.71132 10
      vertex 3.48005 -10 6.64786
    endloop
  endfacet
  facet normal 0.0180283 -0.378522 0.925417
    outer loop
      vertex 3.48005 -10 6.64786
      vertex 5.43939 -1.71132 10
      vertex 2.20137 -10 6.67277
    endloop
  endfacet
  facet normal 0.0180283 -0.378522 0.925417
    outer loop
      vertex 9.38499 -5.57384 8.34325
      vertex 5.43939 -1.71132 10
      vertex 4.73652 -9.05819 7.00861
    endloop
  endfacet
  facet normal 0.601928 -0.798461 -0.0119363
    outer loop
      vertex 3.48005 -10 6.64786
      vertex 3.28441 -10 -3.218
      vertex 6.27035 -7.77448 -1.51448
    endloop
  endfacet
  facet normal 0.601928 -0.798461 -0.0119363
    outer loop
      vertex 4.73652 -9.05819 7.00861
      vertex 3.48005 -10 6.64786
      vertex 6.27035 -7.77448 -1.51448
    endloop
  endfacet
  facet normal 0.601928 -0.798461 -0.0119363
    outer loop
      vertex 9.38499 -5.57384 8.34325
      vertex 4.73652 -9.05819 7.00861
      vertex 6.27035 -7.77448 -1.51448
    endloop
  endfacet
  facet normal 0.601928 -0.798461 -0.0119363
    outer loop
      vertex 12.5122 -3.12221 2.0466
      vertex 9.38499 -5.57384 8.34325
      vertex 6.27035 -7.77448 -1.51448
    endloop
  endfacet
  facet normal 0.601928 -0.798461 -0.0119363
    outer loop
      vertex 12.1239 -3.45997 5.05956
      vertex 9.38499 -5.57384 8.34325
      vertex 12.5122 -3.12221 2.0466
    endloop
  endfacet
  facet normal 0.668356 -0.696172 -0.262003
    outer loop
      vertex 12.5122 -3.12221 2.0466
      vertex 6.27035 -7.77448 -1.51448
      vertex 9.44186 -1.53619 -10
    endloop
  endfacet
  facet normal 0.668356 -0.696172 -0.262003
    outer loop
      vertex 12.4919 0.455272 -7.51113
      vertex 12.5122 -3.12221 2.0466
      vertex 12.1417 1.05582 -10
    endloop
  endfacet
  facet normal 0.668356 -0.696172 -0.262003
    outer loop
      vertex 12.1417 1.05582 -10
      vertex 12.5122 -3.12221 2.0466
      vertex 9.44186 -1.53619 -10
    endloop
  endfacet
  facet normal 0.668356 -0.696172 -0.262003
    outer loop
      vertex 12.5025 -1.41103 -2.52506
      vertex 12.5122 -3.12221 2.0466
      vertex 12.4919 0.455272 -7.51113
    endloop
  endfacet
  facet normal 0.798324 0.601335 0.0327948
    outer loop
      vertex 11.0562 2.49697 -10
      vertex 7.15153 7.5636 -7.85153
      vertex 8.13279 5.73459 1.79873
    endloop
  endfacet
  facet normal 0.798324 0.601335 0.0327948
    outer loop
      vertex 12.1417 1.05582 -10
      vertex 11.0562 2.49697 -10
      vertex 12.4919 0.455272 -7.51113
    endloop
  endfacet
  facet normal 0.798324 0.601335 0.0327948
    outer loop
      vertex 12.4919 0.455272 -7.51113
      vertex 11.0562 2.49697 -10
      vertex 8.13279 5.73459 1.79873
    endloop
  endfacet
  facet normal 0.798324 0.601335 0.0327948
    outer loop
      vertex 5.27387 10 -6.8184
      vertex 4.77365 10 5.35853
      vertex 6.71233 7.45493 4.83247
    endloop
  endfacet
  facet normal 0.798324 0.601335 0.0327948
    outer loop
      vertex 8.13279 5.73459 1.79873
      vertex 5.27387 10 -6.8184
      vertex 7.51966 6.47717 3.10823
    endloop
  endfacet
  facet normal 0.798324 0.601335 0.0327948
    outer loop
      vertex 7.51966 6.47717 3.10823
      vertex 5.27387 10 -6.8184
      vertex 6.71233 7.45493 4.83247
    endloop
  endfacet
  facet normal 0.798324 0.601335 0.0327948
    outer loop
      vertex 7.15153 7.5636 -7.85153
      vertex 5.27387 10 -6.8184
      vertex 8.13279 5.73459 1.79873
    endloop
  endfacet
  facet normal 0.882564 0.44097 0.163176
    outer loop
      vertex 7.51966 6.47717 3.10823
      vertex 6.71233 7.45493 4.83247
      vertex 7.99055 4.87683 4.88611
    endloop
  endfacet
  facet normal 0.882564 0.44097 0.163176
    outer loop
      vertex 12.5122 -3.12221 2.0466
      vertex 7.51966 6.47717 3.10823
      vertex 12.1239 -3.45997 5.05956
    endloop
  endfacet
  facet normal 0.882564 0.44097 0.163176
    outer loop
      vertex 12.1239 -3.45997 5.05956
      vertex 7.51966 6.47717 3.10823
      vertex 7.99055 4.87683 4.88611
    endloop
  endfacet
  facet normal 0.882564 0.44097 0.163176
    outer loop
      vertex 12.5025 -1.41103 -2.52506
      vertex 7.51966 6.47717 3.10823
      vertex 12.5122 -3.12221 2.0466
    endloop
  endfacet
  facet normal 0.882564 0.44097 0.163176
    outer loop
      vertex 8.13279 5.73459 1.79873
      vertex 7.51966 6.47717 3.10823
      vertex 12.5025 -1.41103 -2.52506
    endloop
  endfacet
  facet normal 0.882564 0.44097 0.163176
    outer loop
      vertex 12.4919 0.455272 -7.51113
      vertex 8.13279 5.73459 1.79873
      vertex 12.5025 -1.41103 -2.52506
    endloop
  endfacet
endsolid OpenSCAD_Model
