solid OpenSCAD_Model
  facet normal -1 0 0
    outer loop
      vertex 3.75279 0.4 0.4
      vertex 3.75279 0.4 0.6
      vertex 3.75279 0.6 0.4
    endloop
  endfacet
  facet normal -1 0 0
    outer loop
      vertex 3.75279 0.6 0.4
      vertex 3.75279 0.4 0.6
      vertex 3.75279 0.6 0.6
    endloop
  endfacet
  facet normal -0.850651 -0.525731 0
    outer loop
      vertex 3.75279 0.4 0.4
      vertex 4.07639 -0.123607 0.4
      vertex 3.75279 0.4 0.6
    endloop
  endfacet
  facet normal -0.850651 -0.525731 0
    outer loop
      vertex 3.75279 0.4 0.6
      vertex 4.07639 -0.123607 0.4
      vertex 4.07639 -0.123607 0.6
    endloop
  endfacet
  facet normal -0.850651 -0.525731 9.53156e-07
    outer loop
      vertex 4.07639 -0.123607 0.4
      vertex 3.75279 0.4 0.4
      vertex 3.81459 0.3 0.238196
    endloop
  endfacet
  facet normal -0.934172 4.45451e-06 -0.356822
    outer loop
      vertex 3.81459 0.3 0.238196
      vertex 3.75279 0.4 0.4
      vertex 3.87639 0.4 0.0763931
    endloop
  endfacet
  facet normal -0.934172 0 -0.356822
    outer loop
      vertex 3.75279 0.4 0.4
      vertex 3.75279 0.6 0.4
      vertex 3.87639 0.4 0.0763931
    endloop
  endfacet
  facet normal -0.934172 0 -0.356822
    outer loop
      vertex 3.87639 0.4 0.0763931
      vertex 3.75279 0.6 0.4
      vertex 3.87639 0.6 0.0763931
    endloop
  endfacet
  facet normal -0.934172 -4.45451e-06 -0.356822
    outer loop
      vertex 3.87639 0.6 0.0763931
      vertex 3.75279 0.6 0.4
      vertex 3.81459 0.7 0.238196
    endloop
  endfacet
  facet normal -0.85065 0.525732 1.54223e-06
    outer loop
      vertex 3.81459 0.7 0.238196
      vertex 3.75279 0.6 0.4
      vertex 4.01459 1.02361 0.238196
    endloop
  endfacet
  facet normal -0.850651 0.525731 -9.53156e-07
    outer loop
      vertex 4.01459 1.02361 0.238196
      vertex 3.75279 0.6 0.4
      vertex 4.07639 1.12361 0.4
    endloop
  endfacet
  facet normal -0.850651 0.525731 0
    outer loop
      vertex 3.75279 0.6 0.4
      vertex 3.75279 0.6 0.6
      vertex 4.07639 1.12361 0.4
    endloop
  endfacet
  facet normal -0.850651 0.525731 0
    outer loop
      vertex 4.07639 1.12361 0.4
      vertex 3.75279 0.6 0.6
      vertex 4.07639 1.12361 0.6
    endloop
  endfacet
  facet normal -0.850651 0.525731 9.53156e-07
    outer loop
      vertex 4.07639 1.12361 0.6
      vertex 3.75279 0.6 0.6
      vertex 4.01459 1.02361 0.761804
    endloop
  endfacet
  facet normal -0.85065 0.525732 -1.54223e-06
    outer loop
      vertex 4.01459 1.02361 0.761804
      vertex 3.75279 0.6 0.6
      vertex 3.81459 0.7 0.761804
    endloop
  endfacet
  facet normal -0.934172 -4.45451e-06 0.356822
    outer loop
      vertex 3.81459 0.7 0.761804
      vertex 3.75279 0.6 0.6
      vertex 3.87639 0.6 0.923607
    endloop
  endfacet
  facet normal -0.934172 0 0.356822
    outer loop
      vertex 3.75279 0.4 0.6
      vertex 3.87639 0.4 0.923607
      vertex 3.75279 0.6 0.6
    endloop
  endfacet
  facet normal -0.934172 0 0.356822
    outer loop
      vertex 3.75279 0.6 0.6
      vertex 3.87639 0.4 0.923607
      vertex 3.87639 0.6 0.923607
    endloop
  endfacet
  facet normal -0.934172 4.45451e-06 0.356822
    outer loop
      vertex 3.87639 0.4 0.923607
      vertex 3.75279 0.4 0.6
      vertex 3.81459 0.3 0.761804
    endloop
  endfacet
  facet normal -0.850651 -0.525731 -9.53156e-07
    outer loop
      vertex 3.81459 0.3 0.761804
      vertex 3.75279 0.4 0.6
      vertex 4.07639 -0.123607 0.6
    endloop
  endfacet
  facet normal -0.500001 -0.809017 0.309016
    outer loop
      vertex 4.2382 -0.18541 0.7
      vertex 4.01459 -0.0236073 0.761804
      vertex 4.07639 -0.123607 0.6
    endloop
  endfacet
  facet normal -0.356822 -0.934172 -4.45451e-06
    outer loop
      vertex 4.2382 -0.18541 0.7
      vertex 4.07639 -0.123607 0.6
      vertex 4.4 -0.247213 0.6
    endloop
  endfacet
  facet normal -0.356822 -0.934172 0
    outer loop
      vertex 4.07639 -0.123607 0.6
      vertex 4.07639 -0.123607 0.4
      vertex 4.4 -0.247213 0.4
    endloop
  endfacet
  facet normal -0.356822 -0.934172 0
    outer loop
      vertex 4.4 -0.247213 0.6
      vertex 4.07639 -0.123607 0.6
      vertex 4.4 -0.247213 0.4
    endloop
  endfacet
  facet normal -0.85065 -0.525732 1.54223e-06
    outer loop
      vertex 4.01459 -0.0236073 0.761804
      vertex 3.81459 0.3 0.761804
      vertex 4.07639 -0.123607 0.6
    endloop
  endfacet
  facet normal -0.500001 -0.809017 -0.309016
    outer loop
      vertex 4.07639 -0.123607 0.4
      vertex 4.01459 -0.0236073 0.238196
      vertex 4.2382 -0.18541 0.3
    endloop
  endfacet
  facet normal -0.85065 -0.525732 -1.54223e-06
    outer loop
      vertex 4.07639 -0.123607 0.4
      vertex 3.81459 0.3 0.238196
      vertex 4.01459 -0.0236073 0.238196
    endloop
  endfacet
  facet normal -0.356822 -0.934172 4.45451e-06
    outer loop
      vertex 4.4 -0.247213 0.4
      vertex 4.07639 -0.123607 0.4
      vertex 4.2382 -0.18541 0.3
    endloop
  endfacet
  facet normal -0.85065 -0.525732 -4.05626e-06
    outer loop
      vertex 4.01459 -0.0236073 0.238196
      vertex 3.81459 0.3 0.238196
      vertex 3.91459 0.138197 0.176394
    endloop
  endfacet
  facet normal -0.809016 -0.309021 -0.499999
    outer loop
      vertex 3.91459 0.138197 0.176394
      vertex 3.81459 0.3 0.238196
      vertex 3.97639 0.238196 0.0145903
    endloop
  endfacet
  facet normal -0.809017 -0.309016 -0.500001
    outer loop
      vertex 3.97639 0.238196 0.0145903
      vertex 3.81459 0.3 0.238196
      vertex 3.87639 0.4 0.0763931
    endloop
  endfacet
  facet normal -0.525732 -1.54223e-06 -0.85065
    outer loop
      vertex 3.97639 0.238196 0.0145903
      vertex 3.87639 0.4 0.0763931
      vertex 4.3 0.238196 -0.18541
    endloop
  endfacet
  facet normal -0.525731 9.53156e-07 -0.850651
    outer loop
      vertex 4.3 0.238196 -0.18541
      vertex 3.87639 0.4 0.0763931
      vertex 4.4 0.4 -0.247213
    endloop
  endfacet
  facet normal -0.525731 0 -0.850651
    outer loop
      vertex 3.87639 0.4 0.0763931
      vertex 3.87639 0.6 0.0763931
      vertex 4.4 0.4 -0.247213
    endloop
  endfacet
  facet normal -0.525731 0 -0.850651
    outer loop
      vertex 4.4 0.4 -0.247213
      vertex 3.87639 0.6 0.0763931
      vertex 4.4 0.6 -0.247213
    endloop
  endfacet
  facet normal -0.525731 -9.53156e-07 -0.850651
    outer loop
      vertex 4.4 0.6 -0.247213
      vertex 3.87639 0.6 0.0763931
      vertex 4.3 0.761804 -0.18541
    endloop
  endfacet
  facet normal -0.525732 1.54223e-06 -0.85065
    outer loop
      vertex 4.3 0.761804 -0.18541
      vertex 3.87639 0.6 0.0763931
      vertex 3.97639 0.761804 0.0145903
    endloop
  endfacet
  facet normal -0.809017 0.309016 -0.500001
    outer loop
      vertex 3.87639 0.6 0.0763931
      vertex 3.81459 0.7 0.238196
      vertex 3.97639 0.761804 0.0145903
    endloop
  endfacet
  facet normal -0.809016 0.309021 -0.499999
    outer loop
      vertex 3.97639 0.761804 0.0145903
      vertex 3.81459 0.7 0.238196
      vertex 3.91459 0.861803 0.176394
    endloop
  endfacet
  facet normal -0.85065 0.525732 -4.05626e-06
    outer loop
      vertex 3.91459 0.861803 0.176394
      vertex 3.81459 0.7 0.238196
      vertex 4.01459 1.02361 0.238196
    endloop
  endfacet
  facet normal -0.499999 0.809016 -0.309021
    outer loop
      vertex 4.17639 1.08541 0.138197
      vertex 4.01459 1.02361 0.238196
      vertex 4.2382 1.18541 0.3
    endloop
  endfacet
  facet normal -0.500001 0.809017 -0.309016
    outer loop
      vertex 4.2382 1.18541 0.3
      vertex 4.01459 1.02361 0.238196
      vertex 4.07639 1.12361 0.4
    endloop
  endfacet
  facet normal -0.577349 0.577348 -0.577355
    outer loop
      vertex 4.17639 1.08541 0.138197
      vertex 3.91459 0.861803 0.176394
      vertex 4.01459 1.02361 0.238196
    endloop
  endfacet
  facet normal -0.356822 0.934172 4.45451e-06
    outer loop
      vertex 4.2382 1.18541 0.3
      vertex 4.07639 1.12361 0.4
      vertex 4.4 1.24721 0.4
    endloop
  endfacet
  facet normal -0.356822 0.934172 0
    outer loop
      vertex 4.07639 1.12361 0.4
      vertex 4.07639 1.12361 0.6
      vertex 4.4 1.24721 0.4
    endloop
  endfacet
  facet normal -0.356822 0.934172 0
    outer loop
      vertex 4.4 1.24721 0.4
      vertex 4.07639 1.12361 0.6
      vertex 4.4 1.24721 0.6
    endloop
  endfacet
  facet normal -0.500001 0.809017 0.309016
    outer loop
      vertex 4.07639 1.12361 0.6
      vertex 4.01459 1.02361 0.761804
      vertex 4.2382 1.18541 0.7
    endloop
  endfacet
  facet normal -0.356822 0.934172 -4.45451e-06
    outer loop
      vertex 4.4 1.24721 0.6
      vertex 4.07639 1.12361 0.6
      vertex 4.2382 1.18541 0.7
    endloop
  endfacet
  facet normal -0.499999 0.809016 0.309021
    outer loop
      vertex 4.2382 1.18541 0.7
      vertex 4.01459 1.02361 0.761804
      vertex 4.17639 1.08541 0.861803
    endloop
  endfacet
  facet normal -0.577349 0.577348 0.577355
    outer loop
      vertex 4.01459 1.02361 0.761804
      vertex 3.91459 0.861803 0.823606
      vertex 4.17639 1.08541 0.861803
    endloop
  endfacet
  facet normal -0.85065 0.525732 4.05626e-06
    outer loop
      vertex 4.01459 1.02361 0.761804
      vertex 3.81459 0.7 0.761804
      vertex 3.91459 0.861803 0.823606
    endloop
  endfacet
  facet normal -0.809016 0.309021 0.499999
    outer loop
      vertex 3.91459 0.861803 0.823606
      vertex 3.81459 0.7 0.761804
      vertex 3.97639 0.761804 0.98541
    endloop
  endfacet
  facet normal -0.809017 0.309016 0.500001
    outer loop
      vertex 3.97639 0.761804 0.98541
      vertex 3.81459 0.7 0.761804
      vertex 3.87639 0.6 0.923607
    endloop
  endfacet
  facet normal -0.525732 1.54223e-06 0.85065
    outer loop
      vertex 3.97639 0.761804 0.98541
      vertex 3.87639 0.6 0.923607
      vertex 4.3 0.761804 1.18541
    endloop
  endfacet
  facet normal -0.525731 -9.53156e-07 0.850651
    outer loop
      vertex 4.3 0.761804 1.18541
      vertex 3.87639 0.6 0.923607
      vertex 4.4 0.6 1.24721
    endloop
  endfacet
  facet normal -0.525731 0 0.850651
    outer loop
      vertex 3.87639 0.6 0.923607
      vertex 3.87639 0.4 0.923607
      vertex 4.4 0.4 1.24721
    endloop
  endfacet
  facet normal -0.525731 0 0.850651
    outer loop
      vertex 4.4 0.6 1.24721
      vertex 3.87639 0.6 0.923607
      vertex 4.4 0.4 1.24721
    endloop
  endfacet
  facet normal -0.525731 9.53156e-07 0.850651
    outer loop
      vertex 4.4 0.4 1.24721
      vertex 3.87639 0.4 0.923607
      vertex 4.3 0.238196 1.18541
    endloop
  endfacet
  facet normal -0.525732 -1.54223e-06 0.85065
    outer loop
      vertex 4.3 0.238196 1.18541
      vertex 3.87639 0.4 0.923607
      vertex 3.97639 0.238196 0.98541
    endloop
  endfacet
  facet normal -0.809017 -0.309016 0.500001
    outer loop
      vertex 3.87639 0.4 0.923607
      vertex 3.81459 0.3 0.761804
      vertex 3.97639 0.238196 0.98541
    endloop
  endfacet
  facet normal -0.809016 -0.309021 0.499999
    outer loop
      vertex 3.97639 0.238196 0.98541
      vertex 3.81459 0.3 0.761804
      vertex 3.91459 0.138197 0.823606
    endloop
  endfacet
  facet normal -0.85065 -0.525732 4.05626e-06
    outer loop
      vertex 3.91459 0.138197 0.823606
      vertex 3.81459 0.3 0.761804
      vertex 4.01459 -0.0236073 0.761804
    endloop
  endfacet
  facet normal -0.499999 -0.809016 0.309021
    outer loop
      vertex 4.17639 -0.0854101 0.861803
      vertex 4.01459 -0.0236073 0.761804
      vertex 4.2382 -0.18541 0.7
    endloop
  endfacet
  facet normal -4.05626e-06 -0.85065 0.525732
    outer loop
      vertex 4.2382 0.0145903 1.02361
      vertex 4.17639 -0.0854101 0.861803
      vertex 4.2382 -0.18541 0.7
    endloop
  endfacet
  facet normal 1.54223e-06 -0.85065 0.525732
    outer loop
      vertex 4.2382 0.0145903 1.02361
      vertex 4.2382 -0.18541 0.7
      vertex 4.4 -0.247213 0.6
    endloop
  endfacet
  facet normal -0.577352 -0.577348 0.577351
    outer loop
      vertex 4.1382 0.176394 1.08541
      vertex 3.91459 0.138197 0.823606
      vertex 4.01459 -0.0236073 0.761804
    endloop
  endfacet
  facet normal -0.577352 -0.577348 0.577351
    outer loop
      vertex 4.1382 0.176394 1.08541
      vertex 4.01459 -0.0236073 0.761804
      vertex 4.2382 0.0145903 1.02361
    endloop
  endfacet
  facet normal -0.577348 -0.577355 0.577349
    outer loop
      vertex 4.2382 0.0145903 1.02361
      vertex 4.01459 -0.0236073 0.761804
      vertex 4.17639 -0.0854101 0.861803
    endloop
  endfacet
  facet normal -9.53156e-07 -0.850651 0.525731
    outer loop
      vertex 4.4 0.0763931 1.12361
      vertex 4.2382 0.0145903 1.02361
      vertex 4.4 -0.247213 0.6
    endloop
  endfacet
  facet normal 0 -0.850651 0.525731
    outer loop
      vertex 4.4 0.0763931 1.12361
      vertex 4.4 -0.247213 0.6
      vertex 4.6 -0.247213 0.6
    endloop
  endfacet
  facet normal 0 -0.850651 0.525731
    outer loop
      vertex 4.6 0.0763931 1.12361
      vertex 4.4 0.0763931 1.12361
      vertex 4.6 -0.247213 0.6
    endloop
  endfacet
  facet normal 0 -1 0
    outer loop
      vertex 4.4 -0.247213 0.6
      vertex 4.4 -0.247213 0.4
      vertex 4.6 -0.247213 0.4
    endloop
  endfacet
  facet normal 0 -1 0
    outer loop
      vertex 4.6 -0.247213 0.6
      vertex 4.4 -0.247213 0.6
      vertex 4.6 -0.247213 0.4
    endloop
  endfacet
  facet normal 0 -0.850651 -0.525731
    outer loop
      vertex 4.6 -0.247213 0.4
      vertex 4.4 -0.247213 0.4
      vertex 4.4 0.0763931 -0.123607
    endloop
  endfacet
  facet normal 0 -0.850651 -0.525731
    outer loop
      vertex 4.6 0.0763931 -0.123607
      vertex 4.6 -0.247213 0.4
      vertex 4.4 0.0763931 -0.123607
    endloop
  endfacet
  facet normal 9.53156e-07 -0.850651 -0.525731
    outer loop
      vertex 4.4 -0.247213 0.4
      vertex 4.2382 -0.18541 0.3
      vertex 4.4 0.0763931 -0.123607
    endloop
  endfacet
  facet normal -1.54223e-06 -0.85065 -0.525732
    outer loop
      vertex 4.4 0.0763931 -0.123607
      vertex 4.2382 -0.18541 0.3
      vertex 4.2382 0.0145903 -0.0236073
    endloop
  endfacet
  facet normal -4.05626e-06 -0.85065 -0.525732
    outer loop
      vertex 4.2382 -0.18541 0.3
      vertex 4.17639 -0.0854101 0.138197
      vertex 4.2382 0.0145903 -0.0236073
    endloop
  endfacet
  facet normal -0.499999 -0.809016 -0.309021
    outer loop
      vertex 4.2382 -0.18541 0.3
      vertex 4.01459 -0.0236073 0.238196
      vertex 4.17639 -0.0854101 0.138197
    endloop
  endfacet
  facet normal -0.577348 -0.577355 -0.577349
    outer loop
      vertex 4.17639 -0.0854101 0.138197
      vertex 4.01459 -0.0236073 0.238196
      vertex 4.2382 0.0145903 -0.0236073
    endloop
  endfacet
  facet normal -0.577352 -0.577348 -0.577351
    outer loop
      vertex 4.2382 0.0145903 -0.0236073
      vertex 4.01459 -0.0236073 0.238196
      vertex 4.1382 0.176394 -0.0854101
    endloop
  endfacet
  facet normal -0.577352 -0.577348 -0.577351
    outer loop
      vertex 4.01459 -0.0236073 0.238196
      vertex 3.91459 0.138197 0.176394
      vertex 4.1382 0.176394 -0.0854101
    endloop
  endfacet
  facet normal -0.577348 -0.577355 -0.577349
    outer loop
      vertex 4.1382 0.176394 -0.0854101
      vertex 3.91459 0.138197 0.176394
      vertex 3.97639 0.238196 0.0145903
    endloop
  endfacet
  facet normal -0.525732 -4.05626e-06 -0.85065
    outer loop
      vertex 4.1382 0.176394 -0.0854101
      vertex 3.97639 0.238196 0.0145903
      vertex 4.3 0.238196 -0.18541
    endloop
  endfacet
  facet normal -0.309021 -0.499999 -0.809016
    outer loop
      vertex 4.2382 0.0145903 -0.0236073
      vertex 4.1382 0.176394 -0.0854101
      vertex 4.3 0.238196 -0.18541
    endloop
  endfacet
  facet normal -0.309016 -0.500001 -0.809017
    outer loop
      vertex 4.4 0.0763931 -0.123607
      vertex 4.2382 0.0145903 -0.0236073
      vertex 4.3 0.238196 -0.18541
    endloop
  endfacet
  facet normal 4.45451e-06 -0.356822 -0.934172
    outer loop
      vertex 4.4 0.0763931 -0.123607
      vertex 4.3 0.238196 -0.18541
      vertex 4.4 0.4 -0.247213
    endloop
  endfacet
  facet normal 0 0 -1
    outer loop
      vertex 4.4 0.4 -0.247213
      vertex 4.4 0.6 -0.247213
      vertex 4.6 0.4 -0.247213
    endloop
  endfacet
  facet normal 0 0 -1
    outer loop
      vertex 4.6 0.4 -0.247213
      vertex 4.4 0.6 -0.247213
      vertex 4.6 0.6 -0.247213
    endloop
  endfacet
  facet normal 0 -0.356822 -0.934172
    outer loop
      vertex 4.4 0.0763931 -0.123607
      vertex 4.4 0.4 -0.247213
      vertex 4.6 0.0763931 -0.123607
    endloop
  endfacet
  facet normal 0 -0.356822 -0.934172
    outer loop
      vertex 4.6 0.0763931 -0.123607
      vertex 4.4 0.4 -0.247213
      vertex 4.6 0.4 -0.247213
    endloop
  endfacet
  facet normal 0 0.356822 -0.934172
    outer loop
      vertex 4.4 0.6 -0.247213
      vertex 4.4 0.923607 -0.123607
      vertex 4.6 0.6 -0.247213
    endloop
  endfacet
  facet normal 0 0.356822 -0.934172
    outer loop
      vertex 4.6 0.6 -0.247213
      vertex 4.4 0.923607 -0.123607
      vertex 4.6 0.923607 -0.123607
    endloop
  endfacet
  facet normal 4.45451e-06 0.356822 -0.934172
    outer loop
      vertex 4.4 0.6 -0.247213
      vertex 4.3 0.761804 -0.18541
      vertex 4.4 0.923607 -0.123607
    endloop
  endfacet
  facet normal -0.309016 0.500001 -0.809017
    outer loop
      vertex 4.3 0.761804 -0.18541
      vertex 4.2382 0.98541 -0.0236073
      vertex 4.4 0.923607 -0.123607
    endloop
  endfacet
  facet normal -0.309021 0.499999 -0.809016
    outer loop
      vertex 4.3 0.761804 -0.18541
      vertex 4.1382 0.823606 -0.0854101
      vertex 4.2382 0.98541 -0.0236073
    endloop
  endfacet
  facet normal -0.525732 4.05626e-06 -0.85065
    outer loop
      vertex 4.3 0.761804 -0.18541
      vertex 3.97639 0.761804 0.0145903
      vertex 4.1382 0.823606 -0.0854101
    endloop
  endfacet
  facet normal -0.577349 0.577348 -0.577355
    outer loop
      vertex 4.1382 0.823606 -0.0854101
      vertex 3.97639 0.761804 0.0145903
      vertex 4.2382 0.98541 -0.0236073
    endloop
  endfacet
  facet normal -0.577351 0.577352 -0.577348
    outer loop
      vertex 3.97639 0.761804 0.0145903
      vertex 3.91459 0.861803 0.176394
      vertex 4.2382 0.98541 -0.0236073
    endloop
  endfacet
  facet normal -0.577351 0.577352 -0.577348
    outer loop
      vertex 4.2382 0.98541 -0.0236073
      vertex 3.91459 0.861803 0.176394
      vertex 4.17639 1.08541 0.138197
    endloop
  endfacet
  facet normal -4.05626e-06 0.85065 -0.525732
    outer loop
      vertex 4.2382 0.98541 -0.0236073
      vertex 4.17639 1.08541 0.138197
      vertex 4.2382 1.18541 0.3
    endloop
  endfacet
  facet normal -1.54223e-06 0.85065 -0.525732
    outer loop
      vertex 4.4 0.923607 -0.123607
      vertex 4.2382 0.98541 -0.0236073
      vertex 4.2382 1.18541 0.3
    endloop
  endfacet
  facet normal 9.53156e-07 0.850651 -0.525731
    outer loop
      vertex 4.4 0.923607 -0.123607
      vertex 4.2382 1.18541 0.3
      vertex 4.4 1.24721 0.4
    endloop
  endfacet
  facet normal 0 1 0
    outer loop
      vertex 4.4 1.24721 0.4
      vertex 4.4 1.24721 0.6
      vertex 4.6 1.24721 0.4
    endloop
  endfacet
  facet normal 0 1 0
    outer loop
      vertex 4.6 1.24721 0.4
      vertex 4.4 1.24721 0.6
      vertex 4.6 1.24721 0.6
    endloop
  endfacet
  facet normal 0 0.850651 -0.525731
    outer loop
      vertex 4.4 0.923607 -0.123607
      vertex 4.4 1.24721 0.4
      vertex 4.6 0.923607 -0.123607
    endloop
  endfacet
  facet normal 0 0.850651 -0.525731
    outer loop
      vertex 4.6 0.923607 -0.123607
      vertex 4.4 1.24721 0.4
      vertex 4.6 1.24721 0.4
    endloop
  endfacet
  facet normal 0 0.850651 0.525731
    outer loop
      vertex 4.4 0.923607 1.12361
      vertex 4.6 0.923607 1.12361
      vertex 4.4 1.24721 0.6
    endloop
  endfacet
  facet normal 0 0.850651 0.525731
    outer loop
      vertex 4.4 1.24721 0.6
      vertex 4.6 0.923607 1.12361
      vertex 4.6 1.24721 0.6
    endloop
  endfacet
  facet normal -9.53156e-07 0.850651 0.525731
    outer loop
      vertex 4.4 1.24721 0.6
      vertex 4.2382 0.98541 1.02361
      vertex 4.4 0.923607 1.12361
    endloop
  endfacet
  facet normal 1.54223e-06 0.85065 0.525732
    outer loop
      vertex 4.2382 1.18541 0.7
      vertex 4.2382 0.98541 1.02361
      vertex 4.4 1.24721 0.6
    endloop
  endfacet
  facet normal -4.05626e-06 0.85065 0.525732
    outer loop
      vertex 4.2382 1.18541 0.7
      vertex 4.17639 1.08541 0.861803
      vertex 4.2382 0.98541 1.02361
    endloop
  endfacet
  facet normal -0.577351 0.577352 0.577348
    outer loop
      vertex 4.17639 1.08541 0.861803
      vertex 3.91459 0.861803 0.823606
      vertex 4.2382 0.98541 1.02361
    endloop
  endfacet
  facet normal -0.577351 0.577352 0.577348
    outer loop
      vertex 4.2382 0.98541 1.02361
      vertex 3.91459 0.861803 0.823606
      vertex 3.97639 0.761804 0.98541
    endloop
  endfacet
  facet normal -0.577349 0.577348 0.577355
    outer loop
      vertex 4.2382 0.98541 1.02361
      vertex 3.97639 0.761804 0.98541
      vertex 4.1382 0.823606 1.08541
    endloop
  endfacet
  facet normal -0.525732 4.05626e-06 0.85065
    outer loop
      vertex 4.1382 0.823606 1.08541
      vertex 3.97639 0.761804 0.98541
      vertex 4.3 0.761804 1.18541
    endloop
  endfacet
  facet normal -0.309021 0.499999 0.809016
    outer loop
      vertex 4.2382 0.98541 1.02361
      vertex 4.1382 0.823606 1.08541
      vertex 4.3 0.761804 1.18541
    endloop
  endfacet
  facet normal -0.309016 0.500001 0.809017
    outer loop
      vertex 4.4 0.923607 1.12361
      vertex 4.2382 0.98541 1.02361
      vertex 4.3 0.761804 1.18541
    endloop
  endfacet
  facet normal 4.45451e-06 0.356822 0.934172
    outer loop
      vertex 4.4 0.923607 1.12361
      vertex 4.3 0.761804 1.18541
      vertex 4.4 0.6 1.24721
    endloop
  endfacet
  facet normal 0 0.356822 0.934172
    outer loop
      vertex 4.4 0.923607 1.12361
      vertex 4.4 0.6 1.24721
      vertex 4.6 0.6 1.24721
    endloop
  endfacet
  facet normal 0 0.356822 0.934172
    outer loop
      vertex 4.6 0.923607 1.12361
      vertex 4.4 0.923607 1.12361
      vertex 4.6 0.6 1.24721
    endloop
  endfacet
  facet normal 0 0 1
    outer loop
      vertex 4.4 0.6 1.24721
      vertex 4.4 0.4 1.24721
      vertex 4.6 0.4 1.24721
    endloop
  endfacet
  facet normal 0 0 1
    outer loop
      vertex 4.6 0.6 1.24721
      vertex 4.4 0.6 1.24721
      vertex 4.6 0.4 1.24721
    endloop
  endfacet
  facet normal 0 -0.356822 0.934172
    outer loop
      vertex 4.4 0.4 1.24721
      vertex 4.4 0.0763931 1.12361
      vertex 4.6 0.0763931 1.12361
    endloop
  endfacet
  facet normal 0 -0.356822 0.934172
    outer loop
      vertex 4.6 0.4 1.24721
      vertex 4.4 0.4 1.24721
      vertex 4.6 0.0763931 1.12361
    endloop
  endfacet
  facet normal 4.45451e-06 -0.356822 0.934172
    outer loop
      vertex 4.4 0.4 1.24721
      vertex 4.3 0.238196 1.18541
      vertex 4.4 0.0763931 1.12361
    endloop
  endfacet
  facet normal -0.309021 -0.499999 0.809016
    outer loop
      vertex 4.3 0.238196 1.18541
      vertex 4.1382 0.176394 1.08541
      vertex 4.2382 0.0145903 1.02361
    endloop
  endfacet
  facet normal -0.525732 -4.05626e-06 0.85065
    outer loop
      vertex 4.3 0.238196 1.18541
      vertex 3.97639 0.238196 0.98541
      vertex 4.1382 0.176394 1.08541
    endloop
  endfacet
  facet normal -0.309016 -0.500001 0.809017
    outer loop
      vertex 4.3 0.238196 1.18541
      vertex 4.2382 0.0145903 1.02361
      vertex 4.4 0.0763931 1.12361
    endloop
  endfacet
  facet normal -0.577348 -0.577355 0.577349
    outer loop
      vertex 3.97639 0.238196 0.98541
      vertex 3.91459 0.138197 0.823606
      vertex 4.1382 0.176394 1.08541
    endloop
  endfacet
  facet normal -4.45451e-06 -0.356822 0.934172
    outer loop
      vertex 4.6 0.4 1.24721
      vertex 4.6 0.0763931 1.12361
      vertex 4.7 0.238196 1.18541
    endloop
  endfacet
  facet normal 0.309016 -0.500001 0.809017
    outer loop
      vertex 4.7 0.238196 1.18541
      vertex 4.6 0.0763931 1.12361
      vertex 4.7618 0.0145903 1.02361
    endloop
  endfacet
  facet normal 9.53156e-07 -0.850651 0.525731
    outer loop
      vertex 4.6 0.0763931 1.12361
      vertex 4.6 -0.247213 0.6
      vertex 4.7618 0.0145903 1.02361
    endloop
  endfacet
  facet normal -1.54223e-06 -0.85065 0.525732
    outer loop
      vertex 4.7618 0.0145903 1.02361
      vertex 4.6 -0.247213 0.6
      vertex 4.7618 -0.18541 0.7
    endloop
  endfacet
  facet normal 0.356822 -0.934172 -4.45451e-06
    outer loop
      vertex 4.7618 -0.18541 0.7
      vertex 4.6 -0.247213 0.6
      vertex 4.92361 -0.123607 0.6
    endloop
  endfacet
  facet normal 0.356822 -0.934172 0
    outer loop
      vertex 4.6 -0.247213 0.6
      vertex 4.6 -0.247213 0.4
      vertex 4.92361 -0.123607 0.4
    endloop
  endfacet
  facet normal 0.356822 -0.934172 0
    outer loop
      vertex 4.92361 -0.123607 0.6
      vertex 4.6 -0.247213 0.6
      vertex 4.92361 -0.123607 0.4
    endloop
  endfacet
  facet normal 0.356822 -0.934172 4.45451e-06
    outer loop
      vertex 4.92361 -0.123607 0.4
      vertex 4.6 -0.247213 0.4
      vertex 4.7618 -0.18541 0.3
    endloop
  endfacet
  facet normal -9.53156e-07 -0.850651 -0.525731
    outer loop
      vertex 4.7618 -0.18541 0.3
      vertex 4.6 -0.247213 0.4
      vertex 4.6 0.0763931 -0.123607
    endloop
  endfacet
  facet normal 1.54223e-06 -0.85065 -0.525732
    outer loop
      vertex 4.7618 -0.18541 0.3
      vertex 4.6 0.0763931 -0.123607
      vertex 4.7618 0.0145903 -0.0236073
    endloop
  endfacet
  facet normal 0.309016 -0.500001 -0.809017
    outer loop
      vertex 4.7618 0.0145903 -0.0236073
      vertex 4.6 0.0763931 -0.123607
      vertex 4.7 0.238196 -0.18541
    endloop
  endfacet
  facet normal -4.45451e-06 -0.356822 -0.934172
    outer loop
      vertex 4.7 0.238196 -0.18541
      vertex 4.6 0.0763931 -0.123607
      vertex 4.6 0.4 -0.247213
    endloop
  endfacet
  facet normal 0.525731 9.53156e-07 -0.850651
    outer loop
      vertex 4.7 0.238196 -0.18541
      vertex 4.6 0.4 -0.247213
      vertex 5.12361 0.4 0.0763931
    endloop
  endfacet
  facet normal 0.525731 0 -0.850651
    outer loop
      vertex 4.6 0.4 -0.247213
      vertex 4.6 0.6 -0.247213
      vertex 5.12361 0.4 0.0763931
    endloop
  endfacet
  facet normal 0.525731 0 -0.850651
    outer loop
      vertex 5.12361 0.4 0.0763931
      vertex 4.6 0.6 -0.247213
      vertex 5.12361 0.6 0.0763931
    endloop
  endfacet
  facet normal 0.525731 -9.53156e-07 -0.850651
    outer loop
      vertex 5.12361 0.6 0.0763931
      vertex 4.6 0.6 -0.247213
      vertex 4.7 0.761804 -0.18541
    endloop
  endfacet
  facet normal -4.45451e-06 0.356822 -0.934172
    outer loop
      vertex 4.7 0.761804 -0.18541
      vertex 4.6 0.6 -0.247213
      vertex 4.6 0.923607 -0.123607
    endloop
  endfacet
  facet normal 0.309016 0.500001 -0.809017
    outer loop
      vertex 4.7 0.761804 -0.18541
      vertex 4.6 0.923607 -0.123607
      vertex 4.7618 0.98541 -0.0236073
    endloop
  endfacet
  facet normal 1.54223e-06 0.85065 -0.525732
    outer loop
      vertex 4.7618 0.98541 -0.0236073
      vertex 4.6 0.923607 -0.123607
      vertex 4.7618 1.18541 0.3
    endloop
  endfacet
  facet normal -9.53156e-07 0.850651 -0.525731
    outer loop
      vertex 4.7618 1.18541 0.3
      vertex 4.6 0.923607 -0.123607
      vertex 4.6 1.24721 0.4
    endloop
  endfacet
  facet normal 0.356822 0.934172 4.45451e-06
    outer loop
      vertex 4.7618 1.18541 0.3
      vertex 4.6 1.24721 0.4
      vertex 4.92361 1.12361 0.4
    endloop
  endfacet
  facet normal 0.356822 0.934172 0
    outer loop
      vertex 4.6 1.24721 0.4
      vertex 4.6 1.24721 0.6
      vertex 4.92361 1.12361 0.4
    endloop
  endfacet
  facet normal 0.356822 0.934172 0
    outer loop
      vertex 4.92361 1.12361 0.4
      vertex 4.6 1.24721 0.6
      vertex 4.92361 1.12361 0.6
    endloop
  endfacet
  facet normal 0.356822 0.934172 -4.45451e-06
    outer loop
      vertex 4.92361 1.12361 0.6
      vertex 4.6 1.24721 0.6
      vertex 4.7618 1.18541 0.7
    endloop
  endfacet
  facet normal -1.54223e-06 0.85065 0.525732
    outer loop
      vertex 4.7618 1.18541 0.7
      vertex 4.6 1.24721 0.6
      vertex 4.7618 0.98541 1.02361
    endloop
  endfacet
  facet normal 9.53156e-07 0.850651 0.525731
    outer loop
      vertex 4.6 1.24721 0.6
      vertex 4.6 0.923607 1.12361
      vertex 4.7618 0.98541 1.02361
    endloop
  endfacet
  facet normal 0.309016 0.500001 0.809017
    outer loop
      vertex 4.7618 0.98541 1.02361
      vertex 4.6 0.923607 1.12361
      vertex 4.7 0.761804 1.18541
    endloop
  endfacet
  facet normal -4.45451e-06 0.356822 0.934172
    outer loop
      vertex 4.6 0.923607 1.12361
      vertex 4.6 0.6 1.24721
      vertex 4.7 0.761804 1.18541
    endloop
  endfacet
  facet normal 0.525731 -9.53156e-07 0.850651
    outer loop
      vertex 4.7 0.761804 1.18541
      vertex 4.6 0.6 1.24721
      vertex 5.12361 0.6 0.923607
    endloop
  endfacet
  facet normal 0.525731 0 0.850651
    outer loop
      vertex 4.6 0.6 1.24721
      vertex 4.6 0.4 1.24721
      vertex 5.12361 0.4 0.923607
    endloop
  endfacet
  facet normal 0.525731 0 0.850651
    outer loop
      vertex 5.12361 0.6 0.923607
      vertex 4.6 0.6 1.24721
      vertex 5.12361 0.4 0.923607
    endloop
  endfacet
  facet normal 0.525731 9.53156e-07 0.850651
    outer loop
      vertex 5.12361 0.4 0.923607
      vertex 4.6 0.4 1.24721
      vertex 4.7 0.238196 1.18541
    endloop
  endfacet
  facet normal 0.525732 -1.54223e-06 0.85065
    outer loop
      vertex 5.12361 0.4 0.923607
      vertex 4.7 0.238196 1.18541
      vertex 5.02361 0.238196 0.98541
    endloop
  endfacet
  facet normal 0.525732 -4.05626e-06 0.85065
    outer loop
      vertex 5.02361 0.238196 0.98541
      vertex 4.7 0.238196 1.18541
      vertex 4.8618 0.176394 1.08541
    endloop
  endfacet
  facet normal 0.309021 -0.499999 0.809016
    outer loop
      vertex 4.8618 0.176394 1.08541
      vertex 4.7 0.238196 1.18541
      vertex 4.7618 0.0145903 1.02361
    endloop
  endfacet
  facet normal 4.05626e-06 -0.85065 0.525732
    outer loop
      vertex 4.7618 0.0145903 1.02361
      vertex 4.7618 -0.18541 0.7
      vertex 4.82361 -0.0854101 0.861803
    endloop
  endfacet
  facet normal 0.577349 -0.577348 0.577355
    outer loop
      vertex 4.8618 0.176394 1.08541
      vertex 4.7618 0.0145903 1.02361
      vertex 5.02361 0.238196 0.98541
    endloop
  endfacet
  facet normal 0.577351 -0.577352 0.577348
    outer loop
      vertex 5.02361 0.238196 0.98541
      vertex 4.7618 0.0145903 1.02361
      vertex 5.08541 0.138197 0.823606
    endloop
  endfacet
  facet normal 0.577351 -0.577352 0.577348
    outer loop
      vertex 5.08541 0.138197 0.823606
      vertex 4.7618 0.0145903 1.02361
      vertex 4.82361 -0.0854101 0.861803
    endloop
  endfacet
  facet normal 0.499999 -0.809016 0.309021
    outer loop
      vertex 4.82361 -0.0854101 0.861803
      vertex 4.7618 -0.18541 0.7
      vertex 4.98541 -0.0236073 0.761804
    endloop
  endfacet
  facet normal 0.500001 -0.809017 0.309016
    outer loop
      vertex 4.98541 -0.0236073 0.761804
      vertex 4.7618 -0.18541 0.7
      vertex 4.92361 -0.123607 0.6
    endloop
  endfacet
  facet normal 0.85065 -0.525732 1.54223e-06
    outer loop
      vertex 4.98541 -0.0236073 0.761804
      vertex 4.92361 -0.123607 0.6
      vertex 5.18541 0.3 0.761804
    endloop
  endfacet
  facet normal 0.850651 -0.525731 -9.53156e-07
    outer loop
      vertex 5.18541 0.3 0.761804
      vertex 4.92361 -0.123607 0.6
      vertex 5.24721 0.4 0.6
    endloop
  endfacet
  facet normal 0.850651 -0.525731 0
    outer loop
      vertex 4.92361 -0.123607 0.6
      vertex 4.92361 -0.123607 0.4
      vertex 5.24721 0.4 0.4
    endloop
  endfacet
  facet normal 0.850651 -0.525731 0
    outer loop
      vertex 5.24721 0.4 0.6
      vertex 4.92361 -0.123607 0.6
      vertex 5.24721 0.4 0.4
    endloop
  endfacet
  facet normal 0.500001 -0.809017 -0.309016
    outer loop
      vertex 4.92361 -0.123607 0.4
      vertex 4.7618 -0.18541 0.3
      vertex 4.98541 -0.0236073 0.238196
    endloop
  endfacet
  facet normal 0.850651 -0.525731 9.53156e-07
    outer loop
      vertex 5.24721 0.4 0.4
      vertex 4.92361 -0.123607 0.4
      vertex 5.18541 0.3 0.238196
    endloop
  endfacet
  facet normal 0.85065 -0.525732 -1.54223e-06
    outer loop
      vertex 5.18541 0.3 0.238196
      vertex 4.92361 -0.123607 0.4
      vertex 4.98541 -0.0236073 0.238196
    endloop
  endfacet
  facet normal 0.499999 -0.809016 -0.309021
    outer loop
      vertex 4.98541 -0.0236073 0.238196
      vertex 4.7618 -0.18541 0.3
      vertex 4.82361 -0.0854101 0.138197
    endloop
  endfacet
  facet normal 4.05626e-06 -0.85065 -0.525732
    outer loop
      vertex 4.82361 -0.0854101 0.138197
      vertex 4.7618 -0.18541 0.3
      vertex 4.7618 0.0145903 -0.0236073
    endloop
  endfacet
  facet normal 0.577351 -0.577352 -0.577348
    outer loop
      vertex 5.08541 0.138197 0.176394
      vertex 4.7618 0.0145903 -0.0236073
      vertex 5.02361 0.238196 0.0145903
    endloop
  endfacet
  facet normal 0.577349 -0.577348 -0.577355
    outer loop
      vertex 5.02361 0.238196 0.0145903
      vertex 4.7618 0.0145903 -0.0236073
      vertex 4.8618 0.176394 -0.0854101
    endloop
  endfacet
  facet normal 0.309021 -0.499999 -0.809016
    outer loop
      vertex 4.7618 0.0145903 -0.0236073
      vertex 4.7 0.238196 -0.18541
      vertex 4.8618 0.176394 -0.0854101
    endloop
  endfacet
  facet normal 0.577351 -0.577352 -0.577348
    outer loop
      vertex 4.82361 -0.0854101 0.138197
      vertex 4.7618 0.0145903 -0.0236073
      vertex 5.08541 0.138197 0.176394
    endloop
  endfacet
  facet normal 0.525732 -4.05626e-06 -0.85065
    outer loop
      vertex 4.8618 0.176394 -0.0854101
      vertex 4.7 0.238196 -0.18541
      vertex 5.02361 0.238196 0.0145903
    endloop
  endfacet
  facet normal 0.525732 -1.54223e-06 -0.85065
    outer loop
      vertex 5.02361 0.238196 0.0145903
      vertex 4.7 0.238196 -0.18541
      vertex 5.12361 0.4 0.0763931
    endloop
  endfacet
  facet normal 0.934172 4.45451e-06 -0.356822
    outer loop
      vertex 5.18541 0.3 0.238196
      vertex 5.12361 0.4 0.0763931
      vertex 5.24721 0.4 0.4
    endloop
  endfacet
  facet normal 0.934172 0 -0.356822
    outer loop
      vertex 5.24721 0.4 0.4
      vertex 5.12361 0.4 0.0763931
      vertex 5.12361 0.6 0.0763931
    endloop
  endfacet
  facet normal 0.934172 0 -0.356822
    outer loop
      vertex 5.24721 0.6 0.4
      vertex 5.24721 0.4 0.4
      vertex 5.12361 0.6 0.0763931
    endloop
  endfacet
  facet normal 0.809017 -0.309016 -0.500001
    outer loop
      vertex 5.18541 0.3 0.238196
      vertex 5.02361 0.238196 0.0145903
      vertex 5.12361 0.4 0.0763931
    endloop
  endfacet
  facet normal 0.934172 -4.45451e-06 -0.356822
    outer loop
      vertex 5.24721 0.6 0.4
      vertex 5.12361 0.6 0.0763931
      vertex 5.18541 0.7 0.238196
    endloop
  endfacet
  facet normal 0.809017 0.309016 -0.500001
    outer loop
      vertex 5.12361 0.6 0.0763931
      vertex 5.02361 0.761804 0.0145903
      vertex 5.18541 0.7 0.238196
    endloop
  endfacet
  facet normal 0.525732 1.54223e-06 -0.85065
    outer loop
      vertex 5.12361 0.6 0.0763931
      vertex 4.7 0.761804 -0.18541
      vertex 5.02361 0.761804 0.0145903
    endloop
  endfacet
  facet normal 0.525732 4.05626e-06 -0.85065
    outer loop
      vertex 5.02361 0.761804 0.0145903
      vertex 4.7 0.761804 -0.18541
      vertex 4.8618 0.823606 -0.0854101
    endloop
  endfacet
  facet normal 0.309021 0.499999 -0.809016
    outer loop
      vertex 4.8618 0.823606 -0.0854101
      vertex 4.7 0.761804 -0.18541
      vertex 4.7618 0.98541 -0.0236073
    endloop
  endfacet
  facet normal 0.577352 0.577348 -0.577351
    outer loop
      vertex 4.8618 0.823606 -0.0854101
      vertex 4.7618 0.98541 -0.0236073
      vertex 4.98541 1.02361 0.238196
    endloop
  endfacet
  facet normal 0.577348 0.577355 -0.577349
    outer loop
      vertex 4.98541 1.02361 0.238196
      vertex 4.7618 0.98541 -0.0236073
      vertex 4.82361 1.08541 0.138197
    endloop
  endfacet
  facet normal 4.05626e-06 0.85065 -0.525732
    outer loop
      vertex 4.82361 1.08541 0.138197
      vertex 4.7618 0.98541 -0.0236073
      vertex 4.7618 1.18541 0.3
    endloop
  endfacet
  facet normal 0.499999 0.809016 -0.309021
    outer loop
      vertex 4.82361 1.08541 0.138197
      vertex 4.7618 1.18541 0.3
      vertex 4.98541 1.02361 0.238196
    endloop
  endfacet
  facet normal 0.500001 0.809017 -0.309016
    outer loop
      vertex 4.98541 1.02361 0.238196
      vertex 4.7618 1.18541 0.3
      vertex 4.92361 1.12361 0.4
    endloop
  endfacet
  facet normal 0.850651 0.525731 -9.53156e-07
    outer loop
      vertex 4.98541 1.02361 0.238196
      vertex 4.92361 1.12361 0.4
      vertex 5.24721 0.6 0.4
    endloop
  endfacet
  facet normal 0.850651 0.525731 0
    outer loop
      vertex 5.24721 0.6 0.4
      vertex 4.92361 1.12361 0.4
      vertex 4.92361 1.12361 0.6
    endloop
  endfacet
  facet normal 0.850651 0.525731 0
    outer loop
      vertex 5.24721 0.6 0.6
      vertex 5.24721 0.6 0.4
      vertex 4.92361 1.12361 0.6
    endloop
  endfacet
  facet normal 0.500001 0.809017 0.309016
    outer loop
      vertex 4.92361 1.12361 0.6
      vertex 4.7618 1.18541 0.7
      vertex 4.98541 1.02361 0.761804
    endloop
  endfacet
  facet normal 0.850651 0.525731 9.53156e-07
    outer loop
      vertex 5.24721 0.6 0.6
      vertex 4.92361 1.12361 0.6
      vertex 4.98541 1.02361 0.761804
    endloop
  endfacet
  facet normal 0.499999 0.809016 0.309021
    outer loop
      vertex 4.98541 1.02361 0.761804
      vertex 4.7618 1.18541 0.7
      vertex 4.82361 1.08541 0.861803
    endloop
  endfacet
  facet normal 4.05626e-06 0.85065 0.525732
    outer loop
      vertex 4.7618 1.18541 0.7
      vertex 4.7618 0.98541 1.02361
      vertex 4.82361 1.08541 0.861803
    endloop
  endfacet
  facet normal 0.577348 0.577355 0.577349
    outer loop
      vertex 4.82361 1.08541 0.861803
      vertex 4.7618 0.98541 1.02361
      vertex 4.98541 1.02361 0.761804
    endloop
  endfacet
  facet normal 0.577352 0.577348 0.577351
    outer loop
      vertex 4.98541 1.02361 0.761804
      vertex 4.7618 0.98541 1.02361
      vertex 4.8618 0.823606 1.08541
    endloop
  endfacet
  facet normal 0.309021 0.499999 0.809016
    outer loop
      vertex 4.7618 0.98541 1.02361
      vertex 4.7 0.761804 1.18541
      vertex 4.8618 0.823606 1.08541
    endloop
  endfacet
  facet normal 0.525732 4.05626e-06 0.85065
    outer loop
      vertex 4.8618 0.823606 1.08541
      vertex 4.7 0.761804 1.18541
      vertex 5.02361 0.761804 0.98541
    endloop
  endfacet
  facet normal 0.525732 1.54223e-06 0.85065
    outer loop
      vertex 5.02361 0.761804 0.98541
      vertex 4.7 0.761804 1.18541
      vertex 5.12361 0.6 0.923607
    endloop
  endfacet
  facet normal 0.934172 0 0.356822
    outer loop
      vertex 5.12361 0.6 0.923607
      vertex 5.12361 0.4 0.923607
      vertex 5.24721 0.4 0.6
    endloop
  endfacet
  facet normal 0.934172 0 0.356822
    outer loop
      vertex 5.24721 0.6 0.6
      vertex 5.12361 0.6 0.923607
      vertex 5.24721 0.4 0.6
    endloop
  endfacet
  facet normal 0.809017 0.309016 0.500001
    outer loop
      vertex 5.18541 0.7 0.761804
      vertex 5.02361 0.761804 0.98541
      vertex 5.12361 0.6 0.923607
    endloop
  endfacet
  facet normal 0.934172 -4.45451e-06 0.356822
    outer loop
      vertex 5.18541 0.7 0.761804
      vertex 5.12361 0.6 0.923607
      vertex 5.24721 0.6 0.6
    endloop
  endfacet
  facet normal 0.934172 4.45451e-06 0.356822
    outer loop
      vertex 5.24721 0.4 0.6
      vertex 5.12361 0.4 0.923607
      vertex 5.18541 0.3 0.761804
    endloop
  endfacet
  facet normal 0.809017 -0.309016 0.500001
    outer loop
      vertex 5.12361 0.4 0.923607
      vertex 5.02361 0.238196 0.98541
      vertex 5.18541 0.3 0.761804
    endloop
  endfacet
  facet normal 0.809016 -0.309021 0.499999
    outer loop
      vertex 5.18541 0.3 0.761804
      vertex 5.02361 0.238196 0.98541
      vertex 5.08541 0.138197 0.823606
    endloop
  endfacet
  facet normal 0.577349 -0.577348 0.577355
    outer loop
      vertex 5.08541 0.138197 0.823606
      vertex 4.82361 -0.0854101 0.861803
      vertex 4.98541 -0.0236073 0.761804
    endloop
  endfacet
  facet normal 0.85065 -0.525732 4.05626e-06
    outer loop
      vertex 5.08541 0.138197 0.823606
      vertex 4.98541 -0.0236073 0.761804
      vertex 5.18541 0.3 0.761804
    endloop
  endfacet
  facet normal 1 0 0
    outer loop
      vertex 5.24721 0.4 0.6
      vertex 5.24721 0.4 0.4
      vertex 5.24721 0.6 0.4
    endloop
  endfacet
  facet normal 1 0 0
    outer loop
      vertex 5.24721 0.6 0.6
      vertex 5.24721 0.4 0.6
      vertex 5.24721 0.6 0.4
    endloop
  endfacet
  facet normal 0.85065 -0.525732 -4.05626e-06
    outer loop
      vertex 5.18541 0.3 0.238196
      vertex 4.98541 -0.0236073 0.238196
      vertex 5.08541 0.138197 0.176394
    endloop
  endfacet
  facet normal 0.577349 -0.577348 -0.577355
    outer loop
      vertex 4.98541 -0.0236073 0.238196
      vertex 4.82361 -0.0854101 0.138197
      vertex 5.08541 0.138197 0.176394
    endloop
  endfacet
  facet normal 0.809016 -0.309021 -0.499999
    outer loop
      vertex 5.08541 0.138197 0.176394
      vertex 5.02361 0.238196 0.0145903
      vertex 5.18541 0.3 0.238196
    endloop
  endfacet
  facet normal 0.85065 0.525732 1.54223e-06
    outer loop
      vertex 5.18541 0.7 0.238196
      vertex 4.98541 1.02361 0.238196
      vertex 5.24721 0.6 0.4
    endloop
  endfacet
  facet normal 0.85065 0.525732 -4.05626e-06
    outer loop
      vertex 5.08541 0.861803 0.176394
      vertex 4.98541 1.02361 0.238196
      vertex 5.18541 0.7 0.238196
    endloop
  endfacet
  facet normal 0.809016 0.309021 -0.499999
    outer loop
      vertex 5.18541 0.7 0.238196
      vertex 5.02361 0.761804 0.0145903
      vertex 5.08541 0.861803 0.176394
    endloop
  endfacet
  facet normal 0.577348 0.577355 -0.577349
    outer loop
      vertex 5.02361 0.761804 0.0145903
      vertex 4.8618 0.823606 -0.0854101
      vertex 5.08541 0.861803 0.176394
    endloop
  endfacet
  facet normal 0.577352 0.577348 -0.577351
    outer loop
      vertex 5.08541 0.861803 0.176394
      vertex 4.8618 0.823606 -0.0854101
      vertex 4.98541 1.02361 0.238196
    endloop
  endfacet
  facet normal 0.85065 0.525732 -1.54223e-06
    outer loop
      vertex 5.24721 0.6 0.6
      vertex 4.98541 1.02361 0.761804
      vertex 5.18541 0.7 0.761804
    endloop
  endfacet
  facet normal 0.85065 0.525732 4.05626e-06
    outer loop
      vertex 5.18541 0.7 0.761804
      vertex 4.98541 1.02361 0.761804
      vertex 5.08541 0.861803 0.823606
    endloop
  endfacet
  facet normal 0.577352 0.577348 0.577351
    outer loop
      vertex 4.98541 1.02361 0.761804
      vertex 4.8618 0.823606 1.08541
      vertex 5.08541 0.861803 0.823606
    endloop
  endfacet
  facet normal 0.577348 0.577355 0.577349
    outer loop
      vertex 5.08541 0.861803 0.823606
      vertex 4.8618 0.823606 1.08541
      vertex 5.02361 0.761804 0.98541
    endloop
  endfacet
  facet normal 0.809016 0.309021 0.499999
    outer loop
      vertex 5.08541 0.861803 0.823606
      vertex 5.02361 0.761804 0.98541
      vertex 5.18541 0.7 0.761804
    endloop
  endfacet
  facet normal -1 0 0
    outer loop
      vertex 2 0 0
      vertex 2 0 1
      vertex 2 1 0
    endloop
  endfacet
  facet normal -1 0 0
    outer loop
      vertex 2 1 0
      vertex 2 0 1
      vertex 2 1 1
    endloop
  endfacet
  facet normal 0 -1 0
    outer loop
      vertex 2 0 1
      vertex 2 0 0
      vertex 3 0 0
    endloop
  endfacet
  facet normal 0 0 -1
    outer loop
      vertex 2 0 0
      vertex 2 1 0
      vertex 3 0 0
    endloop
  endfacet
  facet normal 0 0 -1
    outer loop
      vertex 3 0 0
      vertex 2 1 0
      vertex 3 1 0
    endloop
  endfacet
  facet normal 0 1 0
    outer loop
      vertex 2 1 0
      vertex 2 1 1
      vertex 3 1 0
    endloop
  endfacet
  facet normal 0 1 0
    outer loop
      vertex 3 1 0
      vertex 2 1 1
      vertex 3 1 1
    endloop
  endfacet
  facet normal 0 0 1
    outer loop
      vertex 2 1 1
      vertex 2 0 1
      vertex 3 0.2 1
    endloop
  endfacet
  facet normal 0 0 1
    outer loop
      vertex 3 1 1
      vertex 2 1 1
      vertex 3 0.2 1
    endloop
  endfacet
  facet normal 0.19245 -0.962251 0.19245
    outer loop
      vertex 3 0.2 1
      vertex 2 0 1
      vertex 3 0 0
    endloop
  endfacet
  facet normal 1 0 0
    outer loop
      vertex 3 0.2 1
      vertex 3 0 0
      vertex 3 1 0
    endloop
  endfacet
  facet normal 1 0 0
    outer loop
      vertex 3 1 1
      vertex 3 0.2 1
      vertex 3 1 0
    endloop
  endfacet
  facet normal -0.999848 5.01977e-07 0.0174521
    outer loop
      vertex 0.0177546 0.982395 1.01715
      vertex 0 0 0
      vertex 0.0174494 -0.0174522 0.999695
    endloop
  endfacet
  facet normal -0.000304581 -0.999848 -0.0174496
    outer loop
      vertex 0.0174494 -0.0174522 0.999695
      vertex 0 0 0
      vertex 0.999848 0 -0.0174522
    endloop
  endfacet
  facet normal -0.0174496 0.017452 -0.999695
    outer loop
      vertex 0.999848 0 -0.0174522
      vertex 0 0 0
      vertex 0.000304222 0.999848 0.0174494
    endloop
  endfacet
  facet normal -0.999848 -3.66459e-07 0.0174529
    outer loop
      vertex 0.000304222 0.999848 0.0174494
      vertex 0 0 0
      vertex 0.0177546 0.982395 1.01715
    endloop
  endfacet
  facet normal 0.00030468 0.999848 0.0174504
    outer loop
      vertex 1.0176 0.982395 0.999693
      vertex 0.000304222 0.999848 0.0174494
      vertex 0.0177546 0.982395 1.01715
    endloop
  endfacet
  facet normal 0.0174544 -0.0174529 0.999695
    outer loop
      vertex 1.0176 0.982395 0.999693
      vertex 0.0177546 0.982395 1.01715
      vertex 1.0173 -0.0174522 0.982243
    endloop
  endfacet
  facet normal 0.0174495 -0.0174578 0.999695
    outer loop
      vertex 0.0177546 0.982395 1.01715
      vertex 0.0174494 -0.0174522 0.999695
      vertex 1.0173 -0.0174522 0.982243
    endloop
  endfacet
  facet normal -0.00030458 -0.999848 -0.0174496
    outer loop
      vertex 1.0173 -0.0174522 0.982243
      vertex 0.0174494 -0.0174522 0.999695
      vertex 0.999848 0 -0.0174522
    endloop
  endfacet
  facet normal 0.999848 4.21502e-06 -0.0174539
    outer loop
      vertex 1.0173 -0.0174522 0.982243
      vertex 0.999848 0 -0.0174522
      vertex 1.0176 0.982395 0.999693
    endloop
  endfacet
  facet normal 0.999848 3.22806e-06 -0.0174529
    outer loop
      vertex 1.0176 0.982395 0.999693
      vertex 0.999848 0 -0.0174522
      vertex 1.00015 0.999848 -2.86102e-06
    endloop
  endfacet
  facet normal -0.0174496 0.017452 -0.999695
    outer loop
      vertex 0.999848 0 -0.0174522
      vertex 0.000304222 0.999848 0.0174494
      vertex 1.00015 0.999848 -2.86102e-06
    endloop
  endfacet
  facet normal 0.000304598 0.999848 0.0174505
    outer loop
      vertex 1.00015 0.999848 -2.86102e-06
      vertex 0.000304222 0.999848 0.0174494
      vertex 1.0176 0.982395 0.999693
    endloop
  endfacet
endsolid OpenSCAD_Model
