<?xml version="1.0" standalone="no"?>
<!DOCTYPE svg PUBLIC "-//W3C//DTD SVG 1.1//EN" "http://www.w3.org/Graphics/SVG/1.1/DTD/svg11.dtd">
<svg width="100mm" height="100mm" viewBox="-8 -108 116 116" xmlns="http://www.w3.org/2000/svg" version="1.1">
<title>OpenSCAD Model</title>
<path d="
M 50.6982,-8.00595 L 50.7679,-8.00717 L 51.4309,-8.02454 L 51.5006,-8.02696 L 52.1631,-8.05588 L 52.233,-8.05954
 L 52.895,-8.10004 L 52.9646,-8.1049 L 53.6257,-8.15694 L 53.6953,-8.16302 L 54.3555,-8.22659 L 54.4249,-8.23389
 L 55.0838,-8.30896 L 55.1532,-8.31747 L 55.8107,-8.40405 L 55.8798,-8.41376 L 56.5357,-8.51178 L 56.6047,-8.52271
 L 57.2588,-8.63217 L 57.3276,-8.6443 L 57.9797,-8.76517 L 58.0482,-8.77847 L 58.6981,-8.91069 L 58.7664,-8.9252
 L 59.4138,-9.06874 L 59.4819,-9.08446 L 60.1268,-9.23929 L 60.1946,-9.25618 L 60.8367,-9.42224 L 60.904,-9.44029
 L 61.5431,-9.61752 L 61.6103,-9.6368 L 62.2462,-9.82516 L 62.3129,-9.84557 L 62.9455,-10.045 L 63.0118,-10.0666
 L 63.6408,-10.277 L 63.7068,-10.2997 L 64.332,-10.5211 L 64.3976,-10.545 L 65.0188,-10.7773 L 65.0839,-10.8023
 L 65.701,-11.0453 L 65.7658,-11.0715 L 66.3786,-11.3253 L 66.4428,-11.3526 L 67.051,-11.617 L 67.1148,-11.6454
 L 67.7183,-11.9205 L 67.7815,-11.95 L 68.3801,-12.2355 L 68.4428,-12.2661 L 69.0364,-12.562 L 69.0987,-12.5937
 L 69.6869,-12.9 L 69.7486,-12.9327 L 70.3314,-13.2492 L 70.3924,-13.283 L 70.9697,-13.6096 L 71.0301,-13.6445
 L 71.6015,-13.9811 L 71.6615,-14.0171 L 72.227,-14.3637 L 72.2861,-14.4006 L 72.8454,-14.7569 L 72.904,-14.795
 L 73.4571,-15.161 L 73.5149,-15.2001 L 74.0615,-15.5757 L 74.1187,-15.6158 L 74.6586,-16.0009 L 74.7151,-16.0419
 L 75.2483,-16.4364 L 75.304,-16.4785 L 75.8302,-16.8822 L 75.8851,-16.9251 L 76.4042,-17.338 L 76.4585,-17.382
 L 76.9703,-17.8038 L 77.0237,-17.8487 L 77.528,-18.2794 L 77.5807,-18.3252 L 78.0774,-18.7646 L 78.1294,-18.8114
 L 78.6183,-19.2595 L 78.6693,-19.3071 L 79.1504,-19.7636 L 79.2006,-19.812 L 79.6736,-20.2769 L 79.7231,-20.3264
 L 80.188,-20.7994 L 80.2364,-20.8496 L 80.6929,-21.3307 L 80.7405,-21.3817 L 81.1886,-21.8706 L 81.2354,-21.9226
 L 81.6748,-22.4193 L 81.7206,-22.472 L 82.1513,-22.9763 L 82.1962,-23.0297 L 82.618,-23.5415 L 82.662,-23.5958
 L 83.0749,-24.1149 L 83.1178,-24.1698 L 83.5215,-24.696 L 83.5636,-24.7517 L 83.9581,-25.2849 L 83.9991,-25.3414
 L 84.3842,-25.8813 L 84.4243,-25.9385 L 84.7999,-26.4851 L 84.839,-26.5429 L 85.205,-27.096 L 85.2431,-27.1546
 L 85.5994,-27.7139 L 85.6363,-27.773 L 85.9829,-28.3385 L 86.0189,-28.3985 L 86.3555,-28.9699 L 86.3904,-29.0303
 L 86.717,-29.6076 L 86.7508,-29.6686 L 87.0673,-30.2514 L 87.1,-30.3131 L 87.4063,-30.9013 L 87.438,-30.9636
 L 87.7339,-31.5572 L 87.7645,-31.6199 L 88.05,-32.2185 L 88.0795,-32.2817 L 88.3546,-32.8852 L 88.383,-32.949
 L 88.6474,-33.5572 L 88.6747,-33.6214 L 88.9285,-34.2342 L 88.9547,-34.299 L 89.1977,-34.9161 L 89.2227,-34.9812
 L 89.455,-35.6024 L 89.4789,-35.668 L 89.7003,-36.2932 L 89.723,-36.3592 L 89.9334,-36.9882 L 89.955,-37.0545
 L 90.1544,-37.6871 L 90.1748,-37.7538 L 90.3632,-38.3897 L 90.3825,-38.4569 L 90.5597,-39.096 L 90.5778,-39.1633
 L 90.7438,-39.8054 L 90.7607,-39.8732 L 90.9155,-40.5181 L 90.9313,-40.5862 L 91.0748,-41.2336 L 91.0893,-41.3019
 L 91.2215,-41.9518 L 91.2348,-42.0203 L 91.3557,-42.6724 L 91.3678,-42.7412 L 91.4773,-43.3953 L 91.4882,-43.4643
 L 91.5862,-44.1202 L 91.5959,-44.1893 L 91.6825,-44.8468 L 91.691,-44.9162 L 91.7661,-45.5751 L 91.7734,-45.6445
 L 91.837,-46.3047 L 91.8431,-46.3743 L 91.8951,-47.0354 L 91.9,-47.105 L 91.9405,-47.767 L 91.9441,-47.8369
 L 91.973,-48.4994 L 91.9755,-48.5691 L 91.9928,-49.2321 L 91.994,-49.3018 L 91.9998,-49.965 L 91.9998,-50.035
 L 91.994,-50.6982 L 91.9928,-50.7679 L 91.9755,-51.4309 L 91.973,-51.5006 L 91.9441,-52.1631 L 91.9405,-52.233
 L 91.9,-52.895 L 91.8951,-52.9646 L 91.8431,-53.6257 L 91.837,-53.6953 L 91.7734,-54.3555 L 91.7661,-54.4249
 L 91.691,-55.0838 L 91.6825,-55.1532 L 91.5959,-55.8107 L 91.5862,-55.8798 L 91.4882,-56.5357 L 91.4773,-56.6047
 L 91.3678,-57.2588 L 91.3557,-57.3276 L 91.2348,-57.9797 L 91.2215,-58.0482 L 91.0893,-58.6981 L 91.0748,-58.7664
 L 90.9313,-59.4138 L 90.9155,-59.4819 L 90.7607,-60.1268 L 90.7438,-60.1946 L 90.5778,-60.8367 L 90.5597,-60.904
 L 90.3825,-61.5431 L 90.3632,-61.6103 L 90.1748,-62.2462 L 90.1544,-62.3129 L 89.955,-62.9455 L 89.9334,-63.0118
 L 89.723,-63.6408 L 89.7003,-63.7068 L 89.4789,-64.332 L 89.455,-64.3976 L 89.2227,-65.0188 L 89.1977,-65.0839
 L 88.9547,-65.701 L 88.9285,-65.7658 L 88.6747,-66.3786 L 88.6474,-66.4428 L 88.383,-67.051 L 88.3546,-67.1148
 L 88.0795,-67.7183 L 88.05,-67.7815 L 87.7645,-68.3801 L 87.7339,-68.4428 L 87.438,-69.0364 L 87.4063,-69.0987
 L 87.1,-69.6869 L 87.0673,-69.7486 L 86.7508,-70.3314 L 86.717,-70.3924 L 86.3904,-70.9697 L 86.3555,-71.0301
 L 86.0189,-71.6015 L 85.9829,-71.6615 L 85.6363,-72.227 L 85.5994,-72.2861 L 85.2431,-72.8454 L 85.205,-72.904
 L 84.839,-73.4571 L 84.7999,-73.5149 L 84.4243,-74.0615 L 84.3842,-74.1187 L 83.9991,-74.6586 L 83.9581,-74.7151
 L 83.5636,-75.2483 L 83.5215,-75.304 L 83.1178,-75.8302 L 83.0749,-75.8851 L 82.662,-76.4042 L 82.618,-76.4585
 L 82.1962,-76.9703 L 82.1513,-77.0237 L 81.7206,-77.528 L 81.6748,-77.5807 L 81.2354,-78.0774 L 81.1886,-78.1294
 L 80.7405,-78.6183 L 80.6929,-78.6693 L 80.2364,-79.1504 L 80.188,-79.2006 L 79.7231,-79.6736 L 79.6736,-79.7231
 L 79.2006,-80.188 L 79.1504,-80.2364 L 78.6693,-80.6929 L 78.6183,-80.7405 L 78.1294,-81.1886 L 78.0774,-81.2354
 L 77.5807,-81.6748 L 77.528,-81.7206 L 77.0237,-82.1513 L 76.9703,-82.1962 L 76.4585,-82.618 L 76.4042,-82.662
 L 75.8851,-83.0749 L 75.8302,-83.1178 L 75.304,-83.5215 L 75.2483,-83.5636 L 74.7151,-83.9581 L 74.6586,-83.9991
 L 74.1187,-84.3842 L 74.0615,-84.4243 L 73.5149,-84.7999 L 73.4571,-84.839 L 72.904,-85.205 L 72.8454,-85.2431
 L 72.2861,-85.5994 L 72.227,-85.6363 L 71.6615,-85.9829 L 71.6015,-86.0189 L 71.0301,-86.3555 L 70.9697,-86.3904
 L 70.3924,-86.717 L 70.3314,-86.7508 L 69.7486,-87.0673 L 69.6869,-87.1 L 69.0987,-87.4063 L 69.0364,-87.438
 L 68.4428,-87.7339 L 68.3801,-87.7645 L 67.7815,-88.05 L 67.7183,-88.0795 L 67.1148,-88.3546 L 67.051,-88.383
 L 66.4428,-88.6474 L 66.3786,-88.6747 L 65.7658,-88.9285 L 65.701,-88.9547 L 65.0839,-89.1977 L 65.0188,-89.2227
 L 64.3976,-89.455 L 64.332,-89.4789 L 63.7068,-89.7003 L 63.6408,-89.723 L 63.0118,-89.9334 L 62.9455,-89.955
 L 62.3129,-90.1544 L 62.2462,-90.1748 L 61.6103,-90.3632 L 61.5431,-90.3825 L 60.904,-90.5597 L 60.8367,-90.5778
 L 60.1946,-90.7438 L 60.1268,-90.7607 L 59.4819,-90.9155 L 59.4138,-90.9313 L 58.7664,-91.0748 L 58.6981,-91.0893
 L 58.0482,-91.2215 L 57.9797,-91.2348 L 57.3276,-91.3557 L 57.2588,-91.3678 L 56.6047,-91.4773 L 56.5357,-91.4882
 L 55.8798,-91.5862 L 55.8107,-91.5959 L 55.1532,-91.6825 L 55.0838,-91.691 L 54.4249,-91.7661 L 54.3555,-91.7734
 L 53.6953,-91.837 L 53.6257,-91.8431 L 52.9646,-91.8951 L 52.895,-91.9 L 52.233,-91.9405 L 52.1631,-91.9441
 L 51.5006,-91.973 L 51.4309,-91.9755 L 50.7679,-91.9928 L 50.6982,-91.994 L 50.035,-91.9998 L 49.965,-91.9998
 L 49.3018,-91.994 L 49.2321,-91.9928 L 48.5691,-91.9755 L 48.4994,-91.973 L 47.8369,-91.9441 L 47.767,-91.9405
 L 47.105,-91.9 L 47.0354,-91.8951 L 46.3743,-91.8431 L 46.3047,-91.837 L 45.6445,-91.7734 L 45.5751,-91.7661
 L 44.9162,-91.691 L 44.8468,-91.6825 L 44.1893,-91.5959 L 44.1202,-91.5862 L 43.4643,-91.4882 L 43.3953,-91.4773
 L 42.7412,-91.3678 L 42.6724,-91.3557 L 42.0203,-91.2348 L 41.9518,-91.2215 L 41.3019,-91.0893 L 41.2336,-91.0748
 L 40.5862,-90.9313 L 40.5181,-90.9155 L 39.8732,-90.7607 L 39.8054,-90.7438 L 39.1633,-90.5778 L 39.096,-90.5597
 L 38.4569,-90.3825 L 38.3897,-90.3632 L 37.7538,-90.1748 L 37.6871,-90.1544 L 37.0545,-89.955 L 36.9882,-89.9334
 L 36.3592,-89.723 L 36.2932,-89.7003 L 35.668,-89.4789 L 35.6024,-89.455 L 34.9812,-89.2227 L 34.9161,-89.1977
 L 34.299,-88.9547 L 34.2342,-88.9285 L 33.6214,-88.6747 L 33.5572,-88.6474 L 32.949,-88.383 L 32.8852,-88.3546
 L 32.2817,-88.0795 L 32.2185,-88.05 L 31.6199,-87.7645 L 31.5572,-87.7339 L 30.9636,-87.438 L 30.9013,-87.4063
 L 30.3131,-87.1 L 30.2514,-87.0673 L 29.6686,-86.7508 L 29.6076,-86.717 L 29.0303,-86.3904 L 28.9699,-86.3555
 L 28.3985,-86.0189 L 28.3385,-85.9829 L 27.773,-85.6363 L 27.7139,-85.5994 L 27.1546,-85.2431 L 27.096,-85.205
 L 26.5429,-84.839 L 26.4851,-84.7999 L 25.9385,-84.4243 L 25.8813,-84.3842 L 25.3414,-83.9991 L 25.2849,-83.9581
 L 24.7517,-83.5636 L 24.696,-83.5215 L 24.1698,-83.1178 L 24.1149,-83.0749 L 23.5958,-82.662 L 23.5415,-82.618
 L 23.0297,-82.1962 L 22.9763,-82.1513 L 22.472,-81.7206 L 22.4193,-81.6748 L 21.9226,-81.2354 L 21.8706,-81.1886
 L 21.3817,-80.7405 L 21.3307,-80.6929 L 20.8496,-80.2364 L 20.7994,-80.188 L 20.3264,-79.7231 L 20.2769,-79.6736
 L 19.812,-79.2006 L 19.7636,-79.1504 L 19.3071,-78.6693 L 19.2595,-78.6183 L 18.8114,-78.1294 L 18.7646,-78.0774
 L 18.3252,-77.5807 L 18.2794,-77.528 L 17.8487,-77.0237 L 17.8038,-76.9703 L 17.382,-76.4585 L 17.338,-76.4042
 L 16.9251,-75.8851 L 16.8822,-75.8302 L 16.4785,-75.304 L 16.4364,-75.2483 L 16.0419,-74.7151 L 16.0009,-74.6586
 L 15.6158,-74.1187 L 15.5757,-74.0615 L 15.2001,-73.5149 L 15.161,-73.4571 L 14.795,-72.904 L 14.7569,-72.8454
 L 14.4006,-72.2861 L 14.3637,-72.227 L 14.0171,-71.6615 L 13.9811,-71.6015 L 13.6445,-71.0301 L 13.6096,-70.9697
 L 13.283,-70.3924 L 13.2492,-70.3314 L 12.9327,-69.7486 L 12.9,-69.6869 L 12.5937,-69.0987 L 12.562,-69.0364
 L 12.2661,-68.4428 L 12.2355,-68.3801 L 11.95,-67.7815 L 11.9205,-67.7183 L 11.6454,-67.1148 L 11.617,-67.051
 L 11.3526,-66.4428 L 11.3253,-66.3786 L 11.0715,-65.7658 L 11.0453,-65.701 L 10.8023,-65.0839 L 10.7773,-65.0188
 L 10.545,-64.3976 L 10.5341,-64.3676 L 10.5329,-64.3648 L 10.532,-64.362 L 10.5211,-64.332 L 10.2997,-63.7068
 L 10.277,-63.6408 L 10.0666,-63.0118 L 10.045,-62.9455 L 9.84557,-62.3129 L 9.82516,-62.2462 L 9.6368,-61.6103
 L 9.61752,-61.5431 L 9.44029,-60.904 L 9.42224,-60.8367 L 9.25618,-60.1946 L 9.23929,-60.1268 L 9.08446,-59.4819
 L 9.06874,-59.4138 L 8.9252,-58.7664 L 8.91069,-58.6981 L 8.77847,-58.0482 L 8.76517,-57.9797 L 8.6443,-57.3276
 L 8.63217,-57.2588 L 8.52271,-56.6047 L 8.51178,-56.5357 L 8.41376,-55.8798 L 8.40405,-55.8107 L 8.31747,-55.1532
 L 8.30896,-55.0838 L 8.23389,-54.4249 L 8.22659,-54.3555 L 8.16302,-53.6953 L 8.15694,-53.6257 L 8.1049,-52.9646
 L 8.10004,-52.895 L 8.05954,-52.233 L 8.05588,-52.1631 L 8.02696,-51.5006 L 8.02454,-51.4309 L 8.00717,-50.7679
 L 8.00595,-50.6982 L 8.00015,-50.035 L 8.00015,-49.965 L 8.00595,-49.3018 L 8.00717,-49.2321 L 8.02454,-48.5691
 L 8.02696,-48.4994 L 8.05588,-47.8369 L 8.05954,-47.767 L 8.10004,-47.105 L 8.1049,-47.0354 L 8.15694,-46.3743
 L 8.16302,-46.3047 L 8.22659,-45.6445 L 8.23389,-45.5751 L 8.30896,-44.9162 L 8.31747,-44.8468 L 8.40405,-44.1893
 L 8.41376,-44.1202 L 8.51178,-43.4643 L 8.52271,-43.3953 L 8.63217,-42.7412 L 8.6443,-42.6724 L 8.76517,-42.0203
 L 8.77847,-41.9518 L 8.91069,-41.3019 L 8.9252,-41.2336 L 9.06874,-40.5862 L 9.08446,-40.5181 L 9.23929,-39.8732
 L 9.25618,-39.8054 L 9.42224,-39.1633 L 9.44029,-39.096 L 9.61752,-38.4569 L 9.6368,-38.3897 L 9.82516,-37.7538
 L 9.84557,-37.6871 L 10.045,-37.0545 L 10.0666,-36.9882 L 10.277,-36.3592 L 10.2997,-36.2932 L 10.5211,-35.668
 L 10.532,-35.638 L 10.5329,-35.6352 L 10.5341,-35.6324 L 10.545,-35.6024 L 10.7773,-34.9812 L 10.8023,-34.9161
 L 11.0453,-34.299 L 11.0715,-34.2342 L 11.3253,-33.6214 L 11.3526,-33.5572 L 11.617,-32.949 L 11.6454,-32.8852
 L 11.9205,-32.2817 L 11.95,-32.2185 L 12.2355,-31.6199 L 12.2661,-31.5572 L 12.562,-30.9636 L 12.5937,-30.9013
 L 12.9,-30.3131 L 12.9327,-30.2514 L 13.2492,-29.6686 L 13.283,-29.6076 L 13.6096,-29.0303 L 13.6445,-28.9699
 L 13.9811,-28.3985 L 14.0171,-28.3385 L 14.3637,-27.773 L 14.4006,-27.7139 L 14.7569,-27.1546 L 14.795,-27.096
 L 15.161,-26.5429 L 15.2001,-26.4851 L 15.5757,-25.9385 L 15.6158,-25.8813 L 16.0009,-25.3414 L 16.0419,-25.2849
 L 16.4364,-24.7517 L 16.4785,-24.696 L 16.8822,-24.1698 L 16.9251,-24.1149 L 17.338,-23.5958 L 17.382,-23.5415
 L 17.8038,-23.0297 L 17.8487,-22.9763 L 18.2794,-22.472 L 18.3252,-22.4193 L 18.7646,-21.9226 L 18.8114,-21.8706
 L 19.2595,-21.3817 L 19.3071,-21.3307 L 19.7636,-20.8496 L 19.812,-20.7994 L 20.2769,-20.3264 L 20.3264,-20.2769
 L 20.7994,-19.812 L 20.8496,-19.7636 L 21.3307,-19.3071 L 21.3817,-19.2595 L 21.8706,-18.8114 L 21.9226,-18.7646
 L 22.4193,-18.3252 L 22.472,-18.2794 L 22.9763,-17.8487 L 23.0297,-17.8038 L 23.5415,-17.382 L 23.5958,-17.338
 L 24.1149,-16.9251 L 24.1698,-16.8822 L 24.696,-16.4785 L 24.7517,-16.4364 L 25.2849,-16.0419 L 25.3414,-16.0009
 L 25.8813,-15.6158 L 25.9385,-15.5757 L 26.4851,-15.2001 L 26.5429,-15.161 L 27.096,-14.795 L 27.1546,-14.7569
 L 27.7139,-14.4006 L 27.773,-14.3637 L 28.3385,-14.0171 L 28.3985,-13.9811 L 28.9699,-13.6445 L 29.0303,-13.6096
 L 29.6076,-13.283 L 29.6686,-13.2492 L 30.2514,-12.9327 L 30.3131,-12.9 L 30.9013,-12.5937 L 30.9636,-12.562
 L 31.5572,-12.2661 L 31.6199,-12.2355 L 32.2185,-11.95 L 32.2817,-11.9205 L 32.8852,-11.6454 L 32.949,-11.617
 L 33.5572,-11.3526 L 33.6214,-11.3253 L 34.2342,-11.0715 L 34.299,-11.0453 L 34.9161,-10.8023 L 34.9812,-10.7773
 L 35.6024,-10.545 L 35.668,-10.5211 L 36.2932,-10.2997 L 36.3592,-10.277 L 36.9882,-10.0666 L 37.0545,-10.045
 L 37.6871,-9.84557 L 37.7538,-9.82516 L 38.3897,-9.6368 L 38.4569,-9.61752 L 39.096,-9.44029 L 39.1633,-9.42224
 L 39.8054,-9.25618 L 39.8732,-9.23929 L 40.5181,-9.08446 L 40.5862,-9.06874 L 41.2336,-8.9252 L 41.3019,-8.91069
 L 41.9518,-8.77847 L 42.0203,-8.76517 L 42.6724,-8.6443 L 42.7412,-8.63217 L 43.3953,-8.52271 L 43.4643,-8.51178
 L 44.1202,-8.41376 L 44.1893,-8.40405 L 44.8468,-8.31747 L 44.9162,-8.30896 L 45.5751,-8.23389 L 45.6445,-8.22659
 L 46.3047,-8.16302 L 46.3743,-8.15694 L 47.0354,-8.1049 L 47.105,-8.10004 L 47.767,-8.05954 L 47.8369,-8.05588
 L 48.4994,-8.02696 L 48.5691,-8.02454 L 49.2321,-8.00717 L 49.3018,-8.00595 L 49.965,-8.00015 L 50.035,-8.00015
 z
M 39.6162,-65.6802 L 39.6681,-66.0595 L 39.7538,-66.6581 L 39.8425,-67.2516 L 39.9344,-67.8399 L 40.0293,-68.4228
 L 40.1273,-69 L 40.2283,-69.5714 L 40.3323,-70.1369 L 40.4392,-70.6963 L 40.549,-71.2493 L 40.6617,-71.7959
 L 40.7772,-72.3358 L 40.8956,-72.869 L 41.0167,-73.3951 L 41.1405,-73.9142 L 41.2671,-74.4259 L 41.3963,-74.9302
 L 41.5282,-75.427 L 41.6626,-75.9159 L 41.7995,-76.397 L 41.939,-76.8701 L 42.0809,-77.3349 L 42.2252,-77.7914
 L 42.3719,-78.2395 L 42.5209,-78.679 L 42.6722,-79.1097 L 42.8258,-79.5315 L 42.9815,-79.9444 L 43.1393,-80.3481
 L 43.2993,-80.7426 L 43.4612,-81.1278 L 43.6252,-81.5034 L 43.7911,-81.8695 L 43.9589,-82.2258 L 44.1286,-82.5724
 L 44.3,-82.909 L 44.4732,-83.2355 L 44.648,-83.552 L 44.8245,-83.8582 L 45.0026,-84.1542 L 45.1822,-84.4397
 L 45.3632,-84.7147 L 45.5457,-84.9792 L 45.7295,-85.233 L 45.9146,-85.476 L 46.101,-85.7083 L 46.2885,-85.9297
 L 46.4772,-86.1401 L 46.667,-86.3396 L 46.8577,-86.5279 L 47.0495,-86.7052 L 47.2421,-86.8712 L 47.4356,-87.0261
 L 47.6298,-87.1696 L 47.8248,-87.3018 L 48.0204,-87.4227 L 48.2167,-87.5322 L 48.4134,-87.6302 L 48.6107,-87.7168
 L 48.8084,-87.7918 L 49.0064,-87.8554 L 49.2048,-87.9074 L 49.4034,-87.9479 L 49.6022,-87.9768 L 49.8011,-87.9942
 L 50,-88 L 50.6632,-87.9942 L 51.3262,-87.9768 L 51.9888,-87.9479 L 52.6507,-87.9074 L 53.3119,-87.8554
 L 53.9721,-87.7918 L 54.631,-87.7168 L 55.2886,-87.6302 L 55.9445,-87.5322 L 56.5986,-87.4227 L 57.2507,-87.3018
 L 57.9006,-87.1696 L 58.5481,-87.0261 L 59.193,-86.8712 L 59.8351,-86.7052 L 60.4742,-86.5279 L 61.1101,-86.3396
 L 61.7426,-86.1401 L 62.3716,-85.9297 L 62.9968,-85.7083 L 63.618,-85.476 L 64.235,-85.233 L 64.8478,-84.9792
 L 65.456,-84.7147 L 66.0595,-84.4397 L 66.6581,-84.1542 L 67.2516,-83.8582 L 67.8399,-83.552 L 68.4228,-83.2355
 L 69,-82.909 L 69.5714,-82.5724 L 70.1369,-82.2258 L 70.6963,-81.8695 L 71.2493,-81.5034 L 71.7959,-81.1278
 L 72.3358,-80.7426 L 72.869,-80.3481 L 73.3951,-79.9444 L 73.9142,-79.5315 L 74.4259,-79.1097 L 74.9302,-78.679
 L 75.427,-78.2395 L 75.9159,-77.7914 L 76.397,-77.3349 L 76.8701,-76.8701 L 77.3349,-76.397 L 77.7914,-75.9159
 L 78.2395,-75.427 L 78.679,-74.9302 L 79.1097,-74.4259 L 79.5315,-73.9142 L 79.9444,-73.3951 L 80.3481,-72.869
 L 80.7426,-72.3358 L 81.1278,-71.7959 L 81.5034,-71.2493 L 81.8695,-70.6963 L 82.2258,-70.1369 L 82.5724,-69.5714
 L 82.909,-69 L 83.2355,-68.4228 L 83.552,-67.8399 L 83.8582,-67.2516 L 84.1542,-66.6581 L 84.4397,-66.0595
 L 84.6125,-65.6802 z
M 15.3875,-65.6802 L 15.5603,-66.0595 L 15.8458,-66.6581 L 16.1418,-67.2516 L 16.448,-67.8399 L 16.7645,-68.4228
 L 17.091,-69 L 17.4276,-69.5714 L 17.7742,-70.1369 L 18.1305,-70.6963 L 18.4966,-71.2493 L 18.8722,-71.7959
 L 19.2574,-72.3358 L 19.6519,-72.869 L 20.0556,-73.3951 L 20.4685,-73.9142 L 20.8903,-74.4259 L 21.321,-74.9302
 L 21.7605,-75.427 L 22.2086,-75.9159 L 22.6651,-76.397 L 23.1299,-76.8701 L 23.603,-77.3349 L 24.0841,-77.7914
 L 24.573,-78.2395 L 25.0698,-78.679 L 25.5741,-79.1097 L 26.0858,-79.5315 L 26.6049,-79.9444 L 27.131,-80.3481
 L 27.6642,-80.7426 L 28.2041,-81.1278 L 28.7507,-81.5034 L 29.3037,-81.8695 L 29.8631,-82.2258 L 30.4286,-82.5724
 L 31,-82.909 L 31.5772,-83.2355 L 32.1601,-83.552 L 32.7484,-83.8582 L 33.3419,-84.1542 L 33.9405,-84.4397
 L 34.544,-84.7147 L 35.1522,-84.9792 L 35.765,-85.233 L 36.382,-85.476 L 37.0032,-85.7083 L 37.6284,-85.9297
 L 38.2574,-86.1401 L 38.8899,-86.3396 L 39.5258,-86.5279 L 40.1649,-86.7052 L 40.807,-86.8712 L 41.4519,-87.0261
 L 42.0994,-87.1696 L 42.2133,-87.1928 L 42.0708,-86.9864 L 42.0221,-86.914 L 41.841,-86.639 L 41.7962,-86.5693
 L 41.6166,-86.2838 L 41.5753,-86.2166 L 41.3972,-85.9207 L 41.3588,-85.8555 L 41.1823,-85.5492 L 41.1469,-85.4864
 L 40.972,-85.17 L 40.9393,-85.1094 L 40.7661,-84.7828 L 40.7357,-84.7243 L 40.5642,-84.3877 L 40.536,-84.3311
 L 40.3663,-83.9845 L 40.3401,-83.9299 L 40.1723,-83.5736 L 40.1479,-83.5207 L 39.9819,-83.1547 L 39.9593,-83.1037
 L 39.7953,-82.728 L 39.7741,-82.6786 L 39.6121,-82.2935 L 39.5923,-82.2455 L 39.4324,-81.851 L 39.4139,-81.8047
 L 39.2561,-81.4009 L 39.2388,-81.3559 L 39.0831,-80.943 L 39.067,-80.8995 L 38.9134,-80.4777 L 38.8983,-80.4353
 L 38.747,-80.0045 L 38.7328,-79.9635 L 38.5838,-79.524 L 38.5705,-79.4841 L 38.4238,-79.036 L 38.4113,-78.9971
 L 38.2669,-78.5406 L 38.2552,-78.5028 L 38.1133,-78.038 L 38.1023,-78.0012 L 37.9628,-77.5282 L 37.9524,-77.4922
 L 37.8154,-77.0111 L 37.8057,-76.9763 L 37.6713,-76.4873 L 37.662,-76.4531 L 37.5302,-75.9564 L 37.5215,-75.923
 L 37.3923,-75.4187 L 37.3841,-75.3862 L 37.2575,-74.8745 L 37.2498,-74.8427 L 37.1259,-74.3237 L 37.1186,-74.2924
 L 36.9975,-73.7662 L 36.9906,-73.7359 L 36.8723,-73.2028 L 36.8658,-73.1728 L 36.7502,-72.6329 L 36.7441,-72.6036
 L 36.6314,-72.057 L 36.6256,-72.0284 L 36.5158,-71.4753 L 36.5103,-71.4472 L 36.4034,-70.8878 L 36.3982,-70.8602
 L 36.2942,-70.2947 L 36.2893,-70.2675 L 36.1884,-69.6961 L 36.1837,-69.6694 L 36.0857,-69.0921 L 36.0814,-69.0658
 L 35.9864,-68.483 L 35.9823,-68.4571 L 35.8904,-67.8689 L 35.8865,-67.8433 L 35.7978,-67.2498 L 35.7941,-67.2246
 L 35.7084,-66.626 L 35.705,-66.6014 L 35.6225,-65.9979 L 35.6192,-65.9733 L 35.5809,-65.6802 z
M 13.8406,-38.3186 L 13.6604,-38.8899 L 13.4721,-39.5258 L 13.2948,-40.1649 L 13.1288,-40.807 L 12.9739,-41.4519
 L 12.8304,-42.0994 L 12.6982,-42.7493 L 12.5773,-43.4014 L 12.4678,-44.0555 L 12.3698,-44.7114 L 12.2832,-45.369
 L 12.2082,-46.0279 L 12.1446,-46.6881 L 12.0926,-47.3493 L 12.0521,-48.0112 L 12.0232,-48.6738 L 12.0058,-49.3368
 L 12,-50 L 12.0058,-50.6632 L 12.0232,-51.3262 L 12.0521,-51.9888 L 12.0926,-52.6507 L 12.1446,-53.3119
 L 12.2082,-53.9721 L 12.2832,-54.631 L 12.3698,-55.2886 L 12.4678,-55.9445 L 12.5773,-56.5986 L 12.6982,-57.2507
 L 12.8304,-57.9006 L 12.9739,-58.5481 L 13.1288,-59.193 L 13.2948,-59.8351 L 13.4721,-60.4742 L 13.6604,-61.1101
 L 13.8406,-61.6814 L 35.1343,-61.6814 L 35.1159,-61.4868 L 35.1138,-61.4641 L 35.0573,-60.8282 L 35.0554,-60.8059
 L 35.0022,-60.1668 L 35.0004,-60.1445 L 34.9506,-59.5025 L 34.949,-59.4804 L 34.9025,-58.8355 L 34.901,-58.8136
 L 34.8579,-58.1661 L 34.8566,-58.1443 L 34.8169,-57.4944 L 34.8156,-57.4729 L 34.7794,-56.8208 L 34.7782,-56.7992
 L 34.7454,-56.1451 L 34.7444,-56.1236 L 34.715,-55.4677 L 34.7141,-55.4464 L 34.6881,-54.7889 L 34.6873,-54.7677
 L 34.6648,-54.1087 L 34.6641,-54.0876 L 34.6451,-53.4274 L 34.6445,-53.4063 L 34.6289,-52.7451 L 34.6284,-52.7241
 L 34.6163,-52.0621 L 34.616,-52.0412 L 34.6073,-51.3786 L 34.6071,-51.3576 L 34.6019,-50.6946 L 34.6018,-50.6737
 L 34.6,-50.0105 L 34.6,-49.9895 L 34.6018,-49.3263 L 34.6019,-49.3054 L 34.6071,-48.6424 L 34.6073,-48.6214
 L 34.616,-47.9588 L 34.6163,-47.9379 L 34.6284,-47.2759 L 34.6289,-47.2549 L 34.6445,-46.5937 L 34.6451,-46.5726
 L 34.6641,-45.9124 L 34.6648,-45.8913 L 34.6873,-45.2323 L 34.6881,-45.2111 L 34.7141,-44.5536 L 34.715,-44.5323
 L 34.7444,-43.8764 L 34.7454,-43.8549 L 34.7782,-43.2008 L 34.7794,-43.1792 L 34.8156,-42.5271 L 34.8169,-42.5056
 L 34.8566,-41.8557 L 34.8579,-41.8339 L 34.901,-41.1864 L 34.9025,-41.1645 L 34.949,-40.5196 L 34.9506,-40.4975
 L 35.0004,-39.8555 L 35.0022,-39.8332 L 35.0554,-39.1941 L 35.0573,-39.1718 L 35.1138,-38.5359 L 35.1159,-38.5132
 L 35.1343,-38.3186 z
M 39.1522,-38.3186 L 39.0981,-38.8899 L 39.0416,-39.5258 L 38.9884,-40.1649 L 38.9386,-40.807 L 38.8922,-41.4519
 L 38.8491,-42.0994 L 38.8095,-42.7493 L 38.7732,-43.4014 L 38.7404,-44.0555 L 38.711,-44.7114 L 38.685,-45.369
 L 38.6625,-46.0279 L 38.6434,-46.6881 L 38.6278,-47.3493 L 38.6156,-48.0112 L 38.6069,-48.6738 L 38.6017,-49.3368
 L 38.6,-50 L 38.6017,-50.6632 L 38.6069,-51.3262 L 38.6156,-51.9888 L 38.6278,-52.6507 L 38.6434,-53.3119
 L 38.6625,-53.9721 L 38.685,-54.631 L 38.711,-55.2886 L 38.7404,-55.9445 L 38.7732,-56.5986 L 38.8095,-57.2507
 L 38.8491,-57.9006 L 38.8922,-58.5481 L 38.9386,-59.193 L 38.9884,-59.8351 L 39.0416,-60.4742 L 39.0981,-61.1101
 L 39.1522,-61.6814 L 86.1594,-61.6814 L 86.3396,-61.1101 L 86.5279,-60.4742 L 86.7052,-59.8351 L 86.8712,-59.193
 L 87.0261,-58.5481 L 87.1696,-57.9006 L 87.3018,-57.2507 L 87.4227,-56.5986 L 87.5322,-55.9445 L 87.6302,-55.2886
 L 87.7168,-54.631 L 87.7918,-53.9721 L 87.8554,-53.3119 L 87.9074,-52.6507 L 87.9479,-51.9888 L 87.9768,-51.3262
 L 87.9942,-50.6632 L 88,-50 L 87.9942,-49.3368 L 87.9768,-48.6738 L 87.9479,-48.0112 L 87.9074,-47.3493
 L 87.8554,-46.6881 L 87.7918,-46.0279 L 87.7168,-45.369 L 87.6302,-44.7114 L 87.5322,-44.0555 L 87.4227,-43.4014
 L 87.3018,-42.7493 L 87.1696,-42.0994 L 87.0261,-41.4519 L 86.8712,-40.807 L 86.7052,-40.1649 L 86.5279,-39.5258
 L 86.3396,-38.8899 L 86.1594,-38.3186 z
M 42.0994,-12.8304 L 41.4519,-12.9739 L 40.807,-13.1288 L 40.1649,-13.2948 L 39.5258,-13.4721 L 38.8899,-13.6604
 L 38.2574,-13.8599 L 37.6284,-14.0703 L 37.0032,-14.2917 L 36.382,-14.524 L 35.765,-14.767 L 35.1522,-15.0208
 L 34.544,-15.2853 L 33.9405,-15.5603 L 33.3419,-15.8458 L 32.7484,-16.1418 L 32.1601,-16.448 L 31.5772,-16.7645
 L 31,-17.091 L 30.4286,-17.4276 L 29.8631,-17.7742 L 29.3037,-18.1305 L 28.7507,-18.4966 L 28.2041,-18.8722
 L 27.6642,-19.2574 L 27.131,-19.6519 L 26.6049,-20.0556 L 26.0858,-20.4685 L 25.5741,-20.8903 L 25.0698,-21.321
 L 24.573,-21.7605 L 24.0841,-22.2086 L 23.603,-22.6651 L 23.1299,-23.1299 L 22.6651,-23.603 L 22.2086,-24.0841
 L 21.7605,-24.573 L 21.321,-25.0698 L 20.8903,-25.5741 L 20.4685,-26.0858 L 20.0556,-26.6049 L 19.6519,-27.131
 L 19.2574,-27.6642 L 18.8722,-28.2041 L 18.4966,-28.7507 L 18.1305,-29.3037 L 17.7742,-29.8631 L 17.4276,-30.4286
 L 17.091,-31 L 16.7645,-31.5772 L 16.448,-32.1601 L 16.1418,-32.7484 L 15.8458,-33.3419 L 15.5603,-33.9405
 L 15.3875,-34.3198 L 35.5809,-34.3198 L 35.6192,-34.0267 L 35.6225,-34.0021 L 35.705,-33.3986 L 35.7084,-33.374
 L 35.7941,-32.7754 L 35.7978,-32.7502 L 35.8865,-32.1567 L 35.8904,-32.1311 L 35.9823,-31.5429 L 35.9864,-31.517
 L 36.0814,-30.9342 L 36.0857,-30.9079 L 36.1837,-30.3306 L 36.1884,-30.3039 L 36.2893,-29.7325 L 36.2942,-29.7053
 L 36.3982,-29.1398 L 36.4034,-29.1122 L 36.5103,-28.5528 L 36.5158,-28.5247 L 36.6256,-27.9716 L 36.6314,-27.943
 L 36.7441,-27.3964 L 36.7502,-27.3671 L 36.8658,-26.8272 L 36.8723,-26.7972 L 36.9906,-26.2641 L 36.9975,-26.2338
 L 37.1186,-25.7076 L 37.1259,-25.6763 L 37.2498,-25.1573 L 37.2575,-25.1255 L 37.3841,-24.6138 L 37.3923,-24.5813
 L 37.5215,-24.077 L 37.5302,-24.0436 L 37.662,-23.5469 L 37.6713,-23.5127 L 37.8057,-23.0237 L 37.8154,-22.9889
 L 37.9524,-22.5078 L 37.9628,-22.4718 L 38.1023,-21.9988 L 38.1133,-21.962 L 38.2552,-21.4972 L 38.2669,-21.4594
 L 38.4113,-21.0029 L 38.4238,-20.964 L 38.5705,-20.5159 L 38.5838,-20.476 L 38.7328,-20.0365 L 38.747,-19.9955
 L 38.8983,-19.5647 L 38.9134,-19.5223 L 39.067,-19.1005 L 39.0831,-19.057 L 39.2388,-18.6441 L 39.2561,-18.5991
 L 39.4139,-18.1953 L 39.4324,-18.149 L 39.5923,-17.7545 L 39.6121,-17.7065 L 39.7741,-17.3214 L 39.7953,-17.272
 L 39.9593,-16.8963 L 39.9819,-16.8453 L 40.1479,-16.4793 L 40.1723,-16.4264 L 40.3401,-16.0701 L 40.3663,-16.0155
 L 40.536,-15.6689 L 40.5642,-15.6123 L 40.7357,-15.2757 L 40.7661,-15.2172 L 40.9393,-14.8906 L 40.972,-14.83
 L 41.1469,-14.5136 L 41.1823,-14.4508 L 41.3588,-14.1445 L 41.3972,-14.0793 L 41.5753,-13.7834 L 41.6166,-13.7162
 L 41.7962,-13.4307 L 41.841,-13.361 L 42.0221,-13.086 L 42.0708,-13.0136 L 42.2133,-12.8072 z
M 49.8011,-12.0058 L 49.6022,-12.0232 L 49.4034,-12.0521 L 49.2048,-12.0926 L 49.0064,-12.1446 L 48.8084,-12.2082
 L 48.6107,-12.2832 L 48.4134,-12.3698 L 48.2167,-12.4678 L 48.0204,-12.5773 L 47.8248,-12.6982 L 47.6298,-12.8304
 L 47.4356,-12.9739 L 47.2421,-13.1288 L 47.0495,-13.2948 L 46.8577,-13.4721 L 46.667,-13.6604 L 46.4772,-13.8599
 L 46.2885,-14.0703 L 46.101,-14.2917 L 45.9146,-14.524 L 45.7295,-14.767 L 45.5457,-15.0208 L 45.3632,-15.2853
 L 45.1822,-15.5603 L 45.0026,-15.8458 L 44.8245,-16.1418 L 44.648,-16.448 L 44.4732,-16.7645 L 44.3,-17.091
 L 44.1286,-17.4276 L 43.9589,-17.7742 L 43.7911,-18.1305 L 43.6252,-18.4966 L 43.4612,-18.8722 L 43.2993,-19.2574
 L 43.1393,-19.6519 L 42.9815,-20.0556 L 42.8258,-20.4685 L 42.6722,-20.8903 L 42.5209,-21.321 L 42.3719,-21.7605
 L 42.2252,-22.2086 L 42.0809,-22.6651 L 41.939,-23.1299 L 41.7995,-23.603 L 41.6626,-24.0841 L 41.5282,-24.573
 L 41.3963,-25.0698 L 41.2671,-25.5741 L 41.1405,-26.0858 L 41.0167,-26.6049 L 40.8956,-27.131 L 40.7772,-27.6642
 L 40.6617,-28.2041 L 40.549,-28.7507 L 40.4392,-29.3037 L 40.3323,-29.8631 L 40.2283,-30.4286 L 40.1273,-31
 L 40.0293,-31.5772 L 39.9344,-32.1601 L 39.8425,-32.7484 L 39.7538,-33.3419 L 39.6681,-33.9405 L 39.6162,-34.3198
 L 84.6125,-34.3198 L 84.4397,-33.9405 L 84.1542,-33.3419 L 83.8582,-32.7484 L 83.552,-32.1601 L 83.2355,-31.5772
 L 82.909,-31 L 82.5724,-30.4286 L 82.2258,-29.8631 L 81.8695,-29.3037 L 81.5034,-28.7507 L 81.1278,-28.2041
 L 80.7426,-27.6642 L 80.3481,-27.131 L 79.9444,-26.6049 L 79.5315,-26.0858 L 79.1097,-25.5741 L 78.679,-25.0698
 L 78.2395,-24.573 L 77.7914,-24.0841 L 77.3349,-23.603 L 76.8701,-23.1299 L 76.397,-22.6651 L 75.9159,-22.2086
 L 75.427,-21.7605 L 74.9302,-21.321 L 74.4259,-20.8903 L 73.9142,-20.4685 L 73.3951,-20.0556 L 72.869,-19.6519
 L 72.3358,-19.2574 L 71.7959,-18.8722 L 71.2493,-18.4966 L 70.6963,-18.1305 L 70.1369,-17.7742 L 69.5714,-17.4276
 L 69,-17.091 L 68.4228,-16.7645 L 67.8399,-16.448 L 67.2516,-16.1418 L 66.6581,-15.8458 L 66.0595,-15.5603
 L 65.456,-15.2853 L 64.8478,-15.0208 L 64.235,-14.767 L 63.618,-14.524 L 62.9968,-14.2917 L 62.3716,-14.0703
 L 61.7426,-13.8599 L 61.1101,-13.6604 L 60.4742,-13.4721 L 59.8351,-13.2948 L 59.193,-13.1288 L 58.5481,-12.9739
 L 57.9006,-12.8304 L 57.2507,-12.6982 L 56.5986,-12.5773 L 55.9445,-12.4678 L 55.2886,-12.3698 L 54.631,-12.2832
 L 53.9721,-12.2082 L 53.3119,-12.1446 L 52.6507,-12.0926 L 51.9888,-12.0521 L 51.3262,-12.0232 L 50.6632,-12.0058
 L 50,-12 z
" stroke="black" fill="black" stroke-width="0.5"/>
</svg>
