<?xml version="1.0" standalone="no"?>
<!DOCTYPE svg PUBLIC "-//W3C//DTD SVG 1.1//EN" "http://www.w3.org/Graphics/SVG/1.1/DTD/svg11.dtd">
<svg width="100mm" height="100mm" viewBox="-8 -108 116 116" xmlns="http://www.w3.org/2000/svg" version="1.1">
<title>OpenSCAD Model</title>
<path d="
M 28.8,-32.8 L 14.2,-32.8 L 14.0954,-32.8039 L 13.9569,-32.8213 L 13.8208,-32.8523 L 13.6885,-32.8968
 L 13.5613,-32.9542 L 13.4404,-33.024 L 13.3271,-33.1054 L 13.2225,-33.1978 L 13.1275,-33.3001 L 13.0433,-33.4113
 L 12.9705,-33.5304 L 12.9099,-33.6562 L 12.8622,-33.7873 L 12.8278,-33.9226 L 12.8069,-34.0606 L 12.8,-34.2
 L 12.8,-79 L 26.8,-79 L 26.9395,-79.0035 L 27.0789,-79.0104 L 27.2181,-79.0209 L 27.3568,-79.0382
 L 27.4948,-79.0591 L 27.6323,-79.0833 L 27.7682,-79.1143 L 27.9035,-79.1487 L 28.0379,-79.1866 L 28.1703,-79.231
 L 28.3014,-79.2788 L 28.4314,-79.3298 L 28.5587,-79.3873 L 28.6845,-79.4478 L 28.8087,-79.5115 L 28.9296,-79.5813
 L 29.0487,-79.654 L 29.1659,-79.7298 L 29.2793,-79.8113 L 29.3906,-79.8956 L 29.4997,-79.9826 L 29.6044,-80.075
 L 29.7067,-80.1699 L 29.8066,-80.2674 L 29.9016,-80.3697 L 29.9283,-80.4 L 48.5,-80.4 L 48.5,-82.5
 L 30.9406,-82.5 L 30.957,-82.6089 L 30.9744,-82.7474 L 30.9883,-82.8863 L 30.9941,-82.9905 L 30.998,-83.0952
 L 31,-83.2 L 31,-97.2 L 61.8,-97.2 L 61.9046,-97.1961 L 62.0431,-97.1787 L 62.1792,-97.1477
 L 62.3115,-97.1032 L 62.4387,-97.0458 L 62.5596,-96.976 L 62.6729,-96.8946 L 62.7775,-96.8022 L 62.8725,-96.6999
 L 62.9567,-96.5886 L 63.0295,-96.4696 L 63.0901,-96.3438 L 63.1378,-96.2126 L 63.1722,-96.0774 L 63.193,-95.9394
 L 63.2,-95.8 L 63.2,-72.2 L 66,-72.2 L 66,-95.8 L 65.9965,-95.9395 L 65.9896,-96.0789
 L 65.9791,-96.2181 L 65.9617,-96.3568 L 65.9409,-96.4948 L 65.9167,-96.6323 L 65.8857,-96.7682 L 65.8512,-96.9035
 L 65.8134,-97.0379 L 65.769,-97.1703 L 65.7212,-97.3014 L 65.6702,-97.4314 L 65.6127,-97.5587 L 65.5522,-97.6845
 L 65.4885,-97.8087 L 65.4187,-97.9296 L 65.3459,-98.0487 L 65.2702,-98.1659 L 65.1887,-98.2793 L 65.1044,-98.3906
 L 65.0174,-98.4997 L 64.925,-98.6044 L 64.8301,-98.7067 L 64.7326,-98.8066 L 64.6302,-98.9016 L 64.5256,-98.9939
 L 64.4187,-99.0837 L 64.3074,-99.1679 L 64.1941,-99.2494 L 64.0788,-99.328 L 63.9594,-99.401 L 63.8385,-99.4708
 L 63.7159,-99.5375 L 63.5903,-99.598 L 63.4631,-99.6554 L 63.3344,-99.7097 L 63.2033,-99.7574 L 63.071,-99.8018
 L 62.9376,-99.843 L 62.8023,-99.8775 L 62.6662,-99.9085 L 62.5293,-99.9362 L 62.3911,-99.957 L 62.2526,-99.9744
 L 62.1137,-99.9883 L 62.0094,-99.9941 L 61.9048,-99.998 L 61.8,-100 L 28.2,-100 L 10,-81.8
 L 10,-34.2 L 10.0035,-34.0605 L 10.0104,-33.9211 L 10.0209,-33.7819 L 10.0382,-33.6431 L 10.0591,-33.5051
 L 10.0833,-33.3677 L 10.1143,-33.2318 L 10.1487,-33.0965 L 10.1866,-32.9621 L 10.231,-32.8297 L 10.2788,-32.6986
 L 10.3298,-32.5686 L 10.3873,-32.4412 L 10.4478,-32.3155 L 10.5115,-32.1913 L 10.5813,-32.0704 L 10.654,-31.9513
 L 10.7298,-31.8341 L 10.8113,-31.7207 L 10.8956,-31.6094 L 10.9826,-31.5003 L 11.075,-31.3956 L 11.1699,-31.2933
 L 11.2674,-31.1934 L 11.3697,-31.0984 L 11.4744,-31.0061 L 11.5813,-30.9163 L 11.6925,-30.8321 L 11.8059,-30.7506
 L 11.9212,-30.672 L 12.0406,-30.599 L 12.1614,-30.5292 L 12.2841,-30.4625 L 12.4097,-30.402 L 12.5369,-30.3446
 L 12.6656,-30.2903 L 12.7966,-30.2426 L 12.9289,-30.1982 L 13.0623,-30.157 L 13.1977,-30.1225 L 13.3338,-30.0915
 L 13.4706,-30.0638 L 13.6089,-30.043 L 13.7474,-30.0256 L 13.8863,-30.0117 L 13.9905,-30.0059 L 14.0952,-30.002
 L 14.2,-30 L 28.8,-30 z
M 55.5,-74.8 L 20.5,-74.8 L 20.5,-72.7 L 55.5,-72.7 z
M 83.9395,0.996506 L 84.0789,0.989563 L 84.2181,0.979126 L 84.3568,0.961746 L 84.4948,0.940933 L 84.6323,0.916687
 L 84.7682,0.885666 L 84.9035,0.851242 L 85.0379,0.813431 L 85.1703,0.768951 L 85.3014,0.721222 L 85.4314,0.670212
 L 85.5587,0.612732 L 85.6845,0.55217 L 85.8087,0.48848 L 85.9296,0.418716 L 86.0487,0.345947 L 86.1659,0.270203
 L 86.2793,0.18869 L 86.3906,0.104416 L 86.4997,0.0173645 L 86.6044,-0.0749817 L 86.7067,-0.169922 L 86.8066,-0.267395
 L 86.9016,-0.369736 L 86.9939,-0.47438 L 87.0837,-0.581329 L 87.1679,-0.692535 L 87.2494,-0.805847 L 87.328,-0.921204
 L 87.401,-1.04056 L 87.4708,-1.16144 L 87.5375,-1.28406 L 87.598,-1.4097 L 87.6554,-1.53691 L 87.7097,-1.66556
 L 87.7574,-1.79665 L 87.8018,-1.92894 L 87.843,-2.06235 L 87.8775,-2.19772 L 87.9085,-2.3338 L 87.9362,-2.47064
 L 87.957,-2.60887 L 87.9744,-2.74736 L 87.9883,-2.88628 L 87.9941,-2.99054 L 87.998,-3.09515 L 88,-3.2
 L 88,-64.8 L 87.9965,-64.9395 L 87.9896,-65.0789 L 87.9791,-65.2181 L 87.9617,-65.3568 L 87.9409,-65.4948
 L 87.9167,-65.6323 L 87.8857,-65.7682 L 87.8512,-65.9035 L 87.8134,-66.0379 L 87.769,-66.1703 L 87.7212,-66.3014
 L 87.6702,-66.4314 L 87.6127,-66.5587 L 87.5522,-66.6845 L 87.4885,-66.8087 L 87.4187,-66.9296 L 87.3459,-67.0487
 L 87.2702,-67.1659 L 87.1887,-67.2793 L 87.1044,-67.3906 L 87.0174,-67.4997 L 86.925,-67.6044 L 86.8301,-67.7067
 L 86.7326,-67.8066 L 86.6302,-67.9016 L 86.5256,-67.9939 L 86.4187,-68.0837 L 86.3074,-68.1679 L 86.1941,-68.2494
 L 86.0788,-68.328 L 85.9594,-68.401 L 85.8385,-68.4708 L 85.7159,-68.5375 L 85.5903,-68.598 L 85.4631,-68.6554
 L 85.3344,-68.7097 L 85.2033,-68.7574 L 85.071,-68.8018 L 84.9376,-68.843 L 84.8023,-68.8775 L 84.6662,-68.9085
 L 84.5293,-68.9362 L 84.3911,-68.957 L 84.2526,-68.9744 L 84.1137,-68.9883 L 84.0094,-68.9941 L 83.9048,-68.998
 L 83.8,-69 L 50.2,-69 L 32,-50.8 L 32,-3.2 L 32.0035,-3.0605 L 32.0104,-2.9211
 L 32.0209,-2.78188 L 32.0382,-2.64314 L 32.0591,-2.50514 L 32.0833,-2.36766 L 32.1143,-2.23175 L 32.1487,-2.0965
 L 32.1866,-1.9621 L 32.231,-1.82971 L 32.2788,-1.69856 L 32.3298,-1.5686 L 32.3873,-1.44124 L 32.4478,-1.31549
 L 32.5115,-1.19125 L 32.5813,-1.07042 L 32.654,-0.951324 L 32.7298,-0.834045 L 32.8113,-0.720673 L 32.8956,-0.609421
 L 32.9826,-0.500275 L 33.075,-0.395615 L 33.1699,-0.293304 L 33.2674,-0.193359 L 33.3697,-0.0984039 L 33.4744,-0.00605774
 L 33.5813,0.0836792 L 33.6925,0.167923 L 33.8059,0.24939 L 33.9212,0.328049 L 34.0406,0.400986 L 34.1614,0.470764
 L 34.2841,0.537521 L 34.4097,0.598022 L 34.5369,0.655426 L 34.6656,0.709656 L 34.7966,0.75737 L 34.9289,0.801819
 L 35.0623,0.842987 L 35.1977,0.877457 L 35.3338,0.908524 L 35.4706,0.936188 L 35.6089,0.957016 L 35.7474,0.974365
 L 35.8863,0.988251 L 35.9905,0.99411 L 36.0952,0.998032 L 36.2,1 L 83.8,1 z
M 36.2,-1.79999 L 36.0954,-1.80391 L 35.9569,-1.82126 L 35.8208,-1.85233 L 35.6885,-1.89677 L 35.5613,-1.95418
 L 35.4404,-2.02396 L 35.3271,-2.10544 L 35.2225,-2.19778 L 35.1275,-2.30009 L 35.0433,-2.41135 L 34.9705,-2.53043
 L 34.9099,-2.65619 L 34.8622,-2.78734 L 34.8278,-2.92259 L 34.8069,-3.06059 L 34.8,-3.2 L 34.8,-48
 L 48.8,-48 L 48.9395,-48.0035 L 49.0789,-48.0104 L 49.2181,-48.0209 L 49.3568,-48.0382 L 49.4948,-48.0591
 L 49.6323,-48.0833 L 49.7682,-48.1143 L 49.9035,-48.1487 L 50.0379,-48.1866 L 50.1703,-48.231 L 50.3014,-48.2788
 L 50.4314,-48.3298 L 50.5587,-48.3873 L 50.6845,-48.4478 L 50.8087,-48.5115 L 50.9296,-48.5813 L 51.0487,-48.654
 L 51.1659,-48.7298 L 51.2793,-48.8113 L 51.3906,-48.8956 L 51.4997,-48.9826 L 51.6044,-49.075 L 51.7067,-49.1699
 L 51.8066,-49.2674 L 51.9016,-49.3697 L 51.9283,-49.4 L 70.5,-49.4 L 70.5,-51.5 L 52.9406,-51.5
 L 52.957,-51.6089 L 52.9744,-51.7474 L 52.9883,-51.8863 L 52.9941,-51.9905 L 52.998,-52.0952 L 53,-52.2
 L 53,-66.2 L 83.8,-66.2 L 83.9046,-66.1961 L 84.0431,-66.1787 L 84.1792,-66.1477 L 84.3115,-66.1032
 L 84.4387,-66.0458 L 84.5596,-65.976 L 84.6729,-65.8946 L 84.7775,-65.8022 L 84.8725,-65.6999 L 84.9567,-65.5886
 L 85.0295,-65.4696 L 85.0901,-65.3438 L 85.1378,-65.2126 L 85.1722,-65.0774 L 85.193,-64.9394 L 85.2,-64.8
 L 85.2,-3.2 L 85.1961,-3.09537 L 85.1787,-2.95689 L 85.1477,-2.82082 L 85.1032,-2.68851 L 85.0458,-2.56129
 L 84.976,-2.44043 L 84.8946,-2.3271 L 84.8022,-2.22246 L 84.6999,-2.12753 L 84.5886,-2.04326 L 84.4696,-1.97049
 L 84.3438,-1.90993 L 84.2126,-1.86218 L 84.0774,-1.82776 L 83.9394,-1.80695 L 83.8,-1.79999 z
M 77.5,-43.8 L 42.5,-43.8 L 42.5,-41.7 L 77.5,-41.7 z
M 49.5,-36.1 L 42.5,-36.1 L 42.5,-34 L 49.5,-34 z
M 70.5,-28.4 L 42.5,-28.4 L 42.5,-26.3 L 70.5,-26.3 z
M 70.5,-20.7 L 42.5,-20.7 L 42.5,-18.6 L 70.5,-18.6 z
M 63.5,-13 L 42.5,-13 L 42.5,-10.9 L 63.5,-10.9 z
M 27.5,-67.1 L 20.5,-67.1 L 20.5,-65 L 27.5,-65 z
M 28.8,-59.4 L 20.5,-59.4 L 20.5,-57.3 L 28.8,-57.3 z
M 28.8,-51.7 L 20.5,-51.7 L 20.5,-49.6 L 28.8,-49.6 z
M 28.8,-44 L 20.5,-44 L 20.5,-41.9 L 28.8,-41.9 z
" stroke="black" fill="black" stroke-width="0.5"/>
</svg>
