<?xml version="1.0" standalone="no"?>
<!DOCTYPE svg PUBLIC "-//W3C//DTD SVG 1.1//EN" "http://www.w3.org/Graphics/SVG/1.1/DTD/svg11.dtd">
<svg width="100mm" height="100mm" viewBox="-8 -108 116 116" xmlns="http://www.w3.org/2000/svg" version="1.1">
<title>OpenSCAD Model</title>
<path d="
M 84.1993,-0.00497437 L 84.3984,-0.0149078 L 84.5973,-0.0298004 L 84.7955,-0.0546417 L 84.9926,-0.0843658 L 85.1891,-0.119003
 L 85.3832,-0.163315 L 85.5764,-0.212509 L 85.7684,-0.266525 L 85.9575,-0.330063 L 86.1449,-0.398254 L 86.3306,-0.471115
 L 86.5125,-0.553223 L 86.6922,-0.63974 L 86.8696,-0.730728 L 87.0423,-0.830399 L 87.2124,-0.934357 L 87.3799,-1.04256
 L 87.5419,-1.15901 L 87.7008,-1.2794 L 87.8568,-1.40376 L 88.0063,-1.53571 L 88.1524,-1.67133 L 88.2952,-1.81058
 L 88.4308,-1.95677 L 88.5628,-2.10626 L 88.691,-2.25905 L 88.8113,-2.41792 L 88.9277,-2.5798 L 89.0401,-2.74458
 L 89.1443,-2.9151 L 89.244,-3.08778 L 89.3393,-3.26295 L 89.4258,-3.44243 L 89.5078,-3.62416 L 89.5852,-3.80795
 L 89.6534,-3.99522 L 89.7169,-4.18422 L 89.7757,-4.3748 L 89.825,-4.56818 L 89.8693,-4.76257 L 89.9088,-4.95807
 L 89.9386,-5.15555 L 89.9634,-5.35338 L 89.9832,-5.55183 L 89.9916,-5.70078 L 89.9972,-5.85023 L 90,-6
 L 90,-94 L 89.995,-94.1993 L 89.9851,-94.3984 L 89.9702,-94.5973 L 89.9454,-94.7955 L 89.9156,-94.9926
 L 89.881,-95.1891 L 89.8367,-95.3832 L 89.7875,-95.5764 L 89.7335,-95.7684 L 89.6699,-95.9575 L 89.6017,-96.1449
 L 89.5289,-96.3306 L 89.4468,-96.5125 L 89.3603,-96.6922 L 89.2693,-96.8696 L 89.1696,-97.0423 L 89.0656,-97.2124
 L 88.9574,-97.3799 L 88.841,-97.5419 L 88.7206,-97.7008 L 88.5962,-97.8568 L 88.4643,-98.0063 L 88.3287,-98.1524
 L 88.1894,-98.2952 L 88.0432,-98.4308 L 87.8937,-98.5628 L 87.741,-98.691 L 87.5821,-98.8113 L 87.4202,-98.9277
 L 87.2554,-99.0401 L 87.0849,-99.1443 L 86.9122,-99.244 L 86.737,-99.3393 L 86.5576,-99.4258 L 86.3758,-99.5078
 L 86.192,-99.5852 L 86.0048,-99.6534 L 85.8158,-99.7169 L 85.6252,-99.7757 L 85.4318,-99.825 L 85.2374,-99.8693
 L 85.0419,-99.9088 L 84.8445,-99.9386 L 84.6466,-99.9634 L 84.4482,-99.9832 L 84.2992,-99.9916 L 84.1498,-99.9972
 L 84,-100 L 36,-100 L 10,-74 L 10,-50 L 14,-50 L 14,-70
 L 34,-70 L 34.1993,-70.005 L 34.3984,-70.0149 L 34.5973,-70.0298 L 34.7955,-70.0546 L 34.9926,-70.0844
 L 35.1891,-70.119 L 35.3832,-70.1633 L 35.5764,-70.2125 L 35.7684,-70.2665 L 35.9575,-70.3301 L 36.1449,-70.3983
 L 36.3306,-70.4711 L 36.5125,-70.5532 L 36.6922,-70.6397 L 36.8696,-70.7307 L 37.0423,-70.8304 L 37.2124,-70.9344
 L 37.3799,-71.0426 L 37.5419,-71.159 L 37.7008,-71.2794 L 37.8568,-71.4038 L 38.0063,-71.5357 L 38.1524,-71.6713
 L 38.2952,-71.8106 L 38.4308,-71.9568 L 38.5628,-72.1063 L 38.691,-72.259 L 38.8113,-72.4179 L 38.9277,-72.5798
 L 39.0401,-72.7446 L 39.1443,-72.9151 L 39.244,-73.0878 L 39.3393,-73.263 L 39.4258,-73.4424 L 39.5078,-73.6242
 L 39.5852,-73.808 L 39.6534,-73.9952 L 39.7169,-74.1842 L 39.7757,-74.3748 L 39.825,-74.5682 L 39.8693,-74.7626
 L 39.9088,-74.9581 L 39.9386,-75.1555 L 39.9634,-75.3534 L 39.9832,-75.5518 L 39.9916,-75.7008 L 39.9972,-75.8502
 L 40,-76 L 40,-96 L 84,-96 L 84.1495,-95.9944 L 84.3473,-95.9696 L 84.5417,-95.9252
 L 84.7307,-95.8617 L 84.9124,-95.7797 L 85.0851,-95.6801 L 85.247,-95.5637 L 85.3965,-95.4317 L 85.5321,-95.2856
 L 85.6525,-95.1266 L 85.7564,-94.9565 L 85.843,-94.7769 L 85.9111,-94.5895 L 85.9603,-94.3963 L 85.9901,-94.1991
 L 86,-94 L 86,-6 L 85.9944,-5.85054 L 85.9696,-5.65271 L 85.9252,-5.45831 L 85.8617,-5.26932
 L 85.7797,-5.08759 L 85.6801,-4.9149 L 85.5637,-4.75302 L 85.4317,-4.60353 L 85.2856,-4.46791 L 85.1266,-4.34752
 L 84.9565,-4.24356 L 84.7769,-4.15704 L 84.5895,-4.08885 L 84.3963,-4.03966 L 84.1991,-4.00993 L 84,-4
 L 80,-4 L 80,-0 L 84,-0 z
M 12.7634,-0.00247192 L 13.1082,-0.00991821 L 13.4495,-0.0223236 L 13.7872,-0.0397034 L 14.1213,-0.0620422 L 14.4518,-0.0893555
 L 14.7788,-0.121628 L 15.1021,-0.158875 L 15.4219,-0.20108 L 15.7381,-0.248245 L 16.0507,-0.300369 L 16.3598,-0.357483
 L 16.6652,-0.419525 L 16.9671,-0.486557 L 17.2654,-0.558563 L 17.5601,-0.635513 L 17.8512,-0.717438 L 18.1388,-0.804337
 L 18.4228,-0.896179 L 18.7032,-0.993011 L 18.98,-1.09479 L 19.2532,-1.20154 L 19.5228,-1.31325 L 19.7889,-1.42993
 L 20.0514,-1.55157 L 20.3103,-1.67819 L 20.5656,-1.80975 L 20.8173,-1.9463 L 21.0655,-2.0878 L 21.3101,-2.23428
 L 21.5511,-2.38571 L 21.7885,-2.54211 L 22.0223,-2.70349 L 22.2526,-2.86981 L 22.4792,-3.04111 L 22.7023,-3.21738
 L 22.9218,-3.39861 L 23.1378,-3.58478 L 23.3501,-3.77594 L 23.5589,-3.97206 L 23.7641,-4.17314 L 23.9657,-4.3792
 L 24.1637,-4.59023 L 24.3581,-4.8062 L 24.549,-5.02715 L 24.7363,-5.25305 L 24.9197,-5.48364 L 25.0992,-5.71858
 L 25.2746,-5.95792 L 25.446,-6.2016 L 25.6134,-6.44965 L 25.7767,-6.70209 L 25.936,-6.95888 L 26.0912,-7.22005
 L 26.2424,-7.48561 L 26.3896,-7.75551 L 26.5328,-8.0298 L 26.6719,-8.30844 L 26.807,-8.59146 L 26.9381,-8.87886
 L 27.0651,-9.17062 L 27.1881,-9.46675 L 27.307,-9.76726 L 27.422,-10.0721 L 27.5329,-10.3814 L 27.6397,-10.695
 L 27.7426,-11.013 L 27.8414,-11.3353 L 27.9361,-11.662 L 28.0269,-11.9931 L 28.1136,-12.3286 L 28.1962,-12.6684
 L 28.2749,-13.0126 L 28.3495,-13.3612 L 28.42,-13.7142 L 28.4866,-14.0715 L 28.5491,-14.4332 L 28.6076,-14.7992
 L 28.662,-15.1696 L 28.7124,-15.5444 L 28.7588,-15.9236 L 28.8011,-16.3071 L 28.8394,-16.6951 L 28.8737,-17.0873
 L 28.904,-17.484 L 28.9302,-17.885 L 28.9523,-18.2904 L 28.9705,-18.7001 L 28.9846,-19.1143 L 28.9947,-19.5328
 L 29.0007,-19.9556 L 29.0027,-20.3829 L 29.0008,-20.7842 L 28.995,-21.1817 L 28.9853,-21.5752 L 28.9717,-21.9649
 L 28.9542,-22.3507 L 28.9328,-22.7327 L 28.9076,-23.1107 L 28.8784,-23.4849 L 28.8454,-23.8552 L 28.8085,-24.2216
 L 28.7677,-24.5841 L 28.723,-24.9428 L 28.6745,-25.2975 L 28.622,-25.6485 L 28.5657,-25.9955 L 28.5054,-26.3386
 L 28.4413,-26.6779 L 28.3733,-27.0132 L 28.3015,-27.3447 L 28.2257,-27.6724 L 28.146,-27.9961 L 28.0625,-28.316
 L 27.9751,-28.6319 L 27.8838,-28.9441 L 27.7886,-29.2523 L 27.6895,-29.5566 L 27.5866,-29.8571 L 27.4797,-30.1537
 L 27.369,-30.4464 L 27.2544,-30.7352 L 27.1358,-31.0201 L 27.0135,-31.3012 L 26.8872,-31.5784 L 26.757,-31.8517
 L 26.623,-32.1211 L 26.4851,-32.3867 L 26.3433,-32.6484 L 26.1976,-32.9062 L 26.048,-33.16 L 25.8945,-33.4101
 L 25.7372,-33.6562 L 25.5759,-33.8985 L 25.4108,-34.1369 L 25.2418,-34.3714 L 25.0689,-34.6021 L 24.8921,-34.8288
 L 24.7118,-35.0512 L 24.5284,-35.2687 L 24.3418,-35.4813 L 24.1521,-35.689 L 23.9592,-35.8919 L 23.7632,-36.0898
 L 23.5641,-36.2829 L 23.3618,-36.4711 L 23.1564,-36.6544 L 22.9479,-36.8328 L 22.7362,-37.0063 L 22.5213,-37.1749
 L 22.3034,-37.3386 L 22.0823,-37.4975 L 21.858,-37.6515 L 21.6306,-37.8005 L 21.4001,-37.9447 L 21.1664,-38.084
 L 20.9296,-38.2184 L 20.6897,-38.348 L 20.4466,-38.4726 L 20.2004,-38.5923 L 19.951,-38.7072 L 19.6985,-38.8172
 L 19.4428,-38.9222 L 19.1841,-39.0224 L 18.9221,-39.1178 L 18.6571,-39.2082 L 18.3889,-39.2937 L 18.1175,-39.3744
 L 17.843,-39.4501 L 17.5654,-39.521 L 17.2847,-39.587 L 17.0007,-39.6481 L 16.7137,-39.7043 L 16.4235,-39.7556
 L 16.1302,-39.802 L 15.8337,-39.8436 L 15.5341,-39.8802 L 15.2314,-39.912 L 14.9255,-39.9389 L 14.6165,-39.9609
 L 14.3043,-39.978 L 13.989,-39.9902 L 13.6706,-39.9975 L 13.349,-40 L 3.82013,-40 L 3.82013,-0
 L 12.415,-0 z
M 10.2557,-7.00407 L 10.2557,-33.0508 L 13.6812,-33.0508 L 14.0526,-33.0447 L 14.4159,-33.0264 L 14.771,-32.9959
 L 15.1179,-32.9533 L 15.4566,-32.8985 L 15.7872,-32.8315 L 16.1097,-32.7523 L 16.424,-32.661 L 16.7301,-32.5575
 L 17.028,-32.4418 L 17.3178,-32.3139 L 17.5994,-32.1738 L 17.8729,-32.0215 L 18.1382,-31.8571 L 18.3953,-31.6805
 L 18.6443,-31.4917 L 18.8851,-31.2907 L 19.1178,-31.0776 L 19.3423,-30.8522 L 19.5586,-30.6147 L 19.7667,-30.3651
 L 19.9667,-30.1032 L 20.1586,-29.8291 L 20.3422,-29.5429 L 20.5177,-29.2445 L 20.6851,-28.9339 L 20.8443,-28.6111
 L 20.9953,-28.2762 L 21.1381,-27.929 L 21.2728,-27.5697 L 21.3993,-27.1982 L 21.5177,-26.8145 L 21.6279,-26.4187
 L 21.7299,-26.0107 L 21.8238,-25.5904 L 21.9095,-25.1581 L 21.9871,-24.7135 L 22.0565,-24.2567 L 22.1177,-23.7878
 L 22.1707,-23.3067 L 22.2156,-22.8134 L 22.2524,-22.3079 L 22.2809,-21.7902 L 22.3013,-21.2604 L 22.3136,-20.7184
 L 22.3177,-20.1642 L 22.3133,-19.5982 L 22.3001,-19.0447 L 22.2781,-18.5036 L 22.2473,-17.975 L 22.2078,-17.4588
 L 22.1594,-16.955 L 22.1023,-16.4637 L 22.0364,-15.9848 L 21.9616,-15.5183 L 21.8781,-15.0643 L 21.7858,-14.6228
 L 21.6847,-14.1936 L 21.5748,-13.7769 L 21.4562,-13.3727 L 21.3287,-12.9809 L 21.1924,-12.6015 L 21.0474,-12.2345
 L 20.8935,-11.8801 L 20.7309,-11.538 L 20.5595,-11.2084 L 20.3793,-10.8912 L 20.1903,-10.5864 L 19.9925,-10.2941
 L 19.7859,-10.0143 L 19.5705,-9.74681 L 19.3463,-9.49182 L 19.1134,-9.24925 L 18.8716,-9.01915 L 18.6211,-8.80147
 L 18.3617,-8.59622 L 18.0936,-8.40343 L 17.8167,-8.22307 L 17.531,-8.05515 L 17.2365,-7.89966 L 16.9332,-7.75662
 L 16.6211,-7.62602 L 16.3003,-7.50784 L 15.9706,-7.40211 L 15.6322,-7.30882 L 15.2849,-7.22798 L 14.9289,-7.15956
 L 14.5641,-7.10359 L 14.1904,-7.06004 L 13.808,-7.02896 L 13.4168,-7.0103 L 13.0168,-7.00407 z
M 43.8576,-15.1298 L 50.9162,-0 L 58.2656,-0 L 48.0099,-20.1642 L 57.5388,-40 L 50.6048,-40
 L 44.1898,-25.6089 L 37.6501,-40 L 30.5499,-40 L 39.9753,-20.6294 L 29.9064,-0 L 36.799,-0
 z
M 67.7547,-15.8141 L 78.052,-15.8141 L 78.052,-22.7359 L 67.7547,-22.7359 L 67.7547,-33.0508 L 78.8201,-33.0508
 L 78.8201,-40 L 61.4229,-40 L 61.4229,-0 L 67.7547,-0 z
" stroke="black" fill="black" stroke-width="0.5"/>
</svg>
