<?xml version="1.0" standalone="no"?>
<!DOCTYPE svg PUBLIC "-//W3C//DTD SVG 1.1//EN" "http://www.w3.org/Graphics/SVG/1.1/DTD/svg11.dtd">
<svg width="100mm" height="100mm" viewBox="-8 -108 116 116" xmlns="http://www.w3.org/2000/svg" version="1.1">
<title>OpenSCAD Model</title>
<path d="
M 43.9934,-26.3048 L 43.9934,-52.5482 L 70.3679,-47.3506 L 71.6358,-48.4997 L 71.6358,-51.2186 L 46.4576,-56.1805
 L 56.8832,-65.6293 L 56.8832,-68.3483 L 54.1643,-68.8841 L 43.9934,-59.6661 L 43.9934,-84.3085 L 41.2745,-84.8443
 L 40.0066,-83.6952 L 40.0066,-57.4518 L 13.6321,-62.6494 L 12.3642,-61.5003 L 12.3642,-58.7814 L 37.5424,-53.8195
 L 27.1168,-44.3707 L 27.1168,-41.6517 L 29.8357,-41.1159 L 40.0066,-50.3339 L 40.0066,-25.6915 L 42.7255,-25.1557
 z
M 14.5236,-22.0046 L 15.047,-22.0183 L 15.5701,-22.0411 L 16.0927,-22.0731 L 16.6147,-22.1142 L 17.1358,-22.1644
 L 17.6561,-22.2236 L 18.1752,-22.292 L 18.693,-22.3694 L 19.2094,-22.4558 L 19.7243,-22.5512 L 20.2374,-22.6556
 L 20.7485,-22.7689 L 21.2576,-22.8911 L 21.7646,-23.0222 L 22.2691,-23.1622 L 22.7711,-23.3109 L 23.2705,-23.4683
 L 23.767,-23.6344 L 24.2606,-23.8092 L 24.751,-23.9926 L 25.2382,-24.1845 L 25.7219,-24.3849 L 26.2021,-24.5936
 L 26.6785,-24.8108 L 27.1511,-25.0362 L 27.6197,-25.2698 L 28.0841,-25.5116 L 28.5443,-25.7614 L 29,-26.0192
 L 29.4511,-26.285 L 29.8976,-26.5586 L 30.3392,-26.8399 L 30.7758,-27.1289 L 31.2073,-27.4254 L 31.6335,-27.7295
 L 32.0544,-28.0409 L 32.4698,-28.3597 L 32.8796,-28.6856 L 33.2836,-29.0187 L 33.6818,-29.3587 L 34.0739,-29.7057
 L 34.4599,-30.0594 L 34.8397,-30.4198 L 35.2132,-30.7868 L 35.5802,-31.1603 L 35.9406,-31.5401 L 36.2943,-31.9261
 L 36.3597,-32 L 36.2943,-32.0739 L 35.9406,-32.4599 L 35.5802,-32.8397 L 35.2132,-33.2132 L 34.8397,-33.5802
 L 34.4599,-33.9406 L 34.0739,-34.2943 L 33.6818,-34.6413 L 33.2836,-34.9813 L 32.8796,-35.3144 L 32.4698,-35.6403
 L 32.0544,-35.9591 L 31.6335,-36.2705 L 31.2073,-36.5746 L 30.7758,-36.8711 L 30.3392,-37.1601 L 29.8976,-37.4414
 L 29.4511,-37.715 L 29,-37.9808 L 28.5443,-38.2386 L 28.0841,-38.4884 L 27.6197,-38.7302 L 27.1511,-38.9638
 L 26.6785,-39.1892 L 26.2021,-39.4064 L 25.7219,-39.6151 L 25.2382,-39.8155 L 24.751,-40.0074 L 24.2606,-40.1908
 L 23.767,-40.3656 L 23.2705,-40.5317 L 22.7711,-40.6891 L 22.2691,-40.8378 L 21.7646,-40.9778 L 21.2576,-41.1089
 L 20.7485,-41.2311 L 20.2374,-41.3444 L 19.7243,-41.4488 L 19.2094,-41.5442 L 18.693,-41.6306 L 18.1752,-41.708
 L 17.6561,-41.7764 L 17.1358,-41.8356 L 16.6147,-41.8858 L 16.0927,-41.9269 L 15.5701,-41.9589 L 15.047,-41.9817
 L 14.5236,-41.9954 L 14,-42 L 13.4764,-41.9954 L 12.953,-41.9817 L 12.4299,-41.9589 L 11.9073,-41.9269
 L 11.3853,-41.8858 L 10.8642,-41.8356 L 10.3439,-41.7764 L 9.82481,-41.708 L 9.30698,-41.6306 L 8.79056,-41.5442
 L 8.27574,-41.4488 L 7.76265,-41.3444 L 7.25148,-41.2311 L 6.74236,-41.1089 L 6.23544,-40.9778 L 5.73088,-40.8378
 L 5.22885,-40.6891 L 4.72949,-40.5317 L 4.23296,-40.3656 L 3.73941,-40.1908 L 3.24896,-40.0074 L 2.76181,-39.8155
 L 2.27808,-39.6151 L 1.79791,-39.4064 L 1.32146,-39.1892 L 0.848877,-38.9638 L 0.380295,-38.7302 L -0.084137,-38.4884
 L -0.544281,-38.2386 L -1,-37.9808 L -1.45114,-37.715 L -1.89757,-37.4414 L -2.33916,-37.1601 L -2.77577,-36.8711
 L -3.20729,-36.5746 L -3.63354,-36.2705 L -4.05444,-35.9591 L -4.46983,-35.6403 L -4.87961,-35.3144 L -5.28362,-34.9813
 L -5.68176,-34.6413 L -6.07391,-34.2943 L -6.45995,-33.9406 L -6.83974,-33.5802 L -7.2132,-33.2132 L -7.58018,-32.8397
 L -7.9406,-32.4599 L -8.29434,-32.0739 L -8.35974,-32 L -8.29434,-31.9261 L -7.9406,-31.5401 L -7.58018,-31.1603
 L -7.2132,-30.7868 L -6.83974,-30.4198 L -6.45995,-30.0594 L -6.07391,-29.7057 L -5.68176,-29.3587 L -5.28362,-29.0187
 L -4.87961,-28.6856 L -4.46983,-28.3597 L -4.05444,-28.0409 L -3.63354,-27.7295 L -3.20729,-27.4254 L -2.77577,-27.1289
 L -2.33916,-26.8399 L -1.89757,-26.5586 L -1.45114,-26.285 L -1,-26.0192 L -0.544281,-25.7614 L -0.084137,-25.5116
 L 0.380295,-25.2698 L 0.848877,-25.0362 L 1.32146,-24.8108 L 1.79791,-24.5936 L 2.27808,-24.3849 L 2.76181,-24.1845
 L 3.24896,-23.9926 L 3.73941,-23.8092 L 4.23296,-23.6344 L 4.72949,-23.4683 L 5.22885,-23.3109 L 5.73088,-23.1622
 L 6.23544,-23.0222 L 6.74236,-22.8911 L 7.25148,-22.7689 L 7.76265,-22.6556 L 8.27574,-22.5512 L 8.79056,-22.4558
 L 9.30698,-22.3694 L 9.82481,-22.292 L 10.3439,-22.2236 L 10.8642,-22.1644 L 11.3853,-22.1142 L 11.9073,-22.0731
 L 12.4299,-22.0411 L 12.953,-22.0183 L 13.4764,-22.0046 L 14,-22 z
M 13.7503,-23.0035 L 13.5506,-23.0112 L 13.3512,-23.0234 L 13.152,-23.04 L 12.9533,-23.0611 L 12.7551,-23.0865
 L 12.5576,-23.1163 L 12.3607,-23.1506 L 12.1647,-23.1891 L 11.9695,-23.2321 L 11.7753,-23.2793 L 11.5823,-23.3308
 L 11.3904,-23.3866 L 11.1999,-23.4467 L 11.0107,-23.511 L 10.8229,-23.5794 L 10.6368,-23.652 L 10.4523,-23.7287
 L 10.2695,-23.8096 L 10.0886,-23.8944 L 9.90964,-23.9832 L 9.73268,-24.076 L 9.55782,-24.1727 L 9.38513,-24.2732
 L 9.21474,-24.3776 L 9.04671,-24.4857 L 8.8811,-24.5975 L 8.71803,-24.713 L 8.55756,-24.832 L 8.39977,-24.9546
 L 8.24474,-25.0807 L 8.09254,-25.2102 L 7.94327,-25.343 L 7.79697,-25.4791 L 7.65373,-25.6184 L 7.51363,-25.7609
 L 7.37671,-25.9064 L 7.24307,-26.0549 L 7.11275,-26.2064 L 6.98582,-26.3607 L 6.86237,-26.5179 L 6.74242,-26.6777
 L 6.62605,-26.8401 L 6.51332,-27.0051 L 6.40427,-27.1725 L 6.29897,-27.3423 L 6.19746,-27.5144 L 6.09981,-27.6888
 L 6.00604,-27.8652 L 5.91623,-28.0437 L 5.83038,-28.2241 L 5.74857,-28.4064 L 5.67082,-28.5905 L 5.59718,-28.7762
 L 5.52769,-28.9636 L 5.46237,-29.1524 L 5.40126,-29.3427 L 5.34438,-29.5342 L 5.29178,-29.727 L 5.24345,-29.9209
 L 5.19946,-30.1158 L 5.15979,-30.3116 L 5.1245,-30.5083 L 5.09357,-30.7057 L 5.06703,-30.9037 L 5.04489,-31.1023
 L 5.02716,-31.3013 L 5.01387,-31.5007 L 5.005,-31.7003 L 5.00056,-31.9001 L 5.00056,-32.0999 L 5.005,-32.2997
 L 5.01387,-32.4993 L 5.02716,-32.6987 L 5.04489,-32.8977 L 5.06703,-33.0963 L 5.09357,-33.2943 L 5.1245,-33.4917
 L 5.15979,-33.6884 L 5.19946,-33.8842 L 5.24345,-34.0791 L 5.29178,-34.273 L 5.34438,-34.4658 L 5.40126,-34.6573
 L 5.46237,-34.8476 L 5.52769,-35.0364 L 5.59718,-35.2238 L 5.67082,-35.4095 L 5.74857,-35.5936 L 5.83038,-35.7759
 L 5.91623,-35.9563 L 6.00604,-36.1348 L 6.09981,-36.3112 L 6.19746,-36.4856 L 6.29897,-36.6577 L 6.40427,-36.8275
 L 6.51332,-36.9949 L 6.62605,-37.1599 L 6.74242,-37.3223 L 6.86237,-37.4821 L 6.98582,-37.6393 L 7.11275,-37.7936
 L 7.24307,-37.9451 L 7.37671,-38.0936 L 7.51363,-38.2391 L 7.65373,-38.3816 L 7.79697,-38.5209 L 7.94327,-38.657
 L 8.09254,-38.7898 L 8.24474,-38.9193 L 8.39977,-39.0454 L 8.55756,-39.168 L 8.71803,-39.287 L 8.8811,-39.4025
 L 9.04671,-39.5143 L 9.21474,-39.6224 L 9.38513,-39.7268 L 9.55782,-39.8273 L 9.73268,-39.924 L 9.90964,-40.0168
 L 10.0886,-40.1056 L 10.2695,-40.1904 L 10.4523,-40.2713 L 10.6368,-40.348 L 10.8229,-40.4206 L 11.0107,-40.489
 L 11.1999,-40.5533 L 11.3904,-40.6134 L 11.5823,-40.6692 L 11.7753,-40.7207 L 11.9695,-40.7679 L 12.1647,-40.8109
 L 12.3607,-40.8494 L 12.5576,-40.8837 L 12.7551,-40.9135 L 12.9533,-40.9389 L 13.152,-40.96 L 13.3512,-40.9766
 L 13.5506,-40.9888 L 13.7503,-40.9965 L 13.9501,-40.9998 L 14.1499,-40.9987 L 14.3496,-40.9932 L 14.5491,-40.9832
 L 14.7484,-40.9688 L 14.9474,-40.95 L 15.1458,-40.9268 L 15.3437,-40.8991 L 15.541,-40.8671 L 15.7374,-40.8307
 L 15.933,-40.7899 L 16.1277,-40.7449 L 16.3213,-40.6955 L 16.5138,-40.6418 L 16.705,-40.5839 L 16.8949,-40.5217
 L 17.0834,-40.4553 L 17.2703,-40.3848 L 17.4557,-40.3101 L 17.6393,-40.2314 L 17.8212,-40.1485 L 18.0011,-40.0617
 L 18.1791,-39.9709 L 18.355,-39.8761 L 18.5288,-39.7775 L 18.7003,-39.6751 L 18.8696,-39.5688 L 19.0364,-39.4588
 L 19.2008,-39.3452 L 19.3625,-39.2279 L 19.5217,-39.1071 L 19.6781,-38.9828 L 19.8317,-38.855 L 19.9825,-38.7238
 L 20.1303,-38.5894 L 20.275,-38.4516 L 20.4167,-38.3107 L 20.5552,-38.1667 L 20.6905,-38.0197 L 20.8225,-37.8697
 L 20.9511,-37.7168 L 21.0763,-37.5611 L 21.1981,-37.4026 L 21.3162,-37.2414 L 21.4308,-37.0777 L 21.5417,-36.9115
 L 21.6488,-36.7429 L 21.7523,-36.5719 L 21.8519,-36.3987 L 21.9476,-36.2233 L 22.0394,-36.0458 L 22.1272,-35.8663
 L 22.211,-35.685 L 22.2908,-35.5018 L 22.3665,-35.3168 L 22.4381,-35.1303 L 22.5055,-34.9422 L 22.5687,-34.7526
 L 22.6277,-34.5617 L 22.6825,-34.3696 L 22.7329,-34.1762 L 22.7791,-33.9818 L 22.8209,-33.7864 L 22.8584,-33.5901
 L 22.8915,-33.3931 L 22.9203,-33.1954 L 22.9446,-32.997 L 22.9645,-32.7982 L 22.98,-32.599 L 22.9911,-32.3995
 L 22.9978,-32.1998 L 23,-32 L 22.9978,-31.8002 L 22.9911,-31.6005 L 22.98,-31.401 L 22.9645,-31.2018
 L 22.9446,-31.003 L 22.9203,-30.8046 L 22.8915,-30.6069 L 22.8584,-30.4099 L 22.8209,-30.2136 L 22.7791,-30.0182
 L 22.7329,-29.8238 L 22.6825,-29.6304 L 22.6277,-29.4383 L 22.5687,-29.2474 L 22.5055,-29.0578 L 22.4381,-28.8697
 L 22.3665,-28.6832 L 22.2908,-28.4982 L 22.211,-28.315 L 22.1272,-28.1337 L 22.0394,-27.9542 L 21.9476,-27.7767
 L 21.8519,-27.6013 L 21.7523,-27.4281 L 21.6488,-27.2571 L 21.5417,-27.0885 L 21.4308,-26.9223 L 21.3162,-26.7586
 L 21.1981,-26.5974 L 21.0763,-26.4389 L 20.9511,-26.2832 L 20.8225,-26.1303 L 20.6905,-25.9803 L 20.5552,-25.8333
 L 20.4167,-25.6893 L 20.275,-25.5484 L 20.1303,-25.4106 L 19.9825,-25.2762 L 19.8317,-25.145 L 19.6781,-25.0172
 L 19.5217,-24.8929 L 19.3625,-24.7721 L 19.2008,-24.6548 L 19.0364,-24.5412 L 18.8696,-24.4312 L 18.7003,-24.3249
 L 18.5288,-24.2225 L 18.355,-24.1239 L 18.1791,-24.0291 L 18.0011,-23.9383 L 17.8212,-23.8515 L 17.6393,-23.7686
 L 17.4557,-23.6899 L 17.2703,-23.6152 L 17.0834,-23.5447 L 16.8949,-23.4783 L 16.705,-23.4161 L 16.5138,-23.3582
 L 16.3213,-23.3045 L 16.1277,-23.2551 L 15.933,-23.2101 L 15.7374,-23.1693 L 15.541,-23.1329 L 15.3437,-23.1009
 L 15.1458,-23.0732 L 14.9474,-23.05 L 14.7484,-23.0312 L 14.5491,-23.0168 L 14.3496,-23.0068 L 14.1499,-23.0013
 L 13.9501,-23.0002 z
M 92.2885,-15.5131 L 104.041,-40 L 99.6097,-40 L 90.2177,-20 L 80.8974,-40 L 76.418,-40
 L 88.1465,-15.294 L 88.1465,-0 L 92.2885,-0 z
M 77.8659,-17.0999 L 66.0412,-17.0999 L 66.0412,-12.941 L 77.8659,-12.941 z
" stroke="black" fill="black" stroke-width="0.5"/>
</svg>
