<?xml version="1.0" standalone="no"?>
<!DOCTYPE svg PUBLIC "-//W3C//DTD SVG 1.1//EN" "http://www.w3.org/Graphics/SVG/1.1/DTD/svg11.dtd">
<svg width="100mm" height="100mm" viewBox="-8 -108 116 116" xmlns="http://www.w3.org/2000/svg" version="1.1">
<title>OpenSCAD Model</title>
<path d="
M 66.3692,-0.677429 L 66.5681,-0.692337 L 66.766,-0.717133 L 66.9624,-0.75177 L 67.1569,-0.796158 L 67.3489,-0.850159
 L 67.5379,-0.913696 L 67.7236,-0.986542 L 67.9054,-1.06859 L 68.1699,-1.20836 L 76.8301,-6.20836 L 77.0003,-6.31236
 L 77.1651,-6.42471 L 77.3241,-6.54514 L 77.4769,-6.67334 L 77.6231,-6.80899 L 77.7623,-6.95177 L 77.8943,-7.1013
 L 78.0186,-7.25725 L 78.1351,-7.41917 L 78.2433,-7.5867 L 78.343,-7.75945 L 78.434,-7.93692 L 78.516,-8.11871
 L 78.5889,-8.30438 L 78.6524,-8.49344 L 78.7064,-8.68542 L 78.7508,-8.87988 L 78.7854,-9.07629 L 78.8102,-9.27419
 L 78.8251,-9.47308 L 78.8301,-9.67245 L 78.8251,-9.87184 L 78.8102,-10.0707 L 78.7854,-10.2686 L 78.7508,-10.465
 L 78.7064,-10.6595 L 78.6524,-10.8515 L 78.5889,-11.0405 L 78.516,-11.2262 L 78.434,-11.408 L 78.2942,-11.6725
 L 62.1027,-39.717 L 62.2943,-39.9261 L 62.6413,-40.3182 L 62.9813,-40.7164 L 63.3144,-41.1204 L 63.6403,-41.5302
 L 63.9591,-41.9456 L 64.2705,-42.3665 L 64.5746,-42.7927 L 64.8711,-43.2242 L 65.1601,-43.6608 L 65.4414,-44.1024
 L 65.715,-44.5489 L 65.9808,-45 L 66.2386,-45.4557 L 66.4884,-45.9159 L 66.7302,-46.3803 L 66.9638,-46.8489
 L 67.1892,-47.3215 L 67.4064,-47.7979 L 67.6151,-48.2781 L 67.8155,-48.7618 L 68.0074,-49.249 L 68.1908,-49.7394
 L 68.3656,-50.233 L 68.5317,-50.7295 L 68.6891,-51.2289 L 68.8378,-51.7309 L 68.9778,-52.2354 L 69.1089,-52.7424
 L 69.2311,-53.2515 L 69.3444,-53.7626 L 69.4488,-54.2757 L 69.5442,-54.7906 L 69.6306,-55.307 L 69.708,-55.8248
 L 69.7764,-56.3439 L 69.8356,-56.8642 L 69.8858,-57.3853 L 69.9269,-57.9073 L 69.9589,-58.4299 L 69.9817,-58.953
 L 69.9954,-59.4764 L 70,-60 L 69.9954,-60.5236 L 69.9817,-61.047 L 69.9589,-61.5701 L 69.9269,-62.0927
 L 69.8858,-62.6147 L 69.8356,-63.1358 L 69.7764,-63.6561 L 69.708,-64.1752 L 69.6306,-64.693 L 69.5442,-65.2094
 L 69.4488,-65.7243 L 69.3444,-66.2374 L 69.2311,-66.7485 L 69.1089,-67.2576 L 68.9778,-67.7646 L 68.8378,-68.2691
 L 68.6891,-68.7711 L 68.5317,-69.2705 L 68.3656,-69.767 L 68.1908,-70.2606 L 68.0074,-70.751 L 67.8155,-71.2382
 L 67.6151,-71.7219 L 67.4064,-72.2021 L 67.1892,-72.6785 L 66.9638,-73.1511 L 66.7302,-73.6197 L 66.4884,-74.0841
 L 66.2386,-74.5443 L 65.9808,-75 L 65.715,-75.4511 L 65.4414,-75.8976 L 65.1601,-76.3392 L 64.8711,-76.7758
 L 64.5746,-77.2073 L 64.2705,-77.6335 L 63.9591,-78.0544 L 63.6403,-78.4698 L 63.3144,-78.8796 L 62.9813,-79.2836
 L 62.6413,-79.6818 L 62.2943,-80.0739 L 61.9406,-80.4599 L 61.5802,-80.8397 L 61.2132,-81.2132 L 60.8397,-81.5802
 L 60.4599,-81.9406 L 60.0739,-82.2943 L 59.6818,-82.6413 L 59.2836,-82.9813 L 58.8796,-83.3144 L 58.4698,-83.6403
 L 58.0544,-83.9591 L 57.6335,-84.2705 L 57.2073,-84.5746 L 56.7758,-84.8711 L 56.3392,-85.1601 L 55.8976,-85.4414
 L 55.4511,-85.715 L 55,-85.9808 L 54.5443,-86.2386 L 54.0841,-86.4884 L 53.6197,-86.7302 L 53.1511,-86.9638
 L 52.6785,-87.1892 L 52.2021,-87.4064 L 51.7219,-87.6151 L 51.2382,-87.8155 L 50.751,-88.0074 L 50.2606,-88.1908
 L 49.767,-88.3656 L 49.2705,-88.5317 L 48.7711,-88.6891 L 48.2691,-88.8378 L 47.7646,-88.9778 L 47.2576,-89.1089
 L 46.7485,-89.2311 L 46.2374,-89.3444 L 45.7243,-89.4488 L 45.2094,-89.5442 L 44.693,-89.6306 L 44.1752,-89.708
 L 43.6561,-89.7764 L 43.1358,-89.8356 L 42.6147,-89.8858 L 42.0927,-89.9269 L 41.5701,-89.9589 L 41.047,-89.9817
 L 40.5236,-89.9954 L 40,-90 L 39.4764,-89.9954 L 38.953,-89.9817 L 38.4299,-89.9589 L 37.9073,-89.9269
 L 37.3853,-89.8858 L 36.8642,-89.8356 L 36.3439,-89.7764 L 35.8248,-89.708 L 35.307,-89.6306 L 34.7906,-89.5442
 L 34.2757,-89.4488 L 33.7626,-89.3444 L 33.2515,-89.2311 L 32.7424,-89.1089 L 32.2354,-88.9778 L 31.7309,-88.8378
 L 31.2289,-88.6891 L 30.7295,-88.5317 L 30.233,-88.3656 L 29.7394,-88.1908 L 29.249,-88.0074 L 28.7618,-87.8155
 L 28.2781,-87.6151 L 27.7979,-87.4064 L 27.3215,-87.1892 L 26.8489,-86.9638 L 26.3803,-86.7302 L 25.9159,-86.4884
 L 25.4557,-86.2386 L 25,-85.9808 L 24.5489,-85.715 L 24.1024,-85.4414 L 23.6608,-85.1601 L 23.2242,-84.8711
 L 22.7927,-84.5746 L 22.3665,-84.2705 L 21.9456,-83.9591 L 21.5302,-83.6403 L 21.1204,-83.3144 L 20.7164,-82.9813
 L 20.3182,-82.6413 L 19.9261,-82.2943 L 19.5401,-81.9406 L 19.1603,-81.5802 L 18.7868,-81.2132 L 18.4198,-80.8397
 L 18.0594,-80.4599 L 17.7057,-80.0739 L 17.3587,-79.6818 L 17.0187,-79.2836 L 16.6856,-78.8796 L 16.3597,-78.4698
 L 16.0409,-78.0544 L 15.7295,-77.6335 L 15.4254,-77.2073 L 15.1289,-76.7758 L 14.8399,-76.3392 L 14.5586,-75.8976
 L 14.285,-75.4511 L 14.0192,-75 L 13.7614,-74.5443 L 13.5116,-74.0841 L 13.2698,-73.6197 L 13.0362,-73.1511
 L 12.8108,-72.6785 L 12.5936,-72.2021 L 12.3849,-71.7219 L 12.1845,-71.2382 L 11.9926,-70.751 L 11.8092,-70.2606
 L 11.6344,-69.767 L 11.4683,-69.2705 L 11.3109,-68.7711 L 11.1622,-68.2691 L 11.0222,-67.7646 L 10.8911,-67.2576
 L 10.7689,-66.7485 L 10.6556,-66.2374 L 10.5512,-65.7243 L 10.4558,-65.2094 L 10.3694,-64.693 L 10.292,-64.1752
 L 10.2236,-63.6561 L 10.1644,-63.1358 L 10.1142,-62.6147 L 10.0731,-62.0927 L 10.0411,-61.5701 L 10.0183,-61.047
 L 10.0046,-60.5236 L 10,-60 L 10.0046,-59.4764 L 10.0183,-58.953 L 10.0411,-58.4299 L 10.0731,-57.9073
 L 10.1142,-57.3853 L 10.1644,-56.8642 L 10.2236,-56.3439 L 10.292,-55.8248 L 10.3694,-55.307 L 10.4558,-54.7906
 L 10.5512,-54.2757 L 10.6556,-53.7626 L 10.7689,-53.2515 L 10.8911,-52.7424 L 11.0222,-52.2354 L 11.1622,-51.7309
 L 11.3109,-51.2289 L 11.4683,-50.7295 L 11.6344,-50.233 L 11.8092,-49.7394 L 11.9926,-49.249 L 12.1845,-48.7618
 L 12.3849,-48.2781 L 12.5936,-47.7979 L 12.8108,-47.3215 L 13.0362,-46.8489 L 13.2698,-46.3803 L 13.5116,-45.9159
 L 13.7614,-45.4557 L 14.0192,-45 L 14.285,-44.5489 L 14.5586,-44.1024 L 14.8399,-43.6608 L 15.1289,-43.2242
 L 15.4254,-42.7927 L 15.7295,-42.3665 L 16.0409,-41.9456 L 16.3597,-41.5302 L 16.6856,-41.1204 L 17.0187,-40.7164
 L 17.3587,-40.3182 L 17.7057,-39.9261 L 18.0594,-39.5401 L 18.4198,-39.1603 L 18.7868,-38.7868 L 19.1603,-38.4198
 L 19.5401,-38.0594 L 19.9261,-37.7057 L 20.3182,-37.3587 L 20.7164,-37.0187 L 21.1204,-36.6856 L 21.5302,-36.3597
 L 21.9456,-36.0409 L 22.3665,-35.7295 L 22.7927,-35.4254 L 23.2242,-35.1289 L 23.6608,-34.8399 L 24.1024,-34.5586
 L 24.5489,-34.285 L 25,-34.0192 L 25.4557,-33.7614 L 25.9159,-33.5116 L 26.3803,-33.2698 L 26.8489,-33.0362
 L 27.3215,-32.8108 L 27.7979,-32.5936 L 28.2781,-32.3849 L 28.7618,-32.1845 L 29.249,-31.9926 L 29.7394,-31.8092
 L 30.233,-31.6344 L 30.7295,-31.4683 L 31.2289,-31.3109 L 31.7309,-31.1622 L 32.2354,-31.0222 L 32.7424,-30.8911
 L 33.2515,-30.7689 L 33.7626,-30.6556 L 34.2757,-30.5512 L 34.7906,-30.4558 L 35.307,-30.3694 L 35.8248,-30.292
 L 36.3439,-30.2236 L 36.8642,-30.1644 L 37.3853,-30.1142 L 37.9073,-30.0731 L 38.4299,-30.0411 L 38.953,-30.0183
 L 39.4764,-30.0046 L 40,-30 L 40.5236,-30.0046 L 41.047,-30.0183 L 41.5701,-30.0411 L 42.0927,-30.0731
 L 42.6147,-30.1142 L 43.1358,-30.1644 L 43.6561,-30.2236 L 44.1752,-30.292 L 44.693,-30.3694 L 45.2094,-30.4558
 L 45.7243,-30.5512 L 46.2374,-30.6556 L 46.5143,-30.717 L 62.7058,-2.67245 L 62.8098,-2.50227 L 62.9221,-2.33749
 L 63.0425,-2.1785 L 63.1707,-2.02571 L 63.3064,-1.8795 L 63.4492,-1.74025 L 63.5987,-1.60828 L 63.7547,-1.48393
 L 63.9166,-1.36749 L 64.0841,-1.25929 L 64.2569,-1.15958 L 64.4343,-1.06857 L 64.6161,-0.986542 L 64.8018,-0.913681
 L 64.9908,-0.850174 L 65.1828,-0.796143 L 65.3773,-0.75177 L 65.5737,-0.717148 L 65.7716,-0.692337 L 65.9705,-0.677429
 L 66.1699,-0.67247 z
M 39.5462,-34.004 L 39.0926,-34.0158 L 38.6393,-34.0356 L 38.1863,-34.0633 L 37.734,-34.0989 L 37.2823,-34.1424
 L 36.8314,-34.1938 L 36.3815,-34.253 L 35.9327,-34.3201 L 35.4852,-34.395 L 35.039,-34.4777 L 34.5943,-34.5682
 L 34.1513,-34.6664 L 33.71,-34.7723 L 33.2707,-34.8859 L 32.8334,-35.0072 L 32.3983,-35.1361 L 31.9656,-35.2725
 L 31.5352,-35.4165 L 31.1075,-35.568 L 30.6824,-35.7269 L 30.2602,-35.8932 L 29.841,-36.0669 L 29.4249,-36.2478
 L 29.0119,-36.436 L 28.6024,-36.6314 L 28.1963,-36.8338 L 27.7937,-37.0434 L 27.395,-37.2599 L 27,-37.4834
 L 26.609,-37.7137 L 26.2221,-37.9508 L 25.8394,-38.1946 L 25.461,-38.445 L 25.087,-38.7021 L 24.7176,-38.9656
 L 24.3528,-39.2355 L 23.9928,-39.5117 L 23.6377,-39.7942 L 23.2875,-40.0829 L 22.9425,-40.3776 L 22.6026,-40.6782
 L 22.2681,-40.9848 L 21.9389,-41.2972 L 21.6152,-41.6152 L 21.2972,-41.9389 L 20.9848,-42.2681 L 20.6782,-42.6026
 L 20.3776,-42.9425 L 20.0829,-43.2875 L 19.7942,-43.6377 L 19.5117,-43.9928 L 19.2355,-44.3528 L 18.9656,-44.7176
 L 18.7021,-45.087 L 18.445,-45.461 L 18.1946,-45.8394 L 17.9508,-46.2221 L 17.7137,-46.609 L 17.4834,-47
 L 17.2599,-47.395 L 17.0434,-47.7937 L 16.8338,-48.1963 L 16.6314,-48.6024 L 16.436,-49.0119 L 16.2478,-49.4249
 L 16.0669,-49.841 L 15.8932,-50.2602 L 15.7269,-50.6824 L 15.568,-51.1075 L 15.4165,-51.5352 L 15.2725,-51.9656
 L 15.1361,-52.3983 L 15.0072,-52.8334 L 14.8859,-53.2707 L 14.7723,-53.71 L 14.6664,-54.1513 L 14.5682,-54.5943
 L 14.4777,-55.039 L 14.395,-55.4852 L 14.3201,-55.9327 L 14.253,-56.3815 L 14.1938,-56.8314 L 14.1424,-57.2823
 L 14.0989,-57.734 L 14.0633,-58.1863 L 14.0356,-58.6393 L 14.0158,-59.0926 L 14.004,-59.5462 L 14,-60
 L 14.004,-60.4538 L 14.0158,-60.9074 L 14.0356,-61.3607 L 14.0633,-61.8137 L 14.0989,-62.266 L 14.1424,-62.7177
 L 14.1938,-63.1686 L 14.253,-63.6185 L 14.3201,-64.0673 L 14.395,-64.5148 L 14.4777,-64.961 L 14.5682,-65.4057
 L 14.6664,-65.8487 L 14.7723,-66.29 L 14.8859,-66.7293 L 15.0072,-67.1666 L 15.1361,-67.6017 L 15.2725,-68.0344
 L 15.4165,-68.4648 L 15.568,-68.8925 L 15.7269,-69.3176 L 15.8932,-69.7398 L 16.0669,-70.159 L 16.2478,-70.5751
 L 16.436,-70.9881 L 16.6314,-71.3976 L 16.8338,-71.8037 L 17.0434,-72.2063 L 17.2599,-72.605 L 17.4834,-73
 L 17.7137,-73.391 L 17.9508,-73.7779 L 18.1946,-74.1606 L 18.445,-74.539 L 18.7021,-74.913 L 18.9656,-75.2824
 L 19.2355,-75.6472 L 19.5117,-76.0072 L 19.7942,-76.3623 L 20.0829,-76.7125 L 20.3776,-77.0575 L 20.6782,-77.3974
 L 20.9848,-77.7319 L 21.2972,-78.0611 L 21.6152,-78.3848 L 21.9389,-78.7028 L 22.2681,-79.0152 L 22.6026,-79.3218
 L 22.9425,-79.6224 L 23.2875,-79.9171 L 23.6377,-80.2058 L 23.9928,-80.4883 L 24.3528,-80.7645 L 24.7176,-81.0344
 L 25.087,-81.2979 L 25.461,-81.555 L 25.8394,-81.8054 L 26.2221,-82.0492 L 26.609,-82.2863 L 27,-82.5166
 L 27.395,-82.7401 L 27.7937,-82.9566 L 28.1963,-83.1662 L 28.6024,-83.3686 L 29.0119,-83.564 L 29.4249,-83.7522
 L 29.841,-83.9331 L 30.2602,-84.1068 L 30.6824,-84.2731 L 31.1075,-84.432 L 31.5352,-84.5835 L 31.9656,-84.7275
 L 32.3983,-84.8639 L 32.8334,-84.9928 L 33.2707,-85.1141 L 33.71,-85.2277 L 34.1513,-85.3336 L 34.5943,-85.4318
 L 35.039,-85.5223 L 35.4852,-85.605 L 35.9327,-85.6799 L 36.3815,-85.747 L 36.8314,-85.8062 L 37.2823,-85.8576
 L 37.734,-85.9011 L 38.1863,-85.9367 L 38.6393,-85.9644 L 39.0926,-85.9842 L 39.5462,-85.996 L 40,-86
 L 40.4538,-85.996 L 40.9074,-85.9842 L 41.3607,-85.9644 L 41.8137,-85.9367 L 42.266,-85.9011 L 42.7177,-85.8576
 L 43.1686,-85.8062 L 43.6185,-85.747 L 44.0673,-85.6799 L 44.5148,-85.605 L 44.961,-85.5223 L 45.4057,-85.4318
 L 45.8487,-85.3336 L 46.29,-85.2277 L 46.7293,-85.1141 L 47.1666,-84.9928 L 47.6017,-84.8639 L 48.0344,-84.7275
 L 48.4648,-84.5835 L 48.8925,-84.432 L 49.3176,-84.2731 L 49.7398,-84.1068 L 50.159,-83.9331 L 50.5751,-83.7522
 L 50.9881,-83.564 L 51.3976,-83.3686 L 51.8037,-83.1662 L 52.2063,-82.9566 L 52.605,-82.7401 L 53,-82.5166
 L 53.391,-82.2863 L 53.7779,-82.0492 L 54.1606,-81.8054 L 54.539,-81.555 L 54.913,-81.2979 L 55.2824,-81.0344
 L 55.6472,-80.7645 L 56.0072,-80.4883 L 56.3623,-80.2058 L 56.7125,-79.9171 L 57.0575,-79.6224 L 57.3974,-79.3218
 L 57.7319,-79.0152 L 58.0611,-78.7028 L 58.3848,-78.3848 L 58.7028,-78.0611 L 59.0152,-77.7319 L 59.3218,-77.3974
 L 59.6224,-77.0575 L 59.9171,-76.7125 L 60.2058,-76.3623 L 60.4883,-76.0072 L 60.7645,-75.6472 L 61.0344,-75.2824
 L 61.2979,-74.913 L 61.555,-74.539 L 61.8054,-74.1606 L 62.0492,-73.7779 L 62.2863,-73.391 L 62.5166,-73
 L 62.7401,-72.605 L 62.9566,-72.2063 L 63.1662,-71.8037 L 63.3686,-71.3976 L 63.564,-70.9881 L 63.7522,-70.5751
 L 63.9331,-70.159 L 64.1068,-69.7398 L 64.2731,-69.3176 L 64.432,-68.8925 L 64.5835,-68.4648 L 64.7275,-68.0344
 L 64.8639,-67.6017 L 64.9928,-67.1666 L 65.1141,-66.7293 L 65.2277,-66.29 L 65.3336,-65.8487 L 65.4318,-65.4057
 L 65.5223,-64.961 L 65.605,-64.5148 L 65.6799,-64.0673 L 65.747,-63.6185 L 65.8062,-63.1686 L 65.8576,-62.7177
 L 65.9011,-62.266 L 65.9367,-61.8137 L 65.9644,-61.3607 L 65.9842,-60.9074 L 65.996,-60.4538 L 66,-60
 L 65.996,-59.5462 L 65.9842,-59.0926 L 65.9644,-58.6393 L 65.9367,-58.1863 L 65.9011,-57.734 L 65.8576,-57.2823
 L 65.8062,-56.8314 L 65.747,-56.3815 L 65.6799,-55.9327 L 65.605,-55.4852 L 65.5223,-55.039 L 65.4318,-54.5943
 L 65.3336,-54.1513 L 65.2277,-53.71 L 65.1141,-53.2707 L 64.9928,-52.8334 L 64.8639,-52.3983 L 64.7275,-51.9656
 L 64.5835,-51.5352 L 64.432,-51.1075 L 64.2731,-50.6824 L 64.1068,-50.2602 L 63.9331,-49.841 L 63.7522,-49.4249
 L 63.564,-49.0119 L 63.3686,-48.6024 L 63.1662,-48.1963 L 62.9566,-47.7937 L 62.7401,-47.395 L 62.5166,-47
 L 62.2863,-46.609 L 62.0492,-46.2221 L 61.8054,-45.8394 L 61.555,-45.461 L 61.2979,-45.087 L 61.0344,-44.7176
 L 60.7645,-44.3528 L 60.4883,-43.9928 L 60.2058,-43.6377 L 59.9171,-43.2875 L 59.6224,-42.9425 L 59.3218,-42.6026
 L 59.0152,-42.2681 L 58.7028,-41.9389 L 58.3848,-41.6152 L 58.0611,-41.2972 L 57.7319,-40.9848 L 57.3974,-40.6782
 L 57.0575,-40.3776 L 56.7125,-40.0829 L 56.3623,-39.7942 L 56.0072,-39.5117 L 55.6472,-39.2355 L 55.2824,-38.9656
 L 54.913,-38.7021 L 54.539,-38.445 L 54.1606,-38.1946 L 53.7779,-37.9508 L 53.391,-37.7137 L 53,-37.4834
 L 52.605,-37.2599 L 52.2063,-37.0434 L 51.8037,-36.8338 L 51.3976,-36.6314 L 50.9881,-36.436 L 50.5751,-36.2478
 L 50.159,-36.0669 L 49.7398,-35.8932 L 49.3176,-35.7269 L 48.8925,-35.568 L 48.4648,-35.4165 L 48.0344,-35.2725
 L 47.6017,-35.1361 L 47.1666,-35.0072 L 46.7293,-34.8859 L 46.29,-34.7723 L 45.8487,-34.6664 L 45.4057,-34.5682
 L 44.961,-34.4777 L 44.5148,-34.395 L 44.0673,-34.3201 L 43.6185,-34.253 L 43.1686,-34.1938 L 42.7177,-34.1424
 L 42.266,-34.0989 L 41.8137,-34.0633 L 41.3607,-34.0356 L 40.9074,-34.0158 L 40.4538,-34.004 L 40,-34
 z
M 57.5,-62 L 22.5,-62 L 22.5,-58 L 57.5,-58 z
" stroke="black" fill="black" stroke-width="0.5"/>
</svg>
