<?xml version="1.0" standalone="no"?>
<!DOCTYPE svg PUBLIC "-//W3C//DTD SVG 1.1//EN" "http://www.w3.org/Graphics/SVG/1.1/DTD/svg11.dtd">
<svg width="100mm" height="100mm" viewBox="-8 -108 116 116" xmlns="http://www.w3.org/2000/svg" version="1.1">
<title>OpenSCAD Model</title>
<path d="
M 50.1495,-58.0056 L 50.3473,-58.0304 L 50.5417,-58.0747 L 50.7307,-58.1382 L 50.9124,-58.2202 L 51.0851,-58.3199
 L 51.247,-58.4363 L 51.3965,-58.5683 L 51.5321,-58.7144 L 51.6525,-58.8734 L 51.7564,-59.0435 L 51.8429,-59.2231
 L 51.9111,-59.4105 L 51.9603,-59.6037 L 51.9901,-59.8009 L 52,-60 L 52,-67 L 58,-67
 L 58.1951,-67.0192 L 58.3827,-67.0761 L 58.5556,-67.1685 L 58.7071,-67.2929 L 58.8315,-67.4444 L 58.9239,-67.6173
 L 58.9808,-67.8049 L 59,-68 L 58.9808,-68.1951 L 58.9239,-68.3827 L 58.8315,-68.5556 L 58.7071,-68.7071
 L 58.5556,-68.8315 L 58.3827,-68.9239 L 58.1951,-68.9808 L 58,-69 L 52,-69 L 52,-77
 L 58,-77 L 58.1951,-77.0192 L 58.3827,-77.0761 L 58.5556,-77.1685 L 58.7071,-77.2929 L 58.8315,-77.4444
 L 58.9239,-77.6173 L 58.9808,-77.8049 L 59,-78 L 58.9808,-78.1951 L 58.9239,-78.3827 L 58.8315,-78.5556
 L 58.7071,-78.7071 L 58.5556,-78.8315 L 58.3827,-78.9239 L 58.1951,-78.9808 L 58,-79 L 52,-79
 L 52,-87 L 58,-87 L 58.1951,-87.0192 L 58.3827,-87.0761 L 58.5556,-87.1685 L 58.7071,-87.2929
 L 58.8315,-87.4444 L 58.9239,-87.6173 L 58.9808,-87.8049 L 59,-88 L 58.9808,-88.1951 L 58.9239,-88.3827
 L 58.8315,-88.5556 L 58.7071,-88.7071 L 58.5556,-88.8315 L 58.3827,-88.9239 L 58.1951,-88.9808 L 58,-89
 L 52,-89 L 52,-90 L 51.9901,-90.1991 L 51.9603,-90.3963 L 51.9111,-90.5895 L 51.8429,-90.7769
 L 51.7564,-90.9565 L 51.6525,-91.1266 L 51.5321,-91.2856 L 51.3965,-91.4317 L 51.247,-91.5637 L 51.0851,-91.68
 L 50.9124,-91.7797 L 50.7307,-91.8617 L 50.5417,-91.9252 L 50.3473,-91.9696 L 50.1495,-91.9944 L 49.9501,-91.9994
 L 49.7513,-91.9845 L 49.555,-91.9498 L 49.363,-91.8958 L 49.1774,-91.823 L 49,-91.732 L 48.8325,-91.6239
 L 48.6766,-91.4996 L 48.5339,-91.3603 L 48.4057,-91.2076 L 48.2934,-91.0429 L 48.1981,-90.8678 L 48.1206,-90.684
 L 48.0619,-90.4935 L 48.0223,-90.2981 L 48.0025,-90.0997 L 48.0025,-59.9003 L 48.0223,-59.7019 L 48.0619,-59.5065
 L 48.1206,-59.3159 L 48.1981,-59.1322 L 48.2934,-58.9571 L 48.4057,-58.7924 L 48.5339,-58.6396 L 48.6766,-58.5004
 L 48.8325,-58.3761 L 49,-58.2679 L 49.1774,-58.177 L 49.363,-58.1041 L 49.555,-58.0501 L 49.7513,-58.0155
 L 49.9501,-58.0006 z
M 90.1495,-48.0056 L 90.3473,-48.0304 L 90.5417,-48.0748 L 90.7307,-48.1383 L 90.9124,-48.2203 L 91.0851,-48.32
 L 91.247,-48.4363 L 91.3965,-48.5683 L 91.5321,-48.7144 L 91.6525,-48.8734 L 91.7564,-49.0435 L 91.8429,-49.2231
 L 91.9111,-49.4105 L 91.9603,-49.6037 L 91.9901,-49.8009 L 92,-50 L 91.9901,-50.1991 L 91.9603,-50.3963
 L 91.9111,-50.5895 L 91.8429,-50.7769 L 91.7564,-50.9565 L 91.6525,-51.1266 L 91.5321,-51.2856 L 91.3965,-51.4317
 L 91.247,-51.5637 L 91.0851,-51.68 L 90.9124,-51.7797 L 90.7307,-51.8617 L 90.5417,-51.9252 L 90.3473,-51.9696
 L 90.1495,-51.9944 L 89.9501,-51.9994 L 89,-51.9994 L 89,-58 L 88.9808,-58.1951 L 88.9239,-58.3827
 L 88.8315,-58.5556 L 88.7071,-58.7071 L 88.5556,-58.8315 L 88.3827,-58.9239 L 88.1951,-58.9808 L 88,-59
 L 87.8049,-58.9808 L 87.6173,-58.9239 L 87.4444,-58.8315 L 87.2929,-58.7071 L 87.1685,-58.5556 L 87.0761,-58.3827
 L 87.0192,-58.1951 L 87,-58 L 87,-51.9994 L 79,-51.9994 L 79,-58 L 78.9808,-58.1951
 L 78.9239,-58.3827 L 78.8315,-58.5556 L 78.7071,-58.7071 L 78.5556,-58.8315 L 78.3827,-58.9239 L 78.1951,-58.9808
 L 78,-59 L 77.8049,-58.9808 L 77.6173,-58.9239 L 77.4444,-58.8315 L 77.2929,-58.7071 L 77.1685,-58.5556
 L 77.0761,-58.3827 L 77.0192,-58.1951 L 77,-58 L 77,-51.9994 L 69,-51.9994 L 69,-58
 L 68.9808,-58.1951 L 68.9239,-58.3827 L 68.8315,-58.5556 L 68.7071,-58.7071 L 68.5556,-58.8315 L 68.3827,-58.9239
 L 68.1951,-58.9808 L 68,-59 L 67.8049,-58.9808 L 67.6173,-58.9239 L 67.4444,-58.8315 L 67.2929,-58.7071
 L 67.1685,-58.5556 L 67.0761,-58.3827 L 67.0192,-58.1951 L 67,-58 L 67,-51.9994 L 59.9501,-51.9994
 L 59.7513,-51.9845 L 59.5549,-51.9498 L 59.363,-51.8958 L 59.1774,-51.823 L 59,-51.732 L 58.8325,-51.6239
 L 58.6766,-51.4996 L 58.5339,-51.3603 L 58.4057,-51.2076 L 58.2934,-51.0429 L 58.1981,-50.8678 L 58.1206,-50.684
 L 58.0618,-50.4935 L 58.0223,-50.2981 L 58.0025,-50.0997 L 58.0025,-49.9003 L 58.0223,-49.7019 L 58.0618,-49.5065
 L 58.1206,-49.316 L 58.1981,-49.1322 L 58.2934,-48.9571 L 58.4057,-48.7924 L 58.5339,-48.6397 L 58.6766,-48.5004
 L 58.8325,-48.3761 L 59,-48.268 L 59.1774,-48.177 L 59.363,-48.1042 L 59.5549,-48.0502 L 59.7513,-48.0155
 L 59.9501,-48.0006 L 89.9501,-48.0006 z
M 50.2989,-46.0112 L 50.4974,-46.0311 L 50.6946,-46.0608 L 50.8901,-46.1003 L 51.0834,-46.1495 L 51.2739,-46.2083
 L 51.4613,-46.2765 L 51.6451,-46.354 L 51.8248,-46.4405 L 52,-46.5359 L 52.1702,-46.6399 L 52.335,-46.7523
 L 52.494,-46.8727 L 52.6467,-47.0009 L 52.7929,-47.1365 L 52.9322,-47.2793 L 53.0642,-47.4289 L 53.1885,-47.5848
 L 53.3049,-47.7467 L 53.4132,-47.9143 L 53.5129,-48.087 L 53.6039,-48.2645 L 53.6859,-48.4463 L 53.7588,-48.6319
 L 53.8223,-48.821 L 53.8763,-49.013 L 53.9207,-49.2074 L 53.9553,-49.4038 L 53.9801,-49.6017 L 53.995,-49.8006
 L 54,-50 L 53.995,-50.1994 L 53.9801,-50.3983 L 53.9553,-50.5962 L 53.9207,-50.7926 L 53.8763,-50.987
 L 53.8223,-51.179 L 53.7588,-51.3681 L 53.6859,-51.5537 L 53.6039,-51.7355 L 53.5129,-51.913 L 53.4132,-52.0857
 L 53.3049,-52.2533 L 53.1885,-52.4152 L 53.0642,-52.5711 L 52.9322,-52.7207 L 52.7929,-52.8635 L 52.6467,-52.9991
 L 52.494,-53.1273 L 52.335,-53.2477 L 52.1702,-53.3601 L 52,-53.4641 L 51.8248,-53.5595 L 51.6451,-53.646
 L 51.4613,-53.7235 L 51.2739,-53.7917 L 51.0834,-53.8505 L 50.8901,-53.8997 L 50.6946,-53.9392 L 50.4974,-53.9689
 L 50.2989,-53.9888 L 50.0997,-53.9987 L 49.9003,-53.9987 L 49.7011,-53.9888 L 49.5026,-53.9689 L 49.3054,-53.9392
 L 49.1099,-53.8997 L 48.9166,-53.8505 L 48.7261,-53.7917 L 48.5387,-53.7235 L 48.3549,-53.646 L 48.1752,-53.5595
 L 48,-53.4641 L 47.8298,-53.3601 L 47.665,-53.2477 L 47.506,-53.1273 L 47.3533,-52.9991 L 47.2071,-52.8635
 L 47.0678,-52.7207 L 46.9358,-52.5711 L 46.8115,-52.4152 L 46.6951,-52.2533 L 46.5868,-52.0857 L 46.4871,-51.913
 L 46.3961,-51.7355 L 46.3141,-51.5537 L 46.2412,-51.3681 L 46.1777,-51.179 L 46.1237,-50.987 L 46.0793,-50.7926
 L 46.0447,-50.5962 L 46.0199,-50.3983 L 46.005,-50.1994 L 46,-50 L 46.005,-49.8006 L 46.0199,-49.6017
 L 46.0447,-49.4038 L 46.0793,-49.2074 L 46.1237,-49.013 L 46.1777,-48.821 L 46.2412,-48.6319 L 46.3141,-48.4463
 L 46.3961,-48.2645 L 46.4871,-48.087 L 46.5868,-47.9143 L 46.6951,-47.7467 L 46.8115,-47.5848 L 46.9358,-47.4289
 L 47.0678,-47.2793 L 47.2071,-47.1365 L 47.3533,-47.0009 L 47.506,-46.8727 L 47.665,-46.7523 L 47.8298,-46.6399
 L 48,-46.5359 L 48.1752,-46.4405 L 48.3549,-46.354 L 48.5387,-46.2765 L 48.7261,-46.2083 L 48.9166,-46.1495
 L 49.1099,-46.1003 L 49.3054,-46.0608 L 49.5026,-46.0311 L 49.7011,-46.0112 L 49.9003,-46.0013 L 50.0997,-46.0013
 z
M 43.0766,-41.3358 L 43.2712,-41.366 L 43.4607,-41.4199 L 43.6421,-41.4967 L 43.8127,-41.5952 L 43.9699,-41.7139
 L 44.1114,-41.851 L 44.2348,-42.0045 L 44.3386,-42.172 L 44.4209,-42.351 L 44.4806,-42.5387 L 44.5168,-42.7323
 L 44.5289,-42.9289 L 44.5168,-43.1256 L 44.4806,-43.3192 L 44.4209,-43.5069 L 44.3386,-43.6859 L 44.2348,-43.8534
 L 44.1114,-44.0069 L 43.9699,-44.144 L 43.8127,-44.2627 L 43.6421,-44.3612 L 43.4607,-44.438 L 43.2712,-44.4919
 L 43.0766,-44.5221 L 42.8797,-44.5282 L 42.6835,-44.51 L 42.4911,-44.4679 L 42.3053,-44.4024 L 42.1289,-44.3146
 L 41.9647,-44.2058 L 41.8151,-44.0776 L 41.6824,-43.932 L 41.5686,-43.7712 L 41.4754,-43.5977 L 41.4042,-43.414
 L 41.3562,-43.2229 L 41.332,-43.0274 L 41.332,-42.8304 L 41.3562,-42.6349 L 41.4042,-42.4439 L 41.4754,-42.2602
 L 41.5686,-42.0867 L 41.6824,-41.9259 L 41.8151,-41.7803 L 41.9647,-41.6521 L 42.1289,-41.5433 L 42.3053,-41.4555
 L 42.4911,-41.39 L 42.6835,-41.3479 L 42.8797,-41.3297 z
M 37.0157,-35.2749 L 37.2103,-35.3051 L 37.3998,-35.359 L 37.5812,-35.4358 L 37.7518,-35.5343 L 37.909,-35.653
 L 38.0504,-35.7901 L 38.1739,-35.9436 L 38.2776,-36.1111 L 38.36,-36.29 L 38.4197,-36.4778 L 38.4559,-36.6714
 L 38.468,-36.868 L 38.4559,-37.0647 L 38.4197,-37.2583 L 38.36,-37.446 L 38.2776,-37.625 L 38.1739,-37.7925
 L 38.0504,-37.9459 L 37.909,-38.0831 L 37.7713,-38.187 L 32.3223,-43.636 L 32.1708,-43.7604 L 31.9979,-43.8528
 L 31.8103,-43.9097 L 31.6152,-43.9289 L 31.4202,-43.9097 L 31.2326,-43.8528 L 31.0597,-43.7604 L 30.9081,-43.636
 L 30.7838,-43.4845 L 30.6914,-43.3116 L 30.6345,-43.124 L 30.6152,-42.9289 L 30.6345,-42.7338 L 30.6914,-42.5462
 L 30.7838,-42.3734 L 30.9081,-42.2218 L 35.4769,-37.653 L 35.4145,-37.5368 L 35.3433,-37.3531 L 35.2953,-37.162
 L 35.2711,-36.9665 L 35.2711,-36.7695 L 35.2953,-36.574 L 35.3433,-36.383 L 35.4145,-36.1993 L 35.5077,-36.0257
 L 35.6215,-35.8649 L 35.7542,-35.7194 L 35.9038,-35.5912 L 36.068,-35.4824 L 36.2444,-35.3946 L 36.4302,-35.3291
 L 36.6226,-35.287 L 36.8188,-35.2688 z
M 40.0461,-38.3053 L 40.2408,-38.3355 L 40.4303,-38.3894 L 40.6117,-38.4662 L 40.7823,-38.5647 L 40.9395,-38.6834
 L 41.0809,-38.8206 L 41.2044,-38.974 L 41.3081,-39.1415 L 41.3904,-39.3205 L 41.4502,-39.5082 L 41.4864,-39.7019
 L 41.4985,-39.8985 L 41.4864,-40.0951 L 41.4502,-40.2887 L 41.3904,-40.4765 L 41.3081,-40.6554 L 41.2044,-40.8229
 L 41.0809,-40.9764 L 40.9395,-41.1135 L 40.7823,-41.2322 L 40.6117,-41.3307 L 40.4303,-41.4075 L 40.2408,-41.4614
 L 40.0461,-41.4917 L 39.8492,-41.4977 L 39.6531,-41.4796 L 39.4606,-41.4374 L 39.2748,-41.3719 L 39.0985,-41.2841
 L 38.9343,-41.1753 L 38.7847,-41.0471 L 38.6519,-40.9016 L 38.5381,-40.7408 L 38.4449,-40.5672 L 38.3738,-40.3835
 L 38.3257,-40.1925 L 38.3015,-39.997 L 38.3015,-39.8 L 38.3257,-39.6045 L 38.3738,-39.4134 L 38.4449,-39.2298
 L 38.5381,-39.0562 L 38.6519,-38.8954 L 38.7847,-38.7498 L 38.9343,-38.6217 L 39.0985,-38.5128 L 39.2748,-38.425
 L 39.4606,-38.3596 L 39.6531,-38.3174 L 39.8492,-38.2992 z
M 85.4846,-9.595 L 85.6985,-9.6004 L 85.91,-9.60939 L 86.1191,-9.62198 L 86.3257,-9.63815 L 86.5299,-9.65793
 L 86.7317,-9.6813 L 86.931,-9.70827 L 87.128,-9.73883 L 87.3224,-9.77299 L 87.5145,-9.81075 L 87.7041,-9.8521
 L 87.8913,-9.89705 L 88.076,-9.94559 L 88.2583,-9.99773 L 88.4382,-10.0535 L 88.6156,-10.1128 L 88.7907,-10.1757
 L 88.9633,-10.2422 L 89.1334,-10.3123 L 89.3011,-10.386 L 89.4664,-10.4634 L 89.6293,-10.5443 L 89.7897,-10.6288
 L 89.9477,-10.7169 L 90.1033,-10.8085 L 90.2564,-10.9038 L 90.4071,-11.0027 L 90.5553,-11.1052 L 90.7012,-11.2113
 L 90.8446,-11.321 L 90.9855,-11.4342 L 91.1241,-11.5511 L 91.2602,-11.6715 L 91.3939,-11.7956 L 91.5251,-11.9232
 L 91.6539,-12.0545 L 91.7803,-12.1893 L 91.9042,-12.3278 L 92.0257,-12.4698 L 92.1448,-12.6154 L 92.2615,-12.7646
 L 92.3757,-12.9175 L 92.4875,-13.0739 L 92.5968,-13.2339 L 92.7037,-13.3975 L 92.8083,-13.5647 L 92.9106,-13.7357
 L 93.0105,-13.9103 L 93.1082,-14.0886 L 93.2035,-14.2707 L 93.2966,-14.4564 L 93.3874,-14.6458 L 93.4758,-14.8389
 L 93.562,-15.0357 L 93.6459,-15.2361 L 93.7275,-15.4403 L 93.8067,-15.6482 L 93.8837,-15.8597 L 93.9584,-16.075
 L 94.0308,-16.2939 L 94.1009,-16.5165 L 94.1687,-16.7428 L 94.2341,-16.9729 L 94.2973,-17.2066 L 94.3582,-17.444
 L 94.4168,-17.685 L 94.4731,-17.9298 L 94.5271,-18.1783 L 94.5788,-18.4305 L 94.6283,-18.6863 L 94.6754,-18.9459
 L 94.7202,-19.2091 L 94.7627,-19.476 L 94.8029,-19.7466 L 94.8408,-20.021 L 94.8764,-20.299 L 94.9097,-20.5807
 L 94.9408,-20.8661 L 94.9695,-21.1551 L 94.9959,-21.4479 L 95.02,-21.7444 L 95.0419,-22.0445 L 95.0614,-22.3484
 L 95.0786,-22.6559 L 95.0936,-22.9672 L 95.1062,-23.2821 L 95.1165,-23.6007 L 95.1246,-23.923 L 95.1303,-24.249
 L 95.1338,-24.5787 L 95.1349,-24.9121 L 95.1337,-25.2342 L 95.1302,-25.5529 L 95.1243,-25.8683 L 95.1159,-26.1804
 L 95.1053,-26.4891 L 95.0922,-26.7946 L 95.0768,-27.0967 L 95.0589,-27.3955 L 95.0388,-27.6909 L 95.0162,-27.983
 L 94.9913,-28.2718 L 94.964,-28.5573 L 94.9343,-28.8394 L 94.9022,-29.1183 L 94.8678,-29.3938 L 94.831,-29.6659
 L 94.7918,-29.9348 L 94.7502,-30.2003 L 94.7063,-30.4625 L 94.66,-30.7213 L 94.6113,-30.9769 L 94.5602,-31.2291
 L 94.5068,-31.478 L 94.451,-31.7235 L 94.3928,-31.9658 L 94.3323,-32.2047 L 94.2693,-32.4402 L 94.204,-32.6725
 L 94.1364,-32.9014 L 94.0663,-33.127 L 93.9939,-33.3493 L 93.9191,-33.5682 L 93.8419,-33.7838 L 93.7623,-33.9961
 L 93.6804,-34.2051 L 93.5961,-34.4107 L 93.5094,-34.6131 L 93.4203,-34.812 L 93.3289,-35.0077 L 93.2351,-35.2
 L 93.1389,-35.3891 L 93.0404,-35.5747 L 92.9395,-35.7571 L 92.8362,-35.9361 L 92.7305,-36.1118 L 92.6224,-36.2842
 L 92.5121,-36.453 L 92.3996,-36.6182 L 92.2848,-36.7796 L 92.1679,-36.9374 L 92.0487,-37.0914 L 91.9274,-37.2417
 L 91.8038,-37.3883 L 91.6781,-37.5311 L 91.5501,-37.6703 L 91.42,-37.8058 L 91.2876,-37.9375 L 91.1531,-38.0656
 L 91.0163,-38.1899 L 90.8773,-38.3105 L 90.7362,-38.4274 L 90.5928,-38.5406 L 90.4473,-38.6501 L 90.2995,-38.7558
 L 90.1495,-38.8579 L 89.9974,-38.9562 L 89.843,-39.0509 L 89.6864,-39.1418 L 89.5276,-39.229 L 89.3667,-39.3125
 L 89.2035,-39.3923 L 89.0381,-39.4684 L 88.8705,-39.5407 L 88.7008,-39.6094 L 88.5288,-39.6743 L 88.3546,-39.7356
 L 88.1782,-39.7931 L 87.9996,-39.8469 L 87.8188,-39.897 L 87.6358,-39.9434 L 87.4507,-39.9861 L 87.2633,-40.025
 L 87.0737,-40.0603 L 86.8819,-40.0918 L 86.6879,-40.1197 L 86.4917,-40.1438 L 86.2933,-40.1642 L 86.0927,-40.1809
 L 85.8899,-40.1939 L 85.6849,-40.2032 L 85.4777,-40.2087 L 85.2682,-40.2106 L 85.0536,-40.2088 L 84.8414,-40.2035
 L 84.6316,-40.1946 L 84.4242,-40.1821 L 84.2191,-40.1661 L 84.0165,-40.1466 L 83.8163,-40.1234 L 83.6185,-40.0968
 L 83.4231,-40.0665 L 83.2301,-40.0327 L 83.0395,-39.9954 L 82.8513,-39.9545 L 82.6656,-39.91 L 82.4822,-39.862
 L 82.3012,-39.8104 L 82.1226,-39.7552 L 81.9465,-39.6965 L 81.7727,-39.6343 L 81.6013,-39.5685 L 81.4324,-39.4991
 L 81.2658,-39.4262 L 81.1017,-39.3497 L 80.9399,-39.2696 L 80.7806,-39.186 L 80.6236,-39.0989 L 80.4691,-39.0082
 L 80.317,-38.9139 L 80.1673,-38.8161 L 80.0199,-38.7147 L 79.875,-38.6097 L 79.7325,-38.5012 L 79.5924,-38.3892
 L 79.4547,-38.2735 L 79.3194,-38.1544 L 79.1864,-38.0316 L 79.0559,-37.9053 L 78.9278,-37.7755 L 78.8022,-37.6421
 L 78.6789,-37.5051 L 78.558,-37.3646 L 78.4395,-37.2205 L 78.3234,-37.0729 L 78.2097,-36.9217 L 78.0985,-36.767
 L 77.9896,-36.6087 L 77.8831,-36.4468 L 77.7791,-36.2813 L 77.6772,-36.112 L 77.5777,-35.9389 L 77.4805,-35.762
 L 77.3855,-35.5813 L 77.2928,-35.3968 L 77.2025,-35.2086 L 77.1144,-35.0165 L 77.0286,-34.8207 L 76.9451,-34.6211
 L 76.8638,-34.4177 L 76.7849,-34.2105 L 76.7083,-33.9995 L 76.6339,-33.7847 L 76.5618,-33.5662 L 76.4921,-33.3438
 L 76.4246,-33.1177 L 76.3593,-32.8878 L 76.2964,-32.6541 L 76.2358,-32.4166 L 76.1774,-32.1753 L 76.1214,-31.9302
 L 76.0676,-31.6814 L 76.0161,-31.4287 L 75.9669,-31.1723 L 75.92,-30.9121 L 75.8754,-30.648 L 75.8331,-30.3802
 L 75.7931,-30.1087 L 75.7553,-29.8333 L 75.7198,-29.5541 L 75.6867,-29.2712 L 75.6558,-28.9844 L 75.6272,-28.6939
 L 75.6009,-28.3996 L 75.5769,-28.1015 L 75.5551,-27.7996 L 75.5357,-27.4939 L 75.5185,-27.1844 L 75.5036,-26.8712
 L 75.4911,-26.5541 L 75.4808,-26.2333 L 75.4727,-25.9087 L 75.467,-25.5803 L 75.4636,-25.2481 L 75.4624,-24.9121
 L 75.4636,-24.5865 L 75.4672,-24.2644 L 75.4731,-23.9457 L 75.4814,-23.6305 L 75.492,-23.3186 L 75.505,-23.0102
 L 75.5204,-22.7053 L 75.5381,-22.4037 L 75.5582,-22.1056 L 75.5807,-21.811 L 75.6055,-21.5197 L 75.6327,-21.2319
 L 75.6623,-20.9476 L 75.6942,-20.6666 L 75.7285,-20.3891 L 75.7652,-20.1151 L 75.8042,-19.8444 L 75.8456,-19.5772
 L 75.8894,-19.3134 L 75.9355,-19.0531 L 75.984,-18.7962 L 76.0348,-18.5427 L 76.088,-18.2927 L 76.1436,-18.0461
 L 76.2016,-17.8029 L 76.2619,-17.5631 L 76.3245,-17.3268 L 76.3896,-17.0939 L 76.457,-16.8645 L 76.5268,-16.6385
 L 76.5989,-16.4159 L 76.6734,-16.1967 L 76.7503,-15.981 L 76.8295,-15.7687 L 76.9111,-15.5599 L 76.9951,-15.3544
 L 77.0814,-15.1525 L 77.1701,-14.9539 L 77.2611,-14.7588 L 77.3546,-14.5671 L 77.4503,-14.3788 L 77.5485,-14.194
 L 77.649,-14.0126 L 77.7519,-13.8346 L 77.8571,-13.6601 L 77.9648,-13.489 L 78.0746,-13.3215 L 78.1867,-13.1576
 L 78.3009,-12.9974 L 78.4173,-12.8409 L 78.5359,-12.6881 L 78.6566,-12.539 L 78.7796,-12.3935 L 78.9046,-12.2518
 L 79.0319,-12.1137 L 79.1613,-11.9793 L 79.293,-11.8486 L 79.4267,-11.7215 L 79.5627,-11.5982 L 79.7008,-11.4785
 L 79.8411,-11.3625 L 79.9836,-11.2502 L 80.1283,-11.1416 L 80.2751,-11.0366 L 80.4241,-10.9354 L 80.5752,-10.8378
 L 80.7286,-10.7439 L 80.8841,-10.6537 L 81.0418,-10.5671 L 81.2016,-10.4843 L 81.3637,-10.4051 L 81.5279,-10.3296
 L 81.6942,-10.2578 L 81.8628,-10.1897 L 82.0335,-10.1253 L 82.2064,-10.0645 L 82.3815,-10.0074 L 82.5587,-9.95407
 L 82.7381,-9.90436 L 82.9197,-9.85832 L 83.1035,-9.81598 L 83.2894,-9.77731 L 83.4775,-9.74234 L 83.6678,-9.71104
 L 83.8602,-9.68343 L 84.0549,-9.65948 L 84.2517,-9.63924 L 84.4506,-9.62267 L 84.6518,-9.60977 L 84.8551,-9.60057
 L 85.0606,-9.59505 L 85.2682,-9.5932 z
M 85.124,-12.5037 L 84.9815,-12.5079 L 84.8407,-12.5149 L 84.7017,-12.5247 L 84.5643,-12.5373 L 84.4286,-12.5526
 L 84.2947,-12.5708 L 84.1625,-12.5918 L 84.0319,-12.6156 L 83.9031,-12.6422 L 83.776,-12.6715 L 83.6507,-12.7037
 L 83.527,-12.7387 L 83.405,-12.7765 L 83.2848,-12.817 L 83.1662,-12.8604 L 83.0494,-12.9065 L 82.9343,-12.9555
 L 82.8209,-13.0072 L 82.7092,-13.0618 L 82.5992,-13.1192 L 82.4909,-13.1793 L 82.3844,-13.2422 L 82.2795,-13.308
 L 82.1764,-13.3765 L 82.0749,-13.4479 L 81.9752,-13.522 L 81.8772,-13.5989 L 81.7809,-13.6787 L 81.6864,-13.7612
 L 81.5935,-13.8465 L 81.5023,-13.9346 L 81.4129,-14.0256 L 81.3251,-14.1193 L 81.2391,-14.2158 L 81.1548,-14.3151
 L 81.0722,-14.4172 L 80.9913,-14.5221 L 80.9122,-14.6298 L 80.8347,-14.7403 L 80.7589,-14.8536 L 80.6849,-14.9697
 L 80.6126,-15.0886 L 80.5419,-15.2103 L 80.4731,-15.3348 L 80.4059,-15.4621 L 80.3402,-15.5925 L 80.2761,-15.7262
 L 80.2133,-15.8632 L 80.152,-16.0036 L 80.0922,-16.1473 L 80.0338,-16.2943 L 79.9768,-16.4447 L 79.9213,-16.5984
 L 79.8672,-16.7555 L 79.8146,-16.9159 L 79.7634,-17.0796 L 79.7136,-17.2467 L 79.6653,-17.4171 L 79.6184,-17.5909
 L 79.573,-17.7679 L 79.529,-17.9483 L 79.4865,-18.1321 L 79.4454,-18.3192 L 79.4057,-18.5096 L 79.3675,-18.7034
 L 79.3307,-18.9005 L 79.2954,-19.1009 L 79.2615,-19.3046 L 79.229,-19.5117 L 79.198,-19.7222 L 79.1685,-19.936
 L 79.1404,-20.1531 L 79.1137,-20.3735 L 79.0884,-20.5973 L 79.0647,-20.8244 L 79.0423,-21.0549 L 79.0214,-21.2887
 L 79.0019,-21.5258 L 78.9839,-21.7663 L 78.9673,-22.0101 L 78.9522,-22.2572 L 78.9385,-22.5077 L 78.9262,-22.7615
 L 78.9154,-23.0186 L 78.906,-23.2791 L 78.8981,-23.543 L 78.8916,-23.8101 L 78.8865,-24.0806 L 78.8829,-24.3544
 L 78.8808,-24.6316 L 78.8801,-24.9121 L 78.8808,-25.1926 L 78.8829,-25.4697 L 78.8865,-25.7435 L 78.8916,-26.0139
 L 78.8981,-26.2809 L 78.906,-26.5446 L 78.9154,-26.805 L 78.9262,-27.062 L 78.9385,-27.3156 L 78.9522,-27.5659
 L 78.9673,-27.8128 L 78.9839,-28.0564 L 79.0019,-28.2966 L 79.0214,-28.5335 L 79.0423,-28.767 L 79.0647,-28.9971
 L 79.0884,-29.2239 L 79.1137,-29.4474 L 79.1404,-29.6674 L 79.1685,-29.8842 L 79.198,-30.0975 L 79.229,-30.3076
 L 79.2615,-30.5142 L 79.2954,-30.7175 L 79.3307,-30.9175 L 79.3675,-31.1141 L 79.4057,-31.3073 L 79.4454,-31.4972
 L 79.4865,-31.6837 L 79.529,-31.8669 L 79.573,-32.0467 L 79.6184,-32.2232 L 79.6653,-32.3963 L 79.7136,-32.5661
 L 79.7634,-32.7325 L 79.8146,-32.8955 L 79.8672,-33.0552 L 79.9213,-33.2115 L 79.9768,-33.3645 L 80.0338,-33.5141
 L 80.0922,-33.6604 L 80.152,-33.8033 L 80.2133,-33.9429 L 80.2761,-34.0791 L 80.3402,-34.2119 L 80.4059,-34.3414
 L 80.4731,-34.4678 L 80.5419,-34.5915 L 80.6126,-34.7123 L 80.6849,-34.8304 L 80.7589,-34.9457 L 80.8347,-35.0583
 L 80.9122,-35.168 L 80.9913,-35.275 L 81.0722,-35.3792 L 81.1548,-35.4806 L 81.2391,-35.5792 L 81.3251,-35.6751
 L 81.4129,-35.7682 L 81.5023,-35.8585 L 81.5935,-35.946 L 81.6864,-36.0307 L 81.7809,-36.1127 L 81.8772,-36.1919
 L 81.9752,-36.2683 L 82.0749,-36.3419 L 82.1764,-36.4128 L 82.2795,-36.4809 L 82.3844,-36.5462 L 82.4909,-36.6087
 L 82.5992,-36.6684 L 82.7092,-36.7254 L 82.8209,-36.7796 L 82.9343,-36.831 L 83.0494,-36.8796 L 83.1662,-36.9254
 L 83.2848,-36.9685 L 83.405,-37.0088 L 83.527,-37.0463 L 83.6507,-37.081 L 83.776,-37.113 L 83.9031,-37.1422
 L 84.0319,-37.1686 L 84.1625,-37.1922 L 84.2947,-37.213 L 84.4286,-37.2311 L 84.5643,-37.2464 L 84.7017,-37.2589
 L 84.8407,-37.2686 L 84.9815,-37.2755 L 85.124,-37.2797 L 85.2682,-37.2811 L 85.4142,-37.2797 L 85.5584,-37.2755
 L 85.7008,-37.2684 L 85.8414,-37.2586 L 85.9803,-37.2459 L 86.1175,-37.2304 L 86.2529,-37.2121 L 86.3865,-37.1909
 L 86.5184,-37.167 L 86.6485,-37.1402 L 86.7768,-37.1107 L 86.9034,-37.0783 L 87.0282,-37.043 L 87.1513,-37.005
 L 87.2726,-36.9642 L 87.3922,-36.9205 L 87.5099,-36.874 L 87.626,-36.8247 L 87.7402,-36.7726 L 87.8528,-36.7177
 L 87.9635,-36.6599 L 88.0725,-36.5993 L 88.1797,-36.536 L 88.2852,-36.4698 L 88.3889,-36.4007 L 88.4909,-36.3289
 L 88.5911,-36.2543 L 88.6895,-36.1768 L 88.7862,-36.0965 L 88.8811,-36.0134 L 88.9743,-35.9275 L 89.0657,-35.8387
 L 89.1554,-35.7472 L 89.2432,-35.6528 L 89.3294,-35.5556 L 89.4137,-35.4556 L 89.4963,-35.3528 L 89.5772,-35.2471
 L 89.6563,-35.1387 L 89.7336,-35.0274 L 89.8092,-34.9133 L 89.883,-34.7964 L 89.955,-34.6767 L 90.0253,-34.5541
 L 90.0939,-34.4288 L 90.1606,-34.3006 L 90.2258,-34.1694 L 90.2896,-34.035 L 90.3519,-33.8973 L 90.4128,-33.7564
 L 90.4722,-33.6122 L 90.5302,-33.4648 L 90.5868,-33.3142 L 90.642,-33.1603 L 90.6957,-33.0032 L 90.748,-32.8428
 L 90.7988,-32.6792 L 90.8483,-32.5124 L 90.8962,-32.3423 L 90.9428,-32.169 L 90.9879,-31.9925 L 91.0316,-31.8127
 L 91.0739,-31.6296 L 91.1147,-31.4434 L 91.1541,-31.2538 L 91.1921,-31.0611 L 91.2286,-30.8651 L 91.2637,-30.6658
 L 91.2973,-30.4634 L 91.3296,-30.2576 L 91.3604,-30.0487 L 91.3898,-29.8365 L 91.4177,-29.621 L 91.4442,-29.4024
 L 91.4693,-29.1805 L 91.4929,-28.9553 L 91.5151,-28.7269 L 91.5359,-28.4953 L 91.5552,-28.2604 L 91.5731,-28.0223
 L 91.5896,-27.7809 L 91.6046,-27.5363 L 91.6182,-27.2885 L 91.6304,-27.0374 L 91.6412,-26.7831 L 91.6505,-26.5255
 L 91.6583,-26.2647 L 91.6648,-26.0007 L 91.6698,-25.7334 L 91.6734,-25.4629 L 91.6755,-25.1891 L 91.6763,-24.9121
 L 91.6755,-24.6351 L 91.6734,-24.3613 L 91.6698,-24.0907 L 91.6648,-23.8234 L 91.6583,-23.5592 L 91.6505,-23.2983
 L 91.6412,-23.0406 L 91.6304,-22.7862 L 91.6182,-22.5349 L 91.6046,-22.2869 L 91.5896,-22.0421 L 91.5731,-21.8005
 L 91.5552,-21.5621 L 91.5359,-21.327 L 91.5151,-21.0951 L 91.4929,-20.8664 L 91.4693,-20.6409 L 91.4442,-20.4186
 L 91.4177,-20.1996 L 91.3898,-19.9838 L 91.3604,-19.7712 L 91.3296,-19.5618 L 91.2973,-19.3556 L 91.2637,-19.1527
 L 91.2286,-18.953 L 91.1921,-18.7565 L 91.1541,-18.5632 L 91.1147,-18.3732 L 91.0739,-18.1863 L 91.0316,-18.0027
 L 90.9879,-17.8223 L 90.9428,-17.6451 L 90.8962,-17.4712 L 90.8483,-17.3005 L 90.7988,-17.1329 L 90.748,-16.9687
 L 90.6957,-16.8076 L 90.642,-16.6497 L 90.5868,-16.4951 L 90.5302,-16.3437 L 90.4722,-16.1955 L 90.4128,-16.0506
 L 90.3519,-15.9088 L 90.2896,-15.7703 L 90.2258,-15.635 L 90.1606,-15.5029 L 90.0939,-15.3739 L 90.0253,-15.2477
 L 89.955,-15.1243 L 89.883,-15.0037 L 89.8092,-14.886 L 89.7336,-14.7712 L 89.6563,-14.6591 L 89.5772,-14.55
 L 89.4963,-14.4436 L 89.4137,-14.3401 L 89.3294,-14.2394 L 89.2432,-14.1416 L 89.1554,-14.0466 L 89.0657,-13.9544
 L 88.9743,-13.865 L 88.8811,-13.7785 L 88.7862,-13.6949 L 88.6895,-13.614 L 88.5911,-13.5361 L 88.4909,-13.4609
 L 88.3889,-13.3886 L 88.2852,-13.3191 L 88.1797,-13.2524 L 88.0725,-13.1886 L 87.9635,-13.1277 L 87.8528,-13.0695
 L 87.7402,-13.0142 L 87.626,-12.9617 L 87.5099,-12.9121 L 87.3922,-12.8653 L 87.2726,-12.8214 L 87.1513,-12.7802
 L 87.0282,-12.7419 L 86.9034,-12.7065 L 86.7768,-12.6739 L 86.6485,-12.6441 L 86.5184,-12.6172 L 86.3865,-12.593
 L 86.2529,-12.5718 L 86.1175,-12.5533 L 85.9803,-12.5378 L 85.8414,-12.525 L 85.7008,-12.5151 L 85.5584,-12.508
 L 85.4142,-12.5037 L 85.2682,-12.5023 z
M 69.3205,-39.7426 L 66.4723,-39.7426 L 58.5994,-33.6598 L 60.3895,-31.3405 L 60.7574,-31.639 L 61.111,-31.9261
 L 61.4503,-32.2018 L 61.7753,-32.4659 L 62.0859,-32.7186 L 62.3823,-32.9599 L 62.6643,-33.1896 L 62.9321,-33.408
 L 63.0606,-33.5128 L 63.3069,-33.7139 L 63.4247,-33.8102 L 63.6495,-33.9941 L 63.7565,-34.0818 L 63.86,-34.1666
 L 63.9599,-34.2486 L 64.0562,-34.3276 L 64.149,-34.4038 L 64.2381,-34.4772 L 64.3237,-34.5477 L 64.4057,-34.6153
 L 64.4842,-34.68 L 64.559,-34.7419 L 64.6303,-34.8009 L 64.698,-34.8571 L 64.7621,-34.9104 L 64.8227,-34.9608
 L 64.8797,-35.0083 L 64.9331,-35.053 L 64.9829,-35.0948 L 65.0291,-35.1338 L 65.0718,-35.1699 L 65.1109,-35.2031
 L 65.1464,-35.2335 L 65.1783,-35.261 L 65.2067,-35.2856 L 65.2315,-35.3074 L 65.2773,-35.348 L 65.3227,-35.3885
 L 65.3453,-35.4086 L 65.3901,-35.4489 L 65.4346,-35.489 L 65.4786,-35.5289 L 65.5223,-35.5687 L 65.5656,-35.6083
 L 65.5871,-35.6281 L 65.6298,-35.6674 L 65.6511,-35.6871 L 65.6932,-35.7263 L 65.7141,-35.7458 L 65.7557,-35.7847
 L 65.7764,-35.8041 L 65.8173,-35.8428 L 65.858,-35.8814 L 65.8982,-35.9198 L 65.938,-35.958 L 65.9775,-35.9961
 L 65.9971,-36.0151 L 66.0359,-36.053 L 66.0552,-36.0718 L 66.0935,-36.1095 L 66.1125,-36.1282 L 66.1503,-36.1656
 L 66.169,-36.1843 L 66.1876,-36.2029 L 66.1806,-36.1001 L 66.1737,-35.9971 L 66.167,-35.8938 L 66.1605,-35.7903
 L 66.1541,-35.6865 L 66.1479,-35.5824 L 66.1418,-35.478 L 66.1359,-35.3734 L 66.1301,-35.2685 L 66.1245,-35.1633
 L 66.119,-35.0579 L 66.1137,-34.9522 L 66.1085,-34.8462 L 66.1035,-34.74 L 66.0987,-34.6335 L 66.094,-34.5267
 L 66.0894,-34.4196 L 66.0851,-34.3123 L 66.0808,-34.2047 L 66.0767,-34.0969 L 66.0728,-33.9887 L 66.069,-33.8804
 L 66.0654,-33.7717 L 66.062,-33.6628 L 66.0586,-33.5536 L 66.0555,-33.4441 L 66.0525,-33.3344 L 66.0496,-33.2243
 L 66.047,-33.1141 L 66.0444,-33.0035 L 66.042,-32.8927 L 66.0398,-32.7816 L 66.0377,-32.6703 L 66.0358,-32.5587
 L 66.034,-32.4468 L 66.0324,-32.3346 L 66.0309,-32.2222 L 66.0296,-32.1095 L 66.0285,-31.9966 L 66.0275,-31.8833
 L 66.0266,-31.7698 L 66.0259,-31.6561 L 66.0254,-31.542 L 66.025,-31.4277 L 66.0248,-31.3131 L 66.0247,-31.1983
 L 66.0247,-10 L 69.3205,-10 z
M 30.3961,-29.2202 L 30.4766,-29.2447 L 30.5617,-29.226 L 30.7578,-29.2079 L 30.9547,-29.2139 L 31.1494,-29.2442
 L 31.3389,-29.2981 L 31.5203,-29.3748 L 31.6909,-29.4733 L 31.8481,-29.5921 L 31.9895,-29.7292 L 32.113,-29.8827
 L 32.2167,-30.0502 L 32.2991,-30.2291 L 32.3588,-30.4169 L 32.395,-30.6105 L 32.4071,-30.8071 L 32.395,-31.0037
 L 32.3588,-31.1974 L 32.2991,-31.3851 L 32.2167,-31.5641 L 32.113,-31.7316 L 31.9895,-31.885 L 31.8481,-32.0222
 L 31.6909,-32.1409 L 31.5203,-32.2394 L 31.3389,-32.3162 L 31.1494,-32.3701 L 30.9547,-32.4003 L 30.7578,-32.4064
 L 30.5617,-32.3882 L 30.3692,-32.346 L 30.1835,-32.2806 L 30.0071,-32.1927 L 29.8429,-32.0839 L 29.7833,-32.0329
 L 25.2513,-36.565 L 25.0997,-36.6893 L 24.9269,-36.7818 L 24.7393,-36.8387 L 24.5442,-36.8579 L 24.3491,-36.8387
 L 24.1615,-36.7818 L 23.9886,-36.6893 L 23.8371,-36.565 L 23.7127,-36.4134 L 23.6203,-36.2406 L 23.5634,-36.053
 L 23.5442,-35.8579 L 23.5634,-35.6628 L 23.6203,-35.4752 L 23.7127,-35.3023 L 23.8371,-35.1508 L 29.4939,-29.4939
 L 29.6454,-29.3696 L 29.8183,-29.2771 L 30.0059,-29.2202 L 30.201,-29.201 z
M 33.9852,-32.2444 L 34.1799,-32.2746 L 34.3693,-32.3285 L 34.5508,-32.4053 L 34.7213,-32.5038 L 34.8786,-32.6225
 L 35.02,-32.7597 L 35.1435,-32.9131 L 35.2472,-33.0806 L 35.3295,-33.2596 L 35.3892,-33.4473 L 35.4254,-33.6409
 L 35.4376,-33.8376 L 35.4254,-34.0342 L 35.3892,-34.2278 L 35.3295,-34.4156 L 35.2472,-34.5945 L 35.1435,-34.762
 L 35.02,-34.9155 L 34.8786,-35.0526 L 34.7213,-35.1713 L 34.5508,-35.2698 L 34.3693,-35.3466 L 34.1799,-35.4005
 L 33.9852,-35.4307 L 33.7883,-35.4368 L 33.5921,-35.4186 L 33.3997,-35.3765 L 33.2139,-35.311 L 33.0376,-35.2232
 L 32.8734,-35.1144 L 32.7238,-34.9862 L 32.591,-34.8407 L 32.4772,-34.6799 L 32.384,-34.5063 L 32.3129,-34.3226
 L 32.2648,-34.1316 L 32.2406,-33.9361 L 32.2406,-33.7391 L 32.2648,-33.5436 L 32.3129,-33.3525 L 32.384,-33.1688
 L 32.4772,-32.9953 L 32.591,-32.8345 L 32.7238,-32.6889 L 32.8734,-32.5607 L 33.0376,-32.4519 L 33.2139,-32.3641
 L 33.3997,-32.2986 L 33.5921,-32.2565 L 33.7883,-32.2383 z
M 21.8634,-20.1226 L 22.058,-20.1528 L 22.2475,-20.2067 L 22.4289,-20.2835 L 22.5995,-20.382 L 22.7567,-20.5007
 L 22.8981,-20.6378 L 23.0217,-20.7913 L 23.1254,-20.9588 L 23.2077,-21.1378 L 23.2674,-21.3255 L 23.3036,-21.5191
 L 23.3157,-21.7157 L 23.3036,-21.9124 L 23.2674,-22.106 L 23.2558,-22.1424 L 23.325,-22.1492 L 23.5126,-22.2061
 L 23.6855,-22.2985 L 23.8371,-22.4228 L 23.9614,-22.5744 L 24.0538,-22.7473 L 24.1107,-22.9349 L 24.1299,-23.13
 L 24.1155,-23.2762 L 24.1225,-23.2728 L 24.3083,-23.2073 L 24.5008,-23.1651 L 24.6969,-23.147 L 24.8938,-23.153
 L 25.0885,-23.1832 L 25.278,-23.2372 L 25.4594,-23.3139 L 25.63,-23.4124 L 25.7872,-23.5311 L 25.9286,-23.6683
 L 26.0521,-23.8218 L 26.1558,-23.9892 L 26.2381,-24.1682 L 26.2979,-24.3559 L 26.3341,-24.5496 L 26.3462,-24.7462
 L 26.3341,-24.9428 L 26.2979,-25.1365 L 26.2381,-25.3242 L 26.1558,-25.5031 L 26.0521,-25.6706 L 25.9286,-25.8241
 L 25.7872,-25.9612 L 25.63,-26.08 L 25.4594,-26.1785 L 25.278,-26.2552 L 25.0885,-26.3092 L 24.8938,-26.3394
 L 24.6969,-26.3454 L 24.5008,-26.3273 L 24.3083,-26.2851 L 24.1225,-26.2197 L 23.9462,-26.1318 L 23.782,-26.023
 L 23.6324,-25.8949 L 23.4997,-25.7493 L 23.3858,-25.5885 L 23.2926,-25.4149 L 23.2215,-25.2312 L 23.1734,-25.0402
 L 23.1492,-24.8447 L 23.1492,-24.6477 L 23.1666,-24.5075 L 18.1802,-29.4939 L 18.0287,-29.6183 L 17.8558,-29.7107
 L 17.6682,-29.7676 L 17.4731,-29.7868 L 17.278,-29.7676 L 17.0904,-29.7107 L 16.9175,-29.6183 L 16.766,-29.4939
 L 16.6416,-29.3424 L 16.5492,-29.1695 L 16.4923,-28.9819 L 16.4731,-28.7868 L 16.4923,-28.5917 L 16.5492,-28.4041
 L 16.6416,-28.2312 L 16.766,-28.0797 L 21.5422,-23.3035 L 21.4703,-23.2968 L 21.2779,-23.2547 L 21.0921,-23.1892
 L 20.9157,-23.1014 L 20.7515,-22.9926 L 20.6019,-22.8644 L 20.4692,-22.7188 L 20.3554,-22.558 L 20.2622,-22.3845
 L 20.191,-22.2008 L 20.143,-22.0097 L 20.1188,-21.8142 L 20.1188,-21.6172 L 20.143,-21.4217 L 20.191,-21.2307
 L 20.2622,-21.047 L 20.3554,-20.8734 L 20.4692,-20.7127 L 20.6019,-20.5671 L 20.7515,-20.4389 L 20.9157,-20.3301
 L 21.0921,-20.2423 L 21.2779,-20.1768 L 21.4703,-20.1347 L 21.6665,-20.1165 z
M 27.9243,-26.1835 L 28.1189,-26.2137 L 28.3084,-26.2676 L 28.4898,-26.3444 L 28.6604,-26.4429 L 28.8176,-26.5616
 L 28.9591,-26.6987 L 29.0826,-26.8522 L 29.1863,-27.0197 L 29.2686,-27.1987 L 29.3283,-27.3864 L 29.3645,-27.58
 L 29.3766,-27.7767 L 29.3645,-27.9733 L 29.3283,-28.1669 L 29.2686,-28.3546 L 29.1863,-28.5336 L 29.0826,-28.7011
 L 28.9591,-28.8546 L 28.8176,-28.9917 L 28.6604,-29.1104 L 28.4898,-29.2089 L 28.3084,-29.2857 L 28.1189,-29.3396
 L 27.9243,-29.3698 L 27.7274,-29.3759 L 27.5312,-29.3577 L 27.3388,-29.3156 L 27.153,-29.2501 L 26.9767,-29.1623
 L 26.8124,-29.0535 L 26.6628,-28.9253 L 26.5301,-28.7797 L 26.4163,-28.6189 L 26.3231,-28.4454 L 26.2519,-28.2617
 L 26.2039,-28.0706 L 26.1797,-27.8752 L 26.1797,-27.6782 L 26.2039,-27.4827 L 26.2519,-27.2916 L 26.3231,-27.1079
 L 26.4163,-26.9344 L 26.5301,-26.7736 L 26.6628,-26.628 L 26.8124,-26.4998 L 26.9767,-26.391 L 27.153,-26.3032
 L 27.3388,-26.2377 L 27.5312,-26.1956 L 27.7274,-26.1774 z
" stroke="black" fill="black" stroke-width="0.5"/>
</svg>
