<?xml version="1.0" standalone="no"?>
<!DOCTYPE svg PUBLIC "-//W3C//DTD SVG 1.1//EN" "http://www.w3.org/Graphics/SVG/1.1/DTD/svg11.dtd">
<svg width="100mm" height="100mm" viewBox="-8 -108 116 116" xmlns="http://www.w3.org/2000/svg" version="1.1">
<title>OpenSCAD Model</title>
<path d="
M 54.9494,-8.00497 L 55.1483,-8.01988 L 55.3462,-8.04468 L 55.5426,-8.07932 L 55.737,-8.12369 L 55.929,-8.1777
 L 56.1181,-8.24123 L 56.3037,-8.3141 L 56.4855,-8.39612 L 56.663,-8.48711 L 56.8357,-8.58684 L 57.0033,-8.69504
 L 57.1652,-8.81146 L 57.3212,-8.93582 L 57.4707,-9.06779 L 57.6135,-9.20705 L 57.7491,-9.35326 L 57.8773,-9.50604
 L 57.9978,-9.66502 L 58.1101,-9.82982 L 58.2141,-10 L 58.3095,-10.1752 L 58.396,-10.3549 L 58.4735,-10.5386
 L 58.5417,-10.7261 L 58.6005,-10.9166 L 58.6497,-11.1099 L 58.6892,-11.3054 L 58.719,-11.5026 L 58.7388,-11.7011
 L 58.75,-12 L 58.75,-16.1128 L 59.0587,-16.1926 L 59.6473,-16.3559 L 60.233,-16.5293 L 60.8156,-16.713
 L 61.3949,-16.9069 L 61.9707,-17.1108 L 62.5429,-17.3247 L 63.1112,-17.5486 L 63.6756,-17.7823 L 64.2358,-18.0259
 L 64.7916,-18.2792 L 65.343,-18.5422 L 65.8897,-18.8148 L 66.4315,-19.0968 L 66.9683,-19.3883 L 67.5,-19.6891
 L 67.7747,-19.8509 L 70.6829,-16.9428 L 70.8274,-16.8053 L 70.9785,-16.6752 L 71.136,-16.5528 L 71.2994,-16.4384
 L 71.4683,-16.3323 L 71.6422,-16.2347 L 71.8208,-16.146 L 72.0036,-16.0662 L 72.1902,-15.9957 L 72.38,-15.9345
 L 72.5727,-15.8829 L 72.7676,-15.8409 L 72.9645,-15.8087 L 73.1627,-15.7864 L 73.3617,-15.774 L 73.5612,-15.7715
 L 73.7605,-15.779 L 73.9592,-15.7964 L 74.1567,-15.8236 L 74.3527,-15.8607 L 74.5466,-15.9075 L 74.7379,-15.9639
 L 74.9261,-16.0298 L 75.1109,-16.1049 L 75.2916,-16.1892 L 75.468,-16.2824 L 75.6394,-16.3843 L 75.8056,-16.4946
 L 75.9661,-16.613 L 76.1204,-16.7393 L 76.3397,-16.9428 L 83.0572,-23.6603 L 83.1947,-23.8048 L 83.3248,-23.956
 L 83.4472,-24.1134 L 83.5616,-24.2768 L 83.6677,-24.4457 L 83.7653,-24.6196 L 83.854,-24.7982 L 83.9338,-24.981
 L 84.0043,-25.1676 L 84.0655,-25.3574 L 84.1171,-25.5501 L 84.1591,-25.7451 L 84.1913,-25.9419 L 84.2136,-26.1401
 L 84.226,-26.3391 L 84.2285,-26.5386 L 84.221,-26.7379 L 84.2036,-26.9366 L 84.1764,-27.1341 L 84.1393,-27.3301
 L 84.0925,-27.524 L 84.0361,-27.7153 L 83.9702,-27.9035 L 83.8951,-28.0883 L 83.8108,-28.269 L 83.7176,-28.4454
 L 83.6157,-28.6168 L 83.5054,-28.783 L 83.387,-28.9435 L 83.2607,-29.0979 L 83.0572,-29.3171 L 80.1491,-32.2253
 L 80.3109,-32.5 L 80.6117,-33.0317 L 80.9032,-33.5685 L 81.1852,-34.1103 L 81.4578,-34.657 L 81.7208,-35.2084
 L 81.9741,-35.7642 L 82.2177,-36.3244 L 82.4514,-36.8888 L 82.6753,-37.4571 L 82.8892,-38.0293 L 83.0931,-38.6051
 L 83.287,-39.1844 L 83.4707,-39.767 L 83.6441,-40.3527 L 83.8074,-40.9413 L 83.8872,-41.25 L 88,-41.25
 L 88.1994,-41.255 L 88.3983,-41.2699 L 88.5962,-41.2947 L 88.7926,-41.3293 L 88.987,-41.3737 L 89.179,-41.4277
 L 89.3681,-41.4912 L 89.5537,-41.5641 L 89.7355,-41.6461 L 89.913,-41.7371 L 90.0857,-41.8368 L 90.2533,-41.945
 L 90.4152,-42.0615 L 90.5712,-42.1858 L 90.7207,-42.3178 L 90.8635,-42.457 L 90.9991,-42.6033 L 91.1273,-42.756
 L 91.2478,-42.915 L 91.3601,-43.0798 L 91.4641,-43.25 L 91.5595,-43.4252 L 91.646,-43.6049 L 91.7235,-43.7886
 L 91.7917,-43.9761 L 91.8505,-44.1666 L 91.8997,-44.3599 L 91.9392,-44.5554 L 91.969,-44.7526 L 91.9888,-44.9511
 L 92,-45.25 L 92,-54.75 L 91.995,-54.9494 L 91.9801,-55.1483 L 91.9553,-55.3462 L 91.9207,-55.5426
 L 91.8763,-55.737 L 91.8223,-55.929 L 91.7588,-56.1181 L 91.6859,-56.3037 L 91.6039,-56.4855 L 91.5129,-56.663
 L 91.4132,-56.8357 L 91.305,-57.0033 L 91.1885,-57.1652 L 91.0642,-57.3212 L 90.9322,-57.4707 L 90.793,-57.6135
 L 90.6467,-57.7491 L 90.494,-57.8773 L 90.335,-57.9978 L 90.1702,-58.1101 L 90,-58.2141 L 89.8248,-58.3095
 L 89.6451,-58.396 L 89.4614,-58.4735 L 89.2739,-58.5417 L 89.0834,-58.6005 L 88.8901,-58.6497 L 88.6946,-58.6892
 L 88.4974,-58.719 L 88.2989,-58.7388 L 88,-58.75 L 83.8872,-58.75 L 83.8074,-59.0587 L 83.6441,-59.6473
 L 83.4707,-60.233 L 83.287,-60.8156 L 83.0931,-61.3949 L 82.8892,-61.9707 L 82.6753,-62.5429 L 82.4514,-63.1112
 L 82.2177,-63.6756 L 81.9741,-64.2358 L 81.7208,-64.7916 L 81.4578,-65.343 L 81.1852,-65.8897 L 80.9032,-66.4315
 L 80.6117,-66.9683 L 80.3109,-67.5 L 80.1491,-67.7747 L 83.0572,-70.6829 L 83.1947,-70.8274 L 83.3248,-70.9785
 L 83.4472,-71.136 L 83.5616,-71.2994 L 83.6677,-71.4683 L 83.7653,-71.6422 L 83.854,-71.8208 L 83.9338,-72.0036
 L 84.0043,-72.1902 L 84.0655,-72.38 L 84.1171,-72.5727 L 84.1591,-72.7676 L 84.1913,-72.9645 L 84.2136,-73.1627
 L 84.226,-73.3617 L 84.2285,-73.5612 L 84.221,-73.7605 L 84.2036,-73.9592 L 84.1764,-74.1567 L 84.1393,-74.3527
 L 84.0925,-74.5466 L 84.0361,-74.7379 L 83.9702,-74.9261 L 83.8951,-75.1109 L 83.8108,-75.2916 L 83.7176,-75.468
 L 83.6157,-75.6394 L 83.5054,-75.8056 L 83.387,-75.9661 L 83.2607,-76.1204 L 83.0572,-76.3397 L 76.3397,-83.0572
 L 76.1952,-83.1947 L 76.044,-83.3248 L 75.8866,-83.4472 L 75.7232,-83.5616 L 75.5543,-83.6677 L 75.3804,-83.7653
 L 75.2018,-83.854 L 75.019,-83.9338 L 74.8324,-84.0043 L 74.6426,-84.0655 L 74.4499,-84.1171 L 74.2549,-84.1591
 L 74.0581,-84.1913 L 73.8599,-84.2136 L 73.6609,-84.226 L 73.4614,-84.2285 L 73.2621,-84.221 L 73.0634,-84.2036
 L 72.8659,-84.1764 L 72.6699,-84.1393 L 72.476,-84.0925 L 72.2847,-84.0361 L 72.0965,-83.9702 L 71.9117,-83.8951
 L 71.731,-83.8108 L 71.5546,-83.7176 L 71.3832,-83.6157 L 71.217,-83.5054 L 71.0565,-83.387 L 70.9021,-83.2607
 L 70.6829,-83.0572 L 67.7747,-80.1491 L 67.5,-80.3109 L 66.9683,-80.6117 L 66.4315,-80.9032 L 65.8897,-81.1852
 L 65.343,-81.4578 L 64.7916,-81.7208 L 64.2358,-81.9741 L 63.6756,-82.2177 L 63.1112,-82.4514 L 62.5429,-82.6753
 L 61.9707,-82.8892 L 61.3949,-83.0931 L 60.8156,-83.287 L 60.233,-83.4707 L 59.6473,-83.6441 L 59.0587,-83.8074
 L 58.75,-83.8872 L 58.75,-88 L 58.745,-88.1994 L 58.7301,-88.3983 L 58.7053,-88.5962 L 58.6707,-88.7926
 L 58.6263,-88.987 L 58.5723,-89.179 L 58.5088,-89.3681 L 58.4359,-89.5537 L 58.3539,-89.7355 L 58.2629,-89.913
 L 58.1632,-90.0857 L 58.055,-90.2533 L 57.9385,-90.4152 L 57.8142,-90.5712 L 57.6822,-90.7207 L 57.543,-90.8635
 L 57.3967,-90.9991 L 57.244,-91.1273 L 57.085,-91.2478 L 56.9202,-91.3601 L 56.75,-91.4641 L 56.5748,-91.5595
 L 56.3951,-91.646 L 56.2114,-91.7235 L 56.0239,-91.7917 L 55.8334,-91.8505 L 55.6401,-91.8997 L 55.4446,-91.9392
 L 55.2474,-91.969 L 55.0489,-91.9888 L 54.75,-92 L 45.25,-92 L 45.0506,-91.995 L 44.8517,-91.9801
 L 44.6538,-91.9553 L 44.4574,-91.9207 L 44.263,-91.8763 L 44.071,-91.8223 L 43.8819,-91.7588 L 43.6963,-91.6859
 L 43.5145,-91.6039 L 43.337,-91.5129 L 43.1643,-91.4132 L 42.9967,-91.305 L 42.8348,-91.1885 L 42.6788,-91.0642
 L 42.5293,-90.9322 L 42.3865,-90.793 L 42.2509,-90.6467 L 42.1227,-90.494 L 42.0022,-90.335 L 41.8899,-90.1702
 L 41.7859,-90 L 41.6905,-89.8248 L 41.604,-89.6451 L 41.5265,-89.4614 L 41.4583,-89.2739 L 41.3995,-89.0834
 L 41.3503,-88.8901 L 41.3108,-88.6946 L 41.281,-88.4974 L 41.2612,-88.2989 L 41.25,-88 L 41.25,-83.8872
 L 40.9413,-83.8074 L 40.3527,-83.6441 L 39.767,-83.4707 L 39.1844,-83.287 L 38.6051,-83.0931 L 38.0293,-82.8892
 L 37.4571,-82.6753 L 36.8888,-82.4514 L 36.3244,-82.2177 L 35.7642,-81.9741 L 35.2084,-81.7208 L 34.657,-81.4578
 L 34.1103,-81.1852 L 33.5685,-80.9032 L 33.0317,-80.6117 L 32.5,-80.3109 L 32.2253,-80.1491 L 29.3171,-83.0572
 L 29.1726,-83.1947 L 29.0215,-83.3248 L 28.864,-83.4472 L 28.7006,-83.5616 L 28.5317,-83.6677 L 28.3578,-83.7653
 L 28.1792,-83.854 L 27.9964,-83.9338 L 27.8098,-84.0043 L 27.62,-84.0655 L 27.4273,-84.1171 L 27.2324,-84.1591
 L 27.0355,-84.1913 L 26.8373,-84.2136 L 26.6383,-84.226 L 26.4388,-84.2285 L 26.2395,-84.221 L 26.0408,-84.2036
 L 25.8433,-84.1764 L 25.6473,-84.1393 L 25.4534,-84.0925 L 25.2621,-84.0361 L 25.0739,-83.9702 L 24.8891,-83.8951
 L 24.7084,-83.8108 L 24.532,-83.7176 L 24.3606,-83.6157 L 24.1944,-83.5054 L 24.0339,-83.387 L 23.8796,-83.2607
 L 23.6603,-83.0572 L 16.9428,-76.3397 L 16.8053,-76.1952 L 16.6752,-76.044 L 16.5528,-75.8866 L 16.4384,-75.7232
 L 16.3323,-75.5543 L 16.2347,-75.3804 L 16.146,-75.2018 L 16.0662,-75.019 L 15.9957,-74.8324 L 15.9345,-74.6426
 L 15.8829,-74.4499 L 15.8409,-74.2549 L 15.8087,-74.0581 L 15.7864,-73.8599 L 15.774,-73.6609 L 15.7715,-73.4614
 L 15.779,-73.2621 L 15.7964,-73.0634 L 15.8236,-72.8659 L 15.8607,-72.6699 L 15.9075,-72.476 L 15.9639,-72.2847
 L 16.0298,-72.0965 L 16.1049,-71.9117 L 16.1892,-71.731 L 16.2824,-71.5546 L 16.3843,-71.3832 L 16.4946,-71.217
 L 16.613,-71.0565 L 16.7393,-70.9021 L 16.9428,-70.6829 L 19.8509,-67.7747 L 19.6891,-67.5 L 19.3883,-66.9683
 L 19.0968,-66.4315 L 18.8148,-65.8897 L 18.5422,-65.343 L 18.2792,-64.7916 L 18.0259,-64.2358 L 17.7823,-63.6756
 L 17.5486,-63.1112 L 17.3247,-62.5429 L 17.1108,-61.9707 L 16.9069,-61.3949 L 16.713,-60.8156 L 16.5293,-60.233
 L 16.3559,-59.6473 L 16.1926,-59.0587 L 16.1128,-58.75 L 12,-58.75 L 11.8006,-58.745 L 11.6017,-58.7301
 L 11.4038,-58.7053 L 11.2074,-58.6707 L 11.013,-58.6263 L 10.821,-58.5723 L 10.6319,-58.5088 L 10.4463,-58.4359
 L 10.2645,-58.3539 L 10.087,-58.2629 L 9.91426,-58.1632 L 9.74672,-58.055 L 9.58478,-57.9385 L 9.42885,-57.8142
 L 9.27931,-57.6822 L 9.13654,-57.543 L 9.00087,-57.3967 L 8.87268,-57.244 L 8.75224,-57.085 L 8.63989,-56.9202
 L 8.5359,-56.75 L 8.44051,-56.5748 L 8.35397,-56.3951 L 8.2765,-56.2114 L 8.2083,-56.0239 L 8.14951,-55.8334
 L 8.10028,-55.6401 L 8.06078,-55.4446 L 8.03104,-55.2474 L 8.01118,-55.0489 L 8,-54.75 L 8,-45.25
 L 8.00497,-45.0506 L 8.01988,-44.8517 L 8.04468,-44.6538 L 8.07932,-44.4574 L 8.12369,-44.263 L 8.1777,-44.071
 L 8.24123,-43.8819 L 8.3141,-43.6963 L 8.39612,-43.5145 L 8.48711,-43.337 L 8.58684,-43.1643 L 8.69504,-42.9967
 L 8.81146,-42.8348 L 8.93582,-42.6788 L 9.06779,-42.5293 L 9.20705,-42.3865 L 9.35326,-42.2509 L 9.50604,-42.1227
 L 9.66502,-42.0022 L 9.82982,-41.8899 L 10,-41.7859 L 10.1752,-41.6905 L 10.3549,-41.604 L 10.5386,-41.5265
 L 10.7261,-41.4583 L 10.9166,-41.3995 L 11.1099,-41.3503 L 11.3054,-41.3108 L 11.5026,-41.281 L 11.7011,-41.2612
 L 12,-41.25 L 16.1128,-41.25 L 16.1926,-40.9413 L 16.3559,-40.3527 L 16.5293,-39.767 L 16.713,-39.1844
 L 16.9069,-38.6051 L 17.1108,-38.0293 L 17.3247,-37.4571 L 17.5486,-36.8888 L 17.7823,-36.3244 L 18.0259,-35.7642
 L 18.2792,-35.2084 L 18.5422,-34.657 L 18.8148,-34.1103 L 19.0968,-33.5685 L 19.3883,-33.0317 L 19.6891,-32.5
 L 19.8509,-32.2253 L 16.9428,-29.3171 L 16.8053,-29.1726 L 16.6752,-29.0215 L 16.5528,-28.864 L 16.4384,-28.7006
 L 16.3323,-28.5317 L 16.2347,-28.3578 L 16.146,-28.1792 L 16.0662,-27.9964 L 15.9957,-27.8098 L 15.9345,-27.62
 L 15.8829,-27.4273 L 15.8409,-27.2324 L 15.8087,-27.0355 L 15.7864,-26.8373 L 15.774,-26.6383 L 15.7715,-26.4388
 L 15.779,-26.2395 L 15.7964,-26.0408 L 15.8236,-25.8433 L 15.8607,-25.6473 L 15.9075,-25.4534 L 15.9639,-25.2621
 L 16.0298,-25.0739 L 16.1049,-24.8891 L 16.1892,-24.7084 L 16.2824,-24.532 L 16.3843,-24.3606 L 16.4946,-24.1944
 L 16.613,-24.0339 L 16.7393,-23.8796 L 16.9428,-23.6603 L 23.6603,-16.9428 L 23.8048,-16.8053 L 23.956,-16.6752
 L 24.1134,-16.5528 L 24.2768,-16.4384 L 24.4457,-16.3323 L 24.6196,-16.2347 L 24.7982,-16.146 L 24.981,-16.0662
 L 25.1676,-15.9957 L 25.3574,-15.9345 L 25.5501,-15.8829 L 25.7451,-15.8409 L 25.9419,-15.8087 L 26.1401,-15.7864
 L 26.3391,-15.774 L 26.5386,-15.7715 L 26.7379,-15.779 L 26.9366,-15.7964 L 27.1341,-15.8236 L 27.3301,-15.8607
 L 27.524,-15.9075 L 27.7153,-15.9639 L 27.9035,-16.0298 L 28.0883,-16.1049 L 28.269,-16.1892 L 28.4454,-16.2824
 L 28.6168,-16.3843 L 28.783,-16.4946 L 28.9435,-16.613 L 29.0979,-16.7393 L 29.3171,-16.9428 L 32.2253,-19.8509
 L 32.5,-19.6891 L 33.0317,-19.3883 L 33.5685,-19.0968 L 34.1103,-18.8148 L 34.657,-18.5422 L 35.2084,-18.2792
 L 35.7642,-18.0259 L 36.3244,-17.7823 L 36.8888,-17.5486 L 37.4571,-17.3247 L 38.0293,-17.1108 L 38.6051,-16.9069
 L 39.1844,-16.713 L 39.767,-16.5293 L 40.3527,-16.3559 L 40.9413,-16.1926 L 41.25,-16.1128 L 41.25,-12
 L 41.255,-11.8006 L 41.2699,-11.6017 L 41.2947,-11.4038 L 41.3293,-11.2074 L 41.3737,-11.013 L 41.4277,-10.821
 L 41.4912,-10.6319 L 41.5641,-10.4463 L 41.6461,-10.2645 L 41.7371,-10.087 L 41.8368,-9.91426 L 41.945,-9.74672
 L 42.0615,-9.58478 L 42.1858,-9.42885 L 42.3178,-9.27931 L 42.457,-9.13654 L 42.6033,-9.00087 L 42.756,-8.87268
 L 42.915,-8.75224 L 43.0798,-8.63989 L 43.25,-8.5359 L 43.4252,-8.44051 L 43.6049,-8.35397 L 43.7886,-8.2765
 L 43.9761,-8.2083 L 44.1666,-8.14951 L 44.3599,-8.10028 L 44.5554,-8.06078 L 44.7526,-8.03104 L 44.9511,-8.01118
 L 45.25,-8 L 54.75,-8 z
M 45.3249,-12 L 45.2512,-12.0028 L 45.25,-12.0496 L 45.25,-16.1128 L 45.2399,-16.3968 L 45.2208,-16.5954
 L 45.1918,-16.7927 L 45.153,-16.9883 L 45.1045,-17.1818 L 45.0464,-17.3726 L 44.9789,-17.5603 L 44.9021,-17.7443
 L 44.8163,-17.9243 L 44.7215,-18.0999 L 44.6182,-18.2704 L 44.5064,-18.4356 L 44.3866,-18.5951 L 44.259,-18.7483
 L 44.1239,-18.895 L 43.9816,-19.0348 L 43.8326,-19.1674 L 43.6771,-19.2923 L 43.5156,-19.4093 L 43.3484,-19.5181
 L 43.1761,-19.6185 L 42.9989,-19.7102 L 42.8175,-19.7929 L 42.6321,-19.8664 L 42.4433,-19.9306 L 42.2515,-19.9854
 L 41.9768,-20.0564 L 41.4551,-20.2011 L 40.9364,-20.3547 L 40.4206,-20.5174 L 39.9078,-20.6889 L 39.3972,-20.8698
 L 38.8903,-21.0593 L 38.3879,-21.2572 L 37.8867,-21.4648 L 37.3918,-21.68 L 36.8986,-21.9048 L 36.4102,-22.1377
 L 35.927,-22.3786 L 35.4466,-22.6287 L 34.971,-22.8869 L 34.4999,-23.1535 L 34.2554,-23.2975 L 34.0056,-23.4329
 L 33.8249,-23.5172 L 33.6401,-23.5923 L 33.4519,-23.6582 L 33.2606,-23.7146 L 33.0667,-23.7614 L 32.8707,-23.7985
 L 32.6732,-23.8258 L 32.4745,-23.8432 L 32.2752,-23.8506 L 32.0757,-23.8481 L 31.8767,-23.8357 L 31.6785,-23.8134
 L 31.4816,-23.7812 L 31.2867,-23.7392 L 31.094,-23.6876 L 30.9042,-23.6264 L 30.7176,-23.5559 L 30.5348,-23.4762
 L 30.3562,-23.3874 L 30.1823,-23.2898 L 30.0134,-23.1837 L 29.85,-23.0693 L 29.6926,-22.9469 L 29.5414,-22.8168
 L 29.3969,-22.6794 L 26.5415,-19.824 L 26.4876,-19.774 L 26.4536,-19.8063 L 19.824,-26.4359 L 19.774,-26.4898
 L 19.8065,-26.524 L 22.6794,-29.3969 L 22.873,-29.6048 L 22.9998,-29.7587 L 23.1189,-29.9187 L 23.2298,-30.0844
 L 23.3323,-30.2555 L 23.4262,-30.4315 L 23.5111,-30.6119 L 23.587,-30.7964 L 23.6536,-30.9844 L 23.7107,-31.1755
 L 23.7582,-31.3692 L 23.7961,-31.565 L 23.8241,-31.7625 L 23.8422,-31.9611 L 23.8504,-32.1604 L 23.8487,-32.3598
 L 23.837,-32.5589 L 23.8154,-32.7572 L 23.784,-32.9541 L 23.7427,-33.1493 L 23.6918,-33.3421 L 23.6314,-33.5322
 L 23.5616,-33.719 L 23.4825,-33.9021 L 23.3944,-34.081 L 23.2975,-34.2554 L 23.1535,-34.4999 L 22.8869,-34.971
 L 22.6287,-35.4466 L 22.3786,-35.927 L 22.1377,-36.4102 L 21.9048,-36.8986 L 21.68,-37.3918 L 21.4648,-37.8867
 L 21.2572,-38.3879 L 21.0593,-38.8903 L 20.8698,-39.3972 L 20.6889,-39.9078 L 20.5174,-40.4206 L 20.3547,-40.9364
 L 20.2011,-41.4551 L 20.0564,-41.9768 L 19.9854,-42.2515 L 19.9045,-42.5239 L 19.8363,-42.7114 L 19.7588,-42.8951
 L 19.6723,-43.0748 L 19.5769,-43.25 L 19.4729,-43.4202 L 19.3605,-43.585 L 19.2401,-43.744 L 19.1119,-43.8967
 L 18.9762,-44.043 L 18.8335,-44.1822 L 18.6839,-44.3142 L 18.528,-44.4385 L 18.3661,-44.555 L 18.1985,-44.6632
 L 18.0258,-44.7629 L 17.8483,-44.8539 L 17.6665,-44.9359 L 17.4809,-45.0088 L 17.2918,-45.0723 L 17.0998,-45.1263
 L 16.9054,-45.1707 L 16.709,-45.2053 L 16.511,-45.2301 L 16.3122,-45.245 L 16.1128,-45.25 L 12.0749,-45.25
 L 12.0012,-45.2528 L 12,-45.2996 L 12,-54.6751 L 12.0028,-54.7488 L 12.0496,-54.75 L 16.1128,-54.75
 L 16.3968,-54.7601 L 16.5954,-54.7792 L 16.7927,-54.8082 L 16.9883,-54.847 L 17.1818,-54.8955 L 17.3726,-54.9536
 L 17.5603,-55.0211 L 17.7443,-55.0979 L 17.9243,-55.1837 L 18.0999,-55.2785 L 18.2704,-55.3818 L 18.4356,-55.4936
 L 18.5951,-55.6134 L 18.7483,-55.741 L 18.895,-55.8761 L 19.0348,-56.0184 L 19.1674,-56.1674 L 19.2923,-56.3229
 L 19.4093,-56.4844 L 19.5181,-56.6516 L 19.6185,-56.8239 L 19.7102,-57.0011 L 19.7929,-57.1825 L 19.8664,-57.3679
 L 19.9306,-57.5567 L 19.9854,-57.7485 L 20.0564,-58.0232 L 20.2011,-58.5449 L 20.3547,-59.0636 L 20.5174,-59.5794
 L 20.6889,-60.0922 L 20.8698,-60.6028 L 21.0593,-61.1097 L 21.2572,-61.6121 L 21.4648,-62.1133 L 21.68,-62.6082
 L 21.9048,-63.1014 L 22.1377,-63.5898 L 22.3786,-64.073 L 22.6287,-64.5534 L 22.8869,-65.029 L 23.1535,-65.5001
 L 23.2975,-65.7446 L 23.4329,-65.9944 L 23.5172,-66.1751 L 23.5923,-66.3599 L 23.6582,-66.5481 L 23.7146,-66.7394
 L 23.7614,-66.9333 L 23.7985,-67.1293 L 23.8258,-67.3268 L 23.8432,-67.5255 L 23.8506,-67.7248 L 23.8481,-67.9243
 L 23.8357,-68.1233 L 23.8134,-68.3215 L 23.7812,-68.5184 L 23.7392,-68.7133 L 23.6876,-68.906 L 23.6264,-69.0958
 L 23.5559,-69.2824 L 23.4762,-69.4652 L 23.3874,-69.6438 L 23.2898,-69.8177 L 23.1837,-69.9866 L 23.0693,-70.15
 L 22.9469,-70.3074 L 22.8168,-70.4586 L 22.6794,-70.6031 L 19.824,-73.4585 L 19.774,-73.5124 L 19.8063,-73.5464
 L 26.4359,-80.176 L 26.4898,-80.226 L 26.524,-80.1935 L 29.3969,-77.3206 L 29.6048,-77.127 L 29.7587,-77.0002
 L 29.9187,-76.8811 L 30.0844,-76.7702 L 30.2555,-76.6677 L 30.4315,-76.5738 L 30.6119,-76.4889 L 30.7964,-76.413
 L 30.9844,-76.3464 L 31.1755,-76.2893 L 31.3692,-76.2418 L 31.565,-76.2039 L 31.7625,-76.1759 L 31.9611,-76.1578
 L 32.1604,-76.1496 L 32.3598,-76.1513 L 32.5589,-76.163 L 32.7572,-76.1846 L 32.9541,-76.216 L 33.1493,-76.2573
 L 33.3421,-76.3082 L 33.5322,-76.3686 L 33.719,-76.4384 L 33.9021,-76.5175 L 34.081,-76.6056 L 34.2554,-76.7025
 L 34.4999,-76.8465 L 34.971,-77.1131 L 35.4466,-77.3713 L 35.927,-77.6214 L 36.4102,-77.8623 L 36.8986,-78.0952
 L 37.3918,-78.32 L 37.8867,-78.5352 L 38.3879,-78.7428 L 38.8903,-78.9407 L 39.3972,-79.1302 L 39.9078,-79.3111
 L 40.4206,-79.4826 L 40.9364,-79.6453 L 41.4551,-79.7989 L 41.9768,-79.9436 L 42.2515,-80.0146 L 42.5239,-80.0955
 L 42.7114,-80.1637 L 42.8951,-80.2412 L 43.0748,-80.3277 L 43.25,-80.4231 L 43.4202,-80.5271 L 43.585,-80.6395
 L 43.744,-80.7599 L 43.8967,-80.8881 L 44.043,-81.0238 L 44.1822,-81.1665 L 44.3142,-81.3161 L 44.4385,-81.472
 L 44.555,-81.6339 L 44.6632,-81.8015 L 44.7629,-81.9742 L 44.8539,-82.1517 L 44.9359,-82.3335 L 45.0088,-82.5191
 L 45.0723,-82.7082 L 45.1263,-82.9002 L 45.1707,-83.0946 L 45.2053,-83.291 L 45.2301,-83.489 L 45.245,-83.6878
 L 45.25,-83.8872 L 45.25,-87.9251 L 45.2528,-87.9988 L 45.2996,-88 L 54.6751,-88 L 54.7488,-87.9972
 L 54.75,-87.9504 L 54.75,-83.8872 L 54.7601,-83.6032 L 54.7792,-83.4046 L 54.8082,-83.2073 L 54.847,-83.0117
 L 54.8955,-82.8182 L 54.9536,-82.6274 L 55.0211,-82.4397 L 55.0979,-82.2557 L 55.1837,-82.0757 L 55.2785,-81.9001
 L 55.3818,-81.7296 L 55.4936,-81.5644 L 55.6134,-81.4049 L 55.741,-81.2517 L 55.8761,-81.105 L 56.0184,-80.9652
 L 56.1674,-80.8326 L 56.3229,-80.7077 L 56.4844,-80.5907 L 56.6516,-80.4819 L 56.8239,-80.3815 L 57.0011,-80.2898
 L 57.1825,-80.2071 L 57.3679,-80.1336 L 57.5567,-80.0694 L 57.7485,-80.0146 L 58.0232,-79.9436 L 58.5449,-79.7989
 L 59.0636,-79.6453 L 59.5794,-79.4826 L 60.0922,-79.3111 L 60.6028,-79.1302 L 61.1097,-78.9407 L 61.6121,-78.7428
 L 62.1133,-78.5352 L 62.6082,-78.32 L 63.1014,-78.0952 L 63.5898,-77.8623 L 64.073,-77.6214 L 64.5534,-77.3713
 L 65.029,-77.1131 L 65.5001,-76.8465 L 65.7446,-76.7025 L 65.9944,-76.5671 L 66.1751,-76.4828 L 66.3599,-76.4077
 L 66.5481,-76.3418 L 66.7394,-76.2854 L 66.9333,-76.2386 L 67.1293,-76.2015 L 67.3268,-76.1742 L 67.5255,-76.1568
 L 67.7248,-76.1494 L 67.9243,-76.1519 L 68.1233,-76.1643 L 68.3215,-76.1866 L 68.5184,-76.2188 L 68.7133,-76.2608
 L 68.906,-76.3124 L 69.0958,-76.3736 L 69.2824,-76.4441 L 69.4652,-76.5238 L 69.6438,-76.6126 L 69.8177,-76.7102
 L 69.9866,-76.8163 L 70.15,-76.9307 L 70.3074,-77.0531 L 70.4586,-77.1832 L 70.6031,-77.3206 L 73.4585,-80.176
 L 73.5124,-80.226 L 73.5464,-80.1937 L 80.176,-73.5641 L 80.226,-73.5102 L 80.1935,-73.476 L 77.3206,-70.6031
 L 77.127,-70.3952 L 77.0002,-70.2413 L 76.8811,-70.0813 L 76.7702,-69.9156 L 76.6677,-69.7445 L 76.5738,-69.5685
 L 76.4889,-69.3881 L 76.413,-69.2036 L 76.3464,-69.0156 L 76.2893,-68.8245 L 76.2418,-68.6308 L 76.2039,-68.435
 L 76.1759,-68.2375 L 76.1578,-68.0389 L 76.1496,-67.8396 L 76.1513,-67.6402 L 76.163,-67.4411 L 76.1846,-67.2428
 L 76.216,-67.0459 L 76.2573,-66.8507 L 76.3082,-66.6579 L 76.3686,-66.4678 L 76.4384,-66.281 L 76.5175,-66.0979
 L 76.6056,-65.919 L 76.7025,-65.7446 L 76.8465,-65.5001 L 77.1131,-65.029 L 77.3713,-64.5534 L 77.6214,-64.073
 L 77.8623,-63.5898 L 78.0952,-63.1014 L 78.32,-62.6082 L 78.5352,-62.1133 L 78.7428,-61.6121 L 78.9407,-61.1097
 L 79.1302,-60.6028 L 79.3111,-60.0922 L 79.4826,-59.5794 L 79.6453,-59.0636 L 79.7989,-58.5449 L 79.9436,-58.0232
 L 80.0146,-57.7485 L 80.0955,-57.4761 L 80.1637,-57.2886 L 80.2412,-57.1049 L 80.3277,-56.9252 L 80.4231,-56.75
 L 80.5271,-56.5798 L 80.6395,-56.415 L 80.7599,-56.256 L 80.8881,-56.1033 L 81.0238,-55.957 L 81.1665,-55.8178
 L 81.3161,-55.6858 L 81.472,-55.5615 L 81.6339,-55.445 L 81.8015,-55.3368 L 81.9742,-55.2371 L 82.1517,-55.1461
 L 82.3335,-55.0641 L 82.5191,-54.9912 L 82.7082,-54.9277 L 82.9002,-54.8737 L 83.0946,-54.8293 L 83.291,-54.7947
 L 83.489,-54.7699 L 83.6878,-54.755 L 83.8872,-54.75 L 87.9251,-54.75 L 87.9988,-54.7472 L 88,-54.7004
 L 88,-45.3249 L 87.9972,-45.2512 L 87.9504,-45.25 L 83.8872,-45.25 L 83.6032,-45.2399 L 83.4046,-45.2208
 L 83.2073,-45.1918 L 83.0117,-45.153 L 82.8182,-45.1045 L 82.6274,-45.0464 L 82.4397,-44.9789 L 82.2557,-44.9021
 L 82.0757,-44.8163 L 81.9001,-44.7215 L 81.7296,-44.6182 L 81.5644,-44.5064 L 81.4049,-44.3866 L 81.2517,-44.259
 L 81.105,-44.1239 L 80.9652,-43.9816 L 80.8326,-43.8326 L 80.7077,-43.6771 L 80.5907,-43.5156 L 80.4819,-43.3484
 L 80.3815,-43.1761 L 80.2898,-42.9989 L 80.2071,-42.8175 L 80.1336,-42.6321 L 80.0694,-42.4433 L 80.0146,-42.2515
 L 79.9436,-41.9768 L 79.7989,-41.4551 L 79.6453,-40.9364 L 79.4826,-40.4206 L 79.3111,-39.9078 L 79.1302,-39.3972
 L 78.9407,-38.8903 L 78.7428,-38.3879 L 78.5352,-37.8867 L 78.32,-37.3918 L 78.0952,-36.8986 L 77.8623,-36.4102
 L 77.6214,-35.927 L 77.3713,-35.4466 L 77.1131,-34.971 L 76.8465,-34.4999 L 76.7025,-34.2554 L 76.5671,-34.0056
 L 76.4828,-33.8249 L 76.4077,-33.6401 L 76.3418,-33.4519 L 76.2854,-33.2606 L 76.2386,-33.0667 L 76.2015,-32.8707
 L 76.1742,-32.6732 L 76.1568,-32.4745 L 76.1494,-32.2752 L 76.1519,-32.0757 L 76.1643,-31.8767 L 76.1866,-31.6785
 L 76.2188,-31.4816 L 76.2608,-31.2867 L 76.3124,-31.094 L 76.3736,-30.9042 L 76.4441,-30.7176 L 76.5238,-30.5348
 L 76.6126,-30.3562 L 76.7102,-30.1823 L 76.8163,-30.0134 L 76.9307,-29.85 L 77.0531,-29.6926 L 77.1832,-29.5414
 L 77.3206,-29.3969 L 80.176,-26.5415 L 80.226,-26.4876 L 80.1937,-26.4536 L 73.5641,-19.824 L 73.5102,-19.774
 L 73.476,-19.8065 L 70.6031,-22.6794 L 70.3952,-22.873 L 70.2413,-22.9998 L 70.0813,-23.1189 L 69.9156,-23.2298
 L 69.7445,-23.3323 L 69.5685,-23.4262 L 69.3881,-23.5111 L 69.2036,-23.587 L 69.0156,-23.6536 L 68.8245,-23.7107
 L 68.6308,-23.7582 L 68.435,-23.7961 L 68.2375,-23.8241 L 68.0389,-23.8422 L 67.8396,-23.8504 L 67.6402,-23.8487
 L 67.4411,-23.837 L 67.2428,-23.8154 L 67.0459,-23.784 L 66.8507,-23.7427 L 66.6579,-23.6918 L 66.4678,-23.6314
 L 66.281,-23.5616 L 66.0979,-23.4825 L 65.919,-23.3944 L 65.7446,-23.2975 L 65.5001,-23.1535 L 65.029,-22.8869
 L 64.5534,-22.6287 L 64.073,-22.3786 L 63.5898,-22.1377 L 63.1014,-21.9048 L 62.6082,-21.68 L 62.1133,-21.4648
 L 61.6121,-21.2572 L 61.1097,-21.0593 L 60.6028,-20.8698 L 60.0922,-20.6889 L 59.5794,-20.5174 L 59.0636,-20.3547
 L 58.5449,-20.2011 L 58.0232,-20.0564 L 57.7485,-19.9854 L 57.4761,-19.9045 L 57.2886,-19.8363 L 57.1049,-19.7588
 L 56.9252,-19.6723 L 56.75,-19.5769 L 56.5798,-19.4729 L 56.415,-19.3605 L 56.256,-19.2401 L 56.1033,-19.1119
 L 55.957,-18.9762 L 55.8178,-18.8335 L 55.6858,-18.6839 L 55.5615,-18.528 L 55.445,-18.3661 L 55.3368,-18.1985
 L 55.2371,-18.0258 L 55.1461,-17.8483 L 55.0641,-17.6665 L 54.9912,-17.4809 L 54.9277,-17.2918 L 54.8737,-17.0998
 L 54.8293,-16.9054 L 54.7947,-16.709 L 54.7699,-16.511 L 54.755,-16.3122 L 54.75,-16.1128 L 54.75,-12.0749
 L 54.7472,-12.0012 L 54.7004,-12 z
M 50.384,-26.0032 L 50.4538,-26.0044 L 50.8027,-26.0136 L 50.8725,-26.016 L 51.2212,-26.0312 L 51.2908,-26.0349
 L 51.6392,-26.0562 L 51.709,-26.0611 L 52.057,-26.0884 L 52.1266,-26.0945 L 52.474,-26.128 L 52.5433,-26.1353
 L 52.8901,-26.1748 L 52.9595,-26.1833 L 53.3056,-26.2289 L 53.3748,-26.2386 L 53.72,-26.2902 L 53.7887,-26.3011
 L 54.133,-26.3587 L 54.2019,-26.3708 L 54.5452,-26.4344 L 54.6137,-26.4478 L 54.9557,-26.5174 L 55.024,-26.5319
 L 55.3647,-26.6074 L 55.4327,-26.6231 L 55.7722,-26.7046 L 55.84,-26.7215 L 56.1779,-26.8089 L 56.2454,-26.827
 L 56.5818,-26.9203 L 56.6488,-26.9395 L 56.9835,-27.0386 L 57.0503,-27.0591 L 57.3832,-27.164 L 57.4494,-27.1855
 L 57.7805,-27.2963 L 57.8467,-27.3191 L 58.1757,-27.4356 L 58.2411,-27.4594 L 58.5681,-27.5817 L 58.6334,-27.6067
 L 58.9581,-27.7347 L 59.0228,-27.7608 L 59.3453,-27.8944 L 59.4097,-27.9217 L 59.7298,-28.0609 L 59.7935,-28.0893
 L 60.1112,-28.234 L 60.1744,-28.2635 L 60.4894,-28.4138 L 60.5521,-28.4444 L 60.8645,-28.6001 L 60.9268,-28.6318
 L 61.2364,-28.793 L 61.2981,-28.8258 L 61.6049,-28.9924 L 61.6659,-29.0262 L 61.9697,-29.1981 L 62.0301,-29.233
 L 62.3309,-29.4101 L 62.3908,-29.4461 L 62.6884,-29.6285 L 62.7475,-29.6654 L 63.0419,-29.853 L 63.1005,-29.891
 L 63.3916,-30.0837 L 63.4496,-30.1228 L 63.7372,-30.3205 L 63.7944,-30.3605 L 64.0785,-30.5632 L 64.135,-30.6042
 L 64.4156,-30.8119 L 64.4713,-30.8539 L 64.7482,-31.0664 L 64.8033,-31.1094 L 65.0765,-31.3267 L 65.1307,-31.3706
 L 65.4,-31.5926 L 65.4536,-31.6375 L 65.719,-31.8642 L 65.7717,-31.91 L 66.0331,-32.1413 L 66.085,-32.188
 L 66.3423,-32.4238 L 66.3933,-32.4713 L 66.6465,-32.7116 L 66.6967,-32.7601 L 66.9457,-33.0048 L 66.9952,-33.0543
 L 67.2399,-33.3033 L 67.2884,-33.3535 L 67.5287,-33.6067 L 67.5762,-33.6577 L 67.812,-33.915 L 67.8587,-33.9669
 L 68.09,-34.2283 L 68.1358,-34.281 L 68.3625,-34.5464 L 68.4074,-34.6 L 68.6294,-34.8693 L 68.6733,-34.9235
 L 68.8906,-35.1967 L 68.9336,-35.2518 L 69.1461,-35.5287 L 69.1881,-35.5844 L 69.3958,-35.865 L 69.4368,-35.9215
 L 69.6395,-36.2056 L 69.6795,-36.2628 L 69.8772,-36.5504 L 69.9163,-36.6084 L 70.109,-36.8995 L 70.147,-36.9581
 L 70.3346,-37.2525 L 70.3715,-37.3116 L 70.5539,-37.6092 L 70.5899,-37.6691 L 70.767,-37.9699 L 70.8019,-38.0303
 L 70.9738,-38.3341 L 71.0076,-38.3951 L 71.1742,-38.7019 L 71.207,-38.7636 L 71.3682,-39.0732 L 71.3999,-39.1355
 L 71.5556,-39.4479 L 71.5862,-39.5106 L 71.7365,-39.8256 L 71.766,-39.8888 L 71.9107,-40.2065 L 71.9391,-40.2702
 L 72.0783,-40.5903 L 72.1056,-40.6547 L 72.2392,-40.9772 L 72.2653,-41.0419 L 72.3933,-41.3666 L 72.4183,-41.4319
 L 72.5406,-41.7589 L 72.5644,-41.8243 L 72.6809,-42.1533 L 72.7037,-42.2195 L 72.8145,-42.5506 L 72.836,-42.6168
 L 72.9409,-42.9497 L 72.9614,-43.0165 L 73.0605,-43.3512 L 73.0797,-43.4182 L 73.173,-43.7546 L 73.1911,-43.8221
 L 73.2785,-44.16 L 73.2954,-44.2278 L 73.3769,-44.5673 L 73.3926,-44.6353 L 73.4681,-44.976 L 73.4826,-45.0443
 L 73.5522,-45.3863 L 73.5656,-45.4548 L 73.6292,-45.7981 L 73.6413,-45.867 L 73.6989,-46.2113 L 73.7098,-46.28
 L 73.7614,-46.6252 L 73.7711,-46.6944 L 73.8167,-47.0405 L 73.8252,-47.1099 L 73.8647,-47.4567 L 73.872,-47.526
 L 73.9055,-47.8734 L 73.9116,-47.943 L 73.9389,-48.291 L 73.9438,-48.3608 L 73.9651,-48.7092 L 73.9688,-48.7788
 L 73.984,-49.1275 L 73.9864,-49.1973 L 73.9956,-49.5462 L 73.9968,-49.616 L 73.9998,-49.965 L 73.9998,-50.035
 L 73.9968,-50.384 L 73.9956,-50.4538 L 73.9864,-50.8027 L 73.984,-50.8725 L 73.9688,-51.2212 L 73.9651,-51.2908
 L 73.9438,-51.6392 L 73.9389,-51.709 L 73.9116,-52.057 L 73.9055,-52.1266 L 73.872,-52.474 L 73.8647,-52.5433
 L 73.8252,-52.8901 L 73.8167,-52.9595 L 73.7711,-53.3056 L 73.7614,-53.3748 L 73.7098,-53.72 L 73.6989,-53.7887
 L 73.6413,-54.133 L 73.6292,-54.2019 L 73.5656,-54.5452 L 73.5522,-54.6137 L 73.4826,-54.9557 L 73.4681,-55.024
 L 73.3926,-55.3647 L 73.3769,-55.4327 L 73.2954,-55.7722 L 73.2785,-55.84 L 73.1911,-56.1779 L 73.173,-56.2454
 L 73.0797,-56.5818 L 73.0605,-56.6488 L 72.9614,-56.9835 L 72.9409,-57.0503 L 72.836,-57.3832 L 72.8145,-57.4494
 L 72.7037,-57.7805 L 72.6809,-57.8467 L 72.5644,-58.1757 L 72.5406,-58.2411 L 72.4183,-58.5681 L 72.3933,-58.6334
 L 72.2653,-58.9581 L 72.2392,-59.0228 L 72.1056,-59.3453 L 72.0783,-59.4097 L 71.9391,-59.7298 L 71.9107,-59.7935
 L 71.766,-60.1112 L 71.7365,-60.1744 L 71.5862,-60.4894 L 71.5556,-60.5521 L 71.3999,-60.8645 L 71.3682,-60.9268
 L 71.207,-61.2364 L 71.1742,-61.2981 L 71.0076,-61.6049 L 70.9738,-61.6659 L 70.8019,-61.9697 L 70.767,-62.0301
 L 70.5899,-62.3309 L 70.5539,-62.3908 L 70.3715,-62.6884 L 70.3346,-62.7475 L 70.147,-63.0419 L 70.109,-63.1005
 L 69.9163,-63.3916 L 69.8772,-63.4496 L 69.6795,-63.7372 L 69.6395,-63.7944 L 69.4368,-64.0785 L 69.3958,-64.135
 L 69.1881,-64.4156 L 69.1461,-64.4713 L 68.9336,-64.7482 L 68.8906,-64.8033 L 68.6733,-65.0765 L 68.6294,-65.1307
 L 68.4074,-65.4 L 68.3625,-65.4536 L 68.1358,-65.719 L 68.09,-65.7717 L 67.8587,-66.0331 L 67.812,-66.085
 L 67.5762,-66.3423 L 67.5287,-66.3933 L 67.2884,-66.6465 L 67.2399,-66.6967 L 66.9952,-66.9457 L 66.9457,-66.9952
 L 66.6967,-67.2399 L 66.6465,-67.2884 L 66.3933,-67.5287 L 66.3423,-67.5762 L 66.085,-67.812 L 66.0331,-67.8587
 L 65.7717,-68.09 L 65.719,-68.1358 L 65.4536,-68.3625 L 65.4,-68.4074 L 65.1307,-68.6294 L 65.0765,-68.6733
 L 64.8033,-68.8906 L 64.7482,-68.9336 L 64.4713,-69.1461 L 64.4156,-69.1881 L 64.135,-69.3958 L 64.0785,-69.4368
 L 63.7944,-69.6395 L 63.7372,-69.6795 L 63.4496,-69.8772 L 63.3916,-69.9163 L 63.1005,-70.109 L 63.0419,-70.147
 L 62.7475,-70.3346 L 62.6884,-70.3715 L 62.3908,-70.5539 L 62.3309,-70.5899 L 62.0301,-70.767 L 61.9697,-70.8019
 L 61.6659,-70.9738 L 61.6049,-71.0076 L 61.2981,-71.1742 L 61.2364,-71.207 L 60.9268,-71.3682 L 60.8645,-71.3999
 L 60.5521,-71.5556 L 60.4894,-71.5862 L 60.1744,-71.7365 L 60.1112,-71.766 L 59.7935,-71.9107 L 59.7298,-71.9391
 L 59.4097,-72.0783 L 59.3453,-72.1056 L 59.0228,-72.2392 L 58.9581,-72.2653 L 58.6334,-72.3933 L 58.5681,-72.4183
 L 58.2411,-72.5406 L 58.1757,-72.5644 L 57.8467,-72.6809 L 57.7805,-72.7037 L 57.4494,-72.8145 L 57.3832,-72.836
 L 57.0503,-72.9409 L 56.9835,-72.9614 L 56.6488,-73.0605 L 56.5818,-73.0797 L 56.2454,-73.173 L 56.1779,-73.1911
 L 55.84,-73.2785 L 55.7722,-73.2954 L 55.4327,-73.3769 L 55.3647,-73.3926 L 55.024,-73.4681 L 54.9557,-73.4826
 L 54.6137,-73.5522 L 54.5452,-73.5656 L 54.2019,-73.6292 L 54.133,-73.6413 L 53.7887,-73.6989 L 53.72,-73.7098
 L 53.3748,-73.7614 L 53.3056,-73.7711 L 52.9595,-73.8167 L 52.8901,-73.8252 L 52.5433,-73.8647 L 52.474,-73.872
 L 52.1266,-73.9055 L 52.057,-73.9116 L 51.709,-73.9389 L 51.6392,-73.9438 L 51.2908,-73.9651 L 51.2212,-73.9688
 L 50.8725,-73.984 L 50.8027,-73.9864 L 50.4538,-73.9956 L 50.384,-73.9968 L 50.035,-73.9998 L 49.965,-73.9998
 L 49.616,-73.9968 L 49.5462,-73.9956 L 49.1973,-73.9864 L 49.1275,-73.984 L 48.7788,-73.9688 L 48.7092,-73.9651
 L 48.3608,-73.9438 L 48.291,-73.9389 L 47.943,-73.9116 L 47.8734,-73.9055 L 47.526,-73.872 L 47.4567,-73.8647
 L 47.1099,-73.8252 L 47.0405,-73.8167 L 46.6944,-73.7711 L 46.6252,-73.7614 L 46.28,-73.7098 L 46.2113,-73.6989
 L 45.867,-73.6413 L 45.7981,-73.6292 L 45.4548,-73.5656 L 45.3863,-73.5522 L 45.0443,-73.4826 L 44.976,-73.4681
 L 44.6353,-73.3926 L 44.5673,-73.3769 L 44.2278,-73.2954 L 44.16,-73.2785 L 43.8221,-73.1911 L 43.7546,-73.173
 L 43.4182,-73.0797 L 43.3512,-73.0605 L 43.0165,-72.9614 L 42.9497,-72.9409 L 42.6168,-72.836 L 42.5506,-72.8145
 L 42.2195,-72.7037 L 42.1533,-72.6809 L 41.8243,-72.5644 L 41.7589,-72.5406 L 41.4319,-72.4183 L 41.3666,-72.3933
 L 41.0419,-72.2653 L 40.9772,-72.2392 L 40.6547,-72.1056 L 40.5903,-72.0783 L 40.2702,-71.9391 L 40.2065,-71.9107
 L 39.8888,-71.766 L 39.8256,-71.7365 L 39.5106,-71.5862 L 39.4479,-71.5556 L 39.1355,-71.3999 L 39.0732,-71.3682
 L 38.7636,-71.207 L 38.7019,-71.1742 L 38.3951,-71.0076 L 38.3341,-70.9738 L 38.0303,-70.8019 L 37.9699,-70.767
 L 37.6691,-70.5899 L 37.6092,-70.5539 L 37.3116,-70.3715 L 37.2525,-70.3346 L 36.9581,-70.147 L 36.8995,-70.109
 L 36.6084,-69.9163 L 36.5504,-69.8772 L 36.2628,-69.6795 L 36.2056,-69.6395 L 35.9215,-69.4368 L 35.865,-69.3958
 L 35.5844,-69.1881 L 35.5287,-69.1461 L 35.2518,-68.9336 L 35.1967,-68.8906 L 34.9235,-68.6733 L 34.8693,-68.6294
 L 34.6,-68.4074 L 34.5464,-68.3625 L 34.281,-68.1358 L 34.2283,-68.09 L 33.9669,-67.8587 L 33.915,-67.812
 L 33.6577,-67.5762 L 33.6067,-67.5287 L 33.3535,-67.2884 L 33.3033,-67.2399 L 33.0543,-66.9952 L 33.0048,-66.9457
 L 32.7601,-66.6967 L 32.7116,-66.6465 L 32.4713,-66.3933 L 32.4238,-66.3423 L 32.188,-66.085 L 32.1413,-66.0331
 L 31.91,-65.7717 L 31.8642,-65.719 L 31.6375,-65.4536 L 31.5926,-65.4 L 31.3706,-65.1307 L 31.3267,-65.0765
 L 31.1094,-64.8033 L 31.0664,-64.7482 L 30.8539,-64.4713 L 30.8119,-64.4156 L 30.6042,-64.135 L 30.5632,-64.0785
 L 30.3605,-63.7944 L 30.3205,-63.7372 L 30.1228,-63.4496 L 30.0837,-63.3916 L 29.891,-63.1005 L 29.853,-63.0419
 L 29.6654,-62.7475 L 29.6285,-62.6884 L 29.4461,-62.3908 L 29.4101,-62.3309 L 29.233,-62.0301 L 29.1981,-61.9697
 L 29.0262,-61.6659 L 28.9924,-61.6049 L 28.8258,-61.2981 L 28.793,-61.2364 L 28.6318,-60.9268 L 28.6001,-60.8645
 L 28.4444,-60.5521 L 28.4138,-60.4894 L 28.2635,-60.1744 L 28.234,-60.1112 L 28.0893,-59.7935 L 28.0609,-59.7298
 L 27.9217,-59.4097 L 27.8944,-59.3453 L 27.7608,-59.0228 L 27.7347,-58.9581 L 27.6067,-58.6334 L 27.5817,-58.5681
 L 27.4594,-58.2411 L 27.4356,-58.1757 L 27.3191,-57.8467 L 27.2963,-57.7805 L 27.1855,-57.4494 L 27.164,-57.3832
 L 27.0591,-57.0503 L 27.0386,-56.9835 L 26.9395,-56.6488 L 26.9203,-56.5818 L 26.827,-56.2454 L 26.8089,-56.1779
 L 26.7215,-55.84 L 26.7046,-55.7722 L 26.6231,-55.4327 L 26.6074,-55.3647 L 26.5319,-55.024 L 26.5174,-54.9557
 L 26.4478,-54.6137 L 26.4344,-54.5452 L 26.3708,-54.2019 L 26.3587,-54.133 L 26.3011,-53.7887 L 26.2902,-53.72
 L 26.2386,-53.3748 L 26.2289,-53.3056 L 26.1833,-52.9595 L 26.1748,-52.8901 L 26.1353,-52.5433 L 26.128,-52.474
 L 26.0945,-52.1266 L 26.0884,-52.057 L 26.0611,-51.709 L 26.0562,-51.6392 L 26.0349,-51.2908 L 26.0312,-51.2212
 L 26.016,-50.8725 L 26.0136,-50.8027 L 26.0044,-50.4538 L 26.0032,-50.384 L 26.0002,-50.035 L 26.0002,-49.965
 L 26.0032,-49.616 L 26.0044,-49.5462 L 26.0136,-49.1973 L 26.016,-49.1275 L 26.0312,-48.7788 L 26.0349,-48.7092
 L 26.0562,-48.3608 L 26.0611,-48.291 L 26.0884,-47.943 L 26.0945,-47.8734 L 26.128,-47.526 L 26.1353,-47.4567
 L 26.1748,-47.1099 L 26.1833,-47.0405 L 26.2289,-46.6944 L 26.2386,-46.6252 L 26.2902,-46.28 L 26.3011,-46.2113
 L 26.3587,-45.867 L 26.3708,-45.7981 L 26.4344,-45.4548 L 26.4478,-45.3863 L 26.5174,-45.0443 L 26.5319,-44.976
 L 26.6074,-44.6353 L 26.6231,-44.5673 L 26.7046,-44.2278 L 26.7215,-44.16 L 26.8089,-43.8221 L 26.827,-43.7546
 L 26.9203,-43.4182 L 26.9395,-43.3512 L 27.0386,-43.0165 L 27.0591,-42.9497 L 27.164,-42.6168 L 27.1855,-42.5506
 L 27.2963,-42.2195 L 27.3191,-42.1533 L 27.4356,-41.8243 L 27.4594,-41.7589 L 27.5817,-41.4319 L 27.6067,-41.3666
 L 27.7347,-41.0419 L 27.7608,-40.9772 L 27.8944,-40.6547 L 27.9217,-40.5903 L 28.0609,-40.2702 L 28.0893,-40.2065
 L 28.234,-39.8888 L 28.2635,-39.8256 L 28.4138,-39.5106 L 28.4444,-39.4479 L 28.6001,-39.1355 L 28.6318,-39.0732
 L 28.793,-38.7636 L 28.8258,-38.7019 L 28.9924,-38.3951 L 29.0262,-38.3341 L 29.1981,-38.0303 L 29.233,-37.9699
 L 29.4101,-37.6691 L 29.4461,-37.6092 L 29.6285,-37.3116 L 29.6654,-37.2525 L 29.853,-36.9581 L 29.891,-36.8995
 L 30.0837,-36.6084 L 30.1228,-36.5504 L 30.3205,-36.2628 L 30.3605,-36.2056 L 30.5632,-35.9215 L 30.6042,-35.865
 L 30.8119,-35.5844 L 30.8539,-35.5287 L 31.0664,-35.2518 L 31.1094,-35.1967 L 31.3267,-34.9235 L 31.3706,-34.8693
 L 31.5926,-34.6 L 31.6375,-34.5464 L 31.8642,-34.281 L 31.91,-34.2283 L 32.1413,-33.9669 L 32.188,-33.915
 L 32.4238,-33.6577 L 32.4713,-33.6067 L 32.7116,-33.3535 L 32.7601,-33.3033 L 33.0048,-33.0543 L 33.0543,-33.0048
 L 33.3033,-32.7601 L 33.3535,-32.7116 L 33.6067,-32.4713 L 33.6577,-32.4238 L 33.915,-32.188 L 33.9669,-32.1413
 L 34.2283,-31.91 L 34.281,-31.8642 L 34.5464,-31.6375 L 34.6,-31.5926 L 34.8693,-31.3706 L 34.9235,-31.3267
 L 35.1967,-31.1094 L 35.2518,-31.0664 L 35.5287,-30.8539 L 35.5844,-30.8119 L 35.865,-30.6042 L 35.9215,-30.5632
 L 36.2056,-30.3605 L 36.2628,-30.3205 L 36.5504,-30.1228 L 36.6084,-30.0837 L 36.8995,-29.891 L 36.9581,-29.853
 L 37.2525,-29.6654 L 37.3116,-29.6285 L 37.6092,-29.4461 L 37.6691,-29.4101 L 37.9699,-29.233 L 38.0303,-29.1981
 L 38.3341,-29.0262 L 38.3951,-28.9924 L 38.7019,-28.8258 L 38.7636,-28.793 L 39.0732,-28.6318 L 39.1355,-28.6001
 L 39.4479,-28.4444 L 39.5106,-28.4138 L 39.8256,-28.2635 L 39.8888,-28.234 L 40.2065,-28.0893 L 40.2702,-28.0609
 L 40.5903,-27.9217 L 40.6547,-27.8944 L 40.9772,-27.7608 L 41.0419,-27.7347 L 41.3666,-27.6067 L 41.4319,-27.5817
 L 41.7589,-27.4594 L 41.8243,-27.4356 L 42.1533,-27.3191 L 42.2195,-27.2963 L 42.5506,-27.1855 L 42.6168,-27.164
 L 42.9497,-27.0591 L 43.0165,-27.0386 L 43.3512,-26.9395 L 43.4182,-26.9203 L 43.7546,-26.827 L 43.8221,-26.8089
 L 44.16,-26.7215 L 44.2278,-26.7046 L 44.5673,-26.6231 L 44.6353,-26.6074 L 44.976,-26.5319 L 45.0443,-26.5174
 L 45.3863,-26.4478 L 45.4548,-26.4344 L 45.7981,-26.3708 L 45.867,-26.3587 L 46.2113,-26.3011 L 46.28,-26.2902
 L 46.6252,-26.2386 L 46.6944,-26.2289 L 47.0405,-26.1833 L 47.1099,-26.1748 L 47.4567,-26.1353 L 47.526,-26.128
 L 47.8734,-26.0945 L 47.943,-26.0884 L 48.291,-26.0611 L 48.3608,-26.0562 L 48.7092,-26.0349 L 48.7788,-26.0312
 L 49.1275,-26.016 L 49.1973,-26.0136 L 49.5462,-26.0044 L 49.616,-26.0032 L 49.965,-26.0002 L 50.035,-26.0002
 z
M 49.651,-30.0031 L 49.302,-30.0122 L 48.9533,-30.0274 L 48.6049,-30.0487 L 48.2569,-30.0761 L 47.9094,-30.1096
 L 47.5626,-30.1491 L 47.2166,-30.1946 L 46.8713,-30.2462 L 46.527,-30.3038 L 46.1838,-30.3675 L 45.8418,-30.4371
 L 45.501,-30.5126 L 45.1616,-30.5941 L 44.8236,-30.6815 L 44.4873,-30.7748 L 44.1526,-30.8739 L 43.8197,-30.9789
 L 43.4886,-31.0896 L 43.1596,-31.2062 L 42.8326,-31.3284 L 42.5079,-31.4563 L 42.1854,-31.5899 L 41.8653,-31.7291
 L 41.5476,-31.8739 L 41.2326,-32.0241 L 40.9202,-32.1799 L 40.6106,-32.341 L 40.3038,-32.5076 L 40,-32.6795
 L 39.6992,-32.8567 L 39.4016,-33.039 L 39.1072,-33.2266 L 38.8161,-33.4193 L 38.5285,-33.617 L 38.2443,-33.8197
 L 37.9637,-34.0273 L 37.6868,-34.2398 L 37.4136,-34.4571 L 37.1443,-34.6791 L 36.8788,-34.9058 L 36.6174,-35.1371
 L 36.36,-35.3729 L 36.1068,-35.6132 L 35.8579,-35.8579 L 35.6132,-36.1068 L 35.3729,-36.36 L 35.1371,-36.6174
 L 34.9058,-36.8788 L 34.6791,-37.1443 L 34.4571,-37.4136 L 34.2398,-37.6868 L 34.0273,-37.9637 L 33.8197,-38.2443
 L 33.617,-38.5285 L 33.4193,-38.8161 L 33.2266,-39.1072 L 33.039,-39.4016 L 32.8567,-39.6992 L 32.6795,-40
 L 32.5076,-40.3038 L 32.341,-40.6106 L 32.1799,-40.9202 L 32.0241,-41.2326 L 31.8739,-41.5476 L 31.7291,-41.8653
 L 31.5899,-42.1854 L 31.4563,-42.5079 L 31.3284,-42.8326 L 31.2062,-43.1596 L 31.0896,-43.4886 L 30.9789,-43.8197
 L 30.8739,-44.1526 L 30.7748,-44.4873 L 30.6815,-44.8236 L 30.5941,-45.1616 L 30.5126,-45.501 L 30.4371,-45.8418
 L 30.3675,-46.1838 L 30.3038,-46.527 L 30.2462,-46.8713 L 30.1946,-47.2166 L 30.1491,-47.5626 L 30.1096,-47.9094
 L 30.0761,-48.2569 L 30.0487,-48.6049 L 30.0274,-48.9533 L 30.0122,-49.302 L 30.0031,-49.651 L 30,-50
 L 30.0031,-50.349 L 30.0122,-50.698 L 30.0274,-51.0467 L 30.0487,-51.3951 L 30.0761,-51.7431 L 30.1096,-52.0906
 L 30.1491,-52.4374 L 30.1946,-52.7834 L 30.2462,-53.1287 L 30.3038,-53.473 L 30.3675,-53.8162 L 30.4371,-54.1582
 L 30.5126,-54.499 L 30.5941,-54.8384 L 30.6815,-55.1764 L 30.7748,-55.5127 L 30.8739,-55.8474 L 30.9789,-56.1803
 L 31.0896,-56.5114 L 31.2062,-56.8404 L 31.3284,-57.1674 L 31.4563,-57.4921 L 31.5899,-57.8146 L 31.7291,-58.1347
 L 31.8739,-58.4524 L 32.0241,-58.7674 L 32.1799,-59.0798 L 32.341,-59.3894 L 32.5076,-59.6962 L 32.6795,-60
 L 32.8567,-60.3008 L 33.039,-60.5984 L 33.2266,-60.8928 L 33.4193,-61.1839 L 33.617,-61.4715 L 33.8197,-61.7557
 L 34.0273,-62.0363 L 34.2398,-62.3132 L 34.4571,-62.5864 L 34.6791,-62.8557 L 34.9058,-63.1212 L 35.1371,-63.3826
 L 35.3729,-63.64 L 35.6132,-63.8932 L 35.8579,-64.1421 L 36.1068,-64.3868 L 36.36,-64.6271 L 36.6174,-64.8629
 L 36.8788,-65.0942 L 37.1443,-65.3209 L 37.4136,-65.5429 L 37.6868,-65.7602 L 37.9637,-65.9727 L 38.2443,-66.1803
 L 38.5285,-66.383 L 38.8161,-66.5807 L 39.1072,-66.7734 L 39.4016,-66.961 L 39.6992,-67.1433 L 40,-67.3205
 L 40.3038,-67.4924 L 40.6106,-67.659 L 40.9202,-67.8201 L 41.2326,-67.9759 L 41.5476,-68.1261 L 41.8653,-68.2709
 L 42.1854,-68.4101 L 42.5079,-68.5437 L 42.8326,-68.6716 L 43.1596,-68.7938 L 43.4886,-68.9104 L 43.8197,-69.0211
 L 44.1526,-69.1261 L 44.4873,-69.2252 L 44.8236,-69.3185 L 45.1616,-69.4059 L 45.501,-69.4874 L 45.8418,-69.5629
 L 46.1838,-69.6325 L 46.527,-69.6962 L 46.8713,-69.7538 L 47.2166,-69.8054 L 47.5626,-69.8509 L 47.9094,-69.8904
 L 48.2569,-69.9239 L 48.6049,-69.9513 L 48.9533,-69.9726 L 49.302,-69.9878 L 49.651,-69.9969 L 50,-70
 L 50.349,-69.9969 L 50.698,-69.9878 L 51.0467,-69.9726 L 51.3951,-69.9513 L 51.7431,-69.9239 L 52.0906,-69.8904
 L 52.4374,-69.8509 L 52.7834,-69.8054 L 53.1287,-69.7538 L 53.473,-69.6962 L 53.8162,-69.6325 L 54.1582,-69.5629
 L 54.499,-69.4874 L 54.8384,-69.4059 L 55.1764,-69.3185 L 55.5127,-69.2252 L 55.8474,-69.1261 L 56.1803,-69.0211
 L 56.5114,-68.9104 L 56.8404,-68.7938 L 57.1674,-68.6716 L 57.4921,-68.5437 L 57.8146,-68.4101 L 58.1347,-68.2709
 L 58.4524,-68.1261 L 58.7674,-67.9759 L 59.0798,-67.8201 L 59.3894,-67.659 L 59.6962,-67.4924 L 60,-67.3205
 L 60.3008,-67.1433 L 60.5984,-66.961 L 60.8928,-66.7734 L 61.1839,-66.5807 L 61.4715,-66.383 L 61.7557,-66.1803
 L 62.0363,-65.9727 L 62.3132,-65.7602 L 62.5864,-65.5429 L 62.8557,-65.3209 L 63.1212,-65.0942 L 63.3826,-64.8629
 L 63.64,-64.6271 L 63.8932,-64.3868 L 64.1421,-64.1421 L 64.3868,-63.8932 L 64.6271,-63.64 L 64.8629,-63.3826
 L 65.0942,-63.1212 L 65.3209,-62.8557 L 65.5429,-62.5864 L 65.7602,-62.3132 L 65.9727,-62.0363 L 66.1803,-61.7557
 L 66.383,-61.4715 L 66.5807,-61.1839 L 66.7734,-60.8928 L 66.961,-60.5984 L 67.1433,-60.3008 L 67.3205,-60
 L 67.4924,-59.6962 L 67.659,-59.3894 L 67.8201,-59.0798 L 67.9759,-58.7674 L 68.1261,-58.4524 L 68.2709,-58.1347
 L 68.4101,-57.8146 L 68.5437,-57.4921 L 68.6716,-57.1674 L 68.7938,-56.8404 L 68.9104,-56.5114 L 69.0211,-56.1803
 L 69.1261,-55.8474 L 69.2252,-55.5127 L 69.3185,-55.1764 L 69.4059,-54.8384 L 69.4874,-54.499 L 69.5629,-54.1582
 L 69.6325,-53.8162 L 69.6962,-53.473 L 69.7538,-53.1287 L 69.8054,-52.7834 L 69.8509,-52.4374 L 69.8904,-52.0906
 L 69.9239,-51.7431 L 69.9513,-51.3951 L 69.9726,-51.0467 L 69.9878,-50.698 L 69.9969,-50.349 L 70,-50
 L 69.9969,-49.651 L 69.9878,-49.302 L 69.9726,-48.9533 L 69.9513,-48.6049 L 69.9239,-48.2569 L 69.8904,-47.9094
 L 69.8509,-47.5626 L 69.8054,-47.2166 L 69.7538,-46.8713 L 69.6962,-46.527 L 69.6325,-46.1838 L 69.5629,-45.8418
 L 69.4874,-45.501 L 69.4059,-45.1616 L 69.3185,-44.8236 L 69.2252,-44.4873 L 69.1261,-44.1526 L 69.0211,-43.8197
 L 68.9104,-43.4886 L 68.7938,-43.1596 L 68.6716,-42.8326 L 68.5437,-42.5079 L 68.4101,-42.1854 L 68.2709,-41.8653
 L 68.1261,-41.5476 L 67.9759,-41.2326 L 67.8201,-40.9202 L 67.659,-40.6106 L 67.4924,-40.3038 L 67.3205,-40
 L 67.1433,-39.6992 L 66.961,-39.4016 L 66.7734,-39.1072 L 66.5807,-38.8161 L 66.383,-38.5285 L 66.1803,-38.2443
 L 65.9727,-37.9637 L 65.7602,-37.6868 L 65.5429,-37.4136 L 65.3209,-37.1443 L 65.0942,-36.8788 L 64.8629,-36.6174
 L 64.6271,-36.36 L 64.3868,-36.1068 L 64.1421,-35.8579 L 63.8932,-35.6132 L 63.64,-35.3729 L 63.3826,-35.1371
 L 63.1212,-34.9058 L 62.8557,-34.6791 L 62.5864,-34.4571 L 62.3132,-34.2398 L 62.0363,-34.0273 L 61.7557,-33.8197
 L 61.4715,-33.617 L 61.1839,-33.4193 L 60.8928,-33.2266 L 60.5984,-33.039 L 60.3008,-32.8567 L 60,-32.6795
 L 59.6962,-32.5076 L 59.3894,-32.341 L 59.0798,-32.1799 L 58.7674,-32.0241 L 58.4524,-31.8739 L 58.1347,-31.7291
 L 57.8146,-31.5899 L 57.4921,-31.4563 L 57.1674,-31.3284 L 56.8404,-31.2062 L 56.5114,-31.0896 L 56.1803,-30.9789
 L 55.8474,-30.8739 L 55.5127,-30.7748 L 55.1764,-30.6815 L 54.8384,-30.5941 L 54.499,-30.5126 L 54.1582,-30.4371
 L 53.8162,-30.3675 L 53.473,-30.3038 L 53.1287,-30.2462 L 52.7834,-30.1946 L 52.4374,-30.1491 L 52.0906,-30.1096
 L 51.7431,-30.0761 L 51.3951,-30.0487 L 51.0467,-30.0274 L 50.698,-30.0122 L 50.349,-30.0031 L 50,-30
 z
" stroke="black" fill="black" stroke-width="0.5"/>
</svg>
