<?xml version="1.0" standalone="no"?>
<!DOCTYPE svg PUBLIC "-//W3C//DTD SVG 1.1//EN" "http://www.w3.org/Graphics/SVG/1.1/DTD/svg11.dtd">
<svg width="100mm" height="100mm" viewBox="-8 -108 116 116" xmlns="http://www.w3.org/2000/svg" version="1.1">
<title>OpenSCAD Model</title>
<path d="
M 70.1495,-13.3646 L 70.3473,-13.3894 L 70.5417,-13.4337 L 70.7307,-13.4972 L 70.9124,-13.5793 L 71.0851,-13.6789
 L 71.247,-13.7953 L 71.3965,-13.9273 L 71.5321,-14.0734 L 71.6525,-14.2323 L 71.7564,-14.4025 L 71.8429,-14.5821
 L 71.9111,-14.7695 L 71.9603,-14.9627 L 71.9901,-15.1599 L 72,-15.359 L 71.9901,-15.5581 L 71.9603,-15.7553
 L 71.9111,-15.9485 L 71.8429,-16.1359 L 71.7564,-16.3155 L 54.4781,-46.2424 L 63.4584,-42.9738 L 63.6503,-42.9198
 L 63.8467,-42.8852 L 64.0455,-42.8703 L 64.2448,-42.8753 L 64.4427,-42.9001 L 64.6371,-42.9445 L 64.8261,-43.008
 L 65.0078,-43.09 L 65.1805,-43.1897 L 65.3424,-43.306 L 65.4919,-43.438 L 65.6275,-43.5841 L 65.7479,-43.7431
 L 65.8518,-43.9132 L 65.9383,-44.0928 L 66.0065,-44.2802 L 66.0557,-44.4734 L 66.0854,-44.6706 L 66.0954,-44.8697
 L 66.0854,-45.0688 L 66.0557,-45.266 L 66.0065,-45.4592 L 65.9383,-45.6466 L 65.8518,-45.8262 L 65.7479,-45.9964
 L 65.6275,-46.1553 L 65.4919,-46.3014 L 65.3424,-46.4334 L 65.1805,-46.5498 L 65.0078,-46.6494 L 64.8261,-46.7315
 L 55.8458,-50 L 64.8261,-53.2685 L 65.0078,-53.3506 L 65.1805,-53.4502 L 65.3424,-53.5666 L 65.4919,-53.6986
 L 65.6275,-53.8447 L 65.7479,-54.0036 L 65.8518,-54.1738 L 65.9383,-54.3534 L 66.0065,-54.5408 L 66.0557,-54.734
 L 66.0854,-54.9312 L 66.0954,-55.1303 L 66.0854,-55.3294 L 66.0557,-55.5266 L 66.0065,-55.7198 L 65.9383,-55.9072
 L 65.8518,-56.0868 L 65.7479,-56.2569 L 65.6275,-56.4159 L 65.4919,-56.562 L 65.3424,-56.694 L 65.1805,-56.8103
 L 65.0078,-56.91 L 64.8261,-56.992 L 64.6371,-57.0555 L 64.4427,-57.0999 L 64.2448,-57.1247 L 64.0455,-57.1297
 L 63.8467,-57.1148 L 63.6503,-57.0802 L 63.4584,-57.0262 L 54.4781,-53.7576 L 71.7564,-83.6845 L 71.8429,-83.8641
 L 71.9111,-84.0515 L 71.9603,-84.2447 L 71.9901,-84.4419 L 72,-84.641 L 71.9901,-84.8401 L 71.9603,-85.0373
 L 71.9111,-85.2305 L 71.8429,-85.4179 L 71.7564,-85.5975 L 71.6525,-85.7677 L 71.5321,-85.9266 L 71.3965,-86.0727
 L 71.247,-86.2047 L 71.0851,-86.3211 L 70.9124,-86.4207 L 70.7307,-86.5028 L 70.5417,-86.5663 L 70.3473,-86.6106
 L 70.1495,-86.6354 L 69.9501,-86.6404 L 69.7513,-86.6255 L 69.5549,-86.5909 L 69.363,-86.5369 L 69.1774,-86.464
 L 69,-86.3731 L 68.8325,-86.2649 L 68.6766,-86.1406 L 68.5339,-86.0014 L 68.4057,-85.8486 L 68.2934,-85.6839
 L 50,-53.9988 L 31.7565,-85.5975 L 31.6525,-85.7677 L 31.5321,-85.9266 L 31.3965,-86.0727 L 31.247,-86.2047
 L 31.0851,-86.3211 L 30.9124,-86.4207 L 30.7307,-86.5028 L 30.5417,-86.5663 L 30.3473,-86.6106 L 30.1495,-86.6354
 L 29.9501,-86.6404 L 29.7513,-86.6255 L 29.555,-86.5909 L 29.363,-86.5369 L 29.1774,-86.464 L 29,-86.3731
 L 28.8325,-86.2649 L 28.6766,-86.1406 L 28.5339,-86.0014 L 28.4057,-85.8486 L 28.2934,-85.6839 L 28.1981,-85.5088
 L 28.1206,-85.325 L 28.0619,-85.1345 L 28.0223,-84.9391 L 28.0025,-84.7407 L 28.0025,-84.5413 L 28.0223,-84.3429
 L 28.0619,-84.1475 L 28.1206,-83.957 L 28.1981,-83.7732 L 28.2934,-83.5981 L 45.5219,-53.7576 L 36.6353,-56.992
 L 36.4463,-57.0555 L 36.2519,-57.0999 L 36.0541,-57.1247 L 35.8548,-57.1297 L 35.6559,-57.1148 L 35.4596,-57.0802
 L 35.2676,-57.0262 L 35.082,-56.9533 L 34.9046,-56.8624 L 34.7371,-56.7542 L 34.5813,-56.6299 L 34.4385,-56.4906
 L 34.3103,-56.3379 L 34.198,-56.1732 L 34.1027,-55.9981 L 34.0252,-55.8143 L 33.9665,-55.6238 L 33.927,-55.4284
 L 33.9071,-55.23 L 33.9071,-55.0306 L 33.927,-54.8322 L 33.9665,-54.6368 L 34.0252,-54.4463 L 34.1027,-54.2625
 L 34.198,-54.0874 L 34.3103,-53.9227 L 34.4385,-53.7699 L 34.5813,-53.6307 L 34.7371,-53.5064 L 34.9046,-53.3982
 L 35.082,-53.3073 L 35.2676,-53.2344 L 44.1542,-50 L 35.2676,-46.7656 L 35.082,-46.6927 L 34.9046,-46.6018
 L 34.7371,-46.4936 L 34.5813,-46.3693 L 34.4385,-46.2301 L 34.3103,-46.0773 L 34.198,-45.9126 L 34.1027,-45.7375
 L 34.0252,-45.5537 L 33.9665,-45.3632 L 33.927,-45.1678 L 33.9071,-44.9694 L 33.9071,-44.77 L 33.927,-44.5716
 L 33.9665,-44.3762 L 34.0252,-44.1857 L 34.1027,-44.0019 L 34.198,-43.8268 L 34.3103,-43.6621 L 34.4385,-43.5094
 L 34.5813,-43.3701 L 34.7371,-43.2458 L 34.9046,-43.1376 L 35.082,-43.0467 L 35.2676,-42.9738 L 35.4596,-42.9198
 L 35.6559,-42.8852 L 35.8548,-42.8703 L 36.0541,-42.8753 L 36.2519,-42.9001 L 36.4463,-42.9445 L 36.6353,-43.008
 L 45.5219,-46.2424 L 28.2934,-16.4019 L 28.1981,-16.2268 L 28.1206,-16.043 L 28.0619,-15.8525 L 28.0223,-15.6571
 L 28.0025,-15.4587 L 28.0025,-15.2593 L 28.0223,-15.0609 L 28.0619,-14.8655 L 28.1206,-14.675 L 28.1981,-14.4912
 L 28.2934,-14.3161 L 28.4057,-14.1514 L 28.5339,-13.9986 L 28.6766,-13.8594 L 28.8325,-13.7351 L 29,-13.6269
 L 29.1774,-13.536 L 29.363,-13.4631 L 29.555,-13.4091 L 29.7513,-13.3745 L 29.9501,-13.3596 L 30.1495,-13.3646
 L 30.3473,-13.3894 L 30.5417,-13.4337 L 30.7307,-13.4972 L 30.9124,-13.5793 L 31.0851,-13.6789 L 31.247,-13.7953
 L 31.3965,-13.9273 L 31.5321,-14.0734 L 31.6525,-14.2323 L 31.7565,-14.4025 L 50,-46.0012 L 68.2934,-14.3161
 L 68.4057,-14.1514 L 68.5339,-13.9986 L 68.6766,-13.8594 L 68.8325,-13.7351 L 69,-13.6269 L 69.1774,-13.536
 L 69.363,-13.4631 L 69.5549,-13.4091 L 69.7513,-13.3745 L 69.9501,-13.3596 z
" stroke="black" fill="black" stroke-width="0.5"/>
</svg>
