<?xml version="1.0" standalone="no"?>
<!DOCTYPE svg PUBLIC "-//W3C//DTD SVG 1.1//EN" "http://www.w3.org/Graphics/SVG/1.1/DTD/svg11.dtd">
<svg width="100mm" height="100mm" viewBox="-8 -108 116 116" xmlns="http://www.w3.org/2000/svg" version="1.1">
<title>OpenSCAD Model</title>
<path d="
M 90,-50 L 89.9939,-50.6981 L 89.9756,-51.396 L 89.9452,-52.0934 L 89.9026,-52.7903 L 89.8478,-53.4862
 L 89.7809,-54.1811 L 89.7018,-54.8748 L 89.6107,-55.5669 L 89.5075,-56.2574 L 89.3923,-56.9459 L 89.2651,-57.6324
 L 89.1259,-58.3165 L 88.9748,-58.998 L 88.8118,-59.6769 L 88.637,-60.3528 L 88.4505,-61.0255 L 88.2522,-61.6949
 L 88.0423,-62.3607 L 87.8207,-63.0227 L 87.5877,-63.6808 L 87.3432,-64.3347 L 87.0874,-64.9843 L 86.8202,-65.6292
 L 86.5418,-66.2695 L 86.2523,-66.9047 L 85.9518,-67.5348 L 85.6403,-68.1596 L 85.3179,-68.7789 L 84.9848,-69.3924
 L 84.641,-70 L 84.2867,-70.6015 L 83.9219,-71.1968 L 83.5468,-71.7856 L 83.1615,-72.3677 L 82.7661,-72.9431
 L 82.3607,-73.5114 L 81.9454,-74.0726 L 81.5204,-74.6265 L 81.0858,-75.1728 L 80.6418,-75.7115 L 80.1884,-76.2424
 L 79.7258,-76.7652 L 79.2541,-77.2799 L 78.7736,-77.7863 L 78.2843,-78.2843 L 77.7863,-78.7736 L 77.2799,-79.2541
 L 76.7652,-79.7258 L 76.2424,-80.1884 L 75.7115,-80.6418 L 75.1728,-81.0858 L 74.6265,-81.5204 L 74.0726,-81.9454
 L 73.5114,-82.3607 L 72.9431,-82.7661 L 72.3677,-83.1615 L 71.7856,-83.5468 L 71.1968,-83.9219 L 70.6015,-84.2867
 L 70,-84.641 L 69.3924,-84.9848 L 68.7789,-85.3179 L 68.1596,-85.6403 L 67.5348,-85.9518 L 66.9047,-86.2523
 L 66.2695,-86.5418 L 65.6292,-86.8202 L 64.9843,-87.0874 L 64.3347,-87.3432 L 63.6808,-87.5877 L 63.0227,-87.8207
 L 62.3607,-88.0423 L 61.6949,-88.2522 L 61.0255,-88.4505 L 60.3528,-88.637 L 59.6769,-88.8118 L 58.998,-88.9748
 L 58.3165,-89.1259 L 57.6324,-89.2651 L 56.9459,-89.3923 L 56.2574,-89.5075 L 55.5669,-89.6107 L 54.8748,-89.7018
 L 54.1811,-89.7809 L 53.4862,-89.8478 L 52.7903,-89.9026 L 52.0934,-89.9452 L 51.396,-89.9756 L 50.6981,-89.9939
 L 50,-90 L 49.3019,-89.9939 L 48.604,-89.9756 L 47.9066,-89.9452 L 47.2097,-89.9026 L 46.5138,-89.8478
 L 45.8189,-89.7809 L 45.1252,-89.7018 L 44.4331,-89.6107 L 43.7426,-89.5075 L 43.0541,-89.3923 L 42.3676,-89.2651
 L 41.6835,-89.1259 L 41.002,-88.9748 L 40.3231,-88.8118 L 39.6472,-88.637 L 38.9745,-88.4505 L 38.3051,-88.2522
 L 37.6393,-88.0423 L 36.9773,-87.8207 L 36.3192,-87.5877 L 35.6653,-87.3432 L 35.0157,-87.0874 L 34.3708,-86.8202
 L 33.7305,-86.5418 L 33.0953,-86.2523 L 32.4652,-85.9518 L 31.8404,-85.6403 L 31.2211,-85.3179 L 30.6076,-84.9848
 L 30,-84.641 L 29.3985,-84.2867 L 28.8032,-83.9219 L 28.2144,-83.5468 L 27.6323,-83.1615 L 27.0569,-82.7661
 L 26.4886,-82.3607 L 25.9274,-81.9454 L 25.3735,-81.5204 L 24.8272,-81.0858 L 24.2885,-80.6418 L 23.7576,-80.1884
 L 23.2348,-79.7258 L 22.7201,-79.2541 L 22.2137,-78.7736 L 21.7157,-78.2843 L 21.2264,-77.7863 L 20.7459,-77.2799
 L 20.2742,-76.7652 L 19.8116,-76.2424 L 19.3582,-75.7115 L 18.9142,-75.1728 L 18.4796,-74.6265 L 18.0546,-74.0726
 L 17.6393,-73.5114 L 17.2339,-72.9431 L 16.8385,-72.3677 L 16.4532,-71.7856 L 16.0781,-71.1968 L 15.7133,-70.6015
 L 15.359,-70 L 15.0152,-69.3924 L 14.6821,-68.7789 L 14.3597,-68.1596 L 14.0482,-67.5348 L 13.7477,-66.9047
 L 13.4582,-66.2695 L 13.1798,-65.6292 L 12.9126,-64.9843 L 12.6568,-64.3347 L 12.4123,-63.6808 L 12.1793,-63.0227
 L 11.9577,-62.3607 L 11.7478,-61.6949 L 11.5495,-61.0255 L 11.363,-60.3528 L 11.1882,-59.6769 L 11.0252,-58.998
 L 10.8741,-58.3165 L 10.7349,-57.6324 L 10.6077,-56.9459 L 10.4925,-56.2574 L 10.3893,-55.5669 L 10.2982,-54.8748
 L 10.2191,-54.1811 L 10.1522,-53.4862 L 10.0974,-52.7903 L 10.0548,-52.0934 L 10.0244,-51.396 L 10.0061,-50.6981
 L 10,-50 L 10.0061,-49.3019 L 10.0244,-48.604 L 10.0548,-47.9066 L 10.0974,-47.2097 L 10.1522,-46.5138
 L 10.2191,-45.8189 L 10.2982,-45.1252 L 10.3893,-44.4331 L 10.4925,-43.7426 L 10.6077,-43.0541 L 10.7349,-42.3676
 L 10.8741,-41.6835 L 11.0252,-41.002 L 11.1882,-40.3231 L 11.363,-39.6472 L 11.5495,-38.9745 L 11.7478,-38.3051
 L 11.9577,-37.6393 L 12.1793,-36.9773 L 12.4123,-36.3192 L 12.6568,-35.6653 L 12.9126,-35.0157 L 13.1798,-34.3708
 L 13.4582,-33.7305 L 13.7477,-33.0953 L 14.0482,-32.4652 L 14.3597,-31.8404 L 14.6821,-31.2211 L 15.0152,-30.6076
 L 15.359,-30 L 15.7133,-29.3985 L 16.0781,-28.8032 L 16.4532,-28.2144 L 16.8385,-27.6323 L 17.2339,-27.0569
 L 17.6393,-26.4886 L 18.0546,-25.9274 L 18.4796,-25.3735 L 18.9142,-24.8272 L 19.3582,-24.2885 L 19.8116,-23.7576
 L 20.2742,-23.2348 L 20.7459,-22.7201 L 21.2264,-22.2137 L 21.7157,-21.7157 L 22.2137,-21.2264 L 22.7201,-20.7459
 L 23.2348,-20.2742 L 23.7576,-19.8116 L 24.2885,-19.3582 L 24.8272,-18.9142 L 25.3735,-18.4796 L 25.9274,-18.0546
 L 26.4886,-17.6393 L 27.0569,-17.2339 L 27.6323,-16.8385 L 28.2144,-16.4532 L 28.8032,-16.0781 L 29.3985,-15.7133
 L 30,-15.359 L 30.6076,-15.0152 L 31.2211,-14.6821 L 31.8404,-14.3597 L 32.4652,-14.0482 L 33.0953,-13.7477
 L 33.7305,-13.4582 L 34.3708,-13.1798 L 35.0157,-12.9126 L 35.6653,-12.6568 L 36.3192,-12.4123 L 36.9773,-12.1793
 L 37.6393,-11.9577 L 38.3051,-11.7478 L 38.9745,-11.5495 L 39.6472,-11.363 L 40.3231,-11.1882 L 41.002,-11.0252
 L 41.6835,-10.8741 L 42.3676,-10.7349 L 43.0541,-10.6077 L 43.7426,-10.4925 L 44.4331,-10.3893 L 45.1252,-10.2982
 L 45.8189,-10.2191 L 46.5138,-10.1522 L 47.2097,-10.0974 L 47.9066,-10.0548 L 48.604,-10.0244 L 49.3019,-10.0061
 L 50,-10 L 50.6981,-10.0061 L 51.396,-10.0244 L 52.0934,-10.0548 L 52.7903,-10.0974 L 53.4862,-10.1522
 L 54.1811,-10.2191 L 54.8748,-10.2982 L 55.5669,-10.3893 L 56.2574,-10.4925 L 56.9459,-10.6077 L 57.6324,-10.7349
 L 58.3165,-10.8741 L 58.998,-11.0252 L 59.6769,-11.1882 L 60.3528,-11.363 L 61.0255,-11.5495 L 61.6949,-11.7478
 L 62.3607,-11.9577 L 63.0227,-12.1793 L 63.6808,-12.4123 L 64.3347,-12.6568 L 64.9843,-12.9126 L 65.6292,-13.1798
 L 66.2695,-13.4582 L 66.9047,-13.7477 L 67.5348,-14.0482 L 68.1596,-14.3597 L 68.7789,-14.6821 L 69.3924,-15.0152
 L 70,-15.359 L 70.6015,-15.7133 L 71.1968,-16.0781 L 71.7856,-16.4532 L 72.3677,-16.8385 L 72.9431,-17.2339
 L 73.5114,-17.6393 L 74.0726,-18.0546 L 74.6265,-18.4796 L 75.1728,-18.9142 L 75.7115,-19.3582 L 76.2424,-19.8116
 L 76.7652,-20.2742 L 77.2799,-20.7459 L 77.7863,-21.2264 L 78.2843,-21.7157 L 78.7736,-22.2137 L 79.2541,-22.7201
 L 79.7258,-23.2348 L 80.1884,-23.7576 L 80.6418,-24.2885 L 81.0858,-24.8272 L 81.5204,-25.3735 L 81.9454,-25.9274
 L 82.3607,-26.4886 L 82.7661,-27.0569 L 83.1615,-27.6323 L 83.5468,-28.2144 L 83.9219,-28.8032 L 84.2867,-29.3985
 L 84.641,-30 L 84.9848,-30.6076 L 85.3179,-31.2211 L 85.6403,-31.8404 L 85.9518,-32.4652 L 86.2523,-33.0953
 L 86.5418,-33.7305 L 86.8202,-34.3708 L 87.0874,-35.0157 L 87.3432,-35.6653 L 87.5877,-36.3192 L 87.8207,-36.9773
 L 88.0423,-37.6393 L 88.2522,-38.3051 L 88.4505,-38.9745 L 88.637,-39.6472 L 88.8118,-40.3231 L 88.9748,-41.002
 L 89.1259,-41.6835 L 89.2651,-42.3676 L 89.3923,-43.0541 L 89.5075,-43.7426 L 89.6107,-44.4331 L 89.7018,-45.1252
 L 89.7809,-45.8189 L 89.8478,-46.5138 L 89.9026,-47.2097 L 89.9452,-47.9066 L 89.9756,-48.604 L 89.9939,-49.3019
 z
" stroke="black" fill="black" stroke-width="0.5"/>
</svg>
