<?xml version="1.0" standalone="no"?>
<!DOCTYPE svg PUBLIC "-//W3C//DTD SVG 1.1//EN" "http://www.w3.org/Graphics/SVG/1.1/DTD/svg11.dtd">
<svg width="100mm" height="100mm" viewBox="-8 -108 116 116" xmlns="http://www.w3.org/2000/svg" version="1.1">
<title>OpenSCAD Model</title>
<path d="
M 50.6458,-11.0055 L 50.7155,-11.0067 L 51.3262,-11.0227 L 51.3959,-11.0251 L 52.0062,-11.0518 L 52.076,-11.0554
 L 52.6857,-11.0927 L 52.7553,-11.0976 L 53.3643,-11.1455 L 53.4338,-11.1516 L 54.0419,-11.2102 L 54.1113,-11.2175
 L 54.7182,-11.2866 L 54.7875,-11.2951 L 55.3931,-11.3748 L 55.4622,-11.3846 L 56.0664,-11.4748 L 56.1355,-11.4858
 L 56.7379,-11.5866 L 56.8066,-11.5987 L 57.4072,-11.71 L 57.4759,-11.7234 L 58.0744,-11.8452 L 58.1426,-11.8596
 L 58.739,-11.9919 L 58.8071,-12.0076 L 59.4011,-12.1502 L 59.4687,-12.1671 L 60.0601,-12.32 L 60.1277,-12.3381
 L 60.7163,-12.5013 L 60.7833,-12.5206 L 61.369,-12.6941 L 61.4358,-12.7145 L 62.0184,-12.8982 L 62.0848,-12.9197
 L 62.6641,-13.1136 L 62.7301,-13.1363 L 63.3059,-13.3402 L 63.3715,-13.3641 L 63.9437,-13.578 L 64.0089,-13.603
 L 64.5772,-13.8269 L 64.642,-13.853 L 65.2063,-14.0868 L 65.2706,-14.1141 L 65.8307,-14.3577 L 65.8946,-14.3861
 L 66.4505,-14.6394 L 66.5137,-14.6689 L 67.065,-14.9319 L 67.1277,-14.9625 L 67.6744,-15.235 L 67.7367,-15.2668
 L 68.2785,-15.5488 L 68.3402,-15.5816 L 68.877,-15.8731 L 68.938,-15.9069 L 69.4696,-16.2077 L 69.5302,-16.2426
 L 70.0565,-16.5526 L 70.1164,-16.5886 L 70.6372,-16.9078 L 70.6963,-16.9447 L 71.2115,-17.2729 L 71.2701,-17.311
 L 71.7795,-17.6482 L 71.8374,-17.6872 L 72.3408,-18.0332 L 72.398,-18.0732 L 72.8953,-18.428 L 72.9517,-18.469
 L 73.4428,-18.8323 L 73.4986,-18.8744 L 73.9832,-19.2462 L 74.0382,-19.2892 L 74.5163,-19.6695 L 74.5705,-19.7134
 L 75.0418,-20.1019 L 75.0954,-20.1469 L 75.5599,-20.5436 L 75.6125,-20.5893 L 76.07,-20.9941 L 76.122,-21.0409
 L 76.5723,-21.4536 L 76.6234,-21.5011 L 77.0665,-21.9216 L 77.1166,-21.9701 L 77.5523,-22.3982 L 77.6018,-22.4477
 L 78.0299,-22.8834 L 78.0784,-22.9335 L 78.4989,-23.3766 L 78.5464,-23.4277 L 78.9591,-23.878 L 79.0059,-23.93
 L 79.4107,-24.3875 L 79.4564,-24.4401 L 79.8531,-24.9046 L 79.8981,-24.9582 L 80.2866,-25.4295 L 80.3305,-25.4837
 L 80.7108,-25.9618 L 80.7538,-26.0168 L 81.1256,-26.5014 L 81.1677,-26.5572 L 81.531,-27.0483 L 81.572,-27.1047
 L 81.9268,-27.602 L 81.9668,-27.6592 L 82.3128,-28.1626 L 82.3518,-28.2205 L 82.689,-28.7299 L 82.7271,-28.7885
 L 83.0553,-29.3037 L 83.0922,-29.3628 L 83.4114,-29.8836 L 83.4474,-29.9435 L 83.7574,-30.4698 L 83.7923,-30.5304
 L 84.0931,-31.062 L 84.1269,-31.123 L 84.4184,-31.6598 L 84.4512,-31.7215 L 84.7332,-32.2633 L 84.765,-32.3256
 L 85.0375,-32.8723 L 85.0681,-32.935 L 85.3311,-33.4863 L 85.3606,-33.5495 L 85.6139,-34.1054 L 85.6423,-34.1693
 L 85.8859,-34.7294 L 85.9132,-34.7937 L 86.147,-35.358 L 86.1731,-35.4228 L 86.397,-35.9911 L 86.422,-36.0563
 L 86.6359,-36.6285 L 86.6598,-36.6941 L 86.8637,-37.2699 L 86.8864,-37.3359 L 87.0803,-37.9152 L 87.1018,-37.9816
 L 87.2855,-38.5642 L 87.3059,-38.631 L 87.4794,-39.2167 L 87.4987,-39.2837 L 87.6619,-39.8723 L 87.68,-39.9399
 L 87.8329,-40.5313 L 87.8498,-40.5989 L 87.9924,-41.1929 L 88.0081,-41.261 L 88.1404,-41.8574 L 88.1548,-41.9256
 L 88.2766,-42.5241 L 88.29,-42.5928 L 88.4013,-43.1934 L 88.4134,-43.2621 L 88.5142,-43.8645 L 88.5252,-43.9336
 L 88.6154,-44.5378 L 88.6252,-44.6069 L 88.7049,-45.2125 L 88.7134,-45.2818 L 88.7825,-45.8887 L 88.7898,-45.9581
 L 88.8484,-46.5662 L 88.8545,-46.6357 L 88.9024,-47.2447 L 88.9073,-47.3143 L 88.9446,-47.924 L 88.9482,-47.9938
 L 88.9749,-48.6041 L 88.9773,-48.6738 L 88.9933,-49.2845 L 88.9945,-49.3542 L 88.9998,-49.965 L 88.9998,-50.035
 L 88.9945,-50.6458 L 88.9933,-50.7155 L 88.9773,-51.3262 L 88.9749,-51.3959 L 88.9482,-52.0062 L 88.9446,-52.076
 L 88.9073,-52.6857 L 88.9024,-52.7553 L 88.8545,-53.3643 L 88.8484,-53.4338 L 88.7898,-54.0419 L 88.7825,-54.1113
 L 88.7134,-54.7182 L 88.7049,-54.7875 L 88.6252,-55.3931 L 88.6154,-55.4622 L 88.5252,-56.0664 L 88.5142,-56.1355
 L 88.4134,-56.7379 L 88.4013,-56.8066 L 88.29,-57.4072 L 88.2766,-57.4759 L 88.1548,-58.0744 L 88.1404,-58.1426
 L 88.0081,-58.739 L 87.9924,-58.8071 L 87.8498,-59.4011 L 87.8329,-59.4687 L 87.68,-60.0601 L 87.6619,-60.1277
 L 87.4987,-60.7163 L 87.4794,-60.7833 L 87.3059,-61.369 L 87.2855,-61.4358 L 87.1018,-62.0184 L 87.0803,-62.0848
 L 86.8864,-62.6641 L 86.8637,-62.7301 L 86.6598,-63.3059 L 86.6359,-63.3715 L 86.422,-63.9437 L 86.397,-64.0089
 L 86.1731,-64.5772 L 86.147,-64.642 L 85.9132,-65.2063 L 85.8859,-65.2706 L 85.6423,-65.8307 L 85.6139,-65.8946
 L 85.3606,-66.4505 L 85.3311,-66.5137 L 85.0681,-67.065 L 85.0375,-67.1277 L 84.765,-67.6744 L 84.7332,-67.7367
 L 84.4512,-68.2785 L 84.4184,-68.3402 L 84.1269,-68.877 L 84.0931,-68.938 L 83.7923,-69.4696 L 83.7574,-69.5302
 L 83.4474,-70.0565 L 83.4114,-70.1164 L 83.0922,-70.6372 L 83.0553,-70.6963 L 82.7271,-71.2115 L 82.689,-71.2701
 L 82.3518,-71.7795 L 82.3128,-71.8374 L 81.9668,-72.3408 L 81.9268,-72.398 L 81.572,-72.8953 L 81.531,-72.9517
 L 81.1677,-73.4428 L 81.1256,-73.4986 L 80.7538,-73.9832 L 80.7108,-74.0382 L 80.3305,-74.5163 L 80.2866,-74.5705
 L 79.8981,-75.0418 L 79.8531,-75.0954 L 79.4564,-75.5599 L 79.4107,-75.6125 L 79.0059,-76.07 L 78.9591,-76.122
 L 78.5464,-76.5723 L 78.4989,-76.6234 L 78.0784,-77.0665 L 78.0299,-77.1166 L 77.6018,-77.5523 L 77.5523,-77.6018
 L 77.1166,-78.0299 L 77.0665,-78.0784 L 76.6234,-78.4989 L 76.5723,-78.5464 L 76.122,-78.9591 L 76.07,-79.0059
 L 75.6125,-79.4107 L 75.5599,-79.4564 L 75.0954,-79.8531 L 75.0418,-79.8981 L 74.5705,-80.2866 L 74.5163,-80.3305
 L 74.0382,-80.7108 L 73.9832,-80.7538 L 73.4986,-81.1256 L 73.4428,-81.1677 L 72.9517,-81.531 L 72.8953,-81.572
 L 72.398,-81.9268 L 72.3408,-81.9668 L 71.8374,-82.3128 L 71.7795,-82.3518 L 71.2701,-82.689 L 71.2115,-82.7271
 L 70.6963,-83.0553 L 70.6372,-83.0922 L 70.1164,-83.4114 L 70.0565,-83.4474 L 69.5302,-83.7574 L 69.4696,-83.7923
 L 68.938,-84.0931 L 68.877,-84.1269 L 68.3402,-84.4184 L 68.2785,-84.4512 L 67.7367,-84.7332 L 67.6744,-84.765
 L 67.1277,-85.0375 L 67.065,-85.0681 L 66.5137,-85.3311 L 66.4505,-85.3606 L 65.8946,-85.6139 L 65.8307,-85.6423
 L 65.2706,-85.8859 L 65.2063,-85.9132 L 64.642,-86.147 L 64.5772,-86.1731 L 64.0089,-86.397 L 63.9437,-86.422
 L 63.3715,-86.6359 L 63.3059,-86.6598 L 62.7301,-86.8637 L 62.6641,-86.8864 L 62.0848,-87.0803 L 62.0184,-87.1018
 L 61.4358,-87.2855 L 61.369,-87.3059 L 60.7833,-87.4794 L 60.7163,-87.4987 L 60.1277,-87.6619 L 60.0601,-87.68
 L 59.4687,-87.8329 L 59.4011,-87.8498 L 58.8071,-87.9924 L 58.739,-88.0081 L 58.1426,-88.1404 L 58.0744,-88.1548
 L 57.4759,-88.2766 L 57.4072,-88.29 L 56.8066,-88.4013 L 56.7379,-88.4134 L 56.1355,-88.5142 L 56.0664,-88.5252
 L 55.4622,-88.6154 L 55.3931,-88.6252 L 54.7875,-88.7049 L 54.7182,-88.7134 L 54.1113,-88.7825 L 54.0419,-88.7898
 L 53.4338,-88.8484 L 53.3643,-88.8545 L 52.7553,-88.9024 L 52.6857,-88.9073 L 52.076,-88.9446 L 52.0062,-88.9482
 L 51.3959,-88.9749 L 51.3262,-88.9773 L 50.7155,-88.9933 L 50.6458,-88.9945 L 50.035,-88.9998 L 49.965,-88.9998
 L 49.3542,-88.9945 L 49.2845,-88.9933 L 48.6738,-88.9773 L 48.6041,-88.9749 L 47.9938,-88.9482 L 47.924,-88.9446
 L 47.3143,-88.9073 L 47.2447,-88.9024 L 46.6357,-88.8545 L 46.5662,-88.8484 L 45.9581,-88.7898 L 45.8887,-88.7825
 L 45.2818,-88.7134 L 45.2125,-88.7049 L 44.6069,-88.6252 L 44.5378,-88.6154 L 43.9336,-88.5252 L 43.8645,-88.5142
 L 43.2621,-88.4134 L 43.1934,-88.4013 L 42.5928,-88.29 L 42.5241,-88.2766 L 41.9256,-88.1548 L 41.8574,-88.1404
 L 41.261,-88.0081 L 41.1929,-87.9924 L 40.5989,-87.8498 L 40.5313,-87.8329 L 39.9399,-87.68 L 39.8723,-87.6619
 L 39.2837,-87.4987 L 39.2167,-87.4794 L 38.631,-87.3059 L 38.5642,-87.2855 L 37.9816,-87.1018 L 37.9152,-87.0803
 L 37.3359,-86.8864 L 37.2699,-86.8637 L 36.6941,-86.6598 L 36.6285,-86.6359 L 36.0563,-86.422 L 35.9911,-86.397
 L 35.4228,-86.1731 L 35.358,-86.147 L 34.7937,-85.9132 L 34.7294,-85.8859 L 34.1693,-85.6423 L 34.1054,-85.6139
 L 33.5495,-85.3606 L 33.4863,-85.3311 L 32.935,-85.0681 L 32.8723,-85.0375 L 32.3256,-84.765 L 32.2633,-84.7332
 L 31.7215,-84.4512 L 31.6598,-84.4184 L 31.123,-84.1269 L 31.062,-84.0931 L 30.5304,-83.7923 L 30.4698,-83.7574
 L 29.9435,-83.4474 L 29.8836,-83.4114 L 29.3628,-83.0922 L 29.3037,-83.0553 L 28.7885,-82.7271 L 28.7299,-82.689
 L 28.2205,-82.3518 L 28.1626,-82.3128 L 27.6592,-81.9668 L 27.602,-81.9268 L 27.1047,-81.572 L 27.0483,-81.531
 L 26.5572,-81.1677 L 26.5014,-81.1256 L 26.0168,-80.7538 L 25.9618,-80.7108 L 25.4837,-80.3305 L 25.4295,-80.2866
 L 24.9582,-79.8981 L 24.9046,-79.8531 L 24.4401,-79.4564 L 24.3875,-79.4107 L 23.93,-79.0059 L 23.878,-78.9591
 L 23.4277,-78.5464 L 23.3766,-78.4989 L 22.9335,-78.0784 L 22.8834,-78.0299 L 22.5488,-77.7011 L 16.7245,-82.5883
 L 15.6178,-68.4068 L 15.5816,-68.3402 L 15.5488,-68.2785 L 15.2668,-67.7367 L 15.235,-67.6744 L 15.1185,-67.4407
 L 15.5265,-67.2368 L 15.3859,-65.4358 L 17.8548,-66.0726 L 18.6962,-65.6519 L 18.8148,-65.8897 L 19.0737,-66.3869
 L 32.0454,-69.7326 L 25.6272,-75.1181 L 25.687,-75.1769 L 26.1301,-75.5974 L 26.5804,-76.0101 L 27.0379,-76.4148
 L 27.5024,-76.8116 L 27.9738,-77.2001 L 28.4519,-77.5804 L 28.9365,-77.9522 L 29.4275,-78.3156 L 29.9248,-78.6703
 L 30.4283,-79.0163 L 30.9376,-79.3535 L 31.4528,-79.6817 L 31.9737,-80.0009 L 32.5,-80.3109 L 33.0317,-80.6117
 L 33.5685,-80.9032 L 34.1103,-81.1852 L 34.657,-81.4578 L 35.2084,-81.7208 L 35.7642,-81.9741 L 36.3244,-82.2177
 L 36.8888,-82.4514 L 37.4571,-82.6753 L 38.0293,-82.8892 L 38.6051,-83.0931 L 39.1844,-83.287 L 39.767,-83.4707
 L 40.3527,-83.6441 L 40.9413,-83.8074 L 41.5327,-83.9603 L 42.1267,-84.103 L 42.7231,-84.2352 L 43.3217,-84.3569
 L 43.9223,-84.4683 L 44.5248,-84.5691 L 45.129,-84.6594 L 45.7346,-84.7391 L 46.3415,-84.8083 L 46.9496,-84.8668
 L 47.5585,-84.9147 L 48.1682,-84.952 L 48.7785,-84.9787 L 49.3892,-84.9947 L 50,-85 L 50.6108,-84.9947
 L 51.2215,-84.9787 L 51.8318,-84.952 L 52.4415,-84.9147 L 53.0504,-84.8668 L 53.6585,-84.8083 L 54.2654,-84.7391
 L 54.871,-84.6594 L 55.4752,-84.5691 L 56.0777,-84.4683 L 56.6783,-84.3569 L 57.2769,-84.2352 L 57.8733,-84.103
 L 58.4673,-83.9603 L 59.0587,-83.8074 L 59.6473,-83.6441 L 60.233,-83.4707 L 60.8156,-83.287 L 61.3949,-83.0931
 L 61.9707,-82.8892 L 62.5429,-82.6753 L 63.1112,-82.4514 L 63.6756,-82.2177 L 64.2358,-81.9741 L 64.7916,-81.7208
 L 65.343,-81.4578 L 65.8897,-81.1852 L 66.4315,-80.9032 L 66.9683,-80.6117 L 67.5,-80.3109 L 68.0263,-80.0009
 L 68.5472,-79.6817 L 69.0624,-79.3535 L 69.5717,-79.0163 L 70.0752,-78.6703 L 70.5725,-78.3156 L 71.0635,-77.9522
 L 71.5481,-77.5804 L 72.0262,-77.2001 L 72.4976,-76.8116 L 72.9621,-76.4148 L 73.4196,-76.0101 L 73.8699,-75.5974
 L 74.313,-75.1769 L 74.7487,-74.7487 L 75.1769,-74.313 L 75.5974,-73.8699 L 76.0101,-73.4196 L 76.4148,-72.9621
 L 76.8116,-72.4976 L 77.2001,-72.0262 L 77.5804,-71.5481 L 77.9522,-71.0635 L 78.3156,-70.5725 L 78.6703,-70.0752
 L 79.0163,-69.5717 L 79.3535,-69.0624 L 79.6817,-68.5472 L 80.0009,-68.0263 L 80.3109,-67.5 L 80.6117,-66.9683
 L 80.9032,-66.4315 L 81.1852,-65.8897 L 81.4578,-65.343 L 81.7208,-64.7916 L 81.9741,-64.2358 L 82.2177,-63.6756
 L 82.4514,-63.1112 L 82.6753,-62.5429 L 82.8892,-61.9707 L 83.0931,-61.3949 L 83.287,-60.8156 L 83.4707,-60.233
 L 83.6441,-59.6473 L 83.8074,-59.0587 L 83.9603,-58.4673 L 84.103,-57.8733 L 84.2352,-57.2769 L 84.3569,-56.6783
 L 84.4683,-56.0777 L 84.5691,-55.4752 L 84.6594,-54.871 L 84.7391,-54.2654 L 84.8083,-53.6585 L 84.8668,-53.0504
 L 84.9147,-52.4415 L 84.952,-51.8318 L 84.9787,-51.2215 L 84.9947,-50.6108 L 85,-50 L 84.9947,-49.3892
 L 84.9787,-48.7785 L 84.952,-48.1682 L 84.9147,-47.5585 L 84.8668,-46.9496 L 84.8083,-46.3415 L 84.7391,-45.7346
 L 84.6594,-45.129 L 84.5691,-44.5248 L 84.4683,-43.9223 L 84.3569,-43.3217 L 84.2352,-42.7231 L 84.103,-42.1267
 L 83.9603,-41.5327 L 83.8074,-40.9413 L 83.6441,-40.3527 L 83.4707,-39.767 L 83.287,-39.1844 L 83.0931,-38.6051
 L 82.8892,-38.0293 L 82.6753,-37.4571 L 82.4514,-36.8888 L 82.2177,-36.3244 L 81.9741,-35.7642 L 81.7208,-35.2084
 L 81.4578,-34.657 L 81.1852,-34.1103 L 80.9032,-33.5685 L 80.6117,-33.0317 L 80.3109,-32.5 L 80.0009,-31.9737
 L 79.6817,-31.4528 L 79.3535,-30.9376 L 79.0163,-30.4283 L 78.6703,-29.9248 L 78.3156,-29.4275 L 77.9522,-28.9365
 L 77.5804,-28.4519 L 77.2001,-27.9738 L 76.8116,-27.5024 L 76.4148,-27.0379 L 76.0101,-26.5804 L 75.5974,-26.1301
 L 75.1769,-25.687 L 74.7487,-25.2513 L 74.313,-24.8231 L 73.8699,-24.4026 L 73.4196,-23.9899 L 72.9621,-23.5852
 L 72.4976,-23.1884 L 72.0262,-22.7999 L 71.5481,-22.4196 L 71.0635,-22.0478 L 70.5725,-21.6844 L 70.0752,-21.3297
 L 69.5717,-20.9837 L 69.0624,-20.6465 L 68.5472,-20.3183 L 68.0263,-19.9991 L 67.5,-19.6891 L 66.9683,-19.3883
 L 66.4315,-19.0968 L 65.8897,-18.8148 L 65.343,-18.5422 L 64.7916,-18.2792 L 64.2358,-18.0259 L 63.6756,-17.7823
 L 63.1112,-17.5486 L 62.5429,-17.3247 L 61.9707,-17.1108 L 61.3949,-16.9069 L 60.8156,-16.713 L 60.233,-16.5293
 L 59.6473,-16.3559 L 59.0587,-16.1926 L 58.4673,-16.0397 L 57.8733,-15.897 L 57.2769,-15.7648 L 56.6783,-15.6431
 L 56.0777,-15.5317 L 55.4752,-15.4309 L 54.871,-15.3406 L 54.2654,-15.2609 L 53.6585,-15.1917 L 53.0504,-15.1332
 L 52.4415,-15.0853 L 51.8318,-15.048 L 51.2215,-15.0213 L 50.6108,-15.0053 L 50,-15 L 49.3892,-15.0053
 L 48.7785,-15.0213 L 48.1682,-15.048 L 47.5585,-15.0853 L 46.9496,-15.1332 L 46.3415,-15.1917 L 45.7346,-15.2609
 L 45.129,-15.3406 L 44.5248,-15.4309 L 43.9223,-15.5317 L 43.3217,-15.6431 L 42.7231,-15.7648 L 42.1267,-15.897
 L 41.5327,-16.0397 L 40.9413,-16.1926 L 40.3527,-16.3559 L 39.767,-16.5293 L 39.1844,-16.713 L 38.6051,-16.9069
 L 38.0293,-17.1108 L 37.4571,-17.3247 L 36.8888,-17.5486 L 36.3244,-17.7823 L 35.7642,-18.0259 L 35.2084,-18.2792
 L 34.657,-18.5422 L 34.1103,-18.8148 L 33.5685,-19.0968 L 33.0317,-19.3883 L 32.5,-19.6891 L 31.9737,-19.9991
 L 31.4528,-20.3183 L 30.9376,-20.6465 L 30.4283,-20.9837 L 29.9248,-21.3297 L 29.4275,-21.6844 L 28.9365,-22.0478
 L 28.4519,-22.4196 L 27.9738,-22.7999 L 27.5024,-23.1884 L 27.0379,-23.5852 L 26.5804,-23.9899 L 26.1301,-24.4026
 L 25.687,-24.8231 L 25.2513,-25.2513 L 24.8231,-25.687 L 24.4026,-26.1301 L 23.9899,-26.5804 L 23.5852,-27.0379
 L 23.1884,-27.5024 L 22.7999,-27.9738 L 22.4196,-28.4519 L 22.0478,-28.9365 L 21.6844,-29.4275 L 21.3297,-29.9248
 L 20.9837,-30.4283 L 20.6465,-30.9376 L 20.3183,-31.4528 L 19.9991,-31.9737 L 19.6891,-32.5 L 19.3883,-33.0317
 L 19.0968,-33.5685 L 18.8148,-34.1103 L 18.6962,-34.3481 L 15.1185,-32.5593 L 15.235,-32.3256 L 15.2668,-32.2633
 L 15.5488,-31.7215 L 15.5816,-31.6598 L 15.8731,-31.123 L 15.9069,-31.062 L 16.2077,-30.5304 L 16.2426,-30.4698
 L 16.5526,-29.9435 L 16.5886,-29.8836 L 16.9078,-29.3628 L 16.9447,-29.3037 L 17.2729,-28.7885 L 17.311,-28.7299
 L 17.6482,-28.2205 L 17.6872,-28.1626 L 18.0332,-27.6592 L 18.0732,-27.602 L 18.428,-27.1047 L 18.469,-27.0483
 L 18.8323,-26.5572 L 18.8744,-26.5014 L 19.2462,-26.0168 L 19.2892,-25.9618 L 19.6695,-25.4837 L 19.7134,-25.4295
 L 20.1019,-24.9582 L 20.1469,-24.9046 L 20.5436,-24.4401 L 20.5893,-24.3875 L 20.9941,-23.93 L 21.0409,-23.878
 L 21.4536,-23.4277 L 21.5011,-23.3766 L 21.9216,-22.9335 L 21.9701,-22.8834 L 22.3982,-22.4477 L 22.4477,-22.3982
 L 22.8834,-21.9701 L 22.9335,-21.9216 L 23.3766,-21.5011 L 23.4277,-21.4536 L 23.878,-21.0409 L 23.93,-20.9941
 L 24.3875,-20.5893 L 24.4401,-20.5436 L 24.9046,-20.1469 L 24.9582,-20.1019 L 25.4295,-19.7134 L 25.4837,-19.6695
 L 25.9618,-19.2892 L 26.0168,-19.2462 L 26.5014,-18.8744 L 26.5572,-18.8323 L 27.0483,-18.469 L 27.1047,-18.428
 L 27.602,-18.0732 L 27.6592,-18.0332 L 28.1626,-17.6872 L 28.2205,-17.6482 L 28.7299,-17.311 L 28.7885,-17.2729
 L 29.3037,-16.9447 L 29.3628,-16.9078 L 29.8836,-16.5886 L 29.9435,-16.5526 L 30.4698,-16.2426 L 30.5304,-16.2077
 L 31.062,-15.9069 L 31.123,-15.8731 L 31.6598,-15.5816 L 31.7215,-15.5488 L 32.2633,-15.2668 L 32.3256,-15.235
 L 32.8723,-14.9625 L 32.935,-14.9319 L 33.4863,-14.6689 L 33.5495,-14.6394 L 34.1054,-14.3861 L 34.1693,-14.3577
 L 34.7294,-14.1141 L 34.7937,-14.0868 L 35.358,-13.853 L 35.4228,-13.8269 L 35.9911,-13.603 L 36.0563,-13.578
 L 36.6285,-13.3641 L 36.6941,-13.3402 L 37.2699,-13.1363 L 37.3359,-13.1136 L 37.9152,-12.9197 L 37.9816,-12.8982
 L 38.5642,-12.7145 L 38.631,-12.6941 L 39.2167,-12.5206 L 39.2837,-12.5013 L 39.8723,-12.3381 L 39.9399,-12.32
 L 40.5313,-12.1671 L 40.5989,-12.1502 L 41.1929,-12.0076 L 41.261,-11.9919 L 41.8574,-11.8596 L 41.9256,-11.8452
 L 42.5241,-11.7234 L 42.5928,-11.71 L 43.1934,-11.5987 L 43.2621,-11.5866 L 43.8645,-11.4858 L 43.9336,-11.4748
 L 44.5378,-11.3846 L 44.6069,-11.3748 L 45.2125,-11.2951 L 45.2818,-11.2866 L 45.8887,-11.2175 L 45.9581,-11.2102
 L 46.5662,-11.1516 L 46.6357,-11.1455 L 47.2447,-11.0976 L 47.3143,-11.0927 L 47.924,-11.0554 L 47.9938,-11.0518
 L 48.6041,-11.0251 L 48.6738,-11.0227 L 49.2845,-11.0067 L 49.3542,-11.0055 L 49.965,-11.0002 L 50.035,-11.0002
 z
" stroke="black" fill="black" stroke-width="0.5"/>
</svg>
