<?xml version="1.0" standalone="no"?>
<!DOCTYPE svg PUBLIC "-//W3C//DTD SVG 1.1//EN" "http://www.w3.org/Graphics/SVG/1.1/DTD/svg11.dtd">
<svg width="100mm" height="100mm" viewBox="-8 -108 116 116" xmlns="http://www.w3.org/2000/svg" version="1.1">
<title>OpenSCAD Model</title>
<path d="
M 83.2981,-55.0223 L 83.4935,-55.0618 L 83.684,-55.1206 L 83.8678,-55.1981 L 84.0429,-55.2934 L 84.2076,-55.4057
 L 84.3604,-55.5339 L 84.4996,-55.6766 L 84.6239,-55.8325 L 84.7321,-56 L 96.8564,-77 L 96.9474,-77.1774
 L 97.0202,-77.363 L 97.0742,-77.555 L 97.1088,-77.7513 L 97.1237,-77.9501 L 97.1187,-78.1495 L 97.094,-78.3473
 L 97.0496,-78.5417 L 96.9861,-78.7307 L 96.9041,-78.9124 L 96.8044,-79.0851 L 96.688,-79.247 L 96.5561,-79.3965
 L 96.4099,-79.5321 L 96.251,-79.6525 L 96.0809,-79.7564 L 95.9012,-79.843 L 95.7139,-79.9111 L 95.5206,-79.9603
 L 95.3235,-79.9901 L 95.1243,-80 L 70.8757,-80 L 70.6765,-79.9901 L 70.4794,-79.9603 L 70.2861,-79.9111
 L 70.0988,-79.843 L 69.9191,-79.7564 L 69.749,-79.6525 L 69.5901,-79.5321 L 69.4439,-79.3965 L 69.312,-79.247
 L 69.1956,-79.0851 L 69.0959,-78.9124 L 69.0139,-78.7307 L 68.9504,-78.5417 L 68.906,-78.3473 L 68.8813,-78.1495
 L 68.8763,-77.9501 L 68.8912,-77.7513 L 68.9258,-77.555 L 68.9798,-77.363 L 69.0526,-77.1774 L 69.1436,-77
 L 81.2679,-56 L 81.3761,-55.8325 L 81.5004,-55.6766 L 81.6396,-55.5339 L 81.7924,-55.4057 L 81.9571,-55.2934
 L 82.1322,-55.1981 L 82.316,-55.1206 L 82.5065,-55.0618 L 82.7019,-55.0223 L 82.9003,-55.0025 L 83.0997,-55.0025
 z
M 15.4744,-22.0731 L 43.291,-22.0731 L 51.8352,-0 L 60,-0 L 32.5628,-69.6843 L 25.7749,-69.6843
 L -1.51949,-0 L 6.83501,-0 z
M 17.9902,-29.3356 L 26.0598,-50.8389 L 26.128,-51.0173 L 26.1962,-51.1974 L 26.2645,-51.3793 L 26.333,-51.5629
 L 26.4015,-51.7482 L 26.4701,-51.9354 L 26.5388,-52.1242 L 26.6076,-52.3149 L 26.6764,-52.5072 L 26.7454,-52.7014
 L 26.8145,-52.8972 L 26.8836,-53.0948 L 26.9528,-53.2942 L 27.0221,-53.4953 L 27.0916,-53.6982 L 27.1611,-53.9028
 L 27.2306,-54.1092 L 27.3003,-54.3173 L 27.3701,-54.5272 L 27.4399,-54.7388 L 27.5099,-54.9522 L 27.5799,-55.1673
 L 27.65,-55.3842 L 27.7202,-55.6028 L 27.7905,-55.8232 L 27.8609,-56.0453 L 27.9314,-56.2691 L 28.002,-56.4948
 L 28.0726,-56.7221 L 28.1434,-56.9513 L 28.2142,-57.1821 L 28.2852,-57.4147 L 28.3562,-57.6491 L 28.4273,-57.8852
 L 28.4985,-58.1231 L 28.5698,-58.3627 L 28.6411,-58.6041 L 28.7126,-58.8472 L 28.7841,-59.0921 L 28.8558,-59.3387
 L 28.9275,-59.5871 L 28.9993,-59.8372 L 29.0712,-60.0891 L 29.1432,-60.3427 L 29.2153,-60.5981 L 29.2875,-60.8552
 L 29.3333,-60.6566 L 29.38,-60.4572 L 29.4276,-60.257 L 29.476,-60.0558 L 29.5252,-59.8539 L 29.5753,-59.6511
 L 29.6263,-59.4474 L 29.678,-59.2429 L 29.7307,-59.0375 L 29.7842,-58.8313 L 29.8386,-58.6242 L 29.8938,-58.4162
 L 29.9498,-58.2074 L 30.0067,-57.9978 L 30.0645,-57.7873 L 30.1231,-57.5759 L 30.1826,-57.3637 L 30.2429,-57.1507
 L 30.3041,-56.9368 L 30.3661,-56.722 L 30.429,-56.5064 L 30.4927,-56.2899 L 30.5573,-56.0726 L 30.6227,-55.8544
 L 30.689,-55.6354 L 30.7562,-55.4155 L 30.8242,-55.1948 L 30.893,-54.9732 L 30.9627,-54.7508 L 31.0332,-54.5275
 L 31.1046,-54.3034 L 31.1769,-54.0784 L 31.25,-53.8525 L 31.324,-53.6258 L 31.3988,-53.3983 L 31.4744,-53.1699
 L 31.5509,-52.9406 L 31.6283,-52.7105 L 31.7065,-52.4795 L 31.7856,-52.2477 L 31.8655,-52.015 L 31.9463,-51.7815
 L 32.0279,-51.5471 L 32.1104,-51.3119 L 32.1937,-51.0758 L 32.2779,-50.8389 L 40.4427,-29.3356 z
M 77.7372,-11.0365 L 91.6455,-11.0365 L 95.9176,-0 L 100,-0 L 86.2814,-34.8421 L 82.8875,-34.8421
 L 69.2403,-0 L 73.4175,-0 z
M 78.9951,-14.6678 L 83.0299,-25.4194 L 83.064,-25.5086 L 83.0981,-25.5987 L 83.1323,-25.6896 L 83.1665,-25.7814
 L 83.2007,-25.8741 L 83.235,-25.9677 L 83.2694,-26.0621 L 83.3038,-26.1574 L 83.3382,-26.2536 L 83.3727,-26.3507
 L 83.4072,-26.4486 L 83.4418,-26.5474 L 83.4764,-26.6471 L 83.5111,-26.7477 L 83.5458,-26.8491 L 83.5805,-26.9514
 L 83.6153,-27.0546 L 83.6502,-27.1586 L 83.685,-27.2636 L 83.72,-27.3694 L 83.7549,-27.4761 L 83.79,-27.5836
 L 83.825,-27.6921 L 83.8601,-27.8014 L 83.8953,-27.9116 L 83.9305,-28.0226 L 83.9657,-28.1346 L 84.001,-28.2474
 L 84.0363,-28.3611 L 84.0717,-28.4756 L 84.1071,-28.5911 L 84.1426,-28.7074 L 84.1781,-28.8246 L 84.2136,-28.9426
 L 84.2492,-29.0616 L 84.2849,-29.1814 L 84.3206,-29.302 L 84.3563,-29.4236 L 84.3921,-29.5461 L 84.4279,-29.6694
 L 84.4638,-29.7935 L 84.4997,-29.9186 L 84.5356,-30.0445 L 84.5716,-30.1713 L 84.6077,-30.299 L 84.6438,-30.4276
 L 84.6667,-30.3283 L 84.69,-30.2286 L 84.7138,-30.1285 L 84.738,-30.0279 L 84.7626,-29.9269 L 84.7877,-29.8255
 L 84.8131,-29.7237 L 84.839,-29.6214 L 84.8654,-29.5187 L 84.8921,-29.4156 L 84.9193,-29.3121 L 84.9469,-29.2081
 L 84.9749,-29.1037 L 85.0034,-28.9989 L 85.0323,-28.8936 L 85.0616,-28.788 L 85.0913,-28.6819 L 85.1215,-28.5753
 L 85.1521,-28.4684 L 85.1831,-28.361 L 85.2145,-28.2532 L 85.2464,-28.145 L 85.2787,-28.0363 L 85.3114,-27.9272
 L 85.3445,-27.8177 L 85.3781,-27.7078 L 85.4121,-27.5974 L 85.4465,-27.4866 L 85.4814,-27.3754 L 85.5166,-27.2637
 L 85.5523,-27.1517 L 85.5885,-27.0392 L 85.625,-26.9263 L 85.662,-26.8129 L 85.6994,-26.6991 L 85.7372,-26.5849
 L 85.7755,-26.4703 L 85.8142,-26.3552 L 85.8533,-26.2398 L 85.8928,-26.1239 L 85.9328,-26.0075 L 85.9731,-25.8907
 L 86.014,-25.7736 L 86.0552,-25.6559 L 86.0969,-25.5379 L 86.139,-25.4194 L 90.2214,-14.6678 z
" stroke="black" fill="black" stroke-width="0.5"/>
</svg>
