<?xml version="1.0" encoding="UTF-8" standalone="no"?>
<!-- Created with Inkscape (http://www.inkscape.org/) -->

<svg
   version="1.1"
   id="svg1"
   width="377.33334"
   height="377.33334"
   viewBox="0 0 377.33334 377.33334"
   sodipodi:docname="chokusen-export-stp.svg"
   inkscape:version="1.4.2 (f4327f4, 2025-05-13)"
   xmlns:inkscape="http://www.inkscape.org/namespaces/inkscape"
   xmlns:sodipodi="http://sodipodi.sourceforge.net/DTD/sodipodi-0.dtd"
   xmlns="http://www.w3.org/2000/svg"
   xmlns:svg="http://www.w3.org/2000/svg">
  <defs
     id="defs1" />
  <sodipodi:namedview
     id="namedview1"
     pagecolor="#ffffff"
     bordercolor="#000000"
     borderopacity="0.25"
     inkscape:showpageshadow="2"
     inkscape:pageopacity="0.0"
     inkscape:pagecheckerboard="0"
     inkscape:deskcolor="#d1d1d1"
     inkscape:zoom="3.7446995"
     inkscape:cx="188.53315"
     inkscape:cy="188.66667"
     inkscape:window-width="2880"
     inkscape:window-height="1694"
     inkscape:window-x="-11"
     inkscape:window-y="-11"
     inkscape:window-maximized="1"
     inkscape:current-layer="g1">
    <inkscape:page
       x="0"
       y="0"
       inkscape:label="1"
       id="page1"
       width="377.33334"
       height="377.33334"
       margin="0"
       bleed="0" />
  </sodipodi:namedview>
  <g
     id="g1"
     inkscape:groupmode="layer"
     inkscape:label="1">
    <path
       id="path1"
       d="m 388.7025,15645.903 h 6.6297 0.5894 l 0.5807,0.01 0.5739,0.02 0.57,0.03 0.5622,0.03 0.5593,0.04 0.5505,0.05 0.5466,0.06 0.5399,0.07 0.5359,0.07 0.5282,0.08 0.5203,0.09 0.5165,0.09 0.5097,0.103 0.5048,0.11 0.498,0.121 0.4941,0.126 0.4864,0.137 0.4824,0.14 0.4747,0.149 0.4717,0.159 0.463,0.164 0.4562,0.174 0.4523,0.179 0.4445,0.189 0.4406,0.195 0.4368,0.204 0.426,0.213 0.425,0.217 0.4144,0.228 0.4105,0.235 0.4065,0.24 0.3988,0.25 0.391,0.259 0.3881,0.263 0.3833,0.273 0.3764,0.281 0.3686,0.289 0.3648,0.296 0.357,0.304 0.353,0.308 0.3463,0.319 0.3375,0.326 0.3346,0.335 0.3307,0.343 0.323,0.349 0.3151,0.357 0.3083,0.364 0.3035,0.369 0.2967,0.38 0.2888,0.384 0.2811,0.392 0.2734,0.395 0.2694,0.406 0.2587,0.411 0.2549,0.417 0.247,0.426 0.2393,0.433 0.2315,0.437 0.2276,0.448 0.2208,0.452 0.2091,0.456 0.2052,0.467 0.1975,0.476 0.1936,0.478 0.1828,0.487 0.178,0.494 0.1712,0.497 0.1634,0.51 0.1556,0.512 0.1479,0.521 0.1449,0.528 0.1362,0.532 0.1255,0.544 0.1215,0.546 0.1177,0.556 0.107,0.562 0.1022,0.566 0.0914,0.578 0.0875,0.581 0.0798,0.589 0.072,0.596 0.0681,0.601 0.0573,0.607 0.0535,0.62 0.0458,0.623 0.0379,0.627 0.0301,0.638 0.0263,0.642 0.0156,0.65 0.0117,0.657 0.004,0.666 -0.004,0.638 -0.0117,0.63 -0.0156,0.628 -0.0224,0.615 -0.0301,0.612 -0.035,0.604 -0.0419,0.596 -0.0486,0.59 -0.0574,0.584 -0.0603,0.574 -0.069,0.57 -0.0759,0.563 -0.0798,0.554 -0.0914,0.551 -0.0905,0.539 -0.1031,0.536 -0.106,0.529 -0.1138,0.52 -0.1216,0.513 -0.1293,0.505 -0.1333,0.502 -0.1401,0.494 -0.1488,0.487 -0.1517,0.478 -0.1595,0.471 -0.1673,0.468 -0.1712,0.459 -0.1819,0.448 -0.1867,0.449 -0.1897,0.437 -0.2014,0.43 -0.2052,0.425 -0.213,0.414 -0.216,0.41 -0.2285,0.407 -0.2315,0.395 -0.2354,0.388 -0.2471,0.383 -0.2509,0.377 -0.2587,0.368 -0.2617,0.361 -0.2733,0.357 -0.2782,0.347 -0.2811,0.341 -0.2918,0.334 -0.2967,0.327 -0.3044,0.319 -0.3074,0.315 -0.3151,0.305 -0.3229,0.3 -0.3269,0.292 -0.3345,0.285 -0.3385,0.278 -0.3453,0.269 -0.3531,0.266 -0.357,0.255 -0.3618,0.25 -0.3677,0.244 -0.3764,0.236 -0.3842,0.227 -0.3871,0.224 -0.391,0.213 -0.3998,0.209 -0.4066,0.202 -0.4095,0.193 -0.4182,0.187 -0.4261,0.178 -0.4289,0.171 -0.4328,0.168 -0.4445,0.155 -0.4446,0.152 -0.4562,0.145 -0.46,0.136 -0.463,0.133 -0.4717,0.122 -0.4786,0.118 -0.4825,0.107 -0.4902,0.102 -0.498,0.09 -0.5009,0.09 -0.5058,0.08 -0.5165,0.07 -0.5165,0.07 -0.5281,0.06 -0.5321,0.05 -0.5359,0.05 -0.5437,0.04 -0.5506,0.03 -0.5544,0.02 -0.5622,0.02 -0.5661,0.01 h -0.5739 -23.2915 v -95.077 h 15.4606 v 33.817 z m 0,16.516 v 28.228 h 7.0324 0.2743 0.2694 0.2655 l 0.2665,-0.01 0.2578,-0.02 0.2587,-0.02 0.2549,-0.02 0.2548,-0.02 0.2461,-0.03 0.4863,-0.06 0.2403,-0.04 0.2354,-0.04 0.2315,-0.04 0.2276,-0.05 0.2285,-0.05 0.2238,-0.05 0.4338,-0.114 0.2159,-0.06 0.2091,-0.06 0.2053,-0.07 0.2052,-0.07 0.2013,-0.08 0.1975,-0.08 0.1936,-0.08 0.1906,-0.08 0.1897,-0.09 0.1818,-0.09 0.1829,-0.1 0.178,-0.1 0.1751,-0.1 0.3424,-0.213 0.3268,-0.224 0.3151,-0.235 0.3035,-0.251 0.2889,-0.263 0.2772,-0.273 0.392,-0.437 0.247,-0.308 0.2354,-0.323 0.2237,-0.334 0.1109,-0.175 0.1022,-0.175 0.1031,-0.182 0.0982,-0.183 0.0992,-0.186 0.0944,-0.193 0.0914,-0.195 0.0875,-0.197 0.0837,-0.202 0.0836,-0.205 0.0798,-0.209 0.0759,-0.208 0.0758,-0.217 0.072,-0.221 0.0691,-0.22 0.1284,-0.456 0.0612,-0.231 0.0574,-0.236 0.106,-0.486 0.0496,-0.247 0.0458,-0.251 0.0418,-0.251 0.0418,-0.259 0.038,-0.261 0.034,-0.263 0.034,-0.269 0.0302,-0.27 0.0263,-0.278 0.0233,-0.277 0.0185,-0.281 0.0194,-0.285 0.0156,-0.289 0.0146,-0.292 0.008,-0.297 0.008,-0.3 0.008,-0.608 -0.004,-0.304 -0.004,-0.3 -0.008,-0.3 -0.0156,-0.293 -0.0107,-0.292 -0.0194,-0.289 -0.0224,-0.281 -0.0273,-0.285 -0.0262,-0.278 -0.0681,-0.546 -0.0379,-0.271 -0.0419,-0.265 -0.0457,-0.263 -0.0992,-0.516 -0.1138,-0.502 -0.0603,-0.247 -0.0691,-0.244 -0.068,-0.239 -0.072,-0.239 -0.073,-0.232 -0.0798,-0.231 -0.0826,-0.229 -0.0837,-0.223 -0.0914,-0.225 -0.0914,-0.216 -0.0953,-0.217 -0.0983,-0.209 -0.1031,-0.209 -0.106,-0.208 -0.106,-0.202 -0.2286,-0.396 -0.1177,-0.193 -0.1216,-0.19 -0.1255,-0.187 -0.1293,-0.182 -0.1323,-0.182 -0.2733,-0.35 -0.145,-0.171 -0.1439,-0.167 -0.3006,-0.327 -0.3151,-0.311 -0.3307,-0.301 -0.1673,-0.144 -0.1751,-0.14 -0.1741,-0.137 -0.179,-0.133 -0.1819,-0.13 -0.1867,-0.128 -0.1897,-0.121 -0.1936,-0.122 -0.3958,-0.229 -0.2053,-0.11 -0.2042,-0.106 -0.2091,-0.1 -0.2169,-0.103 -0.2169,-0.09 -0.2199,-0.09 -0.2208,-0.09 -0.2276,-0.09 -0.4639,-0.159 -0.4786,-0.144 -0.2432,-0.07 -0.247,-0.07 -0.251,-0.06 -0.2538,-0.06 -0.2588,-0.05 -0.2587,-0.05 -0.2655,-0.05 -0.2656,-0.04 -0.5476,-0.08 -0.2772,-0.03 -0.2811,-0.03 -0.285,-0.02 -0.2889,-0.02 -0.2927,-0.02 -0.2928,-0.02 -0.2996,-0.01 h -0.3005 -0.3035 -0.3084 -5.087 z m -48.9406,27.968 h 22.367 v 16.777 h -62.203 v -16.777 h 22.367 v -78.301 h 17.469 z m -74.9729,-79.598 h 0.6129 l 0.61,0.02 0.6011,0.02 0.594,0.03 0.5899,0.04 0.582,0.05 0.5781,0.05 0.574,0.06 0.567,0.07 0.558,0.07 0.5549,0.08 0.547,0.09 0.543,0.1 0.535,0.101 0.5311,0.106 0.524,0.117 0.519,0.121 0.5119,0.133 0.504,0.137 0.504,0.14 0.492,0.152 0.4881,0.157 0.485,0.164 0.476,0.172 0.4689,0.179 0.465,0.188 0.4611,0.191 0.4529,0.199 0.4451,0.208 0.4409,0.214 0.438,0.219 0.426,0.227 0.4261,0.238 0.4169,0.238 0.4111,0.25 0.4059,0.258 0.398,0.262 0.395,0.269 0.3871,0.278 0.3819,0.281 0.375,0.293 0.3721,0.297 0.3629,0.304 0.3551,0.313 0.3559,0.32 0.343,0.324 0.336,0.329 0.332,0.336 0.321,0.339 0.3161,0.348 0.3089,0.352 0.3011,0.355 0.289,0.359 0.2849,0.368 0.2771,0.371 0.27,0.375 0.2609,0.383 0.2541,0.386 0.2459,0.391 0.2431,0.398 0.23,0.403 0.223,0.406 0.2139,0.414 0.211,0.418 0.2001,0.422 0.1949,0.429 0.187,0.434 0.1761,0.438 0.172,0.445 0.164,0.449 0.153,0.453 0.1479,0.461 0.1411,0.461 0.1319,0.473 0.125,0.472 0.1181,0.481 0.1129,0.484 0.101,0.492 0.0941,0.493 0.086,0.5 0.082,0.507 0.0699,0.512 0.067,0.516 0.0551,0.519 0.0499,0.528 0.0431,0.531 0.0349,0.535 0.024,0.543 0.019,0.547 0.0121,0.551 0.004,0.558 v 0.403 l -0.008,0.402 -0.011,0.398 -0.0121,0.395 -0.0199,0.391 -0.0231,0.39 -0.024,0.387 -0.0309,0.383 -0.035,0.379 -0.0391,0.379 -0.043,0.375 -0.0469,0.375 -0.047,0.371 -0.054,0.367 -0.125,0.726 -0.067,0.36 -0.0701,0.355 -0.0739,0.352 -0.0791,0.351 -0.082,0.348 -0.0889,0.348 -0.0901,0.343 -0.0939,0.34 -0.2031,0.672 -0.11,0.332 -0.1089,0.328 -0.2341,0.649 -0.25,0.64 -0.133,0.317 -0.1369,0.312 -0.2811,0.617 -0.1479,0.305 -0.153,0.301 -0.1561,0.297 -0.16,0.297 -0.164,0.293 -0.168,0.293 -0.172,0.289 -0.1759,0.285 -0.1801,0.281 -0.183,0.281 -0.192,0.278 -0.1949,0.277 -0.2031,0.281 -0.2109,0.278 -0.215,0.277 -0.226,0.277 -0.231,0.282 -0.2381,0.277 -0.242,0.277 -0.254,0.278 -0.258,0.277 -0.266,0.281 -0.269,0.277 -0.2809,0.278 -0.2861,0.277 -0.293,0.278 -0.2999,0.281 -0.3051,0.277 -0.313,0.277 -0.3199,0.278 -0.328,0.277 -0.332,0.277 -0.344,0.282 -0.347,0.277 -0.352,0.277 -0.3631,0.278 -0.3669,0.277 -0.375,0.277 -0.3831,0.278 -0.3869,0.277 -0.398,0.277 -0.403,0.278 -0.41,0.277 -0.414,0.278 -0.422,0.277 -0.8671,0.555 -0.4449,0.277 -0.4501,0.281 -0.457,0.277 -0.4639,0.278 -0.4731,0.277 -0.477,0.274 -0.976,0.554 -0.5,0.278 -0.379,0.211 -0.735,0.406 -0.3589,0.199 -0.351,0.195 -0.3441,0.196 -0.3439,0.191 -0.332,0.188 -0.3281,0.183 -0.324,0.184 -0.3169,0.179 -0.3081,0.18 -0.3049,0.172 -0.297,0.172 -0.293,0.168 -0.285,0.168 -0.2811,0.16 -0.2739,0.16 -0.2691,0.16 -0.2619,0.153 -0.254,0.152 -0.25,0.148 -0.246,0.149 -0.2341,0.144 -0.2349,0.141 -0.445,0.273 -0.211,0.129 -0.207,0.133 -0.2031,0.125 -0.1949,0.125 -0.188,0.121 -0.183,0.117 -0.1801,0.118 -0.172,0.109 -0.324,0.219 -0.297,0.207 -0.2769,0.195 -0.25,0.184 -0.231,0.172 -0.2031,0.16 -0.199,0.164 -0.196,0.16 -0.2809,0.246 -0.1801,0.164 -0.179,0.164 -0.172,0.164 -0.168,0.164 -0.242,0.246 -0.153,0.168 -0.226,0.25 -0.1409,0.168 -0.14,0.168 -0.1331,0.168 -0.192,0.254 -0.125,0.168 -0.1169,0.172 -0.2191,0.34 -0.1519,0.258 -0.187,0.343 -0.086,0.18 -0.082,0.176 -0.1181,0.273 -0.0739,0.188 -0.101,0.281 -0.063,0.192 -0.058,0.195 -0.0551,0.199 -0.0509,0.199 -0.043,0.199 -0.062,0.309 -0.039,0.211 -0.047,0.316 -0.028,0.215 -0.031,0.328 -0.0161,0.223 -0.011,0.223 -0.0119,0.34 v 0.417 l 0.004,0.184 0.008,0.184 0.008,0.179 0.0229,0.36 0.0201,0.176 0.015,0.175 0.024,0.172 0.023,0.176 0.0549,0.336 0.031,0.168 0.0351,0.168 0.074,0.328 0.086,0.32 0.1449,0.469 0.1091,0.305 0.1839,0.449 0.207,0.434 0.1521,0.277 0.16,0.277 0.168,0.27 0.1799,0.261 0.191,0.254 0.2001,0.254 0.211,0.242 0.3349,0.356 0.235,0.226 0.2421,0.215 0.3829,0.309 0.265,0.191 0.414,0.27 0.2861,0.164 0.297,0.156 0.304,0.149 0.3129,0.132 0.324,0.129 0.3281,0.114 0.168,0.05 0.3439,0.102 0.1761,0.05 0.3589,0.09 0.1801,0.04 0.183,0.04 0.1879,0.03 0.1871,0.03 0.383,0.06 0.391,0.05 0.1989,0.02 0.2031,0.02 0.203,0.01 0.207,0.01 h 0.207 0.211 0.211 0.578 0.1799 0.183 0.1801 l 0.3669,-0.01 h 0.1801 l 0.367,-0.02 0.1799,-0.01 0.183,-0.01 0.5511,-0.05 0.551,-0.06 0.184,-0.02 0.183,-0.02 0.1839,-0.03 0.183,-0.02 0.1841,-0.03 0.188,-0.03 0.183,-0.03 0.367,-0.06 0.1879,-0.03 0.183,-0.03 0.1841,-0.03 0.1869,-0.04 0.1841,-0.04 0.188,-0.04 0.183,-0.04 0.375,-0.08 0.1839,-0.04 0.1871,-0.05 0.1879,-0.04 0.183,-0.05 0.375,-0.09 0.563,-0.153 0.375,-0.109 0.1911,-0.06 0.1919,-0.05 0.1951,-0.06 0.3979,-0.125 0.2001,-0.07 0.2029,-0.07 0.207,-0.07 0.207,-0.07 0.422,-0.149 0.2151,-0.07 0.218,-0.08 0.219,-0.08 0.2189,-0.08 0.222,-0.09 0.4541,-0.172 0.23,-0.09 0.231,-0.09 0.468,-0.187 0.239,-0.1 0.2419,-0.09 0.4841,-0.203 0.246,-0.102 0.5,-0.21 0.254,-0.11 0.5159,-0.219 0.2581,-0.113 0.261,-0.117 0.532,-0.234 0.265,-0.121 0.274,-0.122 0.269,-0.125 0.2769,-0.125 0.5551,-0.257 0.2809,-0.133 0.571,-0.266 5.6331,15.672 -0.278,0.137 -0.2731,0.136 -0.278,0.137 -0.273,0.133 -0.2769,0.133 -0.274,0.133 -0.547,0.257 -0.2731,0.125 -0.27,0.125 -0.273,0.125 -0.27,0.125 -0.5389,0.243 -0.8081,0.351 -0.2699,0.113 -0.5311,0.227 -0.27,0.109 -0.265,0.114 -0.2659,0.105 -0.2621,0.11 -0.265,0.105 -0.2659,0.102 -0.5231,0.203 -0.2659,0.101 -0.5231,0.196 -0.258,0.1 -0.524,0.188 -0.2569,0.09 -0.2581,0.09 -0.2579,0.09 -0.258,0.09 -0.515,0.172 -0.2581,0.08 -0.508,0.164 -0.2579,0.08 -0.254,0.08 -0.254,0.07 -0.2541,0.08 -0.2529,0.07 -0.254,0.07 -0.2581,0.07 -0.254,0.07 -0.5159,0.133 -0.7731,0.187 -0.2579,0.06 -0.523,0.109 -0.2581,0.06 -0.2619,0.05 -0.2661,0.05 -0.523,0.09 -0.266,0.05 -0.2609,0.04 -0.266,0.04 -0.5311,0.08 -0.2699,0.04 -0.265,0.03 -0.27,0.03 -0.2661,0.03 -0.269,0.03 -0.539,0.05 -0.274,0.03 -0.269,0.02 -0.274,0.02 -0.269,0.02 -0.5469,0.04 -0.273,0.02 -0.274,0.01 -0.2771,0.01 -0.274,0.01 -0.2769,0.01 h -0.2771 -0.278 -0.5539 -0.2821 -0.5659 l -0.5591,-0.01 -0.554,-0.02 -0.551,-0.02 -0.543,-0.03 -0.539,-0.04 -0.535,-0.04 -0.528,-0.05 -0.523,-0.06 -0.516,-0.06 -0.5109,-0.07 -0.5081,-0.08 -0.5,-0.09 -0.496,-0.09 -0.4919,-0.101 -0.485,-0.106 -0.4801,-0.113 -0.4769,-0.117 -0.4691,-0.125 -0.4639,-0.133 -0.457,-0.141 -0.4541,-0.148 -0.4489,-0.152 -0.4411,-0.161 -0.4379,-0.168 -0.429,-0.175 -0.4301,-0.18 -0.418,-0.188 -0.418,-0.195 -0.41,-0.199 -0.4059,-0.207 -0.399,-0.215 -0.394,-0.223 -0.3911,-0.23 -0.3829,-0.234 -0.379,-0.243 -0.371,-0.25 -0.3671,-0.254 -0.3629,-0.265 -0.356,-0.266 -0.351,-0.277 -0.3481,-0.285 -0.3399,-0.289 -0.336,-0.297 -0.332,-0.305 -0.3241,-0.309 -0.3159,-0.316 -0.313,-0.32 -0.3051,-0.328 -0.297,-0.332 -0.2919,-0.336 -0.282,-0.344 -0.2771,-0.348 -0.27,-0.351 -0.2609,-0.356 -0.2581,-0.363 -0.246,-0.367 -0.2419,-0.371 -0.235,-0.379 -0.2301,-0.383 -0.219,-0.387 -0.2149,-0.394 -0.207,-0.399 -0.1991,-0.402 -0.192,-0.406 -0.187,-0.414 -0.1759,-0.418 -0.172,-0.426 -0.164,-0.43 -0.16,-0.433 -0.148,-0.438 -0.145,-0.445 -0.1371,-0.449 -0.1279,-0.454 -0.1221,-0.457 -0.1169,-0.464 -0.1091,-0.469 -0.1019,-0.477 -0.093,-0.48 -0.086,-0.485 -0.082,-0.488 -0.0751,-0.496 -0.066,-0.5 -0.059,-0.504 -0.0539,-0.512 -0.0431,-0.515 -0.0389,-0.52 -0.0321,-0.527 -0.023,-0.531 -0.02,-0.536 -0.011,-0.539 v -0.835 l 0.007,-0.579 0.0161,-0.57 0.0119,-0.281 0.015,-0.281 0.0161,-0.278 0.02,-0.281 0.019,-0.273 0.047,-0.547 0.0269,-0.274 0.028,-0.269 0.031,-0.266 0.0311,-0.269 0.0349,-0.262 0.039,-0.266 0.0401,-0.262 0.0419,-0.257 0.043,-0.262 0.0471,-0.254 0.047,-0.258 0.0509,-0.254 0.051,-0.25 0.1091,-0.5 0.0589,-0.246 0.125,-0.492 0.1331,-0.484 0.0659,-0.239 0.0741,-0.238 0.149,-0.469 0.0779,-0.234 0.078,-0.231 0.082,-0.23 0.258,-0.68 0.093,-0.222 0.0901,-0.223 0.0979,-0.219 0.094,-0.218 0.1011,-0.219 0.0979,-0.215 0.101,-0.215 0.106,-0.215 0.101,-0.211 0.11,-0.211 0.105,-0.211 0.2191,-0.414 0.227,-0.414 0.1129,-0.203 0.2341,-0.406 0.118,-0.199 0.2419,-0.399 0.125,-0.199 0.25,-0.391 0.125,-0.191 0.1291,-0.195 0.1319,-0.192 0.1291,-0.187 0.137,-0.192 0.1329,-0.187 0.1371,-0.188 0.136,-0.183 0.1409,-0.188 0.1411,-0.179 0.14,-0.184 0.4339,-0.539 0.1481,-0.18 0.149,-0.175 0.1519,-0.172 0.148,-0.176 0.1571,-0.172 0.152,-0.172 0.156,-0.172 0.1599,-0.168 0.1571,-0.168 0.1599,-0.168 0.4921,-0.492 0.1719,-0.168 0.172,-0.164 0.1761,-0.164 0.179,-0.164 0.1839,-0.168 0.1871,-0.164 0.1919,-0.168 0.1951,-0.164 0.3979,-0.336 0.4151,-0.336 0.429,-0.336 0.2189,-0.168 0.2231,-0.168 0.226,-0.172 0.231,-0.168 0.234,-0.172 0.238,-0.168 0.239,-0.171 0.4919,-0.344 0.5081,-0.344 0.2569,-0.172 0.2621,-0.172 0.2659,-0.172 0.2691,-0.171 0.2739,-0.176 0.2771,-0.172 0.281,-0.176 0.282,-0.172 0.5779,-0.351 0.593,-0.352 0.3011,-0.176 0.3049,-0.175 0.308,-0.176 0.3131,-0.176 0.3159,-0.176 0.321,-0.179 0.3201,-0.176 0.328,-0.18 0.3479,-0.191 0.3441,-0.188 0.336,-0.187 0.332,-0.184 0.328,-0.183 0.3199,-0.18 0.316,-0.176 0.313,-0.176 0.308,-0.172 0.3011,-0.172 0.297,-0.167 0.289,-0.168 0.289,-0.165 0.2809,-0.16 0.274,-0.16 0.269,-0.156 0.2661,-0.156 0.2619,-0.153 0.254,-0.148 0.25,-0.149 0.246,-0.144 0.2381,-0.145 0.2379,-0.14 0.227,-0.141 0.226,-0.137 0.2191,-0.132 0.215,-0.133 0.207,-0.129 0.203,-0.129 0.1989,-0.125 0.196,-0.121 0.1871,-0.121 0.1839,-0.117 0.1801,-0.118 0.1709,-0.113 0.168,-0.113 0.321,-0.215 0.4411,-0.309 0.27,-0.191 0.2459,-0.184 0.2301,-0.179 0.2229,-0.176 0.3281,-0.266 0.2109,-0.175 0.2031,-0.18 0.203,-0.176 0.3909,-0.359 0.183,-0.184 0.364,-0.359 0.1721,-0.184 0.168,-0.183 0.164,-0.184 0.1559,-0.184 0.1521,-0.183 0.149,-0.188 0.144,-0.187 0.1409,-0.184 0.1991,-0.281 0.1289,-0.191 0.1211,-0.188 0.117,-0.187 0.1129,-0.196 0.106,-0.191 0.1021,-0.196 0.097,-0.199 0.0939,-0.203 0.129,-0.305 0.078,-0.207 0.144,-0.421 0.063,-0.215 0.1131,-0.434 0.047,-0.223 0.043,-0.222 0.039,-0.223 0.0509,-0.344 0.023,-0.23 0.02,-0.234 0.023,-0.356 0.008,-0.242 v -0.457 l -0.004,-0.215 -0.008,-0.211 -0.011,-0.211 -0.0119,-0.207 -0.0161,-0.203 -0.019,-0.203 -0.0199,-0.199 -0.0271,-0.2 -0.0269,-0.195 -0.0321,-0.195 -0.0309,-0.188 -0.0351,-0.191 -0.0429,-0.184 -0.0391,-0.183 -0.0469,-0.184 -0.047,-0.18 -0.0511,-0.175 -0.054,-0.176 -0.0549,-0.172 -0.062,-0.168 -0.0591,-0.168 -0.1369,-0.328 -0.1441,-0.32 -0.239,-0.461 -0.265,-0.438 -0.192,-0.281 -0.2029,-0.273 -0.2151,-0.262 -0.226,-0.254 -0.2379,-0.242 -0.25,-0.235 -0.2621,-0.226 -0.2699,-0.215 -0.285,-0.207 -0.4411,-0.293 -0.465,-0.27 -0.324,-0.168 -0.3319,-0.156 -0.1681,-0.07 -0.176,-0.07 -0.1719,-0.07 -0.1801,-0.07 -0.1789,-0.07 -0.184,-0.06 -0.1841,-0.06 -0.187,-0.06 -0.1909,-0.06 -0.196,-0.05 -0.1951,-0.05 -0.1949,-0.05 -0.4071,-0.09 -0.2029,-0.04 -0.211,-0.04 -0.207,-0.03 -0.2151,-0.03 -0.2139,-0.03 -0.2191,-0.03 -0.2229,-0.03 -0.222,-0.02 -0.4541,-0.05 -0.23,-0.02 -0.2339,-0.01 -0.235,-0.01 -0.2381,-0.01 h -0.242 -0.2459 -0.2431 -0.461 -0.207 -0.4209 -0.2151 -0.211 l -0.4299,0.02 -0.2191,0.02 -0.2139,0.02 -0.2191,0.02 -0.2189,0.02 -0.219,0.02 -0.222,0.02 -0.2231,0.03 -0.2229,0.02 -0.222,0.03 -0.223,0.03 -0.4531,0.06 -0.2269,0.03 -0.2301,0.03 -0.2269,0.03 -0.2301,0.04 -0.231,0.04 -0.234,0.04 -0.231,0.05 -0.2339,0.04 -0.2341,0.05 -0.239,0.05 -0.2339,0.05 -0.2381,0.05 -0.4769,0.11 -0.4841,0.117 -0.7269,0.187 -0.492,0.133 -0.246,0.07 -0.5,0.141 -0.2461,0.07 -0.2539,0.08 -0.25,0.08 -0.254,0.08 -0.258,0.08 -0.261,0.08 -0.524,0.179 -0.269,0.09 -0.27,0.09 -0.269,0.1 -0.274,0.101 -0.2771,0.102 -0.2809,0.101 -0.282,0.106 -0.281,0.109 -0.2851,0.113 -0.289,0.114 -0.293,0.113 -0.293,0.121 -0.2969,0.117 -0.297,0.125 -0.3011,0.125 -0.609,0.258 -0.309,0.133 -0.308,0.137 -0.3129,0.136 -0.6331,0.282 -0.3199,0.144 -0.6481,0.297 -0.657,0.305 -0.3349,0.16 -0.332,0.156 -0.34,0.164 -0.3361,0.164 -0.344,0.164 -0.3439,0.168 -0.6951,0.344 -0.352,0.176 -0.711,0.359 -0.3589,0.184 -0.3631,0.187 v -18.73 l 0.4451,-0.246 0.4449,-0.242 0.446,-0.235 0.453,-0.23 0.453,-0.223 0.457,-0.223 0.922,-0.421 0.465,-0.2 0.468,-0.199 0.4731,-0.191 0.4729,-0.188 0.4761,-0.18 0.4809,-0.175 0.4801,-0.172 0.489,-0.164 0.4879,-0.16 0.9841,-0.305 0.496,-0.141 0.5,-0.14 1.008,-0.258 0.5119,-0.121 0.5081,-0.117 0.515,-0.11 0.5199,-0.105 0.5191,-0.102 0.5239,-0.09 0.5231,-0.09 0.528,-0.08 0.5349,-0.08 0.531,-0.07 0.5391,-0.07 0.539,-0.06 0.543,-0.06 0.5469,-0.05 0.547,-0.05 0.554,-0.04 0.5551,-0.03 0.5549,-0.03 0.562,-0.02 0.563,-0.02 1.1331,-0.02 h 0.5739 0.6171 z m 176.5159,1.309 0.4841,0.02 0.4879,0.04 0.485,0.06 0.4801,0.07 0.481,0.09 0.472,0.109 0.4729,0.121 0.469,0.129 0.4651,0.157 0.457,0.168 0.4529,0.175 0.4451,0.204 0.438,0.21 0.433,0.223 0.422,0.242 0.4179,0.254 0.4061,0.266 0.399,0.285 0.3859,0.293 0.3831,0.305 0.3629,0.32 0.36,0.332 0.347,0.34 0.3331,0.359 0.3199,0.363 0.3161,0.375 0.293,0.387 0.2849,0.399 0.274,0.402 0.254,0.414 0.246,0.422 0.2301,0.43 0.211,0.437 0.2029,0.445 0.188,0.45 0.168,0.457 0.1521,0.461 0.1449,0.464 0.121,0.473 0.1091,0.477 0.0939,0.476 0.0741,0.485 0.063,0.484 0.047,0.484 0.019,0.364 0.016,0.363 0.007,0.367 v 215.043 l -0.015,0.488 -0.024,0.485 -0.0349,0.488 -0.0621,0.484 -0.071,0.481 -0.0849,0.48 -0.11,0.473 -0.1171,0.473 -0.1329,0.468 -0.1561,0.461 -0.168,0.461 -0.1759,0.453 -0.203,0.446 -0.211,0.437 -0.2231,0.434 -0.2419,0.422 -0.254,0.418 -0.2651,0.406 -0.282,0.398 -0.2959,0.387 -0.3051,0.383 -0.3199,0.363 -0.332,0.36 -0.3401,0.347 -0.3599,0.332 -0.363,0.321 -0.375,0.316 -0.387,0.293 -0.3941,0.285 -0.403,0.273 -0.418,0.254 -0.4209,0.243 -0.4301,0.234 -0.438,0.211 -0.4449,0.199 -0.4491,0.192 -0.457,0.167 -0.461,0.153 -0.4649,0.144 -0.4731,0.121 -0.476,0.11 -0.4769,0.09 -0.4841,0.07 -0.481,0.06 -0.4879,0.05 -0.3631,0.02 -0.3629,0.01 H 440.816 323.5201 l -63.5361,-63.535 v -58.644 h 9.778 v 48.871 h 48.871 l 0.4881,0.01 0.4839,0.02 0.489,0.04 0.4841,0.06 0.481,0.08 0.48,0.09 0.477,0.105 0.4679,0.121 0.4731,0.133 0.4609,0.156 0.4571,0.164 0.453,0.18 0.4449,0.199 0.438,0.211 0.4341,0.223 0.4209,0.246 0.418,0.254 0.4111,0.262 0.394,0.285 0.3869,0.293 0.3831,0.304 0.3629,0.325 0.3591,0.332 0.3479,0.339 0.332,0.356 0.3241,0.367 0.313,0.371 0.293,0.391 0.2849,0.394 0.2731,0.403 0.254,0.418 0.246,0.422 0.2309,0.425 0.2111,0.442 0.2029,0.441 0.1871,0.449 0.168,0.457 0.1559,0.465 0.1411,0.465 0.121,0.473 0.11,0.472 0.097,0.481 0.071,0.48 0.062,0.485 0.0469,0.484 0.019,0.363 0.0161,0.368 0.008,0.367 v 48.871 h 107.519 l 0.3681,-0.01 0.48,-0.06 0.477,-0.11 0.461,-0.152 0.4449,-0.203 0.422,-0.242 0.3941,-0.286 0.3669,-0.32 0.332,-0.359 0.293,-0.387 0.254,-0.418 0.2111,-0.437 0.168,-0.458 0.1169,-0.472 0.075,-0.485 0.0231,-0.484 v -215.043 l -0.0121,-0.363 -0.062,-0.485 -0.1089,-0.476 -0.153,-0.461 -0.203,-0.445 -0.2421,-0.422 -0.285,-0.395 -0.321,-0.363 -0.3589,-0.332 -0.387,-0.297 -0.4181,-0.254 -0.437,-0.211 -0.457,-0.164 -0.4729,-0.121 -0.4801,-0.07 -0.489,-0.02 h -32.773 v -9.773 h 32.773 l 0.489,0.01 z"
       style="fill:#000000;fill-opacity:1;fill-rule:evenodd;stroke:#000000;stroke-width:1.2218;stroke-linecap:butt;stroke-linejoin:miter;stroke-miterlimit:4;stroke-dasharray:none;stroke-opacity:1"
       transform="matrix(1.3333333,0,0,-1.3333333,-288,21167.381)" />
  </g>
</svg>
