<?xml version="1.0" standalone="no"?>
<!DOCTYPE svg PUBLIC "-//W3C//DTD SVG 1.1//EN" "http://www.w3.org/Graphics/SVG/1.1/DTD/svg11.dtd">
<svg width="100mm" height="100mm" viewBox="-8 -108 116 116" xmlns="http://www.w3.org/2000/svg" version="1.1">
<title>OpenSCAD Model</title>
<path d="
M 15.5876,-9.58041 L 15.798,-9.54585 L 15.8908,-9.53172 L 16.0997,-9.50243 L 16.1948,-9.49025 L 16.4021,-9.46622
 L 16.4995,-9.45615 L 16.7052,-9.43739 L 16.8051,-9.42953 L 17.0091,-9.41608 L 17.1108,-9.41068 L 17.3131,-9.4025
 L 17.4171,-9.39964 L 17.6181,-9.39676 L 17.7237,-9.39664 L 17.9223,-9.39905 L 18.0303,-9.40182 L 18.227,-9.40953
 L 18.3366,-9.41533 L 18.5313,-9.42831 L 18.6427,-9.4373 L 18.8353,-9.45557 L 18.9486,-9.46794 L 19.1392,-9.4915
 L 19.2534,-9.50731 L 19.4417,-9.53612 L 19.5571,-9.55551 L 19.7433,-9.5896 L 19.8597,-9.61272 L 20.0436,-9.65205
 L 20.1604,-9.67889 L 20.342,-9.72346 L 20.46,-9.75435 L 20.6391,-9.80417 L 20.7567,-9.83882 L 20.9334,-9.89384
 L 21.0508,-9.9324 L 21.225,-9.99261 L 21.3424,-10.0353 L 21.514,-10.1007 L 21.6304,-10.1471 L 21.7994,-10.2176
 L 21.9152,-10.2681 L 22.0816,-10.3438 L 22.1453,-10.3735 L 28.9894,-13.6333 L 29.0303,-13.6096 L 29.6076,-13.283
 L 29.6686,-13.2492 L 30.2514,-12.9327 L 30.3131,-12.9 L 30.9013,-12.5937 L 30.9636,-12.562 L 31.5572,-12.2661
 L 31.6199,-12.2355 L 32.2185,-11.95 L 32.2817,-11.9205 L 32.8852,-11.6454 L 32.949,-11.617 L 33.5572,-11.3526
 L 33.6214,-11.3253 L 34.2342,-11.0715 L 34.299,-11.0453 L 34.9161,-10.8023 L 34.9812,-10.7773 L 35.6024,-10.545
 L 35.668,-10.5211 L 36.2932,-10.2997 L 36.3592,-10.277 L 36.9882,-10.0666 L 37.0545,-10.045 L 37.6871,-9.84557
 L 37.7538,-9.82516 L 38.3897,-9.6368 L 38.4569,-9.61752 L 39.096,-9.44029 L 39.1633,-9.42224 L 39.8054,-9.25618
 L 39.8732,-9.23929 L 40.5181,-9.08446 L 40.5862,-9.06874 L 41.2336,-8.9252 L 41.3019,-8.91069 L 41.9518,-8.77847
 L 42.0203,-8.76517 L 42.6724,-8.6443 L 42.7412,-8.63217 L 43.3953,-8.52271 L 43.4643,-8.51178 L 44.1202,-8.41376
 L 44.1893,-8.40405 L 44.8468,-8.31747 L 44.9162,-8.30896 L 45.5751,-8.23389 L 45.6445,-8.22659 L 46.3047,-8.16302
 L 46.3743,-8.15694 L 47.0354,-8.1049 L 47.105,-8.10004 L 47.767,-8.05954 L 47.8369,-8.05588 L 48.4994,-8.02696
 L 48.5691,-8.02454 L 49.2321,-8.00717 L 49.3018,-8.00595 L 49.965,-8.00015 L 50.035,-8.00015 L 50.6982,-8.00595
 L 50.7679,-8.00717 L 51.4309,-8.02454 L 51.5006,-8.02696 L 52.1631,-8.05588 L 52.233,-8.05954 L 52.895,-8.10004
 L 52.9646,-8.1049 L 53.6257,-8.15694 L 53.6953,-8.16302 L 54.3555,-8.22659 L 54.4249,-8.23389 L 55.0838,-8.30896
 L 55.1532,-8.31747 L 55.8107,-8.40405 L 55.8798,-8.41376 L 56.5357,-8.51178 L 56.6047,-8.52271 L 57.2588,-8.63217
 L 57.3276,-8.6443 L 57.9797,-8.76517 L 58.0482,-8.77847 L 58.6981,-8.91069 L 58.7664,-8.9252 L 59.4138,-9.06874
 L 59.4819,-9.08446 L 60.1268,-9.23929 L 60.1946,-9.25618 L 60.8367,-9.42224 L 60.904,-9.44029 L 61.5431,-9.61752
 L 61.6103,-9.6368 L 62.2462,-9.82516 L 62.3129,-9.84557 L 62.9455,-10.045 L 63.0118,-10.0666 L 63.6408,-10.277
 L 63.7068,-10.2997 L 64.332,-10.5211 L 64.3976,-10.545 L 65.0188,-10.7773 L 65.0839,-10.8023 L 65.701,-11.0453
 L 65.7658,-11.0715 L 66.3786,-11.3253 L 66.4428,-11.3526 L 67.051,-11.617 L 67.1148,-11.6454 L 67.7183,-11.9205
 L 67.7815,-11.95 L 68.3801,-12.2355 L 68.4428,-12.2661 L 69.0364,-12.562 L 69.0987,-12.5937 L 69.6869,-12.9
 L 69.7486,-12.9327 L 70.3314,-13.2492 L 70.3924,-13.283 L 70.9697,-13.6096 L 71.0301,-13.6445 L 71.6015,-13.9811
 L 71.6615,-14.0171 L 72.227,-14.3637 L 72.2861,-14.4006 L 72.8454,-14.7569 L 72.904,-14.795 L 73.4571,-15.161
 L 73.5149,-15.2001 L 74.0615,-15.5757 L 74.1187,-15.6158 L 74.6586,-16.0009 L 74.7151,-16.0419 L 75.2483,-16.4364
 L 75.304,-16.4785 L 75.8302,-16.8822 L 75.8851,-16.9251 L 76.4042,-17.338 L 76.4585,-17.382 L 76.9703,-17.8038
 L 77.0237,-17.8487 L 77.528,-18.2794 L 77.5807,-18.3252 L 78.0774,-18.7646 L 78.1294,-18.8114 L 78.6183,-19.2595
 L 78.6693,-19.3071 L 79.1504,-19.7636 L 79.2006,-19.812 L 79.6736,-20.2769 L 79.7231,-20.3264 L 80.188,-20.7994
 L 80.2364,-20.8496 L 80.6929,-21.3307 L 80.7405,-21.3817 L 81.1886,-21.8706 L 81.2354,-21.9226 L 81.6748,-22.4193
 L 81.7206,-22.472 L 82.1513,-22.9763 L 82.1962,-23.0297 L 82.618,-23.5415 L 82.662,-23.5958 L 83.0749,-24.1149
 L 83.1178,-24.1698 L 83.5215,-24.696 L 83.5636,-24.7517 L 83.9581,-25.2849 L 83.9991,-25.3414 L 84.3842,-25.8813
 L 84.4243,-25.9385 L 84.7999,-26.4851 L 84.839,-26.5429 L 85.205,-27.096 L 85.2431,-27.1546 L 85.5994,-27.7139
 L 85.6363,-27.773 L 85.9829,-28.3385 L 86.0189,-28.3985 L 86.3555,-28.9699 L 86.3904,-29.0303 L 86.717,-29.6076
 L 86.7508,-29.6686 L 87.0673,-30.2514 L 87.1,-30.3131 L 87.4063,-30.9013 L 87.438,-30.9636 L 87.7339,-31.5572
 L 87.7645,-31.6199 L 88.05,-32.2185 L 88.0795,-32.2817 L 88.3546,-32.8852 L 88.383,-32.949 L 88.6474,-33.5572
 L 88.6747,-33.6214 L 88.9285,-34.2342 L 88.9547,-34.299 L 89.1977,-34.9161 L 89.2227,-34.9812 L 89.455,-35.6024
 L 89.4789,-35.668 L 89.7003,-36.2932 L 89.723,-36.3592 L 89.9334,-36.9882 L 89.955,-37.0545 L 90.1544,-37.6871
 L 90.1748,-37.7538 L 90.3632,-38.3897 L 90.3825,-38.4569 L 90.5597,-39.096 L 90.5778,-39.1633 L 90.7438,-39.8054
 L 90.7607,-39.8732 L 90.9155,-40.5181 L 90.9313,-40.5862 L 91.0748,-41.2336 L 91.0893,-41.3019 L 91.2215,-41.9518
 L 91.2348,-42.0203 L 91.3557,-42.6724 L 91.3678,-42.7412 L 91.4773,-43.3953 L 91.4882,-43.4643 L 91.5862,-44.1202
 L 91.5959,-44.1893 L 91.6825,-44.8468 L 91.691,-44.9162 L 91.7661,-45.5751 L 91.7734,-45.6445 L 91.8182,-46.1098
 L 91.9345,-46.105 L 92.1339,-46.1068 L 92.333,-46.1185 L 92.5313,-46.14 L 92.7282,-46.1715 L 92.9234,-46.2127
 L 93.1162,-46.2636 L 93.3063,-46.3241 L 93.4931,-46.3939 L 93.7193,-46.4932 L 96.9739,-48.0434 L 97.0145,-48.063
 L 97.1695,-48.139 L 97.2893,-48.2002 L 97.4415,-48.2813 L 97.5586,-48.3462 L 97.708,-48.4323 L 97.8235,-48.5015
 L 97.97,-48.5926 L 98.082,-48.6649 L 98.2257,-48.7611 L 98.3352,-48.8371 L 98.476,-48.9382 L 98.5824,-49.0175
 L 98.7202,-49.1236 L 98.823,-49.2056 L 98.9577,-49.3166 L 99.0568,-49.401 L 99.1885,-49.5169 L 99.2841,-49.6039
 L 99.4127,-49.7246 L 99.5042,-49.8134 L 99.6296,-49.9389 L 99.7171,-50.0293 L 99.8393,-50.1597 L 99.923,-50.2517
 L 100.042,-50.3867 L 100.121,-50.4797 L 100.237,-50.6194 L 100.312,-50.7128 L 100.425,-50.8571 L 100.496,-50.9518
 L 100.605,-51.1008 L 100.672,-51.1952 L 100.778,-51.3487 L 100.841,-51.4433 L 100.943,-51.6013 L 101.003,-51.6959
 L 101.102,-51.8584 L 101.157,-51.9523 L 101.253,-52.1192 L 101.304,-52.2124 L 101.396,-52.3837 L 101.445,-52.4765
 L 101.533,-52.6521 L 101.578,-52.7437 L 101.663,-52.9236 L 101.704,-53.0142 L 101.786,-53.1983 L 101.824,-53.2877
 L 101.902,-53.476 L 101.937,-53.5644 L 102.011,-53.7568 L 102.044,-53.8439 L 102.114,-54.0403 L 102.144,-54.1255
 L 102.211,-54.3258 L 102.238,-54.4102 L 102.301,-54.6144 L 102.326,-54.6971 L 102.385,-54.9051 L 102.408,-54.9863
 L 102.463,-55.1982 L 102.484,-55.2779 L 102.536,-55.4935 L 102.554,-55.5714 L 102.602,-55.7907 L 102.618,-55.8674
 L 102.663,-56.0903 L 102.677,-56.1652 L 102.718,-56.3916 L 102.73,-56.465 L 102.767,-56.6948 L 102.778,-56.7668
 L 102.812,-57 L 102.821,-57.0706 L 102.85,-57.3071 L 102.858,-57.376 L 102.884,-57.6158 L 102.891,-57.6832
 L 102.912,-57.9261 L 102.918,-57.9924 L 102.936,-58.2384 L 102.94,-58.3031 L 102.954,-58.552 L 102.957,-58.6155
 L 102.967,-58.8674 L 102.969,-58.9293 L 102.976,-59.1841 L 102.977,-59.2451 L 102.98,-59.5027 L 102.98,-59.5622
 L 102.978,-59.8225 L 102.978,-59.8808 L 102.973,-60.1437 L 102.971,-60.2008 L 102.962,-60.4663 L 102.96,-60.5223
 L 102.947,-60.7902 L 102.944,-60.8452 L 102.927,-61.1155 L 102.924,-61.1693 L 102.903,-61.4419 L 102.899,-61.4944
 L 102.875,-61.7693 L 102.87,-61.8211 L 102.842,-62.0981 L 102.836,-62.1489 L 102.804,-62.4279 L 102.798,-62.4777
 L 102.762,-62.7587 L 102.756,-62.8075 L 102.716,-63.0904 L 102.709,-63.1385 L 102.666,-63.4232 L 102.659,-63.4704
 L 102.612,-63.7568 L 102.604,-63.8029 L 102.553,-64.0909 L 102.545,-64.1367 L 102.49,-64.4263 L 102.481,-64.471
 L 102.423,-64.7619 L 102.414,-64.8059 L 102.352,-65.0983 L 102.342,-65.1418 L 102.277,-65.4354 L 102.267,-65.4781
 L 102.198,-65.7728 L 102.188,-65.8149 L 102.115,-66.1108 L 102.104,-66.1522 L 102.028,-66.4491 L 102.017,-66.4899
 L 101.937,-66.7877 L 101.926,-66.8278 L 101.842,-67.1264 L 101.83,-67.1662 L 101.743,-67.4655 L 101.732,-67.5047
 L 101.641,-67.8046 L 101.629,-67.8432 L 101.535,-68.1437 L 101.522,-68.182 L 101.424,-68.483 L 101.412,-68.5205
 L 101.311,-68.8218 L 101.298,-68.859 L 101.194,-69.1606 L 101.181,-69.1976 L 101.073,-69.4993 L 101.059,-69.5356
 L 100.948,-69.8374 L 100.935,-69.8734 L 100.82,-70.1752 L 100.806,-70.2109 L 100.688,-70.5126 L 100.674,-70.5478
 L 100.553,-70.8493 L 100.539,-70.8842 L 100.415,-71.1855 L 100.4,-71.2201 L 100.273,-71.521 L 100.258,-71.5553
 L 100.128,-71.8557 L 100.113,-71.8896 L 99.9789,-72.1895 L 99.9637,-72.2232 L 99.827,-72.5224 L 99.8116,-72.5558
 L 99.6718,-72.8543 L 99.6562,-72.8873 L 99.5135,-73.185 L 99.4975,-73.2181 L 99.3519,-73.5148 L 99.3357,-73.5474
 L 99.1873,-73.8431 L 99.1708,-73.8756 L 99.0195,-74.1702 L 99.0029,-74.2023 L 98.8488,-74.4957 L 98.8317,-74.528
 L 98.6749,-74.8201 L 98.6576,-74.8521 L 98.4981,-75.1428 L 98.4806,-75.1745 L 98.3185,-75.4637 L 98.3006,-75.4955
 L 98.1359,-75.7832 L 98.1177,-75.8146 L 97.9505,-76.1007 L 97.9321,-76.1319 L 97.7625,-76.4163 L 97.7436,-76.4476
 L 97.5715,-76.7302 L 97.5524,-76.7613 L 97.3779,-77.042 L 97.3584,-77.0729 L 97.1816,-77.3516 L 97.1618,-77.3825
 L 96.9827,-77.6592 L 96.9625,-77.6901 L 96.7812,-77.9646 L 96.7607,-77.9953 L 96.5773,-78.2676 L 96.5565,-78.2981
 L 96.3709,-78.568 L 96.3496,-78.5987 L 96.162,-78.8663 L 96.1403,-78.897 L 95.9507,-79.162 L 95.9286,-79.1925
 L 95.7371,-79.455 L 95.7146,-79.4855 L 95.5212,-79.7454 L 95.4983,-79.7759 L 95.3031,-80.033 L 95.2796,-80.0636
 L 95.0826,-80.3179 L 95.0589,-80.3484 L 94.8602,-80.5998 L 94.8358,-80.6304 L 94.6355,-80.8789 L 94.6107,-80.9093
 L 94.4088,-81.1548 L 94.3834,-81.1854 L 94.18,-81.4278 L 94.154,-81.4584 L 93.9492,-81.6976 L 93.9228,-81.7281
 L 93.7166,-81.9641 L 93.6895,-81.9947 L 93.4819,-82.2274 L 93.4542,-82.2581 L 93.2453,-82.4874 L 93.2172,-82.5179
 L 93.0072,-82.7437 L 92.9781,-82.7746 L 92.767,-82.9969 L 92.7375,-83.0276 L 92.5252,-83.2462 L 92.495,-83.2771
 L 92.2817,-83.4921 L 92.2505,-83.5232 L 92.0363,-83.7345 L 92.0047,-83.7653 L 91.7897,-83.9727 L 91.757,-84.0039
 L 91.5411,-84.2075 L 91.5077,-84.2387 L 91.2911,-84.4384 L 91.2569,-84.4696 L 91.0396,-84.6653 L 91.0045,-84.6964
 L 90.7866,-84.8881 L 90.7504,-84.9196 L 90.5319,-85.1072 L 90.495,-85.1385 L 90.2761,-85.3219 L 90.2381,-85.3534
 L 90.0187,-85.5326 L 89.9796,-85.5641 L 89.7599,-85.7391 L 89.7198,-85.7706 L 89.4998,-85.9412 L 89.4585,-85.9728
 L 89.2384,-86.139 L 89.1959,-86.1706 L 88.9755,-86.3325 L 88.9318,-86.3641 L 88.7114,-86.5215 L 88.6665,-86.5531
 L 88.446,-86.7059 L 88.3997,-86.7375 L 88.1794,-86.8858 L 88.1319,-86.9173 L 87.9116,-87.0609 L 87.8625,-87.0925
 L 87.6424,-87.2315 L 87.5917,-87.263 L 87.3719,-87.3973 L 87.3198,-87.4286 L 87.1003,-87.5582 L 87.0466,-87.5893
 L 86.8275,-87.7141 L 86.7722,-87.745 L 86.5536,-87.865 L 86.4964,-87.8958 L 86.2783,-88.0109 L 86.2191,-88.0415
 L 86.0016,-88.1517 L 85.941,-88.1818 L 85.7241,-88.2871 L 85.6615,-88.3169 L 85.4453,-88.4173 L 85.3805,-88.4467
 L 85.1651,-88.542 L 85.0982,-88.571 L 84.8837,-88.6613 L 84.8147,-88.6896 L 84.6012,-88.7749 L 84.5299,-88.8026
 L 84.3173,-88.8829 L 84.2438,-88.9098 L 84.0322,-88.985 L 83.9565,-89.011 L 83.7461,-89.0811 L 83.6679,-89.1062
 L 83.4586,-89.1712 L 83.378,-89.1953 L 83.17,-89.255 L 83.0868,-89.278 L 82.8801,-89.3326 L 82.7944,-89.3542
 L 82.5891,-89.4036 L 82.5007,-89.4238 L 82.2968,-89.468 L 82.2059,-89.4866 L 82.0035,-89.5256 L 81.9099,-89.5425
 L 81.709,-89.5762 L 81.6129,-89.5912 L 81.4136,-89.6197 L 81.3147,-89.6326 L 81.1172,-89.6559 L 81.0155,-89.6665
 L 80.8197,-89.6845 L 80.7159,-89.6927 L 80.5218,-89.7055 L 80.4149,-89.7111 L 80.2227,-89.7186 L 80.1138,-89.7213
 L 79.9235,-89.7235 L 79.8122,-89.7233 L 79.6239,-89.7202 L 79.5103,-89.7168 L 79.324,-89.7084 L 79.2083,-89.7016
 L 79.0241,-89.688 L 78.9064,-89.6776 L 78.7243,-89.6587 L 78.6051,-89.6446 L 78.4252,-89.6205 L 78.3043,-89.6024
 L 78.1267,-89.5731 L 78.0043,-89.5509 L 77.829,-89.5163 L 77.7061,-89.49 L 77.5332,-89.4502 L 77.4092,-89.4196
 L 77.2387,-89.3745 L 77.1148,-89.3397 L 76.9467,-89.2894 L 76.8222,-89.25 L 76.6566,-89.1946 L 76.5325,-89.1507
 L 76.3695,-89.0901 L 76.2462,-89.0419 L 76.0858,-88.9762 L 75.9636,-88.9237 L 75.8059,-88.8528 L 75.7261,-88.8159
 L 73.0398,-87.537 L 72.8619,-87.4468 L 72.6888,-87.3479 L 72.5208,-87.2404 L 72.3583,-87.1247 L 72.2018,-87.001
 L 72.0517,-86.8697 L 71.9083,-86.7311 L 71.772,-86.5855 L 71.6431,-86.4333 L 71.522,-86.2749 L 71.4196,-86.1261
 L 71.0301,-86.3555 L 70.9697,-86.3904 L 70.3924,-86.717 L 70.3314,-86.7508 L 69.7486,-87.0673 L 69.6869,-87.1
 L 69.0987,-87.4063 L 69.0364,-87.438 L 68.4428,-87.7339 L 68.3801,-87.7645 L 67.7815,-88.05 L 67.7183,-88.0795
 L 67.1148,-88.3546 L 67.051,-88.383 L 66.4428,-88.6474 L 66.3786,-88.6747 L 65.7658,-88.9285 L 65.701,-88.9547
 L 65.0839,-89.1977 L 65.0188,-89.2227 L 64.3976,-89.455 L 64.332,-89.4789 L 63.7068,-89.7003 L 63.6408,-89.723
 L 63.0118,-89.9334 L 62.9455,-89.955 L 62.3129,-90.1544 L 62.2462,-90.1748 L 61.6103,-90.3632 L 61.5431,-90.3825
 L 60.904,-90.5597 L 60.8367,-90.5778 L 60.1946,-90.7438 L 60.1268,-90.7607 L 59.4819,-90.9155 L 59.4138,-90.9313
 L 58.7664,-91.0748 L 58.6981,-91.0893 L 58.0482,-91.2215 L 57.9797,-91.2348 L 57.3276,-91.3557 L 57.2588,-91.3678
 L 56.6047,-91.4773 L 56.5357,-91.4882 L 55.8798,-91.5862 L 55.8107,-91.5959 L 55.1532,-91.6825 L 55.0838,-91.691
 L 54.4249,-91.7661 L 54.3555,-91.7734 L 53.6953,-91.837 L 53.6257,-91.8431 L 52.9646,-91.8951 L 52.895,-91.9
 L 52.233,-91.9405 L 52.1631,-91.9441 L 51.5006,-91.973 L 51.4309,-91.9755 L 50.7679,-91.9928 L 50.6982,-91.994
 L 50.035,-91.9998 L 49.965,-91.9998 L 49.3018,-91.994 L 49.2321,-91.9928 L 48.5691,-91.9755 L 48.4994,-91.973
 L 47.8369,-91.9441 L 47.767,-91.9405 L 47.105,-91.9 L 47.0354,-91.8951 L 46.3743,-91.8431 L 46.3047,-91.837
 L 45.6445,-91.7734 L 45.5751,-91.7661 L 44.9162,-91.691 L 44.8468,-91.6825 L 44.1893,-91.5959 L 44.1202,-91.5862
 L 43.4643,-91.4882 L 43.3953,-91.4773 L 42.7412,-91.3678 L 42.6724,-91.3557 L 42.0203,-91.2348 L 41.9518,-91.2215
 L 41.3019,-91.0893 L 41.2336,-91.0748 L 40.5862,-90.9313 L 40.5181,-90.9155 L 39.8732,-90.7607 L 39.8054,-90.7438
 L 39.1633,-90.5778 L 39.096,-90.5597 L 38.4569,-90.3825 L 38.3897,-90.3632 L 37.7538,-90.1748 L 37.6871,-90.1544
 L 37.0545,-89.955 L 36.9882,-89.9334 L 36.3592,-89.723 L 36.2932,-89.7003 L 35.668,-89.4789 L 35.6024,-89.455
 L 34.9812,-89.2227 L 34.9161,-89.1977 L 34.299,-88.9547 L 34.2342,-88.9285 L 33.6214,-88.6747 L 33.5572,-88.6474
 L 32.949,-88.383 L 32.8852,-88.3546 L 32.2817,-88.0795 L 32.2185,-88.05 L 31.6199,-87.7645 L 31.5572,-87.7339
 L 30.9636,-87.438 L 30.9013,-87.4063 L 30.3131,-87.1 L 30.2514,-87.0673 L 29.6686,-86.7508 L 29.6076,-86.717
 L 29.0303,-86.3904 L 28.9699,-86.3555 L 28.3985,-86.0189 L 28.3385,-85.9829 L 27.773,-85.6363 L 27.7139,-85.5994
 L 27.1546,-85.2431 L 27.096,-85.205 L 26.5429,-84.839 L 26.4851,-84.7999 L 25.9385,-84.4243 L 25.8813,-84.3842
 L 25.3414,-83.9991 L 25.2849,-83.9581 L 24.7517,-83.5636 L 24.696,-83.5215 L 24.1698,-83.1178 L 24.1149,-83.0749
 L 23.5958,-82.662 L 23.5415,-82.618 L 23.0297,-82.1962 L 22.9763,-82.1513 L 22.472,-81.7206 L 22.4193,-81.6748
 L 21.9226,-81.2354 L 21.8706,-81.1886 L 21.3817,-80.7405 L 21.3307,-80.6929 L 20.8496,-80.2364 L 20.7994,-80.188
 L 20.3264,-79.7231 L 20.2769,-79.6736 L 19.812,-79.2006 L 19.7636,-79.1504 L 19.3071,-78.6693 L 19.2595,-78.6183
 L 18.8114,-78.1294 L 18.7646,-78.0774 L 18.3252,-77.5807 L 18.2794,-77.528 L 17.8487,-77.0237 L 17.8038,-76.9703
 L 17.382,-76.4585 L 17.338,-76.4042 L 16.9251,-75.8851 L 16.8822,-75.8302 L 16.4785,-75.304 L 16.4364,-75.2483
 L 16.0419,-74.7151 L 16.0009,-74.6586 L 15.6158,-74.1187 L 15.5757,-74.0615 L 15.2001,-73.5149 L 15.161,-73.4571
 L 14.795,-72.904 L 14.7569,-72.8454 L 14.4006,-72.2861 L 14.3637,-72.227 L 14.0171,-71.6615 L 13.9811,-71.6015
 L 13.6445,-71.0301 L 13.6096,-70.9697 L 13.283,-70.3924 L 13.2492,-70.3314 L 12.9327,-69.7486 L 12.9,-69.6869
 L 12.5937,-69.0987 L 12.562,-69.0364 L 12.2661,-68.4428 L 12.2355,-68.3801 L 11.95,-67.7815 L 11.9205,-67.7183
 L 11.6454,-67.1148 L 11.617,-67.051 L 11.3526,-66.4428 L 11.3253,-66.3786 L 11.0715,-65.7658 L 11.0453,-65.701
 L 10.8023,-65.0839 L 10.7773,-65.0188 L 10.545,-64.3976 L 10.5211,-64.332 L 10.2997,-63.7068 L 10.277,-63.6408
 L 10.0666,-63.0118 L 10.045,-62.9455 L 9.84557,-62.3129 L 9.82516,-62.2462 L 9.6368,-61.6103 L 9.61752,-61.5431
 L 9.44029,-60.904 L 9.42224,-60.8367 L 9.25618,-60.1946 L 9.23929,-60.1268 L 9.08446,-59.4819 L 9.06874,-59.4138
 L 8.9252,-58.7664 L 8.91069,-58.6981 L 8.77847,-58.0482 L 8.76517,-57.9797 L 8.6443,-57.3276 L 8.63217,-57.2588
 L 8.52271,-56.6047 L 8.51178,-56.5357 L 8.41376,-55.8798 L 8.40405,-55.8107 L 8.31747,-55.1532 L 8.30896,-55.0838
 L 8.25998,-54.6539 L 0.932236,-51.1653 L 0.881027,-51.1405 L 0.717361,-51.0597 L 0.604492,-51.0017 L 0.443573,-50.9158
 L 0.332733,-50.8544 L 0.174622,-50.7634 L 0.0654449,-50.6983 L -0.0898132,-50.6023 L -0.196289,-50.5341 L -0.348633,-50.4331
 L -0.452469,-50.3619 L -0.601883,-50.256 L -0.703491,-50.1815 L -0.849899,-50.0706 L -0.947983,-49.9938 L -1.09135,-49.878
 L -1.18639,-49.7988 L -1.32668,-49.6781 L -1.41837,-49.5968 L -1.55554,-49.4712 L -1.64409,-49.3877 L -1.77809,-49.2574
 L -1.86296,-49.1723 L -1.99374,-49.0373 L -2.07503,-48.9508 L -2.20247,-48.8111 L -2.28012,-48.7234 L -2.40439,-48.579
 L -2.47835,-48.4904 L -2.59929,-48.3413 L -2.66966,-48.252 L -2.78725,-48.0983 L -2.85397,-48.0085 L -2.96815,-47.8503
 L -3.03137,-47.7601 L -3.14212,-47.5974 L -3.20166,-47.5073 L -3.30894,-47.3402 L -3.36501,-47.2502 L -3.4688,-47.0787
 L -3.52138,-46.9892 L -3.62164,-46.8133 L -3.67108,-46.724 L -3.76779,-46.5438 L -3.81398,-46.4551 L -3.90709,-46.2707
 L -3.95018,-46.1827 L -4.03967,-45.9941 L -4.07974,-45.907 L -4.16559,-45.7144 L -4.20277,-45.6282 L -4.28485,-45.4317
 L -4.31949,-45.346 L -4.39783,-45.1457 L -4.42966,-45.0615 L -4.50443,-44.8568 L -4.53377,-44.7737 L -4.60478,-44.5652
 L -4.63159,-44.4836 L -4.69885,-44.2712 L -4.72345,-44.1906 L -4.78693,-43.9745 L -4.80931,-43.8953 L -4.86894,-43.6757
 L -4.88928,-43.5977 L -4.94513,-43.3743 L -4.96344,-43.2978 L -5.01546,-43.0709 L -5.03203,-42.9953 L -5.08017,-42.7649
 L -5.0948,-42.6914 L -5.1391,-42.4576 L -5.15219,-42.3848 L -5.1926,-42.1477 L -5.2041,-42.0762 L -5.2406,-41.8358
 L -5.25055,-41.7661 L -5.28316,-41.5226 L -5.29176,-41.4538 L -5.32045,-41.2071 L -5.32771,-41.1396 L -5.35246,-40.8898
 L -5.35844,-40.8239 L -5.37927,-40.5712 L -5.38408,-40.5064 L -5.40097,-40.2508 L -5.40468,-40.1871 L -5.41762,-39.9287
 L -5.42024,-39.8665 L -5.42924,-39.6053 L -5.43089,-39.5439 L -5.43593,-39.2801 L -5.43663,-39.2202 L -5.43773,-38.9539
 L -5.43753,-38.8949 L -5.43468,-38.6261 L -5.43364,-38.568 L -5.42682,-38.2968 L -5.425,-38.2401 L -5.41425,-37.9666
 L -5.41165,-37.9107 L -5.39694,-37.6349 L -5.39365,-37.5802 L -5.375,-37.3022 L -5.37103,-37.2484 L -5.34845,-36.9684
 L -5.34383,-36.9154 L -5.31731,-36.6334 L -5.31207,-36.5815 L -5.28163,-36.2975 L -5.27583,-36.2466 L -5.24149,-35.9608
 L -5.23512,-35.9106 L -5.19688,-35.6232 L -5.18999,-35.5738 L -5.14786,-35.2847 L -5.1405,-35.2363 L -5.0945,-34.9457
 L -5.08661,-34.8977 L -5.03673,-34.6056 L -5.02838,-34.5584 L -4.97464,-34.2649 L -4.96591,-34.2187 L -4.90834,-33.924
 L -4.89919,-33.8785 L -4.83781,-33.5825 L -4.82822,-33.5375 L -4.76305,-33.2404 L -4.75308,-33.1962 L -4.68414,-32.8982
 L -4.67377,-32.8544 L -4.60106,-32.5554 L -4.59038,-32.5125 L -4.51395,-32.2126 L -4.50287,-32.1702 L -4.42273,-31.8696
 L -4.4113,-31.8276 L -4.32747,-31.5264 L -4.31577,-31.4852 L -4.22829,-31.1834 L -4.21623,-31.1426 L -4.12512,-30.8403
 L -4.11269,-30.7999 L -4.01796,-30.4972 L -4.00528,-30.4575 L -3.90698,-30.1546 L -3.89392,-30.115 L -3.79216,-29.8122
 L -3.77881,-29.7731 L -3.67354,-29.4701 L -3.65987,-29.4314 L -3.55103,-29.1282 L -3.53709,-29.09 L -3.42479,-28.7869
 L -3.41068,-28.7494 L -3.29497,-28.4465 L -3.28046,-28.409 L -3.16136,-28.1063 L -3.14667,-28.0696 L -3.02425,-27.7673
 L -3.00916,-27.7305 L -2.88341,-27.4286 L -2.86812,-27.3925 L -2.73912,-27.0912 L -2.72348,-27.0551 L -2.59125,-26.7545
 L -2.57535,-26.7188 L -2.43993,-26.4189 L -2.42372,-26.3835 L -2.28514,-26.0844 L -2.26866,-26.0493 L -2.12701,-25.7511
 L -2.11026,-25.7163 L -1.96552,-25.4191 L -1.94847,-25.3845 L -1.80072,-25.0885 L -1.7832,-25.0538 L -1.63258,-24.7591
 L -1.61493,-24.725 L -1.46129,-24.4314 L -1.44318,-24.3972 L -1.28676,-24.1052 L -1.2684,-24.0713 L -1.10912,-23.7807
 L -1.09036,-23.7469 L -0.928253,-23.4577 L -0.909332,-23.4243 L -0.744537,-23.1368 L -0.725128,-23.1033 L -0.557617,-22.8176
 L -0.538025,-22.7845 L -0.367828,-22.5004 L -0.347809,-22.4673 L -0.175018,-22.1852 L -0.154694,-22.1523 L 0.0206299,-21.8721
 L 0.0412598,-21.8395 L 0.219009,-21.5614 L 0.240128,-21.5287 L 0.420349,-21.2527 L 0.441788,-21.2202 L 0.624374,-20.9464
 L 0.646194,-20.914 L 0.831085,-20.6425 L 0.853333,-20.6102 L 1.04048,-20.3412 L 1.06311,-20.309 L 1.25246,-20.0424
 L 1.27553,-20.0103 L 1.46701,-19.7462 L 1.49049,-19.7142 L 1.68407,-19.4528 L 1.70813,-19.4207 L 1.9037,-19.162
 L 1.92805,-19.1301 L 2.1256,-18.8743 L 2.15068,-18.8421 L 2.35014,-18.5892 L 2.37555,-18.5573 L 2.57677,-18.3073
 L 2.60283,-18.2753 L 2.80574,-18.0285 L 2.8324,-17.9964 L 3.0372,-17.7525 L 3.06424,-17.7207 L 3.27069,-17.48
 L 3.29825,-17.4482 L 3.50629,-17.2108 L 3.53458,-17.1788 L 3.74416,-16.9447 L 3.7729,-16.9129 L 3.98393,-16.6822
 L 4.01349,-16.6503 L 4.22594,-16.423 L 4.25592,-16.3913 L 4.4697,-16.1676 L 4.50073,-16.1354 L 4.71579,-15.9153
 L 4.74722,-15.8835 L 4.96349,-15.6671 L 4.99556,-15.6354 L 5.21295,-15.4227 L 5.2462,-15.3905 L 5.46468,-15.1816
 L 5.49831,-15.1498 L 5.71779,-14.9448 L 5.75261,-14.9127 L 5.97305,-14.7116 L 6.0083,-14.6798 L 6.2296,-14.4827
 L 6.26613,-14.4505 L 6.48824,-14.2575 L 6.52539,-14.2256 L 6.74823,-14.0367 L 6.78645,-14.0047 L 7.00996,-13.8199
 L 7.04922,-13.7878 L 7.27335,-13.6073 L 7.31351,-13.5754 L 7.5381,-13.3992 L 7.57944,-13.3672 L 7.80457,-13.1952
 L 7.84692,-13.1633 L 8.07245,-12.9957 L 8.11594,-12.9639 L 8.34178,-12.8008 L 8.38649,-12.769 L 8.61259,-12.6103
 L 8.65855,-12.5786 L 8.88486,-12.4245 L 8.93192,-12.3929 L 9.15833,-12.2434 L 9.20703,-12.2117 L 9.4335,-12.0668
 L 9.48349,-12.0354 L 9.70996,-11.8951 L 9.76115,-11.864 L 9.98735,-11.7286 L 10.0403,-11.6974 L 10.2665,-11.5667
 L 10.321,-11.5358 L 10.5469,-11.4099 L 10.6028,-11.3793 L 10.8285,-11.2582 L 10.886,-11.2279 L 11.1112,-11.1117
 L 11.1705,-11.0818 L 11.3954,-10.9704 L 11.4565,-10.9408 L 11.6809,-10.8344 L 11.7436,-10.8054 L 11.9674,-10.7039
 L 12.032,-10.6753 L 12.2553,-10.5789 L 12.3218,-10.5508 L 12.5444,-10.4594 L 12.6127,-10.4321 L 12.8345,-10.3457
 L 12.9049,-10.3191 L 13.1258,-10.2378 L 13.1987,-10.2118 L 13.4187,-10.1357 L 13.4932,-10.1107 L 13.7123,-10.0397
 L 13.7891,-10.0156 L 14.007,-9.9498 L 14.0861,-9.92677 L 14.303,-9.86609 L 14.3842,-9.84428 L 14.5999,-9.78879
 L 14.6836,-9.76822 L 14.8981,-9.71794 L 14.9839,-9.69884 L 15.1971,-9.65378 L 15.2854,-9.63615 L 15.4972,-9.59634
 z
M 49.6684,-68.2792 L 49.3369,-68.2836 L 49.0056,-68.2908 L 48.6746,-68.3009 L 48.3441,-68.3139 L 48.014,-68.3298
 L 47.6845,-68.3486 L 47.3557,-68.3702 L 47.0278,-68.3947 L 46.7007,-68.4221 L 46.3746,-68.4523 L 46.0497,-68.4854
 L 45.7259,-68.5213 L 45.4035,-68.56 L 45.0824,-68.6015 L 44.7629,-68.6458 L 44.4449,-68.6929 L 44.1287,-68.7427
 L 43.8142,-68.7953 L 43.5016,-68.8507 L 43.191,-68.9088 L 42.8825,-68.9695 L 42.5761,-69.033 L 42.272,-69.0991
 L 41.9703,-69.1679 L 41.671,-69.2392 L 41.3742,-69.3132 L 41.08,-69.3898 L 40.7886,-69.4689 L 40.5,-69.5505
 L 40.2143,-69.6347 L 39.9315,-69.7213 L 39.6519,-69.8104 L 39.3753,-69.9019 L 39.1021,-69.9958 L 38.8321,-70.0921
 L 38.5655,-70.1907 L 38.3024,-70.2917 L 38.0429,-70.3949 L 37.787,-70.5004 L 37.5349,-70.608 L 37.2865,-70.7179
 L 37.042,-70.8299 L 36.8015,-70.944 L 36.565,-71.0603 L 36.3326,-71.1785 L 36.1043,-71.2988 L 35.8802,-71.421
 L 35.6605,-71.5452 L 35.4452,-71.6713 L 35.2342,-71.7992 L 35.0278,-71.929 L 34.8259,-72.0605 L 34.6287,-72.1938
 L 34.4361,-72.3288 L 34.2483,-72.4654 L 34.0653,-72.6037 L 33.8871,-72.7435 L 33.7138,-72.8849 L 33.5455,-73.0278
 L 33.3822,-73.1721 L 33.224,-73.3178 L 33.0709,-73.4649 L 32.9229,-73.6133 L 32.7802,-73.7629 L 32.6426,-73.9138
 L 32.5104,-74.0658 L 32.3835,-74.219 L 32.262,-74.3733 L 32.1458,-74.5286 L 32.0352,-74.6849 L 31.9299,-74.8421
 L 31.8302,-75.0002 L 31.736,-75.1592 L 31.6474,-75.319 L 31.5644,-75.4795 L 31.487,-75.6407 L 31.4152,-75.8026
 L 31.3491,-75.9651 L 31.2887,-76.1281 L 31.2339,-76.2917 L 31.1849,-76.4556 L 31.1416,-76.62 L 31.1041,-76.7848
 L 31.0723,-76.9498 L 31.0463,-77.1151 L 31.026,-77.2806 L 31.0116,-77.4462 L 31.0029,-77.612 L 31,-77.7778
 L 31.0029,-77.9436 L 31.0116,-78.1093 L 31.026,-78.2749 L 31.0463,-78.4404 L 31.0723,-78.6057 L 31.1041,-78.7708
 L 31.1416,-78.9355 L 31.1849,-79.0999 L 31.2339,-79.2639 L 31.2887,-79.4274 L 31.3491,-79.5905 L 31.4152,-79.7529
 L 31.487,-79.9148 L 31.5644,-80.076 L 31.6474,-80.2365 L 31.736,-80.3963 L 31.8302,-80.5553 L 31.9299,-80.7134
 L 32.0352,-80.8707 L 32.1458,-81.027 L 32.262,-81.1823 L 32.3835,-81.3365 L 32.5104,-81.4897 L 32.6426,-81.6418
 L 32.7802,-81.7926 L 32.9229,-81.9423 L 33.0709,-82.0907 L 33.224,-82.2377 L 33.3822,-82.3835 L 33.5455,-82.5278
 L 33.7138,-82.6706 L 33.8871,-82.812 L 34.0653,-82.9518 L 34.2483,-83.0901 L 34.4361,-83.2267 L 34.6287,-83.3617
 L 34.8259,-83.495 L 35.0278,-83.6265 L 35.2342,-83.7563 L 35.4452,-83.8842 L 35.6605,-84.0103 L 35.8802,-84.1345
 L 36.1043,-84.2567 L 36.3326,-84.377 L 36.565,-84.4953 L 36.8015,-84.6115 L 37.042,-84.7256 L 37.2865,-84.8376
 L 37.5349,-84.9475 L 37.787,-85.0552 L 38.0429,-85.1606 L 38.3024,-85.2639 L 38.5655,-85.3648 L 38.8321,-85.4634
 L 39.1021,-85.5597 L 39.3753,-85.6536 L 39.6519,-85.7451 L 39.9315,-85.8342 L 40.2143,-85.9209 L 40.5,-86.005
 L 40.7886,-86.0867 L 41.08,-86.1658 L 41.3742,-86.2423 L 41.671,-86.3163 L 41.9703,-86.3877 L 42.272,-86.4565
 L 42.5761,-86.5226 L 42.8825,-86.586 L 43.191,-86.6468 L 43.5016,-86.7048 L 43.8142,-86.7602 L 44.1287,-86.8128
 L 44.4449,-86.8627 L 44.7629,-86.9097 L 45.0824,-86.9541 L 45.4035,-86.9956 L 45.7259,-87.0343 L 46.0497,-87.0702
 L 46.3746,-87.1032 L 46.7007,-87.1334 L 47.0278,-87.1608 L 47.3557,-87.1853 L 47.6845,-87.207 L 48.014,-87.2257
 L 48.3441,-87.2416 L 48.6746,-87.2546 L 49.0056,-87.2647 L 49.3369,-87.272 L 49.6684,-87.2763 L 50,-87.2778
 L 50.3316,-87.2763 L 50.6631,-87.272 L 50.9944,-87.2647 L 51.3254,-87.2546 L 51.6559,-87.2416 L 51.986,-87.2257
 L 52.3155,-87.207 L 52.6443,-87.1853 L 52.9722,-87.1608 L 53.2993,-87.1334 L 53.6254,-87.1032 L 53.9503,-87.0702
 L 54.2741,-87.0343 L 54.5965,-86.9956 L 54.9176,-86.9541 L 55.2371,-86.9097 L 55.5551,-86.8627 L 55.8713,-86.8128
 L 56.1858,-86.7602 L 56.4984,-86.7048 L 56.809,-86.6468 L 57.1175,-86.586 L 57.4239,-86.5226 L 57.728,-86.4565
 L 58.0297,-86.3877 L 58.329,-86.3163 L 58.6258,-86.2423 L 58.92,-86.1658 L 59.2114,-86.0867 L 59.5,-86.005
 L 59.7857,-85.9209 L 60.0685,-85.8342 L 60.3481,-85.7451 L 60.6247,-85.6536 L 60.8979,-85.5597 L 61.1679,-85.4634
 L 61.4345,-85.3648 L 61.6976,-85.2639 L 61.9571,-85.1606 L 62.213,-85.0552 L 62.4651,-84.9475 L 62.7135,-84.8376
 L 62.958,-84.7256 L 63.1985,-84.6115 L 63.435,-84.4953 L 63.6674,-84.377 L 63.8957,-84.2567 L 64.1198,-84.1345
 L 64.3395,-84.0103 L 64.5548,-83.8842 L 64.7658,-83.7563 L 64.9722,-83.6265 L 65.1741,-83.495 L 65.3713,-83.3617
 L 65.5639,-83.2267 L 65.7517,-83.0901 L 65.9347,-82.9518 L 66.1129,-82.812 L 66.2862,-82.6706 L 66.4545,-82.5278
 L 66.6178,-82.3835 L 66.776,-82.2377 L 66.9291,-82.0907 L 67.0771,-81.9423 L 67.2198,-81.7926 L 67.3574,-81.6418
 L 67.4896,-81.4897 L 67.6165,-81.3365 L 67.738,-81.1823 L 67.8542,-81.027 L 67.9648,-80.8707 L 68.0701,-80.7134
 L 68.1698,-80.5553 L 68.264,-80.3963 L 68.3526,-80.2365 L 68.4356,-80.076 L 68.513,-79.9148 L 68.5848,-79.7529
 L 68.6509,-79.5905 L 68.7113,-79.4274 L 68.7661,-79.2639 L 68.8151,-79.0999 L 68.8584,-78.9355 L 68.8959,-78.7708
 L 68.9277,-78.6057 L 68.9537,-78.4404 L 68.974,-78.2749 L 68.9884,-78.1093 L 68.9971,-77.9436 L 69,-77.7778
 L 68.9971,-77.612 L 68.9884,-77.4462 L 68.974,-77.2806 L 68.9537,-77.1151 L 68.9277,-76.9498 L 68.8959,-76.7848
 L 68.8584,-76.62 L 68.8151,-76.4556 L 68.7661,-76.2917 L 68.7113,-76.1281 L 68.6509,-75.9651 L 68.5848,-75.8026
 L 68.513,-75.6407 L 68.4356,-75.4795 L 68.3526,-75.319 L 68.264,-75.1592 L 68.1698,-75.0002 L 68.0701,-74.8421
 L 67.9648,-74.6849 L 67.8542,-74.5286 L 67.738,-74.3733 L 67.6165,-74.219 L 67.4896,-74.0658 L 67.3574,-73.9138
 L 67.2198,-73.7629 L 67.0771,-73.6133 L 66.9291,-73.4649 L 66.776,-73.3178 L 66.6178,-73.1721 L 66.4545,-73.0278
 L 66.2862,-72.8849 L 66.1129,-72.7435 L 65.9347,-72.6037 L 65.7517,-72.4654 L 65.5639,-72.3288 L 65.3713,-72.1938
 L 65.1741,-72.0605 L 64.9722,-71.929 L 64.7658,-71.7992 L 64.5548,-71.6713 L 64.3395,-71.5452 L 64.1198,-71.421
 L 63.8957,-71.2988 L 63.6674,-71.1785 L 63.435,-71.0603 L 63.1985,-70.944 L 62.958,-70.8299 L 62.7135,-70.7179
 L 62.4651,-70.608 L 62.213,-70.5004 L 61.9571,-70.3949 L 61.6976,-70.2917 L 61.4345,-70.1907 L 61.1679,-70.0921
 L 60.8979,-69.9958 L 60.6247,-69.9019 L 60.3481,-69.8104 L 60.0685,-69.7213 L 59.7857,-69.6347 L 59.5,-69.5505
 L 59.2114,-69.4689 L 58.92,-69.3898 L 58.6258,-69.3132 L 58.329,-69.2392 L 58.0297,-69.1679 L 57.728,-69.0991
 L 57.4239,-69.033 L 57.1175,-68.9695 L 56.809,-68.9088 L 56.4984,-68.8507 L 56.1858,-68.7953 L 55.8713,-68.7427
 L 55.5551,-68.6929 L 55.2371,-68.6458 L 54.9176,-68.6015 L 54.5965,-68.56 L 54.2741,-68.5213 L 53.9503,-68.4854
 L 53.6254,-68.4523 L 53.2993,-68.4221 L 52.9722,-68.3947 L 52.6443,-68.3702 L 52.3155,-68.3486 L 51.986,-68.3298
 L 51.6559,-68.3139 L 51.3254,-68.3009 L 50.9944,-68.2908 L 50.6631,-68.2836 L 50.3316,-68.2792 L 50,-68.2778
 z
M 91.9992,-50.1045 L 91.994,-50.6982 L 91.9928,-50.7679 L 91.9755,-51.4309 L 91.973,-51.5006 L 91.9441,-52.1631
 L 91.9405,-52.233 L 91.9,-52.895 L 91.8951,-52.9646 L 91.8431,-53.6257 L 91.837,-53.6953 L 91.7734,-54.3555
 L 91.7661,-54.4249 L 91.691,-55.0838 L 91.6825,-55.1532 L 91.5959,-55.8107 L 91.5862,-55.8798 L 91.4882,-56.5357
 L 91.4773,-56.6047 L 91.3678,-57.2588 L 91.3557,-57.3276 L 91.2348,-57.9797 L 91.2215,-58.0482 L 91.0893,-58.6981
 L 91.0748,-58.7664 L 90.9313,-59.4138 L 90.9155,-59.4819 L 90.7607,-60.1268 L 90.7438,-60.1946 L 90.5778,-60.8367
 L 90.5597,-60.904 L 90.3825,-61.5431 L 90.3632,-61.6103 L 90.1748,-62.2462 L 90.1544,-62.3129 L 89.955,-62.9455
 L 89.9334,-63.0118 L 89.723,-63.6408 L 89.7003,-63.7068 L 89.4789,-64.332 L 89.455,-64.3976 L 89.2227,-65.0188
 L 89.1977,-65.0839 L 88.9547,-65.701 L 88.9285,-65.7658 L 88.6747,-66.3786 L 88.6474,-66.4428 L 88.383,-67.051
 L 88.3546,-67.1148 L 88.0795,-67.7183 L 88.05,-67.7815 L 87.7645,-68.3801 L 87.7339,-68.4428 L 87.438,-69.0364
 L 87.4063,-69.0987 L 87.1,-69.6869 L 87.0673,-69.7486 L 86.7508,-70.3314 L 86.717,-70.3924 L 86.3904,-70.9697
 L 86.3555,-71.0301 L 86.0189,-71.6015 L 85.9829,-71.6615 L 85.6363,-72.227 L 85.5994,-72.2861 L 85.2431,-72.8454
 L 85.205,-72.904 L 84.839,-73.4571 L 84.7999,-73.5149 L 84.4243,-74.0615 L 84.3842,-74.1187 L 83.9991,-74.6586
 L 83.9581,-74.7151 L 83.5636,-75.2483 L 83.5215,-75.304 L 83.1178,-75.8302 L 83.0749,-75.8851 L 82.662,-76.4042
 L 82.618,-76.4585 L 82.1962,-76.9703 L 82.1513,-77.0237 L 81.7206,-77.528 L 81.6748,-77.5807 L 81.2354,-78.0774
 L 81.1886,-78.1294 L 80.7405,-78.6183 L 80.6929,-78.6693 L 80.2364,-79.1504 L 80.188,-79.2006 L 79.7231,-79.6736
 L 79.6736,-79.7231 L 79.2006,-80.188 L 79.1504,-80.2364 L 78.6693,-80.6929 L 78.6183,-80.7405 L 78.1294,-81.1886
 L 78.0774,-81.2354 L 77.5807,-81.6748 L 77.528,-81.7206 L 77.0237,-82.1513 L 76.9703,-82.1962 L 76.4585,-82.618
 L 76.4042,-82.662 L 75.8851,-83.0749 L 75.8302,-83.1178 L 75.304,-83.5215 L 75.2483,-83.5636 L 74.7593,-83.9254
 L 77.4455,-85.2043 L 77.6032,-85.2752 L 77.7635,-85.3409 L 77.9265,-85.4015 L 78.092,-85.4569 L 78.2601,-85.5071
 L 78.4306,-85.5522 L 78.6035,-85.592 L 78.7788,-85.6266 L 78.9564,-85.6559 L 79.1362,-85.68 L 79.3183,-85.6988
 L 79.5024,-85.7124 L 79.6887,-85.7207 L 79.877,-85.7238 L 80.0672,-85.7216 L 80.2594,-85.7141 L 80.4535,-85.7013
 L 80.6493,-85.6833 L 80.8469,-85.6601 L 81.0461,-85.6315 L 81.247,-85.5978 L 81.4494,-85.5588 L 81.6533,-85.5146
 L 81.8586,-85.4652 L 82.0653,-85.4106 L 82.2733,-85.3508 L 82.4826,-85.2859 L 82.693,-85.2159 L 82.9046,-85.1407
 L 83.1172,-85.0604 L 83.3307,-84.9751 L 83.5452,-84.8847 L 83.7606,-84.7894 L 83.9767,-84.689 L 84.1936,-84.5837
 L 84.4111,-84.4734 L 84.6292,-84.3583 L 84.8478,-84.2383 L 85.0669,-84.1135 L 85.2864,-83.984 L 85.5062,-83.8497
 L 85.7263,-83.7107 L 85.9465,-83.567 L 86.1669,-83.4187 L 86.3873,-83.2659 L 86.6078,-83.1086 L 86.8281,-82.9467
 L 87.0483,-82.7805 L 87.2683,-82.6098 L 87.488,-82.4349 L 87.7073,-82.2557 L 87.9263,-82.0723 L 88.1447,-81.8847
 L 88.3627,-81.693 L 88.58,-81.4973 L 88.7966,-81.2976 L 89.0125,-81.094 L 89.2275,-80.8866 L 89.4417,-80.6753
 L 89.655,-80.4603 L 89.8672,-80.2416 L 90.0784,-80.0194 L 90.2884,-79.7936 L 90.4973,-79.5643 L 90.7048,-79.3317
 L 90.9111,-79.0957 L 91.1159,-78.8565 L 91.3193,-78.6142 L 91.5212,-78.3687 L 91.7215,-78.1201 L 91.9202,-77.8687
 L 92.1172,-77.6143 L 92.3124,-77.3572 L 92.5058,-77.0973 L 92.6973,-76.8348 L 92.8869,-76.5698 L 93.0746,-76.3022
 L 93.2601,-76.0323 L 93.4436,-75.76 L 93.6249,-75.4855 L 93.8039,-75.2089 L 93.9807,-74.9302 L 94.1552,-74.6495
 L 94.3273,-74.3669 L 94.497,-74.0825 L 94.6642,-73.7964 L 94.8289,-73.5087 L 94.9909,-73.2194 L 95.1504,-72.9286
 L 95.3071,-72.6365 L 95.4612,-72.3431 L 95.6124,-72.0485 L 95.7609,-71.7528 L 95.9064,-71.4561 L 96.0491,-71.1585
 L 96.1888,-70.86 L 96.3255,-70.5608 L 96.4592,-70.261 L 96.5898,-69.9606 L 96.7173,-69.6597 L 96.8416,-69.3584
 L 96.9627,-69.0569 L 97.0806,-68.7552 L 97.1952,-68.4534 L 97.3065,-68.1515 L 97.4145,-67.8498 L 97.5191,-67.5482
 L 97.6203,-67.2469 L 97.718,-66.946 L 97.8123,-66.6455 L 97.9032,-66.3455 L 97.9905,-66.0462 L 98.0742,-65.7477
 L 98.1544,-65.4499 L 98.231,-65.153 L 98.3039,-64.8571 L 98.3733,-64.5624 L 98.4389,-64.2688 L 98.5009,-63.9765
 L 98.5592,-63.6855 L 98.6137,-63.396 L 98.6645,-63.108 L 98.7116,-62.8216 L 98.7549,-62.5369 L 98.7944,-62.2541
 L 98.8302,-61.9731 L 98.8621,-61.694 L 98.8902,-61.4171 L 98.9145,-61.1422 L 98.935,-60.8696 L 98.9516,-60.5993
 L 98.9644,-60.3314 L 98.9734,-60.0659 L 98.9785,-59.803 L 98.9798,-59.5427 L 98.9772,-59.2851 L 98.9708,-59.0303
 L 98.9605,-58.7784 L 98.9464,-58.5294 L 98.9284,-58.2835 L 98.9066,-58.0406 L 98.881,-57.8009 L 98.8516,-57.5644
 L 98.8184,-57.3312 L 98.7814,-57.1014 L 98.7405,-56.8751 L 98.696,-56.6523 L 98.6476,-56.433 L 98.5955,-56.2175
 L 98.5397,-56.0056 L 98.4801,-55.7975 L 98.4169,-55.5933 L 98.35,-55.393 L 98.2794,-55.1966 L 98.2052,-55.0043
 L 98.1274,-54.8161 L 98.046,-54.632 L 97.961,-54.4521 L 97.8725,-54.2765 L 97.7805,-54.1052 L 97.685,-53.9383
 L 97.5861,-53.7757 L 97.4837,-53.6177 L 97.378,-53.4641 L 97.2688,-53.3151 L 97.1564,-53.1707 L 97.0406,-53.031
 L 96.9217,-52.8959 L 96.7995,-52.7656 L 96.6741,-52.6401 L 96.5455,-52.5193 L 96.4139,-52.4034 L 96.2791,-52.2924
 L 96.1414,-52.1863 L 96.0007,-52.0852 L 95.857,-51.989 L 95.7105,-51.8978 L 95.5611,-51.8117 L 95.4089,-51.7306
 L 95.2539,-51.6547 z
M 49.3368,-12.0058 L 48.6738,-12.0232 L 48.0112,-12.0521 L 47.3493,-12.0926 L 46.6881,-12.1446 L 46.0279,-12.2082
 L 45.369,-12.2832 L 44.7114,-12.3698 L 44.0555,-12.4678 L 43.4014,-12.5773 L 42.7493,-12.6982 L 42.0994,-12.8304
 L 41.4519,-12.9739 L 40.807,-13.1288 L 40.1649,-13.2948 L 39.5258,-13.4721 L 38.8899,-13.6604 L 38.2574,-13.8599
 L 37.6284,-14.0703 L 37.0032,-14.2917 L 36.382,-14.524 L 35.765,-14.767 L 35.1522,-15.0208 L 34.544,-15.2853
 L 33.9405,-15.5603 L 33.4883,-15.776 L 35.6242,-16.7934 L 35.665,-16.8131 L 35.82,-16.8891 L 35.9395,-16.9501
 L 36.0917,-17.0312 L 36.209,-17.0963 L 36.3584,-17.1824 L 36.4736,-17.2514 L 36.6202,-17.3426 L 36.7323,-17.4149
 L 36.876,-17.5111 L 36.9857,-17.5872 L 37.1264,-17.6884 L 37.2326,-17.7674 L 37.3703,-17.8735 L 37.4735,-17.9557
 L 37.6082,-18.0667 L 37.7072,-18.151 L 37.8388,-18.2669 L 37.9344,-18.3539 L 38.063,-18.4746 L 38.1545,-18.5634
 L 38.2799,-18.6889 L 38.3673,-18.7792 L 38.4895,-18.9095 L 38.5733,-19.0017 L 38.6923,-19.1367 L 38.7717,-19.2297
 L 38.8875,-19.3694 L 38.9626,-19.463 L 39.075,-19.6074 L 39.1463,-19.7018 L 39.2555,-19.8508 L 39.3225,-19.9452
 L 39.4283,-20.0987 L 39.4914,-20.1933 L 39.5938,-20.3513 L 39.653,-20.4457 L 39.752,-20.6082 L 39.8075,-20.7023
 L 39.903,-20.8692 L 39.9547,-20.9624 L 40.0467,-21.1337 L 40.095,-21.2265 L 40.1835,-21.4021 L 40.2282,-21.4938
 L 40.3131,-21.6736 L 40.3546,-21.7643 L 40.436,-21.9483 L 40.4743,-22.038 L 40.5521,-22.2262 L 40.5874,-22.3145
 L 40.6616,-22.5068 L 40.694,-22.5937 L 40.7646,-22.7901 L 40.7943,-22.8757 L 40.8612,-23.076 L 40.8882,-23.1602
 L 40.9515,-23.3645 L 40.9761,-23.4471 L 41.0356,-23.6552 L 41.0579,-23.7363 L 41.1138,-23.9482 L 41.1339,-24.0277
 L 41.186,-24.2432 L 41.2041,-24.3217 L 41.2524,-24.5409 L 41.2685,-24.6172 L 41.3131,-24.84 L 41.3274,-24.9152
 L 41.3682,-25.1416 L 41.3808,-25.2152 L 41.4178,-25.445 L 41.4287,-25.5168 L 41.4619,-25.75 L 41.4713,-25.8203
 L 41.5007,-26.0568 L 41.5087,-26.1261 L 41.5343,-26.3658 L 41.541,-26.4334 L 41.5628,-26.6763 L 41.5681,-26.7422
 L 41.5861,-26.9882 L 41.5903,-27.0531 L 41.6044,-27.3021 L 41.6075,-27.3655 L 41.6178,-27.6174 L 41.6198,-27.6796
 L 41.6263,-27.9343 L 41.6273,-27.9951 L 41.6299,-28.2527 L 41.6301,-28.3122 L 41.6288,-28.5725 L 41.6281,-28.6308
 L 41.623,-28.8937 L 41.6214,-28.9508 L 41.6125,-29.2163 L 41.6102,-29.2723 L 41.5974,-29.5402 L 41.5944,-29.595
 L 41.5778,-29.8653 L 41.5741,-29.9193 L 41.5536,-30.1919 L 41.5493,-30.2447 L 41.525,-30.5195 L 41.5201,-30.5711
 L 41.492,-30.8481 L 41.4865,-30.8987 L 41.4546,-31.1777 L 41.4485,-31.2277 L 41.4128,-31.5087 L 41.4062,-31.5578
 L 41.3667,-31.8406 L 41.3598,-31.8883 L 41.3165,-32.173 L 41.309,-32.2204 L 41.2619,-32.5068 L 41.254,-32.5532
 L 41.2032,-32.8412 L 41.1949,-32.8866 L 41.1403,-33.1761 L 41.1316,-33.221 L 41.0733,-33.512 L 41.0642,-33.5561
 L 41.0022,-33.8485 L 40.9928,-33.8918 L 40.9272,-34.1854 L 40.9174,-34.2281 L 40.848,-34.5229 L 40.8379,-34.565
 L 40.7649,-34.8608 L 40.7545,-34.9022 L 40.6779,-35.1991 L 40.6672,-35.2398 L 40.587,-35.5376 L 40.5759,-35.578
 L 40.4921,-35.8766 L 40.4808,-35.9162 L 40.3935,-36.2155 L 40.3819,-36.2545 L 40.2911,-36.5545 L 40.2791,-36.5934
 L 40.1848,-36.8939 L 40.1727,-36.9319 L 40.0749,-37.2328 L 40.0624,-37.2705 L 39.9612,-37.5718 L 39.9485,-37.6092
 L 39.8439,-37.9108 L 39.8309,-37.9474 L 39.723,-38.2492 L 39.7097,-38.2856 L 39.5984,-38.5874 L 39.585,-38.6234
 L 39.4704,-38.9252 L 39.4566,-38.9609 L 39.3387,-39.2626 L 39.3247,-39.2979 L 39.2036,-39.5995 L 39.1894,-39.6343
 L 39.0651,-39.9355 L 39.0506,-39.9701 L 38.9232,-40.271 L 38.9085,-40.3052 L 38.7779,-40.6056 L 38.7629,-40.6396
 L 38.6293,-40.9395 L 38.614,-40.9733 L 38.4773,-41.2725 L 38.4619,-41.3057 L 38.3223,-41.6042 L 38.3065,-41.6375
 L 38.1638,-41.9351 L 38.1479,-41.968 L 38.0023,-42.2647 L 37.9861,-42.2974 L 37.8376,-42.5931 L 37.8211,-42.6256
 L 37.6698,-42.9202 L 37.6531,-42.9524 L 37.4991,-43.2458 L 37.482,-43.278 L 37.3252,-43.5702 L 37.308,-43.6019
 L 37.1485,-43.8927 L 37.1308,-43.9246 L 36.9688,-44.2139 L 36.951,-44.2453 L 36.7863,-44.5331 L 36.7681,-44.5646
 L 36.6009,-44.8507 L 36.5824,-44.882 L 36.4127,-45.1664 L 36.3939,-45.1976 L 36.2218,-45.4802 L 36.2027,-45.5113
 L 36.0282,-45.792 L 36.0087,-45.8229 L 35.8319,-46.1016 L 35.8121,-46.1325 L 35.6331,-46.4092 L 35.6129,-46.44
 L 35.4316,-46.7145 L 35.411,-46.7453 L 35.2276,-47.0176 L 35.2067,-47.0482 L 35.0212,-47.3181 L 34.9999,-47.3487
 L 34.8123,-47.6163 L 34.7907,-47.6469 L 34.6011,-47.9119 L 34.5789,-47.9426 L 34.3873,-48.2051 L 34.3649,-48.2356
 L 34.1715,-48.4954 L 34.1486,-48.5259 L 33.9534,-48.7831 L 33.93,-48.8135 L 33.7331,-49.0678 L 33.7091,-49.0985
 L 33.5104,-49.35 L 33.4861,-49.3804 L 33.2858,-49.6289 L 33.261,-49.6593 L 33.0591,-49.9048 L 33.0337,-49.9354
 L 32.8303,-50.1778 L 32.8045,-50.2083 L 32.5996,-50.4475 L 32.573,-50.4782 L 32.3668,-50.7142 L 32.3398,-50.7448
 L 32.1322,-50.9774 L 32.1046,-51.0081 L 31.8958,-51.2373 L 31.8674,-51.2681 L 31.6574,-51.4939 L 31.6286,-51.5245
 L 31.4174,-51.7468 L 31.3877,-51.7777 L 31.1755,-51.9964 L 31.1453,-52.0271 L 30.932,-52.2421 L 30.9009,-52.2731
 L 30.6867,-52.4844 L 30.655,-52.5154 L 30.4399,-52.7229 L 30.4073,-52.754 L 30.1915,-52.9576 L 30.158,-52.9887
 L 29.9414,-53.1884 L 29.9072,-53.2196 L 29.6899,-53.4153 L 29.6549,-53.4464 L 29.437,-53.6381 L 29.4006,-53.6697
 L 29.1821,-53.8573 L 29.1454,-53.8884 L 28.9265,-54.0718 L 28.8883,-54.1035 L 28.6689,-54.2827 L 28.63,-54.314
 L 28.4103,-54.489 L 28.3701,-54.5206 L 28.1501,-54.6912 L 28.1088,-54.7228 L 27.8886,-54.8891 L 27.8463,-54.9206
 L 27.626,-55.0824 L 27.5821,-55.1142 L 27.3616,-55.2715 L 27.3168,-55.3031 L 27.0964,-55.4559 L 27.0502,-55.4875
 L 26.8298,-55.6357 L 26.7821,-55.6674 L 26.5618,-55.811 L 26.5128,-55.8425 L 26.2927,-55.9815 L 26.2422,-56.0129
 L 26.0224,-56.1472 L 25.9701,-56.1786 L 25.7506,-56.3082 L 25.697,-56.3393 L 25.4779,-56.4641 L 25.4225,-56.495
 L 25.2038,-56.615 L 25.1467,-56.6458 L 24.9286,-56.7609 L 24.8696,-56.7914 L 24.6521,-56.9017 L 24.5913,-56.9318
 L 24.3745,-57.0371 L 24.3118,-57.0669 L 24.0956,-57.1673 L 24.0307,-57.1967 L 23.8154,-57.2921 L 23.7485,-57.321
 L 23.534,-57.4113 L 23.4651,-57.4396 L 23.2515,-57.5249 L 23.1803,-57.5526 L 22.9677,-57.6329 L 22.8941,-57.6598
 L 22.6826,-57.735 L 22.6068,-57.7611 L 22.3963,-57.8311 L 22.3183,-57.8562 L 22.1091,-57.9211 L 22.0283,-57.9453
 L 21.8203,-58.005 L 21.7371,-58.028 L 21.5304,-58.0826 L 21.4447,-58.1042 L 21.2394,-58.1536 L 21.1511,-58.1738
 L 20.9472,-58.218 L 20.8562,-58.2366 L 20.6538,-58.2756 L 20.5601,-58.2925 L 20.3593,-58.3262 L 20.2632,-58.3412
 L 20.064,-58.3697 L 19.9651,-58.3826 L 19.7675,-58.4059 L 19.6658,-58.4165 L 19.47,-58.4345 L 19.3662,-58.4427
 L 19.1722,-58.4555 L 19.0653,-58.4611 L 18.8731,-58.4686 L 18.7641,-58.4713 L 18.5738,-58.4735 L 18.4625,-58.4733
 L 18.2742,-58.4702 L 18.1606,-58.4668 L 17.9743,-58.4584 L 17.8586,-58.4516 L 17.6744,-58.438 L 17.5567,-58.4276
 L 17.3746,-58.4087 L 17.2554,-58.3946 L 17.0755,-58.3705 L 16.9546,-58.3524 L 16.777,-58.323 L 16.6547,-58.3009
 L 16.4794,-58.2663 L 16.3564,-58.24 L 16.1835,-58.2002 L 16.0596,-58.1696 L 15.8891,-58.1246 L 15.7651,-58.0897
 L 15.5971,-58.0394 L 15.4724,-58 L 15.3069,-57.9445 L 15.1828,-57.9007 L 15.0198,-57.8401 L 14.8966,-57.792
 L 14.7363,-57.7263 L 14.6139,-57.6737 L 14.4562,-57.6028 L 14.3764,-57.5659 L 12.5998,-56.7201 L 12.6982,-57.2507
 L 12.8304,-57.9006 L 12.9739,-58.5481 L 13.1288,-59.193 L 13.2948,-59.8351 L 13.4721,-60.4742 L 13.6604,-61.1101
 L 13.8599,-61.7426 L 14.0703,-62.3716 L 14.2917,-62.9968 L 14.524,-63.618 L 14.767,-64.235 L 15.0208,-64.8478
 L 15.2853,-65.456 L 15.5603,-66.0595 L 15.8458,-66.6581 L 16.1418,-67.2516 L 16.448,-67.8399 L 16.7645,-68.4228
 L 17.091,-69 L 17.4276,-69.5714 L 17.7742,-70.1369 L 18.1305,-70.6963 L 18.4966,-71.2493 L 18.8722,-71.7959
 L 19.2574,-72.3358 L 19.6519,-72.869 L 20.0556,-73.3951 L 20.4685,-73.9142 L 20.8903,-74.4259 L 21.321,-74.9302
 L 21.7605,-75.427 L 22.2086,-75.9159 L 22.6651,-76.397 L 23.1299,-76.8701 L 23.603,-77.3349 L 24.0841,-77.7914
 L 24.573,-78.2395 L 25.0698,-78.679 L 25.5741,-79.1097 L 26.0858,-79.5315 L 26.6049,-79.9444 L 27.131,-80.3481
 L 27.4603,-80.5918 L 27.4408,-80.5335 L 27.4015,-80.4094 L 27.3525,-80.2454 L 27.3168,-80.1185 L 27.2735,-79.9541
 L 27.2416,-79.8242 L 27.2041,-79.6595 L 27.1763,-79.5272 L 27.1445,-79.3622 L 27.121,-79.2276 L 27.0949,-79.0623
 L 27.0759,-78.9262 L 27.0556,-78.7607 L 27.0412,-78.623 L 27.0267,-78.4573 L 27.0171,-78.3185 L 27.0084,-78.1528
 L 27.0035,-78.0135 L 27.0006,-77.8477 L 27.0006,-77.7078 L 27.0035,-77.542 L 27.0084,-77.4028 L 27.0171,-77.237
 L 27.0267,-77.0982 L 27.0412,-76.9326 L 27.0556,-76.7948 L 27.0759,-76.6293 L 27.0949,-76.4932 L 27.121,-76.3279
 L 27.1445,-76.1934 L 27.1763,-76.0283 L 27.2041,-75.8961 L 27.2416,-75.7314 L 27.2735,-75.6015 L 27.3168,-75.4371
 L 27.3525,-75.3101 L 27.4015,-75.1461 L 27.4408,-75.0221 L 27.4955,-74.8586 L 27.538,-74.7381 L 27.5984,-74.575
 L 27.6441,-74.4574 L 27.7102,-74.2949 L 27.7585,-74.1814 L 27.8302,-74.0195 L 27.8812,-73.9092 L 27.9586,-73.748
 L 28.0115,-73.6419 L 28.0945,-73.4814 L 28.1495,-73.3788 L 28.2381,-73.219 L 28.2946,-73.1206 L 28.3887,-72.9616
 L 28.4468,-72.8666 L 28.5465,-72.7085 L 28.6056,-72.6175 L 28.7108,-72.4603 L 28.7708,-72.3731 L 28.8815,-72.2168
 L 28.9424,-72.1331 L 29.0586,-71.9778 L 29.1199,-71.8979 L 29.2415,-71.7436 L 29.3033,-71.6671 L 29.4302,-71.5139
 L 29.4921,-71.441 L 29.6243,-71.289 L 29.6864,-71.2192 L 29.824,-71.0683 L 29.8858,-71.002 L 30.0286,-70.8523
 L 30.0904,-70.7889 L 30.2384,-70.6405 L 30.2999,-70.5801 L 30.4531,-70.433 L 30.5145,-70.3753 L 30.6727,-70.2296
 L 30.7334,-70.1748 L 30.8967,-70.0305 L 30.957,-69.9783 L 31.1253,-69.8354 L 31.1852,-69.7856 L 31.3584,-69.6442
 L 31.4175,-69.597 L 31.5956,-69.4571 L 31.6541,-69.4121 L 31.8371,-69.2738 L 31.8951,-69.2309 L 32.0829,-69.0942
 L 32.1402,-69.0533 L 32.3327,-68.9184 L 32.3892,-68.8795 L 32.5864,-68.7462 L 32.6423,-68.7091 L 32.8442,-68.5776
 L 32.8991,-68.5425 L 33.1055,-68.4127 L 33.1597,-68.3793 L 33.3706,-68.2513 L 33.4242,-68.2194 L 33.6396,-68.0933
 L 33.6925,-68.0629 L 33.9122,-67.9387 L 33.9645,-67.9097 L 34.1885,-67.7874 L 34.2397,-67.76 L 34.4679,-67.6397
 L 34.5185,-67.6135 L 34.7509,-67.4953 L 34.8011,-67.4702 L 35.0376,-67.354 L 35.0869,-67.3301 L 35.3275,-67.216
 L 35.3758,-67.1935 L 35.6203,-67.0815 L 35.6683,-67.0598 L 35.9167,-66.95 L 35.964,-66.9294 L 36.2162,-66.8217
 L 36.2629,-66.8021 L 36.5188,-66.6967 L 36.5646,-66.6781 L 36.8241,-66.5749 L 36.8696,-66.5571 L 37.1327,-66.4562
 L 37.1777,-66.4392 L 37.4442,-66.3406 L 37.4884,-66.3246 L 37.7583,-66.2283 L 37.802,-66.213 L 38.0753,-66.1191
 L 38.1187,-66.1044 L 38.3953,-66.0129 L 38.4379,-65.9991 L 38.7176,-65.91 L 38.7596,-65.8969 L 39.0423,-65.8102
 L 39.0842,-65.7977 L 39.3699,-65.7135 L 39.4111,-65.7016 L 39.6998,-65.6199 L 39.7406,-65.6086 L 40.0321,-65.5295
 L 40.0726,-65.5187 L 40.3667,-65.4422 L 40.4067,-65.432 L 40.7035,-65.358 L 40.743,-65.3484 L 41.0423,-65.277
 L 41.0814,-65.2679 L 41.3832,-65.1991 L 41.4224,-65.1904 L 41.7265,-65.1243 L 41.7648,-65.1161 L 42.0711,-65.0527
 L 42.1096,-65.0449 L 42.4181,-64.9841 L 42.4559,-64.9769 L 42.7665,-64.9188 L 42.8043,-64.9119 L 43.1169,-64.8566
 L 43.1542,-64.8502 L 43.4686,-64.7976 L 43.5059,-64.7915 L 43.8222,-64.7417 L 43.8589,-64.7361 L 44.1769,-64.689
 L 44.2135,-64.6837 L 44.533,-64.6394 L 44.5694,-64.6345 L 44.8905,-64.593 L 44.9267,-64.5885 L 45.2491,-64.5498
 L 45.2854,-64.5456 L 45.6091,-64.5097 L 45.6447,-64.5059 L 45.9697,-64.4729 L 46.0056,-64.4694 L 46.3316,-64.4392
 L 46.3672,-64.436 L 46.6943,-64.4087 L 46.7297,-64.4059 L 47.0577,-64.3814 L 47.0929,-64.3789 L 47.4216,-64.3572
 L 47.457,-64.3551 L 47.7865,-64.3363 L 47.8217,-64.3344 L 48.1518,-64.3186 L 48.1867,-64.317 L 48.5173,-64.304
 L 48.5524,-64.3028 L 48.8834,-64.2927 L 48.9183,-64.2917 L 49.2496,-64.2845 L 49.2844,-64.2839 L 49.6159,-64.2796
 L 49.6509,-64.2793 L 49.9825,-64.2778 L 50.0175,-64.2778 L 50.3491,-64.2793 L 50.3841,-64.2796 L 50.7156,-64.2839
 L 50.7504,-64.2845 L 51.0817,-64.2917 L 51.1166,-64.2927 L 51.4476,-64.3028 L 51.4827,-64.304 L 51.8133,-64.317
 L 51.8482,-64.3186 L 52.1783,-64.3344 L 52.2135,-64.3363 L 52.543,-64.3551 L 52.5784,-64.3572 L 52.9071,-64.3789
 L 52.9423,-64.3814 L 53.2703,-64.4059 L 53.3057,-64.4087 L 53.6328,-64.436 L 53.6684,-64.4392 L 53.9944,-64.4694
 L 54.0303,-64.4729 L 54.3553,-64.5059 L 54.3909,-64.5097 L 54.7146,-64.5456 L 54.7509,-64.5498 L 55.0733,-64.5885
 L 55.1095,-64.593 L 55.4306,-64.6345 L 55.467,-64.6394 L 55.7865,-64.6837 L 55.8231,-64.689 L 56.1411,-64.7361
 L 56.1778,-64.7417 L 56.4941,-64.7915 L 56.5314,-64.7976 L 56.8458,-64.8502 L 56.8831,-64.8566 L 57.1957,-64.9119
 L 57.2335,-64.9188 L 57.5441,-64.9769 L 57.5819,-64.9841 L 57.8904,-65.0449 L 57.9289,-65.0527 L 58.2352,-65.1161
 L 58.2735,-65.1243 L 58.5776,-65.1904 L 58.6168,-65.1991 L 58.9186,-65.2679 L 58.9577,-65.277 L 59.257,-65.3484
 L 59.2965,-65.358 L 59.5933,-65.432 L 59.6333,-65.4422 L 59.9274,-65.5187 L 59.9679,-65.5295 L 60.2594,-65.6086
 L 60.3002,-65.6199 L 60.5889,-65.7016 L 60.6301,-65.7135 L 60.9158,-65.7977 L 60.9577,-65.8102 L 61.2404,-65.8969
 L 61.2824,-65.91 L 61.5621,-65.9991 L 61.6047,-66.0129 L 61.8813,-66.1044 L 61.9247,-66.1191 L 62.198,-66.213
 L 62.2417,-66.2283 L 62.5116,-66.3246 L 62.5558,-66.3406 L 62.8223,-66.4392 L 62.8673,-66.4562 L 63.1304,-66.5571
 L 63.1759,-66.5749 L 63.4354,-66.6781 L 63.4812,-66.6967 L 63.7371,-66.8021 L 63.7838,-66.8217 L 64.036,-66.9294
 L 64.0833,-66.95 L 64.3317,-67.0598 L 64.3797,-67.0815 L 64.6242,-67.1935 L 64.6725,-67.216 L 64.9131,-67.3301
 L 64.9624,-67.354 L 65.1989,-67.4702 L 65.2491,-67.4953 L 65.4815,-67.6135 L 65.5321,-67.6397 L 65.7603,-67.76
 L 65.8115,-67.7874 L 66.0355,-67.9097 L 66.0878,-67.9387 L 66.3075,-68.0629 L 66.3604,-68.0933 L 66.5758,-68.2194
 L 66.6294,-68.2513 L 66.8403,-68.3793 L 66.8945,-68.4127 L 67.1009,-68.5425 L 67.1558,-68.5776 L 67.3577,-68.7091
 L 67.4136,-68.7462 L 67.6108,-68.8795 L 67.6673,-68.9184 L 67.8598,-69.0533 L 67.9171,-69.0942 L 68.1049,-69.2309
 L 68.1629,-69.2738 L 68.3459,-69.4121 L 68.4044,-69.4571 L 68.5825,-69.597 L 68.6416,-69.6442 L 68.8148,-69.7856
 L 68.8747,-69.8354 L 69.043,-69.9783 L 69.1033,-70.0305 L 69.2666,-70.1748 L 69.3273,-70.2296 L 69.4855,-70.3753
 L 69.5469,-70.433 L 69.7001,-70.5801 L 69.7616,-70.6405 L 69.9096,-70.7889 L 69.9714,-70.8523 L 70.1142,-71.002
 L 70.176,-71.0683 L 70.3136,-71.2192 L 70.3757,-71.289 L 70.5079,-71.441 L 70.5698,-71.5139 L 70.6967,-71.6671
 L 70.7585,-71.7436 L 70.8801,-71.8979 L 70.9414,-71.9778 L 71.0576,-72.1331 L 71.1185,-72.2168 L 71.2292,-72.3731
 L 71.2892,-72.4603 L 71.3944,-72.6175 L 71.4535,-72.7085 L 71.5532,-72.8666 L 71.6113,-72.9616 L 71.7054,-73.1206
 L 71.7619,-73.219 L 71.8505,-73.3788 L 71.9055,-73.4814 L 71.9885,-73.6419 L 72.0414,-73.748 L 72.1188,-73.9092
 L 72.1698,-74.0195 L 72.2415,-74.1814 L 72.2898,-74.2949 L 72.3559,-74.4574 L 72.4016,-74.575 L 72.462,-74.7381
 L 72.5045,-74.8586 L 72.5592,-75.0221 L 72.5985,-75.1461 L 72.6475,-75.3101 L 72.6832,-75.4371 L 72.7265,-75.6015
 L 72.7584,-75.7314 L 72.7959,-75.8961 L 72.8237,-76.0283 L 72.8555,-76.1934 L 72.879,-76.3279 L 72.9051,-76.4932
 L 72.9241,-76.6293 L 72.9444,-76.7948 L 72.9588,-76.9326 L 72.9733,-77.0982 L 72.9829,-77.237 L 72.9916,-77.4028
 L 72.9965,-77.542 L 72.9994,-77.7078 L 72.9994,-77.8477 L 72.9965,-78.0135 L 72.9916,-78.1528 L 72.9829,-78.3185
 L 72.9733,-78.4573 L 72.9588,-78.623 L 72.9444,-78.7607 L 72.9241,-78.9262 L 72.9051,-79.0623 L 72.879,-79.2276
 L 72.8555,-79.3622 L 72.8237,-79.5272 L 72.7959,-79.6595 L 72.7584,-79.8242 L 72.7265,-79.9541 L 72.6832,-80.1185
 L 72.6475,-80.2454 L 72.5985,-80.4094 L 72.5592,-80.5335 L 72.5397,-80.5918 L 72.8548,-80.3586 L 72.8828,-80.3375
 L 73.3814,-79.9549 L 73.4091,-79.9333 L 73.901,-79.542 L 73.9267,-79.5212 L 74.4126,-79.1206 L 74.4388,-79.0987
 L 74.9177,-78.6897 L 74.9427,-78.6679 L 75.414,-78.2509 L 75.4406,-78.227 L 75.903,-77.8033 L 75.9291,-77.7789
 L 76.384,-77.3472 L 76.4099,-77.3222 L 76.8569,-76.883 L 76.883,-76.8569 L 77.3225,-76.4097 L 77.3475,-76.3838
 L 77.7789,-75.9291 L 77.8035,-75.9027 L 78.2272,-75.4404 L 78.2509,-75.414 L 78.6679,-74.9427 L 78.6897,-74.9177
 L 79.0987,-74.4388 L 79.1206,-74.4126 L 79.5214,-73.9265 L 79.542,-73.901 L 79.9333,-73.4091 L 79.9549,-73.3814
 L 80.3375,-72.8828 L 80.3579,-72.8557 L 80.733,-72.3489 L 80.7527,-72.3218 L 81.1173,-71.8105 L 81.1379,-71.7812
 L 81.4933,-71.2641 L 81.5135,-71.2342 L 81.86,-70.7106 L 81.8786,-70.6819 L 82.2172,-70.1504 L 82.2348,-70.1222
 L 82.5628,-69.587 L 82.5814,-69.5561 L 82.9004,-69.0145 L 82.9176,-68.9847 L 83.2267,-68.4383 L 83.2441,-68.4069
 L 83.5439,-67.8549 L 83.5595,-67.8255 L 83.8502,-67.2671 L 83.8658,-67.2364 L 84.1463,-66.6739 L 84.1618,-66.6422
 L 84.4325,-66.0745 L 84.4466,-66.0444 L 84.7076,-65.4717 L 84.7218,-65.4396 L 84.9722,-64.8637 L 84.9858,-64.8319
 L 85.2264,-64.251 L 85.2393,-64.2189 L 85.4699,-63.6336 L 85.4822,-63.6014 L 85.7024,-63.0125 L 85.7135,-62.9823
 L 85.9243,-62.3869 L 85.9349,-62.356 L 86.1346,-61.7592 L 86.1457,-61.7251 L 86.3341,-61.1275 L 86.3447,-61.0927
 L 86.5232,-60.4903 L 86.5325,-60.4576 L 86.7006,-59.8516 L 86.7094,-59.8188 L 86.8673,-59.2082 L 86.8749,-59.1777
 L 87.0222,-58.5644 L 87.0297,-58.5317 L 87.1659,-57.9175 L 87.1731,-57.8836 L 87.2982,-57.2682 L 87.3051,-57.2328
 L 87.4195,-56.6157 L 87.4255,-56.582 L 87.5294,-55.961 L 87.5347,-55.9272 L 87.6277,-55.3049 L 87.6323,-55.2722
 L 87.7145,-54.6478 L 87.7187,-54.6139 L 87.7899,-53.9888 L 87.7935,-53.9546 L 87.8215,-53.6634 L 87.7624,-53.7478
 L 87.6482,-53.906 L 87.5816,-53.9956 L 87.4641,-54.1493 L 87.3935,-54.2388 L 87.2726,-54.3879 L 87.1987,-54.4763
 L 87.0745,-54.6208 L 86.9967,-54.7085 L 86.8692,-54.8483 L 86.788,-54.9347 L 86.6572,-55.0698 L 86.5722,-55.1549
 L 86.4382,-55.2852 L 86.35,-55.3684 L 86.2129,-55.494 L 86.1209,-55.5755 L 85.9806,-55.6962 L 85.8856,-55.7755
 L 85.7422,-55.8913 L 85.6439,-55.9682 L 85.4975,-56.0791 L 85.3964,-56.1532 L 85.247,-56.2592 L 85.1429,-56.3306
 L 84.9906,-56.4315 L 84.884,-56.4998 L 84.7287,-56.5957 L 84.6199,-56.6607 L 84.4618,-56.7516 L 84.3506,-56.8133
 L 84.1897,-56.8992 L 84.0769,-56.9571 L 83.9132,-57.0379 L 83.7989,-57.0921 L 83.6325,-57.1678 L 83.5168,-57.2182
 L 83.3478,-57.2888 L 83.2314,-57.3352 L 83.0597,-57.4006 L 82.9424,-57.4432 L 82.7682,-57.5034 L 82.6507,-57.5421
 L 82.474,-57.5971 L 82.3561,-57.6318 L 82.1769,-57.6816 L 82.0597,-57.7123 L 81.8781,-57.7569 L 81.7609,-57.7838
 L 81.577,-57.8232 L 81.4607,-57.8463 L 81.2746,-57.8804 L 81.159,-57.8998 L 80.9706,-57.9286 L 80.8565,-57.9444
 L 80.666,-57.9679 L 80.5527,-57.9803 L 80.36,-57.9986 L 80.2488,-58.0076 L 80.0541,-58.0206 L 79.9441,-58.0264
 L 79.7475,-58.0341 L 79.6397,-58.0368 L 79.4411,-58.0392 L 79.3349,-58.0391 L 79.1344,-58.0362 L 79.0304,-58.0334
 L 78.8281,-58.0252 L 78.7264,-58.0198 L 78.5224,-58.0063 L 78.4226,-57.9985 L 78.2169,-57.9798 L 78.1195,-57.9697
 L 77.9121,-57.9456 L 77.817,-57.9334 L 77.6081,-57.9041 L 77.5156,-57.8901 L 77.3052,-57.8555 L 77.2142,-57.8395
 L 77.0024,-57.7997 L 76.9146,-57.7821 L 76.7014,-57.7371 L 76.6154,-57.7179 L 76.401,-57.6677 L 76.3175,-57.6472
 L 76.1018,-57.5917 L 76.0203,-57.5698 L 75.8034,-57.5091 L 75.7243,-57.4861 L 75.5063,-57.4202 L 75.4298,-57.3963
 L 75.2108,-57.3253 L 75.1357,-57.3001 L 74.9156,-57.2239 L 74.8434,-57.1982 L 74.6225,-57.1169 L 74.5518,-57.0901
 L 74.3301,-57.0038 L 74.2618,-56.9765 L 74.0393,-56.8851 L 73.9726,-56.857 L 73.7494,-56.7606 L 73.6847,-56.7319
 L 73.4608,-56.6305 L 73.3982,-56.6015 L 73.1738,-56.495 L 73.1127,-56.4654 L 72.8878,-56.3541 L 72.8287,-56.3242
 L 72.6034,-56.208 L 72.5458,-56.1777 L 72.3201,-56.0566 L 72.2642,-56.026 L 72.0382,-55.9001 L 71.9839,-55.8692
 L 71.7576,-55.7384 L 71.7049,-55.7074 L 71.4785,-55.5719 L 71.4271,-55.5406 L 71.2007,-55.4004 L 71.1508,-55.369
 L 70.9243,-55.2241 L 70.8758,-55.1926 L 70.6494,-55.0431 L 70.6021,-55.0114 L 70.3758,-54.8573 L 70.33,-54.8256
 L 70.1039,-54.667 L 70.0591,-54.6351 L 69.8333,-54.472 L 69.7898,-54.4401 L 69.5643,-54.2726 L 69.5219,-54.2407
 L 69.2968,-54.0687 L 69.2554,-54.0367 L 69.0308,-53.8605 L 68.9906,-53.8285 L 68.7665,-53.648 L 68.7273,-53.616
 L 68.5038,-53.4313 L 68.4656,-53.3992 L 68.2427,-53.2103 L 68.2054,-53.1783 L 67.9833,-52.9852 L 67.947,-52.9532
 L 67.7257,-52.7561 L 67.6904,-52.7243 L 67.47,-52.5232 L 67.4352,-52.4911 L 67.2157,-52.2861 L 67.1819,-52.2542
 L 66.9635,-52.0453 L 66.9304,-52.0133 L 66.713,-51.8006 L 66.6808,-51.7687 L 66.4645,-51.5523 L 66.4331,-51.5205
 L 66.218,-51.3004 L 66.187,-51.2683 L 65.9733,-51.0446 L 65.9433,-51.0129 L 65.7308,-50.7856 L 65.7013,-50.7537
 L 65.4903,-50.523 L 65.4615,-50.4911 L 65.2519,-50.257 L 65.2237,-50.2252 L 65.0157,-49.9878 L 64.988,-49.9559
 L 64.7816,-49.7152 L 64.7545,-49.6833 L 64.5497,-49.4394 L 64.5232,-49.4076 L 64.3202,-49.1606 L 64.2941,-49.1286
 L 64.0928,-48.8786 L 64.0675,-48.8467 L 63.868,-48.5938 L 63.843,-48.5617 L 63.6454,-48.3058 L 63.621,-48.2739
 L 63.4255,-48.0153 L 63.4014,-47.9831 L 63.2078,-47.7217 L 63.1843,-47.6897 L 62.9929,-47.4257 L 62.9698,-47.3935
 L 62.7805,-47.1269 L 62.7578,-47.0947 L 62.5706,-46.8256 L 62.5484,-46.7934 L 62.3635,-46.5219 L 62.3417,-46.4895
 L 62.1591,-46.2157 L 62.1376,-46.1832 L 61.9574,-45.9072 L 61.9364,-45.8746 L 61.7586,-45.5964 L 61.738,-45.5638
 L 61.5626,-45.2836 L 61.5422,-45.2506 L 61.3694,-44.9684 L 61.3496,-44.9356 L 61.1794,-44.6515 L 61.1598,-44.6185
 L 60.9922,-44.3326 L 60.9728,-44.2991 L 60.8079,-44.0114 L 60.7891,-43.9783 L 60.627,-43.6891 L 60.6082,-43.6552
 L 60.4489,-43.3645 L 60.4307,-43.3309 L 60.2742,-43.0387 L 60.2561,-43.0045 L 60.1024,-42.7109 L 60.0848,-42.6768
 L 59.934,-42.3819 L 59.9168,-42.3477 L 59.769,-42.0516 L 59.7518,-42.0168 L 59.6071,-41.7196 L 59.5903,-41.6848
 L 59.4487,-41.3866 L 59.4322,-41.3515 L 59.2936,-41.0524 L 59.2774,-41.017 L 59.142,-40.717 L 59.1261,-40.6814
 L 58.9939,-40.3807 L 58.9783,-40.3448 L 58.8493,-40.0435 L 58.8339,-40.0072 L 58.7082,-39.7054 L 58.6931,-39.6687
 L 58.5707,-39.3665 L 58.556,-39.3295 L 58.4369,-39.0269 L 58.4224,-38.9894 L 58.3067,-38.6865 L 58.2925,-38.6489
 L 58.1802,-38.3458 L 58.1663,-38.3076 L 58.0575,-38.0044 L 58.0439,-37.966 L 57.9385,-37.6628 L 57.9252,-37.6237
 L 57.8233,-37.3206 L 57.8104,-37.2814 L 57.7121,-36.9784 L 57.6994,-36.9386 L 57.6047,-36.636 L 57.5923,-36.5956
 L 57.5011,-36.2933 L 57.4891,-36.2526 L 57.4016,-35.9508 L 57.3898,-35.9095 L 57.306,-35.6082 L 57.2946,-35.5663
 L 57.2145,-35.2657 L 57.2035,-35.2234 L 57.127,-34.9236 L 57.1162,-34.8803 L 57.0435,-34.5813 L 57.0332,-34.5378
 L 56.9643,-34.2398 L 56.9543,-34.1955 L 56.8891,-33.8985 L 56.8795,-33.8534 L 56.8182,-33.5575 L 56.809,-33.512
 L 56.7514,-33.2172 L 56.7426,-33.1706 L 56.6889,-32.8772 L 56.6806,-32.8304 L 56.6308,-32.5382 L 56.6229,-32.4905
 L 56.5769,-32.1998 L 56.5695,-32.1512 L 56.5273,-31.8621 L 56.5205,-31.8127 L 56.4822,-31.5252 L 56.4758,-31.4751
 L 56.4415,-31.1893 L 56.4357,-31.1384 L 56.4053,-30.8544 L 56.4,-30.8024 L 56.3735,-30.5204 L 56.3689,-30.4675
 L 56.3463,-30.1875 L 56.3424,-30.1337 L 56.3237,-29.8558 L 56.3204,-29.801 L 56.3057,-29.5252 L 56.3031,-29.4695
 L 56.2924,-29.1959 L 56.2905,-29.139 L 56.2837,-28.8677 L 56.2827,-28.8099 L 56.2798,-28.5411 L 56.2796,-28.4821
 L 56.2807,-28.2158 L 56.2814,-28.1557 L 56.2865,-27.8919 L 56.2881,-27.8307 L 56.2971,-27.5695 L 56.2997,-27.5071
 L 56.3127,-27.2487 L 56.3164,-27.1851 L 56.3333,-26.9295 L 56.3381,-26.8647 L 56.3589,-26.612 L 56.3649,-26.546
 L 56.3896,-26.2963 L 56.3969,-26.2288 L 56.4256,-25.9821 L 56.4342,-25.9136 L 56.4668,-25.67 L 56.4768,-25.5999
 L 56.5133,-25.3595 L 56.5248,-25.2881 L 56.5652,-25.051 L 56.5782,-24.9786 L 56.6225,-24.7448 L 56.6373,-24.6706
 L 56.6854,-24.4402 L 56.7018,-24.3654 L 56.7538,-24.1384 L 56.7723,-24.0614 L 56.8281,-23.838 L 56.8484,-23.7604
 L 56.908,-23.5406 L 56.9304,-23.4614 L 56.9939,-23.2453 L 57.0185,-23.1646 L 57.0858,-22.9522 L 57.1126,-22.8706
 L 57.1836,-22.6621 L 57.2129,-22.579 L 57.2877,-22.3744 L 57.3194,-22.2906 L 57.3978,-22.0899 L 57.4325,-22.0042
 L 57.5147,-21.8075 L 57.5517,-21.7216 L 57.6376,-21.5289 L 57.6777,-21.4417 L 57.7672,-21.2532 L 57.8103,-21.1652
 L 57.9034,-20.9808 L 57.9496,-20.8921 L 58.0463,-20.7119 L 58.0956,-20.6228 L 58.1959,-20.4469 L 58.2486,-20.3572
 L 58.3523,-20.1857 L 58.4085,-20.0955 L 58.5158,-19.9283 L 58.5753,-19.8384 L 58.686,-19.6757 L 58.7492,-19.5856
 L 58.8634,-19.4273 L 58.93,-19.3378 L 59.0476,-19.1841 L 59.1181,-19.0945 L 59.239,-18.9454 L 59.3129,-18.857
 L 59.4371,-18.7126 L 59.5149,-18.6248 L 59.6424,-18.485 L 59.7236,-18.3986 L 59.8544,-18.2635 L 59.9394,-18.1784
 L 60.0734,-18.0481 L 60.1616,-17.9649 L 60.2987,-17.8394 L 60.3907,-17.7578 L 60.531,-17.6371 L 60.626,-17.5579
 L 60.7694,-17.442 L 60.8677,-17.3652 L 61.0141,-17.2543 L 61.1152,-17.1801 L 61.2646,-17.0742 L 61.3687,-17.0028
 L 61.5211,-16.9018 L 61.6276,-16.8336 L 61.7829,-16.7376 L 61.8917,-16.6726 L 62.0498,-16.5817 L 62.161,-16.52
 L 62.322,-16.4342 L 62.4347,-16.3763 L 62.5984,-16.2955 L 62.7127,-16.2413 L 62.8791,-16.1656 L 62.9948,-16.1151
 L 63.1638,-16.0446 L 63.2803,-15.9981 L 63.4519,-15.9327 L 63.5692,-15.8901 L 63.7434,-15.8299 L 63.8609,-15.7913
 L 64.0376,-15.7363 L 64.1555,-15.7015 L 64.3347,-15.6517 L 64.452,-15.621 L 64.6335,-15.5764 L 64.7507,-15.5495
 L 64.9346,-15.5101 L 65.0509,-15.4871 L 65.237,-15.453 L 65.3526,-15.4336 L 65.541,-15.4047 L 65.6551,-15.389
 L 65.6774,-15.3862 L 65.456,-15.2853 L 64.8478,-15.0208 L 64.235,-14.767 L 63.618,-14.524 L 62.9968,-14.2917
 L 62.3716,-14.0703 L 61.7426,-13.8599 L 61.1101,-13.6604 L 60.4742,-13.4721 L 59.8351,-13.2948 L 59.193,-13.1288
 L 58.5481,-12.9739 L 57.9006,-12.8304 L 57.2507,-12.6982 L 56.5986,-12.5773 L 55.9445,-12.4678 L 55.2886,-12.3698
 L 54.631,-12.2832 L 53.9721,-12.2082 L 53.3119,-12.1446 L 52.6507,-12.0926 L 51.9888,-12.0521 L 51.3262,-12.0232
 L 50.6632,-12.0058 L 50,-12 z
M 27.8639,-17.564 L 27.8862,-17.6432 L 27.9459,-17.863 L 27.9661,-17.9406 L 28.022,-18.164 L 28.0405,-18.241
 L 28.0925,-18.4679 L 28.1089,-18.5428 L 28.157,-18.7732 L 28.1718,-18.8474 L 28.2161,-19.0812 L 28.2291,-19.1535
 L 28.2695,-19.3907 L 28.281,-19.4621 L 28.3175,-19.7025 L 28.3275,-19.7725 L 28.3601,-20.0161 L 28.3687,-20.0847
 L 28.3974,-20.3314 L 28.4046,-20.3988 L 28.4294,-20.6486 L 28.4354,-20.7145 L 28.4562,-20.9672 L 28.461,-21.0321
 L 28.4779,-21.2877 L 28.4816,-21.3513 L 28.4946,-21.6097 L 28.4972,-21.6721 L 28.5062,-21.9332 L 28.5078,-21.9945
 L 28.5129,-22.2582 L 28.5136,-22.3183 L 28.5146,-22.5847 L 28.5145,-22.6436 L 28.5116,-22.9125 L 28.5106,-22.9703
 L 28.5038,-23.2415 L 28.5019,-23.2985 L 28.4911,-23.572 L 28.4886,-23.6277 L 28.4739,-23.9035 L 28.4706,-23.9583
 L 28.4519,-24.2363 L 28.4479,-24.2901 L 28.4254,-24.5701 L 28.4207,-24.623 L 28.3942,-24.905 L 28.389,-24.957
 L 28.3586,-25.2409 L 28.3528,-25.2919 L 28.3184,-25.5777 L 28.3121,-25.6278 L 28.2738,-25.9153 L 28.2669,-25.9647
 L 28.2248,-26.2538 L 28.2174,-26.3024 L 28.1714,-26.5931 L 28.1635,-26.6408 L 28.1136,-26.9329 L 28.1053,-26.9797
 L 28.0516,-27.2732 L 28.0428,-27.3198 L 27.9853,-27.6145 L 27.9761,-27.66 L 27.9147,-27.956 L 27.9051,-28.001
 L 27.84,-28.2981 L 27.83,-28.3423 L 27.761,-28.6404 L 27.7507,-28.6839 L 27.678,-28.9829 L 27.6673,-29.0262
 L 27.5908,-29.326 L 27.5798,-29.3683 L 27.4997,-29.6689 L 27.4883,-29.7108 L 27.4044,-30.012 L 27.3927,-30.0534
 L 27.3052,-30.3552 L 27.2931,-30.3959 L 27.202,-30.6982 L 27.1896,-30.7385 L 27.0949,-31.0412 L 27.0822,-31.081
 L 26.9839,-31.3839 L 26.9709,-31.4232 L 26.8691,-31.7263 L 26.8557,-31.7654 L 26.7504,-32.0686 L 26.7368,-32.107
 L 26.628,-32.4102 L 26.614,-32.4484 L 26.5018,-32.7515 L 26.4876,-32.7891 L 26.3719,-33.092 L 26.3574,-33.1295
 L 26.2383,-33.4321 L 26.2236,-33.469 L 26.1011,-33.7713 L 26.0861,-33.8079 L 25.9604,-34.1098 L 25.945,-34.1461
 L 25.816,-34.4474 L 25.8004,-34.4833 L 25.6682,-34.7839 L 25.6523,-34.8196 L 25.5169,-35.1195 L 25.5007,-35.155
 L 25.3621,-35.4541 L 25.3456,-35.4892 L 25.2039,-35.7874 L 25.1872,-35.8222 L 25.0424,-36.1193 L 25.0253,-36.1542
 L 24.8775,-36.4502 L 24.8602,-36.4844 L 24.7095,-36.7793 L 24.6919,-36.8134 L 24.5382,-37.1071 L 24.5201,-37.1413
 L 24.3636,-37.4335 L 24.3454,-37.467 L 24.1861,-37.7578 L 24.1673,-37.7916 L 24.0051,-38.0809 L 23.9864,-38.114
 L 23.8215,-38.4016 L 23.8021,-38.4351 L 23.6345,-38.721 L 23.6149,-38.7541 L 23.4447,-39.0381 L 23.4248,-39.0709
 L 23.2521,-39.3531 L 23.2316,-39.3861 L 23.0563,-39.6664 L 23.0357,-39.699 L 22.8579,-39.9772 L 22.8369,-40.0097
 L 22.6566,-40.2858 L 22.6351,-40.3183 L 22.4526,-40.5921 L 22.4307,-40.6245 L 22.2458,-40.8959 L 22.2237,-40.9281
 L 22.0365,-41.1972 L 22.0138,-41.2295 L 21.8245,-41.4961 L 21.8014,-41.5282 L 21.6099,-41.7922 L 21.5864,-41.8243
 L 21.3929,-42.0857 L 21.3688,-42.1178 L 21.1732,-42.3765 L 21.1488,-42.4084 L 20.9513,-42.6643 L 20.9263,-42.6963
 L 20.7268,-42.9493 L 20.7015,-42.9811 L 20.5002,-43.2312 L 20.4741,-43.2632 L 20.271,-43.5101 L 20.2446,-43.542
 L 20.0398,-43.7859 L 20.0127,-43.8177 L 19.8063,-44.0584 L 19.7786,-44.0903 L 19.5706,-44.3278 L 19.5424,-44.3596
 L 19.3328,-44.5937 L 19.304,-44.6256 L 19.093,-44.8563 L 19.0635,-44.8882 L 18.851,-45.1154 L 18.821,-45.1472
 L 18.6072,-45.3709 L 18.5762,-45.403 L 18.3612,-45.6231 L 18.3298,-45.6549 L 18.1135,-45.8713 L 18.0813,-45.9032
 L 17.8639,-46.1159 L 17.8308,-46.1479 L 17.6123,-46.3568 L 17.5786,-46.3887 L 17.3591,-46.5937 L 17.3243,-46.6258
 L 17.1039,-46.8269 L 17.0686,-46.8587 L 16.8473,-47.0558 L 16.811,-47.0878 L 16.5889,-47.2808 L 16.5515,-47.3129
 L 16.3287,-47.5018 L 16.2905,-47.5338 L 16.0669,-47.7186 L 16.0278,-47.7506 L 15.8036,-47.9311 L 15.7635,-47.9631
 L 15.5388,-48.1393 L 15.4975,-48.1713 L 15.2724,-48.3433 L 15.23,-48.3752 L 15.0045,-48.5427 L 14.961,-48.5746
 L 14.7351,-48.7377 L 14.6904,-48.7695 L 14.4643,-48.9282 L 14.4184,-48.9599 L 14.1922,-49.114 L 14.1449,-49.1457
 L 13.9184,-49.2952 L 13.87,-49.3267 L 13.6435,-49.4716 L 13.5936,-49.503 L 13.3671,-49.6432 L 13.3158,-49.6745
 L 13.0894,-49.81 L 13.0366,-49.841 L 12.8104,-49.9718 L 12.7561,-50.0026 L 12.5301,-50.1286 L 12.4742,-50.1591
 L 12.2485,-50.2803 L 12.1909,-50.3105 L 11.9656,-50.4268 L 11.9065,-50.4566 L 11.6816,-50.568 L 11.6205,-50.5976
 L 11.3961,-50.704 L 11.3334,-50.7331 L 11.1096,-50.8345 L 11.0449,-50.8631 L 10.8216,-50.9596 L 10.755,-50.9877
 L 10.5325,-51.0791 L 10.4642,-51.1064 L 10.2715,-51.1814 L 16.0958,-53.9543 L 16.2535,-54.0252 L 16.4138,-54.0909
 L 16.5768,-54.1515 L 16.7423,-54.2069 L 16.9104,-54.2571 L 17.0809,-54.3022 L 17.2538,-54.342 L 17.4291,-54.3766
 L 17.6067,-54.4059 L 17.7865,-54.43 L 17.9686,-54.4488 L 18.1527,-54.4624 L 18.339,-54.4707 L 18.5273,-54.4738
 L 18.7176,-54.4716 L 18.9098,-54.4641 L 19.1038,-54.4513 L 19.2996,-54.4333 L 19.4972,-54.4101 L 19.6964,-54.3815
 L 19.8973,-54.3478 L 20.0997,-54.3088 L 20.3036,-54.2646 L 20.5089,-54.2152 L 20.7157,-54.1606 L 20.9237,-54.1008
 L 21.1329,-54.0359 L 21.3433,-53.9659 L 21.5549,-53.8907 L 21.7675,-53.8104 L 21.981,-53.7251 L 22.1955,-53.6347
 L 22.4109,-53.5394 L 22.627,-53.439 L 22.8439,-53.3337 L 23.0614,-53.2234 L 23.2795,-53.1083 L 23.4982,-52.9883
 L 23.7173,-52.8635 L 23.9367,-52.734 L 24.1565,-52.5997 L 24.3766,-52.4607 L 24.5969,-52.317 L 24.8172,-52.1687
 L 25.0377,-52.0159 L 25.2581,-51.8586 L 25.4784,-51.6967 L 25.6986,-51.5305 L 25.9186,-51.3598 L 26.1383,-51.1849
 L 26.3577,-51.0057 L 26.5766,-50.8223 L 26.7951,-50.6347 L 27.013,-50.443 L 27.2303,-50.2473 L 27.4469,-50.0476
 L 27.6628,-49.844 L 27.8779,-49.6366 L 28.092,-49.4253 L 28.3053,-49.2103 L 28.5175,-48.9917 L 28.7287,-48.7694
 L 28.9387,-48.5436 L 29.1476,-48.3144 L 29.3551,-48.0817 L 29.5614,-47.8458 L 29.7662,-47.6066 L 29.9696,-47.3642
 L 30.1715,-47.1187 L 30.3718,-46.8701 L 30.5705,-46.6187 L 30.7675,-46.3643 L 30.9627,-46.1072 L 31.1561,-45.8473
 L 31.3477,-45.5848 L 31.5373,-45.3198 L 31.7249,-45.0522 L 31.9104,-44.7823 L 32.0939,-44.51 L 32.2752,-44.2355
 L 32.4543,-43.9589 L 32.6311,-43.6802 L 32.8055,-43.3995 L 32.9776,-43.1169 L 33.1473,-42.8326 L 33.3145,-42.5464
 L 33.4792,-42.2587 L 33.6413,-41.9694 L 33.8007,-41.6787 L 33.9575,-41.3866 L 34.1115,-41.0931 L 34.2628,-40.7986
 L 34.4112,-40.5029 L 34.5568,-40.2061 L 34.6994,-39.9085 L 34.8391,-39.61 L 34.9758,-39.3109 L 35.1095,-39.011
 L 35.2401,-38.7106 L 35.3676,-38.4097 L 35.4919,-38.1085 L 35.613,-37.8069 L 35.7309,-37.5052 L 35.8455,-37.2034
 L 35.9568,-36.9016 L 36.0648,-36.5998 L 36.1694,-36.2982 L 36.2706,-35.9969 L 36.3684,-35.696 L 36.4627,-35.3955
 L 36.5535,-35.0956 L 36.6408,-34.7962 L 36.7245,-34.4977 L 36.8047,-34.1999 L 36.8813,-33.903 L 36.9543,-33.6072
 L 37.0236,-33.3124 L 37.0892,-33.0188 L 37.1512,-32.7265 L 37.2095,-32.4355 L 37.264,-32.146 L 37.3149,-31.858
 L 37.3619,-31.5716 L 37.4052,-31.2869 L 37.4448,-31.0041 L 37.4805,-30.7231 L 37.5124,-30.4441 L 37.5405,-30.1671
 L 37.5648,-29.8923 L 37.5853,-29.6196 L 37.602,-29.3493 L 37.6148,-29.0814 L 37.6237,-28.8159 L 37.6288,-28.553
 L 37.6301,-28.2927 L 37.6275,-28.0352 L 37.6211,-27.7804 L 37.6108,-27.5284 L 37.5967,-27.2794 L 37.5788,-27.0335
 L 37.557,-26.7906 L 37.5314,-26.5509 L 37.5019,-26.3144 L 37.4687,-26.0812 L 37.4317,-25.8514 L 37.3909,-25.6251
 L 37.3463,-25.4023 L 37.2979,-25.183 L 37.2458,-24.9675 L 37.19,-24.7556 L 37.1304,-24.5475 L 37.0672,-24.3433
 L 37.0003,-24.143 L 36.9297,-23.9466 L 36.8555,-23.7543 L 36.7777,-23.5661 L 36.6963,-23.382 L 36.6114,-23.2021
 L 36.5229,-23.0265 L 36.4308,-22.8552 L 36.3354,-22.6883 L 36.2364,-22.5257 L 36.134,-22.3677 L 36.0283,-22.2141
 L 35.9192,-22.0651 L 35.8067,-21.9207 L 35.691,-21.781 L 35.572,-21.6459 L 35.4498,-21.5156 L 35.3244,-21.3901
 L 35.1958,-21.2693 L 35.0642,-21.1534 L 34.9295,-21.0424 L 34.7917,-20.9363 L 34.651,-20.8352 L 34.5074,-20.739
 L 34.3608,-20.6478 L 34.2114,-20.5617 L 34.0592,-20.4807 L 33.9042,-20.4047 L 27.8515,-17.5218 z
M 66.9205,-19.2962 L 66.7238,-19.3039 L 66.5291,-19.3169 L 66.3365,-19.3352 L 66.146,-19.3587 L 65.9576,-19.3875
 L 65.7715,-19.4216 L 65.5876,-19.461 L 65.4061,-19.5056 L 65.2269,-19.5554 L 65.0502,-19.6104 L 64.8761,-19.6706
 L 64.7044,-19.736 L 64.5354,-19.8065 L 64.369,-19.8822 L 64.2053,-19.963 L 64.0444,-20.0489 L 63.8863,-20.1398
 L 63.7311,-20.2358 L 63.5787,-20.3368 L 63.4293,-20.4428 L 63.2829,-20.5537 L 63.1395,-20.6695 L 62.9992,-20.7902
 L 62.8621,-20.9157 L 62.7281,-21.046 L 62.5973,-21.1811 L 62.4697,-21.3209 L 62.3455,-21.4654 L 62.2245,-21.6145
 L 62.1069,-21.7682 L 61.9928,-21.9264 L 61.882,-22.0891 L 61.7747,-22.2563 L 61.6709,-22.4278 L 61.5707,-22.6037
 L 61.474,-22.7838 L 61.3808,-22.9682 L 61.2914,-23.1568 L 61.2055,-23.3495 L 61.1233,-23.5462 L 61.0448,-23.747
 L 60.9701,-23.9516 L 60.899,-24.1602 L 60.8318,-24.3725 L 60.7683,-24.5886 L 60.7086,-24.8084 L 60.6528,-25.0318
 L 60.6008,-25.2587 L 60.5526,-25.4891 L 60.5083,-25.7229 L 60.4679,-25.9601 L 60.4314,-26.2005 L 60.3988,-26.4441
 L 60.3701,-26.6908 L 60.3454,-26.9405 L 60.3246,-27.1933 L 60.3077,-27.4488 L 60.2947,-27.7072 L 60.2857,-27.9684
 L 60.2807,-28.2322 L 60.2796,-28.4985 L 60.2825,-28.7674 L 60.2893,-29.0386 L 60.3,-29.3122 L 60.3147,-29.588
 L 60.3334,-29.866 L 60.356,-30.146 L 60.3825,-30.428 L 60.4129,-30.7119 L 60.4473,-30.9977 L 60.4855,-31.2852
 L 60.5276,-31.5742 L 60.5737,-31.8649 L 60.6236,-32.157 L 60.6773,-32.4505 L 60.7348,-32.7453 L 60.7962,-33.0413
 L 60.8614,-33.3383 L 60.9303,-33.6364 L 61.003,-33.9355 L 61.0795,-34.2353 L 61.1596,-34.5359 L 61.2434,-34.8371
 L 61.3309,-35.1389 L 61.422,-35.4411 L 61.5168,-35.7438 L 61.6151,-36.0467 L 61.7169,-36.3498 L 61.8223,-36.653
 L 61.9311,-36.9562 L 62.0434,-37.2593 L 62.1591,-37.5622 L 62.2782,-37.8649 L 62.4006,-38.1672 L 62.5264,-38.469
 L 62.6554,-38.7703 L 62.7876,-39.071 L 62.923,-39.3709 L 63.0616,-39.67 L 63.2033,-39.9682 L 63.348,-40.2653
 L 63.4958,-40.5614 L 63.6465,-40.8563 L 63.8001,-41.1499 L 63.9567,-41.4421 L 64.116,-41.7329 L 64.2782,-42.0222
 L 64.4431,-42.3098 L 64.6106,-42.5957 L 64.7809,-42.8798 L 64.9536,-43.162 L 65.129,-43.4422 L 65.3067,-43.7204
 L 65.487,-43.9964 L 65.6695,-44.2701 L 65.8544,-44.5416 L 66.0416,-44.8107 L 66.2309,-45.0772 L 66.4224,-45.3413
 L 66.616,-45.6026 L 66.8115,-45.8613 L 67.0091,-46.1172 L 67.2085,-46.3701 L 67.4098,-46.6201 L 67.6129,-46.8671
 L 67.8177,-47.111 L 68.0242,-47.3517 L 68.2322,-47.5891 L 68.4418,-47.8233 L 68.6528,-48.054 L 68.8653,-48.2812
 L 69.079,-48.5049 L 69.2941,-48.725 L 69.5103,-48.9415 L 69.7278,-49.1542 L 69.9462,-49.3631 L 70.1657,-49.5681
 L 70.3861,-49.7692 L 70.6074,-49.9663 L 70.8295,-50.1593 L 71.0524,-50.3483 L 71.2759,-50.533 L 71.5,-50.7136
 L 71.7247,-50.8898 L 71.9498,-51.0618 L 72.1753,-51.2293 L 72.4012,-51.3924 L 72.6272,-51.5511 L 72.8535,-51.7052
 L 73.08,-51.8547 L 73.3065,-51.9996 L 73.5329,-52.1398 L 73.7593,-52.2753 L 73.9855,-52.4061 L 74.2115,-52.532
 L 74.4372,-52.6531 L 74.6626,-52.7694 L 74.8875,-52.8807 L 75.1119,-52.9872 L 75.3358,-53.0886 L 75.559,-53.185
 L 75.7815,-53.2764 L 76.0033,-53.3628 L 76.2242,-53.444 L 76.4442,-53.5202 L 76.6632,-53.5912 L 76.8812,-53.6571
 L 77.0981,-53.7177 L 77.3138,-53.7732 L 77.5283,-53.8235 L 77.7415,-53.8686 L 77.9533,-53.9084 L 78.1637,-53.9429
 L 78.3726,-53.9722 L 78.58,-53.9963 L 78.7857,-54.015 L 78.9897,-54.0285 L 79.192,-54.0367 L 79.3925,-54.0395
 L 79.5911,-54.0371 L 79.7878,-54.0294 L 79.9825,-54.0164 L 80.1751,-53.9982 L 80.3656,-53.9746 L 80.554,-53.9458
 L 80.7401,-53.9117 L 80.924,-53.8724 L 81.1055,-53.8278 L 81.2847,-53.778 L 81.4614,-53.723 L 81.6356,-53.6627
 L 81.8072,-53.5973 L 81.9762,-53.5268 L 82.1426,-53.4511 L 82.3063,-53.3703 L 82.4672,-53.2844 L 82.6253,-53.1935
 L 82.7805,-53.0975 L 82.9329,-52.9965 L 83.0823,-52.8905 L 83.2287,-52.7796 L 83.3721,-52.6638 L 83.5124,-52.5431
 L 83.6495,-52.4176 L 83.7836,-52.2873 L 83.9143,-52.1522 L 84.0419,-52.0124 L 84.1662,-51.868 L 84.2871,-51.7189
 L 84.4047,-51.5652 L 84.5189,-51.407 L 84.6296,-51.2442 L 84.7369,-51.0771 L 84.8407,-50.9055 L 84.9409,-50.7297
 L 85.0376,-50.5495 L 85.1308,-50.3651 L 85.2203,-50.1765 L 85.3061,-49.9839 L 85.3883,-49.7871 L 85.4668,-49.5864
 L 85.5415,-49.3817 L 85.6126,-49.1732 L 85.6798,-48.9608 L 85.7433,-48.7447 L 85.803,-48.5249 L 85.8588,-48.3016
 L 85.9108,-48.0746 L 85.959,-47.8442 L 86.0033,-47.6104 L 86.0437,-47.3733 L 86.0802,-47.1329 L 86.1128,-46.8893
 L 86.1415,-46.6426 L 86.1662,-46.3928 L 86.1871,-46.1401 L 86.2039,-45.8845 L 86.2169,-45.6261 L 86.2259,-45.365
 L 86.2309,-45.1012 L 86.232,-44.8348 L 86.2292,-44.566 L 86.2224,-44.2947 L 86.2116,-44.0212 L 86.1969,-43.7454
 L 86.1782,-43.4674 L 86.1557,-43.1873 L 86.1291,-42.9053 L 86.0987,-42.6214 L 86.0643,-42.3357 L 86.0261,-42.0482
 L 85.984,-41.7591 L 85.9379,-41.4684 L 85.888,-41.1763 L 85.8343,-40.8828 L 85.7768,-40.5881 L 85.7154,-40.2921
 L 85.6502,-39.995 L 85.5813,-39.6969 L 85.5086,-39.3979 L 85.4321,-39.0981 L 85.352,-38.7975 L 85.2682,-38.4962
 L 85.1807,-38.1945 L 85.0896,-37.8922 L 84.9949,-37.5896 L 84.8966,-37.2867 L 84.7947,-36.9836 L 84.6894,-36.6803
 L 84.5805,-36.3772 L 84.4682,-36.074 L 84.3525,-35.7711 L 84.2334,-35.4684 L 84.111,-35.1662 L 83.9853,-34.8643
 L 83.8562,-34.563 L 83.724,-34.2624 L 83.5886,-33.9625 L 83.45,-33.6634 L 83.3083,-33.3652 L 83.1636,-33.068
 L 83.0159,-32.772 L 82.8651,-32.4771 L 82.7115,-32.1834 L 82.5549,-31.8912 L 82.3956,-31.6004 L 82.2334,-31.3112
 L 82.0685,-31.0236 L 81.901,-30.7377 L 81.7308,-30.4536 L 81.558,-30.1714 L 81.3827,-29.8911 L 81.2049,-29.613
 L 81.0247,-29.337 L 80.8421,-29.0632 L 80.6572,-28.7917 L 80.47,-28.5227 L 80.2807,-28.2561 L 80.0892,-27.9921
 L 79.8957,-27.7307 L 79.7001,-27.4721 L 79.5025,-27.2162 L 79.3031,-26.9632 L 79.1018,-26.7132 L 78.8987,-26.4662
 L 78.6939,-26.2223 L 78.4874,-25.9816 L 78.2794,-25.7442 L 78.0698,-25.5101 L 77.8588,-25.2794 L 77.6463,-25.0521
 L 77.4326,-24.8284 L 77.2175,-24.6083 L 77.0013,-24.3919 L 76.7839,-24.1792 L 76.5654,-23.9703 L 76.3459,-23.7653
 L 76.1255,-23.5642 L 75.9042,-23.3671 L 75.6821,-23.174 L 75.4592,-22.9851 L 75.2357,-22.8003 L 75.0116,-22.6198
 L 74.787,-22.4435 L 74.5618,-22.2716 L 74.3363,-22.104 L 74.1105,-21.9409 L 73.8844,-21.7823 L 73.6581,-21.6282
 L 73.4316,-21.4787 L 73.2052,-21.3338 L 72.9787,-21.1935 L 72.7523,-21.058 L 72.5261,-20.9273 L 72.3001,-20.8013
 L 72.0744,-20.6802 L 71.8491,-20.5639 L 71.6241,-20.4526 L 71.3997,-20.3462 L 71.1759,-20.2447 L 70.9526,-20.1483
 L 70.7301,-20.0569 L 70.5084,-19.9706 L 70.2874,-19.8893 L 70.0674,-19.8131 L 69.8484,-19.7421 L 69.6304,-19.6763
 L 69.4135,-19.6156 L 69.1978,-19.5601 L 68.9833,-19.5098 L 68.7701,-19.4648 L 68.5583,-19.425 L 68.3479,-19.3904
 L 68.139,-19.3611 L 67.9316,-19.3371 L 67.7259,-19.3183 L 67.5219,-19.3049 L 67.3196,-19.2967 L 67.1191,-19.2938
 z
M 17.4747,-13.3992 L 17.2724,-13.4074 L 17.0684,-13.4209 L 16.8626,-13.4396 L 16.6553,-13.4637 L 16.4464,-13.493
 L 16.236,-13.5275 L 16.0242,-13.5673 L 15.811,-13.6124 L 15.5965,-13.6627 L 15.3808,-13.7182 L 15.1639,-13.7788
 L 14.9459,-13.8447 L 14.7268,-13.9157 L 14.5068,-13.9919 L 14.2859,-14.0731 L 14.0642,-14.1595 L 13.8416,-14.2509
 L 13.6184,-14.3473 L 13.3946,-14.4487 L 13.1701,-14.5552 L 12.9452,-14.6665 L 12.7199,-14.7828 L 12.4942,-14.9039
 L 12.2682,-15.0298 L 12.0419,-15.1606 L 11.8156,-15.2961 L 11.5891,-15.4363 L 11.3626,-15.5812 L 11.1362,-15.7307
 L 10.9099,-15.8848 L 10.6838,-16.0435 L 10.458,-16.2066 L 10.2324,-16.3741 L 10.0073,-16.5461 L 9.78267,-16.7223
 L 9.55855,-16.9029 L 9.33504,-17.0876 L 9.1122,-17.2766 L 8.89009,-17.4696 L 8.66879,-17.6667 L 8.44836,-17.8678
 L 8.2289,-18.0728 L 8.01041,-18.2817 L 7.79301,-18.4944 L 7.57675,-18.7109 L 7.36169,-18.931 L 7.14793,-19.1547
 L 6.93547,-19.3819 L 6.72444,-19.6126 L 6.51488,-19.8468 L 6.30682,-20.0842 L 6.10037,-20.3249 L 5.89558,-20.5688
 L 5.6925,-20.8158 L 5.49121,-21.0658 L 5.29175,-21.3188 L 5.09421,-21.5746 L 4.89862,-21.8333 L 4.70506,-22.0947
 L 4.51358,-22.3587 L 4.32423,-22.6252 L 4.13708,-22.8943 L 3.95219,-23.1658 L 3.76962,-23.4395 L 3.5894,-23.7156
 L 3.41162,-23.9937 L 3.2363,-24.2739 L 3.06352,-24.5561 L 2.89331,-24.8402 L 2.72574,-25.1261 L 2.56085,-25.4137
 L 2.3987,-25.703 L 2.23933,-25.9938 L 2.08279,-26.286 L 1.92915,-26.5796 L 1.77843,-26.8745 L 1.63066,-27.1706
 L 1.48592,-27.4678 L 1.34424,-27.7659 L 1.20567,-28.065 L 1.07025,-28.3649 L 0.938019,-28.6656 L 0.809006,-28.9669
 L 0.683273,-29.2687 L 0.560852,-29.571 L 0.441757,-29.8737 L 0.32605,-30.1766 L 0.21376,-30.4797 L 0.104919,-30.7829
 L -0.000442505,-31.0861 L -0.10228,-31.3892 L -0.200577,-31.6921 L -0.295303,-31.9948 L -0.386414,-32.297 L -0.473907,-32.5988
 L -0.557724,-32.9 L -0.637863,-33.2006 L -0.71431,-33.5005 L -0.786987,-33.7995 L -0.855942,-34.0976 L -0.921127,-34.3946
 L -0.982498,-34.6906 L -1.04005,-34.9854 L -1.09377,-35.2789 L -1.14366,-35.571 L -1.18968,-35.8617 L -1.23183,-36.1508
 L -1.27007,-36.4382 L -1.30441,-36.724 L -1.33485,-37.0079 L -1.36137,-37.2899 L -1.38396,-37.5699 L -1.4026,-37.8479
 L -1.41731,-38.1237 L -1.42809,-38.3973 L -1.43489,-38.6685 L -1.43774,-38.9374 L -1.43666,-39.2038 L -1.43161,-39.4675
 L -1.42261,-39.7287 L -1.40967,-39.9871 L -1.39278,-40.2427 L -1.37195,-40.4954 L -1.3472,-40.7451 L -1.31851,-40.9918
 L -1.28592,-41.2354 L -1.2494,-41.4758 L -1.209,-41.713 L -1.16472,-41.9468 L -1.11655,-42.1772 L -1.06456,-42.4041
 L -1.0087,-42.6275 L -0.949036,-42.8473 L -0.885559,-43.0634 L -0.818298,-43.2758 L -0.747269,-43.4843 L -0.672501,-43.6889
 L -0.594025,-43.8897 L -0.511826,-44.0864 L -0.42598,-44.2791 L -0.336487,-44.4677 L -0.243378,-44.6521 L -0.146667,-44.8322
 L -0.0464172,-45.0081 L 0.057373,-45.1797 L 0.164673,-45.3468 L 0.275421,-45.5095 L 0.389603,-45.6678 L 0.507187,-45.8214
 L 0.628128,-45.9705 L 0.75238,-46.115 L 0.879929,-46.2548 L 1.01073,-46.3899 L 1.14474,-46.5202 L 1.28189,-46.6457
 L 1.4222,-46.7664 L 1.56557,-46.8822 L 1.71199,-46.9931 L 1.86137,-47.0991 L 2.01373,-47.2001 L 2.16899,-47.2961
 L 2.32709,-47.387 L 2.48801,-47.4729 L 2.65166,-47.5537 L 2.81805,-47.6294 L 2.98708,-47.6999 L 3.15872,-47.7653
 L 3.33292,-47.8255 L 3.5096,-47.8806 L 3.68874,-47.9304 L 3.87027,-47.9749 L 4.05414,-48.0143 L 4.24026,-48.0484
 L 4.42863,-48.0772 L 4.61916,-48.1008 L 4.81181,-48.119 L 5.0065,-48.132 L 5.20319,-48.1397 L 5.40179,-48.1421
 L 5.60226,-48.1392 L 5.80455,-48.1311 L 6.00858,-48.1176 L 6.21429,-48.0988 L 6.42163,-48.0748 L 6.63054,-48.0455
 L 6.84093,-48.011 L 7.05275,-47.9711 L 7.26596,-47.9261 L 7.48042,-47.8758 L 7.69617,-47.8203 L 7.91306,-47.7596
 L 8.13106,-47.6938 L 8.3501,-47.6228 L 8.57011,-47.5466 L 8.79103,-47.4653 L 9.01277,-47.379 L 9.23531,-47.2876
 L 9.45853,-47.1912 L 9.68237,-47.0897 L 9.9068,-46.9833 L 10.1317,-46.872 L 10.3571,-46.7557 L 10.5828,-46.6346
 L 10.8088,-46.5086 L 11.035,-46.3779 L 11.2614,-46.2424 L 11.4878,-46.1022 L 11.7143,-45.9573 L 11.9407,-45.8078
 L 12.167,-45.6537 L 12.3931,-45.495 L 12.619,-45.3319 L 12.8445,-45.1644 L 13.0696,-44.9924 L 13.2943,-44.8161
 L 13.5184,-44.6356 L 13.7419,-44.4508 L 13.9647,-44.2619 L 14.1868,-44.0688 L 14.4081,-43.8717 L 14.6286,-43.6707
 L 14.8481,-43.4656 L 15.0665,-43.2567 L 15.2839,-43.044 L 15.5002,-42.8276 L 15.7152,-42.6075 L 15.929,-42.3838
 L 16.1415,-42.1565 L 16.3525,-41.9258 L 16.5621,-41.6917 L 16.7701,-41.4543 L 16.9766,-41.2136 L 17.1814,-40.9697
 L 17.3844,-40.7227 L 17.5857,-40.4727 L 17.7852,-40.2197 L 17.9827,-39.9639 L 18.1783,-39.7052 L 18.3719,-39.4438
 L 18.5634,-39.1798 L 18.7527,-38.9132 L 18.9398,-38.6442 L 19.1247,-38.3727 L 19.3073,-38.0989 L 19.4875,-37.8229
 L 19.6653,-37.5448 L 19.8407,-37.2645 L 20.0134,-36.9823 L 20.1836,-36.6982 L 20.3512,-36.4124 L 20.5161,-36.1247
 L 20.6782,-35.8355 L 20.8376,-35.5447 L 20.9941,-35.2525 L 21.1478,-34.9589 L 21.2985,-34.664 L 21.4463,-34.3679
 L 21.591,-34.0707 L 21.7327,-33.7726 L 21.8713,-33.4734 L 22.0067,-33.1735 L 22.1389,-32.8729 L 22.2679,-32.5716
 L 22.3937,-32.2698 L 22.5161,-31.9675 L 22.6352,-31.6648 L 22.7509,-31.3619 L 22.8632,-31.0588 L 22.972,-30.7556
 L 23.0774,-30.4524 L 23.1792,-30.1493 L 23.2775,-29.8463 L 23.3722,-29.5437 L 23.4633,-29.2415 L 23.5508,-28.9397
 L 23.6347,-28.6384 L 23.7148,-28.3379 L 23.7912,-28.038 L 23.8639,-27.739 L 23.9329,-27.4409 L 23.9981,-27.1438
 L 24.0594,-26.8479 L 24.117,-26.5531 L 24.1707,-26.2596 L 24.2206,-25.9675 L 24.2666,-25.6768 L 24.3088,-25.3877
 L 24.347,-25.1003 L 24.3814,-24.8145 L 24.4118,-24.5306 L 24.4383,-24.2486 L 24.4609,-23.9685 L 24.4795,-23.6906
 L 24.4942,-23.4147 L 24.505,-23.1412 L 24.5118,-22.8699 L 24.5147,-22.6011 L 24.5136,-22.3347 L 24.5085,-22.071
 L 24.4996,-21.8098 L 24.4866,-21.5514 L 24.4697,-21.2958 L 24.4489,-21.0431 L 24.4241,-20.7934 L 24.3954,-20.5466
 L 24.3629,-20.303 L 24.3263,-20.0626 L 24.2859,-19.8255 L 24.2417,-19.5917 L 24.1935,-19.3613 L 24.1415,-19.1343
 L 24.0856,-18.911 L 24.026,-18.6912 L 23.9625,-18.4751 L 23.8952,-18.2627 L 23.8242,-18.0542 L 23.7494,-17.8495
 L 23.671,-17.6488 L 23.5888,-17.452 L 23.5029,-17.2594 L 23.4134,-17.0708 L 23.3203,-16.8864 L 23.2236,-16.7062
 L 23.1234,-16.5303 L 23.0196,-16.3588 L 22.9123,-16.1917 L 22.8015,-16.0289 L 22.6873,-15.8707 L 22.5697,-15.717
 L 22.4488,-15.5679 L 22.3246,-15.4235 L 22.197,-15.2837 L 22.0662,-15.1486 L 21.9322,-15.0183 L 21.795,-14.8928
 L 21.6547,-14.7721 L 21.5114,-14.6562 L 21.365,-14.5453 L 21.2156,-14.4394 L 21.0632,-14.3384 L 20.908,-14.2424
 L 20.7498,-14.1515 L 20.5889,-14.0656 L 20.4253,-13.9848 L 20.2589,-13.9091 L 20.0899,-13.8386 L 19.9182,-13.7732
 L 19.744,-13.7129 L 19.5673,-13.6579 L 19.3882,-13.6081 L 19.2067,-13.5635 L 19.0228,-13.5242 L 18.8367,-13.4901
 L 18.6483,-13.4613 L 18.4578,-13.4377 L 18.2651,-13.4195 L 18.0704,-13.4065 L 17.8738,-13.3988 L 17.6751,-13.3964
 z
" stroke="black" fill="black" stroke-width="0.5"/>
</svg>
