<?xml version="1.0" standalone="no"?>
<!DOCTYPE svg PUBLIC "-//W3C//DTD SVG 1.1//EN" "http://www.w3.org/Graphics/SVG/1.1/DTD/svg11.dtd">
<svg width="100mm" height="100mm" viewBox="-8 -108 116 116" xmlns="http://www.w3.org/2000/svg" version="1.1">
<title>OpenSCAD Model</title>
<path d="
M 64.0486,-72.0097 L 64.2464,-72.0313 L 64.4426,-72.0652 L 64.6362,-72.1112 L 64.8266,-72.1691 L 65.0131,-72.2388
 L 65.1948,-72.32 L 65.3712,-72.4123 L 65.5414,-72.5154 L 65.705,-72.6288 L 65.8611,-72.7522 L 66.0093,-72.8851
 L 66.149,-73.0269 L 66.2795,-73.1772 L 66.4005,-73.3352 L 66.5114,-73.5005 L 66.6118,-73.6723 L 66.7013,-73.8501
 L 66.7796,-74.0331 L 66.8464,-74.2206 L 66.9014,-74.4119 L 66.9444,-74.6062 L 66.9753,-74.8029 L 69.3753,-90.9029
 L 69.3938,-91.101 L 69.4,-91.3 L 69.3938,-91.4989 L 69.3753,-91.6971 L 69.3444,-91.8937 L 69.3014,-92.0881
 L 69.2464,-92.2794 L 69.1797,-92.4669 L 69.1013,-92.6499 L 69.0118,-92.8276 L 68.9114,-92.9995 L 68.8005,-93.1648
 L 68.6795,-93.3228 L 68.549,-93.4731 L 68.4093,-93.6149 L 68.2611,-93.7478 L 68.105,-93.8712 L 67.9415,-93.9846
 L 67.7712,-94.0877 L 67.5948,-94.18 L 67.4131,-94.2611 L 67.2266,-94.3308 L 67.0362,-94.3888 L 66.8426,-94.4348
 L 66.6464,-94.4687 L 66.4486,-94.4903 L 66.2498,-94.4996 L 66.0508,-94.4965 L 65.8523,-94.481 L 65.6552,-94.4533
 L 65.4602,-94.4133 L 65.2681,-94.3613 L 65.0796,-94.2974 L 64.8954,-94.222 L 64.7163,-94.1352 L 64.5429,-94.0375
 L 64.3759,-93.9292 L 64.216,-93.8107 L 64.0637,-93.6825 L 63.9197,-93.5451 L 63.7846,-93.399 L 63.6587,-93.2447
 L 63.5428,-93.083 L 63.437,-92.9143 L 63.342,-92.7394 L 63.2581,-92.559 L 63.1855,-92.3736 L 63.1246,-92.1842
 L 63.0755,-91.9913 L 63.0386,-91.7957 L 60.6386,-75.6957 L 60.6139,-75.4982 L 60.6015,-75.2995 L 60.6015,-75.1005
 L 60.6139,-74.9018 L 60.6386,-74.7043 L 60.6756,-74.5087 L 60.7246,-74.3158 L 60.7855,-74.1263 L 60.8581,-73.941
 L 60.942,-73.7605 L 61.037,-73.5856 L 61.1427,-73.417 L 61.2587,-73.2552 L 61.3846,-73.101 L 61.5197,-72.9549
 L 61.6637,-72.8175 L 61.816,-72.6893 L 61.9759,-72.5708 L 62.1429,-72.4625 L 62.3163,-72.3648 L 62.4954,-72.278
 L 62.6796,-72.2025 L 62.8681,-72.1387 L 63.0602,-72.0867 L 63.2552,-72.0467 L 63.4523,-72.0189 L 63.6507,-72.0035
 L 63.8498,-72.0004 z
M 53.4986,-70.8097 L 53.6964,-70.8313 L 53.8926,-70.8652 L 54.0862,-70.9112 L 54.2766,-70.9691 L 54.4631,-71.0388
 L 54.6448,-71.12 L 54.8212,-71.2123 L 54.9914,-71.3153 L 55.155,-71.4288 L 55.3111,-71.5522 L 55.4593,-71.6851
 L 55.599,-71.8269 L 55.7295,-71.9772 L 55.8505,-72.1352 L 55.9614,-72.3005 L 56.0618,-72.4724 L 56.1514,-72.6501
 L 56.2297,-72.8331 L 56.2964,-73.0206 L 56.3514,-73.2119 L 56.3944,-73.4062 L 56.4253,-73.6029 L 56.4438,-73.8011
 L 56.45,-74 L 56.4438,-74.1989 L 56.4253,-74.3971 L 56.3944,-74.5938 L 56.3514,-74.7881 L 56.2964,-74.9794
 L 56.2297,-75.1669 L 56.1514,-75.3499 L 56.0618,-75.5276 L 55.9614,-75.6995 L 46.3614,-90.4995 L 46.2505,-90.6648
 L 46.1295,-90.8228 L 45.999,-90.9731 L 45.8593,-91.1149 L 45.7112,-91.2478 L 45.555,-91.3712 L 45.3915,-91.4846
 L 45.2212,-91.5877 L 45.0448,-91.68 L 44.8631,-91.7611 L 44.6767,-91.8308 L 44.4862,-91.8888 L 44.2926,-91.9348
 L 44.0965,-91.9687 L 43.8986,-91.9903 L 43.6998,-91.9996 L 43.5008,-91.9965 L 43.3023,-91.981 L 43.1052,-91.9533
 L 42.9102,-91.9133 L 42.7181,-91.8613 L 42.5296,-91.7974 L 42.3454,-91.722 L 42.1663,-91.6352 L 41.9929,-91.5375
 L 41.8259,-91.4292 L 41.666,-91.3107 L 41.5137,-91.1825 L 41.3697,-91.0451 L 41.2346,-90.899 L 41.1087,-90.7447
 L 40.9928,-90.583 L 40.8871,-90.4143 L 40.792,-90.2394 L 40.7081,-90.059 L 40.6355,-89.8736 L 40.5746,-89.6842
 L 40.5256,-89.4913 L 40.4886,-89.2957 L 40.4639,-89.0982 L 40.4516,-88.8995 L 40.4516,-88.7005 L 40.4639,-88.5018
 L 40.4886,-88.3043 L 40.5256,-88.1087 L 40.5746,-87.9158 L 40.6355,-87.7263 L 40.7081,-87.541 L 40.792,-87.3605
 L 40.8871,-87.1857 L 40.9928,-87.017 L 50.5928,-72.217 L 50.7087,-72.0553 L 50.8346,-71.901 L 50.9697,-71.7549
 L 51.1137,-71.6175 L 51.266,-71.4893 L 51.4259,-71.3708 L 51.5929,-71.2625 L 51.7663,-71.1647 L 51.9454,-71.078
 L 52.1296,-71.0025 L 52.3181,-70.9387 L 52.5102,-70.8867 L 52.7052,-70.8467 L 52.9023,-70.8189 L 53.1007,-70.8035
 L 53.2998,-70.8004 z
M 71.9486,-64.0097 L 72.1464,-64.0313 L 72.3426,-64.0652 L 72.5362,-64.1112 L 72.7266,-64.1691 L 72.9131,-64.2388
 L 73.0948,-64.32 L 73.2712,-64.4123 L 81.1212,-69.1623 L 81.2914,-69.2654 L 81.455,-69.3788 L 81.6111,-69.5022
 L 81.7593,-69.6351 L 81.899,-69.7769 L 82.0295,-69.9272 L 82.1505,-70.0852 L 82.2614,-70.2505 L 82.3618,-70.4223
 L 82.4513,-70.6001 L 82.5296,-70.7831 L 82.5964,-70.9706 L 82.6514,-71.1619 L 82.6944,-71.3562 L 82.7253,-71.5529
 L 82.7438,-71.7511 L 82.75,-71.95 L 82.7438,-72.1489 L 82.7253,-72.3471 L 82.6944,-72.5437 L 82.6514,-72.7381
 L 82.5964,-72.9294 L 82.5296,-73.1169 L 82.4513,-73.2999 L 82.3618,-73.4776 L 82.2614,-73.6495 L 82.1505,-73.8148
 L 82.0295,-73.9728 L 81.899,-74.1231 L 81.7593,-74.2649 L 81.6111,-74.3978 L 81.455,-74.5212 L 81.2914,-74.6346
 L 81.1212,-74.7377 L 80.9448,-74.83 L 80.7631,-74.9111 L 80.5766,-74.9808 L 80.3862,-75.0388 L 80.1926,-75.0848
 L 79.9964,-75.1187 L 79.7986,-75.1403 L 79.5998,-75.1496 L 79.4007,-75.1465 L 79.2023,-75.131 L 79.0052,-75.1033
 L 78.8102,-75.0633 L 78.6181,-75.0113 L 78.4296,-74.9474 L 78.2454,-74.872 L 78.0663,-74.7852 L 77.8929,-74.6875
 L 70.0429,-69.9375 L 69.8759,-69.8292 L 69.716,-69.7107 L 69.5637,-69.5825 L 69.4197,-69.4451 L 69.2846,-69.299
 L 69.1587,-69.1447 L 69.0428,-68.983 L 68.937,-68.8143 L 68.842,-68.6395 L 68.7581,-68.459 L 68.6855,-68.2737
 L 68.6246,-68.0842 L 68.5755,-67.8913 L 68.5386,-67.6957 L 68.5139,-67.4982 L 68.5015,-67.2995 L 68.5015,-67.1005
 L 68.5139,-66.9018 L 68.5386,-66.7043 L 68.5755,-66.5087 L 68.6246,-66.3158 L 68.6855,-66.1263 L 68.7581,-65.941
 L 68.842,-65.7605 L 68.937,-65.5856 L 69.0428,-65.417 L 69.1587,-65.2552 L 69.2846,-65.101 L 69.4197,-64.9549
 L 69.5637,-64.8175 L 69.716,-64.6893 L 69.8759,-64.5708 L 70.0429,-64.4625 L 70.2163,-64.3648 L 70.3954,-64.278
 L 70.5796,-64.2025 L 70.7681,-64.1387 L 70.9602,-64.0867 L 71.1552,-64.0467 L 71.3523,-64.0189 L 71.5508,-64.0035
 L 71.7498,-64.0004 z
M 19.2493,-11.0052 L 19.4484,-11.0168 L 19.647,-11.035 L 19.8449,-11.0598 L 20.0419,-11.0912 L 20.2377,-11.1291
 L 20.4322,-11.1734 L 20.625,-11.2243 L 20.8161,-11.2815 L 21.0052,-11.345 L 21.192,-11.4148 L 21.3765,-11.4907
 L 21.5583,-11.5727 L 21.7373,-11.6608 L 21.9132,-11.7547 L 22.086,-11.8544 L 22.2553,-11.9599 L 22.421,-12.0708
 L 22.583,-12.1873 L 22.741,-12.309 L 22.8948,-12.436 L 23.0443,-12.5679 L 23.1894,-12.7048 L 23.3299,-12.8464
 L 23.4655,-12.9926 L 63.7655,-56.6426 L 63.8963,-56.7933 L 64.0219,-56.9482 L 64.1423,-57.1072 L 64.2574,-57.2701
 L 64.367,-57.4367 L 64.471,-57.6069 L 64.5693,-57.7805 L 64.6618,-57.9572 L 64.7483,-58.1369 L 64.8288,-58.3194
 L 64.9033,-58.5044 L 64.9715,-58.6919 L 65.0334,-58.8815 L 65.0891,-59.073 L 65.1383,-59.2663 L 65.181,-59.4611
 L 65.2173,-59.6572 L 65.247,-59.8545 L 65.2702,-60.0526 L 65.2867,-60.2514 L 65.2967,-60.4506 L 65.3,-60.65
 L 65.2967,-60.8494 L 65.2867,-61.0486 L 65.2702,-61.2474 L 65.247,-61.4455 L 65.2173,-61.6427 L 65.181,-61.8389
 L 65.1383,-62.0337 L 65.0891,-62.227 L 65.0334,-62.4185 L 64.9715,-62.6081 L 64.9033,-62.7955 L 64.8288,-62.9806
 L 64.7483,-63.1631 L 64.6618,-63.3428 L 64.5693,-63.5195 L 64.471,-63.6931 L 64.367,-63.8633 L 64.2574,-64.0299
 L 64.1423,-64.1928 L 64.0219,-64.3518 L 63.8963,-64.5067 L 63.7655,-64.6574 L 63.6299,-64.8036 L 63.4894,-64.9452
 L 63.3443,-65.0821 L 63.1948,-65.2141 L 63.0409,-65.341 L 62.8829,-65.4627 L 62.721,-65.5792 L 62.5553,-65.6902
 L 62.3859,-65.7956 L 62.2132,-65.8953 L 62.0373,-65.9892 L 61.8583,-66.0773 L 61.6765,-66.1593 L 61.492,-66.2352
 L 61.3052,-66.305 L 61.1161,-66.3685 L 60.925,-66.4257 L 60.7322,-66.4766 L 60.5377,-66.521 L 60.3419,-66.5588
 L 60.1449,-66.5902 L 59.947,-66.615 L 59.7484,-66.6332 L 59.5493,-66.6448 L 59.3499,-66.6498 L 59.1504,-66.6481
 L 58.9511,-66.6398 L 58.7522,-66.6249 L 58.5539,-66.6034 L 58.3565,-66.5753 L 58.16,-66.5407 L 57.9649,-66.4996
 L 57.7712,-66.452 L 57.5792,-66.3979 L 57.3891,-66.3376 L 57.2011,-66.2709 L 57.0154,-66.198 L 56.8323,-66.119
 L 56.6519,-66.034 L 56.4744,-65.943 L 56.3,-65.8461 L 56.1289,-65.7436 L 55.9614,-65.6353 L 55.7975,-65.5216
 L 55.6375,-65.4025 L 55.4816,-65.2782 L 55.3299,-65.1487 L 55.1825,-65.0142 L 55.0398,-64.875 L 54.9017,-64.731
 L 14.6017,-21.081 L 14.4685,-20.9326 L 14.3403,-20.7798 L 14.2172,-20.6228 L 14.0994,-20.4619 L 13.9871,-20.2971
 L 13.8803,-20.1286 L 13.7791,-19.9567 L 13.6837,-19.7816 L 13.5942,-19.6033 L 13.5107,-19.4222 L 13.4332,-19.2384
 L 13.3618,-19.0521 L 13.2968,-18.8636 L 13.238,-18.673 L 13.1855,-18.4805 L 13.1395,-18.2865 L 13.1,-18.091
 L 13.067,-17.8943 L 13.0406,-17.6966 L 13.0207,-17.4981 L 13.0075,-17.2991 L 13.0008,-17.0997 L 13.0008,-16.9003
 L 13.0075,-16.7009 L 13.0207,-16.5019 L 13.0406,-16.3035 L 13.067,-16.1058 L 13.1,-15.909 L 13.1395,-15.7135
 L 13.1855,-15.5195 L 13.238,-15.327 L 13.2968,-15.1364 L 13.3618,-14.9479 L 13.4332,-14.7616 L 13.5107,-14.5778
 L 13.5942,-14.3967 L 13.6837,-14.2185 L 13.7791,-14.0433 L 13.8803,-13.8714 L 13.9871,-13.703 L 14.0994,-13.5382
 L 14.2172,-13.3772 L 14.3403,-13.2202 L 14.4685,-13.0674 L 14.6017,-12.919 L 14.7398,-12.775 L 14.8826,-12.6358
 L 15.0299,-12.5013 L 15.1816,-12.3718 L 15.3376,-12.2475 L 15.4975,-12.1284 L 15.6614,-12.0146 L 15.8289,-11.9064
 L 16,-11.8038 L 16.1744,-11.707 L 16.3519,-11.616 L 16.5323,-11.531 L 16.7154,-11.452 L 16.9011,-11.3791
 L 17.0891,-11.3124 L 17.2792,-11.2521 L 17.4712,-11.198 L 17.6649,-11.1504 L 17.86,-11.1093 L 18.0565,-11.0747
 L 18.254,-11.0466 L 18.4522,-11.0251 L 18.6511,-11.0102 L 18.8504,-11.0019 L 19.0499,-11.0002 z
M 88.1486,-45.2597 L 88.3464,-45.2813 L 88.5426,-45.3152 L 88.7362,-45.3612 L 88.9266,-45.4192 L 89.1131,-45.4889
 L 89.2948,-45.57 L 89.4712,-45.6623 L 89.6414,-45.7654 L 89.805,-45.8788 L 89.9612,-46.0022 L 90.1093,-46.1351
 L 90.249,-46.2769 L 90.3795,-46.4272 L 90.5005,-46.5852 L 90.6114,-46.7505 L 90.7118,-46.9224 L 90.8013,-47.1001
 L 90.8797,-47.2831 L 90.9464,-47.4706 L 91.0014,-47.6619 L 91.0444,-47.8563 L 91.0753,-48.0529 L 91.0938,-48.2511
 L 91.1,-48.45 L 91.0938,-48.649 L 91.0753,-48.8471 L 91.0444,-49.0438 L 91.0014,-49.2381 L 90.9464,-49.4294
 L 90.8797,-49.6169 L 90.8013,-49.7999 L 90.7118,-49.9776 L 90.6114,-50.1495 L 90.5005,-50.3148 L 90.3795,-50.4728
 L 90.249,-50.6231 L 90.1093,-50.7649 L 89.9612,-50.8978 L 89.805,-51.0212 L 89.6414,-51.1346 L 89.4712,-51.2377
 L 89.2948,-51.33 L 89.1131,-51.4111 L 88.9266,-51.4808 L 71.2766,-57.7808 L 71.0862,-57.8388 L 70.8926,-57.8848
 L 70.6964,-57.9187 L 70.4986,-57.9403 L 70.2998,-57.9496 L 70.1007,-57.9465 L 69.9023,-57.931 L 69.7052,-57.9033
 L 69.5102,-57.8633 L 69.3181,-57.8113 L 69.1296,-57.7474 L 68.9454,-57.672 L 68.7663,-57.5852 L 68.5929,-57.4875
 L 68.4259,-57.3792 L 68.266,-57.2607 L 68.1137,-57.1325 L 67.9697,-56.9951 L 67.8346,-56.849 L 67.7087,-56.6947
 L 67.5928,-56.533 L 67.487,-56.3643 L 67.392,-56.1894 L 67.3081,-56.009 L 67.2355,-55.8236 L 67.1746,-55.6342
 L 67.1255,-55.4413 L 67.0886,-55.2457 L 67.0639,-55.0482 L 67.0515,-54.8495 L 67.0515,-54.6505 L 67.0639,-54.4518
 L 67.0886,-54.2543 L 67.1255,-54.0587 L 67.1746,-53.8658 L 67.2355,-53.6763 L 67.3081,-53.491 L 67.392,-53.3105
 L 67.487,-53.1357 L 67.5928,-52.967 L 67.7087,-52.8053 L 67.8346,-52.651 L 67.9697,-52.5049 L 68.1137,-52.3675
 L 68.266,-52.2393 L 68.4259,-52.1208 L 68.5929,-52.0125 L 68.7663,-51.9147 L 68.9454,-51.828 L 69.1296,-51.7525
 L 86.7796,-45.4526 L 86.9681,-45.3887 L 87.1602,-45.3367 L 87.3552,-45.2967 L 87.5523,-45.269 L 87.7507,-45.2535
 L 87.9498,-45.2504 z
" stroke="black" fill="black" stroke-width="0.5"/>
</svg>
