<?xml version="1.0" standalone="no"?>
<!DOCTYPE svg PUBLIC "-//W3C//DTD SVG 1.1//EN" "http://www.w3.org/Graphics/SVG/1.1/DTD/svg11.dtd">
<svg width="100mm" height="100mm" viewBox="-8 -108 116 116" xmlns="http://www.w3.org/2000/svg" version="1.1">
<title>OpenSCAD Model</title>
<path d="
M 84.1993,-0.00497437 L 84.3984,-0.0149078 L 84.5973,-0.0298004 L 84.7955,-0.0546417 L 84.9926,-0.0843658 L 85.1891,-0.119003
 L 85.3832,-0.163315 L 85.5764,-0.212509 L 85.7684,-0.266525 L 85.9575,-0.330063 L 86.1449,-0.398254 L 86.3306,-0.471115
 L 86.5125,-0.553223 L 86.6922,-0.63974 L 86.8696,-0.730728 L 87.0423,-0.830399 L 87.2124,-0.934357 L 87.3799,-1.04256
 L 87.5419,-1.15901 L 87.7008,-1.2794 L 87.8568,-1.40376 L 88.0063,-1.53571 L 88.1524,-1.67133 L 88.2952,-1.81058
 L 88.4308,-1.95677 L 88.5628,-2.10626 L 88.691,-2.25905 L 88.8113,-2.41792 L 88.9277,-2.5798 L 89.0401,-2.74458
 L 89.1443,-2.9151 L 89.244,-3.08778 L 89.3393,-3.26295 L 89.4258,-3.44243 L 89.5078,-3.62416 L 89.5852,-3.80795
 L 89.6534,-3.99522 L 89.7169,-4.18422 L 89.7757,-4.3748 L 89.825,-4.56818 L 89.8693,-4.76257 L 89.9088,-4.95807
 L 89.9386,-5.15555 L 89.9634,-5.35338 L 89.9832,-5.55183 L 89.9916,-5.70078 L 89.9972,-5.85023 L 90,-6
 L 90,-94 L 89.995,-94.1993 L 89.9851,-94.3984 L 89.9702,-94.5973 L 89.9454,-94.7955 L 89.9156,-94.9926
 L 89.881,-95.1891 L 89.8367,-95.3832 L 89.7875,-95.5764 L 89.7335,-95.7684 L 89.6699,-95.9575 L 89.6017,-96.1449
 L 89.5289,-96.3306 L 89.4468,-96.5125 L 89.3603,-96.6922 L 89.2693,-96.8696 L 89.1696,-97.0423 L 89.0656,-97.2124
 L 88.9574,-97.3799 L 88.841,-97.5419 L 88.7206,-97.7008 L 88.5962,-97.8568 L 88.4643,-98.0063 L 88.3287,-98.1524
 L 88.1894,-98.2952 L 88.0432,-98.4308 L 87.8937,-98.5628 L 87.741,-98.691 L 87.5821,-98.8113 L 87.4202,-98.9277
 L 87.2554,-99.0401 L 87.0849,-99.1443 L 86.9122,-99.244 L 86.737,-99.3393 L 86.5576,-99.4258 L 86.3758,-99.5078
 L 86.192,-99.5852 L 86.0048,-99.6534 L 85.8158,-99.7169 L 85.6252,-99.7757 L 85.4318,-99.825 L 85.2374,-99.8693
 L 85.0419,-99.9088 L 84.8445,-99.9386 L 84.6466,-99.9634 L 84.4482,-99.9832 L 84.2992,-99.9916 L 84.1498,-99.9972
 L 84,-100 L 36,-100 L 10,-74 L 10,-50 L 14,-50 L 14,-70
 L 34,-70 L 34.1993,-70.005 L 34.3984,-70.0149 L 34.5973,-70.0298 L 34.7955,-70.0546 L 34.9926,-70.0844
 L 35.1891,-70.119 L 35.3832,-70.1633 L 35.5764,-70.2125 L 35.7684,-70.2665 L 35.9575,-70.3301 L 36.1449,-70.3983
 L 36.3306,-70.4711 L 36.5125,-70.5532 L 36.6922,-70.6397 L 36.8696,-70.7307 L 37.0423,-70.8304 L 37.2124,-70.9344
 L 37.3799,-71.0426 L 37.5419,-71.159 L 37.7008,-71.2794 L 37.8568,-71.4038 L 38.0063,-71.5357 L 38.1524,-71.6713
 L 38.2952,-71.8106 L 38.4308,-71.9568 L 38.5628,-72.1063 L 38.691,-72.259 L 38.8113,-72.4179 L 38.9277,-72.5798
 L 39.0401,-72.7446 L 39.1443,-72.9151 L 39.244,-73.0878 L 39.3393,-73.263 L 39.4258,-73.4424 L 39.5078,-73.6242
 L 39.5852,-73.808 L 39.6534,-73.9952 L 39.7169,-74.1842 L 39.7757,-74.3748 L 39.825,-74.5682 L 39.8693,-74.7626
 L 39.9088,-74.9581 L 39.9386,-75.1555 L 39.9634,-75.3534 L 39.9832,-75.5518 L 39.9916,-75.7008 L 39.9972,-75.8502
 L 40,-76 L 40,-96 L 84,-96 L 84.1495,-95.9944 L 84.3473,-95.9696 L 84.5417,-95.9252
 L 84.7307,-95.8617 L 84.9124,-95.7797 L 85.0851,-95.6801 L 85.247,-95.5637 L 85.3965,-95.4317 L 85.5321,-95.2856
 L 85.6525,-95.1266 L 85.7564,-94.9565 L 85.843,-94.7769 L 85.9111,-94.5895 L 85.9603,-94.3963 L 85.9901,-94.1991
 L 86,-94 L 86,-6 L 85.9944,-5.85054 L 85.9696,-5.65271 L 85.9252,-5.45831 L 85.8617,-5.26932
 L 85.7797,-5.08759 L 85.6801,-4.9149 L 85.5637,-4.75302 L 85.4317,-4.60353 L 85.2856,-4.46791 L 85.1266,-4.34752
 L 84.9565,-4.24356 L 84.7769,-4.15704 L 84.5895,-4.08885 L 84.3963,-4.03966 L 84.1991,-4.00993 L 84,-4
 L 80,-4 L 80,-0 L 84,-0 z
M 18.7919,0.415741 L 19.1178,0.409958 L 19.4404,0.400345 L 19.7596,0.386871 L 20.0755,0.369537 L 20.3881,0.348373
 L 20.6973,0.323349 L 21.0032,0.294479 L 21.3058,0.261749 L 21.605,0.225189 L 21.9008,0.184769 L 22.1934,0.140488
 L 22.4826,0.0923615 L 22.7684,0.04039 L 23.0509,-0.0153961 L 23.3301,-0.075058 L 23.6059,-0.13858 L 23.8784,-0.205963
 L 24.1475,-0.277176 L 24.4133,-0.352249 L 24.6758,-0.431168 L 24.9349,-0.513931 L 25.1907,-0.600555 L 25.4431,-0.69101
 L 25.6922,-0.785339 L 25.938,-0.883499 L 26.1804,-0.985519 L 26.4195,-1.09138 L 26.6553,-1.2011 L 26.8876,-1.31467
 L 27.1167,-1.43208 L 27.3424,-1.55336 L 27.5648,-1.67847 L 27.7839,-1.80743 L 27.9995,-1.94025 L 28.2119,-2.0769
 L 28.4209,-2.21742 L 28.6266,-2.36179 L 28.8289,-2.50999 L 29.0279,-2.66206 L 29.2236,-2.81798 L 29.4159,-2.97774
 L 29.6049,-3.14134 L 29.7905,-3.30881 L 29.9728,-3.48012 L 30.1518,-3.65529 L 30.3271,-3.83403 L 30.4987,-4.01611
 L 30.6663,-4.20149 L 30.8301,-4.3902 L 30.9901,-4.58223 L 31.1462,-4.77757 L 31.2984,-4.97623 L 31.4468,-5.17821
 L 31.5914,-5.3835 L 31.7321,-5.5921 L 31.8689,-5.80402 L 32.0019,-6.01926 L 32.131,-6.23782 L 32.2562,-6.4597
 L 32.3777,-6.68488 L 32.4952,-6.91339 L 32.6089,-7.14522 L 32.7188,-7.38036 L 32.8248,-7.61882 L 32.9269,-7.86058
 L 33.0252,-8.10568 L 33.1196,-8.3541 L 33.2102,-8.6058 L 33.2969,-8.86084 L 33.3798,-9.1192 L 33.4588,-9.38087
 L 33.534,-9.64587 L 33.6053,-9.91417 L 33.6727,-10.1858 L 33.7363,-10.4607 L 33.7961,-10.739 L 33.8519,-11.0206
 L 33.904,-11.3055 L 33.9522,-11.5937 L 33.9965,-11.8852 L 34.037,-12.18 L 34.0736,-12.4782 L 34.1063,-12.7796
 L 34.1353,-13.0844 L 34.1603,-13.3925 L 34.1815,-13.704 L 34.1988,-14.0187 L 34.2123,-14.3368 L 34.222,-14.6581
 L 34.2278,-14.9828 L 34.2297,-15.3108 L 34.2278,-15.6397 L 34.222,-15.9652 L 34.2125,-16.2874 L 34.1991,-16.6062
 L 34.1819,-16.9217 L 34.1609,-17.2338 L 34.136,-17.5425 L 34.1074,-17.8479 L 34.0749,-18.15 L 34.0386,-18.4486
 L 33.9984,-18.744 L 33.9545,-19.0359 L 33.9067,-19.3245 L 33.8551,-19.6098 L 33.7997,-19.8917 L 33.7404,-20.1702
 L 33.6774,-20.4454 L 33.6105,-20.7173 L 33.5398,-20.9857 L 33.4652,-21.2509 L 33.3869,-21.5126 L 33.3047,-21.771
 L 33.2187,-22.0261 L 33.1289,-22.2778 L 33.0353,-22.5261 L 32.9378,-22.7711 L 32.8365,-23.0127 L 32.7314,-23.251
 L 32.6225,-23.4859 L 32.5097,-23.7175 L 32.3931,-23.9457 L 32.2727,-24.1705 L 32.1485,-24.392 L 32.0205,-24.6102
 L 31.8886,-24.825 L 31.7529,-25.0364 L 31.6134,-25.2445 L 31.4701,-25.4492 L 31.3229,-25.6505 L 31.172,-25.8485
 L 31.0172,-26.0432 L 30.8586,-26.2345 L 30.6961,-26.4224 L 30.5298,-26.607 L 30.3598,-26.7882 L 30.1859,-26.966
 L 30.0083,-27.1403 L 29.8275,-27.3108 L 29.6432,-27.4774 L 29.4555,-27.6402 L 29.2644,-27.7991 L 29.0699,-27.9543
 L 28.8721,-28.1055 L 28.6708,-28.253 L 28.4662,-28.3966 L 28.2581,-28.5364 L 28.0467,-28.6724 L 27.8318,-28.8046
 L 27.6136,-28.9329 L 27.392,-29.0573 L 27.167,-29.178 L 26.9386,-29.2948 L 26.7068,-29.4078 L 26.4716,-29.517
 L 26.233,-29.6223 L 25.991,-29.7238 L 25.7456,-29.8215 L 25.4968,-29.9153 L 25.2447,-30.0053 L 24.9891,-30.0915
 L 24.7301,-30.1738 L 24.4678,-30.2524 L 24.202,-30.327 L 23.9329,-30.3979 L 23.6604,-30.4649 L 23.3844,-30.5281
 L 23.1051,-30.5875 L 22.8224,-30.643 L 22.5363,-30.6947 L 22.2468,-30.7426 L 21.9539,-30.7867 L 21.6576,-30.8269
 L 21.3579,-30.8633 L 21.0548,-30.8958 L 20.7484,-30.9246 L 20.4385,-30.9495 L 20.1252,-30.9705 L 19.8086,-30.9877
 L 19.4885,-31.0012 L 19.1651,-31.0107 L 18.8383,-31.0165 L 18.508,-31.0184 L 18.1778,-31.0165 L 17.8509,-31.0108
 L 17.5273,-31.0013 L 17.2071,-30.988 L 16.8903,-30.9709 L 16.5768,-30.95 L 16.2666,-30.9253 L 15.9599,-30.8968
 L 15.6564,-30.8645 L 15.3563,-30.8284 L 15.0596,-30.7885 L 14.7662,-30.7448 L 14.4762,-30.6973 L 14.1895,-30.646
 L 13.9061,-30.5908 L 13.6261,-30.5319 L 13.3495,-30.4692 L 13.0762,-30.4027 L 12.8063,-30.3324 L 12.5397,-30.2583
 L 12.2765,-30.1804 L 12.0166,-30.0987 L 11.7601,-30.0132 L 11.5069,-29.9238 L 11.2571,-29.8307 L 11.0106,-29.7338
 L 10.7675,-29.6331 L 10.5277,-29.5286 L 10.2913,-29.4203 L 10.0582,-29.3082 L 9.82846,-29.1923 L 9.6021,-29.0725
 L 9.37907,-28.949 L 9.15942,-28.8217 L 8.9431,-28.6906 L 8.73013,-28.5557 L 8.52051,-28.417 L 8.31425,-28.2744
 L 8.11134,-28.1281 L 7.91179,-27.978 L 7.71558,-27.8241 L 7.52272,-27.6664 L 7.33321,-27.5048 L 7.14705,-27.3395
 L 6.96425,-27.1704 L 6.78479,-26.9975 L 6.60895,-26.821 L 6.43695,-26.641 L 6.26884,-26.4577 L 6.1046,-26.271
 L 5.94421,-26.0808 L 5.78767,-25.8872 L 5.63503,-25.6903 L 5.48624,-25.4899 L 5.34129,-25.2861 L 5.20023,-25.079
 L 5.06303,-24.8684 L 4.9297,-24.6544 L 4.80023,-24.437 L 4.67462,-24.2162 L 4.55289,-23.992 L 4.43501,-23.7644
 L 4.32101,-23.5334 L 4.21085,-23.299 L 4.10457,-23.0611 L 4.00215,-22.8199 L 3.90361,-22.5752 L 3.80893,-22.3272
 L 3.71811,-22.0757 L 3.63113,-21.8209 L 3.54805,-21.5626 L 3.46883,-21.301 L 3.39346,-21.0359 L 3.32196,-20.7674
 L 3.25433,-20.4955 L 3.19057,-20.2202 L 3.13066,-19.9415 L 3.07462,-19.6594 L 3.02243,-19.3739 L 2.97412,-19.085
 L 2.92969,-18.7927 L 2.8891,-18.497 L 2.85239,-18.1978 L 2.81953,-17.8953 L 2.79056,-17.5894 L 2.76544,-17.28
 L 2.74419,-16.9673 L 2.72679,-16.6511 L 2.71326,-16.3315 L 2.7036,-16.0086 L 2.6978,-15.6822 L 2.69588,-15.3524
 L 2.6978,-15.0226 L 2.70358,-14.6962 L 2.71321,-14.3731 L 2.7267,-14.0534 L 2.74405,-13.737 L 2.76523,-13.424
 L 2.79028,-13.1143 L 2.8192,-12.808 L 2.85196,-12.5051 L 2.88857,-12.2055 L 2.92905,-11.9093 L 2.97336,-11.6164
 L 3.02153,-11.3269 L 3.07356,-11.0407 L 3.12944,-10.7579 L 3.18918,-10.4784 L 3.25278,-10.2023 L 3.32022,-9.92958
 L 3.39153,-9.66019 L 3.46667,-9.39417 L 3.54568,-9.13148 L 3.62854,-8.87216 L 3.71526,-8.6162 L 3.80583,-8.3636
 L 3.90025,-8.11433 L 3.99854,-7.86844 L 4.10066,-7.62592 L 4.20665,-7.38673 L 4.31648,-7.15091 L 4.43018,-6.91843
 L 4.54773,-6.68932 L 4.66913,-6.46355 L 4.79439,-6.24113 L 4.92349,-6.02209 L 5.05646,-5.80641 L 5.19328,-5.59407
 L 5.33395,-5.38509 L 5.47849,-5.17946 L 5.62686,-4.97719 L 5.77908,-4.77829 L 5.93518,-4.58273 L 6.09512,-4.39052
 L 6.25893,-4.20168 L 6.42657,-4.01619 L 6.59807,-3.83406 L 6.77344,-3.65529 L 6.95239,-3.48012 L 7.13469,-3.30881
 L 7.32033,-3.14134 L 7.50929,-2.97774 L 7.70161,-2.81798 L 7.89726,-2.66206 L 8.09627,-2.50999 L 8.2986,-2.36179
 L 8.50427,-2.21742 L 8.7133,-2.0769 L 8.92566,-1.94025 L 9.14136,-1.80743 L 9.3604,-1.67847 L 9.58278,-1.55336
 L 9.8085,-1.43208 L 10.0376,-1.31467 L 10.27,-1.2011 L 10.5057,-1.09138 L 10.7448,-0.985519 L 10.9872,-0.883499
 L 11.233,-0.785339 L 11.4821,-0.69101 L 11.7345,-0.600555 L 11.9903,-0.513931 L 12.2494,-0.431168 L 12.5119,-0.352249
 L 12.7777,-0.277176 L 13.0468,-0.205963 L 13.3193,-0.13858 L 13.5951,-0.075058 L 13.8743,-0.0153961 L 14.1568,0.04039
 L 14.4426,0.0923615 L 14.7318,0.140488 L 15.0244,0.184769 L 15.3202,0.225189 L 15.6194,0.261749 L 15.922,0.294479
 L 16.2279,0.323349 L 16.5371,0.348373 L 16.8497,0.369537 L 17.1656,0.386871 L 17.4848,0.400345 L 17.8074,0.409958
 L 18.1333,0.415741 L 18.4626,0.417664 z
M 18.2814,-5.01427 L 18.1021,-5.01794 L 17.9249,-5.02405 L 17.7495,-5.03262 L 17.5762,-5.04364 L 17.4048,-5.0571
 L 17.2354,-5.07301 L 17.068,-5.09138 L 16.9025,-5.11218 L 16.739,-5.13544 L 16.5775,-5.16115 L 16.4179,-5.1893
 L 16.2603,-5.21991 L 16.1047,-5.25296 L 15.951,-5.28847 L 15.7994,-5.3264 L 15.6497,-5.36681 L 15.5019,-5.40964
 L 15.3561,-5.45493 L 15.2124,-5.50267 L 15.0705,-5.55287 L 14.9306,-5.6055 L 14.7928,-5.66058 L 14.6568,-5.71811
 L 14.5229,-5.77809 L 14.3909,-5.84052 L 14.2609,-5.9054 L 14.1328,-5.97272 L 14.0068,-6.0425 L 13.8827,-6.11472
 L 13.7605,-6.18938 L 13.6404,-6.26649 L 13.5222,-6.34607 L 13.4059,-6.42809 L 13.2917,-6.51254 L 13.1794,-6.59944
 L 13.0691,-6.68881 L 12.9607,-6.78061 L 12.8544,-6.87486 L 12.75,-6.97157 L 12.6475,-7.07072 L 12.547,-7.17232
 L 12.4485,-7.27637 L 12.352,-7.38286 L 12.2575,-7.49181 L 12.1649,-7.6032 L 12.0743,-7.71701 L 11.9857,-7.83321
 L 11.899,-7.95178 L 11.8144,-8.07277 L 11.7318,-8.19614 L 11.6512,-8.32188 L 11.5725,-8.45003 L 11.4958,-8.58057
 L 11.4212,-8.71347 L 11.3485,-8.84879 L 11.2778,-8.9865 L 11.2091,-9.12657 L 11.1424,-9.26904 L 11.0777,-9.41391
 L 11.015,-9.56116 L 10.9543,-9.7108 L 10.8955,-9.86284 L 10.8388,-10.0173 L 10.784,-10.1741 L 10.7313,-10.3333
 L 10.6805,-10.4948 L 10.6317,-10.6588 L 10.5849,-10.8252 L 10.5401,-10.9939 L 10.4973,-11.1651 L 10.4565,-11.3386
 L 10.4177,-11.5145 L 10.3808,-11.6928 L 10.346,-11.8735 L 10.3131,-12.0566 L 10.2823,-12.2421 L 10.2534,-12.4299
 L 10.2265,-12.6202 L 10.2016,-12.8128 L 10.1787,-13.0079 L 10.1578,-13.2053 L 10.1389,-13.4051 L 10.122,-13.6073
 L 10.1071,-13.8119 L 10.0941,-14.0188 L 10.0832,-14.2282 L 10.0742,-14.4399 L 10.0672,-14.6541 L 10.0622,-14.8706
 L 10.0593,-15.0895 L 10.0583,-15.3108 L 10.0593,-15.5321 L 10.0623,-15.7511 L 10.0673,-15.9676 L 10.0744,-16.1818
 L 10.0834,-16.3936 L 10.0945,-16.603 L 10.1076,-16.81 L 10.1227,-17.0147 L 10.1398,-17.2169 L 10.1589,-17.4169
 L 10.18,-17.6144 L 10.2032,-17.8095 L 10.2283,-18.0023 L 10.2555,-18.1926 L 10.2847,-18.3806 L 10.3159,-18.5663
 L 10.3491,-18.7495 L 10.3843,-18.9304 L 10.4215,-19.1089 L 10.4608,-19.285 L 10.502,-19.4587 L 10.5453,-19.6301
 L 10.5906,-19.799 L 10.6379,-19.9656 L 10.6872,-20.1298 L 10.7385,-20.2916 L 10.7919,-20.4511 L 10.8472,-20.6082
 L 10.9046,-20.7628 L 10.9639,-20.9152 L 11.0253,-21.0651 L 11.0887,-21.2127 L 11.1541,-21.3578 L 11.2215,-21.5006
 L 11.291,-21.6411 L 11.3624,-21.7791 L 11.4359,-21.9147 L 11.5114,-22.048 L 11.5888,-22.1789 L 11.6683,-22.3074
 L 11.7498,-22.4336 L 11.8334,-22.5574 L 11.9189,-22.6787 L 12.0065,-22.7977 L 12.096,-22.9144 L 12.1876,-23.0286
 L 12.2811,-23.1405 L 12.3767,-23.2498 L 12.4741,-23.3568 L 12.5735,-23.4612 L 12.6749,-23.5632 L 12.7782,-23.6628
 L 12.8835,-23.7599 L 12.9907,-23.8545 L 13.0998,-23.9467 L 13.2109,-24.0364 L 13.324,-24.1237 L 13.439,-24.2085
 L 13.5559,-24.2908 L 13.6748,-24.3707 L 13.7956,-24.4482 L 13.9184,-24.5231 L 14.0432,-24.5956 L 14.1699,-24.6657
 L 14.2985,-24.7333 L 14.4291,-24.7984 L 14.5616,-24.8611 L 14.6961,-24.9213 L 14.8325,-24.9791 L 14.9709,-25.0344
 L 15.1112,-25.0872 L 15.2535,-25.1376 L 15.3977,-25.1856 L 15.5439,-25.231 L 15.692,-25.274 L 15.8421,-25.3146
 L 15.9941,-25.3527 L 16.148,-25.3884 L 16.3039,-25.4215 L 16.4618,-25.4523 L 16.6216,-25.4805 L 16.7834,-25.5063
 L 16.9471,-25.5297 L 17.1127,-25.5506 L 17.2803,-25.569 L 17.4498,-25.585 L 17.6214,-25.5985 L 17.7948,-25.6096
 L 17.9702,-25.6182 L 18.1475,-25.6243 L 18.3268,-25.628 L 18.508,-25.6292 L 18.8675,-25.6244 L 19.2191,-25.6097
 L 19.5628,-25.5854 L 19.8986,-25.5512 L 20.2265,-25.5073 L 20.5465,-25.4537 L 20.8586,-25.3903 L 21.1628,-25.3172
 L 21.4591,-25.2343 L 21.7474,-25.1416 L 22.0279,-25.0392 L 22.3005,-24.927 L 22.5652,-24.8051 L 22.822,-24.6735
 L 23.0709,-24.5321 L 23.3118,-24.3809 L 23.5449,-24.22 L 23.7701,-24.0493 L 23.9874,-23.8689 L 24.1967,-23.6787
 L 24.3982,-23.4788 L 24.5918,-23.2691 L 24.7775,-23.0496 L 24.9552,-22.8204 L 25.1251,-22.5815 L 25.2871,-22.3328
 L 25.4411,-22.0744 L 25.5873,-21.8062 L 25.7256,-21.5282 L 25.8559,-21.2405 L 25.9784,-20.9431 L 26.093,-20.6358
 L 26.1996,-20.3189 L 26.2984,-19.9921 L 26.3893,-19.6557 L 26.4722,-19.3095 L 26.5473,-18.9535 L 26.6145,-18.5878
 L 26.6737,-18.2123 L 26.7251,-17.827 L 26.7685,-17.4321 L 26.8041,-17.0273 L 26.8317,-16.6128 L 26.8515,-16.1886
 L 26.8633,-15.7546 L 26.8673,-15.3108 L 26.8633,-14.868 L 26.8514,-14.4348 L 26.8315,-14.0114 L 26.8037,-13.5978
 L 26.768,-13.1938 L 26.7243,-12.7996 L 26.6727,-12.4152 L 26.6131,-12.0405 L 26.5455,-11.6755 L 26.4701,-11.3202
 L 26.3867,-10.9747 L 26.2953,-10.6389 L 26.196,-10.3128 L 26.0888,-9.99648 L 25.9736,-9.68988 L 25.8504,-9.39301
 L 25.7194,-9.10587 L 25.5804,-8.82848 L 25.4334,-8.56081 L 25.2785,-8.30289 L 25.1156,-8.05469 L 24.9449,-7.81622
 L 24.7661,-7.58749 L 24.5794,-7.36848 L 24.3848,-7.15923 L 24.1822,-6.95969 L 23.9717,-6.7699 L 23.7533,-6.58983
 L 23.5269,-6.41949 L 23.2925,-6.2589 L 23.0502,-6.10803 L 22.8,-5.9669 L 22.5418,-5.83549 L 22.2757,-5.71384
 L 22.0016,-5.6019 L 21.7196,-5.49971 L 21.4297,-5.40724 L 21.1318,-5.32451 L 20.8259,-5.25151 L 20.5121,-5.18823
 L 20.1904,-5.1347 L 19.8607,-5.09091 L 19.5231,-5.05684 L 19.1776,-5.03252 L 18.8241,-5.01791 L 18.4626,-5.01305
 z
M 52.8653,-0.00109863 L 53.1063,-0.00440979 L 53.345,-0.00993347 L 53.5815,-0.0176697 L 53.8158,-0.0276337 L 54.0479,-0.0397949
 L 54.2777,-0.0541534 L 54.5054,-0.0707397 L 54.7308,-0.0895386 L 54.954,-0.11055 L 55.175,-0.133774 L 55.3937,-0.159195
 L 55.6103,-0.186829 L 55.8246,-0.21669 L 56.0368,-0.248749 L 56.2467,-0.28302 L 56.4544,-0.319504 L 56.6599,-0.3582
 L 56.8631,-0.399109 L 57.0642,-0.442215 L 57.263,-0.487549 L 57.4596,-0.535095 L 57.654,-0.584839 L 57.8462,-0.636795
 L 58.0362,-0.690979 L 58.2239,-0.747375 L 58.4095,-0.805954 L 58.5928,-0.866776 L 58.7739,-0.929794 L 58.9528,-0.99501
 L 59.1294,-1.06245 L 59.3039,-1.13211 L 59.4761,-1.20398 L 59.6462,-1.27805 L 59.814,-1.35434 L 59.9796,-1.43283
 L 60.1429,-1.51353 L 60.3041,-1.59645 L 60.463,-1.68158 L 60.6198,-1.76892 L 60.7743,-1.85847 L 60.9266,-1.95026
 L 61.0766,-2.04422 L 61.2245,-2.1404 L 61.3702,-2.23882 L 61.5136,-2.33942 L 61.6544,-2.44199 L 61.7921,-2.54633
 L 61.9267,-2.65237 L 62.0582,-2.76018 L 62.1866,-2.86971 L 62.3119,-2.98097 L 62.4341,-3.09398 L 62.5532,-3.20872
 L 62.6692,-3.32521 L 62.7822,-3.44344 L 62.892,-3.56339 L 62.9987,-3.68509 L 63.1024,-3.80852 L 63.2029,-3.93369
 L 63.3004,-4.06059 L 63.3948,-4.18924 L 63.486,-4.31963 L 63.5742,-4.45174 L 63.6593,-4.5856 L 63.7413,-4.72119
 L 63.8202,-4.85854 L 63.896,-4.9976 L 63.9687,-5.1384 L 64.0383,-5.28096 L 64.1048,-5.42523 L 64.1683,-5.57126
 L 64.2286,-5.71901 L 64.2858,-5.86852 L 64.34,-6.01974 L 64.3911,-6.1727 L 64.439,-6.32742 L 64.4839,-6.48386
 L 64.5256,-6.64206 L 64.5643,-6.80197 L 64.5999,-6.96362 L 64.6324,-7.12703 L 64.6618,-7.29214 L 64.6881,-7.45903
 L 64.7113,-7.62762 L 64.7314,-7.79797 L 64.7484,-7.97006 L 64.7623,-8.14388 L 64.7732,-8.31944 L 64.7809,-8.49673
 L 64.7855,-8.67577 L 64.7871,-8.85654 L 64.7864,-8.98402 L 64.7844,-9.11041 L 64.7811,-9.23569 L 64.7765,-9.35986
 L 64.7706,-9.48293 L 64.7634,-9.6049 L 64.7548,-9.72575 L 64.7449,-9.8455 L 64.7337,-9.96416 L 64.7212,-10.0817
 L 64.7074,-10.1981 L 64.6922,-10.3135 L 64.6758,-10.4277 L 64.658,-10.5408 L 64.6389,-10.6528 L 64.6185,-10.7637
 L 64.5968,-10.8735 L 64.5737,-10.9822 L 64.5494,-11.0898 L 64.5237,-11.1963 L 64.4967,-11.3017 L 64.4684,-11.406
 L 64.4387,-11.5091 L 64.4078,-11.6112 L 64.3755,-11.7122 L 64.3419,-11.812 L 64.307,-11.9108 L 64.2708,-12.0084
 L 64.2333,-12.1049 L 64.1944,-12.2004 L 64.1543,-12.2947 L 64.1128,-12.3879 L 64.07,-12.4801 L 64.0259,-12.5711
 L 63.9804,-12.661 L 63.9337,-12.7498 L 63.8856,-12.8375 L 63.8362,-12.9241 L 63.7855,-13.0095 L 63.7335,-13.0939
 L 63.6801,-13.1772 L 63.6255,-13.2594 L 63.5695,-13.3404 L 63.5122,-13.4204 L 63.4536,-13.4992 L 63.3937,-13.577
 L 63.3323,-13.6536 L 63.2693,-13.7292 L 63.2045,-13.8037 L 63.1382,-13.8772 L 63.0701,-13.9496 L 63.0004,-14.0209
 L 62.9291,-14.0912 L 62.8561,-14.1604 L 62.7814,-14.2285 L 62.7051,-14.2956 L 62.6271,-14.3616 L 62.5474,-14.4265
 L 62.4661,-14.4904 L 62.3831,-14.5532 L 62.2985,-14.6149 L 62.2122,-14.6756 L 62.1243,-14.7352 L 62.0347,-14.7937
 L 61.9434,-14.8512 L 61.8504,-14.9076 L 61.7559,-14.9629 L 61.6596,-15.0172 L 61.5617,-15.0704 L 61.4621,-15.1226
 L 61.3609,-15.1736 L 61.258,-15.2236 L 61.1535,-15.2726 L 61.0473,-15.3204 L 60.9394,-15.3672 L 60.8299,-15.413
 L 60.7187,-15.4577 L 60.6059,-15.5013 L 60.4913,-15.5438 L 60.3752,-15.5853 L 60.2574,-15.6257 L 60.1379,-15.6651
 L 60.0168,-15.7033 L 59.8939,-15.7406 L 59.7695,-15.7767 L 59.6434,-15.8118 L 59.5156,-15.8458 L 59.3861,-15.8787
 L 59.2551,-15.9106 L 59.1223,-15.9414 L 58.9879,-15.9712 L 58.8518,-15.9999 L 58.8518,-16.209 L 58.9518,-16.2251
 L 59.051,-16.2425 L 59.1493,-16.2613 L 59.2467,-16.2813 L 59.3433,-16.3027 L 59.439,-16.3254 L 59.5338,-16.3494
 L 59.6278,-16.3748 L 59.7209,-16.4014 L 59.8131,-16.4294 L 59.9044,-16.4588 L 59.9949,-16.4894 L 60.0846,-16.5214
 L 60.1733,-16.5547 L 60.2612,-16.5893 L 60.3482,-16.6252 L 60.4344,-16.6625 L 60.5197,-16.701 L 60.6041,-16.7409
 L 60.6876,-16.7822 L 60.7703,-16.8247 L 60.8521,-16.8686 L 60.9331,-16.9138 L 61.0132,-16.9603 L 61.0924,-17.0081
 L 61.1707,-17.0573 L 61.2482,-17.1078 L 61.3248,-17.1596 L 61.4006,-17.2127 L 61.4754,-17.2672 L 61.5495,-17.3229
 L 61.6226,-17.3801 L 61.6949,-17.4385 L 61.7663,-17.4982 L 61.8368,-17.5593 L 61.9065,-17.6217 L 61.9753,-17.6854
 L 62.0433,-17.7504 L 62.1103,-17.8168 L 62.1765,-17.8845 L 62.2419,-17.9535 L 62.3063,-18.0238 L 62.3699,-18.0955
 L 62.4327,-18.1684 L 62.4945,-18.2427 L 62.5555,-18.3183 L 62.6155,-18.3951 L 62.6741,-18.4728 L 62.7314,-18.5514
 L 62.7873,-18.631 L 62.842,-18.7114 L 62.8953,-18.7928 L 62.9473,-18.8751 L 62.998,-18.9584 L 63.0474,-19.0426
 L 63.0955,-19.1277 L 63.1423,-19.2137 L 63.1877,-19.3007 L 63.2318,-19.3886 L 63.2746,-19.4774 L 63.3161,-19.5671
 L 63.3563,-19.6578 L 63.3951,-19.7494 L 63.4326,-19.8419 L 63.4689,-19.9354 L 63.5038,-20.0298 L 63.5374,-20.1251
 L 63.5696,-20.2213 L 63.6006,-20.3185 L 63.6302,-20.4166 L 63.6585,-20.5156 L 63.6855,-20.6156 L 63.7112,-20.7164
 L 63.7356,-20.8182 L 63.7586,-20.921 L 63.7803,-21.0246 L 63.8008,-21.1292 L 63.8198,-21.2347 L 63.8376,-21.3412
 L 63.8541,-21.4485 L 63.8692,-21.5568 L 63.8831,-21.666 L 63.8956,-21.7762 L 63.9068,-21.8873 L 63.9166,-21.9993
 L 63.9252,-22.1122 L 63.9324,-22.2261 L 63.9384,-22.3409 L 63.943,-22.4566 L 63.9463,-22.5732 L 63.9482,-22.6908
 L 63.9489,-22.8093 L 63.9474,-22.9836 L 63.9429,-23.1557 L 63.9354,-23.3259 L 63.9249,-23.4939 L 63.9113,-23.6599
 L 63.8948,-23.8238 L 63.8752,-23.9857 L 63.8526,-24.1455 L 63.8271,-24.3033 L 63.7985,-24.4589 L 63.7669,-24.6125
 L 63.7323,-24.7641 L 63.6947,-24.9136 L 63.6541,-25.061 L 63.6105,-25.2063 L 63.5638,-25.3497 L 63.5142,-25.4909
 L 63.4615,-25.6301 L 63.4059,-25.7672 L 63.3472,-25.9022 L 63.2856,-26.0352 L 63.2209,-26.1661 L 63.1532,-26.295
 L 63.0825,-26.4217 L 63.0088,-26.5465 L 62.9321,-26.6691 L 62.8523,-26.7897 L 62.7696,-26.9083 L 62.6839,-27.0247
 L 62.5951,-27.1392 L 62.5034,-27.2515 L 62.4086,-27.3618 L 62.3108,-27.47 L 62.21,-27.5762 L 62.1062,-27.6803
 L 61.9994,-27.7823 L 61.8896,-27.8823 L 61.7768,-27.9802 L 61.661,-28.076 L 61.5422,-28.1698 L 61.4203,-28.2615
 L 61.2955,-28.3512 L 61.1676,-28.4387 L 61.0367,-28.5243 L 60.9028,-28.6077 L 60.766,-28.6891 L 60.6258,-28.7686
 L 60.4819,-28.8464 L 60.3344,-28.9224 L 60.1833,-28.9967 L 60.0285,-29.0692 L 59.87,-29.14 L 59.7079,-29.209
 L 59.5421,-29.2763 L 59.3727,-29.3418 L 59.1997,-29.4056 L 59.023,-29.4676 L 58.8426,-29.5279 L 58.6586,-29.5864
 L 58.4709,-29.6432 L 58.2796,-29.6983 L 58.0847,-29.7515 L 57.886,-29.8031 L 57.6838,-29.8529 L 57.4778,-29.901
 L 57.2683,-29.9473 L 57.0551,-29.9918 L 56.8382,-30.0346 L 56.6177,-30.0757 L 56.3935,-30.115 L 56.1657,-30.1526
 L 55.9342,-30.1884 L 55.6991,-30.2225 L 55.4603,-30.2548 L 55.2179,-30.2854 L 54.9718,-30.3142 L 54.7221,-30.3413
 L 54.4687,-30.3666 L 54.2116,-30.3902 L 53.951,-30.4121 L 53.6866,-30.4322 L 53.4186,-30.4505 L 53.147,-30.4671
 L 52.8717,-30.482 L 52.5928,-30.4951 L 52.3102,-30.5064 L 52.0239,-30.516 L 51.7341,-30.5239 L 51.4405,-30.53
 L 51.1433,-30.5344 L 50.8425,-30.537 L 50.538,-30.5379 L 40.2308,-30.5379 L 40.2308,-0 L 52.6222,-0
 z
M 47.2532,-18.4437 L 47.2532,-25.2325 L 50.9459,-25.2325 L 51.0761,-25.2321 L 51.2048,-25.2311 L 51.332,-25.2293
 L 51.4576,-25.2267 L 51.5817,-25.2235 L 51.7043,-25.2195 L 51.8253,-25.2149 L 51.9449,-25.2095 L 52.0628,-25.2033
 L 52.1793,-25.1965 L 52.2942,-25.1889 L 52.4076,-25.1806 L 52.5195,-25.1716 L 52.6298,-25.1619 L 52.7386,-25.1514
 L 52.8458,-25.1402 L 52.9516,-25.1284 L 53.0558,-25.1157 L 53.1584,-25.1024 L 53.2596,-25.0883 L 53.3592,-25.0736
 L 53.4573,-25.0581 L 53.5538,-25.0419 L 53.6488,-25.0249 L 53.7423,-25.0072 L 53.8343,-24.9889 L 53.9247,-24.9698
 L 54.0136,-24.9499 L 54.1009,-24.9294 L 54.1868,-24.9081 L 54.2711,-24.8862 L 54.3538,-24.8634 L 54.4351,-24.84
 L 54.5148,-24.8159 L 54.593,-24.791 L 54.6696,-24.7654 L 54.7447,-24.7391 L 54.8183,-24.7121 L 54.8904,-24.6843
 L 54.9609,-24.6558 L 55.0298,-24.6266 L 55.0973,-24.5967 L 55.1632,-24.5661 L 55.2276,-24.5347 L 55.2905,-24.5027
 L 55.3518,-24.4698 L 55.4117,-24.4362 L 55.4704,-24.4017 L 55.5276,-24.3662 L 55.5836,-24.3298 L 55.6383,-24.2924
 L 55.6916,-24.2541 L 55.7436,-24.2149 L 55.7943,-24.1747 L 55.8437,-24.1336 L 55.8918,-24.0915 L 55.9385,-24.0485
 L 55.984,-24.0046 L 56.0281,-23.9597 L 56.0709,-23.9139 L 56.1124,-23.8672 L 56.1525,-23.8195 L 56.1914,-23.7709
 L 56.2289,-23.7213 L 56.2652,-23.6708 L 56.3,-23.6194 L 56.3336,-23.567 L 56.3659,-23.5137 L 56.3969,-23.4595
 L 56.4265,-23.4043 L 56.4548,-23.3482 L 56.4818,-23.2911 L 56.5075,-23.2331 L 56.5318,-23.1742 L 56.5549,-23.1143
 L 56.5766,-23.0535 L 56.597,-22.9917 L 56.6161,-22.9291 L 56.6339,-22.8654 L 56.6504,-22.8009 L 56.6655,-22.7354
 L 56.6794,-22.6689 L 56.6918,-22.6016 L 56.703,-22.5333 L 56.7129,-22.464 L 56.7215,-22.3938 L 56.7287,-22.3227
 L 56.7347,-22.2506 L 56.7393,-22.1776 L 56.7426,-22.1037 L 56.7445,-22.0288 L 56.7452,-21.953 L 56.7446,-21.8718
 L 56.7428,-21.7915 L 56.7398,-21.7123 L 56.7355,-21.6341 L 56.7301,-21.5569 L 56.7234,-21.4807 L 56.7156,-21.4055
 L 56.7065,-21.3314 L 56.6962,-21.2582 L 56.6847,-21.186 L 56.672,-21.1149 L 56.6581,-21.0447 L 56.643,-20.9756
 L 56.6266,-20.9074 L 56.6091,-20.8403 L 56.5903,-20.7741 L 56.5704,-20.709 L 56.5492,-20.6449 L 56.5268,-20.5818
 L 56.5032,-20.5197 L 56.4784,-20.4586 L 56.4524,-20.3985 L 56.4252,-20.3394 L 56.3967,-20.2814 L 56.3671,-20.2243
 L 56.3362,-20.1682 L 56.3042,-20.1132 L 56.2709,-20.0591 L 56.2364,-20.0061 L 56.2007,-19.9541 L 56.1638,-19.903
 L 56.1257,-19.853 L 56.0864,-19.804 L 56.0459,-19.756 L 56.0041,-19.709 L 55.9611,-19.663 L 55.917,-19.618
 L 55.8716,-19.574 L 55.825,-19.5311 L 55.7772,-19.4891 L 55.7282,-19.4481 L 55.678,-19.4082 L 55.6266,-19.3692
 L 55.574,-19.3313 L 55.5201,-19.2944 L 55.4651,-19.2584 L 55.4087,-19.2234 L 55.3508,-19.1891 L 55.2914,-19.1556
 L 55.2306,-19.1229 L 55.1683,-19.0909 L 55.1044,-19.0598 L 55.0391,-19.0293 L 54.9723,-18.9997 L 54.904,-18.9708
 L 54.8342,-18.9427 L 54.763,-18.9154 L 54.6902,-18.8888 L 54.616,-18.863 L 54.5402,-18.838 L 54.463,-18.8137
 L 54.3843,-18.7902 L 54.3041,-18.7675 L 54.2224,-18.7456 L 54.1393,-18.7244 L 54.0546,-18.704 L 53.9684,-18.6844
 L 53.8808,-18.6655 L 53.7917,-18.6474 L 53.701,-18.6301 L 53.6089,-18.6135 L 53.5154,-18.5977 L 53.4203,-18.5827
 L 53.3237,-18.5685 L 53.2257,-18.555 L 53.1261,-18.5423 L 53.0251,-18.5303 L 52.9226,-18.5192 L 52.8186,-18.5088
 L 52.7131,-18.4992 L 52.6061,-18.4903 L 52.4976,-18.4822 L 52.3876,-18.4749 L 52.2762,-18.4684 L 52.1633,-18.4626
 L 52.0488,-18.4576 L 51.9329,-18.4533 L 51.8155,-18.4499 L 51.6966,-18.4472 L 51.5763,-18.4453 L 51.4544,-18.4441
 L 51.3311,-18.4437 z
M 47.2532,-5.34724 L 47.2532,-13.3056 L 51.6026,-13.3056 L 51.856,-13.3038 L 52.1037,-13.2984 L 52.3459,-13.2894
 L 52.5825,-13.2769 L 52.8135,-13.2607 L 53.039,-13.2409 L 53.2589,-13.2176 L 53.4733,-13.1906 L 53.682,-13.1601
 L 53.8852,-13.1259 L 54.0829,-13.0882 L 54.2749,-13.0469 L 54.4614,-13.002 L 54.6424,-12.9535 L 54.8177,-12.9014
 L 54.9875,-12.8457 L 55.1518,-12.7864 L 55.3105,-12.7235 L 55.4635,-12.657 L 55.6111,-12.587 L 55.7531,-12.5133
 L 55.8895,-12.4361 L 56.0203,-12.3552 L 56.1455,-12.2708 L 56.2652,-12.1827 L 56.3794,-12.0911 L 56.4879,-11.9959
 L 56.5909,-11.8971 L 56.6884,-11.7947 L 56.7802,-11.6887 L 56.8665,-11.5791 L 56.9472,-11.4659 L 57.0224,-11.3491
 L 57.092,-11.2287 L 57.156,-11.1048 L 57.2145,-10.9772 L 57.2673,-10.8461 L 57.3147,-10.7113 L 57.3564,-10.573
 L 57.3926,-10.431 L 57.4232,-10.2855 L 57.4483,-10.1364 L 57.4678,-9.98369 L 57.4817,-9.82739 L 57.49,-9.6675
 L 57.4928,-9.504 L 57.4922,-9.41278 L 57.4902,-9.3226 L 57.4869,-9.23344 L 57.4824,-9.14531 L 57.4765,-9.05821
 L 57.4693,-8.97214 L 57.4608,-8.88708 L 57.451,-8.80305 L 57.4399,-8.72006 L 57.4275,-8.63809 L 57.4138,-8.55714
 L 57.3988,-8.47723 L 57.3824,-8.39835 L 57.3648,-8.32047 L 57.3459,-8.24362 L 57.3256,-8.16782 L 57.3041,-8.09303
 L 57.2812,-8.01927 L 57.257,-7.94655 L 57.2316,-7.87483 L 57.2048,-7.80415 L 57.1767,-7.73451 L 57.1473,-7.66588
 L 57.1166,-7.59828 L 57.0846,-7.53171 L 57.0513,-7.46616 L 57.0167,-7.40164 L 56.9808,-7.33813 L 56.9435,-7.27568
 L 56.905,-7.21423 L 56.8652,-7.15382 L 56.824,-7.09444 L 56.7816,-7.03609 L 56.7378,-6.97874 L 56.6927,-6.92244
 L 56.6464,-6.86714 L 56.5987,-6.8129 L 56.5497,-6.75967 L 56.4994,-6.70746 L 56.4478,-6.6563 L 56.3949,-6.60614
 L 56.3407,-6.55702 L 56.2852,-6.50893 L 56.2284,-6.46185 L 56.1703,-6.41582 L 56.1108,-6.3708 L 56.05,-6.32678
 L 55.9878,-6.28374 L 55.9241,-6.24164 L 55.859,-6.20053 L 55.7925,-6.16039 L 55.7245,-6.1212 L 55.6552,-6.08298
 L 55.5843,-6.04573 L 55.5121,-6.00946 L 55.4383,-5.97415 L 55.3632,-5.9398 L 55.2866,-5.90643 L 55.2086,-5.87402
 L 55.1292,-5.84258 L 55.0483,-5.8121 L 54.966,-5.78259 L 54.8822,-5.75404 L 54.7971,-5.72649 L 54.7104,-5.69989
 L 54.6224,-5.67424 L 54.5329,-5.64957 L 54.442,-5.62587 L 54.3496,-5.60313 L 54.2558,-5.58138 L 54.1606,-5.56056
 L 54.064,-5.54073 L 53.9659,-5.52187 L 53.8663,-5.50397 L 53.7654,-5.48705 L 53.663,-5.47107 L 53.5591,-5.45609
 L 53.4539,-5.44205 L 53.3472,-5.429 L 53.239,-5.4169 L 53.1295,-5.40578 L 53.0184,-5.39561 L 52.906,-5.38643
 L 52.7921,-5.3782 L 52.6768,-5.37096 L 52.5601,-5.36467 L 52.4419,-5.35934 L 52.3223,-5.35498 L 52.2012,-5.35159
 L 52.0788,-5.34918 L 51.9548,-5.34773 L 51.8295,-5.34724 z
M 67.4317,8.98027 L 67.6536,8.9763 L 67.8732,8.96968 L 68.0903,8.96043 L 68.3051,8.94853 L 68.5175,8.93398
 L 68.7274,8.91678 L 68.935,8.89693 L 69.1402,8.87445 L 69.3429,8.84932 L 69.5433,8.82155 L 69.7413,8.79111
 L 69.9368,8.75804 L 70.13,8.72232 L 70.3208,8.68398 L 70.5092,8.64296 L 70.6951,8.59932 L 70.8787,8.55302
 L 71.0599,8.50407 L 71.2387,8.45248 L 71.4151,8.39824 L 71.5891,8.34137 L 71.7607,8.28185 L 71.9299,8.21968
 L 72.0967,8.15486 L 72.2611,8.0874 L 72.4231,8.01729 L 72.5827,7.94453 L 72.7399,7.86914 L 72.8947,7.79109
 L 73.0471,7.7104 L 73.1971,7.62708 L 73.3447,7.54109 L 73.4899,7.45247 L 73.6327,7.36119 L 73.7731,7.26727
 L 73.9112,7.17072 L 74.0468,7.0715 L 74.18,6.96965 L 74.3108,6.86516 L 74.4393,6.758 L 74.5653,6.64822
 L 74.6889,6.53578 L 74.8102,6.4207 L 74.929,6.30296 L 75.0454,6.1826 L 75.1594,6.05972 L 75.2709,5.93442
 L 75.3799,5.80672 L 75.4863,5.67661 L 75.5903,5.54408 L 75.6918,5.40915 L 75.7907,5.2718 L 75.8872,5.13206
 L 75.9811,4.98991 L 76.0725,4.84534 L 76.1615,4.69836 L 76.2479,4.54897 L 76.3318,4.39719 L 76.4132,4.24298
 L 76.4922,4.08636 L 76.5686,3.92735 L 76.6425,3.76591 L 76.7139,3.6021 L 76.7827,3.43584 L 76.8491,3.2672
 L 76.913,3.09612 L 76.9744,2.92265 L 77.0333,2.74677 L 77.0896,2.56848 L 77.1435,2.38777 L 77.1949,2.20468
 L 77.2437,2.01915 L 77.29,1.83124 L 77.3339,1.6409 L 77.3752,1.44815 L 77.414,1.25301 L 77.4504,1.05545
 L 77.4842,0.855469 L 77.5155,0.653091 L 77.5443,0.448303 L 77.5706,0.241104 L 77.5944,0.0315094 L 77.6157,-0.180481
 L 77.6345,-0.394913 L 77.6508,-0.61174 L 77.6646,-0.830978 L 77.6758,-1.05263 L 77.6846,-1.27669 L 77.6909,-1.50316
 L 77.6946,-1.73203 L 77.6959,-1.96332 L 77.6959,-30.5379 L 70.6736,-30.5379 L 70.6736,-1.92174 L 70.6731,-1.79984
 L 70.6717,-1.67934 L 70.6693,-1.56026 L 70.666,-1.4426 L 70.6618,-1.32635 L 70.6566,-1.2115 L 70.6505,-1.09807
 L 70.6434,-0.986053 L 70.6354,-0.875458 L 70.6264,-0.766266 L 70.6165,-0.658478 L 70.6057,-0.552109 L 70.5939,-0.447144
 L 70.5812,-0.343597 L 70.5676,-0.241455 L 70.553,-0.140732 L 70.5374,-0.0414276 L 70.5209,0.0564575 L 70.5035,0.152939
 L 70.4851,0.248016 L 70.4658,0.34169 L 70.4455,0.433929 L 70.4243,0.52478 L 70.4022,0.614212 L 70.3791,0.702225
 L 70.3551,0.788834 L 70.3301,0.874039 L 70.3042,0.957809 L 70.2774,1.04018 L 70.2496,1.12115 L 70.2208,1.2007
 L 70.1912,1.27884 L 70.1605,1.35556 L 70.129,1.43088 L 70.0965,1.50478 L 70.063,1.57727 L 70.0286,1.64835
 L 69.9933,1.718 L 69.957,1.78627 L 69.9198,1.85312 L 69.8816,1.91853 L 69.8425,1.98256 L 69.8025,2.04517
 L 69.7615,2.10637 L 69.7196,2.16615 L 69.6767,2.22452 L 69.6328,2.28156 L 69.5876,2.33734 L 69.5411,2.39188
 L 69.4934,2.44516 L 69.4445,2.49718 L 69.3943,2.54796 L 69.3429,2.59747 L 69.2903,2.64574 L 69.2364,2.69275
 L 69.1812,2.73851 L 69.1248,2.78302 L 69.0672,2.82626 L 69.0083,2.86826 L 68.9482,2.909 L 68.8869,2.94849
 L 68.8243,2.98672 L 68.7605,3.0237 L 68.6954,3.05943 L 68.6291,3.09392 L 68.5615,3.12714 L 68.4927,3.1591
 L 68.4227,3.18982 L 68.3514,3.21927 L 68.2789,3.24748 L 68.2051,3.27444 L 68.1301,3.30014 L 68.0539,3.32457
 L 67.9764,3.34778 L 67.8976,3.36971 L 67.8177,3.3904 L 67.7364,3.40982 L 67.654,3.42799 L 67.5703,3.44493
 L 67.4853,3.4606 L 67.3992,3.47501 L 67.3117,3.48819 L 67.2231,3.50009 L 67.1331,3.51074 L 67.042,3.52014
 L 66.9496,3.52831 L 66.856,3.53519 L 66.7611,3.54083 L 66.665,3.54523 L 66.5676,3.54836 L 66.469,3.55023
 L 66.3692,3.55086 L 66.304,3.55066 L 66.2385,3.55008 L 66.1728,3.54909 L 66.1067,3.5477 L 66.0404,3.54593
 L 65.9737,3.54375 L 65.9067,3.54118 L 65.8395,3.53822 L 65.7719,3.53487 L 65.7041,3.53111 L 65.6359,3.52698
 L 65.5674,3.52243 L 65.4987,3.5175 L 65.4296,3.51216 L 65.3603,3.50644 L 65.2906,3.50034 L 65.2207,3.49382
 L 65.1504,3.48691 L 65.0798,3.47961 L 65.009,3.47189 L 64.9379,3.46382 L 64.8664,3.45532 L 64.7946,3.44644
 L 64.7226,3.43716 L 64.6502,3.42749 L 64.5776,3.41742 L 64.5046,3.40697 L 64.4314,3.39612 L 64.3578,3.38486
 L 64.284,3.37321 L 64.2098,3.36116 L 64.1354,3.34874 L 64.0606,3.33591 L 63.9856,3.32268 L 63.9102,3.30905
 L 63.8346,3.29504 L 63.7586,3.28062 L 63.6824,3.26582 L 63.6058,3.25064 L 63.529,3.23505 L 63.4518,3.21906
 L 63.3744,3.20267 L 63.2966,3.1859 L 63.2186,3.16872 L 63.1403,3.15114 L 63.0616,3.13318 L 63.0616,8.52234
 L 63.1387,8.54208 L 63.2164,8.5614 L 63.2947,8.58028 L 63.3736,8.59872 L 63.453,8.61674 L 63.533,8.63432
 L 63.6136,8.65147 L 63.6948,8.66818 L 63.7765,8.68446 L 63.8589,8.7003 L 63.9418,8.71573 L 64.0252,8.7307
 L 64.1093,8.74524 L 64.1939,8.75934 L 64.2791,8.77301 L 64.3649,8.78625 L 64.4513,8.79907 L 64.5382,8.81143
 L 64.6258,8.82336 L 64.7139,8.83487 L 64.8026,8.84595 L 64.8918,8.85658 L 64.9816,8.86678 L 65.072,8.87654
 L 65.163,8.88588 L 65.2546,8.89478 L 65.3468,8.90324 L 65.4395,8.91127 L 65.5328,8.91887 L 65.6267,8.92603
 L 65.7211,8.93275 L 65.8162,8.93906 L 65.9118,8.94492 L 66.008,8.95033 L 66.1047,8.95532 L 66.2021,8.95988
 L 66.3,8.96402 L 66.3985,8.9677 L 66.4976,8.97096 L 66.5972,8.97377 L 66.6975,8.97617 L 66.7983,8.97812
 L 66.8997,8.97964 L 67.0017,8.98073 L 67.1042,8.98138 L 67.2073,8.9816 z
" stroke="black" fill="black" stroke-width="0.5"/>
</svg>
