<?xml version="1.0" standalone="no"?>
<!DOCTYPE svg PUBLIC "-//W3C//DTD SVG 1.1//EN" "http://www.w3.org/Graphics/SVG/1.1/DTD/svg11.dtd">
<svg width="100mm" height="100mm" viewBox="-8 -108 116 116" xmlns="http://www.w3.org/2000/svg" version="1.1">
<title>OpenSCAD Model</title>
<path d="
M 50.1994,-75.3358 L 50.3988,-75.3433 L 50.5978,-75.3557 L 50.7965,-75.3731 L 50.9947,-75.3954 L 51.1923,-75.4227
 L 51.3892,-75.4549 L 51.5852,-75.4919 L 51.7802,-75.5339 L 51.974,-75.5807 L 52.1667,-75.6323 L 52.358,-75.6887
 L 52.5479,-75.7499 L 52.7362,-75.8158 L 52.9227,-75.8863 L 53.1075,-75.9615 L 53.2903,-76.0413 L 53.4711,-76.1256
 L 53.6497,-76.2144 L 53.826,-76.3076 L 54,-76.4051 L 54.1715,-76.507 L 54.3404,-76.6131 L 54.5065,-76.7234
 L 54.6699,-76.8378 L 54.8304,-76.9563 L 54.9879,-77.0787 L 55.1423,-77.205 L 55.2935,-77.3351 L 55.4414,-77.4689
 L 55.5859,-77.6064 L 55.7269,-77.7474 L 55.8644,-77.8919 L 55.9982,-78.0398 L 56.1283,-78.191 L 56.2546,-78.3454
 L 56.3771,-78.5029 L 56.4955,-78.6634 L 56.6099,-78.8268 L 56.7202,-78.993 L 56.8263,-79.1618 L 56.9282,-79.3333
 L 57.0258,-79.5073 L 57.119,-79.6836 L 57.2077,-79.8623 L 57.292,-80.043 L 57.3718,-80.2258 L 57.447,-80.4106
 L 57.5175,-80.5972 L 57.5834,-80.7854 L 57.6446,-80.9753 L 57.701,-81.1666 L 57.7526,-81.3593 L 57.7994,-81.5532
 L 57.8414,-81.7482 L 57.8784,-81.9441 L 57.9106,-82.141 L 57.9379,-82.3386 L 57.9602,-82.5368 L 57.9776,-82.7355
 L 57.9901,-82.9346 L 57.9975,-83.1339 L 58,-83.3333 L 57.9975,-83.5328 L 57.9901,-83.7321 L 57.9776,-83.9312
 L 57.9602,-84.1299 L 57.9379,-84.3281 L 57.9106,-84.5257 L 57.8784,-84.7225 L 57.8414,-84.9185 L 57.7994,-85.1135
 L 57.7526,-85.3074 L 57.701,-85.5 L 57.6446,-85.6914 L 57.5834,-85.8812 L 57.5175,-86.0695 L 57.447,-86.2561
 L 57.3718,-86.4408 L 57.292,-86.6236 L 57.2077,-86.8044 L 57.119,-86.983 L 57.0258,-87.1594 L 56.9282,-87.3333
 L 56.8263,-87.5048 L 56.7202,-87.6737 L 56.6099,-87.8399 L 56.4955,-88.0033 L 56.3771,-88.1638 L 56.2546,-88.3212
 L 56.1283,-88.4756 L 55.9982,-88.6268 L 55.8644,-88.7747 L 55.7269,-88.9192 L 55.5859,-89.0603 L 55.4414,-89.1977
 L 55.2935,-89.3316 L 55.1423,-89.4617 L 54.9879,-89.588 L 54.8304,-89.7104 L 54.6699,-89.8288 L 54.5065,-89.9432
 L 54.3404,-90.0535 L 54.1715,-90.1597 L 54,-90.2615 L 53.826,-90.3591 L 53.6497,-90.4523 L 53.4711,-90.5411
 L 53.2903,-90.6254 L 53.1075,-90.7051 L 52.9227,-90.7803 L 52.7362,-90.8509 L 52.5479,-90.9167 L 52.358,-90.9779
 L 52.1667,-91.0343 L 51.974,-91.0859 L 51.7802,-91.1328 L 51.5852,-91.1747 L 51.3892,-91.2118 L 51.1923,-91.244
 L 50.9947,-91.2712 L 50.7965,-91.2936 L 50.5978,-91.311 L 50.3988,-91.3234 L 50.1994,-91.3308 L 50,-91.3333
 L 49.8006,-91.3308 L 49.6012,-91.3234 L 49.4022,-91.311 L 49.2035,-91.2936 L 49.0053,-91.2712 L 48.8077,-91.244
 L 48.6108,-91.2118 L 48.4148,-91.1747 L 48.2198,-91.1328 L 48.026,-91.0859 L 47.8333,-91.0343 L 47.642,-90.9779
 L 47.4521,-90.9167 L 47.2638,-90.8509 L 47.0773,-90.7803 L 46.8925,-90.7051 L 46.7097,-90.6254 L 46.5289,-90.5411
 L 46.3503,-90.4523 L 46.174,-90.3591 L 46,-90.2615 L 45.8285,-90.1597 L 45.6596,-90.0535 L 45.4935,-89.9432
 L 45.3301,-89.8288 L 45.1696,-89.7104 L 45.0121,-89.588 L 44.8577,-89.4617 L 44.7065,-89.3316 L 44.5586,-89.1977
 L 44.4141,-89.0603 L 44.2731,-88.9192 L 44.1356,-88.7747 L 44.0018,-88.6268 L 43.8717,-88.4756 L 43.7454,-88.3212
 L 43.6229,-88.1638 L 43.5045,-88.0033 L 43.3901,-87.8399 L 43.2798,-87.6737 L 43.1737,-87.5048 L 43.0718,-87.3333
 L 42.9742,-87.1594 L 42.881,-86.983 L 42.7923,-86.8044 L 42.708,-86.6236 L 42.6282,-86.4408 L 42.553,-86.2561
 L 42.4825,-86.0695 L 42.4166,-85.8812 L 42.3554,-85.6914 L 42.299,-85.5 L 42.2474,-85.3074 L 42.2006,-85.1135
 L 42.1586,-84.9185 L 42.1216,-84.7225 L 42.0894,-84.5257 L 42.0621,-84.3281 L 42.0398,-84.1299 L 42.0224,-83.9312
 L 42.0099,-83.7321 L 42.0025,-83.5328 L 42,-83.3333 L 42.0025,-83.1339 L 42.0099,-82.9346 L 42.0224,-82.7355
 L 42.0398,-82.5368 L 42.0621,-82.3386 L 42.0894,-82.141 L 42.1216,-81.9441 L 42.1586,-81.7482 L 42.2006,-81.5532
 L 42.2474,-81.3593 L 42.299,-81.1666 L 42.3554,-80.9753 L 42.4166,-80.7854 L 42.4825,-80.5972 L 42.553,-80.4106
 L 42.6282,-80.2258 L 42.708,-80.043 L 42.7923,-79.8623 L 42.881,-79.6836 L 42.9742,-79.5073 L 43.0718,-79.3333
 L 43.1737,-79.1618 L 43.2798,-78.993 L 43.3901,-78.8268 L 43.5045,-78.6634 L 43.6229,-78.5029 L 43.7454,-78.3454
 L 43.8717,-78.191 L 44.0018,-78.0398 L 44.1356,-77.8919 L 44.2731,-77.7474 L 44.4141,-77.6064 L 44.5586,-77.4689
 L 44.7065,-77.3351 L 44.8577,-77.205 L 45.0121,-77.0787 L 45.1696,-76.9563 L 45.3301,-76.8378 L 45.4935,-76.7234
 L 45.6596,-76.6131 L 45.8285,-76.507 L 46,-76.4051 L 46.174,-76.3076 L 46.3503,-76.2144 L 46.5289,-76.1256
 L 46.7097,-76.0413 L 46.8925,-75.9615 L 47.0773,-75.8863 L 47.2638,-75.8158 L 47.4521,-75.7499 L 47.642,-75.6887
 L 47.8333,-75.6323 L 48.026,-75.5807 L 48.2198,-75.5339 L 48.4148,-75.4919 L 48.6108,-75.4549 L 48.8077,-75.4227
 L 49.0053,-75.3954 L 49.2035,-75.3731 L 49.4022,-75.3557 L 49.6012,-75.3433 L 49.8006,-75.3358 L 50,-75.3333
 z
M 66.8163,-70.2021 L 67.0156,-70.2079 L 67.2148,-70.2182 L 67.4137,-70.2331 L 67.6122,-70.2526 L 67.8102,-70.2766
 L 68.0076,-70.3052 L 68.2043,-70.3383 L 68.4002,-70.376 L 68.5952,-70.4181 L 68.7891,-70.4648 L 68.9819,-70.5158
 L 69.1735,-70.5713 L 69.3638,-70.6312 L 69.5526,-70.6954 L 69.7399,-70.764 L 69.9256,-70.8369 L 70.1095,-70.914
 L 70.2916,-70.9954 L 70.4718,-71.0809 L 70.65,-71.1705 L 70.8261,-71.2642 L 71,-71.362 L 71.1716,-71.4637
 L 71.3408,-71.5693 L 71.5075,-71.6788 L 71.6716,-71.7921 L 71.8331,-71.9092 L 71.9919,-72.0299 L 72.1479,-72.1543
 L 72.3009,-72.2822 L 72.451,-72.4136 L 72.5979,-72.5484 L 72.7418,-72.6866 L 72.8824,-72.828 L 73.0198,-72.9727
 L 73.1537,-73.1204 L 73.2843,-73.2713 L 73.4113,-73.425 L 73.5348,-73.5817 L 73.6546,-73.7411 L 73.7707,-73.9033
 L 73.8831,-74.0681 L 73.9916,-74.2355 L 74.0963,-74.4053 L 74.197,-74.5774 L 74.2938,-74.7519 L 74.3864,-74.9285
 L 74.4751,-75.1072 L 74.5595,-75.2879 L 74.6398,-75.4705 L 74.7159,-75.6548 L 74.7877,-75.8409 L 74.8552,-76.0286
 L 74.9184,-76.2178 L 74.9771,-76.4084 L 75.0315,-76.6003 L 75.0815,-76.7934 L 75.127,-76.9876 L 75.168,-77.1828
 L 75.2045,-77.3789 L 75.2365,-77.5758 L 75.264,-77.7734 L 75.2869,-77.9715 L 75.3052,-78.1701 L 75.319,-78.3691
 L 75.3282,-78.5684 L 75.3327,-78.7678 L 75.3327,-78.9672 L 75.3282,-79.1666 L 75.319,-79.3659 L 75.3052,-79.5649
 L 75.2869,-79.7635 L 75.264,-79.9616 L 75.2365,-80.1592 L 75.2045,-80.3561 L 75.168,-80.5522 L 75.127,-80.7474
 L 75.0815,-80.9416 L 75.0315,-81.1347 L 74.9771,-81.3266 L 74.9184,-81.5172 L 74.8552,-81.7064 L 74.7877,-81.8941
 L 74.7159,-82.0802 L 74.6398,-82.2646 L 74.5595,-82.4471 L 74.4751,-82.6278 L 74.3864,-82.8065 L 74.2938,-82.9832
 L 74.197,-83.1576 L 74.0963,-83.3297 L 73.9916,-83.4995 L 73.8831,-83.6669 L 73.7707,-83.8317 L 73.6546,-83.9939
 L 73.5348,-84.1533 L 73.4113,-84.31 L 73.2843,-84.4638 L 73.1537,-84.6146 L 73.0198,-84.7623 L 72.8824,-84.907
 L 72.7418,-85.0484 L 72.5979,-85.1866 L 72.451,-85.3214 L 72.3009,-85.4528 L 72.1479,-85.5807 L 71.9919,-85.7051
 L 71.8331,-85.8259 L 71.6716,-85.9429 L 71.5075,-86.0562 L 71.3408,-86.1657 L 71.1716,-86.2713 L 71,-86.3731
 L 70.8261,-86.4708 L 70.65,-86.5645 L 70.4718,-86.6541 L 70.2916,-86.7396 L 70.1095,-86.821 L 69.9256,-86.8981
 L 69.7399,-86.971 L 69.5526,-87.0396 L 69.3638,-87.1038 L 69.1735,-87.1637 L 68.9819,-87.2192 L 68.7891,-87.2703
 L 68.5952,-87.3169 L 68.4002,-87.359 L 68.2043,-87.3967 L 68.0076,-87.4298 L 67.8102,-87.4584 L 67.6122,-87.4824
 L 67.4137,-87.5019 L 67.2148,-87.5168 L 67.0156,-87.5271 L 66.8163,-87.5329 L 66.6168,-87.534 L 66.4174,-87.5306
 L 66.2181,-87.5226 L 66.019,-87.5099 L 65.8203,-87.4928 L 65.622,-87.471 L 65.4243,-87.4447 L 65.2272,-87.4138
 L 65.0309,-87.3784 L 64.8355,-87.3385 L 64.641,-87.2941 L 64.4476,-87.2453 L 64.2554,-87.192 L 64.0645,-87.1343
 L 63.875,-87.0722 L 63.6869,-87.0058 L 63.5004,-86.9351 L 63.3156,-86.8601 L 63.1325,-86.7808 L 62.9513,-86.6974
 L 62.7721,-86.6098 L 62.595,-86.5182 L 62.42,-86.4224 L 62.2472,-86.3227 L 62.0768,-86.219 L 61.9089,-86.1115
 L 61.7434,-86 L 61.5806,-85.8848 L 61.4204,-85.7659 L 61.2631,-85.6434 L 61.1086,-85.5172 L 60.957,-85.3876
 L 60.8085,-85.2544 L 60.6631,-85.1179 L 60.5208,-84.9781 L 60.3818,-84.8351 L 60.2461,-84.6888 L 60.1139,-84.5395
 L 59.9851,-84.3872 L 59.8598,-84.232 L 59.7382,-84.0739 L 59.6202,-83.9131 L 59.5059,-83.7496 L 59.3955,-83.5835
 L 59.2889,-83.4149 L 59.1862,-83.244 L 59.0874,-83.0706 L 58.9927,-82.8951 L 58.9021,-82.7174 L 58.8155,-82.5377
 L 58.7331,-82.3561 L 58.6549,-82.1726 L 58.581,-81.9873 L 58.5114,-81.8004 L 58.446,-81.612 L 58.385,-81.4221
 L 58.3284,-81.2308 L 58.2763,-81.0383 L 58.2285,-80.8446 L 58.1853,-80.6499 L 58.1465,-80.4542 L 58.1122,-80.2577
 L 58.0825,-80.0605 L 58.0573,-79.8626 L 58.0367,-79.6642 L 58.0206,-79.4654 L 58.0092,-79.2663 L 58.0023,-79.067
 L 58,-78.8675 L 58.0023,-78.6681 L 58.0092,-78.4687 L 58.0206,-78.2696 L 58.0367,-78.0708 L 58.0573,-77.8724
 L 58.0825,-77.6745 L 58.1122,-77.4773 L 58.1465,-77.2808 L 58.1853,-77.0851 L 58.2285,-76.8904 L 58.2763,-76.6967
 L 58.3284,-76.5042 L 58.385,-76.313 L 58.446,-76.123 L 58.5114,-75.9346 L 58.581,-75.7477 L 58.6549,-75.5624
 L 58.7331,-75.3789 L 58.8155,-75.1973 L 58.9021,-75.0176 L 58.9927,-74.8399 L 59.0874,-74.6644 L 59.1862,-74.4911
 L 59.2889,-74.3201 L 59.3955,-74.1515 L 59.5059,-73.9854 L 59.6202,-73.8219 L 59.7382,-73.6611 L 59.8598,-73.503
 L 59.9851,-73.3478 L 60.1139,-73.1955 L 60.2461,-73.0462 L 60.3818,-72.9 L 60.5208,-72.7569 L 60.6631,-72.6171
 L 60.8085,-72.4806 L 60.957,-72.3475 L 61.1086,-72.2178 L 61.2631,-72.0916 L 61.4204,-71.9691 L 61.5806,-71.8502
 L 61.7434,-71.735 L 61.9089,-71.6236 L 62.0768,-71.516 L 62.2472,-71.4123 L 62.42,-71.3126 L 62.595,-71.2169
 L 62.7721,-71.1252 L 62.9513,-71.0376 L 63.1325,-70.9542 L 63.3156,-70.8749 L 63.5004,-70.7999 L 63.6869,-70.7292
 L 63.875,-70.6628 L 64.0645,-70.6007 L 64.2554,-70.543 L 64.4476,-70.4897 L 64.641,-70.4409 L 64.8355,-70.3965
 L 65.0309,-70.3566 L 65.2272,-70.3212 L 65.4243,-70.2903 L 65.622,-70.264 L 65.8203,-70.2423 L 66.019,-70.2251
 L 66.2181,-70.2125 L 66.4174,-70.2044 L 66.6168,-70.201 z
M 33.4829,-71.5357 L 33.6823,-71.5425 L 33.8814,-71.5547 L 34.08,-71.5723 L 34.2782,-71.5953 L 34.4756,-71.6237
 L 34.6722,-71.6574 L 34.8678,-71.6965 L 35.0622,-71.7409 L 35.2554,-71.7905 L 35.4472,-71.8454 L 35.6374,-71.9055
 L 35.8259,-71.9708 L 36.0125,-72.0411 L 36.1972,-72.1165 L 36.3797,-72.1969 L 36.56,-72.2822 L 36.7379,-72.3724
 L 36.9133,-72.4674 L 37.086,-72.5671 L 37.256,-72.6715 L 37.4231,-72.7805 L 37.5871,-72.894 L 37.748,-73.0118
 L 37.9056,-73.1341 L 38.0598,-73.2605 L 38.2106,-73.3912 L 38.3577,-73.5258 L 38.5011,-73.6645 L 38.6407,-73.8069
 L 38.7764,-73.9531 L 38.908,-74.103 L 39.0356,-74.2564 L 39.1588,-74.4131 L 39.2778,-74.5732 L 39.3924,-74.7365
 L 39.5025,-74.9028 L 39.6081,-75.0721 L 39.709,-75.2441 L 39.8052,-75.4188 L 39.8966,-75.5961 L 39.9831,-75.7758
 L 40.0647,-75.9578 L 40.1414,-76.142 L 40.213,-76.3281 L 40.2795,-76.5162 L 40.3409,-76.706 L 40.3971,-76.8974
 L 40.448,-77.0902 L 40.4937,-77.2843 L 40.5341,-77.4797 L 40.5692,-77.676 L 40.599,-77.8732 L 40.6233,-78.0712
 L 40.6423,-78.2698 L 40.6558,-78.4688 L 40.664,-78.6681 L 40.6667,-78.8675 L 40.664,-79.0669 L 40.6558,-79.2662
 L 40.6423,-79.4652 L 40.6233,-79.6638 L 40.599,-79.8618 L 40.5692,-80.059 L 40.5341,-80.2554 L 40.4937,-80.4507
 L 40.448,-80.6448 L 40.3971,-80.8377 L 40.3409,-81.029 L 40.2795,-81.2188 L 40.213,-81.4069 L 40.1414,-81.593
 L 40.0647,-81.7772 L 39.9831,-81.9592 L 39.8966,-82.1389 L 39.8052,-82.3162 L 39.709,-82.4909 L 39.6081,-82.663
 L 39.5025,-82.8322 L 39.3924,-82.9985 L 39.2778,-83.1618 L 39.1588,-83.3219 L 39.0356,-83.4787 L 38.908,-83.632
 L 38.7764,-83.7819 L 38.6407,-83.9281 L 38.5011,-84.0706 L 38.3577,-84.2092 L 38.2106,-84.3438 L 38.0598,-84.4745
 L 37.9056,-84.6009 L 37.748,-84.7232 L 37.5871,-84.8411 L 37.4231,-84.9545 L 37.256,-85.0635 L 37.086,-85.1679
 L 36.9133,-85.2676 L 36.7379,-85.3626 L 36.56,-85.4528 L 36.3797,-85.5381 L 36.1972,-85.6185 L 36.0125,-85.6939
 L 35.8259,-85.7643 L 35.6374,-85.8295 L 35.4472,-85.8896 L 35.2554,-85.9445 L 35.0622,-85.9941 L 34.8678,-86.0385
 L 34.6722,-86.0776 L 34.4756,-86.1113 L 34.2782,-86.1397 L 34.08,-86.1627 L 33.8814,-86.1803 L 33.6823,-86.1925
 L 33.4829,-86.1993 L 33.2835,-86.2007 L 33.0841,-86.1966 L 32.8848,-86.1871 L 32.6859,-86.1722 L 32.4875,-86.1519
 L 32.2897,-86.1262 L 32.0927,-86.0951 L 31.8966,-86.0587 L 31.7015,-86.017 L 31.5077,-85.97 L 31.3152,-85.9177
 L 31.1242,-85.8602 L 30.9348,-85.7975 L 30.7473,-85.7297 L 30.5616,-85.6568 L 30.378,-85.5789 L 30.1965,-85.4961
 L 30.0174,-85.4083 L 29.8408,-85.3157 L 29.6667,-85.2184 L 29.4953,-85.1163 L 29.3268,-85.0096 L 29.1612,-84.8984
 L 28.9987,-84.7827 L 28.8395,-84.6626 L 28.6835,-84.5382 L 28.531,-84.4097 L 28.3821,-84.277 L 28.2368,-84.1404
 L 28.0953,-83.9998 L 27.9576,-83.8554 L 27.824,-83.7074 L 27.6944,-83.5558 L 27.569,-83.4007 L 27.4478,-83.2422
 L 27.331,-83.0805 L 27.2186,-82.9157 L 27.1108,-82.7479 L 27.0076,-82.5773 L 26.909,-82.4039 L 26.8152,-82.2278
 L 26.7262,-82.0493 L 26.6422,-81.8685 L 26.563,-81.6854 L 26.4889,-81.5002 L 26.4198,-81.3131 L 26.3559,-81.1241
 L 26.2971,-80.9335 L 26.2435,-80.7414 L 26.1951,-80.5479 L 26.1521,-80.3531 L 26.1143,-80.1573 L 26.0819,-79.9605
 L 26.0549,-79.7629 L 26.0332,-79.5646 L 26.017,-79.3658 L 26.0061,-79.1666 L 26.0007,-78.9672 L 26.0007,-78.7678
 L 26.0061,-78.5684 L 26.017,-78.3692 L 26.0332,-78.1704 L 26.0549,-77.9722 L 26.0819,-77.7745 L 26.1143,-77.5777
 L 26.1521,-77.3819 L 26.1951,-77.1871 L 26.2435,-76.9936 L 26.2971,-76.8015 L 26.3559,-76.6109 L 26.4198,-76.4219
 L 26.4889,-76.2348 L 26.563,-76.0497 L 26.6422,-75.8666 L 26.7262,-75.6857 L 26.8152,-75.5072 L 26.909,-75.3311
 L 27.0076,-75.1577 L 27.1108,-74.9871 L 27.2186,-74.8193 L 27.331,-74.6545 L 27.4478,-74.4928 L 27.569,-74.3343
 L 27.6944,-74.1792 L 27.824,-74.0276 L 27.9576,-73.8796 L 28.0953,-73.7352 L 28.2368,-73.5947 L 28.3821,-73.458
 L 28.531,-73.3253 L 28.6835,-73.1968 L 28.8395,-73.0724 L 28.9987,-72.9523 L 29.1612,-72.8367 L 29.3268,-72.7254
 L 29.4953,-72.6187 L 29.6667,-72.5166 L 29.8408,-72.4193 L 30.0174,-72.3267 L 30.1965,-72.2389 L 30.378,-72.1561
 L 30.5616,-72.0782 L 30.7473,-72.0053 L 30.9348,-71.9375 L 31.1242,-71.8748 L 31.3152,-71.8173 L 31.5077,-71.7651
 L 31.7015,-71.718 L 31.8966,-71.6763 L 32.0927,-71.6399 L 32.2897,-71.6088 L 32.4875,-71.5831 L 32.6859,-71.5628
 L 32.8848,-71.5479 L 33.0841,-71.5384 L 33.2835,-71.5343 z
M 21.3319,-60.003 L 21.5312,-60.0119 L 21.7301,-60.0268 L 21.9285,-60.0477 L 22.1261,-60.0744 L 22.3229,-60.1071
 L 22.5186,-60.1457 L 22.713,-60.1901 L 22.9061,-60.2402 L 23.0975,-60.2962 L 23.2872,-60.3578 L 23.475,-60.4251
 L 23.6607,-60.498 L 23.8441,-60.5764 L 24.0251,-60.6602 L 24.2034,-60.7494 L 24.3791,-60.8439 L 24.5518,-60.9437
 L 24.7215,-61.0485 L 24.888,-61.1584 L 25.0511,-61.2732 L 25.2107,-61.3929 L 25.3666,-61.5172 L 25.5188,-61.6462
 L 25.667,-61.7796 L 25.8111,-61.9175 L 25.9511,-62.0596 L 26.0868,-62.2058 L 26.218,-62.356 L 26.3447,-62.5101
 L 26.4667,-62.6678 L 26.584,-62.8292 L 26.6963,-62.994 L 26.8037,-63.1621 L 26.906,-63.3333 L 27.0031,-63.5075
 L 27.095,-63.6846 L 27.1815,-63.8643 L 27.2627,-64.0465 L 27.3383,-64.231 L 27.4084,-64.4178 L 27.4729,-64.6066
 L 27.5317,-64.7971 L 27.5847,-64.9894 L 27.632,-65.1832 L 27.6735,-65.3783 L 27.7091,-65.5745 L 27.7388,-65.7718
 L 27.7626,-65.9698 L 27.7805,-66.1685 L 27.7924,-66.3676 L 27.7984,-66.5669 L 27.7984,-66.7664 L 27.7924,-66.9658
 L 27.7805,-67.1649 L 27.7626,-67.3635 L 27.7388,-67.5616 L 27.7091,-67.7588 L 27.6735,-67.955 L 27.632,-68.1501
 L 27.5847,-68.3439 L 27.5317,-68.5362 L 27.4729,-68.7268 L 27.4084,-68.9155 L 27.3383,-69.1023 L 27.2627,-69.2868
 L 27.1815,-69.469 L 27.095,-69.6487 L 27.0031,-69.8258 L 26.906,-70 L 26.8037,-70.1712 L 26.6963,-70.3393
 L 26.584,-70.5041 L 26.4667,-70.6655 L 26.3447,-70.8233 L 26.218,-70.9773 L 26.0868,-71.1275 L 25.9511,-71.2737
 L 25.8111,-71.4158 L 25.667,-71.5537 L 25.5188,-71.6871 L 25.3666,-71.8161 L 25.2107,-71.9405 L 25.0511,-72.0601
 L 24.888,-72.1749 L 24.7215,-72.2848 L 24.5518,-72.3896 L 24.3791,-72.4894 L 24.2034,-72.5839 L 24.0251,-72.6731
 L 23.8441,-72.757 L 23.6607,-72.8354 L 23.475,-72.9082 L 23.2872,-72.9755 L 23.0975,-73.0371 L 22.9061,-73.0931
 L 22.713,-73.1433 L 22.5186,-73.1876 L 22.3229,-73.2262 L 22.1261,-73.2589 L 21.9285,-73.2856 L 21.7301,-73.3065
 L 21.5312,-73.3214 L 21.3319,-73.3303 L 21.1325,-73.3333 L 20.9331,-73.3303 L 20.7338,-73.3214 L 20.5349,-73.3065
 L 20.3365,-73.2856 L 20.1389,-73.2589 L 19.9421,-73.2262 L 19.7464,-73.1876 L 19.552,-73.1433 L 19.3589,-73.0931
 L 19.1675,-73.0371 L 18.9778,-72.9755 L 18.79,-72.9082 L 18.6043,-72.8354 L 18.4209,-72.757 L 18.2399,-72.6731
 L 18.0615,-72.5839 L 17.8859,-72.4894 L 17.7132,-72.3896 L 17.5435,-72.2848 L 17.377,-72.1749 L 17.2139,-72.0601
 L 17.0543,-71.9405 L 16.8984,-71.8161 L 16.7462,-71.6871 L 16.598,-71.5537 L 16.4538,-71.4158 L 16.3139,-71.2737
 L 16.1782,-71.1275 L 16.047,-70.9773 L 15.9203,-70.8233 L 15.7983,-70.6655 L 15.681,-70.5041 L 15.5687,-70.3393
 L 15.4613,-70.1712 L 15.359,-70 L 15.2619,-69.8258 L 15.17,-69.6487 L 15.0834,-69.469 L 15.0023,-69.2868
 L 14.9267,-69.1023 L 14.8566,-68.9155 L 14.7921,-68.7268 L 14.7333,-68.5362 L 14.6803,-68.3439 L 14.633,-68.1501
 L 14.5915,-67.955 L 14.5559,-67.7588 L 14.5262,-67.5616 L 14.5023,-67.3635 L 14.4845,-67.1649 L 14.4725,-66.9658
 L 14.4666,-66.7664 L 14.4666,-66.5669 L 14.4725,-66.3676 L 14.4845,-66.1685 L 14.5023,-65.9698 L 14.5262,-65.7718
 L 14.5559,-65.5745 L 14.5915,-65.3783 L 14.633,-65.1832 L 14.6803,-64.9894 L 14.7333,-64.7971 L 14.7921,-64.6066
 L 14.8566,-64.4178 L 14.9267,-64.231 L 15.0023,-64.0465 L 15.0834,-63.8643 L 15.17,-63.6846 L 15.2619,-63.5075
 L 15.359,-63.3333 L 15.4613,-63.1621 L 15.5687,-62.994 L 15.681,-62.8292 L 15.7983,-62.6678 L 15.9203,-62.5101
 L 16.047,-62.356 L 16.1782,-62.2058 L 16.3139,-62.0596 L 16.4538,-61.9175 L 16.598,-61.7796 L 16.7462,-61.6462
 L 16.8984,-61.5172 L 17.0543,-61.3929 L 17.2139,-61.2732 L 17.377,-61.1584 L 17.5435,-61.0485 L 17.7132,-60.9437
 L 17.8859,-60.8439 L 18.0615,-60.7494 L 18.2399,-60.6602 L 18.4209,-60.5764 L 18.6043,-60.498 L 18.79,-60.4251
 L 18.9778,-60.3578 L 19.1675,-60.2962 L 19.3589,-60.2402 L 19.552,-60.1901 L 19.7464,-60.1457 L 19.9421,-60.1071
 L 20.1389,-60.0744 L 20.3365,-60.0477 L 20.5349,-60.0268 L 20.7338,-60.0119 L 20.9331,-60.003 L 21.1325,-60
 z
M 16.8163,-44.0019 L 17.0155,-44.0102 L 17.2144,-44.0251 L 17.4127,-44.0466 L 17.6102,-44.0747 L 17.8066,-44.1093
 L 18.0018,-44.1504 L 18.1955,-44.198 L 18.3875,-44.2521 L 18.5776,-44.3124 L 18.7656,-44.3791 L 18.9512,-44.452
 L 19.1344,-44.531 L 19.3148,-44.616 L 19.4923,-44.707 L 19.6667,-44.8038 L 19.8377,-44.9064 L 20.0053,-45.0146
 L 20.1691,-45.1284 L 20.3291,-45.2475 L 20.4851,-45.3718 L 20.6368,-45.5013 L 20.7841,-45.6358 L 20.9269,-45.775
 L 21.065,-45.919 L 21.1982,-46.0674 L 21.3264,-46.2202 L 21.4495,-46.3772 L 21.5672,-46.5382 L 21.6796,-46.703
 L 21.7864,-46.8714 L 21.8876,-47.0433 L 21.983,-47.2185 L 22.0725,-47.3967 L 22.156,-47.5778 L 22.2335,-47.7616
 L 22.3048,-47.9479 L 22.3699,-48.1364 L 22.4287,-48.327 L 22.4811,-48.5195 L 22.5271,-48.7135 L 22.5667,-48.909
 L 22.5997,-49.1058 L 22.6261,-49.3035 L 22.646,-49.5019 L 22.6592,-49.7009 L 22.6658,-49.9003 L 22.6658,-50.0997
 L 22.6592,-50.2991 L 22.646,-50.4981 L 22.6261,-50.6965 L 22.5997,-50.8942 L 22.5667,-51.091 L 22.5271,-51.2865
 L 22.4811,-51.4805 L 22.4287,-51.673 L 22.3699,-51.8636 L 22.3048,-52.0521 L 22.2335,-52.2384 L 22.156,-52.4222
 L 22.0725,-52.6033 L 21.983,-52.7815 L 21.8876,-52.9567 L 21.7864,-53.1286 L 21.6796,-53.297 L 21.5672,-53.4618
 L 21.4495,-53.6228 L 21.3264,-53.7798 L 21.1982,-53.9326 L 21.065,-54.081 L 20.9269,-54.225 L 20.7841,-54.3642
 L 20.6368,-54.4987 L 20.4851,-54.6282 L 20.3291,-54.7525 L 20.1691,-54.8716 L 20.0053,-54.9854 L 19.8377,-55.0936
 L 19.6667,-55.1962 L 19.4923,-55.293 L 19.3148,-55.384 L 19.1344,-55.469 L 18.9512,-55.548 L 18.7656,-55.6209
 L 18.5776,-55.6876 L 18.3875,-55.7479 L 18.1955,-55.802 L 18.0018,-55.8496 L 17.8066,-55.8907 L 17.6102,-55.9253
 L 17.4127,-55.9534 L 17.2144,-55.9749 L 17.0155,-55.9898 L 16.8163,-55.9981 L 16.6168,-55.9998 L 16.4174,-55.9948
 L 16.2183,-55.9832 L 16.0197,-55.965 L 15.8218,-55.9402 L 15.6248,-55.9088 L 15.429,-55.8709 L 15.2345,-55.8266
 L 15.0416,-55.7757 L 14.8506,-55.7185 L 14.6615,-55.655 L 14.4746,-55.5852 L 14.2902,-55.5093 L 14.1084,-55.4273
 L 13.9294,-55.3392 L 13.7535,-55.2453 L 13.5807,-55.1456 L 13.4114,-55.0401 L 13.2457,-54.9292 L 13.0837,-54.8127
 L 12.9257,-54.691 L 12.7719,-54.564 L 12.6223,-54.4321 L 12.4772,-54.2952 L 12.3368,-54.1536 L 12.2011,-54.0074
 L 12.0704,-53.8567 L 11.9448,-53.7018 L 11.8243,-53.5428 L 11.7092,-53.3799 L 11.5996,-53.2133 L 11.4956,-53.0431
 L 11.3973,-52.8695 L 11.3049,-52.6928 L 11.2183,-52.5131 L 11.1378,-52.3306 L 11.0634,-52.1455 L 10.9952,-51.9581
 L 10.9332,-51.7685 L 10.8776,-51.577 L 10.8284,-51.3837 L 10.7856,-51.1889 L 10.7494,-50.9927 L 10.7197,-50.7955
 L 10.6965,-50.5974 L 10.6799,-50.3986 L 10.67,-50.1994 L 10.6667,-50 L 10.67,-49.8006 L 10.6799,-49.6014
 L 10.6965,-49.4026 L 10.7197,-49.2045 L 10.7494,-49.0073 L 10.7856,-48.8111 L 10.8284,-48.6163 L 10.8776,-48.423
 L 10.9332,-48.2315 L 10.9952,-48.0419 L 11.0634,-47.8545 L 11.1378,-47.6694 L 11.2183,-47.4869 L 11.3049,-47.3072
 L 11.3973,-47.1305 L 11.4956,-46.9569 L 11.5996,-46.7867 L 11.7092,-46.6201 L 11.8243,-46.4572 L 11.9448,-46.2982
 L 12.0704,-46.1433 L 12.2011,-45.9926 L 12.3368,-45.8464 L 12.4772,-45.7048 L 12.6223,-45.5679 L 12.7719,-45.436
 L 12.9257,-45.309 L 13.0837,-45.1873 L 13.2457,-45.0708 L 13.4114,-44.9599 L 13.5807,-44.8544 L 13.7535,-44.7547
 L 13.9294,-44.6608 L 14.1084,-44.5727 L 14.2902,-44.4907 L 14.4746,-44.4148 L 14.6615,-44.345 L 14.8506,-44.2815
 L 15.0416,-44.2243 L 15.2345,-44.1734 L 15.429,-44.1291 L 15.6248,-44.0912 L 15.8218,-44.0598 L 16.0197,-44.035
 L 16.2183,-44.0168 L 16.4174,-44.0052 L 16.6168,-44.0002 z
M 83.4828,-48.0056 L 83.6806,-48.0304 L 83.875,-48.0748 L 84.064,-48.1383 L 84.2457,-48.2203 L 84.4184,-48.32
 L 84.5803,-48.4363 L 84.7298,-48.5683 L 84.8654,-48.7144 L 84.9858,-48.8734 L 85.0898,-49.0435 L 85.1763,-49.2231
 L 85.2445,-49.4105 L 85.2937,-49.6037 L 85.3234,-49.8009 L 85.3333,-50 L 85.3234,-50.1991 L 85.2937,-50.3963
 L 85.2445,-50.5895 L 85.1763,-50.7769 L 85.0898,-50.9565 L 84.9858,-51.1266 L 84.8654,-51.2856 L 84.7298,-51.4317
 L 84.5803,-51.5637 L 84.4184,-51.68 L 84.2457,-51.7797 L 84.064,-51.8617 L 83.875,-51.9252 L 83.6806,-51.9696
 L 83.4828,-51.9944 L 83.2835,-51.9994 L 83.0846,-51.9845 L 82.8883,-51.9498 L 82.6964,-51.8958 L 82.5108,-51.823
 L 82.3333,-51.732 L 82.1658,-51.6239 L 82.0099,-51.4996 L 81.8672,-51.3603 L 81.7391,-51.2076 L 81.6267,-51.0429
 L 81.5314,-50.8678 L 81.4539,-50.684 L 81.3952,-50.4935 L 81.3557,-50.2981 L 81.3358,-50.0997 L 81.3358,-49.9003
 L 81.3557,-49.7019 L 81.3952,-49.5065 L 81.4539,-49.316 L 81.5314,-49.1322 L 81.6267,-48.9571 L 81.7391,-48.7924
 L 81.8672,-48.6397 L 82.0099,-48.5004 L 82.1658,-48.3761 L 82.3333,-48.268 L 82.5108,-48.177 L 82.6964,-48.1042
 L 82.8883,-48.0502 L 83.0846,-48.0155 L 83.2835,-48.0006 z
M 21.3319,-28.0037 L 21.5311,-28.0149 L 21.7296,-28.0335 L 21.9274,-28.0596 L 22.124,-28.093 L 22.3193,-28.1337
 L 22.5129,-28.1817 L 22.7045,-28.237 L 22.894,-28.2993 L 23.081,-28.3687 L 23.2653,-28.445 L 23.4465,-28.5282
 L 23.6246,-28.6181 L 23.7992,-28.7145 L 23.97,-28.8175 L 24.1369,-28.9267 L 24.2995,-29.0422 L 24.4578,-29.1636
 L 24.6114,-29.2908 L 24.7601,-29.4237 L 24.9037,-29.5621 L 25.0421,-29.7057 L 25.175,-29.8545 L 25.3023,-30.0081
 L 25.4237,-30.1663 L 25.5391,-30.329 L 25.6484,-30.4958 L 25.7513,-30.6667 L 25.8478,-30.8412 L 25.9377,-31.0193
 L 26.0208,-31.2006 L 26.0972,-31.3849 L 26.1665,-31.5719 L 26.2289,-31.7613 L 26.2841,-31.953 L 26.3321,-32.1466
 L 26.3728,-32.3418 L 26.4063,-32.5385 L 26.4323,-32.7362 L 26.4509,-32.9348 L 26.4621,-33.1339 L 26.4658,-33.3333
 L 26.4621,-33.5328 L 26.4509,-33.7319 L 26.4323,-33.9305 L 26.4063,-34.1282 L 26.3728,-34.3249 L 26.3321,-34.5201
 L 26.2841,-34.7137 L 26.2289,-34.9054 L 26.1665,-35.0948 L 26.0972,-35.2818 L 26.0208,-35.4661 L 25.9377,-35.6474
 L 25.8478,-35.8254 L 25.7513,-36 L 25.6484,-36.1709 L 25.5391,-36.3377 L 25.4237,-36.5004 L 25.3023,-36.6586
 L 25.175,-36.8122 L 25.0421,-36.9609 L 24.9037,-37.1046 L 24.7601,-37.243 L 24.6114,-37.3759 L 24.4578,-37.5031
 L 24.2995,-37.6245 L 24.1369,-37.7399 L 23.97,-37.8492 L 23.7992,-37.9521 L 23.6246,-38.0486 L 23.4465,-38.1385
 L 23.2653,-38.2217 L 23.081,-38.298 L 22.894,-38.3674 L 22.7045,-38.4297 L 22.5129,-38.4849 L 22.3193,-38.533
 L 22.124,-38.5737 L 21.9274,-38.6071 L 21.7296,-38.6331 L 21.5311,-38.6518 L 21.3319,-38.6629 L 21.1325,-38.6667
 L 20.9331,-38.6629 L 20.7339,-38.6518 L 20.5354,-38.6331 L 20.3376,-38.6071 L 20.141,-38.5737 L 19.9457,-38.533
 L 19.7521,-38.4849 L 19.5605,-38.4297 L 19.371,-38.3674 L 19.184,-38.298 L 18.9997,-38.2217 L 18.8185,-38.1385
 L 18.6404,-38.0486 L 18.4658,-37.9521 L 18.295,-37.8492 L 18.1281,-37.7399 L 17.9655,-37.6245 L 17.8072,-37.5031
 L 17.6536,-37.3759 L 17.5049,-37.243 L 17.3613,-37.1046 L 17.2229,-36.9609 L 17.09,-36.8122 L 16.9627,-36.6586
 L 16.8413,-36.5004 L 16.7259,-36.3377 L 16.6166,-36.1709 L 16.5137,-36 L 16.4172,-35.8254 L 16.3273,-35.6474
 L 16.2442,-35.4661 L 16.1678,-35.2818 L 16.0984,-35.0948 L 16.0361,-34.9054 L 15.9809,-34.7137 L 15.9329,-34.5201
 L 15.8921,-34.3249 L 15.8587,-34.1282 L 15.8327,-33.9305 L 15.8141,-33.7319 L 15.8029,-33.5328 L 15.7992,-33.3333
 L 15.8029,-33.1339 L 15.8141,-32.9348 L 15.8327,-32.7362 L 15.8587,-32.5385 L 15.8921,-32.3418 L 15.9329,-32.1466
 L 15.9809,-31.953 L 16.0361,-31.7613 L 16.0984,-31.5719 L 16.1678,-31.3849 L 16.2442,-31.2006 L 16.3273,-31.0193
 L 16.4172,-30.8412 L 16.5137,-30.6667 L 16.6166,-30.4958 L 16.7259,-30.329 L 16.8413,-30.1663 L 16.9627,-30.0081
 L 17.09,-29.8545 L 17.2229,-29.7057 L 17.3613,-29.5621 L 17.5049,-29.4237 L 17.6536,-29.2908 L 17.8072,-29.1636
 L 17.9655,-29.0422 L 18.1281,-28.9267 L 18.295,-28.8175 L 18.4658,-28.7145 L 18.6404,-28.6181 L 18.8185,-28.5282
 L 18.9997,-28.445 L 19.184,-28.3687 L 19.371,-28.2993 L 19.5605,-28.237 L 19.7521,-28.1817 L 19.9457,-28.1337
 L 20.141,-28.093 L 20.3376,-28.0596 L 20.5354,-28.0335 L 20.7339,-28.0149 L 20.9331,-28.0037 L 21.1325,-28
 z
M 79.0668,-30.6741 L 79.265,-30.6965 L 79.4609,-30.7335 L 79.6535,-30.7851 L 79.8418,-30.851 L 80.0245,-30.9308
 L 80.2008,-31.0239 L 80.3697,-31.13 L 80.5302,-31.2485 L 80.6813,-31.3785 L 80.8223,-31.5195 L 80.9524,-31.6707
 L 81.0708,-31.8312 L 81.1769,-32 L 81.2701,-32.1763 L 81.3498,-32.3591 L 81.4157,-32.5473 L 81.4673,-32.7399
 L 81.5044,-32.9359 L 81.5267,-33.1341 L 81.5342,-33.3333 L 81.5267,-33.5326 L 81.5044,-33.7308 L 81.4673,-33.9267
 L 81.4157,-34.1194 L 81.3498,-34.3076 L 81.2701,-34.4904 L 81.1769,-34.6667 L 81.0708,-34.8355 L 80.9524,-34.996
 L 80.8223,-35.1471 L 80.6813,-35.2881 L 80.5302,-35.4182 L 80.3697,-35.5367 L 80.2008,-35.6427 L 80.0245,-35.7359
 L 79.8418,-35.8157 L 79.6535,-35.8815 L 79.4609,-35.9332 L 79.265,-35.9702 L 79.0668,-35.9926 L 78.8675,-36
 L 78.6682,-35.9926 L 78.4701,-35.9702 L 78.2741,-35.9332 L 78.0815,-35.8815 L 77.8933,-35.8157 L 77.7105,-35.7359
 L 77.5342,-35.6427 L 77.3653,-35.5367 L 77.2049,-35.4182 L 77.0537,-35.2881 L 76.9127,-35.1471 L 76.7826,-34.996
 L 76.6642,-34.8355 L 76.5581,-34.6667 L 76.4649,-34.4904 L 76.3852,-34.3076 L 76.3193,-34.1194 L 76.2677,-33.9267
 L 76.2306,-33.7308 L 76.2083,-33.5326 L 76.2008,-33.3333 L 76.2083,-33.1341 L 76.2306,-32.9359 L 76.2677,-32.7399
 L 76.3193,-32.5473 L 76.3852,-32.3591 L 76.4649,-32.1763 L 76.5581,-32 L 76.6642,-31.8312 L 76.7826,-31.6707
 L 76.9127,-31.5195 L 77.0537,-31.3785 L 77.2049,-31.2485 L 77.3653,-31.13 L 77.5342,-31.0239 L 77.7105,-30.9308
 L 77.8933,-30.851 L 78.0815,-30.7851 L 78.2741,-30.7335 L 78.4701,-30.6965 L 78.6682,-30.6741 L 78.8675,-30.6667
 z
M 33.4829,-16.4682 L 33.6821,-16.4789 L 33.8806,-16.498 L 34.0781,-16.5257 L 34.2743,-16.5617 L 34.4688,-16.6061
 L 34.6611,-16.6587 L 34.8511,-16.7195 L 35.0383,-16.7884 L 35.2223,-16.8652 L 35.4029,-16.9498 L 35.5798,-17.0421
 L 35.7525,-17.1418 L 35.9208,-17.2488 L 36.0844,-17.3629 L 36.243,-17.4839 L 36.3962,-17.6116 L 36.5439,-17.7457
 L 36.6856,-17.886 L 36.8213,-18.0322 L 36.9506,-18.1841 L 37.0733,-18.3413 L 37.1891,-18.5037 L 37.2979,-18.6708
 L 37.3995,-18.8425 L 37.4936,-19.0183 L 37.5802,-19.198 L 37.659,-19.3812 L 37.7298,-19.5677 L 37.7927,-19.757
 L 37.8474,-19.9488 L 37.8938,-20.1427 L 37.932,-20.3385 L 37.9617,-20.5357 L 37.983,-20.7341 L 37.9957,-20.9331
 L 38,-21.1325 L 37.9957,-21.3319 L 37.983,-21.5309 L 37.9617,-21.7292 L 37.932,-21.9265 L 37.8938,-22.1223
 L 37.8474,-22.3162 L 37.7927,-22.508 L 37.7298,-22.6973 L 37.659,-22.8837 L 37.5802,-23.067 L 37.4936,-23.2467
 L 37.3995,-23.4225 L 37.2979,-23.5942 L 37.1891,-23.7613 L 37.0733,-23.9237 L 36.9506,-24.0809 L 36.8213,-24.2328
 L 36.6856,-24.379 L 36.5439,-24.5193 L 36.3962,-24.6534 L 36.243,-24.781 L 36.0844,-24.902 L 35.9208,-25.0161
 L 35.7525,-25.1232 L 35.5798,-25.2229 L 35.4029,-25.3151 L 35.2223,-25.3997 L 35.0383,-25.4766 L 34.8511,-25.5455
 L 34.6611,-25.6063 L 34.4688,-25.6589 L 34.2743,-25.7033 L 34.0781,-25.7393 L 33.8806,-25.767 L 33.6821,-25.7861
 L 33.4829,-25.7968 L 33.2835,-25.7989 L 33.0841,-25.7925 L 32.8852,-25.7776 L 32.6872,-25.7542 L 32.4903,-25.7224
 L 32.2949,-25.6822 L 32.1015,-25.6336 L 31.9102,-25.5769 L 31.7216,-25.512 L 31.536,-25.4391 L 31.3536,-25.3584
 L 31.1748,-25.27 L 31,-25.174 L 30.8295,-25.0706 L 30.6635,-24.96 L 30.5023,-24.8424 L 30.3464,-24.718
 L 30.1959,-24.5871 L 30.0512,-24.4499 L 29.9124,-24.3066 L 29.7799,-24.1576 L 29.6539,-24.003 L 29.5346,-23.8431
 L 29.4223,-23.6783 L 29.317,-23.5089 L 29.2192,-23.3351 L 29.1288,-23.1573 L 29.0461,-22.9758 L 28.9713,-22.7909
 L 28.9044,-22.603 L 28.8456,-22.4124 L 28.795,-22.2195 L 28.7527,-22.0246 L 28.7188,-21.828 L 28.6933,-21.6302
 L 28.6763,-21.4315 L 28.6677,-21.2322 L 28.6677,-21.0328 L 28.6763,-20.8335 L 28.6933,-20.6348 L 28.7188,-20.437
 L 28.7527,-20.2404 L 28.795,-20.0455 L 28.8456,-19.8526 L 28.9044,-19.662 L 28.9713,-19.4741 L 29.0461,-19.2892
 L 29.1288,-19.1077 L 29.2192,-18.9299 L 29.317,-18.7561 L 29.4223,-18.5867 L 29.5346,-18.4219 L 29.6539,-18.262
 L 29.7799,-18.1074 L 29.9124,-17.9584 L 30.0512,-17.8151 L 30.1959,-17.6779 L 30.3464,-17.547 L 30.5023,-17.4226
 L 30.6635,-17.305 L 30.8295,-17.1944 L 31,-17.091 L 31.1748,-16.995 L 31.3536,-16.9066 L 31.536,-16.8258
 L 31.7216,-16.753 L 31.9102,-16.6881 L 32.1015,-16.6314 L 32.2949,-16.5828 L 32.4903,-16.5426 L 32.6872,-16.5108
 L 32.8852,-16.4874 L 33.0841,-16.4725 L 33.2835,-16.4661 z
M 66.8162,-17.8025 L 67.0151,-17.8174 L 67.2127,-17.8442 L 67.4084,-17.8827 L 67.6014,-17.9329 L 67.7911,-17.9945
 L 67.9767,-18.0674 L 68.1577,-18.1512 L 68.3333,-18.2457 L 68.503,-18.3506 L 68.6661,-18.4654 L 68.822,-18.5897
 L 68.9702,-18.7232 L 69.1102,-18.8652 L 69.2414,-19.0154 L 69.3634,-19.1732 L 69.4757,-19.338 L 69.578,-19.5092
 L 69.6699,-19.6862 L 69.751,-19.8684 L 69.8211,-20.0551 L 69.8799,-20.2457 L 69.9272,-20.4395 L 69.9628,-20.6357
 L 69.9866,-20.8337 L 69.9985,-21.0328 L 69.9985,-21.2322 L 69.9866,-21.4313 L 69.9628,-21.6293 L 69.9272,-21.8255
 L 69.8799,-22.0193 L 69.8211,-22.2099 L 69.751,-22.3966 L 69.6699,-22.5788 L 69.578,-22.7558 L 69.4757,-22.927
 L 69.3634,-23.0918 L 69.2414,-23.2495 L 69.1102,-23.3997 L 68.9702,-23.5418 L 68.822,-23.6753 L 68.6661,-23.7996
 L 68.503,-23.9144 L 68.3333,-24.0192 L 68.1577,-24.1138 L 67.9767,-24.1976 L 67.7911,-24.2704 L 67.6014,-24.3321
 L 67.4084,-24.3822 L 67.2127,-24.4208 L 67.0151,-24.4476 L 66.8162,-24.4625 L 66.6168,-24.4655 L 66.4176,-24.4565
 L 66.2192,-24.4357 L 66.0225,-24.403 L 65.828,-24.3586 L 65.6366,-24.3027 L 65.4489,-24.2354 L 65.2655,-24.157
 L 65.0871,-24.0678 L 64.9144,-23.9681 L 64.7479,-23.8582 L 64.5884,-23.7386 L 64.4362,-23.6096 L 64.2921,-23.4718
 L 64.1564,-23.3256 L 64.0298,-23.1716 L 63.9125,-23.0102 L 63.8052,-22.8422 L 63.708,-22.668 L 63.6215,-22.4883
 L 63.5459,-22.3037 L 63.4814,-22.115 L 63.4284,-21.9228 L 63.3869,-21.7277 L 63.3572,-21.5305 L 63.3393,-21.3318
 L 63.3333,-21.1325 L 63.3393,-20.9332 L 63.3572,-20.7345 L 63.3869,-20.5373 L 63.4284,-20.3422 L 63.4814,-20.15
 L 63.5459,-19.9612 L 63.6215,-19.7767 L 63.708,-19.597 L 63.8052,-19.4228 L 63.9125,-19.2548 L 64.0298,-19.0934
 L 64.1564,-18.9394 L 64.2921,-18.7932 L 64.4362,-18.6553 L 64.5884,-18.5264 L 64.7479,-18.4068 L 64.9144,-18.2969
 L 65.0871,-18.1972 L 65.2655,-18.108 L 65.4489,-18.0296 L 65.6366,-17.9623 L 65.828,-17.9064 L 66.0225,-17.862
 L 66.2192,-17.8293 L 66.4176,-17.8085 L 66.6168,-17.7995 z
M 50.1994,-12.6716 L 50.3983,-12.6866 L 50.5962,-12.7113 L 50.7926,-12.746 L 50.987,-12.7904 L 51.179,-12.8444
 L 51.3681,-12.9079 L 51.5537,-12.9808 L 51.7355,-13.0628 L 51.913,-13.1538 L 52.0857,-13.2535 L 52.2533,-13.3617
 L 52.4152,-13.4781 L 52.5711,-13.6025 L 52.7207,-13.7345 L 52.8635,-13.8737 L 52.9991,-14.0199 L 53.1273,-14.1727
 L 53.2477,-14.3317 L 53.3601,-14.4965 L 53.4641,-14.6667 L 53.5595,-14.8418 L 53.646,-15.0215 L 53.7235,-15.2053
 L 53.7917,-15.3927 L 53.8505,-15.5833 L 53.8997,-15.7766 L 53.9392,-15.9721 L 53.9689,-16.1693 L 53.9888,-16.3678
 L 53.9987,-16.567 L 53.9987,-16.7664 L 53.9888,-16.9656 L 53.9689,-17.164 L 53.9392,-17.3613 L 53.8997,-17.5568
 L 53.8505,-17.75 L 53.7917,-17.9406 L 53.7235,-18.128 L 53.646,-18.3118 L 53.5595,-18.4915 L 53.4641,-18.6667
 L 53.3601,-18.8369 L 53.2477,-19.0016 L 53.1273,-19.1606 L 52.9991,-19.3134 L 52.8635,-19.4596 L 52.7207,-19.5989
 L 52.5711,-19.7309 L 52.4152,-19.8552 L 52.2533,-19.9716 L 52.0857,-20.0798 L 51.913,-20.1796 L 51.7355,-20.2706
 L 51.5537,-20.3526 L 51.3681,-20.4254 L 51.179,-20.489 L 50.987,-20.543 L 50.7926,-20.5874 L 50.5962,-20.622
 L 50.3983,-20.6468 L 50.1994,-20.6617 L 50,-20.6667 L 49.8006,-20.6617 L 49.6017,-20.6468 L 49.4038,-20.622
 L 49.2074,-20.5874 L 49.013,-20.543 L 48.821,-20.489 L 48.6319,-20.4254 L 48.4463,-20.3526 L 48.2645,-20.2706
 L 48.087,-20.1796 L 47.9143,-20.0798 L 47.7467,-19.9716 L 47.5848,-19.8552 L 47.4289,-19.7309 L 47.2793,-19.5989
 L 47.1365,-19.4596 L 47.0009,-19.3134 L 46.8727,-19.1606 L 46.7523,-19.0016 L 46.6399,-18.8369 L 46.5359,-18.6667
 L 46.4405,-18.4915 L 46.354,-18.3118 L 46.2765,-18.128 L 46.2083,-17.9406 L 46.1495,-17.75 L 46.1003,-17.5568
 L 46.0608,-17.3613 L 46.0311,-17.164 L 46.0112,-16.9656 L 46.0013,-16.7664 L 46.0013,-16.567 L 46.0112,-16.3678
 L 46.0311,-16.1693 L 46.0608,-15.9721 L 46.1003,-15.7766 L 46.1495,-15.5833 L 46.2083,-15.3927 L 46.2765,-15.2053
 L 46.354,-15.0215 L 46.4405,-14.8418 L 46.5359,-14.6667 L 46.6399,-14.4965 L 46.7523,-14.3317 L 46.8727,-14.1727
 L 47.0009,-14.0199 L 47.1365,-13.8737 L 47.2793,-13.7345 L 47.4289,-13.6025 L 47.5848,-13.4781 L 47.7467,-13.3617
 L 47.9143,-13.2535 L 48.087,-13.1538 L 48.2645,-13.0628 L 48.4463,-12.9808 L 48.6319,-12.9079 L 48.821,-12.8444
 L 49.013,-12.7904 L 49.2074,-12.746 L 49.4038,-12.7113 L 49.6017,-12.6866 L 49.8006,-12.6716 L 50,-12.6667
 z
" stroke="black" fill="black" stroke-width="0.5"/>
</svg>
