<?xml version="1.0" standalone="no"?>
<!DOCTYPE svg PUBLIC "-//W3C//DTD SVG 1.1//EN" "http://www.w3.org/Graphics/SVG/1.1/DTD/svg11.dtd">
<svg width="100mm" height="100mm" viewBox="-8 -108 116 116" xmlns="http://www.w3.org/2000/svg" version="1.1">
<title>OpenSCAD Model</title>
<path d="
M 85.4038,-28.0155 L 85.5179,-28.057 L 85.6975,-28.1436 L 85.8676,-28.2475 L 86.0266,-28.3679 L 86.1727,-28.5035
 L 86.3047,-28.653 L 86.4211,-28.8149 L 86.4701,-28.8999 L 86.4842,-28.9205 L 86.5201,-28.9865 L 86.5208,-28.9876
 L 86.5209,-28.988 L 86.5795,-29.0956 L 86.657,-29.2793 L 86.7158,-29.4698 L 86.7553,-29.6653 L 86.7751,-29.8637
 L 86.7751,-30.063 L 86.7553,-30.2614 L 86.741,-30.332 L 86.741,-69.5947 L 86.7553,-69.6653 L 86.7751,-69.8637
 L 86.7751,-69.9619 L 86.777,-69.9868 L 86.7751,-70.0614 L 86.7751,-70.063 L 86.7751,-70.0636 L 86.772,-70.1861
 L 86.7472,-70.3839 L 86.7029,-70.5783 L 86.6394,-70.7673 L 86.5573,-70.9491 L 86.5083,-71.034 L 86.4975,-71.0565
 L 86.4584,-71.1205 L 86.4576,-71.1217 L 86.4574,-71.1221 L 86.3935,-71.2266 L 86.2731,-71.3856 L 86.1375,-71.5317
 L 85.988,-71.6637 L 85.8261,-71.78 L 85.7411,-71.8291 L 85.7205,-71.8432 L 85.6545,-71.8791 L 85.6534,-71.8797
 L 85.653,-71.8799 L 85.5454,-71.9385 L 85.3617,-72.016 L 85.3349,-72.0242 L 51.3372,-91.6529 L 51.2443,-91.7308
 L 51.0796,-91.8431 L 50.9045,-91.9385 L 50.7207,-92.0159 L 50.5302,-92.0747 L 50.3348,-92.1142 L 50.1364,-92.1341
 L 50.0381,-92.1341 L 50.013,-92.136 L 49.9382,-92.1341 L 49.937,-92.1341 L 49.9366,-92.1341 L 49.8136,-92.131
 L 49.6158,-92.1062 L 49.4214,-92.0618 L 49.2324,-91.9982 L 49.0507,-91.9162 L 48.8781,-91.8165 L 48.7162,-91.7001
 L 48.6624,-91.6526 L 14.6599,-72.0213 L 14.5917,-71.9983 L 14.4099,-71.9163 L 14.325,-71.8673 L 14.3025,-71.8564
 L 14.2385,-71.8174 L 14.2373,-71.8166 L 14.2369,-71.8163 L 14.1324,-71.7525 L 13.9734,-71.6321 L 13.8273,-71.4965
 L 13.6953,-71.347 L 13.5789,-71.1851 L 13.5299,-71.1001 L 13.5158,-71.0795 L 13.4799,-71.0135 L 13.4792,-71.0124
 L 13.4791,-71.012 L 13.4205,-70.9044 L 13.343,-70.7207 L 13.2842,-70.5301 L 13.2447,-70.3347 L 13.2249,-70.1363
 L 13.2249,-70.0384 L 13.223,-70.0136 L 13.2249,-69.9385 L 13.2249,-69.9369 L 13.2249,-69.9364 L 13.228,-69.8143
 L 13.2527,-69.6164 L 13.259,-69.5889 L 13.259,-30.3316 L 13.2379,-30.2121 L 13.223,-30.0133 L 13.228,-29.814
 L 13.2528,-29.6161 L 13.2971,-29.4218 L 13.3606,-29.2327 L 13.4426,-29.051 L 13.4917,-28.966 L 13.5025,-28.9435
 L 13.5416,-28.8796 L 13.5423,-28.8783 L 13.5426,-28.878 L 13.6065,-28.7734 L 13.7269,-28.6144 L 13.8625,-28.4683
 L 14.012,-28.3363 L 14.1739,-28.2199 L 14.3466,-28.1203 L 14.5283,-28.0383 L 14.5965,-28.0153 L 34.4566,-16.5491
 L 36.5404,-20.1958 L 17.459,-31.2124 L 17.459,-66.3627 L 47.9,-48.7875 L 47.9,-46 L 52.1,-46
 L 52.1,-48.7875 L 82.541,-66.3627 L 82.541,-31.2124 L 63.4596,-20.1958 L 65.5434,-16.5491 z
M 19.559,-70 L 50,-87.5751 L 80.441,-70 L 50,-52.4249 z
M 64.4,-4.8 L 62,-4.8 L 61.9391,-5.10614 L 52.514,-22.3854 L 61.9391,-38.0938 L 62,-38.4
 L 64.4,-38.4 L 64.4,-41.6 L 35.6,-41.6 L 35.6,-38.4 L 38,-38.4 L 38.0609,-38.0938
 L 47.486,-22.3854 L 38.0609,-5.10614 L 38,-4.8 L 35.6,-4.8 L 35.6,-1.60001 L 64.4,-1.60001
 z
M 39.7061,-4.8 L 49.1391,-22.0938 L 49.2,-22.4 L 49.1391,-22.7061 L 39.7228,-38.4 L 60.2772,-38.4
 L 50.8609,-22.7061 L 50.8,-22.4 L 50.8609,-22.0938 L 60.2939,-4.8 z
M 50.16,-9.60001 L 50.32,-23.2 L 56.4,-33.6 L 43.6,-33.6 L 49.68,-23.2 L 49.84,-9.60001
 L 42,-5.60001 L 58,-5.60001 z
" stroke="black" fill="black" stroke-width="0.5"/>
</svg>
