solid ascii
  facet normal 0.000000e+000 -0.000000e+000 1.000000e+000
    outer loop
      vertex   3.422440e+000 -1.067730e+001 5.000000e+000
      vertex   6.347434e+000 -1.067730e+001 5.000000e+000
      vertex   3.422440e+000 8.281660e+000 5.000000e+000
    endloop
  endfacet
  facet normal -0.000000e+000 0.000000e+000 1.000000e+000
    outer loop
      vertex   3.422440e+000 8.281660e+000 5.000000e+000
      vertex   6.347434e+000 -1.067730e+001 5.000000e+000
      vertex   6.347434e+000 1.133150e+001 5.000000e+000
    endloop
  endfacet
  facet normal -0.000000e+000 0.000000e+000 1.000000e+000
    outer loop
      vertex   2.280978e+000 1.133150e+001 5.000000e+000
      vertex   3.422440e+000 8.281660e+000 5.000000e+000
      vertex   6.347434e+000 1.133150e+001 5.000000e+000
    endloop
  endfacet
  facet normal -0.000000e+000 0.000000e+000 1.000000e+000
    outer loop
      vertex   2.280978e+000 1.133150e+001 5.000000e+000
      vertex   -3.033951e+000 -9.213713e-001 5.000000e+000
      vertex   3.422440e+000 8.281660e+000 5.000000e+000
    endloop
  endfacet
  facet normal 0.000000e+000 0.000000e+000 1.000000e+000
    outer loop
      vertex   3.422440e+000 8.281660e+000 5.000000e+000
      vertex   -3.033951e+000 -9.213713e-001 5.000000e+000
      vertex   -2.320538e+000 -4.613285e+000 5.000000e+000
    endloop
  endfacet
  facet normal 0.000000e+000 0.000000e+000 1.000000e+000
    outer loop
      vertex   -2.320538e+000 -4.613285e+000 5.000000e+000
      vertex   -3.033951e+000 -9.213713e-001 5.000000e+000
      vertex   -4.104071e+000 -4.613285e+000 5.000000e+000
    endloop
  endfacet
  facet normal 0.000000e+000 -0.000000e+000 1.000000e+000
    outer loop
      vertex   -4.104071e+000 -4.613285e+000 5.000000e+000
      vertex   -3.033951e+000 -9.213713e-001 5.000000e+000
      vertex   -9.793542e+000 8.281660e+000 5.000000e+000
    endloop
  endfacet
  facet normal -0.000000e+000 -0.000000e+000 1.000000e+000
    outer loop
      vertex   -9.793542e+000 8.281660e+000 5.000000e+000
      vertex   -3.033951e+000 -9.213713e-001 5.000000e+000
      vertex   -8.527233e+000 1.133150e+001 5.000000e+000
    endloop
  endfacet
  facet normal -0.000000e+000 0.000000e+000 1.000000e+000
    outer loop
      vertex   -1.252235e+001 1.133150e+001 5.000000e+000
      vertex   -9.793542e+000 8.281660e+000 5.000000e+000
      vertex   -8.527233e+000 1.133150e+001 5.000000e+000
    endloop
  endfacet
  facet normal -0.000000e+000 0.000000e+000 1.000000e+000
    outer loop
      vertex   -1.252235e+001 1.133150e+001 5.000000e+000
      vertex   -1.252235e+001 -1.067730e+001 5.000000e+000
      vertex   -9.793542e+000 8.281660e+000 5.000000e+000
    endloop
  endfacet
  facet normal -0.000000e+000 0.000000e+000 1.000000e+000
    outer loop
      vertex   -9.793542e+000 8.281660e+000 5.000000e+000
      vertex   -1.252235e+001 -1.067730e+001 5.000000e+000
      vertex   -9.793542e+000 -1.067730e+001 5.000000e+000
    endloop
  endfacet
  facet normal 0.000000e+000 -1.000000e+000 0.000000e+000
    outer loop
      vertex   -1.252235e+001 1.133150e+001 1.500000e+001
      vertex   -1.252235e+001 1.133150e+001 5.000000e+000
      vertex   -8.527233e+000 1.133150e+001 1.500000e+001
    endloop
  endfacet
  facet normal 0.000000e+000 -1.000000e+000 -0.000000e+000
    outer loop
      vertex   -8.527233e+000 1.133150e+001 1.500000e+001
      vertex   -1.252235e+001 1.133150e+001 5.000000e+000
      vertex   -8.527233e+000 1.133150e+001 5.000000e+000
    endloop
  endfacet
  facet normal -9.124922e-001 -4.090940e-001 -0.000000e+000
    outer loop
      vertex   -8.527233e+000 1.133150e+001 1.500000e+001
      vertex   -8.527233e+000 1.133150e+001 5.000000e+000
      vertex   -3.033951e+000 -9.213713e-001 1.500000e+001
    endloop
  endfacet
  facet normal -9.124922e-001 -4.090940e-001 0.000000e+000
    outer loop
      vertex   -3.033951e+000 -9.213713e-001 1.500000e+001
      vertex   -8.527233e+000 1.133150e+001 5.000000e+000
      vertex   -3.033951e+000 -9.213713e-001 5.000000e+000
    endloop
  endfacet
  facet normal 9.174094e-001 -3.979447e-001 0.000000e+000
    outer loop
      vertex   -3.033951e+000 -9.213713e-001 1.500000e+001
      vertex   -3.033951e+000 -9.213713e-001 5.000000e+000
      vertex   2.280978e+000 1.133150e+001 1.500000e+001
    endloop
  endfacet
  facet normal 9.174094e-001 -3.979447e-001 0.000000e+000
    outer loop
      vertex   2.280978e+000 1.133150e+001 1.500000e+001
      vertex   -3.033951e+000 -9.213713e-001 5.000000e+000
      vertex   2.280978e+000 1.133150e+001 5.000000e+000
    endloop
  endfacet
  facet normal 0.000000e+000 -1.000000e+000 0.000000e+000
    outer loop
      vertex   2.280978e+000 1.133150e+001 1.500000e+001
      vertex   2.280978e+000 1.133150e+001 5.000000e+000
      vertex   6.347434e+000 1.133150e+001 1.500000e+001
    endloop
  endfacet
  facet normal 0.000000e+000 -1.000000e+000 -0.000000e+000
    outer loop
      vertex   6.347434e+000 1.133150e+001 1.500000e+001
      vertex   2.280978e+000 1.133150e+001 5.000000e+000
      vertex   6.347434e+000 1.133150e+001 5.000000e+000
    endloop
  endfacet
  facet normal -1.000000e+000 -0.000000e+000 -0.000000e+000
    outer loop
      vertex   6.347434e+000 1.133150e+001 1.500000e+001
      vertex   6.347434e+000 1.133150e+001 5.000000e+000
      vertex   6.347434e+000 -1.067730e+001 1.500000e+001
    endloop
  endfacet
  facet normal -1.000000e+000 -0.000000e+000 -0.000000e+000
    outer loop
      vertex   6.347434e+000 -1.067730e+001 1.500000e+001
      vertex   6.347434e+000 1.133150e+001 5.000000e+000
      vertex   6.347434e+000 -1.067730e+001 5.000000e+000
    endloop
  endfacet
  facet normal 0.000000e+000 1.000000e+000 0.000000e+000
    outer loop
      vertex   6.347434e+000 -1.067730e+001 1.500000e+001
      vertex   6.347434e+000 -1.067730e+001 5.000000e+000
      vertex   3.422440e+000 -1.067730e+001 1.500000e+001
    endloop
  endfacet
  facet normal 0.000000e+000 1.000000e+000 0.000000e+000
    outer loop
      vertex   3.422440e+000 -1.067730e+001 1.500000e+001
      vertex   6.347434e+000 -1.067730e+001 5.000000e+000
      vertex   3.422440e+000 -1.067730e+001 5.000000e+000
    endloop
  endfacet
  facet normal 1.000000e+000 -0.000000e+000 0.000000e+000
    outer loop
      vertex   3.422440e+000 -1.067730e+001 1.500000e+001
      vertex   3.422440e+000 -1.067730e+001 5.000000e+000
      vertex   3.422440e+000 8.281660e+000 1.500000e+001
    endloop
  endfacet
  facet normal 1.000000e+000 -0.000000e+000 0.000000e+000
    outer loop
      vertex   3.422440e+000 8.281660e+000 1.500000e+001
      vertex   3.422440e+000 -1.067730e+001 5.000000e+000
      vertex   3.422440e+000 8.281660e+000 5.000000e+000
    endloop
  endfacet
  facet normal -9.134987e-001 4.068417e-001 0.000000e+000
    outer loop
      vertex   3.422440e+000 8.281660e+000 1.500000e+001
      vertex   3.422440e+000 8.281660e+000 5.000000e+000
      vertex   -2.320538e+000 -4.613285e+000 1.500000e+001
    endloop
  endfacet
  facet normal -9.134987e-001 4.068417e-001 0.000000e+000
    outer loop
      vertex   -2.320538e+000 -4.613285e+000 1.500000e+001
      vertex   3.422440e+000 8.281660e+000 5.000000e+000
      vertex   -2.320538e+000 -4.613285e+000 5.000000e+000
    endloop
  endfacet
  facet normal -4.979881e-016 1.000000e+000 0.000000e+000
    outer loop
      vertex   -2.320538e+000 -4.613285e+000 1.500000e+001
      vertex   -2.320538e+000 -4.613285e+000 5.000000e+000
      vertex   -4.104071e+000 -4.613285e+000 1.500000e+001
    endloop
  endfacet
  facet normal -4.979881e-016 1.000000e+000 0.000000e+000
    outer loop
      vertex   -4.104071e+000 -4.613285e+000 1.500000e+001
      vertex   -2.320538e+000 -4.613285e+000 5.000000e+000
      vertex   -4.104071e+000 -4.613285e+000 5.000000e+000
    endloop
  endfacet
  facet normal 9.149041e-001 4.036714e-001 0.000000e+000
    outer loop
      vertex   -4.104071e+000 -4.613285e+000 1.500000e+001
      vertex   -4.104071e+000 -4.613285e+000 5.000000e+000
      vertex   -9.793542e+000 8.281660e+000 1.500000e+001
    endloop
  endfacet
  facet normal 9.149041e-001 4.036714e-001 0.000000e+000
    outer loop
      vertex   -9.793542e+000 8.281660e+000 1.500000e+001
      vertex   -4.104071e+000 -4.613285e+000 5.000000e+000
      vertex   -9.793542e+000 8.281660e+000 5.000000e+000
    endloop
  endfacet
  facet normal -1.000000e+000 -0.000000e+000 -0.000000e+000
    outer loop
      vertex   -9.793542e+000 8.281660e+000 1.500000e+001
      vertex   -9.793542e+000 8.281660e+000 5.000000e+000
      vertex   -9.793542e+000 -1.067730e+001 1.500000e+001
    endloop
  endfacet
  facet normal -1.000000e+000 -0.000000e+000 -0.000000e+000
    outer loop
      vertex   -9.793542e+000 -1.067730e+001 1.500000e+001
      vertex   -9.793542e+000 8.281660e+000 5.000000e+000
      vertex   -9.793542e+000 -1.067730e+001 5.000000e+000
    endloop
  endfacet
  facet normal 0.000000e+000 1.000000e+000 0.000000e+000
    outer loop
      vertex   -9.793542e+000 -1.067730e+001 1.500000e+001
      vertex   -9.793542e+000 -1.067730e+001 5.000000e+000
      vertex   -1.252235e+001 -1.067730e+001 1.500000e+001
    endloop
  endfacet
  facet normal 0.000000e+000 1.000000e+000 0.000000e+000
    outer loop
      vertex   -1.252235e+001 -1.067730e+001 1.500000e+001
      vertex   -9.793542e+000 -1.067730e+001 5.000000e+000
      vertex   -1.252235e+001 -1.067730e+001 5.000000e+000
    endloop
  endfacet
  facet normal 1.000000e+000 -0.000000e+000 0.000000e+000
    outer loop
      vertex   -1.252235e+001 -1.067730e+001 1.500000e+001
      vertex   -1.252235e+001 -1.067730e+001 5.000000e+000
      vertex   -1.252235e+001 1.133150e+001 1.500000e+001
    endloop
  endfacet
  facet normal 1.000000e+000 -0.000000e+000 0.000000e+000
    outer loop
      vertex   -1.252235e+001 1.133150e+001 1.500000e+001
      vertex   -1.252235e+001 -1.067730e+001 5.000000e+000
      vertex   -1.252235e+001 1.133150e+001 5.000000e+000
    endloop
  endfacet
  facet normal 1.000000e+000 -0.000000e+000 0.000000e+000
    outer loop
      vertex   1.156780e+001 -1.469280e+001 1.500000e+001
      vertex   1.156780e+001 -1.469280e+001 0.000000e+000
      vertex   1.156780e+001 1.530720e+001 1.500000e+001
    endloop
  endfacet
  facet normal 1.000000e+000 -0.000000e+000 0.000000e+000
    outer loop
      vertex   1.156780e+001 1.530720e+001 1.500000e+001
      vertex   1.156780e+001 -1.469280e+001 0.000000e+000
      vertex   1.156780e+001 1.530720e+001 0.000000e+000
    endloop
  endfacet
  facet normal 1.184238e-016 -1.000000e+000 0.000000e+000
    outer loop
      vertex   -1.843220e+001 -1.469280e+001 1.500000e+001
      vertex   -1.843220e+001 -1.469280e+001 0.000000e+000
      vertex   1.156780e+001 -1.469280e+001 1.500000e+001
    endloop
  endfacet
  facet normal 1.184238e-016 -1.000000e+000 0.000000e+000
    outer loop
      vertex   1.156780e+001 -1.469280e+001 1.500000e+001
      vertex   -1.843220e+001 -1.469280e+001 0.000000e+000
      vertex   1.156780e+001 -1.469280e+001 0.000000e+000
    endloop
  endfacet
  facet normal -1.000000e+000 -1.184238e-016 -0.000000e+000
    outer loop
      vertex   -1.843220e+001 1.530720e+001 1.500000e+001
      vertex   -1.843220e+001 1.530720e+001 0.000000e+000
      vertex   -1.843220e+001 -1.469280e+001 1.500000e+001
    endloop
  endfacet
  facet normal -1.000000e+000 -1.184238e-016 0.000000e+000
    outer loop
      vertex   -1.843220e+001 -1.469280e+001 1.500000e+001
      vertex   -1.843220e+001 1.530720e+001 0.000000e+000
      vertex   -1.843220e+001 -1.469280e+001 0.000000e+000
    endloop
  endfacet
  facet normal 0.000000e+000 1.000000e+000 0.000000e+000
    outer loop
      vertex   1.156780e+001 1.530720e+001 1.500000e+001
      vertex   1.156780e+001 1.530720e+001 0.000000e+000
      vertex   -1.843220e+001 1.530720e+001 1.500000e+001
    endloop
  endfacet
  facet normal 0.000000e+000 1.000000e+000 0.000000e+000
    outer loop
      vertex   -1.843220e+001 1.530720e+001 1.500000e+001
      vertex   1.156780e+001 1.530720e+001 0.000000e+000
      vertex   -1.843220e+001 1.530720e+001 0.000000e+000
    endloop
  endfacet
  facet normal 0.000000e+000 -0.000000e+000 1.000000e+000
    outer loop
      vertex   -1.252235e+001 -1.067730e+001 1.500000e+001
      vertex   -1.252235e+001 1.133150e+001 1.500000e+001
      vertex   -1.843220e+001 1.530720e+001 1.500000e+001
    endloop
  endfacet
  facet normal 0.000000e+000 -0.000000e+000 1.000000e+000
    outer loop
      vertex   -1.843220e+001 -1.469280e+001 1.500000e+001
      vertex   -1.252235e+001 -1.067730e+001 1.500000e+001
      vertex   -1.843220e+001 1.530720e+001 1.500000e+001
    endloop
  endfacet
  facet normal 0.000000e+000 -0.000000e+000 1.000000e+000
    outer loop
      vertex   -1.843220e+001 -1.469280e+001 1.500000e+001
      vertex   -9.793542e+000 -1.067730e+001 1.500000e+001
      vertex   -1.252235e+001 -1.067730e+001 1.500000e+001
    endloop
  endfacet
  facet normal 0.000000e+000 -0.000000e+000 1.000000e+000
    outer loop
      vertex   -1.843220e+001 -1.469280e+001 1.500000e+001
      vertex   1.156780e+001 -1.469280e+001 1.500000e+001
      vertex   -9.793542e+000 -1.067730e+001 1.500000e+001
    endloop
  endfacet
  facet normal -0.000000e+000 -0.000000e+000 1.000000e+000
    outer loop
      vertex   -9.793542e+000 -1.067730e+001 1.500000e+001
      vertex   1.156780e+001 -1.469280e+001 1.500000e+001
      vertex   3.422440e+000 -1.067730e+001 1.500000e+001
    endloop
  endfacet
  facet normal -0.000000e+000 0.000000e+000 1.000000e+000
    outer loop
      vertex   -2.320538e+000 -4.613285e+000 1.500000e+001
      vertex   3.422440e+000 -1.067730e+001 1.500000e+001
      vertex   3.422440e+000 8.281660e+000 1.500000e+001
    endloop
  endfacet
  facet normal -0.000000e+000 0.000000e+000 1.000000e+000
    outer loop
      vertex   -2.320538e+000 -4.613285e+000 1.500000e+001
      vertex   -9.793542e+000 -1.067730e+001 1.500000e+001
      vertex   3.422440e+000 -1.067730e+001 1.500000e+001
    endloop
  endfacet
  facet normal 0.000000e+000 0.000000e+000 1.000000e+000
    outer loop
      vertex   -2.320538e+000 -4.613285e+000 1.500000e+001
      vertex   -4.104071e+000 -4.613285e+000 1.500000e+001
      vertex   -9.793542e+000 -1.067730e+001 1.500000e+001
    endloop
  endfacet
  facet normal 0.000000e+000 -0.000000e+000 1.000000e+000
    outer loop
      vertex   -9.793542e+000 -1.067730e+001 1.500000e+001
      vertex   -4.104071e+000 -4.613285e+000 1.500000e+001
      vertex   -9.793542e+000 8.281660e+000 1.500000e+001
    endloop
  endfacet
  facet normal 0.000000e+000 -0.000000e+000 1.000000e+000
    outer loop
      vertex   -3.033951e+000 -9.213713e-001 1.500000e+001
      vertex   2.280978e+000 1.133150e+001 1.500000e+001
      vertex   -8.527233e+000 1.133150e+001 1.500000e+001
    endloop
  endfacet
  facet normal 0.000000e+000 0.000000e+000 1.000000e+000
    outer loop
      vertex   -8.527233e+000 1.133150e+001 1.500000e+001
      vertex   2.280978e+000 1.133150e+001 1.500000e+001
      vertex   1.156780e+001 1.530720e+001 1.500000e+001
    endloop
  endfacet
  facet normal -0.000000e+000 0.000000e+000 1.000000e+000
    outer loop
      vertex   -1.843220e+001 1.530720e+001 1.500000e+001
      vertex   -8.527233e+000 1.133150e+001 1.500000e+001
      vertex   1.156780e+001 1.530720e+001 1.500000e+001
    endloop
  endfacet
  facet normal -0.000000e+000 0.000000e+000 1.000000e+000
    outer loop
      vertex   -1.843220e+001 1.530720e+001 1.500000e+001
      vertex   -1.252235e+001 1.133150e+001 1.500000e+001
      vertex   -8.527233e+000 1.133150e+001 1.500000e+001
    endloop
  endfacet
  facet normal 0.000000e+000 0.000000e+000 1.000000e+000
    outer loop
      vertex   2.280978e+000 1.133150e+001 1.500000e+001
      vertex   6.347434e+000 1.133150e+001 1.500000e+001
      vertex   1.156780e+001 1.530720e+001 1.500000e+001
    endloop
  endfacet
  facet normal 0.000000e+000 0.000000e+000 1.000000e+000
    outer loop
      vertex   1.156780e+001 1.530720e+001 1.500000e+001
      vertex   6.347434e+000 1.133150e+001 1.500000e+001
      vertex   6.347434e+000 -1.067730e+001 1.500000e+001
    endloop
  endfacet
  facet normal 0.000000e+000 0.000000e+000 1.000000e+000
    outer loop
      vertex   1.156780e+001 -1.469280e+001 1.500000e+001
      vertex   6.347434e+000 -1.067730e+001 1.500000e+001
      vertex   3.422440e+000 -1.067730e+001 1.500000e+001
    endloop
  endfacet
  facet normal 0.000000e+000 -0.000000e+000 1.000000e+000
    outer loop
      vertex   1.156780e+001 -1.469280e+001 1.500000e+001
      vertex   1.156780e+001 1.530720e+001 1.500000e+001
      vertex   6.347434e+000 -1.067730e+001 1.500000e+001
    endloop
  endfacet
  facet normal 0.000000e+000 -0.000000e+000 -1.000000e+000
    outer loop
      vertex   -1.843220e+001 1.530720e+001 0.000000e+000
      vertex   1.156780e+001 1.530720e+001 0.000000e+000
      vertex   -1.843220e+001 -1.469280e+001 0.000000e+000
    endloop
  endfacet
  facet normal 0.000000e+000 0.000000e+000 -1.000000e+000
    outer loop
      vertex   -1.843220e+001 -1.469280e+001 0.000000e+000
      vertex   1.156780e+001 1.530720e+001 0.000000e+000
      vertex   1.156780e+001 -1.469280e+001 0.000000e+000
    endloop
  endfacet
endsolid