<?xml version="1.0" standalone="no"?>
<!DOCTYPE svg PUBLIC "-//W3C//DTD SVG 1.1//EN" "http://www.w3.org/Graphics/SVG/1.1/DTD/svg11.dtd">
<svg width="100mm" height="100mm" viewBox="-8 -108 116 116" xmlns="http://www.w3.org/2000/svg" version="1.1">
<title>OpenSCAD Model</title>
<path d="
M 43.9934,-26.3048 L 43.9934,-52.5482 L 70.3679,-47.3506 L 71.6358,-48.4997 L 71.6358,-51.2186 L 46.4576,-56.1805
 L 56.8832,-65.6293 L 56.8832,-68.3483 L 54.1643,-68.8841 L 43.9934,-59.6661 L 43.9934,-84.3085 L 41.2745,-84.8443
 L 40.0066,-83.6952 L 40.0066,-57.4518 L 22.3858,-60.9243 L 22.7646,-61.0222 L 23.2691,-61.1622 L 23.7711,-61.3109
 L 24.2705,-61.4683 L 24.767,-61.6344 L 25.2606,-61.8092 L 25.751,-61.9926 L 26.2382,-62.1845 L 26.7219,-62.3849
 L 27.2021,-62.5936 L 27.6785,-62.8108 L 28.1511,-63.0362 L 28.6197,-63.2698 L 29.0841,-63.5116 L 29.5443,-63.7614
 L 30,-64.0192 L 30.4511,-64.285 L 30.8976,-64.5586 L 31.3392,-64.8399 L 31.7758,-65.1289 L 32.2073,-65.4254
 L 32.6335,-65.7295 L 33.0544,-66.0409 L 33.4698,-66.3597 L 33.8796,-66.6856 L 34.2836,-67.0187 L 34.6818,-67.3587
 L 35.0739,-67.7057 L 35.4599,-68.0594 L 35.8397,-68.4198 L 36.2132,-68.7868 L 36.5802,-69.1603 L 36.9406,-69.5401
 L 37.2943,-69.9261 L 37.3597,-70 L 37.2943,-70.0739 L 36.9406,-70.4599 L 36.5802,-70.8397 L 36.2132,-71.2132
 L 35.8397,-71.5802 L 35.4599,-71.9406 L 35.0739,-72.2943 L 34.6818,-72.6413 L 34.2836,-72.9813 L 33.8796,-73.3144
 L 33.4698,-73.6403 L 33.0544,-73.9591 L 32.6335,-74.2705 L 32.2073,-74.5746 L 31.7758,-74.8711 L 31.3392,-75.1601
 L 30.8976,-75.4414 L 30.4511,-75.715 L 30,-75.9808 L 29.5443,-76.2386 L 29.0841,-76.4884 L 28.6197,-76.7302
 L 28.1511,-76.9638 L 27.6785,-77.1892 L 27.2021,-77.4064 L 26.7219,-77.6151 L 26.2382,-77.8155 L 25.751,-78.0074
 L 25.2606,-78.1908 L 24.767,-78.3656 L 24.2705,-78.5317 L 23.7711,-78.6891 L 23.2691,-78.8378 L 22.7646,-78.9778
 L 22.2576,-79.1089 L 21.7485,-79.2311 L 21.2374,-79.3444 L 20.7243,-79.4488 L 20.2094,-79.5442 L 19.693,-79.6306
 L 19.1752,-79.708 L 18.6561,-79.7764 L 18.1358,-79.8356 L 17.6147,-79.8858 L 17.0927,-79.9269 L 16.5701,-79.9589
 L 16.047,-79.9817 L 15.5236,-79.9954 L 15,-80 L 14.4764,-79.9954 L 13.953,-79.9817 L 13.4299,-79.9589
 L 12.9073,-79.9269 L 12.3853,-79.8858 L 11.8642,-79.8356 L 11.3439,-79.7764 L 10.8248,-79.708 L 10.307,-79.6306
 L 9.79056,-79.5442 L 9.27574,-79.4488 L 8.76265,-79.3444 L 8.25148,-79.2311 L 7.74236,-79.1089 L 7.23544,-78.9778
 L 6.73088,-78.8378 L 6.22885,-78.6891 L 5.72949,-78.5317 L 5.23296,-78.3656 L 4.73941,-78.1908 L 4.24896,-78.0074
 L 3.76181,-77.8155 L 3.27808,-77.6151 L 2.79791,-77.4064 L 2.32146,-77.1892 L 1.84888,-76.9638 L 1.38029,-76.7302
 L 0.915863,-76.4884 L 0.455719,-76.2386 L 0,-75.9808 L -0.451141,-75.715 L -0.897568,-75.4414 L -1.33916,-75.1601
 L -1.77577,-74.8711 L -2.20729,-74.5746 L -2.63354,-74.2705 L -3.05444,-73.9591 L -3.46983,-73.6403 L -3.87961,-73.3144
 L -4.28362,-72.9813 L -4.68176,-72.6413 L -5.07391,-72.2943 L -5.45995,-71.9406 L -5.83974,-71.5802 L -6.2132,-71.2132
 L -6.58018,-70.8397 L -6.9406,-70.4599 L -7.29434,-70.0739 L -7.35974,-70 L -7.29434,-69.9261 L -6.9406,-69.5401
 L -6.58018,-69.1603 L -6.2132,-68.7868 L -5.83974,-68.4198 L -5.45995,-68.0594 L -5.07391,-67.7057 L -4.68176,-67.3587
 L -4.28362,-67.0187 L -3.87961,-66.6856 L -3.46983,-66.3597 L -3.05444,-66.0409 L -2.63354,-65.7295 L -2.20729,-65.4254
 L -1.77577,-65.1289 L -1.33916,-64.8399 L -0.897568,-64.5586 L -0.451141,-64.285 L 0,-64.0192 L 0.455719,-63.7614
 L 0.915863,-63.5116 L 1.38029,-63.2698 L 1.84888,-63.0362 L 2.32146,-62.8108 L 2.79791,-62.5936 L 3.27808,-62.3849
 L 3.76181,-62.1845 L 4.24896,-61.9926 L 4.73941,-61.8092 L 5.23296,-61.6344 L 5.72949,-61.4683 L 6.22885,-61.3109
 L 6.73088,-61.1622 L 7.23544,-61.0222 L 7.74236,-60.8911 L 8.25148,-60.7689 L 8.76265,-60.6556 L 9.27574,-60.5512
 L 9.79056,-60.4558 L 10.307,-60.3694 L 10.8248,-60.292 L 11.3439,-60.2236 L 11.8642,-60.1644 L 12.3642,-60.1162
 L 12.3642,-58.7814 L 37.5424,-53.8195 L 27.1168,-44.3707 L 27.1168,-41.6517 L 29.8357,-41.1159 L 40.0066,-50.3339
 L 40.0066,-25.6915 L 42.7255,-25.1557 z
M 12.1999,-61.4467 L 12.0107,-61.511 L 11.8229,-61.5794 L 11.6368,-61.652 L 11.4523,-61.7287 L 11.2695,-61.8096
 L 11.0886,-61.8944 L 10.9096,-61.9832 L 10.7327,-62.076 L 10.5578,-62.1727 L 10.3851,-62.2732 L 10.2147,-62.3776
 L 10.0467,-62.4857 L 9.8811,-62.5975 L 9.71803,-62.713 L 9.55756,-62.832 L 9.39977,-62.9546 L 9.24474,-63.0807
 L 9.09254,-63.2102 L 8.94327,-63.343 L 8.79697,-63.4791 L 8.65373,-63.6184 L 8.51363,-63.7609 L 8.37671,-63.9064
 L 8.24307,-64.0549 L 8.11275,-64.2064 L 7.98582,-64.3607 L 7.86237,-64.5179 L 7.74242,-64.6777 L 7.62605,-64.8401
 L 7.51332,-65.0051 L 7.40427,-65.1725 L 7.29897,-65.3423 L 7.19746,-65.5144 L 7.09981,-65.6888 L 7.00604,-65.8652
 L 6.91623,-66.0437 L 6.83038,-66.2241 L 6.74857,-66.4064 L 6.67082,-66.5905 L 6.59718,-66.7762 L 6.52769,-66.9636
 L 6.46237,-67.1524 L 6.40126,-67.3427 L 6.34438,-67.5342 L 6.29178,-67.727 L 6.24345,-67.9209 L 6.19946,-68.1158
 L 6.15979,-68.3116 L 6.1245,-68.5083 L 6.09357,-68.7057 L 6.06703,-68.9037 L 6.04489,-69.1023 L 6.02716,-69.3013
 L 6.01387,-69.5007 L 6.005,-69.7003 L 6.00056,-69.9001 L 6.00056,-70.0999 L 6.005,-70.2997 L 6.01387,-70.4993
 L 6.02716,-70.6987 L 6.04489,-70.8977 L 6.06703,-71.0963 L 6.09357,-71.2943 L 6.1245,-71.4917 L 6.15979,-71.6884
 L 6.19946,-71.8842 L 6.24345,-72.0791 L 6.29178,-72.273 L 6.34438,-72.4658 L 6.40126,-72.6573 L 6.46237,-72.8476
 L 6.52769,-73.0364 L 6.59718,-73.2238 L 6.67082,-73.4095 L 6.74857,-73.5936 L 6.83038,-73.7759 L 6.91623,-73.9563
 L 7.00604,-74.1348 L 7.09981,-74.3112 L 7.19746,-74.4856 L 7.29897,-74.6577 L 7.40427,-74.8275 L 7.51332,-74.9949
 L 7.62605,-75.1599 L 7.74242,-75.3223 L 7.86237,-75.4821 L 7.98582,-75.6393 L 8.11275,-75.7936 L 8.24307,-75.9451
 L 8.37671,-76.0936 L 8.51363,-76.2391 L 8.65373,-76.3816 L 8.79697,-76.5209 L 8.94327,-76.657 L 9.09254,-76.7898
 L 9.24474,-76.9193 L 9.39977,-77.0454 L 9.55756,-77.168 L 9.71803,-77.287 L 9.8811,-77.4025 L 10.0467,-77.5143
 L 10.2147,-77.6224 L 10.3851,-77.7268 L 10.5578,-77.8273 L 10.7327,-77.924 L 10.9096,-78.0168 L 11.0886,-78.1056
 L 11.2695,-78.1904 L 11.4523,-78.2713 L 11.6368,-78.348 L 11.8229,-78.4206 L 12.0107,-78.489 L 12.1999,-78.5533
 L 12.3904,-78.6134 L 12.5823,-78.6692 L 12.7753,-78.7207 L 12.9695,-78.7679 L 13.1647,-78.8109 L 13.3607,-78.8494
 L 13.5576,-78.8837 L 13.7551,-78.9135 L 13.9533,-78.9389 L 14.152,-78.96 L 14.3512,-78.9766 L 14.5506,-78.9888
 L 14.7503,-78.9965 L 14.9501,-78.9998 L 15.1499,-78.9987 L 15.3496,-78.9932 L 15.5491,-78.9832 L 15.7484,-78.9688
 L 15.9474,-78.95 L 16.1458,-78.9268 L 16.3437,-78.8991 L 16.541,-78.8671 L 16.7374,-78.8307 L 16.933,-78.7899
 L 17.1277,-78.7449 L 17.3213,-78.6955 L 17.5138,-78.6418 L 17.705,-78.5839 L 17.8949,-78.5217 L 18.0834,-78.4553
 L 18.2703,-78.3848 L 18.4557,-78.3101 L 18.6393,-78.2314 L 18.8212,-78.1485 L 19.0011,-78.0617 L 19.1791,-77.9709
 L 19.355,-77.8761 L 19.5288,-77.7775 L 19.7003,-77.6751 L 19.8696,-77.5688 L 20.0364,-77.4588 L 20.2008,-77.3452
 L 20.3625,-77.2279 L 20.5217,-77.1071 L 20.6781,-76.9828 L 20.8317,-76.855 L 20.9825,-76.7238 L 21.1303,-76.5894
 L 21.275,-76.4516 L 21.4167,-76.3107 L 21.5552,-76.1667 L 21.6905,-76.0197 L 21.8225,-75.8697 L 21.9511,-75.7168
 L 22.0763,-75.5611 L 22.1981,-75.4026 L 22.3162,-75.2414 L 22.4308,-75.0777 L 22.5417,-74.9115 L 22.6488,-74.7429
 L 22.7523,-74.5719 L 22.8519,-74.3987 L 22.9476,-74.2233 L 23.0394,-74.0458 L 23.1272,-73.8663 L 23.211,-73.685
 L 23.2908,-73.5018 L 23.3665,-73.3168 L 23.4381,-73.1303 L 23.5055,-72.9422 L 23.5687,-72.7526 L 23.6277,-72.5617
 L 23.6825,-72.3696 L 23.7329,-72.1762 L 23.7791,-71.9818 L 23.8209,-71.7864 L 23.8584,-71.5901 L 23.8915,-71.3931
 L 23.9203,-71.1954 L 23.9446,-70.997 L 23.9645,-70.7982 L 23.98,-70.599 L 23.9911,-70.3995 L 23.9978,-70.1998
 L 24,-70 L 23.9978,-69.8002 L 23.9911,-69.6005 L 23.98,-69.401 L 23.9645,-69.2018 L 23.9446,-69.003
 L 23.9203,-68.8046 L 23.8915,-68.6069 L 23.8584,-68.4099 L 23.8209,-68.2136 L 23.7791,-68.0182 L 23.7329,-67.8238
 L 23.6825,-67.6304 L 23.6277,-67.4383 L 23.5687,-67.2474 L 23.5055,-67.0578 L 23.4381,-66.8697 L 23.3665,-66.6832
 L 23.2908,-66.4982 L 23.211,-66.315 L 23.1272,-66.1337 L 23.0394,-65.9542 L 22.9476,-65.7767 L 22.8519,-65.6013
 L 22.7523,-65.4281 L 22.6488,-65.2571 L 22.5417,-65.0885 L 22.4308,-64.9223 L 22.3162,-64.7586 L 22.1981,-64.5974
 L 22.0763,-64.4389 L 21.9511,-64.2832 L 21.8225,-64.1303 L 21.6905,-63.9803 L 21.5552,-63.8333 L 21.4167,-63.6893
 L 21.275,-63.5484 L 21.1303,-63.4106 L 20.9825,-63.2762 L 20.8317,-63.145 L 20.6781,-63.0172 L 20.5217,-62.8929
 L 20.3625,-62.7721 L 20.2008,-62.6548 L 20.0364,-62.5412 L 19.8696,-62.4312 L 19.7003,-62.3249 L 19.5288,-62.2225
 L 19.355,-62.1239 L 19.1791,-62.0291 L 19.0011,-61.9383 L 18.8212,-61.8515 L 18.6393,-61.7686 L 18.4699,-61.696
 L 13.6321,-62.6494 L 12.3642,-61.5003 L 12.3642,-61.3949 z
M 90.0561,-17.5921 L 99.3614,-0 L 103.931,-0 L 92.3763,-21.0672 L 103.102,-40 L 98.8167,-40
 L 90.1508,-24.1585 L 81.5557,-40 L 77.1042,-40 L 87.8302,-20.9029 L 76.3231,-0 L 80.585,-0
 z
M 77.5571,-17.0999 L 65.9313,-17.0999 L 65.9313,-12.941 L 77.5571,-12.941 z
" stroke="white" fill="white" stroke-width="0.5"/>
</svg>
