<?xml version="1.0" standalone="no"?>
<!DOCTYPE svg PUBLIC "-//W3C//DTD SVG 1.1//EN" "http://www.w3.org/Graphics/SVG/1.1/DTD/svg11.dtd">
<svg width="100mm" height="100mm" viewBox="-8 -108 116 116" xmlns="http://www.w3.org/2000/svg" version="1.1">
<title>OpenSCAD Model</title>
<path d="
M 17.1425,-39.1522 L 17.1425,-69.525 L 32.5425,-69.525 L 32.6959,-69.5288 L 32.8493,-69.5365 L 33.0024,-69.5479
 L 33.155,-69.5671 L 33.3068,-69.59 L 33.4581,-69.6166 L 33.6076,-69.6507 L 33.7563,-69.6886 L 33.9042,-69.7302
 L 34.0498,-69.7791 L 34.1941,-69.8316 L 34.337,-69.8878 L 34.4771,-69.951 L 34.6154,-70.0176 L 34.7521,-70.0876
 L 34.885,-70.1644 L 35.016,-70.2444 L 35.145,-70.3278 L 35.2697,-70.4174 L 35.3921,-70.5101 L 35.5122,-70.6059
 L 35.6273,-70.7075 L 35.7399,-70.8119 L 35.8498,-70.9191 L 35.9542,-71.0317 L 36.0558,-71.1468 L 36.1545,-71.2645
 L 36.2472,-71.3868 L 36.3368,-71.5114 L 36.4233,-71.6383 L 36.5036,-71.7696 L 36.5803,-71.9026 L 36.6538,-72.0375
 L 36.7203,-72.1757 L 36.7835,-72.3156 L 36.8431,-72.4571 L 36.8956,-72.6013 L 36.9445,-72.7468 L 36.9898,-72.8936
 L 37.0277,-73.0425 L 37.0619,-73.1922 L 37.0923,-73.3427 L 37.1152,-73.4948 L 37.1343,-73.6471 L 37.1496,-73.7999
 L 37.156,-73.9146 L 37.1603,-74.0297 L 37.1625,-74.145 L 37.1625,-89.545 L 71.0425,-89.545 L 71.1576,-89.5407
 L 71.3099,-89.5216 L 71.4596,-89.4874 L 71.6051,-89.4385 L 71.7451,-89.3754 L 71.878,-89.2986 L 72.0027,-89.209
 L 72.1178,-89.1074 L 72.2222,-88.9949 L 72.3149,-88.8725 L 72.3949,-88.7415 L 72.4616,-88.6032 L 72.5141,-88.4589
 L 72.552,-88.3101 L 72.5748,-88.1583 L 72.5825,-88.005 L 72.5825,-52.875 L 75.6625,-52.875 L 75.6625,-88.005
 L 75.6587,-88.1584 L 75.651,-88.3118 L 75.6395,-88.4649 L 75.6204,-88.6175 L 75.5975,-88.7693 L 75.5709,-88.9206
 L 75.5367,-89.0701 L 75.4989,-89.2188 L 75.4573,-89.3667 L 75.4083,-89.5123 L 75.3558,-89.6566 L 75.2997,-89.7995
 L 75.2365,-89.9396 L 75.1699,-90.078 L 75.0998,-90.2146 L 75.0231,-90.3475 L 74.943,-90.4785 L 74.8597,-90.6075
 L 74.7701,-90.7322 L 74.6774,-90.8546 L 74.5816,-90.9747 L 74.48,-91.0898 L 74.3756,-91.2024 L 74.2683,-91.3123
 L 74.1558,-91.4167 L 74.0407,-91.5183 L 73.923,-91.6171 L 73.8007,-91.7097 L 73.676,-91.7993 L 73.5492,-91.8858
 L 73.4179,-91.9661 L 73.2849,-92.0428 L 73.15,-92.1163 L 73.0118,-92.1828 L 72.8719,-92.246 L 72.7304,-92.3056
 L 72.5862,-92.3581 L 72.4406,-92.407 L 72.2939,-92.4523 L 72.145,-92.4902 L 71.9953,-92.5244 L 71.8448,-92.5548
 L 71.6927,-92.5777 L 71.5404,-92.5968 L 71.3876,-92.6121 L 71.2729,-92.6185 L 71.1578,-92.6228 L 71.0425,-92.625
 L 34.0825,-92.625 L 14.0625,-72.605 L 14.0625,-27.6022 z
M 83.4491,-0.00993347 L 83.6463,-0.0396576 L 83.8395,-0.0888519 L 84.0269,-0.157043 L 84.2065,-0.243561 L 84.3766,-0.347519
 L 84.5356,-0.467911 L 84.6817,-0.603531 L 84.8137,-0.753021 L 84.9301,-0.914902 L 85.0297,-1.08759 L 85.1117,-1.26932
 L 85.1825,-1.48468 L 97.6825,-48.3597 L 97.7242,-48.5546 L 97.7463,-48.7528 L 97.7485,-48.9522 L 97.7309,-49.1508
 L 97.6936,-49.3466 L 97.637,-49.5378 L 97.5616,-49.7224 L 97.4682,-49.8986 L 97.3578,-50.0646 L 97.2313,-50.2187
 L 97.0902,-50.3596 L 96.9357,-50.4856 L 96.7695,-50.5957 L 96.5931,-50.6886 L 96.4083,-50.7635 L 96.217,-50.8197
 L 96.021,-50.8566 L 95.75,-50.875 L 83.9375,-50.875 L 83.9375,-64.75 L 83.9276,-64.9491 L 83.8978,-65.1463
 L 83.8486,-65.3395 L 83.7805,-65.5269 L 83.6939,-65.7065 L 83.59,-65.8766 L 83.4696,-66.0356 L 83.334,-66.1817
 L 83.1845,-66.3137 L 83.0226,-66.4301 L 82.8499,-66.5297 L 82.6682,-66.6117 L 82.4792,-66.6752 L 82.2848,-66.7196
 L 82.087,-66.7444 L 81.9375,-66.75 L 77.6625,-66.75 L 77.6625,-59.758 L 77.6939,-59.7065 L 77.7805,-59.5269
 L 77.8486,-59.3395 L 77.8978,-59.1463 L 77.9276,-58.9491 L 77.9375,-58.75 L 77.9375,-50.875 L 23.875,-50.875
 L 23.6759,-50.8651 L 23.4787,-50.8353 L 23.2855,-50.7861 L 23.0981,-50.718 L 22.9185,-50.6314 L 22.7484,-50.5275
 L 22.5894,-50.4071 L 22.4433,-50.2715 L 22.3113,-50.122 L 22.1949,-49.9601 L 22.0953,-49.7874 L 22.0133,-49.6057
 L 21.9425,-49.3903 L 10.3718,-6 L 8,-6 L 7.85054,-6.0056 L 7.65271,-6.03038 L 7.45831,-6.07475
 L 7.26932,-6.13826 L 7.08759,-6.22026 L 6.9149,-6.31995 L 6.75302,-6.43634 L 6.60353,-6.56827 L 6.46791,-6.71443
 L 6.34752,-6.87337 L 6.24356,-7.04349 L 6.15704,-7.22313 L 6.08885,-7.41049 L 6.03966,-7.60371 L 6.00993,-7.80086
 L 6,-8 L 6,-77.5 L 6.0056,-77.6495 L 6.03038,-77.8473 L 6.07475,-78.0417 L 6.13826,-78.2307
 L 6.22026,-78.4124 L 6.31995,-78.5851 L 6.43634,-78.747 L 6.56827,-78.8965 L 6.71443,-79.0321 L 6.87337,-79.1525
 L 7.04349,-79.2564 L 7.22313,-79.343 L 7.41049,-79.4111 L 7.60371,-79.4603 L 7.80086,-79.4901 L 8,-79.5
 L 18.1291,-79.5 L 24.1291,-85.5 L 2,-85.5 L 1.80086,-85.4901 L 1.60371,-85.4603 L 1.41049,-85.4111
 L 1.22313,-85.343 L 1.04349,-85.2564 L 0.873367,-85.1525 L 0.714432,-85.0321 L 0.568268,-84.8965 L 0.43634,-84.747
 L 0.319946,-84.5851 L 0.220261,-84.4124 L 0.13826,-84.2307 L 0.0747528,-84.0417 L 0.0303802,-83.8473 L 0.00559998,-83.6495
 L 0,-83.5 L 0,-2 L 0.00993347,-1.80086 L 0.0396576,-1.60371 L 0.0888519,-1.41049 L 0.157043,-1.22313
 L 0.243561,-1.04349 L 0.347519,-0.873367 L 0.467911,-0.714432 L 0.603531,-0.568268 L 0.753021,-0.43634 L 0.914902,-0.319946
 L 1.08759,-0.220261 L 1.26932,-0.13826 L 1.45831,-0.0747528 L 1.65271,-0.0303802 L 1.85054,-0.00559998 L 2,-0
 L 83.25,-0 z
" stroke="white" fill="white" stroke-width="0.5"/>
</svg>
