<?xml version="1.0" standalone="no"?>
<!DOCTYPE svg PUBLIC "-//W3C//DTD SVG 1.1//EN" "http://www.w3.org/Graphics/SVG/1.1/DTD/svg11.dtd">
<svg width="100mm" height="100mm" viewBox="-8 -108 116 116" xmlns="http://www.w3.org/2000/svg" version="1.1">
<title>OpenSCAD Model</title>
<path d="
M 75.1115,-82.288 L 75.1263,-82.4868 L 75.1214,-82.6861 L 75.0966,-82.884 L 75.0522,-83.0783 L 74.9887,-83.2673
 L 74.9067,-83.4491 L 74.807,-83.6217 L 74.6906,-83.7836 L 74.5587,-83.9331 L 74.4125,-84.0687 L 74.2535,-84.1891
 L 74.127,-84.2686 L 61.1366,-91.7686 L 60.9592,-91.8596 L 60.7736,-91.9324 L 60.5816,-91.9865 L 60.3853,-92.0211
 L 60.1865,-92.036 L 59.9928,-92.0311 L 59.963,-92.0341 L 59.7636,-92.0341 L 59.5652,-92.0142 L 59.3698,-91.9747
 L 59.1793,-91.916 L 58.9956,-91.8385 L 58.8634,-91.7686 L 45.873,-84.2686 L 45.7056,-84.1605 L 45.5497,-84.0361
 L 45.4069,-83.8969 L 45.2788,-83.7442 L 45.1664,-83.5795 L 45.0711,-83.4044 L 44.9937,-83.2206 L 44.9349,-83.0301
 L 44.8954,-82.8347 L 44.8755,-82.6363 L 44.8755,-82.4369 L 44.8954,-82.2385 L 44.9096,-82.168 L 44.9096,-67.4
 L 44.9196,-67.2009 L 44.9493,-67.0037 L 44.9985,-66.8105 L 45.0667,-66.6231 L 45.1532,-66.4435 L 45.2571,-66.2734
 L 45.3775,-66.1144 L 45.5132,-65.9683 L 45.6626,-65.8363 L 45.8245,-65.7199 L 45.9972,-65.6203 L 46.1789,-65.5383
 L 46.2471,-65.5153 L 58.5991,-58.3839 L 58.653,-58.3363 L 58.8149,-58.22 L 58.8999,-58.1709 L 58.9205,-58.1568
 L 58.9865,-58.1209 L 58.9876,-58.1203 L 58.988,-58.1201 L 59.0956,-58.0615 L 59.2793,-57.984 L 59.4699,-57.9253
 L 59.6653,-57.8857 L 59.8637,-57.8659 L 59.9619,-57.8659 L 59.987,-57.864 L 60.0618,-57.8659 L 60.0631,-57.8659
 L 60.0635,-57.8659 L 60.1864,-57.869 L 60.3842,-57.8938 L 60.5786,-57.9382 L 60.7676,-58.0018 L 60.9493,-58.0838
 L 61.034,-58.1327 L 61.0565,-58.1436 L 61.1209,-58.1829 L 61.1219,-58.1835 L 61.1223,-58.1838 L 61.2266,-58.2475
 L 61.3856,-58.3679 L 61.406,-58.3869 L 73.7532,-65.5155 L 73.8672,-65.557 L 74.0469,-65.6436 L 72.3565,-64.6676
 L 76.1109,-62.5 L 50,-47.4249 L 23.8891,-62.5 L 44.8932,-74.6267 L 44.8822,-79.4701 L 18.5525,-64.2686
 L 18.385,-64.1605 L 18.2292,-64.0361 L 18.0864,-63.8969 L 17.9583,-63.7442 L 17.8459,-63.5795 L 17.7506,-63.4044
 L 17.6731,-63.2206 L 17.6144,-63.0301 L 17.5749,-62.8347 L 17.555,-62.6363 L 17.555,-62.4369 L 17.5749,-62.2385
 L 17.5891,-62.168 L 17.5891,-27.4 L 17.599,-27.2009 L 17.6288,-27.0037 L 17.678,-26.8105 L 17.7462,-26.6231
 L 17.8327,-26.4435 L 17.9366,-26.2734 L 18.057,-26.1144 L 18.1926,-25.9683 L 18.3421,-25.8363 L 18.504,-25.7199
 L 18.6767,-25.6203 L 18.8584,-25.5383 L 18.9266,-25.5153 L 48.5991,-8.38391 L 48.653,-8.33635 L 48.8149,-8.21996
 L 48.8999,-8.1709 L 48.9205,-8.15685 L 48.9865,-8.1209 L 48.9876,-8.12027 L 48.988,-8.1201 L 49.0956,-8.06148
 L 49.2793,-7.98402 L 49.4699,-7.92526 L 49.6653,-7.88574 L 49.8637,-7.86589 L 49.9619,-7.86589 L 49.987,-7.86401
 L 50.0618,-7.86589 L 50.0631,-7.86589 L 50.0635,-7.86594 L 50.1864,-7.86902 L 50.3842,-7.89384 L 50.5786,-7.93823
 L 50.7676,-8.00177 L 50.9493,-8.0838 L 51.034,-8.13274 L 51.0565,-8.14357 L 51.1209,-8.18291 L 51.1219,-8.18352
 L 51.1223,-8.18376 L 51.2266,-8.24753 L 51.3856,-8.36792 L 51.406,-8.38687 L 81.0737,-25.5155 L 81.1878,-25.557
 L 81.3674,-25.6436 L 81.5375,-25.7475 L 81.6965,-25.8679 L 81.8426,-26.0035 L 81.9745,-26.153 L 82.0909,-26.3149
 L 82.1906,-26.4876 L 82.2726,-26.6693 L 82.3361,-26.8583 L 82.3805,-27.0527 L 82.4053,-27.2505 L 82.4109,-27.4
 L 82.4109,-62.1684 L 82.432,-62.288 L 82.4469,-62.4868 L 82.4419,-62.6861 L 82.4171,-62.884 L 82.3727,-63.0783
 L 82.3092,-63.2673 L 82.2272,-63.4491 L 82.1275,-63.6217 L 82.0111,-63.7836 L 81.8792,-63.9331 L 81.733,-64.0687
 L 81.5741,-64.1891 L 81.4475,-64.2686 L 75.0917,-67.9382 L 75.0904,-67.4 L 75.0904,-82.1684 z
M 51.2096,-82.5 L 60,-87.5751 L 68.7904,-82.5 L 60,-77.4249 z
M 49.1096,-68.7124 L 49.1096,-78.8627 L 57.9,-73.7876 L 57.9,-63.6373 z
M 62.1,-73.7876 L 70.8904,-78.8627 L 70.8904,-68.7124 L 62.1,-63.6373 z
M 21.7891,-28.7124 L 21.7891,-58.8627 L 47.9,-43.7876 L 47.9,-13.6373 z
M 52.1,-43.7876 L 78.2109,-58.8627 L 78.2109,-28.7124 L 52.1,-13.6373 z
" stroke="white" fill="white" stroke-width="0.5"/>
</svg>
