<?xml version="1.0" standalone="no"?>
<!DOCTYPE svg PUBLIC "-//W3C//DTD SVG 1.1//EN" "http://www.w3.org/Graphics/SVG/1.1/DTD/svg11.dtd">
<svg width="100mm" height="100mm" viewBox="-8 -108 116 116" xmlns="http://www.w3.org/2000/svg" version="1.1">
<title>OpenSCAD Model</title>
<path d="
M 50.2991,-65.1099 L 50.4963,-65.1397 L 50.6895,-65.1889 L 50.8769,-65.257 L 51.0565,-65.3436 L 51.2266,-65.4475
 L 51.3856,-65.5679 L 51.5317,-65.7035 L 51.6637,-65.853 L 51.78,-66.0149 L 51.8797,-66.1876 L 51.9617,-66.3693
 L 52.0252,-66.5583 L 52.0696,-66.7527 L 52.0944,-66.9505 L 52.1,-67.1 L 52.1,-89.1627 L 55.6313,-83.0462
 L 55.7395,-82.8788 L 55.8638,-82.7229 L 56.003,-82.5801 L 56.1558,-82.452 L 56.3205,-82.3396 L 56.4956,-82.2443
 L 56.6794,-82.1669 L 56.8699,-82.1081 L 57.0653,-82.0686 L 57.2637,-82.0487 L 57.4631,-82.0487 L 57.6615,-82.0686
 L 57.8569,-82.1081 L 58.0474,-82.1669 L 58.2312,-82.2443 L 58.3633,-82.3141 L 58.5365,-82.4141 L 58.704,-82.5223
 L 58.8599,-82.6466 L 59.0027,-82.7858 L 59.1308,-82.9386 L 59.2431,-83.1033 L 59.3385,-83.2784 L 59.416,-83.4621
 L 59.4747,-83.6526 L 59.5142,-83.8481 L 59.5341,-84.0465 L 59.5341,-84.2458 L 59.5143,-84.4442 L 59.4748,-84.6397
 L 59.416,-84.8302 L 59.3386,-85.0139 L 59.2686,-85.1462 L 52.0213,-97.699 L 51.9983,-97.7673 L 51.9163,-97.9491
 L 51.8673,-98.034 L 51.8564,-98.0565 L 51.8174,-98.1205 L 51.8166,-98.1217 L 51.8163,-98.1221 L 51.7525,-98.2266
 L 51.6321,-98.3856 L 51.4965,-98.5317 L 51.347,-98.6637 L 51.1851,-98.78 L 51.1001,-98.8291 L 51.0795,-98.8432
 L 51.0135,-98.8791 L 51.0124,-98.8797 L 51.012,-98.8799 L 50.9044,-98.9385 L 50.7207,-99.016 L 50.5301,-99.0747
 L 50.3347,-99.1143 L 50.1363,-99.1341 L 50.0384,-99.1341 L 50.0136,-99.136 L 49.9385,-99.1341 L 49.9369,-99.1341
 L 49.9364,-99.1341 L 49.8143,-99.131 L 49.6164,-99.1063 L 49.422,-99.0619 L 49.233,-98.9985 L 49.0513,-98.9165
 L 48.966,-98.8672 L 48.9435,-98.8564 L 48.8802,-98.8177 L 48.8786,-98.8168 L 48.8781,-98.8165 L 48.7734,-98.7525
 L 48.6144,-98.6321 L 48.4683,-98.4965 L 48.3363,-98.347 L 48.22,-98.1851 L 48.1709,-98.1001 L 48.1568,-98.0795
 L 48.1209,-98.0135 L 48.1203,-98.0124 L 48.1201,-98.012 L 48.0615,-97.9044 L 47.984,-97.7207 L 47.9758,-97.6939
 L 40.7314,-85.1462 L 40.6404,-84.9688 L 40.5676,-84.7832 L 40.5135,-84.5913 L 40.4789,-84.3949 L 40.464,-84.1961
 L 40.469,-83.9968 L 40.4938,-83.7989 L 40.5382,-83.6045 L 40.6017,-83.4155 L 40.6837,-83.2338 L 40.7834,-83.0611
 L 40.8997,-82.8992 L 41.0317,-82.7498 L 41.1778,-82.6141 L 41.3368,-82.4937 L 41.4635,-82.4141 L 41.6367,-82.3141
 L 41.8141,-82.2232 L 41.9997,-82.1504 L 42.1916,-82.0964 L 42.388,-82.0618 L 42.5868,-82.0469 L 42.7861,-82.0518
 L 42.984,-82.0766 L 43.1784,-82.121 L 43.3674,-82.1845 L 43.5491,-82.2665 L 43.7218,-82.3662 L 43.8836,-82.4826
 L 44.0331,-82.6145 L 44.1687,-82.7607 L 44.2891,-82.9196 L 44.3687,-83.0462 L 47.9,-89.1627 L 47.9,-67.1
 L 47.9099,-66.9009 L 47.9397,-66.7037 L 47.9889,-66.5105 L 48.0571,-66.3231 L 48.1436,-66.1435 L 48.2475,-65.9734
 L 48.3679,-65.8144 L 48.5035,-65.6683 L 48.653,-65.5363 L 48.8149,-65.42 L 48.9876,-65.3203 L 49.1693,-65.2383
 L 49.3583,-65.1748 L 49.5527,-65.1304 L 49.7505,-65.1056 L 49.9,-65.1 L 50.1,-65.1 z
M 50.0618,-7.86589 L 50.0631,-7.86589 L 50.0635,-7.86594 L 50.1864,-7.86902 L 50.3842,-7.89384 L 50.5786,-7.93823
 L 50.7676,-8.00177 L 50.9493,-8.0838 L 51.034,-8.13274 L 51.0565,-8.14357 L 51.1209,-8.18291 L 51.1219,-8.18352
 L 51.1223,-8.18376 L 51.2266,-8.24753 L 51.3856,-8.36792 L 51.406,-8.38687 L 85.4038,-28.0155 L 85.5179,-28.057
 L 85.6975,-28.1436 L 85.8676,-28.2475 L 86.0266,-28.3679 L 86.1727,-28.5035 L 86.3047,-28.653 L 86.4211,-28.8149
 L 86.4701,-28.8999 L 86.4842,-28.9205 L 86.5201,-28.9865 L 86.5208,-28.9876 L 86.5209,-28.988 L 86.5795,-29.0956
 L 86.657,-29.2793 L 86.7158,-29.4698 L 86.7553,-29.6653 L 86.7751,-29.8637 L 86.7751,-30.063 L 86.7553,-30.2614
 L 86.741,-30.332 L 86.741,-69.5947 L 86.7553,-69.6653 L 86.7751,-69.8637 L 86.7751,-69.9619 L 86.777,-69.9868
 L 86.7751,-70.0614 L 86.7751,-70.063 L 86.7751,-70.0636 L 86.772,-70.1861 L 86.7472,-70.3839 L 86.7029,-70.5783
 L 86.6394,-70.7673 L 86.5573,-70.9491 L 86.5083,-71.034 L 86.4975,-71.0565 L 86.4584,-71.1205 L 86.4576,-71.1217
 L 86.4574,-71.1221 L 86.3935,-71.2266 L 86.2731,-71.3856 L 86.1375,-71.5317 L 85.988,-71.6637 L 85.8261,-71.78
 L 85.7411,-71.8291 L 85.7205,-71.8432 L 85.6545,-71.8791 L 85.6534,-71.8797 L 85.653,-71.8799 L 85.5454,-71.9385
 L 85.3617,-72.016 L 85.3349,-72.0242 L 70,-80.8779 L 70,-76.0281 L 80.441,-70 L 50,-52.4249
 L 19.559,-70 L 30,-76.0281 L 30,-80.8779 L 14.6599,-72.0213 L 14.5917,-71.9983 L 14.4099,-71.9163
 L 14.325,-71.8673 L 14.3025,-71.8564 L 14.2385,-71.8174 L 14.2373,-71.8166 L 14.2369,-71.8163 L 14.1324,-71.7525
 L 13.9734,-71.6321 L 13.8273,-71.4965 L 13.6953,-71.347 L 13.5789,-71.1851 L 13.5299,-71.1001 L 13.5158,-71.0795
 L 13.4799,-71.0135 L 13.4792,-71.0124 L 13.4791,-71.012 L 13.4205,-70.9044 L 13.343,-70.7207 L 13.2842,-70.5301
 L 13.2447,-70.3347 L 13.2249,-70.1363 L 13.2249,-70.0384 L 13.223,-70.0136 L 13.2249,-69.9385 L 13.2249,-69.9369
 L 13.2249,-69.9364 L 13.228,-69.8143 L 13.2527,-69.6164 L 13.259,-69.5889 L 13.259,-30.3316 L 13.2379,-30.2121
 L 13.223,-30.0133 L 13.228,-29.814 L 13.2528,-29.6161 L 13.2971,-29.4218 L 13.3606,-29.2327 L 13.4426,-29.051
 L 13.4917,-28.966 L 13.5025,-28.9435 L 13.5416,-28.8796 L 13.5423,-28.8783 L 13.5426,-28.878 L 13.6065,-28.7734
 L 13.7269,-28.6144 L 13.8625,-28.4683 L 14.012,-28.3363 L 14.1739,-28.2199 L 14.3466,-28.1203 L 14.5283,-28.0383
 L 14.5965,-28.0153 L 48.5991,-8.38391 L 48.653,-8.33635 L 48.8149,-8.21996 L 48.8999,-8.1709 L 48.9205,-8.15685
 L 48.9865,-8.1209 L 48.9876,-8.12027 L 48.988,-8.1201 L 49.0956,-8.06148 L 49.2793,-7.98402 L 49.4699,-7.92526
 L 49.6653,-7.88574 L 49.8637,-7.86589 L 49.9619,-7.86589 L 49.987,-7.86401 z
M 17.459,-31.2124 L 17.459,-66.3627 L 47.9,-48.7875 L 47.9,-13.6373 z
M 52.1,-48.7875 L 82.541,-66.3627 L 82.541,-31.2124 L 52.1,-13.6373 z
" stroke="white" fill="white" stroke-width="0.5"/>
</svg>
