<?xml version="1.0" encoding="UTF-8" standalone="no"?>
<!-- Created with Inkscape (http://www.inkscape.org/) -->

<svg
   version="1.1"
   id="svg1"
   width="377.33334"
   height="377.33334"
   viewBox="0 0 377.33334 377.33334"
   sodipodi:docname="chokusen-export-ps.svg"
   inkscape:version="1.4.2 (f4327f4, 2025-05-13)"
   xmlns:inkscape="http://www.inkscape.org/namespaces/inkscape"
   xmlns:sodipodi="http://sodipodi.sourceforge.net/DTD/sodipodi-0.dtd"
   xmlns="http://www.w3.org/2000/svg"
   xmlns:svg="http://www.w3.org/2000/svg">
  <defs
     id="defs1" />
  <sodipodi:namedview
     id="namedview1"
     pagecolor="#ffffff"
     bordercolor="#000000"
     borderopacity="0.25"
     inkscape:showpageshadow="2"
     inkscape:pageopacity="0.0"
     inkscape:pagecheckerboard="0"
     inkscape:deskcolor="#d1d1d1"
     inkscape:zoom="3.7446995"
     inkscape:cx="188.53315"
     inkscape:cy="188.66667"
     inkscape:window-width="2880"
     inkscape:window-height="1694"
     inkscape:window-x="-11"
     inkscape:window-y="-11"
     inkscape:window-maximized="1"
     inkscape:current-layer="g1">
    <inkscape:page
       x="0"
       y="0"
       inkscape:label="1"
       id="page1"
       width="377.33334"
       height="377.33334"
       margin="0"
       bleed="0" />
  </sodipodi:namedview>
  <g
     id="g1"
     inkscape:groupmode="layer"
     inkscape:label="1">
    <path
       id="path1"
       d="m 327.4649,15610.789 h 0.558 l 0.5511,0.02 0.547,0.02 0.543,0.03 0.535,0.04 0.5309,0.05 0.528,0.05 0.519,0.06 0.516,0.07 0.508,0.07 0.504,0.08 0.496,0.09 0.496,0.1 0.4841,0.101 0.485,0.106 0.476,0.117 0.4729,0.121 0.465,0.133 0.4611,0.137 0.457,0.14 0.4489,0.152 0.4411,0.157 0.4419,0.164 0.4331,0.172 0.426,0.179 0.4259,0.188 0.418,0.191 0.41,0.199 0.4061,0.208 0.403,0.214 0.394,0.219 0.3909,0.227 0.386,0.238 0.379,0.238 0.375,0.25 0.3681,0.258 0.3629,0.262 0.3591,0.269 0.3519,0.278 0.347,0.281 0.3401,0.293 0.34,0.297 0.328,0.304 0.3279,0.313 0.3211,0.32 0.312,0.324 0.3089,0.329 0.3011,0.336 0.293,0.339 0.285,0.348 0.2809,0.352 0.269,0.355 0.2661,0.359 0.2619,0.368 0.25,0.371 0.246,0.375 0.2381,0.383 0.231,0.386 0.226,0.391 0.215,0.398 0.2109,0.403 0.2031,0.406 0.199,0.414 0.1879,0.418 0.183,0.422 0.1761,0.429 0.168,0.434 0.164,0.438 0.1559,0.445 0.149,0.449 0.1411,0.453 0.1319,0.461 0.1291,0.461 0.1209,0.473 0.1141,0.472 0.109,0.481 0.098,0.484 0.0929,0.492 0.086,0.493 0.078,0.5 0.075,0.507 0.0661,0.512 0.0589,0.516 0.05,0.519 0.047,0.528 0.0361,0.531 0.0309,0.535 0.0231,0.543 0.0199,0.547 0.011,0.551 v 0.961 l -0.003,0.402 -0.0121,0.398 -0.0119,0.395 -0.0161,0.391 -0.0229,0.39 -0.023,0.387 -0.028,0.383 -0.031,0.379 -0.0351,0.379 -0.078,0.75 -0.047,0.371 -0.0509,0.367 -0.1091,0.726 -0.0629,0.36 -0.0621,0.355 -0.1409,0.703 -0.0741,0.348 -0.082,0.348 -0.082,0.343 -0.086,0.34 -0.0899,0.336 -0.094,0.336 -0.097,0.332 -0.102,0.328 -0.105,0.324 -0.11,0.325 -0.1091,0.32 -0.1169,0.32 -0.121,0.317 -0.1221,0.312 -0.2569,0.617 -0.1371,0.305 -0.1369,0.301 -0.14,0.297 -0.149,0.297 -0.1481,0.293 -0.153,0.293 -0.1559,0.289 -0.1601,0.285 -0.164,0.281 -0.168,0.281 -0.1719,0.278 -0.1801,0.277 -0.183,0.281 -0.192,0.278 -0.1989,0.277 -0.203,0.277 -0.2071,0.282 -0.2189,0.277 -0.222,0.277 -0.227,0.278 -0.234,0.277 -0.2431,0.281 -0.5,0.555 -0.261,0.277 -0.2659,0.278 -0.273,0.281 -0.278,0.277 -0.285,0.277 -0.293,0.278 -0.297,0.277 -0.304,0.277 -0.309,0.282 -0.316,0.277 -0.321,0.277 -0.664,0.555 -0.343,0.277 -0.3481,0.278 -0.3519,0.277 -0.3591,0.277 -0.367,0.278 -0.3709,0.277 -0.3791,0.278 -0.3869,0.277 -0.3911,0.277 -0.398,0.278 -0.4019,0.277 -0.4111,0.281 -0.418,0.277 -0.4209,0.278 -0.4261,0.277 -0.4379,0.274 -0.4411,0.277 -0.4449,0.277 -0.4541,0.278 -0.343,0.211 -0.336,0.203 -0.332,0.203 -0.3279,0.199 -0.321,0.195 -0.3161,0.196 -0.3089,0.191 -0.304,0.188 -0.2971,0.183 -0.293,0.184 -0.289,0.179 -0.282,0.18 -0.2769,0.172 -0.269,0.172 -0.2661,0.168 -0.2619,0.168 -0.2541,0.16 -0.25,0.16 -0.2419,0.16 -0.2381,0.153 -0.2339,0.152 -0.2271,0.148 -0.2229,0.149 -0.2151,0.144 -0.211,0.141 -0.207,0.137 -0.1989,0.136 -0.1911,0.129 -0.192,0.133 -0.183,0.125 -0.1759,0.125 -0.172,0.121 -0.168,0.117 -0.3161,0.227 -0.293,0.219 -0.274,0.207 -0.2529,0.195 -0.2271,0.184 -0.207,0.172 -0.188,0.16 -0.179,0.164 -0.176,0.16 -0.1719,0.164 -0.25,0.246 -0.3201,0.328 -0.301,0.328 -0.141,0.168 -0.2069,0.246 -0.132,0.168 -0.129,0.168 -0.125,0.168 -0.1181,0.168 -0.1169,0.172 -0.2191,0.34 -0.101,0.168 -0.0979,0.172 -0.093,0.172 -0.215,0.429 -0.078,0.18 -0.075,0.176 -0.074,0.184 -0.0661,0.183 -0.125,0.375 -0.0589,0.192 -0.051,0.195 -0.05,0.199 -0.047,0.199 -0.0431,0.199 -0.0389,0.208 -0.0321,0.207 -0.0309,0.21 -0.0311,0.211 -0.024,0.215 -0.019,0.219 -0.0159,0.219 -0.011,0.222 -0.0161,0.34 -0.004,0.231 0.004,0.3 0.008,0.368 0.008,0.179 0.023,0.36 0.031,0.351 0.0199,0.172 0.0231,0.176 0.047,0.336 0.0309,0.168 0.028,0.168 0.0701,0.328 0.078,0.32 0.086,0.313 0.0939,0.308 0.1051,0.305 0.114,0.297 0.187,0.434 0.1369,0.277 0.1481,0.277 0.153,0.27 0.164,0.261 0.1749,0.254 0.1801,0.254 0.192,0.242 0.1989,0.239 0.2111,0.23 0.2179,0.223 0.2231,0.211 0.2339,0.203 0.2431,0.191 0.375,0.27 0.2609,0.164 0.27,0.156 0.2771,0.149 0.4299,0.199 0.297,0.121 0.304,0.109 0.313,0.102 0.3201,0.09 0.3279,0.08 0.168,0.04 0.1721,0.03 0.168,0.03 0.3519,0.06 0.1761,0.02 0.179,0.02 0.1799,0.02 0.1841,0.02 0.375,0.02 h 0.187 0.1909 0.192 0.5271 0.328 0.168 l 0.3279,-0.01 h 0.168 l 0.332,-0.02 0.332,-0.02 0.168,-0.02 0.332,-0.03 0.168,-0.02 0.332,-0.04 0.168,-0.02 0.168,-0.02 0.168,-0.03 0.6681,-0.105 0.672,-0.125 0.172,-0.03 0.168,-0.04 0.5039,-0.117 0.172,-0.04 0.168,-0.04 0.168,-0.04 0.1721,-0.05 0.168,-0.04 0.1709,-0.05 0.336,-0.09 0.3441,-0.102 0.168,-0.05 0.3439,-0.109 0.172,-0.06 0.1761,-0.05 0.175,-0.06 0.18,-0.06 0.184,-0.06 0.3669,-0.133 0.1871,-0.07 0.1879,-0.07 0.1911,-0.07 0.3909,-0.148 0.1951,-0.08 0.1989,-0.08 0.2001,-0.08 0.2029,-0.09 0.621,-0.258 0.211,-0.09 0.2111,-0.09 0.2139,-0.09 0.2191,-0.1 0.219,-0.09 0.2189,-0.101 0.222,-0.102 0.227,-0.102 0.4531,-0.21 0.461,-0.219 0.2339,-0.11 0.239,-0.113 0.4761,-0.234 0.2419,-0.117 0.4931,-0.243 0.2459,-0.125 0.25,-0.125 0.5081,-0.257 0.2529,-0.133 0.2581,-0.133 0.2619,-0.133 5.1211,15.672 -0.75,0.41 -0.75,0.399 -0.25,0.129 -0.2461,0.128 -0.25,0.125 -0.492,0.25 -0.25,0.125 -0.246,0.122 -0.2419,0.121 -0.493,0.234 -0.242,0.117 -0.246,0.113 -0.484,0.227 -0.2431,0.109 -0.2419,0.114 -0.242,0.105 -0.2421,0.11 -0.2379,0.105 -0.2431,0.102 -0.7139,0.304 -0.7151,0.293 -0.239,0.09 -0.2339,0.09 -0.2341,0.09 -0.239,0.09 -0.2339,0.09 -0.2341,0.09 -0.469,0.172 -0.231,0.08 -0.2339,0.08 -0.23,0.08 -0.235,0.08 -0.2301,0.08 -0.2309,0.07 -0.2301,0.08 -0.231,0.07 -0.2339,0.07 -0.23,0.07 -0.235,0.07 -0.4691,0.133 -0.23,0.06 -0.2379,0.06 -0.235,0.06 -0.2341,0.06 -0.477,0.109 -0.234,0.06 -0.238,0.05 -0.239,0.05 -0.2419,0.05 -0.476,0.09 -0.485,0.09 -0.238,0.04 -0.484,0.08 -0.246,0.03 -0.2431,0.03 -0.2459,0.03 -0.242,0.03 -0.7381,0.08 -0.4919,0.05 -0.25,0.02 -0.246,0.02 -0.25,0.02 -0.25,0.02 -1,0.05 h -0.254 -0.25 -0.5081 -0.254 -0.5119 l -0.5121,-0.01 -0.5029,-0.02 -0.5,-0.02 -0.4971,-0.03 -0.4879,-0.04 -0.4841,-0.04 -0.4809,-0.05 -0.4761,-0.06 -0.4729,-0.06 -0.465,-0.07 -0.461,-0.08 -0.457,-0.09 -0.449,-0.09 -0.4451,-0.101 -0.442,-0.106 -0.437,-0.113 -0.4339,-0.117 -0.4261,-0.125 -0.4209,-0.133 -0.418,-0.141 -0.4111,-0.148 -0.4099,-0.152 -0.4021,-0.161 -0.3979,-0.168 -0.3911,-0.175 -0.3869,-0.18 -0.3871,-0.188 -0.375,-0.195 -0.375,-0.199 -0.3669,-0.207 -0.363,-0.215 -0.359,-0.223 -0.356,-0.23 -0.3481,-0.234 -0.343,-0.243 -0.34,-0.25 -0.336,-0.254 -0.328,-0.265 -0.3239,-0.266 -0.321,-0.277 -0.3161,-0.285 -0.3089,-0.289 -0.304,-0.297 -0.3011,-0.305 -0.297,-0.309 -0.289,-0.316 -0.2809,-0.32 -0.278,-0.328 -0.2731,-0.332 -0.2619,-0.336 -0.2581,-0.344 -0.254,-0.348 -0.246,-0.351 -0.2379,-0.356 -0.23,-0.363 -0.227,-0.367 -0.219,-0.371 -0.2151,-0.379 -0.207,-0.383 -0.1989,-0.387 -0.1951,-0.394 -0.188,-0.399 -0.183,-0.402 -0.1759,-0.406 -0.168,-0.414 -0.1601,-0.418 -0.1559,-0.426 -0.153,-0.43 -0.14,-0.433 -0.1371,-0.438 -0.1329,-0.445 -0.125,-0.449 -0.1171,-0.454 -0.1089,-0.457 -0.106,-0.464 -0.0981,-0.469 -0.093,-0.477 -0.086,-0.48 -0.082,-0.485 -0.071,-0.488 -0.0659,-0.496 -0.0631,-0.5 -0.054,-0.504 -0.047,-0.512 -0.043,-0.515 -0.035,-0.52 -0.028,-0.527 -0.0229,-0.531 -0.0161,-0.536 -0.007,-0.539 -0.004,-0.546 v -0.289 l 0.007,-0.579 0.0161,-0.57 0.024,-0.562 0.015,-0.278 0.0159,-0.281 0.039,-0.547 0.047,-0.547 0.0271,-0.269 0.0269,-0.266 0.032,-0.269 0.031,-0.262 0.0311,-0.266 0.039,-0.262 0.0349,-0.257 0.039,-0.262 0.043,-0.254 0.043,-0.258 0.0471,-0.254 0.047,-0.25 0.1019,-0.5 0.05,-0.246 0.0591,-0.246 0.0549,-0.246 0.058,-0.242 0.063,-0.242 0.062,-0.239 0.067,-0.238 0.1331,-0.469 0.0739,-0.234 0.0701,-0.231 0.0739,-0.23 0.1571,-0.453 0.082,-0.227 0.1639,-0.445 0.0861,-0.219 0.179,-0.437 0.09,-0.215 0.188,-0.43 0.0929,-0.211 0.196,-0.422 0.097,-0.207 0.3051,-0.621 0.3159,-0.609 0.3291,-0.598 0.1129,-0.199 0.226,-0.391 0.1181,-0.191 0.1169,-0.195 0.1171,-0.192 0.121,-0.187 0.121,-0.192 0.121,-0.187 0.125,-0.188 0.125,-0.183 0.125,-0.188 0.129,-0.179 0.129,-0.184 0.129,-0.18 0.266,-0.359 0.1359,-0.18 0.1331,-0.175 0.1369,-0.172 0.1411,-0.176 0.136,-0.172 0.1409,-0.172 0.144,-0.172 0.1411,-0.168 0.145,-0.168 0.1479,-0.168 0.4451,-0.492 0.157,-0.168 0.3159,-0.328 0.332,-0.332 0.172,-0.164 0.172,-0.168 0.175,-0.164 0.1801,-0.168 0.1839,-0.168 0.1871,-0.168 0.383,-0.336 0.1949,-0.168 0.2041,-0.168 0.1989,-0.168 0.207,-0.172 0.211,-0.168 0.2111,-0.172 0.2179,-0.168 0.438,-0.343 0.226,-0.172 0.461,-0.344 0.7151,-0.516 0.2459,-0.171 0.25,-0.176 0.25,-0.172 0.2541,-0.176 0.258,-0.172 0.2619,-0.176 0.265,-0.175 0.539,-0.352 0.274,-0.176 0.2771,-0.175 0.282,-0.176 0.5699,-0.352 0.293,-0.179 0.293,-0.176 0.2971,-0.18 0.316,-0.191 0.313,-0.188 0.304,-0.187 0.3049,-0.184 0.297,-0.183 0.293,-0.18 0.289,-0.176 0.2811,-0.176 0.281,-0.172 0.2739,-0.172 0.2691,-0.167 0.2659,-0.168 0.258,-0.165 0.2581,-0.16 0.25,-0.16 0.246,-0.156 0.2419,-0.156 0.2341,-0.153 0.235,-0.148 0.226,-0.149 0.2229,-0.144 0.2191,-0.145 0.4209,-0.281 0.2041,-0.137 0.1989,-0.132 0.1951,-0.133 0.1909,-0.129 0.1841,-0.129 0.1799,-0.125 0.179,-0.121 0.168,-0.121 0.168,-0.117 0.321,-0.231 0.3,-0.223 0.282,-0.21 0.261,-0.204 0.2471,-0.191 0.226,-0.184 0.207,-0.179 0.203,-0.176 0.297,-0.266 0.379,-0.355 0.453,-0.445 0.172,-0.18 0.168,-0.184 0.164,-0.179 0.156,-0.184 0.157,-0.18 0.1519,-0.183 0.144,-0.188 0.1411,-0.183 0.1369,-0.184 0.136,-0.187 0.1261,-0.184 0.1239,-0.188 0.1801,-0.281 0.278,-0.472 0.101,-0.196 0.0979,-0.191 0.093,-0.196 0.086,-0.199 0.086,-0.203 0.1181,-0.305 0.0699,-0.207 0.1601,-0.527 0.0549,-0.215 0.097,-0.437 0.043,-0.223 0.035,-0.226 0.0361,-0.227 0.027,-0.227 0.0229,-0.23 0.02,-0.234 0.012,-0.239 0.011,-0.238 0.004,-0.242 v -0.336 l -0.004,-0.215 -0.015,-0.422 -0.0119,-0.207 -0.0161,-0.203 -0.019,-0.203 -0.039,-0.399 -0.0549,-0.39 -0.0311,-0.188 -0.0309,-0.191 -0.035,-0.184 -0.0401,-0.183 -0.043,-0.184 -0.043,-0.18 -0.093,-0.351 -0.051,-0.172 -0.0549,-0.168 -0.0581,-0.168 -0.1209,-0.328 -0.1291,-0.32 -0.219,-0.461 -0.242,-0.438 -0.176,-0.281 -0.184,-0.273 -0.1949,-0.262 -0.207,-0.254 -0.215,-0.242 -0.226,-0.235 -0.2391,-0.226 -0.2459,-0.215 -0.2581,-0.207 -0.265,-0.195 -0.5589,-0.368 -0.2971,-0.168 -0.2999,-0.156 -0.313,-0.148 -0.3201,-0.141 -0.332,-0.129 -0.168,-0.06 -0.3439,-0.118 -0.176,-0.05 -0.1761,-0.05 -0.183,-0.05 -0.1799,-0.05 -0.187,-0.05 -0.184,-0.04 -0.191,-0.04 -0.192,-0.03 -0.1951,-0.03 -0.1949,-0.03 -0.2001,-0.03 -0.1989,-0.03 -0.203,-0.02 -0.414,-0.05 -0.422,-0.03 -0.4301,-0.02 h -0.222 -0.2189 -0.2271 -0.414 l -0.5739,0.01 h -0.1951 -0.192 l -0.39,0.02 -0.1989,0.02 -0.196,0.02 -0.199,0.02 -0.1991,0.02 -0.1989,0.02 -0.203,0.02 -0.2,0.03 -0.203,0.02 -0.203,0.03 -0.2031,0.03 -0.414,0.06 -0.621,0.105 -0.211,0.04 -0.207,0.04 -0.211,0.04 -0.2149,0.05 -0.211,0.04 -0.215,0.05 -0.2151,0.05 -0.429,0.101 -0.219,0.05 -0.2149,0.06 -0.2191,0.06 -0.222,0.06 -0.219,0.06 -0.2229,0.06 -0.218,0.06 -0.227,0.07 -0.2231,0.07 -0.222,0.07 -0.4529,0.141 -0.4541,0.149 -0.23,0.08 -0.2339,0.08 -0.231,0.08 -0.2381,0.08 -0.4769,0.179 -0.242,0.09 -0.246,0.09 -0.2461,0.1 -0.25,0.101 -0.5079,0.203 -0.254,0.106 -0.2581,0.109 -0.523,0.227 -0.2659,0.113 -0.2651,0.121 -0.2699,0.117 -0.547,0.25 -0.2731,0.129 -0.2769,0.129 -0.282,0.133 -0.281,0.137 -0.2851,0.136 -0.578,0.282 -0.2889,0.144 -0.2931,0.149 -0.297,0.148 -0.297,0.152 -0.3009,0.153 -0.3011,0.16 -0.304,0.156 -0.618,0.328 -0.3119,0.164 -0.312,0.168 -0.6331,0.344 -0.321,0.176 -0.3199,0.18 -0.3241,0.179 -0.328,0.184 -0.3279,0.187 v -18.73 l 0.4019,-0.246 0.4061,-0.242 0.4059,-0.235 0.4111,-0.23 0.8279,-0.446 0.418,-0.211 0.4221,-0.21 0.4209,-0.2 0.4261,-0.199 0.4299,-0.191 0.4301,-0.188 0.433,-0.18 0.4379,-0.175 0.4411,-0.172 0.442,-0.164 0.4409,-0.16 0.898,-0.305 0.9071,-0.281 0.457,-0.129 0.461,-0.129 0.4599,-0.121 0.465,-0.117 0.4691,-0.11 0.4729,-0.105 0.472,-0.102 0.4731,-0.09 0.481,-0.09 0.48,-0.08 0.4839,-0.08 0.485,-0.07 0.4881,-0.07 0.9839,-0.117 0.5,-0.05 0.496,-0.05 0.504,-0.04 0.5041,-0.03 0.508,-0.03 0.5079,-0.02 0.5121,-0.02 0.515,-0.01 0.5199,-0.01 h 0.519 0.563 z m -66.586,36.063 h 6.8161 0.6059 l 0.597,0.01 0.5901,0.02 0.586,0.03 0.5779,0.03 0.5751,0.04 0.5659,0.05 0.562,0.06 0.5551,0.07 0.5509,0.07 0.543,0.08 0.5351,0.09 0.531,0.1 0.5239,0.105 0.5191,0.113 0.512,0.125 0.5079,0.129 0.5,0.141 0.496,0.144 0.4881,0.153 0.485,0.164 0.476,0.168 0.4689,0.179 0.465,0.184 0.457,0.195 0.453,0.2 0.4491,0.21 0.438,0.219 0.437,0.223 0.4259,0.234 0.422,0.242 0.418,0.247 0.41,0.257 0.4021,0.266 0.399,0.27 0.394,0.281 0.3869,0.289 0.379,0.297 0.375,0.304 0.3671,0.313 0.363,0.316 0.3559,0.328 0.347,0.336 0.3441,0.344 0.34,0.352 0.332,0.359 0.324,0.367 0.317,0.375 0.312,0.379 0.3049,0.391 0.297,0.394 0.289,0.403 0.2811,0.406 0.2769,0.418 0.2661,0.422 0.2619,0.429 0.2541,0.438 0.2459,0.445 0.2381,0.449 0.2339,0.461 0.227,0.465 0.215,0.469 0.211,0.48 0.203,0.489 0.1991,0.492 0.188,0.5 0.183,0.508 0.1759,0.511 0.168,0.524 0.1601,0.527 0.1519,0.535 0.149,0.543 0.14,0.547 0.129,0.559 0.125,0.562 0.121,0.571 0.11,0.578 0.1051,0.582 0.094,0.594 0.0899,0.597 0.082,0.606 0.0741,0.613 0.0699,0.617 0.0591,0.625 0.0549,0.637 0.0471,0.64 0.0389,0.645 0.031,0.656 0.0271,0.66 0.0159,0.668 0.0121,0.676 0.004,0.684 -0.004,0.656 -0.0121,0.648 -0.0159,0.645 -0.0231,0.633 -0.0309,0.629 -0.0361,0.621 -0.043,0.613 -0.05,0.606 -0.0589,0.601 -0.062,0.59 -0.071,0.586 -0.078,0.578 -0.082,0.57 -0.0941,0.567 -0.0929,0.554 -0.106,0.551 -0.1091,0.543 -0.1169,0.535 -0.125,0.528 -0.1331,0.519 -0.1369,0.516 -0.144,0.508 -0.153,0.5 -0.1561,0.492 -0.164,0.484 -0.1719,0.481 -0.176,0.472 -0.1871,0.461 -0.1919,0.461 -0.195,0.449 -0.2071,0.442 -0.2109,0.437 -0.219,0.426 -0.222,0.422 -0.235,0.418 -0.2381,0.406 -0.242,0.399 -0.254,0.394 -0.2579,0.387 -0.2661,0.379 -0.269,0.371 -0.2809,0.367 -0.2861,0.356 -0.289,0.351 -0.2999,0.344 -0.3051,0.336 -0.313,0.328 -0.3159,0.324 -0.3241,0.313 -0.332,0.308 -0.336,0.301 -0.3439,0.293 -0.3481,0.285 -0.3549,0.277 -0.3631,0.274 -0.3669,0.262 -0.3721,0.257 -0.3779,0.25 -0.3871,0.243 -0.3949,0.234 -0.3981,0.23 -0.4019,0.219 -0.4111,0.215 -0.418,0.207 -0.4209,0.199 -0.4301,0.192 -0.4379,0.183 -0.4411,0.176 -0.4449,0.172 -0.457,0.16 -0.457,0.156 -0.4691,0.149 -0.4729,0.14 -0.476,0.137 -0.485,0.125 -0.492,0.121 -0.4961,0.11 -0.5039,0.105 -0.512,0.1 -0.515,0.09 -0.52,0.09 -0.5311,0.07 -0.5309,0.07 -0.543,0.06 -0.5471,0.05 -0.5509,0.05 -0.5591,0.04 -0.5659,0.03 -0.5701,0.02 -0.5779,0.02 -0.582,0.01 h -0.5901 -23.946 v -97.746 h 15.895 v 34.766 z m 0,16.98 v 29.02 h 7.23 0.2821 0.2769 0.273 l 0.274,-0.01 0.265,-0.02 0.2661,-0.02 0.2619,-0.02 0.2621,-0.02 0.2529,-0.03 0.5,-0.06 0.2471,-0.04 0.2419,-0.04 0.2381,-0.04 0.2339,-0.05 0.235,-0.05 0.2301,-0.06 0.446,-0.117 0.222,-0.07 0.215,-0.07 0.2109,-0.07 0.211,-0.08 0.207,-0.08 0.2031,-0.08 0.199,-0.09 0.196,-0.09 0.1949,-0.09 0.187,-0.09 0.188,-0.1 0.183,-0.101 0.1801,-0.102 0.3519,-0.219 0.168,-0.113 0.168,-0.117 0.324,-0.242 0.312,-0.258 0.2971,-0.27 0.2849,-0.281 0.403,-0.449 0.254,-0.317 0.242,-0.332 0.1171,-0.168 0.1129,-0.175 0.1141,-0.18 0.105,-0.18 0.106,-0.187 0.101,-0.188 0.1019,-0.191 0.097,-0.199 0.0941,-0.2 0.0899,-0.203 0.086,-0.207 0.086,-0.211 0.082,-0.215 0.078,-0.214 0.0781,-0.223 0.074,-0.227 0.071,-0.226 0.1319,-0.469 0.063,-0.238 0.0591,-0.242 0.1089,-0.5 0.051,-0.254 0.0471,-0.258 0.043,-0.258 0.043,-0.266 0.039,-0.269 0.0349,-0.27 0.035,-0.277 0.0311,-0.277 0.0269,-0.286 0.024,-0.285 0.019,-0.289 0.02,-0.293 0.0161,-0.297 0.015,-0.3 0.008,-0.305 0.008,-0.309 0.008,-0.625 -0.004,-0.312 -0.004,-0.309 -0.008,-0.308 -0.0161,-0.301 -0.011,-0.301 -0.0199,-0.297 -0.0231,-0.289 -0.028,-0.293 -0.0269,-0.285 -0.0701,-0.562 -0.0389,-0.278 -0.0431,-0.273 -0.047,-0.27 -0.1019,-0.531 -0.117,-0.516 -0.062,-0.254 -0.071,-0.25 -0.0701,-0.246 -0.074,-0.246 -0.075,-0.238 -0.082,-0.238 -0.0849,-0.235 -0.086,-0.23 -0.0941,-0.231 -0.0939,-0.222 -0.0981,-0.223 -0.101,-0.215 -0.106,-0.215 -0.1089,-0.214 -0.109,-0.207 -0.235,-0.407 -0.121,-0.199 -0.125,-0.195 -0.129,-0.192 -0.1331,-0.187 -0.136,-0.188 -0.2809,-0.359 -0.149,-0.176 -0.148,-0.172 -0.153,-0.168 -0.156,-0.168 -0.3241,-0.32 -0.168,-0.156 -0.172,-0.153 -0.1719,-0.148 -0.1801,-0.144 -0.179,-0.141 -0.1839,-0.137 -0.187,-0.133 -0.192,-0.132 -0.1951,-0.125 -0.199,-0.125 -0.407,-0.235 -0.211,-0.113 -0.2099,-0.109 -0.2151,-0.102 -0.2229,-0.106 -0.2231,-0.1 -0.226,-0.09 -0.2269,-0.09 -0.2341,-0.09 -0.477,-0.164 -0.4919,-0.148 -0.25,-0.07 -0.254,-0.07 -0.2581,-0.06 -0.261,-0.06 -0.2659,-0.06 -0.2661,-0.05 -0.2729,-0.05 -0.273,-0.04 -0.563,-0.08 -0.2851,-0.03 -0.289,-0.03 -0.293,-0.02 -0.2969,-0.02 -0.301,-0.02 -0.3011,-0.02 -0.308,-0.01 h -0.3089 -0.3121 -0.317 -5.23 z m 180.426,-51.734 0.4841,0.02 0.4879,0.04 0.485,0.06 0.4801,0.07 0.481,0.09 0.472,0.109 0.4729,0.121 0.469,0.129 0.4651,0.157 0.457,0.168 0.4529,0.175 0.4451,0.204 0.438,0.21 0.433,0.223 0.422,0.242 0.4179,0.254 0.4061,0.266 0.399,0.285 0.3859,0.293 0.3831,0.305 0.3629,0.32 0.36,0.332 0.347,0.34 0.3331,0.359 0.3199,0.363 0.3161,0.375 0.293,0.387 0.2849,0.399 0.274,0.402 0.254,0.414 0.246,0.422 0.2301,0.43 0.211,0.437 0.2029,0.445 0.188,0.45 0.168,0.457 0.1521,0.461 0.1449,0.464 0.121,0.473 0.1091,0.477 0.0939,0.476 0.0741,0.485 0.063,0.484 0.047,0.484 0.019,0.364 0.016,0.363 0.007,0.367 v 215.043 l -0.015,0.488 -0.024,0.485 -0.0349,0.488 -0.0621,0.484 -0.071,0.481 -0.0849,0.48 -0.11,0.473 -0.1171,0.473 -0.1329,0.468 -0.1561,0.461 -0.168,0.461 -0.1759,0.453 -0.203,0.446 -0.211,0.437 -0.2231,0.434 -0.2419,0.422 -0.254,0.418 -0.2651,0.406 -0.282,0.398 -0.2959,0.387 -0.3051,0.383 -0.3199,0.363 -0.332,0.36 -0.3401,0.347 -0.3599,0.332 -0.363,0.321 -0.375,0.316 -0.387,0.293 -0.3941,0.285 -0.403,0.273 -0.418,0.254 -0.4209,0.243 -0.4301,0.234 -0.438,0.211 -0.4449,0.199 -0.4491,0.192 -0.457,0.167 -0.461,0.153 -0.4649,0.144 -0.4731,0.121 -0.476,0.11 -0.4769,0.09 -0.4841,0.07 -0.481,0.06 -0.4879,0.05 -0.3631,0.02 -0.3629,0.01 H 440.816 323.5201 l -63.5361,-63.535 v -58.644 h 9.778 v 48.871 h 48.871 l 0.4881,0.01 0.4839,0.02 0.489,0.04 0.4841,0.06 0.481,0.08 0.48,0.09 0.477,0.105 0.4679,0.121 0.4731,0.133 0.4609,0.156 0.4571,0.164 0.453,0.18 0.4449,0.199 0.438,0.211 0.4341,0.223 0.4209,0.246 0.418,0.254 0.4111,0.262 0.394,0.285 0.3869,0.293 0.3831,0.304 0.3629,0.325 0.3591,0.332 0.3479,0.339 0.332,0.356 0.3241,0.367 0.313,0.371 0.293,0.391 0.2849,0.394 0.2731,0.403 0.254,0.418 0.246,0.422 0.2309,0.425 0.2111,0.442 0.2029,0.441 0.1871,0.449 0.168,0.457 0.1559,0.465 0.1411,0.465 0.121,0.473 0.11,0.472 0.097,0.481 0.071,0.48 0.062,0.485 0.0469,0.484 0.019,0.363 0.0161,0.368 0.008,0.367 v 48.871 h 107.519 l 0.3681,-0.01 0.48,-0.06 0.477,-0.11 0.461,-0.152 0.4449,-0.203 0.422,-0.242 0.3941,-0.286 0.3669,-0.32 0.332,-0.359 0.293,-0.387 0.254,-0.418 0.2111,-0.437 0.168,-0.458 0.1169,-0.472 0.075,-0.485 0.0231,-0.484 v -215.043 l -0.0121,-0.363 -0.062,-0.485 -0.1089,-0.476 -0.153,-0.461 -0.203,-0.445 -0.2421,-0.422 -0.285,-0.395 -0.321,-0.363 -0.3589,-0.332 -0.387,-0.297 -0.4181,-0.254 -0.437,-0.211 -0.457,-0.164 -0.4729,-0.121 -0.4801,-0.07 -0.489,-0.02 h -73.773 v -9.773 h 73.773 l 0.489,0.01 z"
       style="fill:#ffffff;fill-opacity:1;fill-rule:evenodd;stroke:#ffffff;stroke-width:1.22175003;stroke-linecap:butt;stroke-linejoin:miter;stroke-miterlimit:4;stroke-dasharray:none;stroke-opacity:1"
       transform="matrix(1.3333333,0,0,-1.3333333,-288,21167.381)" />
  </g>
</svg>
