<?xml version="1.0" standalone="no"?>
<!DOCTYPE svg PUBLIC "-//W3C//DTD SVG 1.1//EN" "http://www.w3.org/Graphics/SVG/1.1/DTD/svg11.dtd">
<svg width="100mm" height="100mm" viewBox="-8 -108 116 116" xmlns="http://www.w3.org/2000/svg" version="1.1">
<title>OpenSCAD Model</title>
<path d="
M 50.2239,-10.5126 L 50.4207,-10.5448 L 50.6133,-10.5964 L 50.7998,-10.6669 L 50.9783,-10.7556 L 51.1472,-10.8617
 L 51.3046,-10.9841 L 51.4142,-11.0858 L 91.4142,-51.0858 L 91.548,-51.2336 L 91.6664,-51.394 L 91.7682,-51.5655
 L 91.8525,-51.7462 L 91.9184,-51.9344 L 91.9651,-52.1282 L 91.9924,-52.3257 L 91.9998,-52.5249 L 91.9874,-52.7239
 L 91.9552,-52.9207 L 91.9036,-53.1133 L 91.8331,-53.2998 L 91.7444,-53.4783 L 91.6383,-53.6472 L 91.5159,-53.8046
 L 91.4142,-53.9142 L 88.5858,-56.7426 L 88.4379,-56.8764 L 88.2775,-56.9948 L 88.1061,-57.0966 L 87.9254,-57.1809
 L 87.7372,-57.2468 L 87.5434,-57.2935 L 87.3459,-57.3208 L 87.1466,-57.3283 L 86.9476,-57.3158 L 86.7509,-57.2837
 L 86.5583,-57.2321 L 86.3718,-57.1615 L 86.1932,-57.0728 L 86.0244,-56.9667 L 85.867,-56.8444 L 85.7574,-56.7426
 L 70.5969,-41.5822 L 70.6083,-41.7968 L 70.6201,-42.0713 L 70.6292,-42.3487 L 70.6358,-42.629 L 70.6397,-42.9122
 L 70.641,-43.1983 L 70.6399,-43.4401 L 70.6366,-43.6796 L 70.6312,-43.9169 L 70.6236,-44.152 L 70.6138,-44.3848
 L 70.6019,-44.6154 L 70.5877,-44.8438 L 70.5715,-45.0698 L 70.553,-45.2937 L 70.5323,-45.5153 L 70.5095,-45.7346
 L 70.4845,-45.9517 L 70.4574,-46.1666 L 70.428,-46.3792 L 70.3965,-46.5896 L 70.3628,-46.7977 L 70.327,-47.0036
 L 70.289,-47.2072 L 70.2488,-47.4086 L 70.2064,-47.6077 L 70.1618,-47.8046 L 70.1151,-47.9993 L 70.0662,-48.1917
 L 70.0152,-48.3819 L 69.9619,-48.5698 L 69.9065,-48.7554 L 69.8489,-48.9389 L 69.7892,-49.12 L 69.7272,-49.299
 L 69.6631,-49.4757 L 69.5969,-49.6501 L 69.5284,-49.8223 L 69.4578,-49.9922 L 69.385,-50.1599 L 69.31,-50.3254
 L 69.2329,-50.4886 L 69.1536,-50.6496 L 69.0721,-50.8083 L 68.9884,-50.9648 L 68.9026,-51.119 L 68.8146,-51.271
 L 68.7244,-51.4207 L 68.6321,-51.5682 L 68.5375,-51.7135 L 68.4408,-51.8565 L 68.342,-51.9973 L 68.2413,-52.1354
 L 68.1391,-52.2705 L 68.0354,-52.4025 L 67.9302,-52.5316 L 67.8235,-52.6576 L 67.7153,-52.7805 L 67.6057,-52.9004
 L 67.4945,-53.0173 L 67.3818,-53.1312 L 67.2676,-53.242 L 67.152,-53.3497 L 67.0348,-53.4545 L 66.9161,-53.5562
 L 66.796,-53.6549 L 66.6743,-53.7505 L 66.5511,-53.8431 L 66.4265,-53.9326 L 66.3003,-54.0192 L 66.1727,-54.1027
 L 66.0435,-54.1831 L 65.9129,-54.2605 L 65.7807,-54.3349 L 65.6471,-54.4062 L 65.5119,-54.4745 L 65.3753,-54.5398
 L 65.2372,-54.6021 L 65.0975,-54.6613 L 64.9564,-54.7174 L 64.8138,-54.7706 L 64.6697,-54.8206 L 64.524,-54.8677
 L 64.3769,-54.9117 L 64.2283,-54.9527 L 64.0782,-54.9907 L 63.9266,-55.0256 L 63.7734,-55.0574 L 63.6188,-55.0863
 L 63.4627,-55.1121 L 63.3051,-55.1349 L 63.146,-55.1546 L 62.9854,-55.1713 L 62.8233,-55.185 L 62.6597,-55.1956
 L 62.4946,-55.2032 L 62.328,-55.2077 L 62.1599,-55.2092 L 62.0885,-55.2091 L 62.0176,-55.2085 L 61.9472,-55.2076
 L 61.8773,-55.2064 L 61.8078,-55.2048 L 61.7389,-55.2028 L 61.6705,-55.2005 L 61.6026,-55.1978 L 61.5352,-55.1948
 L 61.4683,-55.1914 L 61.4019,-55.1877 L 61.336,-55.1835 L 61.2706,-55.1791 L 61.2057,-55.1743 L 61.1413,-55.1691
 L 61.0774,-55.1635 L 61.014,-55.1577 L 60.9511,-55.1514 L 60.8887,-55.1448 L 60.8268,-55.1378 L 60.7654,-55.1305
 L 60.7045,-55.1229 L 60.6441,-55.1148 L 60.5843,-55.1064 L 60.5249,-55.0977 L 60.466,-55.0886 L 60.4076,-55.0791
 L 60.3498,-55.0693 L 60.2924,-55.0591 L 60.2355,-55.0486 L 60.1792,-55.0377 L 60.1233,-55.0265 L 60.0679,-55.0149
 L 60.0131,-55.0029 L 59.9587,-54.9906 L 59.9049,-54.9779 L 59.8515,-54.9649 L 59.7986,-54.9515 L 59.7463,-54.9377
 L 59.6944,-54.9236 L 59.6431,-54.9092 L 59.5923,-54.8944 L 59.5419,-54.8792 L 59.4921,-54.8637 L 59.4427,-54.8478
 L 59.3939,-54.8315 L 58.7529,-54.6425 L 59.095,-60 L 80.1,-60 L 80.1,-84.5 L 72.8997,-77.2997
 L 72.6196,-77.6646 L 72.6121,-77.6743 L 72.3079,-78.0567 L 72.3002,-78.0662 L 71.9894,-78.4433 L 71.9815,-78.4527
 L 71.6641,-78.8243 L 71.6561,-78.8335 L 71.3323,-79.1995 L 71.3241,-79.2086 L 70.994,-79.5689 L 70.9857,-79.5778
 L 70.6493,-79.9323 L 70.6408,-79.9411 L 70.2983,-80.2896 L 70.2896,-80.2983 L 69.9411,-80.6408 L 69.9323,-80.6493
 L 69.5778,-80.9857 L 69.5689,-80.994 L 69.2086,-81.3241 L 69.1995,-81.3323 L 68.8335,-81.6561 L 68.8243,-81.6641
 L 68.4527,-81.9815 L 68.4433,-81.9894 L 68.0662,-82.3002 L 68.0567,-82.3079 L 67.6743,-82.6121 L 67.6646,-82.6196
 L 67.2769,-82.9171 L 67.2672,-82.9245 L 66.8743,-83.2152 L 66.8645,-83.2224 L 66.4666,-83.5061 L 66.4566,-83.5131
 L 66.0539,-83.7899 L 66.0437,-83.7968 L 65.6362,-84.0665 L 65.626,-84.0731 L 65.2138,-84.3357 L 65.2035,-84.3422
 L 64.7868,-84.5975 L 64.7763,-84.6038 L 64.3553,-84.8518 L 64.3447,-84.8579 L 63.9194,-85.0986 L 63.9087,-85.1045
 L 63.4792,-85.3377 L 63.4684,-85.3434 L 63.0349,-85.5691 L 63.0241,-85.5746 L 62.5867,-85.7927 L 62.5757,-85.798
 L 62.1347,-86.0084 L 62.1236,-86.0136 L 61.6789,-86.2162 L 61.6677,-86.2212 L 61.2196,-86.4161 L 61.2083,-86.4209
 L 60.7568,-86.6078 L 60.7455,-86.6124 L 60.2909,-86.7915 L 60.2794,-86.7959 L 59.8217,-86.9671 L 59.8102,-86.9712
 L 59.3496,-87.1344 L 59.338,-87.1384 L 58.8746,-87.2934 L 58.863,-87.2972 L 58.3969,-87.4441 L 58.3852,-87.4477
 L 57.9166,-87.5865 L 57.9049,-87.5898 L 57.434,-87.7204 L 57.4222,-87.7236 L 56.9491,-87.846 L 56.9372,-87.8489
 L 56.462,-87.963 L 56.4501,-87.9657 L 55.973,-88.0715 L 55.9611,-88.0741 L 55.4822,-88.1715 L 55.4702,-88.1738
 L 54.9897,-88.2629 L 54.9777,-88.265 L 54.4957,-88.3457 L 54.4836,-88.3476 L 54.0003,-88.4198 L 53.9882,-88.4215
 L 53.5037,-88.4853 L 53.4916,-88.4868 L 53.006,-88.5421 L 52.9939,-88.5434 L 52.5074,-88.5902 L 52.4953,-88.5913
 L 52.0081,-88.6296 L 51.9959,-88.6305 L 51.5081,-88.6603 L 51.4959,-88.6609 L 51.0077,-88.6823 L 50.9955,-88.6827
 L 50.507,-88.6955 L 50.4948,-88.6957 L 50.0061,-88.7 L 49.9939,-88.7 L 49.5052,-88.6957 L 49.493,-88.6955
 L 49.0045,-88.6827 L 48.9923,-88.6823 L 48.5041,-88.6609 L 48.4919,-88.6603 L 48.0041,-88.6305 L 47.9919,-88.6296
 L 47.5047,-88.5913 L 47.4926,-88.5902 L 47.0061,-88.5434 L 46.994,-88.5421 L 46.5084,-88.4868 L 46.4963,-88.4853
 L 46.0118,-88.4215 L 45.9997,-88.4198 L 45.5164,-88.3476 L 45.5043,-88.3457 L 45.0223,-88.265 L 45.0103,-88.2629
 L 44.5298,-88.1738 L 44.5178,-88.1715 L 44.0389,-88.0741 L 44.0269,-88.0715 L 43.5499,-87.9657 L 43.538,-87.963
 L 43.0628,-87.8489 L 43.0509,-87.846 L 42.5778,-87.7236 L 42.566,-87.7204 L 42.0951,-87.5898 L 42.0833,-87.5865
 L 41.6148,-87.4477 L 41.6031,-87.4441 L 41.137,-87.2972 L 41.1254,-87.2934 L 40.662,-87.1384 L 40.6504,-87.1344
 L 40.1898,-86.9712 L 40.1783,-86.9671 L 39.7206,-86.7959 L 39.7091,-86.7915 L 39.2545,-86.6124 L 39.2431,-86.6078
 L 38.7917,-86.4209 L 38.7804,-86.4161 L 38.3322,-86.2212 L 38.3211,-86.2162 L 37.8764,-86.0136 L 37.8653,-86.0084
 L 37.4243,-85.798 L 37.4133,-85.7927 L 36.9759,-85.5746 L 36.965,-85.5691 L 36.5316,-85.3434 L 36.5208,-85.3377
 L 36.0913,-85.1045 L 36.0806,-85.0986 L 35.6553,-84.8579 L 35.6447,-84.8518 L 35.2236,-84.6038 L 35.2132,-84.5975
 L 34.7965,-84.3422 L 34.7861,-84.3357 L 34.374,-84.0731 L 34.3638,-84.0665 L 33.9563,-83.7968 L 33.9461,-83.7899
 L 33.5434,-83.5131 L 33.5334,-83.5061 L 33.1355,-83.2224 L 33.1256,-83.2152 L 32.7328,-82.9245 L 32.7231,-82.9171
 L 32.3353,-82.6196 L 32.3257,-82.6121 L 31.9433,-82.3079 L 31.9338,-82.3002 L 31.5567,-81.9894 L 31.5473,-81.9815
 L 31.1757,-81.6641 L 31.1665,-81.6561 L 30.8005,-81.3323 L 30.7914,-81.3241 L 30.4311,-80.994 L 30.4222,-80.9857
 L 30.0677,-80.6493 L 30.0589,-80.6408 L 29.7104,-80.2983 L 29.7017,-80.2896 L 29.3592,-79.9411 L 29.3507,-79.9323
 L 29.0143,-79.5778 L 29.006,-79.5689 L 28.6759,-79.2086 L 28.6677,-79.1995 L 28.3439,-78.8335 L 28.3358,-78.8243
 L 28.0185,-78.4527 L 28.0106,-78.4433 L 27.6998,-78.0662 L 27.6921,-78.0567 L 27.3879,-77.6743 L 27.3804,-77.6646
 L 27.0829,-77.2769 L 27.0755,-77.2672 L 26.7848,-76.8743 L 26.7776,-76.8645 L 26.4939,-76.4666 L 26.4869,-76.4566
 L 26.2101,-76.0539 L 26.2032,-76.0437 L 25.9335,-75.6362 L 25.9268,-75.626 L 25.6643,-75.2138 L 25.6578,-75.2035
 L 25.4025,-74.7868 L 25.3962,-74.7763 L 25.1481,-74.3553 L 25.142,-74.3447 L 24.9014,-73.9194 L 24.8955,-73.9087
 L 24.6623,-73.4792 L 24.6566,-73.4684 L 24.4309,-73.0349 L 24.4254,-73.0241 L 24.2073,-72.5867 L 24.202,-72.5757
 L 23.9916,-72.1347 L 23.9864,-72.1236 L 23.7838,-71.6789 L 23.7788,-71.6677 L 23.5839,-71.2196 L 23.5791,-71.2083
 L 23.3921,-70.7568 L 23.3876,-70.7455 L 23.2085,-70.2909 L 23.2041,-70.2794 L 23.0329,-69.8217 L 23.0288,-69.8102
 L 22.8656,-69.3496 L 22.8616,-69.338 L 22.7066,-68.8746 L 22.7028,-68.863 L 22.5559,-68.3969 L 22.5523,-68.3852
 L 22.4135,-67.9166 L 22.4101,-67.9049 L 22.2795,-67.434 L 22.2764,-67.4222 L 22.154,-66.9491 L 22.1511,-66.9372
 L 22.037,-66.462 L 22.0342,-66.4501 L 21.9285,-65.973 L 21.9259,-65.9611 L 21.8285,-65.4822 L 21.8262,-65.4702
 L 21.7371,-64.9897 L 21.735,-64.9777 L 21.6543,-64.4957 L 21.6524,-64.4836 L 21.5802,-64.0003 L 21.5785,-63.9882
 L 21.5147,-63.5037 L 21.5132,-63.4916 L 21.4579,-63.006 L 21.4566,-62.9939 L 21.4444,-62.8671 L 21.4447,-62.7299
 L 21.4718,-62.5953 L 21.5246,-62.4687 L 21.601,-62.3547 L 21.6983,-62.2579 L 21.8125,-62.1819 L 21.9394,-62.1297
 L 22.1412,-62.1 L 22.1762,-62.1 L 22.3128,-62.1134 L 22.4441,-62.1533 L 22.5651,-62.218 L 22.6712,-62.305
 L 22.7582,-62.4111 L 22.8229,-62.5321 L 22.8702,-62.7086 L 22.9112,-63.0199 L 22.9672,-63.3947 L 23.0296,-63.7677
 L 23.0988,-64.1411 L 23.1741,-64.511 L 23.2563,-64.8817 L 23.3446,-65.2495 L 23.4395,-65.6166 L 23.5407,-65.9814
 L 23.6482,-66.3444 L 23.7621,-66.7057 L 23.8822,-67.0647 L 24.0086,-67.4217 L 24.1414,-67.7769 L 24.2802,-68.129
 L 24.425,-68.4786 L 24.5759,-68.8257 L 24.7334,-69.1713 L 24.8961,-69.5124 L 25.0651,-69.8515 L 25.2402,-70.1877
 L 25.4208,-70.5204 L 25.6073,-70.85 L 25.7995,-71.1763 L 25.9973,-71.4992 L 26.2007,-71.8183 L 26.41,-72.1347
 L 26.6246,-72.4468 L 26.8441,-72.7546 L 27.0697,-73.0594 L 27.3002,-73.3598 L 27.536,-73.6563 L 27.7768,-73.9484
 L 28.0228,-74.2364 L 28.274,-74.5203 L 28.5295,-74.7992 L 28.7901,-75.0738 L 29.0558,-75.3442 L 29.3262,-75.6099
 L 29.6008,-75.8705 L 29.8797,-76.126 L 30.1636,-76.3772 L 30.4515,-76.6231 L 30.7437,-76.864 L 31.0401,-77.0998
 L 31.3405,-77.3303 L 31.6454,-77.5559 L 31.9532,-77.7754 L 32.2653,-77.9899 L 32.5817,-78.1993 L 32.9008,-78.4026
 L 33.2237,-78.6005 L 33.55,-78.7927 L 33.8796,-78.9792 L 34.2122,-79.1598 L 34.5485,-79.3349 L 34.8876,-79.5039
 L 35.2287,-79.6666 L 35.5742,-79.8241 L 35.9213,-79.975 L 36.271,-80.1198 L 36.6231,-80.2585 L 36.9783,-80.3913
 L 37.3353,-80.5178 L 37.6942,-80.6379 L 38.0556,-80.7518 L 38.4186,-80.8593 L 38.7834,-80.9605 L 39.1505,-81.0554
 L 39.5182,-81.1437 L 39.8889,-81.2259 L 40.2589,-81.3012 L 40.6323,-81.3704 L 41.0053,-81.4328 L 41.38,-81.4888
 L 41.7552,-81.5382 L 42.132,-81.5811 L 42.5085,-81.6174 L 42.8862,-81.6471 L 43.2642,-81.6702 L 43.6427,-81.6867
 L 44.0219,-81.6967 L 44.4,-81.7 L 44.7781,-81.6967 L 45.1573,-81.6867 L 45.5358,-81.6702 L 45.9138,-81.6471
 L 46.2915,-81.6174 L 46.668,-81.5811 L 47.0448,-81.5382 L 47.42,-81.4888 L 47.7947,-81.4328 L 48.1677,-81.3704
 L 48.5411,-81.3012 L 48.9111,-81.2259 L 49.2818,-81.1437 L 49.6494,-81.0555 L 50.0167,-80.9604 L 50.3814,-80.8593
 L 50.7444,-80.7518 L 51.1057,-80.6379 L 51.4647,-80.5178 L 51.8217,-80.3913 L 52.1769,-80.2585 L 52.529,-80.1198
 L 52.8786,-79.975 L 53.2257,-79.8241 L 53.5713,-79.6666 L 53.9124,-79.5039 L 54.2515,-79.3349 L 54.5877,-79.1598
 L 54.9204,-78.9792 L 55.25,-78.7927 L 55.5763,-78.6005 L 55.8992,-78.4026 L 56.2183,-78.1993 L 56.5347,-77.9899
 L 56.8468,-77.7754 L 57.1546,-77.5559 L 57.4595,-77.3303 L 57.7599,-77.0998 L 58.0563,-76.864 L 58.3484,-76.6231
 L 58.6364,-76.3772 L 58.9203,-76.126 L 59.1992,-75.8705 L 59.4738,-75.6099 L 59.7442,-75.3442 L 60.0099,-75.0738
 L 60.2705,-74.7992 L 60.526,-74.5203 L 60.7772,-74.2364 L 61.0231,-73.9484 L 61.264,-73.6563 L 61.4998,-73.3598
 L 61.7303,-73.0594 L 61.9559,-72.7546 L 62.1754,-72.4468 L 62.3899,-72.1347 L 62.5993,-71.8183 L 62.8026,-71.4992
 L 63.0005,-71.1763 L 63.1927,-70.85 L 63.3792,-70.5204 L 63.5598,-70.1877 L 63.7348,-69.8515 L 63.9039,-69.5124
 L 63.9288,-69.4603 L 54.2834,-69.4603 L 53.2759,-49.3524 L 55.529,-47.5709 L 55.561,-47.585 L 55.5935,-47.599
 L 55.6264,-47.613 L 55.6597,-47.6269 L 55.6934,-47.6408 L 55.7276,-47.6547 L 55.7621,-47.6685 L 55.7971,-47.6824
 L 55.8325,-47.6961 L 55.8683,-47.7098 L 55.9045,-47.7235 L 55.9411,-47.7372 L 55.9782,-47.7508 L 56.0156,-47.7643
 L 56.0535,-47.7779 L 56.0918,-47.7914 L 56.1305,-47.8048 L 56.1696,-47.8182 L 56.2092,-47.8316 L 56.2491,-47.8449
 L 56.2895,-47.8582 L 56.3303,-47.8715 L 56.3715,-47.8847 L 56.4131,-47.8979 L 56.4551,-47.9111 L 56.4976,-47.9242
 L 56.5405,-47.9372 L 56.5837,-47.9503 L 56.6274,-47.9633 L 56.6716,-47.9762 L 56.7161,-47.9891 L 56.761,-48.002
 L 56.8064,-48.0148 L 56.8522,-48.0276 L 56.8983,-48.0404 L 56.945,-48.0531 L 56.992,-48.0658 L 57.0394,-48.0785
 L 57.0873,-48.0911 L 57.1355,-48.1036 L 57.1842,-48.1162 L 57.2333,-48.1287 L 57.2828,-48.1411 L 57.3328,-48.1535
 L 57.3831,-48.1659 L 57.4339,-48.1783 L 57.4848,-48.1904 L 57.5354,-48.2024 L 57.5859,-48.214 L 57.6362,-48.2254
 L 57.6864,-48.2365 L 57.7363,-48.2474 L 57.786,-48.2579 L 57.8356,-48.2683 L 57.8849,-48.2783 L 57.9341,-48.2881
 L 57.983,-48.2976 L 58.0318,-48.3068 L 58.0804,-48.3158 L 58.1288,-48.3245 L 58.177,-48.333 L 58.225,-48.3411
 L 58.2729,-48.349 L 58.3205,-48.3567 L 58.368,-48.364 L 58.4152,-48.3711 L 58.4623,-48.3779 L 58.5092,-48.3845
 L 58.5558,-48.3908 L 58.6023,-48.3968 L 58.6486,-48.4026 L 58.6947,-48.4081 L 58.7407,-48.4133 L 58.7864,-48.4183
 L 58.8319,-48.4229 L 58.8773,-48.4274 L 58.9225,-48.4315 L 58.9674,-48.4354 L 59.0122,-48.439 L 59.0568,-48.4424
 L 59.1012,-48.4454 L 59.1454,-48.4483 L 59.1894,-48.4508 L 59.2333,-48.4531 L 59.2769,-48.4551 L 59.3203,-48.4568
 L 59.3636,-48.4583 L 59.4067,-48.4595 L 59.4495,-48.4604 L 59.4922,-48.4611 L 59.5347,-48.4615 L 59.577,-48.4617
 L 59.8078,-48.4588 L 60.0336,-48.4504 L 60.2543,-48.4363 L 60.4698,-48.4165 L 60.6804,-48.3912 L 60.8858,-48.3602
 L 61.0862,-48.3235 L 61.2815,-48.2812 L 61.4717,-48.2333 L 61.6569,-48.1797 L 61.837,-48.1205 L 62.012,-48.0557
 L 62.1819,-47.9852 L 62.3468,-47.9091 L 62.5066,-47.8274 L 62.6613,-47.74 L 62.811,-47.6469 L 62.9555,-47.5483
 L 63.095,-47.444 L 63.2295,-47.334 L 63.3588,-47.2184 L 63.4831,-47.0972 L 63.6023,-46.9704 L 63.7165,-46.8379
 L 63.8255,-46.6998 L 63.9295,-46.556 L 64.0285,-46.4066 L 64.1223,-46.2515 L 64.2111,-46.0908 L 64.2948,-45.9245
 L 64.3734,-45.7525 L 64.447,-45.575 L 64.5154,-45.3917 L 64.5788,-45.2028 L 64.6372,-45.0083 L 64.6905,-44.8082
 L 64.7386,-44.6024 L 64.7818,-44.3909 L 64.8198,-44.1739 L 64.8528,-43.9512 L 64.8807,-43.7228 L 64.9035,-43.4888
 L 64.9213,-43.2493 L 64.9339,-43.004 L 64.9416,-42.7531 L 64.9441,-42.4966 L 64.9417,-42.2273 L 64.9343,-41.9639
 L 64.922,-41.7065 L 64.9049,-41.4549 L 64.8828,-41.2093 L 64.8559,-40.9696 L 64.8241,-40.7358 L 64.7873,-40.508
 L 64.7457,-40.2861 L 64.6991,-40.07 L 64.6477,-39.8599 L 64.5913,-39.6557 L 64.5301,-39.4575 L 64.4639,-39.2651
 L 64.3929,-39.0787 L 64.3169,-38.8982 L 64.2361,-38.7236 L 64.1503,-38.5549 L 64.0597,-38.3922 L 63.9642,-38.2353
 L 63.8637,-38.0844 L 63.7584,-37.9394 L 63.6481,-37.8003 L 63.533,-37.6672 L 63.4129,-37.5399 L 63.288,-37.4186
 L 63.1581,-37.3032 L 63.0234,-37.1937 L 62.8838,-37.0901 L 62.7392,-36.9925 L 62.5898,-36.9007 L 62.4354,-36.8149
 L 62.2762,-36.735 L 62.112,-36.6611 L 61.943,-36.593 L 61.7691,-36.5309 L 61.5902,-36.4746 L 61.4065,-36.4243
 L 61.2178,-36.3799 L 61.0243,-36.3415 L 60.8259,-36.3089 L 60.6225,-36.2823 L 60.4143,-36.2616 L 60.2012,-36.2468
 L 59.9831,-36.2379 L 59.7602,-36.2349 L 59.6852,-36.2353 L 59.6101,-36.2363 L 59.5347,-36.238 L 59.4592,-36.2403
 L 59.3835,-36.2434 L 59.3076,-36.2471 L 59.2315,-36.2515 L 59.1552,-36.2566 L 59.0787,-36.2623 L 59.002,-36.2687
 L 58.9252,-36.2758 L 58.8481,-36.2836 L 58.7709,-36.2921 L 58.6935,-36.3012 L 58.6158,-36.311 L 58.538,-36.3215
 L 58.46,-36.3326 L 58.3818,-36.3445 L 58.3034,-36.357 L 58.2249,-36.3701 L 58.1461,-36.384 L 58.0671,-36.3985
 L 57.988,-36.4137 L 57.9086,-36.4296 L 57.8291,-36.4462 L 57.7494,-36.4634 L 57.6695,-36.4813 L 57.5894,-36.4999
 L 57.5091,-36.5192 L 57.4286,-36.5391 L 57.3479,-36.5598 L 57.267,-36.5811 L 57.186,-36.603 L 57.1047,-36.6257
 L 57.0233,-36.649 L 56.9417,-36.673 L 56.8598,-36.6977 L 56.7778,-36.723 L 56.6956,-36.7491 L 56.6132,-36.7758
 L 56.5307,-36.8031 L 56.4479,-36.8312 L 56.3649,-36.8599 L 56.2818,-36.8893 L 56.1984,-36.9194 L 56.1149,-36.9502
 L 56.0315,-36.9815 L 55.9485,-37.0132 L 55.866,-37.0452 L 55.784,-37.0777 L 55.7024,-37.1106 L 55.6212,-37.1439
 L 55.5406,-37.1775 L 55.4603,-37.2116 L 55.3805,-37.2461 L 55.3012,-37.2809 L 55.2223,-37.3162 L 55.1438,-37.3518
 L 55.0658,-37.3878 L 54.9883,-37.4243 L 54.9112,-37.4611 L 54.8346,-37.4983 L 54.7584,-37.536 L 54.6826,-37.574
 L 54.6073,-37.6124 L 54.5325,-37.6512 L 54.4581,-37.6904 L 54.3842,-37.73 L 54.3107,-37.77 L 54.2376,-37.8104
 L 54.165,-37.8512 L 54.0929,-37.8923 L 54.0212,-37.9339 L 53.95,-37.9759 L 53.8792,-38.0183 L 53.8088,-38.061
 L 53.7389,-38.1042 L 53.6695,-38.1477 L 53.6005,-38.1917 L 53.5319,-38.236 L 53.4639,-38.2807 L 53.3962,-38.3259
 L 53.329,-38.3714 L 53.2623,-38.4173 L 53.196,-38.4637 L 53.1301,-38.5104 L 53.0648,-38.5575 L 52.9998,-38.605
 L 52.9353,-38.6529 L 52.8713,-38.7012 L 52.8077,-38.7499 L 52.7446,-38.799 L 52.7446,-31.5925 L 52.8648,-31.5008
 L 52.9867,-31.4111 L 53.1103,-31.3234 L 53.2354,-31.2378 L 53.3622,-31.1541 L 53.4906,-31.0725 L 53.6207,-30.9929
 L 53.7523,-30.9153 L 53.8857,-30.8397 L 54.0206,-30.7662 L 54.1571,-30.6946 L 54.2953,-30.6251 L 54.4351,-30.5576
 L 54.5765,-30.4921 L 54.7196,-30.4286 L 54.8643,-30.3672 L 55.0106,-30.3077 L 55.1586,-30.2503 L 55.3081,-30.1949
 L 55.4593,-30.1414 L 55.6122,-30.0901 L 55.7666,-30.0407 L 55.9227,-29.9933 L 56.0804,-29.948 L 56.2397,-29.9047
 L 56.4007,-29.8633 L 56.5633,-29.8241 L 56.7275,-29.7868 L 56.8933,-29.7515 L 57.0608,-29.7182 L 57.2299,-29.687
 L 57.4006,-29.6578 L 57.573,-29.6306 L 57.747,-29.6054 L 57.9226,-29.5822 L 58.0998,-29.5611 L 58.2787,-29.5419
 L 58.4592,-29.5248 L 58.5334,-29.5186 L 50,-20.9853 L 32.8072,-38.1781 L 42.0712,-38.1781 L 42.0712,-30
 L 47.6033,-30 L 47.6033,-38.1781 L 50.8272,-38.1781 L 50.8272,-44.6558 L 47.6033,-44.6558 L 47.6033,-69.4603
 L 42.3827,-69.4603 L 30.641,-43.9812 L 30.641,-40.3443 L 14.2426,-56.7426 L 14.0948,-56.8764 L 13.9344,-56.9948
 L 13.763,-57.0966 L 13.5823,-57.1809 L 13.3941,-57.2468 L 13.2003,-57.2935 L 13.0027,-57.3208 L 12.8035,-57.3283
 L 12.6045,-57.3158 L 12.4077,-57.2837 L 12.2151,-57.2321 L 12.0286,-57.1615 L 11.8501,-57.0728 L 11.6813,-56.9667
 L 11.5238,-56.8444 L 11.4142,-56.7426 L 8.58578,-53.9142 L 8.45201,-53.7664 L 8.3336,-53.606 L 8.23177,-53.4345
 L 8.14751,-53.2538 L 8.08165,-53.0656 L 8.03487,-52.8718 L 8.00761,-52.6743 L 8.00015,-52.4751 L 8.01257,-52.2761
 L 8.04475,-52.0793 L 8.09634,-51.8867 L 8.16687,-51.7002 L 8.25562,-51.5217 L 8.36169,-51.3528 L 8.48405,-51.1954
 L 8.58578,-51.0858 L 48.5858,-11.0858 L 48.7336,-10.952 L 48.894,-10.8336 L 49.0655,-10.7318 L 49.2462,-10.6475
 L 49.4344,-10.5816 L 49.6282,-10.5349 L 49.8257,-10.5076 L 50.0249,-10.5002 z
M 35.6234,-44.6558 L 40.5326,-55.587 L 40.5739,-55.6786 L 40.6149,-55.7702 L 40.6557,-55.862 L 40.6962,-55.9539
 L 40.7364,-56.046 L 40.7764,-56.1381 L 40.8161,-56.2303 L 40.8556,-56.3226 L 40.8948,-56.415 L 40.9337,-56.5075
 L 40.9724,-56.6001 L 41.0109,-56.6928 L 41.049,-56.7856 L 41.0869,-56.8785 L 41.1246,-56.9716 L 41.162,-57.0647
 L 41.1991,-57.1579 L 41.236,-57.2512 L 41.2726,-57.3447 L 41.3089,-57.4382 L 41.345,-57.5318 L 41.3809,-57.6255
 L 41.4164,-57.7193 L 41.4518,-57.8133 L 41.4868,-57.9073 L 41.5216,-58.0014 L 41.5562,-58.0957 L 41.5904,-58.19
 L 41.6244,-58.2845 L 41.6582,-58.379 L 41.6917,-58.4736 L 41.7249,-58.5684 L 41.7579,-58.6632 L 41.7906,-58.7582
 L 41.8231,-58.8532 L 41.8553,-58.9484 L 41.8873,-59.0436 L 41.9189,-59.139 L 41.9504,-59.2344 L 41.9815,-59.33
 L 42.0124,-59.4256 L 42.0431,-59.5214 L 42.0735,-59.6173 L 42.1036,-59.7132 L 42.1335,-59.8093 L 42.1631,-59.9055
 L 42.3095,-59.9055 L 42.3071,-59.8819 L 42.3046,-59.8558 L 42.3022,-59.8272 L 42.2997,-59.7961 L 42.2971,-59.7625
 L 42.2945,-59.7263 L 42.2919,-59.6876 L 42.2893,-59.6463 L 42.2866,-59.6026 L 42.2839,-59.5563 L 42.2811,-59.5075
 L 42.2784,-59.4561 L 42.2755,-59.4023 L 42.2727,-59.3459 L 42.2698,-59.287 L 42.2668,-59.2255 L 42.2639,-59.1616
 L 42.2609,-59.0951 L 42.2579,-59.0261 L 42.2548,-58.9545 L 42.2517,-58.8804 L 42.2486,-58.8039 L 42.2454,-58.7247
 L 42.2422,-58.6431 L 42.2389,-58.5589 L 42.2357,-58.4722 L 42.2323,-58.383 L 42.229,-58.2913 L 42.2222,-58.1002
 L 42.2188,-58.0009 L 42.2117,-57.7946 L 42.2082,-57.6877 L 42.201,-57.4663 L 42.1973,-57.3519 L 42.1936,-57.2348
 L 42.1861,-56.9933 L 42.1823,-56.8687 L 42.1785,-56.7416 L 42.1707,-56.4798 L 42.1668,-56.3451 L 42.1628,-56.2079
 L 42.155,-55.9338 L 42.1476,-55.6654 L 42.144,-55.5334 L 42.1405,-55.4027 L 42.137,-55.2735 L 42.1305,-55.0195
 L 42.1273,-54.8946 L 42.1242,-54.7711 L 42.1183,-54.5284 L 42.1128,-54.2915 L 42.1102,-54.1752 L 42.1076,-54.0602
 L 42.1051,-53.9468 L 42.1028,-53.8347 L 42.1005,-53.7241 L 42.0983,-53.6149 L 42.0941,-53.4009 L 42.0922,-53.296
 L 42.0885,-53.0904 L 42.0852,-52.8906 L 42.0837,-52.7929 L 42.0823,-52.6966 L 42.081,-52.6017 L 42.0797,-52.5082
 L 42.0785,-52.4162 L 42.0775,-52.3256 L 42.0765,-52.2364 L 42.0756,-52.1486 L 42.0747,-52.0623 L 42.074,-51.9774
 L 42.0733,-51.8939 L 42.0728,-51.8119 L 42.0723,-51.7313 L 42.0719,-51.6521 L 42.0716,-51.5744 L 42.0714,-51.498
 L 42.0713,-51.4231 L 42.0712,-51.3497 L 42.0712,-44.6558 z
" stroke="white" fill="white" stroke-width="0.5"/>
</svg>
