<?xml version="1.0" standalone="no"?>
<!DOCTYPE svg PUBLIC "-//W3C//DTD SVG 1.1//EN" "http://www.w3.org/Graphics/SVG/1.1/DTD/svg11.dtd">
<svg width="100mm" height="100mm" viewBox="-8 -108 116 116" xmlns="http://www.w3.org/2000/svg" version="1.1">
<title>OpenSCAD Model</title>
<path d="
M 93,-68.3333 L 82.7138,-58.0472 L 82.3138,-58.5685 L 82.303,-58.5823 L 81.8684,-59.1287 L 81.8575,-59.1422
 L 81.4134,-59.6809 L 81.4022,-59.6943 L 80.9488,-60.2251 L 80.9373,-60.2383 L 80.4747,-60.7612 L 80.4631,-60.7741
 L 79.9914,-61.2889 L 79.9795,-61.3016 L 79.499,-61.808 L 79.4868,-61.8206 L 78.9975,-62.3185 L 78.9852,-62.3309
 L 78.4872,-62.8202 L 78.4747,-62.8323 L 77.9683,-63.3129 L 77.9555,-63.3247 L 77.4408,-63.7964 L 77.4278,-63.8081
 L 76.905,-64.2707 L 76.8918,-64.2821 L 76.361,-64.7355 L 76.3476,-64.7467 L 75.8089,-65.1908 L 75.7953,-65.2018
 L 75.249,-65.6364 L 75.2352,-65.6471 L 74.6814,-66.0721 L 74.6674,-66.0826 L 74.1062,-66.4979 L 74.0921,-66.5081
 L 73.5238,-66.9135 L 73.5095,-66.9235 L 72.9341,-67.319 L 72.9196,-67.3287 L 72.3375,-67.714 L 72.3229,-67.7235
 L 71.7341,-68.0986 L 71.7193,-68.1079 L 71.124,-68.4727 L 71.1091,-68.4816 L 70.5075,-68.836 L 70.4924,-68.8447
 L 69.8848,-69.1885 L 69.8695,-69.1969 L 69.256,-69.53 L 69.2406,-69.5382 L 68.6214,-69.8606 L 68.6058,-69.8685
 L 67.981,-70.18 L 67.9653,-70.1877 L 67.3352,-70.4882 L 67.3194,-70.4956 L 66.6841,-70.7851 L 66.6682,-70.7922
 L 66.028,-71.0706 L 66.0119,-71.0774 L 65.3669,-71.3446 L 65.3508,-71.3511 L 64.7012,-71.607 L 64.6849,-71.6132
 L 64.031,-71.8577 L 64.0146,-71.8637 L 63.3565,-72.0967 L 63.34,-72.1024 L 62.678,-72.3239 L 62.6614,-72.3293
 L 61.9956,-72.5392 L 61.9789,-72.5443 L 61.3095,-72.7426 L 61.2927,-72.7474 L 60.62,-72.934 L 60.6031,-72.9385
 L 59.9273,-73.1133 L 59.9103,-73.1175 L 59.2315,-73.2805 L 59.2145,-73.2844 L 58.5329,-73.4355 L 58.5158,-73.4392
 L 57.8317,-73.5783 L 57.8146,-73.5817 L 57.1282,-73.7089 L 57.111,-73.7119 L 56.4224,-73.8271 L 56.4052,-73.8299
 L 55.7147,-73.9331 L 55.6974,-73.9355 L 55.0053,-74.0266 L 54.988,-74.0288 L 54.2943,-74.1078 L 54.277,-74.1096
 L 53.5821,-74.1765 L 53.5647,-74.178 L 52.8687,-74.2328 L 52.8513,-74.234 L 52.1545,-74.2766 L 52.1371,-74.2776
 L 51.4396,-74.308 L 51.4221,-74.3086 L 50.7243,-74.3269 L 50.7068,-74.3272 L 50.0087,-74.3333 L 49.9913,-74.3333
 L 49.2932,-74.3272 L 49.2757,-74.3269 L 48.5779,-74.3086 L 48.5604,-74.308 L 47.8629,-74.2776 L 47.8455,-74.2766
 L 47.1487,-74.234 L 47.1313,-74.2328 L 46.4353,-74.178 L 46.4179,-74.1765 L 45.723,-74.1096 L 45.7057,-74.1078
 L 45.012,-74.0288 L 44.9947,-74.0266 L 44.3026,-73.9355 L 44.2853,-73.9331 L 43.5948,-73.8299 L 43.5776,-73.8271
 L 42.889,-73.7119 L 42.8718,-73.7089 L 42.1854,-73.5817 L 42.1683,-73.5783 L 41.4842,-73.4392 L 41.4671,-73.4355
 L 40.7855,-73.2844 L 40.7685,-73.2805 L 40.0897,-73.1175 L 40.0727,-73.1133 L 39.3969,-72.9385 L 39.38,-72.934
 L 38.7073,-72.7474 L 38.6905,-72.7426 L 38.0211,-72.5443 L 38.0044,-72.5392 L 37.3386,-72.3293 L 37.322,-72.3239
 L 36.66,-72.1024 L 36.6435,-72.0967 L 35.9854,-71.8637 L 35.969,-71.8577 L 35.3151,-71.6132 L 35.2988,-71.607
 L 34.6492,-71.3511 L 34.6331,-71.3446 L 33.9881,-71.0774 L 33.972,-71.0706 L 33.3318,-70.7922 L 33.3159,-70.7851
 L 32.6806,-70.4956 L 32.6648,-70.4882 L 32.0347,-70.1877 L 32.019,-70.18 L 31.3942,-69.8685 L 31.3786,-69.8606
 L 30.7594,-69.5382 L 30.744,-69.53 L 30.1305,-69.1969 L 30.1152,-69.1885 L 29.5076,-68.8447 L 29.4925,-68.836
 L 28.8909,-68.4816 L 28.876,-68.4727 L 28.2807,-68.1079 L 28.2659,-68.0986 L 27.6771,-67.7235 L 27.6625,-67.714
 L 27.0804,-67.3287 L 27.0659,-67.319 L 26.4905,-66.9235 L 26.4762,-66.9135 L 25.9079,-66.5081 L 25.8938,-66.4979
 L 25.3326,-66.0826 L 25.3186,-66.0721 L 24.7648,-65.6471 L 24.751,-65.6364 L 24.2047,-65.2018 L 24.1911,-65.1908
 L 23.6524,-64.7467 L 23.639,-64.7355 L 23.1082,-64.2821 L 23.095,-64.2707 L 22.5722,-63.8081 L 22.5592,-63.7964
 L 22.0445,-63.3247 L 22.0317,-63.3129 L 21.5253,-62.8323 L 21.5128,-62.8202 L 21.0148,-62.3309 L 21.0025,-62.3185
 L 20.5132,-61.8206 L 20.501,-61.808 L 20.0205,-61.3016 L 20.0086,-61.2889 L 19.5369,-60.7741 L 19.5253,-60.7612
 L 19.0627,-60.2383 L 19.0512,-60.2251 L 18.5978,-59.6943 L 18.5866,-59.6809 L 18.1425,-59.1422 L 18.1316,-59.1287
 L 17.697,-58.5823 L 17.6862,-58.5685 L 17.2612,-58.0147 L 17.2507,-58.0007 L 16.8355,-57.4395 L 16.8252,-57.4254
 L 16.4198,-56.8571 L 16.4098,-56.8428 L 16.0144,-56.2674 L 16.0046,-56.253 L 15.6193,-55.6708 L 15.6098,-55.6562
 L 15.2347,-55.0674 L 15.2254,-55.0526 L 14.8607,-54.4573 L 14.8517,-54.4424 L 14.4974,-53.8409 L 14.4886,-53.8258
 L 14.1449,-53.2181 L 14.1364,-53.2029 L 13.8033,-52.5893 L 13.7951,-52.5739 L 13.4727,-51.9547 L 13.4648,-51.9391
 L 13.1533,-51.3144 L 13.1457,-51.2987 L 12.8451,-50.6686 L 12.8377,-50.6527 L 12.5482,-50.0175 L 12.5411,-50.0015
 L 12.2628,-49.3613 L 12.2559,-49.3453 L 11.9888,-48.7003 L 11.9823,-48.6841 L 11.7264,-48.0346 L 11.7201,-48.0182
 L 11.4756,-47.3643 L 11.4697,-47.348 L 11.2366,-46.6899 L 11.2309,-46.6733 L 11.0094,-46.0113 L 11.004,-45.9947
 L 10.7941,-45.3289 L 10.789,-45.3122 L 10.5907,-44.6428 L 10.5859,-44.6261 L 10.3994,-43.9533 L 10.3948,-43.9365
 L 10.22,-43.2606 L 10.2158,-43.2436 L 10.0528,-42.5648 L 10.0489,-42.5478 L 9.89781,-41.8662 L 9.89417,-41.8492
 L 9.75499,-41.165 L 9.75166,-41.1479 L 9.62444,-40.4615 L 9.62141,-40.4443 L 9.5062,-39.7557 L 9.50346,-39.7385
 L 9.40027,-39.0481 L 9.39784,-39.0308 L 9.30672,-38.3386 L 9.30458,-38.3213 L 9.22556,-37.6277 L 9.22374,-37.6103
 L 9.2063,-37.4292 L 9.20673,-37.2331 L 9.24539,-37.041 L 9.3208,-36.86 L 9.43007,-36.6973 L 9.56898,-36.5589
 L 9.73222,-36.4504 L 9.9135,-36.3758 L 10.2017,-36.3333 L 10.2517,-36.3333 L 10.4468,-36.3525 L 10.6344,-36.4095
 L 10.8073,-36.5019 L 10.9588,-36.6262 L 11.0832,-36.7778 L 11.1756,-36.9506 L 11.2432,-37.2028 L 11.3017,-37.6475
 L 11.3817,-38.1829 L 11.4709,-38.7158 L 11.5697,-39.2492 L 11.6773,-39.7777 L 11.7947,-40.3073 L 11.9208,-40.8327
 L 12.0564,-41.357 L 12.201,-41.8782 L 12.3546,-42.3967 L 12.5173,-42.913 L 12.6889,-43.4258 L 12.8695,-43.9358
 L 13.0592,-44.4432 L 13.2574,-44.9462 L 13.4643,-45.4457 L 13.6799,-45.9415 L 13.9048,-46.4352 L 14.1373,-46.9225
 L 14.3788,-47.4069 L 14.6288,-47.8873 L 14.8869,-48.3625 L 15.1533,-48.8333 L 15.4278,-49.2995 L 15.7105,-49.7607
 L 16.0009,-50.2166 L 16.3001,-50.6686 L 16.6066,-51.1145 L 16.9202,-51.5542 L 17.2424,-51.9897 L 17.5717,-52.4188
 L 17.9086,-52.8423 L 18.2526,-53.2597 L 18.604,-53.671 L 18.9628,-54.0767 L 19.3279,-54.475 L 19.7002,-54.8674
 L 20.0797,-55.2536 L 20.466,-55.6332 L 20.8583,-56.0055 L 21.2567,-56.3705 L 21.6623,-56.7294 L 22.0736,-57.0807
 L 22.491,-57.4248 L 22.9145,-57.7616 L 23.3436,-58.0909 L 23.7791,-58.4131 L 24.2188,-58.7268 L 24.6647,-59.0332
 L 25.1167,-59.3324 L 25.5726,-59.6228 L 26.0339,-59.9055 L 26.5,-60.1801 L 26.9708,-60.4465 L 27.4461,-60.7045
 L 27.9265,-60.9546 L 28.4108,-61.1961 L 28.8982,-61.4285 L 29.3918,-61.6535 L 29.8876,-61.8691 L 30.3871,-62.076
 L 30.8901,-62.2741 L 31.3976,-62.4638 L 31.9076,-62.6444 L 32.4203,-62.816 L 32.9366,-62.9788 L 33.4551,-63.1324
 L 33.9763,-63.2769 L 34.5007,-63.4125 L 35.0261,-63.5387 L 35.5556,-63.6561 L 36.0842,-63.7636 L 36.6175,-63.8624
 L 37.1504,-63.9516 L 37.6857,-64.0316 L 38.2217,-64.1022 L 38.76,-64.1635 L 39.2979,-64.2153 L 39.8374,-64.2578
 L 40.3774,-64.2908 L 40.9181,-64.3144 L 41.4598,-64.3286 L 42,-64.3333 L 42.5402,-64.3286 L 43.0819,-64.3144
 L 43.6226,-64.2908 L 44.1626,-64.2578 L 44.7021,-64.2153 L 45.24,-64.1635 L 45.7783,-64.1022 L 46.3143,-64.0316
 L 46.8496,-63.9516 L 47.3825,-63.8624 L 47.9158,-63.7636 L 48.4444,-63.6561 L 48.974,-63.5387 L 49.4991,-63.4126
 L 50.0239,-63.2768 L 50.5449,-63.1324 L 51.0634,-62.9788 L 51.5797,-62.816 L 52.0924,-62.6444 L 52.6024,-62.4638
 L 53.1099,-62.2741 L 53.6129,-62.076 L 54.1124,-61.8691 L 54.6082,-61.6535 L 55.1018,-61.4285 L 55.5892,-61.1961
 L 56.0735,-60.9546 L 56.5539,-60.7045 L 57.0292,-60.4465 L 57.5,-60.1801 L 57.9661,-59.9055 L 58.4274,-59.6228
 L 58.8833,-59.3324 L 59.3353,-59.0332 L 59.7812,-58.7268 L 60.2209,-58.4131 L 60.6564,-58.0909 L 61.0855,-57.7616
 L 61.509,-57.4248 L 61.9264,-57.0807 L 62.3377,-56.7294 L 62.7433,-56.3705 L 63.1417,-56.0055 L 63.534,-55.6332
 L 63.9203,-55.2536 L 64.2998,-54.8674 L 64.6721,-54.475 L 65.0372,-54.0767 L 65.396,-53.671 L 65.7474,-53.2597
 L 66.0914,-52.8423 L 66.4283,-52.4188 L 66.7576,-51.9897 L 67.0798,-51.5542 L 67.3934,-51.1145 L 67.6999,-50.6686
 L 67.9991,-50.2166 L 68.2895,-49.7607 L 68.5722,-49.2995 L 68.8467,-48.8333 L 69.1131,-48.3625 L 69.3712,-47.8873
 L 69.6212,-47.4069 L 69.8627,-46.9225 L 70.0952,-46.4352 L 70.3201,-45.9415 L 70.4074,-45.7408 L 58,-33.3333
 L 93,-33.3333 z
" stroke="white" fill="white" stroke-width="0.5"/>
</svg>
