<?xml version="1.0" standalone="no"?>
<!DOCTYPE svg PUBLIC "-//W3C//DTD SVG 1.1//EN" "http://www.w3.org/Graphics/SVG/1.1/DTD/svg11.dtd">
<svg width="100mm" height="100mm" viewBox="-8 -108 116 116" xmlns="http://www.w3.org/2000/svg" version="1.1">
<title>OpenSCAD Model</title>
<path d="
M 50.59,3.3868 L 50.623,3.38664 L 51.2325,3.38133 L 51.2636,3.38094 L 51.8702,3.37094 L 51.9023,3.37029
 L 52.5058,3.35548 L 52.5382,3.35455 L 53.1382,3.33496 L 53.1698,3.3338 L 53.7663,3.3096 L 53.7983,3.30818
 L 54.3909,3.27937 L 54.4233,3.27766 L 55.0119,3.24426 L 55.0441,3.24231 L 55.6284,3.20442 L 55.6607,3.20219
 L 56.2406,3.15988 L 56.2738,3.15732 L 56.849,3.11052 L 56.8817,3.10773 L 57.452,3.05663 L 57.4851,3.05351
 L 58.0503,2.99812 L 58.0836,2.99472 L 58.6436,2.93512 L 58.6782,2.93129 L 59.2326,2.86739 L 59.2665,2.86333
 L 59.8152,2.79533 L 59.8494,2.79095 L 60.3921,2.71895 L 60.4277,2.71407 L 60.9642,2.63797 L 61.0008,2.6326
 L 61.531,2.5524 L 61.5663,2.54692 L 62.09,2.46292 L 62.1272,2.45676 L 62.644,2.36885 L 62.7282,2.35362
 L 64.1795,2.07472 L 64.3272,2.04343 L 65.6595,1.73483 L 65.8303,1.6913 L 67.0484,1.35199 L 67.2439,1.29208
 L 68.3527,0.921188 L 68.5744,0.839676 L 69.5787,0.436371 L 69.8268,0.326859 L 70.7314,-0.109741 L 70.9088,-0.200882
 L 71.0034,-0.254242 L 71.8132,-0.725143 L 71.9831,-0.829681 L 72.103,-0.910721 L 72.8226,-1.41661 L 72.9828,-1.53535
 L 73.1204,-1.64771 L 73.7548,-2.18971 L 73.9031,-2.32301 L 74.0464,-2.46532 L 74.6004,-3.04422 L 74.7346,-3.19171
 L 74.871,-3.35808 L 75.3494,-3.97478 L 75.4677,-4.13538 L 75.5856,-4.31403 L 75.9932,-4.96942 L 76.0943,-5.14136
 L 76.1862,-5.31728 L 76.5278,-6.01218 L 76.6113,-6.1933 L 76.6756,-6.35175 L 76.956,-7.08714 L 77.0224,-7.27521
 L 77.0618,-7.40379 L 77.2858,-8.1805 L 77.3566,-8.46451 L 77.5291,-9.28351 L 77.5731,-9.53029 L 77.6989,-10.3924
 L 77.7238,-10.6013 L 77.8077,-11.5075 L 77.8199,-11.6796 L 77.8667,-12.6306 L 77.8711,-12.7686 L 77.8857,-13.7655
 L 77.8861,-13.8241 L 77.8861,-21.799 L 82.8276,-21.799 L 82.9469,-21.8008 L 83.9787,-21.8316 L 84.2211,-21.8462
 L 85.2375,-21.9385 L 85.4832,-21.9685 L 86.4817,-22.1219 L 86.73,-22.1681 L 87.7081,-22.3823 L 87.9581,-22.4456
 L 88.9135,-22.7204 L 89.1637,-22.8013 L 90.0937,-23.1364 L 90.3417,-23.2353 L 91.2439,-23.6302 L 91.4896,-23.7478
 L 92.3615,-24.2025 L 92.6008,-24.338 L 93.44,-24.8519 L 93.6726,-25.0057 L 94.4766,-25.5787 L 94.6996,-25.7498
 L 95.4658,-26.3815 L 95.6769,-26.5684 L 96.403,-27.2585 L 96.601,-27.4605 L 97.2844,-28.2088 L 97.4669,-28.4233
 L 98.1051,-29.2294 L 98.2706,-29.4541 L 98.8613,-30.3177 L 99.0094,-30.5512 L 99.5499,-31.4721 L 99.6794,-31.7109
 L 100.167,-32.6887 L 100.278,-32.9303 L 100.711,-33.9647 L 100.803,-34.2076 L 101.179,-35.2983 L 101.253,-35.5392
 L 101.568,-36.6859 L 101.604,-36.8265 L 101.917,-38.1485 L 101.931,-38.2089 L 102.211,-39.4857 L 102.226,-39.5557
 L 102.475,-40.7925 L 102.49,-40.8712 L 102.707,-42.0735 L 102.722,-42.1618 L 102.907,-43.3349 L 102.921,-43.4319
 L 103.073,-44.5812 L 103.086,-44.6856 L 103.206,-45.8164 L 103.216,-45.9278 L 103.303,-47.0455 L 103.31,-47.1619
 L 103.364,-48.2718 L 103.368,-48.3914 L 103.388,-49.499 L 103.388,-49.6202 L 103.375,-50.7307 L 103.372,-50.8507
 L 103.325,-51.9696 L 103.318,-52.0871 L 103.238,-53.2197 L 103.228,-53.3324 L 103.113,-54.4841 L 103.101,-54.5907
 L 102.951,-55.7667 L 102.937,-55.8663 L 102.753,-57.0722 L 102.738,-57.1633 L 102.519,-58.4042 L 102.503,-58.4871
 L 102.249,-59.7685 L 102.234,-59.8423 L 101.945,-61.1695 L 101.93,-61.2353 L 101.605,-62.6138 L 101.58,-62.7154
 L 101.308,-63.7465 L 101.263,-63.904 L 100.955,-64.9027 L 100.901,-65.0683 L 100.557,-66.0326 L 100.49,-66.2066
 L 100.111,-67.134 L 100.031,-67.3161 L 99.6139,-68.2047 L 99.518,-68.3957 L 99.0639,-69.243 L 98.9508,-69.4403
 L 98.4592,-70.2442 L 98.3257,-70.4482 L 97.796,-71.2064 L 97.6408,-71.414 L 97.0727,-72.1243 L 96.8935,-72.3332
 L 96.2865,-72.9934 L 96.0827,-73.1995 L 95.4365,-73.8074 L 95.2879,-73.9404 L 95.2076,-74.0069 L 94.5218,-74.5603
 L 94.3635,-74.6817 L 94.2684,-74.7487 L 93.5425,-75.2453 L 93.3752,-75.3538 L 93.2678,-75.4174 L 92.5016,-75.855
 L 92.326,-75.9496 L 92.2081,-76.0069 L 91.401,-76.3832 L 91.2181,-76.463 L 91.0954,-76.5106 L 90.2471,-76.8236
 L 90.0583,-76.8879 L 89.933,-76.925 L 89.0431,-77.1722 L 88.8497,-77.2207 L 88.7286,-77.246 L 87.7966,-77.4254
 L 87.5998,-77.4582 L 87.486,-77.4726 L 86.5117,-77.5818 L 86.313,-77.5991 L 86.2116,-77.604 L 85.1945,-77.6411
 L 85.0491,-77.6437 L 77.7372,-77.6437 L 77.7372,-86.1759 L 77.7336,-86.3462 L 77.6933,-87.292 L 77.6798,-87.491
 L 77.664,-87.6334 L 77.5453,-88.5537 L 77.5149,-88.7508 L 77.4874,-88.8896 L 77.2937,-89.7829 L 77.2465,-89.9767
 L 77.2083,-90.1095 L 76.9428,-90.9741 L 76.8795,-91.1632 L 76.8327,-91.286 L 76.4988,-92.1204 L 76.4201,-92.3036
 L 76.3668,-92.4151 L 75.9678,-93.2176 L 75.8746,-93.3939 L 75.8172,-93.4928 L 75.3564,-94.2618 L 75.2497,-94.4303
 L 75.1905,-94.5163 L 74.6712,-95.2502 L 74.4934,-95.4829 L 73.9191,-96.1801 L 73.7314,-96.3922 L 73.1052,-97.0512
 L 72.9096,-97.2434 L 72.2349,-97.8624 L 72.034,-98.0348 L 71.3141,-98.6124 L 71.1082,-98.767 L 70.3465,-99.3014
 L 70.1371,-99.4387 L 69.3369,-99.9284 L 69.1238,-100.05 L 68.2883,-100.493 L 68.0727,-100.6 L 67.2054,-100.995
 L 66.9869,-101.087 L 66.091,-101.433 L 65.8692,-101.511 L 64.9481,-101.806 L 64.7234,-101.87 L 63.7803,-102.112
 L 63.552,-102.164 L 62.5904,-102.351 L 62.4557,-102.375 L 61.8406,-102.474 L 61.8049,-102.479 L 61.1878,-102.572
 L 61.151,-102.577 L 60.5321,-102.665 L 60.4974,-102.67 L 59.8769,-102.752 L 59.8419,-102.756 L 59.2201,-102.833
 L 59.1853,-102.837 L 58.5624,-102.908 L 58.5285,-102.912 L 57.9047,-102.978 L 57.8715,-102.981 L 57.2472,-103.042
 L 57.2128,-103.045 L 56.5882,-103.1 L 56.5552,-103.103 L 55.9304,-103.153 L 55.8981,-103.155 L 55.2735,-103.2
 L 55.2407,-103.203 L 54.6165,-103.242 L 54.5834,-103.244 L 53.9599,-103.279 L 53.9277,-103.281 L 53.305,-103.31
 L 53.2731,-103.312 L 52.6516,-103.336 L 52.6198,-103.337 L 51.9996,-103.357 L 51.967,-103.358 L 51.3484,-103.372
 L 51.317,-103.373 L 50.7003,-103.382 L 50.6678,-103.382 L 50.0533,-103.387 L 50.0222,-103.387 L 49.41,-103.387
 L 49.377,-103.387 L 48.7675,-103.381 L 48.7364,-103.381 L 48.1298,-103.371 L 48.0977,-103.37 L 47.4942,-103.355
 L 47.4618,-103.355 L 46.8618,-103.335 L 46.8302,-103.334 L 46.2337,-103.31 L 46.2017,-103.308 L 45.6091,-103.279
 L 45.5767,-103.278 L 44.9881,-103.244 L 44.9559,-103.242 L 44.3716,-103.204 L 44.3393,-103.202 L 43.7594,-103.16
 L 43.7262,-103.157 L 43.151,-103.111 L 43.1183,-103.108 L 42.548,-103.057 L 42.5149,-103.054 L 41.9497,-102.998
 L 41.9164,-102.995 L 41.3564,-102.935 L 41.3218,-102.931 L 40.7674,-102.867 L 40.7335,-102.863 L 40.1848,-102.795
 L 40.1506,-102.791 L 39.6079,-102.719 L 39.5723,-102.714 L 39.0358,-102.638 L 38.9992,-102.633 L 38.469,-102.552
 L 38.4337,-102.547 L 37.91,-102.463 L 37.8728,-102.457 L 37.356,-102.369 L 37.2718,-102.354 L 35.8205,-102.075
 L 35.6728,-102.043 L 34.3405,-101.735 L 34.1697,-101.691 L 32.9516,-101.352 L 32.7561,-101.292 L 31.6473,-100.921
 L 31.4256,-100.84 L 30.4213,-100.436 L 30.1732,-100.327 L 29.2686,-99.8903 L 29.0912,-99.7991 L 28.9966,-99.7458
 L 28.1868,-99.2749 L 28.0169,-99.1703 L 27.897,-99.0893 L 27.1774,-98.5834 L 27.0172,-98.4646 L 26.8796,-98.3523
 L 26.2452,-97.8103 L 26.0969,-97.677 L 25.9536,-97.5347 L 25.3996,-96.9558 L 25.2654,-96.8083 L 25.129,-96.6419
 L 24.6506,-96.0252 L 24.5323,-95.8646 L 24.4144,-95.686 L 24.0068,-95.0306 L 23.9057,-94.8586 L 23.8138,-94.6827
 L 23.4722,-93.9878 L 23.3887,-93.8067 L 23.3244,-93.6483 L 23.044,-92.9129 L 22.9776,-92.7248 L 22.9382,-92.5962
 L 22.7142,-91.8195 L 22.6434,-91.5355 L 22.4709,-90.7165 L 22.4269,-90.4697 L 22.3011,-89.6076 L 22.2762,-89.3987
 L 22.1923,-88.4925 L 22.1801,-88.3204 L 22.1333,-87.3694 L 22.1289,-87.2314 L 22.1143,-86.2345 L 22.1139,-86.1759
 L 22.1139,-78.201 L 17.1724,-78.201 L 17.0531,-78.1992 L 16.0213,-78.1684 L 15.7789,-78.1538 L 14.7625,-78.0615
 L 14.5168,-78.0315 L 13.5183,-77.8781 L 13.27,-77.8319 L 12.2919,-77.6177 L 12.0419,-77.5544 L 11.0865,-77.2796
 L 10.8363,-77.1987 L 9.90627,-76.8636 L 9.65831,-76.7647 L 8.7561,-76.3698 L 8.51038,-76.2522 L 7.63849,-75.7975
 L 7.3992,-75.662 L 6.56,-75.1481 L 6.32741,-74.9943 L 5.52341,-74.4213 L 5.30038,-74.2502 L 4.53418,-73.6185
 L 4.32306,-73.4316 L 3.59695,-72.7415 L 3.399,-72.5395 L 2.71561,-71.7912 L 2.53308,-71.5767 L 1.89488,-70.7706
 L 1.72945,-70.5459 L 1.13875,-69.6823 L 0.990601,-69.4488 L 0.450104,-68.5279 L 0.320633,-68.2891 L -0.167267,-67.3113
 L -0.277969,-67.0697 L -0.710876,-66.0353 L -0.80336,-65.7924 L -1.17865,-64.7017 L -1.25314,-64.4608 L -1.56845,-63.3141
 L -1.60439,-63.1735 L -1.91678,-61.8515 L -1.93056,-61.7911 L -2.21146,-60.5143 L -2.2262,-60.4443 L -2.4752,-59.2075
 L -2.49023,-59.1288 L -2.70734,-57.9265 L -2.72227,-57.8382 L -2.90707,-56.6651 L -2.92113,-56.5681 L -3.07343,-55.4188
 L -3.08586,-55.3144 L -3.20557,-54.1836 L -3.21579,-54.0722 L -3.30258,-52.9545 L -3.30992,-52.8381 L -3.36362,-51.7282
 L -3.36761,-51.6086 L -3.38802,-50.501 L -3.3884,-50.3798 L -3.3752,-49.2693 L -3.37198,-49.1493 L -3.32509,-48.0304
 L -3.31844,-47.9129 L -3.23753,-46.7803 L -3.22786,-46.6676 L -3.11276,-45.5159 L -3.10066,-45.4093 L -2.95116,-44.2333
 L -2.93723,-44.1337 L -2.75302,-42.9278 L -2.73802,-42.8367 L -2.51903,-41.5958 L -2.50349,-41.5129 L -2.24939,-40.2315
 L -2.23402,-40.1577 L -1.94473,-38.8305 L -1.92982,-38.7647 L -1.60492,-37.3862 L -1.57956,-37.2846 L -1.30786,-36.2535
 L -1.26289,-36.096 L -0.95549,-35.0973 L -0.900558,-34.9317 L -0.557053,-33.9674 L -0.490463,-33.7934 L -0.110565,-32.866
 L -0.0305786,-32.6839 L 0.386124,-31.7953 L 0.48201,-31.6043 L 0.936096,-30.757 L 1.04919,-30.5597 L 1.5408,-29.7558
 L 1.67427,-29.5518 L 2.20396,-28.7936 L 2.35924,-28.586 L 2.92734,-27.8757 L 3.10654,-27.6668 L 3.71355,-27.0066
 L 3.91731,-26.8005 L 4.56351,-26.1926 L 4.71213,-26.0596 L 4.79242,-25.9931 L 5.47823,-25.4397 L 5.63651,-25.3183
 L 5.73158,-25.2513 L 6.45747,-24.7547 L 6.62483,-24.6462 L 6.73221,-24.5826 L 7.49841,-24.145 L 7.67403,-24.0504
 L 7.79195,-23.9931 L 8.59904,-23.6168 L 8.78186,-23.537 L 8.90465,-23.4894 L 9.75294,-23.1764 L 9.94171,-23.1121
 L 10.067,-23.075 L 10.9569,-22.8278 L 11.1503,-22.7793 L 11.2714,-22.754 L 12.2034,-22.5746 L 12.4002,-22.5418
 L 12.514,-22.5274 L 13.4883,-22.4182 L 13.687,-22.4009 L 13.7884,-22.396 L 14.8055,-22.3589 L 14.9509,-22.3563
 L 22.2628,-22.3563 L 22.2628,-13.8241 L 22.2664,-13.6538 L 22.3067,-12.708 L 22.3202,-12.509 L 22.336,-12.3666
 L 22.4547,-11.4463 L 22.4851,-11.2492 L 22.5126,-11.1104 L 22.7063,-10.2171 L 22.7535,-10.0233 L 22.7917,-9.89052
 L 23.0572,-9.02591 L 23.1205,-8.83676 L 23.1673,-8.71402 L 23.5012,-7.87962 L 23.5799,-7.69637 L 23.6332,-7.5849
 L 24.0322,-6.78239 L 24.1254,-6.60606 L 24.1828,-6.50719 L 24.6436,-5.73819 L 24.7503,-5.56972 L 24.8095,-5.48375
 L 25.3288,-4.74985 L 25.5066,-4.51711 L 26.0809,-3.81992 L 26.2686,-3.60779 L 26.8948,-2.94878 L 27.0904,-2.75661
 L 27.7651,-2.13762 L 27.966,-1.96521 L 28.6859,-1.3876 L 28.8918,-1.233 L 29.6535,-0.698608 L 29.8629,-0.561295
 L 30.6631,-0.0715942 L 30.8762,0.0500031 L 31.7117,0.493317 L 31.9273,0.599533 L 32.7946,0.994919 L 33.0131,1.08681
 L 33.909,1.43271 L 34.1308,1.51094 L 35.0519,1.80565 L 35.2766,1.87038 L 36.2197,2.11238 L 36.448,2.16389
 L 37.4096,2.35149 L 37.5443,2.37537 L 38.1594,2.47366 L 38.1951,2.4792 L 38.8122,2.57211 L 38.849,2.5775
 L 39.4679,2.66479 L 39.5026,2.66951 L 40.1231,2.75151 L 40.1581,2.75598 L 40.7799,2.83258 L 40.8147,2.83672
 L 41.4376,2.90791 L 41.4715,2.91165 L 42.0953,2.97755 L 42.1285,2.98093 L 42.7528,3.04163 L 42.7872,3.04482
 L 43.4118,3.10011 L 43.4448,3.10289 L 44.0696,3.15298 L 44.1019,3.15544 L 44.7265,3.20044 L 44.7593,3.20268
 L 45.3835,3.24249 L 45.4166,3.24446 L 46.0401,3.27905 L 46.0723,3.2807 L 46.695,3.31021 L 46.7269,3.3116
 L 47.3484,3.33609 L 47.3802,3.33722 L 48.0004,3.35672 L 48.033,3.3576 L 48.6516,3.37201 L 48.683,3.37262
 L 49.2997,3.38213 L 49.3322,3.38249 L 49.9467,3.38698 L 49.9778,3.38708 z
M 14.9509,-26.3563 L 13.9338,-26.3933 L 12.9595,-26.5025 L 12.0275,-26.6819 L 11.1376,-26.9291 L 10.2893,-27.2421
 L 9.48221,-27.6184 L 8.716,-28.056 L 7.99011,-28.5526 L 7.30431,-29.106 L 6.65811,-29.7139 L 6.0511,-30.3741
 L 5.483,-31.0844 L 4.95331,-31.8426 L 4.4617,-32.6465 L 4.00761,-33.4938 L 3.59091,-34.3823 L 3.21101,-35.3097
 L 2.86751,-36.274 L 2.5601,-37.2727 L 2.28841,-38.3038 L 1.9635,-39.6823 L 1.67421,-41.0096 L 1.4201,-42.291
 L 1.20111,-43.5319 L 1.01691,-44.7377 L 0.867401,-45.9137 L 0.752304,-47.0654 L 0.671402,-48.1979 L 0.624512,-49.3168
 L 0.611313,-50.4273 L 0.631714,-51.5349 L 0.68541,-52.6449 L 0.772202,-53.7626 L 0.891907,-54.8934 L 1.0442,-56.0426
 L 1.229,-57.2157 L 1.44611,-58.418 L 1.69511,-59.6548 L 1.97601,-60.9316 L 2.28841,-62.2536 L 2.60371,-63.4003
 L 2.979,-64.491 L 3.41191,-65.5254 L 3.89981,-66.5032 L 4.44031,-67.4241 L 5.03101,-68.2877 L 5.6692,-69.0938
 L 6.3526,-69.8421 L 7.0787,-70.5322 L 7.84491,-71.1639 L 8.64891,-71.7369 L 9.48811,-72.2508 L 10.36,-72.7055
 L 11.2622,-73.1004 L 12.1922,-73.4355 L 13.1476,-73.7103 L 14.1257,-73.9245 L 15.1242,-74.0779 L 16.1406,-74.1702
 L 17.1724,-74.201 L 49.9395,-74.201 L 49.9395,-77.1947 L 26.1139,-77.1947 L 26.1139,-86.1759 L 26.1285,-87.1728
 L 26.1753,-88.1238 L 26.2592,-89.03 L 26.385,-89.8921 L 26.5575,-90.7111 L 26.7815,-91.4878 L 27.0619,-92.2232
 L 27.4035,-92.9181 L 27.8111,-93.5735 L 28.2895,-94.1902 L 28.8435,-94.7691 L 29.4779,-95.3111 L 30.1975,-95.817
 L 31.0073,-96.2879 L 31.9119,-96.7245 L 32.9162,-97.1278 L 34.025,-97.4987 L 35.2431,-97.838 L 36.5754,-98.1466
 L 38.0267,-98.4255 L 38.5435,-98.5134 L 39.0672,-98.5974 L 39.5974,-98.6776 L 40.134,-98.7537 L 40.6767,-98.8257
 L 41.2254,-98.8937 L 41.7798,-98.9576 L 42.3398,-99.0172 L 42.905,-99.0726 L 43.4753,-99.1237 L 44.0505,-99.1705
 L 44.6304,-99.2128 L 45.2147,-99.2507 L 45.8033,-99.2841 L 46.3959,-99.3129 L 46.9923,-99.3371 L 47.5923,-99.3567
 L 48.1957,-99.3715 L 48.8023,-99.3815 L 49.4119,-99.3868 L 50.0241,-99.3871 L 50.6386,-99.3826 L 51.2553,-99.3731
 L 51.8739,-99.3587 L 52.4941,-99.3392 L 53.1156,-99.3147 L 53.7383,-99.2852 L 54.3619,-99.2506 L 54.9861,-99.2108
 L 55.6107,-99.1658 L 56.2355,-99.1157 L 56.8601,-99.0604 L 57.4844,-98.9997 L 58.1082,-98.9338 L 58.7311,-98.8626
 L 59.3529,-98.786 L 59.9734,-98.704 L 60.5923,-98.6167 L 61.2094,-98.5238 L 61.8245,-98.4255 L 62.7861,-98.2379
 L 63.7292,-97.9959 L 64.6503,-97.7012 L 65.5462,-97.3553 L 66.4135,-96.9599 L 67.249,-96.5166 L 68.0492,-96.0269
 L 68.8109,-95.4925 L 69.5308,-94.9149 L 70.2055,-94.2959 L 70.8317,-93.6369 L 71.406,-92.9397 L 71.9253,-92.2058
 L 72.3861,-91.4368 L 72.7851,-90.6343 L 73.119,-89.7999 L 73.3845,-88.9353 L 73.5782,-88.042 L 73.6969,-87.1217
 L 73.7372,-86.1759 L 73.7372,-76.1463 L 73.73,-76.1376 L 73.6095,-75.9787 L 73.4972,-75.8139 L 73.3932,-75.6437
 L 73.2978,-75.4685 L 73.2113,-75.2888 L 73.1338,-75.1051 L 73.0656,-74.9176 L 73.0068,-74.7271 L 72.9576,-74.5338
 L 72.9181,-74.3383 L 72.8883,-74.1411 L 72.8685,-73.9426 L 72.8573,-73.6437 L 72.8573,-62.9638 L 72.8182,-62.0634
 L 72.7137,-61.2593 L 72.5418,-60.4653 L 72.3046,-59.6844 L 72.0033,-58.9194 L 71.6404,-58.1742 L 71.2183,-57.4536
 L 70.7397,-56.7614 L 70.2084,-56.1036 L 69.6273,-55.4835 L 69.0008,-54.9066 L 68.3331,-54.3768 L 67.6281,-53.8981
 L 66.8906,-53.4742 L 66.1241,-53.1082 L 65.3326,-52.8031 L 64.5198,-52.5615 L 63.6878,-52.3857 L 62.8389,-52.2783
 L 61.8888,-52.2382 L 38.1755,-52.2382 L 38.0132,-52.2349 L 37.0301,-52.195 L 36.8311,-52.1819 L 36.7057,-52.1685
 L 35.7455,-52.0508 L 35.5482,-52.0216 L 35.4256,-51.9984 L 34.4915,-51.8061 L 34.2972,-51.761 L 34.1792,-51.7286
 L 33.2739,-51.4648 L 33.0839,-51.4043 L 32.9712,-51.3633 L 32.0979,-51.0313 L 31.9133,-50.9558 L 31.8072,-50.9074
 L 30.9687,-50.5102 L 30.7906,-50.4204 L 30.6911,-50.3652 L 29.8904,-49.906 L 29.7199,-49.8025 L 29.6271,-49.7411
 L 28.8673,-49.2231 L 28.7054,-49.1067 L 28.6197,-49.04 L 27.9036,-48.4663 L 27.7511,-48.3378 L 27.6719,-48.2657
 L 27.0025,-47.6395 L 26.8603,-47.4997 L 26.7874,-47.4223 L 26.1677,-46.7468 L 26.0366,-46.5965 L 25.9701,-46.5142
 L 25.403,-45.7925 L 25.2838,-45.6326 L 25.2232,-45.5446 L 24.7118,-44.7798 L 24.6051,-44.6113 L 24.551,-44.5183
 L 24.0981,-43.7137 L 24.0047,-43.5375 L 23.957,-43.4385 L 23.5657,-42.5972 L 23.4861,-42.4143 L 23.4455,-42.31
 L 23.1187,-41.4351 L 23.0536,-41.2466 L 23.0205,-41.1372 L 22.7611,-40.2319 L 22.711,-40.0388 L 22.686,-39.9242
 L 22.4971,-38.9916 L 22.4624,-38.7952 L 22.4464,-38.6774 L 22.3308,-37.7208 L 22.3118,-37.5222 L 22.3051,-37.4008
 L 22.266,-36.4232 L 22.2628,-36.2633 L 22.2628,-26.3563 z
M 36.7985,-83.2099 L 36.9968,-83.2275 L 37.1941,-83.2538 L 37.3901,-83.2889 L 37.5844,-83.3326 L 37.7765,-83.3848
 L 37.9661,-83.4455 L 38.1529,-83.5145 L 38.3364,-83.5917 L 38.5163,-83.677 L 38.6923,-83.7701 L 38.864,-83.8709
 L 39.031,-83.9792 L 39.1931,-84.0948 L 39.35,-84.2175 L 39.5012,-84.347 L 39.6466,-84.483 L 39.7858,-84.6253
 L 39.9186,-84.7737 L 40.0447,-84.9278 L 40.1638,-85.0873 L 40.2758,-85.2519 L 40.3804,-85.4213 L 40.4774,-85.5952
 L 40.5666,-85.7732 L 40.6479,-85.955 L 40.721,-86.1401 L 40.7859,-86.3284 L 40.8423,-86.5193 L 40.8903,-86.7125
 L 40.9297,-86.9077 L 40.9604,-87.1044 L 40.9824,-87.3023 L 40.9956,-87.5009 L 41,-87.7 L 40.9956,-87.899
 L 40.9824,-88.0977 L 40.9604,-88.2956 L 40.9297,-88.4923 L 40.8903,-88.6875 L 40.8423,-88.8807 L 40.7859,-89.0716
 L 40.721,-89.2599 L 40.6479,-89.445 L 40.5666,-89.6268 L 40.4774,-89.8048 L 40.3804,-89.9787 L 40.2758,-90.1481
 L 40.1638,-90.3127 L 40.0447,-90.4722 L 39.9186,-90.6263 L 39.7858,-90.7746 L 39.6466,-90.917 L 39.5012,-91.053
 L 39.35,-91.1825 L 39.1931,-91.3051 L 39.031,-91.4207 L 38.864,-91.5291 L 38.6923,-91.6299 L 38.5163,-91.723
 L 38.3364,-91.8082 L 38.1529,-91.8855 L 37.9661,-91.9545 L 37.7765,-92.0152 L 37.5844,-92.0674 L 37.3901,-92.1111
 L 37.1941,-92.1461 L 36.9968,-92.1725 L 36.7985,-92.1901 L 36.5996,-92.1989 L 36.4005,-92.1989 L 36.2016,-92.1901
 L 36.0032,-92.1725 L 35.8059,-92.1461 L 35.6099,-92.1111 L 35.4156,-92.0674 L 35.2235,-92.0152 L 35.0339,-91.9545
 L 34.8472,-91.8855 L 34.6636,-91.8082 L 34.4837,-91.723 L 34.3077,-91.6299 L 34.136,-91.5291 L 33.969,-91.4207
 L 33.8069,-91.3051 L 33.6501,-91.1825 L 33.4988,-91.053 L 33.3534,-90.917 L 33.2142,-90.7746 L 33.0814,-90.6263
 L 32.9553,-90.4722 L 32.8362,-90.3127 L 32.7242,-90.1481 L 32.6196,-89.9787 L 32.5226,-89.8048 L 32.4334,-89.6268
 L 32.3521,-89.445 L 32.279,-89.2599 L 32.2141,-89.0716 L 32.1577,-88.8807 L 32.1097,-88.6875 L 32.0703,-88.4923
 L 32.0396,-88.2956 L 32.0176,-88.0977 L 32.0044,-87.899 L 32,-87.7 L 32.0044,-87.5009 L 32.0176,-87.3023
 L 32.0396,-87.1044 L 32.0703,-86.9077 L 32.1097,-86.7125 L 32.1577,-86.5193 L 32.2141,-86.3284 L 32.279,-86.1401
 L 32.3521,-85.955 L 32.4334,-85.7732 L 32.5226,-85.5952 L 32.6196,-85.4213 L 32.7242,-85.2519 L 32.8362,-85.0873
 L 32.9553,-84.9278 L 33.0814,-84.7737 L 33.2142,-84.6253 L 33.3534,-84.483 L 33.4988,-84.347 L 33.6501,-84.2175
 L 33.8069,-84.0948 L 33.969,-83.9792 L 34.136,-83.8709 L 34.3077,-83.7701 L 34.4837,-83.677 L 34.6636,-83.5917
 L 34.8472,-83.5145 L 35.0339,-83.4455 L 35.2235,-83.3848 L 35.4156,-83.3326 L 35.6099,-83.2889 L 35.8059,-83.2538
 L 36.0032,-83.2275 L 36.2016,-83.2099 L 36.4005,-83.2011 L 36.5996,-83.2011 z
M 36.4891,-87.2011 L 36.4669,-87.2021 L 36.4449,-87.204 L 36.423,-87.207 L 36.4015,-87.2108 L 36.3797,-87.2157
 L 36.3582,-87.2215 L 36.3376,-87.2281 L 36.3166,-87.2359 L 36.2962,-87.2445 L 36.2763,-87.2539 L 36.2571,-87.2641
 L 36.2379,-87.2753 L 36.2192,-87.2874 L 36.2015,-87.3001 L 36.1839,-87.3139 L 36.1672,-87.3281 L 36.151,-87.3433
 L 36.1357,-87.3589 L 36.1211,-87.3753 L 36.1067,-87.3928 L 36.0938,-87.4102 L 36.0813,-87.4285 L 36.0696,-87.4474
 L 36.0589,-87.4667 L 36.0491,-87.4861 L 36.0401,-87.5063 L 36.0318,-87.5273 L 36.0247,-87.5479 L 36.0186,-87.5687
 L 36.0131,-87.5906 L 36.0088,-87.6121 L 36.0054,-87.6339 L 36.0029,-87.656 L 36.0015,-87.6779 L 36.001,-87.7
 L 36.0015,-87.722 L 36.0029,-87.7437 L 36.0054,-87.766 L 36.0088,-87.7879 L 36.0131,-87.8094 L 36.0185,-87.8312
 L 36.0248,-87.8522 L 36.0318,-87.8727 L 36.0401,-87.8936 L 36.0491,-87.9138 L 36.0589,-87.9333 L 36.0697,-87.9528
 L 36.0812,-87.9714 L 36.0936,-87.9896 L 36.1069,-88.0073 L 36.121,-88.0246 L 36.1357,-88.041 L 36.151,-88.0567
 L 36.1672,-88.0719 L 36.1839,-88.0862 L 36.2016,-88.0999 L 36.2192,-88.1125 L 36.238,-88.1247 L 36.257,-88.1358
 L 36.2763,-88.1461 L 36.2962,-88.1555 L 36.317,-88.1642 L 36.3373,-88.1718 L 36.3584,-88.1785 L 36.3798,-88.1843
 L 36.4015,-88.1892 L 36.4227,-88.193 L 36.4449,-88.1959 L 36.4671,-88.1979 L 36.4892,-88.1989 L 36.5108,-88.1989
 L 36.5329,-88.1979 L 36.5552,-88.1959 L 36.5773,-88.193 L 36.5986,-88.1892 L 36.6202,-88.1843 L 36.6417,-88.1785
 L 36.6627,-88.1718 L 36.683,-88.1642 L 36.7038,-88.1555 L 36.7237,-88.1461 L 36.7431,-88.1358 L 36.762,-88.1247
 L 36.7809,-88.1125 L 36.7984,-88.0999 L 36.8161,-88.0862 L 36.8328,-88.0719 L 36.849,-88.0567 L 36.8644,-88.041
 L 36.879,-88.0246 L 36.8931,-88.0073 L 36.9064,-87.9896 L 36.9188,-87.9714 L 36.9303,-87.9528 L 36.9411,-87.9333
 L 36.9509,-87.9138 L 36.9599,-87.8936 L 36.9682,-87.8727 L 36.9752,-87.8522 L 36.9815,-87.8312 L 36.9869,-87.8094
 L 36.9912,-87.7879 L 36.9946,-87.766 L 36.9971,-87.7437 L 36.9985,-87.722 L 36.999,-87.7 L 36.9985,-87.6779
 L 36.9971,-87.656 L 36.9946,-87.6339 L 36.9912,-87.6121 L 36.9869,-87.5906 L 36.9815,-87.5687 L 36.9753,-87.5479
 L 36.9682,-87.5273 L 36.9599,-87.5063 L 36.9509,-87.4861 L 36.9411,-87.4667 L 36.9304,-87.4474 L 36.9187,-87.4285
 L 36.9063,-87.4102 L 36.8933,-87.3928 L 36.879,-87.3753 L 36.8643,-87.3589 L 36.849,-87.3433 L 36.8328,-87.3281
 L 36.8161,-87.3139 L 36.7985,-87.3001 L 36.7808,-87.2874 L 36.7621,-87.2753 L 36.7429,-87.2641 L 36.7237,-87.2539
 L 36.7038,-87.2445 L 36.6834,-87.2359 L 36.6624,-87.2281 L 36.6418,-87.2215 L 36.6203,-87.2157 L 36.5985,-87.2108
 L 36.577,-87.207 L 36.5552,-87.204 L 36.5331,-87.2021 L 36.5109,-87.2011 z
M 49.3614,-0.617401 L 48.7447,-0.626907 L 48.1261,-0.641312 L 47.5059,-0.660812 L 46.8844,-0.685303 L 46.2617,-0.714813
 L 45.6381,-0.749405 L 45.0139,-0.789215 L 44.3893,-0.834213 L 43.7645,-0.884308 L 43.1399,-0.939606 L 42.5156,-1.00031
 L 41.8918,-1.06621 L 41.2689,-1.13741 L 40.6471,-1.214 L 40.0266,-1.29601 L 39.4077,-1.3833 L 38.7906,-1.47621
 L 38.1755,-1.57451 L 37.2139,-1.7621 L 36.2708,-2.0041 L 35.3497,-2.29881 L 34.4538,-2.64471 L 33.5865,-3.0401
 L 32.751,-3.48341 L 31.9508,-3.97311 L 31.1891,-4.50751 L 30.4692,-5.08511 L 29.7945,-5.7041 L 29.1683,-6.36311
 L 28.594,-7.0603 L 28.0747,-7.7942 L 27.6139,-8.5632 L 27.2149,-9.36571 L 26.881,-10.2001 L 26.6155,-11.0647
 L 26.4218,-11.958 L 26.3031,-12.8783 L 26.2628,-13.8241 L 26.2628,-23.8537 L 26.27,-23.8624 L 26.3905,-24.0213
 L 26.5028,-24.1861 L 26.6068,-24.3563 L 26.7022,-24.5315 L 26.7887,-24.7112 L 26.8662,-24.8949 L 26.9344,-25.0824
 L 26.9932,-25.2729 L 27.0424,-25.4662 L 27.0819,-25.6617 L 27.1117,-25.8589 L 27.1315,-26.0574 L 27.1427,-26.3563
 L 27.1427,-37.0362 L 27.1818,-37.9366 L 27.2863,-38.7407 L 27.4582,-39.5347 L 27.6954,-40.3156 L 27.9967,-41.0806
 L 28.3596,-41.8258 L 28.7817,-42.5464 L 29.2603,-43.2386 L 29.7916,-43.8964 L 30.3727,-44.5165 L 30.9992,-45.0934
 L 31.6669,-45.6232 L 32.3719,-46.1019 L 33.1094,-46.5258 L 33.8759,-46.8918 L 34.6674,-47.1969 L 35.4802,-47.4385
 L 36.3122,-47.6143 L 37.1611,-47.7217 L 38.1112,-47.7618 L 61.8245,-47.7618 L 61.9868,-47.7651 L 62.9699,-47.805
 L 63.1689,-47.8181 L 63.2943,-47.8315 L 64.2545,-47.9492 L 64.4518,-47.9784 L 64.5744,-48.0016 L 65.5085,-48.1939
 L 65.7028,-48.239 L 65.8208,-48.2714 L 66.7261,-48.5352 L 66.9161,-48.5957 L 67.0288,-48.6367 L 67.9021,-48.9687
 L 68.0867,-49.0442 L 68.1928,-49.0926 L 69.0313,-49.4898 L 69.2094,-49.5796 L 69.3089,-49.6348 L 70.1096,-50.094
 L 70.2801,-50.1975 L 70.3729,-50.2589 L 71.1327,-50.7769 L 71.2946,-50.8933 L 71.3803,-50.96 L 72.0964,-51.5337
 L 72.2489,-51.6622 L 72.3281,-51.7343 L 72.9975,-52.3605 L 73.1397,-52.5003 L 73.2126,-52.5777 L 73.8323,-53.2532
 L 73.9634,-53.4035 L 74.0299,-53.4858 L 74.597,-54.2075 L 74.7162,-54.3674 L 74.7768,-54.4554 L 75.2882,-55.2202
 L 75.3949,-55.3887 L 75.449,-55.4817 L 75.9019,-56.2863 L 75.9953,-56.4625 L 76.043,-56.5615 L 76.4343,-57.4028
 L 76.5139,-57.5857 L 76.5545,-57.69 L 76.8813,-58.5649 L 76.9464,-58.7534 L 76.9795,-58.8628 L 77.2389,-59.7681
 L 77.289,-59.9612 L 77.314,-60.0758 L 77.5029,-61.0084 L 77.5376,-61.2048 L 77.5536,-61.3226 L 77.6692,-62.2792
 L 77.6882,-62.4778 L 77.6949,-62.5992 L 77.734,-63.5768 L 77.7372,-63.7367 L 77.7372,-73.6437 L 85.0491,-73.6437
 L 86.0662,-73.6067 L 87.0405,-73.4975 L 87.9725,-73.3181 L 88.8624,-73.0709 L 89.7107,-72.7579 L 90.5178,-72.3816
 L 91.284,-71.944 L 92.0099,-71.4474 L 92.6957,-70.894 L 93.3419,-70.2861 L 93.9489,-69.6259 L 94.517,-68.9156
 L 95.0467,-68.1574 L 95.5383,-67.3535 L 95.9924,-66.5062 L 96.4091,-65.6177 L 96.789,-64.6903 L 97.1325,-63.726
 L 97.4399,-62.7273 L 97.7116,-61.6962 L 98.0365,-60.3177 L 98.3258,-58.9904 L 98.5799,-57.709 L 98.7989,-56.4681
 L 98.9831,-55.2623 L 99.1326,-54.0863 L 99.2477,-52.9346 L 99.3286,-51.8021 L 99.3755,-50.6832 L 99.3887,-49.5727
 L 99.3683,-48.4651 L 99.3146,-47.3551 L 99.2278,-46.2374 L 99.1081,-45.1066 L 98.9558,-43.9574 L 98.771,-42.7843
 L 98.5539,-41.582 L 98.3049,-40.3452 L 98.024,-39.0684 L 97.7116,-37.7464 L 97.3963,-36.5997 L 97.021,-35.509
 L 96.5881,-34.4746 L 96.1002,-33.4968 L 95.5597,-32.5759 L 94.969,-31.7123 L 94.3308,-30.9062 L 93.6474,-30.1579
 L 92.9213,-29.4678 L 92.1551,-28.8361 L 91.3511,-28.2631 L 90.5119,-27.7492 L 89.64,-27.2945 L 88.7378,-26.8996
 L 87.8078,-26.5645 L 86.8524,-26.2897 L 85.8743,-26.0755 L 84.8758,-25.9221 L 83.8594,-25.8298 L 82.8276,-25.799
 L 50.0605,-25.799 L 50.0605,-22.8053 L 73.8861,-22.8053 L 73.8861,-13.8241 L 73.8715,-12.8272 L 73.8247,-11.8762
 L 73.7408,-10.97 L 73.615,-10.1079 L 73.4425,-9.28891 L 73.2185,-8.51221 L 72.9381,-7.77681 L 72.5965,-7.08191
 L 72.1889,-6.42651 L 71.7105,-5.80981 L 71.1565,-5.23091 L 70.5221,-4.6889 L 69.8025,-4.18301 L 68.9927,-3.71211
 L 68.0881,-3.27551 L 67.0838,-2.87221 L 65.975,-2.50131 L 64.7569,-2.162 L 63.4246,-1.85341 L 61.9733,-1.57451
 L 61.4565,-1.4866 L 60.9328,-1.4026 L 60.4026,-1.3224 L 59.866,-1.24631 L 59.3233,-1.1743 L 58.7746,-1.10631
 L 58.2202,-1.0424 L 57.6602,-0.982803 L 57.095,-0.927414 L 56.5247,-0.876312 L 55.9495,-0.829514 L 55.3696,-0.787201
 L 54.7853,-0.749313 L 54.1967,-0.715912 L 53.6041,-0.687103 L 53.0077,-0.662903 L 52.4077,-0.643311 L 51.8043,-0.62851
 L 51.1977,-0.618515 L 50.5881,-0.613205 L 49.9759,-0.612915 z
M 63.7984,-7.80992 L 63.9968,-7.82751 L 64.1941,-7.85387 L 64.3901,-7.88892 L 64.5844,-7.9326 L 64.7765,-7.98485
 L 64.9661,-8.04553 L 65.1528,-8.11455 L 65.3364,-8.19176 L 65.5163,-8.27701 L 65.6923,-8.37013 L 65.864,-8.47095
 L 66.031,-8.57927 L 66.1931,-8.69485 L 66.3499,-8.81752 L 66.5012,-8.94699 L 66.6466,-9.08302 L 66.7858,-9.22536
 L 66.9186,-9.3737 L 67.0447,-9.52779 L 67.1638,-9.6873 L 67.2758,-9.85191 L 67.3804,-10.0213 L 67.4774,-10.1952
 L 67.5666,-10.3732 L 67.6479,-10.555 L 67.721,-10.7401 L 67.7859,-10.9284 L 67.8423,-11.1193 L 67.8903,-11.3125
 L 67.9297,-11.5077 L 67.9604,-11.7044 L 67.9824,-11.9023 L 67.9956,-12.101 L 68,-12.3 L 67.9956,-12.4991
 L 67.9824,-12.6977 L 67.9604,-12.8956 L 67.9297,-13.0923 L 67.8903,-13.2875 L 67.8423,-13.4807 L 67.7859,-13.6716
 L 67.721,-13.8599 L 67.6479,-14.045 L 67.5666,-14.2268 L 67.4774,-14.4048 L 67.3804,-14.5787 L 67.2758,-14.7481
 L 67.1638,-14.9127 L 67.0447,-15.0722 L 66.9186,-15.2263 L 66.7858,-15.3747 L 66.6466,-15.517 L 66.5012,-15.653
 L 66.3499,-15.7825 L 66.1931,-15.9052 L 66.031,-16.0208 L 65.864,-16.1291 L 65.6923,-16.2299 L 65.5163,-16.323
 L 65.3364,-16.4083 L 65.1528,-16.4855 L 64.9661,-16.5545 L 64.7765,-16.6152 L 64.5844,-16.6674 L 64.3901,-16.7111
 L 64.1941,-16.7462 L 63.9968,-16.7725 L 63.7984,-16.7901 L 63.5995,-16.7989 L 63.4004,-16.7989 L 63.2015,-16.7901
 L 63.0032,-16.7725 L 62.8059,-16.7462 L 62.6099,-16.7111 L 62.4156,-16.6674 L 62.2235,-16.6152 L 62.0339,-16.5545
 L 61.8471,-16.4855 L 61.6636,-16.4083 L 61.4837,-16.323 L 61.3077,-16.2299 L 61.136,-16.1291 L 60.969,-16.0208
 L 60.8069,-15.9052 L 60.65,-15.7825 L 60.4988,-15.653 L 60.3534,-15.517 L 60.2142,-15.3747 L 60.0814,-15.2263
 L 59.9553,-15.0722 L 59.8362,-14.9127 L 59.7242,-14.7481 L 59.6196,-14.5787 L 59.5226,-14.4048 L 59.4334,-14.2268
 L 59.3521,-14.045 L 59.279,-13.8599 L 59.2141,-13.6716 L 59.1577,-13.4807 L 59.1097,-13.2875 L 59.0703,-13.0923
 L 59.0396,-12.8956 L 59.0176,-12.6977 L 59.0044,-12.4991 L 59,-12.3 L 59.0044,-12.101 L 59.0176,-11.9023
 L 59.0396,-11.7044 L 59.0703,-11.5077 L 59.1097,-11.3125 L 59.1577,-11.1193 L 59.2141,-10.9284 L 59.279,-10.7401
 L 59.3521,-10.555 L 59.4334,-10.3732 L 59.5226,-10.1952 L 59.6196,-10.0213 L 59.7242,-9.85191 L 59.8362,-9.6873
 L 59.9553,-9.52779 L 60.0814,-9.3737 L 60.2142,-9.22536 L 60.3534,-9.08302 L 60.4988,-8.94699 L 60.65,-8.81752
 L 60.8069,-8.69485 L 60.969,-8.57927 L 61.136,-8.47095 L 61.3077,-8.37013 L 61.4837,-8.27701 L 61.6636,-8.19176
 L 61.8471,-8.11455 L 62.0339,-8.04553 L 62.2235,-7.98485 L 62.4156,-7.9326 L 62.6099,-7.88892 L 62.8059,-7.85387
 L 63.0032,-7.82751 L 63.2015,-7.80992 L 63.4004,-7.8011 L 63.5995,-7.8011 z
M 63.4892,-11.8011 L 63.4671,-11.8021 L 63.4448,-11.8041 L 63.4227,-11.807 L 63.4014,-11.8108 L 63.3798,-11.8157
 L 63.3583,-11.8215 L 63.3373,-11.8282 L 63.317,-11.8358 L 63.2962,-11.8445 L 63.2763,-11.8539 L 63.2569,-11.8642
 L 63.238,-11.8753 L 63.2191,-11.8875 L 63.2016,-11.9001 L 63.1839,-11.9138 L 63.1672,-11.9281 L 63.151,-11.9433
 L 63.1356,-11.959 L 63.121,-11.9754 L 63.1069,-11.9927 L 63.0936,-12.0104 L 63.0812,-12.0286 L 63.0697,-12.0472
 L 63.0589,-12.0667 L 63.0491,-12.0862 L 63.0401,-12.1064 L 63.0318,-12.1273 L 63.0248,-12.1478 L 63.0185,-12.1688
 L 63.0131,-12.1906 L 63.0088,-12.2121 L 63.0054,-12.234 L 63.0029,-12.2563 L 63.0015,-12.278 L 63.001,-12.3
 L 63.0015,-12.3221 L 63.0029,-12.344 L 63.0054,-12.3661 L 63.0088,-12.3879 L 63.0131,-12.4094 L 63.0185,-12.4313
 L 63.0247,-12.4521 L 63.0318,-12.4727 L 63.0401,-12.4937 L 63.0491,-12.5139 L 63.0589,-12.5333 L 63.0696,-12.5526
 L 63.0813,-12.5715 L 63.0937,-12.5898 L 63.1067,-12.6072 L 63.121,-12.6247 L 63.1357,-12.6411 L 63.151,-12.6567
 L 63.1672,-12.6719 L 63.1839,-12.6861 L 63.2015,-12.6999 L 63.2192,-12.7126 L 63.2379,-12.7247 L 63.2571,-12.7359
 L 63.2763,-12.7461 L 63.2962,-12.7555 L 63.3166,-12.7641 L 63.3376,-12.7719 L 63.3582,-12.7785 L 63.3797,-12.7843
 L 63.4015,-12.7892 L 63.423,-12.793 L 63.4448,-12.796 L 63.4669,-12.7979 L 63.4891,-12.7989 L 63.5109,-12.7989
 L 63.5331,-12.7979 L 63.5551,-12.796 L 63.577,-12.793 L 63.5985,-12.7892 L 63.6203,-12.7843 L 63.6418,-12.7785
 L 63.6624,-12.7719 L 63.6834,-12.7641 L 63.7038,-12.7555 L 63.7237,-12.7461 L 63.7429,-12.7359 L 63.7621,-12.7247
 L 63.7808,-12.7126 L 63.7985,-12.6999 L 63.8161,-12.6861 L 63.8328,-12.6719 L 63.849,-12.6567 L 63.8643,-12.6411
 L 63.8789,-12.6247 L 63.8933,-12.6072 L 63.9062,-12.5898 L 63.9187,-12.5715 L 63.9304,-12.5526 L 63.9411,-12.5333
 L 63.9509,-12.5139 L 63.9599,-12.4937 L 63.9682,-12.4727 L 63.9753,-12.4521 L 63.9814,-12.4313 L 63.9869,-12.4094
 L 63.9912,-12.3879 L 63.9946,-12.3661 L 63.9971,-12.344 L 63.9985,-12.3221 L 63.999,-12.3 L 63.9985,-12.278
 L 63.9971,-12.2563 L 63.9946,-12.234 L 63.9912,-12.2121 L 63.9869,-12.1906 L 63.9815,-12.1688 L 63.9752,-12.1478
 L 63.9682,-12.1273 L 63.9599,-12.1064 L 63.9509,-12.0862 L 63.9411,-12.0667 L 63.9303,-12.0472 L 63.9188,-12.0286
 L 63.9064,-12.0104 L 63.8931,-11.9927 L 63.879,-11.9754 L 63.8643,-11.959 L 63.849,-11.9433 L 63.8328,-11.9281
 L 63.8161,-11.9138 L 63.7984,-11.9001 L 63.7808,-11.8875 L 63.762,-11.8753 L 63.743,-11.8642 L 63.7237,-11.8539
 L 63.7038,-11.8445 L 63.683,-11.8358 L 63.6627,-11.8282 L 63.6416,-11.8215 L 63.6202,-11.8157 L 63.5985,-11.8108
 L 63.5773,-11.807 L 63.5551,-11.8041 L 63.5329,-11.8021 L 63.5108,-11.8011 z
" stroke="white" fill="white" stroke-width="0.5"/>
</svg>
