<?xml version="1.0" standalone="no"?>
<!DOCTYPE svg PUBLIC "-//W3C//DTD SVG 1.1//EN" "http://www.w3.org/Graphics/SVG/1.1/DTD/svg11.dtd">
<svg width="100mm" height="100mm" viewBox="-8 -108 116 116" xmlns="http://www.w3.org/2000/svg" version="1.1">
<title>OpenSCAD Model</title>
<path d="
M 37.7487,-26.3649 L 37.945,-26.3995 L 38.137,-26.4535 L 38.3226,-26.5264 L 38.5,-26.6173 L 68,-43.6491
 L 68,-30 L 68.0099,-29.8009 L 68.0397,-29.6037 L 68.0889,-29.4105 L 68.157,-29.2231 L 68.2436,-29.0435
 L 68.3475,-28.8734 L 68.4679,-28.7144 L 68.6035,-28.5683 L 68.753,-28.4363 L 68.9149,-28.3199 L 69.0876,-28.2203
 L 69.2693,-28.1383 L 69.4583,-28.0748 L 69.6527,-28.0304 L 69.8505,-28.0056 L 70,-28 L 80,-28
 L 80.1991,-28.0099 L 80.3963,-28.0397 L 80.5895,-28.0889 L 80.7769,-28.157 L 80.9565,-28.2436 L 81.1266,-28.3475
 L 81.2856,-28.4679 L 81.4317,-28.6035 L 81.5637,-28.753 L 81.6801,-28.9149 L 81.7797,-29.0876 L 81.8617,-29.2693
 L 81.9252,-29.4583 L 81.9696,-29.6527 L 81.9944,-29.8505 L 82,-30 L 82,-70 L 81.9901,-70.1991
 L 81.9603,-70.3963 L 81.9111,-70.5895 L 81.843,-70.7769 L 81.7564,-70.9565 L 81.6525,-71.1266 L 81.5321,-71.2856
 L 81.3965,-71.4317 L 81.247,-71.5637 L 81.0851,-71.6801 L 80.9124,-71.7797 L 80.7307,-71.8617 L 80.5417,-71.9252
 L 80.3473,-71.9696 L 80.1495,-71.9944 L 80,-72 L 70,-72 L 69.8009,-71.9901 L 69.6037,-71.9603
 L 69.4105,-71.9111 L 69.2231,-71.843 L 69.0435,-71.7564 L 68.8734,-71.6525 L 68.7144,-71.5321 L 68.5683,-71.3965
 L 68.4363,-71.247 L 68.3199,-71.0851 L 68.2203,-70.9124 L 68.1383,-70.7307 L 68.0748,-70.5417 L 68.0304,-70.3473
 L 68.0056,-70.1495 L 68,-70 L 68,-56.3509 L 38.5,-73.3827 L 38.3226,-73.4736 L 38.137,-73.5465
 L 37.945,-73.6005 L 37.7487,-73.6351 L 37.5499,-73.65 L 37.3505,-73.645 L 37.1527,-73.6203 L 36.9583,-73.5759
 L 36.7693,-73.5124 L 36.5876,-73.4304 L 36.4149,-73.3307 L 36.253,-73.2143 L 36.1035,-73.0824 L 35.9679,-72.9362
 L 35.8475,-72.7773 L 35.7436,-72.6071 L 35.657,-72.4275 L 35.5889,-72.2401 L 35.5397,-72.0469 L 35.5099,-71.8498
 L 35.5,-71.6506 L 35.5,-28.3494 L 35.5099,-28.1502 L 35.5397,-27.9531 L 35.5889,-27.7599 L 35.657,-27.5725
 L 35.7436,-27.3929 L 35.8475,-27.2227 L 35.9679,-27.0638 L 36.1035,-26.9176 L 36.253,-26.7857 L 36.4149,-26.6693
 L 36.5876,-26.5696 L 36.7693,-26.4876 L 36.9583,-26.4241 L 37.1527,-26.3797 L 37.3505,-26.355 L 37.5499,-26.35
 z
" stroke="white" fill="white" stroke-width="0.5"/>
</svg>
