<?xml version="1.0" standalone="no"?>
<!DOCTYPE svg PUBLIC "-//W3C//DTD SVG 1.1//EN" "http://www.w3.org/Graphics/SVG/1.1/DTD/svg11.dtd">
<svg width="100mm" height="100mm" viewBox="-8 -108 116 116" xmlns="http://www.w3.org/2000/svg" version="1.1">
<title>OpenSCAD Model</title>
<path d="
M 84.7513,-96.9845 L 84.5549,-96.9498 L 84.363,-96.8958 L 84.1774,-96.823 L 4.17741,-56.823 L 4,-56.732
 L 3.8325,-56.6239 L 3.67662,-56.4996 L 3.53389,-56.3603 L 3.40573,-56.2076 L 3.29341,-56.0429 L 3.19806,-55.8678
 L 3.12061,-55.684 L 3.06184,-55.4935 L 3.02232,-55.2981 L 3.00247,-55.0997 L 3.00247,-4.9003 L 3.02232,-4.7019
 L 3.06184,-4.50648 L 3.12061,-4.31595 L 3.19806,-4.13222 L 3.29341,-3.95712 L 3.40573,-3.79239 L 3.53389,-3.63965
 L 3.67662,-3.50043 L 3.8325,-3.37611 L 4,-3.26794 L 4.17741,-3.17699 L 4.36302,-3.10414 L 4.55495,-3.05014
 L 4.75131,-3.01552 L 4.95013,-3.00061 L 54.9501,-3.00061 L 55.1495,-3.00558 L 55.3473,-3.03038 L 55.5417,-3.07474
 L 55.7307,-3.13824 L 55.9124,-3.22025 L 56.0851,-3.31995 L 56.247,-3.43633 L 56.3965,-3.56825 L 56.5321,-3.71442
 L 56.6525,-3.87335 L 56.7564,-4.04349 L 96.7564,-84.0435 L 96.8429,-84.2231 L 96.9111,-84.4105 L 96.9603,-84.6037
 L 96.9901,-84.8009 L 97,-85 L 97,-95 L 96.9901,-95.1991 L 96.9603,-95.3963 L 96.9111,-95.5895
 L 96.8429,-95.7769 L 96.7564,-95.9565 L 96.6525,-96.1266 L 96.5321,-96.2856 L 96.3965,-96.4317 L 96.247,-96.5637
 L 96.0851,-96.68 L 95.9124,-96.7797 L 95.7307,-96.8617 L 95.5417,-96.9252 L 95.3473,-96.9696 L 95.1495,-96.9944
 L 94.9501,-96.9994 L 84.9501,-96.9994 z
M 13.4707,-56.9994 L 85.4731,-93.0006 L 90.1742,-93.0006 L 54.1729,-56.9994 z
M 57,-54.1718 L 93.0025,-90.1743 L 93.0025,-85.4766 L 57,-13.4716 z
M 7,-6.99937 L 7,-53.0006 L 53.0025,-53.0006 L 53.0025,-6.99937 z
" stroke="white" fill="white" stroke-width="0.5"/>
</svg>
