<?xml version="1.0" standalone="no"?>
<!DOCTYPE svg PUBLIC "-//W3C//DTD SVG 1.1//EN" "http://www.w3.org/Graphics/SVG/1.1/DTD/svg11.dtd">
<svg width="100mm" height="100mm" viewBox="-8 -108 116 116" xmlns="http://www.w3.org/2000/svg" version="1.1">
<title>OpenSCAD Model</title>
<path d="
M 50.5236,-18.0044 L 50.5933,-18.0056 L 51.0818,-18.0184 L 51.1517,-18.0209 L 51.6399,-18.0422 L 51.7096,-18.0458
 L 52.1973,-18.0757 L 52.267,-18.0805 L 52.7542,-18.1189 L 52.8238,-18.125 L 53.3102,-18.1718 L 53.3795,-18.1791
 L 53.8651,-18.2344 L 53.9345,-18.2429 L 54.419,-18.3067 L 54.488,-18.3164 L 54.9713,-18.3886 L 55.0404,-18.3996
 L 55.5223,-18.4802 L 55.5911,-18.4924 L 56.0717,-18.5814 L 56.1401,-18.5948 L 56.619,-18.6922 L 56.6873,-18.7067
 L 57.1644,-18.8125 L 57.2323,-18.8282 L 57.7075,-18.9422 L 57.7753,-18.9591 L 58.2485,-19.0815 L 58.3159,-19.0996
 L 58.7868,-19.2302 L 58.8539,-19.2494 L 59.3224,-19.3882 L 59.3892,-19.4086 L 59.8552,-19.5555 L 59.9216,-19.5771
 L 60.3851,-19.7322 L 60.4512,-19.7549 L 60.9118,-19.9181 L 60.9774,-19.9419 L 61.4351,-20.1131 L 61.5003,-20.1381
 L 61.955,-20.3172 L 62.0197,-20.3434 L 62.4712,-20.5304 L 62.5354,-20.5576 L 62.9836,-20.7525 L 63.0474,-20.7809
 L 63.4921,-20.9835 L 63.5553,-21.013 L 63.9964,-21.2234 L 64.0591,-21.254 L 64.4965,-21.4721 L 64.5588,-21.5038
 L 64.9923,-21.7295 L 65.0538,-21.7622 L 65.4832,-21.9954 L 65.5444,-22.0292 L 65.9697,-22.2699 L 66.0302,-22.3048
 L 66.4513,-22.5529 L 66.5109,-22.5887 L 66.9276,-22.844 L 66.987,-22.8811 L 67.3991,-23.1437 L 67.4576,-23.1817
 L 67.8651,-23.4514 L 67.923,-23.4904 L 68.3257,-23.7672 L 68.383,-23.8073 L 68.7808,-24.0911 L 68.8372,-24.1321
 L 69.2301,-24.4228 L 69.2858,-24.4648 L 69.6735,-24.7623 L 69.7286,-24.8053 L 70.111,-25.1095 L 70.1653,-25.1534
 L 70.5424,-25.4643 L 70.5958,-25.5091 L 70.9674,-25.8265 L 71.0201,-25.8723 L 71.3861,-26.1961 L 71.4381,-26.2429
 L 71.7984,-26.573 L 71.8493,-26.6206 L 72.2038,-26.957 L 72.2541,-27.0055 L 72.6026,-27.348 L 72.652,-27.3974
 L 72.9945,-27.7459 L 73.043,-27.7962 L 73.3794,-28.1507 L 73.427,-28.2016 L 73.7571,-28.5619 L 73.8039,-28.6139
 L 74.1277,-28.9799 L 74.1735,-29.0326 L 74.4909,-29.4042 L 74.5357,-29.4576 L 74.8466,-29.8347 L 74.8905,-29.889
 L 75.1947,-30.2714 L 75.2377,-30.3265 L 75.5352,-30.7142 L 75.5772,-30.7699 L 75.8679,-31.1628 L 75.9089,-31.2192
 L 76.1927,-31.617 L 76.2328,-31.6743 L 76.5096,-32.077 L 76.5486,-32.1349 L 76.8183,-32.5424 L 76.8563,-32.6009
 L 77.1189,-33.013 L 77.156,-33.0724 L 77.4113,-33.4891 L 77.4471,-33.5487 L 77.6952,-33.9698 L 77.7301,-34.0303
 L 77.9708,-34.4556 L 78.0046,-34.5168 L 78.2378,-34.9462 L 78.2705,-35.0077 L 78.4962,-35.4412 L 78.5279,-35.5035
 L 78.746,-35.9409 L 78.7766,-36.0036 L 78.987,-36.4447 L 79.0165,-36.5079 L 79.2191,-36.9526 L 79.2475,-37.0164
 L 79.4424,-37.4646 L 79.4696,-37.5288 L 79.6566,-37.9803 L 79.6828,-38.045 L 79.8619,-38.4997 L 79.8869,-38.5649
 L 80.0581,-39.0226 L 80.0819,-39.0882 L 80.2451,-39.5488 L 80.2678,-39.6149 L 80.4229,-40.0784 L 80.4445,-40.1448
 L 80.5914,-40.6108 L 80.6118,-40.6776 L 80.7506,-41.1461 L 80.7698,-41.2132 L 80.9004,-41.6841 L 80.9185,-41.7515
 L 81.0409,-42.2247 L 81.0578,-42.2925 L 81.1718,-42.7677 L 81.1875,-42.8356 L 81.2933,-43.3127 L 81.3078,-43.381
 L 81.4052,-43.8599 L 81.4186,-43.9283 L 81.5076,-44.4089 L 81.5198,-44.4777 L 81.6004,-44.9596 L 81.6114,-45.0287
 L 81.6836,-45.512 L 81.6933,-45.581 L 81.7571,-46.0655 L 81.7656,-46.1349 L 81.8209,-46.6205 L 81.8282,-46.6898
 L 81.875,-47.1762 L 81.8811,-47.2458 L 81.9195,-47.733 L 81.9243,-47.8027 L 81.9542,-48.2904 L 81.9578,-48.3601
 L 81.9791,-48.8483 L 81.9816,-48.9182 L 81.9944,-49.4067 L 81.9956,-49.4764 L 81.9998,-49.965 L 81.9998,-50.035
 L 81.9956,-50.5236 L 81.9944,-50.5933 L 81.9816,-51.0818 L 81.9791,-51.1517 L 81.9578,-51.6399 L 81.9542,-51.7096
 L 81.9243,-52.1973 L 81.9195,-52.267 L 81.8811,-52.7542 L 81.875,-52.8238 L 81.8282,-53.3102 L 81.8209,-53.3795
 L 81.7656,-53.8651 L 81.7571,-53.9345 L 81.6933,-54.419 L 81.6836,-54.488 L 81.6114,-54.9713 L 81.6004,-55.0404
 L 81.5198,-55.5223 L 81.5076,-55.5911 L 81.4186,-56.0717 L 81.4052,-56.1401 L 81.3078,-56.619 L 81.2933,-56.6873
 L 81.1875,-57.1644 L 81.1718,-57.2323 L 81.0578,-57.7075 L 81.0409,-57.7753 L 80.9185,-58.2485 L 80.9004,-58.3159
 L 80.7698,-58.7868 L 80.7506,-58.8539 L 80.6118,-59.3224 L 80.5914,-59.3892 L 80.4445,-59.8552 L 80.4229,-59.9216
 L 80.3149,-60.2442 L 86.5002,-66.4295 L 86.6394,-66.5715 L 86.7728,-66.7189 L 86.9003,-66.8714 L 87.0216,-67.029
 L 87.1365,-67.1912 L 87.2449,-67.3579 L 87.3466,-67.5287 L 87.4414,-67.7035 L 87.5292,-67.8819 L 87.6098,-68.0636
 L 87.6832,-68.2484 L 87.7491,-68.436 L 87.8075,-68.6261 L 87.8583,-68.8183 L 87.9015,-69.0124 L 87.9369,-69.208
 L 87.9644,-69.4049 L 87.9842,-69.6027 L 87.996,-69.8012 L 88,-70 L 87.996,-70.1988 L 87.9842,-70.3972
 L 87.9644,-70.5951 L 87.9369,-70.792 L 87.9015,-70.9876 L 87.8583,-71.1817 L 87.8075,-71.3739 L 87.7491,-71.564
 L 87.6832,-71.7515 L 87.6098,-71.9364 L 87.5292,-72.1181 L 87.4414,-72.2965 L 87.3466,-72.4712 L 87.2449,-72.6421
 L 87.1365,-72.8088 L 87.0216,-72.971 L 86.9003,-73.1285 L 86.7728,-73.2811 L 86.6394,-73.4285 L 86.5002,-73.5705
 L 86.3555,-73.7068 L 86.2055,-73.8373 L 86.0504,-73.9617 L 85.8905,-74.0798 L 85.726,-74.1915 L 85.5572,-74.2966
 L 85.3843,-74.3949 L 85.2077,-74.4862 L 85.0276,-74.5704 L 84.8443,-74.6474 L 84.6581,-74.7171 L 84.4692,-74.7793
 L 84.2781,-74.8339 L 84.0849,-74.8809 L 83.89,-74.9202 L 83.6937,-74.9516 L 83.4963,-74.9753 L 83.2981,-74.9911
 L 83.0994,-74.999 L 82.9006,-74.999 L 82.7019,-74.9911 L 82.5037,-74.9753 L 82.3063,-74.9516 L 82.11,-74.9202
 L 81.9151,-74.8809 L 81.7219,-74.8339 L 81.5307,-74.7793 L 81.3419,-74.7171 L 81.1557,-74.6474 L 80.9724,-74.5704
 L 80.7923,-74.4862 L 80.6157,-74.3949 L 80.4428,-74.2966 L 80.274,-74.1915 L 80.1095,-74.0798 L 79.9496,-73.9617
 L 79.7945,-73.8373 L 79.6445,-73.7068 L 79.4998,-73.5705 L 75.3962,-69.4669 L 75.2377,-69.6735 L 75.1947,-69.7286
 L 74.8905,-70.111 L 74.8466,-70.1653 L 74.5357,-70.5424 L 74.4909,-70.5958 L 74.1735,-70.9674 L 74.1277,-71.0201
 L 73.8039,-71.3861 L 73.7571,-71.4381 L 73.427,-71.7984 L 73.3794,-71.8493 L 73.043,-72.2038 L 72.9945,-72.2541
 L 72.652,-72.6026 L 72.6026,-72.652 L 72.2541,-72.9945 L 72.2038,-73.043 L 71.8493,-73.3794 L 71.7984,-73.427
 L 71.4381,-73.7571 L 71.3861,-73.8039 L 71.0201,-74.1277 L 70.9674,-74.1735 L 70.5958,-74.4909 L 70.5424,-74.5357
 L 70.1653,-74.8466 L 70.111,-74.8905 L 69.7286,-75.1947 L 69.6735,-75.2377 L 69.2858,-75.5352 L 69.2301,-75.5772
 L 68.8372,-75.8679 L 68.7808,-75.9089 L 68.383,-76.1927 L 68.3257,-76.2328 L 67.923,-76.5096 L 67.8651,-76.5486
 L 67.4576,-76.8183 L 67.3991,-76.8563 L 66.987,-77.1189 L 66.9276,-77.156 L 66.5109,-77.4113 L 66.4513,-77.4471
 L 66.0302,-77.6952 L 65.9697,-77.7301 L 65.5444,-77.9708 L 65.4832,-78.0046 L 65.0538,-78.2378 L 64.9923,-78.2705
 L 64.5588,-78.4962 L 64.4965,-78.5279 L 64.0591,-78.746 L 63.9964,-78.7766 L 63.5553,-78.987 L 63.4921,-79.0165
 L 63.0474,-79.2191 L 62.9836,-79.2475 L 62.5354,-79.4424 L 62.4712,-79.4696 L 62.0197,-79.6566 L 61.955,-79.6828
 L 61.5003,-79.8619 L 61.4351,-79.8869 L 60.9774,-80.0581 L 60.9118,-80.0819 L 60.4512,-80.2451 L 60.3851,-80.2678
 L 59.9216,-80.4229 L 59.8552,-80.4445 L 59.3892,-80.5914 L 59.3224,-80.6118 L 58.8539,-80.7506 L 58.7868,-80.7698
 L 58.3159,-80.9004 L 58.2485,-80.9185 L 57.7753,-81.0409 L 57.7075,-81.0578 L 57.2323,-81.1718 L 57.1644,-81.1875
 L 56.6873,-81.2933 L 56.619,-81.3078 L 56.1401,-81.4052 L 56.0717,-81.4186 L 55.5911,-81.5076 L 55.5223,-81.5198
 L 55.0404,-81.6004 L 54.9713,-81.6114 L 54.488,-81.6836 L 54.419,-81.6933 L 53.9345,-81.7571 L 53.8651,-81.7656
 L 53.3795,-81.8209 L 53.3102,-81.8282 L 52.8238,-81.875 L 52.7542,-81.8811 L 52.267,-81.9195 L 52.1973,-81.9243
 L 51.7096,-81.9542 L 51.6399,-81.9578 L 51.1517,-81.9791 L 51.0818,-81.9816 L 50.5933,-81.9944 L 50.5236,-81.9956
 L 50.035,-81.9998 L 49.965,-81.9998 L 49.4764,-81.9956 L 49.4067,-81.9944 L 48.9182,-81.9816 L 48.8483,-81.9791
 L 48.3601,-81.9578 L 48.2904,-81.9542 L 47.8027,-81.9243 L 47.733,-81.9195 L 47.2458,-81.8811 L 47.1762,-81.875
 L 46.6898,-81.8282 L 46.6205,-81.8209 L 46.1349,-81.7656 L 46.0655,-81.7571 L 45.581,-81.6933 L 45.512,-81.6836
 L 45.0287,-81.6114 L 44.9596,-81.6004 L 44.4777,-81.5198 L 44.4089,-81.5076 L 43.9283,-81.4186 L 43.8599,-81.4052
 L 43.381,-81.3078 L 43.3127,-81.2933 L 42.8356,-81.1875 L 42.7677,-81.1718 L 42.2925,-81.0578 L 42.2247,-81.0409
 L 41.7515,-80.9185 L 41.6841,-80.9004 L 41.2132,-80.7698 L 41.1461,-80.7506 L 40.6776,-80.6118 L 40.6108,-80.5914
 L 40.1448,-80.4445 L 40.0784,-80.4229 L 39.6149,-80.2678 L 39.5488,-80.2451 L 39.0882,-80.0819 L 39.0226,-80.0581
 L 38.5649,-79.8869 L 38.4997,-79.8619 L 38.045,-79.6828 L 37.9803,-79.6566 L 37.5288,-79.4696 L 37.4646,-79.4424
 L 37.0164,-79.2475 L 36.9526,-79.2191 L 36.5079,-79.0165 L 36.4447,-78.987 L 36.0036,-78.7766 L 35.9409,-78.746
 L 35.5035,-78.5279 L 35.4412,-78.4962 L 35.0077,-78.2705 L 34.9462,-78.2378 L 34.5168,-78.0046 L 34.4556,-77.9708
 L 34.0303,-77.7301 L 33.9698,-77.6952 L 33.5487,-77.4471 L 33.4891,-77.4113 L 33.0724,-77.156 L 33.013,-77.1189
 L 32.6009,-76.8563 L 32.5424,-76.8183 L 32.1349,-76.5486 L 32.077,-76.5096 L 31.6743,-76.2328 L 31.617,-76.1927
 L 31.2192,-75.9089 L 31.1628,-75.8679 L 30.7699,-75.5772 L 30.7142,-75.5352 L 30.3265,-75.2377 L 30.2714,-75.1947
 L 29.889,-74.8905 L 29.8347,-74.8466 L 29.4576,-74.5357 L 29.4042,-74.4909 L 29.0326,-74.1735 L 28.9799,-74.1277
 L 28.6139,-73.8039 L 28.5619,-73.7571 L 28.2016,-73.427 L 28.1507,-73.3794 L 27.7962,-73.043 L 27.7459,-72.9945
 L 27.3974,-72.652 L 27.348,-72.6026 L 27.0055,-72.2541 L 26.957,-72.2038 L 26.6206,-71.8493 L 26.573,-71.7984
 L 26.2429,-71.4381 L 26.1961,-71.3861 L 25.8723,-71.0201 L 25.8265,-70.9674 L 25.5091,-70.5958 L 25.4643,-70.5424
 L 25.1534,-70.1653 L 25.1095,-70.111 L 24.8053,-69.7286 L 24.7623,-69.6735 L 24.4648,-69.2858 L 24.4228,-69.2301
 L 24.1321,-68.8372 L 24.0911,-68.7808 L 23.8073,-68.383 L 23.7672,-68.3257 L 23.4904,-67.923 L 23.4514,-67.8651
 L 23.1817,-67.4576 L 23.1437,-67.3991 L 22.8811,-66.987 L 22.844,-66.9276 L 22.5887,-66.5109 L 22.5529,-66.4513
 L 22.3048,-66.0302 L 22.2699,-65.9697 L 22.0292,-65.5444 L 21.9954,-65.4832 L 21.7622,-65.0538 L 21.7295,-64.9923
 L 21.5038,-64.5588 L 21.4721,-64.4965 L 21.254,-64.0591 L 21.2234,-63.9964 L 21.013,-63.5553 L 20.9835,-63.4921
 L 20.7809,-63.0474 L 20.7525,-62.9836 L 20.5576,-62.5354 L 20.5304,-62.4712 L 20.3434,-62.0197 L 20.3172,-61.955
 L 20.1381,-61.5003 L 20.1131,-61.4351 L 19.9419,-60.9774 L 19.9181,-60.9118 L 19.7549,-60.4512 L 19.7322,-60.3851
 L 19.5771,-59.9216 L 19.5555,-59.8552 L 19.4086,-59.3892 L 19.3882,-59.3224 L 19.2494,-58.8539 L 19.2302,-58.7868
 L 19.0996,-58.3159 L 19.0815,-58.2485 L 18.9591,-57.7753 L 18.9422,-57.7075 L 18.8282,-57.2323 L 18.8125,-57.1644
 L 18.7067,-56.6873 L 18.6922,-56.619 L 18.5948,-56.1401 L 18.5814,-56.0717 L 18.4924,-55.5911 L 18.4802,-55.5223
 L 18.3996,-55.0404 L 18.3886,-54.9713 L 18.3164,-54.488 L 18.3067,-54.419 L 18.2429,-53.9345 L 18.2344,-53.8651
 L 18.1791,-53.3795 L 18.1718,-53.3102 L 18.125,-52.8238 L 18.1189,-52.7542 L 18.0805,-52.267 L 18.0757,-52.1973
 L 18.0458,-51.7096 L 18.0422,-51.6399 L 18.0209,-51.1517 L 18.0184,-51.0818 L 18.0056,-50.5933 L 18.0044,-50.5236
 L 18.0002,-50.035 L 18.0002,-49.965 L 18.0044,-49.4764 L 18.0056,-49.4067 L 18.0184,-48.9182 L 18.0209,-48.8483
 L 18.0422,-48.3601 L 18.0458,-48.2904 L 18.0757,-47.8027 L 18.0805,-47.733 L 18.1189,-47.2458 L 18.125,-47.1762
 L 18.1718,-46.6898 L 18.1791,-46.6205 L 18.2344,-46.1349 L 18.2429,-46.0655 L 18.3067,-45.581 L 18.3164,-45.512
 L 18.3886,-45.0287 L 18.3996,-44.9596 L 18.4802,-44.4777 L 18.4924,-44.4089 L 18.5814,-43.9283 L 18.5948,-43.8599
 L 18.6922,-43.381 L 18.7067,-43.3127 L 18.8125,-42.8356 L 18.8282,-42.7677 L 18.9422,-42.2925 L 18.9591,-42.2247
 L 19.0815,-41.7515 L 19.0996,-41.6841 L 19.2302,-41.2132 L 19.2494,-41.1461 L 19.3882,-40.6776 L 19.4086,-40.6108
 L 19.5555,-40.1448 L 19.5771,-40.0784 L 19.7322,-39.6149 L 19.7549,-39.5488 L 19.9181,-39.0882 L 19.9419,-39.0226
 L 20.1131,-38.5649 L 20.1381,-38.4997 L 20.3172,-38.045 L 20.3434,-37.9803 L 20.5304,-37.5288 L 20.5576,-37.4646
 L 20.7525,-37.0164 L 20.7809,-36.9526 L 20.9835,-36.5079 L 21.013,-36.4447 L 21.2234,-36.0036 L 21.254,-35.9409
 L 21.4721,-35.5035 L 21.5038,-35.4412 L 21.7295,-35.0077 L 21.7622,-34.9462 L 21.9954,-34.5168 L 22.0292,-34.4556
 L 22.2699,-34.0303 L 22.3048,-33.9698 L 22.5529,-33.5487 L 22.5887,-33.4891 L 22.844,-33.0724 L 22.8811,-33.013
 L 23.1437,-32.6009 L 23.1817,-32.5424 L 23.4514,-32.1349 L 23.4904,-32.077 L 23.7672,-31.6743 L 23.8073,-31.617
 L 24.0911,-31.2192 L 24.1321,-31.1628 L 24.4228,-30.7699 L 24.4648,-30.7142 L 24.7623,-30.3265 L 24.8053,-30.2714
 L 25.1095,-29.889 L 25.1534,-29.8347 L 25.4643,-29.4576 L 25.5091,-29.4042 L 25.8265,-29.0326 L 25.8723,-28.9799
 L 26.1961,-28.6139 L 26.2429,-28.5619 L 26.573,-28.2016 L 26.6206,-28.1507 L 26.957,-27.7962 L 27.0055,-27.7459
 L 27.348,-27.3974 L 27.3974,-27.348 L 27.7459,-27.0055 L 27.7962,-26.957 L 28.1507,-26.6206 L 28.2016,-26.573
 L 28.5619,-26.2429 L 28.6139,-26.1961 L 28.9799,-25.8723 L 29.0326,-25.8265 L 29.4042,-25.5091 L 29.4576,-25.4643
 L 29.8347,-25.1534 L 29.889,-25.1095 L 30.2714,-24.8053 L 30.3265,-24.7623 L 30.7142,-24.4648 L 30.7699,-24.4228
 L 31.1628,-24.1321 L 31.2192,-24.0911 L 31.617,-23.8073 L 31.6743,-23.7672 L 32.077,-23.4904 L 32.1349,-23.4514
 L 32.5424,-23.1817 L 32.6009,-23.1437 L 33.013,-22.8811 L 33.0724,-22.844 L 33.4891,-22.5887 L 33.5487,-22.5529
 L 33.9698,-22.3048 L 34.0303,-22.2699 L 34.4556,-22.0292 L 34.5168,-21.9954 L 34.9462,-21.7622 L 35.0077,-21.7295
 L 35.4412,-21.5038 L 35.5035,-21.4721 L 35.9409,-21.254 L 36.0036,-21.2234 L 36.4447,-21.013 L 36.5079,-20.9835
 L 36.9526,-20.7809 L 37.0164,-20.7525 L 37.4646,-20.5576 L 37.5288,-20.5304 L 37.9803,-20.3434 L 38.045,-20.3172
 L 38.4997,-20.1381 L 38.5649,-20.1131 L 39.0226,-19.9419 L 39.0882,-19.9181 L 39.5488,-19.7549 L 39.6149,-19.7322
 L 40.0784,-19.5771 L 40.1448,-19.5555 L 40.6108,-19.4086 L 40.6776,-19.3882 L 41.1461,-19.2494 L 41.2132,-19.2302
 L 41.6841,-19.0996 L 41.7515,-19.0815 L 42.2247,-18.9591 L 42.2925,-18.9422 L 42.7677,-18.8282 L 42.8356,-18.8125
 L 43.3127,-18.7067 L 43.381,-18.6922 L 43.8599,-18.5948 L 43.9283,-18.5814 L 44.4089,-18.4924 L 44.4777,-18.4802
 L 44.9596,-18.3996 L 45.0287,-18.3886 L 45.512,-18.3164 L 45.581,-18.3067 L 46.0655,-18.2429 L 46.1349,-18.2344
 L 46.6205,-18.1791 L 46.6898,-18.1718 L 47.1762,-18.125 L 47.2458,-18.1189 L 47.733,-18.0805 L 47.8027,-18.0757
 L 48.2904,-18.0458 L 48.3601,-18.0422 L 48.8483,-18.0209 L 48.9182,-18.0184 L 49.4067,-18.0056 L 49.4764,-18.0044
 L 49.965,-18.0002 L 50.035,-18.0002 z
M 49.5113,-22.0043 L 49.0228,-22.0171 L 48.5346,-22.0384 L 48.0468,-22.0682 L 47.5596,-22.1066 L 47.0732,-22.1534
 L 46.5877,-22.2087 L 46.1032,-22.2725 L 45.6198,-22.3447 L 45.1379,-22.4254 L 44.6573,-22.5145 L 44.1785,-22.6119
 L 43.7014,-22.7177 L 43.2262,-22.8317 L 42.7531,-22.9541 L 42.2822,-23.0847 L 41.8136,-23.2235 L 41.3475,-23.3704
 L 40.8841,-23.5255 L 40.4234,-23.6886 L 39.9657,-23.8598 L 39.511,-24.0389 L 39.0595,-24.2259 L 38.6114,-24.4207
 L 38.1667,-24.6234 L 37.7256,-24.8338 L 37.2883,-25.0518 L 36.8548,-25.2775 L 36.4253,-25.5107 L 36,-25.7513
 L 35.5789,-25.9993 L 35.1623,-26.2547 L 34.7501,-26.5172 L 34.3426,-26.787 L 33.9399,-27.0638 L 33.542,-27.3475
 L 33.1492,-27.6382 L 32.7615,-27.9357 L 32.379,-28.2399 L 32.002,-28.5508 L 31.6304,-28.8681 L 31.2643,-29.192
 L 30.9041,-29.5221 L 30.5496,-29.8585 L 30.201,-30.201 L 29.8585,-30.5496 L 29.5221,-30.9041 L 29.192,-31.2643
 L 28.8681,-31.6304 L 28.5508,-32.002 L 28.2399,-32.379 L 27.9357,-32.7615 L 27.6382,-33.1492 L 27.3475,-33.542
 L 27.0638,-33.9399 L 26.787,-34.3426 L 26.5172,-34.7501 L 26.2547,-35.1623 L 25.9993,-35.5789 L 25.7513,-36
 L 25.5107,-36.4253 L 25.2775,-36.8548 L 25.0518,-37.2883 L 24.8338,-37.7256 L 24.6234,-38.1667 L 24.4207,-38.6114
 L 24.2259,-39.0595 L 24.0389,-39.511 L 23.8598,-39.9657 L 23.6886,-40.4234 L 23.5255,-40.8841 L 23.3704,-41.3475
 L 23.2235,-41.8136 L 23.0847,-42.2822 L 22.9541,-42.7531 L 22.8317,-43.2262 L 22.7177,-43.7014 L 22.6119,-44.1785
 L 22.5145,-44.6573 L 22.4254,-45.1379 L 22.3447,-45.6198 L 22.2725,-46.1032 L 22.2087,-46.5877 L 22.1534,-47.0732
 L 22.1066,-47.5596 L 22.0682,-48.0468 L 22.0384,-48.5346 L 22.0171,-49.0228 L 22.0043,-49.5113 L 22,-50
 L 22.0043,-50.4887 L 22.0171,-50.9772 L 22.0384,-51.4654 L 22.0682,-51.9532 L 22.1066,-52.4404 L 22.1534,-52.9268
 L 22.2087,-53.4123 L 22.2725,-53.8968 L 22.3447,-54.3802 L 22.4254,-54.8621 L 22.5145,-55.3427 L 22.6119,-55.8215
 L 22.7177,-56.2986 L 22.8317,-56.7738 L 22.9541,-57.2469 L 23.0847,-57.7178 L 23.2235,-58.1864 L 23.3704,-58.6525
 L 23.5255,-59.1159 L 23.6886,-59.5766 L 23.8598,-60.0343 L 24.0389,-60.489 L 24.2259,-60.9405 L 24.4207,-61.3886
 L 24.6234,-61.8333 L 24.8338,-62.2744 L 25.0518,-62.7117 L 25.2775,-63.1452 L 25.5107,-63.5747 L 25.7513,-64
 L 25.9993,-64.4211 L 26.2547,-64.8377 L 26.5172,-65.2499 L 26.787,-65.6574 L 27.0638,-66.0601 L 27.3475,-66.458
 L 27.6382,-66.8508 L 27.9357,-67.2385 L 28.2399,-67.621 L 28.5508,-67.998 L 28.8681,-68.3696 L 29.192,-68.7357
 L 29.5221,-69.0959 L 29.8585,-69.4504 L 30.201,-69.799 L 30.5496,-70.1415 L 30.9041,-70.4779 L 31.2643,-70.808
 L 31.6304,-71.1319 L 32.002,-71.4492 L 32.379,-71.7601 L 32.7615,-72.0643 L 33.1492,-72.3618 L 33.542,-72.6525
 L 33.9399,-72.9362 L 34.3426,-73.213 L 34.7501,-73.4828 L 35.1623,-73.7453 L 35.5789,-74.0007 L 36,-74.2487
 L 36.4253,-74.4893 L 36.8548,-74.7225 L 37.2883,-74.9482 L 37.7256,-75.1662 L 38.1667,-75.3766 L 38.6114,-75.5793
 L 39.0595,-75.7741 L 39.511,-75.9611 L 39.9657,-76.1402 L 40.4234,-76.3114 L 40.8841,-76.4745 L 41.3475,-76.6296
 L 41.8136,-76.7765 L 42.2822,-76.9153 L 42.7531,-77.0459 L 43.2262,-77.1683 L 43.7014,-77.2823 L 44.1785,-77.3881
 L 44.6573,-77.4855 L 45.1379,-77.5746 L 45.6198,-77.6553 L 46.1032,-77.7275 L 46.5877,-77.7913 L 47.0732,-77.8466
 L 47.5596,-77.8934 L 48.0468,-77.9318 L 48.5346,-77.9616 L 49.0228,-77.9829 L 49.5113,-77.9957 L 50,-78
 L 50.4887,-77.9957 L 50.9772,-77.9829 L 51.4654,-77.9616 L 51.9532,-77.9318 L 52.4404,-77.8934 L 52.9268,-77.8466
 L 53.4123,-77.7913 L 53.8968,-77.7275 L 54.3802,-77.6553 L 54.8621,-77.5746 L 55.3427,-77.4855 L 55.8215,-77.3881
 L 56.2986,-77.2823 L 56.7738,-77.1683 L 57.2469,-77.0459 L 57.7178,-76.9153 L 58.1864,-76.7765 L 58.6525,-76.6296
 L 59.1159,-76.4745 L 59.5766,-76.3114 L 60.0343,-76.1402 L 60.489,-75.9611 L 60.9405,-75.7741 L 61.3886,-75.5793
 L 61.8333,-75.3766 L 62.2744,-75.1662 L 62.7117,-74.9482 L 63.1452,-74.7225 L 63.5747,-74.4893 L 64,-74.2487
 L 64.4211,-74.0007 L 64.8377,-73.7453 L 65.2499,-73.4828 L 65.6574,-73.213 L 66.0601,-72.9362 L 66.458,-72.6525
 L 66.8508,-72.3618 L 67.2385,-72.0643 L 67.621,-71.7601 L 67.998,-71.4492 L 68.3696,-71.1319 L 68.7357,-70.808
 L 69.0959,-70.4779 L 69.4504,-70.1415 L 69.799,-69.799 L 70.1415,-69.4504 L 70.4779,-69.0959 L 70.808,-68.7357
 L 71.1319,-68.3696 L 71.4492,-67.998 L 71.7601,-67.621 L 72.0643,-67.2385 L 72.3618,-66.8508 L 72.5397,-66.6104
 L 48,-42.0707 L 36.5002,-53.5705 L 36.3555,-53.7068 L 36.2055,-53.8373 L 36.0504,-53.9617 L 35.8905,-54.0798
 L 35.726,-54.1915 L 35.5572,-54.2966 L 35.3843,-54.3949 L 35.2077,-54.4862 L 35.0276,-54.5704 L 34.8443,-54.6474
 L 34.6581,-54.7171 L 34.4693,-54.7793 L 34.2781,-54.8339 L 34.0849,-54.8809 L 33.89,-54.9202 L 33.6937,-54.9516
 L 33.4963,-54.9753 L 33.2981,-54.9911 L 33.0994,-54.999 L 32.9006,-54.999 L 32.7019,-54.9911 L 32.5037,-54.9753
 L 32.3063,-54.9516 L 32.11,-54.9202 L 31.9151,-54.8809 L 31.7219,-54.8339 L 31.5308,-54.7793 L 31.3419,-54.7171
 L 31.1557,-54.6474 L 30.9724,-54.5704 L 30.7923,-54.4862 L 30.6157,-54.3949 L 30.4428,-54.2966 L 30.274,-54.1915
 L 30.1095,-54.0798 L 29.9496,-53.9617 L 29.7945,-53.8373 L 29.6445,-53.7068 L 29.4998,-53.5705 L 29.3606,-53.4285
 L 29.2272,-53.2811 L 29.0997,-53.1285 L 28.9784,-52.971 L 28.8635,-52.8088 L 28.7551,-52.6421 L 28.6534,-52.4712
 L 28.5586,-52.2965 L 28.4708,-52.1181 L 28.3902,-51.9364 L 28.3168,-51.7515 L 28.2509,-51.564 L 28.1925,-51.3739
 L 28.1417,-51.1817 L 28.0985,-50.9876 L 28.0631,-50.792 L 28.0356,-50.5951 L 28.0158,-50.3972 L 28.004,-50.1988
 L 28,-50 L 28.004,-49.8012 L 28.0158,-49.6027 L 28.0356,-49.4049 L 28.0631,-49.208 L 28.0985,-49.0124
 L 28.1417,-48.8183 L 28.1925,-48.6261 L 28.2509,-48.436 L 28.3168,-48.2484 L 28.3902,-48.0636 L 28.4708,-47.8819
 L 28.5586,-47.7035 L 28.6534,-47.5287 L 28.7551,-47.3579 L 28.8635,-47.1912 L 28.9784,-47.029 L 29.0997,-46.8714
 L 29.2272,-46.7189 L 29.3606,-46.5715 L 29.4998,-46.4295 L 44.4998,-31.4295 L 44.6445,-31.2932 L 44.7945,-31.1627
 L 44.9496,-31.0383 L 45.1095,-30.9202 L 45.274,-30.8085 L 45.4428,-30.7034 L 45.6157,-30.6051 L 45.7923,-30.5138
 L 45.9724,-30.4296 L 46.1557,-30.3526 L 46.3419,-30.2829 L 46.5308,-30.2207 L 46.7219,-30.1661 L 46.9151,-30.1191
 L 47.11,-30.0798 L 47.3063,-30.0484 L 47.5037,-30.0247 L 47.7019,-30.0089 L 47.9006,-30.001 L 48.0994,-30.001
 L 48.2981,-30.0089 L 48.4963,-30.0247 L 48.6937,-30.0484 L 48.89,-30.0798 L 49.0849,-30.1191 L 49.2781,-30.1661
 L 49.4692,-30.2207 L 49.6581,-30.2829 L 49.8443,-30.3526 L 50.0276,-30.4296 L 50.2077,-30.5138 L 50.3843,-30.6051
 L 50.5572,-30.7034 L 50.726,-30.8085 L 50.8905,-30.9202 L 51.0504,-31.0383 L 51.2055,-31.1627 L 51.3555,-31.2932
 L 51.5002,-31.4295 L 77.1017,-57.031 L 77.1683,-56.7738 L 77.2823,-56.2986 L 77.3881,-55.8215 L 77.4855,-55.3427
 L 77.5746,-54.8621 L 77.6553,-54.3802 L 77.7275,-53.8968 L 77.7913,-53.4123 L 77.8466,-52.9268 L 77.8934,-52.4404
 L 77.9318,-51.9532 L 77.9616,-51.4654 L 77.9829,-50.9772 L 77.9957,-50.4887 L 78,-50 L 77.9957,-49.5113
 L 77.9829,-49.0228 L 77.9616,-48.5346 L 77.9318,-48.0468 L 77.8934,-47.5596 L 77.8466,-47.0732 L 77.7913,-46.5877
 L 77.7275,-46.1032 L 77.6553,-45.6198 L 77.5746,-45.1379 L 77.4855,-44.6573 L 77.3881,-44.1785 L 77.2823,-43.7014
 L 77.1683,-43.2262 L 77.0459,-42.7531 L 76.9153,-42.2822 L 76.7765,-41.8136 L 76.6296,-41.3475 L 76.4745,-40.8841
 L 76.3114,-40.4234 L 76.1402,-39.9657 L 75.9611,-39.511 L 75.7741,-39.0595 L 75.5793,-38.6114 L 75.3766,-38.1667
 L 75.1662,-37.7256 L 74.9482,-37.2883 L 74.7225,-36.8548 L 74.4893,-36.4253 L 74.2487,-36 L 74.0007,-35.5789
 L 73.7453,-35.1623 L 73.4828,-34.7501 L 73.213,-34.3426 L 72.9362,-33.9399 L 72.6525,-33.542 L 72.3618,-33.1492
 L 72.0643,-32.7615 L 71.7601,-32.379 L 71.4492,-32.002 L 71.1319,-31.6304 L 70.808,-31.2643 L 70.4779,-30.9041
 L 70.1415,-30.5496 L 69.799,-30.201 L 69.4504,-29.8585 L 69.0959,-29.5221 L 68.7357,-29.192 L 68.3696,-28.8681
 L 67.998,-28.5508 L 67.621,-28.2399 L 67.2385,-27.9357 L 66.8508,-27.6382 L 66.458,-27.3475 L 66.0601,-27.0638
 L 65.6574,-26.787 L 65.2499,-26.5172 L 64.8377,-26.2547 L 64.4211,-25.9993 L 64,-25.7513 L 63.5747,-25.5107
 L 63.1452,-25.2775 L 62.7117,-25.0518 L 62.2744,-24.8338 L 61.8333,-24.6234 L 61.3886,-24.4207 L 60.9405,-24.2259
 L 60.489,-24.0389 L 60.0343,-23.8598 L 59.5766,-23.6886 L 59.1159,-23.5255 L 58.6525,-23.3704 L 58.1864,-23.2235
 L 57.7178,-23.0847 L 57.2469,-22.9541 L 56.7738,-22.8317 L 56.2986,-22.7177 L 55.8215,-22.6119 L 55.3427,-22.5145
 L 54.8621,-22.4254 L 54.3802,-22.3447 L 53.8968,-22.2725 L 53.4123,-22.2087 L 52.9268,-22.1534 L 52.4404,-22.1066
 L 51.9532,-22.0682 L 51.4654,-22.0384 L 50.9772,-22.0171 L 50.4887,-22.0043 L 50,-22 z
" stroke="white" fill="white" stroke-width="0.5"/>
</svg>
