<?xml version="1.0" standalone="no"?>
<!DOCTYPE svg PUBLIC "-//W3C//DTD SVG 1.1//EN" "http://www.w3.org/Graphics/SVG/1.1/DTD/svg11.dtd">
<svg width="100mm" height="100mm" viewBox="-8 -108 116 116" xmlns="http://www.w3.org/2000/svg" version="1.1">
<title>OpenSCAD Model</title>
<path d="
M 83.4491,-0.00993347 L 83.6463,-0.0396576 L 83.8395,-0.0888519 L 84.0269,-0.157043 L 84.2065,-0.243561 L 84.3766,-0.347519
 L 84.5356,-0.467911 L 84.6817,-0.603531 L 84.8137,-0.753021 L 84.9301,-0.914902 L 85.0297,-1.08759 L 85.1117,-1.26932
 L 85.1825,-1.48468 L 97.6825,-48.3597 L 97.7242,-48.5546 L 97.7463,-48.7528 L 97.7485,-48.9522 L 97.7309,-49.1508
 L 97.6936,-49.3466 L 97.637,-49.5378 L 97.5616,-49.7224 L 97.4682,-49.8986 L 97.3578,-50.0646 L 97.2313,-50.2187
 L 97.0902,-50.3596 L 96.9357,-50.4856 L 96.7695,-50.5957 L 96.5931,-50.6886 L 96.4083,-50.7635 L 96.217,-50.8197
 L 96.021,-50.8566 L 95.75,-50.875 L 83.9375,-50.875 L 83.9375,-64.75 L 83.9276,-64.9491 L 83.8978,-65.1463
 L 83.8486,-65.3395 L 83.7805,-65.5269 L 83.6939,-65.7065 L 83.59,-65.8766 L 83.4696,-66.0356 L 83.334,-66.1817
 L 83.1845,-66.3137 L 83.0226,-66.4301 L 82.8499,-66.5297 L 82.6682,-66.6117 L 82.4792,-66.6752 L 82.2848,-66.7196
 L 82.087,-66.7444 L 81.9375,-66.75 L 73,-66.75 L 73,-83.5 L 72.9901,-83.6991 L 72.9603,-83.8963
 L 72.9111,-84.0895 L 72.843,-84.2769 L 72.7564,-84.4565 L 72.6525,-84.6266 L 72.5321,-84.7856 L 72.3965,-84.9317
 L 72.247,-85.0637 L 72.0851,-85.1801 L 71.9124,-85.2797 L 71.7307,-85.3617 L 71.5417,-85.4252 L 71.3473,-85.4696
 L 71.1495,-85.4944 L 71,-85.5 L 2,-85.5 L 1.80086,-85.4901 L 1.60371,-85.4603 L 1.41049,-85.4111
 L 1.22313,-85.343 L 1.04349,-85.2564 L 0.873367,-85.1525 L 0.714432,-85.0321 L 0.568268,-84.8965 L 0.43634,-84.747
 L 0.319946,-84.5851 L 0.220261,-84.4124 L 0.13826,-84.2307 L 0.0747528,-84.0417 L 0.0303802,-83.8473 L 0.00559998,-83.6495
 L 0,-83.5 L 0,-2 L 0.00993347,-1.80086 L 0.0396576,-1.60371 L 0.0888519,-1.41049 L 0.157043,-1.22313
 L 0.243561,-1.04349 L 0.347519,-0.873367 L 0.467911,-0.714432 L 0.603531,-0.568268 L 0.753021,-0.43634 L 0.914902,-0.319946
 L 1.08759,-0.220261 L 1.26932,-0.13826 L 1.45831,-0.0747528 L 1.65271,-0.0303802 L 1.85054,-0.00559998 L 2,-0
 L 83.25,-0 z
M 8,-6 L 7.85054,-6.0056 L 7.65271,-6.03038 L 7.45831,-6.07475 L 7.26932,-6.13826 L 7.08759,-6.22026
 L 6.9149,-6.31995 L 6.75302,-6.43634 L 6.60353,-6.56827 L 6.46791,-6.71443 L 6.34752,-6.87337 L 6.24356,-7.04349
 L 6.15704,-7.22313 L 6.08885,-7.41049 L 6.03966,-7.60371 L 6.00993,-7.80086 L 6,-8 L 6,-77.5
 L 6.0056,-77.6495 L 6.03038,-77.8473 L 6.07475,-78.0417 L 6.13826,-78.2307 L 6.22026,-78.4124 L 6.31995,-78.5851
 L 6.43634,-78.747 L 6.56827,-78.8965 L 6.71443,-79.0321 L 6.87337,-79.1525 L 7.04349,-79.2564 L 7.22313,-79.343
 L 7.41049,-79.4111 L 7.60371,-79.4603 L 7.80086,-79.4901 L 8,-79.5 L 65,-79.5 L 65.1495,-79.4944
 L 65.3473,-79.4696 L 65.5417,-79.4252 L 65.7307,-79.3617 L 65.9124,-79.2797 L 66.0851,-79.1801 L 66.247,-79.0637
 L 66.3965,-78.9317 L 66.5321,-78.7856 L 66.6525,-78.6266 L 66.7564,-78.4565 L 66.843,-78.2769 L 66.9111,-78.0895
 L 66.9603,-77.8963 L 66.9901,-77.6991 L 67,-77.5 L 67,-64.7709 L 67.004,-64.5798 L 67.0115,-64.451
 L 67.0236,-64.3185 L 67.0401,-64.1871 L 67.0611,-64.0554 L 67.0863,-63.9247 L 67.1158,-63.7955 L 67.1498,-63.6665
 L 67.1879,-63.5393 L 67.2302,-63.4135 L 67.2768,-63.2886 L 67.3273,-63.1659 L 67.3821,-63.0446 L 67.4408,-62.9251
 L 67.5033,-62.8081 L 67.5699,-62.6928 L 67.6401,-62.58 L 67.7142,-62.4694 L 67.7916,-62.3617 L 67.8729,-62.2562
 L 67.9576,-62.1535 L 68.0453,-62.0542 L 68.1368,-61.9571 L 68.2309,-61.8638 L 68.3289,-61.7729 L 68.4291,-61.686
 L 68.5322,-61.6023 L 68.6381,-61.5221 L 68.7471,-61.4451 L 68.8578,-61.3723 L 68.9714,-61.3029 L 69.0871,-61.2374
 L 69.2049,-61.1757 L 69.3246,-61.1181 L 69.4465,-61.0643 L 69.57,-61.0146 L 69.6946,-60.9693 L 69.8208,-60.9281
 L 69.9491,-60.8908 L 70.0775,-60.8581 L 70.2074,-60.8296 L 70.3382,-60.8054 L 70.4696,-60.7856 L 70.6016,-60.7702
 L 70.7343,-60.7591 L 70.8671,-60.7525 L 71.0167,-60.75 L 75.9375,-60.75 L 76.087,-60.7444 L 76.2848,-60.7196
 L 76.4792,-60.6752 L 76.6682,-60.6117 L 76.8499,-60.5297 L 77.0226,-60.4301 L 77.1845,-60.3137 L 77.334,-60.1817
 L 77.4696,-60.0356 L 77.59,-59.8766 L 77.6939,-59.7065 L 77.7805,-59.5269 L 77.8486,-59.3395 L 77.8978,-59.1463
 L 77.9276,-58.9491 L 77.9375,-58.75 L 77.9375,-50.875 L 23.875,-50.875 L 23.6759,-50.8651 L 23.4787,-50.8353
 L 23.2855,-50.7861 L 23.0981,-50.718 L 22.9185,-50.6314 L 22.7484,-50.5275 L 22.5894,-50.4071 L 22.4433,-50.2715
 L 22.3113,-50.122 L 22.1949,-49.9601 L 22.0953,-49.7874 L 22.0133,-49.6057 L 21.9425,-49.3903 L 10.3718,-6
 z
" stroke="white" fill="white" stroke-width="0.5"/>
</svg>
