<?xml version="1.0" standalone="no"?>
<!DOCTYPE svg PUBLIC "-//W3C//DTD SVG 1.1//EN" "http://www.w3.org/Graphics/SVG/1.1/DTD/svg11.dtd">
<svg width="100mm" height="100mm" viewBox="-8 -108 116 116" xmlns="http://www.w3.org/2000/svg" version="1.1">
<title>OpenSCAD Model</title>
<path d="
M 78.1988,-17.004 L 78.3972,-17.0158 L 78.5951,-17.0356 L 78.792,-17.0631 L 78.9876,-17.0985 L 79.1817,-17.1417
 L 79.3739,-17.1925 L 79.564,-17.2509 L 79.7515,-17.3168 L 79.9364,-17.3902 L 80.1181,-17.4708 L 80.2965,-17.5586
 L 80.4712,-17.6534 L 80.6421,-17.7551 L 80.8088,-17.8635 L 80.971,-17.9784 L 81.1285,-18.0997 L 81.2811,-18.2272
 L 81.4285,-18.3606 L 81.5705,-18.4998 L 81.7068,-18.6445 L 81.8373,-18.7945 L 81.9617,-18.9496 L 82.0798,-19.1095
 L 82.1915,-19.274 L 82.2966,-19.4428 L 82.3949,-19.6157 L 82.4862,-19.7923 L 82.5704,-19.9724 L 82.6474,-20.1557
 L 82.7171,-20.3419 L 82.7793,-20.5308 L 82.8339,-20.7219 L 82.8809,-20.9151 L 82.9202,-21.11 L 82.9516,-21.3063
 L 82.9753,-21.5037 L 82.9911,-21.7019 L 82.999,-21.9006 L 82.999,-22.0994 L 82.9911,-22.2981 L 82.9753,-22.4963
 L 82.9516,-22.6937 L 82.9202,-22.89 L 82.8809,-23.0849 L 82.8339,-23.2781 L 82.7793,-23.4693 L 82.7171,-23.6581
 L 82.6474,-23.8443 L 82.5704,-24.0276 L 82.4862,-24.2077 L 82.3949,-24.3843 L 82.2966,-24.5572 L 82.1915,-24.726
 L 82.0798,-24.8905 L 81.9617,-25.0504 L 81.8373,-25.2055 L 81.7068,-25.3555 L 81.5705,-25.5002 L 75.8848,-31.1859
 L 75.9089,-31.2192 L 76.1927,-31.617 L 76.2328,-31.6743 L 76.5096,-32.077 L 76.5486,-32.1349 L 76.8183,-32.5424
 L 76.8563,-32.6009 L 77.1189,-33.013 L 77.156,-33.0724 L 77.4113,-33.4891 L 77.4471,-33.5487 L 77.6952,-33.9698
 L 77.7301,-34.0303 L 77.9708,-34.4556 L 78.0046,-34.5168 L 78.2378,-34.9462 L 78.2705,-35.0077 L 78.4962,-35.4412
 L 78.5279,-35.5035 L 78.746,-35.9409 L 78.7766,-36.0036 L 78.987,-36.4447 L 79.0165,-36.5079 L 79.2191,-36.9526
 L 79.2475,-37.0164 L 79.4424,-37.4646 L 79.4696,-37.5288 L 79.6566,-37.9803 L 79.6828,-38.045 L 79.8619,-38.4997
 L 79.8869,-38.5649 L 80.0581,-39.0226 L 80.0819,-39.0882 L 80.2451,-39.5488 L 80.2678,-39.6149 L 80.4229,-40.0784
 L 80.4445,-40.1448 L 80.5914,-40.6108 L 80.6118,-40.6776 L 80.7506,-41.1461 L 80.7698,-41.2132 L 80.9004,-41.6841
 L 80.9185,-41.7515 L 81.0409,-42.2247 L 81.0578,-42.2925 L 81.1718,-42.7677 L 81.1875,-42.8356 L 81.2933,-43.3127
 L 81.3078,-43.381 L 81.4052,-43.8599 L 81.4186,-43.9283 L 81.5076,-44.4089 L 81.5198,-44.4777 L 81.6004,-44.9596
 L 81.6114,-45.0287 L 81.6836,-45.512 L 81.6933,-45.581 L 81.7571,-46.0655 L 81.7656,-46.1349 L 81.8209,-46.6205
 L 81.8282,-46.6898 L 81.875,-47.1762 L 81.8811,-47.2458 L 81.9195,-47.733 L 81.9243,-47.8027 L 81.9542,-48.2904
 L 81.9578,-48.3601 L 81.9791,-48.8483 L 81.9816,-48.9182 L 81.9944,-49.4067 L 81.9956,-49.4764 L 81.9998,-49.965
 L 81.9998,-50.035 L 81.9956,-50.5236 L 81.9944,-50.5933 L 81.9816,-51.0818 L 81.9791,-51.1517 L 81.9578,-51.6399
 L 81.9542,-51.7096 L 81.9243,-52.1973 L 81.9195,-52.267 L 81.8811,-52.7542 L 81.875,-52.8238 L 81.8282,-53.3102
 L 81.8209,-53.3795 L 81.7656,-53.8651 L 81.7571,-53.9345 L 81.6933,-54.419 L 81.6836,-54.488 L 81.6114,-54.9713
 L 81.6004,-55.0404 L 81.5198,-55.5223 L 81.5076,-55.5911 L 81.4186,-56.0717 L 81.4052,-56.1401 L 81.3078,-56.619
 L 81.2933,-56.6873 L 81.1875,-57.1644 L 81.1718,-57.2323 L 81.0578,-57.7075 L 81.0409,-57.7753 L 80.9185,-58.2485
 L 80.9004,-58.3159 L 80.7698,-58.7868 L 80.7506,-58.8539 L 80.6118,-59.3224 L 80.5914,-59.3892 L 80.4445,-59.8552
 L 80.4229,-59.9216 L 80.2678,-60.3851 L 80.2451,-60.4512 L 80.0819,-60.9118 L 80.0581,-60.9774 L 79.8869,-61.4351
 L 79.8619,-61.5003 L 79.6828,-61.955 L 79.6566,-62.0197 L 79.4696,-62.4712 L 79.4424,-62.5354 L 79.2475,-62.9836
 L 79.2191,-63.0474 L 79.0165,-63.4921 L 78.987,-63.5553 L 78.7766,-63.9964 L 78.746,-64.0591 L 78.5279,-64.4965
 L 78.4962,-64.5588 L 78.2705,-64.9923 L 78.2378,-65.0538 L 78.0046,-65.4832 L 77.9708,-65.5444 L 77.7301,-65.9697
 L 77.6952,-66.0302 L 77.4471,-66.4513 L 77.4113,-66.5109 L 77.156,-66.9276 L 77.1189,-66.987 L 76.8563,-67.3991
 L 76.8183,-67.4576 L 76.5486,-67.8651 L 76.5096,-67.923 L 76.2328,-68.3257 L 76.1927,-68.383 L 75.9089,-68.7808
 L 75.8848,-68.8141 L 81.5002,-74.4295 L 81.6394,-74.5715 L 81.7728,-74.7189 L 81.9003,-74.8714 L 82.0216,-75.029
 L 82.1365,-75.1912 L 82.2449,-75.3579 L 82.3466,-75.5287 L 82.4414,-75.7035 L 82.5292,-75.8819 L 82.6098,-76.0636
 L 82.6832,-76.2484 L 82.7491,-76.436 L 82.8075,-76.6261 L 82.8583,-76.8183 L 82.9015,-77.0124 L 82.9369,-77.208
 L 82.9644,-77.4049 L 82.9842,-77.6027 L 82.996,-77.8012 L 83,-78 L 82.996,-78.1988 L 82.9842,-78.3972
 L 82.9644,-78.5951 L 82.9369,-78.792 L 82.9015,-78.9876 L 82.8583,-79.1817 L 82.8075,-79.3739 L 82.7491,-79.564
 L 82.6832,-79.7515 L 82.6098,-79.9364 L 82.5292,-80.1181 L 82.4414,-80.2965 L 82.3466,-80.4712 L 82.2449,-80.6421
 L 82.1365,-80.8088 L 82.0216,-80.971 L 81.9003,-81.1285 L 81.7728,-81.2811 L 81.6394,-81.4285 L 81.5002,-81.5705
 L 81.3555,-81.7068 L 81.2055,-81.8373 L 81.0504,-81.9617 L 80.8905,-82.0798 L 80.726,-82.1915 L 80.5572,-82.2966
 L 80.3843,-82.3949 L 80.2077,-82.4862 L 80.0276,-82.5704 L 79.8443,-82.6474 L 79.6581,-82.7171 L 79.4692,-82.7793
 L 79.2781,-82.8339 L 79.0849,-82.8809 L 78.89,-82.9202 L 78.6937,-82.9516 L 78.4963,-82.9753 L 78.2981,-82.9911
 L 78.0994,-82.999 L 77.9006,-82.999 L 77.7019,-82.9911 L 77.5037,-82.9753 L 77.3063,-82.9516 L 77.11,-82.9202
 L 76.9151,-82.8809 L 76.7219,-82.8339 L 76.5307,-82.7793 L 76.3419,-82.7171 L 76.1557,-82.6474 L 75.9724,-82.5704
 L 75.7923,-82.4862 L 75.6157,-82.3949 L 75.4428,-82.2966 L 75.274,-82.1915 L 75.1095,-82.0798 L 74.9496,-81.9617
 L 74.7945,-81.8373 L 74.6445,-81.7068 L 74.4998,-81.5705 L 68.8141,-75.8848 L 68.7808,-75.9089 L 68.383,-76.1927
 L 68.3257,-76.2328 L 67.923,-76.5096 L 67.8651,-76.5486 L 67.4576,-76.8183 L 67.3991,-76.8563 L 66.987,-77.1189
 L 66.9276,-77.156 L 66.5109,-77.4113 L 66.4513,-77.4471 L 66.0302,-77.6952 L 65.9697,-77.7301 L 65.5444,-77.9708
 L 65.4832,-78.0046 L 65.0538,-78.2378 L 64.9923,-78.2705 L 64.5588,-78.4962 L 64.4965,-78.5279 L 64.0591,-78.746
 L 63.9964,-78.7766 L 63.5553,-78.987 L 63.4921,-79.0165 L 63.0474,-79.2191 L 62.9836,-79.2475 L 62.5354,-79.4424
 L 62.4712,-79.4696 L 62.0197,-79.6566 L 61.955,-79.6828 L 61.5003,-79.8619 L 61.4351,-79.8869 L 60.9774,-80.0581
 L 60.9118,-80.0819 L 60.4512,-80.2451 L 60.3851,-80.2678 L 59.9216,-80.4229 L 59.8552,-80.4445 L 59.3892,-80.5914
 L 59.3224,-80.6118 L 58.8539,-80.7506 L 58.7868,-80.7698 L 58.3159,-80.9004 L 58.2485,-80.9185 L 57.7753,-81.0409
 L 57.7075,-81.0578 L 57.2323,-81.1718 L 57.1644,-81.1875 L 56.6873,-81.2933 L 56.619,-81.3078 L 56.1401,-81.4052
 L 56.0717,-81.4186 L 55.5911,-81.5076 L 55.5223,-81.5198 L 55.0404,-81.6004 L 54.9713,-81.6114 L 54.488,-81.6836
 L 54.419,-81.6933 L 53.9345,-81.7571 L 53.8651,-81.7656 L 53.3795,-81.8209 L 53.3102,-81.8282 L 52.8238,-81.875
 L 52.7542,-81.8811 L 52.267,-81.9195 L 52.1973,-81.9243 L 51.7096,-81.9542 L 51.6399,-81.9578 L 51.1517,-81.9791
 L 51.0818,-81.9816 L 50.5933,-81.9944 L 50.5236,-81.9956 L 50.035,-81.9998 L 49.965,-81.9998 L 49.4764,-81.9956
 L 49.4067,-81.9944 L 48.9182,-81.9816 L 48.8483,-81.9791 L 48.3601,-81.9578 L 48.2904,-81.9542 L 47.8027,-81.9243
 L 47.733,-81.9195 L 47.2458,-81.8811 L 47.1762,-81.875 L 46.6898,-81.8282 L 46.6205,-81.8209 L 46.1349,-81.7656
 L 46.0655,-81.7571 L 45.581,-81.6933 L 45.512,-81.6836 L 45.0287,-81.6114 L 44.9596,-81.6004 L 44.4777,-81.5198
 L 44.4089,-81.5076 L 43.9283,-81.4186 L 43.8599,-81.4052 L 43.381,-81.3078 L 43.3127,-81.2933 L 42.8356,-81.1875
 L 42.7677,-81.1718 L 42.2925,-81.0578 L 42.2247,-81.0409 L 41.7515,-80.9185 L 41.6841,-80.9004 L 41.2132,-80.7698
 L 41.1461,-80.7506 L 40.6776,-80.6118 L 40.6108,-80.5914 L 40.1448,-80.4445 L 40.0784,-80.4229 L 39.6149,-80.2678
 L 39.5488,-80.2451 L 39.0882,-80.0819 L 39.0226,-80.0581 L 38.5649,-79.8869 L 38.4997,-79.8619 L 38.045,-79.6828
 L 37.9803,-79.6566 L 37.5288,-79.4696 L 37.4646,-79.4424 L 37.0164,-79.2475 L 36.9526,-79.2191 L 36.5079,-79.0165
 L 36.4447,-78.987 L 36.0036,-78.7766 L 35.9409,-78.746 L 35.5035,-78.5279 L 35.4412,-78.4962 L 35.0077,-78.2705
 L 34.9462,-78.2378 L 34.5168,-78.0046 L 34.4556,-77.9708 L 34.0303,-77.7301 L 33.9698,-77.6952 L 33.5487,-77.4471
 L 33.4891,-77.4113 L 33.0724,-77.156 L 33.013,-77.1189 L 32.6009,-76.8563 L 32.5424,-76.8183 L 32.1349,-76.5486
 L 32.077,-76.5096 L 31.6743,-76.2328 L 31.617,-76.1927 L 31.2192,-75.9089 L 31.1859,-75.8848 L 25.5705,-81.5002
 L 25.4285,-81.6394 L 25.2811,-81.7728 L 25.1286,-81.9003 L 24.971,-82.0216 L 24.8088,-82.1365 L 24.6421,-82.2449
 L 24.4713,-82.3466 L 24.2965,-82.4414 L 24.1181,-82.5292 L 23.9364,-82.6098 L 23.7516,-82.6832 L 23.564,-82.7491
 L 23.3739,-82.8075 L 23.1817,-82.8583 L 22.9876,-82.9015 L 22.792,-82.9369 L 22.5951,-82.9644 L 22.3973,-82.9842
 L 22.1988,-82.996 L 22,-83 L 21.8012,-82.996 L 21.6028,-82.9842 L 21.4049,-82.9644 L 21.208,-82.9369
 L 21.0124,-82.9015 L 20.8183,-82.8583 L 20.6261,-82.8075 L 20.436,-82.7491 L 20.2485,-82.6832 L 20.0636,-82.6098
 L 19.8819,-82.5292 L 19.7035,-82.4414 L 19.5288,-82.3466 L 19.3579,-82.2449 L 19.1912,-82.1365 L 19.029,-82.0216
 L 18.8715,-81.9003 L 18.7189,-81.7728 L 18.5715,-81.6394 L 18.4295,-81.5002 L 18.2932,-81.3555 L 18.1627,-81.2055
 L 18.0383,-81.0504 L 17.9202,-80.8905 L 17.8085,-80.726 L 17.7034,-80.5572 L 17.6051,-80.3843 L 17.5138,-80.2077
 L 17.4296,-80.0276 L 17.3526,-79.8443 L 17.2829,-79.6581 L 17.2207,-79.4692 L 17.1661,-79.2781 L 17.1191,-79.0849
 L 17.0798,-78.89 L 17.0484,-78.6937 L 17.0247,-78.4963 L 17.0089,-78.2981 L 17.001,-78.0994 L 17.001,-77.9006
 L 17.0089,-77.7019 L 17.0247,-77.5037 L 17.0484,-77.3063 L 17.0798,-77.11 L 17.1191,-76.9151 L 17.1661,-76.7219
 L 17.2207,-76.5307 L 17.2829,-76.3419 L 17.3526,-76.1557 L 17.4296,-75.9724 L 17.5138,-75.7923 L 17.6051,-75.6157
 L 17.7034,-75.4428 L 17.8085,-75.274 L 17.9202,-75.1095 L 18.0383,-74.9496 L 18.1627,-74.7945 L 18.2932,-74.6445
 L 18.4295,-74.4998 L 24.1152,-68.8141 L 24.0911,-68.7808 L 23.8073,-68.383 L 23.7672,-68.3257 L 23.4904,-67.923
 L 23.4514,-67.8651 L 23.1817,-67.4576 L 23.1437,-67.3991 L 22.8811,-66.987 L 22.844,-66.9276 L 22.5887,-66.5109
 L 22.5529,-66.4513 L 22.3048,-66.0302 L 22.2699,-65.9697 L 22.0292,-65.5444 L 21.9954,-65.4832 L 21.7622,-65.0538
 L 21.7295,-64.9923 L 21.5038,-64.5588 L 21.4721,-64.4965 L 21.254,-64.0591 L 21.2234,-63.9964 L 21.013,-63.5553
 L 20.9835,-63.4921 L 20.7809,-63.0474 L 20.7525,-62.9836 L 20.5576,-62.5354 L 20.5304,-62.4712 L 20.3434,-62.0197
 L 20.3172,-61.955 L 20.1381,-61.5003 L 20.1131,-61.4351 L 19.9419,-60.9774 L 19.9181,-60.9118 L 19.7549,-60.4512
 L 19.7322,-60.3851 L 19.5771,-59.9216 L 19.5555,-59.8552 L 19.4086,-59.3892 L 19.3882,-59.3224 L 19.2494,-58.8539
 L 19.2302,-58.7868 L 19.0996,-58.3159 L 19.0815,-58.2485 L 18.9591,-57.7753 L 18.9422,-57.7075 L 18.8282,-57.2323
 L 18.8125,-57.1644 L 18.7067,-56.6873 L 18.6922,-56.619 L 18.5948,-56.1401 L 18.5814,-56.0717 L 18.4924,-55.5911
 L 18.4802,-55.5223 L 18.3996,-55.0404 L 18.3886,-54.9713 L 18.3164,-54.488 L 18.3067,-54.419 L 18.2429,-53.9345
 L 18.2344,-53.8651 L 18.1791,-53.3795 L 18.1718,-53.3102 L 18.125,-52.8238 L 18.1189,-52.7542 L 18.0805,-52.267
 L 18.0757,-52.1973 L 18.0458,-51.7096 L 18.0422,-51.6399 L 18.0209,-51.1517 L 18.0184,-51.0818 L 18.0056,-50.5933
 L 18.0044,-50.5236 L 18.0002,-50.035 L 18.0002,-49.965 L 18.0044,-49.4764 L 18.0056,-49.4067 L 18.0184,-48.9182
 L 18.0209,-48.8483 L 18.0422,-48.3601 L 18.0458,-48.2904 L 18.0757,-47.8027 L 18.0805,-47.733 L 18.1189,-47.2458
 L 18.125,-47.1762 L 18.1718,-46.6898 L 18.1791,-46.6205 L 18.2344,-46.1349 L 18.2429,-46.0655 L 18.3067,-45.581
 L 18.3164,-45.512 L 18.3886,-45.0287 L 18.3996,-44.9596 L 18.4802,-44.4777 L 18.4924,-44.4089 L 18.5814,-43.9283
 L 18.5948,-43.8599 L 18.6922,-43.381 L 18.7067,-43.3127 L 18.8125,-42.8356 L 18.8282,-42.7677 L 18.9422,-42.2925
 L 18.9591,-42.2247 L 19.0815,-41.7515 L 19.0996,-41.6841 L 19.2302,-41.2132 L 19.2494,-41.1461 L 19.3882,-40.6776
 L 19.4086,-40.6108 L 19.5555,-40.1448 L 19.5771,-40.0784 L 19.7322,-39.6149 L 19.7549,-39.5488 L 19.9181,-39.0882
 L 19.9419,-39.0226 L 20.1131,-38.5649 L 20.1381,-38.4997 L 20.3172,-38.045 L 20.3434,-37.9803 L 20.5304,-37.5288
 L 20.5576,-37.4646 L 20.7525,-37.0164 L 20.7809,-36.9526 L 20.9835,-36.5079 L 21.013,-36.4447 L 21.2234,-36.0036
 L 21.254,-35.9409 L 21.4721,-35.5035 L 21.5038,-35.4412 L 21.7295,-35.0077 L 21.7622,-34.9462 L 21.9954,-34.5168
 L 22.0292,-34.4556 L 22.2699,-34.0303 L 22.3048,-33.9698 L 22.5529,-33.5487 L 22.5887,-33.4891 L 22.844,-33.0724
 L 22.8811,-33.013 L 23.1437,-32.6009 L 23.1817,-32.5424 L 23.4514,-32.1349 L 23.4904,-32.077 L 23.7672,-31.6743
 L 23.8073,-31.617 L 24.0911,-31.2192 L 24.1152,-31.1859 L 18.4998,-25.5705 L 18.3606,-25.4285 L 18.2272,-25.2811
 L 18.0997,-25.1286 L 17.9784,-24.971 L 17.8635,-24.8088 L 17.7551,-24.6421 L 17.6534,-24.4713 L 17.5586,-24.2965
 L 17.4708,-24.1181 L 17.3902,-23.9364 L 17.3168,-23.7516 L 17.2509,-23.564 L 17.1925,-23.3739 L 17.1417,-23.1817
 L 17.0985,-22.9876 L 17.0631,-22.792 L 17.0356,-22.5951 L 17.0158,-22.3973 L 17.004,-22.1988 L 17,-22
 L 17.004,-21.8012 L 17.0158,-21.6028 L 17.0356,-21.4049 L 17.0631,-21.208 L 17.0985,-21.0124 L 17.1417,-20.8183
 L 17.1925,-20.6261 L 17.2509,-20.436 L 17.3168,-20.2485 L 17.3902,-20.0636 L 17.4708,-19.8819 L 17.5586,-19.7035
 L 17.6534,-19.5288 L 17.7551,-19.3579 L 17.8635,-19.1912 L 17.9784,-19.029 L 18.0997,-18.8715 L 18.2272,-18.7189
 L 18.3606,-18.5715 L 18.4998,-18.4295 L 18.6445,-18.2932 L 18.7945,-18.1627 L 18.9496,-18.0383 L 19.1095,-17.9202
 L 19.274,-17.8085 L 19.4428,-17.7034 L 19.6157,-17.6051 L 19.7923,-17.5138 L 19.9724,-17.4296 L 20.1557,-17.3526
 L 20.3419,-17.2829 L 20.5308,-17.2207 L 20.7219,-17.1661 L 20.9151,-17.1191 L 21.11,-17.0798 L 21.3063,-17.0484
 L 21.5037,-17.0247 L 21.7019,-17.0089 L 21.9006,-17.001 L 22.0994,-17.001 L 22.2981,-17.0089 L 22.4963,-17.0247
 L 22.6937,-17.0484 L 22.89,-17.0798 L 23.0849,-17.1191 L 23.2781,-17.1661 L 23.4693,-17.2207 L 23.6581,-17.2829
 L 23.8443,-17.3526 L 24.0276,-17.4296 L 24.2077,-17.5138 L 24.3843,-17.6051 L 24.5572,-17.7034 L 24.726,-17.8085
 L 24.8905,-17.9202 L 25.0504,-18.0383 L 25.2055,-18.1627 L 25.3555,-18.2932 L 25.5002,-18.4295 L 31.1859,-24.1152
 L 31.2192,-24.0911 L 31.617,-23.8073 L 31.6743,-23.7672 L 32.077,-23.4904 L 32.1349,-23.4514 L 32.5424,-23.1817
 L 32.6009,-23.1437 L 33.013,-22.8811 L 33.0724,-22.844 L 33.4891,-22.5887 L 33.5487,-22.5529 L 33.9698,-22.3048
 L 34.0303,-22.2699 L 34.4556,-22.0292 L 34.5168,-21.9954 L 34.9462,-21.7622 L 35.0077,-21.7295 L 35.4412,-21.5038
 L 35.5035,-21.4721 L 35.9409,-21.254 L 36.0036,-21.2234 L 36.4447,-21.013 L 36.5079,-20.9835 L 36.9526,-20.7809
 L 37.0164,-20.7525 L 37.4646,-20.5576 L 37.5288,-20.5304 L 37.9803,-20.3434 L 38.045,-20.3172 L 38.4997,-20.1381
 L 38.5649,-20.1131 L 39.0226,-19.9419 L 39.0882,-19.9181 L 39.5488,-19.7549 L 39.6149,-19.7322 L 40.0784,-19.5771
 L 40.1448,-19.5555 L 40.6108,-19.4086 L 40.6776,-19.3882 L 41.1461,-19.2494 L 41.2132,-19.2302 L 41.6841,-19.0996
 L 41.7515,-19.0815 L 42.2247,-18.9591 L 42.2925,-18.9422 L 42.7677,-18.8282 L 42.8356,-18.8125 L 43.3127,-18.7067
 L 43.381,-18.6922 L 43.8599,-18.5948 L 43.9283,-18.5814 L 44.4089,-18.4924 L 44.4777,-18.4802 L 44.9596,-18.3996
 L 45.0287,-18.3886 L 45.512,-18.3164 L 45.581,-18.3067 L 46.0655,-18.2429 L 46.1349,-18.2344 L 46.6205,-18.1791
 L 46.6898,-18.1718 L 47.1762,-18.125 L 47.2458,-18.1189 L 47.733,-18.0805 L 47.8027,-18.0757 L 48.2904,-18.0458
 L 48.3601,-18.0422 L 48.8483,-18.0209 L 48.9182,-18.0184 L 49.4067,-18.0056 L 49.4764,-18.0044 L 49.965,-18.0002
 L 50.035,-18.0002 L 50.5236,-18.0044 L 50.5933,-18.0056 L 51.0818,-18.0184 L 51.1517,-18.0209 L 51.6399,-18.0422
 L 51.7096,-18.0458 L 52.1973,-18.0757 L 52.267,-18.0805 L 52.7542,-18.1189 L 52.8238,-18.125 L 53.3102,-18.1718
 L 53.3795,-18.1791 L 53.8651,-18.2344 L 53.9345,-18.2429 L 54.419,-18.3067 L 54.488,-18.3164 L 54.9713,-18.3886
 L 55.0404,-18.3996 L 55.5223,-18.4802 L 55.5911,-18.4924 L 56.0717,-18.5814 L 56.1401,-18.5948 L 56.619,-18.6922
 L 56.6873,-18.7067 L 57.1644,-18.8125 L 57.2323,-18.8282 L 57.7075,-18.9422 L 57.7753,-18.9591 L 58.2485,-19.0815
 L 58.3159,-19.0996 L 58.7868,-19.2302 L 58.8539,-19.2494 L 59.3224,-19.3882 L 59.3892,-19.4086 L 59.8552,-19.5555
 L 59.9216,-19.5771 L 60.3851,-19.7322 L 60.4512,-19.7549 L 60.9118,-19.9181 L 60.9774,-19.9419 L 61.4351,-20.1131
 L 61.5003,-20.1381 L 61.955,-20.3172 L 62.0197,-20.3434 L 62.4712,-20.5304 L 62.5354,-20.5576 L 62.9836,-20.7525
 L 63.0474,-20.7809 L 63.4921,-20.9835 L 63.5553,-21.013 L 63.9964,-21.2234 L 64.0591,-21.254 L 64.4965,-21.4721
 L 64.5588,-21.5038 L 64.9923,-21.7295 L 65.0538,-21.7622 L 65.4832,-21.9954 L 65.5444,-22.0292 L 65.9697,-22.2699
 L 66.0302,-22.3048 L 66.4513,-22.5529 L 66.5109,-22.5887 L 66.9276,-22.844 L 66.987,-22.8811 L 67.3991,-23.1437
 L 67.4576,-23.1817 L 67.8651,-23.4514 L 67.923,-23.4904 L 68.3257,-23.7672 L 68.383,-23.8073 L 68.7808,-24.0911
 L 68.8141,-24.1152 L 74.4295,-18.4998 L 74.5715,-18.3606 L 74.7189,-18.2272 L 74.8714,-18.0997 L 75.029,-17.9784
 L 75.1912,-17.8635 L 75.3579,-17.7551 L 75.5287,-17.6534 L 75.7035,-17.5586 L 75.8819,-17.4708 L 76.0636,-17.3902
 L 76.2484,-17.3168 L 76.436,-17.2509 L 76.6261,-17.1925 L 76.8183,-17.1417 L 77.0124,-17.0985 L 77.208,-17.0631
 L 77.4049,-17.0356 L 77.6027,-17.0158 L 77.8012,-17.004 L 78,-17 z
M 34.0552,-73.0155 L 34.3426,-73.213 L 34.7501,-73.4828 L 35.1623,-73.7453 L 35.5789,-74.0007 L 36,-74.2487
 L 36.4253,-74.4893 L 36.8548,-74.7225 L 37.2883,-74.9482 L 37.7256,-75.1662 L 38.1667,-75.3766 L 38.6114,-75.5793
 L 39.0595,-75.7741 L 39.511,-75.9611 L 39.9657,-76.1402 L 40.4234,-76.3114 L 40.8841,-76.4745 L 41.3475,-76.6296
 L 41.8136,-76.7765 L 42.2822,-76.9153 L 42.7531,-77.0459 L 43.2262,-77.1683 L 43.7014,-77.2823 L 44.1785,-77.3881
 L 44.6573,-77.4855 L 45.1379,-77.5746 L 45.6198,-77.6553 L 46.1032,-77.7275 L 46.5877,-77.7913 L 47.0732,-77.8466
 L 47.5596,-77.8934 L 48.0468,-77.9318 L 48.5346,-77.9616 L 49.0228,-77.9829 L 49.5113,-77.9957 L 50,-78
 L 50.4887,-77.9957 L 50.9772,-77.9829 L 51.4654,-77.9616 L 51.9532,-77.9318 L 52.4404,-77.8934 L 52.9268,-77.8466
 L 53.4123,-77.7913 L 53.8968,-77.7275 L 54.3802,-77.6553 L 54.8621,-77.5746 L 55.3427,-77.4855 L 55.8215,-77.3881
 L 56.2986,-77.2823 L 56.7738,-77.1683 L 57.2469,-77.0459 L 57.7178,-76.9153 L 58.1864,-76.7765 L 58.6525,-76.6296
 L 59.1159,-76.4745 L 59.5766,-76.3114 L 60.0343,-76.1402 L 60.489,-75.9611 L 60.9405,-75.7741 L 61.3886,-75.5793
 L 61.8333,-75.3766 L 62.2744,-75.1662 L 62.7117,-74.9482 L 63.1452,-74.7225 L 63.5747,-74.4893 L 64,-74.2487
 L 64.4211,-74.0007 L 64.8377,-73.7453 L 65.2499,-73.4828 L 65.6574,-73.213 L 65.9448,-73.0155 L 50,-57.0707
 z
M 26.787,-34.3426 L 26.5172,-34.7501 L 26.2547,-35.1623 L 25.9993,-35.5789 L 25.7513,-36 L 25.5107,-36.4253
 L 25.2775,-36.8548 L 25.0518,-37.2883 L 24.8338,-37.7256 L 24.6234,-38.1667 L 24.4207,-38.6114 L 24.2259,-39.0595
 L 24.0389,-39.511 L 23.8598,-39.9657 L 23.6886,-40.4234 L 23.5255,-40.8841 L 23.3704,-41.3475 L 23.2235,-41.8136
 L 23.0847,-42.2822 L 22.9541,-42.7531 L 22.8317,-43.2262 L 22.7177,-43.7014 L 22.6119,-44.1785 L 22.5145,-44.6573
 L 22.4254,-45.1379 L 22.3447,-45.6198 L 22.2725,-46.1032 L 22.2087,-46.5877 L 22.1534,-47.0732 L 22.1066,-47.5596
 L 22.0682,-48.0468 L 22.0384,-48.5346 L 22.0171,-49.0228 L 22.0043,-49.5113 L 22,-50 L 22.0043,-50.4887
 L 22.0171,-50.9772 L 22.0384,-51.4654 L 22.0682,-51.9532 L 22.1066,-52.4404 L 22.1534,-52.9268 L 22.2087,-53.4123
 L 22.2725,-53.8968 L 22.3447,-54.3802 L 22.4254,-54.8621 L 22.5145,-55.3427 L 22.6119,-55.8215 L 22.7177,-56.2986
 L 22.8317,-56.7738 L 22.9541,-57.2469 L 23.0847,-57.7178 L 23.2235,-58.1864 L 23.3704,-58.6525 L 23.5255,-59.1159
 L 23.6886,-59.5766 L 23.8598,-60.0343 L 24.0389,-60.489 L 24.2259,-60.9405 L 24.4207,-61.3886 L 24.6234,-61.8333
 L 24.8338,-62.2744 L 25.0518,-62.7117 L 25.2775,-63.1452 L 25.5107,-63.5747 L 25.7513,-64 L 25.9993,-64.4211
 L 26.2547,-64.8377 L 26.5172,-65.2499 L 26.787,-65.6574 L 26.9845,-65.9448 L 42.9293,-50 L 26.9845,-34.0552
 z
M 57.0707,-50 L 73.0155,-65.9448 L 73.213,-65.6574 L 73.4828,-65.2499 L 73.7453,-64.8377 L 74.0007,-64.4211
 L 74.2487,-64 L 74.4893,-63.5747 L 74.7225,-63.1452 L 74.9482,-62.7117 L 75.1662,-62.2744 L 75.3766,-61.8333
 L 75.5793,-61.3886 L 75.7741,-60.9405 L 75.9611,-60.489 L 76.1402,-60.0343 L 76.3114,-59.5766 L 76.4745,-59.1159
 L 76.6296,-58.6525 L 76.7765,-58.1864 L 76.9153,-57.7178 L 77.0459,-57.2469 L 77.1683,-56.7738 L 77.2823,-56.2986
 L 77.3881,-55.8215 L 77.4855,-55.3427 L 77.5746,-54.8621 L 77.6553,-54.3802 L 77.7275,-53.8968 L 77.7913,-53.4123
 L 77.8466,-52.9268 L 77.8934,-52.4404 L 77.9318,-51.9532 L 77.9616,-51.4654 L 77.9829,-50.9772 L 77.9957,-50.4887
 L 78,-50 L 77.9957,-49.5113 L 77.9829,-49.0228 L 77.9616,-48.5346 L 77.9318,-48.0468 L 77.8934,-47.5596
 L 77.8466,-47.0732 L 77.7913,-46.5877 L 77.7275,-46.1032 L 77.6553,-45.6198 L 77.5746,-45.1379 L 77.4855,-44.6573
 L 77.3881,-44.1785 L 77.2823,-43.7014 L 77.1683,-43.2262 L 77.0459,-42.7531 L 76.9153,-42.2822 L 76.7765,-41.8136
 L 76.6296,-41.3475 L 76.4745,-40.8841 L 76.3114,-40.4234 L 76.1402,-39.9657 L 75.9611,-39.511 L 75.7741,-39.0595
 L 75.5793,-38.6114 L 75.3766,-38.1667 L 75.1662,-37.7256 L 74.9482,-37.2883 L 74.7225,-36.8548 L 74.4893,-36.4253
 L 74.2487,-36 L 74.0007,-35.5789 L 73.7453,-35.1623 L 73.4828,-34.7501 L 73.213,-34.3426 L 73.0155,-34.0552
 z
M 49.5113,-22.0043 L 49.0228,-22.0171 L 48.5346,-22.0384 L 48.0468,-22.0682 L 47.5596,-22.1066 L 47.0732,-22.1534
 L 46.5877,-22.2087 L 46.1032,-22.2725 L 45.6198,-22.3447 L 45.1379,-22.4254 L 44.6573,-22.5145 L 44.1785,-22.6119
 L 43.7014,-22.7177 L 43.2262,-22.8317 L 42.7531,-22.9541 L 42.2822,-23.0847 L 41.8136,-23.2235 L 41.3475,-23.3704
 L 40.8841,-23.5255 L 40.4234,-23.6886 L 39.9657,-23.8598 L 39.511,-24.0389 L 39.0595,-24.2259 L 38.6114,-24.4207
 L 38.1667,-24.6234 L 37.7256,-24.8338 L 37.2883,-25.0518 L 36.8548,-25.2775 L 36.4253,-25.5107 L 36,-25.7513
 L 35.5789,-25.9993 L 35.1623,-26.2547 L 34.7501,-26.5172 L 34.3426,-26.787 L 34.0552,-26.9845 L 50,-42.9293
 L 65.9448,-26.9845 L 65.6574,-26.787 L 65.2499,-26.5172 L 64.8377,-26.2547 L 64.4211,-25.9993 L 64,-25.7513
 L 63.5747,-25.5107 L 63.1452,-25.2775 L 62.7117,-25.0518 L 62.2744,-24.8338 L 61.8333,-24.6234 L 61.3886,-24.4207
 L 60.9405,-24.2259 L 60.489,-24.0389 L 60.0343,-23.8598 L 59.5766,-23.6886 L 59.1159,-23.5255 L 58.6525,-23.3704
 L 58.1864,-23.2235 L 57.7178,-23.0847 L 57.2469,-22.9541 L 56.7738,-22.8317 L 56.2986,-22.7177 L 55.8215,-22.6119
 L 55.3427,-22.5145 L 54.8621,-22.4254 L 54.3802,-22.3447 L 53.8968,-22.2725 L 53.4123,-22.2087 L 52.9268,-22.1534
 L 52.4404,-22.1066 L 51.9532,-22.0682 L 51.4654,-22.0384 L 50.9772,-22.0171 L 50.4887,-22.0043 L 50,-22
 z
" stroke="white" fill="white" stroke-width="0.5"/>
</svg>
