<?xml version="1.0" standalone="no"?>
<!DOCTYPE svg PUBLIC "-//W3C//DTD SVG 1.1//EN" "http://www.w3.org/Graphics/SVG/1.1/DTD/svg11.dtd">
<svg width="100mm" height="100mm" viewBox="-8 -108 116 116" xmlns="http://www.w3.org/2000/svg" version="1.1">
<title>OpenSCAD Model</title>
<path d="
M 84.1993,-0.00497437 L 84.3984,-0.0149078 L 84.5973,-0.0298004 L 84.7955,-0.0546417 L 84.9926,-0.0843658 L 85.1891,-0.119003
 L 85.3832,-0.163315 L 85.5764,-0.212509 L 85.7684,-0.266525 L 85.9575,-0.330063 L 86.1449,-0.398254 L 86.3306,-0.471115
 L 86.5125,-0.553223 L 86.6922,-0.63974 L 86.8696,-0.730728 L 87.0423,-0.830399 L 87.2124,-0.934357 L 87.3799,-1.04256
 L 87.5419,-1.15901 L 87.7008,-1.2794 L 87.8568,-1.40376 L 88.0063,-1.53571 L 88.1524,-1.67133 L 88.2952,-1.81058
 L 88.4308,-1.95677 L 88.5628,-2.10626 L 88.691,-2.25905 L 88.8113,-2.41792 L 88.9277,-2.5798 L 89.0401,-2.74458
 L 89.1443,-2.9151 L 89.244,-3.08778 L 89.3393,-3.26295 L 89.4258,-3.44243 L 89.5078,-3.62416 L 89.5852,-3.80795
 L 89.6534,-3.99522 L 89.7169,-4.18422 L 89.7757,-4.3748 L 89.825,-4.56818 L 89.8693,-4.76257 L 89.9088,-4.95807
 L 89.9386,-5.15555 L 89.9634,-5.35338 L 89.9832,-5.55183 L 89.9916,-5.70078 L 89.9972,-5.85023 L 90,-6
 L 90,-94 L 89.995,-94.1993 L 89.9851,-94.3984 L 89.9702,-94.5973 L 89.9454,-94.7955 L 89.9156,-94.9926
 L 89.881,-95.1891 L 89.8367,-95.3832 L 89.7875,-95.5764 L 89.7335,-95.7684 L 89.6699,-95.9575 L 89.6017,-96.1449
 L 89.5289,-96.3306 L 89.4468,-96.5125 L 89.3603,-96.6922 L 89.2693,-96.8696 L 89.1696,-97.0423 L 89.0656,-97.2124
 L 88.9574,-97.3799 L 88.841,-97.5419 L 88.7206,-97.7008 L 88.5962,-97.8568 L 88.4643,-98.0063 L 88.3287,-98.1524
 L 88.1894,-98.2952 L 88.0432,-98.4308 L 87.8937,-98.5628 L 87.741,-98.691 L 87.5821,-98.8113 L 87.4202,-98.9277
 L 87.2554,-99.0401 L 87.0849,-99.1443 L 86.9122,-99.244 L 86.737,-99.3393 L 86.5576,-99.4258 L 86.3758,-99.5078
 L 86.192,-99.5852 L 86.0048,-99.6534 L 85.8158,-99.7169 L 85.6252,-99.7757 L 85.4318,-99.825 L 85.2374,-99.8693
 L 85.0419,-99.9088 L 84.8445,-99.9386 L 84.6466,-99.9634 L 84.4482,-99.9832 L 84.2992,-99.9916 L 84.1498,-99.9972
 L 84,-100 L 36,-100 L 10,-74 L 10,-50 L 14,-50 L 14,-70
 L 34,-70 L 34.1993,-70.005 L 34.3984,-70.0149 L 34.5973,-70.0298 L 34.7955,-70.0546 L 34.9926,-70.0844
 L 35.1891,-70.119 L 35.3832,-70.1633 L 35.5764,-70.2125 L 35.7684,-70.2665 L 35.9575,-70.3301 L 36.1449,-70.3983
 L 36.3306,-70.4711 L 36.5125,-70.5532 L 36.6922,-70.6397 L 36.8696,-70.7307 L 37.0423,-70.8304 L 37.2124,-70.9344
 L 37.3799,-71.0426 L 37.5419,-71.159 L 37.7008,-71.2794 L 37.8568,-71.4038 L 38.0063,-71.5357 L 38.1524,-71.6713
 L 38.2952,-71.8106 L 38.4308,-71.9568 L 38.5628,-72.1063 L 38.691,-72.259 L 38.8113,-72.4179 L 38.9277,-72.5798
 L 39.0401,-72.7446 L 39.1443,-72.9151 L 39.244,-73.0878 L 39.3393,-73.263 L 39.4258,-73.4424 L 39.5078,-73.6242
 L 39.5852,-73.808 L 39.6534,-73.9952 L 39.7169,-74.1842 L 39.7757,-74.3748 L 39.825,-74.5682 L 39.8693,-74.7626
 L 39.9088,-74.9581 L 39.9386,-75.1555 L 39.9634,-75.3534 L 39.9832,-75.5518 L 39.9916,-75.7008 L 39.9972,-75.8502
 L 40,-76 L 40,-96 L 84,-96 L 84.1495,-95.9944 L 84.3473,-95.9696 L 84.5417,-95.9252
 L 84.7307,-95.8617 L 84.9124,-95.7797 L 85.0851,-95.6801 L 85.247,-95.5637 L 85.3965,-95.4317 L 85.5321,-95.2856
 L 85.6525,-95.1266 L 85.7564,-94.9565 L 85.843,-94.7769 L 85.9111,-94.5895 L 85.9603,-94.3963 L 85.9901,-94.1991
 L 86,-94 L 86,-6 L 85.9944,-5.85054 L 85.9696,-5.65271 L 85.9252,-5.45831 L 85.8617,-5.26932
 L 85.7797,-5.08759 L 85.6801,-4.9149 L 85.5637,-4.75302 L 85.4317,-4.60353 L 85.2856,-4.46791 L 85.1266,-4.34752
 L 84.9565,-4.24356 L 84.7769,-4.15704 L 84.5895,-4.08885 L 84.3963,-4.03966 L 84.1991,-4.00993 L 84,-4
 L 80,-4 L 80,-0 L 84,-0 z
M 17.3174,0.528992 L 17.6178,0.521652 L 17.915,0.509399 L 18.2092,0.492264 L 18.5004,0.470215 L 18.7884,0.443283
 L 19.0734,0.411438 L 19.3553,0.374695 L 19.6341,0.333054 L 19.9098,0.28653 L 20.1824,0.235092 L 20.452,0.178757
 L 20.7185,0.117523 L 20.9819,0.0513916 L 21.2423,-0.0195923 L 21.4995,-0.09552 L 21.7537,-0.176346 L 22.0048,-0.26207
 L 22.2528,-0.352692 L 22.4978,-0.448212 L 22.7397,-0.54863 L 22.9785,-0.653946 L 23.2142,-0.76416 L 23.4468,-0.879272
 L 23.6763,-0.999283 L 23.9028,-1.12419 L 24.1262,-1.254 L 24.3466,-1.38872 L 24.5638,-1.52831 L 24.778,-1.67281
 L 24.989,-1.82222 L 25.1971,-1.97653 L 25.402,-2.13573 L 25.6038,-2.29982 L 25.8026,-2.46881 L 25.9983,-2.6427
 L 26.1909,-2.8215 L 26.3805,-3.00519 L 26.5669,-3.19379 L 26.7503,-3.38727 L 26.9306,-3.58566 L 27.1078,-3.78894
 L 27.282,-3.99713 L 27.4531,-4.21021 L 27.6211,-4.42819 L 27.786,-4.65108 L 27.9476,-4.87852 L 28.1057,-5.1102
 L 28.2602,-5.34608 L 28.4111,-5.5862 L 28.5585,-5.83055 L 28.7024,-6.0791 L 28.8427,-6.33188 L 28.9794,-6.58887
 L 29.1126,-6.8501 L 29.2423,-7.11552 L 29.3683,-7.38518 L 29.4909,-7.65906 L 29.6099,-7.93716 L 29.7253,-8.21948
 L 29.8372,-8.506 L 29.9455,-8.79677 L 30.0503,-9.09174 L 30.1516,-9.39095 L 30.2492,-9.69437 L 30.3434,-10.002
 L 30.4339,-10.3139 L 30.521,-10.6299 L 30.6044,-10.9502 L 30.6843,-11.2747 L 30.7607,-11.6035 L 30.8335,-11.9364
 L 30.9028,-12.2736 L 30.9685,-12.615 L 31.0307,-12.9606 L 31.0893,-13.3105 L 31.1443,-13.6646 L 31.1958,-14.0228
 L 31.2438,-14.3853 L 31.2882,-14.752 L 31.329,-15.123 L 31.3663,-15.4981 L 31.4,-15.8775 L 31.4302,-16.2611
 L 31.4569,-16.6489 L 31.48,-17.041 L 31.4995,-17.4373 L 31.5155,-17.8377 L 31.5279,-18.2424 L 31.5368,-18.6514
 L 31.5421,-19.0645 L 31.5439,-19.4819 L 31.5421,-19.9003 L 31.5369,-20.3145 L 31.528,-20.7245 L 31.5157,-21.1301
 L 31.4999,-21.5316 L 31.4805,-21.9287 L 31.4576,-22.3215 L 31.4312,-22.7101 L 31.4013,-23.0944 L 31.3678,-23.4745
 L 31.3308,-23.8503 L 31.2903,-24.2218 L 31.2463,-24.589 L 31.1987,-24.952 L 31.1477,-25.3107 L 31.0931,-25.6651
 L 31.0349,-26.0153 L 30.9733,-26.3611 L 30.9081,-26.7027 L 30.8395,-27.0401 L 30.7673,-27.3732 L 30.6915,-27.702
 L 30.6123,-28.0265 L 30.5295,-28.3468 L 30.4432,-28.6628 L 30.3534,-28.9745 L 30.2601,-29.282 L 30.1632,-29.5851
 L 30.0628,-29.884 L 29.9589,-30.1787 L 29.8515,-30.4691 L 29.7405,-30.7552 L 29.626,-31.037 L 29.5081,-31.3146
 L 29.3865,-31.5879 L 29.2615,-31.8569 L 29.1329,-32.1216 L 29.0009,-32.3821 L 28.8652,-32.6383 L 28.7261,-32.8903
 L 28.5835,-33.1379 L 28.4373,-33.3813 L 28.2876,-33.6205 L 28.1344,-33.8553 L 27.9776,-34.0859 L 27.8174,-34.3123
 L 27.6538,-34.534 L 27.4871,-34.7509 L 27.3173,-34.9629 L 27.1443,-35.17 L 26.9682,-35.3723 L 26.789,-35.5697
 L 26.6067,-35.7622 L 26.4212,-35.9498 L 26.2326,-36.1326 L 26.0409,-36.3104 L 25.846,-36.4834 L 25.6481,-36.6516
 L 25.447,-36.8148 L 25.2427,-36.9733 L 25.0354,-37.1268 L 24.8249,-37.2754 L 24.6113,-37.4192 L 24.3945,-37.5581
 L 24.1746,-37.6921 L 23.9516,-37.8213 L 23.7255,-37.9455 L 23.4963,-38.0649 L 23.2639,-38.1795 L 23.0284,-38.2891
 L 22.7897,-38.3939 L 22.548,-38.4938 L 22.3031,-38.5889 L 22.0551,-38.679 L 21.8039,-38.7643 L 21.5496,-38.8447
 L 21.2922,-38.9203 L 21.0317,-38.9909 L 20.768,-39.0567 L 20.5012,-39.1176 L 20.2313,-39.1737 L 19.9583,-39.2249
 L 19.6821,-39.2711 L 19.4028,-39.3126 L 19.1204,-39.3491 L 18.8348,-39.3808 L 18.5462,-39.4076 L 18.2543,-39.4296
 L 17.9594,-39.4466 L 17.6613,-39.4588 L 17.3602,-39.4661 L 17.0558,-39.4685 L 16.7515,-39.4661 L 16.4502,-39.4589
 L 16.1521,-39.4468 L 15.857,-39.4298 L 15.565,-39.4081 L 15.2761,-39.3815 L 14.9903,-39.3501 L 14.7076,-39.3138
 L 14.428,-39.2727 L 14.1514,-39.2267 L 13.878,-39.176 L 13.6076,-39.1204 L 13.3403,-39.0599 L 13.0761,-38.9946
 L 12.815,-38.9245 L 12.557,-38.8495 L 12.302,-38.7698 L 12.0502,-38.6851 L 11.8015,-38.5957 L 11.5558,-38.5014
 L 11.3132,-38.4022 L 11.0737,-38.2983 L 10.8373,-38.1895 L 10.604,-38.0758 L 10.3738,-37.9573 L 10.1467,-37.834
 L 9.92261,-37.7059 L 9.70164,-37.5729 L 9.48376,-37.4351 L 9.269,-37.2924 L 9.0573,-37.1449 L 8.84869,-36.9926
 L 8.64317,-36.8354 L 8.44075,-36.6734 L 8.24139,-36.5066 L 8.04514,-36.3349 L 7.85197,-36.1584 L 7.6619,-35.9771
 L 7.4749,-35.7909 L 7.291,-35.5999 L 7.11018,-35.404 L 6.93246,-35.2033 L 6.75781,-34.9978 L 6.58627,-34.7875
 L 6.4178,-34.5723 L 6.25244,-34.3522 L 6.09038,-34.1276 L 5.9319,-33.8987 L 5.77698,-33.6654 L 5.62561,-33.4278
 L 5.4778,-33.1858 L 5.33356,-32.9395 L 5.19289,-32.6889 L 5.05577,-32.434 L 4.92221,-32.1747 L 4.79221,-31.9111
 L 4.66577,-31.6431 L 4.54289,-31.3708 L 4.4236,-31.0942 L 4.30785,-30.8133 L 4.19565,-30.528 L 4.08702,-30.2384
 L 3.98196,-29.9444 L 3.88046,-29.6461 L 3.78252,-29.3435 L 3.68813,-29.0366 L 3.59732,-28.7253 L 3.51007,-28.4097
 L 3.42636,-28.0897 L 3.34622,-27.7654 L 3.26965,-27.4368 L 3.19666,-27.1039 L 3.1272,-26.7666 L 3.06131,-26.4249
 L 2.99898,-26.079 L 2.94022,-25.7287 L 2.88501,-25.3741 L 2.83337,-25.0151 L 2.78528,-24.6519 L 2.74077,-24.2842
 L 2.69981,-23.9123 L 2.66241,-23.536 L 2.62859,-23.1554 L 2.5983,-22.7704 L 2.57159,-22.3811 L 2.54845,-21.9875
 L 2.52887,-21.5896 L 2.51283,-21.1873 L 2.50037,-20.7806 L 2.49146,-20.3697 L 2.48611,-19.9544 L 2.48434,-19.5348
 L 2.48611,-19.1151 L 2.49146,-18.6998 L 2.50032,-18.2887 L 2.51276,-17.8818 L 2.52873,-17.4793 L 2.54826,-17.081
 L 2.57135,-16.687 L 2.59799,-16.2972 L 2.62817,-15.9118 L 2.66193,-15.5305 L 2.69922,-15.1536 L 2.74007,-14.7809
 L 2.78445,-14.4126 L 2.8324,-14.0484 L 2.8839,-13.6886 L 2.93895,-13.333 L 2.99754,-12.9817 L 3.05971,-12.6346
 L 3.12541,-12.2919 L 3.19467,-11.9534 L 3.26747,-11.6191 L 3.34383,-11.2892 L 3.42375,-10.9635 L 3.50722,-10.642
 L 3.59422,-10.3249 L 3.6848,-10.012 L 3.77892,-9.7034 L 3.87659,-9.39905 L 3.9778,-9.09898 L 4.08258,-8.80318
 L 4.1909,-8.51164 L 4.30278,-8.22437 L 4.41821,-7.94138 L 4.53719,-7.66266 L 4.65971,-7.38821 L 4.7858,-7.11803
 L 4.91544,-6.85211 L 5.04863,-6.59047 L 5.18535,-6.3331 L 5.32564,-6.08 L 5.4695,-5.83118 L 5.61688,-5.58661
 L 5.76782,-5.34631 L 5.92232,-5.11029 L 6.08037,-4.87856 L 6.24197,-4.65108 L 6.40689,-4.42819 L 6.57487,-4.21021
 L 6.74594,-3.99713 L 6.92009,-3.78894 L 7.09732,-3.58566 L 7.27762,-3.38727 L 7.46101,-3.19379 L 7.64746,-3.00519
 L 7.83701,-2.8215 L 8.02962,-2.6427 L 8.22531,-2.46881 L 8.4241,-2.29982 L 8.62595,-2.13573 L 8.83089,-1.97653
 L 9.03889,-1.82222 L 9.24998,-1.67281 L 9.46414,-1.52831 L 9.6814,-1.38872 L 9.90172,-1.254 L 10.1251,-1.12419
 L 10.3516,-0.999283 L 10.5811,-0.879272 L 10.8138,-0.76416 L 11.0495,-0.653946 L 11.2883,-0.54863 L 11.5302,-0.448212
 L 11.7751,-0.352692 L 12.0231,-0.26207 L 12.2742,-0.176346 L 12.5284,-0.09552 L 12.7857,-0.0195923 L 13.046,0.0513916
 L 13.3094,0.117523 L 13.5759,0.178757 L 13.8455,0.235092 L 14.1181,0.28653 L 14.3939,0.333054 L 14.6727,0.374695
 L 14.9546,0.411438 L 15.2395,0.443283 L 15.5276,0.470215 L 15.8187,0.492264 L 16.1129,0.509399 L 16.4102,0.521652
 L 16.7105,0.528992 L 17.014,0.531448 z
M 16.847,-6.38026 L 16.6818,-6.38495 L 16.5184,-6.39273 L 16.3568,-6.40364 L 16.1971,-6.41765 L 16.0392,-6.43478
 L 15.8831,-6.45503 L 15.7288,-6.47839 L 15.5763,-6.50487 L 15.4256,-6.53445 L 15.2767,-6.56717 L 15.1297,-6.603
 L 14.9845,-6.64194 L 14.8411,-6.68399 L 14.6995,-6.72917 L 14.5597,-6.77745 L 14.4217,-6.82884 L 14.2856,-6.88336
 L 14.1513,-6.94098 L 14.0187,-7.00172 L 13.888,-7.0656 L 13.7592,-7.13257 L 13.6321,-7.20265 L 13.5068,-7.27586
 L 13.3834,-7.35219 L 13.2617,-7.43161 L 13.1419,-7.51416 L 13.0239,-7.59984 L 12.9077,-7.68861 L 12.7934,-7.7805
 L 12.6808,-7.87552 L 12.5701,-7.97363 L 12.4612,-8.07489 L 12.3541,-8.17924 L 12.2488,-8.28671 L 12.1453,-8.39729
 L 12.0436,-8.511 L 11.9438,-8.62781 L 11.8458,-8.74774 L 11.7496,-8.87079 L 11.6552,-8.99695 L 11.5626,-9.12624
 L 11.4718,-9.25862 L 11.3828,-9.39413 L 11.2957,-9.53276 L 11.2104,-9.6745 L 11.1269,-9.81931 L 11.0452,-9.96716
 L 10.9654,-10.118 L 10.8874,-10.272 L 10.8113,-10.429 L 10.737,-10.589 L 10.6645,-10.752 L 10.5938,-10.9181
 L 10.525,-11.0872 L 10.4581,-11.2594 L 10.3929,-11.4346 L 10.3296,-11.6129 L 10.2682,-11.7942 L 10.2085,-11.9785
 L 10.1507,-12.1658 L 10.0948,-12.3563 L 10.0406,-12.5497 L 9.98833,-12.7462 L 9.93787,-12.9457 L 9.88925,-13.1483
 L 9.84247,-13.3539 L 9.79752,-13.5625 L 9.75439,-13.7742 L 9.7131,-13.989 L 9.67366,-14.2067 L 9.63603,-14.4275
 L 9.60025,-14.6514 L 9.56631,-14.8782 L 9.53419,-15.1082 L 9.50392,-15.3411 L 9.47549,-15.5771 L 9.44888,-15.8161
 L 9.42412,-16.0582 L 9.40118,-16.3033 L 9.38008,-16.5515 L 9.36081,-16.8027 L 9.34338,-17.0569 L 9.32779,-17.3142
 L 9.31403,-17.5745 L 9.30209,-17.8379 L 9.29199,-18.1043 L 9.28374,-18.3737 L 9.27731,-18.6462 L 9.27272,-18.9217
 L 9.26997,-19.2003 L 9.26906,-19.4819 L 9.26999,-19.7635 L 9.27278,-20.042 L 9.27742,-20.3176 L 9.28389,-20.5901
 L 9.29225,-20.8596 L 9.30244,-21.1261 L 9.3145,-21.3895 L 9.32841,-21.6499 L 9.34418,-21.9073 L 9.36179,-22.1616
 L 9.38127,-22.4129 L 9.4026,-22.6612 L 9.42578,-22.9065 L 9.45082,-23.1488 L 9.47771,-23.388 L 9.50645,-23.6242
 L 9.53706,-23.8573 L 9.56952,-24.0875 L 9.60382,-24.3146 L 9.64,-24.5387 L 9.67802,-24.7597 L 9.7179,-24.9777
 L 9.75963,-25.1927 L 9.80321,-25.4047 L 9.84865,-25.6136 L 9.89594,-25.8196 L 9.9451,-26.0224 L 9.99609,-26.2223
 L 10.049,-26.4191 L 10.1037,-26.613 L 10.1602,-26.8037 L 10.2186,-26.9915 L 10.2789,-27.1762 L 10.3411,-27.3579
 L 10.405,-27.5366 L 10.4709,-27.7122 L 10.5386,-27.8848 L 10.6081,-28.0544 L 10.6795,-28.221 L 10.7528,-28.3845
 L 10.8279,-28.545 L 10.9049,-28.7025 L 10.9837,-28.857 L 11.0644,-29.0084 L 11.1469,-29.1568 L 11.2313,-29.3022
 L 11.3175,-29.4445 L 11.4055,-29.5836 L 11.4954,-29.7197 L 11.587,-29.8526 L 11.6804,-29.9824 L 11.7756,-30.1091
 L 11.8726,-30.2327 L 11.9714,-30.3531 L 12.072,-30.4704 L 12.1743,-30.5845 L 12.2785,-30.6955 L 12.3845,-30.8035
 L 12.4923,-30.9082 L 12.6018,-31.0099 L 12.7132,-31.1084 L 12.8264,-31.2038 L 12.9413,-31.2961 L 13.058,-31.3852
 L 13.1766,-31.4712 L 13.2969,-31.5541 L 13.4191,-31.6339 L 13.543,-31.7105 L 13.6687,-31.784 L 13.7962,-31.8544
 L 13.9255,-31.9216 L 14.0566,-31.9857 L 14.1895,-32.0467 L 14.3242,-32.1046 L 14.4607,-32.1593 L 14.599,-32.2109
 L 14.7391,-32.2594 L 14.881,-32.3047 L 15.0247,-32.347 L 15.1702,-32.3861 L 15.3174,-32.422 L 15.4665,-32.4549
 L 15.6173,-32.4846 L 15.77,-32.5112 L 15.9244,-32.5346 L 16.0807,-32.555 L 16.2387,-32.5722 L 16.3985,-32.5862
 L 16.5602,-32.5972 L 16.7236,-32.605 L 16.8888,-32.6097 L 17.0558,-32.6113 L 17.3871,-32.6051 L 17.7111,-32.5864
 L 18.0278,-32.5554 L 18.3373,-32.512 L 18.6395,-32.4561 L 18.9344,-32.3879 L 19.222,-32.3072 L 19.5023,-32.2141
 L 19.7753,-32.1087 L 20.0411,-31.9908 L 20.2995,-31.8605 L 20.5507,-31.7178 L 20.7946,-31.5627 L 21.0313,-31.3951
 L 21.2607,-31.2152 L 21.4827,-31.0228 L 21.6975,-30.8181 L 21.905,-30.6009 L 22.1052,-30.3713 L 22.2982,-30.1293
 L 22.4839,-29.8749 L 22.6622,-29.6081 L 22.8333,-29.3289 L 22.9972,-29.0373 L 23.1537,-28.7332 L 23.303,-28.4168
 L 23.4449,-28.0879 L 23.5797,-27.7467 L 23.7071,-27.393 L 23.8272,-27.0269 L 23.9401,-26.6484 L 24.0457,-26.2575
 L 24.1439,-25.8542 L 24.235,-25.4385 L 24.3187,-25.0103 L 24.3951,-24.5698 L 24.4643,-24.1169 L 24.5262,-23.6515
 L 24.5808,-23.1737 L 24.6281,-22.6835 L 24.6682,-22.181 L 24.7009,-21.666 L 24.7264,-21.1385 L 24.7446,-20.5987
 L 24.7555,-20.0465 L 24.7592,-19.4819 L 24.7555,-18.9184 L 24.7445,-18.3672 L 24.7262,-17.8285 L 24.7006,-17.3021
 L 24.6677,-16.7881 L 24.6274,-16.2866 L 24.5798,-15.7974 L 24.5249,-15.3206 L 24.4627,-14.8561 L 24.3932,-14.4041
 L 24.3163,-13.9644 L 24.2321,-13.5371 L 24.1406,-13.1223 L 24.0418,-12.7197 L 23.9356,-12.3296 L 23.8221,-11.9519
 L 23.7014,-11.5865 L 23.5732,-11.2336 L 23.4378,-10.893 L 23.2951,-10.5648 L 23.145,-10.249 L 22.9876,-9.94554
 L 22.8229,-9.6545 L 22.6508,-9.37584 L 22.4715,-9.10956 L 22.2848,-8.85568 L 22.0908,-8.61418 L 21.8895,-8.38506
 L 21.6809,-8.16832 L 21.4649,-7.96396 L 21.2416,-7.772 L 21.011,-7.59244 L 20.7731,-7.42523 L 20.5279,-7.27042
 L 20.2753,-7.12799 L 20.0154,-6.99796 L 19.7482,-6.88029 L 19.4737,-6.77502 L 19.1918,-6.68214 L 18.9027,-6.60164
 L 18.6062,-6.53352 L 18.3024,-6.4778 L 17.9913,-6.43443 L 17.6728,-6.40349 L 17.3471,-6.3849 L 17.014,-6.37872
 z
M 43.4411,-15.3622 L 53.7957,-15.3622 L 53.7957,-22.0863 L 43.4411,-22.0863 L 43.4411,-32.1065 L 54.5681,-32.1065
 L 54.5681,-38.8571 L 37.0742,-38.8571 L 37.0742,-0 L 43.4411,-0 z
M 66.3574,-15.3622 L 76.7119,-15.3622 L 76.7119,-22.0863 L 66.3574,-22.0863 L 66.3574,-32.1065 L 77.4843,-32.1065
 L 77.4843,-38.8571 L 59.9904,-38.8571 L 59.9904,-0 L 66.3574,-0 z
" stroke="white" fill="white" stroke-width="0.5"/>
</svg>
