<?xml version="1.0" standalone="no"?>
<!DOCTYPE svg PUBLIC "-//W3C//DTD SVG 1.1//EN" "http://www.w3.org/Graphics/SVG/1.1/DTD/svg11.dtd">
<svg width="100mm" height="100mm" viewBox="-8 -108 116 116" xmlns="http://www.w3.org/2000/svg" version="1.1">
<title>OpenSCAD Model</title>
<path d="
M 84.1993,-0.00497437 L 84.3984,-0.0149078 L 84.5973,-0.0298004 L 84.7955,-0.0546417 L 84.9926,-0.0843658 L 85.1891,-0.119003
 L 85.3832,-0.163315 L 85.5764,-0.212509 L 85.7684,-0.266525 L 85.9575,-0.330063 L 86.1449,-0.398254 L 86.3306,-0.471115
 L 86.5125,-0.553223 L 86.6922,-0.63974 L 86.8696,-0.730728 L 87.0423,-0.830399 L 87.2124,-0.934357 L 87.3799,-1.04256
 L 87.5419,-1.15901 L 87.7008,-1.2794 L 87.8568,-1.40376 L 88.0063,-1.53571 L 88.1524,-1.67133 L 88.2952,-1.81058
 L 88.4308,-1.95677 L 88.5628,-2.10626 L 88.691,-2.25905 L 88.8113,-2.41792 L 88.9277,-2.5798 L 89.0401,-2.74458
 L 89.1443,-2.9151 L 89.244,-3.08778 L 89.3393,-3.26295 L 89.4258,-3.44243 L 89.5078,-3.62416 L 89.5852,-3.80795
 L 89.6534,-3.99522 L 89.7169,-4.18422 L 89.7757,-4.3748 L 89.825,-4.56818 L 89.8693,-4.76257 L 89.9088,-4.95807
 L 89.9386,-5.15555 L 89.9634,-5.35338 L 89.9832,-5.55183 L 89.9916,-5.70078 L 89.9972,-5.85023 L 90,-6
 L 90,-94 L 89.995,-94.1993 L 89.9851,-94.3984 L 89.9702,-94.5973 L 89.9454,-94.7955 L 89.9156,-94.9926
 L 89.881,-95.1891 L 89.8367,-95.3832 L 89.7875,-95.5764 L 89.7335,-95.7684 L 89.6699,-95.9575 L 89.6017,-96.1449
 L 89.5289,-96.3306 L 89.4468,-96.5125 L 89.3603,-96.6922 L 89.2693,-96.8696 L 89.1696,-97.0423 L 89.0656,-97.2124
 L 88.9574,-97.3799 L 88.841,-97.5419 L 88.7206,-97.7008 L 88.5962,-97.8568 L 88.4643,-98.0063 L 88.3287,-98.1524
 L 88.1894,-98.2952 L 88.0432,-98.4308 L 87.8937,-98.5628 L 87.741,-98.691 L 87.5821,-98.8113 L 87.4202,-98.9277
 L 87.2554,-99.0401 L 87.0849,-99.1443 L 86.9122,-99.244 L 86.737,-99.3393 L 86.5576,-99.4258 L 86.3758,-99.5078
 L 86.192,-99.5852 L 86.0048,-99.6534 L 85.8158,-99.7169 L 85.6252,-99.7757 L 85.4318,-99.825 L 85.2374,-99.8693
 L 85.0419,-99.9088 L 84.8445,-99.9386 L 84.6466,-99.9634 L 84.4482,-99.9832 L 84.2992,-99.9916 L 84.1498,-99.9972
 L 84,-100 L 36,-100 L 10,-74 L 10,-50 L 14,-50 L 14,-70
 L 34,-70 L 34.1993,-70.005 L 34.3984,-70.0149 L 34.5973,-70.0298 L 34.7955,-70.0546 L 34.9926,-70.0844
 L 35.1891,-70.119 L 35.3832,-70.1633 L 35.5764,-70.2125 L 35.7684,-70.2665 L 35.9575,-70.3301 L 36.1449,-70.3983
 L 36.3306,-70.4711 L 36.5125,-70.5532 L 36.6922,-70.6397 L 36.8696,-70.7307 L 37.0423,-70.8304 L 37.2124,-70.9344
 L 37.3799,-71.0426 L 37.5419,-71.159 L 37.7008,-71.2794 L 37.8568,-71.4038 L 38.0063,-71.5357 L 38.1524,-71.6713
 L 38.2952,-71.8106 L 38.4308,-71.9568 L 38.5628,-72.1063 L 38.691,-72.259 L 38.8113,-72.4179 L 38.9277,-72.5798
 L 39.0401,-72.7446 L 39.1443,-72.9151 L 39.244,-73.0878 L 39.3393,-73.263 L 39.4258,-73.4424 L 39.5078,-73.6242
 L 39.5852,-73.808 L 39.6534,-73.9952 L 39.7169,-74.1842 L 39.7757,-74.3748 L 39.825,-74.5682 L 39.8693,-74.7626
 L 39.9088,-74.9581 L 39.9386,-75.1555 L 39.9634,-75.3534 L 39.9832,-75.5518 L 39.9916,-75.7008 L 39.9972,-75.8502
 L 40,-76 L 40,-96 L 84,-96 L 84.1495,-95.9944 L 84.3473,-95.9696 L 84.5417,-95.9252
 L 84.7307,-95.8617 L 84.9124,-95.7797 L 85.0851,-95.6801 L 85.247,-95.5637 L 85.3965,-95.4317 L 85.5321,-95.2856
 L 85.6525,-95.1266 L 85.7564,-94.9565 L 85.843,-94.7769 L 85.9111,-94.5895 L 85.9603,-94.3963 L 85.9901,-94.1991
 L 86,-94 L 86,-6 L 85.9944,-5.85054 L 85.9696,-5.65271 L 85.9252,-5.45831 L 85.8617,-5.26932
 L 85.7797,-5.08759 L 85.6801,-4.9149 L 85.5637,-4.75302 L 85.4317,-4.60353 L 85.2856,-4.46791 L 85.1266,-4.34752
 L 84.9565,-4.24356 L 84.7769,-4.15704 L 84.5895,-4.08885 L 84.3963,-4.03966 L 84.1991,-4.00993 L 84,-4
 L 80,-4 L 80,-0 L 84,-0 z
M 7.69633,-9.48235 L 17.0192,-9.48235 L 18.8733,-0 L 24.7153,-0 L 15.6547,-40 L 9.0255,-40
 L 0,-0 L 5.84201,-0 z
M 9.06056,-16.5667 L 9.17819,-17.1601 L 9.29378,-17.7438 L 9.40733,-18.3178 L 9.51886,-18.8821 L 9.62834,-19.4366
 L 9.73579,-19.9815 L 9.84122,-20.5167 L 9.9446,-21.0421 L 10.046,-21.5578 L 10.1453,-22.0639 L 10.2426,-22.5602
 L 10.3378,-23.0468 L 10.431,-23.5237 L 10.5222,-23.9909 L 10.6114,-24.4484 L 10.6985,-24.8961 L 10.7836,-25.3342
 L 10.8666,-25.7626 L 10.9476,-26.1812 L 11.0266,-26.5901 L 11.1036,-26.9894 L 11.1785,-27.3789 L 11.2514,-27.7587
 L 11.3222,-28.1288 L 11.391,-28.4892 L 11.4578,-28.8398 L 11.5225,-29.1808 L 11.5853,-29.5121 L 11.6459,-29.8336
 L 11.7046,-30.1455 L 11.7612,-30.4476 L 11.8158,-30.74 L 11.8683,-31.0227 L 11.9188,-31.2957 L 11.9673,-31.5591
 L 12.0137,-31.8126 L 12.0582,-32.0565 L 12.1005,-32.2907 L 12.1409,-32.5151 L 12.1792,-32.7299 L 12.2154,-32.9349
 L 12.2497,-33.1303 L 12.2819,-33.3159 L 12.3121,-33.4918 L 12.3402,-33.658 L 12.3663,-33.8145 L 12.3725,-33.7715
 L 12.3788,-33.7279 L 12.3853,-33.6835 L 12.392,-33.6385 L 12.3989,-33.5929 L 12.406,-33.5466 L 12.4132,-33.4996
 L 12.4206,-33.4519 L 12.4281,-33.4036 L 12.4359,-33.3546 L 12.4438,-33.3049 L 12.4519,-33.2545 L 12.4601,-33.2035
 L 12.4685,-33.1518 L 12.4771,-33.0995 L 12.4859,-33.0464 L 12.4949,-32.9927 L 12.504,-32.9384 L 12.5133,-32.8833
 L 12.5228,-32.8276 L 12.5422,-32.7142 L 12.5624,-32.5981 L 12.5832,-32.4793 L 12.6048,-32.3578 L 12.6158,-32.2961
 L 12.627,-32.2337 L 12.6384,-32.1706 L 12.6499,-32.1069 L 12.6616,-32.0424 L 12.6735,-31.9774 L 12.6978,-31.8452
 L 12.7228,-31.7103 L 12.7356,-31.6419 L 12.7617,-31.503 L 12.7884,-31.3614 L 12.8158,-31.2172 L 12.8298,-31.144
 L 12.8449,-31.0653 L 12.8622,-30.976 L 12.8816,-30.8761 L 12.9031,-30.7656 L 12.9267,-30.6445 L 12.9525,-30.5128
 L 13.0104,-30.2178 L 13.0768,-29.8804 L 13.1516,-29.5006 L 13.235,-29.0785 L 13.3269,-28.6141 L 13.4806,-27.838
 L 13.5938,-27.2677 L 13.7154,-26.6551 L 13.8455,-26.0001 L 13.9841,-25.3028 L 14.1312,-24.5632 L 14.3678,-23.3743
 L 14.6235,-22.0902 L 14.8046,-21.1812 L 14.9942,-20.2298 L 15.2945,-18.7234 L 15.7246,-16.5667 z
M 32.2012,-18.5287 L 32.2011,-18.6704 L 32.2006,-18.818 L 32.1998,-18.9716 L 32.1987,-19.1312 L 32.1973,-19.2968
 L 32.1956,-19.4684 L 32.1935,-19.646 L 32.1912,-19.8296 L 32.1885,-20.0193 L 32.1855,-20.2149 L 32.1822,-20.4165
 L 32.1786,-20.6241 L 32.1747,-20.8377 L 32.1704,-21.0573 L 32.1659,-21.2829 L 32.161,-21.5146 L 32.1558,-21.7522
 L 32.1503,-21.9958 L 32.1445,-22.2454 L 32.1384,-22.501 L 32.1319,-22.7626 L 32.1252,-23.0303 L 32.1181,-23.3039
 L 32.1107,-23.5835 L 32.103,-23.8691 L 32.095,-24.1608 L 32.0867,-24.4584 L 32.078,-24.762 L 32.0691,-25.0716
 L 32.0598,-25.3873 L 32.0502,-25.7089 L 32.0403,-26.0365 L 32.0301,-26.3701 L 32.0196,-26.7098 L 32.0087,-27.0554
 L 31.9976,-27.407 L 31.9861,-27.7646 L 31.9743,-28.1283 L 31.9622,-28.4979 L 31.9498,-28.8736 L 31.9371,-29.2552
 L 31.924,-29.6428 L 31.9107,-30.0364 L 31.897,-30.4361 L 31.883,-30.8417 L 31.8687,-31.2533 L 32.0261,-31.2533
 L 38.183,-0 L 43.1507,-0 L 49.7451,-31.1987 L 49.9025,-31.1987 L 49.8845,-30.5557 L 49.8673,-29.9345
 L 49.8508,-29.3351 L 49.8273,-28.4771 L 49.8125,-27.9323 L 49.7984,-27.4094 L 49.785,-26.9084 L 49.7786,-26.666
 L 49.7663,-26.1977 L 49.7603,-25.9717 L 49.749,-25.5362 L 49.7384,-25.1225 L 49.7285,-24.7306 L 49.7192,-24.3606
 L 49.7107,-24.0124 L 49.7067,-23.8465 L 49.6992,-23.5311 L 49.6924,-23.2375 L 49.6863,-22.9657 L 49.6835,-22.838
 L 49.6784,-22.599 L 49.6762,-22.4877 L 49.6741,-22.3819 L 49.6721,-22.2815 L 49.6704,-22.1865 L 49.6688,-22.0971
 L 49.6674,-22.0131 L 49.6662,-21.9345 L 49.664,-21.7836 L 49.6618,-21.6343 L 49.6598,-21.4865 L 49.6579,-21.3403
 L 49.6561,-21.1956 L 49.6544,-21.0525 L 49.6527,-20.9109 L 49.6512,-20.7708 L 49.6498,-20.6323 L 49.6485,-20.4953
 L 49.6472,-20.3599 L 49.6461,-20.2261 L 49.6451,-20.0937 L 49.6441,-19.963 L 49.6433,-19.8337 L 49.6425,-19.706
 L 49.6419,-19.5799 L 49.6414,-19.4553 L 49.6407,-19.2713 L 49.6406,-19.2107 L 49.6403,-19.0907 L 49.6402,-18.9723
 L 49.6401,-18.8554 L 49.6401,-0 L 54.6949,-0 L 54.6949,-39.8365 L 47.3138,-39.8365 L 40.8942,-9.37346
 L 40.7895,-9.37346 L 34.7373,-39.8365 L 27.3561,-39.8365 L 27.3561,-0 L 32.2012,-0 z
M 65.6771,-15.7494 L 74.3528,-15.7494 L 74.3528,-22.6429 L 65.6771,-22.6429 L 65.6771,-32.9156 L 75,-32.9156
 L 75,-39.8365 L 60.3424,-39.8365 L 60.3424,-0 L 65.6771,-0 z
" stroke="white" fill="white" stroke-width="0.5"/>
</svg>
