<?xml version="1.0" standalone="no"?>
<!DOCTYPE svg PUBLIC "-//W3C//DTD SVG 1.1//EN" "http://www.w3.org/Graphics/SVG/1.1/DTD/svg11.dtd">
<svg width="100mm" height="100mm" viewBox="-8 -108 116 116" xmlns="http://www.w3.org/2000/svg" version="1.1">
<title>OpenSCAD Model</title>
<path d="
M 84.1993,-0.00497437 L 84.3984,-0.0149078 L 84.5973,-0.0298004 L 84.7955,-0.0546417 L 84.9926,-0.0843658 L 85.1891,-0.119003
 L 85.3832,-0.163315 L 85.5764,-0.212509 L 85.7684,-0.266525 L 85.9575,-0.330063 L 86.1449,-0.398254 L 86.3306,-0.471115
 L 86.5125,-0.553223 L 86.6922,-0.63974 L 86.8696,-0.730728 L 87.0423,-0.830399 L 87.2124,-0.934357 L 87.3799,-1.04256
 L 87.5419,-1.15901 L 87.7008,-1.2794 L 87.8568,-1.40376 L 88.0063,-1.53571 L 88.1524,-1.67133 L 88.2952,-1.81058
 L 88.4308,-1.95677 L 88.5628,-2.10626 L 88.691,-2.25905 L 88.8113,-2.41792 L 88.9277,-2.5798 L 89.0401,-2.74458
 L 89.1443,-2.9151 L 89.244,-3.08778 L 89.3393,-3.26295 L 89.4258,-3.44243 L 89.5078,-3.62416 L 89.5852,-3.80795
 L 89.6534,-3.99522 L 89.7169,-4.18422 L 89.7757,-4.3748 L 89.825,-4.56818 L 89.8693,-4.76257 L 89.9088,-4.95807
 L 89.9386,-5.15555 L 89.9634,-5.35338 L 89.9832,-5.55183 L 89.9916,-5.70078 L 89.9972,-5.85023 L 90,-6
 L 90,-94 L 89.995,-94.1993 L 89.9851,-94.3984 L 89.9702,-94.5973 L 89.9454,-94.7955 L 89.9156,-94.9926
 L 89.881,-95.1891 L 89.8367,-95.3832 L 89.7875,-95.5764 L 89.7335,-95.7684 L 89.6699,-95.9575 L 89.6017,-96.1449
 L 89.5289,-96.3306 L 89.4468,-96.5125 L 89.3603,-96.6922 L 89.2693,-96.8696 L 89.1696,-97.0423 L 89.0656,-97.2124
 L 88.9574,-97.3799 L 88.841,-97.5419 L 88.7206,-97.7008 L 88.5962,-97.8568 L 88.4643,-98.0063 L 88.3287,-98.1524
 L 88.1894,-98.2952 L 88.0432,-98.4308 L 87.8937,-98.5628 L 87.741,-98.691 L 87.5821,-98.8113 L 87.4202,-98.9277
 L 87.2554,-99.0401 L 87.0849,-99.1443 L 86.9122,-99.244 L 86.737,-99.3393 L 86.5576,-99.4258 L 86.3758,-99.5078
 L 86.192,-99.5852 L 86.0048,-99.6534 L 85.8158,-99.7169 L 85.6252,-99.7757 L 85.4318,-99.825 L 85.2374,-99.8693
 L 85.0419,-99.9088 L 84.8445,-99.9386 L 84.6466,-99.9634 L 84.4482,-99.9832 L 84.2992,-99.9916 L 84.1498,-99.9972
 L 84,-100 L 36,-100 L 10,-74 L 10,-50 L 14,-50 L 14,-70
 L 34,-70 L 34.1993,-70.005 L 34.3984,-70.0149 L 34.5973,-70.0298 L 34.7955,-70.0546 L 34.9926,-70.0844
 L 35.1891,-70.119 L 35.3832,-70.1633 L 35.5764,-70.2125 L 35.7684,-70.2665 L 35.9575,-70.3301 L 36.1449,-70.3983
 L 36.3306,-70.4711 L 36.5125,-70.5532 L 36.6922,-70.6397 L 36.8696,-70.7307 L 37.0423,-70.8304 L 37.2124,-70.9344
 L 37.3799,-71.0426 L 37.5419,-71.159 L 37.7008,-71.2794 L 37.8568,-71.4038 L 38.0063,-71.5357 L 38.1524,-71.6713
 L 38.2952,-71.8106 L 38.4308,-71.9568 L 38.5628,-72.1063 L 38.691,-72.259 L 38.8113,-72.4179 L 38.9277,-72.5798
 L 39.0401,-72.7446 L 39.1443,-72.9151 L 39.244,-73.0878 L 39.3393,-73.263 L 39.4258,-73.4424 L 39.5078,-73.6242
 L 39.5852,-73.808 L 39.6534,-73.9952 L 39.7169,-74.1842 L 39.7757,-74.3748 L 39.825,-74.5682 L 39.8693,-74.7626
 L 39.9088,-74.9581 L 39.9386,-75.1555 L 39.9634,-75.3534 L 39.9832,-75.5518 L 39.9916,-75.7008 L 39.9972,-75.8502
 L 40,-76 L 40,-96 L 84,-96 L 84.1495,-95.9944 L 84.3473,-95.9696 L 84.5417,-95.9252
 L 84.7307,-95.8617 L 84.9124,-95.7797 L 85.0851,-95.6801 L 85.247,-95.5637 L 85.3965,-95.4317 L 85.5321,-95.2856
 L 85.6525,-95.1266 L 85.7564,-94.9565 L 85.843,-94.7769 L 85.9111,-94.5895 L 85.9603,-94.3963 L 85.9901,-94.1991
 L 86,-94 L 86,-6 L 85.9944,-5.85054 L 85.9696,-5.65271 L 85.9252,-5.45831 L 85.8617,-5.26932
 L 85.7797,-5.08759 L 85.6801,-4.9149 L 85.5637,-4.75302 L 85.4317,-4.60353 L 85.2856,-4.46791 L 85.1266,-4.34752
 L 84.9565,-4.24356 L 84.7769,-4.15704 L 84.5895,-4.08885 L 84.3963,-4.03966 L 84.1991,-4.00993 L 84,-4
 L 80,-4 L 80,-0 L 84,-0 z
M 39.3456,0.528992 L 39.617,0.521652 L 39.8857,0.509399 L 40.1516,0.492264 L 40.4146,0.470215 L 40.675,0.443283
 L 40.9325,0.411438 L 41.1872,0.374695 L 41.4392,0.333054 L 41.6884,0.28653 L 41.9348,0.235092 L 42.1784,0.178757
 L 42.4193,0.117523 L 42.6573,0.0513916 L 42.8926,-0.0195923 L 43.1251,-0.09552 L 43.3548,-0.176346 L 43.5817,-0.26207
 L 43.8059,-0.352692 L 44.0273,-0.448212 L 44.2458,-0.54863 L 44.4616,-0.653946 L 44.6747,-0.76416 L 44.8849,-0.879272
 L 45.0924,-0.999283 L 45.297,-1.12419 L 45.4989,-1.254 L 45.698,-1.38872 L 45.8944,-1.52831 L 46.0879,-1.67281
 L 46.2787,-1.82222 L 46.4667,-1.97653 L 46.6519,-2.13573 L 46.8343,-2.29982 L 47.0139,-2.46881 L 47.1908,-2.6427
 L 47.3649,-2.8215 L 47.5362,-3.00519 L 47.7047,-3.19379 L 47.8704,-3.38727 L 48.0334,-3.58566 L 48.1935,-3.78894
 L 48.3509,-3.99713 L 48.5055,-4.21021 L 48.6573,-4.42819 L 48.8064,-4.65108 L 48.9524,-4.87852 L 49.0953,-5.1102
 L 49.2349,-5.34608 L 49.3713,-5.5862 L 49.5045,-5.83055 L 49.6345,-6.0791 L 49.7613,-6.33188 L 49.8849,-6.58887
 L 50.0053,-6.8501 L 50.1225,-7.11552 L 50.2364,-7.38518 L 50.3472,-7.65906 L 50.4547,-7.93716 L 50.559,-8.21948
 L 50.6601,-8.506 L 50.758,-8.79677 L 50.8527,-9.09174 L 50.9442,-9.39095 L 51.0325,-9.69437 L 51.1176,-10.002
 L 51.1994,-10.3139 L 51.278,-10.6299 L 51.3535,-10.9502 L 51.4257,-11.2747 L 51.4947,-11.6035 L 51.5605,-11.9364
 L 51.6231,-12.2736 L 51.6825,-12.615 L 51.7387,-12.9606 L 51.7916,-13.3105 L 51.8414,-13.6646 L 51.888,-14.0228
 L 51.9313,-14.3853 L 51.9714,-14.752 L 52.0083,-15.123 L 52.042,-15.4981 L 52.0725,-15.8775 L 52.0998,-16.2611
 L 52.1239,-16.6489 L 52.1447,-17.041 L 52.1624,-17.4373 L 52.1768,-17.8377 L 52.1881,-18.2424 L 52.1961,-18.6514
 L 52.2009,-19.0645 L 52.2025,-19.4819 L 52.2009,-19.9003 L 52.1962,-20.3145 L 52.1882,-20.7245 L 52.1771,-21.1301
 L 52.1627,-21.5316 L 52.1452,-21.9287 L 52.1245,-22.3215 L 52.1007,-22.7101 L 52.0736,-23.0944 L 52.0434,-23.4745
 L 52.0099,-23.8503 L 51.9733,-24.2218 L 51.9335,-24.589 L 51.8906,-24.952 L 51.8444,-25.3107 L 51.7951,-25.6651
 L 51.7426,-26.0153 L 51.6869,-26.3611 L 51.628,-26.7027 L 51.5659,-27.0401 L 51.5006,-27.3732 L 51.4322,-27.702
 L 51.3606,-28.0265 L 51.2858,-28.3468 L 51.2078,-28.6628 L 51.1266,-28.9745 L 51.0423,-29.282 L 50.9547,-29.5851
 L 50.864,-29.884 L 50.7701,-30.1787 L 50.673,-30.4691 L 50.5728,-30.7552 L 50.4693,-31.037 L 50.3627,-31.3146
 L 50.2528,-31.5879 L 50.1398,-31.8569 L 50.0237,-32.1216 L 49.9043,-32.3821 L 49.7817,-32.6383 L 49.656,-32.8903
 L 49.5271,-33.1379 L 49.395,-33.3813 L 49.2597,-33.6205 L 49.1212,-33.8553 L 48.9796,-34.0859 L 48.8347,-34.3123
 L 48.6869,-34.534 L 48.5363,-34.7509 L 48.3828,-34.9629 L 48.2265,-35.17 L 48.0673,-35.3723 L 47.9054,-35.5697
 L 47.7406,-35.7622 L 47.573,-35.9498 L 47.4025,-36.1326 L 47.2293,-36.3104 L 47.0532,-36.4834 L 46.8743,-36.6516
 L 46.6925,-36.8148 L 46.5079,-36.9733 L 46.3205,-37.1268 L 46.1303,-37.2754 L 45.9373,-37.4192 L 45.7414,-37.5581
 L 45.5427,-37.6921 L 45.3412,-37.8213 L 45.1368,-37.9455 L 44.9296,-38.0649 L 44.7196,-38.1795 L 44.5067,-38.2891
 L 44.2911,-38.3939 L 44.0726,-38.4938 L 43.8513,-38.5889 L 43.6271,-38.679 L 43.4002,-38.7643 L 43.1704,-38.8447
 L 42.9377,-38.9203 L 42.7023,-38.9909 L 42.464,-39.0567 L 42.2229,-39.1176 L 41.979,-39.1737 L 41.7322,-39.2249
 L 41.4826,-39.2711 L 41.2302,-39.3126 L 40.975,-39.3491 L 40.7169,-39.3808 L 40.456,-39.4076 L 40.1923,-39.4296
 L 39.9258,-39.4466 L 39.6564,-39.4588 L 39.3842,-39.4661 L 39.1092,-39.4685 L 38.8341,-39.4661 L 38.5619,-39.4589
 L 38.2924,-39.4468 L 38.0258,-39.4298 L 37.7619,-39.4081 L 37.5008,-39.3815 L 37.2425,-39.3501 L 36.987,-39.3138
 L 36.7343,-39.2727 L 36.4844,-39.2267 L 36.2372,-39.176 L 35.9929,-39.1204 L 35.7513,-39.0599 L 35.5126,-38.9946
 L 35.2766,-38.9245 L 35.0434,-38.8495 L 34.813,-38.7698 L 34.5854,-38.6851 L 34.3606,-38.5957 L 34.1386,-38.5014
 L 33.9194,-38.4022 L 33.703,-38.2983 L 33.4893,-38.1895 L 33.2785,-38.0758 L 33.0704,-37.9573 L 32.8651,-37.834
 L 32.6626,-37.7059 L 32.463,-37.5729 L 32.2661,-37.4351 L 32.072,-37.2924 L 31.8806,-37.1449 L 31.6921,-36.9926
 L 31.5064,-36.8354 L 31.3234,-36.6734 L 31.1433,-36.5066 L 30.9659,-36.3349 L 30.7914,-36.1584 L 30.6196,-35.9771
 L 30.4506,-35.7909 L 30.2844,-35.5999 L 30.121,-35.404 L 29.9604,-35.2033 L 29.8025,-34.9978 L 29.6475,-34.7875
 L 29.4952,-34.5723 L 29.3458,-34.3522 L 29.1993,-34.1276 L 29.0561,-33.8987 L 28.9161,-33.6654 L 28.7793,-33.4278
 L 28.6457,-33.1858 L 28.5154,-32.9395 L 28.3882,-32.6889 L 28.2643,-32.434 L 28.1436,-32.1747 L 28.0261,-31.9111
 L 27.9119,-31.6431 L 27.8008,-31.3708 L 27.693,-31.0942 L 27.5884,-30.8133 L 27.487,-30.528 L 27.3888,-30.2384
 L 27.2939,-29.9444 L 27.2022,-29.6461 L 27.1136,-29.3435 L 27.0284,-29.0366 L 26.9463,-28.7253 L 26.8674,-28.4097
 L 26.7918,-28.0897 L 26.7194,-27.7654 L 26.6502,-27.4368 L 26.5842,-27.1039 L 26.5214,-26.7666 L 26.4619,-26.4249
 L 26.4055,-26.079 L 26.3524,-25.7287 L 26.3025,-25.3741 L 26.2559,-25.0151 L 26.2124,-24.6519 L 26.1722,-24.2842
 L 26.1352,-23.9123 L 26.1014,-23.536 L 26.0708,-23.1554 L 26.0434,-22.7704 L 26.0193,-22.3811 L 25.9984,-21.9875
 L 25.9807,-21.5896 L 25.9662,-21.1873 L 25.9549,-20.7806 L 25.9469,-20.3697 L 25.942,-19.9544 L 25.9404,-19.5348
 L 25.942,-19.1151 L 25.9469,-18.6998 L 25.9549,-18.2887 L 25.9661,-17.8818 L 25.9806,-17.4793 L 25.9982,-17.081
 L 26.0191,-16.687 L 26.0432,-16.2972 L 26.0704,-15.9118 L 26.1009,-15.5305 L 26.1346,-15.1536 L 26.1715,-14.7809
 L 26.2117,-14.4126 L 26.255,-14.0484 L 26.3015,-13.6886 L 26.3513,-13.333 L 26.4043,-12.9817 L 26.4604,-12.6346
 L 26.5198,-12.2919 L 26.5824,-11.9534 L 26.6482,-11.6191 L 26.7172,-11.2892 L 26.7894,-10.9635 L 26.8648,-10.642
 L 26.9435,-10.3249 L 27.0253,-10.012 L 27.1104,-9.7034 L 27.1987,-9.39905 L 27.2901,-9.09898 L 27.3848,-8.80318
 L 27.4827,-8.51164 L 27.5838,-8.22437 L 27.6881,-7.94138 L 27.7957,-7.66266 L 27.9064,-7.38821 L 28.0203,-7.11803
 L 28.1375,-6.85211 L 28.2579,-6.59047 L 28.3814,-6.3331 L 28.5082,-6.08 L 28.6382,-5.83118 L 28.7714,-5.58661
 L 28.9078,-5.34631 L 29.0475,-5.11029 L 29.1903,-4.87856 L 29.3363,-4.65108 L 29.4854,-4.42819 L 29.6372,-4.21021
 L 29.7918,-3.99713 L 29.9492,-3.78894 L 30.1093,-3.58566 L 30.2723,-3.38727 L 30.438,-3.19379 L 30.6065,-3.00519
 L 30.7778,-2.8215 L 30.9519,-2.6427 L 31.1288,-2.46881 L 31.3084,-2.29982 L 31.4908,-2.13573 L 31.676,-1.97653
 L 31.864,-1.82222 L 32.0548,-1.67281 L 32.2483,-1.52831 L 32.4446,-1.38872 L 32.6438,-1.254 L 32.8457,-1.12419
 L 33.0503,-0.999283 L 33.2578,-0.879272 L 33.468,-0.76416 L 33.6811,-0.653946 L 33.8969,-0.54863 L 34.1154,-0.448212
 L 34.3368,-0.352692 L 34.561,-0.26207 L 34.7879,-0.176346 L 35.0176,-0.09552 L 35.2501,-0.0195923 L 35.4854,0.0513916
 L 35.7234,0.117523 L 35.9643,0.178757 L 36.2079,0.235092 L 36.4543,0.28653 L 36.7035,0.333054 L 36.9555,0.374695
 L 37.2102,0.411438 L 37.4677,0.443283 L 37.728,0.470215 L 37.9911,0.492264 L 38.257,0.509399 L 38.5257,0.521652
 L 38.7971,0.528992 L 39.0714,0.531448 z
M 38.9204,-6.38026 L 38.7711,-6.38495 L 38.6235,-6.39273 L 38.4775,-6.40364 L 38.3331,-6.41765 L 38.1904,-6.43478
 L 38.0493,-6.45503 L 37.9099,-6.47839 L 37.772,-6.50487 L 37.6359,-6.53445 L 37.5014,-6.56717 L 37.3685,-6.603
 L 37.2372,-6.64194 L 37.1076,-6.68399 L 36.9797,-6.72917 L 36.8533,-6.77745 L 36.7287,-6.82884 L 36.6056,-6.88336
 L 36.4842,-6.94098 L 36.3645,-7.00172 L 36.2463,-7.0656 L 36.1299,-7.13257 L 36.015,-7.20265 L 35.9018,-7.27586
 L 35.7903,-7.35219 L 35.6803,-7.43161 L 35.5721,-7.51416 L 35.4654,-7.59984 L 35.3604,-7.68861 L 35.2571,-7.7805
 L 35.1553,-7.87552 L 35.0553,-7.97363 L 34.9568,-8.07489 L 34.86,-8.17924 L 34.7649,-8.28671 L 34.6714,-8.39729
 L 34.5795,-8.511 L 34.4893,-8.62781 L 34.4007,-8.74774 L 34.3137,-8.87079 L 34.2284,-8.99695 L 34.1447,-9.12624
 L 34.0627,-9.25862 L 33.9823,-9.39413 L 33.9035,-9.53276 L 33.8264,-9.6745 L 33.751,-9.81931 L 33.6772,-9.96716
 L 33.6051,-10.118 L 33.5346,-10.272 L 33.4658,-10.429 L 33.3986,-10.589 L 33.3331,-10.752 L 33.2693,-10.9181
 L 33.2071,-11.0872 L 33.1466,-11.2594 L 33.0877,-11.4346 L 33.0305,-11.6129 L 32.9749,-11.7942 L 32.921,-11.9785
 L 32.8688,-12.1658 L 32.8182,-12.3563 L 32.7693,-12.5497 L 32.722,-12.7462 L 32.6764,-12.9457 L 32.6325,-13.1483
 L 32.5902,-13.3539 L 32.5496,-13.5625 L 32.5106,-13.7742 L 32.4733,-13.989 L 32.4377,-14.2067 L 32.4037,-14.4275
 L 32.3713,-14.6514 L 32.3407,-14.8782 L 32.3116,-15.1082 L 32.2843,-15.3411 L 32.2586,-15.5771 L 32.2345,-15.8161
 L 32.2121,-16.0582 L 32.1914,-16.3033 L 32.1723,-16.5515 L 32.1549,-16.8027 L 32.1392,-17.0569 L 32.1251,-17.3142
 L 32.1126,-17.5745 L 32.1019,-17.8379 L 32.0927,-18.1043 L 32.0853,-18.3737 L 32.0795,-18.6462 L 32.0753,-18.9217
 L 32.0728,-19.2003 L 32.072,-19.4819 L 32.0729,-19.7635 L 32.0754,-20.042 L 32.0796,-20.3176 L 32.0854,-20.5901
 L 32.093,-20.8596 L 32.1022,-21.1261 L 32.1131,-21.3895 L 32.1257,-21.6499 L 32.1399,-21.9073 L 32.1558,-22.1616
 L 32.1734,-22.4129 L 32.1927,-22.6612 L 32.2137,-22.9065 L 32.2363,-23.1488 L 32.2606,-23.388 L 32.2866,-23.6242
 L 32.3142,-23.8573 L 32.3436,-24.0875 L 32.3746,-24.3146 L 32.4072,-24.5387 L 32.4416,-24.7597 L 32.4776,-24.9777
 L 32.5154,-25.1927 L 32.5547,-25.4047 L 32.5958,-25.6136 L 32.6385,-25.8196 L 32.683,-26.0224 L 32.729,-26.2223
 L 32.7768,-26.4191 L 32.8263,-26.613 L 32.8774,-26.8037 L 32.9302,-26.9915 L 32.9847,-27.1762 L 33.0408,-27.3579
 L 33.0986,-27.5366 L 33.1582,-27.7122 L 33.2193,-27.8848 L 33.2822,-28.0544 L 33.3467,-28.221 L 33.4129,-28.3845
 L 33.4808,-28.545 L 33.5504,-28.7025 L 33.6216,-28.857 L 33.6945,-29.0084 L 33.7691,-29.1568 L 33.8454,-29.3022
 L 33.9233,-29.4445 L 34.0028,-29.5836 L 34.084,-29.7197 L 34.1668,-29.8526 L 34.2512,-29.9824 L 34.3372,-30.1091
 L 34.4249,-30.2327 L 34.5142,-30.3531 L 34.6051,-30.4704 L 34.6976,-30.5845 L 34.7918,-30.6955 L 34.8875,-30.8035
 L 34.9849,-30.9082 L 35.084,-31.0099 L 35.1846,-31.1084 L 35.2869,-31.2038 L 35.3907,-31.2961 L 35.4962,-31.3852
 L 35.6034,-31.4712 L 35.7121,-31.5541 L 35.8225,-31.6339 L 35.9345,-31.7105 L 36.0481,-31.784 L 36.1634,-31.8544
 L 36.2802,-31.9216 L 36.3987,-31.9857 L 36.5188,-32.0467 L 36.6406,-32.1046 L 36.7639,-32.1593 L 36.8889,-32.2109
 L 37.0155,-32.2594 L 37.1437,-32.3047 L 37.2736,-32.347 L 37.405,-32.3861 L 37.5381,-32.422 L 37.6728,-32.4549
 L 37.8092,-32.4846 L 37.9471,-32.5112 L 38.0867,-32.5346 L 38.2279,-32.555 L 38.3707,-32.5722 L 38.5152,-32.5862
 L 38.6612,-32.5972 L 38.8089,-32.605 L 38.9583,-32.6097 L 39.1092,-32.6113 L 39.4086,-32.6051 L 39.7014,-32.5864
 L 39.9876,-32.5554 L 40.2673,-32.512 L 40.5404,-32.4561 L 40.8069,-32.3879 L 41.0668,-32.3072 L 41.3201,-32.2141
 L 41.5669,-32.1087 L 41.807,-31.9908 L 42.0406,-31.8605 L 42.2676,-31.7178 L 42.4881,-31.5627 L 42.7019,-31.3951
 L 42.9092,-31.2152 L 43.1099,-31.0228 L 43.304,-30.8181 L 43.4915,-30.6009 L 43.6725,-30.3713 L 43.8469,-30.1293
 L 44.0147,-29.8749 L 44.1759,-29.6081 L 44.3305,-29.3289 L 44.4786,-29.0373 L 44.62,-28.7332 L 44.7549,-28.4168
 L 44.8832,-28.0879 L 45.005,-27.7467 L 45.1201,-27.393 L 45.2287,-27.0269 L 45.3307,-26.6484 L 45.4261,-26.2575
 L 45.5149,-25.8542 L 45.5972,-25.4385 L 45.6729,-25.0103 L 45.7419,-24.5698 L 45.8045,-24.1169 L 45.8604,-23.6515
 L 45.9097,-23.1737 L 45.9525,-22.6835 L 45.9887,-22.181 L 46.0183,-21.666 L 46.0414,-21.1385 L 46.0578,-20.5987
 L 46.0677,-20.0465 L 46.071,-19.4819 L 46.0676,-18.9184 L 46.0577,-18.3672 L 46.0412,-17.8285 L 46.018,-17.3021
 L 45.9883,-16.7881 L 45.9519,-16.2866 L 45.9089,-15.7974 L 45.8593,-15.3206 L 45.803,-14.8561 L 45.7402,-14.4041
 L 45.6707,-13.9644 L 45.5946,-13.5371 L 45.5119,-13.1223 L 45.4226,-12.7197 L 45.3267,-12.3296 L 45.2241,-11.9519
 L 45.115,-11.5865 L 44.9992,-11.2336 L 44.8768,-10.893 L 44.7478,-10.5648 L 44.6122,-10.249 L 44.4699,-9.94554
 L 44.3211,-9.6545 L 44.1656,-9.37584 L 44.0035,-9.10956 L 43.8348,-8.85568 L 43.6595,-8.61418 L 43.4775,-8.38506
 L 43.289,-8.16832 L 43.0938,-7.96396 L 42.892,-7.772 L 42.6836,-7.59244 L 42.4686,-7.42523 L 42.247,-7.27042
 L 42.0187,-7.12799 L 41.7839,-6.99796 L 41.5424,-6.88029 L 41.2943,-6.77502 L 41.0396,-6.68214 L 40.7782,-6.60164
 L 40.5103,-6.53352 L 40.2357,-6.4778 L 39.9546,-6.43443 L 39.6668,-6.40349 L 39.3724,-6.3849 L 39.0714,-6.37872
 z
M 9.3199,-13.8208 L 11.8291,-13.8208 L 12.0511,-13.8223 L 12.2709,-13.827 L 12.4885,-13.8349 L 12.7038,-13.8459
 L 12.9169,-13.86 L 13.1279,-13.8773 L 13.3365,-13.8977 L 13.543,-13.9212 L 13.7473,-13.9479 L 13.9493,-13.9778
 L 14.1491,-14.0107 L 14.3467,-14.0468 L 14.542,-14.0861 L 14.7352,-14.1285 L 14.9261,-14.174 L 15.1148,-14.2227
 L 15.3013,-14.2745 L 15.4855,-14.3294 L 15.6676,-14.3875 L 15.8474,-14.4487 L 16.025,-14.5131 L 16.2004,-14.5806
 L 16.3736,-14.6513 L 16.5445,-14.7251 L 16.7132,-14.802 L 16.8797,-14.882 L 17.044,-14.9653 L 17.2061,-15.0516
 L 17.3659,-15.1411 L 17.5235,-15.2337 L 17.6789,-15.3295 L 17.8321,-15.4284 L 17.9831,-15.5305 L 18.1318,-15.6356
 L 18.2783,-15.744 L 18.4226,-15.8554 L 18.5647,-15.97 L 18.7046,-16.0878 L 18.8422,-16.2087 L 18.9776,-16.3327
 L 19.1108,-16.4599 L 19.2418,-16.5902 L 19.3705,-16.7236 L 19.4971,-16.8602 L 19.6214,-16.9999 L 19.7435,-17.1428
 L 19.8632,-17.2886 L 19.9802,-17.4373 L 20.0947,-17.5887 L 20.2065,-17.7429 L 20.3156,-17.8999 L 20.4221,-18.0597
 L 20.526,-18.2223 L 20.6273,-18.3876 L 20.726,-18.5558 L 20.822,-18.7267 L 20.9153,-18.9005 L 21.0061,-19.077
 L 21.0942,-19.2563 L 21.1797,-19.4384 L 21.2626,-19.6232 L 21.3428,-19.8109 L 21.4204,-20.0014 L 21.4954,-20.1946
 L 21.5677,-20.3906 L 21.6374,-20.5894 L 21.7045,-20.7911 L 21.7689,-20.9955 L 21.8307,-21.2026 L 21.8899,-21.4126
 L 21.9465,-21.6254 L 22.0004,-21.8409 L 22.0517,-22.0592 L 22.1004,-22.2804 L 22.1464,-22.5043 L 22.1898,-22.731
 L 22.2306,-22.9605 L 22.2687,-23.1927 L 22.3042,-23.4278 L 22.3371,-23.6657 L 22.3673,-23.9063 L 22.395,-24.1497
 L 22.42,-24.396 L 22.4423,-24.645 L 22.462,-24.8967 L 22.4791,-25.1513 L 22.4936,-25.4087 L 22.5054,-25.6688
 L 22.5146,-25.9318 L 22.5212,-26.1975 L 22.5252,-26.466 L 22.5265,-26.7374 L 22.5253,-26.9983 L 22.5215,-27.2563
 L 22.5154,-27.5116 L 22.5067,-27.764 L 22.4956,-28.0136 L 22.482,-28.2604 L 22.466,-28.5044 L 22.4474,-28.7455
 L 22.4265,-28.9838 L 22.403,-29.2192 L 22.3771,-29.4519 L 22.3487,-29.6817 L 22.3178,-29.9087 L 22.2845,-30.1329
 L 22.2486,-30.3542 L 22.2104,-30.5727 L 22.1696,-30.7884 L 22.1264,-31.0013 L 22.0807,-31.2113 L 22.0325,-31.4185
 L 21.9819,-31.6229 L 21.9288,-31.8244 L 21.8732,-32.0232 L 21.8152,-32.2191 L 21.7547,-32.4121 L 21.6917,-32.6024
 L 21.6263,-32.7898 L 21.5583,-32.9744 L 21.4879,-33.1562 L 21.4151,-33.3351 L 21.3398,-33.5112 L 21.262,-33.6845
 L 21.1817,-33.855 L 21.099,-34.0226 L 21.0138,-34.1874 L 20.9261,-34.3494 L 20.8359,-34.5086 L 20.7433,-34.6649
 L 20.6482,-34.8184 L 20.5507,-34.9691 L 20.4507,-35.1169 L 20.3482,-35.2619 L 20.2432,-35.4041 L 20.1358,-35.5435
 L 20.0259,-35.68 L 19.9135,-35.8138 L 19.7988,-35.9446 L 19.6817,-36.0726 L 19.5624,-36.1978 L 19.4409,-36.32
 L 19.317,-36.4394 L 19.1909,-36.5559 L 19.0625,-36.6695 L 18.9319,-36.7803 L 18.7989,-36.8881 L 18.6637,-36.9931
 L 18.5262,-37.0952 L 18.3865,-37.1945 L 18.2445,-37.2908 L 18.1002,-37.3843 L 17.9536,-37.4749 L 17.8047,-37.5627
 L 17.6536,-37.6475 L 17.5002,-37.7295 L 17.3446,-37.8086 L 17.1866,-37.8849 L 17.0264,-37.9582 L 16.8639,-38.0287
 L 16.6991,-38.0963 L 16.5321,-38.161 L 16.3628,-38.2228 L 16.1912,-38.2818 L 16.0173,-38.3379 L 15.8412,-38.3911
 L 15.6628,-38.4415 L 15.4821,-38.4889 L 15.2992,-38.5335 L 15.1139,-38.5752 L 14.9264,-38.6141 L 14.7367,-38.65
 L 14.5446,-38.6831 L 14.3503,-38.7133 L 14.1537,-38.7406 L 13.9548,-38.7651 L 13.7537,-38.7867 L 13.5503,-38.8053
 L 13.3446,-38.8212 L 13.1366,-38.8341 L 12.9264,-38.8442 L 12.7139,-38.8514 L 12.4991,-38.8557 L 12.2821,-38.8571
 L 3.47156,-38.8571 L 3.47156,-0 L 9.3199,-0 z
M 9.3199,-20.5714 L 9.3199,-32.1065 L 11.9802,-32.1065 L 12.0838,-32.1058 L 12.1861,-32.1038 L 12.2873,-32.1006
 L 12.3873,-32.096 L 12.486,-32.0901 L 12.5836,-32.0829 L 12.6799,-32.0744 L 12.7751,-32.0646 L 12.869,-32.0535
 L 12.9617,-32.0411 L 13.0533,-32.0274 L 13.1436,-32.0124 L 13.2327,-31.996 L 13.3207,-31.9784 L 13.4074,-31.9595
 L 13.4929,-31.9392 L 13.5772,-31.9176 L 13.6603,-31.8948 L 13.7422,-31.8706 L 13.8229,-31.8451 L 13.9025,-31.8183
 L 13.9807,-31.7903 L 14.0578,-31.7609 L 14.1337,-31.7302 L 14.2084,-31.6981 L 14.2819,-31.6648 L 14.3542,-31.6302
 L 14.4252,-31.5943 L 14.4951,-31.557 L 14.5638,-31.5185 L 14.6312,-31.4786 L 14.6975,-31.4375 L 14.7626,-31.395
 L 14.8264,-31.3513 L 14.8891,-31.3062 L 14.9505,-31.2598 L 15.0108,-31.2121 L 15.0698,-31.1631 L 15.1276,-31.1128
 L 15.1842,-31.0612 L 15.2397,-31.0083 L 15.2939,-30.9541 L 15.3469,-30.8985 L 15.3988,-30.8417 L 15.4494,-30.7836
 L 15.4988,-30.7241 L 15.5471,-30.6633 L 15.5943,-30.6011 L 15.6404,-30.5374 L 15.6855,-30.4723 L 15.7296,-30.4058
 L 15.7725,-30.3378 L 15.8144,-30.2684 L 15.8553,-30.1976 L 15.8951,-30.1253 L 15.9338,-30.0516 L 15.9715,-29.9765
 L 16.0081,-29.8999 L 16.0436,-29.822 L 16.0781,-29.7426 L 16.1115,-29.6617 L 16.1439,-29.5794 L 16.1752,-29.4957
 L 16.2054,-29.4106 L 16.2346,-29.324 L 16.2627,-29.236 L 16.2898,-29.1465 L 16.3158,-29.0556 L 16.3407,-28.9633
 L 16.3646,-28.8696 L 16.3874,-28.7744 L 16.4092,-28.6778 L 16.4299,-28.5798 L 16.4495,-28.4803 L 16.468,-28.3794
 L 16.4855,-28.2771 L 16.502,-28.1733 L 16.5174,-28.0681 L 16.5317,-27.9615 L 16.545,-27.8534 L 16.5572,-27.7439
 L 16.5683,-27.633 L 16.5784,-27.5206 L 16.5874,-27.4068 L 16.5954,-27.2916 L 16.6023,-27.175 L 16.6081,-27.0569
 L 16.6129,-26.9374 L 16.6166,-26.8164 L 16.6192,-26.694 L 16.6208,-26.5702 L 16.6214,-26.445 L 16.6207,-26.3208
 L 16.6189,-26.198 L 16.6157,-26.0764 L 16.6113,-25.9561 L 16.6055,-25.8372 L 16.5986,-25.7195 L 16.5903,-25.6031
 L 16.5809,-25.488 L 16.5701,-25.3742 L 16.5581,-25.2617 L 16.5448,-25.1505 L 16.5302,-25.0406 L 16.5144,-24.932
 L 16.4973,-24.8246 L 16.4789,-24.7186 L 16.4593,-24.6139 L 16.4384,-24.5104 L 16.4162,-24.4083 L 16.3928,-24.3074
 L 16.3681,-24.2078 L 16.3422,-24.1096 L 16.315,-24.0126 L 16.2865,-23.9169 L 16.2567,-23.8225 L 16.2257,-23.7294
 L 16.1934,-23.6376 L 16.1599,-23.5471 L 16.125,-23.4578 L 16.089,-23.3699 L 16.0516,-23.2833 L 16.013,-23.1979
 L 15.9731,-23.1139 L 15.9319,-23.0311 L 15.8895,-22.9496 L 15.8458,-22.8695 L 15.8009,-22.7906 L 15.7547,-22.713
 L 15.7072,-22.6367 L 15.6585,-22.5617 L 15.6084,-22.488 L 15.5572,-22.4156 L 15.5046,-22.3445 L 15.4508,-22.2747
 L 15.3957,-22.2061 L 15.3394,-22.1389 L 15.2818,-22.0729 L 15.2229,-22.0084 L 15.1627,-21.9452 L 15.1013,-21.8835
 L 15.0385,-21.8232 L 14.9745,-21.7643 L 14.9092,-21.7068 L 14.8426,-21.6507 L 14.7747,-21.5961 L 14.7056,-21.5429
 L 14.6351,-21.4911 L 14.5634,-21.4407 L 14.4904,-21.3917 L 14.4161,-21.3442 L 14.3405,-21.2981 L 14.2637,-21.2534
 L 14.1855,-21.2101 L 14.1061,-21.1682 L 14.0254,-21.1277 L 13.9434,-21.0887 L 13.8601,-21.0511 L 13.7756,-21.0149
 L 13.6897,-20.9802 L 13.6026,-20.9468 L 13.5142,-20.9149 L 13.4245,-20.8844 L 13.3335,-20.8553 L 13.2413,-20.8276
 L 13.1477,-20.8013 L 13.0529,-20.7765 L 12.9568,-20.7531 L 12.8594,-20.7311 L 12.7607,-20.7105 L 12.6607,-20.6914
 L 12.5595,-20.6736 L 12.4569,-20.6573 L 12.3531,-20.6424 L 12.248,-20.6289 L 12.1416,-20.6169 L 12.034,-20.6062
 L 11.925,-20.597 L 11.8148,-20.5892 L 11.7032,-20.5828 L 11.5904,-20.5778 L 11.4763,-20.5743 L 11.361,-20.5721
 L 11.2443,-20.5714 z
M 78.4716,-38.8571 L 72.5665,-38.8571 L 67.3405,-15.7342 L 67.2884,-15.4701 L 67.2374,-15.2095 L 67.1872,-14.9524
 L 67.138,-14.6988 L 67.0898,-14.4486 L 67.0425,-14.2019 L 66.9961,-13.9586 L 66.9507,-13.7189 L 66.9062,-13.4825
 L 66.8627,-13.2497 L 66.8202,-13.0203 L 66.7785,-12.7944 L 66.7379,-12.5719 L 66.6981,-12.353 L 66.6593,-12.1375
 L 66.6215,-11.9254 L 66.5846,-11.7168 L 66.5486,-11.5117 L 66.5136,-11.3101 L 66.4795,-11.1119 L 66.4464,-10.9172
 L 66.4142,-10.7259 L 66.383,-10.5381 L 66.3527,-10.3538 L 66.3233,-10.1729 L 66.295,-9.99556 L 66.2675,-9.82166
 L 66.241,-9.6512 L 66.2154,-9.48422 L 66.1908,-9.32071 L 66.1671,-9.16066 L 66.1444,-9.00407 L 66.1226,-8.85095
 L 66.1018,-8.70131 L 66.0819,-8.55511 L 66.063,-8.41241 L 66.045,-8.27315 L 66.0279,-8.13737 L 66.0118,-8.00505
 L 65.9966,-7.87621 L 65.9824,-7.75082 L 65.9691,-7.62891 L 65.9568,-7.51045 L 65.9454,-7.39548 L 65.935,-7.28397
 L 65.9255,-7.1759 L 65.9204,-7.22293 L 65.9149,-7.2715 L 65.9092,-7.32167 L 65.9031,-7.37338 L 65.8967,-7.42668
 L 65.89,-7.48155 L 65.8829,-7.53798 L 65.8755,-7.59599 L 65.8678,-7.65555 L 65.8597,-7.71671 L 65.8513,-7.7794
 L 65.8426,-7.8437 L 65.8336,-7.90955 L 65.8242,-7.97696 L 65.8145,-8.04596 L 65.8045,-8.11652 L 65.7941,-8.18863
 L 65.7834,-8.26234 L 65.7724,-8.33762 L 65.761,-8.41444 L 65.7493,-8.49286 L 65.7373,-8.57283 L 65.7249,-8.65437
 L 65.7122,-8.73749 L 65.6992,-8.82219 L 65.6859,-8.90845 L 65.6722,-8.99626 L 65.6582,-9.08566 L 65.6439,-9.17662
 L 65.6293,-9.26915 L 65.6143,-9.36325 L 65.599,-9.45894 L 65.5833,-9.55618 L 65.5673,-9.655 L 65.551,-9.75537
 L 65.5344,-9.85733 L 65.5174,-9.96085 L 65.5001,-10.0659 L 65.4825,-10.1726 L 65.4645,-10.2808 L 65.4462,-10.3906
 L 65.4276,-10.502 L 65.4087,-10.6149 L 65.3894,-10.7294 L 65.3698,-10.8455 L 65.3298,-11.0813 L 65.3097,-11.1988
 L 65.2897,-11.3156 L 65.2697,-11.4318 L 65.2497,-11.5474 L 65.2298,-11.6623 L 65.2098,-11.7766 L 65.19,-11.8903
 L 65.1701,-12.0033 L 65.1503,-12.1156 L 65.1304,-12.2274 L 65.1107,-12.3385 L 65.0909,-12.4489 L 65.0712,-12.5587
 L 65.0515,-12.6678 L 65.0318,-12.7764 L 65.0121,-12.8842 L 64.9925,-12.9915 L 64.9729,-13.0981 L 64.9534,-13.2041
 L 64.9338,-13.3094 L 64.9143,-13.414 L 64.8948,-13.5181 L 64.8754,-13.6215 L 64.8559,-13.7242 L 64.8365,-13.8264
 L 64.8171,-13.9278 L 64.7978,-14.0287 L 64.7784,-14.1289 L 64.7591,-14.2284 L 64.7399,-14.3273 L 64.7206,-14.4256
 L 64.7014,-14.5232 L 64.6822,-14.6202 L 64.663,-14.7166 L 64.6439,-14.8123 L 64.6248,-14.9074 L 64.6057,-15.0018
 L 64.5866,-15.0956 L 64.5676,-15.1887 L 64.5486,-15.2812 L 64.5296,-15.3731 L 64.5107,-15.4643 L 64.4918,-15.5549
 L 64.4729,-15.6449 L 64.454,-15.7342 L 59.2656,-38.8571 L 53.3604,-38.8571 L 62.7182,-0 L 69.0952,-0
 z
" stroke="white" fill="white" stroke-width="0.5"/>
</svg>
