<?xml version="1.0" standalone="no"?>
<!DOCTYPE svg PUBLIC "-//W3C//DTD SVG 1.1//EN" "http://www.w3.org/Graphics/SVG/1.1/DTD/svg11.dtd">
<svg width="100mm" height="100mm" viewBox="-8 -108 116 116" xmlns="http://www.w3.org/2000/svg" version="1.1">
<title>OpenSCAD Model</title>
<path d="
M 53.5636,-85.919 L 53.7614,-85.9438 L 53.9558,-85.9881 L 54.1448,-86.0516 L 54.3265,-86.1336 L 54.4992,-86.2333
 L 54.6611,-86.3497 L 54.8106,-86.4817 L 54.9462,-86.6278 L 55.0666,-86.7867 L 55.1462,-86.9135 L 55.2462,-87.0867
 L 55.3371,-87.2641 L 55.41,-87.4497 L 55.464,-87.6416 L 55.4986,-87.838 L 55.5135,-88.0368 L 55.5085,-88.2361
 L 55.4837,-88.434 L 55.4393,-88.6283 L 55.3758,-88.8173 L 55.2938,-88.9991 L 55.1941,-89.1717 L 55.0777,-89.3336
 L 54.9458,-89.4831 L 54.7996,-89.6187 L 54.6407,-89.7391 L 54.5141,-89.8186 L 51.3371,-91.6529 L 51.2441,-91.7309
 L 51.0794,-91.8432 L 50.9043,-91.9386 L 50.7205,-92.016 L 50.53,-92.0748 L 50.3346,-92.1143 L 50.1362,-92.1341
 L 50.0381,-92.1341 L 50.013,-92.136 L 49.9382,-92.1341 L 49.9368,-92.1341 L 49.9363,-92.134 L 49.8136,-92.131
 L 49.6158,-92.1061 L 49.4214,-92.0618 L 49.2324,-91.9982 L 49.0507,-91.9162 L 48.8781,-91.8165 L 48.7162,-91.7001
 L 48.6625,-91.6527 L 45.4859,-89.8186 L 45.3184,-89.7105 L 45.1625,-89.5862 L 45.0198,-89.4469 L 44.8916,-89.2942
 L 44.7793,-89.1295 L 44.684,-88.9544 L 44.6065,-88.7706 L 44.5478,-88.5801 L 44.5083,-88.3847 L 44.4884,-88.1863
 L 44.4884,-87.9869 L 44.5083,-87.7885 L 44.5478,-87.5931 L 44.6065,-87.4025 L 44.684,-87.2188 L 44.7538,-87.0867
 L 44.8538,-86.9135 L 44.962,-86.746 L 45.0863,-86.5901 L 45.2255,-86.4473 L 45.3783,-86.3192 L 45.543,-86.2068
 L 45.7181,-86.1115 L 45.9018,-86.034 L 46.0923,-85.9753 L 46.2878,-85.9357 L 46.4861,-85.9159 L 46.6855,-85.9159
 L 46.8839,-85.9357 L 47.0794,-85.9752 L 47.2699,-86.034 L 47.4536,-86.1114 L 47.5859,-86.1814 L 50,-87.5751
 L 52.4141,-86.1814 L 52.5915,-86.0904 L 52.7771,-86.0175 L 52.969,-85.9635 L 53.1654,-85.9289 L 53.3642,-85.914
 z
M 63.9559,-79.919 L 64.1537,-79.9438 L 64.3481,-79.9881 L 64.5371,-80.0516 L 64.7188,-80.1337 L 64.8915,-80.2333
 L 65.0534,-80.3497 L 65.2029,-80.4817 L 65.3385,-80.6278 L 65.4589,-80.7867 L 65.5385,-80.9135 L 65.6385,-81.0867
 L 65.7294,-81.2641 L 65.8023,-81.4497 L 65.8563,-81.6416 L 65.8909,-81.838 L 65.9058,-82.0368 L 65.9008,-82.2361
 L 65.876,-82.434 L 65.8316,-82.6283 L 65.7681,-82.8173 L 65.6861,-82.9991 L 65.5864,-83.1717 L 65.47,-83.3336
 L 65.3381,-83.4831 L 65.1919,-83.6187 L 65.033,-83.7391 L 64.9064,-83.8186 L 61.4423,-85.8186 L 61.2649,-85.9096
 L 61.0793,-85.9825 L 60.8873,-86.0365 L 60.691,-86.0711 L 60.4922,-86.086 L 60.2928,-86.081 L 60.095,-86.0562
 L 59.9006,-86.0118 L 59.7116,-85.9483 L 59.5299,-85.8663 L 59.3572,-85.7666 L 59.1953,-85.6503 L 59.0458,-85.5183
 L 58.9102,-85.3722 L 58.7898,-85.2132 L 58.7102,-85.0865 L 58.6102,-84.9133 L 58.5193,-84.7359 L 58.4464,-84.5503
 L 58.3924,-84.3584 L 58.3578,-84.162 L 58.3429,-83.9632 L 58.3479,-83.7639 L 58.3727,-83.566 L 58.4171,-83.3716
 L 58.4806,-83.1826 L 58.5626,-83.0009 L 58.6623,-82.8282 L 58.7787,-82.6664 L 58.9106,-82.5169 L 59.0568,-82.3813
 L 59.2157,-82.2609 L 59.3423,-82.1813 L 62.8064,-80.1813 L 62.9838,-80.0904 L 63.1694,-80.0175 L 63.3614,-79.9635
 L 63.5577,-79.9289 L 63.7565,-79.914 z
M 36.4916,-79.9357 L 36.6871,-79.9752 L 36.8776,-80.034 L 37.0613,-80.1114 L 37.1936,-80.1813 L 40.6577,-82.1813
 L 40.8252,-82.2895 L 40.9811,-82.4138 L 41.1238,-82.553 L 41.252,-82.7058 L 41.3643,-82.8705 L 41.4596,-83.0456
 L 41.5371,-83.2294 L 41.5959,-83.4199 L 41.6354,-83.6153 L 41.6552,-83.8137 L 41.6552,-84.0131 L 41.6354,-84.2115
 L 41.5959,-84.4069 L 41.5371,-84.5974 L 41.4596,-84.7812 L 41.3898,-84.9133 L 41.2898,-85.0865 L 41.1816,-85.254
 L 41.0573,-85.4099 L 40.9181,-85.5527 L 40.7654,-85.6808 L 40.6006,-85.7931 L 40.4255,-85.8885 L 40.2418,-85.966
 L 40.0513,-86.0247 L 39.8559,-86.0642 L 39.6575,-86.0841 L 39.4581,-86.0841 L 39.2597,-86.0643 L 39.0643,-86.0248
 L 38.8737,-85.966 L 38.69,-85.8886 L 38.5577,-85.8186 L 35.0936,-83.8186 L 34.9261,-83.7105 L 34.7702,-83.5862
 L 34.6275,-83.4469 L 34.4993,-83.2942 L 34.387,-83.1295 L 34.2917,-82.9544 L 34.2142,-82.7706 L 34.1555,-82.5801
 L 34.116,-82.3847 L 34.0961,-82.1863 L 34.0961,-81.9869 L 34.116,-81.7885 L 34.1555,-81.5931 L 34.2142,-81.4026
 L 34.2917,-81.2188 L 34.3615,-81.0867 L 34.4615,-80.9135 L 34.5697,-80.746 L 34.694,-80.5901 L 34.8332,-80.4473
 L 34.9859,-80.3192 L 35.1507,-80.2068 L 35.3258,-80.1115 L 35.5095,-80.034 L 35.7,-79.9753 L 35.8954,-79.9357
 L 36.0938,-79.9159 L 36.2932,-79.9159 z
M 74.3482,-73.919 L 74.546,-73.9438 L 74.7404,-73.9881 L 74.9294,-74.0517 L 75.1111,-74.1337 L 75.2838,-74.2333
 L 75.4457,-74.3497 L 75.5952,-74.4817 L 75.7308,-74.6278 L 75.8512,-74.7868 L 75.9308,-74.9135 L 76.0308,-75.0867
 L 76.1217,-75.2641 L 76.1946,-75.4497 L 76.2486,-75.6416 L 76.2832,-75.838 L 76.2981,-76.0368 L 76.2931,-76.2361
 L 76.2683,-76.434 L 76.2239,-76.6283 L 76.1604,-76.8173 L 76.0784,-76.9991 L 75.9787,-77.1717 L 75.8623,-77.3336
 L 75.7304,-77.4831 L 75.5842,-77.6187 L 75.4253,-77.7391 L 75.2987,-77.8186 L 71.8346,-79.8186 L 71.6572,-79.9096
 L 71.4716,-79.9825 L 71.2796,-80.0365 L 71.0833,-80.0711 L 70.8845,-80.086 L 70.6851,-80.081 L 70.4873,-80.0562
 L 70.2929,-80.0118 L 70.1039,-79.9483 L 69.9222,-79.8663 L 69.7495,-79.7666 L 69.5876,-79.6503 L 69.4381,-79.5183
 L 69.3025,-79.3722 L 69.1821,-79.2132 L 69.1025,-79.0865 L 69.0025,-78.9133 L 68.9116,-78.7359 L 68.8387,-78.5503
 L 68.7847,-78.3584 L 68.7501,-78.162 L 68.7352,-77.9632 L 68.7402,-77.7639 L 68.765,-77.566 L 68.8094,-77.3716
 L 68.8729,-77.1826 L 68.9549,-77.0009 L 69.0546,-76.8282 L 69.171,-76.6664 L 69.3029,-76.5169 L 69.4491,-76.3813
 L 69.608,-76.2609 L 69.7346,-76.1813 L 73.1987,-74.1813 L 73.3761,-74.0904 L 73.5617,-74.0175 L 73.7537,-73.9635
 L 73.95,-73.9289 L 74.1488,-73.914 z
M 26.0993,-73.9357 L 26.2947,-73.9752 L 26.4853,-74.034 L 26.669,-74.1114 L 26.8013,-74.1813 L 30.2654,-76.1813
 L 30.4329,-76.2895 L 30.5888,-76.4138 L 30.7315,-76.553 L 30.8597,-76.7058 L 30.972,-76.8705 L 31.0673,-77.0456
 L 31.1448,-77.2294 L 31.2036,-77.4199 L 31.2431,-77.6153 L 31.2629,-77.8137 L 31.2629,-78.0131 L 31.2431,-78.2115
 L 31.2036,-78.4069 L 31.1448,-78.5974 L 31.0673,-78.7812 L 30.9975,-78.9133 L 30.8975,-79.0865 L 30.7893,-79.254
 L 30.665,-79.4099 L 30.5258,-79.5527 L 30.3731,-79.6808 L 30.2083,-79.7931 L 30.0332,-79.8885 L 29.8495,-79.966
 L 29.659,-80.0247 L 29.4636,-80.0642 L 29.2652,-80.0841 L 29.0658,-80.0841 L 28.8674,-80.0643 L 28.672,-80.0248
 L 28.4814,-79.966 L 28.2977,-79.8886 L 28.1654,-79.8186 L 24.7013,-77.8186 L 24.5338,-77.7105 L 24.3779,-77.5862
 L 24.2352,-77.4469 L 24.107,-77.2942 L 23.9947,-77.1295 L 23.8994,-76.9544 L 23.8219,-76.7706 L 23.7631,-76.5801
 L 23.7236,-76.3847 L 23.7038,-76.1863 L 23.7038,-75.9869 L 23.7236,-75.7885 L 23.7631,-75.5931 L 23.8219,-75.4026
 L 23.8994,-75.2188 L 23.9692,-75.0867 L 24.0692,-74.9135 L 24.1774,-74.746 L 24.3017,-74.5901 L 24.4409,-74.4473
 L 24.5936,-74.3192 L 24.7584,-74.2068 L 24.9335,-74.1115 L 25.1172,-74.034 L 25.3077,-73.9753 L 25.5031,-73.9357
 L 25.7015,-73.9159 L 25.9009,-73.9159 z
M 84.9401,-64.0099 L 85.1373,-64.0397 L 85.3305,-64.0889 L 85.5179,-64.157 L 85.6975,-64.2436 L 85.8676,-64.3475
 L 86.0266,-64.4679 L 86.1727,-64.6035 L 86.3047,-64.753 L 86.4211,-64.9149 L 86.5207,-65.0876 L 86.6027,-65.2693
 L 86.6662,-65.4583 L 86.7106,-65.6527 L 86.7354,-65.8505 L 86.741,-66 L 86.741,-69.5947 L 86.7553,-69.6653
 L 86.7751,-69.8637 L 86.7751,-69.9616 L 86.777,-69.9864 L 86.7751,-70.0615 L 86.7751,-70.063 L 86.7751,-70.0636
 L 86.772,-70.1857 L 86.7473,-70.3836 L 86.7029,-70.578 L 86.6395,-70.767 L 86.5575,-70.9487 L 86.5083,-71.034
 L 86.4974,-71.0565 L 86.4588,-71.1198 L 86.4578,-71.1214 L 86.4575,-71.1219 L 86.3935,-71.2266 L 86.2731,-71.3856
 L 86.1375,-71.5317 L 85.988,-71.6637 L 85.8261,-71.78 L 85.741,-71.8292 L 85.7202,-71.8433 L 85.6544,-71.8792
 L 85.6534,-71.8797 L 85.6531,-71.8799 L 85.5451,-71.9387 L 85.3613,-72.0161 L 85.3349,-72.0242 L 82.2269,-73.8186
 L 82.0495,-73.9096 L 81.8639,-73.9825 L 81.672,-74.0365 L 81.4756,-74.0711 L 81.2768,-74.086 L 81.0774,-74.081
 L 80.8796,-74.0562 L 80.6852,-74.0118 L 80.4962,-73.9483 L 80.3145,-73.8663 L 80.1418,-73.7666 L 79.9799,-73.6503
 L 79.8304,-73.5183 L 79.6948,-73.3722 L 79.5744,-73.2132 L 79.4948,-73.0865 L 79.3948,-72.9133 L 79.3039,-72.7359
 L 79.231,-72.5503 L 79.177,-72.3584 L 79.1424,-72.162 L 79.1275,-71.9632 L 79.1325,-71.7639 L 79.1573,-71.566
 L 79.2017,-71.3716 L 79.2652,-71.1826 L 79.3472,-71.0009 L 79.4469,-70.8282 L 79.5633,-70.6664 L 79.6952,-70.5169
 L 79.8414,-70.3813 L 80.0003,-70.2609 L 80.1269,-70.1813 L 80.441,-70 L 80.1269,-69.8186 L 79.9594,-69.7105
 L 79.8035,-69.5862 L 79.6608,-69.4469 L 79.5326,-69.2942 L 79.4203,-69.1295 L 79.325,-68.9544 L 79.2475,-68.7706
 L 79.1888,-68.5801 L 79.1492,-68.3847 L 79.1294,-68.1863 L 79.1294,-67.9869 L 79.1492,-67.7885 L 79.1888,-67.5931
 L 79.2475,-67.4026 L 79.325,-67.2188 L 79.3948,-67.0867 L 79.4948,-66.9135 L 79.603,-66.746 L 79.7273,-66.5901
 L 79.8665,-66.4473 L 80.0192,-66.3192 L 80.184,-66.2068 L 80.3591,-66.1115 L 80.5428,-66.034 L 80.7333,-65.9753
 L 80.9287,-65.9357 L 81.1271,-65.9159 L 81.3265,-65.9159 L 81.5249,-65.9357 L 81.7204,-65.9752 L 81.9109,-66.034
 L 82.0946,-66.1114 L 82.2269,-66.1813 L 82.541,-66.3627 L 82.541,-66 L 82.5509,-65.8009 L 82.5807,-65.6037
 L 82.6299,-65.4105 L 82.6981,-65.2231 L 82.7846,-65.0435 L 82.8885,-64.8734 L 83.0089,-64.7144 L 83.1445,-64.5683
 L 83.294,-64.4363 L 83.4559,-64.3199 L 83.6286,-64.2203 L 83.8103,-64.1383 L 83.9993,-64.0748 L 84.1937,-64.0304
 L 84.3916,-64.0056 L 84.541,-64 L 84.741,-64 z
M 15.6581,-64.0099 L 15.8553,-64.0397 L 16.0485,-64.0889 L 16.2359,-64.157 L 16.4155,-64.2436 L 16.5856,-64.3475
 L 16.7446,-64.4679 L 16.8907,-64.6035 L 17.0226,-64.753 L 17.139,-64.9149 L 17.2387,-65.0876 L 17.3207,-65.2693
 L 17.3842,-65.4583 L 17.4286,-65.6527 L 17.4534,-65.8505 L 17.459,-66 L 17.459,-66.3627 L 17.7731,-66.1813
 L 17.9505,-66.0904 L 18.1361,-66.0175 L 18.3281,-65.9635 L 18.5244,-65.9289 L 18.7232,-65.914 L 18.9226,-65.919
 L 19.1204,-65.9438 L 19.3148,-65.9881 L 19.5038,-66.0517 L 19.6855,-66.1337 L 19.8582,-66.2333 L 20.0201,-66.3497
 L 20.1696,-66.4817 L 20.3052,-66.6278 L 20.4256,-66.7868 L 20.5052,-66.9135 L 20.6052,-67.0867 L 20.6961,-67.2641
 L 20.769,-67.4497 L 20.823,-67.6416 L 20.8576,-67.838 L 20.8725,-68.0368 L 20.8675,-68.2361 L 20.8427,-68.434
 L 20.7983,-68.6283 L 20.7348,-68.8173 L 20.6528,-68.9991 L 20.5531,-69.1717 L 20.4367,-69.3336 L 20.3048,-69.4831
 L 20.1586,-69.6187 L 19.9997,-69.7391 L 19.8731,-69.8186 L 19.559,-70 L 19.8731,-70.1813 L 20.0406,-70.2895
 L 20.1965,-70.4138 L 20.3392,-70.553 L 20.4673,-70.7058 L 20.5797,-70.8705 L 20.675,-71.0456 L 20.7525,-71.2293
 L 20.8112,-71.4199 L 20.8508,-71.6153 L 20.8706,-71.8137 L 20.8706,-72.0131 L 20.8508,-72.2115 L 20.8112,-72.4069
 L 20.7525,-72.5974 L 20.675,-72.7812 L 20.6052,-72.9133 L 20.5052,-73.0865 L 20.397,-73.254 L 20.2727,-73.4099
 L 20.1335,-73.5527 L 19.9808,-73.6808 L 19.816,-73.7931 L 19.6409,-73.8885 L 19.4572,-73.966 L 19.2667,-74.0247
 L 19.0713,-74.0642 L 18.8729,-74.0841 L 18.6735,-74.0841 L 18.4751,-74.0643 L 18.2796,-74.0248 L 18.0891,-73.966
 L 17.9054,-73.8886 L 17.7731,-73.8186 L 14.6599,-72.0213 L 14.5917,-71.9983 L 14.4099,-71.9163 L 14.325,-71.8673
 L 14.3025,-71.8564 L 14.2383,-71.8172 L 14.2373,-71.8166 L 14.2369,-71.8164 L 14.1324,-71.7525 L 13.9734,-71.6321
 L 13.8273,-71.4965 L 13.6953,-71.347 L 13.5789,-71.1851 L 13.5299,-71.1001 L 13.5158,-71.0795 L 13.4799,-71.0135
 L 13.4793,-71.0124 L 13.4791,-71.012 L 13.4205,-70.9044 L 13.343,-70.7207 L 13.2843,-70.5301 L 13.2447,-70.3347
 L 13.2249,-70.1363 L 13.2249,-70.0381 L 13.223,-70.0132 L 13.2249,-69.9386 L 13.2249,-69.9369 L 13.2249,-69.9364
 L 13.228,-69.8139 L 13.2528,-69.6161 L 13.259,-69.5889 L 13.259,-66 L 13.2689,-65.8009 L 13.2987,-65.6037
 L 13.3479,-65.4105 L 13.416,-65.2231 L 13.5026,-65.0435 L 13.6065,-64.8734 L 13.7269,-64.7144 L 13.8625,-64.5683
 L 14.012,-64.4363 L 14.1739,-64.3199 L 14.3466,-64.2203 L 14.5283,-64.1383 L 14.7173,-64.0748 L 14.9117,-64.0304
 L 15.1095,-64.0056 L 15.259,-64 L 15.459,-64 z
M 29.3149,-59.919 L 29.5127,-59.9438 L 29.7071,-59.9881 L 29.8961,-60.0517 L 30.0778,-60.1337 L 30.2505,-60.2333
 L 30.4124,-60.3497 L 30.5619,-60.4817 L 30.6975,-60.6278 L 30.8179,-60.7868 L 30.8975,-60.9135 L 30.9975,-61.0867
 L 31.0884,-61.2641 L 31.1613,-61.4497 L 31.2153,-61.6416 L 31.2499,-61.838 L 31.2648,-62.0368 L 31.2598,-62.2361
 L 31.235,-62.434 L 31.1906,-62.6283 L 31.1271,-62.8173 L 31.0451,-62.9991 L 30.9454,-63.1717 L 30.829,-63.3336
 L 30.6971,-63.4831 L 30.5509,-63.6187 L 30.392,-63.7391 L 30.2654,-63.8186 L 26.8013,-65.8186 L 26.6239,-65.9096
 L 26.4383,-65.9825 L 26.2463,-66.0365 L 26.05,-66.0711 L 25.8512,-66.086 L 25.6518,-66.081 L 25.454,-66.0562
 L 25.2596,-66.0118 L 25.0706,-65.9483 L 24.8889,-65.8663 L 24.7162,-65.7666 L 24.5543,-65.6503 L 24.4048,-65.5183
 L 24.2692,-65.3722 L 24.1488,-65.2132 L 24.0692,-65.0865 L 23.9692,-64.9133 L 23.8783,-64.7359 L 23.8054,-64.5503
 L 23.7514,-64.3584 L 23.7168,-64.162 L 23.7019,-63.9632 L 23.7069,-63.7639 L 23.7317,-63.566 L 23.7761,-63.3716
 L 23.8396,-63.1826 L 23.9216,-63.0009 L 24.0213,-62.8282 L 24.1377,-62.6664 L 24.2696,-62.5169 L 24.4158,-62.3813
 L 24.5747,-62.2609 L 24.7013,-62.1813 L 28.1654,-60.1813 L 28.3428,-60.0904 L 28.5284,-60.0175 L 28.7204,-59.9635
 L 28.9167,-59.9289 L 29.1155,-59.914 z
M 71.1326,-59.9357 L 71.328,-59.9752 L 71.5186,-60.034 L 71.7023,-60.1114 L 71.8346,-60.1813 L 75.2987,-62.1813
 L 75.4662,-62.2895 L 75.6221,-62.4138 L 75.7648,-62.553 L 75.893,-62.7058 L 76.0053,-62.8705 L 76.1006,-63.0456
 L 76.1781,-63.2294 L 76.2369,-63.4199 L 76.2764,-63.6153 L 76.2962,-63.8137 L 76.2962,-64.0131 L 76.2764,-64.2115
 L 76.2369,-64.4069 L 76.1781,-64.5974 L 76.1006,-64.7812 L 76.0308,-64.9133 L 75.9308,-65.0865 L 75.8226,-65.254
 L 75.6983,-65.4099 L 75.5591,-65.5527 L 75.4064,-65.6808 L 75.2416,-65.7931 L 75.0665,-65.8885 L 74.8828,-65.966
 L 74.6923,-66.0247 L 74.4969,-66.0642 L 74.2985,-66.0841 L 74.0991,-66.0841 L 73.9007,-66.0643 L 73.7053,-66.0248
 L 73.5147,-65.966 L 73.331,-65.8886 L 73.1987,-65.8186 L 69.7346,-63.8186 L 69.5671,-63.7105 L 69.4112,-63.5862
 L 69.2685,-63.4469 L 69.1403,-63.2942 L 69.028,-63.1295 L 68.9327,-62.9544 L 68.8552,-62.7706 L 68.7964,-62.5801
 L 68.7569,-62.3847 L 68.7371,-62.1863 L 68.7371,-61.9869 L 68.7569,-61.7885 L 68.7964,-61.5931 L 68.8552,-61.4026
 L 68.9327,-61.2188 L 69.0025,-61.0867 L 69.1025,-60.9135 L 69.2107,-60.746 L 69.335,-60.5901 L 69.4742,-60.4473
 L 69.6269,-60.3192 L 69.7917,-60.2068 L 69.9668,-60.1115 L 70.1505,-60.034 L 70.341,-59.9753 L 70.5364,-59.9357
 L 70.7348,-59.9159 L 70.9342,-59.9159 z
M 39.7072,-53.919 L 39.905,-53.9438 L 40.0994,-53.9881 L 40.2884,-54.0516 L 40.4701,-54.1337 L 40.6428,-54.2333
 L 40.8047,-54.3497 L 40.9542,-54.4817 L 41.0898,-54.6278 L 41.2102,-54.7867 L 41.2898,-54.9135 L 41.3898,-55.0867
 L 41.4807,-55.2641 L 41.5536,-55.4497 L 41.6076,-55.6416 L 41.6422,-55.838 L 41.6571,-56.0368 L 41.6521,-56.2361
 L 41.6273,-56.434 L 41.5829,-56.6283 L 41.5194,-56.8173 L 41.4374,-56.9991 L 41.3377,-57.1717 L 41.2213,-57.3336
 L 41.0894,-57.4831 L 40.9432,-57.6187 L 40.7843,-57.7391 L 40.6577,-57.8186 L 37.1936,-59.8186 L 37.0162,-59.9096
 L 36.8306,-59.9825 L 36.6386,-60.0365 L 36.4423,-60.0711 L 36.2435,-60.086 L 36.0441,-60.081 L 35.8463,-60.0562
 L 35.6519,-60.0118 L 35.4629,-59.9483 L 35.2812,-59.8663 L 35.1085,-59.7666 L 34.9466,-59.6503 L 34.7971,-59.5183
 L 34.6615,-59.3722 L 34.5411,-59.2132 L 34.4615,-59.0865 L 34.3615,-58.9133 L 34.2706,-58.7359 L 34.1977,-58.5503
 L 34.1437,-58.3584 L 34.1091,-58.162 L 34.0942,-57.9632 L 34.0992,-57.7639 L 34.124,-57.566 L 34.1684,-57.3716
 L 34.2319,-57.1826 L 34.3139,-57.0009 L 34.4136,-56.8282 L 34.53,-56.6664 L 34.6619,-56.5169 L 34.8081,-56.3813
 L 34.967,-56.2609 L 35.0936,-56.1813 L 38.5577,-54.1813 L 38.7351,-54.0904 L 38.9207,-54.0175 L 39.1127,-53.9635
 L 39.309,-53.9289 L 39.5078,-53.914 z
M 60.7403,-53.9357 L 60.9357,-53.9752 L 61.1263,-54.034 L 61.31,-54.1114 L 61.4423,-54.1813 L 64.9064,-56.1813
 L 65.0739,-56.2895 L 65.2298,-56.4138 L 65.3725,-56.553 L 65.5007,-56.7058 L 65.613,-56.8705 L 65.7083,-57.0456
 L 65.7858,-57.2294 L 65.8445,-57.4199 L 65.884,-57.6153 L 65.9039,-57.8137 L 65.9039,-58.0131 L 65.884,-58.2115
 L 65.8445,-58.4069 L 65.7858,-58.5974 L 65.7083,-58.7812 L 65.6385,-58.9133 L 65.5385,-59.0865 L 65.4303,-59.254
 L 65.306,-59.4099 L 65.1668,-59.5527 L 65.0141,-59.6808 L 64.8493,-59.7931 L 64.6742,-59.8885 L 64.4905,-59.966
 L 64.3,-60.0247 L 64.1046,-60.0642 L 63.9062,-60.0841 L 63.7068,-60.0841 L 63.5084,-60.0643 L 63.3129,-60.0248
 L 63.1224,-59.966 L 62.9387,-59.8886 L 62.8064,-59.8186 L 59.3423,-57.8186 L 59.1748,-57.7105 L 59.0189,-57.5862
 L 58.8762,-57.4469 L 58.748,-57.2942 L 58.6357,-57.1295 L 58.5404,-56.9544 L 58.4629,-56.7706 L 58.4041,-56.5801
 L 58.3646,-56.3847 L 58.3448,-56.1863 L 58.3448,-55.9869 L 58.3646,-55.7885 L 58.4041,-55.5931 L 58.4629,-55.4026
 L 58.5404,-55.2188 L 58.6102,-55.0867 L 58.7102,-54.9135 L 58.8184,-54.746 L 58.9427,-54.5901 L 59.0819,-54.4473
 L 59.2346,-54.3192 L 59.3994,-54.2068 L 59.5745,-54.1115 L 59.7582,-54.034 L 59.9487,-53.9753 L 60.1441,-53.9357
 L 60.3425,-53.9159 L 60.5419,-53.9159 z
M 15.6581,-52.0099 L 15.8553,-52.0397 L 16.0485,-52.0889 L 16.2359,-52.157 L 16.4155,-52.2436 L 16.5856,-52.3475
 L 16.7446,-52.4679 L 16.8907,-52.6035 L 17.0226,-52.753 L 17.139,-52.9149 L 17.2387,-53.0876 L 17.3207,-53.2693
 L 17.3842,-53.4583 L 17.4286,-53.6527 L 17.4534,-53.8505 L 17.459,-54 L 17.459,-58 L 17.4491,-58.1991
 L 17.4193,-58.3963 L 17.3701,-58.5895 L 17.3019,-58.7769 L 17.2154,-58.9565 L 17.1115,-59.1266 L 16.9911,-59.2856
 L 16.8555,-59.4317 L 16.706,-59.5637 L 16.5441,-59.6801 L 16.3714,-59.7797 L 16.1897,-59.8617 L 16.0007,-59.9252
 L 15.8063,-59.9696 L 15.6084,-59.9944 L 15.459,-60 L 15.259,-60 L 15.0599,-59.9901 L 14.8627,-59.9603
 L 14.6695,-59.9111 L 14.4821,-59.843 L 14.3025,-59.7564 L 14.1324,-59.6525 L 13.9734,-59.5321 L 13.8273,-59.3965
 L 13.6953,-59.247 L 13.5789,-59.0851 L 13.4793,-58.9124 L 13.3973,-58.7307 L 13.3338,-58.5417 L 13.2894,-58.3473
 L 13.2646,-58.1495 L 13.259,-58 L 13.259,-54 L 13.2689,-53.8009 L 13.2987,-53.6037 L 13.3479,-53.4105
 L 13.416,-53.2231 L 13.5026,-53.0435 L 13.6065,-52.8734 L 13.7269,-52.7144 L 13.8625,-52.5683 L 14.012,-52.4363
 L 14.1739,-52.3199 L 14.3466,-52.2203 L 14.5283,-52.1383 L 14.7173,-52.0748 L 14.9117,-52.0304 L 15.1095,-52.0056
 L 15.259,-52 L 15.459,-52 z
M 84.9401,-52.0099 L 85.1373,-52.0397 L 85.3305,-52.0889 L 85.5179,-52.157 L 85.6975,-52.2436 L 85.8676,-52.3475
 L 86.0266,-52.4679 L 86.1727,-52.6035 L 86.3047,-52.753 L 86.4211,-52.9149 L 86.5207,-53.0876 L 86.6027,-53.2693
 L 86.6662,-53.4583 L 86.7106,-53.6527 L 86.7354,-53.8505 L 86.741,-54 L 86.741,-58 L 86.7311,-58.1991
 L 86.7013,-58.3963 L 86.6521,-58.5895 L 86.584,-58.7769 L 86.4974,-58.9565 L 86.3935,-59.1266 L 86.2731,-59.2856
 L 86.1375,-59.4317 L 85.988,-59.5637 L 85.8261,-59.6801 L 85.6534,-59.7797 L 85.4717,-59.8617 L 85.2827,-59.9252
 L 85.0883,-59.9696 L 84.8905,-59.9944 L 84.741,-60 L 84.541,-60 L 84.3419,-59.9901 L 84.1447,-59.9603
 L 83.9515,-59.9111 L 83.7641,-59.843 L 83.5845,-59.7564 L 83.4144,-59.6525 L 83.2554,-59.5321 L 83.1093,-59.3965
 L 82.9774,-59.247 L 82.861,-59.0851 L 82.7613,-58.9124 L 82.6793,-58.7307 L 82.6158,-58.5417 L 82.5714,-58.3473
 L 82.5466,-58.1495 L 82.541,-58 L 82.541,-54 L 82.5509,-53.8009 L 82.5807,-53.6037 L 82.6299,-53.4105
 L 82.6981,-53.2231 L 82.7846,-53.0435 L 82.8885,-52.8734 L 83.0089,-52.7144 L 83.1445,-52.5683 L 83.294,-52.4363
 L 83.4559,-52.3199 L 83.6286,-52.2203 L 83.8103,-52.1383 L 83.9993,-52.0748 L 84.1937,-52.0304 L 84.3916,-52.0056
 L 84.541,-52 L 84.741,-52 z
M 50.2991,-44.0099 L 50.4963,-44.0397 L 50.6895,-44.0889 L 50.8769,-44.157 L 51.0565,-44.2436 L 51.2266,-44.3475
 L 51.3856,-44.4679 L 51.5317,-44.6035 L 51.6637,-44.753 L 51.78,-44.9149 L 51.8797,-45.0876 L 51.9617,-45.2693
 L 52.0252,-45.4583 L 52.0696,-45.6527 L 52.0944,-45.8505 L 52.1,-46 L 52.1,-48.7876 L 54.5141,-50.1813
 L 54.6816,-50.2895 L 54.8375,-50.4138 L 54.9802,-50.553 L 55.1084,-50.7058 L 55.2207,-50.8705 L 55.316,-51.0456
 L 55.3935,-51.2294 L 55.4522,-51.4199 L 55.4917,-51.6153 L 55.5116,-51.8137 L 55.5116,-52.0131 L 55.4917,-52.2115
 L 55.4522,-52.4069 L 55.3935,-52.5974 L 55.316,-52.7812 L 55.2462,-52.9133 L 55.1462,-53.0865 L 55.038,-53.254
 L 54.9137,-53.4099 L 54.7745,-53.5527 L 54.6217,-53.6808 L 54.457,-53.7931 L 54.2819,-53.8885 L 54.0982,-53.966
 L 53.9077,-54.0247 L 53.7122,-54.0642 L 53.5139,-54.0841 L 53.3145,-54.0841 L 53.1161,-54.0643 L 52.9206,-54.0248
 L 52.7301,-53.966 L 52.5464,-53.8886 L 52.4141,-53.8186 L 50,-52.4249 L 47.5859,-53.8186 L 47.4085,-53.9096
 L 47.2229,-53.9825 L 47.031,-54.0365 L 46.8346,-54.0711 L 46.6358,-54.086 L 46.4364,-54.081 L 46.2386,-54.0562
 L 46.0442,-54.0118 L 45.8552,-53.9483 L 45.6735,-53.8663 L 45.5008,-53.7666 L 45.3389,-53.6503 L 45.1894,-53.5183
 L 45.0538,-53.3722 L 44.9334,-53.2132 L 44.8538,-53.0865 L 44.7538,-52.9133 L 44.6629,-52.7359 L 44.59,-52.5503
 L 44.536,-52.3584 L 44.5014,-52.162 L 44.4865,-51.9632 L 44.4915,-51.7639 L 44.5163,-51.566 L 44.5607,-51.3716
 L 44.6242,-51.1826 L 44.7062,-51.0009 L 44.8059,-50.8282 L 44.9223,-50.6664 L 45.0542,-50.5169 L 45.2004,-50.3813
 L 45.3593,-50.2609 L 45.4859,-50.1813 L 47.9,-48.7876 L 47.9,-46 L 47.9099,-45.8009 L 47.9397,-45.6037
 L 47.9889,-45.4105 L 48.0571,-45.2231 L 48.1436,-45.0435 L 48.2475,-44.8734 L 48.3679,-44.7144 L 48.5035,-44.5683
 L 48.653,-44.4363 L 48.8149,-44.3199 L 48.9876,-44.2203 L 49.1693,-44.1383 L 49.3583,-44.0748 L 49.5527,-44.0304
 L 49.7505,-44.0056 L 49.9,-44 L 50.1,-44 z
M 84.9401,-40.0099 L 85.1373,-40.0397 L 85.3305,-40.0889 L 85.5179,-40.157 L 85.6975,-40.2436 L 85.8676,-40.3475
 L 86.0266,-40.4679 L 86.1727,-40.6035 L 86.3047,-40.753 L 86.4211,-40.9149 L 86.5207,-41.0876 L 86.6027,-41.2693
 L 86.6662,-41.4583 L 86.7106,-41.6527 L 86.7354,-41.8505 L 86.741,-42 L 86.741,-46 L 86.7311,-46.1991
 L 86.7013,-46.3963 L 86.6521,-46.5895 L 86.584,-46.7769 L 86.4974,-46.9565 L 86.3935,-47.1266 L 86.2731,-47.2856
 L 86.1375,-47.4317 L 85.988,-47.5637 L 85.8261,-47.6801 L 85.6534,-47.7797 L 85.4717,-47.8617 L 85.2827,-47.9252
 L 85.0883,-47.9696 L 84.8905,-47.9944 L 84.741,-48 L 84.541,-48 L 84.3419,-47.9901 L 84.1447,-47.9603
 L 83.9515,-47.9111 L 83.7641,-47.843 L 83.5845,-47.7564 L 83.4144,-47.6525 L 83.2554,-47.5321 L 83.1093,-47.3965
 L 82.9774,-47.247 L 82.861,-47.0851 L 82.7613,-46.9124 L 82.6793,-46.7307 L 82.6158,-46.5417 L 82.5714,-46.3473
 L 82.5466,-46.1495 L 82.541,-46 L 82.541,-42 L 82.5509,-41.8009 L 82.5807,-41.6037 L 82.6299,-41.4105
 L 82.6981,-41.2231 L 82.7846,-41.0435 L 82.8885,-40.8734 L 83.0089,-40.7144 L 83.1445,-40.5683 L 83.294,-40.4363
 L 83.4559,-40.3199 L 83.6286,-40.2203 L 83.8103,-40.1383 L 83.9993,-40.0748 L 84.1937,-40.0304 L 84.3916,-40.0056
 L 84.541,-40 L 84.741,-40 z
M 15.6581,-40.0099 L 15.8553,-40.0397 L 16.0485,-40.0889 L 16.2359,-40.157 L 16.4155,-40.2436 L 16.5856,-40.3475
 L 16.7446,-40.4679 L 16.8907,-40.6035 L 17.0226,-40.753 L 17.139,-40.9149 L 17.2387,-41.0876 L 17.3207,-41.2693
 L 17.3842,-41.4583 L 17.4286,-41.6527 L 17.4534,-41.8505 L 17.459,-42 L 17.459,-46 L 17.4491,-46.1991
 L 17.4193,-46.3963 L 17.3701,-46.5895 L 17.3019,-46.7769 L 17.2154,-46.9565 L 17.1115,-47.1266 L 16.9911,-47.2856
 L 16.8555,-47.4317 L 16.706,-47.5637 L 16.5441,-47.6801 L 16.3714,-47.7797 L 16.1897,-47.8617 L 16.0007,-47.9252
 L 15.8063,-47.9696 L 15.6084,-47.9944 L 15.459,-48 L 15.259,-48 L 15.0599,-47.9901 L 14.8627,-47.9603
 L 14.6695,-47.9111 L 14.4821,-47.843 L 14.3025,-47.7564 L 14.1324,-47.6525 L 13.9734,-47.5321 L 13.8273,-47.3965
 L 13.6953,-47.247 L 13.5789,-47.0851 L 13.4793,-46.9124 L 13.3973,-46.7307 L 13.3338,-46.5417 L 13.2894,-46.3473
 L 13.2646,-46.1495 L 13.259,-46 L 13.259,-42 L 13.2689,-41.8009 L 13.2987,-41.6037 L 13.3479,-41.4105
 L 13.416,-41.2231 L 13.5026,-41.0435 L 13.6065,-40.8734 L 13.7269,-40.7144 L 13.8625,-40.5683 L 14.012,-40.4363
 L 14.1739,-40.3199 L 14.3466,-40.2203 L 14.5283,-40.1383 L 14.7173,-40.0748 L 14.9117,-40.0304 L 15.1095,-40.0056
 L 15.259,-40 L 15.459,-40 z
M 50.2991,-32.0099 L 50.4963,-32.0397 L 50.6895,-32.0889 L 50.8769,-32.157 L 51.0565,-32.2436 L 51.2266,-32.3475
 L 51.3856,-32.4679 L 51.5317,-32.6035 L 51.6637,-32.753 L 51.78,-32.9149 L 51.8797,-33.0876 L 51.9617,-33.2693
 L 52.0252,-33.4583 L 52.0696,-33.6527 L 52.0944,-33.8505 L 52.1,-34 L 52.1,-38 L 52.0901,-38.1991
 L 52.0603,-38.3963 L 52.0111,-38.5895 L 51.9429,-38.7769 L 51.8564,-38.9565 L 51.7525,-39.1266 L 51.6321,-39.2856
 L 51.4965,-39.4317 L 51.347,-39.5637 L 51.1851,-39.6801 L 51.0124,-39.7797 L 50.8307,-39.8617 L 50.6417,-39.9252
 L 50.4473,-39.9696 L 50.2495,-39.9944 L 50.1,-40 L 49.9,-40 L 49.7009,-39.9901 L 49.5037,-39.9603
 L 49.3105,-39.9111 L 49.1231,-39.843 L 48.9435,-39.7564 L 48.7734,-39.6525 L 48.6144,-39.5321 L 48.4683,-39.3965
 L 48.3363,-39.247 L 48.22,-39.0851 L 48.1203,-38.9124 L 48.0383,-38.7307 L 47.9748,-38.5417 L 47.9304,-38.3473
 L 47.9056,-38.1495 L 47.9,-38 L 47.9,-34 L 47.9099,-33.8009 L 47.9397,-33.6037 L 47.9889,-33.4105
 L 48.0571,-33.2231 L 48.1436,-33.0435 L 48.2475,-32.8734 L 48.3679,-32.7144 L 48.5035,-32.5683 L 48.653,-32.4363
 L 48.8149,-32.3199 L 48.9876,-32.2203 L 49.1693,-32.1383 L 49.3583,-32.0748 L 49.5527,-32.0304 L 49.7505,-32.0056
 L 49.9,-32 L 50.1,-32 z
M 18.9226,-25.919 L 19.1204,-25.9438 L 19.3148,-25.9881 L 19.5038,-26.0516 L 19.6855,-26.1337 L 19.8582,-26.2333
 L 20.0201,-26.3497 L 20.1696,-26.4817 L 20.3052,-26.6278 L 20.4256,-26.7867 L 20.5052,-26.9135 L 20.6052,-27.0867
 L 20.6961,-27.2641 L 20.769,-27.4497 L 20.823,-27.6416 L 20.8576,-27.838 L 20.8725,-28.0368 L 20.8675,-28.2361
 L 20.8427,-28.434 L 20.7983,-28.6283 L 20.7348,-28.8173 L 20.6528,-28.9991 L 20.5531,-29.1717 L 20.4367,-29.3336
 L 20.3048,-29.4831 L 20.1586,-29.6187 L 19.9997,-29.7391 L 19.8731,-29.8186 L 17.459,-31.2124 L 17.459,-34
 L 17.4491,-34.1991 L 17.4193,-34.3963 L 17.3701,-34.5895 L 17.3019,-34.7769 L 17.2154,-34.9565 L 17.1115,-35.1266
 L 16.9911,-35.2856 L 16.8555,-35.4317 L 16.706,-35.5637 L 16.5441,-35.6801 L 16.3714,-35.7797 L 16.1897,-35.8617
 L 16.0007,-35.9252 L 15.8063,-35.9696 L 15.6084,-35.9944 L 15.459,-36 L 15.259,-36 L 15.0599,-35.9901
 L 14.8627,-35.9603 L 14.6695,-35.9111 L 14.4821,-35.843 L 14.3025,-35.7564 L 14.1324,-35.6525 L 13.9734,-35.5321
 L 13.8273,-35.3965 L 13.6953,-35.247 L 13.5789,-35.0851 L 13.4793,-34.9124 L 13.3973,-34.7307 L 13.3338,-34.5417
 L 13.2894,-34.3473 L 13.2646,-34.1495 L 13.259,-34 L 13.259,-30.3316 L 13.2379,-30.2121 L 13.223,-30.0133
 L 13.228,-29.814 L 13.2528,-29.6161 L 13.2971,-29.4218 L 13.3606,-29.2327 L 13.4426,-29.051 L 13.4917,-28.9659
 L 13.5026,-28.9435 L 13.5415,-28.8799 L 13.5423,-28.8783 L 13.5427,-28.8779 L 13.6065,-28.7734 L 13.7269,-28.6144
 L 13.8625,-28.4683 L 14.012,-28.3363 L 14.1739,-28.22 L 14.3466,-28.1203 L 14.5283,-28.0383 L 14.5965,-28.0154
 L 17.7731,-26.1813 L 17.9505,-26.0904 L 18.1361,-26.0175 L 18.3281,-25.9635 L 18.5244,-25.9289 L 18.7232,-25.914
 z
M 81.5249,-25.9357 L 81.7204,-25.9752 L 81.9109,-26.034 L 82.0946,-26.1114 L 82.2269,-26.1813 L 85.4039,-28.0156
 L 85.5179,-28.0571 L 85.6975,-28.1436 L 85.8676,-28.2475 L 86.0266,-28.3679 L 86.1727,-28.5035 L 86.3047,-28.653
 L 86.4211,-28.8149 L 86.47,-28.8998 L 86.4842,-28.9205 L 86.5795,-29.0956 L 86.657,-29.2793 L 86.7157,-29.4698
 L 86.7553,-29.6653 L 86.7751,-29.8637 L 86.7751,-30.063 L 86.7553,-30.2614 L 86.741,-30.332 L 86.741,-34
 L 86.7311,-34.1991 L 86.7013,-34.3963 L 86.6521,-34.5895 L 86.584,-34.7769 L 86.4974,-34.9565 L 86.3935,-35.1266
 L 86.2731,-35.2856 L 86.1375,-35.4317 L 85.988,-35.5637 L 85.8261,-35.6801 L 85.6534,-35.7797 L 85.4717,-35.8617
 L 85.2827,-35.9252 L 85.0883,-35.9696 L 84.8905,-35.9944 L 84.741,-36 L 84.541,-36 L 84.3419,-35.9901
 L 84.1447,-35.9603 L 83.9515,-35.9111 L 83.7641,-35.843 L 83.5845,-35.7564 L 83.4144,-35.6525 L 83.2554,-35.5321
 L 83.1093,-35.3965 L 82.9774,-35.247 L 82.861,-35.0851 L 82.7613,-34.9124 L 82.6793,-34.7307 L 82.6158,-34.5417
 L 82.5714,-34.3473 L 82.5466,-34.1495 L 82.541,-34 L 82.541,-31.2124 L 80.1269,-29.8186 L 79.9594,-29.7105
 L 79.8035,-29.5862 L 79.6608,-29.4469 L 79.5326,-29.2942 L 79.4203,-29.1295 L 79.325,-28.9544 L 79.2475,-28.7706
 L 79.1888,-28.5801 L 79.1492,-28.3847 L 79.1294,-28.1863 L 79.1294,-27.9869 L 79.1492,-27.7885 L 79.1888,-27.5931
 L 79.2475,-27.4026 L 79.325,-27.2188 L 79.3948,-27.0867 L 79.4948,-26.9135 L 79.603,-26.746 L 79.7273,-26.5901
 L 79.8665,-26.4473 L 80.0192,-26.3192 L 80.184,-26.2068 L 80.3591,-26.1115 L 80.5428,-26.034 L 80.7333,-25.9753
 L 80.9287,-25.9357 L 81.1271,-25.9159 L 81.3265,-25.9159 z
M 50,-14 L 41,-28 L 32,-28 L 41,-14 L 32,-0 L 41,-0
 z
M 68,-14 L 59,-28 L 50,-28 L 59,-14 L 50,-0 L 59,-0
 z
M 29.3149,-19.919 L 29.5127,-19.9438 L 29.7071,-19.9881 L 29.8961,-20.0517 L 30.0778,-20.1337 L 30.2505,-20.2333
 L 30.4124,-20.3497 L 30.5619,-20.4817 L 30.6975,-20.6278 L 30.8179,-20.7868 L 30.8975,-20.9135 L 30.9975,-21.0867
 L 31.0884,-21.2641 L 31.1613,-21.4497 L 31.2153,-21.6416 L 31.2499,-21.838 L 31.2648,-22.0368 L 31.2598,-22.2361
 L 31.235,-22.434 L 31.1906,-22.6283 L 31.1271,-22.8173 L 31.0451,-22.9991 L 30.9454,-23.1717 L 30.829,-23.3336
 L 30.6971,-23.4831 L 30.5509,-23.6187 L 30.392,-23.7391 L 30.2654,-23.8186 L 26.8013,-25.8186 L 26.6239,-25.9096
 L 26.4383,-25.9825 L 26.2463,-26.0365 L 26.05,-26.0711 L 25.8512,-26.086 L 25.6518,-26.081 L 25.454,-26.0562
 L 25.2596,-26.0118 L 25.0706,-25.9483 L 24.8889,-25.8663 L 24.7162,-25.7666 L 24.5543,-25.6503 L 24.4048,-25.5183
 L 24.2692,-25.3722 L 24.1488,-25.2132 L 24.0692,-25.0865 L 23.9692,-24.9133 L 23.8783,-24.7359 L 23.8054,-24.5503
 L 23.7514,-24.3584 L 23.7168,-24.162 L 23.7019,-23.9632 L 23.7069,-23.7639 L 23.7317,-23.566 L 23.7761,-23.3716
 L 23.8396,-23.1826 L 23.9216,-23.0009 L 24.0213,-22.8282 L 24.1377,-22.6664 L 24.2696,-22.5169 L 24.4158,-22.3813
 L 24.5747,-22.2609 L 24.7013,-22.1813 L 28.1654,-20.1813 L 28.3428,-20.0904 L 28.5284,-20.0175 L 28.7204,-19.9635
 L 28.9167,-19.9289 L 29.1155,-19.914 z
M 71.1326,-19.9357 L 71.328,-19.9752 L 71.5186,-20.034 L 71.7023,-20.1114 L 71.8346,-20.1813 L 75.2987,-22.1813
 L 75.4662,-22.2895 L 75.6221,-22.4138 L 75.7648,-22.553 L 75.893,-22.7058 L 76.0053,-22.8705 L 76.1006,-23.0456
 L 76.1781,-23.2294 L 76.2369,-23.4199 L 76.2764,-23.6153 L 76.2962,-23.8137 L 76.2962,-24.0131 L 76.2764,-24.2115
 L 76.2369,-24.4069 L 76.1781,-24.5974 L 76.1006,-24.7812 L 76.0308,-24.9133 L 75.9308,-25.0865 L 75.8226,-25.254
 L 75.6983,-25.4099 L 75.5591,-25.5527 L 75.4064,-25.6808 L 75.2416,-25.7931 L 75.0665,-25.8885 L 74.8828,-25.966
 L 74.6923,-26.0247 L 74.4969,-26.0642 L 74.2985,-26.0841 L 74.0991,-26.0841 L 73.9007,-26.0643 L 73.7053,-26.0248
 L 73.5147,-25.966 L 73.331,-25.8886 L 73.1987,-25.8186 L 69.7346,-23.8186 L 69.5671,-23.7105 L 69.4112,-23.5862
 L 69.2685,-23.4469 L 69.1403,-23.2942 L 69.028,-23.1295 L 68.9327,-22.9544 L 68.8552,-22.7706 L 68.7964,-22.5801
 L 68.7569,-22.3847 L 68.7371,-22.1863 L 68.7371,-21.9869 L 68.7569,-21.7885 L 68.7964,-21.5931 L 68.8552,-21.4026
 L 68.9327,-21.2188 L 69.0025,-21.0867 L 69.1025,-20.9135 L 69.2107,-20.746 L 69.335,-20.5901 L 69.4742,-20.4473
 L 69.6269,-20.3192 L 69.7917,-20.2068 L 69.9668,-20.1115 L 70.1505,-20.034 L 70.341,-19.9753 L 70.5364,-19.9357
 L 70.7348,-19.9159 L 70.9342,-19.9159 z
" stroke="white" fill="white" stroke-width="0.5"/>
</svg>
