<?xml version="1.0" encoding="UTF-8" standalone="no"?>
<!-- Created with Inkscape (http://www.inkscape.org/) -->

<svg
   version="1.1"
   id="svg1"
   width="377.33334"
   height="377.33334"
   viewBox="0 0 377.33334 377.33334"
   sodipodi:docname="chokusen-export-gc.svg"
   inkscape:version="1.4.2 (f4327f4, 2025-05-13)"
   xmlns:inkscape="http://www.inkscape.org/namespaces/inkscape"
   xmlns:sodipodi="http://sodipodi.sourceforge.net/DTD/sodipodi-0.dtd"
   xmlns="http://www.w3.org/2000/svg"
   xmlns:svg="http://www.w3.org/2000/svg">
  <defs
     id="defs1" />
  <sodipodi:namedview
     id="namedview1"
     pagecolor="#ffffff"
     bordercolor="#000000"
     borderopacity="0.25"
     inkscape:showpageshadow="2"
     inkscape:pageopacity="0.0"
     inkscape:pagecheckerboard="0"
     inkscape:deskcolor="#d1d1d1"
     inkscape:zoom="3.7446995"
     inkscape:cx="188.53315"
     inkscape:cy="188.66667"
     inkscape:window-width="2880"
     inkscape:window-height="1694"
     inkscape:window-x="-11"
     inkscape:window-y="-11"
     inkscape:window-maximized="1"
     inkscape:current-layer="g1">
    <inkscape:page
       x="0"
       y="0"
       inkscape:label="1"
       id="page1"
       width="377.33334"
       height="377.33334"
       margin="0"
       bleed="0" />
  </sodipodi:namedview>
  <g
     id="g1"
     inkscape:groupmode="layer"
     inkscape:label="1">
    <path
       id="path1"
       d="m 345.848,15610.785 h 0.493 l 0.488,0.01 0.488,0.01 0.969,0.05 0.48,0.03 0.481,0.04 0.477,0.04 0.476,0.04 0.473,0.05 0.472,0.06 0.938,0.117 0.465,0.07 0.461,0.07 0.461,0.07 0.461,0.08 0.457,0.09 0.453,0.09 0.453,0.09 0.453,0.1 0.449,0.106 0.445,0.109 0.446,0.114 0.441,0.117 0.442,0.121 0.437,0.125 0.438,0.133 0.433,0.136 0.434,0.141 0.429,0.145 0.43,0.148 0.426,0.156 0.426,0.16 0.422,0.164 0.421,0.168 0.418,0.172 0.414,0.176 0.415,0.184 0.414,0.187 0.41,0.192 0.406,0.195 0.406,0.199 0.407,0.207 0.402,0.207 v 16.91 l -0.488,-0.215 -0.481,-0.21 -0.48,-0.207 -0.477,-0.2 -0.476,-0.195 -0.469,-0.195 -0.469,-0.184 -0.465,-0.184 -0.461,-0.179 -0.457,-0.172 -0.457,-0.168 -0.449,-0.164 -0.449,-0.156 -0.446,-0.157 -0.441,-0.148 -0.441,-0.145 -0.868,-0.273 -0.429,-0.129 -0.426,-0.125 -0.426,-0.121 -0.418,-0.117 -0.418,-0.11 -0.414,-0.109 -0.41,-0.102 -0.41,-0.1 -0.805,-0.18 -0.398,-0.08 -0.395,-0.08 -0.394,-0.07 -0.774,-0.133 -0.383,-0.06 -0.378,-0.05 -0.75,-0.09 -0.368,-0.04 -0.367,-0.03 -0.363,-0.03 -0.363,-0.03 -0.711,-0.04 -0.352,-0.01 h -0.348 -0.343 l -0.809,0.02 -0.793,0.04 -0.769,0.08 -0.758,0.106 -0.738,0.133 -0.719,0.167 -0.703,0.196 -0.684,0.222 -0.668,0.258 -0.648,0.285 -0.629,0.317 -0.614,0.344 -0.597,0.375 -0.578,0.406 -0.559,0.437 -0.543,0.465 -0.523,0.496 -0.508,0.528 -0.488,0.554 -0.473,0.586 -0.453,0.617 -0.434,0.645 -0.418,0.676 -0.402,0.707 -0.379,0.738 -0.367,0.766 -0.344,0.797 -0.332,0.824 -0.309,0.859 -0.293,0.887 -0.277,0.918 -0.258,0.945 -0.238,0.977 -0.223,1.008 -0.207,1.035 -0.183,1.066 -0.172,1.098 -0.149,1.129 -0.132,1.156 -0.118,1.187 -0.097,1.219 -0.078,1.246 -0.063,1.278 -0.047,1.308 -0.027,1.336 -0.008,1.367 0.004,0.664 0.008,0.653 0.008,0.648 0.019,0.645 0.02,0.636 0.027,0.629 0.027,0.621 0.036,0.618 0.039,0.609 0.046,0.605 0.047,0.598 0.055,0.59 0.059,0.586 0.062,0.578 0.067,0.574 0.074,0.567 0.074,0.558 0.082,0.551 0.086,0.547 0.09,0.543 0.097,0.535 0.098,0.527 0.106,0.52 0.109,0.515 0.113,0.508 0.121,0.504 0.121,0.496 0.129,0.489 0.133,0.484 0.137,0.477 0.14,0.468 0.149,0.465 0.148,0.457 0.157,0.453 0.16,0.446 0.168,0.437 0.168,0.434 0.175,0.425 0.18,0.418 0.18,0.414 0.191,0.407 0.192,0.398 0.199,0.395 0.199,0.386 0.207,0.383 0.215,0.375 0.215,0.367 0.219,0.36 0.222,0.351 0.231,0.344 0.23,0.336 0.235,0.328 0.238,0.32 0.242,0.309 0.246,0.305 0.25,0.297 0.254,0.285 0.258,0.277 0.262,0.274 0.265,0.261 0.27,0.254 0.273,0.246 0.277,0.239 0.282,0.23 0.285,0.223 0.289,0.215 0.293,0.207 0.293,0.195 0.301,0.191 0.304,0.184 0.309,0.172 0.312,0.168 0.313,0.156 0.32,0.148 0.324,0.141 0.325,0.137 0.332,0.125 0.336,0.117 0.336,0.109 0.343,0.1 0.344,0.09 0.352,0.09 0.351,0.08 0.36,0.07 0.359,0.06 0.367,0.05 0.367,0.05 0.375,0.04 0.375,0.03 0.379,0.02 0.387,0.01 h 0.387 0.179 0.176 0.36 0.179 l 0.18,-0.01 0.176,-0.01 0.179,-0.01 0.36,-0.03 0.359,-0.04 0.18,-0.02 0.183,-0.02 0.36,-0.06 0.359,-0.06 0.184,-0.03 0.179,-0.03 0.184,-0.04 0.18,-0.04 0.183,-0.04 0.18,-0.04 0.184,-0.04 0.179,-0.05 0.184,-0.05 0.18,-0.05 0.367,-0.102 0.183,-0.05 0.18,-0.06 0.367,-0.117 0.367,-0.125 0.368,-0.133 0.55,-0.211 0.184,-0.07 0.187,-0.08 0.184,-0.08 0.184,-0.08 0.187,-0.08 0.367,-0.164 0.188,-0.08 0.183,-0.09 0.184,-0.08 0.184,-0.09 0.187,-0.09 0.184,-0.09 0.183,-0.09 0.184,-0.09 0.187,-0.09 0.735,-0.36 0.187,-0.09 1.102,-0.563 0.367,-0.195 0.184,-0.09 0.183,-0.1 0.188,-0.101 0.179,-0.1 0.184,-0.1 1.102,-0.609 0.918,-0.527 0.179,-0.106 0.184,-0.109 0.183,-0.106 0.551,-0.328 5.121,16.387 -0.476,0.289 -0.481,0.281 -0.476,0.274 -0.481,0.269 -0.476,0.266 -0.481,0.254 -0.476,0.25 -0.481,0.246 -0.476,0.234 -0.481,0.231 -0.476,0.226 -0.481,0.219 -0.476,0.211 -0.477,0.207 -0.477,0.199 -0.48,0.192 -0.477,0.187 -0.476,0.18 -0.477,0.176 -0.476,0.168 -0.481,0.16 -0.476,0.156 -0.477,0.148 -0.476,0.145 -0.954,0.266 -0.476,0.121 -0.477,0.117 -0.476,0.113 -0.477,0.102 -0.476,0.1 -0.473,0.09 -0.477,0.09 -0.476,0.08 -0.477,0.07 -0.476,0.07 -0.473,0.06 -0.477,0.06 -0.476,0.05 -0.473,0.04 -0.476,0.03 -0.477,0.03 -0.473,0.02 -0.476,0.02 h -0.473 -0.476 -0.465 -0.461 l -0.461,-0.02 -0.457,-0.02 -0.453,-0.02 -0.449,-0.03 -0.45,-0.03 -0.445,-0.04 -0.445,-0.05 -0.442,-0.06 -0.437,-0.06 -0.438,-0.07 -0.433,-0.07 -0.43,-0.08 -0.43,-0.08 -0.425,-0.09 -0.422,-0.09 -0.418,-0.1 -0.418,-0.105 -0.418,-0.11 -0.41,-0.117 -0.41,-0.121 -0.411,-0.125 -0.402,-0.133 -0.402,-0.137 -0.399,-0.144 -0.398,-0.149 -0.395,-0.156 -0.39,-0.16 -0.391,-0.164 -0.387,-0.172 -0.383,-0.176 -0.382,-0.183 -0.379,-0.188 -0.375,-0.195 -0.375,-0.199 -0.371,-0.207 -0.368,-0.211 -0.367,-0.215 -0.363,-0.223 -0.359,-0.226 -0.36,-0.235 -0.355,-0.238 -0.352,-0.246 -0.351,-0.25 -0.348,-0.258 -0.344,-0.258 -0.343,-0.269 -0.336,-0.27 -0.336,-0.277 -0.328,-0.277 -0.329,-0.289 -0.324,-0.29 -0.32,-0.296 -0.317,-0.301 -0.312,-0.305 -0.309,-0.308 -0.308,-0.317 -0.301,-0.32 -0.301,-0.324 -0.586,-0.665 -0.289,-0.339 -0.285,-0.348 -0.281,-0.348 -0.278,-0.355 -0.277,-0.36 -0.269,-0.363 -0.266,-0.371 -0.266,-0.375 -0.261,-0.379 -0.254,-0.383 -0.254,-0.39 -0.25,-0.395 -0.246,-0.398 -0.246,-0.403 -0.239,-0.41 -0.234,-0.414 -0.234,-0.418 -0.227,-0.422 -0.227,-0.429 -0.222,-0.434 -0.219,-0.437 -0.215,-0.442 -0.211,-0.449 -0.207,-0.453 -0.203,-0.457 -0.203,-0.465 -0.195,-0.469 -0.196,-0.472 -0.187,-0.477 -0.188,-0.48 -0.183,-0.489 -0.18,-0.488 -0.176,-0.496 -0.168,-0.496 -0.168,-0.5 -0.164,-0.504 -0.156,-0.508 -0.156,-0.512 -0.153,-0.511 -0.144,-0.52 -0.145,-0.523 -0.136,-0.524 -0.137,-0.527 -0.129,-0.531 -0.129,-0.536 -0.121,-0.539 -0.117,-0.543 -0.117,-0.546 -0.11,-0.547 -0.105,-0.555 -0.102,-0.555 -0.101,-0.558 -0.094,-0.567 -0.09,-0.566 -0.086,-0.57 -0.082,-0.571 -0.078,-0.578 -0.074,-0.582 -0.071,-0.582 -0.066,-0.59 -0.062,-0.59 -0.059,-0.593 -0.055,-0.598 -0.05,-0.602 -0.047,-0.605 -0.043,-0.605 -0.071,-1.227 -0.031,-0.621 -0.027,-0.621 -0.02,-0.625 -0.019,-0.629 -0.012,-0.633 -0.012,-0.637 -0.008,-0.64 v -0.641 l 0.004,-1.019 0.012,-1.008 0.02,-1 0.031,-0.985 0.035,-0.976 0.047,-0.969 0.051,-0.957 0.062,-0.945 0.07,-0.934 0.079,-0.926 0.086,-0.914 0.093,-0.906 0.102,-0.895 0.109,-0.882 0.121,-0.875 0.125,-0.864 0.137,-0.851 0.141,-0.844 0.152,-0.832 0.16,-0.82 0.168,-0.813 0.176,-0.801 0.183,-0.789 0.192,-0.781 0.203,-0.769 0.207,-0.758 0.219,-0.75 0.222,-0.738 0.235,-0.731 0.242,-0.715 0.25,-0.711 0.258,-0.695 0.265,-0.688 0.274,-0.675 0.285,-0.668 0.289,-0.657 0.297,-0.644 0.309,-0.633 0.316,-0.625 0.32,-0.617 0.332,-0.602 0.34,-0.593 0.348,-0.586 0.359,-0.571 0.364,-0.562 0.371,-0.555 0.379,-0.539 0.39,-0.531 0.395,-0.516 0.402,-0.508 0.406,-0.492 0.418,-0.48 0.422,-0.473 0.434,-0.457 0.437,-0.445 0.446,-0.434 0.453,-0.422 0.461,-0.41 0.468,-0.398 0.473,-0.387 0.48,-0.375 0.493,-0.363 0.496,-0.352 0.504,-0.34 0.511,-0.324 0.516,-0.316 0.527,-0.305 0.532,-0.289 0.539,-0.281 0.547,-0.266 0.554,-0.258 0.563,-0.242 0.57,-0.234 0.578,-0.219 0.582,-0.207 0.59,-0.199 0.598,-0.184 0.605,-0.172 0.613,-0.16 0.621,-0.148 0.629,-0.137 0.633,-0.125 0.641,-0.113 0.648,-0.102 0.657,-0.09 0.664,-0.07 0.671,-0.07 0.68,-0.05 0.684,-0.04 0.691,-0.03 0.703,-0.02 h 0.707 0.492 z m -69.0601,0 h 0.2901 l 0.8669,0.01 h 0.289 0.285 0.289 l 0.2851,0.01 h 0.289 l 0.2849,0.01 0.289,0.01 0.2861,0.01 0.2849,0.02 0.285,0.02 0.289,0.02 0.5701,0.04 0.282,0.02 0.8549,0.07 0.2811,0.03 0.2849,0.03 0.282,0.03 0.285,0.03 0.562,0.06 0.285,0.03 1.1261,0.14 0.2809,0.04 0.2771,0.04 0.2809,0.04 0.2821,0.04 0.2769,0.04 0.2811,0.04 0.278,0.05 0.2809,0.05 0.554,0.09 0.282,0.05 0.832,0.152 0.2771,0.06 0.2809,0.05 0.278,0.06 0.281,0.06 0.2851,0.06 0.2809,0.06 0.2821,0.07 0.5699,0.133 0.285,0.07 0.2891,0.07 0.285,0.07 0.2889,0.08 0.289,0.07 0.289,0.08 0.293,0.08 0.2901,0.08 0.2919,0.08 0.586,0.172 0.2971,0.09 0.293,0.09 0.8909,0.281 0.601,0.195 0.2971,0.102 0.301,0.101 0.3049,0.106 0.3011,0.105 0.304,0.106 0.61,0.219 0.304,0.113 0.3089,0.113 0.3051,0.117 0.308,0.117 0.3089,0.122 0.3121,0.117 0.3089,0.125 0.937,0.375 0.313,0.133 v 49.293 H 273.425 v -16.778 h 14.196 v -19.836 l -0.668,-0.164 -0.8911,-0.203 -0.2189,-0.05 -0.222,-0.04 -0.2231,-0.05 -0.2189,-0.04 -0.4451,-0.09 -0.219,-0.04 -0.223,-0.04 -0.2179,-0.03 -0.2231,-0.04 -0.2189,-0.03 -0.218,-0.03 -0.2231,-0.03 -0.2189,-0.03 -0.2191,-0.03 -0.2179,-0.03 -0.2231,-0.03 -0.2189,-0.03 -0.6561,-0.07 -0.2189,-0.02 -0.2191,-0.02 -0.218,-0.02 -0.219,-0.02 -0.2149,-0.02 -0.437,-0.03 -0.2191,-0.01 -0.215,-0.01 -0.2189,-0.01 h -0.2191 -0.2139 -0.2191 -0.215 -0.2189 -0.2151 -0.218 -0.215 -0.41 l -0.4099,0.01 -0.403,0.02 -0.3981,0.03 -0.399,0.03 -0.39,0.04 -0.387,0.05 -0.3829,0.06 -0.375,0.07 -0.375,0.07 -0.371,0.08 -0.3631,0.09 -0.36,0.1 -0.359,0.105 -0.352,0.11 -0.347,0.121 -0.3439,0.125 -0.34,0.136 -0.336,0.141 -0.328,0.152 -0.3281,0.157 -0.32,0.168 -0.321,0.172 -0.312,0.183 -0.309,0.188 -0.308,0.195 -0.301,0.207 -0.293,0.211 -0.293,0.219 -0.289,0.23 -0.285,0.235 -0.278,0.242 -0.2769,0.25 -0.269,0.258 -0.2661,0.269 -0.2619,0.273 -0.2581,0.282 -0.2529,0.289 -0.25,0.297 -0.2471,0.304 -0.2419,0.313 -0.2341,0.32 -0.2339,0.328 -0.2271,0.336 -0.2229,0.34 -0.218,0.352 -0.2151,0.359 -0.211,0.367 -0.207,0.371 -0.1989,0.379 -0.196,0.387 -0.1911,0.391 -0.1879,0.402 -0.1831,0.406 -0.176,0.414 -0.172,0.418 -0.168,0.43 -0.164,0.433 -0.156,0.442 -0.153,0.449 -0.152,0.453 -0.141,0.465 -0.14,0.469 -0.1369,0.472 -0.129,0.485 -0.125,0.488 -0.121,0.5 -0.1131,0.5 -0.1129,0.512 -0.1061,0.519 -0.102,0.524 -0.097,0.531 -0.09,0.539 -0.0899,0.543 -0.082,0.551 -0.0781,0.558 -0.07,0.567 -0.071,0.574 -0.062,0.578 -0.0589,0.586 -0.054,0.594 -0.0511,0.601 -0.043,0.61 -0.043,0.613 -0.035,0.621 -0.032,0.629 -0.023,0.633 -0.0229,0.641 -0.0161,0.652 -0.0119,0.652 -0.008,0.664 v 1.313 l 0.0121,0.637 0.0119,0.628 0.0231,0.625 0.0239,0.618 0.035,0.613 0.035,0.609 0.047,0.602 0.047,0.594 0.058,0.593 0.059,0.582 0.0701,0.582 0.071,0.571 0.082,0.57 0.0819,0.559 0.093,0.558 0.0941,0.551 0.106,0.543 0.105,0.539 0.117,0.531 0.1169,0.528 0.129,0.523 0.1291,0.516 0.1409,0.511 0.1411,0.504 0.1519,0.5 0.1521,0.493 0.164,0.488 0.168,0.48 0.172,0.477 0.1799,0.469 0.183,0.464 0.192,0.461 0.1951,0.453 0.203,0.446 0.207,0.441 0.215,0.438 0.2189,0.429 0.226,0.426 0.231,0.418 0.2381,0.414 0.2419,0.406 0.25,0.403 0.2541,0.394 0.2619,0.391 0.2661,0.387 0.273,0.375 0.274,0.371 0.2809,0.359 0.281,0.356 0.2891,0.343 0.289,0.336 0.293,0.328 0.3009,0.321 0.301,0.308 0.3081,0.305 0.3089,0.293 0.3161,0.285 0.3169,0.281 0.324,0.27 0.3241,0.262 0.328,0.25 0.336,0.246 0.336,0.238 0.3439,0.227 0.3441,0.218 0.347,0.211 0.3559,0.207 0.3551,0.192 0.36,0.187 0.3669,0.18 0.367,0.168 0.371,0.164 0.379,0.152 0.379,0.145 0.383,0.137 0.386,0.128 0.395,0.122 0.394,0.113 0.399,0.101 0.4021,0.1 0.4099,0.09 0.4111,0.08 0.414,0.07 0.418,0.06 0.4249,0.06 0.4261,0.05 0.4299,0.04 0.433,0.03 0.438,0.02 0.4451,0.01 h 0.446 0.3819 0.3871 l 0.3829,-0.01 0.7661,-0.04 0.3819,-0.03 0.3791,-0.03 0.3829,-0.04 0.379,-0.04 0.379,-0.05 0.379,-0.05 0.379,-0.06 0.3791,-0.06 0.375,-0.07 0.379,-0.07 0.3739,-0.08 0.3761,-0.08 0.3739,-0.09 0.3761,-0.09 0.371,-0.09 0.3709,-0.102 0.375,-0.106 0.742,-0.226 0.367,-0.121 0.3711,-0.125 0.3669,-0.129 0.371,-0.137 0.3681,-0.14 0.3669,-0.145 0.3631,-0.148 0.367,-0.157 0.364,-0.16 0.3669,-0.164 0.7261,-0.344 0.364,-0.179 0.3589,-0.188 0.3631,-0.187 0.36,-0.196 0.3589,-0.199 0.359,-0.203 0.36,-0.207 0.3591,-0.215 0.356,-0.219 0.3549,-0.226 5.2811,16.133 -0.4651,0.25 -0.468,0.246 -0.469,0.242 -0.4689,0.234 -0.9371,0.453 -0.473,0.219 -0.4689,0.211 -0.472,0.207 -0.4731,0.203 -0.477,0.196 -0.472,0.191 -0.4769,0.188 -0.476,0.179 -0.953,0.344 -0.4811,0.16 -0.477,0.16 -0.48,0.153 -0.4799,0.144 -0.481,0.141 -0.4841,0.137 -0.485,0.128 -0.484,0.125 -0.4839,0.121 -0.485,0.114 -0.4841,0.105 -0.4879,0.102 -0.489,0.1 -0.4881,0.09 -0.488,0.09 -0.4919,0.08 -0.489,0.07 -0.4921,0.07 -0.492,0.06 -0.496,0.06 -0.4919,0.05 -0.4971,0.05 -0.496,0.04 -0.4959,0.03 -0.496,0.03 -0.496,0.03 -1,0.03 h -0.5 -0.5 -0.797 l -0.789,-0.01 -0.7811,-0.03 -0.7729,-0.04 -0.7661,-0.05 -0.758,-0.07 -0.75,-0.08 -0.742,-0.09 -0.7379,-0.102 -0.7271,-0.117 -0.7189,-0.129 -0.7151,-0.137 -0.7029,-0.152 -0.699,-0.168 -0.6911,-0.176 -0.68,-0.187 -0.6759,-0.2 -0.668,-0.214 -0.66,-0.227 -0.6521,-0.234 -0.6449,-0.25 -0.6371,-0.262 -0.6279,-0.274 -0.6221,-0.285 -0.6129,-0.3 -0.6091,-0.309 -0.5979,-0.324 -0.5901,-0.336 -0.586,-0.344 -0.5739,-0.359 -0.5701,-0.371 -0.563,-0.383 -0.5499,-0.399 -0.5471,-0.406 -0.5389,-0.422 -0.5321,-0.429 -0.523,-0.446 -0.516,-0.457 -0.5069,-0.469 -0.5,-0.48 -0.4931,-0.492 -0.484,-0.504 -0.4799,-0.52 -0.4691,-0.527 -0.461,-0.543 -0.457,-0.555 -0.446,-0.562 -0.437,-0.574 -0.4259,-0.586 -0.418,-0.594 -0.4061,-0.602 -0.3979,-0.613 -0.3871,-0.621 -0.379,-0.633 -0.367,-0.64 -0.3559,-0.653 -0.3511,-0.66 -0.336,-0.668 -0.3279,-0.68 -0.321,-0.691 -0.3081,-0.699 -0.301,-0.707 -0.289,-0.719 -0.2769,-0.727 -0.2701,-0.738 -0.2619,-0.746 -0.25,-0.758 -0.2381,-0.765 -0.2299,-0.774 -0.2231,-0.785 -0.211,-0.797 -0.199,-0.805 -0.1919,-0.812 -0.1831,-0.824 -0.172,-0.832 -0.16,-0.844 -0.153,-0.852 -0.144,-0.863 -0.129,-0.871 -0.125,-0.883 -0.1129,-0.89 -0.1021,-0.899 -0.0939,-0.91 -0.082,-0.918 -0.0741,-0.93 -0.0619,-0.937 -0.0551,-0.949 -0.047,-0.957 -0.031,-0.969 -0.028,-0.977 -0.011,-0.988 -0.008,-0.996 0.004,-1.024 0.015,-1.011 0.02,-1.004 0.0311,-0.992 0.0349,-0.985 0.0471,-0.972 0.0549,-0.961 0.0661,-0.95 0.071,-0.941 0.082,-0.93 0.086,-0.922 0.097,-0.906 0.1059,-0.902 0.113,-0.887 0.125,-0.879 0.129,-0.867 0.1411,-0.859 0.1479,-0.844 0.1561,-0.836 0.164,-0.828 0.172,-0.816 0.1839,-0.805 0.1911,-0.793 0.1989,-0.785 0.207,-0.774 0.2151,-0.765 0.2229,-0.754 0.2341,-0.742 0.239,-0.731 0.25,-0.723 0.2569,-0.711 0.266,-0.703 0.277,-0.687 0.2821,-0.684 0.293,-0.668 0.2999,-0.66 0.309,-0.648 0.316,-0.637 0.3251,-0.629 0.332,-0.617 0.3429,-0.61 0.352,-0.597 0.3591,-0.586 0.3669,-0.574 0.375,-0.567 0.3871,-0.554 0.3909,-0.543 0.4021,-0.536 0.4059,-0.519 0.414,-0.508 0.4261,-0.496 0.4299,-0.484 0.437,-0.473 0.446,-0.461 0.453,-0.445 0.461,-0.438 0.4691,-0.426 0.476,-0.41 0.4839,-0.402 0.489,-0.387 0.5,-0.379 0.5081,-0.363 0.511,-0.352 0.5239,-0.343 0.5271,-0.328 0.539,-0.317 0.543,-0.304 0.5509,-0.293 0.558,-0.282 0.571,-0.269 0.574,-0.254 0.582,-0.246 0.59,-0.235 0.5981,-0.218 0.601,-0.211 0.6129,-0.196 0.621,-0.187 0.629,-0.172 0.6331,-0.164 0.6449,-0.148 0.6481,-0.137 0.6599,-0.125 0.664,-0.113 0.6721,-0.102 0.6839,-0.09 0.687,-0.08 0.696,-0.07 0.703,-0.05 0.711,-0.04 0.718,-0.03 0.727,-0.02 h 0.734 0.289 z m 164.517,1.313 0.4841,0.02 0.4879,0.04 0.485,0.06 0.4801,0.07 0.481,0.09 0.472,0.109 0.4729,0.121 0.469,0.129 0.4651,0.157 0.457,0.168 0.4529,0.175 0.4451,0.204 0.438,0.21 0.433,0.223 0.422,0.242 0.4179,0.254 0.4061,0.266 0.399,0.285 0.3859,0.293 0.3831,0.305 0.3629,0.32 0.36,0.332 0.347,0.34 0.3331,0.359 0.3199,0.363 0.3161,0.375 0.293,0.387 0.2849,0.399 0.274,0.402 0.254,0.414 0.246,0.422 0.2301,0.43 0.211,0.437 0.2029,0.445 0.188,0.45 0.168,0.457 0.1521,0.461 0.1449,0.464 0.121,0.473 0.1091,0.477 0.0939,0.476 0.0741,0.485 0.063,0.484 0.047,0.484 0.019,0.364 0.016,0.363 0.007,0.367 v 215.043 l -0.015,0.488 -0.024,0.485 -0.0349,0.488 -0.0621,0.484 -0.071,0.481 -0.0849,0.48 -0.11,0.473 -0.1171,0.473 -0.1329,0.468 -0.1561,0.461 -0.168,0.461 -0.1759,0.453 -0.203,0.446 -0.211,0.437 -0.2231,0.434 -0.2419,0.422 -0.254,0.418 -0.2651,0.406 -0.282,0.398 -0.2959,0.387 -0.3051,0.383 -0.3199,0.363 -0.332,0.36 -0.3401,0.347 -0.3599,0.332 -0.363,0.321 -0.375,0.316 -0.387,0.293 -0.3941,0.285 -0.403,0.273 -0.418,0.254 -0.4209,0.243 -0.4301,0.234 -0.438,0.211 -0.4449,0.199 -0.4491,0.192 -0.457,0.167 -0.461,0.153 -0.4649,0.144 -0.4731,0.121 -0.476,0.11 -0.4769,0.09 -0.4841,0.07 -0.481,0.06 -0.4879,0.05 -0.3631,0.02 -0.3629,0.01 H 440.816 323.5201 l -63.5361,-63.535 v -58.644 h 9.778 v 48.871 h 48.871 l 0.4881,0.01 0.4839,0.02 0.489,0.04 0.4841,0.06 0.481,0.08 0.48,0.09 0.477,0.105 0.4679,0.121 0.4731,0.133 0.4609,0.156 0.4571,0.164 0.453,0.18 0.4449,0.199 0.438,0.211 0.4341,0.223 0.4209,0.246 0.418,0.254 0.4111,0.262 0.394,0.285 0.3869,0.293 0.3831,0.304 0.3629,0.325 0.3591,0.332 0.3479,0.339 0.332,0.356 0.3241,0.367 0.313,0.371 0.293,0.391 0.2849,0.394 0.2731,0.403 0.254,0.418 0.246,0.422 0.2309,0.425 0.2111,0.442 0.2029,0.441 0.1871,0.449 0.168,0.457 0.1559,0.465 0.1411,0.465 0.121,0.473 0.11,0.472 0.097,0.481 0.071,0.48 0.062,0.485 0.0469,0.484 0.019,0.363 0.0161,0.368 0.008,0.367 v 48.871 h 107.519 l 0.3681,-0.01 0.48,-0.06 0.477,-0.11 0.461,-0.152 0.4449,-0.203 0.422,-0.242 0.3941,-0.286 0.3669,-0.32 0.332,-0.359 0.293,-0.387 0.254,-0.418 0.2111,-0.437 0.168,-0.458 0.1169,-0.472 0.075,-0.485 0.0231,-0.484 v -215.043 l -0.0121,-0.363 -0.062,-0.485 -0.1089,-0.476 -0.153,-0.461 -0.203,-0.445 -0.2421,-0.422 -0.285,-0.395 -0.321,-0.363 -0.3589,-0.332 -0.387,-0.297 -0.4181,-0.254 -0.437,-0.211 -0.457,-0.164 -0.4729,-0.121 -0.4801,-0.07 -0.489,-0.02 h -58.773 v -9.773 h 58.773 l 0.489,0.01 z"
       style="fill:#ffffff;fill-opacity:1;fill-rule:evenodd;stroke:#ffffff;stroke-width:1.22175003;stroke-linecap:butt;stroke-linejoin:miter;stroke-miterlimit:4;stroke-dasharray:none;stroke-opacity:1"
       transform="matrix(1.3333333,0,0,-1.3333333,-288,21167.381)" />
  </g>
</svg>
