solid OpenSCAD_Model
  facet normal -1 0 0
    outer loop
      vertex 0 0 0
      vertex 0 0 4
      vertex 0 20 4
    endloop
  endfacet
  facet normal 0 0 -1
    outer loop
      vertex 0 0 0
      vertex 0 20 0
      vertex 6 14 0
    endloop
  endfacet
  facet normal -1 0 0
    outer loop
      vertex 0 0 0
      vertex 0 20 4
      vertex 0 20 0
    endloop
  endfacet
  facet normal 0 0 -1
    outer loop
      vertex 0 0 0
      vertex 6 6 0
      vertex 14 6 0
    endloop
  endfacet
  facet normal 0 0 -1
    outer loop
      vertex 0 0 0
      vertex 6 14 0
      vertex 6 6 0
    endloop
  endfacet
  facet normal 0 0 -1
    outer loop
      vertex 0 0 0
      vertex 14 6 0
      vertex 20 0 0
    endloop
  endfacet
  facet normal 0 -1 0
    outer loop
      vertex 0 0 0
      vertex 20 0 0
      vertex 20 0 4
    endloop
  endfacet
  facet normal 0 -1 0
    outer loop
      vertex 0 0 0
      vertex 20 0 4
      vertex 0 0 4
    endloop
  endfacet
  facet normal 0 0 1
    outer loop
      vertex 0 0 4
      vertex 6 6 4
      vertex 0 20 4
    endloop
  endfacet
  facet normal 0 0 1
    outer loop
      vertex 0 0 4
      vertex 20 0 4
      vertex 6 6 4
    endloop
  endfacet
  facet normal 0 1 0
    outer loop
      vertex 0 20 0
      vertex 0 20 4
      vertex 20 20 0
    endloop
  endfacet
  facet normal 0 0 -1
    outer loop
      vertex 0 20 0
      vertex 20 20 0
      vertex 6 14 0
    endloop
  endfacet
  facet normal 0 0 1
    outer loop
      vertex 0 20 4
      vertex 6 6 4
      vertex 6 14 4
    endloop
  endfacet
  facet normal 0 0 1
    outer loop
      vertex 0 20 4
      vertex 6 14 4
      vertex 14 14 4
    endloop
  endfacet
  facet normal 0 0 1
    outer loop
      vertex 0 20 4
      vertex 14 14 4
      vertex 20 20 4
    endloop
  endfacet
  facet normal 0 1 0
    outer loop
      vertex 0 20 4
      vertex 20 20 4
      vertex 20 20 0
    endloop
  endfacet
  facet normal 0 1 0
    outer loop
      vertex 6 6 0
      vertex 6 6 4
      vertex 14 6 4
    endloop
  endfacet
  facet normal 1 0 0
    outer loop
      vertex 6 6 0
      vertex 6 14 0
      vertex 6 14 4
    endloop
  endfacet
  facet normal 1 0 0
    outer loop
      vertex 6 6 0
      vertex 6 14 4
      vertex 6 6 4
    endloop
  endfacet
  facet normal 0 1 0
    outer loop
      vertex 6 6 0
      vertex 14 6 4
      vertex 14 6 0
    endloop
  endfacet
  facet normal 0 0 1
    outer loop
      vertex 6 6 4
      vertex 20 0 4
      vertex 14 6 4
    endloop
  endfacet
  facet normal 0 -1 0
    outer loop
      vertex 6 14 0
      vertex 14 14 0
      vertex 6 14 4
    endloop
  endfacet
  facet normal 0 0 -1
    outer loop
      vertex 6 14 0
      vertex 20 20 0
      vertex 14 14 0
    endloop
  endfacet
  facet normal 0 -1 0
    outer loop
      vertex 6 14 4
      vertex 14 14 0
      vertex 14 14 4
    endloop
  endfacet
  facet normal -1 0 0
    outer loop
      vertex 14 6 0
      vertex 14 6 4
      vertex 14 14 0
    endloop
  endfacet
  facet normal 0 0 -1
    outer loop
      vertex 14 6 0
      vertex 14 14 0
      vertex 20 20 0
    endloop
  endfacet
  facet normal 0 0 -1
    outer loop
      vertex 14 6 0
      vertex 20 20 0
      vertex 20 0 0
    endloop
  endfacet
  facet normal -1 0 0
    outer loop
      vertex 14 6 4
      vertex 14 14 4
      vertex 14 14 0
    endloop
  endfacet
  facet normal 0 0 1
    outer loop
      vertex 14 6 4
      vertex 20 0 4
      vertex 14 14 4
    endloop
  endfacet
  facet normal 0 0 1
    outer loop
      vertex 14 14 4
      vertex 20 0 4
      vertex 20 20 4
    endloop
  endfacet
  facet normal 1 0 0
    outer loop
      vertex 20 0 0
      vertex 20 20 0
      vertex 20 0 4
    endloop
  endfacet
  facet normal 1 0 0
    outer loop
      vertex 20 0 4
      vertex 20 20 0
      vertex 20 20 4
    endloop
  endfacet
endsolid OpenSCAD_Model
