solid OpenSCAD_Model
  facet normal -1 0 0
    outer loop
      vertex 0 0 0
      vertex 0 0 1
      vertex 0 3.4 1
    endloop
  endfacet
  facet normal 0 0 -1
    outer loop
      vertex 0 0 0
      vertex 0 3.4 0
      vertex 3.4 3.4 0
    endloop
  endfacet
  facet normal -1 0 0
    outer loop
      vertex 0 0 0
      vertex 0 3.4 1
      vertex 0 3.4 0
    endloop
  endfacet
  facet normal 0 -1 0
    outer loop
      vertex 0 0 0
      vertex 3.4 0 0
      vertex 3.4 0 1
    endloop
  endfacet
  facet normal 0 -1 0
    outer loop
      vertex 0 0 0
      vertex 3.4 0 1
      vertex 0 0 1
    endloop
  endfacet
  facet normal 0 0 -1
    outer loop
      vertex 0 0 0
      vertex 3.4 3.4 0
      vertex 3.4 0 0
    endloop
  endfacet
  facet normal 0 0 1
    outer loop
      vertex 0 0 1
      vertex 3.4 0 1
      vertex 3.4 3.4 1
    endloop
  endfacet
  facet normal 0 0 1
    outer loop
      vertex 0 0 1
      vertex 3.4 3.4 1
      vertex 0 3.4 1
    endloop
  endfacet
  facet normal 0 1 0
    outer loop
      vertex 0 3.4 0
      vertex 0 3.4 1
      vertex 3.4 3.4 1
    endloop
  endfacet
  facet normal 0 1 0
    outer loop
      vertex 0 3.4 0
      vertex 3.4 3.4 1
      vertex 3.4 3.4 0
    endloop
  endfacet
  facet normal 1 0 0
    outer loop
      vertex 3.4 0 0
      vertex 3.4 3.4 0
      vertex 3.4 3.4 1
    endloop
  endfacet
  facet normal 1 0 0
    outer loop
      vertex 3.4 0 0
      vertex 3.4 3.4 1
      vertex 3.4 0 1
    endloop
  endfacet
endsolid OpenSCAD_Model
