solid OpenSCAD_Model
  facet normal -1 0 0
    outer loop
      vertex 0 0 0
      vertex 0 0 1
      vertex 0 1 1
    endloop
  endfacet
  facet normal 0 0 -1
    outer loop
      vertex 0 0 0
      vertex 0 1 0
      vertex 0.5 1 0
    endloop
  endfacet
  facet normal -1 0 0
    outer loop
      vertex 0 0 0
      vertex 0 1 1
      vertex 0 1 0
    endloop
  endfacet
  facet normal 0 0 -1
    outer loop
      vertex 0 0 0
      vertex 0.5 1 0
      vertex 1 0.5 0
    endloop
  endfacet
  facet normal 0 -1 0
    outer loop
      vertex 0 0 0
      vertex 1 0 0
      vertex 1 0 1
    endloop
  endfacet
  facet normal 0 -1 0
    outer loop
      vertex 0 0 0
      vertex 1 0 1
      vertex 0 0 1
    endloop
  endfacet
  facet normal 0 0 -1
    outer loop
      vertex 0 0 0
      vertex 1 0.5 0
      vertex 1 0 0
    endloop
  endfacet
  facet normal 0 0 1
    outer loop
      vertex 0 0 1
      vertex 0.5 1 1
      vertex 0 1 1
    endloop
  endfacet
  facet normal 0 0 1
    outer loop
      vertex 0 0 1
      vertex 1 0 1
      vertex 1 0.5 1
    endloop
  endfacet
  facet normal 0 0 1
    outer loop
      vertex 0 0 1
      vertex 1 0.5 1
      vertex 0.5 1 1
    endloop
  endfacet
  facet normal 0 1 0
    outer loop
      vertex 0 1 0
      vertex 0 1 1
      vertex 0.5 1 1
    endloop
  endfacet
  facet normal 0 1 0
    outer loop
      vertex 0 1 0
      vertex 0.5 1 1
      vertex 0.5 1 0
    endloop
  endfacet
  facet normal -1 0 0
    outer loop
      vertex 0.5 1 0
      vertex 0.5 1 1
      vertex 0.5 1.5 1
    endloop
  endfacet
  facet normal 0 0 -1
    outer loop
      vertex 0.5 1 0
      vertex 0.5 1.5 0
      vertex 1.5 1.5 0
    endloop
  endfacet
  facet normal -1 0 0
    outer loop
      vertex 0.5 1 0
      vertex 0.5 1.5 1
      vertex 0.5 1.5 0
    endloop
  endfacet
  facet normal 0 0 -1
    outer loop
      vertex 0.5 1 0
      vertex 1.5 1.5 0
      vertex 1 0.5 0
    endloop
  endfacet
  facet normal -0 0 1
    outer loop
      vertex 0.5 1 1
      vertex 1 0.5 1
      vertex 1.5 1.5 1
    endloop
  endfacet
  facet normal 0 0 1
    outer loop
      vertex 0.5 1 1
      vertex 1.5 1.5 1
      vertex 0.5 1.5 1
    endloop
  endfacet
  facet normal 0 1 0
    outer loop
      vertex 0.5 1.5 0
      vertex 0.5 1.5 1
      vertex 1.5 1.5 0
    endloop
  endfacet
  facet normal -0 1 0
    outer loop
      vertex 0.5 1.5 1
      vertex 1.5 1.5 1
      vertex 1.5 1.5 0
    endloop
  endfacet
  facet normal 1 0 0
    outer loop
      vertex 1 0 0
      vertex 1 0.5 0
      vertex 1 0.5 1
    endloop
  endfacet
  facet normal 1 0 0
    outer loop
      vertex 1 0 0
      vertex 1 0.5 1
      vertex 1 0 1
    endloop
  endfacet
  facet normal 0 -1 0
    outer loop
      vertex 1 0.5 0
      vertex 1.5 0.5 0
      vertex 1.5 0.5 1
    endloop
  endfacet
  facet normal 0 -1 0
    outer loop
      vertex 1 0.5 0
      vertex 1.5 0.5 1
      vertex 1 0.5 1
    endloop
  endfacet
  facet normal 0 0 -1
    outer loop
      vertex 1 0.5 0
      vertex 1.5 1.5 0
      vertex 1.5 0.5 0
    endloop
  endfacet
  facet normal 0 0 1
    outer loop
      vertex 1 0.5 1
      vertex 1.5 0.5 1
      vertex 1.5 1.5 1
    endloop
  endfacet
  facet normal 1 0 0
    outer loop
      vertex 1.5 0.5 0
      vertex 1.5 1.5 0
      vertex 1.5 0.5 1
    endloop
  endfacet
  facet normal 1 -0 0
    outer loop
      vertex 1.5 0.5 1
      vertex 1.5 1.5 0
      vertex 1.5 1.5 1
    endloop
  endfacet
endsolid OpenSCAD_Model
