  0
SECTION
  2
HEADER
  9
$ACADVER
  1
AC1009
  9
$INSBASE
 10
0.0
 20
0.0
 30
0.0
  9
$EXTMIN
 10
7.5466819112164822
 20
5.0470202669838038
 30
0.0
  9
$EXTMAX
 10
20.0055800412836184
 20
8.74982441685958
 30
0.0
  9
$LIMMIN
 10
0.0
 20
0.0
  9
$LIMMAX
 10
12.0
 20
9.0
  9
$ORTHOMODE
 70
     0
  9
$REGENMODE
 70
     1
  9
$FILLMODE
 70
     1
  9
$QTEXTMODE
 70
     0
  9
$MIRRTEXT
 70
     0
  9
$DRAGMODE
 70
     2
  9
$LTSCALE
 40
1.0
  9
$OSMODE
 70
    37
  9
$ATTMODE
 70
     1
  9
$TEXTSIZE
 40
0.2
  9
$TRACEWID
 40
0.05
  9
$TEXTSTYLE
  7
STANDARD
  9
$CLAYER
  8
0
  9
$CELTYPE
  6
BYLAYER
  9
$CECOLOR
 62
   256
  9
$DIMSCALE
 40
1.0
  9
$DIMASZ
 40
0.18
  9
$DIMEXO
 40
0.0625
  9
$DIMDLI
 40
0.38
  9
$DIMRND
 40
0.0
  9
$DIMDLE
 40
0.0
  9
$DIMEXE
 40
0.18
  9
$DIMTP
 40
0.0
  9
$DIMTM
 40
0.0
  9
$DIMTXT
 40
0.18
  9
$DIMCEN
 40
0.09
  9
$DIMTSZ
 40
0.0
  9
$DIMTOL
 70
     0
  9
$DIMLIM
 70
     0
  9
$DIMTIH
 70
     1
  9
$DIMTOH
 70
     1
  9
$DIMSE1
 70
     0
  9
$DIMSE2
 70
     0
  9
$DIMTAD
 70
     0
  9
$DIMZIN
 70
     0
  9
$DIMBLK
  1

  9
$DIMASO
 70
     1
  9
$DIMSHO
 70
     1
  9
$DIMPOST
  1

  9
$DIMAPOST
  1

  9
$DIMALT
 70
     0
  9
$DIMALTD
 70
     2
  9
$DIMALTF
 40
25.3999999999999986
  9
$DIMLFAC
 40
1.0
  9
$DIMTOFL
 70
     0
  9
$DIMTVP
 40
0.0
  9
$DIMTIX
 70
     0
  9
$DIMSOXD
 70
     0
  9
$DIMSAH
 70
     0
  9
$DIMBLK1
  1

  9
$DIMBLK2
  1

  9
$DIMSTYLE
  2
STANDARD
  9
$DIMCLRD
 70
     0
  9
$DIMCLRE
 70
     0
  9
$DIMCLRT
 70
     0
  9
$DIMTFAC
 40
1.0
  9
$DIMGAP
 40
0.09
  9
$LUNITS
 70
     2
  9
$LUPREC
 70
     4
  9
$SKETCHINC
 40
0.1
  9
$FILLETRAD
 40
0.0
  9
$AUNITS
 70
     0
  9
$AUPREC
 70
     0
  9
$MENU
  1
.
  9
$ELEVATION
 40
0.0
  9
$PELEVATION
 40
0.0
  9
$THICKNESS
 40
0.0
  9
$LIMCHECK
 70
     0
  9
$BLIPMODE
 70
     0
  9
$CHAMFERA
 40
0.0
  9
$CHAMFERB
 40
0.0
  9
$SKPOLY
 70
     0
  9
$TDCREATE
 40
2458699.6659027771092951
  9
$TDUPDATE
 40
2458700.7015046300366521
  9
$TDINDWG
 40
0.0011574074
  9
$TDUSRTIMER
 40
0.0011574074
  9
$USRTIMER
 70
     1
  9
$ANGBASE
 50
0.0
  9
$ANGDIR
 70
     0
  9
$PDMODE
 70
     0
  9
$PDSIZE
 40
0.0
  9
$PLINEWID
 40
0.0
  9
$COORDS
 70
     1
  9
$SPLFRAME
 70
     0
  9
$SPLINETYPE
 70
     6
  9
$SPLINESEGS
 70
     8
  9
$ATTDIA
 70
     1
  9
$ATTREQ
 70
     1
  9
$HANDLING
 70
     1
  9
$HANDSEED
  5
371
  9
$SURFTAB1
 70
     6
  9
$SURFTAB2
 70
     6
  9
$SURFTYPE
 70
     6
  9
$SURFU
 70
     6
  9
$SURFV
 70
     6
  9
$UCSNAME
  2

  9
$UCSORG
 10
0.0
 20
0.0
 30
0.0
  9
$UCSXDIR
 10
1.0
 20
0.0
 30
0.0
  9
$UCSYDIR
 10
0.0
 20
1.0
 30
0.0
  9
$PUCSNAME
  2

  9
$PUCSORG
 10
0.0
 20
0.0
 30
0.0
  9
$PUCSXDIR
 10
1.0
 20
0.0
 30
0.0
  9
$PUCSYDIR
 10
0.0
 20
1.0
 30
0.0
  9
$USERI1
 70
     0
  9
$USERI2
 70
     0
  9
$USERI3
 70
     0
  9
$USERI4
 70
     0
  9
$USERI5
 70
     0
  9
$USERR1
 40
0.0
  9
$USERR2
 40
0.0
  9
$USERR3
 40
0.0
  9
$USERR4
 40
0.0
  9
$USERR5
 40
0.0
  9
$WORLDVIEW
 70
     1
  9
$SHADEDGE
 70
     3
  9
$SHADEDIF
 70
    70
  9
$TILEMODE
 70
     1
  9
$MAXACTVP
 70
    64
  9
$PLIMCHECK
 70
     0
  9
$PEXTMIN
 10
0.0
 20
0.0
 30
0.0
  9
$PEXTMAX
 10
0.0
 20
0.0
 30
0.0
  9
$PLIMMIN
 10
0.0
 20
0.0
  9
$PLIMMAX
 10
12.0
 20
9.0
  9
$UNITMODE
 70
     0
  9
$VISRETAIN
 70
     1
  9
$PLINEGEN
 70
     0
  9
$PSLTSCALE
 70
     1
  0
ENDSEC
  0
SECTION
  2
TABLES
  0
TABLE
  2
VPORT
 70
     1
  0
VPORT
  2
*ACTIVE
 70
     0
 10
0.0
 20
0.0
 11
1.0
 21
1.0
 12
25.9585516958843883
 22
11.6767030621433996
 13
0.0
 23
0.0
 14
0.5
 24
0.5
 15
0.5
 25
0.5
 16
0.0
 26
0.0
 36
1.0
 17
0.0
 27
0.0
 37
0.0
 40
26.3172051348378808
 41
1.4571428571428571
 42
50.0
 43
0.0
 44
0.0
 50
0.0
 51
0.0
 71
     0
 72
  1000
 73
     1
 74
     3
 75
     0
 76
     1
 77
     0
 78
     0
  0
ENDTAB
  0
TABLE
  2
LTYPE
 70
     1
  0
LTYPE
  2
CONTINUOUS
 70
     0
  3
Solid line
 72
    65
 73
     0
 40
0.0
  0
ENDTAB
  0
TABLE
  2
LAYER
 70
     1
  0
LAYER
  2
0
 70
     0
 62
     7
  6
CONTINUOUS
  0
ENDTAB
  0
TABLE
  2
STYLE
 70
     2
  0
STYLE
  2
STANDARD
 70
     0
 40
0.0
 41
1.0
 50
0.0
 71
     0
 42
0.2
  3
txt
  4

  0
STYLE
  2
ANNOTATIVE
 70
     0
 40
0.0
 41
1.0
 50
0.0
 71
     0
 42
0.2
  3
txt
  4

  0
ENDTAB
  0
TABLE
  2
VIEW
 70
     0
  0
ENDTAB
  0
TABLE
  2
UCS
 70
     0
  0
ENDTAB
  0
TABLE
  2
APPID
 70
     8
  0
APPID
  2
ACAD
 70
     0
  0
APPID
  2
ACADANNOPO
 70
     0
  0
APPID
  2
ACADANNOTATIVE
 70
     0
  0
APPID
  2
ACAD_DSTYLE_DIMJAG
 70
     0
  0
APPID
  2
ACAD_DSTYLE_DIMTALN
 70
     0
  0
APPID
  2
ACAD_MLEADERVER
 70
     0
  0
APPID
  2
ACAD_NAV_VCDISPLAY
 70
     0
  0
APPID
  2
ACAD_EXEMPT_FROM_CAD_STANDARDS
 70
     0
  0
ENDTAB
  0
TABLE
  2
DIMSTYLE
 70
     2
  0
DIMSTYLE
  2
STANDARD
 70
     0
  3

  4

  5

  6

  7

 40
1.0
 41
0.18
 42
0.0625
 43
0.38
 44
0.18
 45
0.0
 46
0.0
 47
0.0
 48
0.0
140
0.18
141
0.09
142
0.0
143
25.3999999999999986
144
1.0
145
0.0
146
1.0
147
0.09
 71
     0
 72
     0
 73
     1
 74
     1
 75
     0
 76
     0
 77
     0
 78
     0
170
     0
171
     2
172
     0
173
     0
174
     0
175
     0
176
     0
177
     0
178
     0
  0
DIMSTYLE
  2
ANNOTATIVE
 70
     0
  3

  4

  5

  6

  7

 40
0.0
 41
0.18
 42
0.0625
 43
0.38
 44
0.18
 45
0.0
 46
0.0
 47
0.0
 48
0.0
140
0.18
141
0.09
142
0.0
143
25.3999999999999986
144
1.0
145
0.0
146
1.0
147
0.09
 71
     0
 72
     0
 73
     1
 74
     1
 75
     0
 76
     0
 77
     0
 78
     0
170
     0
171
     2
172
     0
173
     0
174
     0
175
     0
176
     0
177
     0
178
     0
  0
ENDTAB
  0
ENDSEC
  0
SECTION
  2
BLOCKS
  0
BLOCK
  8
0
  2
$MODEL_SPACE
 70
     0
 10
0.0
 20
0.0
 30
0.0
  3
$MODEL_SPACE
  1

  0
ENDBLK
  5
21
  8
0
  0
BLOCK
 67
     1
  8
0
  2
$PAPER_SPACE
 70
     0
 10
0.0
 20
0.0
 30
0.0
  3
$PAPER_SPACE
  1

  0
ENDBLK
  5
5B
 67
     1
  8
0
  0
ENDSEC
  0
SECTION
  2
ENTITIES
  0
LINE
  5
21F
  8
0
 10
7.5466819112164822
 20
5.0470202669838056
 30
0.0
 11
20.0055800412836184
 21
5.0470202669838056
 31
0.0
  0
POLYLINE
  8
0
  5
28F
  66
     1
 10
0.00000
 20
0.00000
 30
0.00000
  70
     8
  0
VERTEX
  8
0
  5
290
 10
7.54668
 20
5.04702
 30
0.00000
  70
    32
  0
VERTEX
  8
0
  5
291
 10
7.58033
 20
5.12967
 30
0.00000
  70
    32
  0
VERTEX
  8
0
  5
292
 10
7.61399
 20
5.21226
 30
0.00000
  70
    32
  0
VERTEX
  8
0
  5
293
 10
7.64769
 20
5.29473
 30
0.00000
  70
    32
  0
VERTEX
  8
0
  5
294
 10
7.68145
 20
5.37703
 30
0.00000
  70
    32
  0
VERTEX
  8
0
  5
295
 10
7.71529
 20
5.45909
 30
0.00000
  70
    32
  0
VERTEX
  8
0
  5
296
 10
7.74922
 20
5.54087
 30
0.00000
  70
    32
  0
VERTEX
  8
0
  5
297
 10
7.78326
 20
5.62230
 30
0.00000
  70
    32
  0
VERTEX
  8
0
  5
298
 10
7.81743
 20
5.70332
 30
0.00000
  70
    32
  0
VERTEX
  8
0
  5
299
 10
7.85176
 20
5.78387
 30
0.00000
  70
    32
  0
VERTEX
  8
0
  5
29A
 10
7.88625
 20
5.86391
 30
0.00000
  70
    32
  0
VERTEX
  8
0
  5
29B
 10
7.92093
 20
5.94336
 30
0.00000
  70
    32
  0
VERTEX
  8
0
  5
29C
 10
7.95582
 20
6.02218
 30
0.00000
  70
    32
  0
VERTEX
  8
0
  5
29D
 10
7.99094
 20
6.10030
 30
0.00000
  70
    32
  0
VERTEX
  8
0
  5
29E
 10
8.02630
 20
6.17767
 30
0.00000
  70
    32
  0
VERTEX
  8
0
  5
29F
 10
8.06193
 20
6.25422
 30
0.00000
  70
    32
  0
VERTEX
  8
0
  5
2A0
 10
8.09784
 20
6.32990
 30
0.00000
  70
    32
  0
VERTEX
  8
0
  5
2A1
 10
8.13405
 20
6.40466
 30
0.00000
  70
    32
  0
VERTEX
  8
0
  5
2A2
 10
8.17058
 20
6.47843
 30
0.00000
  70
    32
  0
VERTEX
  8
0
  5
2A3
 10
8.20745
 20
6.55115
 30
0.00000
  70
    32
  0
VERTEX
  8
0
  5
2A4
 10
8.24468
 20
6.62277
 30
0.00000
  70
    32
  0
VERTEX
  8
0
  5
2A5
 10
8.28229
 20
6.69323
 30
0.00000
  70
    32
  0
VERTEX
  8
0
  5
2A6
 10
8.32029
 20
6.76247
 30
0.00000
  70
    32
  0
VERTEX
  8
0
  5
2A7
 10
8.35871
 20
6.83044
 30
0.00000
  70
    32
  0
VERTEX
  8
0
  5
2A8
 10
8.39756
 20
6.89707
 30
0.00000
  70
    32
  0
VERTEX
  8
0
  5
2A9
 10
8.43687
 20
6.96230
 30
0.00000
  70
    32
  0
VERTEX
  8
0
  5
2AA
 10
8.47664
 20
7.02609
 30
0.00000
  70
    32
  0
VERTEX
  8
0
  5
2AB
 10
8.51691
 20
7.08837
 30
0.00000
  70
    32
  0
VERTEX
  8
0
  5
2AC
 10
8.55768
 20
7.14908
 30
0.00000
  70
    32
  0
VERTEX
  8
0
  5
2AD
 10
8.59899
 20
7.20817
 30
0.00000
  70
    32
  0
VERTEX
  8
0
  5
2AE
 10
8.64084
 20
7.26557
 30
0.00000
  70
    32
  0
VERTEX
  8
0
  5
2AF
 10
8.68326
 20
7.32123
 30
0.00000
  70
    32
  0
VERTEX
  8
0
  5
2B0
 10
8.72626
 20
7.37510
 30
0.00000
  70
    32
  0
VERTEX
  8
0
  5
2B1
 10
8.76987
 20
7.42710
 30
0.00000
  70
    32
  0
VERTEX
  8
0
  5
2B2
 10
8.81409
 20
7.47720
 30
0.00000
  70
    32
  0
VERTEX
  8
0
  5
2B3
 10
8.85896
 20
7.52531
 30
0.00000
  70
    32
  0
VERTEX
  8
0
  5
2B4
 10
8.90449
 20
7.57140
 30
0.00000
  70
    32
  0
VERTEX
  8
0
  5
2B5
 10
8.95070
 20
7.61540
 30
0.00000
  70
    32
  0
VERTEX
  8
0
  5
2B6
 10
8.99761
 20
7.65725
 30
0.00000
  70
    32
  0
VERTEX
  8
0
  5
2B7
 10
9.04523
 20
7.69690
 30
0.00000
  70
    32
  0
VERTEX
  8
0
  5
2B8
 10
9.09359
 20
7.73428
 30
0.00000
  70
    32
  0
VERTEX
  8
0
  5
2B9
 10
9.14270
 20
7.76935
 30
0.00000
  70
    32
  0
VERTEX
  8
0
  5
2BA
 10
9.19259
 20
7.80203
 30
0.00000
  70
    32
  0
VERTEX
  8
0
  5
2BB
 10
9.24327
 20
7.83227
 30
0.00000
  70
    32
  0
VERTEX
  8
0
  5
2BC
 10
9.29476
 20
7.86002
 30
0.00000
  70
    32
  0
VERTEX
  8
0
  5
2BD
 10
9.34708
 20
7.88522
 30
0.00000
  70
    32
  0
VERTEX
  8
0
  5
2BE
 10
9.40025
 20
7.90781
 30
0.00000
  70
    32
  0
VERTEX
  8
0
  5
2BF
 10
9.45429
 20
7.92772
 30
0.00000
  70
    32
  0
VERTEX
  8
0
  5
2C0
 10
9.50921
 20
7.94491
 30
0.00000
  70
    32
  0
VERTEX
  8
0
  5
2C1
 10
9.56504
 20
7.95932
 30
0.00000
  70
    32
  0
VERTEX
  8
0
  5
2C2
 10
9.62180
 20
7.97088
 30
0.00000
  70
    32
  0
VERTEX
  8
0
  5
2C3
 10
9.67949
 20
7.97955
 30
0.00000
  70
    32
  0
VERTEX
  8
0
  5
2C4
 10
9.73812
 20
7.98539
 30
0.00000
  70
    32
  0
VERTEX
  8
0
  5
2C5
 10
9.79764
 20
7.98853
 30
0.00000
  70
    32
  0
VERTEX
  8
0
  5
2C6
 10
9.85805
 20
7.98910
 30
0.00000
  70
    32
  0
VERTEX
  8
0
  5
2C7
 10
9.91932
 20
7.98721
 30
0.00000
  70
    32
  0
VERTEX
  8
0
  5
2C8
 10
9.98141
 20
7.98300
 30
0.00000
  70
    32
  0
VERTEX
  8
0
  5
2C9
 10
10.0443
 20
7.97660
 30
0.00000
  70
    32
  0
VERTEX
  8
0
  5
2CA
 10
10.1080
 20
7.96812
 30
0.00000
  70
    32
  0
VERTEX
  8
0
  5
2CB
 10
10.1724
 20
7.95770
 30
0.00000
  70
    32
  0
VERTEX
  8
0
  5
2CC
 10
10.2376
 20
7.94545
 30
0.00000
  70
    32
  0
VERTEX
  8
0
  5
2CD
 10
10.3034
 20
7.93152
 30
0.00000
  70
    32
  0
VERTEX
  8
0
  5
2CE
 10
10.3700
 20
7.91601
 30
0.00000
  70
    32
  0
VERTEX
  8
0
  5
2CF
 10
10.4371
 20
7.89907
 30
0.00000
  70
    32
  0
VERTEX
  8
0
  5
2D0
 10
10.5050
 20
7.88081
 30
0.00000
  70
    32
  0
VERTEX
  8
0
  5
2D1
 10
10.5734
 20
7.86135
 30
0.00000
  70
    32
  0
VERTEX
  8
0
  5
2D2
 10
10.6424
 20
7.84084
 30
0.00000
  70
    32
  0
VERTEX
  8
0
  5
2D3
 10
10.7119
 20
7.81939
 30
0.00000
  70
    32
  0
VERTEX
  8
0
  5
2D4
 10
10.7820
 20
7.79712
 30
0.00000
  70
    32
  0
VERTEX
  8
0
  5
2D5
 10
10.8525
 20
7.77417
 30
0.00000
  70
    32
  0
VERTEX
  8
0
  5
2D6
 10
10.9236
 20
7.75066
 30
0.00000
  70
    32
  0
VERTEX
  8
0
  5
2D7
 10
10.9951
 20
7.72672
 30
0.00000
  70
    32
  0
VERTEX
  8
0
  5
2D8
 10
11.0670
 20
7.70246
 30
0.00000
  70
    32
  0
VERTEX
  8
0
  5
2D9
 10
11.1393
 20
7.67803
 30
0.00000
  70
    32
  0
VERTEX
  8
0
  5
2DA
 10
11.2120
 20
7.65354
 30
0.00000
  70
    32
  0
VERTEX
  8
0
  5
2DB
 10
11.2850
 20
7.62912
 30
0.00000
  70
    32
  0
VERTEX
  8
0
  5
2DC
 10
11.3584
 20
7.60490
 30
0.00000
  70
    32
  0
VERTEX
  8
0
  5
2DD
 10
11.4320
 20
7.58100
 30
0.00000
  70
    32
  0
VERTEX
  8
0
  5
2DE
 10
11.5060
 20
7.55755
 30
0.00000
  70
    32
  0
VERTEX
  8
0
  5
2DF
 10
11.5801
 20
7.53468
 30
0.00000
  70
    32
  0
VERTEX
  8
0
  5
2E0
 10
11.6545
 20
7.51250
 30
0.00000
  70
    32
  0
VERTEX
  8
0
  5
2E1
 10
11.7291
 20
7.49115
 30
0.00000
  70
    32
  0
VERTEX
  8
0
  5
2E2
 10
11.8039
 20
7.47075
 30
0.00000
  70
    32
  0
VERTEX
  8
0
  5
2E3
 10
11.8788
 20
7.45143
 30
0.00000
  70
    32
  0
VERTEX
  8
0
  5
2E4
 10
11.9538
 20
7.43332
 30
0.00000
  70
    32
  0
VERTEX
  8
0
  5
2E5
 10
12.0290
 20
7.41653
 30
0.00000
  70
    32
  0
VERTEX
  8
0
  5
2E6
 10
12.1041
 20
7.40121
 30
0.00000
  70
    32
  0
VERTEX
  8
0
  5
2E7
 10
12.1794
 20
7.38746
 30
0.00000
  70
    32
  0
VERTEX
  8
0
  5
2E8
 10
12.2546
 20
7.37542
 30
0.00000
  70
    32
  0
VERTEX
  8
0
  5
2E9
 10
12.3299
 20
7.36522
 30
0.00000
  70
    32
  0
VERTEX
  8
0
  5
2EA
 10
12.4051
 20
7.35698
 30
0.00000
  70
    32
  0
VERTEX
  8
0
  5
2EB
 10
12.4803
 20
7.35082
 30
0.00000
  70
    32
  0
VERTEX
  8
0
  5
2EC
 10
12.5553
 20
7.34688
 30
0.00000
  70
    32
  0
VERTEX
  8
0
  5
2ED
 10
12.6303
 20
7.34526
 30
0.00000
  70
    32
  0
VERTEX
  8
0
  5
2EE
 10
12.7052
 20
7.34592
 30
0.00000
  70
    32
  0
VERTEX
  8
0
  5
2EF
 10
12.7799
 20
7.34881
 30
0.00000
  70
    32
  0
VERTEX
  8
0
  5
2F0
 10
12.8545
 20
7.35383
 30
0.00000
  70
    32
  0
VERTEX
  8
0
  5
2F1
 10
12.9290
 20
7.36093
 30
0.00000
  70
    32
  0
VERTEX
  8
0
  5
2F2
 10
13.0033
 20
7.37002
 30
0.00000
  70
    32
  0
VERTEX
  8
0
  5
2F3
 10
13.0775
 20
7.38102
 30
0.00000
  70
    32
  0
VERTEX
  8
0
  5
2F4
 10
13.1515
 20
7.39387
 30
0.00000
  70
    32
  0
VERTEX
  8
0
  5
2F5
 10
13.2254
 20
7.40849
 30
0.00000
  70
    32
  0
VERTEX
  8
0
  5
2F6
 10
13.2992
 20
7.42480
 30
0.00000
  70
    32
  0
VERTEX
  8
0
  5
2F7
 10
13.3727
 20
7.44274
 30
0.00000
  70
    32
  0
VERTEX
  8
0
  5
2F8
 10
13.4461
 20
7.46221
 30
0.00000
  70
    32
  0
VERTEX
  8
0
  5
2F9
 10
13.5193
 20
7.48315
 30
0.00000
  70
    32
  0
VERTEX
  8
0
  5
2FA
 10
13.5923
 20
7.50549
 30
0.00000
  70
    32
  0
VERTEX
  8
0
  5
2FB
 10
13.6652
 20
7.52915
 30
0.00000
  70
    32
  0
VERTEX
  8
0
  5
2FC
 10
13.7378
 20
7.55405
 30
0.00000
  70
    32
  0
VERTEX
  8
0
  5
2FD
 10
13.8103
 20
7.58012
 30
0.00000
  70
    32
  0
VERTEX
  8
0
  5
2FE
 10
13.8825
 20
7.60729
 30
0.00000
  70
    32
  0
VERTEX
  8
0
  5
2FF
 10
13.9545
 20
7.63548
 30
0.00000
  70
    32
  0
VERTEX
  8
0
  5
300
 10
14.0263
 20
7.66461
 30
0.00000
  70
    32
  0
VERTEX
  8
0
  5
301
 10
14.0979
 20
7.69461
 30
0.00000
  70
    32
  0
VERTEX
  8
0
  5
302
 10
14.1693
 20
7.72541
 30
0.00000
  70
    32
  0
VERTEX
  8
0
  5
303
 10
14.2404
 20
7.75693
 30
0.00000
  70
    32
  0
VERTEX
  8
0
  5
304
 10
14.3113
 20
7.78910
 30
0.00000
  70
    32
  0
VERTEX
  8
0
  5
305
 10
14.3820
 20
7.82183
 30
0.00000
  70
    32
  0
VERTEX
  8
0
  5
306
 10
14.4524
 20
7.85506
 30
0.00000
  70
    32
  0
VERTEX
  8
0
  5
307
 10
14.5225
 20
7.88872
 30
0.00000
  70
    32
  0
VERTEX
  8
0
  5
308
 10
14.5924
 20
7.92272
 30
0.00000
  70
    32
  0
VERTEX
  8
0
  5
309
 10
14.6620
 20
7.95699
 30
0.00000
  70
    32
  0
VERTEX
  8
0
  5
30A
 10
14.7314
 20
7.99145
 30
0.00000
  70
    32
  0
VERTEX
  8
0
  5
30B
 10
14.8004
 20
8.02604
 30
0.00000
  70
    32
  0
VERTEX
  8
0
  5
30C
 10
14.8692
 20
8.06068
 30
0.00000
  70
    32
  0
VERTEX
  8
0
  5
30D
 10
14.9377
 20
8.09529
 30
0.00000
  70
    32
  0
VERTEX
  8
0
  5
30E
 10
15.0059
 20
8.12980
 30
0.00000
  70
    32
  0
VERTEX
  8
0
  5
30F
 10
15.0738
 20
8.16413
 30
0.00000
  70
    32
  0
VERTEX
  8
0
  5
310
 10
15.1414
 20
8.19820
 30
0.00000
  70
    32
  0
VERTEX
  8
0
  5
311
 10
15.2087
 20
8.23195
 30
0.00000
  70
    32
  0
VERTEX
  8
0
  5
312
 10
15.2757
 20
8.26530
 30
0.00000
  70
    32
  0
VERTEX
  8
0
  5
313
 10
15.3423
 20
8.29817
 30
0.00000
  70
    32
  0
VERTEX
  8
0
  5
314
 10
15.4086
 20
8.33049
 30
0.00000
  70
    32
  0
VERTEX
  8
0
  5
315
 10
15.4746
 20
8.36218
 30
0.00000
  70
    32
  0
VERTEX
  8
0
  5
316
 10
15.5403
 20
8.39317
 30
0.00000
  70
    32
  0
VERTEX
  8
0
  5
317
 10
15.6056
 20
8.42339
 30
0.00000
  70
    32
  0
VERTEX
  8
0
  5
318
 10
15.6705
 20
8.45275
 30
0.00000
  70
    32
  0
VERTEX
  8
0
  5
319
 10
15.7351
 20
8.48119
 30
0.00000
  70
    32
  0
VERTEX
  8
0
  5
31A
 10
15.7994
 20
8.50863
 30
0.00000
  70
    32
  0
VERTEX
  8
0
  5
31B
 10
15.8632
 20
8.53499
 30
0.00000
  70
    32
  0
VERTEX
  8
0
  5
31C
 10
15.9267
 20
8.56020
 30
0.00000
  70
    32
  0
VERTEX
  8
0
  5
31D
 10
15.9899
 20
8.58419
 30
0.00000
  70
    32
  0
VERTEX
  8
0
  5
31E
 10
16.0526
 20
8.60687
 30
0.00000
  70
    32
  0
VERTEX
  8
0
  5
31F
 10
16.1149
 20
8.62818
 30
0.00000
  70
    32
  0
VERTEX
  8
0
  5
320
 10
16.1769
 20
8.64804
 30
0.00000
  70
    32
  0
VERTEX
  8
0
  5
321
 10
16.2385
 20
8.66638
 30
0.00000
  70
    32
  0
VERTEX
  8
0
  5
322
 10
16.2996
 20
8.68311
 30
0.00000
  70
    32
  0
VERTEX
  8
0
  5
323
 10
16.3603
 20
8.69818
 30
0.00000
  70
    32
  0
VERTEX
  8
0
  5
324
 10
16.4207
 20
8.71149
 30
0.00000
  70
    32
  0
VERTEX
  8
0
  5
325
 10
16.4806
 20
8.72298
 30
0.00000
  70
    32
  0
VERTEX
  8
0
  5
326
 10
16.5401
 20
8.73257
 30
0.00000
  70
    32
  0
VERTEX
  8
0
  5
327
 10
16.5991
 20
8.74018
 30
0.00000
  70
    32
  0
VERTEX
  8
0
  5
328
 10
16.6577
 20
8.74575
 30
0.00000
  70
    32
  0
VERTEX
  8
0
  5
329
 10
16.7159
 20
8.74920
 30
0.00000
  70
    32
  0
VERTEX
  8
0
  5
32A
 10
16.7736
 20
8.75044
 30
0.00000
  70
    32
  0
VERTEX
  8
0
  5
32B
 10
16.8308
 20
8.74941
 30
0.00000
  70
    32
  0
VERTEX
  8
0
  5
32C
 10
16.8876
 20
8.74609
 30
0.00000
  70
    32
  0
VERTEX
  8
0
  5
32D
 10
16.9440
 20
8.74049
 30
0.00000
  70
    32
  0
VERTEX
  8
0
  5
32E
 10
16.9999
 20
8.73265
 30
0.00000
  70
    32
  0
VERTEX
  8
0
  5
32F
 10
17.0553
 20
8.72261
 30
0.00000
  70
    32
  0
VERTEX
  8
0
  5
330
 10
17.1104
 20
8.71039
 30
0.00000
  70
    32
  0
VERTEX
  8
0
  5
331
 10
17.1650
 20
8.69605
 30
0.00000
  70
    32
  0
VERTEX
  8
0
  5
332
 10
17.2192
 20
8.67959
 30
0.00000
  70
    32
  0
VERTEX
  8
0
  5
333
 10
17.2730
 20
8.66107
 30
0.00000
  70
    32
  0
VERTEX
  8
0
  5
334
 10
17.3264
 20
8.64052
 30
0.00000
  70
    32
  0
VERTEX
  8
0
  5
335
 10
17.3794
 20
8.61797
 30
0.00000
  70
    32
  0
VERTEX
  8
0
  5
336
 10
17.4320
 20
8.59344
 30
0.00000
  70
    32
  0
VERTEX
  8
0
  5
337
 10
17.4842
 20
8.56699
 30
0.00000
  70
    32
  0
VERTEX
  8
0
  5
338
 10
17.5361
 20
8.53864
 30
0.00000
  70
    32
  0
VERTEX
  8
0
  5
339
 10
17.5876
 20
8.50842
 30
0.00000
  70
    32
  0
VERTEX
  8
0
  5
33A
 10
17.6387
 20
8.47637
 30
0.00000
  70
    32
  0
VERTEX
  8
0
  5
33B
 10
17.6894
 20
8.44252
 30
0.00000
  70
    32
  0
VERTEX
  8
0
  5
33C
 10
17.7399
 20
8.40691
 30
0.00000
  70
    32
  0
VERTEX
  8
0
  5
33D
 10
17.7899
 20
8.36957
 30
0.00000
  70
    32
  0
VERTEX
  8
0
  5
33E
 10
17.8397
 20
8.33054
 30
0.00000
  70
    32
  0
VERTEX
  8
0
  5
33F
 10
17.8891
 20
8.28984
 30
0.00000
  70
    32
  0
VERTEX
  8
0
  5
340
 10
17.9382
 20
8.24751
 30
0.00000
  70
    32
  0
VERTEX
  8
0
  5
341
 10
17.9869
 20
8.20360
 30
0.00000
  70
    32
  0
VERTEX
  8
0
  5
342
 10
18.0354
 20
8.15812
 30
0.00000
  70
    32
  0
VERTEX
  8
0
  5
343
 10
18.0835
 20
8.11112
 30
0.00000
  70
    32
  0
VERTEX
  8
0
  5
344
 10
18.1314
 20
8.06262
 30
0.00000
  70
    32
  0
VERTEX
  8
0
  5
345
 10
18.1790
 20
8.01267
 30
0.00000
  70
    32
  0
VERTEX
  8
0
  5
346
 10
18.2263
 20
7.96129
 30
0.00000
  70
    32
  0
VERTEX
  8
0
  5
347
 10
18.2733
 20
7.90852
 30
0.00000
  70
    32
  0
VERTEX
  8
0
  5
348
 10
18.3200
 20
7.85439
 30
0.00000
  70
    32
  0
VERTEX
  8
0
  5
349
 10
18.3665
 20
7.79895
 30
0.00000
  70
    32
  0
VERTEX
  8
0
  5
34A
 10
18.4128
 20
7.74221
 30
0.00000
  70
    32
  0
VERTEX
  8
0
  5
34B
 10
18.4588
 20
7.68422
 30
0.00000
  70
    32
  0
VERTEX
  8
0
  5
34C
 10
18.5045
 20
7.62501
 30
0.00000
  70
    32
  0
VERTEX
  8
0
  5
34D
 10
18.5500
 20
7.56461
 30
0.00000
  70
    32
  0
VERTEX
  8
0
  5
34E
 10
18.5953
 20
7.50306
 30
0.00000
  70
    32
  0
VERTEX
  8
0
  5
34F
 10
18.6404
 20
7.44039
 30
0.00000
  70
    32
  0
VERTEX
  8
0
  5
350
 10
18.6852
 20
7.37663
 30
0.00000
  70
    32
  0
VERTEX
  8
0
  5
351
 10
18.7298
 20
7.31183
 30
0.00000
  70
    32
  0
VERTEX
  8
0
  5
352
 10
18.7743
 20
7.24600
 30
0.00000
  70
    32
  0
VERTEX
  8
0
  5
353
 10
18.8185
 20
7.17920
 30
0.00000
  70
    32
  0
VERTEX
  8
0
  5
354
 10
18.8626
 20
7.11144
 30
0.00000
  70
    32
  0
VERTEX
  8
0
  5
355
 10
18.9065
 20
7.04277
 30
0.00000
  70
    32
  0
VERTEX
  8
0
  5
356
 10
18.9502
 20
6.97321
 30
0.00000
  70
    32
  0
VERTEX
  8
0
  5
357
 10
18.9937
 20
6.90281
 30
0.00000
  70
    32
  0
VERTEX
  8
0
  5
358
 10
19.0371
 20
6.83160
 30
0.00000
  70
    32
  0
VERTEX
  8
0
  5
359
 10
19.0803
 20
6.75960
 30
0.00000
  70
    32
  0
VERTEX
  8
0
  5
35A
 10
19.1233
 20
6.68686
 30
0.00000
  70
    32
  0
VERTEX
  8
0
  5
35B
 10
19.1663
 20
6.61341
 30
0.00000
  70
    32
  0
VERTEX
  8
0
  5
35C
 10
19.2091
 20
6.53928
 30
0.00000
  70
    32
  0
VERTEX
  8
0
  5
35D
 10
19.2517
 20
6.46450
 30
0.00000
  70
    32
  0
VERTEX
  8
0
  5
35E
 10
19.2943
 20
6.38911
 30
0.00000
  70
    32
  0
VERTEX
  8
0
  5
35F
 10
19.3367
 20
6.31315
 30
0.00000
  70
    32
  0
VERTEX
  8
0
  5
360
 10
19.3790
 20
6.23665
 30
0.00000
  70
    32
  0
VERTEX
  8
0
  5
361
 10
19.4213
 20
6.15963
 30
0.00000
  70
    32
  0
VERTEX
  8
0
  5
362
 10
19.4634
 20
6.08214
 30
0.00000
  70
    32
  0
VERTEX
  8
0
  5
363
 10
19.5054
 20
6.00421
 30
0.00000
  70
    32
  0
VERTEX
  8
0
  5
364
 10
19.5474
 20
5.92588
 30
0.00000
  70
    32
  0
VERTEX
  8
0
  5
365
 10
19.5893
 20
5.84717
 30
0.00000
  70
    32
  0
VERTEX
  8
0
  5
366
 10
19.6311
 20
5.76812
 30
0.00000
  70
    32
  0
VERTEX
  8
0
  5
367
 10
19.6729
 20
5.68877
 30
0.00000
  70
    32
  0
VERTEX
  8
0
  5
368
 10
19.7146
 20
5.60914
 30
0.00000
  70
    32
  0
VERTEX
  8
0
  5
369
 10
19.7562
 20
5.52928
 30
0.00000
  70
    32
  0
VERTEX
  8
0
  5
36A
 10
19.7978
 20
5.44921
 30
0.00000
  70
    32
  0
VERTEX
  8
0
  5
36B
 10
19.8394
 20
5.36898
 30
0.00000
  70
    32
  0
VERTEX
  8
0
  5
36C
 10
19.8810
 20
5.28861
 30
0.00000
  70
    32
  0
VERTEX
  8
0
  5
36D
 10
19.9225
 20
5.20814
 30
0.00000
  70
    32
  0
VERTEX
  8
0
  5
36E
 10
19.9641
 20
5.12759
 30
0.00000
  70
    32
  0
VERTEX
  8
0
  5
36F
 10
20.0056
 20
5.04702
 30
0.00000
  70
    32
  0
SEQEND
  8
0
  5
370
  0
ENDSEC
  0
EOF
