<?xml version="1.0" standalone="no"?>
<!DOCTYPE svg PUBLIC "-//W3C//DTD SVG 1.1//EN" "http://www.w3.org/Graphics/SVG/1.1/DTD/svg11.dtd">
<svg width="100mm" height="100mm" viewBox="-8 -108 116 116" xmlns="http://www.w3.org/2000/svg" version="1.1">
<title>OpenSCAD Model</title>
<path d="
M 50.7331,-6.00626 L 50.8027,-6.00748 L 51.5006,-6.02574 L 51.5705,-6.02818 L 52.2679,-6.05864 L 52.3376,-6.06229
 L 53.0344,-6.1049 L 53.1041,-6.10977 L 53.8001,-6.16455 L 53.8696,-6.17064 L 54.5645,-6.23755 L 54.6339,-6.24484
 L 55.3276,-6.32387 L 55.3969,-6.33238 L 56.089,-6.42351 L 56.1582,-6.43323 L 56.8486,-6.53642 L 56.9175,-6.54733
 L 57.6061,-6.66255 L 57.6749,-6.67468 L 58.3613,-6.80191 L 58.4298,-6.81522 L 59.1139,-6.95439 L 59.1823,-6.96893
 L 59.8638,-7.12004 L 59.9318,-7.13571 L 60.6106,-7.29868 L 60.6784,-7.3156 L 61.3543,-7.4904 L 61.4217,-7.50847
 L 62.0945,-7.69504 L 62.1615,-7.71426 L 62.8309,-7.91254 L 62.8977,-7.93295 L 63.5635,-8.14288 L 63.6299,-8.16444
 L 64.2919,-8.38596 L 64.358,-8.40871 L 65.0161,-8.64175 L 65.0816,-8.66559 L 65.7355,-8.91006 L 65.8008,-8.93515
 L 66.4503,-9.19102 L 66.5149,-9.21712 L 67.1599,-9.48427 L 67.2243,-9.51158 L 67.8645,-9.78996 L 67.9282,-9.81834
 L 68.5635,-10.1078 L 68.6268,-10.1374 L 69.2569,-10.4379 L 69.3196,-10.4685 L 69.9444,-10.78 L 70.0066,-10.8117
 L 70.6258,-11.134 L 70.6875,-11.1668 L 71.301,-11.4999 L 71.3621,-11.5338 L 71.9697,-11.8776 L 72.0302,-11.9125
 L 72.6317,-12.2668 L 72.6915,-12.3027 L 73.2867,-12.6675 L 73.346,-12.7045 L 73.9348,-13.0796 L 73.9933,-13.1176
 L 74.5754,-13.5029 L 74.6333,-13.542 L 75.2087,-13.9374 L 75.2659,-13.9775 L 75.8342,-14.3829 L 75.8907,-14.4239
 L 76.4519,-14.8391 L 76.5077,-14.8812 L 77.0615,-15.3062 L 77.1165,-15.3491 L 77.6628,-15.7837 L 77.7171,-15.8277
 L 78.2558,-16.2717 L 78.3093,-16.3166 L 78.8402,-16.77 L 78.8928,-16.8158 L 79.4157,-17.2784 L 79.4676,-17.3251
 L 79.9823,-17.7968 L 80.0333,-17.8443 L 80.5397,-18.3249 L 80.59,-18.3734 L 81.0879,-18.8627 L 81.1373,-18.9121
 L 81.6266,-19.41 L 81.6751,-19.4603 L 82.1557,-19.9667 L 82.2032,-20.0177 L 82.6749,-20.5324 L 82.7216,-20.5843
 L 83.1842,-21.1072 L 83.23,-21.1598 L 83.6834,-21.6907 L 83.7283,-21.7442 L 84.1723,-22.2829 L 84.2163,-22.3372
 L 84.6509,-22.8835 L 84.6938,-22.9385 L 85.1188,-23.4923 L 85.1609,-23.5481 L 85.5761,-24.1093 L 85.6171,-24.1658
 L 86.0225,-24.7341 L 86.0626,-24.7913 L 86.458,-25.3667 L 86.4971,-25.4246 L 86.8824,-26.0067 L 86.9204,-26.0652
 L 87.2955,-26.654 L 87.3325,-26.7133 L 87.6973,-27.3085 L 87.7332,-27.3683 L 88.0875,-27.9698 L 88.1224,-28.0303
 L 88.4662,-28.6379 L 88.5001,-28.699 L 88.8332,-29.3125 L 88.866,-29.3742 L 89.1883,-29.9934 L 89.22,-30.0556
 L 89.5315,-30.6804 L 89.5621,-30.7431 L 89.8626,-31.3732 L 89.8922,-31.4365 L 90.1817,-32.0718 L 90.21,-32.1355
 L 90.4884,-32.7757 L 90.5157,-32.8401 L 90.7829,-33.4851 L 90.809,-33.5497 L 91.0648,-34.1992 L 91.0899,-34.2645
 L 91.3344,-34.9184 L 91.3582,-34.9839 L 91.5913,-35.642 L 91.614,-35.7081 L 91.8356,-36.3701 L 91.8571,-36.4365
 L 92.067,-37.1023 L 92.0875,-37.1691 L 92.2857,-37.8385 L 92.305,-37.9055 L 92.4915,-38.5783 L 92.5096,-38.6457
 L 92.6844,-39.3216 L 92.7013,-39.3894 L 92.8643,-40.0682 L 92.88,-40.1362 L 93.0311,-40.8177 L 93.0456,-40.8861
 L 93.1848,-41.5702 L 93.1981,-41.6387 L 93.3253,-42.3251 L 93.3374,-42.3939 L 93.4527,-43.0825 L 93.4636,-43.1514
 L 93.5668,-43.8418 L 93.5765,-43.911 L 93.6676,-44.6031 L 93.6761,-44.6724 L 93.7552,-45.3661 L 93.7625,-45.4355
 L 93.8294,-46.1304 L 93.8354,-46.1999 L 93.8902,-46.8959 L 93.8951,-46.9656 L 93.9377,-47.6624 L 93.9414,-47.7321
 L 93.9718,-48.4295 L 93.9743,-48.4994 L 93.9925,-49.1973 L 93.9937,-49.2669 L 93.9998,-49.965 L 93.9998,-50.035
 L 93.9937,-50.7331 L 93.9925,-50.8027 L 93.9743,-51.5006 L 93.9718,-51.5705 L 93.9414,-52.2679 L 93.9377,-52.3376
 L 93.8951,-53.0344 L 93.8902,-53.1041 L 93.8354,-53.8001 L 93.8294,-53.8696 L 93.7625,-54.5645 L 93.7552,-54.6339
 L 93.6761,-55.3276 L 93.6676,-55.3969 L 93.5765,-56.089 L 93.5668,-56.1582 L 93.4636,-56.8486 L 93.4527,-56.9175
 L 93.3374,-57.6061 L 93.3253,-57.6749 L 93.1981,-58.3613 L 93.1848,-58.4298 L 93.0456,-59.1139 L 93.0311,-59.1823
 L 92.88,-59.8638 L 92.8643,-59.9318 L 92.7013,-60.6106 L 92.6844,-60.6784 L 92.5096,-61.3543 L 92.4915,-61.4217
 L 92.305,-62.0945 L 92.2857,-62.1615 L 92.0875,-62.8309 L 92.067,-62.8977 L 91.8571,-63.5635 L 91.8356,-63.6299
 L 91.614,-64.2919 L 91.5913,-64.358 L 91.3582,-65.0161 L 91.3344,-65.0816 L 91.0899,-65.7355 L 91.0648,-65.8008
 L 90.809,-66.4503 L 90.7829,-66.5149 L 90.5157,-67.1599 L 90.4884,-67.2243 L 90.21,-67.8645 L 90.1817,-67.9282
 L 89.8922,-68.5635 L 89.8626,-68.6268 L 89.5621,-69.2569 L 89.5315,-69.3196 L 89.22,-69.9444 L 89.1883,-70.0066
 L 88.866,-70.6258 L 88.8332,-70.6875 L 88.5001,-71.301 L 88.4662,-71.3621 L 88.1224,-71.9697 L 88.0875,-72.0302
 L 87.7332,-72.6317 L 87.6973,-72.6915 L 87.3325,-73.2867 L 87.2955,-73.346 L 86.9204,-73.9348 L 86.8824,-73.9933
 L 86.4971,-74.5754 L 86.458,-74.6333 L 86.0626,-75.2087 L 86.0225,-75.2659 L 85.6171,-75.8342 L 85.5761,-75.8907
 L 85.1609,-76.4519 L 85.1188,-76.5077 L 84.6938,-77.0615 L 84.6509,-77.1165 L 84.2163,-77.6628 L 84.1723,-77.7171
 L 83.7283,-78.2558 L 83.6834,-78.3093 L 83.23,-78.8402 L 83.1842,-78.8928 L 82.7216,-79.4157 L 82.6749,-79.4676
 L 82.2032,-79.9823 L 82.1557,-80.0333 L 81.6751,-80.5397 L 81.6266,-80.59 L 81.1373,-81.0879 L 81.0879,-81.1373
 L 80.59,-81.6266 L 80.5397,-81.6751 L 80.0333,-82.1557 L 79.9823,-82.2032 L 79.4676,-82.6749 L 79.4157,-82.7216
 L 78.8928,-83.1842 L 78.8402,-83.23 L 78.3093,-83.6834 L 78.2558,-83.7283 L 77.7171,-84.1723 L 77.6628,-84.2163
 L 77.1165,-84.6509 L 77.0615,-84.6938 L 76.5077,-85.1188 L 76.4519,-85.1609 L 75.8907,-85.5761 L 75.8342,-85.6171
 L 75.2659,-86.0225 L 75.2087,-86.0626 L 74.6333,-86.458 L 74.5754,-86.4971 L 73.9933,-86.8824 L 73.9348,-86.9204
 L 73.346,-87.2955 L 73.2867,-87.3325 L 72.6915,-87.6973 L 72.6317,-87.7332 L 72.0302,-88.0875 L 71.9697,-88.1224
 L 71.3621,-88.4662 L 71.301,-88.5001 L 70.6875,-88.8332 L 70.6258,-88.866 L 70.0066,-89.1883 L 69.9444,-89.22
 L 69.3196,-89.5315 L 69.2569,-89.5621 L 68.6268,-89.8626 L 68.5635,-89.8922 L 67.9282,-90.1817 L 67.8645,-90.21
 L 67.2243,-90.4884 L 67.1599,-90.5157 L 66.5149,-90.7829 L 66.4503,-90.809 L 65.8008,-91.0648 L 65.7355,-91.0899
 L 65.0816,-91.3344 L 65.0161,-91.3582 L 64.358,-91.5913 L 64.2919,-91.614 L 63.6299,-91.8356 L 63.5635,-91.8571
 L 62.8977,-92.067 L 62.8309,-92.0875 L 62.1615,-92.2857 L 62.0945,-92.305 L 61.4217,-92.4915 L 61.3543,-92.5096
 L 60.6784,-92.6844 L 60.6106,-92.7013 L 59.9318,-92.8643 L 59.8638,-92.88 L 59.1823,-93.0311 L 59.1139,-93.0456
 L 58.4298,-93.1848 L 58.3613,-93.1981 L 57.6749,-93.3253 L 57.6061,-93.3374 L 56.9175,-93.4527 L 56.8486,-93.4636
 L 56.1582,-93.5668 L 56.089,-93.5765 L 55.3969,-93.6676 L 55.3276,-93.6761 L 54.6339,-93.7552 L 54.5645,-93.7625
 L 53.8696,-93.8294 L 53.8001,-93.8354 L 53.1041,-93.8902 L 53.0344,-93.8951 L 52.3376,-93.9377 L 52.2679,-93.9414
 L 51.5705,-93.9718 L 51.5006,-93.9743 L 50.8027,-93.9925 L 50.7331,-93.9937 L 50.035,-93.9998 L 49.965,-93.9998
 L 49.2669,-93.9937 L 49.1973,-93.9925 L 48.4994,-93.9743 L 48.4295,-93.9718 L 47.7321,-93.9414 L 47.6624,-93.9377
 L 46.9656,-93.8951 L 46.8959,-93.8902 L 46.1999,-93.8354 L 46.1304,-93.8294 L 45.4355,-93.7625 L 45.3661,-93.7552
 L 44.6724,-93.6761 L 44.6031,-93.6676 L 43.911,-93.5765 L 43.8418,-93.5668 L 43.1514,-93.4636 L 43.0825,-93.4527
 L 42.3939,-93.3374 L 42.3251,-93.3253 L 41.6387,-93.1981 L 41.5702,-93.1848 L 40.8861,-93.0456 L 40.8177,-93.0311
 L 40.1362,-92.88 L 40.0682,-92.8643 L 39.3894,-92.7013 L 39.3216,-92.6844 L 38.6457,-92.5096 L 38.5783,-92.4915
 L 37.9055,-92.305 L 37.8385,-92.2857 L 37.1691,-92.0875 L 37.1023,-92.067 L 36.4365,-91.8571 L 36.3701,-91.8356
 L 35.7081,-91.614 L 35.642,-91.5913 L 34.9839,-91.3582 L 34.9184,-91.3344 L 34.2645,-91.0899 L 34.1992,-91.0648
 L 33.5497,-90.809 L 33.4851,-90.7829 L 32.8401,-90.5157 L 32.7757,-90.4884 L 32.1355,-90.21 L 32.0718,-90.1817
 L 31.4365,-89.8922 L 31.3732,-89.8626 L 30.7431,-89.5621 L 30.6804,-89.5315 L 30.0556,-89.22 L 29.9934,-89.1883
 L 29.3742,-88.866 L 29.3125,-88.8332 L 28.699,-88.5001 L 28.6379,-88.4662 L 28.0303,-88.1224 L 27.9698,-88.0875
 L 27.3683,-87.7332 L 27.3085,-87.6973 L 26.7133,-87.3325 L 26.654,-87.2955 L 26.0652,-86.9204 L 26.0067,-86.8824
 L 25.4246,-86.4971 L 25.3667,-86.458 L 24.7913,-86.0626 L 24.7341,-86.0225 L 24.1658,-85.6171 L 24.1093,-85.5761
 L 23.5481,-85.1609 L 23.4923,-85.1188 L 22.9385,-84.6938 L 22.8835,-84.6509 L 22.3372,-84.2163 L 22.2829,-84.1723
 L 21.7442,-83.7283 L 21.6907,-83.6834 L 21.1598,-83.23 L 21.1072,-83.1842 L 20.5843,-82.7216 L 20.5324,-82.6749
 L 20.0177,-82.2032 L 19.9667,-82.1557 L 19.4603,-81.6751 L 19.41,-81.6266 L 18.9121,-81.1373 L 18.8627,-81.0879
 L 18.3734,-80.59 L 18.3249,-80.5397 L 17.8443,-80.0333 L 17.7968,-79.9823 L 17.3251,-79.4676 L 17.2784,-79.4157
 L 16.8158,-78.8928 L 16.77,-78.8402 L 16.3166,-78.3093 L 16.2717,-78.2558 L 15.8277,-77.7171 L 15.7837,-77.6628
 L 15.3491,-77.1165 L 15.3062,-77.0615 L 14.8812,-76.5077 L 14.8391,-76.4519 L 14.4239,-75.8907 L 14.3829,-75.8342
 L 13.9775,-75.2659 L 13.9374,-75.2087 L 13.542,-74.6333 L 13.5029,-74.5754 L 13.1176,-73.9933 L 13.0796,-73.9348
 L 12.7045,-73.346 L 12.6675,-73.2867 L 12.3027,-72.6915 L 12.2668,-72.6317 L 11.9125,-72.0302 L 11.8776,-71.9697
 L 11.5338,-71.3621 L 11.4999,-71.301 L 11.1668,-70.6875 L 11.134,-70.6258 L 10.8117,-70.0066 L 10.78,-69.9444
 L 10.4685,-69.3196 L 10.4379,-69.2569 L 10.1374,-68.6268 L 10.1078,-68.5635 L 9.81834,-67.9282 L 9.78996,-67.8645
 L 9.51158,-67.2243 L 9.48427,-67.1599 L 9.21712,-66.5149 L 9.19102,-66.4503 L 8.93515,-65.8008 L 8.91006,-65.7355
 L 8.66559,-65.0816 L 8.64175,-65.0161 L 8.40871,-64.358 L 8.38596,-64.2919 L 8.16444,-63.6299 L 8.14288,-63.5635
 L 7.93295,-62.8977 L 7.91254,-62.8309 L 7.71426,-62.1615 L 7.69504,-62.0945 L 7.50847,-61.4217 L 7.4904,-61.3543
 L 7.3156,-60.6784 L 7.29868,-60.6106 L 7.13571,-59.9318 L 7.12004,-59.8638 L 6.96893,-59.1823 L 6.95439,-59.1139
 L 6.81522,-58.4298 L 6.80191,-58.3613 L 6.67468,-57.6749 L 6.66255,-57.6061 L 6.54733,-56.9175 L 6.53642,-56.8486
 L 6.43323,-56.1582 L 6.42351,-56.089 L 6.33238,-55.3969 L 6.32387,-55.3276 L 6.24484,-54.6339 L 6.23755,-54.5645
 L 6.17064,-53.8696 L 6.16455,-53.8001 L 6.10977,-53.1041 L 6.1049,-53.0344 L 6.06229,-52.3376 L 6.05864,-52.2679
 L 6.02818,-51.5705 L 6.02574,-51.5006 L 6.00748,-50.8027 L 6.00626,-50.7331 L 6.00015,-50.035 L 6.00015,-49.965
 L 6.00626,-49.2669 L 6.00748,-49.1973 L 6.02574,-48.4994 L 6.02818,-48.4295 L 6.05864,-47.7321 L 6.06229,-47.6624
 L 6.1049,-46.9656 L 6.10977,-46.8959 L 6.16455,-46.1999 L 6.17064,-46.1304 L 6.23755,-45.4355 L 6.24484,-45.3661
 L 6.32387,-44.6724 L 6.33238,-44.6031 L 6.42351,-43.911 L 6.43323,-43.8418 L 6.53642,-43.1514 L 6.54733,-43.0825
 L 6.66255,-42.3939 L 6.67468,-42.3251 L 6.80191,-41.6387 L 6.81522,-41.5702 L 6.95439,-40.8861 L 6.96893,-40.8177
 L 7.12004,-40.1362 L 7.13571,-40.0682 L 7.29868,-39.3894 L 7.3156,-39.3216 L 7.4904,-38.6457 L 7.50847,-38.5783
 L 7.69504,-37.9055 L 7.71426,-37.8385 L 7.91254,-37.1691 L 7.93295,-37.1023 L 8.14288,-36.4365 L 8.16444,-36.3701
 L 8.38596,-35.7081 L 8.40871,-35.642 L 8.64175,-34.9839 L 8.66559,-34.9184 L 8.91006,-34.2645 L 8.93515,-34.1992
 L 9.19102,-33.5497 L 9.21712,-33.4851 L 9.48427,-32.8401 L 9.51158,-32.7757 L 9.78996,-32.1355 L 9.81834,-32.0718
 L 10.1078,-31.4365 L 10.1374,-31.3732 L 10.4379,-30.7431 L 10.4685,-30.6804 L 10.78,-30.0556 L 10.8117,-29.9934
 L 11.134,-29.3742 L 11.1668,-29.3125 L 11.4999,-28.699 L 11.5338,-28.6379 L 11.8776,-28.0303 L 11.9125,-27.9698
 L 12.2668,-27.3683 L 12.3027,-27.3085 L 12.6675,-26.7133 L 12.7045,-26.654 L 13.0796,-26.0652 L 13.1176,-26.0067
 L 13.5029,-25.4246 L 13.542,-25.3667 L 13.9374,-24.7913 L 13.9775,-24.7341 L 14.3829,-24.1658 L 14.4239,-24.1093
 L 14.8391,-23.5481 L 14.8812,-23.4923 L 15.3062,-22.9385 L 15.3491,-22.8835 L 15.7837,-22.3372 L 15.8277,-22.2829
 L 16.2717,-21.7442 L 16.3166,-21.6907 L 16.77,-21.1598 L 16.8158,-21.1072 L 17.2784,-20.5843 L 17.3251,-20.5324
 L 17.7968,-20.0177 L 17.8443,-19.9667 L 18.3249,-19.4603 L 18.3734,-19.41 L 18.8627,-18.9121 L 18.9121,-18.8627
 L 19.41,-18.3734 L 19.4603,-18.3249 L 19.9667,-17.8443 L 20.0177,-17.7968 L 20.5324,-17.3251 L 20.5843,-17.2784
 L 21.1072,-16.8158 L 21.1598,-16.77 L 21.6907,-16.3166 L 21.7442,-16.2717 L 22.2829,-15.8277 L 22.3372,-15.7837
 L 22.8835,-15.3491 L 22.9385,-15.3062 L 23.4923,-14.8812 L 23.5481,-14.8391 L 24.1093,-14.4239 L 24.1658,-14.3829
 L 24.7341,-13.9775 L 24.7913,-13.9374 L 25.3667,-13.542 L 25.4246,-13.5029 L 26.0067,-13.1176 L 26.0652,-13.0796
 L 26.654,-12.7045 L 26.7133,-12.6675 L 27.3085,-12.3027 L 27.3683,-12.2668 L 27.9698,-11.9125 L 28.0303,-11.8776
 L 28.6379,-11.5338 L 28.699,-11.4999 L 29.3125,-11.1668 L 29.3742,-11.134 L 29.9934,-10.8117 L 30.0556,-10.78
 L 30.6804,-10.4685 L 30.7431,-10.4379 L 31.3732,-10.1374 L 31.4365,-10.1078 L 32.0718,-9.81834 L 32.1355,-9.78996
 L 32.7757,-9.51158 L 32.8401,-9.48427 L 33.4851,-9.21712 L 33.5497,-9.19102 L 34.1992,-8.93515 L 34.2645,-8.91006
 L 34.9184,-8.66559 L 34.9839,-8.64175 L 35.642,-8.40871 L 35.7081,-8.38596 L 36.3701,-8.16444 L 36.4365,-8.14288
 L 37.1023,-7.93295 L 37.1691,-7.91254 L 37.8385,-7.71426 L 37.9055,-7.69504 L 38.5783,-7.50847 L 38.6457,-7.4904
 L 39.3216,-7.3156 L 39.3894,-7.29868 L 40.0682,-7.13571 L 40.1362,-7.12004 L 40.8177,-6.96893 L 40.8861,-6.95439
 L 41.5702,-6.81522 L 41.6387,-6.80191 L 42.3251,-6.67468 L 42.3939,-6.66255 L 43.0825,-6.54733 L 43.1514,-6.53642
 L 43.8418,-6.43323 L 43.911,-6.42351 L 44.6031,-6.33238 L 44.6724,-6.32387 L 45.3661,-6.24484 L 45.4355,-6.23755
 L 46.1304,-6.17064 L 46.1999,-6.16455 L 46.8959,-6.10977 L 46.9656,-6.1049 L 47.6624,-6.06229 L 47.7321,-6.05864
 L 48.4295,-6.02818 L 48.4994,-6.02574 L 49.1973,-6.00748 L 49.2669,-6.00626 L 49.965,-6.00015 L 50.035,-6.00015
 z
M 49.3019,-10.0061 L 48.604,-10.0244 L 47.9066,-10.0548 L 47.2097,-10.0974 L 46.5138,-10.1522 L 45.8189,-10.2191
 L 45.1252,-10.2982 L 44.4331,-10.3893 L 43.7426,-10.4925 L 43.0541,-10.6077 L 42.3676,-10.7349 L 41.6835,-10.8741
 L 41.002,-11.0252 L 40.3231,-11.1882 L 39.6472,-11.363 L 38.9745,-11.5495 L 38.3051,-11.7478 L 37.6393,-11.9577
 L 36.9773,-12.1793 L 36.3192,-12.4123 L 35.6653,-12.6568 L 35.0157,-12.9127 L 34.3708,-13.1798 L 33.7305,-13.4582
 L 33.0953,-13.7477 L 32.4652,-14.0482 L 31.8404,-14.3597 L 31.2211,-14.6821 L 30.6076,-15.0152 L 30,-15.359
 L 29.3985,-15.7133 L 28.8032,-16.0781 L 28.2144,-16.4532 L 27.6323,-16.8385 L 27.0569,-17.2339 L 26.4886,-17.6393
 L 25.9274,-18.0546 L 25.3736,-18.4796 L 24.8272,-18.9142 L 24.2885,-19.3582 L 23.7576,-19.8116 L 23.2348,-20.2742
 L 22.7201,-20.7459 L 22.2137,-21.2264 L 21.7157,-21.7157 L 21.2264,-22.2137 L 20.7459,-22.7201 L 20.2742,-23.2348
 L 19.8116,-23.7576 L 19.3582,-24.2885 L 18.9142,-24.8272 L 18.4796,-25.3736 L 18.0546,-25.9274 L 17.6393,-26.4886
 L 17.2339,-27.0569 L 16.8385,-27.6323 L 16.4532,-28.2144 L 16.0781,-28.8032 L 15.7133,-29.3985 L 15.359,-30
 L 15.0152,-30.6076 L 14.6821,-31.2211 L 14.3597,-31.8404 L 14.0482,-32.4652 L 13.7477,-33.0953 L 13.4582,-33.7305
 L 13.1798,-34.3708 L 12.9127,-35.0157 L 12.6568,-35.6653 L 12.4123,-36.3192 L 12.1793,-36.9773 L 11.9577,-37.6393
 L 11.7478,-38.3051 L 11.5495,-38.9745 L 11.363,-39.6472 L 11.1882,-40.3231 L 11.0252,-41.002 L 10.8741,-41.6835
 L 10.7349,-42.3676 L 10.6077,-43.0541 L 10.4925,-43.7426 L 10.3893,-44.4331 L 10.2982,-45.1252 L 10.2191,-45.8189
 L 10.1522,-46.5138 L 10.0974,-47.2097 L 10.0548,-47.9066 L 10.0244,-48.604 L 10.0061,-49.3019 L 10,-50
 L 10.0061,-50.6981 L 10.0244,-51.396 L 10.0548,-52.0934 L 10.0974,-52.7903 L 10.1522,-53.4862 L 10.2191,-54.1811
 L 10.2982,-54.8748 L 10.3893,-55.5669 L 10.4925,-56.2574 L 10.6077,-56.9459 L 10.7349,-57.6324 L 10.8741,-58.3165
 L 11.0252,-58.998 L 11.1882,-59.6769 L 11.363,-60.3528 L 11.5495,-61.0255 L 11.7478,-61.6949 L 11.9577,-62.3607
 L 12.1793,-63.0227 L 12.4123,-63.6808 L 12.6568,-64.3347 L 12.9127,-64.9843 L 13.1798,-65.6292 L 13.4582,-66.2695
 L 13.7477,-66.9047 L 14.0482,-67.5348 L 14.3597,-68.1596 L 14.6821,-68.7789 L 15.0152,-69.3924 L 15.359,-70
 L 15.7133,-70.6015 L 16.0781,-71.1968 L 16.4532,-71.7856 L 16.8385,-72.3677 L 17.2339,-72.9431 L 17.6393,-73.5114
 L 18.0546,-74.0726 L 18.4796,-74.6264 L 18.9142,-75.1728 L 19.3582,-75.7115 L 19.8116,-76.2424 L 20.2742,-76.7652
 L 20.7459,-77.2799 L 21.2264,-77.7863 L 21.7157,-78.2843 L 22.2137,-78.7736 L 22.7201,-79.2541 L 23.2348,-79.7258
 L 23.7576,-80.1884 L 24.2885,-80.6418 L 24.8272,-81.0858 L 25.3736,-81.5204 L 25.9274,-81.9454 L 26.4886,-82.3607
 L 27.0569,-82.7661 L 27.6323,-83.1615 L 28.2144,-83.5468 L 28.8032,-83.9219 L 29.3985,-84.2867 L 30,-84.641
 L 30.6076,-84.9848 L 31.2211,-85.3179 L 31.8404,-85.6403 L 32.4652,-85.9518 L 33.0953,-86.2523 L 33.7305,-86.5418
 L 34.3708,-86.8202 L 35.0157,-87.0873 L 35.6653,-87.3432 L 36.3192,-87.5877 L 36.9773,-87.8207 L 37.6393,-88.0423
 L 38.3051,-88.2522 L 38.9745,-88.4505 L 39.6472,-88.637 L 40.3231,-88.8118 L 41.002,-88.9748 L 41.6835,-89.1259
 L 42.3676,-89.2651 L 43.0541,-89.3923 L 43.7426,-89.5075 L 44.4331,-89.6107 L 45.1252,-89.7018 L 45.8189,-89.7809
 L 46.5138,-89.8478 L 47.2097,-89.9026 L 47.9066,-89.9452 L 48.604,-89.9756 L 49.3019,-89.9939 L 50,-90
 L 50.6981,-89.9939 L 51.396,-89.9756 L 52.0934,-89.9452 L 52.7903,-89.9026 L 53.4862,-89.8478 L 54.1811,-89.7809
 L 54.8748,-89.7018 L 55.5669,-89.6107 L 56.2574,-89.5075 L 56.9459,-89.3923 L 57.6324,-89.2651 L 58.3165,-89.1259
 L 58.998,-88.9748 L 59.6769,-88.8118 L 60.3528,-88.637 L 61.0255,-88.4505 L 61.6949,-88.2522 L 62.3607,-88.0423
 L 63.0227,-87.8207 L 63.6808,-87.5877 L 64.3347,-87.3432 L 64.9843,-87.0873 L 65.6292,-86.8202 L 66.2695,-86.5418
 L 66.9047,-86.2523 L 67.5348,-85.9518 L 68.1596,-85.6403 L 68.7789,-85.3179 L 69.3924,-84.9848 L 70,-84.641
 L 70.6015,-84.2867 L 71.1968,-83.9219 L 71.7856,-83.5468 L 72.3677,-83.1615 L 72.9431,-82.7661 L 73.5114,-82.3607
 L 74.0726,-81.9454 L 74.6264,-81.5204 L 75.1728,-81.0858 L 75.7115,-80.6418 L 76.2424,-80.1884 L 76.7652,-79.7258
 L 77.2799,-79.2541 L 77.7863,-78.7736 L 78.2843,-78.2843 L 78.7736,-77.7863 L 79.2541,-77.2799 L 79.7258,-76.7652
 L 80.1884,-76.2424 L 80.6418,-75.7115 L 81.0858,-75.1728 L 81.5204,-74.6264 L 81.9454,-74.0726 L 82.3607,-73.5114
 L 82.7661,-72.9431 L 83.1615,-72.3677 L 83.5468,-71.7856 L 83.9219,-71.1968 L 84.2867,-70.6015 L 84.641,-70
 L 84.9848,-69.3924 L 85.3179,-68.7789 L 85.6403,-68.1596 L 85.9518,-67.5348 L 86.2523,-66.9047 L 86.5418,-66.2695
 L 86.8202,-65.6292 L 87.0873,-64.9843 L 87.3432,-64.3347 L 87.5877,-63.6808 L 87.8207,-63.0227 L 88.0423,-62.3607
 L 88.2522,-61.6949 L 88.4505,-61.0255 L 88.637,-60.3528 L 88.8118,-59.6769 L 88.9748,-58.998 L 89.1259,-58.3165
 L 89.2651,-57.6324 L 89.3923,-56.9459 L 89.5075,-56.2574 L 89.6107,-55.5669 L 89.7018,-54.8748 L 89.7809,-54.1811
 L 89.8478,-53.4862 L 89.9026,-52.7903 L 89.9452,-52.0934 L 89.9756,-51.396 L 89.9939,-50.6981 L 90,-50
 L 89.9939,-49.3019 L 89.9756,-48.604 L 89.9452,-47.9066 L 89.9026,-47.2097 L 89.8478,-46.5138 L 89.7809,-45.8189
 L 89.7018,-45.1252 L 89.6107,-44.4331 L 89.5075,-43.7426 L 89.3923,-43.0541 L 89.2651,-42.3676 L 89.1259,-41.6835
 L 88.9748,-41.002 L 88.8118,-40.3231 L 88.637,-39.6472 L 88.4505,-38.9745 L 88.2522,-38.3051 L 88.0423,-37.6393
 L 87.8207,-36.9773 L 87.5877,-36.3192 L 87.3432,-35.6653 L 87.0873,-35.0157 L 86.8202,-34.3708 L 86.5418,-33.7305
 L 86.2523,-33.0953 L 85.9518,-32.4652 L 85.6403,-31.8404 L 85.3179,-31.2211 L 84.9848,-30.6076 L 84.641,-30
 L 84.2867,-29.3985 L 83.9219,-28.8032 L 83.5468,-28.2144 L 83.1615,-27.6323 L 82.7661,-27.0569 L 82.3607,-26.4886
 L 81.9454,-25.9274 L 81.5204,-25.3736 L 81.0858,-24.8272 L 80.6418,-24.2885 L 80.1884,-23.7576 L 79.7258,-23.2348
 L 79.2541,-22.7201 L 78.7736,-22.2137 L 78.2843,-21.7157 L 77.7863,-21.2264 L 77.2799,-20.7459 L 76.7652,-20.2742
 L 76.2424,-19.8116 L 75.7115,-19.3582 L 75.1728,-18.9142 L 74.6264,-18.4796 L 74.0726,-18.0546 L 73.5114,-17.6393
 L 72.9431,-17.2339 L 72.3677,-16.8385 L 71.7856,-16.4532 L 71.1968,-16.0781 L 70.6015,-15.7133 L 70,-15.359
 L 69.3924,-15.0152 L 68.7789,-14.6821 L 68.1596,-14.3597 L 67.5348,-14.0482 L 66.9047,-13.7477 L 66.2695,-13.4582
 L 65.6292,-13.1798 L 64.9843,-12.9127 L 64.3347,-12.6568 L 63.6808,-12.4123 L 63.0227,-12.1793 L 62.3607,-11.9577
 L 61.6949,-11.7478 L 61.0255,-11.5495 L 60.3528,-11.363 L 59.6769,-11.1882 L 58.998,-11.0252 L 58.3165,-10.8741
 L 57.6324,-10.7349 L 56.9459,-10.6077 L 56.2574,-10.4925 L 55.5669,-10.3893 L 54.8748,-10.2982 L 54.1811,-10.2191
 L 53.4862,-10.1522 L 52.7903,-10.0974 L 52.0934,-10.0548 L 51.396,-10.0244 L 50.6981,-10.0061 L 50,-10
 z
M 75,-50 L 37.5,-71.6506 L 37.5,-28.3494 z
" stroke="white" fill="white" stroke-width="0.5"/>
</svg>
