<?xml version="1.0" standalone="no"?>
<!DOCTYPE svg PUBLIC "-//W3C//DTD SVG 1.1//EN" "http://www.w3.org/Graphics/SVG/1.1/DTD/svg11.dtd">
<svg width="100mm" height="100mm" viewBox="-8 -108 116 116" xmlns="http://www.w3.org/2000/svg" version="1.1">
<title>OpenSCAD Model</title>
<path d="
M 50.1495,-58.0056 L 50.3473,-58.0304 L 50.5417,-58.0747 L 50.7307,-58.1382 L 50.9124,-58.2202 L 51.0851,-58.3199
 L 51.247,-58.4363 L 51.3965,-58.5683 L 51.5321,-58.7144 L 51.6525,-58.8734 L 51.7564,-59.0435 L 51.8429,-59.2231
 L 51.9111,-59.4105 L 51.9603,-59.6037 L 51.9901,-59.8009 L 52,-60 L 52,-90 L 51.9901,-90.1991
 L 51.9603,-90.3963 L 51.9111,-90.5895 L 51.8429,-90.7769 L 51.7564,-90.9565 L 51.6525,-91.1266 L 51.5321,-91.2856
 L 51.3965,-91.4317 L 51.247,-91.5637 L 51.0851,-91.68 L 50.9124,-91.7797 L 50.7307,-91.8617 L 50.5417,-91.9252
 L 50.3473,-91.9696 L 50.1495,-91.9944 L 49.9501,-91.9994 L 49.7513,-91.9845 L 49.555,-91.9498 L 49.363,-91.8958
 L 49.1774,-91.823 L 49,-91.732 L 48.8325,-91.6239 L 48.6766,-91.4996 L 48.5339,-91.3603 L 48.4057,-91.2076
 L 48.2934,-91.0429 L 48.1981,-90.8678 L 48.1206,-90.684 L 48.0619,-90.4935 L 48.0223,-90.2981 L 48.0025,-90.0997
 L 48.0025,-59.9003 L 48.0223,-59.7019 L 48.0619,-59.5065 L 48.1206,-59.3159 L 48.1981,-59.1322 L 48.2934,-58.9571
 L 48.4057,-58.7924 L 48.5339,-58.6396 L 48.6766,-58.5004 L 48.8325,-58.3761 L 49,-58.2679 L 49.1774,-58.177
 L 49.363,-58.1041 L 49.555,-58.0501 L 49.7513,-58.0155 L 49.9501,-58.0006 z
M 50.2989,-46.0112 L 50.4974,-46.0311 L 50.6946,-46.0608 L 50.8901,-46.1003 L 51.0834,-46.1495 L 51.2739,-46.2083
 L 51.4613,-46.2765 L 51.6451,-46.354 L 51.8248,-46.4405 L 52,-46.5359 L 52.1702,-46.6399 L 52.335,-46.7523
 L 52.494,-46.8727 L 52.6467,-47.0009 L 52.7929,-47.1365 L 52.9322,-47.2793 L 53.0642,-47.4289 L 53.1885,-47.5848
 L 53.3049,-47.7467 L 53.4132,-47.9143 L 53.5129,-48.087 L 53.6039,-48.2645 L 53.6859,-48.4463 L 53.7588,-48.6319
 L 53.8223,-48.821 L 53.8763,-49.013 L 53.9207,-49.2074 L 53.9553,-49.4038 L 53.9801,-49.6017 L 53.995,-49.8006
 L 54,-50 L 53.995,-50.1994 L 53.9801,-50.3983 L 53.9553,-50.5962 L 53.9207,-50.7926 L 53.8763,-50.987
 L 53.8223,-51.179 L 53.7588,-51.3681 L 53.6859,-51.5537 L 53.6039,-51.7355 L 53.5129,-51.913 L 53.4132,-52.0857
 L 53.3049,-52.2533 L 53.1885,-52.4152 L 53.0642,-52.5711 L 52.9322,-52.7207 L 52.7929,-52.8635 L 52.6467,-52.9991
 L 52.494,-53.1273 L 52.335,-53.2477 L 52.1702,-53.3601 L 52,-53.4641 L 51.8248,-53.5595 L 51.6451,-53.646
 L 51.4613,-53.7235 L 51.2739,-53.7917 L 51.0834,-53.8505 L 50.8901,-53.8997 L 50.6946,-53.9392 L 50.4974,-53.9689
 L 50.2989,-53.9888 L 50.0997,-53.9987 L 49.9003,-53.9987 L 49.7011,-53.9888 L 49.5026,-53.9689 L 49.3054,-53.9392
 L 49.1099,-53.8997 L 48.9166,-53.8505 L 48.7261,-53.7917 L 48.5387,-53.7235 L 48.3549,-53.646 L 48.1752,-53.5595
 L 48,-53.4641 L 47.8298,-53.3601 L 47.665,-53.2477 L 47.506,-53.1273 L 47.3533,-52.9991 L 47.2071,-52.8635
 L 47.0678,-52.7207 L 46.9358,-52.5711 L 46.8115,-52.4152 L 46.6951,-52.2533 L 46.5868,-52.0857 L 46.4871,-51.913
 L 46.3961,-51.7355 L 46.3141,-51.5537 L 46.2412,-51.3681 L 46.1777,-51.179 L 46.1237,-50.987 L 46.0793,-50.7926
 L 46.0447,-50.5962 L 46.0199,-50.3983 L 46.005,-50.1994 L 46,-50 L 46.005,-49.8006 L 46.0199,-49.6017
 L 46.0447,-49.4038 L 46.0793,-49.2074 L 46.1237,-49.013 L 46.1777,-48.821 L 46.2412,-48.6319 L 46.3141,-48.4463
 L 46.3961,-48.2645 L 46.4871,-48.087 L 46.5868,-47.9143 L 46.6951,-47.7467 L 46.8115,-47.5848 L 46.9358,-47.4289
 L 47.0678,-47.2793 L 47.2071,-47.1365 L 47.3533,-47.0009 L 47.506,-46.8727 L 47.665,-46.7523 L 47.8298,-46.6399
 L 48,-46.5359 L 48.1752,-46.4405 L 48.3549,-46.354 L 48.5387,-46.2765 L 48.7261,-46.2083 L 48.9166,-46.1495
 L 49.1099,-46.1003 L 49.3054,-46.0608 L 49.5026,-46.0311 L 49.7011,-46.0112 L 49.9003,-46.0013 L 50.0997,-46.0013
 z
M 90.1495,-48.0056 L 90.3473,-48.0304 L 90.5417,-48.0748 L 90.7307,-48.1383 L 90.9124,-48.2203 L 91.0851,-48.32
 L 91.247,-48.4363 L 91.3965,-48.5683 L 91.5321,-48.7144 L 91.6525,-48.8734 L 91.7564,-49.0435 L 91.8429,-49.2231
 L 91.9111,-49.4105 L 91.9603,-49.6037 L 91.9901,-49.8009 L 92,-50 L 91.9901,-50.1991 L 91.9603,-50.3963
 L 91.9111,-50.5895 L 91.8429,-50.7769 L 91.7564,-50.9565 L 91.6525,-51.1266 L 91.5321,-51.2856 L 91.3965,-51.4317
 L 91.247,-51.5637 L 91.0851,-51.68 L 90.9124,-51.7797 L 90.7307,-51.8617 L 90.5417,-51.9252 L 90.3473,-51.9696
 L 90.1495,-51.9944 L 89.9501,-51.9994 L 59.9501,-51.9994 L 59.7513,-51.9845 L 59.5549,-51.9498 L 59.363,-51.8958
 L 59.1774,-51.823 L 59,-51.732 L 58.8325,-51.6239 L 58.6766,-51.4996 L 58.5339,-51.3603 L 58.4057,-51.2076
 L 58.2934,-51.0429 L 58.1981,-50.8678 L 58.1206,-50.684 L 58.0618,-50.4935 L 58.0223,-50.2981 L 58.0025,-50.0997
 L 58.0025,-49.9003 L 58.0223,-49.7019 L 58.0618,-49.5065 L 58.1206,-49.316 L 58.1981,-49.1322 L 58.2934,-48.9571
 L 58.4057,-48.7924 L 58.5339,-48.6397 L 58.6766,-48.5004 L 58.8325,-48.3761 L 59,-48.268 L 59.1774,-48.177
 L 59.363,-48.1042 L 59.5549,-48.0502 L 59.7513,-48.0155 L 59.9501,-48.0006 L 89.9501,-48.0006 z
M 43.0766,-41.3358 L 43.2712,-41.366 L 43.4607,-41.4199 L 43.6421,-41.4967 L 43.8127,-41.5952 L 43.9699,-41.7139
 L 44.1114,-41.851 L 44.2348,-42.0045 L 44.3386,-42.172 L 44.4209,-42.351 L 44.4806,-42.5387 L 44.5168,-42.7323
 L 44.5289,-42.9289 L 44.5168,-43.1256 L 44.4806,-43.3192 L 44.4209,-43.5069 L 44.3386,-43.6859 L 44.2348,-43.8534
 L 44.1114,-44.0069 L 43.9699,-44.144 L 43.8127,-44.2627 L 43.6421,-44.3612 L 43.4607,-44.438 L 43.2712,-44.4919
 L 43.0766,-44.5221 L 42.8797,-44.5282 L 42.6835,-44.51 L 42.4911,-44.4679 L 42.3053,-44.4024 L 42.1289,-44.3146
 L 41.9647,-44.2058 L 41.8151,-44.0776 L 41.6824,-43.932 L 41.5686,-43.7712 L 41.4754,-43.5977 L 41.4042,-43.414
 L 41.3562,-43.2229 L 41.332,-43.0274 L 41.332,-42.8304 L 41.3562,-42.6349 L 41.4042,-42.4439 L 41.4754,-42.2602
 L 41.5686,-42.0867 L 41.6824,-41.9259 L 41.8151,-41.7803 L 41.9647,-41.6521 L 42.1289,-41.5433 L 42.3053,-41.4555
 L 42.4911,-41.39 L 42.6835,-41.3479 L 42.8797,-41.3297 z
M 40.0461,-38.3053 L 40.2408,-38.3355 L 40.4303,-38.3894 L 40.6117,-38.4662 L 40.7823,-38.5647 L 40.9395,-38.6834
 L 41.0809,-38.8206 L 41.2044,-38.974 L 41.3081,-39.1415 L 41.3904,-39.3205 L 41.4502,-39.5082 L 41.4864,-39.7019
 L 41.4985,-39.8985 L 41.4864,-40.0951 L 41.4502,-40.2887 L 41.3904,-40.4765 L 41.3081,-40.6554 L 41.2044,-40.8229
 L 41.0809,-40.9764 L 40.9395,-41.1135 L 40.7823,-41.2322 L 40.6117,-41.3307 L 40.4303,-41.4075 L 40.2408,-41.4614
 L 40.0461,-41.4917 L 39.8492,-41.4977 L 39.6531,-41.4796 L 39.4606,-41.4374 L 39.2748,-41.3719 L 39.0985,-41.2841
 L 38.9343,-41.1753 L 38.7847,-41.0471 L 38.6519,-40.9016 L 38.5381,-40.7408 L 38.4449,-40.5672 L 38.3738,-40.3835
 L 38.3257,-40.1925 L 38.3015,-39.997 L 38.3015,-39.8 L 38.3257,-39.6045 L 38.3738,-39.4134 L 38.4449,-39.2298
 L 38.5381,-39.0562 L 38.6519,-38.8954 L 38.7847,-38.7498 L 38.9343,-38.6217 L 39.0985,-38.5128 L 39.2748,-38.425
 L 39.4606,-38.3596 L 39.6531,-38.3174 L 39.8492,-38.2992 z
M 37.0157,-35.2749 L 37.2103,-35.3051 L 37.3998,-35.359 L 37.5812,-35.4358 L 37.7518,-35.5343 L 37.909,-35.653
 L 38.0504,-35.7901 L 38.1739,-35.9436 L 38.2776,-36.1111 L 38.36,-36.29 L 38.4197,-36.4778 L 38.4559,-36.6714
 L 38.468,-36.868 L 38.4559,-37.0647 L 38.4197,-37.2583 L 38.36,-37.446 L 38.2776,-37.625 L 38.1739,-37.7925
 L 38.0504,-37.9459 L 37.909,-38.0831 L 37.7518,-38.2018 L 37.5812,-38.3003 L 37.3998,-38.3771 L 37.2103,-38.431
 L 37.0157,-38.4612 L 36.8188,-38.4673 L 36.6226,-38.4491 L 36.4302,-38.407 L 36.2444,-38.3415 L 36.068,-38.2537
 L 35.9038,-38.1449 L 35.7542,-38.0167 L 35.6215,-37.8711 L 35.5077,-37.7103 L 35.4145,-37.5368 L 35.3433,-37.3531
 L 35.2953,-37.162 L 35.2711,-36.9665 L 35.2711,-36.7695 L 35.2953,-36.574 L 35.3433,-36.383 L 35.4145,-36.1993
 L 35.5077,-36.0257 L 35.6215,-35.8649 L 35.7542,-35.7194 L 35.9038,-35.5912 L 36.068,-35.4824 L 36.2444,-35.3946
 L 36.4302,-35.3291 L 36.6226,-35.287 L 36.8188,-35.2688 z
M 33.9852,-32.2444 L 34.1799,-32.2746 L 34.3693,-32.3285 L 34.5508,-32.4053 L 34.7213,-32.5038 L 34.8786,-32.6225
 L 35.02,-32.7597 L 35.1435,-32.9131 L 35.2472,-33.0806 L 35.3295,-33.2596 L 35.3892,-33.4473 L 35.4254,-33.6409
 L 35.4376,-33.8376 L 35.4254,-34.0342 L 35.3892,-34.2278 L 35.3295,-34.4156 L 35.2472,-34.5945 L 35.1435,-34.762
 L 35.02,-34.9155 L 34.8786,-35.0526 L 34.7213,-35.1713 L 34.5508,-35.2698 L 34.3693,-35.3466 L 34.1799,-35.4005
 L 33.9852,-35.4307 L 33.7883,-35.4368 L 33.5921,-35.4186 L 33.3997,-35.3765 L 33.2139,-35.311 L 33.0376,-35.2232
 L 32.8734,-35.1144 L 32.7238,-34.9862 L 32.591,-34.8407 L 32.4772,-34.6799 L 32.384,-34.5063 L 32.3129,-34.3226
 L 32.2648,-34.1316 L 32.2406,-33.9361 L 32.2406,-33.7391 L 32.2648,-33.5436 L 32.3129,-33.3525 L 32.384,-33.1688
 L 32.4772,-32.9953 L 32.591,-32.8345 L 32.7238,-32.6889 L 32.8734,-32.5607 L 33.0376,-32.4519 L 33.2139,-32.3641
 L 33.3997,-32.2986 L 33.5921,-32.2565 L 33.7883,-32.2383 z
M 30.9547,-29.2139 L 31.1494,-29.2442 L 31.3389,-29.2981 L 31.5203,-29.3748 L 31.6909,-29.4733 L 31.8481,-29.5921
 L 31.9895,-29.7292 L 32.113,-29.8827 L 32.2167,-30.0502 L 32.2991,-30.2291 L 32.3588,-30.4169 L 32.395,-30.6105
 L 32.4071,-30.8071 L 32.395,-31.0037 L 32.3588,-31.1974 L 32.2991,-31.3851 L 32.2167,-31.5641 L 32.113,-31.7316
 L 31.9895,-31.885 L 31.8481,-32.0222 L 31.6909,-32.1409 L 31.5203,-32.2394 L 31.3389,-32.3162 L 31.1494,-32.3701
 L 30.9547,-32.4003 L 30.7578,-32.4064 L 30.5617,-32.3882 L 30.3692,-32.346 L 30.1835,-32.2806 L 30.0071,-32.1927
 L 29.8429,-32.0839 L 29.6933,-31.9558 L 29.5606,-31.8102 L 29.4468,-31.6494 L 29.3536,-31.4758 L 29.2824,-31.2922
 L 29.2344,-31.1011 L 29.2101,-30.9056 L 29.2101,-30.7086 L 29.2344,-30.5131 L 29.2824,-30.3221 L 29.3536,-30.1384
 L 29.4468,-29.9648 L 29.5606,-29.804 L 29.6933,-29.6584 L 29.8429,-29.5303 L 30.0071,-29.4215 L 30.1835,-29.3337
 L 30.3692,-29.2682 L 30.5617,-29.226 L 30.7578,-29.2079 z
M 27.9243,-26.1835 L 28.1189,-26.2137 L 28.3084,-26.2676 L 28.4898,-26.3444 L 28.6604,-26.4429 L 28.8176,-26.5616
 L 28.9591,-26.6987 L 29.0826,-26.8522 L 29.1863,-27.0197 L 29.2686,-27.1987 L 29.3283,-27.3864 L 29.3645,-27.58
 L 29.3766,-27.7767 L 29.3645,-27.9733 L 29.3283,-28.1669 L 29.2686,-28.3546 L 29.1863,-28.5336 L 29.0826,-28.7011
 L 28.9591,-28.8546 L 28.8176,-28.9917 L 28.6604,-29.1104 L 28.4898,-29.2089 L 28.3084,-29.2857 L 28.1189,-29.3396
 L 27.9243,-29.3698 L 27.7274,-29.3759 L 27.5312,-29.3577 L 27.3388,-29.3156 L 27.153,-29.2501 L 26.9767,-29.1623
 L 26.8124,-29.0535 L 26.6628,-28.9253 L 26.5301,-28.7797 L 26.4163,-28.6189 L 26.3231,-28.4454 L 26.2519,-28.2617
 L 26.2039,-28.0706 L 26.1797,-27.8752 L 26.1797,-27.6782 L 26.2039,-27.4827 L 26.2519,-27.2916 L 26.3231,-27.1079
 L 26.4163,-26.9344 L 26.5301,-26.7736 L 26.6628,-26.628 L 26.8124,-26.4998 L 26.9767,-26.391 L 27.153,-26.3032
 L 27.3388,-26.2377 L 27.5312,-26.1956 L 27.7274,-26.1774 z
M 24.8938,-23.153 L 25.0885,-23.1832 L 25.278,-23.2372 L 25.4594,-23.3139 L 25.63,-23.4124 L 25.7872,-23.5311
 L 25.9286,-23.6683 L 26.0521,-23.8218 L 26.1558,-23.9892 L 26.2381,-24.1682 L 26.2979,-24.3559 L 26.3341,-24.5496
 L 26.3462,-24.7462 L 26.3341,-24.9428 L 26.2979,-25.1365 L 26.2381,-25.3242 L 26.1558,-25.5031 L 26.0521,-25.6706
 L 25.9286,-25.8241 L 25.7872,-25.9612 L 25.63,-26.08 L 25.4594,-26.1785 L 25.278,-26.2552 L 25.0885,-26.3092
 L 24.8938,-26.3394 L 24.6969,-26.3454 L 24.5008,-26.3273 L 24.3083,-26.2851 L 24.1225,-26.2197 L 23.9462,-26.1318
 L 23.782,-26.023 L 23.6324,-25.8949 L 23.4997,-25.7493 L 23.3858,-25.5885 L 23.2926,-25.4149 L 23.2215,-25.2312
 L 23.1734,-25.0402 L 23.1492,-24.8447 L 23.1492,-24.6477 L 23.1734,-24.4522 L 23.2215,-24.2612 L 23.2926,-24.0775
 L 23.3858,-23.9039 L 23.4997,-23.7431 L 23.6324,-23.5975 L 23.782,-23.4694 L 23.9462,-23.3605 L 24.1225,-23.2728
 L 24.3083,-23.2073 L 24.5008,-23.1651 L 24.6969,-23.147 z
M 21.8634,-20.1226 L 22.058,-20.1528 L 22.2475,-20.2067 L 22.4289,-20.2835 L 22.5995,-20.382 L 22.7567,-20.5007
 L 22.8981,-20.6378 L 23.0217,-20.7913 L 23.1254,-20.9588 L 23.2077,-21.1378 L 23.2674,-21.3255 L 23.3036,-21.5191
 L 23.3157,-21.7157 L 23.3036,-21.9124 L 23.2674,-22.106 L 23.2077,-22.2937 L 23.1254,-22.4727 L 23.0217,-22.6402
 L 22.8981,-22.7937 L 22.7567,-22.9308 L 22.5995,-23.0495 L 22.4289,-23.148 L 22.2475,-23.2248 L 22.058,-23.2787
 L 21.8634,-23.3089 L 21.6665,-23.315 L 21.4703,-23.2968 L 21.2779,-23.2547 L 21.0921,-23.1892 L 20.9157,-23.1014
 L 20.7515,-22.9926 L 20.6019,-22.8644 L 20.4692,-22.7188 L 20.3554,-22.558 L 20.2622,-22.3845 L 20.191,-22.2008
 L 20.143,-22.0097 L 20.1188,-21.8142 L 20.1188,-21.6172 L 20.143,-21.4217 L 20.191,-21.2307 L 20.2622,-21.047
 L 20.3554,-20.8734 L 20.4692,-20.7127 L 20.6019,-20.5671 L 20.7515,-20.4389 L 20.9157,-20.3301 L 21.0921,-20.2423
 L 21.2779,-20.1768 L 21.4703,-20.1347 L 21.6665,-20.1165 z
" stroke="black" fill="black" stroke-width="0.5"/>
</svg>
