<?xml version="1.0" standalone="no"?>
<!DOCTYPE svg PUBLIC "-//W3C//DTD SVG 1.1//EN" "http://www.w3.org/Graphics/SVG/1.1/DTD/svg11.dtd">
<svg width="88mm" height="100mm" viewBox="-8 -100 88 100" xmlns="http://www.w3.org/2000/svg" version="1.1">
<title>OpenSCAD Model</title>
<path d="
M 5,-70 L 23,-70 L 23.2617,-70.0069 L 23.4707,-70.0178 L 23.9912,-70.0725 L 24.198,-70.1053
 L 24.71,-70.2141 L 24.9122,-70.2683 L 25.4099,-70.43 L 25.6053,-70.505 L 26.0833,-70.7178 L 26.2698,-70.8129
 L 26.7234,-71.0747 L 26.899,-71.1888 L 27.3222,-71.4963 L 27.4849,-71.628 L 27.8738,-71.9782 L 28.0218,-72.1262
 L 28.372,-72.5151 L 28.5037,-72.6778 L 28.8112,-73.101 L 28.9253,-73.2766 L 29.1871,-73.7302 L 29.2822,-73.9167
 L 29.495,-74.3947 L 29.57,-74.5901 L 29.7317,-75.0878 L 29.7859,-75.29 L 29.8947,-75.802 L 29.9275,-76.0088
 L 29.9822,-76.5293 L 29.9931,-76.7383 L 30,-77 L 30,-95 L 63,-95 L 63.2091,-94.989
 L 63.4158,-94.9563 L 63.618,-94.9021 L 63.8135,-94.8271 L 64,-94.7321 L 64.1756,-94.618 L 64.3383,-94.4863
 L 64.4863,-94.3383 L 64.618,-94.1756 L 64.7321,-94 L 64.8271,-93.8135 L 64.9021,-93.618 L 64.9563,-93.4158
 L 64.989,-93.2091 L 65,-93 L 65,-45 L 70,-45 L 70,-93 L 69.9931,-93.2617
 L 69.9822,-93.4707 L 69.9275,-93.9912 L 69.8947,-94.198 L 69.7859,-94.71 L 69.7317,-94.9122 L 69.57,-95.4099
 L 69.495,-95.6053 L 69.2822,-96.0833 L 69.1871,-96.2698 L 68.9253,-96.7234 L 68.8112,-96.899 L 68.5037,-97.3222
 L 68.372,-97.4849 L 68.0218,-97.8738 L 67.8738,-98.0218 L 67.4849,-98.372 L 67.3222,-98.5037 L 66.899,-98.8112
 L 66.7234,-98.9253 L 66.2698,-99.1871 L 66.0833,-99.2822 L 65.6053,-99.495 L 65.4099,-99.57 L 64.9122,-99.7317
 L 64.71,-99.7859 L 64.198,-99.8947 L 63.9912,-99.9275 L 63.4707,-99.9822 L 63.2617,-99.9931 L 63,-100
 L 25,-100 L 0,-75 L 0,-45 L 5,-45 z
M 4.99907,-0.0711975 L 7.09825,-0.284805 L 9.06206,-0.640823 L 10.8905,-1.13924 L 12.5836,-1.78008 L 14.1413,-2.56331
 L 15.5636,-3.48895 L 16.8506,-4.55699 L 17.9938,-5.75891 L 18.9846,-7.08618 L 19.8229,-8.53879 L 20.5089,-10.1167
 L 21.0423,-11.82 L 21.4234,-13.6487 L 21.652,-15.6027 L 21.7282,-17.682 L 21.6548,-19.6379 L 21.4345,-21.4825
 L 21.0674,-23.2159 L 20.5534,-24.838 L 19.8925,-26.3488 L 19.0848,-27.7484 L 18.1302,-29.0367 L 17.0288,-30.2137
 L 15.7946,-31.2651 L 14.4417,-32.1763 L 12.9702,-32.9474 L 11.38,-33.5782 L 9.67108,-34.0689 L 7.84352,-34.4193
 L 5.89729,-34.6296 L 3.8324,-34.6997 L -7.06136,-34.6997 L -7.06136,-0 L 2.76454,-0 z
M 0.29599,-6.07599 L 0.29599,-28.6713 L 4.21214,-28.6713 L 6.52625,-28.4966 L 8.5318,-27.9726 L 10.2288,-27.0992
 L 11.6173,-25.8765 L 12.6972,-24.3045 L 13.4686,-22.3831 L 13.9314,-20.1124 L 14.0856,-17.4923 L 13.9195,-14.8166
 L 13.4211,-12.4977 L 12.5904,-10.5355 L 11.4274,-8.93007 L 9.93213,-7.68141 L 8.10458,-6.78951 L 5.94475,-6.25438
 L 3.45265,-6.07599 z
M 39.661,-13.125 L 47.7306,-0 L 56.1327,-0 L 44.408,-17.4923 L 55.3018,-34.6997 L 47.3746,-34.6997
 L 40.0407,-22.2155 L 32.5644,-34.6997 L 24.4472,-34.6997 L 35.2226,-17.8958 L 23.7115,-0 L 31.5914,-0
 z
M 66.9809,-13.7186 L 78.7531,-13.7186 L 78.7531,-19.7232 L 66.9809,-19.7232 L 66.9809,-28.6713 L 79.6312,-28.6713
 L 79.6312,-34.6997 L 59.7421,-34.6997 L 59.7421,-0 L 66.9809,-0 z
" stroke="white" fill="white" stroke-width="0.5"/>
</svg>
