<?xml version="1.0" standalone="no"?>
<!DOCTYPE svg PUBLIC "-//W3C//DTD SVG 1.1//EN" "http://www.w3.org/Graphics/SVG/1.1/DTD/svg11.dtd">
<svg width="100mm" height="100mm" viewBox="-8 -108 116 116" xmlns="http://www.w3.org/2000/svg" version="1.1">
<title>OpenSCAD Model</title>
<path d="
M 84.1993,-0.00497437 L 84.3984,-0.0149078 L 84.5973,-0.0298004 L 84.7955,-0.0546417 L 84.9926,-0.0843658 L 85.1891,-0.119003
 L 85.3832,-0.163315 L 85.5764,-0.212509 L 85.7684,-0.266525 L 85.9575,-0.330063 L 86.1449,-0.398254 L 86.3306,-0.471115
 L 86.5125,-0.553223 L 86.6922,-0.63974 L 86.8696,-0.730728 L 87.0423,-0.830399 L 87.2124,-0.934357 L 87.3799,-1.04256
 L 87.5419,-1.15901 L 87.7008,-1.2794 L 87.8568,-1.40376 L 88.0063,-1.53571 L 88.1524,-1.67133 L 88.2952,-1.81058
 L 88.4308,-1.95677 L 88.5628,-2.10626 L 88.691,-2.25905 L 88.8113,-2.41792 L 88.9277,-2.5798 L 89.0401,-2.74458
 L 89.1443,-2.9151 L 89.244,-3.08778 L 89.3393,-3.26295 L 89.4258,-3.44243 L 89.5078,-3.62416 L 89.5852,-3.80795
 L 89.6534,-3.99522 L 89.7169,-4.18422 L 89.7757,-4.3748 L 89.825,-4.56818 L 89.8693,-4.76257 L 89.9088,-4.95807
 L 89.9386,-5.15555 L 89.9634,-5.35338 L 89.9832,-5.55183 L 89.9916,-5.70078 L 89.9972,-5.85023 L 90,-6
 L 90,-94 L 89.995,-94.1993 L 89.9851,-94.3984 L 89.9702,-94.5973 L 89.9454,-94.7955 L 89.9156,-94.9926
 L 89.881,-95.1891 L 89.8367,-95.3832 L 89.7875,-95.5764 L 89.7335,-95.7684 L 89.6699,-95.9575 L 89.6017,-96.1449
 L 89.5289,-96.3306 L 89.4468,-96.5125 L 89.3603,-96.6922 L 89.2693,-96.8696 L 89.1696,-97.0423 L 89.0656,-97.2124
 L 88.9574,-97.3799 L 88.841,-97.5419 L 88.7206,-97.7008 L 88.5962,-97.8568 L 88.4643,-98.0063 L 88.3287,-98.1524
 L 88.1894,-98.2952 L 88.0432,-98.4308 L 87.8937,-98.5628 L 87.741,-98.691 L 87.5821,-98.8113 L 87.4202,-98.9277
 L 87.2554,-99.0401 L 87.0849,-99.1443 L 86.9122,-99.244 L 86.737,-99.3393 L 86.5576,-99.4258 L 86.3758,-99.5078
 L 86.192,-99.5852 L 86.0048,-99.6534 L 85.8158,-99.7169 L 85.6252,-99.7757 L 85.4318,-99.825 L 85.2374,-99.8693
 L 85.0419,-99.9088 L 84.8445,-99.9386 L 84.6466,-99.9634 L 84.4482,-99.9832 L 84.2992,-99.9916 L 84.1498,-99.9972
 L 84,-100 L 36,-100 L 10,-74 L 10,-50 L 14,-50 L 14,-70
 L 34,-70 L 34.1993,-70.005 L 34.3984,-70.0149 L 34.5973,-70.0298 L 34.7955,-70.0546 L 34.9926,-70.0844
 L 35.1891,-70.119 L 35.3832,-70.1633 L 35.5764,-70.2125 L 35.7684,-70.2665 L 35.9575,-70.3301 L 36.1449,-70.3983
 L 36.3306,-70.4711 L 36.5125,-70.5532 L 36.6922,-70.6397 L 36.8696,-70.7307 L 37.0423,-70.8304 L 37.2124,-70.9344
 L 37.3799,-71.0426 L 37.5419,-71.159 L 37.7008,-71.2794 L 37.8568,-71.4038 L 38.0063,-71.5357 L 38.1524,-71.6713
 L 38.2952,-71.8106 L 38.4308,-71.9568 L 38.5628,-72.1063 L 38.691,-72.259 L 38.8113,-72.4179 L 38.9277,-72.5798
 L 39.0401,-72.7446 L 39.1443,-72.9151 L 39.244,-73.0878 L 39.3393,-73.263 L 39.4258,-73.4424 L 39.5078,-73.6242
 L 39.5852,-73.808 L 39.6534,-73.9952 L 39.7169,-74.1842 L 39.7757,-74.3748 L 39.825,-74.5682 L 39.8693,-74.7626
 L 39.9088,-74.9581 L 39.9386,-75.1555 L 39.9634,-75.3534 L 39.9832,-75.5518 L 39.9916,-75.7008 L 39.9972,-75.8502
 L 40,-76 L 40,-96 L 84,-96 L 84.1495,-95.9944 L 84.3473,-95.9696 L 84.5417,-95.9252
 L 84.7307,-95.8617 L 84.9124,-95.7797 L 85.0851,-95.6801 L 85.247,-95.5637 L 85.3965,-95.4317 L 85.5321,-95.2856
 L 85.6525,-95.1266 L 85.7564,-94.9565 L 85.843,-94.7769 L 85.9111,-94.5895 L 85.9603,-94.3963 L 85.9901,-94.1991
 L 86,-94 L 86,-6 L 85.9944,-5.85054 L 85.9696,-5.65271 L 85.9252,-5.45831 L 85.8617,-5.26932
 L 85.7797,-5.08759 L 85.6801,-4.9149 L 85.5637,-4.75302 L 85.4317,-4.60353 L 85.2856,-4.46791 L 85.1266,-4.34752
 L 84.9565,-4.24356 L 84.7769,-4.15704 L 84.5895,-4.08885 L 84.3963,-4.03966 L 84.1991,-4.00993 L 84,-4
 L 80,-4 L 80,-0 L 84,-0 z
M 39.2744,0.54306 L 39.4686,0.53952 L 39.6614,0.5336 L 39.8526,0.525314 L 40.0423,0.514679 L 40.2304,0.501648
 L 40.417,0.486267 L 40.6021,0.468536 L 40.7856,0.44841 L 40.9676,0.425934 L 41.148,0.401093 L 41.327,0.373886
 L 41.5044,0.344299 L 41.6802,0.312363 L 41.8546,0.278046 L 42.0273,0.241379 L 42.1986,0.202332 L 42.3683,0.160919
 L 42.5365,0.117142 L 42.7032,0.0710144 L 42.8683,0.0225067 L 43.0319,-0.0283508 L 43.194,-0.0815887 L 43.3545,-0.137192
 L 43.5135,-0.19516 L 43.6709,-0.255508 L 43.8268,-0.318207 L 43.9812,-0.38327 L 44.134,-0.450714 L 44.2854,-0.520523
 L 44.4352,-0.592682 L 44.5834,-0.667206 L 44.7301,-0.74411 L 44.8753,-0.82338 L 45.0189,-0.905014 L 45.161,-0.989029
 L 45.3016,-1.07539 L 45.4407,-1.16412 L 45.5782,-1.25522 L 45.7141,-1.34869 L 45.8486,-1.44452 L 45.9815,-1.54271
 L 46.1129,-1.64326 L 46.2427,-1.7462 L 46.371,-1.8515 L 46.4977,-1.95917 L 46.6231,-2.06894 L 46.747,-2.1806
 L 46.8695,-2.29413 L 46.9906,-2.40956 L 47.1102,-2.52684 L 47.2285,-2.64603 L 47.3454,-2.76706 L 47.4608,-2.88998
 L 47.5749,-3.01479 L 47.6876,-3.14146 L 47.7988,-3.27002 L 47.9086,-3.40045 L 48.0171,-3.53278 L 48.1241,-3.66696
 L 48.2297,-3.80302 L 48.3339,-3.94096 L 48.4367,-4.0808 L 48.5381,-4.22249 L 48.6381,-4.36607 L 48.7367,-4.51152
 L 48.8339,-4.65884 L 48.9297,-4.80806 L 49.024,-4.95915 L 49.117,-5.11211 L 49.2086,-5.26694 L 49.2987,-5.42366
 L 49.3875,-5.58226 L 49.4748,-5.74272 L 49.5607,-5.90508 L 49.6453,-6.06929 L 49.7284,-6.2354 L 49.8101,-6.40338
 L 49.8904,-6.57323 L 49.9693,-6.74498 L 50.0468,-6.91858 L 50.1229,-7.09407 L 50.1975,-7.27145 L 50.2708,-7.45068
 L 50.3427,-7.63181 L 50.4131,-7.8148 L 50.4822,-7.99968 L 50.5499,-8.18643 L 50.6161,-8.37506 L 50.6809,-8.56557
 L 50.7444,-8.75795 L 50.8064,-8.95222 L 50.867,-9.14816 L 50.9264,-9.3456 L 50.9844,-9.54448 L 51.041,-9.74483
 L 51.0964,-9.94664 L 51.1504,-10.1499 L 51.203,-10.3547 L 51.2543,-10.5609 L 51.3044,-10.7685 L 51.353,-10.9777
 L 51.4004,-11.1883 L 51.4464,-11.4004 L 51.491,-11.6139 L 51.5343,-11.8289 L 51.5763,-12.0454 L 51.617,-12.2633
 L 51.6563,-12.4827 L 51.6943,-12.7036 L 51.731,-12.9259 L 51.7663,-13.1497 L 51.8003,-13.375 L 51.833,-13.6017
 L 51.8643,-13.8299 L 51.8943,-14.0595 L 51.923,-14.2906 L 51.9503,-14.5232 L 51.9763,-14.7573 L 52.001,-14.9928
 L 52.0243,-15.2298 L 52.0463,-15.4683 L 52.067,-15.7082 L 52.0863,-15.9495 L 52.1043,-16.1924 L 52.121,-16.4367
 L 52.1363,-16.6825 L 52.1503,-16.9297 L 52.163,-17.1784 L 52.1743,-17.4286 L 52.1843,-17.6803 L 52.193,-17.9334
 L 52.2003,-18.1879 L 52.2063,-18.444 L 52.211,-18.7015 L 52.2143,-18.9604 L 52.2163,-19.2209 L 52.217,-19.4828
 L 52.2163,-19.7447 L 52.2143,-20.0051 L 52.211,-20.2641 L 52.2063,-20.5216 L 52.2003,-20.7777 L 52.193,-21.0323
 L 52.1843,-21.2854 L 52.1743,-21.537 L 52.163,-21.7872 L 52.1503,-22.0359 L 52.1363,-22.2832 L 52.121,-22.529
 L 52.1043,-22.7733 L 52.0863,-23.0162 L 52.067,-23.2575 L 52.0463,-23.4975 L 52.0243,-23.7359 L 52.001,-23.9729
 L 51.9763,-24.2084 L 51.9503,-24.4425 L 51.923,-24.6751 L 51.8943,-24.9062 L 51.8643,-25.1359 L 51.833,-25.3641
 L 51.8003,-25.5908 L 51.7663,-25.816 L 51.731,-26.0398 L 51.6943,-26.2622 L 51.6563,-26.483 L 51.617,-26.7024
 L 51.5763,-26.9203 L 51.5343,-27.1368 L 51.491,-27.3518 L 51.4464,-27.5653 L 51.4004,-27.7774 L 51.353,-27.988
 L 51.3044,-28.1971 L 51.2543,-28.4048 L 51.203,-28.611 L 51.1504,-28.8157 L 51.0964,-29.019 L 51.041,-29.2208
 L 50.9844,-29.4211 L 50.9264,-29.62 L 50.867,-29.8174 L 50.8064,-30.0133 L 50.7444,-30.2076 L 50.6809,-30.3999
 L 50.6161,-30.5904 L 50.5499,-30.779 L 50.4822,-30.9656 L 50.4131,-31.1504 L 50.3427,-31.3332 L 50.2708,-31.5141
 L 50.1975,-31.6932 L 50.1229,-31.8703 L 50.0468,-32.0455 L 49.9693,-32.2189 L 49.8904,-32.3903 L 49.8101,-32.5598
 L 49.7284,-32.7274 L 49.6453,-32.8932 L 49.5607,-33.057 L 49.4748,-33.2189 L 49.3875,-33.3789 L 49.2987,-33.537
 L 49.2086,-33.6932 L 49.117,-33.8474 L 49.024,-33.9998 L 48.9297,-34.1503 L 48.8339,-34.2989 L 48.7367,-34.4456
 L 48.6381,-34.5904 L 48.5381,-34.7332 L 48.4367,-34.8742 L 48.3339,-35.0132 L 48.2297,-35.1504 L 48.1241,-35.2857
 L 48.0171,-35.419 L 47.9086,-35.5504 L 47.7988,-35.68 L 47.6876,-35.8076 L 47.5749,-35.9334 L 47.4608,-36.0572
 L 47.3454,-36.1791 L 47.2285,-36.2992 L 47.1102,-36.4173 L 46.9906,-36.5335 L 46.8695,-36.6478 L 46.747,-36.7602
 L 46.6231,-36.8707 L 46.4977,-36.9794 L 46.371,-37.0858 L 46.2428,-37.19 L 46.113,-37.2918 L 45.9818,-37.3913
 L 45.849,-37.4884 L 45.7148,-37.5832 L 45.5791,-37.6757 L 45.4418,-37.7658 L 45.3031,-37.8536 L 45.1629,-37.939
 L 45.0211,-38.0221 L 44.8779,-38.1029 L 44.7332,-38.1813 L 44.587,-38.2573 L 44.4393,-38.3311 L 44.2901,-38.4025
 L 44.1393,-38.4715 L 43.9871,-38.5382 L 43.8334,-38.6026 L 43.6782,-38.6646 L 43.5215,-38.7243 L 43.3633,-38.7816
 L 43.2036,-38.8366 L 43.0424,-38.8893 L 42.8797,-38.9396 L 42.7155,-38.9876 L 42.5499,-39.0333 L 42.3827,-39.0766
 L 42.214,-39.1175 L 42.0438,-39.1561 L 41.8721,-39.1924 L 41.6989,-39.2263 L 41.5243,-39.2579 L 41.3481,-39.2872
 L 41.1704,-39.3141 L 40.9913,-39.3387 L 40.8106,-39.3609 L 40.6284,-39.3808 L 40.4448,-39.3984 L 40.2596,-39.4136
 L 40.073,-39.4265 L 39.8848,-39.437 L 39.6952,-39.4452 L 39.504,-39.451 L 39.3114,-39.4546 L 39.1172,-39.4557
 L 38.9214,-39.4546 L 38.7271,-39.451 L 38.5343,-39.4452 L 38.343,-39.437 L 38.1533,-39.4265 L 37.9651,-39.4136
 L 37.7783,-39.3984 L 37.5931,-39.3808 L 37.4095,-39.3609 L 37.2273,-39.3387 L 37.0466,-39.3141 L 36.8675,-39.2872
 L 36.6898,-39.2579 L 36.5137,-39.2263 L 36.3391,-39.1924 L 36.166,-39.1561 L 35.9945,-39.1175 L 35.8244,-39.0766
 L 35.6559,-39.0333 L 35.4889,-38.9876 L 35.3234,-38.9396 L 35.1594,-38.8893 L 34.9969,-38.8366 L 34.8359,-38.7816
 L 34.6765,-38.7243 L 34.5186,-38.6646 L 34.3622,-38.6026 L 34.2073,-38.5382 L 34.0539,-38.4715 L 33.902,-38.4025
 L 33.7517,-38.3311 L 33.6028,-38.2573 L 33.4555,-38.1813 L 33.3097,-38.1029 L 33.1654,-38.0221 L 33.0226,-37.939
 L 32.8814,-37.8536 L 32.7417,-37.7658 L 32.6034,-37.6757 L 32.4667,-37.5832 L 32.3315,-37.4884 L 32.1978,-37.3913
 L 32.0657,-37.2918 L 31.935,-37.19 L 31.8059,-37.0858 L 31.6783,-36.9794 L 31.5521,-36.8708 L 31.4274,-36.7603
 L 31.3041,-36.6479 L 31.1823,-36.5337 L 31.0618,-36.4176 L 30.9428,-36.2996 L 30.8252,-36.1798 L 30.7091,-36.058
 L 30.5943,-35.9344 L 30.481,-35.8089 L 30.3691,-35.6816 L 30.2587,-35.5523 L 30.1496,-35.4212 L 30.042,-35.2882
 L 29.9358,-35.1533 L 29.8311,-35.0166 L 29.7277,-34.8779 L 29.6258,-34.7374 L 29.5253,-34.595 L 29.4262,-34.4508
 L 29.3286,-34.3046 L 29.2324,-34.1566 L 29.1376,-34.0067 L 29.0442,-33.8549 L 28.9523,-33.7013 L 28.8617,-33.5457
 L 28.7726,-33.3883 L 28.685,-33.229 L 28.5987,-33.0679 L 28.5139,-32.9048 L 28.4305,-32.7399 L 28.3485,-32.5731
 L 28.268,-32.4044 L 28.1889,-32.2339 L 28.1111,-32.0614 L 28.0349,-31.8871 L 27.96,-31.7109 L 27.8866,-31.5329
 L 27.8146,-31.3529 L 27.744,-31.1711 L 27.6749,-30.9874 L 27.6071,-30.8018 L 27.5408,-30.6144 L 27.4759,-30.425
 L 27.4125,-30.2338 L 27.3505,-30.0407 L 27.2898,-29.846 L 27.2305,-29.6497 L 27.1725,-29.452 L 27.1158,-29.2527
 L 27.0605,-29.052 L 27.0065,-28.8497 L 26.9539,-28.646 L 26.9026,-28.4408 L 26.8526,-28.2341 L 26.8039,-28.0259
 L 26.7566,-27.8162 L 26.7106,-27.605 L 26.666,-27.3923 L 26.6226,-27.1782 L 26.5806,-26.9625 L 26.54,-26.7454
 L 26.5007,-26.5267 L 26.4627,-26.3066 L 26.426,-26.085 L 26.3907,-25.8619 L 26.3567,-25.6373 L 26.324,-25.4111
 L 26.2927,-25.1836 L 26.2627,-24.9545 L 26.2341,-24.7239 L 26.2067,-24.4919 L 26.1807,-24.2583 L 26.1561,-24.0232
 L 26.1328,-23.7867 L 26.1107,-23.5487 L 26.0901,-23.3091 L 26.0708,-23.0681 L 26.0528,-22.8256 L 26.0361,-22.5816
 L 26.0208,-22.3361 L 26.0068,-22.0891 L 25.9941,-21.8407 L 25.9828,-21.5907 L 25.9728,-21.3392 L 25.9641,-21.0863
 L 25.9568,-20.8318 L 25.9508,-20.5759 L 25.9461,-20.3185 L 25.9428,-20.0595 L 25.9408,-19.7991 L 25.9401,-19.5372
 L 25.9408,-19.2753 L 25.9428,-19.0148 L 25.9461,-18.7558 L 25.9508,-18.4982 L 25.9568,-18.242 L 25.9641,-17.9873
 L 25.9728,-17.734 L 25.9828,-17.4821 L 25.9941,-17.2317 L 26.0068,-16.9828 L 26.0208,-16.7352 L 26.0361,-16.4892
 L 26.0528,-16.2445 L 26.0708,-16.0013 L 26.0901,-15.7596 L 26.1107,-15.5192 L 26.1328,-15.2803 L 26.1561,-15.0429
 L 26.1807,-14.8069 L 26.2067,-14.5723 L 26.2341,-14.3392 L 26.2627,-14.1075 L 26.2927,-13.8773 L 26.324,-13.6485
 L 26.3567,-13.4211 L 26.3907,-13.1952 L 26.426,-12.9707 L 26.4627,-12.7477 L 26.5007,-12.5261 L 26.54,-12.3059
 L 26.5806,-12.0872 L 26.6226,-11.8699 L 26.666,-11.6541 L 26.7106,-11.4397 L 26.7566,-11.2267 L 26.8039,-11.0152
 L 26.8526,-10.8051 L 26.9026,-10.5965 L 26.9539,-10.3893 L 27.0065,-10.1835 L 27.0605,-9.97923 L 27.1158,-9.77635
 L 27.1725,-9.57494 L 27.2305,-9.37494 L 27.2898,-9.17638 L 27.3505,-8.97926 L 27.4125,-8.78383 L 27.4759,-8.5903
 L 27.5408,-8.3987 L 27.6071,-8.20897 L 27.6749,-8.02116 L 27.744,-7.83525 L 27.8146,-7.65125 L 27.8866,-7.46915
 L 27.96,-7.28894 L 28.0349,-7.11063 L 28.1111,-6.93423 L 28.1889,-6.75974 L 28.268,-6.58714 L 28.3485,-6.41646
 L 28.4305,-6.24768 L 28.5139,-6.0808 L 28.5987,-5.91582 L 28.685,-5.75275 L 28.7726,-5.59157 L 28.8617,-5.43228
 L 28.9523,-5.27492 L 29.0442,-5.11946 L 29.1376,-4.9659 L 29.2324,-4.81422 L 29.3286,-4.66447 L 29.4262,-4.51663
 L 29.5253,-4.37067 L 29.6258,-4.22662 L 29.7277,-4.08449 L 29.8311,-3.94424 L 29.9358,-3.80591 L 30.042,-3.66946
 L 30.1496,-3.53494 L 30.2587,-3.4023 L 30.3691,-3.27156 L 30.481,-3.14275 L 30.5943,-3.01584 L 30.7091,-2.89081
 L 30.8252,-2.7677 L 30.9428,-2.64647 L 31.0618,-2.52716 L 31.1823,-2.40976 L 31.3041,-2.29425 L 31.4274,-2.18065
 L 31.5521,-2.06895 L 31.6783,-1.95917 L 31.8059,-1.8515 L 31.935,-1.7462 L 32.0655,-1.64326 L 32.1975,-1.54271
 L 32.3311,-1.44452 L 32.466,-1.34869 L 32.6025,-1.25522 L 32.7405,-1.16412 L 32.8799,-1.07539 L 33.0208,-0.989029
 L 33.1632,-0.905014 L 33.3071,-0.82338 L 33.4524,-0.74411 L 33.5992,-0.667206 L 33.7476,-0.592682 L 33.8973,-0.520523
 L 34.0486,-0.450714 L 34.2013,-0.38327 L 34.3556,-0.318207 L 34.5113,-0.255508 L 34.6684,-0.19516 L 34.8271,-0.137192
 L 34.9872,-0.0815887 L 35.1488,-0.0283508 L 35.3119,0.0225067 L 35.4765,0.0710144 L 35.6426,0.117142 L 35.8101,0.160919
 L 35.9791,0.202332 L 36.1496,0.241379 L 36.3216,0.278046 L 36.495,0.312363 L 36.6699,0.344299 L 36.8463,0.373886
 L 37.0242,0.401093 L 37.2036,0.425934 L 37.3844,0.44841 L 37.5667,0.468536 L 37.7505,0.486267 L 37.9358,0.501648
 L 38.1226,0.514679 L 38.3108,0.525314 L 38.5005,0.5336 L 38.6917,0.53952 L 38.8844,0.54306 L 39.0786,0.544235
 z
M 38.9199,-6.36894 L 38.7631,-6.37392 L 38.6082,-6.38222 L 38.4553,-6.39383 L 38.3042,-6.40877 L 38.155,-6.42702
 L 38.0078,-6.44856 L 37.8624,-6.47345 L 37.7189,-6.50166 L 37.5773,-6.53317 L 37.4377,-6.56801 L 37.2999,-6.60616
 L 37.164,-6.64763 L 37.0301,-6.69241 L 36.898,-6.74052 L 36.7678,-6.79195 L 36.6395,-6.84669 L 36.5132,-6.90474
 L 36.3887,-6.96613 L 36.2661,-7.03082 L 36.1454,-7.09883 L 36.0266,-7.17017 L 35.9098,-7.24481 L 35.7948,-7.32277
 L 35.6817,-7.40404 L 35.5705,-7.48865 L 35.4612,-7.57657 L 35.3539,-7.6678 L 35.2484,-7.76236 L 35.1448,-7.86021
 L 35.0431,-7.96141 L 34.9433,-8.06592 L 34.8454,-8.17374 L 34.7495,-8.28488 L 34.6554,-8.39934 L 34.5632,-8.51711
 L 34.4729,-8.63821 L 34.3845,-8.76262 L 34.298,-8.89035 L 34.2134,-9.02141 L 34.1307,-9.15576 L 34.0499,-9.29344
 L 33.9711,-9.43443 L 33.8941,-9.57875 L 33.819,-9.72639 L 33.7458,-9.87735 L 33.6743,-10.0312 L 33.6044,-10.1875
 L 33.5361,-10.3462 L 33.4694,-10.5074 L 33.4042,-10.671 L 33.3406,-10.8371 L 33.2786,-11.0056 L 33.2181,-11.1765
 L 33.1592,-11.3499 L 33.1019,-11.5258 L 33.0461,-11.7041 L 32.9919,-11.8848 L 32.9393,-12.0679 L 32.8883,-12.2535
 L 32.8388,-12.4416 L 32.7909,-12.6321 L 32.7446,-12.825 L 32.6998,-13.0204 L 32.6566,-13.2182 L 32.615,-13.4185
 L 32.575,-13.6212 L 32.5365,-13.8263 L 32.4996,-14.0339 L 32.4643,-14.244 L 32.4305,-14.4564 L 32.3983,-14.6714
 L 32.3677,-14.8887 L 32.3386,-15.1085 L 32.3111,-15.3308 L 32.2852,-15.5555 L 32.2609,-15.7826 L 32.2381,-16.0122
 L 32.2169,-16.2442 L 32.1973,-16.4787 L 32.1792,-16.7156 L 32.1627,-16.9549 L 32.1478,-17.1967 L 32.1345,-17.4409
 L 32.1227,-17.6876 L 32.1125,-17.9367 L 32.1038,-18.1883 L 32.0968,-18.4423 L 32.0913,-18.6988 L 32.0873,-18.9577
 L 32.085,-19.219 L 32.0842,-19.4828 L 32.085,-19.7489 L 32.0873,-20.0125 L 32.0913,-20.2736 L 32.0968,-20.5322
 L 32.1038,-20.7882 L 32.1125,-21.0417 L 32.1227,-21.2927 L 32.1345,-21.5412 L 32.1478,-21.7872 L 32.1627,-22.0306
 L 32.1792,-22.2715 L 32.1973,-22.5099 L 32.2169,-22.7458 L 32.2381,-22.9791 L 32.2609,-23.21 L 32.2852,-23.4383
 L 32.3111,-23.6641 L 32.3386,-23.8873 L 32.3677,-24.1081 L 32.3983,-24.3263 L 32.4305,-24.542 L 32.4643,-24.7552
 L 32.4996,-24.9659 L 32.5365,-25.1741 L 32.575,-25.3797 L 32.615,-25.5828 L 32.6566,-25.7834 L 32.6998,-25.9814
 L 32.7446,-26.177 L 32.7909,-26.37 L 32.8388,-26.5605 L 32.8883,-26.7485 L 32.9393,-26.934 L 32.9919,-27.1169
 L 33.0461,-27.2973 L 33.1019,-27.4752 L 33.1592,-27.6506 L 33.2181,-27.8235 L 33.2786,-27.9938 L 33.3406,-28.1617
 L 33.4042,-28.3269 L 33.4694,-28.4897 L 33.5361,-28.65 L 33.6044,-28.8077 L 33.6743,-28.9629 L 33.7458,-29.1156
 L 33.819,-29.2654 L 33.8941,-29.4119 L 33.9712,-29.5551 L 34.0502,-29.695 L 34.1312,-29.8316 L 34.2141,-29.965
 L 34.2989,-30.095 L 34.3857,-30.2218 L 34.4744,-30.3452 L 34.565,-30.4654 L 34.6576,-30.5822 L 34.7521,-30.6958
 L 34.8485,-30.8061 L 34.9469,-30.9131 L 35.0472,-31.0168 L 35.1495,-31.1172 L 35.2536,-31.2143 L 35.3598,-31.3081
 L 35.4678,-31.3987 L 35.5778,-31.4859 L 35.6898,-31.5699 L 35.8036,-31.6505 L 35.9194,-31.7279 L 36.0372,-31.802
 L 36.1568,-31.8727 L 36.2785,-31.9402 L 36.402,-32.0044 L 36.5275,-32.0653 L 36.6549,-32.1229 L 36.7843,-32.1772
 L 36.9155,-32.2283 L 37.0488,-32.276 L 37.1839,-32.3205 L 37.321,-32.3616 L 37.4601,-32.3995 L 37.601,-32.434
 L 37.7439,-32.4653 L 37.8888,-32.4933 L 38.0356,-32.518 L 38.1843,-32.5394 L 38.3349,-32.5575 L 38.4875,-32.5723
 L 38.642,-32.5838 L 38.7985,-32.5921 L 38.9569,-32.597 L 39.1172,-32.5986 L 39.2775,-32.597 L 39.4359,-32.5921
 L 39.5922,-32.5838 L 39.7466,-32.5723 L 39.899,-32.5575 L 40.0494,-32.5394 L 40.1979,-32.518 L 40.3444,-32.4933
 L 40.4889,-32.4653 L 40.6315,-32.434 L 40.7721,-32.3995 L 40.9107,-32.3616 L 41.0473,-32.3205 L 41.182,-32.276
 L 41.3147,-32.2283 L 41.4454,-32.1772 L 41.5741,-32.1229 L 41.7009,-32.0653 L 41.8257,-32.0044 L 41.9485,-31.9402
 L 42.0694,-31.8727 L 42.1882,-31.802 L 42.3052,-31.7279 L 42.4201,-31.6505 L 42.5331,-31.5699 L 42.644,-31.4859
 L 42.7531,-31.3987 L 42.8601,-31.3081 L 42.9652,-31.2143 L 43.0683,-31.1172 L 43.1694,-31.0168 L 43.2686,-30.9131
 L 43.3658,-30.8061 L 43.461,-30.6958 L 43.5542,-30.5822 L 43.6455,-30.4654 L 43.7348,-30.3452 L 43.8221,-30.2218
 L 43.9075,-30.095 L 43.9909,-29.965 L 44.0723,-29.8316 L 44.1517,-29.695 L 44.2292,-29.5551 L 44.3047,-29.4119
 L 44.3782,-29.2654 L 44.4497,-29.1156 L 44.5195,-28.9629 L 44.5878,-28.8077 L 44.6545,-28.65 L 44.7197,-28.4897
 L 44.7834,-28.3269 L 44.8455,-28.1617 L 44.9061,-27.9938 L 44.9652,-27.8235 L 45.0228,-27.6506 L 45.0787,-27.4752
 L 45.1332,-27.2973 L 45.1861,-27.1169 L 45.2375,-26.934 L 45.2874,-26.7485 L 45.3357,-26.5605 L 45.3825,-26.37
 L 45.4278,-26.177 L 45.4715,-25.9814 L 45.5137,-25.7834 L 45.5544,-25.5828 L 45.5935,-25.3797 L 45.631,-25.1741
 L 45.6671,-24.9659 L 45.7016,-24.7552 L 45.7346,-24.542 L 45.7661,-24.3263 L 45.796,-24.1081 L 45.8244,-23.8873
 L 45.8512,-23.6641 L 45.8765,-23.4383 L 45.9003,-23.21 L 45.9225,-22.9791 L 45.9433,-22.7458 L 45.9624,-22.5099
 L 45.9801,-22.2715 L 45.9962,-22.0306 L 46.0108,-21.7872 L 46.0238,-21.5412 L 46.0353,-21.2927 L 46.0453,-21.0417
 L 46.0537,-20.7882 L 46.0606,-20.5322 L 46.066,-20.2736 L 46.0698,-20.0125 L 46.0721,-19.7489 L 46.0729,-19.4828
 L 46.0721,-19.219 L 46.0698,-18.9577 L 46.066,-18.6988 L 46.0606,-18.4423 L 46.0537,-18.1883 L 46.0453,-17.9367
 L 46.0353,-17.6876 L 46.0238,-17.4409 L 46.0108,-17.1967 L 45.9962,-16.9549 L 45.9801,-16.7156 L 45.9624,-16.4787
 L 45.9433,-16.2442 L 45.9225,-16.0122 L 45.9003,-15.7826 L 45.8765,-15.5555 L 45.8512,-15.3308 L 45.8244,-15.1085
 L 45.796,-14.8887 L 45.7661,-14.6714 L 45.7346,-14.4564 L 45.7016,-14.244 L 45.6671,-14.0339 L 45.631,-13.8263
 L 45.5935,-13.6212 L 45.5544,-13.4185 L 45.5137,-13.2182 L 45.4715,-13.0204 L 45.4278,-12.825 L 45.3825,-12.6321
 L 45.3357,-12.4416 L 45.2874,-12.2535 L 45.2375,-12.0679 L 45.1861,-11.8848 L 45.1332,-11.7041 L 45.0787,-11.5258
 L 45.0228,-11.3499 L 44.9652,-11.1765 L 44.9061,-11.0056 L 44.8455,-10.8371 L 44.7834,-10.671 L 44.7197,-10.5074
 L 44.6545,-10.3462 L 44.5878,-10.1875 L 44.5195,-10.0312 L 44.4497,-9.87735 L 44.3782,-9.72639 L 44.3046,-9.57875
 L 44.229,-9.43443 L 44.1514,-9.29344 L 44.0718,-9.15576 L 43.9902,-9.02141 L 43.9066,-8.89035 L 43.821,-8.76262
 L 43.7333,-8.63821 L 43.6437,-8.51711 L 43.552,-8.39934 L 43.4584,-8.28488 L 43.3627,-8.17374 L 43.265,-8.06592
 L 43.1653,-7.96141 L 43.0636,-7.86021 L 42.9599,-7.76236 L 42.8542,-7.6678 L 42.7465,-7.57657 L 42.6367,-7.48865
 L 42.525,-7.40404 L 42.4113,-7.32277 L 42.2955,-7.24481 L 42.1777,-7.17017 L 42.0579,-7.09883 L 41.9362,-7.03082
 L 41.8124,-6.96613 L 41.6866,-6.90474 L 41.5587,-6.84669 L 41.4289,-6.79195 L 41.2971,-6.74052 L 41.1633,-6.69241
 L 41.0274,-6.64763 L 40.8895,-6.60616 L 40.7497,-6.56801 L 40.6078,-6.53317 L 40.4639,-6.50166 L 40.318,-6.47345
 L 40.1701,-6.44856 L 40.0202,-6.42702 L 39.8683,-6.40877 L 39.7144,-6.39383 L 39.5584,-6.38222 L 39.4005,-6.37392
 L 39.2405,-6.36894 L 39.0786,-6.36729 z
M 9.31281,-13.8231 L 11.8246,-13.8231 L 11.9986,-13.824 L 12.1709,-13.8265 L 12.3417,-13.8307 L 12.5108,-13.8367
 L 12.6784,-13.8443 L 12.8444,-13.8537 L 13.0088,-13.8647 L 13.1716,-13.8774 L 13.3328,-13.8919 L 13.4925,-13.908
 L 13.6505,-13.9258 L 13.807,-13.9453 L 13.9618,-13.9665 L 14.1151,-13.9894 L 14.2668,-14.0141 L 14.4169,-14.0404
 L 14.5654,-14.0684 L 14.7124,-14.0981 L 14.8577,-14.1295 L 15.0014,-14.1626 L 15.1436,-14.1974 L 15.2842,-14.2339
 L 15.4231,-14.272 L 15.5605,-14.312 L 15.6964,-14.3535 L 15.8306,-14.3968 L 15.9632,-14.4418 L 16.0942,-14.4885
 L 16.2237,-14.5368 L 16.3515,-14.5869 L 16.4778,-14.6387 L 16.6025,-14.6922 L 16.7256,-14.7473 L 16.8471,-14.8042
 L 16.967,-14.8627 L 17.0854,-14.923 L 17.2021,-14.9849 L 17.3172,-15.0486 L 17.4308,-15.1139 L 17.5428,-15.181
 L 17.6532,-15.2497 L 17.762,-15.3202 L 17.8692,-15.3923 L 17.9748,-15.4661 L 18.0788,-15.5417 L 18.1813,-15.6189
 L 18.2823,-15.6975 L 18.3821,-15.7773 L 18.4806,-15.8581 L 18.5778,-15.94 L 18.6738,-16.0231 L 18.7685,-16.1073
 L 18.862,-16.1925 L 18.9541,-16.2789 L 19.0451,-16.3664 L 19.1348,-16.455 L 19.2232,-16.5446 L 19.3103,-16.6355
 L 19.3962,-16.7273 L 19.4809,-16.8203 L 19.5643,-16.9145 L 19.6464,-17.0097 L 19.7272,-17.106 L 19.8068,-17.2034
 L 19.8852,-17.302 L 19.9622,-17.4016 L 20.0381,-17.5024 L 20.1126,-17.6042 L 20.1859,-17.7072 L 20.2579,-17.8112
 L 20.3287,-17.9164 L 20.3982,-18.0227 L 20.4665,-18.1301 L 20.5335,-18.2386 L 20.5992,-18.3482 L 20.6637,-18.4588
 L 20.7269,-18.5707 L 20.7889,-18.6836 L 20.8495,-18.7976 L 20.909,-18.9127 L 20.9672,-19.0289 L 21.0241,-19.1463
 L 21.0797,-19.2647 L 21.1341,-19.3843 L 21.1873,-19.5049 L 21.2391,-19.6267 L 21.2897,-19.7496 L 21.3391,-19.8735
 L 21.3872,-19.9986 L 21.434,-20.1248 L 21.4796,-20.2521 L 21.5239,-20.3805 L 21.5671,-20.5096 L 21.6094,-20.6392
 L 21.6507,-20.7691 L 21.691,-20.8994 L 21.7304,-21.0301 L 21.7689,-21.1612 L 21.8064,-21.2927 L 21.843,-21.4245
 L 21.8786,-21.5568 L 21.9132,-21.6894 L 21.9469,-21.8224 L 21.9797,-21.9558 L 22.0115,-22.0896 L 22.0424,-22.2238
 L 22.0723,-22.3584 L 22.1013,-22.4933 L 22.1293,-22.6286 L 22.1563,-22.7643 L 22.1824,-22.9004 L 22.2076,-23.0369
 L 22.2318,-23.1738 L 22.2551,-23.3111 L 22.2774,-23.4487 L 22.2988,-23.5868 L 22.3192,-23.7252 L 22.3387,-23.864
 L 22.3572,-24.0032 L 22.3747,-24.1428 L 22.3914,-24.2827 L 22.407,-24.4231 L 22.4217,-24.5638 L 22.4355,-24.7049
 L 22.4483,-24.8464 L 22.4602,-24.9883 L 22.4711,-25.1306 L 22.4811,-25.2733 L 22.4901,-25.4163 L 22.4982,-25.5597
 L 22.5053,-25.7036 L 22.5115,-25.8478 L 22.5167,-25.9924 L 22.521,-26.1373 L 22.5243,-26.2827 L 22.5267,-26.4285
 L 22.5281,-26.5746 L 22.5286,-26.7211 L 22.5274,-26.9661 L 22.5239,-27.2087 L 22.5181,-27.449 L 22.51,-27.6871
 L 22.4996,-27.9229 L 22.4868,-28.1564 L 22.4718,-28.3875 L 22.4544,-28.6165 L 22.4346,-28.8431 L 22.4126,-29.0674
 L 22.3882,-29.2894 L 22.3616,-29.5092 L 22.3326,-29.7267 L 22.3013,-29.9418 L 22.2676,-30.1547 L 22.2317,-30.3653
 L 22.1934,-30.5736 L 22.1528,-30.7796 L 22.1099,-30.9834 L 22.0647,-31.1848 L 22.0172,-31.384 L 21.9673,-31.5808
 L 21.9151,-31.7754 L 21.8606,-31.9677 L 21.8038,-32.1577 L 21.7446,-32.3454 L 21.6832,-32.5308 L 21.6194,-32.7139
 L 21.5533,-32.8948 L 21.4848,-33.0733 L 21.4141,-33.2496 L 21.341,-33.4236 L 21.2656,-33.5953 L 21.1879,-33.7646
 L 21.1079,-33.9318 L 21.0256,-34.0966 L 20.9409,-34.2591 L 20.8539,-34.4194 L 20.7646,-34.5773 L 20.673,-34.733
 L 20.5791,-34.8863 L 20.4828,-35.0374 L 20.3843,-35.1862 L 20.2834,-35.3327 L 20.1801,-35.477 L 20.0746,-35.6189
 L 19.9666,-35.7582 L 19.8558,-35.8943 L 19.7423,-36.0275 L 19.6261,-36.1576 L 19.5072,-36.2846 L 19.3855,-36.4085
 L 19.2612,-36.5294 L 19.1341,-36.6473 L 19.0043,-36.762 L 18.8717,-36.8737 L 18.7365,-36.9824 L 18.5985,-37.088
 L 18.4578,-37.1905 L 18.3144,-37.29 L 18.1683,-37.3864 L 18.0194,-37.4798 L 17.8678,-37.57 L 17.7135,-37.6573
 L 17.5565,-37.7414 L 17.3968,-37.8225 L 17.2343,-37.9006 L 17.0691,-37.9756 L 16.9012,-38.0475 L 16.7306,-38.1163
 L 16.5573,-38.1821 L 16.3812,-38.2449 L 16.2024,-38.3046 L 16.0209,-38.3612 L 15.8367,-38.4148 L 15.6497,-38.4653
 L 15.46,-38.5127 L 15.2677,-38.5571 L 15.0725,-38.5984 L 14.8747,-38.6366 L 14.6741,-38.6718 L 14.4709,-38.704
 L 14.2649,-38.7331 L 14.0562,-38.7591 L 13.8447,-38.782 L 13.6306,-38.8019 L 13.4137,-38.8188 L 13.1941,-38.8325
 L 12.9717,-38.8432 L 12.7467,-38.8509 L 12.5189,-38.8555 L 12.2884,-38.857 L 3.47783,-38.857 L 3.47783,-0
 L 9.31281,-0 z
M 9.31281,-20.5713 L 9.31281,-32.1089 L 11.9793,-32.1089 L 12.1787,-32.1062 L 12.3738,-32.0981 L 12.5644,-32.0848
 L 12.7507,-32.066 L 12.9326,-32.042 L 13.1101,-32.0125 L 13.2832,-31.9778 L 13.4519,-31.9377 L 13.6163,-31.8922
 L 13.7762,-31.8414 L 13.9318,-31.7852 L 14.083,-31.7237 L 14.2299,-31.6568 L 14.3723,-31.5846 L 14.5104,-31.507
 L 14.644,-31.4241 L 14.7733,-31.3358 L 14.8982,-31.2422 L 15.0188,-31.1432 L 15.1349,-31.0389 L 15.2467,-30.9292
 L 15.354,-30.8142 L 15.457,-30.6938 L 15.5556,-30.5681 L 15.6499,-30.437 L 15.7397,-30.3006 L 15.8252,-30.1589
 L 15.9062,-30.0117 L 15.9829,-29.8593 L 16.0553,-29.7015 L 16.1232,-29.5383 L 16.1868,-29.3698 L 16.2459,-29.1959
 L 16.3007,-29.0167 L 16.3511,-28.8321 L 16.3971,-28.6422 L 16.4388,-28.4469 L 16.476,-28.2463 L 16.5089,-28.0403
 L 16.5374,-27.829 L 16.5615,-27.6124 L 16.5812,-27.3904 L 16.5965,-27.163 L 16.6075,-26.9303 L 16.6141,-26.6922
 L 16.6163,-26.4488 L 16.6156,-26.3147 L 16.6135,-26.1823 L 16.6101,-26.0515 L 16.6053,-25.9223 L 16.5991,-25.7947
 L 16.5916,-25.6687 L 16.5827,-25.5444 L 16.5724,-25.4216 L 16.5608,-25.3005 L 16.5478,-25.181 L 16.5334,-25.0632
 L 16.5176,-24.9469 L 16.5005,-24.8323 L 16.482,-24.7193 L 16.4622,-24.6079 L 16.4409,-24.4982 L 16.4184,-24.39
 L 16.3944,-24.2835 L 16.369,-24.1786 L 16.3423,-24.0753 L 16.3143,-23.9737 L 16.2848,-23.8736 L 16.254,-23.7752
 L 16.2218,-23.6784 L 16.1883,-23.5832 L 16.1533,-23.4897 L 16.1171,-23.3977 L 16.0794,-23.3074 L 16.0403,-23.2187
 L 16,-23.1316 L 15.9582,-23.0462 L 15.915,-22.9624 L 15.8705,-22.8801 L 15.8246,-22.7995 L 15.7774,-22.7206
 L 15.7288,-22.6432 L 15.6788,-22.5675 L 15.6274,-22.4934 L 15.5747,-22.4209 L 15.5206,-22.35 L 15.4651,-22.2807
 L 15.4083,-22.2131 L 15.3501,-22.1471 L 15.2905,-22.0827 L 15.2296,-22.0199 L 15.1673,-21.9588 L 15.1038,-21.8991
 L 15.0393,-21.8407 L 14.9739,-21.7837 L 14.9075,-21.728 L 14.8401,-21.6735 L 14.7718,-21.6204 L 14.7025,-21.5686
 L 14.6323,-21.5181 L 14.5611,-21.4689 L 14.4888,-21.4211 L 14.4157,-21.3745 L 14.3416,-21.3293 L 14.2664,-21.2854
 L 14.1904,-21.2427 L 14.1133,-21.2014 L 14.0353,-21.1614 L 13.9564,-21.1227 L 13.8764,-21.0854 L 13.7955,-21.0493
 L 13.7136,-21.0145 L 13.6308,-20.9811 L 13.547,-20.949 L 13.4622,-20.9182 L 13.3765,-20.8887 L 13.2897,-20.8604
 L 13.2021,-20.8336 L 13.1134,-20.808 L 13.0238,-20.7837 L 12.9332,-20.7608 L 12.8416,-20.7392 L 12.7491,-20.7188
 L 12.6556,-20.6998 L 12.5612,-20.6821 L 12.4657,-20.6657 L 12.3693,-20.6506 L 12.272,-20.6369 L 12.1736,-20.6244
 L 12.0743,-20.6133 L 11.9741,-20.6034 L 11.8728,-20.5949 L 11.7706,-20.5877 L 11.6674,-20.5818 L 11.5633,-20.5772
 L 11.4582,-20.5739 L 11.3521,-20.5719 L 11.2451,-20.5713 z
M 78.4778,-38.857 L 72.5655,-38.857 L 67.3488,-15.7278 L 67.2602,-15.2701 L 67.1047,-14.4637 L 66.9236,-13.5237
 L 66.9102,-13.4539 L 66.8968,-13.3839 L 66.8834,-13.3137 L 66.87,-13.2433 L 66.8566,-13.1728 L 66.8433,-13.1022
 L 66.8167,-12.9604 L 66.8034,-12.8893 L 66.7769,-12.7466 L 66.7504,-12.6033 L 66.7372,-12.5315 L 66.7241,-12.4594
 L 66.6978,-12.3149 L 66.6715,-12.1697 L 66.6584,-12.0969 L 66.6454,-12.024 L 66.6193,-11.8776 L 66.6063,-11.8041
 L 66.5933,-11.7305 L 66.5674,-11.5829 L 66.5415,-11.4347 L 66.5157,-11.2858 L 66.5028,-11.2112 L 66.4772,-11.0614
 L 66.4516,-10.911 L 66.4388,-10.8355 L 66.426,-10.7599 L 66.4006,-10.6083 L 66.3752,-10.456 L 66.3498,-10.3032
 L 66.3246,-10.1497 L 66.3121,-10.073 L 66.2997,-9.99695 L 66.2876,-9.92139 L 66.2755,-9.84639 L 66.2637,-9.77191
 L 66.252,-9.69797 L 66.2405,-9.62459 L 66.2291,-9.55173 L 66.2179,-9.47942 L 66.2069,-9.40765 L 66.196,-9.33641
 L 66.1853,-9.26573 L 66.1747,-9.19559 L 66.1644,-9.12596 L 66.1542,-9.05688 L 66.1441,-8.98836 L 66.1342,-8.92036
 L 66.1245,-8.85292 L 66.1149,-8.786 L 66.1056,-8.71964 L 66.0963,-8.65381 L 66.0873,-8.5885 L 66.0784,-8.52374
 L 66.0696,-8.45955 L 66.0611,-8.39587 L 66.0526,-8.33273 L 66.0444,-8.27016 L 66.0363,-8.20808 L 66.0284,-8.14658
 L 66.0206,-8.08562 L 66.0131,-8.02518 L 66.0056,-7.96529 L 65.9984,-7.90593 L 65.9913,-7.84711 L 65.9844,-7.78885
 L 65.9776,-7.73111 L 65.971,-7.67392 L 65.9646,-7.61726 L 65.9583,-7.56116 L 65.9522,-7.50558 L 65.9462,-7.45055
 L 65.9404,-7.39604 L 65.9348,-7.3421 L 65.9294,-7.2887 L 65.9241,-7.23581 L 65.9189,-7.18349 L 65.9138,-7.23581
 L 65.9085,-7.2887 L 65.903,-7.3421 L 65.8973,-7.39604 L 65.8914,-7.45055 L 65.8854,-7.50558 L 65.8792,-7.56116
 L 65.8727,-7.61726 L 65.8661,-7.67392 L 65.8594,-7.73111 L 65.8524,-7.78885 L 65.8453,-7.84711 L 65.8379,-7.90593
 L 65.8304,-7.96529 L 65.8227,-8.02518 L 65.8149,-8.08562 L 65.8068,-8.14658 L 65.7986,-8.20808 L 65.7902,-8.27016
 L 65.7816,-8.33273 L 65.7728,-8.39587 L 65.7638,-8.45955 L 65.7546,-8.52374 L 65.7453,-8.5885 L 65.7358,-8.65381
 L 65.7261,-8.71964 L 65.7162,-8.786 L 65.7061,-8.85292 L 65.6959,-8.92036 L 65.6855,-8.98836 L 65.6749,-9.05688
 L 65.6641,-9.12596 L 65.6531,-9.19559 L 65.6419,-9.26573 L 65.6306,-9.33641 L 65.6191,-9.40765 L 65.6074,-9.47942
 L 65.5955,-9.55173 L 65.5834,-9.62459 L 65.5712,-9.69797 L 65.5587,-9.77191 L 65.5461,-9.84639 L 65.5333,-9.92139
 L 65.5203,-9.99695 L 65.5072,-10.073 L 65.4938,-10.1497 L 65.4402,-10.456 L 65.3869,-10.7599 L 65.3338,-11.0614
 L 65.2811,-11.3603 L 65.2417,-11.5829 L 65.1895,-11.8776 L 65.1376,-12.1697 L 65.073,-12.5315 L 65.0345,-12.7466
 L 64.9835,-13.0314 L 64.9454,-13.2433 L 64.9074,-13.4539 L 64.8823,-13.5931 L 64.8699,-13.6614 L 64.8454,-13.7953
 L 64.8334,-13.8609 L 64.8098,-13.989 L 64.7866,-14.1134 L 64.764,-14.234 L 64.7419,-14.3507 L 64.7202,-14.4637
 L 64.7096,-14.5187 L 64.6991,-14.5728 L 64.6785,-14.6782 L 64.6684,-14.7294 L 64.6585,-14.7797 L 64.6486,-14.8291
 L 64.6389,-14.8775 L 64.6293,-14.9249 L 64.6198,-14.9714 L 64.6105,-15.0169 L 64.6013,-15.0615 L 64.5922,-15.1051
 L 64.5832,-15.1478 L 64.5744,-15.1895 L 64.5657,-15.2303 L 64.5571,-15.2701 L 64.5487,-15.309 L 64.5404,-15.3469
 L 64.5322,-15.3839 L 64.5241,-15.4199 L 64.5162,-15.455 L 64.5083,-15.4891 L 64.5007,-15.5223 L 64.4931,-15.5545
 L 64.4857,-15.5858 L 64.4784,-15.6161 L 64.4712,-15.6454 L 64.4642,-15.6739 L 64.4572,-15.7013 L 64.4505,-15.7278
 L 59.2724,-38.857 L 53.3601,-38.857 L 62.7115,-0 L 69.0877,-0 z
" stroke="white" fill="white" stroke-width="0.5"/>
</svg>
