<?xml version="1.0" standalone="no"?>
<!DOCTYPE svg PUBLIC "-//W3C//DTD SVG 1.1//EN" "http://www.w3.org/Graphics/SVG/1.1/DTD/svg11.dtd">
<svg width="100mm" height="100mm" viewBox="-8 -108 116 116" xmlns="http://www.w3.org/2000/svg" version="1.1">
<title>OpenSCAD Model</title>
<path d="
M 84.2093,-0.00547791 L 84.4184,-0.0164337 L 84.8348,-0.0601959 L 85.0415,-0.0929413 L 85.4511,-0.180008 L 85.6533,-0.234192
 L 86.0515,-0.363571 L 86.247,-0.438599 L 86.6293,-0.608841 L 86.8159,-0.703873 L 87.1787,-0.913391 L 87.3543,-1.02742
 L 87.6929,-1.27341 L 87.8556,-1.40515 L 88.1667,-1.68529 L 88.3147,-1.83331 L 88.5948,-2.14444 L 88.7266,-2.30713
 L 88.9726,-2.64569 L 89.0866,-2.82126 L 89.2961,-3.18414 L 89.3912,-3.37067 L 89.5614,-3.75304 L 89.6364,-3.94849
 L 89.7658,-4.34666 L 89.82,-4.54887 L 89.9071,-4.95848 L 89.9398,-5.16524 L 89.9836,-5.5816 L 89.9945,-5.79066
 L 90,-6 L 90,-94 L 89.9945,-94.2093 L 89.9836,-94.4184 L 89.9398,-94.8348 L 89.9071,-95.0415
 L 89.82,-95.4511 L 89.7658,-95.6533 L 89.6364,-96.0515 L 89.5614,-96.247 L 89.3912,-96.6293 L 89.2961,-96.8159
 L 89.0866,-97.1787 L 88.9726,-97.3543 L 88.7266,-97.6929 L 88.5948,-97.8556 L 88.3147,-98.1667 L 88.1667,-98.3147
 L 87.8556,-98.5948 L 87.6929,-98.7266 L 87.3543,-98.9726 L 87.1787,-99.0866 L 86.8159,-99.2961 L 86.6293,-99.3912
 L 86.247,-99.5614 L 86.0515,-99.6364 L 85.6533,-99.7658 L 85.4511,-99.82 L 85.0415,-99.9071 L 84.8348,-99.9398
 L 84.4184,-99.9836 L 84.2093,-99.9945 L 84,-100 L 36,-100 L 10,-74 L 10,-50
 L 14,-50 L 14,-70 L 34,-70 L 34.2093,-70.0055 L 34.4184,-70.0164 L 34.8348,-70.0602
 L 35.0415,-70.0929 L 35.4511,-70.18 L 35.6533,-70.2342 L 36.0515,-70.3636 L 36.247,-70.4386 L 36.6293,-70.6088
 L 36.8159,-70.7039 L 37.1787,-70.9134 L 37.3543,-71.0274 L 37.6929,-71.2734 L 37.8556,-71.4052 L 38.1667,-71.6853
 L 38.3147,-71.8333 L 38.5948,-72.1444 L 38.7266,-72.3071 L 38.9726,-72.6457 L 39.0866,-72.8213 L 39.2961,-73.1841
 L 39.3912,-73.3707 L 39.5614,-73.753 L 39.6364,-73.9485 L 39.7658,-74.3467 L 39.82,-74.5489 L 39.9071,-74.9585
 L 39.9398,-75.1652 L 39.9836,-75.5816 L 39.9945,-75.7907 L 40,-76 L 40,-96 L 84,-96
 L 84.2091,-95.989 L 84.4158,-95.9563 L 84.618,-95.9021 L 84.8135,-95.8271 L 85,-95.7321 L 85.1756,-95.618
 L 85.3383,-95.4863 L 85.4863,-95.3383 L 85.618,-95.1756 L 85.7321,-95 L 85.8271,-94.8135 L 85.9021,-94.618
 L 85.9563,-94.4158 L 85.989,-94.2091 L 86,-94 L 86,-6 L 85.989,-5.79094 L 85.9563,-5.58418
 L 85.9021,-5.38197 L 85.8271,-5.18652 L 85.7321,-5 L 85.618,-4.82443 L 85.4863,-4.66174 L 85.3383,-4.51372
 L 85.1756,-4.38197 L 85,-4.26794 L 84.8135,-4.17291 L 84.618,-4.09789 L 84.4158,-4.0437 L 84.2091,-4.01096
 L 84,-4 L 80,-4 L 80,-0 L 84,-0 z
M 69.3319,0.52446 L 69.9339,0.501373 L 70.5327,0.462891 L 71.1282,0.409012 L 71.7206,0.339767 L 72.3097,0.255096
 L 72.8956,0.15506 L 73.4783,0.0396271 L 74.0642,-0.0948181 L 74.6598,-0.252167 L 75.265,-0.432388 L 75.8799,-0.635468
 L 76.5043,-0.861435 L 77.1384,-1.11028 L 77.7822,-1.38199 L 78.4355,-1.67656 L 78.4355,-21.8496 L 67.6064,-21.8496
 L 67.6064,-14.9832 L 72.7784,-14.9832 L 72.7784,-6.86642 L 72.3125,-6.74159 L 71.8483,-6.63341 L 71.3858,-6.54189
 L 70.9252,-6.467 L 70.4662,-6.40874 L 70.0091,-6.36714 L 69.5537,-6.34218 L 69.1,-6.33386 L 68.2577,-6.38603
 L 67.467,-6.54259 L 66.7279,-6.80351 L 66.0404,-7.16881 L 65.4046,-7.63846 L 64.8204,-8.21249 L 64.2878,-8.8909
 L 63.8069,-9.67366 L 63.3803,-10.5555 L 63.0106,-11.5309 L 62.6977,-12.5999 L 62.4418,-13.7624 L 62.2427,-15.0185
 L 62.1005,-16.3681 L 62.0152,-17.8113 L 61.9867,-19.3481 L 62.022,-20.8264 L 62.1279,-22.2273 L 62.3044,-23.5509
 L 62.5515,-24.7971 L 62.8692,-25.966 L 63.2574,-27.0575 L 63.7163,-28.0716 L 64.2458,-29.0085 L 64.8339,-29.8505
 L 65.4688,-30.5804 L 66.1503,-31.1979 L 66.8784,-31.7032 L 67.6533,-32.0961 L 68.4748,-32.3768 L 69.3429,-32.5453
 L 70.2578,-32.6014 L 71.0615,-32.5681 L 71.8575,-32.4683 L 72.6461,-32.302 L 73.427,-32.0691 L 74.2003,-31.7697
 L 74.9661,-31.4038 L 75.7243,-30.9713 L 76.4749,-30.4723 L 78.3981,-37.0727 L 77.4178,-37.634 L 76.4283,-38.1205
 L 75.4294,-38.5322 L 74.4212,-38.869 L 73.4036,-39.131 L 72.3767,-39.3181 L 71.3405,-39.4304 L 70.295,-39.4678
 L 68.665,-39.3855 L 67.1263,-39.1385 L 65.6789,-38.7268 L 64.3229,-38.1505 L 63.0581,-37.4094 L 61.8846,-36.5037
 L 60.8025,-35.4334 L 59.8116,-34.1983 L 58.9255,-32.8161 L 58.1575,-31.3041 L 57.5077,-29.6624 L 56.9761,-27.8909
 L 56.5625,-25.9897 L 56.2672,-23.9589 L 56.0899,-21.7982 L 56.0309,-19.5079 L 56.0818,-17.1565 L 56.2345,-14.9461
 L 56.489,-12.8766 L 56.8454,-10.9482 L 57.3035,-9.16066 L 57.8634,-7.51411 L 58.5252,-6.00853 L 59.2888,-4.64392
 L 60.1489,-3.43077 L 61.1004,-2.37936 L 62.1432,-1.48973 L 63.2772,-0.761841 L 64.5026,-0.195709 L 65.8193,0.208649
 L 67.2274,0.451279 L 68.7267,0.53215 z
M 9.22313,-13.8392 L 11.7063,-13.8392 L 12.9396,-13.8912 L 14.1002,-14.0471 L 15.1882,-14.307 L 16.2035,-14.6708
 L 17.1462,-15.1386 L 18.0163,-15.7103 L 18.8137,-16.386 L 19.5385,-17.1657 L 20.184,-18.0435 L 20.7434,-19.0137
 L 21.2168,-20.0762 L 21.604,-21.2309 L 21.9053,-22.478 L 22.1204,-23.8174 L 22.2495,-25.249 L 22.2926,-26.773
 L 22.2522,-28.2366 L 22.131,-29.6066 L 21.9289,-30.883 L 21.6461,-32.0659 L 21.2825,-33.1552 L 20.838,-34.1509
 L 20.3128,-35.053 L 19.7067,-35.8615 L 19.0231,-36.5758 L 18.265,-37.1948 L 17.4326,-37.7186 L 16.5257,-38.1471
 L 15.5445,-38.4804 L 14.4889,-38.7185 L 13.3589,-38.8614 L 12.1545,-38.909 L 3.4355,-38.909 L 3.4355,-0
 L 9.22313,-0 z
M 9.22313,-20.5989 L 9.22313,-32.1493 L 11.8558,-32.1493 L 12.4289,-32.1277 L 12.9626,-32.0628 L 13.4569,-31.9546
 L 13.9118,-31.8032 L 14.3274,-31.6086 L 14.7036,-31.3707 L 15.0404,-31.0895 L 15.3378,-30.7651 L 15.5982,-30.3954
 L 15.8239,-29.9784 L 16.0148,-29.5139 L 16.1711,-29.002 L 16.2926,-28.4427 L 16.3793,-27.8359 L 16.4314,-27.1818
 L 16.4488,-26.4803 L 16.4281,-25.7832 L 16.3659,-25.1289 L 16.2623,-24.5174 L 16.1174,-23.9488 L 15.9309,-23.423
 L 15.7031,-22.94 L 15.4338,-22.4998 L 15.1231,-22.1024 L 14.7707,-21.75 L 14.3762,-21.4446 L 13.9398,-21.1862
 L 13.4613,-20.9748 L 12.9409,-20.8103 L 12.3785,-20.6928 L 11.774,-20.6224 L 11.1276,-20.5989 z
M 32.0564,-18.3101 L 32.0509,-19.2116 L 32.0343,-20.2529 L 32.0065,-21.4339 L 31.9677,-22.7546 L 31.9178,-24.2151
 L 31.8568,-25.8152 L 31.7847,-27.5551 L 31.7016,-29.4347 L 31.8695,-29.4347 L 43.744,-0 L 51.1002,-0
 L 51.1002,-38.909 L 45.8913,-38.909 L 45.8913,-20.4925 L 45.8957,-19.638 L 45.9088,-18.6445 L 45.9307,-17.5122
 L 45.9613,-16.2409 L 46.0007,-14.8308 L 46.0488,-13.2818 L 46.1057,-11.5939 L 46.1713,-9.76706 L 46.0405,-9.76706
 L 34.1847,-38.909 L 26.8847,-38.909 L 26.8847,-0 L 32.0564,-0 z
" stroke="black" fill="black" stroke-width="0.5"/>
</svg>
