<?xml version="1.0" standalone="no"?>
<!DOCTYPE svg PUBLIC "-//W3C//DTD SVG 1.1//EN" "http://www.w3.org/Graphics/SVG/1.1/DTD/svg11.dtd">
<svg width="100mm" height="100mm" viewBox="-8 -108 116 116" xmlns="http://www.w3.org/2000/svg" version="1.1">
<title>OpenSCAD Model</title>
<path d="
M 84.1993,-0.00497437 L 84.3984,-0.0149078 L 84.5973,-0.0298004 L 84.7955,-0.0546417 L 84.9926,-0.0843658 L 85.1891,-0.119003
 L 85.3832,-0.163315 L 85.5764,-0.212509 L 85.7684,-0.266525 L 85.9575,-0.330063 L 86.1449,-0.398254 L 86.3306,-0.471115
 L 86.5125,-0.553223 L 86.6922,-0.63974 L 86.8696,-0.730728 L 87.0423,-0.830399 L 87.2124,-0.934357 L 87.3799,-1.04256
 L 87.5419,-1.15901 L 87.7008,-1.2794 L 87.8568,-1.40376 L 88.0063,-1.53571 L 88.1524,-1.67133 L 88.2952,-1.81058
 L 88.4308,-1.95677 L 88.5628,-2.10626 L 88.691,-2.25905 L 88.8113,-2.41792 L 88.9277,-2.5798 L 89.0401,-2.74458
 L 89.1443,-2.9151 L 89.244,-3.08778 L 89.3393,-3.26295 L 89.4258,-3.44243 L 89.5078,-3.62416 L 89.5852,-3.80795
 L 89.6534,-3.99522 L 89.7169,-4.18422 L 89.7757,-4.3748 L 89.825,-4.56818 L 89.8693,-4.76257 L 89.9088,-4.95807
 L 89.9386,-5.15555 L 89.9634,-5.35338 L 89.9832,-5.55183 L 89.9916,-5.70078 L 89.9972,-5.85023 L 90,-6
 L 90,-94 L 89.995,-94.1993 L 89.9851,-94.3984 L 89.9702,-94.5973 L 89.9454,-94.7955 L 89.9156,-94.9926
 L 89.881,-95.1891 L 89.8367,-95.3832 L 89.7875,-95.5764 L 89.7335,-95.7684 L 89.6699,-95.9575 L 89.6017,-96.1449
 L 89.5289,-96.3306 L 89.4468,-96.5125 L 89.3603,-96.6922 L 89.2693,-96.8696 L 89.1696,-97.0423 L 89.0656,-97.2124
 L 88.9574,-97.3799 L 88.841,-97.5419 L 88.7206,-97.7008 L 88.5962,-97.8568 L 88.4643,-98.0063 L 88.3287,-98.1524
 L 88.1894,-98.2952 L 88.0432,-98.4308 L 87.8937,-98.5628 L 87.741,-98.691 L 87.5821,-98.8113 L 87.4202,-98.9277
 L 87.2554,-99.0401 L 87.0849,-99.1443 L 86.9122,-99.244 L 86.737,-99.3393 L 86.5576,-99.4258 L 86.3758,-99.5078
 L 86.192,-99.5852 L 86.0048,-99.6534 L 85.8158,-99.7169 L 85.6252,-99.7757 L 85.4318,-99.825 L 85.2374,-99.8693
 L 85.0419,-99.9088 L 84.8445,-99.9386 L 84.6466,-99.9634 L 84.4482,-99.9832 L 84.2992,-99.9916 L 84.1498,-99.9972
 L 84,-100 L 36,-100 L 10,-74 L 10,-50 L 14,-50 L 14,-70
 L 34,-70 L 34.1993,-70.005 L 34.3984,-70.0149 L 34.5973,-70.0298 L 34.7955,-70.0546 L 34.9926,-70.0844
 L 35.1891,-70.119 L 35.3832,-70.1633 L 35.5764,-70.2125 L 35.7684,-70.2665 L 35.9575,-70.3301 L 36.1449,-70.3983
 L 36.3306,-70.4711 L 36.5125,-70.5532 L 36.6922,-70.6397 L 36.8696,-70.7307 L 37.0423,-70.8304 L 37.2124,-70.9344
 L 37.3799,-71.0426 L 37.5419,-71.159 L 37.7008,-71.2794 L 37.8568,-71.4038 L 38.0063,-71.5357 L 38.1524,-71.6713
 L 38.2952,-71.8106 L 38.4308,-71.9568 L 38.5628,-72.1063 L 38.691,-72.259 L 38.8113,-72.4179 L 38.9277,-72.5798
 L 39.0401,-72.7446 L 39.1443,-72.9151 L 39.244,-73.0878 L 39.3393,-73.263 L 39.4258,-73.4424 L 39.5078,-73.6242
 L 39.5852,-73.808 L 39.6534,-73.9952 L 39.7169,-74.1842 L 39.7757,-74.3748 L 39.825,-74.5682 L 39.8693,-74.7626
 L 39.9088,-74.9581 L 39.9386,-75.1555 L 39.9634,-75.3534 L 39.9832,-75.5518 L 39.9916,-75.7008 L 39.9972,-75.8502
 L 40,-76 L 40,-96 L 84,-96 L 84.1495,-95.9944 L 84.3473,-95.9696 L 84.5417,-95.9252
 L 84.7307,-95.8617 L 84.9124,-95.7797 L 85.0851,-95.6801 L 85.247,-95.5637 L 85.3965,-95.4317 L 85.5321,-95.2856
 L 85.6525,-95.1266 L 85.7564,-94.9565 L 85.843,-94.7769 L 85.9111,-94.5895 L 85.9603,-94.3963 L 85.9901,-94.1991
 L 86,-94 L 86,-6 L 85.9944,-5.85054 L 85.9696,-5.65271 L 85.9252,-5.45831 L 85.8617,-5.26932
 L 85.7797,-5.08759 L 85.6801,-4.9149 L 85.5637,-4.75302 L 85.4317,-4.60353 L 85.2856,-4.46791 L 85.1266,-4.34752
 L 84.9565,-4.24356 L 84.7769,-4.15704 L 84.5895,-4.08885 L 84.3963,-4.03966 L 84.1991,-4.00993 L 84,-4
 L 80,-4 L 80,-0 L 84,-0 z
M 11.9661,0.530716 L 12.217,0.526413 L 12.4656,0.519241 L 12.7117,0.509216 L 12.9554,0.496307 L 13.1966,0.480545
 L 13.4354,0.461914 L 13.6718,0.440399 L 13.9058,0.416016 L 14.1373,0.388794 L 14.3664,0.358688 L 14.5931,0.325699
 L 14.8173,0.289856 L 15.0392,0.251144 L 15.2585,0.209579 L 15.4755,0.165131 L 15.69,0.117813 L 15.9021,0.0676422
 L 16.1118,0.0145874 L 16.319,-0.0412903 L 16.5238,-0.100067 L 16.7262,-0.161728 L 16.9261,-0.226242 L 17.1237,-0.293625
 L 17.3187,-0.363861 L 17.5114,-0.436981 L 17.7016,-0.51297 L 17.8894,-0.591827 L 18.0748,-0.673553 L 18.2577,-0.758148
 L 18.4382,-0.845581 L 18.6163,-0.935913 L 18.792,-1.0291 L 18.9652,-1.12515 L 19.136,-1.22409 L 19.3043,-1.32587
 L 19.4702,-1.43054 L 19.6337,-1.53806 L 19.7948,-1.64845 L 19.9534,-1.76172 L 20.1096,-1.87785 L 20.2634,-1.99684
 L 20.4148,-2.11871 L 20.5637,-2.24345 L 20.7102,-2.37105 L 20.8542,-2.50151 L 20.9956,-2.63448 L 21.1338,-2.76956
 L 21.2688,-2.90677 L 21.4008,-3.04608 L 21.5297,-3.18752 L 21.6555,-3.33104 L 21.7782,-3.47668 L 21.8977,-3.62445
 L 22.0142,-3.77432 L 22.1276,-3.92632 L 22.2378,-4.08043 L 22.345,-4.23663 L 22.449,-4.39497 L 22.5499,-4.5554
 L 22.6478,-4.71796 L 22.7425,-4.88261 L 22.8341,-5.04939 L 22.9226,-5.21831 L 23.008,-5.3893 L 23.0903,-5.56242
 L 23.1695,-5.73764 L 23.2456,-5.91499 L 23.3186,-6.09445 L 23.3884,-6.27602 L 23.4552,-6.4597 L 23.5189,-6.64549
 L 23.5795,-6.8334 L 23.6369,-7.02342 L 23.6913,-7.21556 L 23.7425,-7.40981 L 23.7906,-7.60617 L 23.8357,-7.80464
 L 23.8776,-8.00522 L 23.9164,-8.20793 L 23.9521,-8.41273 L 23.9847,-8.61966 L 24.0142,-8.8287 L 24.0406,-9.03984
 L 24.0639,-9.25311 L 24.0841,-9.46849 L 24.1012,-9.68597 L 24.1152,-9.90558 L 24.126,-10.1273 L 24.1338,-10.3511
 L 24.1385,-10.5771 L 24.14,-10.8051 L 24.1392,-10.97 L 24.1367,-11.1338 L 24.1326,-11.2965 L 24.1268,-11.458
 L 24.1193,-11.6184 L 24.1102,-11.7778 L 24.0994,-11.9359 L 24.087,-12.093 L 24.0729,-12.2489 L 24.0572,-12.4038
 L 24.0398,-12.5575 L 24.0208,-12.7101 L 24.0001,-12.8615 L 23.9777,-13.0119 L 23.9537,-13.1611 L 23.928,-13.3092
 L 23.9007,-13.4562 L 23.8717,-13.6021 L 23.841,-13.7468 L 23.8087,-13.8905 L 23.7748,-14.033 L 23.7392,-14.1744
 L 23.7019,-14.3147 L 23.663,-14.4538 L 23.6224,-14.5919 L 23.5802,-14.7288 L 23.5363,-14.8646 L 23.4908,-14.9993
 L 23.4435,-15.1328 L 23.3947,-15.2652 L 23.3442,-15.3965 L 23.292,-15.5267 L 23.2382,-15.6558 L 23.1827,-15.7838
 L 23.1255,-15.9106 L 23.0667,-16.0363 L 23.0063,-16.161 L 22.9442,-16.2844 L 22.8804,-16.4068 L 22.815,-16.528
 L 22.7479,-16.6482 L 22.6792,-16.7672 L 22.6088,-16.8851 L 22.5367,-17.0018 L 22.463,-17.1175 L 22.3876,-17.232
 L 22.3101,-17.346 L 22.2296,-17.4599 L 22.1464,-17.5739 L 22.0604,-17.6878 L 21.9716,-17.8018 L 21.8799,-17.9157
 L 21.7855,-18.0296 L 21.6882,-18.1434 L 21.5881,-18.2573 L 21.4852,-18.3712 L 21.3795,-18.485 L 21.271,-18.5989
 L 21.1597,-18.7127 L 21.0455,-18.8265 L 20.9286,-18.9403 L 20.8088,-19.0541 L 20.6862,-19.1679 L 20.5609,-19.2816
 L 20.4327,-19.3954 L 20.3017,-19.5091 L 20.1678,-19.6229 L 20.0312,-19.7366 L 19.8918,-19.8503 L 19.7495,-19.964
 L 19.6045,-20.0776 L 19.4566,-20.1913 L 19.3059,-20.3049 L 19.1525,-20.4186 L 18.9961,-20.5322 L 18.837,-20.6458
 L 18.6751,-20.7594 L 18.5104,-20.873 L 18.3428,-20.9866 L 18.1725,-21.1001 L 17.9993,-21.2137 L 17.8233,-21.3272
 L 17.6445,-21.4407 L 17.4629,-21.5542 L 17.2785,-21.6677 L 17.0913,-21.7812 L 16.9013,-21.8947 L 16.7084,-22.0082
 L 16.5128,-22.1216 L 16.3143,-22.235 L 16.113,-22.3485 L 15.9089,-22.4619 L 15.7548,-22.5469 L 15.6031,-22.6308
 L 15.4539,-22.7136 L 15.3072,-22.7952 L 15.1629,-22.8757 L 15.0212,-22.955 L 14.8819,-23.0332 L 14.7451,-23.1102
 L 14.6107,-23.1861 L 14.4788,-23.2609 L 14.3494,-23.3345 L 14.2224,-23.407 L 14.098,-23.4783 L 13.976,-23.5484
 L 13.8565,-23.6175 L 13.7394,-23.6853 L 13.6249,-23.7521 L 13.5128,-23.8177 L 13.4031,-23.8821 L 13.296,-23.9454
 L 13.1913,-24.0076 L 13.0891,-24.0686 L 12.9893,-24.1284 L 12.8921,-24.1872 L 12.7973,-24.2447 L 12.705,-24.3012
 L 12.6152,-24.3565 L 12.5278,-24.4106 L 12.4429,-24.4636 L 12.3605,-24.5155 L 12.2805,-24.5662 L 12.203,-24.6157
 L 12.1281,-24.6642 L 12.0555,-24.7114 L 11.9855,-24.7576 L 11.9179,-24.8026 L 11.8528,-24.8464 L 11.7901,-24.8891
 L 11.73,-24.9306 L 11.6723,-24.9711 L 11.6171,-25.0103 L 11.5643,-25.0484 L 11.5141,-25.0854 L 11.4663,-25.1212
 L 11.4209,-25.1559 L 11.3781,-25.1895 L 11.3367,-25.2225 L 11.2959,-25.2555 L 11.2555,-25.2886 L 11.2156,-25.3218
 L 11.1762,-25.355 L 11.1373,-25.3883 L 11.0989,-25.4216 L 11.061,-25.4549 L 11.0236,-25.4883 L 10.9866,-25.5218
 L 10.9502,-25.5553 L 10.9142,-25.5889 L 10.8787,-25.6225 L 10.8438,-25.6561 L 10.8092,-25.6898 L 10.7753,-25.7236
 L 10.7417,-25.7574 L 10.7087,-25.7913 L 10.6762,-25.8252 L 10.6441,-25.8591 L 10.6126,-25.8931 L 10.5815,-25.9272
 L 10.551,-25.9613 L 10.5209,-25.9955 L 10.4913,-26.0297 L 10.4622,-26.0639 L 10.4336,-26.0983 L 10.4055,-26.1326
 L 10.3778,-26.167 L 10.3507,-26.2015 L 10.324,-26.236 L 10.2979,-26.2706 L 10.2722,-26.3052 L 10.247,-26.3398
 L 10.2223,-26.3746 L 10.1981,-26.4093 L 10.1744,-26.4441 L 10.1512,-26.479 L 10.1285,-26.5139 L 10.1062,-26.5488
 L 10.0845,-26.5839 L 10.0632,-26.6189 L 10.0424,-26.654 L 10.0222,-26.6892 L 10.0024,-26.7244 L 9.98308,-26.7597
 L 9.96425,-26.7951 L 9.94583,-26.8308 L 9.92781,-26.8668 L 9.91023,-26.903 L 9.89305,-26.9395 L 9.87628,-26.9762
 L 9.85994,-27.0133 L 9.84401,-27.0505 L 9.82848,-27.0881 L 9.81337,-27.1259 L 9.79868,-27.164 L 9.78439,-27.2023
 L 9.77052,-27.2409 L 9.75708,-27.2798 L 9.74405,-27.3189 L 9.73141,-27.3583 L 9.71921,-27.398 L 9.70741,-27.4379
 L 9.69603,-27.4781 L 9.68506,-27.5185 L 9.6745,-27.5592 L 9.66437,-27.6002 L 9.65465,-27.6414 L 9.64532,-27.6829
 L 9.63641,-27.7247 L 9.62793,-27.7667 L 9.61987,-27.809 L 9.61221,-27.8516 L 9.60497,-27.8944 L 9.59813,-27.9375
 L 9.59172,-27.9808 L 9.58572,-28.0244 L 9.58012,-28.0683 L 9.57495,-28.1125 L 9.57019,-28.1569 L 9.56584,-28.2015
 L 9.56192,-28.2465 L 9.55841,-28.2917 L 9.5553,-28.3371 L 9.55261,-28.3828 L 9.55032,-28.4288 L 9.54846,-28.4751
 L 9.54701,-28.5216 L 9.54597,-28.5684 L 9.54536,-28.6154 L 9.54517,-28.6627 L 9.54567,-28.7388 L 9.5472,-28.8142
 L 9.54976,-28.889 L 9.55334,-28.9632 L 9.55797,-29.0367 L 9.5636,-29.1096 L 9.57025,-29.1819 L 9.57793,-29.2536
 L 9.58664,-29.3246 L 9.59637,-29.395 L 9.60712,-29.4648 L 9.6189,-29.5339 L 9.6317,-29.6024 L 9.64552,-29.6703
 L 9.66037,-29.7376 L 9.67625,-29.8042 L 9.69315,-29.8702 L 9.71107,-29.9355 L 9.73003,-30.0003 L 9.75,-30.0644
 L 9.77098,-30.1279 L 9.793,-30.1907 L 9.81606,-30.2529 L 9.84012,-30.3145 L 9.8652,-30.3755 L 9.89133,-30.4358
 L 9.91846,-30.4955 L 9.94664,-30.5546 L 9.97581,-30.6131 L 10.006,-30.6709 L 10.0373,-30.728 L 10.0695,-30.7846
 L 10.1028,-30.8405 L 10.1371,-30.8958 L 10.1725,-30.9505 L 10.2088,-31.0045 L 10.2462,-31.058 L 10.2846,-31.1107
 L 10.3241,-31.1629 L 10.3645,-31.2144 L 10.406,-31.2653 L 10.4485,-31.3156 L 10.492,-31.3652 L 10.5366,-31.4142
 L 10.5821,-31.4626 L 10.6287,-31.5104 L 10.6763,-31.5573 L 10.7248,-31.6032 L 10.7741,-31.648 L 10.8244,-31.6919
 L 10.8755,-31.7346 L 10.9276,-31.7764 L 10.9805,-31.8172 L 11.0343,-31.8569 L 11.0891,-31.8955 L 11.1447,-31.9332
 L 11.2012,-31.9698 L 11.2586,-32.0054 L 11.3168,-32.0399 L 11.376,-32.0734 L 11.4361,-32.1059 L 11.4971,-32.1373
 L 11.5589,-32.1678 L 11.6217,-32.1972 L 11.6853,-32.2255 L 11.7499,-32.2529 L 11.8153,-32.2791 L 11.8817,-32.3044
 L 11.9489,-32.3286 L 12.017,-32.3519 L 12.086,-32.374 L 12.1559,-32.3952 L 12.2267,-32.4153 L 12.2984,-32.4343
 L 12.371,-32.4524 L 12.4444,-32.4694 L 12.5188,-32.4854 L 12.5941,-32.5003 L 12.6702,-32.5143 L 12.7472,-32.5271
 L 12.8252,-32.539 L 12.904,-32.5499 L 12.9837,-32.5596 L 13.0644,-32.5684 L 13.1459,-32.5761 L 13.2283,-32.5828
 L 13.3116,-32.5885 L 13.3958,-32.5932 L 13.4808,-32.5968 L 13.5668,-32.5993 L 13.6537,-32.6009 L 13.7414,-32.6014
 L 13.8156,-32.6012 L 13.8899,-32.6004 L 13.9642,-32.5992 L 14.0386,-32.5976 L 14.113,-32.5954 L 14.1875,-32.5928
 L 14.262,-32.5897 L 14.3366,-32.5861 L 14.4113,-32.582 L 14.486,-32.5775 L 14.5607,-32.5725 L 14.6355,-32.567
 L 14.7104,-32.561 L 14.7853,-32.5546 L 14.8603,-32.5476 L 14.9353,-32.5402 L 15.0104,-32.5323 L 15.0855,-32.5239
 L 15.1607,-32.5151 L 15.2359,-32.5058 L 15.3112,-32.496 L 15.3866,-32.4857 L 15.462,-32.4749 L 15.5375,-32.4637
 L 15.613,-32.452 L 15.6886,-32.4398 L 15.7642,-32.4271 L 15.8399,-32.414 L 15.9156,-32.4003 L 15.9914,-32.3862
 L 16.0672,-32.3717 L 16.1431,-32.3566 L 16.2191,-32.341 L 16.2951,-32.325 L 16.3712,-32.3085 L 16.4473,-32.2916
 L 16.5235,-32.2741 L 16.5997,-32.2562 L 16.676,-32.2378 L 16.7523,-32.2189 L 16.8287,-32.1995 L 16.9052,-32.1797
 L 16.9817,-32.1593 L 17.0582,-32.1386 L 17.1348,-32.1173 L 17.2115,-32.0955 L 17.2886,-32.0732 L 17.3666,-32.0501
 L 17.4455,-32.0263 L 17.5253,-32.0018 L 17.606,-31.9765 L 17.6875,-31.9505 L 17.7699,-31.9238 L 17.8533,-31.8964
 L 17.9375,-31.8682 L 18.0225,-31.8393 L 18.1085,-31.8096 L 18.1953,-31.7793 L 18.2831,-31.7482 L 18.3717,-31.7163
 L 18.4612,-31.6838 L 18.5515,-31.6505 L 18.6428,-31.6165 L 18.7349,-31.5817 L 18.8279,-31.5462 L 18.9218,-31.51
 L 19.0166,-31.4731 L 19.1123,-31.4354 L 19.2088,-31.397 L 19.3062,-31.3579 L 19.4046,-31.3181 L 19.5038,-31.2775
 L 19.6038,-31.2362 L 19.7048,-31.1941 L 19.8066,-31.1514 L 19.9094,-31.1079 L 20.013,-31.0636 L 20.1174,-31.0187
 L 20.2228,-30.973 L 20.3291,-30.9265 L 20.4362,-30.8794 L 20.5442,-30.8315 L 20.6531,-30.7829 L 20.7629,-30.7336
 L 20.8736,-30.6835 L 20.9851,-30.6327 L 21.0976,-30.5812 L 21.2109,-30.5289 L 21.3251,-30.4759 L 21.4402,-30.4222
 L 21.5561,-30.3678 L 21.673,-30.3126 L 23.9785,-36.7265 L 23.8653,-36.7829 L 23.7524,-36.8388 L 23.6396,-36.8941
 L 23.5271,-36.9489 L 23.4147,-37.0031 L 23.3026,-37.0568 L 23.1906,-37.1099 L 23.0789,-37.1624 L 22.9674,-37.2144
 L 22.8561,-37.2659 L 22.745,-37.3167 L 22.634,-37.3671 L 22.5234,-37.4169 L 22.4129,-37.4661 L 22.3026,-37.5148
 L 22.1925,-37.5629 L 22.0827,-37.6105 L 21.973,-37.6575 L 21.8636,-37.7039 L 21.7543,-37.7499 L 21.6453,-37.7952
 L 21.5365,-37.84 L 21.4278,-37.8843 L 21.3194,-37.9279 L 21.2112,-37.9711 L 21.1032,-38.0137 L 20.9954,-38.0557
 L 20.8878,-38.0972 L 20.7804,-38.1381 L 20.6733,-38.1785 L 20.5663,-38.2183 L 20.4595,-38.2576 L 20.353,-38.2963
 L 20.2466,-38.3345 L 20.1405,-38.3721 L 20.0346,-38.4091 L 19.9288,-38.4456 L 19.8233,-38.4816 L 19.718,-38.517
 L 19.6129,-38.5518 L 19.508,-38.5861 L 19.4033,-38.6198 L 19.2988,-38.653 L 19.1946,-38.6857 L 19.0905,-38.7177
 L 18.9866,-38.7492 L 18.8828,-38.7801 L 18.7787,-38.8104 L 18.6744,-38.8399 L 18.5698,-38.8688 L 18.465,-38.897
 L 18.36,-38.9245 L 18.2548,-38.9513 L 18.1493,-38.9774 L 18.0436,-39.0029 L 17.9377,-39.0277 L 17.8316,-39.0518
 L 17.7252,-39.0753 L 17.6186,-39.098 L 17.5117,-39.1201 L 17.4047,-39.1415 L 17.2974,-39.1622 L 17.1899,-39.1822
 L 17.0821,-39.2016 L 16.9741,-39.2203 L 16.8659,-39.2383 L 16.7575,-39.2556 L 16.6488,-39.2722 L 16.5399,-39.2882
 L 16.4308,-39.3035 L 16.3214,-39.3181 L 16.2118,-39.332 L 16.102,-39.3452 L 15.992,-39.3578 L 15.8817,-39.3697
 L 15.7712,-39.3809 L 15.6604,-39.3914 L 15.5495,-39.4013 L 15.4383,-39.4104 L 15.3269,-39.4189 L 15.2152,-39.4267
 L 15.1033,-39.4339 L 14.9912,-39.4403 L 14.8789,-39.4461 L 14.7663,-39.4512 L 14.6535,-39.4556 L 14.5405,-39.4593
 L 14.4273,-39.4624 L 14.3138,-39.4648 L 14.2001,-39.4665 L 14.0861,-39.4675 L 13.972,-39.4678 L 13.7405,-39.4664
 L 13.5112,-39.4622 L 13.2841,-39.4553 L 13.0592,-39.4455 L 12.8365,-39.4329 L 12.616,-39.4176 L 12.3977,-39.3994
 L 12.1816,-39.3785 L 11.9676,-39.3548 L 11.7558,-39.3282 L 11.5463,-39.2989 L 11.3389,-39.2668 L 11.1337,-39.2319
 L 10.9307,-39.1942 L 10.7299,-39.1537 L 10.5313,-39.1104 L 10.3349,-39.0644 L 10.1406,-39.0155 L 9.94856,-38.9639
 L 9.75871,-38.9094 L 9.57103,-38.8522 L 9.38556,-38.7921 L 9.20226,-38.7293 L 9.02116,-38.6637 L 8.84225,-38.5953
 L 8.66554,-38.5241 L 8.491,-38.4501 L 8.31865,-38.3733 L 8.1485,-38.2938 L 7.98055,-38.2114 L 7.81477,-38.1262
 L 7.6512,-38.0383 L 7.48979,-37.9475 L 7.33058,-37.854 L 7.17357,-37.7577 L 7.01875,-37.6586 L 6.86612,-37.5566
 L 6.71568,-37.452 L 6.56743,-37.3444 L 6.42136,-37.2342 L 6.27748,-37.1211 L 6.13579,-37.0052 L 5.99631,-36.8866
 L 5.85899,-36.7651 L 5.72388,-36.6409 L 5.59096,-36.5138 L 5.46056,-36.3843 L 5.33305,-36.2527 L 5.2084,-36.1191
 L 5.08661,-35.9834 L 4.9677,-35.8455 L 4.85164,-35.7056 L 4.73845,-35.5636 L 4.62811,-35.4195 L 4.52066,-35.2733
 L 4.41606,-35.125 L 4.31435,-34.9747 L 4.21547,-34.8222 L 4.11948,-34.6677 L 4.02634,-34.5111 L 3.93608,-34.3524
 L 3.84868,-34.1916 L 3.76414,-34.0287 L 3.68248,-33.8637 L 3.60368,-33.6966 L 3.52774,-33.5275 L 3.45467,-33.3562
 L 3.38446,-33.1829 L 3.31712,-33.0075 L 3.25264,-32.83 L 3.19102,-32.6504 L 3.13228,-32.4687 L 3.0764,-32.2849
 L 3.02339,-32.0991 L 2.97325,-31.9111 L 2.92596,-31.7211 L 2.88155,-31.529 L 2.84,-31.3348 L 2.80132,-31.1385
 L 2.76549,-30.9401 L 2.73253,-30.7396 L 2.70244,-30.5371 L 2.67522,-30.3324 L 2.65086,-30.1257 L 2.62936,-29.9169
 L 2.61075,-29.7059 L 2.59499,-29.4929 L 2.58209,-29.2778 L 2.57207,-29.0607 L 2.5649,-28.8414 L 2.56061,-28.6201
 L 2.55916,-28.3966 L 2.5596,-28.2778 L 2.56091,-28.1595 L 2.5631,-28.042 L 2.56615,-27.9251 L 2.57005,-27.8089
 L 2.57486,-27.6933 L 2.58052,-27.5783 L 2.58707,-27.464 L 2.59447,-27.3504 L 2.60274,-27.2374 L 2.61191,-27.1251
 L 2.62192,-27.0134 L 2.63281,-26.9024 L 2.64459,-26.7921 L 2.65721,-26.6824 L 2.67072,-26.5733 L 2.6851,-26.4649
 L 2.70036,-26.3572 L 2.71648,-26.2501 L 2.73347,-26.1437 L 2.75134,-26.0379 L 2.77008,-25.9327 L 2.78969,-25.8283
 L 2.81017,-25.7245 L 2.83153,-25.6213 L 2.85376,-25.5188 L 2.87685,-25.4169 L 2.9008,-25.3157 L 2.92564,-25.2152
 L 2.95137,-25.1153 L 2.97794,-25.016 L 3.0054,-24.9174 L 3.03372,-24.8195 L 3.06291,-24.7222 L 3.09299,-24.6256
 L 3.12392,-24.5296 L 3.15573,-24.4343 L 3.18842,-24.3397 L 3.22197,-24.2456 L 3.25639,-24.1523 L 3.2917,-24.0596
 L 3.32785,-23.9675 L 3.3649,-23.8761 L 3.40282,-23.7854 L 3.44159,-23.6953 L 3.48125,-23.6059 L 3.52165,-23.517
 L 3.56264,-23.4287 L 3.6042,-23.3408 L 3.64638,-23.2534 L 3.68912,-23.1664 L 3.73247,-23.08 L 3.7764,-22.994
 L 3.82091,-22.9085 L 3.86603,-22.8235 L 3.9117,-22.7389 L 3.95799,-22.6548 L 4.00485,-22.5712 L 4.05231,-22.4881
 L 4.10036,-22.4055 L 4.14899,-22.3233 L 4.19821,-22.2416 L 4.24802,-22.1604 L 4.29842,-22.0797 L 4.3494,-21.9995
 L 4.40097,-21.9197 L 4.45314,-21.8404 L 4.50587,-21.7616 L 4.55922,-21.6832 L 4.61314,-21.6054 L 4.66766,-21.528
 L 4.72276,-21.4511 L 4.77844,-21.3747 L 4.83472,-21.2987 L 4.8916,-21.2233 L 4.94905,-21.1483 L 5.0071,-21.0737
 L 5.06572,-20.9997 L 5.12494,-20.9261 L 5.18474,-20.8531 L 5.24515,-20.7805 L 5.30612,-20.7083 L 5.36769,-20.6367
 L 5.42986,-20.5655 L 5.4926,-20.4948 L 5.55594,-20.4246 L 5.61986,-20.3549 L 5.68437,-20.2856 L 5.74947,-20.2168
 L 5.81516,-20.1485 L 5.88142,-20.0807 L 5.94829,-20.0133 L 6.0162,-19.9462 L 6.08556,-19.8789 L 6.15637,-19.8114
 L 6.22865,-19.7439 L 6.3024,-19.6762 L 6.37761,-19.6084 L 6.45427,-19.5405 L 6.53239,-19.4724 L 6.61197,-19.4043
 L 6.69301,-19.3359 L 6.77551,-19.2675 L 6.85948,-19.199 L 6.9449,-19.1303 L 7.03177,-19.0615 L 7.12013,-18.9925
 L 7.20992,-18.9235 L 7.30119,-18.8543 L 7.39391,-18.785 L 7.48808,-18.7155 L 7.58372,-18.646 L 7.68083,-18.5763
 L 7.77939,-18.5065 L 7.87941,-18.4365 L 7.9809,-18.3665 L 8.08383,-18.2963 L 8.18823,-18.226 L 8.29408,-18.1555
 L 8.40141,-18.085 L 8.51019,-18.0143 L 8.62044,-17.9434 L 8.73213,-17.8725 L 8.84531,-17.8014 L 8.95992,-17.7302
 L 9.076,-17.6589 L 9.19353,-17.5875 L 9.31253,-17.5159 L 9.433,-17.4442 L 9.55492,-17.3724 L 9.6783,-17.3004
 L 9.80313,-17.2283 L 9.92944,-17.1561 L 10.0572,-17.0838 L 10.1864,-17.0113 L 10.3171,-16.9388 L 10.4492,-16.8661
 L 10.5828,-16.7932 L 10.7251,-16.715 L 10.8653,-16.6377 L 11.0034,-16.5613 L 11.1394,-16.4859 L 11.2733,-16.4114
 L 11.4051,-16.3378 L 11.5347,-16.2652 L 11.6623,-16.1935 L 11.7878,-16.1227 L 11.9112,-16.0528 L 12.0324,-15.9839
 L 12.1516,-15.9159 L 12.2686,-15.8489 L 12.3836,-15.7827 L 12.4965,-15.7175 L 12.6072,-15.6533 L 12.7159,-15.5899
 L 12.8224,-15.5275 L 12.9268,-15.4661 L 13.0292,-15.4055 L 13.1294,-15.3459 L 13.2276,-15.2872 L 13.3236,-15.2295
 L 13.4175,-15.1727 L 13.5093,-15.1168 L 13.599,-15.0618 L 13.6867,-15.0078 L 13.7722,-14.9547 L 13.8556,-14.9026
 L 13.9369,-14.8513 L 14.0161,-14.801 L 14.0932,-14.7517 L 14.1682,-14.7032 L 14.2411,-14.6557 L 14.3119,-14.6091
 L 14.3806,-14.5635 L 14.4472,-14.5188 L 14.5117,-14.475 L 14.5741,-14.4321 L 14.6343,-14.3902 L 14.6925,-14.3492
 L 14.7486,-14.3092 L 14.8026,-14.2701 L 14.8544,-14.2319 L 14.9042,-14.1946 L 14.9518,-14.1583 L 14.9982,-14.1224
 L 15.0441,-14.0864 L 15.0895,-14.0504 L 15.1344,-14.0143 L 15.1788,-13.9781 L 15.2228,-13.9419 L 15.2662,-13.9057
 L 15.3091,-13.8693 L 15.3516,-13.8329 L 15.3936,-13.7964 L 15.435,-13.7599 L 15.476,-13.7233 L 15.5165,-13.6867
 L 15.5565,-13.6499 L 15.596,-13.6132 L 15.635,-13.5763 L 15.6735,-13.5394 L 15.7116,-13.5024 L 15.7491,-13.4654
 L 15.7862,-13.4283 L 15.8228,-13.3911 L 15.8588,-13.3539 L 15.8944,-13.3166 L 15.9295,-13.2793 L 15.9641,-13.2419
 L 15.9982,-13.2044 L 16.0318,-13.1669 L 16.065,-13.1293 L 16.0976,-13.0916 L 16.1297,-13.0539 L 16.1614,-13.0161
 L 16.1926,-12.9782 L 16.2233,-12.9403 L 16.2534,-12.9023 L 16.2831,-12.8643 L 16.3123,-12.8262 L 16.341,-12.788
 L 16.3693,-12.7498 L 16.397,-12.7115 L 16.4242,-12.6731 L 16.451,-12.6347 L 16.4772,-12.5962 L 16.503,-12.5577
 L 16.5283,-12.5191 L 16.5531,-12.4804 L 16.5774,-12.4417 L 16.6012,-12.4028 L 16.6245,-12.3637 L 16.6472,-12.3243
 L 16.6695,-12.2847 L 16.6912,-12.2449 L 16.7124,-12.2048 L 16.733,-12.1645 L 16.7532,-12.124 L 16.7728,-12.0832
 L 16.7919,-12.0422 L 16.8105,-12.0009 L 16.8285,-11.9594 L 16.846,-11.9177 L 16.863,-11.8757 L 16.8795,-11.8335
 L 16.8955,-11.791 L 16.9109,-11.7483 L 16.9258,-11.7054 L 16.9402,-11.6622 L 16.9541,-11.6188 L 16.9674,-11.5751
 L 16.9802,-11.5312 L 16.9925,-11.4871 L 17.0043,-11.4427 L 17.0155,-11.3981 L 17.0263,-11.3533 L 17.0365,-11.3082
 L 17.0461,-11.2628 L 17.0553,-11.2173 L 17.0639,-11.1715 L 17.0721,-11.1254 L 17.0796,-11.0791 L 17.0867,-11.0326
 L 17.0932,-10.9858 L 17.0993,-10.9388 L 17.1047,-10.8916 L 17.1097,-10.8441 L 17.1142,-10.7964 L 17.1181,-10.7484
 L 17.1215,-10.7002 L 17.1244,-10.6518 L 17.1267,-10.6031 L 17.1286,-10.5542 L 17.1299,-10.505 L 17.1306,-10.4556
 L 17.1309,-10.406 L 17.1303,-10.3174 L 17.1285,-10.2297 L 17.1256,-10.143 L 17.1214,-10.0572 L 17.1161,-9.9724
 L 17.1095,-9.88857 L 17.1018,-9.80568 L 17.0929,-9.72374 L 17.0828,-9.64276 L 17.0715,-9.56274 L 17.0591,-9.48366
 L 17.0454,-9.40555 L 17.0305,-9.3284 L 17.0145,-9.2522 L 16.9973,-9.17694 L 16.9789,-9.10266 L 16.9593,-9.02933
 L 16.9385,-8.95697 L 16.9165,-8.88553 L 16.8934,-8.81506 L 16.869,-8.74557 L 16.8435,-8.67702 L 16.8167,-8.60941
 L 16.7888,-8.54277 L 16.7597,-8.4771 L 16.7294,-8.41235 L 16.698,-8.34859 L 16.6653,-8.28577 L 16.6315,-8.22391
 L 16.5964,-8.16301 L 16.5602,-8.10306 L 16.5228,-8.04405 L 16.4842,-7.98602 L 16.4444,-7.92894 L 16.4034,-7.87282
 L 16.3612,-7.81766 L 16.3179,-7.76344 L 16.2733,-7.71017 L 16.2276,-7.65788 L 16.1807,-7.60652 L 16.1326,-7.55614
 L 16.0833,-7.5067 L 16.0328,-7.45822 L 15.9812,-7.41071 L 15.9283,-7.36414 L 15.8743,-7.31853 L 15.8191,-7.2739
 L 15.7629,-7.23026 L 15.7057,-7.18759 L 15.6474,-7.14592 L 15.5881,-7.10521 L 15.5278,-7.06549 L 15.4664,-7.02675
 L 15.404,-6.98898 L 15.3406,-6.95221 L 15.2761,-6.91641 L 15.2106,-6.88159 L 15.1441,-6.84775 L 15.0765,-6.81491
 L 15.0079,-6.78304 L 14.9383,-6.75214 L 14.8676,-6.72221 L 14.7959,-6.69328 L 14.7231,-6.66533 L 14.6493,-6.63837
 L 14.5745,-6.61238 L 14.4987,-6.58736 L 14.4218,-6.56332 L 14.3438,-6.54028 L 14.2649,-6.5182 L 14.1849,-6.49713
 L 14.1039,-6.47702 L 14.0218,-6.4579 L 13.9387,-6.43976 L 13.8545,-6.42259 L 13.7694,-6.4064 L 13.6832,-6.3912
 L 13.5959,-6.37698 L 13.5076,-6.36374 L 13.4183,-6.35149 L 13.328,-6.34021 L 13.2366,-6.32991 L 13.1442,-6.32059
 L 13.0507,-6.31226 L 12.9562,-6.3049 L 12.8607,-6.29852 L 12.7642,-6.29314 L 12.6666,-6.28871 L 12.5679,-6.28529
 L 12.4683,-6.28284 L 12.3676,-6.28137 L 12.2658,-6.28087 L 12.1804,-6.2812 L 12.0947,-6.28223 L 12.0085,-6.28392
 L 11.922,-6.2863 L 11.835,-6.28937 L 11.7477,-6.29309 L 11.66,-6.2975 L 11.572,-6.30261 L 11.4835,-6.30838
 L 11.3947,-6.31482 L 11.3055,-6.32196 L 11.2159,-6.32977 L 11.1259,-6.33826 L 11.0356,-6.34743 L 10.9448,-6.35728
 L 10.8537,-6.36781 L 10.7622,-6.37901 L 10.6703,-6.3909 L 10.578,-6.40347 L 10.4854,-6.4167 L 10.3924,-6.43063
 L 10.299,-6.44524 L 10.2052,-6.46051 L 10.111,-6.47649 L 10.0164,-6.49312 L 9.92152,-6.51044 L 9.8262,-6.52843
 L 9.73051,-6.54712 L 9.63443,-6.56648 L 9.53798,-6.5865 L 9.44113,-6.60722 L 9.3439,-6.62862 L 9.24631,-6.65068
 L 9.14832,-6.67345 L 9.04996,-6.69687 L 8.9512,-6.72099 L 8.85207,-6.74579 L 8.75256,-6.77126 L 8.65266,-6.79741
 L 8.55238,-6.82423 L 8.45174,-6.85173 L 8.35071,-6.87993 L 8.24928,-6.90878 L 8.14748,-6.93832 L 8.0453,-6.96855
 L 7.94273,-6.99945 L 7.83951,-7.03119 L 7.73528,-7.0639 L 7.63005,-7.09761 L 7.52383,-7.13228 L 7.41663,-7.16794
 L 7.30844,-7.20457 L 7.19925,-7.24219 L 7.08908,-7.28079 L 6.97791,-7.32037 L 6.86574,-7.36093 L 6.75258,-7.40248
 L 6.63843,-7.44499 L 6.5233,-7.48849 L 6.40717,-7.53297 L 6.29004,-7.57845 L 6.17192,-7.62488 L 6.05281,-7.67232
 L 5.93272,-7.72072 L 5.81161,-7.7701 L 5.68953,-7.82047 L 5.56647,-7.87181 L 5.4424,-7.92415 L 5.31734,-7.97746
 L 5.19128,-8.03175 L 5.06424,-8.08702 L 4.9362,-8.14326 L 4.80717,-8.2005 L 4.67715,-8.25873 L 4.54614,-8.31792
 L 4.41414,-8.3781 L 4.28114,-8.43925 L 4.14716,-8.50139 L 4.01216,-8.56451 L 3.87621,-8.6286 L 3.73924,-8.69368
 L 3.60127,-8.75975 L 3.46233,-8.82678 L 3.32239,-8.89481 L 3.18146,-8.96381 L 3.03954,-9.0338 L 2.89662,-9.10475
 L 2.7527,-9.17671 L 2.6078,-9.24963 L 2.46191,-9.32355 L 2.31503,-9.39842 L 2.16714,-9.47429 L 2.16714,-1.8096
 L 2.34818,-1.70889 L 2.53041,-1.6104 L 2.71379,-1.51411 L 2.89838,-1.42004 L 3.08411,-1.3282 L 3.27104,-1.23854
 L 3.45914,-1.15112 L 3.64841,-1.0659 L 3.83887,-0.982895 L 4.03049,-0.9021 L 4.2233,-0.823532 L 4.41727,-0.747162
 L 4.61243,-0.673019 L 4.80878,-0.601074 L 5.00627,-0.531357 L 5.20497,-0.463852 L 5.40483,-0.398544 L 5.60587,-0.33548
 L 5.80807,-0.274612 L 6.01147,-0.215942 L 6.21605,-0.159515 L 6.4218,-0.10527 L 6.62872,-0.0532532 L 6.83682,-0.00346375
 L 7.0461,0.0440979 L 7.25655,0.0894775 L 7.46817,0.132629 L 7.68098,0.173584 L 7.89496,0.212311 L 8.11012,0.24884
 L 8.32645,0.283157 L 8.54398,0.315231 L 8.76265,0.345123 L 8.98253,0.372787 L 9.20355,0.398254 L 9.42577,0.421494
 L 9.64917,0.442505 L 9.87375,0.461319 L 10.0995,0.477936 L 10.3264,0.49231 L 10.5545,0.504486 L 10.7838,0.51445
 L 11.0143,0.522202 L 11.2459,0.52774 L 11.4787,0.531052 L 11.7126,0.53215 z
M 42.6456,-32.0425 L 51.7987,-32.0425 L 51.7987,-38.909 L 26.3446,-38.909 L 26.3446,-32.0425 L 35.4981,-32.0425
 L 35.4981,-0 L 42.6456,-0 z
M 77.1671,-6.81303 L 63.4947,-6.81303 L 63.4947,-38.909 L 56.3476,-38.909 L 56.3476,-0 L 77.1671,-0
 z
" stroke="black" fill="black" stroke-width="0.5"/>
</svg>
