<?xml version="1.0" standalone="no"?>
<!DOCTYPE svg PUBLIC "-//W3C//DTD SVG 1.1//EN" "http://www.w3.org/Graphics/SVG/1.1/DTD/svg11.dtd">
<svg width="78mm" height="101mm" viewBox="-3 -100 78 101" xmlns="http://www.w3.org/2000/svg" version="1.1">
<title>OpenSCAD Model</title>
<path d="
M 5,-70 L 23,-70 L 23.2617,-70.0069 L 23.4707,-70.0178 L 23.9912,-70.0725 L 24.198,-70.1053
 L 24.71,-70.2141 L 24.9122,-70.2683 L 25.4099,-70.43 L 25.6053,-70.505 L 26.0833,-70.7178 L 26.2698,-70.8129
 L 26.7234,-71.0747 L 26.899,-71.1888 L 27.3222,-71.4963 L 27.4849,-71.628 L 27.8738,-71.9782 L 28.0218,-72.1262
 L 28.372,-72.5151 L 28.5037,-72.6778 L 28.8112,-73.101 L 28.9253,-73.2766 L 29.1871,-73.7302 L 29.2822,-73.9167
 L 29.495,-74.3947 L 29.57,-74.5901 L 29.7317,-75.0878 L 29.7859,-75.29 L 29.8947,-75.802 L 29.9275,-76.0088
 L 29.9822,-76.5293 L 29.9931,-76.7383 L 30,-77 L 30,-95 L 63,-95 L 63.2091,-94.989
 L 63.4158,-94.9563 L 63.618,-94.9021 L 63.8135,-94.8271 L 64,-94.7321 L 64.1756,-94.618 L 64.3383,-94.4863
 L 64.4863,-94.3383 L 64.618,-94.1756 L 64.7321,-94 L 64.8271,-93.8135 L 64.9021,-93.618 L 64.9563,-93.4158
 L 64.989,-93.2091 L 65,-93 L 65,-45 L 70,-45 L 70,-93 L 69.9931,-93.2617
 L 69.9822,-93.4707 L 69.9275,-93.9912 L 69.8947,-94.198 L 69.7859,-94.71 L 69.7317,-94.9122 L 69.57,-95.4099
 L 69.495,-95.6053 L 69.2822,-96.0833 L 69.1871,-96.2698 L 68.9253,-96.7234 L 68.8112,-96.899 L 68.5037,-97.3222
 L 68.372,-97.4849 L 68.0218,-97.8738 L 67.8738,-98.0218 L 67.4849,-98.372 L 67.3222,-98.5037 L 66.899,-98.8112
 L 66.7234,-98.9253 L 66.2698,-99.1871 L 66.0833,-99.2822 L 65.6053,-99.495 L 65.4099,-99.57 L 64.9122,-99.7317
 L 64.71,-99.7859 L 64.198,-99.8947 L 63.9912,-99.9275 L 63.4707,-99.9822 L 63.2617,-99.9931 L 63,-100
 L 25,-100 L 0,-75 L 0,-45 L 5,-45 z
M 8.29478,0.432312 L 9.67784,0.305496 L 10.9782,0.0941315 L 12.1958,-0.201767 L 13.3308,-0.58223 L 14.3831,-1.04724
 L 15.3526,-1.59679 L 16.2395,-2.2309 L 17.0322,-2.93851 L 17.7193,-3.70842 L 18.3006,-4.54063 L 18.7763,-5.43513
 L 19.1462,-6.39195 L 19.4105,-7.41107 L 19.569,-8.49248 L 19.6219,-9.6362 L 19.5937,-10.4682 L 19.5091,-11.2672
 L 19.3682,-12.0331 L 19.1709,-12.7661 L 18.9172,-13.466 L 18.6072,-14.1329 L 18.2408,-14.7669 L 17.818,-15.3678
 L 17.3192,-15.9521 L 16.7247,-16.536 L 16.0345,-17.1196 L 15.2487,-17.7028 L 14.3672,-18.2856 L 13.3901,-18.8681
 L 12.3172,-19.4502 L 11.1487,-20.0319 L 10.2711,-20.4541 L 9.47766,-20.8425 L 8.76839,-21.1972 L 8.14328,-21.5182
 L 7.60236,-21.8054 L 7.14561,-22.0588 L 6.77303,-22.2785 L 6.48463,-22.4644 L 6.24675,-22.6343 L 6.02554,-22.8056
 L 5.82101,-22.9785 L 5.63316,-23.1528 L 5.46201,-23.3285 L 5.30751,-23.5058 L 5.16971,-23.6845 L 5.04858,-23.8647
 L 4.94293,-24.0497 L 4.85136,-24.2424 L 4.77388,-24.4429 L 4.71048,-24.6511 L 4.66118,-24.8671 L 4.62596,-25.0909
 L 4.60483,-25.3225 L 4.59778,-25.5619 L 4.61522,-25.9443 L 4.6675,-26.3081 L 4.75464,-26.6534 L 4.87665,-26.9801
 L 5.03351,-27.2883 L 5.22522,-27.5779 L 5.4518,-27.849 L 5.71323,-28.1015 L 6.00739,-28.3295 L 6.33192,-28.5272
 L 6.68686,-28.6944 L 7.07219,-28.8312 L 7.48793,-28.9377 L 7.93405,-29.0137 L 8.41057,-29.0593 L 8.91748,-29.0745
 L 9.35748,-29.0674 L 9.79935,-29.0463 L 10.2431,-29.011 L 10.6887,-28.9617 L 11.1361,-28.8983 L 11.5854,-28.8207
 L 12.0366,-28.7291 L 12.4896,-28.6233 L 12.9586,-28.4999 L 13.4576,-28.3549 L 13.9866,-28.1884 L 14.5457,-28.0004
 L 15.1348,-27.7909 L 15.7539,-27.5599 L 16.4031,-27.3073 L 17.0823,-27.0333 L 19.4556,-32.7533 L 18.7886,-33.0359
 L 18.1287,-33.3022 L 17.4758,-33.5522 L 16.8299,-33.7858 L 16.1911,-34.0032 L 15.5593,-34.2042 L 14.9346,-34.3889
 L 14.3169,-34.5572 L 13.699,-34.7074 L 13.0732,-34.8376 L 12.4396,-34.9478 L 11.7982,-35.0379 L 11.1491,-35.108
 L 10.4921,-35.158 L 9.82735,-35.1881 L 9.15479,-35.1981 L 7.81549,-35.1569 L 6.55074,-35.0334 L 5.3605,-34.8276
 L 4.24481,-34.5395 L 3.20363,-34.169 L 2.23698,-33.7162 L 1.34488,-33.1811 L 0.527283,-32.5636 L -0.204193,-31.8743
 L -0.838135,-31.1233 L -1.37454,-30.3107 L -1.81343,-29.4367 L -2.15479,-28.501 L -2.39861,-27.5038 L -2.54491,-26.445
 L -2.59367,-25.3246 L -2.57884,-24.7231 L -2.53435,-24.1408 L -2.46019,-23.5778 L -2.35637,-23.0341 L -2.22289,-22.5097
 L -2.05974,-22.0046 L -1.86694,-21.5187 L -1.64447,-21.0521 L -1.39708,-20.6024 L -1.12965,-20.1666 L -0.842239,-19.745
 L -0.53479,-19.3375 L -0.207336,-18.944 L 0.140137,-18.5647 L 0.507629,-18.1994 L 0.895126,-17.8482 L 1.31758,-17.5023
 L 1.7897,-17.1526 L 2.31154,-16.7991 L 2.88304,-16.442 L 3.50424,-16.0812 L 4.17514,-15.7167 L 4.89572,-15.3484
 L 5.66599,-14.9765 L 6.47868,-14.5867 L 7.2198,-14.2243 L 7.88936,-13.8894 L 8.48734,-13.5819 L 9.01373,-13.3019
 L 9.46855,-13.0493 L 9.85181,-12.8242 L 10.1635,-12.6266 L 10.4311,-12.4417 L 10.682,-12.255 L 10.9162,-12.0665
 L 11.1338,-11.876 L 11.3346,-11.6837 L 11.5187,-11.4896 L 11.6861,-11.2936 L 11.8368,-11.0957 L 11.9704,-10.8934
 L 12.0861,-10.6842 L 12.1841,-10.4678 L 12.2642,-10.2444 L 12.3265,-10.0139 L 12.371,-9.77643 L 12.3977,-9.53186
 L 12.4066,-9.28024 L 12.3864,-8.83742 L 12.3258,-8.42276 L 12.2247,-8.0363 L 12.0832,-7.67802 L 11.9013,-7.34795
 L 11.679,-7.04604 L 11.4162,-6.77232 L 11.113,-6.52679 L 10.772,-6.30991 L 10.3958,-6.12193 L 9.9843,-5.96288
 L 9.5376,-5.83275 L 9.05566,-5.73152 L 8.5385,-5.65923 L 7.9861,-5.61584 L 7.39848,-5.60139 L 6.88763,-5.6114
 L 6.36382,-5.64145 L 5.82701,-5.69151 L 5.27722,-5.76161 L 4.71445,-5.85173 L 4.13869,-5.96187 L 3.54996,-6.09204
 L 2.94823,-6.24225 L 2.32323,-6.41692 L 1.66446,-6.6205 L 0.971924,-6.85301 L 0.245621,-7.11444 L -0.51445,-7.40479
 L -1.30827,-7.72406 L -2.13586,-8.07224 L -2.99722,-8.44934 L -2.99722,-1.61385 L -1.90909,-1.12436 L -0.780914,-0.70015
 L 0.387314,-0.341187 L 1.59557,-0.0475006 L 2.84387,0.180908 L 4.13222,0.34407 L 5.4606,0.441956 L 6.82903,0.474594
 z
M 38.6717,-28.5761 L 48.0941,-28.5761 L 48.0941,-34.6997 L 21.8913,-34.6997 L 21.8913,-28.5761 L 31.314,-28.5761
 L 31.314,-0 L 38.6717,-0 z
M 74.2086,-6.07599 L 60.134,-6.07599 L 60.134,-34.6997 L 52.7767,-34.6997 L 52.7767,-0 L 74.2086,-0
 z
" stroke="white" fill="white" stroke-width="0.5"/>
</svg>
