<?xml version="1.0" standalone="no"?>
<!DOCTYPE svg PUBLIC "-//W3C//DTD SVG 1.1//EN" "http://www.w3.org/Graphics/SVG/1.1/DTD/svg11.dtd">
<svg width="100mm" height="100mm" viewBox="-8 -108 116 116" xmlns="http://www.w3.org/2000/svg" version="1.1">
<title>OpenSCAD Model</title>
<path d="
M 84.1993,-0.00497437 L 84.3984,-0.0149078 L 84.5973,-0.0298004 L 84.7955,-0.0546417 L 84.9926,-0.0843658 L 85.1891,-0.119003
 L 85.3832,-0.163315 L 85.5764,-0.212509 L 85.7684,-0.266525 L 85.9575,-0.330063 L 86.1449,-0.398254 L 86.3306,-0.471115
 L 86.5125,-0.553223 L 86.6922,-0.63974 L 86.8696,-0.730728 L 87.0423,-0.830399 L 87.2124,-0.934357 L 87.3799,-1.04256
 L 87.5419,-1.15901 L 87.7008,-1.2794 L 87.8568,-1.40376 L 88.0063,-1.53571 L 88.1524,-1.67133 L 88.2952,-1.81058
 L 88.4308,-1.95677 L 88.5628,-2.10626 L 88.691,-2.25905 L 88.8113,-2.41792 L 88.9277,-2.5798 L 89.0401,-2.74458
 L 89.1443,-2.9151 L 89.244,-3.08778 L 89.3393,-3.26295 L 89.4258,-3.44243 L 89.5078,-3.62416 L 89.5852,-3.80795
 L 89.6534,-3.99522 L 89.7169,-4.18422 L 89.7757,-4.3748 L 89.825,-4.56818 L 89.8693,-4.76257 L 89.9088,-4.95807
 L 89.9386,-5.15555 L 89.9634,-5.35338 L 89.9832,-5.55183 L 89.9916,-5.70078 L 89.9972,-5.85023 L 90,-6
 L 90,-94 L 89.995,-94.1993 L 89.9851,-94.3984 L 89.9702,-94.5973 L 89.9454,-94.7955 L 89.9156,-94.9926
 L 89.881,-95.1891 L 89.8367,-95.3832 L 89.7875,-95.5764 L 89.7335,-95.7684 L 89.6699,-95.9575 L 89.6017,-96.1449
 L 89.5289,-96.3306 L 89.4468,-96.5125 L 89.3603,-96.6922 L 89.2693,-96.8696 L 89.1696,-97.0423 L 89.0656,-97.2124
 L 88.9574,-97.3799 L 88.841,-97.5419 L 88.7206,-97.7008 L 88.5962,-97.8568 L 88.4643,-98.0063 L 88.3287,-98.1524
 L 88.1894,-98.2952 L 88.0432,-98.4308 L 87.8937,-98.5628 L 87.741,-98.691 L 87.5821,-98.8113 L 87.4202,-98.9277
 L 87.2554,-99.0401 L 87.0849,-99.1443 L 86.9122,-99.244 L 86.737,-99.3393 L 86.5576,-99.4258 L 86.3758,-99.5078
 L 86.192,-99.5852 L 86.0048,-99.6534 L 85.8158,-99.7169 L 85.6252,-99.7757 L 85.4318,-99.825 L 85.2374,-99.8693
 L 85.0419,-99.9088 L 84.8445,-99.9386 L 84.6466,-99.9634 L 84.4482,-99.9832 L 84.2992,-99.9916 L 84.1498,-99.9972
 L 84,-100 L 36,-100 L 10,-74 L 10,-50 L 14,-50 L 14,-70
 L 34,-70 L 34.1993,-70.005 L 34.3984,-70.0149 L 34.5973,-70.0298 L 34.7955,-70.0546 L 34.9926,-70.0844
 L 35.1891,-70.119 L 35.3832,-70.1633 L 35.5764,-70.2125 L 35.7684,-70.2665 L 35.9575,-70.3301 L 36.1449,-70.3983
 L 36.3306,-70.4711 L 36.5125,-70.5532 L 36.6922,-70.6397 L 36.8696,-70.7307 L 37.0423,-70.8304 L 37.2124,-70.9344
 L 37.3799,-71.0426 L 37.5419,-71.159 L 37.7008,-71.2794 L 37.8568,-71.4038 L 38.0063,-71.5357 L 38.1524,-71.6713
 L 38.2952,-71.8106 L 38.4308,-71.9568 L 38.5628,-72.1063 L 38.691,-72.259 L 38.8113,-72.4179 L 38.9277,-72.5798
 L 39.0401,-72.7446 L 39.1443,-72.9151 L 39.244,-73.0878 L 39.3393,-73.263 L 39.4258,-73.4424 L 39.5078,-73.6242
 L 39.5852,-73.808 L 39.6534,-73.9952 L 39.7169,-74.1842 L 39.7757,-74.3748 L 39.825,-74.5682 L 39.8693,-74.7626
 L 39.9088,-74.9581 L 39.9386,-75.1555 L 39.9634,-75.3534 L 39.9832,-75.5518 L 39.9916,-75.7008 L 39.9972,-75.8502
 L 40,-76 L 40,-96 L 84,-96 L 84.1495,-95.9944 L 84.3473,-95.9696 L 84.5417,-95.9252
 L 84.7307,-95.8617 L 84.9124,-95.7797 L 85.0851,-95.6801 L 85.247,-95.5637 L 85.3965,-95.4317 L 85.5321,-95.2856
 L 85.6525,-95.1266 L 85.7564,-94.9565 L 85.843,-94.7769 L 85.9111,-94.5895 L 85.9603,-94.3963 L 85.9901,-94.1991
 L 86,-94 L 86,-6 L 85.9944,-5.85054 L 85.9696,-5.65271 L 85.9252,-5.45831 L 85.8617,-5.26932
 L 85.7797,-5.08759 L 85.6801,-4.9149 L 85.5637,-4.75302 L 85.4317,-4.60353 L 85.2856,-4.46791 L 85.1266,-4.34752
 L 84.9565,-4.24356 L 84.7769,-4.15704 L 84.5895,-4.08885 L 84.3963,-4.03966 L 84.1991,-4.00993 L 84,-4
 L 80,-4 L 80,-0 L 84,-0 z
M 16.4767,0.531204 L 16.6779,0.528381 L 16.8783,0.523666 L 17.0778,0.517059 L 17.2765,0.508575 L 17.4743,0.498199
 L 17.6713,0.485931 L 17.8675,0.471786 L 18.0629,0.45575 L 18.2574,0.43782 L 18.451,0.418015 L 18.6439,0.396317
 L 18.8359,0.372742 L 19.0271,0.347275 L 19.2175,0.319916 L 19.407,0.290665 L 19.5957,0.259552 L 19.7835,0.226517
 L 19.9706,0.19162 L 20.1567,0.154831 L 20.3421,0.11615 L 20.5266,0.075592 L 20.7103,0.0331573 L 20.8932,-0.0111542
 L 21.0752,-0.057373 L 21.2564,-0.105499 L 21.4368,-0.155487 L 21.6163,-0.207367 L 21.795,-0.261139 L 21.9729,-0.316788
 L 22.1499,-0.374329 L 22.3261,-0.433762 L 22.5014,-0.495071 L 22.676,-0.558273 L 22.8497,-0.623352 L 23.0226,-0.690338
 L 23.1946,-0.759201 L 23.3658,-0.829941 L 23.5362,-0.902588 L 23.7057,-0.977112 L 23.8744,-1.05351 L 24.0423,-1.13181
 L 24.2093,-1.21199 L 24.3756,-1.29407 L 24.5409,-1.37801 L 24.7055,-1.46385 L 24.7055,-8.38326 L 24.5064,-8.29512
 L 24.3087,-8.20892 L 24.1122,-8.12466 L 23.917,-8.04234 L 23.7231,-7.96196 L 23.5305,-7.8835 L 23.3392,-7.80699
 L 23.1491,-7.73241 L 22.9604,-7.65976 L 22.7729,-7.58907 L 22.5868,-7.52029 L 22.4019,-7.45346 L 22.2183,-7.38858
 L 22.036,-7.32562 L 21.855,-7.2646 L 21.6753,-7.20554 L 21.4969,-7.14839 L 21.3197,-7.09317 L 21.1438,-7.0399
 L 20.9693,-6.98859 L 20.796,-6.93918 L 20.624,-6.89172 L 20.4533,-6.84621 L 20.2839,-6.80261 L 20.1158,-6.76099
 L 19.9489,-6.72127 L 19.7834,-6.68349 L 19.6191,-6.64764 L 19.4562,-6.61375 L 19.2945,-6.58179 L 19.1341,-6.55177
 L 18.975,-6.52368 L 18.8172,-6.49753 L 18.6606,-6.47333 L 18.5054,-6.45105 L 18.3514,-6.43071 L 18.1988,-6.41231
 L 18.0474,-6.39583 L 17.8973,-6.38132 L 17.7485,-6.36873 L 17.601,-6.35806 L 17.4548,-6.34935 L 17.3098,-6.34258
 L 17.1662,-6.33772 L 17.0238,-6.33481 L 16.8828,-6.33386 L 16.5518,-6.34001 L 16.228,-6.35846 L 15.9116,-6.38921
 L 15.6024,-6.43227 L 15.3005,-6.48761 L 15.0059,-6.55527 L 14.7185,-6.63522 L 14.4384,-6.72748 L 14.1656,-6.83203
 L 13.9001,-6.9489 L 13.6418,-7.07805 L 13.3908,-7.21951 L 13.1471,-7.37326 L 12.9107,-7.53932 L 12.6815,-7.71768
 L 12.4596,-7.90836 L 12.245,-8.11133 L 12.0377,-8.32658 L 11.8376,-8.55415 L 11.6449,-8.79402 L 11.4594,-9.04617
 L 11.2811,-9.31065 L 11.1102,-9.58742 L 10.9465,-9.87648 L 10.7901,-10.1779 L 10.6409,-10.4915 L 10.4991,-10.8175
 L 10.3645,-11.1558 L 10.2372,-11.5063 L 10.1171,-11.8692 L 10.0044,-12.2444 L 9.8989,-12.6319 L 9.80067,-13.0316
 L 9.70975,-13.4437 L 9.62608,-13.8681 L 9.5497,-14.3048 L 9.48058,-14.7538 L 9.41875,-15.215 L 9.36418,-15.6886
 L 9.31689,-16.1745 L 9.27689,-16.6727 L 9.24416,-17.1832 L 9.21869,-17.706 L 9.2005,-18.2411 L 9.18959,-18.7884
 L 9.18596,-19.3481 L 9.1869,-19.6187 L 9.18976,-19.8868 L 9.1945,-20.1522 L 9.20117,-20.415 L 9.20975,-20.6752
 L 9.2202,-20.9328 L 9.23257,-21.1878 L 9.24684,-21.4402 L 9.26302,-21.69 L 9.2811,-21.9371 L 9.30107,-22.1817
 L 9.32297,-22.4237 L 9.34674,-22.6631 L 9.37244,-22.8999 L 9.40004,-23.134 L 9.42953,-23.3656 L 9.46094,-23.5946
 L 9.49423,-23.8209 L 9.52943,-24.0447 L 9.56654,-24.2658 L 9.60556,-24.4844 L 9.64647,-24.7003 L 9.6893,-24.9137
 L 9.73401,-25.1244 L 9.78064,-25.3325 L 9.82916,-25.538 L 9.87959,-25.741 L 9.93192,-25.9413 L 9.98615,-26.139
 L 10.0423,-26.3341 L 10.1003,-26.5266 L 10.1603,-26.7166 L 10.2221,-26.9039 L 10.2859,-27.0885 L 10.3515,-27.2706
 L 10.4191,-27.4501 L 10.4885,-27.627 L 10.5599,-27.8013 L 10.6332,-27.973 L 10.7083,-28.1421 L 10.7854,-28.3085
 L 10.8644,-28.4724 L 10.9453,-28.6337 L 11.028,-28.7923 L 11.1127,-28.9484 L 11.1993,-29.1019 L 11.2876,-29.2524
 L 11.3775,-29.3996 L 11.469,-29.5434 L 11.562,-29.684 L 11.6566,-29.8213 L 11.7527,-29.9552 L 11.8504,-30.0859
 L 11.9497,-30.2133 L 12.0506,-30.3373 L 12.153,-30.458 L 12.257,-30.5754 L 12.3625,-30.6896 L 12.4696,-30.8004
 L 12.5783,-30.9079 L 12.6885,-31.012 L 12.8003,-31.1129 L 12.9137,-31.2105 L 13.0287,-31.3048 L 13.1452,-31.3957
 L 13.2632,-31.4834 L 13.3829,-31.5677 L 13.5041,-31.6488 L 13.6268,-31.7265 L 13.7512,-31.8009 L 13.8771,-31.8721
 L 14.0046,-31.9399 L 14.1336,-32.0044 L 14.2642,-32.0656 L 14.3964,-32.1234 L 14.5301,-32.178 L 14.6654,-32.2293
 L 14.8022,-32.2773 L 14.9407,-32.3219 L 15.0807,-32.3633 L 15.2222,-32.4013 L 15.3654,-32.436 L 15.5101,-32.4674
 L 15.6563,-32.4956 L 15.8042,-32.5204 L 15.9536,-32.5419 L 16.1045,-32.5601 L 16.257,-32.5749 L 16.4111,-32.5865
 L 16.5668,-32.5948 L 16.724,-32.5997 L 16.8828,-32.6014 L 16.9557,-32.601 L 17.0288,-32.5999 L 17.1019,-32.5981
 L 17.175,-32.5956 L 17.2483,-32.5923 L 17.3215,-32.5883 L 17.3949,-32.5835 L 17.4683,-32.578 L 17.5417,-32.5719
 L 17.6152,-32.5649 L 17.6888,-32.5573 L 17.7624,-32.5489 L 17.8361,-32.5397 L 17.9099,-32.5299 L 17.9837,-32.5193
 L 18.0575,-32.508 L 18.1315,-32.496 L 18.2054,-32.4832 L 18.2795,-32.4697 L 18.3536,-32.4555 L 18.4278,-32.4405
 L 18.502,-32.4248 L 18.5763,-32.4084 L 18.6506,-32.3913 L 18.725,-32.3734 L 18.7995,-32.3548 L 18.874,-32.3354
 L 18.9486,-32.3154 L 19.0232,-32.2946 L 19.0979,-32.2731 L 19.1727,-32.2508 L 19.2475,-32.2278 L 19.3224,-32.2041
 L 19.3973,-32.1797 L 19.4723,-32.1545 L 19.5473,-32.1286 L 19.6225,-32.102 L 19.6976,-32.0746 L 19.7729,-32.0465
 L 19.8481,-32.0177 L 19.9235,-31.9881 L 19.9989,-31.9579 L 20.0744,-31.9268 L 20.1499,-31.8951 L 20.2255,-31.8626
 L 20.3011,-31.8294 L 20.3768,-31.7958 L 20.4525,-31.7618 L 20.5281,-31.7277 L 20.6037,-31.6932 L 20.6794,-31.6586
 L 20.7549,-31.6236 L 20.8305,-31.5884 L 20.906,-31.553 L 20.9816,-31.5173 L 21.0571,-31.4814 L 21.1325,-31.4452
 L 21.208,-31.4088 L 21.2834,-31.3721 L 21.3589,-31.3351 L 21.4343,-31.2979 L 21.5097,-31.2605 L 21.585,-31.2228
 L 21.6604,-31.1849 L 21.7357,-31.1467 L 21.811,-31.1082 L 21.8863,-31.0695 L 21.9615,-31.0305 L 22.0368,-30.9913
 L 22.112,-30.9519 L 22.1872,-30.9122 L 22.2624,-30.8722 L 22.3376,-30.832 L 22.4127,-30.7915 L 22.4878,-30.7508
 L 22.5629,-30.7099 L 22.638,-30.6686 L 22.7131,-30.6272 L 22.7881,-30.5855 L 22.8631,-30.5435 L 22.9381,-30.5013
 L 23.0131,-30.4588 L 23.0881,-30.4161 L 23.163,-30.3731 L 23.238,-30.3299 L 23.3129,-30.2864 L 23.3878,-30.2426
 L 23.4626,-30.1987 L 23.5375,-30.1544 L 23.6123,-30.1099 L 23.6871,-30.0652 L 23.7619,-30.0202 L 25.8591,-36.7265
 L 25.663,-36.8444 L 25.467,-36.9597 L 25.2711,-37.0724 L 25.0752,-37.1825 L 24.8793,-37.2901 L 24.6835,-37.395
 L 24.4877,-37.4973 L 24.2919,-37.5971 L 24.0962,-37.6943 L 23.9005,-37.7888 L 23.7049,-37.8808 L 23.5093,-37.9702
 L 23.3138,-38.057 L 23.1182,-38.1412 L 22.9228,-38.2228 L 22.7273,-38.3019 L 22.5319,-38.3783 L 22.3366,-38.4521
 L 22.1413,-38.5234 L 21.946,-38.5921 L 21.7507,-38.6581 L 21.5556,-38.7216 L 21.3604,-38.7825 L 21.1653,-38.8408
 L 20.9702,-38.8965 L 20.7752,-38.9496 L 20.5802,-39.0002 L 20.3852,-39.0481 L 20.1903,-39.0934 L 19.9954,-39.1362
 L 19.8006,-39.1763 L 19.6058,-39.2139 L 19.411,-39.2489 L 19.2163,-39.2813 L 19.0216,-39.3111 L 18.827,-39.3383
 L 18.6324,-39.3629 L 18.4378,-39.3849 L 18.2433,-39.4044 L 18.0488,-39.4212 L 17.8544,-39.4354 L 17.66,-39.4471
 L 17.4656,-39.4562 L 17.2713,-39.4626 L 17.077,-39.4665 L 16.8828,-39.4678 L 16.6927,-39.4667 L 16.5037,-39.4632
 L 16.3158,-39.4575 L 16.1289,-39.4494 L 15.9431,-39.4391 L 15.7584,-39.4264 L 15.5747,-39.4114 L 15.3921,-39.3942
 L 15.2105,-39.3746 L 15.03,-39.3528 L 14.8506,-39.3286 L 14.6722,-39.3021 L 14.4949,-39.2733 L 14.3186,-39.2423
 L 14.1434,-39.2089 L 13.9693,-39.1732 L 13.7962,-39.1352 L 13.6242,-39.0949 L 13.4532,-39.0524 L 13.2833,-39.0075
 L 13.1145,-38.9603 L 12.9467,-38.9108 L 12.78,-38.859 L 12.6143,-38.8049 L 12.4497,-38.7486 L 12.2862,-38.6899
 L 12.1237,-38.6289 L 11.9623,-38.5656 L 11.802,-38.5 L 11.6427,-38.4321 L 11.4844,-38.3619 L 11.3273,-38.2894
 L 11.1712,-38.2146 L 11.0161,-38.1375 L 10.8621,-38.058 L 10.7092,-37.9763 L 10.5573,-37.8923 L 10.4065,-37.806
 L 10.2568,-37.7174 L 10.1081,-37.6265 L 9.96045,-37.5333 L 9.81387,-37.4377 L 9.66838,-37.3399 L 9.52393,-37.2398
 L 9.38055,-37.1374 L 9.23822,-37.0326 L 9.09715,-36.9258 L 8.95753,-36.8168 L 8.81934,-36.7059 L 8.68259,-36.593
 L 8.54727,-36.4781 L 8.41339,-36.3611 L 8.28094,-36.2422 L 8.14995,-36.1212 L 8.02039,-35.9982 L 7.89224,-35.8732
 L 7.76555,-35.7462 L 7.6403,-35.6172 L 7.51648,-35.4862 L 7.39409,-35.3531 L 7.27313,-35.2181 L 7.15363,-35.081
 L 7.03555,-34.9419 L 6.91893,-34.8008 L 6.80373,-34.6577 L 6.68996,-34.5126 L 6.57762,-34.3655 L 6.46674,-34.2163
 L 6.35728,-34.0652 L 6.24925,-33.912 L 6.14268,-33.7568 L 6.03754,-33.5996 L 5.93384,-33.4404 L 5.83156,-33.2792
 L 5.73073,-33.116 L 5.63133,-32.9507 L 5.53337,-32.7835 L 5.43684,-32.6142 L 5.34177,-32.4429 L 5.24811,-32.2696
 L 5.1559,-32.0943 L 5.06512,-31.917 L 4.97578,-31.7377 L 4.88788,-31.5563 L 4.80142,-31.373 L 4.71638,-31.1876
 L 4.6328,-31.0002 L 4.55063,-30.8109 L 4.46991,-30.6194 L 4.39062,-30.426 L 4.31279,-30.2306 L 4.23637,-30.0332
 L 4.16153,-29.834 L 4.08832,-29.6335 L 4.01675,-29.4315 L 3.94684,-29.2281 L 3.87856,-29.0232 L 3.81192,-28.817
 L 3.74695,-28.6093 L 3.68361,-28.4002 L 3.62192,-28.1897 L 3.56186,-27.9778 L 3.50346,-27.7644 L 3.4467,-27.5496
 L 3.39159,-27.3334 L 3.33812,-27.1158 L 3.2863,-26.8968 L 3.23613,-26.6763 L 3.18759,-26.4544 L 3.1407,-26.2311
 L 3.09546,-26.0064 L 3.05186,-25.7802 L 3.00992,-25.5526 L 2.9696,-25.3236 L 2.93094,-25.0932 L 2.89394,-24.8614
 L 2.85857,-24.6281 L 2.82483,-24.3934 L 2.79276,-24.1573 L 2.76231,-23.9198 L 2.73354,-23.6808 L 2.70639,-23.4404
 L 2.68088,-23.1987 L 2.65703,-22.9554 L 2.63481,-22.7108 L 2.61426,-22.4647 L 2.59534,-22.2173 L 2.57806,-21.9684
 L 2.56242,-21.718 L 2.54845,-21.4663 L 2.5361,-21.2131 L 2.52542,-20.9585 L 2.51637,-20.7025 L 2.50896,-20.4451
 L 2.5032,-20.1862 L 2.4991,-19.9259 L 2.49663,-19.6642 L 2.4958,-19.4011 L 2.49748,-18.9843 L 2.5025,-18.5718
 L 2.51086,-18.1636 L 2.5226,-17.7595 L 2.53767,-17.3597 L 2.55611,-16.9642 L 2.57787,-16.5728 L 2.603,-16.1858
 L 2.63148,-15.8029 L 2.6633,-15.4243 L 2.69849,-15.0499 L 2.737,-14.6798 L 2.77887,-14.3139 L 2.8241,-13.9523
 L 2.87268,-13.5949 L 2.92459,-13.2417 L 2.97987,-12.8927 L 3.0385,-12.548 L 3.10046,-12.2076 L 3.16579,-11.8714
 L 3.23447,-11.5394 L 3.30649,-11.2116 L 3.38187,-10.8881 L 3.46059,-10.5688 L 3.54265,-10.2538 L 3.62808,-9.94302
 L 3.71686,-9.63647 L 3.80898,-9.33415 L 3.90446,-9.03609 L 4.00328,-8.74225 L 4.10545,-8.45265 L 4.21097,-8.16728
 L 4.31984,-7.88615 L 4.43208,-7.60927 L 4.54765,-7.33662 L 4.66656,-7.06822 L 4.78883,-6.80405 L 4.91446,-6.54411
 L 5.04344,-6.28842 L 5.17577,-6.03696 L 5.31143,-5.78975 L 5.45045,-5.54677 L 5.59283,-5.30804 L 5.73854,-5.07353
 L 5.88762,-4.84326 L 6.04005,-4.61725 L 6.19563,-4.3958 L 6.35419,-4.1792 L 6.51572,-3.96748 L 6.68024,-3.76064
 L 6.84772,-3.55864 L 7.01816,-3.36151 L 7.19157,-3.16928 L 7.368,-2.98189 L 7.54736,-2.79936 L 7.72971,-2.62172
 L 7.91502,-2.44893 L 8.10332,-2.28101 L 8.2946,-2.11797 L 8.48885,-1.95979 L 8.68607,-1.80647 L 8.88625,-1.65802
 L 9.08942,-1.51445 L 9.29555,-1.37573 L 9.50465,-1.24188 L 9.71675,-1.11292 L 9.93181,-0.9888 L 10.1498,-0.869537
 L 10.3708,-0.755173 L 10.5948,-0.64566 L 10.8218,-0.541016 L 11.0517,-0.441238 L 11.2846,-0.346329 L 11.5205,-0.256287
 L 11.7593,-0.171112 L 12.0012,-0.0908051 L 12.246,-0.0153656 L 12.4937,0.0551758 L 12.7445,0.12088 L 12.9982,0.181732
 L 13.2549,0.237686 L 13.5145,0.288803 L 13.7772,0.335037 L 14.0428,0.376404 L 14.3114,0.412903 L 14.5829,0.44455
 L 14.8575,0.471313 L 15.135,0.49321 L 15.4155,0.510254 L 15.6989,0.522415 L 15.9854,0.529724 L 16.2747,0.53215
 z
M 37.6138,0.530716 L 37.8421,0.526413 L 38.0682,0.519241 L 38.2921,0.509216 L 38.5137,0.496307 L 38.7332,0.480545
 L 38.9504,0.461914 L 39.1654,0.440399 L 39.3783,0.416016 L 39.5889,0.388794 L 39.7973,0.358688 L 40.0034,0.325699
 L 40.2074,0.289856 L 40.4092,0.251144 L 40.6087,0.209579 L 40.8061,0.165131 L 41.0012,0.117813 L 41.1942,0.0676422
 L 41.3849,0.0145874 L 41.5734,-0.0412903 L 41.7597,-0.100067 L 41.9438,-0.161728 L 42.1256,-0.226242 L 42.3053,-0.293625
 L 42.4827,-0.363861 L 42.658,-0.436981 L 42.831,-0.51297 L 43.0018,-0.591827 L 43.1705,-0.673553 L 43.3369,-0.758148
 L 43.5011,-0.845581 L 43.663,-0.935913 L 43.8228,-1.0291 L 43.9804,-1.12515 L 44.1357,-1.22409 L 44.2889,-1.32587
 L 44.4398,-1.43054 L 44.5885,-1.53806 L 44.735,-1.64845 L 44.8793,-1.76172 L 45.0214,-1.87785 L 45.1613,-1.99684
 L 45.299,-2.11871 L 45.4344,-2.24345 L 45.5677,-2.37105 L 45.6987,-2.50151 L 45.8272,-2.63448 L 45.953,-2.76956
 L 46.0758,-2.90677 L 46.1959,-3.04608 L 46.3131,-3.18752 L 46.4275,-3.33104 L 46.5391,-3.47668 L 46.6479,-3.62445
 L 46.7538,-3.77432 L 46.8569,-3.92632 L 46.9572,-4.08043 L 47.0547,-4.23663 L 47.1493,-4.39497 L 47.2411,-4.5554
 L 47.3301,-4.71796 L 47.4163,-4.88261 L 47.4996,-5.04939 L 47.5801,-5.21831 L 47.6578,-5.3893 L 47.7327,-5.56242
 L 47.8047,-5.73764 L 47.8739,-5.91499 L 47.9403,-6.09445 L 48.0039,-6.27602 L 48.0646,-6.4597 L 48.1225,-6.64549
 L 48.1776,-6.8334 L 48.2299,-7.02342 L 48.2793,-7.21556 L 48.3259,-7.40981 L 48.3697,-7.60617 L 48.4107,-7.80464
 L 48.4488,-8.00522 L 48.4841,-8.20793 L 48.5166,-8.41273 L 48.5462,-8.61966 L 48.5731,-8.8287 L 48.5971,-9.03984
 L 48.6183,-9.25311 L 48.6366,-9.46849 L 48.6522,-9.68597 L 48.6649,-9.90558 L 48.6748,-10.1273 L 48.6819,-10.3511
 L 48.6861,-10.5771 L 48.6875,-10.8051 L 48.6868,-10.97 L 48.6845,-11.1338 L 48.6807,-11.2965 L 48.6754,-11.458
 L 48.6687,-11.6184 L 48.6604,-11.7778 L 48.6506,-11.9359 L 48.6393,-12.093 L 48.6265,-12.2489 L 48.6122,-12.4038
 L 48.5964,-12.5575 L 48.579,-12.7101 L 48.5602,-12.8615 L 48.5399,-13.0119 L 48.518,-13.1611 L 48.4947,-13.3092
 L 48.4698,-13.4562 L 48.4434,-13.6021 L 48.4156,-13.7468 L 48.3862,-13.8905 L 48.3553,-14.033 L 48.3229,-14.1744
 L 48.289,-14.3147 L 48.2536,-14.4538 L 48.2167,-14.5919 L 48.1783,-14.7288 L 48.1384,-14.8646 L 48.0969,-14.9993
 L 48.054,-15.1328 L 48.0095,-15.2652 L 47.9636,-15.3965 L 47.9161,-15.5267 L 47.8672,-15.6558 L 47.8167,-15.7838
 L 47.7647,-15.9106 L 47.7112,-16.0363 L 47.6562,-16.161 L 47.5997,-16.2844 L 47.5417,-16.4068 L 47.4822,-16.528
 L 47.4212,-16.6482 L 47.3587,-16.7672 L 47.2946,-16.8851 L 47.2291,-17.0018 L 47.1621,-17.1175 L 47.0935,-17.232
 L 47.0229,-17.346 L 46.9498,-17.4599 L 46.8741,-17.5739 L 46.7959,-17.6878 L 46.715,-17.8018 L 46.6317,-17.9157
 L 46.5458,-18.0296 L 46.4573,-18.1434 L 46.3662,-18.2573 L 46.2726,-18.3712 L 46.1765,-18.485 L 46.0778,-18.5989
 L 45.9765,-18.7127 L 45.8727,-18.8265 L 45.7663,-18.9403 L 45.6574,-19.0541 L 45.5459,-19.1679 L 45.4318,-19.2816
 L 45.3152,-19.3954 L 45.1961,-19.5091 L 45.0744,-19.6229 L 44.9501,-19.7366 L 44.8232,-19.8503 L 44.6938,-19.964
 L 44.5619,-20.0776 L 44.4274,-20.1913 L 44.2903,-20.3049 L 44.1507,-20.4186 L 44.0085,-20.5322 L 43.8638,-20.6458
 L 43.7165,-20.7594 L 43.5667,-20.873 L 43.4143,-20.9866 L 43.2593,-21.1001 L 43.1018,-21.2137 L 42.9417,-21.3272
 L 42.7791,-21.4407 L 42.6139,-21.5542 L 42.4462,-21.6677 L 42.2759,-21.7812 L 42.103,-21.8947 L 41.9276,-22.0082
 L 41.7496,-22.1216 L 41.5691,-22.235 L 41.386,-22.3485 L 41.2004,-22.4619 L 41.0602,-22.5469 L 40.9222,-22.6308
 L 40.7865,-22.7136 L 40.653,-22.7952 L 40.5218,-22.8757 L 40.3928,-22.955 L 40.2661,-23.0332 L 40.1417,-23.1102
 L 40.0194,-23.1861 L 39.8995,-23.2609 L 39.7818,-23.3345 L 39.6663,-23.407 L 39.5531,-23.4783 L 39.4421,-23.5484
 L 39.3334,-23.6175 L 39.2269,-23.6853 L 39.1227,-23.7521 L 39.0208,-23.8177 L 38.921,-23.8821 L 38.8236,-23.9454
 L 38.7283,-24.0076 L 38.6354,-24.0686 L 38.5446,-24.1284 L 38.4562,-24.1872 L 38.37,-24.2447 L 38.286,-24.3012
 L 38.2043,-24.3565 L 38.1248,-24.4106 L 38.0476,-24.4636 L 37.9726,-24.5155 L 37.8999,-24.5662 L 37.8294,-24.6157
 L 37.7612,-24.6642 L 37.6952,-24.7114 L 37.6315,-24.7576 L 37.57,-24.8026 L 37.5108,-24.8464 L 37.4538,-24.8891
 L 37.3991,-24.9306 L 37.3466,-24.9711 L 37.2964,-25.0103 L 37.2484,-25.0484 L 37.2027,-25.0854 L 37.1592,-25.1212
 L 37.118,-25.1559 L 37.079,-25.1895 L 37.0414,-25.2225 L 37.0042,-25.2555 L 36.9675,-25.2886 L 36.9312,-25.3218
 L 36.8954,-25.355 L 36.86,-25.3883 L 36.8251,-25.4216 L 36.7906,-25.4549 L 36.7565,-25.4883 L 36.7229,-25.5218
 L 36.6898,-25.5553 L 36.657,-25.5889 L 36.6248,-25.6225 L 36.593,-25.6561 L 36.5616,-25.6898 L 36.5307,-25.7236
 L 36.5002,-25.7574 L 36.4701,-25.7913 L 36.4406,-25.8252 L 36.4114,-25.8591 L 36.3827,-25.8931 L 36.3544,-25.9272
 L 36.3266,-25.9613 L 36.2993,-25.9955 L 36.2724,-26.0297 L 36.2459,-26.0639 L 36.2199,-26.0983 L 36.1943,-26.1326
 L 36.1692,-26.167 L 36.1445,-26.2015 L 36.1202,-26.236 L 36.0964,-26.2706 L 36.0731,-26.3052 L 36.0502,-26.3398
 L 36.0277,-26.3746 L 36.0057,-26.4093 L 35.9841,-26.4441 L 35.963,-26.479 L 35.9423,-26.5139 L 35.9221,-26.5488
 L 35.9023,-26.5839 L 35.883,-26.6189 L 35.8641,-26.654 L 35.8456,-26.6892 L 35.8276,-26.7244 L 35.8101,-26.7597
 L 35.793,-26.7951 L 35.7762,-26.8308 L 35.7598,-26.8668 L 35.7438,-26.903 L 35.7282,-26.9395 L 35.713,-26.9762
 L 35.6981,-27.0133 L 35.6836,-27.0505 L 35.6695,-27.0881 L 35.6557,-27.1259 L 35.6423,-27.164 L 35.6294,-27.2023
 L 35.6167,-27.2409 L 35.6045,-27.2798 L 35.5927,-27.3189 L 35.5812,-27.3583 L 35.5701,-27.398 L 35.5593,-27.4379
 L 35.549,-27.4781 L 35.539,-27.5185 L 35.5294,-27.5592 L 35.5202,-27.6002 L 35.5113,-27.6414 L 35.5029,-27.6829
 L 35.4948,-27.7247 L 35.487,-27.7667 L 35.4797,-27.809 L 35.4727,-27.8516 L 35.4662,-27.8944 L 35.4599,-27.9375
 L 35.4541,-27.9808 L 35.4486,-28.0244 L 35.4436,-28.0683 L 35.4388,-28.1125 L 35.4345,-28.1569 L 35.4306,-28.2015
 L 35.427,-28.2465 L 35.4238,-28.2917 L 35.421,-28.3371 L 35.4185,-28.3828 L 35.4164,-28.4288 L 35.4147,-28.4751
 L 35.4134,-28.5216 L 35.4125,-28.5684 L 35.4119,-28.6154 L 35.4117,-28.6627 L 35.4122,-28.7388 L 35.4136,-28.8142
 L 35.4159,-28.889 L 35.4192,-28.9632 L 35.4234,-29.0367 L 35.4285,-29.1096 L 35.4346,-29.1819 L 35.4415,-29.2536
 L 35.4495,-29.3246 L 35.4583,-29.395 L 35.4681,-29.4648 L 35.4788,-29.5339 L 35.4905,-29.6024 L 35.503,-29.6703
 L 35.5166,-29.7376 L 35.531,-29.8042 L 35.5464,-29.8702 L 35.5627,-29.9355 L 35.5799,-30.0003 L 35.5981,-30.0644
 L 35.6172,-30.1279 L 35.6372,-30.1907 L 35.6581,-30.2529 L 35.68,-30.3145 L 35.7029,-30.3755 L 35.7266,-30.4358
 L 35.7513,-30.4955 L 35.7769,-30.5546 L 35.8035,-30.6131 L 35.831,-30.6709 L 35.8594,-30.728 L 35.8887,-30.7846
 L 35.919,-30.8405 L 35.9502,-30.8958 L 35.9823,-30.9505 L 36.0154,-31.0045 L 36.0494,-31.058 L 36.0844,-31.1107
 L 36.1202,-31.1629 L 36.157,-31.2144 L 36.1948,-31.2653 L 36.2334,-31.3156 L 36.273,-31.3652 L 36.3136,-31.4142
 L 36.355,-31.4626 L 36.3974,-31.5104 L 36.4407,-31.5573 L 36.4847,-31.6032 L 36.5296,-31.648 L 36.5753,-31.6919
 L 36.6219,-31.7346 L 36.6692,-31.7764 L 36.7174,-31.8172 L 36.7663,-31.8569 L 36.8161,-31.8955 L 36.8667,-31.9332
 L 36.9181,-31.9698 L 36.9703,-32.0054 L 37.0233,-32.0399 L 37.0771,-32.0734 L 37.1318,-32.1059 L 37.1873,-32.1373
 L 37.2435,-32.1678 L 37.3006,-32.1972 L 37.3585,-32.2255 L 37.4172,-32.2529 L 37.4767,-32.2791 L 37.5371,-32.3044
 L 37.5982,-32.3286 L 37.6602,-32.3519 L 37.7229,-32.374 L 37.7865,-32.3952 L 37.8509,-32.4153 L 37.9161,-32.4343
 L 37.9821,-32.4524 L 38.049,-32.4694 L 38.1166,-32.4854 L 38.1851,-32.5003 L 38.2543,-32.5143 L 38.3244,-32.5271
 L 38.3953,-32.539 L 38.467,-32.5499 L 38.5396,-32.5596 L 38.6129,-32.5684 L 38.687,-32.5761 L 38.762,-32.5828
 L 38.8377,-32.5885 L 38.9143,-32.5932 L 38.9917,-32.5968 L 39.0699,-32.5993 L 39.1489,-32.6009 L 39.2288,-32.6014
 L 39.2963,-32.6012 L 39.3638,-32.6004 L 39.4314,-32.5992 L 39.4991,-32.5976 L 39.5668,-32.5954 L 39.6345,-32.5928
 L 39.7023,-32.5897 L 39.7701,-32.5861 L 39.8381,-32.582 L 39.906,-32.5775 L 39.974,-32.5725 L 40.042,-32.567
 L 40.1101,-32.561 L 40.1783,-32.5546 L 40.2465,-32.5476 L 40.3147,-32.5402 L 40.383,-32.5323 L 40.4514,-32.5239
 L 40.5197,-32.5151 L 40.5882,-32.5058 L 40.6567,-32.496 L 40.7252,-32.4857 L 40.7938,-32.4749 L 40.8625,-32.4637
 L 40.9312,-32.452 L 40.9999,-32.4398 L 41.0687,-32.4271 L 41.1375,-32.414 L 41.2064,-32.4003 L 41.2754,-32.3862
 L 41.3444,-32.3717 L 41.4134,-32.3566 L 41.4825,-32.341 L 41.5516,-32.325 L 41.6208,-32.3085 L 41.69,-32.2916
 L 41.7594,-32.2741 L 41.8287,-32.2562 L 41.8981,-32.2378 L 41.9675,-32.2189 L 42.037,-32.1995 L 42.1065,-32.1797
 L 42.1761,-32.1593 L 42.2458,-32.1386 L 42.3154,-32.1173 L 42.3852,-32.0955 L 42.4554,-32.0732 L 42.5263,-32.0501
 L 42.5981,-32.0263 L 42.6706,-32.0018 L 42.744,-31.9765 L 42.8182,-31.9505 L 42.8932,-31.9238 L 42.9689,-31.8964
 L 43.0455,-31.8682 L 43.1229,-31.8393 L 43.2011,-31.8096 L 43.2801,-31.7793 L 43.3599,-31.7482 L 43.4405,-31.7163
 L 43.5219,-31.6838 L 43.6041,-31.6505 L 43.6871,-31.6165 L 43.7709,-31.5817 L 43.8555,-31.5462 L 43.9409,-31.51
 L 44.0271,-31.4731 L 44.1142,-31.4354 L 44.202,-31.397 L 44.2906,-31.3579 L 44.3801,-31.3181 L 44.4703,-31.2775
 L 44.5613,-31.2362 L 44.6531,-31.1941 L 44.7458,-31.1514 L 44.8392,-31.1079 L 44.9335,-31.0636 L 45.0285,-31.0187
 L 45.1244,-30.973 L 45.221,-30.9265 L 45.3185,-30.8794 L 45.4167,-30.8315 L 45.5158,-30.7829 L 45.6156,-30.7336
 L 45.7163,-30.6835 L 45.8178,-30.6327 L 45.92,-30.5812 L 46.0231,-30.5289 L 46.127,-30.4759 L 46.2317,-30.4222
 L 46.3371,-30.3678 L 46.4434,-30.3126 L 48.5406,-36.7265 L 48.4377,-36.7829 L 48.3349,-36.8388 L 48.2323,-36.8941
 L 48.1299,-36.9489 L 48.0277,-37.0031 L 47.9257,-37.0568 L 47.8239,-37.1099 L 47.7223,-37.1624 L 47.6208,-37.2144
 L 47.5196,-37.2659 L 47.4185,-37.3167 L 47.3177,-37.3671 L 47.217,-37.4169 L 47.1165,-37.4661 L 47.0162,-37.5148
 L 46.916,-37.5629 L 46.8161,-37.6105 L 46.7164,-37.6575 L 46.6168,-37.7039 L 46.5174,-37.7499 L 46.4182,-37.7952
 L 46.3193,-37.84 L 46.2204,-37.8843 L 46.1218,-37.9279 L 46.0234,-37.9711 L 45.9252,-38.0137 L 45.8271,-38.0557
 L 45.7292,-38.0972 L 45.6316,-38.1381 L 45.5341,-38.1785 L 45.4368,-38.2183 L 45.3397,-38.2576 L 45.2428,-38.2963
 L 45.146,-38.3345 L 45.0495,-38.3721 L 44.9531,-38.4091 L 44.8569,-38.4456 L 44.761,-38.4816 L 44.6652,-38.517
 L 44.5696,-38.5518 L 44.4741,-38.5861 L 44.3789,-38.6198 L 44.2839,-38.653 L 44.189,-38.6857 L 44.0944,-38.7177
 L 43.9999,-38.7492 L 43.9054,-38.7801 L 43.8107,-38.8104 L 43.7158,-38.8399 L 43.6207,-38.8688 L 43.5254,-38.897
 L 43.4299,-38.9245 L 43.3342,-38.9513 L 43.2383,-38.9774 L 43.1421,-39.0029 L 43.0458,-39.0277 L 42.9492,-39.0518
 L 42.8525,-39.0753 L 42.7555,-39.098 L 42.6583,-39.1201 L 42.5609,-39.1415 L 42.4633,-39.1622 L 42.3655,-39.1822
 L 42.2675,-39.2016 L 42.1693,-39.2203 L 42.0708,-39.2383 L 41.9722,-39.2556 L 41.8734,-39.2722 L 41.7743,-39.2882
 L 41.675,-39.3035 L 41.5756,-39.3181 L 41.4759,-39.332 L 41.376,-39.3452 L 41.2759,-39.3578 L 41.1756,-39.3697
 L 41.0751,-39.3809 L 40.9743,-39.3914 L 40.8734,-39.4013 L 40.7723,-39.4104 L 40.6709,-39.4189 L 40.5694,-39.4267
 L 40.4676,-39.4339 L 40.3656,-39.4403 L 40.2634,-39.4461 L 40.161,-39.4512 L 40.0584,-39.4556 L 39.9556,-39.4593
 L 39.8526,-39.4624 L 39.7494,-39.4648 L 39.6459,-39.4665 L 39.5423,-39.4675 L 39.4384,-39.4678 L 39.2279,-39.4664
 L 39.0193,-39.4622 L 38.8128,-39.4553 L 38.6082,-39.4455 L 38.4056,-39.4329 L 38.2051,-39.4176 L 38.0065,-39.3994
 L 37.8099,-39.3785 L 37.6152,-39.3548 L 37.4226,-39.3282 L 37.232,-39.2989 L 37.0434,-39.2668 L 36.8567,-39.2319
 L 36.6721,-39.1942 L 36.4894,-39.1537 L 36.3087,-39.1104 L 36.1301,-39.0644 L 35.9534,-39.0155 L 35.7787,-38.9639
 L 35.606,-38.9094 L 35.4353,-38.8522 L 35.2666,-38.7921 L 35.0998,-38.7293 L 34.9351,-38.6637 L 34.7724,-38.5953
 L 34.6116,-38.5241 L 34.4529,-38.4501 L 34.2961,-38.3733 L 34.1413,-38.2938 L 33.9885,-38.2114 L 33.8378,-38.1262
 L 33.6889,-38.0383 L 33.5421,-37.9475 L 33.3973,-37.854 L 33.2545,-37.7577 L 33.1137,-37.6586 L 32.9748,-37.5566
 L 32.838,-37.452 L 32.7031,-37.3444 L 32.5703,-37.2342 L 32.4394,-37.1211 L 32.3105,-37.0052 L 32.1836,-36.8866
 L 32.0587,-36.7651 L 31.9358,-36.6409 L 31.8149,-36.5138 L 31.6963,-36.3843 L 31.5803,-36.2527 L 31.4669,-36.1191
 L 31.3562,-35.9834 L 31.248,-35.8455 L 31.1424,-35.7056 L 31.0395,-35.5636 L 30.9391,-35.4195 L 30.8414,-35.2733
 L 30.7462,-35.125 L 30.6537,-34.9747 L 30.5638,-34.8222 L 30.4764,-34.6677 L 30.3917,-34.5111 L 30.3096,-34.3524
 L 30.2301,-34.1916 L 30.1532,-34.0287 L 30.0789,-33.8637 L 30.0072,-33.6966 L 29.9382,-33.5275 L 29.8717,-33.3562
 L 29.8078,-33.1829 L 29.7466,-33.0075 L 29.6879,-32.83 L 29.6319,-32.6504 L 29.5785,-32.4687 L 29.5276,-32.2849
 L 29.4794,-32.0991 L 29.4338,-31.9111 L 29.3908,-31.7211 L 29.3504,-31.529 L 29.3126,-31.3348 L 29.2774,-31.1385
 L 29.2448,-30.9401 L 29.2149,-30.7396 L 29.1875,-30.5371 L 29.1627,-30.3324 L 29.1406,-30.1257 L 29.121,-29.9169
 L 29.1041,-29.7059 L 29.0897,-29.4929 L 29.078,-29.2778 L 29.0689,-29.0607 L 29.0624,-28.8414 L 29.0585,-28.6201
 L 29.0571,-28.3966 L 29.0575,-28.2778 L 29.0587,-28.1595 L 29.0607,-28.042 L 29.0635,-27.9251 L 29.0671,-27.8089
 L 29.0714,-27.6933 L 29.0766,-27.5783 L 29.0825,-27.464 L 29.0892,-27.3504 L 29.0968,-27.2374 L 29.1051,-27.1251
 L 29.1142,-27.0134 L 29.1241,-26.9024 L 29.1348,-26.7921 L 29.1463,-26.6824 L 29.1586,-26.5733 L 29.1717,-26.4649
 L 29.1856,-26.3572 L 29.2002,-26.2501 L 29.2157,-26.1437 L 29.232,-26.0379 L 29.249,-25.9327 L 29.2668,-25.8283
 L 29.2855,-25.7245 L 29.3049,-25.6213 L 29.3251,-25.5188 L 29.3461,-25.4169 L 29.3679,-25.3157 L 29.3905,-25.2152
 L 29.4139,-25.1153 L 29.4381,-25.016 L 29.463,-24.9174 L 29.4888,-24.8195 L 29.5154,-24.7222 L 29.5427,-24.6256
 L 29.5709,-24.5296 L 29.5998,-24.4343 L 29.6295,-24.3397 L 29.66,-24.2456 L 29.6914,-24.1523 L 29.7235,-24.0596
 L 29.7564,-23.9675 L 29.7901,-23.8761 L 29.8246,-23.7854 L 29.8598,-23.6953 L 29.8959,-23.6059 L 29.9326,-23.517
 L 29.9699,-23.4287 L 30.0077,-23.3408 L 30.0461,-23.2534 L 30.085,-23.1664 L 30.1244,-23.08 L 30.1644,-22.994
 L 30.2049,-22.9085 L 30.2459,-22.8235 L 30.2874,-22.7389 L 30.3295,-22.6548 L 30.3722,-22.5712 L 30.4153,-22.4881
 L 30.459,-22.4055 L 30.5033,-22.3233 L 30.548,-22.2416 L 30.5934,-22.1604 L 30.6392,-22.0797 L 30.6856,-21.9995
 L 30.7325,-21.9197 L 30.7799,-21.8404 L 30.8279,-21.7616 L 30.8764,-21.6832 L 30.9255,-21.6054 L 30.9751,-21.528
 L 31.0252,-21.4511 L 31.0759,-21.3747 L 31.127,-21.2987 L 31.1788,-21.2233 L 31.231,-21.1483 L 31.2838,-21.0737
 L 31.3372,-20.9997 L 31.391,-20.9261 L 31.4454,-20.8531 L 31.5004,-20.7805 L 31.5558,-20.7083 L 31.6118,-20.6367
 L 31.6684,-20.5655 L 31.7255,-20.4948 L 31.7831,-20.4246 L 31.8412,-20.3549 L 31.8999,-20.2856 L 31.9591,-20.2168
 L 32.0189,-20.1485 L 32.0791,-20.0807 L 32.14,-20.0133 L 32.2017,-19.9462 L 32.2648,-19.8789 L 32.3292,-19.8114
 L 32.395,-19.7439 L 32.4621,-19.6762 L 32.5305,-19.6084 L 32.6002,-19.5405 L 32.6713,-19.4724 L 32.7437,-19.4043
 L 32.8174,-19.3359 L 32.8924,-19.2675 L 32.9688,-19.199 L 33.0465,-19.1303 L 33.1255,-19.0615 L 33.2059,-18.9925
 L 33.2876,-18.9235 L 33.3706,-18.8543 L 33.4549,-18.785 L 33.5406,-18.7155 L 33.6276,-18.646 L 33.7159,-18.5763
 L 33.8056,-18.5065 L 33.8965,-18.4365 L 33.9889,-18.3665 L 34.0825,-18.2963 L 34.1775,-18.226 L 34.2738,-18.1555
 L 34.3714,-18.085 L 34.4703,-18.0143 L 34.5706,-17.9434 L 34.6722,-17.8725 L 34.7751,-17.8014 L 34.8794,-17.7302
 L 34.985,-17.6589 L 35.0919,-17.5875 L 35.2001,-17.5159 L 35.3097,-17.4442 L 35.4206,-17.3724 L 35.5329,-17.3004
 L 35.6464,-17.2283 L 35.7613,-17.1561 L 35.8775,-17.0838 L 35.995,-17.0113 L 36.1139,-16.9388 L 36.2341,-16.8661
 L 36.3556,-16.7932 L 36.4851,-16.715 L 36.6126,-16.6377 L 36.7382,-16.5613 L 36.8619,-16.4859 L 36.9837,-16.4114
 L 37.1035,-16.3378 L 37.2215,-16.2652 L 37.3376,-16.1935 L 37.4517,-16.1227 L 37.5639,-16.0528 L 37.6742,-15.9839
 L 37.7826,-15.9159 L 37.8891,-15.8489 L 37.9937,-15.7827 L 38.0963,-15.7175 L 38.1971,-15.6533 L 38.2959,-15.5899
 L 38.3928,-15.5275 L 38.4878,-15.4661 L 38.5809,-15.4055 L 38.6721,-15.3459 L 38.7613,-15.2872 L 38.8487,-15.2295
 L 38.9341,-15.1727 L 39.0176,-15.1168 L 39.0992,-15.0618 L 39.1789,-15.0078 L 39.2567,-14.9547 L 39.3326,-14.9026
 L 39.4066,-14.8513 L 39.4786,-14.801 L 39.5487,-14.7517 L 39.617,-14.7032 L 39.6833,-14.6557 L 39.7477,-14.6091
 L 39.8102,-14.5635 L 39.8707,-14.5188 L 39.9294,-14.475 L 39.9861,-14.4321 L 40.041,-14.3902 L 40.0939,-14.3492
 L 40.1449,-14.3092 L 40.194,-14.2701 L 40.2411,-14.2319 L 40.2864,-14.1946 L 40.3298,-14.1583 L 40.3719,-14.1224
 L 40.4137,-14.0864 L 40.455,-14.0504 L 40.4958,-14.0143 L 40.5362,-13.9781 L 40.5762,-13.9419 L 40.6157,-13.9057
 L 40.6548,-13.8693 L 40.6934,-13.8329 L 40.7316,-13.7964 L 40.7693,-13.7599 L 40.8065,-13.7233 L 40.8434,-13.6867
 L 40.8798,-13.6499 L 40.9157,-13.6132 L 40.9512,-13.5763 L 40.9863,-13.5394 L 41.0208,-13.5024 L 41.055,-13.4654
 L 41.0887,-13.4283 L 41.122,-13.3911 L 41.1548,-13.3539 L 41.1871,-13.3166 L 41.2191,-13.2793 L 41.2505,-13.2419
 L 41.2816,-13.2044 L 41.3121,-13.1669 L 41.3423,-13.1293 L 41.372,-13.0916 L 41.4012,-13.0539 L 41.43,-13.0161
 L 41.4584,-12.9782 L 41.4863,-12.9403 L 41.5137,-12.9023 L 41.5407,-12.8643 L 41.5673,-12.8262 L 41.5934,-12.788
 L 41.6191,-12.7498 L 41.6443,-12.7115 L 41.6691,-12.6731 L 41.6934,-12.6347 L 41.7173,-12.5962 L 41.7408,-12.5577
 L 41.7637,-12.5191 L 41.7863,-12.4804 L 41.8084,-12.4417 L 41.83,-12.4028 L 41.8512,-12.3637 L 41.8719,-12.3243
 L 41.8922,-12.2847 L 41.9119,-12.2449 L 41.9312,-12.2048 L 41.95,-12.1645 L 41.9683,-12.124 L 41.9861,-12.0832
 L 42.0035,-12.0422 L 42.0204,-12.0009 L 42.0368,-11.9594 L 42.0528,-11.9177 L 42.0682,-11.8757 L 42.0832,-11.8335
 L 42.0977,-11.791 L 42.1118,-11.7483 L 42.1253,-11.7054 L 42.1384,-11.6622 L 42.151,-11.6188 L 42.1632,-11.5751
 L 42.1748,-11.5312 L 42.186,-11.4871 L 42.1967,-11.4427 L 42.2069,-11.3981 L 42.2167,-11.3533 L 42.226,-11.3082
 L 42.2348,-11.2628 L 42.2431,-11.2173 L 42.251,-11.1715 L 42.2583,-11.1254 L 42.2652,-11.0791 L 42.2717,-11.0326
 L 42.2776,-10.9858 L 42.2831,-10.9388 L 42.2881,-10.8916 L 42.2926,-10.8441 L 42.2967,-10.7964 L 42.3002,-10.7484
 L 42.3033,-10.7002 L 42.3059,-10.6518 L 42.3081,-10.6031 L 42.3097,-10.5542 L 42.3109,-10.505 L 42.3116,-10.4556
 L 42.3119,-10.406 L 42.3113,-10.3174 L 42.3097,-10.2297 L 42.307,-10.143 L 42.3032,-10.0572 L 42.2984,-9.9724
 L 42.2924,-9.88857 L 42.2854,-9.80568 L 42.2773,-9.72374 L 42.2681,-9.64276 L 42.2579,-9.56274 L 42.2465,-9.48366
 L 42.2341,-9.40555 L 42.2206,-9.3284 L 42.206,-9.2522 L 42.1903,-9.17694 L 42.1736,-9.10266 L 42.1558,-9.02933
 L 42.1369,-8.95697 L 42.1169,-8.88553 L 42.0958,-8.81506 L 42.0737,-8.74557 L 42.0504,-8.67702 L 42.0261,-8.60941
 L 42.0007,-8.54277 L 41.9743,-8.4771 L 41.9467,-8.41235 L 41.9181,-8.34859 L 41.8884,-8.28577 L 41.8576,-8.22391
 L 41.8257,-8.16301 L 41.7928,-8.10306 L 41.7587,-8.04405 L 41.7236,-7.98602 L 41.6874,-7.92894 L 41.6501,-7.87282
 L 41.6118,-7.81766 L 41.5723,-7.76344 L 41.5318,-7.71017 L 41.4902,-7.65788 L 41.4476,-7.60652 L 41.4038,-7.55614
 L 41.359,-7.5067 L 41.313,-7.45822 L 41.2661,-7.41071 L 41.218,-7.36414 L 41.1688,-7.31853 L 41.1187,-7.2739
 L 41.0676,-7.23026 L 41.0155,-7.18759 L 40.9625,-7.14592 L 40.9086,-7.10521 L 40.8537,-7.06549 L 40.7979,-7.02675
 L 40.7411,-6.98898 L 40.6834,-6.95221 L 40.6248,-6.91641 L 40.5652,-6.88159 L 40.5047,-6.84775 L 40.4432,-6.81491
 L 40.3808,-6.78304 L 40.3174,-6.75214 L 40.2531,-6.72221 L 40.1879,-6.69328 L 40.1217,-6.66533 L 40.0546,-6.63837
 L 39.9865,-6.61238 L 39.9175,-6.58736 L 39.8476,-6.56332 L 39.7767,-6.54028 L 39.7049,-6.5182 L 39.6321,-6.49713
 L 39.5584,-6.47702 L 39.4838,-6.4579 L 39.4082,-6.43976 L 39.3316,-6.42259 L 39.2542,-6.4064 L 39.1758,-6.3912
 L 39.0964,-6.37698 L 39.0161,-6.36374 L 38.9348,-6.35149 L 38.8527,-6.34021 L 38.7695,-6.32991 L 38.6855,-6.32059
 L 38.6005,-6.31226 L 38.5145,-6.3049 L 38.4276,-6.29852 L 38.3398,-6.29314 L 38.251,-6.28871 L 38.1613,-6.28529
 L 38.0707,-6.28284 L 37.9791,-6.28137 L 37.8865,-6.28087 L 37.8089,-6.2812 L 37.7308,-6.28223 L 37.6525,-6.28392
 L 37.5737,-6.2863 L 37.4947,-6.28937 L 37.4152,-6.29309 L 37.3355,-6.2975 L 37.2554,-6.30261 L 37.1749,-6.30838
 L 37.0941,-6.31482 L 37.013,-6.32196 L 36.9315,-6.32977 L 36.8496,-6.33826 L 36.7674,-6.34743 L 36.6849,-6.35728
 L 36.602,-6.36781 L 36.5188,-6.37901 L 36.4352,-6.3909 L 36.3513,-6.40347 L 36.267,-6.4167 L 36.1824,-6.43063
 L 36.0974,-6.44524 L 36.0121,-6.46051 L 35.9265,-6.47649 L 35.8404,-6.49312 L 35.7541,-6.51044 L 35.6674,-6.52843
 L 35.5803,-6.54712 L 35.4929,-6.56648 L 35.4052,-6.5865 L 35.3171,-6.60722 L 35.2287,-6.62862 L 35.1399,-6.65068
 L 35.0508,-6.67345 L 34.9613,-6.69687 L 34.8715,-6.72099 L 34.7813,-6.74579 L 34.6908,-6.77126 L 34.5999,-6.79741
 L 34.5087,-6.82423 L 34.4171,-6.85173 L 34.3252,-6.87993 L 34.233,-6.90878 L 34.1404,-6.93832 L 34.0474,-6.96855
 L 33.9541,-6.99945 L 33.8602,-7.03119 L 33.7654,-7.0639 L 33.6697,-7.09761 L 33.5731,-7.13228 L 33.4756,-7.16794
 L 33.3772,-7.20457 L 33.2779,-7.24219 L 33.1776,-7.28079 L 33.0765,-7.32037 L 32.9745,-7.36093 L 32.8716,-7.40248
 L 32.7677,-7.44499 L 32.663,-7.48849 L 32.5574,-7.53297 L 32.4508,-7.57845 L 32.3434,-7.62488 L 32.235,-7.67232
 L 32.1258,-7.72072 L 32.0157,-7.7701 L 31.9046,-7.82047 L 31.7926,-7.87181 L 31.6798,-7.92415 L 31.566,-7.97746
 L 31.4514,-8.03175 L 31.3358,-8.08702 L 31.2193,-8.14326 L 31.102,-8.2005 L 30.9837,-8.25873 L 30.8645,-8.31792
 L 30.7445,-8.3781 L 30.6235,-8.43925 L 30.5016,-8.50139 L 30.3788,-8.56451 L 30.2551,-8.6286 L 30.1306,-8.69368
 L 30.0051,-8.75975 L 29.8787,-8.82678 L 29.7514,-8.89481 L 29.6232,-8.96381 L 29.4941,-9.0338 L 29.3641,-9.10475
 L 29.2332,-9.17671 L 29.1014,-9.24963 L 28.9687,-9.32355 L 28.8351,-9.39842 L 28.7006,-9.47429 L 28.7006,-1.8096
 L 28.8652,-1.70889 L 29.031,-1.6104 L 29.1978,-1.51411 L 29.3657,-1.42004 L 29.5347,-1.3282 L 29.7047,-1.23854
 L 29.8758,-1.15112 L 30.0479,-1.0659 L 30.2212,-0.982895 L 30.3955,-0.9021 L 30.5709,-0.823532 L 30.7473,-0.747162
 L 30.9248,-0.673019 L 31.1034,-0.601074 L 31.2831,-0.531357 L 31.4638,-0.463852 L 31.6456,-0.398544 L 31.8285,-0.33548
 L 32.0124,-0.274612 L 32.1974,-0.215942 L 32.3835,-0.159515 L 32.5707,-0.10527 L 32.7589,-0.0532532 L 32.9482,-0.00346375
 L 33.1385,0.0440979 L 33.33,0.0894775 L 33.5225,0.132629 L 33.716,0.173584 L 33.9107,0.212311 L 34.1064,0.24884
 L 34.3032,0.283157 L 34.501,0.315231 L 34.7,0.345123 L 34.8999,0.372787 L 35.101,0.398254 L 35.3031,0.421494
 L 35.5064,0.442505 L 35.7106,0.461319 L 35.916,0.477936 L 36.1224,0.49231 L 36.3299,0.504486 L 36.5384,0.51445
 L 36.748,0.522202 L 36.9587,0.52774 L 37.1705,0.531052 L 37.3833,0.53215 z
M 66.7085,0.531921 L 66.8269,0.531219 L 66.9451,0.53006 L 67.0633,0.528427 L 67.1814,0.526352 L 67.2993,0.523788
 L 67.4171,0.520752 L 67.5349,0.517258 L 67.6525,0.513306 L 67.77,0.508881 L 67.8874,0.503998 L 68.0047,0.498627
 L 68.1218,0.492828 L 68.2389,0.486542 L 68.3559,0.479782 L 68.4727,0.472565 L 68.5894,0.46489 L 68.7061,0.456741
 L 68.8226,0.44812 L 68.939,0.439041 L 69.0553,0.429504 L 69.1715,0.419495 L 69.2876,0.409012 L 69.4036,0.398087
 L 69.5194,0.386673 L 69.6352,0.374802 L 69.7509,0.362473 L 69.8664,0.34967 L 69.9818,0.336411 L 70.0971,0.322662
 L 70.2123,0.308472 L 70.3275,0.293793 L 70.4424,0.278671 L 70.5573,0.263077 L 70.6721,0.247009 L 70.7868,0.230484
 L 70.9013,0.213501 L 71.0158,0.196045 L 71.1301,0.178116 L 71.2443,0.159729 L 71.3584,0.140869 L 71.4725,0.121552
 L 71.5863,0.101761 L 71.7001,0.0815277 L 71.8138,0.0608063 L 71.9274,0.0396271 L 72.0411,0.0178833 L 72.1551,-0.00453186
 L 72.2695,-0.0276642 L 72.3841,-0.0514832 L 72.4991,-0.0759888 L 72.6145,-0.101181 L 72.7301,-0.127075 L 72.8461,-0.153671
 L 72.9624,-0.180954 L 73.079,-0.208908 L 73.196,-0.237564 L 73.3133,-0.266922 L 73.4309,-0.296967 L 73.5489,-0.327713
 L 73.6671,-0.359131 L 73.7857,-0.391266 L 73.9046,-0.424057 L 74.0239,-0.457565 L 74.1435,-0.491776 L 74.2634,-0.526657
 L 74.3836,-0.562225 L 74.5042,-0.598511 L 74.6251,-0.635468 L 74.7463,-0.673126 L 74.8678,-0.711472 L 74.9897,-0.750504
 L 75.1119,-0.790237 L 75.2344,-0.830658 L 75.3573,-0.871765 L 75.4805,-0.913589 L 75.604,-0.95607 L 75.7278,-0.999268
 L 75.852,-1.04315 L 75.9764,-1.08772 L 76.1013,-1.13298 L 76.2264,-1.17896 L 76.3519,-1.2256 L 76.4777,-1.27293
 L 76.6038,-1.32097 L 76.7302,-1.36969 L 76.857,-1.41911 L 76.9841,-1.46921 L 77.1116,-1.52002 L 77.2393,-1.5715
 L 77.3674,-1.62369 L 77.4958,-1.67656 L 77.4958,-21.8496 L 65.3316,-21.8496 L 65.3316,-14.9832 L 71.1412,-14.9832
 L 71.1412,-6.86642 L 71.0501,-6.84352 L 70.9589,-6.82112 L 70.8679,-6.79921 L 70.7769,-6.77782 L 70.686,-6.75694
 L 70.5951,-6.73654 L 70.5043,-6.71666 L 70.4136,-6.69728 L 70.3229,-6.67842 L 70.2323,-6.66003 L 70.1417,-6.64217
 L 70.0512,-6.6248 L 69.9607,-6.60793 L 69.8703,-6.59158 L 69.78,-6.57571 L 69.6897,-6.56036 L 69.5995,-6.54552
 L 69.5094,-6.53117 L 69.4193,-6.51732 L 69.3293,-6.50398 L 69.2393,-6.49115 L 69.1494,-6.47882 L 69.0595,-6.467
 L 68.9697,-6.45566 L 68.88,-6.44485 L 68.7903,-6.43452 L 68.7007,-6.42471 L 68.6111,-6.41541 L 68.5217,-6.40659
 L 68.4322,-6.39827 L 68.3428,-6.39047 L 68.2535,-6.38318 L 68.1643,-6.37639 L 68.0751,-6.3701 L 67.9859,-6.3643
 L 67.8969,-6.35902 L 67.8078,-6.35423 L 67.7189,-6.34996 L 67.63,-6.34618 L 67.5412,-6.34291 L 67.4524,-6.34015
 L 67.3636,-6.33788 L 67.275,-6.33612 L 67.1864,-6.33485 L 67.0978,-6.33411 L 67.0094,-6.33386 L 66.8406,-6.33543
 L 66.6737,-6.34016 L 66.5084,-6.34807 L 66.345,-6.35912 L 66.1833,-6.37331 L 66.0233,-6.39067 L 65.8651,-6.41119
 L 65.7087,-6.43486 L 65.554,-6.4617 L 65.4011,-6.49168 L 65.2499,-6.52483 L 65.1004,-6.56113 L 64.9528,-6.6006
 L 64.8069,-6.6432 L 64.6627,-6.68898 L 64.5203,-6.73792 L 64.3796,-6.78999 L 64.2407,-6.84523 L 64.1036,-6.90364
 L 63.9682,-6.96519 L 63.8345,-7.02991 L 63.7027,-7.09778 L 63.5725,-7.16881 L 63.4441,-7.24298 L 63.3175,-7.32033
 L 63.1926,-7.40083 L 63.0695,-7.48447 L 62.9482,-7.57129 L 62.8286,-7.66125 L 62.7107,-7.75436 L 62.5946,-7.85066
 L 62.4803,-7.95009 L 62.3677,-8.05269 L 62.2568,-8.15843 L 62.1478,-8.26733 L 62.0404,-8.37941 L 61.9348,-8.49463
 L 61.831,-8.61301 L 61.729,-8.73454 L 61.6287,-8.85924 L 61.5301,-8.98708 L 61.4333,-9.11809 L 61.3382,-9.25224
 L 61.2449,-9.38956 L 61.1534,-9.53003 L 61.0636,-9.67366 L 60.9757,-9.8203 L 60.8897,-9.96977 L 60.8056,-10.1221
 L 60.7235,-10.2772 L 60.6433,-10.4352 L 60.565,-10.596 L 60.4887,-10.7596 L 60.4143,-10.926 L 60.3418,-11.0953
 L 60.2713,-11.2674 L 60.2027,-11.4424 L 60.136,-11.6201 L 60.0713,-11.8007 L 60.0085,-11.9842 L 59.9476,-12.1704
 L 59.8887,-12.3595 L 59.8317,-12.5514 L 59.7766,-12.7462 L 59.7234,-12.9438 L 59.6722,-13.1442 L 59.623,-13.3474
 L 59.5756,-13.5535 L 59.5302,-13.7624 L 59.4867,-13.9741 L 59.4452,-14.1887 L 59.4055,-14.4061 L 59.3679,-14.6263
 L 59.3321,-14.8493 L 59.2983,-15.0752 L 59.2664,-15.3039 L 59.2364,-15.5354 L 59.2084,-15.7698 L 59.1823,-16.007
 L 59.1582,-16.247 L 59.136,-16.4899 L 59.1157,-16.7356 L 59.0973,-16.9841 L 59.0809,-17.2355 L 59.0664,-17.4896
 L 59.0538,-17.7466 L 59.0432,-18.0065 L 59.0345,-18.2691 L 59.0277,-18.5347 L 59.0229,-18.803 L 59.02,-19.0741
 L 59.019,-19.3481 L 59.0202,-19.6108 L 59.0238,-19.8711 L 59.0298,-20.129 L 59.0382,-20.3847 L 59.049,-20.638
 L 59.0622,-20.8889 L 59.0778,-21.1375 L 59.0958,-21.3838 L 59.1162,-21.6277 L 59.139,-21.8693 L 59.1641,-22.1086
 L 59.1917,-22.3455 L 59.2217,-22.58 L 59.2541,-22.8123 L 59.2889,-23.0422 L 59.326,-23.2697 L 59.3656,-23.4949
 L 59.4076,-23.7178 L 59.452,-23.9383 L 59.4987,-24.1566 L 59.5479,-24.3724 L 59.5995,-24.5859 L 59.6534,-24.7971
 L 59.7098,-25.0059 L 59.7686,-25.2124 L 59.8297,-25.4166 L 59.8933,-25.6184 L 59.9592,-25.8179 L 60.0276,-26.015
 L 60.0983,-26.2098 L 60.1715,-26.4023 L 60.2471,-26.5924 L 60.325,-26.7802 L 60.4053,-26.9656 L 60.4881,-27.1487
 L 60.5732,-27.3295 L 60.6608,-27.5079 L 60.7507,-27.684 L 60.8431,-27.8578 L 60.9378,-28.0292 L 61.0349,-28.1982
 L 61.1345,-28.3649 L 61.2364,-28.5293 L 61.3407,-28.6914 L 61.4475,-28.8511 L 61.5566,-29.0085 L 61.6677,-29.163
 L 61.7805,-29.3141 L 61.8948,-29.4618 L 62.0107,-29.6061 L 62.1281,-29.7471 L 62.2472,-29.8846 L 62.3678,-30.0188
 L 62.4901,-30.1495 L 62.6139,-30.2769 L 62.7393,-30.4008 L 62.8663,-30.5214 L 62.9949,-30.6385 L 63.125,-30.7523
 L 63.2568,-30.8627 L 63.3901,-30.9696 L 63.525,-31.0732 L 63.6615,-31.1734 L 63.7996,-31.2702 L 63.9393,-31.3636
 L 64.0806,-31.4536 L 64.2234,-31.5401 L 64.3678,-31.6234 L 64.5139,-31.7032 L 64.6615,-31.7796 L 64.8106,-31.8526
 L 64.9614,-31.9222 L 65.1138,-31.9884 L 65.2677,-32.0513 L 65.4232,-32.1107 L 65.5804,-32.1667 L 65.7391,-32.2194
 L 65.8994,-32.2686 L 66.0612,-32.3144 L 66.2247,-32.3569 L 66.3897,-32.3959 L 66.5564,-32.4316 L 66.7246,-32.4639
 L 66.8944,-32.4927 L 67.0658,-32.5182 L 67.2387,-32.5403 L 67.4133,-32.5589 L 67.5894,-32.5742 L 67.7672,-32.5861
 L 67.9465,-32.5946 L 68.1274,-32.5997 L 68.3098,-32.6014 L 68.4675,-32.6004 L 68.6248,-32.5974 L 68.7819,-32.5923
 L 68.9388,-32.5853 L 69.0953,-32.5762 L 69.2517,-32.5652 L 69.4077,-32.5521 L 69.5635,-32.537 L 69.7191,-32.5199
 L 69.8744,-32.5008 L 70.0294,-32.4796 L 70.1842,-32.4565 L 70.3387,-32.4314 L 70.493,-32.4042 L 70.647,-32.375
 L 70.8008,-32.3438 L 70.9542,-32.3106 L 71.1075,-32.2754 L 71.2605,-32.2382 L 71.4132,-32.1989 L 71.5656,-32.1577
 L 71.7178,-32.1144 L 71.8698,-32.0691 L 72.0215,-32.0219 L 72.1729,-31.9725 L 72.3241,-31.9212 L 72.475,-31.8679
 L 72.6257,-31.8125 L 72.7761,-31.7552 L 72.9262,-31.6958 L 73.0761,-31.6345 L 73.2257,-31.5711 L 73.3751,-31.5057
 L 73.5242,-31.4383 L 73.6731,-31.3688 L 73.8217,-31.2974 L 73.97,-31.2239 L 74.1181,-31.1485 L 74.2659,-31.071
 L 74.4135,-30.9915 L 74.5608,-30.91 L 74.7079,-30.8265 L 74.8546,-30.741 L 75.0012,-30.6534 L 75.1475,-30.5639
 L 75.2935,-30.4723 L 77.4538,-37.0727 L 77.263,-37.1757 L 77.072,-37.2764 L 76.8806,-37.3749 L 76.6889,-37.4711
 L 76.4969,-37.565 L 76.3046,-37.6567 L 76.1119,-37.7462 L 75.919,-37.8333 L 75.7257,-37.9182 L 75.5321,-38.0009
 L 75.3382,-38.0812 L 75.144,-38.1593 L 74.9494,-38.2352 L 74.7546,-38.3087 L 74.5594,-38.3801 L 74.3639,-38.4491
 L 74.1681,-38.5159 L 73.972,-38.5804 L 73.7755,-38.6427 L 73.5788,-38.7027 L 73.3817,-38.7604 L 73.1843,-38.8158
 L 72.9866,-38.869 L 72.7885,-38.92 L 72.5902,-38.9687 L 72.3915,-39.0151 L 72.1925,-39.0592 L 71.9932,-39.1011
 L 71.7936,-39.1407 L 71.5937,-39.1781 L 71.3934,-39.2132 L 71.1929,-39.246 L 70.992,-39.2765 L 70.7908,-39.3048
 L 70.5892,-39.3309 L 70.3874,-39.3546 L 70.1853,-39.3761 L 69.9828,-39.3954 L 69.78,-39.4124 L 69.5769,-39.4271
 L 69.3735,-39.4395 L 69.1697,-39.4497 L 68.9657,-39.4576 L 68.7613,-39.4633 L 68.5566,-39.4667 L 68.3516,-39.4678
 L 68.0258,-39.4653 L 67.7031,-39.4579 L 67.3835,-39.4454 L 67.067,-39.428 L 66.7537,-39.4056 L 66.4434,-39.3782
 L 66.1362,-39.3458 L 65.8321,-39.3085 L 65.5311,-39.2661 L 65.2333,-39.2188 L 64.9385,-39.1665 L 64.6468,-39.1092
 L 64.3583,-39.047 L 64.0728,-38.9797 L 63.7904,-38.9075 L 63.5112,-38.8303 L 63.235,-38.7481 L 62.962,-38.661
 L 62.692,-38.5688 L 62.4252,-38.4717 L 62.1614,-38.3696 L 61.9008,-38.2625 L 61.6432,-38.1505 L 61.3887,-38.0334
 L 61.1374,-37.9114 L 60.8892,-37.7844 L 60.644,-37.6524 L 60.402,-37.5154 L 60.1631,-37.3735 L 59.9272,-37.2265
 L 59.6945,-37.0746 L 59.4649,-36.9177 L 59.2384,-36.7559 L 59.0149,-36.589 L 58.7946,-36.4172 L 58.5774,-36.2404
 L 58.3633,-36.0586 L 58.1523,-35.8718 L 57.9443,-35.6801 L 57.7395,-35.4833 L 57.5378,-35.2816 L 57.3392,-35.0749
 L 57.1437,-34.8632 L 56.9513,-34.6466 L 56.762,-34.4249 L 56.5758,-34.1983 L 56.3932,-33.9672 L 56.2145,-33.7322
 L 56.0399,-33.4933 L 55.8693,-33.2505 L 55.7027,-33.0037 L 55.5402,-32.753 L 55.3816,-32.4984 L 55.2271,-32.2399
 L 55.0765,-31.9774 L 54.93,-31.711 L 54.7875,-31.4407 L 54.649,-31.1665 L 54.5146,-30.8883 L 54.3841,-30.6062
 L 54.2577,-30.3202 L 54.1352,-30.0303 L 54.0168,-29.7365 L 53.9024,-29.4387 L 53.792,-29.137 L 53.6857,-28.8313
 L 53.5833,-28.5218 L 53.4849,-28.2083 L 53.3906,-27.8909 L 53.3003,-27.5696 L 53.214,-27.2444 L 53.1317,-26.9152
 L 53.0534,-26.5821 L 52.9792,-26.2451 L 52.9089,-25.9042 L 52.8427,-25.5593 L 52.7805,-25.2105 L 52.7223,-24.8578
 L 52.6681,-24.5012 L 52.6179,-24.1406 L 52.5717,-23.7761 L 52.5296,-23.4077 L 52.4915,-23.0354 L 52.4573,-22.6591
 L 52.4272,-22.2789 L 52.4011,-21.8949 L 52.3791,-21.5068 L 52.361,-21.1149 L 52.347,-20.719 L 52.3369,-20.3192
 L 52.3309,-19.9155 L 52.3289,-19.5079 L 52.3306,-19.0888 L 52.3358,-18.674 L 52.3445,-18.2635 L 52.3566,-17.8572
 L 52.3721,-17.4552 L 52.3912,-17.0574 L 52.4136,-16.664 L 52.4396,-16.2747 L 52.469,-15.8898 L 52.5018,-15.5091
 L 52.5382,-15.1327 L 52.5779,-14.7605 L 52.6212,-14.3926 L 52.6679,-14.029 L 52.718,-13.6696 L 52.7716,-13.3145
 L 52.8287,-12.9637 L 52.8892,-12.6171 L 52.9532,-12.2748 L 53.0207,-11.9367 L 53.0916,-11.603 L 53.166,-11.2734
 L 53.2438,-10.9482 L 53.3251,-10.6272 L 53.4098,-10.3104 L 53.498,-9.99796 L 53.5897,-9.68977 L 53.6848,-9.38582
 L 53.7834,-9.08614 L 53.8854,-8.79073 L 53.9909,-8.49957 L 54.0999,-8.21268 L 54.2123,-7.93005 L 54.3282,-7.6517
 L 54.4475,-7.37761 L 54.5703,-7.10777 L 54.6966,-6.84219 L 54.8263,-6.58089 L 54.9594,-6.32385 L 55.0961,-6.07108
 L 55.2362,-5.82256 L 55.3797,-5.57829 L 55.5267,-5.3383 L 55.6772,-5.10258 L 55.8311,-4.87112 L 55.9885,-4.64392
 L 56.1492,-4.42133 L 56.3129,-4.20363 L 56.4798,-3.9908 L 56.6498,-3.78288 L 56.8228,-3.57983 L 56.999,-3.3817
 L 57.1783,-3.18845 L 57.3607,-3.00011 L 57.5462,-2.81664 L 57.7347,-2.63806 L 57.9264,-2.46437 L 58.1212,-2.29559
 L 58.3191,-2.1317 L 58.5201,-1.9727 L 58.7242,-1.81859 L 58.9314,-1.66937 L 59.1417,-1.52505 L 59.3551,-1.38562
 L 59.5716,-1.25108 L 59.7912,-1.12143 L 60.0139,-0.996674 L 60.2397,-0.876816 L 60.4687,-0.761841 L 60.7007,-0.651764
 L 60.9358,-0.546585 L 61.174,-0.446274 L 61.4154,-0.350891 L 61.6598,-0.260376 L 61.9073,-0.174759 L 62.1579,-0.0940399
 L 62.4117,-0.0182037 L 62.6685,0.0527039 L 62.9285,0.118759 L 63.1915,0.179901 L 63.4576,0.236176 L 63.7269,0.287537
 L 63.9992,0.334015 L 64.2747,0.375595 L 64.5533,0.412292 L 64.8349,0.444092 L 65.1197,0.470993 L 65.4075,0.493011
 L 65.6985,0.510147 L 65.9926,0.522385 L 66.2897,0.529709 L 66.59,0.53215 z
" stroke="white" fill="white" stroke-width="0.5"/>
</svg>
