<?xml version="1.0" standalone="no"?>
<!DOCTYPE svg PUBLIC "-//W3C//DTD SVG 1.1//EN" "http://www.w3.org/Graphics/SVG/1.1/DTD/svg11.dtd">
<svg width="100mm" height="100mm" viewBox="-8 -108 116 116" xmlns="http://www.w3.org/2000/svg" version="1.1">
<title>OpenSCAD Model</title>
<path d="
M 84.1993,-0.00497437 L 84.3984,-0.0149078 L 84.5973,-0.0298004 L 84.7955,-0.0546417 L 84.9926,-0.0843658 L 85.1891,-0.119003
 L 85.3832,-0.163315 L 85.5764,-0.212509 L 85.7684,-0.266525 L 85.9575,-0.330063 L 86.1449,-0.398254 L 86.3306,-0.471115
 L 86.5125,-0.553223 L 86.6922,-0.63974 L 86.8696,-0.730728 L 87.0423,-0.830399 L 87.2124,-0.934357 L 87.3799,-1.04256
 L 87.5419,-1.15901 L 87.7008,-1.2794 L 87.8568,-1.40376 L 88.0063,-1.53571 L 88.1524,-1.67133 L 88.2952,-1.81058
 L 88.4308,-1.95677 L 88.5628,-2.10626 L 88.691,-2.25905 L 88.8113,-2.41792 L 88.9277,-2.5798 L 89.0401,-2.74458
 L 89.1443,-2.9151 L 89.244,-3.08778 L 89.3393,-3.26295 L 89.4258,-3.44243 L 89.5078,-3.62416 L 89.5852,-3.80795
 L 89.6534,-3.99522 L 89.7169,-4.18422 L 89.7757,-4.3748 L 89.825,-4.56818 L 89.8693,-4.76257 L 89.9088,-4.95807
 L 89.9386,-5.15555 L 89.9634,-5.35338 L 89.9832,-5.55183 L 89.9916,-5.70078 L 89.9972,-5.85023 L 90,-6
 L 90,-94 L 89.995,-94.1993 L 89.9851,-94.3984 L 89.9702,-94.5973 L 89.9454,-94.7955 L 89.9156,-94.9926
 L 89.881,-95.1891 L 89.8367,-95.3832 L 89.7875,-95.5764 L 89.7335,-95.7684 L 89.6699,-95.9575 L 89.6017,-96.1449
 L 89.5289,-96.3306 L 89.4468,-96.5125 L 89.3603,-96.6922 L 89.2693,-96.8696 L 89.1696,-97.0423 L 89.0656,-97.2124
 L 88.9574,-97.3799 L 88.841,-97.5419 L 88.7206,-97.7008 L 88.5962,-97.8568 L 88.4643,-98.0063 L 88.3287,-98.1524
 L 88.1894,-98.2952 L 88.0432,-98.4308 L 87.8937,-98.5628 L 87.741,-98.691 L 87.5821,-98.8113 L 87.4202,-98.9277
 L 87.2554,-99.0401 L 87.0849,-99.1443 L 86.9122,-99.244 L 86.737,-99.3393 L 86.5576,-99.4258 L 86.3758,-99.5078
 L 86.192,-99.5852 L 86.0048,-99.6534 L 85.8158,-99.7169 L 85.6252,-99.7757 L 85.4318,-99.825 L 85.2374,-99.8693
 L 85.0419,-99.9088 L 84.8445,-99.9386 L 84.6466,-99.9634 L 84.4482,-99.9832 L 84.2992,-99.9916 L 84.1498,-99.9972
 L 84,-100 L 36,-100 L 10,-74 L 10,-50 L 14,-50 L 14,-70
 L 34,-70 L 34.1993,-70.005 L 34.3984,-70.0149 L 34.5973,-70.0298 L 34.7955,-70.0546 L 34.9926,-70.0844
 L 35.1891,-70.119 L 35.3832,-70.1633 L 35.5764,-70.2125 L 35.7684,-70.2665 L 35.9575,-70.3301 L 36.1449,-70.3983
 L 36.3306,-70.4711 L 36.5125,-70.5532 L 36.6922,-70.6397 L 36.8696,-70.7307 L 37.0423,-70.8304 L 37.2124,-70.9344
 L 37.3799,-71.0426 L 37.5419,-71.159 L 37.7008,-71.2794 L 37.8568,-71.4038 L 38.0063,-71.5357 L 38.1524,-71.6713
 L 38.2952,-71.8106 L 38.4308,-71.9568 L 38.5628,-72.1063 L 38.691,-72.259 L 38.8113,-72.4179 L 38.9277,-72.5798
 L 39.0401,-72.7446 L 39.1443,-72.9151 L 39.244,-73.0878 L 39.3393,-73.263 L 39.4258,-73.4424 L 39.5078,-73.6242
 L 39.5852,-73.808 L 39.6534,-73.9952 L 39.7169,-74.1842 L 39.7757,-74.3748 L 39.825,-74.5682 L 39.8693,-74.7626
 L 39.9088,-74.9581 L 39.9386,-75.1555 L 39.9634,-75.3534 L 39.9832,-75.5518 L 39.9916,-75.7008 L 39.9972,-75.8502
 L 40,-76 L 40,-96 L 84,-96 L 84.1495,-95.9944 L 84.3473,-95.9696 L 84.5417,-95.9252
 L 84.7307,-95.8617 L 84.9124,-95.7797 L 85.0851,-95.6801 L 85.247,-95.5637 L 85.3965,-95.4317 L 85.5321,-95.2856
 L 85.6525,-95.1266 L 85.7564,-94.9565 L 85.843,-94.7769 L 85.9111,-94.5895 L 85.9603,-94.3963 L 85.9901,-94.1991
 L 86,-94 L 86,-6 L 85.9944,-5.85054 L 85.9696,-5.65271 L 85.9252,-5.45831 L 85.8617,-5.26932
 L 85.7797,-5.08759 L 85.6801,-4.9149 L 85.5637,-4.75302 L 85.4317,-4.60353 L 85.2856,-4.46791 L 85.1266,-4.34752
 L 84.9565,-4.24356 L 84.7769,-4.15704 L 84.5895,-4.08885 L 84.3963,-4.03966 L 84.1991,-4.00993 L 84,-4
 L 80,-4 L 80,-0 L 84,-0 z
M 10.365,-14.2272 L 13.1556,-14.2272 L 13.4025,-14.2289 L 13.6469,-14.2337 L 13.8889,-14.2418 L 14.1283,-14.2531
 L 14.3654,-14.2677 L 14.5999,-14.2854 L 14.832,-14.3064 L 15.0616,-14.3307 L 15.2888,-14.3582 L 15.5135,-14.3889
 L 15.7357,-14.4228 L 15.9554,-14.46 L 16.1727,-14.5004 L 16.3875,-14.544 L 16.5998,-14.5909 L 16.8097,-14.641
 L 17.0171,-14.6943 L 17.222,-14.7509 L 17.4244,-14.8107 L 17.6244,-14.8737 L 17.8219,-14.94 L 18.017,-15.0095
 L 18.2096,-15.0822 L 18.3997,-15.1581 L 18.5873,-15.2373 L 18.7725,-15.3198 L 18.9552,-15.4054 L 19.1354,-15.4943
 L 19.3132,-15.5864 L 19.4885,-15.6818 L 19.6613,-15.7804 L 19.8317,-15.8822 L 19.9996,-15.9872 L 20.165,-16.0955
 L 20.3279,-16.207 L 20.4884,-16.3218 L 20.6464,-16.4397 L 20.802,-16.561 L 20.955,-16.6854 L 21.1056,-16.8131
 L 21.2538,-16.944 L 21.3994,-17.0781 L 21.5426,-17.2155 L 21.6833,-17.3561 L 21.8216,-17.4999 L 21.9574,-17.647
 L 22.0905,-17.7971 L 22.2207,-17.9501 L 22.3479,-18.106 L 22.4723,-18.2648 L 22.5937,-18.4264 L 22.7121,-18.5909
 L 22.8277,-18.7582 L 22.9403,-18.9285 L 23.05,-19.1015 L 23.1568,-19.2775 L 23.2607,-19.4564 L 23.3616,-19.6381
 L 23.4596,-19.8226 L 23.5547,-20.0101 L 23.6468,-20.2004 L 23.736,-20.3936 L 23.8223,-20.5896 L 23.9057,-20.7886
 L 23.9862,-20.9904 L 24.0637,-21.195 L 24.1383,-21.4026 L 24.2099,-21.613 L 24.2787,-21.8262 L 24.3445,-22.0424
 L 24.4074,-22.2614 L 24.4674,-22.4833 L 24.5244,-22.7081 L 24.5785,-22.9357 L 24.6297,-23.1662 L 24.678,-23.3996
 L 24.7233,-23.6358 L 24.7658,-23.8749 L 24.8053,-24.1169 L 24.8418,-24.3617 L 24.8755,-24.6094 L 24.9062,-24.86
 L 24.934,-25.1135 L 24.9588,-25.3698 L 24.9808,-25.629 L 24.9998,-25.8911 L 25.0159,-26.156 L 25.029,-26.4238
 L 25.0393,-26.6945 L 25.0466,-26.968 L 25.051,-27.2444 L 25.0524,-27.5237 L 25.0511,-27.7923 L 25.047,-28.058
 L 25.0401,-28.3208 L 25.0305,-28.5806 L 25.0181,-28.8376 L 25.003,-29.0916 L 24.9852,-29.3427 L 24.9646,-29.5909
 L 24.9412,-29.8362 L 24.9151,-30.0786 L 24.8863,-30.3181 L 24.8547,-30.5547 L 24.8204,-30.7884 L 24.7833,-31.0191
 L 24.7434,-31.247 L 24.7009,-31.4719 L 24.6556,-31.694 L 24.6075,-31.9131 L 24.5567,-32.1293 L 24.5031,-32.3426
 L 24.4468,-32.553 L 24.3878,-32.7605 L 24.326,-32.965 L 24.2614,-33.1667 L 24.1941,-33.3654 L 24.1241,-33.5613
 L 24.0513,-33.7542 L 23.9757,-33.9442 L 23.8975,-34.1314 L 23.8164,-34.3156 L 23.7327,-34.4968 L 23.6461,-34.6752
 L 23.5569,-34.8507 L 23.4649,-35.0233 L 23.3701,-35.1929 L 23.2726,-35.3597 L 23.1723,-35.5235 L 23.0693,-35.6844
 L 22.9636,-35.8425 L 22.8551,-35.9976 L 22.7439,-36.1498 L 22.6299,-36.299 L 22.5131,-36.4454 L 22.3936,-36.5889
 L 22.2714,-36.7294 L 22.1465,-36.8671 L 22.0188,-37.0018 L 21.8887,-37.1336 L 21.756,-37.2624 L 21.6208,-37.3883
 L 21.4831,-37.5112 L 21.3428,-37.6311 L 21.2001,-37.748 L 21.0547,-37.862 L 20.9069,-37.9731 L 20.7565,-38.0812
 L 20.6037,-38.1863 L 20.4482,-38.2885 L 20.2903,-38.3876 L 20.1298,-38.4839 L 19.9668,-38.5771 L 19.8012,-38.6675
 L 19.6332,-38.7548 L 19.4626,-38.8392 L 19.2895,-38.9207 L 19.1138,-38.9991 L 18.9356,-39.0746 L 18.7549,-39.1472
 L 18.5717,-39.2168 L 18.3859,-39.2834 L 18.1976,-39.347 L 18.0068,-39.4077 L 17.8134,-39.4655 L 17.6175,-39.5203
 L 17.4191,-39.5721 L 17.2182,-39.621 L 17.0147,-39.6669 L 16.8087,-39.7098 L 16.6002,-39.7498 L 16.3891,-39.7868
 L 16.1756,-39.8208 L 15.9594,-39.8519 L 15.7408,-39.8801 L 15.5197,-39.9052 L 15.2959,-39.9274 L 15.0697,-39.9467
 L 14.841,-39.963 L 14.6097,-39.9763 L 14.3759,-39.9867 L 14.1395,-39.9941 L 13.9007,-39.9985 L 13.6593,-40
 L 3.86082,-40 L 3.86082,-0 L 10.365,-0 z
M 10.365,-21.1765 L 10.365,-33.0508 L 13.3236,-33.0508 L 13.4388,-33.0501 L 13.5526,-33.0481 L 13.6651,-33.0447
 L 13.7763,-33.04 L 13.8861,-33.0339 L 13.9946,-33.0266 L 14.1018,-33.0178 L 14.2076,-33.0077 L 14.3121,-32.9963
 L 14.4152,-32.9835 L 14.517,-32.9694 L 14.6175,-32.9539 L 14.7166,-32.9371 L 14.8144,-32.919 L 14.9108,-32.8994
 L 15.0059,-32.8786 L 15.0997,-32.8564 L 15.1921,-32.8329 L 15.2832,-32.808 L 15.373,-32.7818 L 15.4614,-32.7542
 L 15.5484,-32.7253 L 15.6342,-32.695 L 15.7186,-32.6634 L 15.8016,-32.6304 L 15.8834,-32.5961 L 15.9637,-32.5605
 L 16.0428,-32.5235 L 16.1205,-32.4852 L 16.1969,-32.4455 L 16.2719,-32.4045 L 16.3456,-32.3621 L 16.4179,-32.3184
 L 16.489,-32.2734 L 16.5586,-32.227 L 16.627,-32.1792 L 16.694,-32.1301 L 16.7596,-32.0797 L 16.8239,-32.0279
 L 16.8869,-31.9748 L 16.9486,-31.9203 L 17.0089,-31.8645 L 17.0678,-31.8073 L 17.1255,-31.7488 L 17.1818,-31.6889
 L 17.2367,-31.6278 L 17.2904,-31.5652 L 17.3429,-31.5011 L 17.3942,-31.4356 L 17.4444,-31.3685 L 17.4934,-31.3001
 L 17.5412,-31.2301 L 17.5878,-31.1587 L 17.6332,-31.0858 L 17.6775,-31.0114 L 17.7205,-30.9355 L 17.7624,-30.8582
 L 17.8031,-30.7794 L 17.8427,-30.6991 L 17.881,-30.6173 L 17.9182,-30.5341 L 17.9542,-30.4494 L 17.989,-30.3632
 L 18.0226,-30.2756 L 18.0551,-30.1864 L 18.0863,-30.0958 L 18.1164,-30.0038 L 18.1453,-29.9102 L 18.1731,-29.8152
 L 18.1996,-29.7187 L 18.225,-29.6207 L 18.2492,-29.5213 L 18.2722,-29.4204 L 18.294,-29.318 L 18.3147,-29.2141
 L 18.3341,-29.1087 L 18.3524,-29.0019 L 18.3695,-28.8936 L 18.3855,-28.7839 L 18.4002,-28.6726 L 18.4138,-28.5599
 L 18.4262,-28.4457 L 18.4374,-28.3301 L 18.4474,-28.2129 L 18.4563,-28.0943 L 18.4639,-27.9742 L 18.4704,-27.8527
 L 18.4758,-27.7296 L 18.4799,-27.6051 L 18.4828,-27.4791 L 18.4846,-27.3517 L 18.4852,-27.2228 L 18.4845,-27.095
 L 18.4824,-26.9685 L 18.4789,-26.8434 L 18.4739,-26.7196 L 18.4676,-26.5971 L 18.4598,-26.476 L 18.4507,-26.3562
 L 18.4401,-26.2377 L 18.4282,-26.1205 L 18.4148,-26.0047 L 18.4,-25.8903 L 18.3838,-25.7771 L 18.3662,-25.6653
 L 18.3472,-25.5548 L 18.3268,-25.4456 L 18.3049,-25.3378 L 18.2817,-25.2313 L 18.2571,-25.1262 L 18.231,-25.0223
 L 18.2036,-24.9198 L 18.1747,-24.8187 L 18.1444,-24.7188 L 18.1127,-24.6203 L 18.0796,-24.5232 L 18.0451,-24.4273
 L 18.0092,-24.3328 L 17.9719,-24.2396 L 17.9332,-24.1478 L 17.8931,-24.0573 L 17.8515,-23.9681 L 17.8086,-23.8802
 L 17.7642,-23.7937 L 17.7184,-23.7085 L 17.6713,-23.6246 L 17.6227,-23.5421 L 17.5727,-23.4609 L 17.5213,-23.381
 L 17.4685,-23.3025 L 17.4143,-23.2253 L 17.3587,-23.1494 L 17.3016,-23.0749 L 17.2432,-23.0017 L 17.1833,-22.9298
 L 17.1221,-22.8592 L 17.0594,-22.79 L 16.9954,-22.7221 L 16.9299,-22.6557 L 16.863,-22.5907 L 16.7946,-22.5271
 L 16.7249,-22.465 L 16.6536,-22.4044 L 16.581,-22.3452 L 16.507,-22.2875 L 16.4315,-22.2313 L 16.3546,-22.1765
 L 16.2762,-22.1232 L 16.1965,-22.0713 L 16.1153,-22.0209 L 16.0327,-21.972 L 15.9486,-21.9245 L 15.8631,-21.8785
 L 15.7762,-21.8339 L 15.6879,-21.7908 L 15.5981,-21.7492 L 15.5069,-21.709 L 15.4143,-21.6703 L 15.3203,-21.633
 L 15.2248,-21.5972 L 15.1279,-21.5629 L 15.0296,-21.53 L 14.9298,-21.4986 L 14.8286,-21.4687 L 14.726,-21.4402
 L 14.622,-21.4131 L 14.5165,-21.3876 L 14.4096,-21.3635 L 14.3013,-21.3408 L 14.1916,-21.3197 L 14.0804,-21.2999
 L 13.9678,-21.2817 L 13.8538,-21.2649 L 13.7383,-21.2495 L 13.6214,-21.2356 L 13.5031,-21.2232 L 13.3834,-21.2123
 L 13.2622,-21.2028 L 13.1396,-21.1947 L 13.0156,-21.1882 L 12.8901,-21.1831 L 12.7632,-21.1794 L 12.6349,-21.1772
 L 12.5052,-21.1765 z
M 39.2517,-0.00247192 L 39.6002,-0.00991821 L 39.9451,-0.0223236 L 40.2864,-0.0397034 L 40.6241,-0.0620422 L 40.9581,-0.0893555
 L 41.2885,-0.121628 L 41.6154,-0.158875 L 41.9386,-0.20108 L 42.2581,-0.248245 L 42.5741,-0.300369 L 42.8864,-0.357483
 L 43.1951,-0.419525 L 43.5002,-0.486557 L 43.8017,-0.558563 L 44.0995,-0.635513 L 44.3938,-0.717438 L 44.6844,-0.804337
 L 44.9714,-0.896179 L 45.2548,-0.993011 L 45.5345,-1.09479 L 45.8106,-1.20154 L 46.0832,-1.31325 L 46.3521,-1.42993
 L 46.6173,-1.55157 L 46.879,-1.67819 L 47.137,-1.80975 L 47.3915,-1.9463 L 47.6423,-2.0878 L 47.8895,-2.23428
 L 48.133,-2.38571 L 48.373,-2.54211 L 48.6093,-2.70349 L 48.842,-2.86981 L 49.0711,-3.04111 L 49.2965,-3.21738
 L 49.5184,-3.39861 L 49.7366,-3.58478 L 49.9512,-3.77594 L 50.1622,-3.97206 L 50.3696,-4.17314 L 50.5733,-4.3792
 L 50.7735,-4.59023 L 50.97,-4.8062 L 51.1629,-5.02715 L 51.3521,-5.25305 L 51.5376,-5.48364 L 51.7189,-5.71858
 L 51.8962,-5.95792 L 52.0694,-6.2016 L 52.2386,-6.44965 L 52.4036,-6.70209 L 52.5646,-6.95888 L 52.7215,-7.22005
 L 52.8744,-7.48561 L 53.0231,-7.75551 L 53.1678,-8.0298 L 53.3084,-8.30844 L 53.4449,-8.59146 L 53.5774,-8.87886
 L 53.7058,-9.17062 L 53.8301,-9.46675 L 53.9503,-9.76726 L 54.0665,-10.0721 L 54.1786,-10.3814 L 54.2866,-10.695
 L 54.3905,-11.013 L 54.4903,-11.3353 L 54.5861,-11.662 L 54.6778,-11.9931 L 54.7654,-12.3286 L 54.849,-12.6684
 L 54.9285,-13.0126 L 55.0039,-13.3612 L 55.0752,-13.7142 L 55.1424,-14.0715 L 55.2056,-14.4332 L 55.2647,-14.7992
 L 55.3197,-15.1696 L 55.3707,-15.5444 L 55.4175,-15.9236 L 55.4603,-16.3071 L 55.499,-16.6951 L 55.5337,-17.0873
 L 55.5643,-17.484 L 55.5907,-17.885 L 55.6132,-18.2904 L 55.6315,-18.7001 L 55.6458,-19.1143 L 55.656,-19.5328
 L 55.6621,-19.9556 L 55.6641,-20.3829 L 55.6621,-20.7842 L 55.6562,-21.1817 L 55.6464,-21.5752 L 55.6327,-21.9649
 L 55.615,-22.3507 L 55.5934,-22.7327 L 55.5679,-23.1107 L 55.5384,-23.4849 L 55.5051,-23.8552 L 55.4678,-24.2216
 L 55.4265,-24.5841 L 55.3814,-24.9428 L 55.3323,-25.2975 L 55.2793,-25.6485 L 55.2223,-25.9955 L 55.1615,-26.3386
 L 55.0967,-26.6779 L 55.028,-27.0132 L 54.9553,-27.3447 L 54.8788,-27.6724 L 54.7982,-27.9961 L 54.7138,-28.316
 L 54.6255,-28.6319 L 54.5332,-28.9441 L 54.437,-29.2523 L 54.3369,-29.5566 L 54.2328,-29.8571 L 54.1248,-30.1537
 L 54.0129,-30.4464 L 53.8971,-30.7352 L 53.7773,-31.0201 L 53.6536,-31.3012 L 53.526,-31.5784 L 53.3945,-31.8517
 L 53.259,-32.1211 L 53.1196,-32.3867 L 52.9763,-32.6484 L 52.829,-32.9062 L 52.6778,-33.16 L 52.5227,-33.4101
 L 52.3637,-33.6562 L 52.2007,-33.8985 L 52.0338,-34.1369 L 51.863,-34.3714 L 51.6883,-34.6021 L 51.5096,-34.8288
 L 51.3274,-35.0512 L 51.142,-35.2687 L 50.9535,-35.4813 L 50.7617,-35.689 L 50.5668,-35.8919 L 50.3687,-36.0898
 L 50.1675,-36.2829 L 49.9631,-36.4711 L 49.7554,-36.6544 L 49.5447,-36.8328 L 49.3307,-37.0063 L 49.1136,-37.1749
 L 48.8933,-37.3386 L 48.6699,-37.4975 L 48.4432,-37.6515 L 48.2134,-37.8005 L 47.9804,-37.9447 L 47.7443,-38.084
 L 47.5049,-38.2184 L 47.2624,-38.348 L 47.0168,-38.4726 L 46.7679,-38.5923 L 46.5159,-38.7072 L 46.2607,-38.8172
 L 46.0023,-38.9222 L 45.7408,-39.0224 L 45.476,-39.1178 L 45.2082,-39.2082 L 44.9371,-39.2937 L 44.6629,-39.3744
 L 44.3855,-39.4501 L 44.1049,-39.521 L 43.8211,-39.587 L 43.5342,-39.6481 L 43.2441,-39.7043 L 42.9508,-39.7556
 L 42.6544,-39.802 L 42.3548,-39.8436 L 42.052,-39.8802 L 41.746,-39.912 L 41.4369,-39.9389 L 41.1245,-39.9609
 L 40.8091,-39.978 L 40.4904,-39.9902 L 40.1686,-39.9975 L 39.8436,-40 L 30.2131,-40 L 30.2131,-0
 L 38.8996,-0 z
M 36.7173,-7.00407 L 36.7173,-33.0508 L 40.1793,-33.0508 L 40.5546,-33.0447 L 40.9218,-33.0264 L 41.2807,-32.9959
 L 41.6313,-32.9533 L 41.9736,-32.8985 L 42.3078,-32.8315 L 42.6337,-32.7523 L 42.9513,-32.661 L 43.2607,-32.5575
 L 43.5618,-32.4418 L 43.8547,-32.3139 L 44.1393,-32.1738 L 44.4157,-32.0215 L 44.6838,-31.8571 L 44.9436,-31.6805
 L 45.1953,-31.4917 L 45.4387,-31.2907 L 45.6738,-31.0776 L 45.9007,-30.8522 L 46.1193,-30.6147 L 46.3297,-30.3651
 L 46.5318,-30.1032 L 46.7257,-29.8291 L 46.9113,-29.5429 L 47.0887,-29.2445 L 47.2578,-28.9339 L 47.4187,-28.6111
 L 47.5713,-28.2762 L 47.7157,-27.929 L 47.8518,-27.5697 L 47.9797,-27.1982 L 48.0993,-26.8145 L 48.2107,-26.4187
 L 48.3138,-26.0107 L 48.4087,-25.5904 L 48.4953,-25.1581 L 48.5737,-24.7135 L 48.6438,-24.2567 L 48.7057,-23.7878
 L 48.7593,-23.3067 L 48.8047,-22.8134 L 48.8418,-22.3079 L 48.8707,-21.7902 L 48.8913,-21.2604 L 48.9037,-20.7184
 L 48.9078,-20.1642 L 48.9033,-19.5982 L 48.89,-19.0447 L 48.8678,-18.5036 L 48.8367,-17.975 L 48.7967,-17.4588
 L 48.7478,-16.955 L 48.6901,-16.4637 L 48.6235,-15.9848 L 48.548,-15.5183 L 48.4635,-15.0643 L 48.3703,-14.6228
 L 48.2681,-14.1936 L 48.157,-13.7769 L 48.0371,-13.3727 L 47.9083,-12.9809 L 47.7706,-12.6015 L 47.6239,-12.2345
 L 47.4685,-11.8801 L 47.3041,-11.538 L 47.1309,-11.2084 L 46.9487,-10.8912 L 46.7577,-10.5864 L 46.5578,-10.2941
 L 46.349,-10.0143 L 46.1313,-9.74681 L 45.9048,-9.49182 L 45.6693,-9.24925 L 45.425,-9.01915 L 45.1718,-8.80147
 L 44.9097,-8.59622 L 44.6387,-8.40343 L 44.3589,-8.22307 L 44.0701,-8.05515 L 43.7725,-7.89966 L 43.466,-7.75662
 L 43.1505,-7.62602 L 42.8263,-7.50784 L 42.4931,-7.40211 L 42.151,-7.30882 L 41.8001,-7.22798 L 41.4402,-7.15956
 L 41.0715,-7.10359 L 40.6939,-7.06004 L 40.3075,-7.02896 L 39.9121,-7.0103 L 39.5078,-7.00407 z
M 67.6774,-15.8141 L 78.0845,-15.8141 L 78.0845,-22.7359 L 67.6774,-22.7359 L 67.6774,-33.0508 L 78.8608,-33.0508
 L 78.8608,-40 L 61.2782,-40 L 61.2782,-0 L 67.6774,-0 z
" stroke="white" fill="white" stroke-width="0.5"/>
</svg>
