<?xml version="1.0" standalone="no"?>
<!DOCTYPE svg PUBLIC "-//W3C//DTD SVG 1.1//EN" "http://www.w3.org/Graphics/SVG/1.1/DTD/svg11.dtd">
<svg width="100mm" height="100mm" viewBox="-8 -108 116 116" xmlns="http://www.w3.org/2000/svg" version="1.1">
<title>OpenSCAD Model</title>
<path d="
M 84.2093,-0.00547791 L 84.4184,-0.0164337 L 84.8348,-0.0601959 L 85.0415,-0.0929413 L 85.4511,-0.180008 L 85.6533,-0.234192
 L 86.0515,-0.363571 L 86.247,-0.438599 L 86.6293,-0.608841 L 86.8159,-0.703873 L 87.1787,-0.913391 L 87.3543,-1.02742
 L 87.6929,-1.27341 L 87.8556,-1.40515 L 88.1667,-1.68529 L 88.3147,-1.83331 L 88.5948,-2.14444 L 88.7266,-2.30713
 L 88.9726,-2.64569 L 89.0866,-2.82126 L 89.2961,-3.18414 L 89.3912,-3.37067 L 89.5614,-3.75304 L 89.6364,-3.94849
 L 89.7658,-4.34666 L 89.82,-4.54887 L 89.9071,-4.95848 L 89.9398,-5.16524 L 89.9836,-5.5816 L 89.9945,-5.79066
 L 90,-6 L 90,-94 L 89.9945,-94.2093 L 89.9836,-94.4184 L 89.9398,-94.8348 L 89.9071,-95.0415
 L 89.82,-95.4511 L 89.7658,-95.6533 L 89.6364,-96.0515 L 89.5614,-96.247 L 89.3912,-96.6293 L 89.2961,-96.8159
 L 89.0866,-97.1787 L 88.9726,-97.3543 L 88.7266,-97.6929 L 88.5948,-97.8556 L 88.3147,-98.1667 L 88.1667,-98.3147
 L 87.8556,-98.5948 L 87.6929,-98.7266 L 87.3543,-98.9726 L 87.1787,-99.0866 L 86.8159,-99.2961 L 86.6293,-99.3912
 L 86.247,-99.5614 L 86.0515,-99.6364 L 85.6533,-99.7658 L 85.4511,-99.82 L 85.0415,-99.9071 L 84.8348,-99.9398
 L 84.4184,-99.9836 L 84.2093,-99.9945 L 84,-100 L 36,-100 L 10,-74 L 10,-50
 L 14,-50 L 14,-70 L 34,-70 L 34.2093,-70.0055 L 34.4184,-70.0164 L 34.8348,-70.0602
 L 35.0415,-70.0929 L 35.4511,-70.18 L 35.6533,-70.2342 L 36.0515,-70.3636 L 36.247,-70.4386 L 36.6293,-70.6088
 L 36.8159,-70.7039 L 37.1787,-70.9134 L 37.3543,-71.0274 L 37.6929,-71.2734 L 37.8556,-71.4052 L 38.1667,-71.6853
 L 38.3147,-71.8333 L 38.5948,-72.1444 L 38.7266,-72.3071 L 38.9726,-72.6457 L 39.0866,-72.8213 L 39.2961,-73.1841
 L 39.3912,-73.3707 L 39.5614,-73.753 L 39.6364,-73.9485 L 39.7658,-74.3467 L 39.82,-74.5489 L 39.9071,-74.9585
 L 39.9398,-75.1652 L 39.9836,-75.5816 L 39.9945,-75.7907 L 40,-76 L 40,-96 L 84,-96
 L 84.2091,-95.989 L 84.4158,-95.9563 L 84.618,-95.9021 L 84.8135,-95.8271 L 85,-95.7321 L 85.1756,-95.618
 L 85.3383,-95.4863 L 85.4863,-95.3383 L 85.618,-95.1756 L 85.7321,-95 L 85.8271,-94.8135 L 85.9021,-94.618
 L 85.9563,-94.4158 L 85.989,-94.2091 L 86,-94 L 86,-6 L 85.989,-5.79094 L 85.9563,-5.58418
 L 85.9021,-5.38197 L 85.8271,-5.18652 L 85.7321,-5 L 85.618,-4.82443 L 85.4863,-4.66174 L 85.3383,-4.51372
 L 85.1756,-4.38197 L 85,-4.26794 L 84.8135,-4.17291 L 84.618,-4.09789 L 84.4158,-4.0437 L 84.2091,-4.01096
 L 84,-4 L 80,-4 L 80,-0 L 84,-0 z
M 11.7832,0.484756 L 12.9883,0.342545 L 14.1214,0.105545 L 15.1824,-0.226242 L 16.1713,-0.652847 L 17.0882,-1.17426
 L 17.933,-1.79048 L 18.7058,-2.50151 L 19.3966,-3.29495 L 19.9952,-4.15826 L 20.5018,-5.09142 L 20.9162,-6.09445
 L 21.2386,-7.16734 L 21.4689,-8.31006 L 21.607,-9.52266 L 21.6531,-10.8051 L 21.6285,-11.738 L 21.5548,-12.6339
 L 21.432,-13.4928 L 21.2601,-14.3147 L 21.0391,-15.0995 L 20.7689,-15.8474 L 20.4496,-16.5582 L 20.0812,-17.232
 L 19.6466,-17.8872 L 19.1286,-18.542 L 18.5272,-19.1963 L 17.8425,-19.8503 L 17.0744,-20.5038 L 16.223,-21.1569
 L 15.2881,-21.8096 L 14.27,-22.4619 L 13.5052,-22.9353 L 12.8139,-23.3708 L 12.1958,-23.7686 L 11.6512,-24.1284
 L 11.1798,-24.4505 L 10.7818,-24.7346 L 10.4572,-24.981 L 10.2059,-25.1895 L 9.99861,-25.3799 L 9.80588,-25.5721
 L 9.62767,-25.7659 L 9.46397,-25.9613 L 9.31483,-26.1584 L 9.18022,-26.3572 L 9.06015,-26.5576 L 8.95461,-26.7597
 L 8.86253,-26.967 L 8.78275,-27.1831 L 8.71524,-27.4079 L 8.66,-27.6414 L 8.61703,-27.8837 L 8.58635,-28.1346
 L 8.56793,-28.3943 L 8.5618,-28.6627 L 8.57698,-29.0915 L 8.62254,-29.4994 L 8.69847,-29.8866 L 8.80478,-30.2529
 L 8.94145,-30.5985 L 9.10852,-30.9232 L 9.30594,-31.2272 L 9.53374,-31.5104 L 9.79005,-31.7661 L 10.0728,-31.9877
 L 10.3821,-32.1752 L 10.7179,-32.3286 L 11.0801,-32.448 L 11.4689,-32.5332 L 11.8841,-32.5844 L 12.3258,-32.6014
 L 12.7092,-32.5935 L 13.0942,-32.5698 L 13.4808,-32.5303 L 13.8691,-32.4749 L 14.259,-32.4038 L 14.6505,-32.3168
 L 15.0436,-32.2141 L 15.4383,-32.0955 L 15.847,-31.9571 L 16.2818,-31.7945 L 16.7427,-31.6078 L 17.2299,-31.397
 L 17.7432,-31.1621 L 18.2827,-30.9031 L 18.8483,-30.6199 L 19.4402,-30.3126 L 21.5082,-36.7265 L 20.927,-37.0434
 L 20.352,-37.342 L 19.7831,-37.6223 L 19.2203,-37.8843 L 18.6637,-38.1279 L 18.1132,-38.3534 L 17.5688,-38.5605
 L 17.0306,-38.7492 L 16.4921,-38.9177 L 15.9469,-39.0636 L 15.3948,-39.1871 L 14.8359,-39.2882 L 14.2703,-39.3668
 L 13.6978,-39.4229 L 13.1186,-39.4566 L 12.5325,-39.4678 L 11.3656,-39.4217 L 10.2635,-39.2832 L 9.22639,-39.0524
 L 8.25423,-38.7293 L 7.347,-38.3139 L 6.50471,-37.8062 L 5.72737,-37.2062 L 5.01495,-36.5138 L 4.37759,-35.7408
 L 3.82521,-34.8987 L 3.35779,-33.9876 L 2.97539,-33.0075 L 2.67793,-31.9583 L 2.46548,-30.8401 L 2.33801,-29.6529
 L 2.29552,-28.3966 L 2.30844,-27.7221 L 2.34721,-27.0692 L 2.41183,-26.4379 L 2.50229,-25.8283 L 2.61859,-25.2402
 L 2.76074,-24.6738 L 2.92876,-24.129 L 3.1226,-23.6059 L 3.33817,-23.1015 L 3.57118,-22.613 L 3.82164,-22.1402
 L 4.08951,-21.6832 L 4.37486,-21.2421 L 4.67763,-20.8167 L 4.99783,-20.4071 L 5.33548,-20.0133 L 5.70358,-19.6254
 L 6.11497,-19.2333 L 6.56966,-18.837 L 7.06766,-18.4365 L 7.60895,-18.032 L 8.19353,-17.6232 L 8.8214,-17.2103
 L 9.49257,-16.7932 L 10.2007,-16.3561 L 10.8465,-15.9498 L 11.4299,-15.5742 L 11.951,-15.2295 L 12.4096,-14.9155
 L 12.8059,-14.6323 L 13.1399,-14.3799 L 13.4115,-14.1583 L 13.6447,-13.951 L 13.8633,-13.7416 L 14.0674,-13.5302
 L 14.2569,-13.3166 L 14.4319,-13.101 L 14.5923,-12.8833 L 14.7382,-12.6635 L 14.8696,-12.4417 L 14.9859,-12.2149
 L 15.0868,-11.9802 L 15.1721,-11.7376 L 15.2419,-11.4871 L 15.2962,-11.2287 L 15.335,-10.9624 L 15.3583,-10.6881
 L 15.366,-10.406 L 15.3484,-9.90944 L 15.2956,-9.44449 L 15.2075,-9.01114 L 15.0842,-8.60941 L 14.9257,-8.23927
 L 14.732,-7.90076 L 14.5031,-7.59383 L 14.2389,-7.31853 L 13.9417,-7.07533 L 13.6139,-6.86455 L 13.2553,-6.6862
 L 12.8661,-6.54028 L 12.4462,-6.42679 L 11.9955,-6.34573 L 11.5142,-6.29709 L 11.0022,-6.28087 L 10.5571,-6.2921
 L 10.1006,-6.32579 L 9.63289,-6.38193 L 9.15382,-6.46051 L 8.66345,-6.56157 L 8.16176,-6.68507 L 7.64877,-6.83104
 L 7.12445,-6.99945 L 6.57985,-7.19531 L 6.00583,-7.42361 L 5.4024,-7.68433 L 4.76953,-7.97746 L 4.10725,-8.30302
 L 3.41554,-8.66103 L 2.69443,-9.05145 L 1.94388,-9.47429 L 1.94388,-1.8096 L 2.89203,-1.26074 L 3.87506,-0.78508
 L 4.89299,-0.382584 L 5.94582,-0.0532532 L 7.03352,0.202835 L 8.15611,0.385803 L 9.31361,0.49556 L 10.506,0.53215
 z
M 66.86,0.52446 L 67.5268,0.501373 L 68.1901,0.462891 L 68.8497,0.409012 L 69.5059,0.339767 L 70.1584,0.255096
 L 70.8074,0.15506 L 71.4529,0.0396271 L 72.1019,-0.0948181 L 72.7616,-0.252167 L 73.432,-0.432388 L 74.113,-0.635468
 L 74.8048,-0.861435 L 75.5071,-1.11028 L 76.2202,-1.38199 L 76.9439,-1.67656 L 76.9439,-21.8496 L 64.9487,-21.8496
 L 64.9487,-14.9832 L 70.6776,-14.9832 L 70.6776,-6.86642 L 70.1615,-6.74159 L 69.6473,-6.63341 L 69.1351,-6.54189
 L 68.6248,-6.467 L 68.1165,-6.40874 L 67.6101,-6.36714 L 67.1057,-6.34218 L 66.6032,-6.33386 L 65.6701,-6.38603
 L 64.7942,-6.54259 L 63.9756,-6.80351 L 63.2141,-7.16881 L 62.5098,-7.63846 L 61.8627,-8.21249 L 61.2728,-8.8909
 L 60.7401,-9.67366 L 60.2675,-10.5555 L 59.858,-11.5309 L 59.5115,-12.5999 L 59.2279,-13.7624 L 59.0074,-15.0185
 L 58.8499,-16.3681 L 58.7554,-17.8113 L 58.7239,-19.3481 L 58.763,-20.8264 L 58.8803,-22.2273 L 59.0758,-23.5509
 L 59.3495,-24.7971 L 59.7014,-25.966 L 60.1314,-27.0575 L 60.6397,-28.0716 L 61.2262,-29.0085 L 61.8777,-29.8505
 L 62.5809,-30.5804 L 63.3358,-31.1979 L 64.1423,-31.7032 L 65.0006,-32.0961 L 65.9106,-32.3768 L 66.8722,-32.5453
 L 67.8856,-32.6014 L 68.7758,-32.5681 L 69.6576,-32.4683 L 70.531,-32.302 L 71.396,-32.0691 L 72.2527,-31.7697
 L 73.1009,-31.4038 L 73.9407,-30.9713 L 74.7722,-30.4723 L 76.9024,-37.0727 L 75.8166,-37.634 L 74.7205,-38.1205
 L 73.6141,-38.5322 L 72.4973,-38.869 L 71.3702,-39.131 L 70.2327,-39.3181 L 69.0849,-39.4304 L 67.9268,-39.4678
 L 66.1213,-39.3855 L 64.4169,-39.1385 L 62.8137,-38.7268 L 61.3116,-38.1505 L 59.9106,-37.4094 L 58.6108,-36.5037
 L 57.4121,-35.4334 L 56.3146,-34.1983 L 55.3331,-32.8161 L 54.4824,-31.3041 L 53.7626,-29.6624 L 53.1737,-27.8909
 L 52.7156,-25.9897 L 52.3885,-23.9589 L 52.1922,-21.7982 L 52.1267,-19.5079 L 52.1831,-17.1565 L 52.3523,-14.9461
 L 52.6342,-12.8766 L 53.0289,-10.9482 L 53.5364,-9.16066 L 54.1566,-7.51411 L 54.8897,-6.00853 L 55.7355,-4.64392
 L 56.6882,-3.43077 L 57.7421,-2.37936 L 58.8972,-1.48973 L 60.1534,-0.761841 L 61.5107,-0.195709 L 62.9692,0.208649
 L 64.5289,0.451279 L 66.1896,0.53215 z
M 50.3089,-38.909 L 43.8359,-38.909 L 38.1073,-15.7552 L 37.7935,-14.2823 L 37.514,-12.9241 L 37.2687,-11.6808
 L 37.0577,-10.5522 L 36.881,-9.53835 L 36.7384,-8.6393 L 36.6302,-7.85501 L 36.5562,-7.18549 L 36.5192,-7.47765
 L 36.4702,-7.82178 L 36.4093,-8.21786 L 36.3364,-8.66592 L 36.2515,-9.16594 L 36.1547,-9.71794 L 36.0459,-10.3219
 L 35.9252,-10.9778 L 35.7991,-11.6492 L 35.6739,-12.2994 L 35.5497,-12.9283 L 35.4264,-13.5361 L 35.3042,-14.1227
 L 35.1829,-14.6881 L 35.0625,-15.2322 L 34.9432,-15.7552 L 29.2558,-38.909 L 22.7827,-38.909 L 33.0405,-0
 L 40.0307,-0 z
" stroke="white" fill="white" stroke-width="0.5"/>
</svg>
