<?xml version="1.0" standalone="no"?>
<!DOCTYPE svg PUBLIC "-//W3C//DTD SVG 1.1//EN" "http://www.w3.org/Graphics/SVG/1.1/DTD/svg11.dtd">
<svg width="100mm" height="100mm" viewBox="-8 -108 116 116" xmlns="http://www.w3.org/2000/svg" version="1.1">
<title>OpenSCAD Model</title>
<path d="
M 84.2093,-0.00547791 L 84.4184,-0.0164337 L 84.8348,-0.0601959 L 85.0415,-0.0929413 L 85.4511,-0.180008 L 85.6533,-0.234192
 L 86.0515,-0.363571 L 86.247,-0.438599 L 86.6293,-0.608841 L 86.8159,-0.703873 L 87.1787,-0.913391 L 87.3543,-1.02742
 L 87.6929,-1.27341 L 87.8556,-1.40515 L 88.1667,-1.68529 L 88.3147,-1.83331 L 88.5948,-2.14444 L 88.7266,-2.30713
 L 88.9726,-2.64569 L 89.0866,-2.82126 L 89.2961,-3.18414 L 89.3912,-3.37067 L 89.5614,-3.75304 L 89.6364,-3.94849
 L 89.7658,-4.34666 L 89.82,-4.54887 L 89.9071,-4.95848 L 89.9398,-5.16524 L 89.9836,-5.5816 L 89.9945,-5.79066
 L 90,-6 L 90,-94 L 89.9945,-94.2093 L 89.9836,-94.4184 L 89.9398,-94.8348 L 89.9071,-95.0415
 L 89.82,-95.4511 L 89.7658,-95.6533 L 89.6364,-96.0515 L 89.5614,-96.247 L 89.3912,-96.6293 L 89.2961,-96.8159
 L 89.0866,-97.1787 L 88.9726,-97.3543 L 88.7266,-97.6929 L 88.5948,-97.8556 L 88.3147,-98.1667 L 88.1667,-98.3147
 L 87.8556,-98.5948 L 87.6929,-98.7266 L 87.3543,-98.9726 L 87.1787,-99.0866 L 86.8159,-99.2961 L 86.6293,-99.3912
 L 86.247,-99.5614 L 86.0515,-99.6364 L 85.6533,-99.7658 L 85.4511,-99.82 L 85.0415,-99.9071 L 84.8348,-99.9398
 L 84.4184,-99.9836 L 84.2093,-99.9945 L 84,-100 L 36,-100 L 10,-74 L 10,-50
 L 14,-50 L 14,-70 L 34,-70 L 34.2093,-70.0055 L 34.4184,-70.0164 L 34.8348,-70.0602
 L 35.0415,-70.0929 L 35.4511,-70.18 L 35.6533,-70.2342 L 36.0515,-70.3636 L 36.247,-70.4386 L 36.6293,-70.6088
 L 36.8159,-70.7039 L 37.1787,-70.9134 L 37.3543,-71.0274 L 37.6929,-71.2734 L 37.8556,-71.4052 L 38.1667,-71.6853
 L 38.3147,-71.8333 L 38.5948,-72.1444 L 38.7266,-72.3071 L 38.9726,-72.6457 L 39.0866,-72.8213 L 39.2961,-73.1841
 L 39.3912,-73.3707 L 39.5614,-73.753 L 39.6364,-73.9485 L 39.7658,-74.3467 L 39.82,-74.5489 L 39.9071,-74.9585
 L 39.9398,-75.1652 L 39.9836,-75.5816 L 39.9945,-75.7907 L 40,-76 L 40,-96 L 84,-96
 L 84.2091,-95.989 L 84.4158,-95.9563 L 84.618,-95.9021 L 84.8135,-95.8271 L 85,-95.7321 L 85.1756,-95.618
 L 85.3383,-95.4863 L 85.4863,-95.3383 L 85.618,-95.1756 L 85.7321,-95 L 85.8271,-94.8135 L 85.9021,-94.618
 L 85.9563,-94.4158 L 85.989,-94.2091 L 86,-94 L 86,-6 L 85.989,-5.79094 L 85.9563,-5.58418
 L 85.9021,-5.38197 L 85.8271,-5.18652 L 85.7321,-5 L 85.618,-4.82443 L 85.4863,-4.66174 L 85.3383,-4.51372
 L 85.1756,-4.38197 L 85,-4.26794 L 84.8135,-4.17291 L 84.618,-4.09789 L 84.4158,-4.0437 L 84.2091,-4.01096
 L 84,-4 L 80,-4 L 80,-0 L 84,-0 z
M 17.4249,0.500961 L 18.5476,0.407394 L 19.6427,0.251465 L 20.7103,0.0331573 L 21.7504,-0.247513 L 22.7629,-0.590591
 L 23.748,-0.996033 L 24.7055,-1.46385 L 24.7055,-8.38326 L 23.5785,-7.90292 L 22.4942,-7.48665 L 21.4525,-7.1344
 L 20.4533,-6.84621 L 19.4968,-6.62206 L 18.5828,-6.46193 L 17.7115,-6.36588 L 16.8828,-6.33386 L 15.0788,-6.53719
 L 13.5154,-7.14725 L 12.1925,-8.16397 L 11.1102,-9.58742 L 10.2683,-11.4175 L 9.66699,-13.6544 L 9.30621,-16.2979
 L 9.18596,-19.3481 L 9.21741,-20.8686 L 9.31178,-22.3031 L 9.46907,-23.6514 L 9.6893,-24.9137 L 9.97241,-26.0898
 L 10.3185,-27.1799 L 10.7274,-28.1839 L 11.1993,-29.1019 L 11.7285,-29.9221 L 12.3095,-30.6329 L 12.9423,-31.2344
 L 13.6268,-31.7265 L 14.3632,-32.1093 L 15.1513,-32.3827 L 15.9911,-32.5467 L 16.8828,-32.6014 L 17.3032,-32.5893
 L 17.7256,-32.5531 L 18.15,-32.4928 L 18.5763,-32.4084 L 19.0045,-32.2999 L 19.4348,-32.1672 L 19.867,-32.0104
 L 20.3011,-31.8294 L 20.7361,-31.6324 L 21.1703,-31.427 L 21.6039,-31.2133 L 22.0368,-30.9913 L 22.469,-30.761
 L 22.9007,-30.5224 L 23.3316,-30.2755 L 23.7619,-30.0202 L 25.8591,-36.7265 L 24.7324,-37.369 L 23.6071,-37.9258
 L 22.4831,-38.397 L 21.3604,-38.7825 L 20.239,-39.0823 L 19.119,-39.2965 L 18.0002,-39.425 L 16.8828,-39.4678
 L 15.8045,-39.4298 L 14.7612,-39.3156 L 13.7531,-39.1254 L 12.78,-38.859 L 11.8419,-38.5166 L 10.939,-38.098
 L 10.0711,-37.6034 L 9.23822,-37.0326 L 8.44673,-36.3906 L 7.70274,-35.682 L 7.00626,-34.9068 L 6.35728,-34.0652
 L 5.75581,-33.157 L 5.20183,-32.1822 L 4.69536,-31.141 L 4.23637,-30.0332 L 3.82843,-28.8687 L 3.47488,-27.6572
 L 3.1757,-26.3987 L 2.93094,-25.0932 L 2.74057,-23.7407 L 2.6046,-22.3412 L 2.52299,-20.8946 L 2.4958,-19.4011
 L 2.55118,-17.0627 L 2.71732,-14.8643 L 2.99422,-12.8062 L 3.38187,-10.8881 L 3.88028,-9.11021 L 4.48944,-7.47241
 L 5.20937,-5.97476 L 6.04005,-4.61725 L 6.97527,-3.41034 L 8.0088,-2.36436 L 9.14067,-1.47931 L 10.3708,-0.755173
 L 11.6993,-0.191956 L 13.1262,0.210327 L 14.6513,0.451706 L 16.2747,0.53215 z
M 38.6785,0.484756 L 39.9006,0.342545 L 41.0497,0.105545 L 42.1256,-0.226242 L 43.1285,-0.652847 L 44.0583,-1.17426
 L 44.9151,-1.79048 L 45.6987,-2.50151 L 46.3992,-3.29495 L 47.0063,-4.15826 L 47.52,-5.09142 L 47.9403,-6.09445
 L 48.2672,-7.16734 L 48.5007,-8.31006 L 48.6408,-9.52266 L 48.6875,-10.8051 L 48.6626,-11.738 L 48.5879,-12.6339
 L 48.4633,-13.4928 L 48.289,-14.3147 L 48.0649,-15.0995 L 47.7909,-15.8474 L 47.4671,-16.5582 L 47.0935,-17.232
 L 46.6528,-17.8872 L 46.1275,-18.542 L 45.5176,-19.1963 L 44.8232,-19.8503 L 44.0443,-20.5038 L 43.1809,-21.1569
 L 42.2329,-21.8096 L 41.2004,-22.4619 L 40.4249,-22.9353 L 39.7237,-23.3708 L 39.097,-23.7686 L 38.5446,-24.1284
 L 38.0667,-24.4505 L 37.6631,-24.7346 L 37.3339,-24.981 L 37.079,-25.1895 L 36.8688,-25.3799 L 36.6734,-25.5721
 L 36.4926,-25.7659 L 36.3266,-25.9613 L 36.1754,-26.1584 L 36.0389,-26.3572 L 35.9171,-26.5576 L 35.8101,-26.7597
 L 35.7167,-26.967 L 35.6358,-27.1831 L 35.5673,-27.4079 L 35.5113,-27.6414 L 35.4678,-27.8837 L 35.4366,-28.1346
 L 35.418,-28.3943 L 35.4117,-28.6627 L 35.4271,-29.0915 L 35.4733,-29.4994 L 35.5504,-29.8866 L 35.6581,-30.2529
 L 35.7968,-30.5985 L 35.9662,-30.9232 L 36.1664,-31.2272 L 36.3974,-31.5104 L 36.6573,-31.7661 L 36.9441,-31.9877
 L 37.2577,-32.1752 L 37.5982,-32.3286 L 37.9656,-32.448 L 38.3598,-32.5332 L 38.7808,-32.5844 L 39.2288,-32.6014
 L 39.6176,-32.5935 L 40.008,-32.5698 L 40.4001,-32.5303 L 40.7938,-32.4749 L 41.1892,-32.4038 L 41.5862,-32.3168
 L 41.9849,-32.2141 L 42.3852,-32.0955 L 42.7996,-31.9571 L 43.2405,-31.7945 L 43.708,-31.6078 L 44.202,-31.397
 L 44.7225,-31.1621 L 45.2696,-30.9031 L 45.8433,-30.6199 L 46.4434,-30.3126 L 48.5406,-36.7265 L 47.9512,-37.0434
 L 47.3681,-37.342 L 46.7912,-37.6223 L 46.2204,-37.8843 L 45.656,-38.1279 L 45.0977,-38.3534 L 44.5457,-38.5605
 L 43.9999,-38.7492 L 43.4538,-38.9177 L 42.9009,-39.0636 L 42.341,-39.1871 L 41.7743,-39.2882 L 41.2007,-39.3668
 L 40.6201,-39.4229 L 40.0327,-39.4566 L 39.4384,-39.4678 L 38.255,-39.4217 L 37.1374,-39.2832 L 36.0857,-39.0524
 L 35.0998,-38.7293 L 34.1798,-38.3139 L 33.3257,-37.8062 L 32.5374,-37.2062 L 31.8149,-36.5138 L 31.1686,-35.7408
 L 30.6084,-34.8987 L 30.1344,-33.9876 L 29.7466,-33.0075 L 29.445,-31.9583 L 29.2295,-30.8401 L 29.1002,-29.6529
 L 29.0571,-28.3966 L 29.0703,-27.7221 L 29.1096,-27.0692 L 29.1751,-26.4379 L 29.2668,-25.8283 L 29.3848,-25.2402
 L 29.5289,-24.6738 L 29.6993,-24.129 L 29.8959,-23.6059 L 30.1145,-23.1015 L 30.3508,-22.613 L 30.6048,-22.1402
 L 30.8764,-21.6832 L 31.1658,-21.2421 L 31.4728,-20.8167 L 31.7976,-20.4071 L 32.14,-20.0133 L 32.5132,-19.6254
 L 32.9304,-19.2333 L 33.3915,-18.837 L 33.8965,-18.4365 L 34.4454,-18.032 L 35.0383,-17.6232 L 35.675,-17.2103
 L 36.3556,-16.7932 L 37.0738,-16.3561 L 37.7286,-15.9498 L 38.3203,-15.5742 L 38.8487,-15.2295 L 39.3138,-14.9155
 L 39.7157,-14.6323 L 40.0544,-14.3799 L 40.3298,-14.1583 L 40.5662,-13.951 L 40.788,-13.7416 L 40.9949,-13.5302
 L 41.1871,-13.3166 L 41.3646,-13.101 L 41.5273,-12.8833 L 41.6752,-12.6635 L 41.8084,-12.4417 L 41.9264,-12.2149
 L 42.0287,-11.9802 L 42.1152,-11.7376 L 42.186,-11.4871 L 42.2411,-11.2287 L 42.2804,-10.9624 L 42.304,-10.6881
 L 42.3119,-10.406 L 42.294,-9.90944 L 42.2404,-9.44449 L 42.1511,-9.01114 L 42.0261,-8.60941 L 41.8654,-8.23927
 L 41.6689,-7.90076 L 41.4367,-7.59383 L 41.1688,-7.31853 L 40.8675,-7.07533 L 40.535,-6.86455 L 40.1714,-6.6862
 L 39.7767,-6.54028 L 39.3509,-6.42679 L 38.8939,-6.34573 L 38.4058,-6.29709 L 37.8865,-6.28087 L 37.4351,-6.2921
 L 36.9723,-6.32579 L 36.4979,-6.38193 L 36.0121,-6.46051 L 35.5148,-6.56157 L 35.0061,-6.68507 L 34.4859,-6.83104
 L 33.9541,-6.99945 L 33.4019,-7.19531 L 32.8198,-7.42361 L 32.2078,-7.68433 L 31.566,-7.97746 L 30.8944,-8.30302
 L 30.193,-8.66103 L 29.4617,-9.05145 L 28.7006,-9.47429 L 28.7006,-1.8096 L 29.6621,-1.26074 L 30.659,-0.78508
 L 31.6912,-0.382584 L 32.7589,-0.0532532 L 33.8619,0.202835 L 35.0004,0.385803 L 36.1741,0.49556 L 37.3833,0.53215
 z
M 67.2698,0.52446 L 67.946,0.501373 L 68.6186,0.462891 L 69.2876,0.409012 L 69.953,0.339767 L 70.6147,0.255096
 L 71.2729,0.15506 L 71.9274,0.0396271 L 72.5856,-0.0948181 L 73.2546,-0.252167 L 73.9344,-0.432388 L 74.6251,-0.635468
 L 75.3265,-0.861435 L 76.0388,-1.11028 L 76.7619,-1.38199 L 77.4958,-1.67656 L 77.4958,-21.8496 L 65.3316,-21.8496
 L 65.3316,-14.9832 L 71.1412,-14.9832 L 71.1412,-6.86642 L 70.6178,-6.74159 L 70.0964,-6.63341 L 69.577,-6.54189
 L 69.0595,-6.467 L 68.544,-6.40874 L 68.0305,-6.36714 L 67.519,-6.34218 L 67.0094,-6.33386 L 66.0632,-6.38603
 L 65.1749,-6.54259 L 64.3447,-6.80351 L 63.5725,-7.16881 L 62.8583,-7.63846 L 62.2021,-8.21249 L 61.6039,-8.8909
 L 61.0636,-9.67366 L 60.5844,-10.5555 L 60.1691,-11.5309 L 59.8177,-12.5999 L 59.5302,-13.7624 L 59.3065,-15.0185
 L 59.1468,-16.3681 L 59.051,-17.8113 L 59.019,-19.3481 L 59.0587,-20.8264 L 59.1776,-22.2273 L 59.3759,-23.5509
 L 59.6534,-24.7971 L 60.0103,-25.966 L 60.4464,-27.0575 L 60.9619,-28.0716 L 61.5566,-29.0085 L 62.2173,-29.8505
 L 62.9304,-30.5804 L 63.6959,-31.1979 L 64.5139,-31.7032 L 65.3842,-32.0961 L 66.307,-32.3768 L 67.2822,-32.5453
 L 68.3098,-32.6014 L 69.2126,-32.5681 L 70.1068,-32.4683 L 70.9926,-32.302 L 71.8698,-32.0691 L 72.7385,-31.7697
 L 73.5987,-31.4038 L 74.4503,-30.9713 L 75.2935,-30.4723 L 77.4538,-37.0727 L 76.3527,-37.634 L 75.2411,-38.1205
 L 74.1191,-38.5322 L 72.9866,-38.869 L 71.8436,-39.131 L 70.69,-39.3181 L 69.5261,-39.4304 L 68.3516,-39.4678
 L 66.5207,-39.3855 L 64.7923,-39.1385 L 63.1665,-38.7268 L 61.6432,-38.1505 L 60.2225,-37.4094 L 58.9044,-36.5037
 L 57.6888,-35.4334 L 56.5758,-34.1983 L 55.5804,-32.8161 L 54.7178,-31.3041 L 53.9878,-29.6624 L 53.3906,-27.8909
 L 52.9261,-25.9897 L 52.5943,-23.9589 L 52.3952,-21.7982 L 52.3289,-19.5079 L 52.3861,-17.1565 L 52.5576,-14.9461
 L 52.8435,-12.8766 L 53.2438,-10.9482 L 53.7584,-9.16066 L 54.3874,-7.51411 L 55.1308,-6.00853 L 55.9885,-4.64392
 L 56.9547,-3.43077 L 58.0234,-2.37936 L 59.1948,-1.48973 L 60.4687,-0.761841 L 61.8451,-0.195709 L 63.3242,0.208649
 L 64.9058,0.451279 L 66.59,0.53215 z
" stroke="white" fill="white" stroke-width="0.5"/>
</svg>
