<?xml version="1.0" standalone="no"?>
<!DOCTYPE svg PUBLIC "-//W3C//DTD SVG 1.1//EN" "http://www.w3.org/Graphics/SVG/1.1/DTD/svg11.dtd">
<svg width="100mm" height="100mm" viewBox="-8 -108 116 116" xmlns="http://www.w3.org/2000/svg" version="1.1">
<title>OpenSCAD Model</title>
<path d="
M 84.1994,-0.00497232 L 84.3985,-0.0149108 L 84.5974,-0.0298153 L 84.7953,-0.0546151 L 84.9925,-0.0843317 L 85.1889,-0.118965
 L 85.3833,-0.163346 L 85.5765,-0.212545 L 85.7685,-0.266563 L 85.9576,-0.330084 L 86.145,-0.398277 L 86.3306,-0.471143
 L 86.5124,-0.553172 L 86.692,-0.639681 L 86.8695,-0.730671 L 87.0422,-0.830393 L 87.2124,-0.934359 L 87.3799,-1.04257
 L 87.5419,-1.15899 L 87.7008,-1.27938 L 87.8567,-1.40373 L 88.0063,-1.5357 L 88.1524,-1.67132 L 88.2952,-1.81058
 L 88.4309,-1.95678 L 88.5628,-2.10628 L 88.691,-2.25906 L 88.8114,-2.41805 L 88.9278,-2.57993 L 89.0402,-2.74472
 L 89.1442,-2.91491 L 89.2438,-3.08758 L 89.3392,-3.26274 L 89.4258,-3.44243 L 89.5078,-3.62417 L 89.5852,-3.80795
 L 89.6535,-3.99537 L 89.717,-4.18437 L 89.7757,-4.37496 L 89.825,-4.56824 L 89.8693,-4.76262 L 89.9088,-4.95811
 L 89.9386,-5.15533 L 89.9634,-5.35316 L 89.9832,-5.55162 L 89.9916,-5.70098 L 89.9972,-5.85044 L 90,-6
 L 90,-94 L 89.995,-94.1994 L 89.9851,-94.3985 L 89.9702,-94.5974 L 89.9454,-94.7953 L 89.9157,-94.9925
 L 89.881,-95.1889 L 89.8367,-95.3833 L 89.7875,-95.5765 L 89.7334,-95.7685 L 89.6699,-95.9576 L 89.6017,-96.145
 L 89.5289,-96.3306 L 89.4468,-96.5124 L 89.3603,-96.692 L 89.2693,-96.8695 L 89.1696,-97.0422 L 89.0656,-97.2124
 L 88.9574,-97.3799 L 88.841,-97.5419 L 88.7206,-97.7008 L 88.5963,-97.8567 L 88.4643,-98.0063 L 88.3287,-98.1524
 L 88.1894,-98.2952 L 88.0432,-98.4309 L 87.8937,-98.5628 L 87.7409,-98.691 L 87.582,-98.8114 L 87.4201,-98.9278
 L 87.2553,-99.0402 L 87.0851,-99.1442 L 86.9124,-99.2438 L 86.7373,-99.3392 L 86.5576,-99.4258 L 86.3758,-99.5078
 L 86.192,-99.5852 L 86.0046,-99.6535 L 85.8156,-99.717 L 85.625,-99.7757 L 85.4318,-99.825 L 85.2374,-99.8693
 L 85.0419,-99.9088 L 84.8447,-99.9386 L 84.6468,-99.9634 L 84.4484,-99.9832 L 84.299,-99.9916 L 84.1496,-99.9972
 L 84,-100 L 36,-100 L 10,-74 L 10,-50 L 14,-50 L 14,-70
 L 34,-70 L 34.1994,-70.005 L 34.3985,-70.0149 L 34.5974,-70.0298 L 34.7953,-70.0546 L 34.9925,-70.0843
 L 35.1889,-70.119 L 35.3833,-70.1633 L 35.5765,-70.2125 L 35.7685,-70.2666 L 35.9576,-70.3301 L 36.145,-70.3983
 L 36.3306,-70.4711 L 36.5124,-70.5532 L 36.692,-70.6397 L 36.8695,-70.7307 L 37.0422,-70.8304 L 37.2124,-70.9344
 L 37.3799,-71.0426 L 37.5419,-71.159 L 37.7008,-71.2794 L 37.8567,-71.4037 L 38.0063,-71.5357 L 38.1524,-71.6713
 L 38.2952,-71.8106 L 38.4309,-71.9568 L 38.5628,-72.1063 L 38.691,-72.2591 L 38.8114,-72.418 L 38.9278,-72.5799
 L 39.0402,-72.7447 L 39.1442,-72.9149 L 39.2438,-73.0876 L 39.3392,-73.2627 L 39.4258,-73.4424 L 39.5078,-73.6242
 L 39.5852,-73.808 L 39.6535,-73.9954 L 39.717,-74.1844 L 39.7757,-74.375 L 39.825,-74.5682 L 39.8693,-74.7626
 L 39.9088,-74.9581 L 39.9386,-75.1553 L 39.9634,-75.3532 L 39.9832,-75.5516 L 39.9916,-75.701 L 39.9972,-75.8504
 L 40,-76 L 40,-96 L 84,-96 L 84.1495,-95.9944 L 84.3473,-95.9696 L 84.5417,-95.9252
 L 84.7307,-95.8617 L 84.9124,-95.7797 L 85.0851,-95.6801 L 85.247,-95.5637 L 85.3965,-95.4317 L 85.5321,-95.2856
 L 85.6525,-95.1266 L 85.7564,-94.9565 L 85.843,-94.7769 L 85.9111,-94.5895 L 85.9603,-94.3963 L 85.9901,-94.1991
 L 86,-94 L 86,-6 L 85.9944,-5.85054 L 85.9696,-5.6527 L 85.9252,-5.45832 L 85.8617,-5.26932
 L 85.7797,-5.08758 L 85.6801,-4.91491 L 85.5637,-4.75302 L 85.4317,-4.60353 L 85.2856,-4.46791 L 85.1266,-4.34752
 L 84.9565,-4.24356 L 84.7769,-4.15705 L 84.5895,-4.08885 L 84.3963,-4.03966 L 84.1991,-4.00994 L 84,-4
 L 80,-4 L 80,-0 L 84,-0 z
M 15.0926,0.550469 L 15.2678,0.547008 L 15.442,0.54124 L 15.6153,0.533164 L 15.7877,0.522781 L 15.9591,0.51009
 L 16.1295,0.495092 L 16.2989,0.477787 L 16.4674,0.458174 L 16.635,0.436254 L 16.8015,0.412026 L 16.9671,0.385491
 L 17.1318,0.356649 L 17.2955,0.325499 L 17.4582,0.292042 L 17.62,0.256277 L 17.7808,0.218205 L 17.9407,0.177826
 L 18.0996,0.135139 L 18.2575,0.0901454 L 18.4145,0.042844 L 18.5705,-0.00676491 L 18.7255,-0.0586811 L 18.8796,-0.112905
 L 19.0327,-0.169436 L 19.1849,-0.228274 L 19.3361,-0.28942 L 19.4864,-0.352873 L 19.6357,-0.418634 L 19.784,-0.486702
 L 19.9313,-0.557077 L 20.0778,-0.62976 L 20.2232,-0.70475 L 20.3677,-0.782047 L 20.5112,-0.861652 L 20.6538,-0.943565
 L 20.7954,-1.02778 L 20.936,-1.11431 L 21.0757,-1.20315 L 21.2144,-1.29429 L 21.3522,-1.38774 L 21.489,-1.48349
 L 21.6248,-1.58156 L 21.7597,-1.68193 L 21.8937,-1.78461 L 22.0266,-1.88959 L 22.1584,-1.99677 L 22.2889,-2.106
 L 22.4181,-2.21728 L 22.5459,-2.33059 L 22.6724,-2.44596 L 22.7976,-2.56337 L 22.9214,-2.68283 L 23.0439,-2.80434
 L 23.165,-2.92789 L 23.2849,-3.05349 L 23.4034,-3.18113 L 23.5205,-3.31082 L 23.6363,-3.44256 L 23.7508,-3.57634
 L 23.864,-3.71217 L 23.9758,-3.85004 L 24.0863,-3.98996 L 24.1954,-4.13193 L 24.3033,-4.27595 L 24.4097,-4.42201
 L 24.5149,-4.57011 L 24.6187,-4.72027 L 24.7212,-4.87247 L 24.8224,-5.02671 L 24.9222,-5.18301 L 25.0207,-5.34134
 L 25.1178,-5.50173 L 25.2136,-5.66416 L 25.3081,-5.82864 L 25.4013,-5.99516 L 25.4931,-6.16373 L 25.5836,-6.33435
 L 25.6727,-6.50701 L 25.7605,-6.68172 L 25.847,-6.85848 L 25.9321,-7.03728 L 26.016,-7.21812 L 26.0984,-7.40102
 L 26.1796,-7.58596 L 26.2594,-7.77295 L 26.3379,-7.96198 L 26.415,-8.15306 L 26.4908,-8.34619 L 26.5653,-8.54136
 L 26.6385,-8.73858 L 26.7103,-8.93784 L 26.7806,-9.13884 L 26.8495,-9.34122 L 26.9168,-9.54498 L 26.9825,-9.75012
 L 27.0467,-9.95664 L 27.1094,-10.1645 L 27.1705,-10.3738 L 27.23,-10.5845 L 27.288,-10.7966 L 27.3445,-11.01
 L 27.3994,-11.2248 L 27.4528,-11.441 L 27.5046,-11.6586 L 27.5548,-11.8775 L 27.6036,-12.0979 L 27.6508,-12.3196
 L 27.6964,-12.5427 L 27.7405,-12.7672 L 27.783,-12.9931 L 27.824,-13.2203 L 27.8634,-13.449 L 27.9013,-13.679
 L 27.9377,-13.9104 L 27.9725,-14.1432 L 28.0058,-14.3773 L 28.0375,-14.6129 L 28.0676,-14.8498 L 28.0962,-15.0881
 L 28.1233,-15.3278 L 28.1488,-15.5689 L 28.1728,-15.8113 L 28.1952,-16.0552 L 28.2161,-16.3004 L 28.2355,-16.547
 L 28.2533,-16.7949 L 28.2695,-17.0443 L 28.2842,-17.2951 L 28.2973,-17.5472 L 28.3089,-17.8007 L 28.319,-18.0556
 L 28.3275,-18.3119 L 28.3345,-18.5695 L 28.3399,-18.8285 L 28.3437,-19.089 L 28.3461,-19.3508 L 28.3468,-19.6139
 L 28.3452,-20.0139 L 28.3401,-20.4101 L 28.3318,-20.8026 L 28.32,-21.1913 L 28.3049,-21.5763 L 28.2865,-21.9576
 L 28.2647,-22.3352 L 28.2396,-22.709 L 28.2111,-23.0791 L 28.1793,-23.4455 L 28.1441,-23.8081 L 28.1055,-24.167
 L 28.0636,-24.5222 L 28.0184,-24.8737 L 27.9698,-25.2214 L 27.9179,-25.5654 L 27.8626,-25.9057 L 27.8039,-26.2423
 L 27.7419,-26.5751 L 27.6766,-26.9042 L 27.6078,-27.2295 L 27.5358,-27.5512 L 27.4604,-27.8691 L 27.3816,-28.1832
 L 27.2995,-28.4937 L 27.2141,-28.8004 L 27.1252,-29.1034 L 27.0331,-29.4027 L 26.9376,-29.6982 L 26.8387,-29.99
 L 26.7365,-30.2781 L 26.6309,-30.5624 L 26.522,-30.8431 L 26.4097,-31.1199 L 26.2941,-31.3931 L 26.1751,-31.6625
 L 26.0528,-31.9282 L 25.9271,-32.1902 L 25.7981,-32.4485 L 25.6657,-32.703 L 25.53,-32.9538 L 25.3909,-33.2008
 L 25.2484,-33.4442 L 25.1027,-33.6838 L 24.9535,-33.9197 L 24.801,-34.1518 L 24.6456,-34.3796 L 24.4875,-34.6024
 L 24.3268,-34.8201 L 24.1636,-35.0329 L 23.9977,-35.2407 L 23.8292,-35.4434 L 23.6581,-35.6412 L 23.4844,-35.8339
 L 23.3081,-36.0216 L 23.1292,-36.2044 L 22.9477,-36.3821 L 22.7636,-36.5548 L 22.5769,-36.7225 L 22.3876,-36.8852
 L 22.1957,-37.0429 L 22.0012,-37.1956 L 21.804,-37.3433 L 21.6043,-37.4859 L 21.4019,-37.6236 L 21.197,-37.7563
 L 20.9894,-37.8839 L 20.7793,-38.0066 L 20.5665,-38.1242 L 20.3512,-38.2369 L 20.1332,-38.3445 L 19.9126,-38.4471
 L 19.6894,-38.5448 L 19.4637,-38.6374 L 19.2353,-38.725 L 19.0043,-38.8076 L 18.7707,-38.8852 L 18.5345,-38.9578
 L 18.2957,-39.0254 L 18.0542,-39.0879 L 17.8102,-39.1455 L 17.5636,-39.1981 L 17.3144,-39.2456 L 17.0625,-39.2882
 L 16.8081,-39.3257 L 16.5511,-39.3583 L 16.2914,-39.3858 L 16.0292,-39.4083 L 15.7643,-39.4258 L 15.4969,-39.4384
 L 15.2268,-39.4459 L 14.9541,-39.4484 L 14.6815,-39.4459 L 14.4114,-39.4385 L 14.144,-39.4261 L 13.8791,-39.4087
 L 13.6169,-39.3864 L 13.3573,-39.3592 L 13.1003,-39.327 L 12.846,-39.2898 L 12.5942,-39.2477 L 12.3451,-39.2007
 L 12.0985,-39.1486 L 11.8546,-39.0917 L 11.6133,-39.0297 L 11.3746,-38.9629 L 11.1385,-38.891 L 10.9051,-38.8142
 L 10.6742,-38.7325 L 10.446,-38.6458 L 10.2204,-38.5541 L 9.99735,-38.4575 L 9.77696,-38.356 L 9.55917,-38.2494
 L 9.344,-38.138 L 9.13144,-38.0215 L 8.9215,-37.9002 L 8.71417,-37.7738 L 8.50945,-37.6425 L 8.30735,-37.5063
 L 8.10786,-37.3651 L 7.91098,-37.2189 L 7.71672,-37.0678 L 7.52507,-36.9118 L 7.33603,-36.7508 L 7.14961,-36.5848
 L 6.9658,-36.4139 L 6.7846,-36.238 L 6.60602,-36.0572 L 6.43005,-35.8714 L 6.25669,-35.6806 L 6.08595,-35.4849
 L 5.91782,-35.2843 L 5.7523,-35.0787 L 5.5894,-34.8681 L 5.42911,-34.6526 L 5.27143,-34.4322 L 5.11637,-34.2067
 L 4.96429,-33.9769 L 4.81555,-33.7432 L 4.67015,-33.5056 L 4.52809,-33.2641 L 4.38937,-33.0188 L 4.254,-32.7695
 L 4.12197,-32.5164 L 3.99329,-32.2594 L 3.86794,-31.9985 L 3.74594,-31.7337 L 3.62728,-31.465 L 3.51196,-31.1925
 L 3.39999,-30.916 L 3.29136,-30.6357 L 3.18607,-30.3515 L 3.08412,-30.0634 L 2.98552,-29.7714 L 2.89025,-29.4755
 L 2.79834,-29.1758 L 2.70976,-28.8721 L 2.62452,-28.5646 L 2.54263,-28.2532 L 2.46408,-27.9379 L 2.38888,-27.6187
 L 2.31701,-27.2957 L 2.24849,-26.9687 L 2.18331,-26.6379 L 2.12147,-26.3032 L 2.06298,-25.9646 L 2.00783,-25.6221
 L 1.95602,-25.2757 L 1.90755,-24.9255 L 1.86243,-24.5713 L 1.82065,-24.2133 L 1.78221,-23.8514 L 1.74711,-23.4856
 L 1.71536,-23.1159 L 1.68695,-22.7423 L 1.66188,-22.3649 L 1.64015,-21.9836 L 1.62177,-21.5983 L 1.60673,-21.2092
 L 1.59503,-20.8162 L 1.58667,-20.4194 L 1.58166,-20.0186 L 1.57999,-19.6139 L 1.58166,-19.208 L 1.58669,-18.8059
 L 1.59507,-18.4075 L 1.6068,-18.0129 L 1.62188,-17.622 L 1.64031,-17.2349 L 1.6621,-16.8516 L 1.68723,-16.472
 L 1.71572,-16.0963 L 1.74756,-15.7243 L 1.78275,-15.356 L 1.82129,-14.9915 L 1.86318,-14.6308 L 1.90843,-14.2739
 L 1.95702,-13.9207 L 2.00897,-13.5713 L 2.06427,-13.2257 L 2.12292,-12.8838 L 2.18492,-12.5457 L 2.25027,-12.2114
 L 2.31898,-11.8808 L 2.39103,-11.554 L 2.46644,-11.231 L 2.5452,-10.9117 L 2.62731,-10.5962 L 2.71277,-10.2845
 L 2.80158,-9.97655 L 2.89375,-9.67237 L 2.98926,-9.37195 L 3.08813,-9.0753 L 3.19035,-8.78241 L 3.29592,-8.4933
 L 3.40484,-8.20795 L 3.51712,-7.92637 L 3.63274,-7.64856 L 3.75172,-7.37452 L 3.87404,-7.10425 L 3.99972,-6.83774
 L 4.12875,-6.575 L 4.26113,-6.31604 L 4.39687,-6.06083 L 4.53595,-5.8094 L 4.67839,-5.56173 L 4.82417,-5.31784
 L 4.97331,-5.07771 L 5.1258,-4.84135 L 5.28124,-4.60942 L 5.43924,-4.38259 L 5.59978,-4.16085 L 5.76288,-3.94422
 L 5.92852,-3.73268 L 6.09672,-3.52624 L 6.26746,-3.32489 L 6.44076,-3.12865 L 6.61661,-2.9375 L 6.79501,-2.75144
 L 6.97596,-2.57049 L 7.15947,-2.39463 L 7.34552,-2.22387 L 7.53412,-2.05821 L 7.72528,-1.89764 L 7.91899,-1.74217
 L 8.11524,-1.5918 L 8.31405,-1.44653 L 8.51541,-1.30635 L 8.71932,-1.17127 L 8.92578,-1.04129 L 9.1348,-0.916407
 L 9.34636,-0.796619 L 9.56047,-0.68193 L 9.77714,-0.572337 L 9.99636,-0.467842 L 10.2181,-0.368444 L 10.4424,-0.274144
 L 10.6693,-0.18494 L 10.8987,-0.100835 L 11.1307,-0.021826 L 11.3652,0.0520852 L 11.6023,0.120899 L 11.8419,0.184616
 L 12.0841,0.243235 L 12.3288,0.296757 L 12.5761,0.345181 L 12.8259,0.388509 L 13.0783,0.426739 L 13.3332,0.459871
 L 13.5907,0.487907 L 13.8508,0.510845 L 14.1133,0.528685 L 14.3785,0.541428 L 14.6462,0.549074 L 14.9164,0.551623
 z
M 14.7609,-5.84992 L 14.6069,-5.85514 L 14.4542,-5.86385 L 14.303,-5.87603 L 14.1533,-5.89169 L 14.0049,-5.91084
 L 13.858,-5.93346 L 13.7126,-5.95957 L 13.5685,-5.98916 L 13.4259,-6.02223 L 13.2847,-6.05878 L 13.145,-6.09881
 L 13.0067,-6.14232 L 12.8698,-6.18931 L 12.7343,-6.23978 L 12.6003,-6.29373 L 12.4677,-6.35117 L 12.3366,-6.41208
 L 12.2069,-6.47648 L 12.0786,-6.54436 L 11.9517,-6.61572 L 11.8263,-6.69056 L 11.7023,-6.76888 L 11.5797,-6.85068
 L 11.4586,-6.93596 L 11.3388,-7.02472 L 11.2206,-7.11696 L 11.1037,-7.21269 L 10.9883,-7.31189 L 10.8743,-7.41458
 L 10.7618,-7.52075 L 10.6507,-7.63039 L 10.541,-7.74352 L 10.4327,-7.86013 L 10.3259,-7.98022 L 10.2205,-8.10379
 L 10.1165,-8.23085 L 10.014,-8.36138 L 9.91289,-8.49539 L 9.81322,-8.63289 L 9.71498,-8.77387 L 9.61817,-8.91832
 L 9.5228,-9.06626 L 9.42885,-9.21768 L 9.33634,-9.37258 L 9.24525,-9.53096 L 9.15587,-9.69236 L 9.06845,-9.85634
 L 8.98299,-10.0229 L 8.8995,-10.192 L 8.81797,-10.3637 L 8.73841,-10.5379 L 8.66081,-10.7147 L 8.58518,-10.8941
 L 8.51151,-11.0761 L 8.43981,-11.2606 L 8.37007,-11.4477 L 8.30229,-11.6373 L 8.23648,-11.8296 L 8.17263,-12.0244
 L 8.11075,-12.2217 L 8.05083,-12.4217 L 7.99288,-12.6242 L 7.93689,-12.8292 L 7.88287,-13.0369 L 7.83081,-13.2471
 L 7.78071,-13.4598 L 7.73258,-13.6752 L 7.68642,-13.8931 L 7.64222,-14.1136 L 7.59998,-14.3366 L 7.55971,-14.5622
 L 7.5214,-14.7904 L 7.48505,-15.0212 L 7.45068,-15.2545 L 7.41826,-15.4904 L 7.38781,-15.7288 L 7.35933,-15.9699
 L 7.33281,-16.2135 L 7.30825,-16.4596 L 7.28566,-16.7084 L 7.26503,-16.9597 L 7.24637,-17.2135 L 7.22967,-17.47
 L 7.21494,-17.729 L 7.20217,-17.9906 L 7.19136,-18.2547 L 7.18252,-18.5214 L 7.17565,-18.7907 L 7.17073,-19.0625
 L 7.16779,-19.337 L 7.1668,-19.6139 L 7.16776,-19.8885 L 7.17064,-20.1604 L 7.17544,-20.4296 L 7.18216,-20.6962
 L 7.1908,-20.9602 L 7.20136,-21.2215 L 7.21384,-21.4801 L 7.22824,-21.7362 L 7.24456,-21.9895 L 7.2628,-22.2402
 L 7.28296,-22.4883 L 7.30504,-22.7337 L 7.32904,-22.9765 L 7.35496,-23.2167 L 7.3828,-23.4541 L 7.41256,-23.689
 L 7.44424,-23.9212 L 7.47783,-24.1507 L 7.51335,-24.3776 L 7.55079,-24.6019 L 7.59015,-24.8235 L 7.63143,-25.0424
 L 7.67463,-25.2587 L 7.71975,-25.4724 L 7.76678,-25.6834 L 7.81574,-25.8918 L 7.86662,-26.0975 L 7.91942,-26.3006
 L 7.97414,-26.501 L 8.03078,-26.6988 L 8.08933,-26.8939 L 8.14981,-27.0864 L 8.21221,-27.2762 L 8.27653,-27.4634
 L 8.34277,-27.648 L 8.41092,-27.8299 L 8.481,-28.0091 L 8.553,-28.1857 L 8.62692,-28.3597 L 8.70275,-28.531
 L 8.78051,-28.6997 L 8.86019,-28.8657 L 8.94179,-29.0291 L 9.0253,-29.1898 L 9.11074,-29.3479 L 9.1981,-29.5033
 L 9.28723,-29.6557 L 9.37796,-29.8048 L 9.47029,-29.9506 L 9.56421,-30.093 L 9.65974,-30.232 L 9.75687,-30.3677
 L 9.8556,-30.5001 L 9.95593,-30.6291 L 10.0579,-30.7547 L 10.1614,-30.877 L 10.2665,-30.996 L 10.3733,-31.1116
 L 10.4816,-31.2238 L 10.5915,-31.3327 L 10.703,-31.4382 L 10.8162,-31.5404 L 10.9309,-31.6393 L 11.0472,-31.7348
 L 11.1652,-31.8269 L 11.2847,-31.9157 L 11.4058,-32.0011 L 11.5286,-32.0832 L 11.6529,-32.1619 L 11.7788,-32.2373
 L 11.9064,-32.3094 L 12.0355,-32.3781 L 12.1662,-32.4434 L 12.2985,-32.5054 L 12.4325,-32.564 L 12.568,-32.6193
 L 12.7051,-32.6712 L 12.8439,-32.7198 L 12.9842,-32.765 L 13.1261,-32.8069 L 13.2697,-32.8455 L 13.4148,-32.8806
 L 13.5615,-32.9125 L 13.7099,-32.9409 L 13.8598,-32.9661 L 14.0113,-32.9879 L 14.1645,-33.0063 L 14.3192,-33.0214
 L 14.4755,-33.0331 L 14.6335,-33.0415 L 14.793,-33.0465 L 14.9541,-33.0482 L 15.1128,-33.0465 L 15.27,-33.0414
 L 15.4256,-33.033 L 15.5796,-33.0212 L 15.7322,-33.006 L 15.8831,-32.9874 L 16.0325,-32.9654 L 16.1804,-32.9401
 L 16.3267,-32.9114 L 16.4715,-32.8793 L 16.6147,-32.8439 L 16.7564,-32.805 L 16.8966,-32.7628 L 17.0352,-32.7173
 L 17.1722,-32.6683 L 17.3077,-32.6159 L 17.4417,-32.5602 L 17.5741,-32.5011 L 17.7049,-32.4387 L 17.8343,-32.3728
 L 17.962,-32.3036 L 18.0882,-32.231 L 18.2129,-32.155 L 18.336,-32.0757 L 18.4576,-31.993 L 18.5777,-31.9068
 L 18.6961,-31.8174 L 18.8131,-31.7245 L 18.9285,-31.6283 L 19.0423,-31.5287 L 19.1546,-31.4257 L 19.2654,-31.3193
 L 19.3746,-31.2096 L 19.4823,-31.0964 L 19.5884,-30.9799 L 19.6929,-30.8601 L 19.796,-30.7368 L 19.8974,-30.6102
 L 19.9974,-30.4802 L 20.0957,-30.3468 L 20.1926,-30.2101 L 20.2879,-30.0699 L 20.3816,-29.9264 L 20.4738,-29.7795
 L 20.5645,-29.6293 L 20.6536,-29.4756 L 20.7409,-29.319 L 20.8264,-29.1599 L 20.9099,-28.9981 L 20.9915,-28.8338
 L 21.0712,-28.667 L 21.149,-28.4975 L 21.2248,-28.3255 L 21.2987,-28.151 L 21.3708,-27.9738 L 21.4408,-27.7941
 L 21.509,-27.6118 L 21.5753,-27.427 L 21.6396,-27.2396 L 21.702,-27.0496 L 21.7625,-26.857 L 21.821,-26.6619
 L 21.8777,-26.4642 L 21.9324,-26.264 L 21.9852,-26.0611 L 22.0361,-25.8557 L 22.0851,-25.6478 L 22.1321,-25.4372
 L 22.1772,-25.2241 L 22.2204,-25.0085 L 22.2617,-24.7902 L 22.3011,-24.5694 L 22.3385,-24.3461 L 22.3741,-24.1201
 L 22.4077,-23.8916 L 22.4393,-23.6605 L 22.4691,-23.4269 L 22.4969,-23.1907 L 22.5229,-22.9519 L 22.5469,-22.7105
 L 22.569,-22.4666 L 22.5891,-22.2201 L 22.6074,-21.9711 L 22.6237,-21.7194 L 22.6381,-21.4652 L 22.6506,-21.2085
 L 22.6611,-20.9491 L 22.6698,-20.6872 L 22.6765,-20.4228 L 22.6813,-20.1557 L 22.6842,-19.8861 L 22.6851,-19.6139
 L 22.6842,-19.3287 L 22.6813,-19.0463 L 22.6765,-18.7668 L 22.6698,-18.4901 L 22.6612,-18.2162 L 22.6507,-17.9452
 L 22.6383,-17.677 L 22.624,-17.4117 L 22.6077,-17.1492 L 22.5896,-16.8895 L 22.5695,-16.6327 L 22.5475,-16.3787
 L 22.5236,-16.1276 L 22.4978,-15.8793 L 22.4701,-15.6338 L 22.4405,-15.3912 L 22.4089,-15.1515 L 22.3755,-14.9146
 L 22.3401,-14.6805 L 22.3029,-14.4492 L 22.2637,-14.2208 L 22.2226,-13.9953 L 22.1796,-13.7726 L 22.1347,-13.5527
 L 22.0879,-13.3357 L 22.0391,-13.1215 L 21.9885,-12.9101 L 21.9359,-12.7016 L 21.8814,-12.496 L 21.825,-12.2932
 L 21.7668,-12.0932 L 21.7065,-11.8961 L 21.6444,-11.7018 L 21.5804,-11.5103 L 21.5145,-11.3217 L 21.4466,-11.1359
 L 21.3769,-10.953 L 21.3052,-10.7729 L 21.2316,-10.5957 L 21.1561,-10.4213 L 21.0787,-10.2497 L 20.9994,-10.081
 L 20.9181,-9.91512 L 20.835,-9.75209 L 20.75,-9.5919 L 20.663,-9.43455 L 20.5743,-9.28031 L 20.4839,-9.12947
 L 20.392,-8.98201 L 20.2984,-8.83795 L 20.2033,-8.69727 L 20.1065,-8.55999 L 20.0081,-8.42609 L 19.9081,-8.29559
 L 19.8066,-8.16847 L 19.7033,-8.04474 L 19.5985,-7.92441 L 19.4921,-7.80746 L 19.3841,-7.6939 L 19.2744,-7.58374
 L 19.1632,-7.47696 L 19.0503,-7.37357 L 18.9359,-7.27357 L 18.8198,-7.17697 L 18.7021,-7.08375 L 18.5828,-6.99392
 L 18.4619,-6.90748 L 18.3394,-6.82443 L 18.2153,-6.74477 L 18.0895,-6.6685 L 17.9622,-6.59562 L 17.8333,-6.52613
 L 17.7027,-6.46003 L 17.5705,-6.39732 L 17.4368,-6.338 L 17.3014,-6.28207 L 17.1644,-6.22953 L 17.0258,-6.18038
 L 16.8856,-6.13462 L 16.7437,-6.09224 L 16.6003,-6.05326 L 16.4553,-6.01767 L 16.3086,-5.98547 L 16.1604,-5.95665
 L 16.0105,-5.93123 L 15.859,-5.9092 L 15.7059,-5.89055 L 15.5513,-5.8753 L 15.395,-5.86344 L 15.237,-5.85496
 L 15.0775,-5.84988 L 14.9164,-5.84818 z
M 46.013,-0.00136882 L 46.2194,-0.00547529 L 46.4238,-0.0123194 L 46.6262,-0.0219012 L 46.8266,-0.0342206 L 47.025,-0.0492776
 L 47.2214,-0.0670723 L 47.4158,-0.0876046 L 47.6083,-0.110875 L 47.7987,-0.136882 L 47.9872,-0.165628 L 48.1737,-0.19711
 L 48.3581,-0.231331 L 48.5406,-0.268289 L 48.7211,-0.307985 L 48.8996,-0.350419 L 49.0761,-0.39559 L 49.2506,-0.443498
 L 49.4232,-0.494145 L 49.5937,-0.547529 L 49.7622,-0.603651 L 49.9288,-0.66251 L 50.0934,-0.724107 L 50.2559,-0.788442
 L 50.4165,-0.855514 L 50.5751,-0.925324 L 50.7317,-0.997872 L 50.8863,-1.07316 L 51.0389,-1.15118 L 51.1895,-1.23194
 L 51.3382,-1.31544 L 51.4848,-1.40167 L 51.6295,-1.49065 L 51.7721,-1.58236 L 51.9128,-1.67681 L 52.0515,-1.77399
 L 52.1882,-1.87392 L 52.3229,-1.97658 L 52.4556,-2.08198 L 52.5863,-2.19012 L 52.715,-2.30099 L 52.8417,-2.4146
 L 52.9665,-2.53095 L 53.0892,-2.65004 L 53.21,-2.77187 L 53.3287,-2.89643 L 53.4452,-3.02351 L 53.5591,-3.15286
 L 53.6705,-3.28448 L 53.7793,-3.41837 L 53.8856,-3.55453 L 53.9892,-3.69295 L 54.0904,-3.83364 L 54.1889,-3.9766
 L 54.2849,-4.12183 L 54.3784,-4.26933 L 54.4693,-4.4191 L 54.5576,-4.57113 L 54.6434,-4.72543 L 54.7266,-4.882
 L 54.8072,-5.04084 L 54.8853,-5.20194 L 54.9608,-5.36532 L 55.0338,-5.53096 L 55.1042,-5.69887 L 55.172,-5.86905
 L 55.2373,-6.0415 L 55.3001,-6.21621 L 55.3602,-6.39319 L 55.4178,-6.57245 L 55.4729,-6.75397 L 55.5253,-6.93775
 L 55.5753,-7.12381 L 55.6226,-7.31213 L 55.6674,-7.50272 L 55.7097,-7.69559 L 55.7494,-7.89071 L 55.7865,-8.08811
 L 55.821,-8.28778 L 55.8531,-8.48971 L 55.8825,-8.69391 L 55.9094,-8.90038 L 55.9337,-9.10912 L 55.9555,-9.32012
 L 55.9747,-9.5334 L 55.9913,-9.74894 L 56.0054,-9.96675 L 56.0169,-10.1868 L 56.0259,-10.4092 L 56.0323,-10.6338
 L 56.0361,-10.8607 L 56.0374,-11.0898 L 56.0366,-11.2618 L 56.0342,-11.4323 L 56.0302,-11.6013 L 56.0247,-11.7689
 L 56.0175,-11.935 L 56.0087,-12.0996 L 55.9984,-12.2627 L 55.9865,-12.4244 L 55.9729,-12.5846 L 55.9578,-12.7433
 L 55.9411,-12.9005 L 55.9228,-13.0563 L 55.9029,-13.2106 L 55.8815,-13.3634 L 55.8584,-13.5148 L 55.8337,-13.6646
 L 55.8075,-13.8131 L 55.7796,-13.96 L 55.7502,-14.1054 L 55.7192,-14.2494 L 55.6865,-14.3919 L 55.6523,-14.533
 L 55.6165,-14.6725 L 55.5791,-14.8106 L 55.5401,-14.9472 L 55.4996,-15.0824 L 55.4574,-15.216 L 55.4136,-15.3482
 L 55.3683,-15.479 L 55.3214,-15.6082 L 55.2728,-15.736 L 55.2227,-15.8623 L 55.171,-15.9871 L 55.1177,-16.1105
 L 55.0628,-16.2323 L 55.0063,-16.3528 L 54.9482,-16.4717 L 54.8886,-16.5891 L 54.8273,-16.7051 L 54.7645,-16.8197
 L 54.7,-16.9327 L 54.634,-17.0443 L 54.5664,-17.1544 L 54.4971,-17.263 L 54.4263,-17.3701 L 54.3539,-17.4758
 L 54.28,-17.5799 L 54.2046,-17.6822 L 54.1278,-17.7827 L 54.0496,-17.8815 L 53.9699,-17.9786 L 53.8887,-18.0738
 L 53.8061,-18.1674 L 53.722,-18.2591 L 53.6365,-18.3491 L 53.5495,-18.4373 L 53.4611,-18.5238 L 53.3713,-18.6085
 L 53.28,-18.6915 L 53.1872,-18.7727 L 53.093,-18.8521 L 52.9974,-18.9298 L 52.9003,-19.0057 L 52.8017,-19.0798
 L 52.7017,-19.1522 L 52.6002,-19.2228 L 52.4973,-19.2917 L 52.393,-19.3588 L 52.2872,-19.4242 L 52.18,-19.4878
 L 52.0713,-19.5496 L 51.9611,-19.6097 L 51.8495,-19.668 L 51.7365,-19.7245 L 51.622,-19.7793 L 51.506,-19.8323
 L 51.3887,-19.8836 L 51.2698,-19.9331 L 51.1495,-19.9809 L 51.0278,-20.0268 L 50.9046,-20.0711 L 50.78,-20.1135
 L 50.6539,-20.1542 L 50.5264,-20.1932 L 50.3974,-20.2304 L 50.2669,-20.2658 L 50.1351,-20.2995 L 50.0017,-20.3314
 L 49.867,-20.3615 L 49.7307,-20.3899 L 49.593,-20.4165 L 49.4539,-20.4414 L 49.5645,-20.4769 L 49.6739,-20.5137
 L 49.782,-20.552 L 49.8889,-20.5917 L 49.9946,-20.6328 L 50.099,-20.6752 L 50.2022,-20.7191 L 50.3041,-20.7643
 L 50.4049,-20.811 L 50.5043,-20.859 L 50.6026,-20.9084 L 50.6996,-20.9593 L 50.7954,-21.0115 L 50.8899,-21.0651
 L 50.9832,-21.1201 L 51.0753,-21.1765 L 51.1661,-21.2343 L 51.2557,-21.2935 L 51.3441,-21.3541 L 51.4312,-21.4161
 L 51.5171,-21.4795 L 51.6017,-21.5443 L 51.6851,-21.6104 L 51.7673,-21.678 L 51.8483,-21.7469 L 51.928,-21.8173
 L 52.0065,-21.889 L 52.0837,-21.9622 L 52.1597,-22.0367 L 52.2345,-22.1127 L 52.308,-22.19 L 52.3803,-22.2687
 L 52.4514,-22.3488 L 52.5212,-22.4303 L 52.5898,-22.5132 L 52.6571,-22.5975 L 52.7232,-22.6832 L 52.7881,-22.7703
 L 52.8518,-22.8588 L 52.9142,-22.9487 L 52.9754,-23.0399 L 53.0353,-23.1326 L 53.094,-23.2267 L 53.1515,-23.3221
 L 53.2077,-23.419 L 53.2627,-23.5172 L 53.3165,-23.6167 L 53.3691,-23.7171 L 53.4206,-23.8185 L 53.4708,-23.9209
 L 53.5199,-24.0242 L 53.5678,-24.1286 L 53.6145,-24.2339 L 53.66,-24.3402 L 53.7043,-24.4474 L 53.7475,-24.5557
 L 53.7895,-24.6649 L 53.8303,-24.7751 L 53.8699,-24.8863 L 53.9083,-24.9984 L 53.9456,-25.1115 L 53.9816,-25.2257
 L 54.0165,-25.3407 L 54.0502,-25.4568 L 54.0827,-25.5738 L 54.114,-25.6919 L 54.1442,-25.8109 L 54.1732,-25.9308
 L 54.201,-26.0518 L 54.2276,-26.1737 L 54.253,-26.2966 L 54.2772,-26.4205 L 54.3003,-26.5454 L 54.3222,-26.6712
 L 54.3428,-26.798 L 54.3624,-26.9258 L 54.3807,-27.0546 L 54.3978,-27.1843 L 54.4138,-27.315 L 54.4286,-27.4467
 L 54.4422,-27.5794 L 54.4546,-27.7131 L 54.4658,-27.8477 L 54.4759,-27.9833 L 54.4847,-28.1199 L 54.4924,-28.2575
 L 54.4989,-28.396 L 54.5042,-28.5356 L 54.5084,-28.676 L 54.5113,-28.8175 L 54.5131,-28.96 L 54.5137,-29.1034
 L 54.5125,-29.3122 L 54.509,-29.5187 L 54.5031,-29.7231 L 54.4949,-29.9251 L 54.4843,-30.125 L 54.4713,-30.3226
 L 54.456,-30.518 L 54.4383,-30.7112 L 54.4183,-30.9021 L 54.3959,-31.0909 L 54.3712,-31.2773 L 54.3441,-31.4616
 L 54.3147,-31.6436 L 54.2829,-31.8234 L 54.2487,-32.001 L 54.2122,-32.1763 L 54.1733,-32.3494 L 54.1321,-32.5203
 L 54.0885,-32.689 L 54.0426,-32.8554 L 53.9943,-33.0196 L 53.9436,-33.1815 L 53.8906,-33.3413 L 53.8353,-33.4988
 L 53.7776,-33.654 L 53.7175,-33.8071 L 53.6551,-33.9579 L 53.5903,-34.1065 L 53.5231,-34.2528 L 53.4537,-34.397
 L 53.3818,-34.5389 L 53.3076,-34.6785 L 53.231,-34.816 L 53.1521,-34.9512 L 53.0709,-35.0842 L 52.9872,-35.2149
 L 52.9012,-35.3434 L 52.8129,-35.4697 L 52.7222,-35.5938 L 52.6292,-35.7156 L 52.5338,-35.8352 L 52.436,-35.9526
 L 52.3359,-36.0677 L 52.2334,-36.1807 L 52.1286,-36.2913 L 52.0214,-36.3998 L 51.9119,-36.506 L 51.8002,-36.6099
 L 51.6863,-36.7114 L 51.5701,-36.8106 L 51.4517,-36.9074 L 51.3311,-37.002 L 51.2082,-37.0941 L 51.0831,-37.184
 L 50.9558,-37.2715 L 50.8262,-37.3567 L 50.6944,-37.4396 L 50.5604,-37.5201 L 50.4242,-37.5983 L 50.2857,-37.6741
 L 50.1449,-37.7476 L 50.002,-37.8188 L 49.8568,-37.8877 L 49.7094,-37.9542 L 49.5598,-38.0184 L 49.4079,-38.0802
 L 49.2538,-38.1397 L 49.0975,-38.1969 L 48.9389,-38.2518 L 48.7781,-38.3043 L 48.6151,-38.3545 L 48.4498,-38.4023
 L 48.2823,-38.4478 L 48.1126,-38.491 L 47.9406,-38.5318 L 47.7664,-38.5703 L 47.59,-38.6065 L 47.4114,-38.6404
 L 47.2305,-38.6719 L 47.0474,-38.701 L 46.862,-38.7279 L 46.6744,-38.7524 L 46.4846,-38.7746 L 46.2926,-38.7944
 L 46.0983,-38.8119 L 45.9018,-38.8271 L 45.7031,-38.8399 L 45.5021,-38.8504 L 45.2989,-38.8586 L 45.0935,-38.8644
 L 44.8858,-38.8679 L 44.676,-38.8691 L 32.5434,-38.8691 L 32.5434,-0 L 45.8046,-0 z
M 38.0925,-23.1999 L 38.0925,-32.8277 L 44.4127,-32.8277 L 44.5095,-32.8272 L 44.6053,-32.8256 L 44.7,-32.823
 L 44.7937,-32.8193 L 44.8863,-32.8146 L 44.978,-32.8089 L 45.0685,-32.8021 L 45.158,-32.7943 L 45.2465,-32.7854
 L 45.334,-32.7755 L 45.4204,-32.7646 L 45.5057,-32.7526 L 45.5901,-32.7395 L 45.6733,-32.7255 L 45.7556,-32.7103
 L 45.8368,-32.6942 L 45.9169,-32.6769 L 45.9961,-32.6587 L 46.0741,-32.6394 L 46.1512,-32.619 L 46.2272,-32.5977
 L 46.3021,-32.5752 L 46.3761,-32.5518 L 46.4489,-32.5273 L 46.5208,-32.5017 L 46.5916,-32.4751 L 46.6613,-32.4475
 L 46.73,-32.4188 L 46.7977,-32.389 L 46.8644,-32.3583 L 46.93,-32.3264 L 46.9945,-32.2936 L 47.058,-32.2597
 L 47.1205,-32.2247 L 47.1819,-32.1887 L 47.2423,-32.1517 L 47.3017,-32.1136 L 47.36,-32.0745 L 47.4173,-32.0344
 L 47.4735,-31.9932 L 47.5287,-31.9509 L 47.5828,-31.9076 L 47.636,-31.8633 L 47.688,-31.8179 L 47.7391,-31.7715
 L 47.7891,-31.724 L 47.838,-31.6753 L 47.8859,-31.6252 L 47.9327,-31.5737 L 47.9784,-31.5207 L 48.023,-31.4663
 L 48.0666,-31.4104 L 48.1091,-31.3531 L 48.1505,-31.2944 L 48.1908,-31.2342 L 48.2301,-31.1726 L 48.2683,-31.1096
 L 48.3054,-31.0452 L 48.3414,-30.9793 L 48.3764,-30.9119 L 48.4103,-30.8432 L 48.4431,-30.773 L 48.4748,-30.7013
 L 48.5055,-30.6283 L 48.5351,-30.5538 L 48.5636,-30.4778 L 48.591,-30.4005 L 48.6174,-30.3217 L 48.6426,-30.2414
 L 48.6668,-30.1598 L 48.69,-30.0767 L 48.712,-29.9921 L 48.733,-29.9061 L 48.7529,-29.8187 L 48.7717,-29.7299
 L 48.7895,-29.6396 L 48.8061,-29.5479 L 48.8217,-29.4548 L 48.8363,-29.3602 L 48.8497,-29.2642 L 48.8621,-29.1667
 L 48.8734,-29.0679 L 48.8836,-28.9675 L 48.8927,-28.8658 L 48.9008,-28.7626 L 48.9078,-28.658 L 48.9137,-28.5519
 L 48.9186,-28.4444 L 48.9223,-28.3355 L 48.925,-28.2252 L 48.9266,-28.1134 L 48.9272,-28.0002 L 48.9267,-27.8964
 L 48.9252,-27.7937 L 48.9226,-27.6922 L 48.9191,-27.5918 L 48.9146,-27.4926 L 48.9091,-27.3945 L 48.9026,-27.2975
 L 48.895,-27.2016 L 48.8865,-27.1069 L 48.8769,-27.0133 L 48.8664,-26.9209 L 48.8548,-26.8296 L 48.8423,-26.7394
 L 48.8287,-26.6504 L 48.8141,-26.5625 L 48.7986,-26.4757 L 48.782,-26.3901 L 48.7644,-26.3056 L 48.7458,-26.2222
 L 48.7262,-26.1399 L 48.7056,-26.0588 L 48.684,-25.9789 L 48.6614,-25.9 L 48.6378,-25.8224 L 48.6132,-25.7458
 L 48.5876,-25.6704 L 48.561,-25.5961 L 48.5333,-25.5229 L 48.5047,-25.4509 L 48.4751,-25.38 L 48.4444,-25.3102
 L 48.4128,-25.2416 L 48.3801,-25.1741 L 48.3465,-25.1078 L 48.3118,-25.0425 L 48.2761,-24.9784 L 48.2395,-24.9155
 L 48.2018,-24.8537 L 48.1631,-24.793 L 48.1234,-24.7334 L 48.0827,-24.675 L 48.041,-24.6177 L 47.9983,-24.5616
 L 47.9546,-24.5066 L 47.9099,-24.4527 L 47.8642,-24.4 L 47.8174,-24.3484 L 47.7694,-24.2979 L 47.7201,-24.2485
 L 47.6697,-24.2003 L 47.618,-24.1533 L 47.5651,-24.1073 L 47.511,-24.0625 L 47.4556,-24.0189 L 47.3991,-23.9763
 L 47.3413,-23.9349 L 47.2823,-23.8946 L 47.2221,-23.8555 L 47.1607,-23.8175 L 47.098,-23.7807 L 47.0342,-23.7449
 L 46.9691,-23.7103 L 46.9028,-23.6769 L 46.8353,-23.6445 L 46.7666,-23.6133 L 46.6966,-23.5833 L 46.6254,-23.5544
 L 46.5531,-23.5266 L 46.4794,-23.4999 L 46.4046,-23.4744 L 46.3286,-23.45 L 46.2513,-23.4268 L 46.1729,-23.4046
 L 46.0932,-23.3837 L 46.0123,-23.3638 L 45.9301,-23.3451 L 45.8468,-23.3275 L 45.7622,-23.3111 L 45.6764,-23.2957
 L 45.5894,-23.2816 L 45.5012,-23.2685 L 45.4118,-23.2566 L 45.3211,-23.2458 L 45.2293,-23.2362 L 45.1362,-23.2277
 L 45.0419,-23.2203 L 44.9463,-23.2141 L 44.8496,-23.209 L 44.7516,-23.205 L 44.6525,-23.2022 L 44.5521,-23.2005
 L 44.4504,-23.1999 z
M 38.0925,-6.04141 L 38.0925,-17.1862 L 45.1275,-17.1862 L 45.3573,-17.1836 L 45.582,-17.1758 L 45.8016,-17.1629
 L 46.0162,-17.1449 L 46.2258,-17.1216 L 46.4303,-17.0932 L 46.6297,-17.0597 L 46.8241,-17.0209 L 47.0135,-16.9771
 L 47.1978,-16.928 L 47.377,-16.8738 L 47.5512,-16.8144 L 47.7204,-16.7499 L 47.8845,-16.6802 L 48.0435,-16.6053
 L 48.1975,-16.5253 L 48.3465,-16.4401 L 48.4904,-16.3498 L 48.6292,-16.2543 L 48.763,-16.1536 L 48.8918,-16.0478
 L 49.0155,-15.9368 L 49.1342,-15.8206 L 49.2478,-15.6993 L 49.3563,-15.5728 L 49.4598,-15.4412 L 49.5583,-15.3044
 L 49.6517,-15.1624 L 49.7401,-15.0152 L 49.8234,-14.8629 L 49.9017,-14.7055 L 49.9749,-14.5429 L 50.043,-14.3751
 L 50.1062,-14.2021 L 50.1642,-14.024 L 50.2172,-13.8407 L 50.2652,-13.6523 L 50.3081,-13.4587 L 50.346,-13.2599
 L 50.3788,-13.056 L 50.4066,-12.8469 L 50.4293,-12.6327 L 50.447,-12.4132 L 50.4596,-12.1887 L 50.4672,-11.9589
 L 50.4697,-11.724 L 50.4691,-11.6012 L 50.4674,-11.4797 L 50.4645,-11.3595 L 50.4604,-11.2407 L 50.4551,-11.1232
 L 50.4487,-11.007 L 50.4412,-10.8922 L 50.4324,-10.7788 L 50.4225,-10.6667 L 50.4115,-10.5559 L 50.3992,-10.4464
 L 50.3859,-10.3384 L 50.3713,-10.2316 L 50.3556,-10.1262 L 50.3387,-10.0221 L 50.3206,-9.91942 L 50.3014,-9.81804
 L 50.281,-9.718 L 50.2595,-9.61931 L 50.2368,-9.52196 L 50.2129,-9.42595 L 50.1879,-9.33128 L 50.1617,-9.23796
 L 50.1343,-9.14598 L 50.1058,-9.05534 L 50.0761,-8.96604 L 50.0452,-8.87808 L 50.0132,-8.79147 L 49.98,-8.7062
 L 49.9456,-8.62227 L 49.9101,-8.53968 L 49.8734,-8.45844 L 49.8356,-8.37854 L 49.7966,-8.29998 L 49.7564,-8.22276
 L 49.715,-8.14689 L 49.6725,-8.07235 L 49.6289,-7.99916 L 49.584,-7.92732 L 49.538,-7.85681 L 49.4909,-7.78765
 L 49.4425,-7.71983 L 49.393,-7.65335 L 49.3424,-7.58821 L 49.2905,-7.52442 L 49.2376,-7.46196 L 49.1833,-7.40087
 L 49.1277,-7.34112 L 49.0707,-7.28272 L 49.0124,-7.22565 L 48.9527,-7.16993 L 48.8917,-7.11555 L 48.8292,-7.06252
 L 48.7655,-7.01082 L 48.7003,-6.96047 L 48.6338,-6.91147 L 48.566,-6.8638 L 48.4968,-6.81748 L 48.4262,-6.7725
 L 48.3543,-6.72886 L 48.281,-6.68657 L 48.2063,-6.64562 L 48.1303,-6.60601 L 48.053,-6.56774 L 47.9742,-6.53082
 L 47.8941,-6.49524 L 47.8127,-6.461 L 47.7299,-6.4281 L 47.6457,-6.39655 L 47.5602,-6.36634 L 47.4733,-6.33747
 L 47.385,-6.30995 L 47.2954,-6.28377 L 47.2045,-6.25893 L 47.1121,-6.23543 L 47.0184,-6.21327 L 46.9234,-6.19246
 L 46.827,-6.17299 L 46.7292,-6.15487 L 46.6301,-6.13809 L 46.5296,-6.12264 L 46.4278,-6.10855 L 46.3245,-6.09579
 L 46.22,-6.08438 L 46.114,-6.07431 L 46.0068,-6.06558 L 45.8981,-6.0582 L 45.7881,-6.05215 L 45.6767,-6.04745
 L 45.564,-6.0441 L 45.4499,-6.04208 L 45.3345,-6.04141 z
M 67.8283,0.55002 L 68.0096,0.545209 L 68.1892,0.537191 L 68.367,0.525966 L 68.543,0.511534 L 68.7172,0.493895
 L 68.8897,0.473049 L 69.0603,0.448995 L 69.2293,0.421735 L 69.3964,0.391267 L 69.5617,0.357592 L 69.7253,0.32071
 L 69.8871,0.280621 L 70.0471,0.237325 L 70.2053,0.190822 L 70.3618,0.141112 L 70.5164,0.0881943 L 70.6693,0.0320697
 L 70.8205,-0.0272621 L 70.9698,-0.0898009 L 71.1174,-0.155547 L 71.2632,-0.2245 L 71.4072,-0.29666 L 71.5494,-0.372027
 L 71.6898,-0.450602 L 71.8285,-0.532383 L 71.9654,-0.617372 L 72.1005,-0.705568 L 72.2339,-0.796971 L 72.3654,-0.891581
 L 72.4952,-0.989398 L 72.6232,-1.09042 L 72.7494,-1.19465 L 72.8739,-1.30209 L 72.9966,-1.41274 L 73.1175,-1.52659
 L 73.2366,-1.64365 L 73.3539,-1.76392 L 73.4695,-1.88739 L 73.5833,-2.01407 L 73.6953,-2.14396 L 73.8055,-2.27706
 L 73.9139,-2.41336 L 74.0206,-2.55287 L 74.1255,-2.69559 L 74.2286,-2.84151 L 74.3297,-2.9903 L 74.4286,-3.14162
 L 74.5253,-3.29547 L 74.6197,-3.45185 L 74.712,-3.61076 L 74.802,-3.77219 L 74.8898,-3.93616 L 74.9753,-4.10265
 L 75.0587,-4.27168 L 75.1398,-4.44323 L 75.2187,-4.61731 L 75.2954,-4.79392 L 75.3698,-4.97306 L 75.4421,-5.15472
 L 75.5121,-5.33892 L 75.5799,-5.52564 L 75.6454,-5.7149 L 75.7088,-5.90668 L 75.7699,-6.10099 L 75.8288,-6.29783
 L 75.8855,-6.4972 L 75.9399,-6.6991 L 75.9921,-6.90353 L 76.0421,-7.11048 L 76.0899,-7.31997 L 76.1355,-7.53198
 L 76.1788,-7.74652 L 76.2199,-7.96359 L 76.2588,-8.18319 L 76.2955,-8.40532 L 76.33,-8.62998 L 76.3622,-8.85717
 L 76.3922,-9.08688 L 76.42,-9.31913 L 76.4455,-9.5539 L 76.4689,-9.7912 L 76.49,-10.031 L 76.5089,-10.2734
 L 76.5255,-10.5183 L 76.54,-10.7657 L 76.5522,-11.0156 L 76.5622,-11.2681 L 76.57,-11.5231 L 76.5755,-11.7807
 L 76.5789,-12.0407 L 76.58,-12.3033 L 76.58,-38.8691 L 65.7642,-38.8691 L 65.7642,-32.4965 L 71.0498,-32.4965
 L 71.0498,-12.1105 L 71.0494,-11.9792 L 71.0481,-11.8493 L 71.0461,-11.7206 L 71.0433,-11.5933 L 71.0396,-11.4674
 L 71.0352,-11.3428 L 71.0299,-11.2195 L 71.0239,-11.0975 L 71.017,-10.9768 L 71.0093,-10.8575 L 71.0008,-10.7396
 L 70.9915,-10.6229 L 70.9814,-10.5076 L 70.9705,-10.3936 L 70.9587,-10.2809 L 70.9462,-10.1696 L 70.9328,-10.0596
 L 70.9187,-9.95093 L 70.9037,-9.84359 L 70.8879,-9.73758 L 70.8714,-9.6329 L 70.854,-9.52955 L 70.8358,-9.42753
 L 70.8167,-9.32684 L 70.7969,-9.22748 L 70.7763,-9.12945 L 70.7548,-9.03275 L 70.7326,-8.93738 L 70.7095,-8.84333
 L 70.6857,-8.75062 L 70.661,-8.65924 L 70.6355,-8.56919 L 70.6092,-8.48047 L 70.5821,-8.39308 L 70.5542,-8.30702
 L 70.5255,-8.22229 L 70.4959,-8.13889 L 70.4656,-8.05682 L 70.4344,-7.97608 L 70.4025,-7.89667 L 70.3697,-7.81859
 L 70.3361,-7.74184 L 70.3018,-7.66642 L 70.2666,-7.59232 L 70.2306,-7.51956 L 70.1937,-7.44813 L 70.1562,-7.37814
 L 70.1178,-7.30968 L 70.0787,-7.24276 L 70.0389,-7.17738 L 69.9983,-7.11353 L 69.9569,-7.05123 L 69.9148,-6.99046
 L 69.8719,-6.93123 L 69.8283,-6.87355 L 69.7839,-6.81739 L 69.7388,-6.76278 L 69.6929,-6.70971 L 69.6462,-6.65817
 L 69.5988,-6.60817 L 69.5506,-6.55971 L 69.5017,-6.51279 L 69.452,-6.46741 L 69.4016,-6.42357 L 69.3504,-6.38126
 L 69.2985,-6.34049 L 69.2458,-6.30127 L 69.1923,-6.26357 L 69.1381,-6.22742 L 69.0831,-6.19281 L 69.0274,-6.15973
 L 68.9709,-6.1282 L 68.9137,-6.0982 L 68.8557,-6.06974 L 68.7969,-6.04282 L 68.7374,-6.01743 L 68.6772,-5.99359
 L 68.6162,-5.97128 L 68.5544,-5.95051 L 68.4919,-5.93128 L 68.4286,-5.91359 L 68.3645,-5.89744 L 68.2997,-5.88282
 L 68.2342,-5.86975 L 68.1679,-5.85821 L 68.1008,-5.84821 L 68.033,-5.83975 L 67.9644,-5.83283 L 67.8951,-5.82744
 L 67.825,-5.8236 L 67.7542,-5.82129 L 67.6826,-5.82052 L 67.6126,-5.8212 L 67.5432,-5.82326 L 67.4746,-5.82668
 L 67.4065,-5.83147 L 67.3392,-5.83763 L 67.2725,-5.84516 L 67.2064,-5.85406 L 67.141,-5.86432 L 67.0763,-5.87596
 L 67.0122,-5.88896 L 66.9488,-5.90333 L 66.886,-5.91907 L 66.8239,-5.93618 L 66.7625,-5.95466 L 66.7017,-5.97451
 L 66.6416,-5.99573 L 66.5821,-6.01831 L 66.5233,-6.04227 L 66.4651,-6.06759 L 66.4076,-6.09428 L 66.3508,-6.12234
 L 66.2946,-6.15177 L 66.2391,-6.18257 L 66.1842,-6.21474 L 66.13,-6.24828 L 66.0764,-6.28318 L 66.0235,-6.31945
 L 65.9713,-6.3571 L 65.9197,-6.39611 L 65.8688,-6.43649 L 65.8185,-6.47824 L 65.7689,-6.52136 L 65.7199,-6.56584
 L 65.6716,-6.6117 L 65.624,-6.65892 L 65.577,-6.70752 L 65.5307,-6.75748 L 65.485,-6.80881 L 65.44,-6.86151
 L 65.3957,-6.91558 L 65.352,-6.97101 L 65.309,-7.02782 L 65.2666,-7.086 L 65.2249,-7.14554 L 65.1838,-7.20645
 L 65.1434,-7.26873 L 65.1036,-7.33245 L 65.0643,-7.39765 L 65.0256,-7.46431 L 64.9875,-7.53245 L 64.9499,-7.60206
 L 64.9129,-7.67314 L 64.8764,-7.7457 L 64.8404,-7.81973 L 64.805,-7.89523 L 64.7702,-7.9722 L 64.7359,-8.05065
 L 64.7022,-8.13057 L 64.669,-8.21196 L 64.6363,-8.29482 L 64.6042,-8.37916 L 64.5727,-8.46497 L 64.5417,-8.55225
 L 64.5113,-8.641 L 64.4814,-8.73123 L 64.4521,-8.82293 L 64.4233,-8.9161 L 64.3951,-9.01075 L 64.3674,-9.10687
 L 64.3403,-9.20446 L 64.3137,-9.30352 L 64.2877,-9.40406 L 64.2622,-9.50606 L 64.2373,-9.60955 L 64.2129,-9.7145
 L 64.1891,-9.82093 L 64.1658,-9.92882 L 64.1431,-10.0382 L 64.121,-10.149 L 64.0993,-10.2614 L 64.0783,-10.3751
 L 64.0578,-10.4904 L 64.0378,-10.6071 L 64.0184,-10.7254 L 63.9995,-10.845 L 63.9812,-10.9662 L 63.9635,-11.0888
 L 63.9463,-11.2129 L 63.9296,-11.3385 L 63.9135,-11.4655 L 63.898,-11.594 L 63.883,-11.724 L 58.3716,-10.5378
 L 58.4042,-10.285 L 58.4382,-10.0354 L 58.4736,-9.78871 L 58.5103,-9.54512 L 58.5485,-9.30458 L 58.5881,-9.06709
 L 58.6291,-8.83265 L 58.6714,-8.60126 L 58.7152,-8.37292 L 58.7604,-8.14764 L 58.8069,-7.9254 L 58.8549,-7.70621
 L 58.9042,-7.49008 L 58.9549,-7.27699 L 59.0071,-7.06696 L 59.0606,-6.85997 L 59.1155,-6.65604 L 59.1719,-6.45516
 L 59.2296,-6.25732 L 59.2887,-6.06254 L 59.3492,-5.87081 L 59.4111,-5.68213 L 59.4744,-5.4965 L 59.5391,-5.31392
 L 59.6052,-5.13439 L 59.6727,-4.95792 L 59.7416,-4.78449 L 59.8118,-4.61411 L 59.8835,-4.44679 L 59.9566,-4.28251
 L 60.031,-4.12129 L 60.1069,-3.96311 L 60.1842,-3.80799 L 60.2628,-3.65592 L 60.3428,-3.5069 L 60.4243,-3.36092
 L 60.5071,-3.218 L 60.5914,-3.07813 L 60.677,-2.94131 L 60.764,-2.80754 L 60.8524,-2.67683 L 60.9423,-2.54916
 L 61.0335,-2.42454 L 61.1261,-2.30297 L 61.2201,-2.18446 L 61.3155,-2.06899 L 61.4125,-1.95629 L 61.5113,-1.84607
 L 61.6119,-1.73832 L 61.7143,-1.63305 L 61.8185,-1.53026 L 61.9245,-1.42994 L 62.0324,-1.3321 L 62.142,-1.23674
 L 62.2534,-1.14385 L 62.3667,-1.05344 L 62.4817,-0.965511 L 62.5986,-0.880056 L 62.7172,-0.797078 L 62.8377,-0.716577
 L 62.9599,-0.638553 L 63.084,-0.563006 L 63.2099,-0.489936 L 63.3375,-0.419343 L 63.467,-0.351226 L 63.5983,-0.285587
 L 63.7314,-0.222425 L 63.8663,-0.161739 L 64.003,-0.103531 L 64.1415,-0.0477996 L 64.2818,0.00545491 L 64.4239,0.0562325
 L 64.5678,0.104533 L 64.7136,0.150357 L 64.8611,0.193703 L 65.0104,0.234573 L 65.1615,0.272966 L 65.3145,0.308882
 L 65.4692,0.342321 L 65.6258,0.373282 L 65.7841,0.401767 L 65.9443,0.427775 L 66.1063,0.451307 L 66.27,0.472361
 L 66.4356,0.490938 L 66.603,0.507038 L 66.7722,0.520661 L 66.9431,0.531808 L 67.1159,0.540477 L 67.2905,0.546669
 L 67.4669,0.550385 L 67.6451,0.551623 z
" stroke="white" fill="white" stroke-width="0.5"/>
</svg>
