<?xml version="1.0" standalone="no"?>
<!DOCTYPE svg PUBLIC "-//W3C//DTD SVG 1.1//EN" "http://www.w3.org/Graphics/SVG/1.1/DTD/svg11.dtd">
<svg width="100mm" height="100mm" viewBox="-8 -108 116 116" xmlns="http://www.w3.org/2000/svg" version="1.1">
<title>OpenSCAD Model</title>
<path d="
M 84.1993,-0.00497437 L 84.3984,-0.0149078 L 84.5973,-0.0298004 L 84.7955,-0.0546417 L 84.9926,-0.0843658 L 85.1891,-0.119003
 L 85.3832,-0.163315 L 85.5764,-0.212509 L 85.7684,-0.266525 L 85.9575,-0.330063 L 86.1449,-0.398254 L 86.3306,-0.471115
 L 86.5125,-0.553223 L 86.6922,-0.63974 L 86.8696,-0.730728 L 87.0423,-0.830399 L 87.2124,-0.934357 L 87.3799,-1.04256
 L 87.5419,-1.15901 L 87.7008,-1.2794 L 87.8568,-1.40376 L 88.0063,-1.53571 L 88.1524,-1.67133 L 88.2952,-1.81058
 L 88.4308,-1.95677 L 88.5628,-2.10626 L 88.691,-2.25905 L 88.8113,-2.41792 L 88.9277,-2.5798 L 89.0401,-2.74458
 L 89.1443,-2.9151 L 89.244,-3.08778 L 89.3393,-3.26295 L 89.4258,-3.44243 L 89.5078,-3.62416 L 89.5852,-3.80795
 L 89.6534,-3.99522 L 89.7169,-4.18422 L 89.7757,-4.3748 L 89.825,-4.56818 L 89.8693,-4.76257 L 89.9088,-4.95807
 L 89.9386,-5.15555 L 89.9634,-5.35338 L 89.9832,-5.55183 L 89.9916,-5.70078 L 89.9972,-5.85023 L 90,-6
 L 90,-94 L 89.995,-94.1993 L 89.9851,-94.3984 L 89.9702,-94.5973 L 89.9454,-94.7955 L 89.9156,-94.9926
 L 89.881,-95.1891 L 89.8367,-95.3832 L 89.7875,-95.5764 L 89.7335,-95.7684 L 89.6699,-95.9575 L 89.6017,-96.1449
 L 89.5289,-96.3306 L 89.4468,-96.5125 L 89.3603,-96.6922 L 89.2693,-96.8696 L 89.1696,-97.0423 L 89.0656,-97.2124
 L 88.9574,-97.3799 L 88.841,-97.5419 L 88.7206,-97.7008 L 88.5962,-97.8568 L 88.4643,-98.0063 L 88.3287,-98.1524
 L 88.1894,-98.2952 L 88.0432,-98.4308 L 87.8937,-98.5628 L 87.741,-98.691 L 87.5821,-98.8113 L 87.4202,-98.9277
 L 87.2554,-99.0401 L 87.0849,-99.1443 L 86.9122,-99.244 L 86.737,-99.3393 L 86.5576,-99.4258 L 86.3758,-99.5078
 L 86.192,-99.5852 L 86.0048,-99.6534 L 85.8158,-99.7169 L 85.6252,-99.7757 L 85.4318,-99.825 L 85.2374,-99.8693
 L 85.0419,-99.9088 L 84.8445,-99.9386 L 84.6466,-99.9634 L 84.4482,-99.9832 L 84.2992,-99.9916 L 84.1498,-99.9972
 L 84,-100 L 36,-100 L 10,-74 L 10,-50 L 14,-50 L 14,-70
 L 34,-70 L 34.1993,-70.005 L 34.3984,-70.0149 L 34.5973,-70.0298 L 34.7955,-70.0546 L 34.9926,-70.0844
 L 35.1891,-70.119 L 35.3832,-70.1633 L 35.5764,-70.2125 L 35.7684,-70.2665 L 35.9575,-70.3301 L 36.1449,-70.3983
 L 36.3306,-70.4711 L 36.5125,-70.5532 L 36.6922,-70.6397 L 36.8696,-70.7307 L 37.0423,-70.8304 L 37.2124,-70.9344
 L 37.3799,-71.0426 L 37.5419,-71.159 L 37.7008,-71.2794 L 37.8568,-71.4038 L 38.0063,-71.5357 L 38.1524,-71.6713
 L 38.2952,-71.8106 L 38.4308,-71.9568 L 38.5628,-72.1063 L 38.691,-72.259 L 38.8113,-72.4179 L 38.9277,-72.5798
 L 39.0401,-72.7446 L 39.1443,-72.9151 L 39.244,-73.0878 L 39.3393,-73.263 L 39.4258,-73.4424 L 39.5078,-73.6242
 L 39.5852,-73.808 L 39.6534,-73.9952 L 39.7169,-74.1842 L 39.7757,-74.3748 L 39.825,-74.5682 L 39.8693,-74.7626
 L 39.9088,-74.9581 L 39.9386,-75.1555 L 39.9634,-75.3534 L 39.9832,-75.5518 L 39.9916,-75.7008 L 39.9972,-75.8502
 L 40,-76 L 40,-96 L 84,-96 L 84.1495,-95.9944 L 84.3473,-95.9696 L 84.5417,-95.9252
 L 84.7307,-95.8617 L 84.9124,-95.7797 L 85.0851,-95.6801 L 85.247,-95.5637 L 85.3965,-95.4317 L 85.5321,-95.2856
 L 85.6525,-95.1266 L 85.7564,-94.9565 L 85.843,-94.7769 L 85.9111,-94.5895 L 85.9603,-94.3963 L 85.9901,-94.1991
 L 86,-94 L 86,-6 L 85.9944,-5.85054 L 85.9696,-5.65271 L 85.9252,-5.45831 L 85.8617,-5.26932
 L 85.7797,-5.08759 L 85.6801,-4.9149 L 85.5637,-4.75302 L 85.4317,-4.60353 L 85.2856,-4.46791 L 85.1266,-4.34752
 L 84.9565,-4.24356 L 84.7769,-4.15704 L 84.5895,-4.08885 L 84.3963,-4.03966 L 84.1991,-4.00993 L 84,-4
 L 80,-4 L 80,-0 L 84,-0 z
M 9.67412,0.530685 L 9.90381,0.526245 L 10.1311,0.51886 L 10.3561,0.508514 L 10.5788,0.495209 L 10.7991,0.478958
 L 11.0171,0.459732 L 11.2328,0.437576 L 11.4461,0.412445 L 11.657,0.384369 L 11.8657,0.353333 L 12.072,0.319351
 L 12.2759,0.28241 L 12.4775,0.242508 L 12.6768,0.199646 L 12.8737,0.153839 L 13.0683,0.105057 L 13.2606,0.0533295
 L 13.4505,-0.00131226 L 13.6381,-0.0589447 L 13.8234,-0.119537 L 14.0063,-0.18309 L 14.1868,-0.249588 L 14.3651,-0.319046
 L 14.541,-0.391449 L 14.7145,-0.466827 L 14.8857,-0.545151 L 15.0546,-0.626434 L 15.2212,-0.710663 L 15.3854,-0.797867
 L 15.5472,-0.888016 L 15.7068,-0.981125 L 15.8639,-1.07718 L 16.0188,-1.17619 L 16.1713,-1.27817 L 16.3215,-1.38309
 L 16.4693,-1.49097 L 16.6148,-1.60181 L 16.7579,-1.71561 L 16.8988,-1.83235 L 17.0372,-1.95206 L 17.1734,-2.07471
 L 17.3072,-2.20033 L 17.4387,-2.3289 L 17.5678,-2.46042 L 17.6946,-2.59491 L 17.8188,-2.73204 L 17.9404,-2.87154
 L 18.0592,-3.01338 L 18.1752,-3.15756 L 18.2886,-3.30412 L 18.3992,-3.453 L 18.5071,-3.60426 L 18.6122,-3.75786
 L 18.7146,-3.9138 L 18.8143,-4.0721 L 18.9113,-4.23276 L 19.0055,-4.39577 L 19.097,-4.56113 L 19.1857,-4.72884
 L 19.2718,-4.8989 L 19.3551,-5.07132 L 19.4357,-5.24608 L 19.5135,-5.4232 L 19.5886,-5.60268 L 19.661,-5.78448
 L 19.7306,-5.96866 L 19.7975,-6.15518 L 19.8617,-6.34406 L 19.9231,-6.53528 L 19.9819,-6.72887 L 20.0379,-6.92479
 L 20.0911,-7.12306 L 20.1416,-7.32372 L 20.1894,-7.5267 L 20.2345,-7.73203 L 20.2768,-7.93973 L 20.3164,-8.14977
 L 20.3533,-8.36217 L 20.3874,-8.5769 L 20.4188,-8.79401 L 20.4475,-9.01344 L 20.4735,-9.23524 L 20.4967,-9.45941
 L 20.5172,-9.6859 L 20.5349,-9.91476 L 20.5499,-10.146 L 20.5622,-10.3795 L 20.5718,-10.6154 L 20.5786,-10.8537
 L 20.5827,-11.0943 L 20.5841,-11.3373 L 20.5833,-11.5043 L 20.5808,-11.6699 L 20.5768,-11.8339 L 20.5711,-11.9964
 L 20.5638,-12.1575 L 20.5548,-12.317 L 20.5443,-12.4751 L 20.5321,-12.6317 L 20.5183,-12.7867 L 20.5029,-12.9403
 L 20.4858,-13.0924 L 20.4671,-13.2429 L 20.4468,-13.392 L 20.4249,-13.5396 L 20.4014,-13.6857 L 20.3762,-13.8302
 L 20.3494,-13.9733 L 20.3209,-14.1149 L 20.2909,-14.255 L 20.2592,-14.3936 L 20.2259,-14.5307 L 20.191,-14.6663
 L 20.1544,-14.8004 L 20.1163,-14.933 L 20.0765,-15.0641 L 20.0351,-15.1938 L 19.992,-15.3219 L 19.9474,-15.4485
 L 19.9011,-15.5736 L 19.8531,-15.6973 L 19.8036,-15.8194 L 19.7524,-15.94 L 19.6997,-16.0592 L 19.6452,-16.1768
 L 19.5892,-16.293 L 19.5315,-16.4076 L 19.4722,-16.5208 L 19.4113,-16.6324 L 19.3488,-16.7426 L 19.2846,-16.8512
 L 19.2189,-16.9584 L 19.1515,-17.0641 L 19.0824,-17.1683 L 19.0118,-17.2709 L 18.9395,-17.3721 L 18.8656,-17.4718
 L 18.7901,-17.5699 L 18.7131,-17.6665 L 18.6345,-17.7614 L 18.5544,-17.8547 L 18.4728,-17.9465 L 18.3896,-18.0366
 L 18.3049,-18.1252 L 18.2187,-18.2121 L 18.131,-18.2975 L 18.0417,-18.3813 L 17.9508,-18.4634 L 17.8584,-18.544
 L 17.7645,-18.6229 L 17.6691,-18.7003 L 17.5721,-18.7761 L 17.4736,-18.8503 L 17.3736,-18.9229 L 17.272,-18.9938
 L 17.1689,-19.0632 L 17.0642,-19.131 L 16.958,-19.1972 L 16.8503,-19.2618 L 16.7411,-19.3248 L 16.6303,-19.3862
 L 16.5179,-19.446 L 16.4041,-19.5042 L 16.2887,-19.5608 L 16.1718,-19.6158 L 16.0533,-19.6692 L 15.9333,-19.721
 L 15.8118,-19.7712 L 15.6887,-19.8198 L 15.5641,-19.8669 L 15.4379,-19.9123 L 15.3103,-19.9561 L 15.181,-19.9984
 L 15.0503,-20.039 L 14.918,-20.078 L 14.7842,-20.1155 L 14.6488,-20.1513 L 14.512,-20.1855 L 14.3735,-20.2182
 L 14.2336,-20.2492 L 14.0921,-20.2787 L 13.9491,-20.3065 L 13.8045,-20.3328 L 13.8045,-20.4925 L 13.9271,-20.5349
 L 14.0484,-20.5789 L 14.1686,-20.6243 L 14.2876,-20.6712 L 14.4053,-20.7197 L 14.5219,-20.7696 L 14.6373,-20.8211
 L 14.7515,-20.874 L 14.8645,-20.9285 L 14.9763,-20.9845 L 15.0869,-21.042 L 15.1963,-21.101 L 15.3045,-21.1615
 L 15.4115,-21.2236 L 15.5173,-21.2871 L 15.622,-21.3522 L 15.7254,-21.4187 L 15.8276,-21.4868 L 15.9287,-21.5564
 L 16.0285,-21.6274 L 16.1271,-21.7 L 16.2246,-21.7741 L 16.3208,-21.8497 L 16.4159,-21.9269 L 16.5098,-22.0055
 L 16.6024,-22.0856 L 16.6939,-22.1673 L 16.7841,-22.2504 L 16.8732,-22.3351 L 16.9611,-22.4213 L 17.0478,-22.509
 L 17.1333,-22.5982 L 17.2175,-22.6889 L 17.3006,-22.7811 L 17.3825,-22.8748 L 17.4632,-22.9701 L 17.5427,-23.0668
 L 17.621,-23.165 L 17.6982,-23.2648 L 17.7741,-23.3661 L 17.8488,-23.4689 L 17.9223,-23.5732 L 17.9947,-23.679
 L 18.0658,-23.7863 L 18.1357,-23.8951 L 18.2045,-24.0054 L 18.2719,-24.117 L 18.3378,-24.2296 L 18.4023,-24.3433
 L 18.4652,-24.458 L 18.5267,-24.5737 L 18.5867,-24.6905 L 18.6452,-24.8083 L 18.7023,-24.9271 L 18.7579,-25.0469
 L 18.8119,-25.1678 L 18.8645,-25.2897 L 18.9156,-25.4126 L 18.9653,-25.5366 L 19.0134,-25.6616 L 19.0601,-25.7877
 L 19.1053,-25.9147 L 19.149,-26.0428 L 19.1912,-26.172 L 19.232,-26.3021 L 19.2712,-26.4333 L 19.309,-26.5655
 L 19.3453,-26.6988 L 19.3801,-26.8331 L 19.4135,-26.9684 L 19.4453,-27.1047 L 19.4757,-27.2421 L 19.5046,-27.3805
 L 19.532,-27.52 L 19.5579,-27.6604 L 19.5824,-27.8019 L 19.6053,-27.9445 L 19.6268,-28.088 L 19.6468,-28.2326
 L 19.6654,-28.3783 L 19.6824,-28.5249 L 19.6979,-28.6726 L 19.712,-28.8213 L 19.7246,-28.9711 L 19.7357,-29.1219
 L 19.7454,-29.2737 L 19.7535,-29.4265 L 19.7602,-29.5804 L 19.7654,-29.7353 L 19.7691,-29.8913 L 19.7713,-30.0482
 L 19.772,-30.2062 L 19.7708,-30.3951 L 19.7673,-30.5821 L 19.7615,-30.7674 L 19.7533,-30.9508 L 19.7427,-31.1324
 L 19.7298,-31.3122 L 19.7145,-31.4902 L 19.6969,-31.6664 L 19.677,-31.8407 L 19.6547,-32.0133 L 19.63,-32.1841
 L 19.603,-32.353 L 19.5737,-32.5201 L 19.542,-32.6854 L 19.5079,-32.8489 L 19.4716,-33.0106 L 19.4328,-33.1705
 L 19.3918,-33.3286 L 19.3483,-33.4848 L 19.3026,-33.6393 L 19.2544,-33.7919 L 19.204,-33.9427 L 19.1512,-34.0918
 L 19.096,-34.239 L 19.0385,-34.3844 L 18.9786,-34.5279 L 18.9164,-34.6697 L 18.8519,-34.8097 L 18.785,-34.9478
 L 18.7157,-35.0842 L 18.6441,-35.2187 L 18.5702,-35.3514 L 18.4939,-35.4823 L 18.4153,-35.6114 L 18.3343,-35.7387
 L 18.251,-35.8642 L 18.1653,-35.9878 L 18.0773,-36.1097 L 17.9869,-36.2297 L 17.8942,-36.3479 L 17.7991,-36.4644
 L 17.7017,-36.579 L 17.6019,-36.6918 L 17.4998,-36.8027 L 17.3954,-36.9119 L 17.2885,-37.0193 L 17.1797,-37.1246
 L 17.0692,-37.2276 L 16.957,-37.3282 L 16.843,-37.4266 L 16.7274,-37.5227 L 16.6101,-37.6164 L 16.491,-37.7078
 L 16.3703,-37.7969 L 16.2478,-37.8837 L 16.1237,-37.9682 L 15.9978,-38.0503 L 15.8702,-38.1302 L 15.741,-38.2077
 L 15.61,-38.2829 L 15.4773,-38.3558 L 15.3429,-38.4264 L 15.2068,-38.4947 L 15.069,-38.5606 L 14.9295,-38.6243
 L 14.7883,-38.6856 L 14.6454,-38.7446 L 14.5008,-38.8013 L 14.3545,-38.8557 L 14.2065,-38.9078 L 14.0567,-38.9575
 L 13.9053,-39.005 L 13.7522,-39.0501 L 13.5973,-39.0929 L 13.4408,-39.1334 L 13.2825,-39.1716 L 13.1226,-39.2075
 L 12.9609,-39.241 L 12.7976,-39.2723 L 12.6325,-39.3012 L 12.4657,-39.3278 L 12.2972,-39.3521 L 12.1271,-39.3741
 L 11.9552,-39.3938 L 11.7816,-39.4111 L 11.6063,-39.4262 L 11.4293,-39.4389 L 11.2506,-39.4493 L 11.0702,-39.4574
 L 10.888,-39.4632 L 10.7042,-39.4667 L 10.5187,-39.4678 L 10.292,-39.466 L 10.0666,-39.4606 L 9.84259,-39.4515
 L 9.61998,-39.4388 L 9.39873,-39.4225 L 9.17885,-39.4026 L 8.96036,-39.3791 L 8.74323,-39.3519 L 8.52747,-39.3211
 L 8.3131,-39.2867 L 8.10008,-39.2487 L 7.88847,-39.207 L 7.67821,-39.1617 L 7.46933,-39.1129 L 7.26181,-39.0603
 L 7.05568,-39.0042 L 6.85094,-38.9444 L 6.64754,-38.881 L 6.44554,-38.814 L 6.2449,-38.7434 L 6.04564,-38.6691
 L 5.84775,-38.5912 L 5.65125,-38.5098 L 5.4561,-38.4246 L 5.26234,-38.3359 L 5.06995,-38.2435 L 4.87892,-38.1475
 L 4.6893,-38.0479 L 4.50102,-37.9447 L 4.31413,-37.8378 L 4.12862,-37.7273 L 3.94446,-37.6132 L 3.76169,-37.4955
 L 3.58031,-37.3742 L 3.40028,-37.2492 L 3.22163,-37.1206 L 3.04436,-36.9884 L 2.86845,-36.8526 L 2.69394,-36.7131
 L 2.52078,-36.57 L 2.349,-36.4233 L 2.1786,-36.273 L 2.00957,-36.1191 L 1.84192,-35.9615 L 1.67564,-35.8003
 L 1.51074,-35.6355 L 4.21115,-29.9668 L 4.28572,-30.0347 L 4.36,-30.1016 L 4.43398,-30.1677 L 4.50768,-30.2329
 L 4.58105,-30.2972 L 4.65416,-30.3606 L 4.72696,-30.4231 L 4.79947,-30.4848 L 4.87169,-30.5456 L 4.9436,-30.6055
 L 5.01523,-30.6645 L 5.08656,-30.7227 L 5.15759,-30.7799 L 5.22833,-30.8363 L 5.29878,-30.8918 L 5.36893,-30.9464
 L 5.43878,-31.0002 L 5.50835,-31.053 L 5.57761,-31.105 L 5.64659,-31.1561 L 5.71527,-31.2063 L 5.78366,-31.2557
 L 5.85175,-31.3041 L 5.91954,-31.3517 L 5.98705,-31.3984 L 6.05424,-31.4442 L 6.12115,-31.4892 L 6.18777,-31.5332
 L 6.2541,-31.5764 L 6.32013,-31.6187 L 6.38586,-31.6601 L 6.45131,-31.7006 L 6.51645,-31.7403 L 6.5813,-31.779
 L 6.64586,-31.8169 L 6.71011,-31.8539 L 6.77409,-31.8901 L 6.83775,-31.9253 L 6.90112,-31.9597 L 6.96422,-31.9932
 L 7.02701,-32.0258 L 7.08949,-32.0575 L 7.1517,-32.0883 L 7.21359,-32.1183 L 7.27521,-32.1474 L 7.33653,-32.1756
 L 7.39767,-32.203 L 7.45879,-32.2299 L 7.51984,-32.2562 L 7.58086,-32.2819 L 7.64182,-32.3069 L 7.70274,-32.3314
 L 7.76363,-32.3552 L 7.82445,-32.3785 L 7.88525,-32.4011 L 7.94598,-32.4232 L 8.0067,-32.4446 L 8.06735,-32.4655
 L 8.12796,-32.4857 L 8.18852,-32.5053 L 8.24905,-32.5243 L 8.30954,-32.5427 L 8.36996,-32.5606 L 8.43036,-32.5778
 L 8.49071,-32.5944 L 8.55099,-32.6104 L 8.61127,-32.6258 L 8.67148,-32.6406 L 8.73163,-32.6548 L 8.79176,-32.6684
 L 8.85185,-32.6814 L 8.91188,-32.6937 L 8.97186,-32.7055 L 9.03181,-32.7167 L 9.09172,-32.7272 L 9.15157,-32.7372
 L 9.21138,-32.7466 L 9.27115,-32.7553 L 9.33087,-32.7635 L 9.39055,-32.771 L 9.45018,-32.778 L 9.50977,-32.7843
 L 9.56932,-32.79 L 9.62881,-32.7952 L 9.68828,-32.7997 L 9.74768,-32.8036 L 9.80705,-32.807 L 9.86638,-32.8097
 L 9.92566,-32.8118 L 9.98489,-32.8133 L 10.0441,-32.8142 L 10.1032,-32.8145 L 10.2721,-32.8124 L 10.4373,-32.8062
 L 10.5989,-32.7957 L 10.7566,-32.7811 L 10.9107,-32.7623 L 11.0611,-32.7393 L 11.2077,-32.7122 L 11.3507,-32.6809
 L 11.4899,-32.6454 L 11.6254,-32.6057 L 11.7572,-32.5619 L 11.8853,-32.5139 L 12.0097,-32.4617 L 12.1303,-32.4053
 L 12.2473,-32.3447 L 12.3605,-32.28 L 12.47,-32.2111 L 12.5758,-32.138 L 12.6779,-32.0608 L 12.7763,-31.9794
 L 12.871,-31.8938 L 12.9619,-31.804 L 13.0492,-31.71 L 13.1327,-31.6119 L 13.2125,-31.5096 L 13.2887,-31.4031
 L 13.361,-31.2924 L 13.4297,-31.1776 L 13.4947,-31.0586 L 13.556,-30.9354 L 13.6135,-30.8081 L 13.6673,-30.6765
 L 13.7175,-30.5408 L 13.7639,-30.4009 L 13.8066,-30.2569 L 13.8456,-30.1086 L 13.8808,-29.9562 L 13.9124,-29.7997
 L 13.9402,-29.6389 L 13.9643,-29.474 L 13.9848,-29.3048 L 14.0015,-29.1315 L 14.0145,-28.9541 L 14.0237,-28.7724
 L 14.0293,-28.5866 L 14.0312,-28.3966 L 14.0305,-28.2724 L 14.0284,-28.1499 L 14.0249,-28.0289 L 14.02,-27.9095
 L 14.0137,-27.7917 L 14.006,-27.6755 L 13.9968,-27.5609 L 13.9863,-27.448 L 13.9744,-27.3365 L 13.9611,-27.2267
 L 13.9464,-27.1186 L 13.9303,-27.0119 L 13.9128,-26.907 L 13.8938,-26.8035 L 13.8735,-26.7017 L 13.8518,-26.6015
 L 13.8287,-26.5029 L 13.8042,-26.4059 L 13.7782,-26.3105 L 13.7509,-26.2166 L 13.7222,-26.1244 L 13.692,-26.0338
 L 13.6605,-25.9447 L 13.6276,-25.8573 L 13.5933,-25.7715 L 13.5575,-25.6872 L 13.5204,-25.6046 L 13.4819,-25.5235
 L 13.4419,-25.4441 L 13.4006,-25.3662 L 13.3578,-25.29 L 13.3137,-25.2153 L 13.2681,-25.1423 L 13.2212,-25.0708
 L 13.1729,-25.0009 L 13.1231,-24.9327 L 13.072,-24.866 L 13.0194,-24.8009 L 12.9655,-24.7374 L 12.9101,-24.6756
 L 12.8533,-24.6153 L 12.7952,-24.5566 L 12.7356,-24.4995 L 12.6747,-24.444 L 12.6123,-24.3901 L 12.5486,-24.3378
 L 12.4833,-24.2869 L 12.4164,-24.2371 L 12.3479,-24.1884 L 12.2777,-24.1409 L 12.2059,-24.0944 L 12.1325,-24.0491
 L 12.0574,-24.0049 L 11.9807,-23.9618 L 11.9024,-23.9198 L 11.8224,-23.879 L 11.7408,-23.8392 L 11.6576,-23.8006
 L 11.5727,-23.7632 L 11.4862,-23.7268 L 11.3981,-23.6915 L 11.3083,-23.6574 L 11.2169,-23.6244 L 11.1239,-23.5925
 L 11.0292,-23.5617 L 10.9329,-23.532 L 10.835,-23.5035 L 10.7354,-23.4761 L 10.6342,-23.4498 L 10.5314,-23.4246
 L 10.4269,-23.4006 L 10.3208,-23.3776 L 10.2131,-23.3558 L 10.1037,-23.3351 L 9.99274,-23.3155 L 9.8801,-23.297
 L 9.76584,-23.2797 L 9.64993,-23.2634 L 9.53241,-23.2483 L 9.41325,-23.2344 L 9.29245,-23.2215 L 9.17003,-23.2097
 L 9.04596,-23.1991 L 8.92026,-23.1896 L 8.79294,-23.1812 L 8.66397,-23.1739 L 8.53337,-23.1678 L 8.40114,-23.1627
 L 8.26727,-23.1588 L 8.13177,-23.156 L 7.99466,-23.1543 L 7.8559,-23.1538 L 5.72191,-23.1538 L 5.72191,-16.8462
 L 7.81802,-16.8462 L 7.9682,-16.8457 L 8.11661,-16.844 L 8.26323,-16.8413 L 8.40807,-16.8376 L 8.5511,-16.8327
 L 8.69237,-16.8267 L 8.83185,-16.8197 L 8.96954,-16.8116 L 9.10545,-16.8024 L 9.23958,-16.7921 L 9.37192,-16.7808
 L 9.50246,-16.7683 L 9.63124,-16.7548 L 9.75821,-16.7402 L 9.88341,-16.7245 L 10.0068,-16.7078 L 10.1284,-16.6899
 L 10.2483,-16.671 L 10.3663,-16.651 L 10.4826,-16.6299 L 10.5971,-16.6077 L 10.7098,-16.5844 L 10.8207,-16.5601
 L 10.9299,-16.5347 L 11.0372,-16.5082 L 11.1428,-16.4806 L 11.2465,-16.4519 L 11.3485,-16.4222 L 11.4487,-16.3914
 L 11.5471,-16.3595 L 11.6438,-16.3265 L 11.7386,-16.2924 L 11.8317,-16.2572 L 11.923,-16.221 L 12.0125,-16.1837
 L 12.1002,-16.1453 L 12.1861,-16.1058 L 12.2702,-16.0652 L 12.3526,-16.0236 L 12.4332,-15.9809 L 12.512,-15.9371
 L 12.589,-15.8922 L 12.6642,-15.8462 L 12.7376,-15.7991 L 12.8092,-15.751 L 12.8791,-15.7018 L 12.9473,-15.6513
 L 13.014,-15.5993 L 13.0793,-15.5457 L 13.143,-15.4907 L 13.2052,-15.4342 L 13.2659,-15.3761 L 13.3251,-15.3165
 L 13.3829,-15.2555 L 13.4391,-15.1929 L 13.4938,-15.1288 L 13.547,-15.0632 L 13.5988,-14.9961 L 13.649,-14.9274
 L 13.6977,-14.8573 L 13.7449,-14.7857 L 13.7906,-14.7125 L 13.8349,-14.6379 L 13.8776,-14.5617 L 13.9188,-14.4841
 L 13.9586,-14.4049 L 13.9968,-14.3242 L 14.0335,-14.242 L 14.0688,-14.1583 L 14.1025,-14.073 L 14.1347,-13.9863
 L 14.1655,-13.8981 L 14.1947,-13.8083 L 14.2224,-13.7171 L 14.2487,-13.6243 L 14.2734,-13.53 L 14.2967,-13.4343
 L 14.3184,-13.337 L 14.3386,-13.2382 L 14.3574,-13.1379 L 14.3746,-13.0361 L 14.3904,-12.9327 L 14.4046,-12.8279
 L 14.4173,-12.7216 L 14.4286,-12.6137 L 14.4383,-12.5043 L 14.4466,-12.3935 L 14.4533,-12.2811 L 14.4586,-12.1672
 L 14.4623,-12.0518 L 14.4646,-11.9349 L 14.4653,-11.8165 L 14.4647,-11.6842 L 14.4627,-11.5535 L 14.4595,-11.4244
 L 14.4549,-11.2968 L 14.449,-11.1709 L 14.4419,-11.0466 L 14.4334,-10.9238 L 14.4236,-10.8026 L 14.4126,-10.683
 L 14.4002,-10.565 L 14.3865,-10.4485 L 14.3715,-10.3337 L 14.3552,-10.2204 L 14.3376,-10.1087 L 14.3187,-9.99863
 L 14.2986,-9.89012 L 14.2771,-9.7832 L 14.2542,-9.67786 L 14.2301,-9.57411 L 14.2047,-9.47194 L 14.178,-9.37137
 L 14.15,-9.27235 L 14.1207,-9.17494 L 14.0901,-9.07912 L 14.0582,-8.98486 L 14.0249,-8.89221 L 13.9904,-8.80115
 L 13.9546,-8.71165 L 13.9174,-8.62375 L 13.879,-8.53743 L 13.8393,-8.4527 L 13.7982,-8.36954 L 13.7559,-8.28798
 L 13.7122,-8.20801 L 13.6673,-8.12962 L 13.621,-8.0528 L 13.5735,-7.97758 L 13.5246,-7.90395 L 13.4745,-7.83189
 L 13.423,-7.76141 L 13.3702,-7.69254 L 13.3162,-7.62524 L 13.2608,-7.55954 L 13.2041,-7.49539 L 13.1461,-7.43286
 L 13.0869,-7.3719 L 13.0262,-7.31239 L 12.9641,-7.25418 L 12.9006,-7.1973 L 12.8357,-7.14171 L 12.7693,-7.08742
 L 12.7015,-7.03445 L 12.6323,-6.98279 L 12.5617,-6.93243 L 12.4896,-6.88338 L 12.4161,-6.83563 L 12.3412,-6.78922
 L 12.2648,-6.74409 L 12.187,-6.70027 L 12.1078,-6.65778 L 12.0272,-6.61656 L 11.9451,-6.57668 L 11.8616,-6.53809
 L 11.7767,-6.50081 L 11.6903,-6.46484 L 11.6025,-6.43018 L 11.5133,-6.39682 L 11.4227,-6.36479 L 11.3306,-6.33405
 L 11.2371,-6.30461 L 11.1422,-6.2765 L 11.0459,-6.24969 L 10.9481,-6.22418 L 10.8489,-6.19998 L 10.7482,-6.17709
 L 10.6461,-6.15552 L 10.5427,-6.13524 L 10.4377,-6.11629 L 10.3314,-6.09862 L 10.2236,-6.08226 L 10.1144,-6.06721
 L 10.0038,-6.0535 L 9.89171,-6.04106 L 9.77821,-6.02994 L 9.6633,-6.02014 L 9.54695,-6.01163 L 9.42917,-6.00444
 L 9.30997,-5.99857 L 9.18933,-5.99399 L 9.06728,-5.99072 L 8.94379,-5.98874 L 8.81888,-5.9881 L 8.73676,-5.98843
 L 8.6546,-5.98946 L 8.5724,-5.99115 L 8.49017,-5.99353 L 8.40791,-5.99658 L 8.32561,-6.00032 L 8.24329,-6.00473
 L 8.1609,-6.00984 L 8.07849,-6.01559 L 7.99606,-6.02205 L 7.91357,-6.02919 L 7.83105,-6.03699 L 7.7485,-6.04549
 L 7.66592,-6.05466 L 7.58331,-6.06451 L 7.50064,-6.07504 L 7.41794,-6.08623 L 7.33522,-6.09811 L 7.25246,-6.1107
 L 7.16965,-6.12393 L 7.08682,-6.13785 L 7.00394,-6.15247 L 6.92104,-6.16774 L 6.83809,-6.18372 L 6.75511,-6.20035
 L 6.67209,-6.21767 L 6.58904,-6.23566 L 6.50597,-6.25435 L 6.42284,-6.2737 L 6.33968,-6.29373 L 6.25648,-6.31445
 L 6.17325,-6.33585 L 6.08998,-6.35791 L 6.00668,-6.38068 L 5.92334,-6.4041 L 5.83997,-6.42822 L 5.75656,-6.453
 L 5.67311,-6.47847 L 5.58965,-6.50462 L 5.50612,-6.53146 L 5.42256,-6.55896 L 5.33897,-6.58714 L 5.25536,-6.61601
 L 5.17169,-6.64555 L 5.088,-6.67578 L 5.00426,-6.70668 L 4.92067,-6.73813 L 4.83737,-6.76997 L 4.75438,-6.80223
 L 4.67169,-6.83487 L 4.58931,-6.86794 L 4.50722,-6.9014 L 4.42545,-6.93524 L 4.34398,-6.96951 L 4.2628,-7.00417
 L 4.18195,-7.03923 L 4.10138,-7.07471 L 4.02112,-7.11058 L 3.94116,-7.14685 L 3.86151,-7.18352 L 3.78217,-7.22061
 L 3.70311,-7.25809 L 3.62437,-7.29597 L 3.54593,-7.33426 L 3.4678,-7.37296 L 3.38997,-7.41203 L 3.31244,-7.45154
 L 3.23521,-7.49142 L 3.15829,-7.53174 L 3.08167,-7.57242 L 3.00536,-7.61354 L 2.92935,-7.65503 L 2.85365,-7.69696
 L 2.77824,-7.73926 L 2.70314,-7.78198 L 2.62834,-7.82509 L 2.55385,-7.86861 L 2.47966,-7.91252 L 2.40578,-7.95685
 L 2.33218,-8.00157 L 2.25891,-8.04671 L 2.18593,-8.09224 L 2.11325,-8.13817 L 2.04089,-8.18449 L 1.96883,-8.23125
 L 1.89706,-8.27838 L 1.82561,-8.32593 L 1.75444,-8.37387 L 1.68361,-8.42223 L 1.61305,-8.47098 L 1.5428,-8.52013
 L 1.47285,-8.56967 L 1.47285,-1.57021 L 1.62444,-1.4798 L 1.77696,-1.39136 L 1.93044,-1.30493 L 2.0849,-1.22046
 L 2.24033,-1.138 L 2.3967,-1.05751 L 2.55405,-0.979034 L 2.71234,-0.902527 L 2.87163,-0.828018 L 3.03186,-0.755478
 L 3.19305,-0.684937 L 3.35522,-0.616379 L 3.51834,-0.549805 L 3.68243,-0.485229 L 3.84749,-0.422638 L 4.0135,-0.362015
 L 4.18048,-0.303406 L 4.34843,-0.24678 L 4.51733,-0.192123 L 4.68721,-0.139465 L 4.85805,-0.0888062 L 5.02985,-0.0401154
 L 5.20261,0.00656128 L 5.37634,0.0512695 L 5.55103,0.0939941 L 5.72667,0.134735 L 5.90329,0.173477 L 6.08087,0.210251
 L 6.25941,0.24501 L 6.43893,0.277817 L 6.6194,0.308609 L 6.80084,0.337402 L 6.98323,0.364243 L 7.1666,0.389084
 L 7.35092,0.411942 L 7.53621,0.4328 L 7.72247,0.451691 L 7.90968,0.468567 L 8.09787,0.483475 L 8.28702,0.496384
 L 8.47711,0.507309 L 8.6682,0.516251 L 8.86023,0.523209 L 9.05322,0.528183 L 9.24719,0.531158 L 9.44211,0.53215
 z
M 30.2657,-18.0974 L 30.2655,-18.2357 L 30.265,-18.3799 L 30.2641,-18.5299 L 30.263,-18.6858 L 30.2614,-18.8475
 L 30.2596,-19.0151 L 30.2574,-19.1886 L 30.2548,-19.368 L 30.2519,-19.5532 L 30.2487,-19.7442 L 30.2451,-19.9411
 L 30.2412,-20.1439 L 30.237,-20.3526 L 30.2324,-20.5671 L 30.2275,-20.7874 L 30.2222,-21.0136 L 30.2166,-21.2457
 L 30.2107,-21.4837 L 30.2044,-21.7275 L 30.1978,-21.9772 L 30.1909,-22.2327 L 30.1836,-22.4941 L 30.1759,-22.7613
 L 30.168,-23.0344 L 30.1596,-23.3134 L 30.151,-23.5982 L 30.142,-23.8889 L 30.1327,-24.1855 L 30.123,-24.4879
 L 30.113,-24.7962 L 30.1026,-25.1103 L 30.092,-25.4303 L 30.0809,-25.7562 L 30.0696,-26.0879 L 30.0579,-26.4255
 L 30.0458,-26.7689 L 30.0334,-27.1182 L 30.0207,-27.4734 L 30.0076,-27.8344 L 29.9942,-28.2013 L 29.9805,-28.574
 L 29.9664,-28.9527 L 29.952,-29.3371 L 29.9372,-29.7275 L 29.9221,-30.1236 L 29.9067,-30.5257 L 30.0766,-30.5257
 L 36.7239,-0 L 42.0871,-0 L 49.2067,-30.4723 L 49.3766,-30.4723 L 49.3573,-29.8443 L 49.3387,-29.2375
 L 49.3208,-28.6522 L 49.3122,-28.3675 L 49.2955,-27.8141 L 49.2795,-27.282 L 49.2718,-27.024 L 49.257,-26.5239
 L 49.2429,-26.0452 L 49.2296,-25.5878 L 49.217,-25.1517 L 49.211,-24.9417 L 49.1995,-24.5376 L 49.1888,-24.1548
 L 49.1837,-23.9715 L 49.1741,-23.6207 L 49.1696,-23.4533 L 49.1611,-23.1346 L 49.1572,-22.9832 L 49.1498,-22.6964
 L 49.1464,-22.5611 L 49.1432,-22.431 L 49.1374,-22.1869 L 49.1348,-22.0729 L 49.1323,-21.9641 L 49.13,-21.8608
 L 49.1279,-21.7627 L 49.1261,-21.67 L 49.1244,-21.5826 L 49.1228,-21.5005 L 49.1215,-21.4238 L 49.1191,-21.2765
 L 49.1168,-21.1306 L 49.1147,-20.9863 L 49.1126,-20.8435 L 49.1106,-20.7021 L 49.1087,-20.5623 L 49.107,-20.424
 L 49.1053,-20.2872 L 49.1038,-20.152 L 49.1024,-20.0182 L 49.101,-19.8859 L 49.0998,-19.7552 L 49.0987,-19.6259
 L 49.0977,-19.4982 L 49.0968,-19.3719 L 49.096,-19.2472 L 49.0953,-19.124 L 49.0947,-19.0023 L 49.0942,-18.8821
 L 49.0939,-18.7634 L 49.0936,-18.6463 L 49.0934,-18.4733 L 49.0934,-0 L 54.5508,-0 L 54.5508,-38.909
 L 46.5818,-38.909 L 39.651,-9.15523 L 39.5379,-9.15523 L 33.0037,-38.909 L 25.0347,-38.909 L 25.0347,-0
 L 30.2657,-0 z
M 66.4075,-15.3827 L 75.7742,-15.3827 L 75.7742,-22.1157 L 66.4075,-22.1157 L 66.4075,-32.1493 L 76.4729,-32.1493
 L 76.4729,-38.909 L 60.648,-38.909 L 60.648,-0 L 66.4075,-0 z
" stroke="black" fill="black" stroke-width="0.5"/>
</svg>
