<?xml version="1.0" standalone="no"?>
<!DOCTYPE svg PUBLIC "-//W3C//DTD SVG 1.1//EN" "http://www.w3.org/Graphics/SVG/1.1/DTD/svg11.dtd">
<svg width="100mm" height="100mm" viewBox="-8 -108 116 116" xmlns="http://www.w3.org/2000/svg" version="1.1">
<title>OpenSCAD Model</title>
<path d="
M 84.1993,-0.00497437 L 84.3984,-0.0149078 L 84.5973,-0.0298004 L 84.7955,-0.0546417 L 84.9926,-0.0843658 L 85.1891,-0.119003
 L 85.3832,-0.163315 L 85.5764,-0.212509 L 85.7684,-0.266525 L 85.9575,-0.330063 L 86.1449,-0.398254 L 86.3306,-0.471115
 L 86.5125,-0.553223 L 86.6922,-0.63974 L 86.8696,-0.730728 L 87.0423,-0.830399 L 87.2124,-0.934357 L 87.3799,-1.04256
 L 87.5419,-1.15901 L 87.7008,-1.2794 L 87.8568,-1.40376 L 88.0063,-1.53571 L 88.1524,-1.67133 L 88.2952,-1.81058
 L 88.4308,-1.95677 L 88.5628,-2.10626 L 88.691,-2.25905 L 88.8113,-2.41792 L 88.9277,-2.5798 L 89.0401,-2.74458
 L 89.1443,-2.9151 L 89.244,-3.08778 L 89.3393,-3.26295 L 89.4258,-3.44243 L 89.5078,-3.62416 L 89.5852,-3.80795
 L 89.6534,-3.99522 L 89.7169,-4.18422 L 89.7757,-4.3748 L 89.825,-4.56818 L 89.8693,-4.76257 L 89.9088,-4.95807
 L 89.9386,-5.15555 L 89.9634,-5.35338 L 89.9832,-5.55183 L 89.9916,-5.70078 L 89.9972,-5.85023 L 90,-6
 L 90,-94 L 89.995,-94.1993 L 89.9851,-94.3984 L 89.9702,-94.5973 L 89.9454,-94.7955 L 89.9156,-94.9926
 L 89.881,-95.1891 L 89.8367,-95.3832 L 89.7875,-95.5764 L 89.7335,-95.7684 L 89.6699,-95.9575 L 89.6017,-96.1449
 L 89.5289,-96.3306 L 89.4468,-96.5125 L 89.3603,-96.6922 L 89.2693,-96.8696 L 89.1696,-97.0423 L 89.0656,-97.2124
 L 88.9574,-97.3799 L 88.841,-97.5419 L 88.7206,-97.7008 L 88.5962,-97.8568 L 88.4643,-98.0063 L 88.3287,-98.1524
 L 88.1894,-98.2952 L 88.0432,-98.4308 L 87.8937,-98.5628 L 87.741,-98.691 L 87.5821,-98.8113 L 87.4202,-98.9277
 L 87.2554,-99.0401 L 87.0849,-99.1443 L 86.9122,-99.244 L 86.737,-99.3393 L 86.5576,-99.4258 L 86.3758,-99.5078
 L 86.192,-99.5852 L 86.0048,-99.6534 L 85.8158,-99.7169 L 85.6252,-99.7757 L 85.4318,-99.825 L 85.2374,-99.8693
 L 85.0419,-99.9088 L 84.8445,-99.9386 L 84.6466,-99.9634 L 84.4482,-99.9832 L 84.2992,-99.9916 L 84.1498,-99.9972
 L 84,-100 L 36,-100 L 10,-74 L 10,-50 L 14,-50 L 14,-70
 L 34,-70 L 34.1993,-70.005 L 34.3984,-70.0149 L 34.5973,-70.0298 L 34.7955,-70.0546 L 34.9926,-70.0844
 L 35.1891,-70.119 L 35.3832,-70.1633 L 35.5764,-70.2125 L 35.7684,-70.2665 L 35.9575,-70.3301 L 36.1449,-70.3983
 L 36.3306,-70.4711 L 36.5125,-70.5532 L 36.6922,-70.6397 L 36.8696,-70.7307 L 37.0423,-70.8304 L 37.2124,-70.9344
 L 37.3799,-71.0426 L 37.5419,-71.159 L 37.7008,-71.2794 L 37.8568,-71.4038 L 38.0063,-71.5357 L 38.1524,-71.6713
 L 38.2952,-71.8106 L 38.4308,-71.9568 L 38.5628,-72.1063 L 38.691,-72.259 L 38.8113,-72.4179 L 38.9277,-72.5798
 L 39.0401,-72.7446 L 39.1443,-72.9151 L 39.244,-73.0878 L 39.3393,-73.263 L 39.4258,-73.4424 L 39.5078,-73.6242
 L 39.5852,-73.808 L 39.6534,-73.9952 L 39.7169,-74.1842 L 39.7757,-74.3748 L 39.825,-74.5682 L 39.8693,-74.7626
 L 39.9088,-74.9581 L 39.9386,-75.1555 L 39.9634,-75.3534 L 39.9832,-75.5518 L 39.9916,-75.7008 L 39.9972,-75.8502
 L 40,-76 L 40,-96 L 84,-96 L 84.1495,-95.9944 L 84.3473,-95.9696 L 84.5417,-95.9252
 L 84.7307,-95.8617 L 84.9124,-95.7797 L 85.0851,-95.6801 L 85.247,-95.5637 L 85.3965,-95.4317 L 85.5321,-95.2856
 L 85.6525,-95.1266 L 85.7564,-94.9565 L 85.843,-94.7769 L 85.9111,-94.5895 L 85.9603,-94.3963 L 85.9901,-94.1991
 L 86,-94 L 86,-6 L 85.9944,-5.85054 L 85.9696,-5.65271 L 85.9252,-5.45831 L 85.8617,-5.26932
 L 85.7797,-5.08759 L 85.6801,-4.9149 L 85.5637,-4.75302 L 85.4317,-4.60353 L 85.2856,-4.46791 L 85.1266,-4.34752
 L 84.9565,-4.24356 L 84.7769,-4.15704 L 84.5895,-4.08885 L 84.3963,-4.03966 L 84.1991,-4.00993 L 84,-4
 L 80,-4 L 80,-0 L 84,-0 z
M 12.6235,-0.00247192 L 12.9646,-0.00991821 L 13.3021,-0.0223236 L 13.6361,-0.0397034 L 13.9665,-0.0620422 L 14.2934,-0.0893555
 L 14.6168,-0.121628 L 14.9366,-0.158875 L 15.2529,-0.20108 L 15.5656,-0.248245 L 15.8748,-0.300369 L 16.1805,-0.357483
 L 16.4826,-0.419525 L 16.7811,-0.486557 L 17.0762,-0.558563 L 17.3677,-0.635513 L 17.6556,-0.717438 L 17.94,-0.804337
 L 18.2208,-0.896179 L 18.4982,-0.993011 L 18.7719,-1.09479 L 19.0422,-1.20154 L 19.3089,-1.31325 L 19.572,-1.42993
 L 19.8316,-1.55157 L 20.0877,-1.67819 L 20.3402,-1.80975 L 20.5892,-1.9463 L 20.8346,-2.0878 L 21.0765,-2.23428
 L 21.3149,-2.38571 L 21.5497,-2.54211 L 21.7809,-2.70349 L 22.0087,-2.86981 L 22.2328,-3.04111 L 22.4535,-3.21738
 L 22.6706,-3.39861 L 22.8842,-3.58478 L 23.0942,-3.77594 L 23.3007,-3.97206 L 23.5036,-4.17314 L 23.703,-4.3792
 L 23.8988,-4.59023 L 24.0911,-4.8062 L 24.2799,-5.02715 L 24.4651,-5.25305 L 24.6466,-5.48364 L 24.8241,-5.71858
 L 24.9976,-5.95792 L 25.1671,-6.2016 L 25.3326,-6.44965 L 25.4941,-6.70209 L 25.6517,-6.95888 L 25.8052,-7.22005
 L 25.9548,-7.48561 L 26.1004,-7.75551 L 26.242,-8.0298 L 26.3796,-8.30844 L 26.5132,-8.59146 L 26.6428,-8.87886
 L 26.7684,-9.17062 L 26.8901,-9.46675 L 27.0077,-9.76726 L 27.1214,-10.0721 L 27.2311,-10.3814 L 27.3368,-10.695
 L 27.4385,-11.013 L 27.5362,-11.3353 L 27.6299,-11.662 L 27.7197,-11.9931 L 27.8054,-12.3286 L 27.8872,-12.6684
 L 27.965,-13.0126 L 28.0387,-13.3612 L 28.1086,-13.7142 L 28.1743,-14.0715 L 28.2362,-14.4332 L 28.294,-14.7992
 L 28.3479,-15.1696 L 28.3977,-15.5444 L 28.4436,-15.9236 L 28.4855,-16.3071 L 28.5233,-16.6951 L 28.5572,-17.0873
 L 28.5872,-17.484 L 28.6131,-17.885 L 28.635,-18.2904 L 28.653,-18.7001 L 28.6669,-19.1143 L 28.6769,-19.5328
 L 28.6829,-19.9556 L 28.6849,-20.3829 L 28.683,-20.7842 L 28.6772,-21.1817 L 28.6676,-21.5752 L 28.6541,-21.9649
 L 28.6368,-22.3507 L 28.6157,-22.7327 L 28.5907,-23.1107 L 28.5619,-23.4849 L 28.5292,-23.8552 L 28.4927,-24.2216
 L 28.4524,-24.5841 L 28.4082,-24.9428 L 28.3602,-25.2975 L 28.3083,-25.6485 L 28.2526,-25.9955 L 28.193,-26.3386
 L 28.1296,-26.6779 L 28.0623,-27.0132 L 27.9913,-27.3447 L 27.9163,-27.6724 L 27.8375,-27.9961 L 27.7549,-28.316
 L 27.6685,-28.6319 L 27.5782,-28.9441 L 27.484,-29.2523 L 27.386,-29.5566 L 27.2842,-29.8571 L 27.1785,-30.1537
 L 27.069,-30.4464 L 26.9556,-30.7352 L 26.8384,-31.0201 L 26.7174,-31.3012 L 26.5925,-31.5784 L 26.4638,-31.8517
 L 26.3312,-32.1211 L 26.1948,-32.3867 L 26.0545,-32.6484 L 25.9104,-32.9062 L 25.7625,-33.16 L 25.6107,-33.4101
 L 25.455,-33.6562 L 25.2956,-33.8985 L 25.1323,-34.1369 L 24.9651,-34.3714 L 24.7941,-34.6021 L 24.6193,-34.8288
 L 24.4409,-35.0512 L 24.2595,-35.2687 L 24.075,-35.4813 L 23.8873,-35.689 L 23.6966,-35.8919 L 23.5028,-36.0898
 L 23.3058,-36.2829 L 23.1058,-36.4711 L 22.9026,-36.6544 L 22.6963,-36.8328 L 22.487,-37.0063 L 22.2745,-37.1749
 L 22.0589,-37.3386 L 21.8402,-37.4975 L 21.6184,-37.6515 L 21.3935,-37.8005 L 21.1655,-37.9447 L 20.9344,-38.084
 L 20.7002,-38.2184 L 20.4629,-38.348 L 20.2225,-38.4726 L 19.9789,-38.5923 L 19.7323,-38.7072 L 19.4826,-38.8172
 L 19.2297,-38.9222 L 18.9738,-39.0224 L 18.7147,-39.1178 L 18.4526,-39.2082 L 18.1873,-39.2937 L 17.9189,-39.3744
 L 17.6475,-39.4501 L 17.3729,-39.521 L 17.0952,-39.587 L 16.8144,-39.6481 L 16.5305,-39.7043 L 16.2435,-39.7556
 L 15.9534,-39.802 L 15.6602,-39.8436 L 15.3639,-39.8802 L 15.0645,-39.912 L 14.7619,-39.9389 L 14.4563,-39.9609
 L 14.1476,-39.978 L 13.8357,-39.9902 L 13.5208,-39.9975 L 13.2027,-40 L 3.77826,-40 L 3.77826,-0
 L 12.2789,-0 z
M 10.1433,-7.00407 L 10.1433,-33.0508 L 13.5312,-33.0508 L 13.8986,-33.0447 L 14.2579,-33.0264 L 14.6091,-32.9959
 L 14.9522,-32.9533 L 15.2872,-32.8985 L 15.6142,-32.8315 L 15.9331,-32.7523 L 16.244,-32.661 L 16.5467,-32.5575
 L 16.8414,-32.4418 L 17.128,-32.3139 L 17.4065,-32.1738 L 17.677,-32.0215 L 17.9394,-31.8571 L 18.1937,-31.6805
 L 18.44,-31.4917 L 18.6781,-31.2907 L 18.9082,-31.0776 L 19.1302,-30.8522 L 19.3442,-30.6147 L 19.5501,-30.3651
 L 19.7479,-30.1032 L 19.9376,-29.8291 L 20.1193,-29.5429 L 20.2928,-29.2445 L 20.4583,-28.9339 L 20.6158,-28.6111
 L 20.7652,-28.2762 L 20.9064,-27.929 L 21.0396,-27.5697 L 21.1648,-27.1982 L 21.2819,-26.8145 L 21.3908,-26.4187
 L 21.4918,-26.0107 L 21.5846,-25.5904 L 21.6694,-25.1581 L 21.7461,-24.7135 L 21.8147,-24.2567 L 21.8753,-23.7878
 L 21.9277,-23.3067 L 21.9722,-22.8134 L 22.0085,-22.3079 L 22.0367,-21.7902 L 22.0569,-21.2604 L 22.069,-20.7184
 L 22.0731,-20.1642 L 22.0687,-19.5982 L 22.0557,-19.0447 L 22.0339,-18.5036 L 22.0035,-17.975 L 21.9644,-17.4588
 L 21.9166,-16.955 L 21.86,-16.4637 L 21.7948,-15.9848 L 21.7209,-15.5183 L 21.6383,-15.0643 L 21.547,-14.6228
 L 21.4471,-14.1936 L 21.3384,-13.7769 L 21.221,-13.3727 L 21.0949,-12.9809 L 20.9602,-12.6015 L 20.8167,-12.2345
 L 20.6645,-11.8801 L 20.5037,-11.538 L 20.3341,-11.2084 L 20.1559,-10.8912 L 19.969,-10.5864 L 19.7733,-10.2941
 L 19.569,-10.0143 L 19.356,-9.74681 L 19.1343,-9.49182 L 18.9039,-9.24925 L 18.6648,-9.01915 L 18.417,-8.80147
 L 18.1605,-8.59622 L 17.8953,-8.40343 L 17.6214,-8.22307 L 17.3389,-8.05515 L 17.0476,-7.89966 L 16.7476,-7.75662
 L 16.439,-7.62602 L 16.1216,-7.50784 L 15.7956,-7.40211 L 15.4608,-7.30882 L 15.1174,-7.22798 L 14.7653,-7.15956
 L 14.4044,-7.10359 L 14.0349,-7.06004 L 13.6567,-7.02896 L 13.2698,-7.0103 L 12.8742,-7.00407 z
M 44.1989,-15.1298 L 51.1802,-0 L 58.449,-0 L 48.3057,-20.1642 L 57.7302,-40 L 50.8722,-40
 L 44.5275,-25.6089 L 38.0595,-40 L 31.0371,-40 L 40.3592,-20.6294 L 30.4006,-0 L 37.2177,-0
 z
M 67.8341,-15.8141 L 78.0185,-15.8141 L 78.0185,-22.7359 L 67.8341,-22.7359 L 67.8341,-33.0508 L 78.7783,-33.0508
 L 78.7783,-40 L 61.5717,-40 L 61.5717,-0 L 67.8341,-0 z
" stroke="white" fill="white" stroke-width="0.5"/>
</svg>
