<?xml version="1.0" standalone="no"?>
<!DOCTYPE svg PUBLIC "-//W3C//DTD SVG 1.1//EN" "http://www.w3.org/Graphics/SVG/1.1/DTD/svg11.dtd">
<svg width="100mm" height="100mm" viewBox="-8 -108 116 116" xmlns="http://www.w3.org/2000/svg" version="1.1">
<title>OpenSCAD Model</title>
<path d="
M 84.1993,-0.00497437 L 84.3984,-0.0149078 L 84.5973,-0.0298004 L 84.7955,-0.0546417 L 84.9926,-0.0843658 L 85.1891,-0.119003
 L 85.3832,-0.163315 L 85.5764,-0.212509 L 85.7684,-0.266525 L 85.9575,-0.330063 L 86.1449,-0.398254 L 86.3306,-0.471115
 L 86.5125,-0.553223 L 86.6922,-0.63974 L 86.8696,-0.730728 L 87.0423,-0.830399 L 87.2124,-0.934357 L 87.3799,-1.04256
 L 87.5419,-1.15901 L 87.7008,-1.2794 L 87.8568,-1.40376 L 88.0063,-1.53571 L 88.1524,-1.67133 L 88.2952,-1.81058
 L 88.4308,-1.95677 L 88.5628,-2.10626 L 88.691,-2.25905 L 88.8113,-2.41792 L 88.9277,-2.5798 L 89.0401,-2.74458
 L 89.1443,-2.9151 L 89.244,-3.08778 L 89.3393,-3.26295 L 89.4258,-3.44243 L 89.5078,-3.62416 L 89.5852,-3.80795
 L 89.6534,-3.99522 L 89.7169,-4.18422 L 89.7757,-4.3748 L 89.825,-4.56818 L 89.8693,-4.76257 L 89.9088,-4.95807
 L 89.9386,-5.15555 L 89.9634,-5.35338 L 89.9832,-5.55183 L 89.9916,-5.70078 L 89.9972,-5.85023 L 90,-6
 L 90,-94 L 89.995,-94.1993 L 89.9851,-94.3984 L 89.9702,-94.5973 L 89.9454,-94.7955 L 89.9156,-94.9926
 L 89.881,-95.1891 L 89.8367,-95.3832 L 89.7875,-95.5764 L 89.7335,-95.7684 L 89.6699,-95.9575 L 89.6017,-96.1449
 L 89.5289,-96.3306 L 89.4468,-96.5125 L 89.3603,-96.6922 L 89.2693,-96.8696 L 89.1696,-97.0423 L 89.0656,-97.2124
 L 88.9574,-97.3799 L 88.841,-97.5419 L 88.7206,-97.7008 L 88.5962,-97.8568 L 88.4643,-98.0063 L 88.3287,-98.1524
 L 88.1894,-98.2952 L 88.0432,-98.4308 L 87.8937,-98.5628 L 87.741,-98.691 L 87.5821,-98.8113 L 87.4202,-98.9277
 L 87.2554,-99.0401 L 87.0849,-99.1443 L 86.9122,-99.244 L 86.737,-99.3393 L 86.5576,-99.4258 L 86.3758,-99.5078
 L 86.192,-99.5852 L 86.0048,-99.6534 L 85.8158,-99.7169 L 85.6252,-99.7757 L 85.4318,-99.825 L 85.2374,-99.8693
 L 85.0419,-99.9088 L 84.8445,-99.9386 L 84.6466,-99.9634 L 84.4482,-99.9832 L 84.2992,-99.9916 L 84.1498,-99.9972
 L 84,-100 L 36,-100 L 10,-74 L 10,-50 L 14,-50 L 14,-70
 L 34,-70 L 34.1993,-70.005 L 34.3984,-70.0149 L 34.5973,-70.0298 L 34.7955,-70.0546 L 34.9926,-70.0844
 L 35.1891,-70.119 L 35.3832,-70.1633 L 35.5764,-70.2125 L 35.7684,-70.2665 L 35.9575,-70.3301 L 36.1449,-70.3983
 L 36.3306,-70.4711 L 36.5125,-70.5532 L 36.6922,-70.6397 L 36.8696,-70.7307 L 37.0423,-70.8304 L 37.2124,-70.9344
 L 37.3799,-71.0426 L 37.5419,-71.159 L 37.7008,-71.2794 L 37.8568,-71.4038 L 38.0063,-71.5357 L 38.1524,-71.6713
 L 38.2952,-71.8106 L 38.4308,-71.9568 L 38.5628,-72.1063 L 38.691,-72.259 L 38.8113,-72.4179 L 38.9277,-72.5798
 L 39.0401,-72.7446 L 39.1443,-72.9151 L 39.244,-73.0878 L 39.3393,-73.263 L 39.4258,-73.4424 L 39.5078,-73.6242
 L 39.5852,-73.808 L 39.6534,-73.9952 L 39.7169,-74.1842 L 39.7757,-74.3748 L 39.825,-74.5682 L 39.8693,-74.7626
 L 39.9088,-74.9581 L 39.9386,-75.1555 L 39.9634,-75.3534 L 39.9832,-75.5518 L 39.9916,-75.7008 L 39.9972,-75.8502
 L 40,-76 L 40,-96 L 84,-96 L 84.1495,-95.9944 L 84.3473,-95.9696 L 84.5417,-95.9252
 L 84.7307,-95.8617 L 84.9124,-95.7797 L 85.0851,-95.6801 L 85.247,-95.5637 L 85.3965,-95.4317 L 85.5321,-95.2856
 L 85.6525,-95.1266 L 85.7564,-94.9565 L 85.843,-94.7769 L 85.9111,-94.5895 L 85.9603,-94.3963 L 85.9901,-94.1991
 L 86,-94 L 86,-6 L 85.9944,-5.85054 L 85.9696,-5.65271 L 85.9252,-5.45831 L 85.8617,-5.26932
 L 85.7797,-5.08759 L 85.6801,-4.9149 L 85.5637,-4.75302 L 85.4317,-4.60353 L 85.2856,-4.46791 L 85.1266,-4.34752
 L 84.9565,-4.24356 L 84.7769,-4.15704 L 84.5895,-4.08885 L 84.3963,-4.03966 L 84.1991,-4.00993 L 84,-4
 L 80,-4 L 80,-0 L 84,-0 z
M 68.8322,0.531921 L 68.9376,0.531219 L 69.0429,0.53006 L 69.148,0.528427 L 69.2531,0.526352 L 69.3581,0.523788
 L 69.463,0.520752 L 69.5678,0.517258 L 69.6725,0.513306 L 69.7772,0.508881 L 69.8817,0.503998 L 69.9861,0.498627
 L 70.0904,0.492828 L 70.1946,0.486542 L 70.2988,0.479782 L 70.4028,0.472565 L 70.5067,0.46489 L 70.6105,0.456741
 L 70.7143,0.44812 L 70.8179,0.439041 L 70.9214,0.429504 L 71.0249,0.419495 L 71.1282,0.409012 L 71.2315,0.398087
 L 71.3346,0.386673 L 71.4377,0.374802 L 71.5406,0.362473 L 71.6435,0.34967 L 71.7462,0.336411 L 71.8489,0.322662
 L 71.9515,0.308472 L 72.0539,0.293793 L 72.1563,0.278671 L 72.2586,0.263077 L 72.3607,0.247009 L 72.4628,0.230484
 L 72.5648,0.213501 L 72.6667,0.196045 L 72.7685,0.178116 L 72.8702,0.159729 L 72.9718,0.140869 L 73.0733,0.121552
 L 73.1747,0.101761 L 73.276,0.0815277 L 73.3772,0.0608063 L 73.4783,0.0396271 L 73.5795,0.0178833 L 73.681,-0.00453186
 L 73.7828,-0.0276642 L 73.8849,-0.0514832 L 73.9872,-0.0759888 L 74.0899,-0.101181 L 74.1929,-0.127075 L 74.2961,-0.153671
 L 74.3997,-0.180954 L 74.5035,-0.208908 L 74.6076,-0.237564 L 74.7121,-0.266922 L 74.8168,-0.296967 L 74.9218,-0.327713
 L 75.0271,-0.359131 L 75.1326,-0.391266 L 75.2385,-0.424057 L 75.3447,-0.457565 L 75.4511,-0.491776 L 75.5579,-0.526657
 L 75.6649,-0.562225 L 75.7722,-0.598511 L 75.8799,-0.635468 L 75.9878,-0.673126 L 76.096,-0.711472 L 76.2045,-0.750504
 L 76.3133,-0.790237 L 76.4223,-0.830658 L 76.5317,-0.871765 L 76.6414,-0.913589 L 76.7513,-0.95607 L 76.8616,-0.999268
 L 76.9721,-1.04315 L 77.0829,-1.08772 L 77.194,-1.13298 L 77.3054,-1.17896 L 77.4171,-1.2256 L 77.5291,-1.27293
 L 77.6414,-1.32097 L 77.754,-1.36969 L 77.8668,-1.41911 L 77.98,-1.46921 L 78.0934,-1.52002 L 78.2072,-1.5715
 L 78.3212,-1.62369 L 78.4355,-1.67656 L 78.4355,-21.8496 L 67.6064,-21.8496 L 67.6064,-14.9832 L 72.7784,-14.9832
 L 72.7784,-6.86642 L 72.6972,-6.84352 L 72.6161,-6.82112 L 72.5351,-6.79921 L 72.4541,-6.77782 L 72.3731,-6.75694
 L 72.2922,-6.73654 L 72.2114,-6.71666 L 72.1306,-6.69728 L 72.0499,-6.67842 L 71.9692,-6.66003 L 71.8886,-6.64217
 L 71.808,-6.6248 L 71.7275,-6.60793 L 71.647,-6.59158 L 71.5666,-6.57571 L 71.4862,-6.56036 L 71.4059,-6.54552
 L 71.3257,-6.53117 L 71.2455,-6.51732 L 71.1653,-6.50398 L 71.0852,-6.49115 L 71.0052,-6.47882 L 70.9252,-6.467
 L 70.8452,-6.45566 L 70.7654,-6.44485 L 70.6855,-6.43452 L 70.6057,-6.42471 L 70.526,-6.41541 L 70.4463,-6.40659
 L 70.3667,-6.39827 L 70.2872,-6.39047 L 70.2076,-6.38318 L 70.1282,-6.37639 L 70.0488,-6.3701 L 69.9694,-6.3643
 L 69.8901,-6.35902 L 69.8109,-6.35423 L 69.7317,-6.34996 L 69.6525,-6.34618 L 69.5735,-6.34291 L 69.4944,-6.34015
 L 69.4154,-6.33788 L 69.3365,-6.33612 L 69.2576,-6.33485 L 69.1788,-6.33411 L 69.1,-6.33386 L 68.9498,-6.33543
 L 68.8012,-6.34016 L 68.6541,-6.34807 L 68.5086,-6.35912 L 68.3646,-6.37331 L 68.2222,-6.39067 L 68.0814,-6.41119
 L 67.9421,-6.43486 L 67.8044,-6.4617 L 67.6683,-6.49168 L 67.5337,-6.52483 L 67.4006,-6.56113 L 67.2692,-6.6006
 L 67.1393,-6.6432 L 67.0109,-6.68898 L 66.8841,-6.73792 L 66.7589,-6.78999 L 66.6353,-6.84523 L 66.5132,-6.90364
 L 66.3926,-6.96519 L 66.2737,-7.02991 L 66.1563,-7.09778 L 66.0404,-7.16881 L 65.9261,-7.24298 L 65.8134,-7.32033
 L 65.7022,-7.40083 L 65.5926,-7.48447 L 65.4846,-7.57129 L 65.3781,-7.66125 L 65.2732,-7.75436 L 65.1698,-7.85066
 L 65.068,-7.95009 L 64.9678,-8.05269 L 64.8691,-8.15843 L 64.772,-8.26733 L 64.6765,-8.37941 L 64.5825,-8.49463
 L 64.4901,-8.61301 L 64.3992,-8.73454 L 64.3099,-8.85924 L 64.2222,-8.98708 L 64.136,-9.11809 L 64.0514,-9.25224
 L 63.9683,-9.38956 L 63.8868,-9.53003 L 63.8069,-9.67366 L 63.7286,-9.8203 L 63.6521,-9.96977 L 63.5772,-10.1221
 L 63.5041,-10.2772 L 63.4327,-10.4352 L 63.363,-10.596 L 63.2951,-10.7596 L 63.2288,-10.926 L 63.1643,-11.0953
 L 63.1015,-11.2674 L 63.0405,-11.4424 L 62.9811,-11.6201 L 62.9235,-11.8007 L 62.8676,-11.9842 L 62.8134,-12.1704
 L 62.7609,-12.3595 L 62.7101,-12.5514 L 62.6611,-12.7462 L 62.6138,-12.9438 L 62.5682,-13.1442 L 62.5243,-13.3474
 L 62.4822,-13.5535 L 62.4418,-13.7624 L 62.4031,-13.9741 L 62.3661,-14.1887 L 62.3308,-14.4061 L 62.2973,-14.6263
 L 62.2654,-14.8493 L 62.2353,-15.0752 L 62.2069,-15.3039 L 62.1803,-15.5354 L 62.1553,-15.7698 L 62.1321,-16.007
 L 62.1106,-16.247 L 62.0908,-16.4899 L 62.0727,-16.7356 L 62.0564,-16.9841 L 62.0418,-17.2355 L 62.0289,-17.4896
 L 62.0177,-17.7466 L 62.0082,-18.0065 L 62.0005,-18.2691 L 61.9945,-18.5347 L 61.9902,-18.803 L 61.9876,-19.0741
 L 61.9867,-19.3481 L 61.9878,-19.6108 L 61.991,-19.8711 L 61.9963,-20.129 L 62.0038,-20.3847 L 62.0134,-20.638
 L 62.0251,-20.8889 L 62.039,-21.1375 L 62.055,-21.3838 L 62.0732,-21.6277 L 62.0935,-21.8693 L 62.1159,-22.1086
 L 62.1405,-22.3455 L 62.1671,-22.58 L 62.196,-22.8123 L 62.2269,-23.0422 L 62.26,-23.2697 L 62.2953,-23.4949
 L 62.3326,-23.7178 L 62.3721,-23.9383 L 62.4138,-24.1566 L 62.4575,-24.3724 L 62.5034,-24.5859 L 62.5515,-24.7971
 L 62.6017,-25.0059 L 62.654,-25.2124 L 62.7084,-25.4166 L 62.765,-25.6184 L 62.8237,-25.8179 L 62.8846,-26.015
 L 62.9476,-26.2098 L 63.0127,-26.4023 L 63.0799,-26.5924 L 63.1493,-26.7802 L 63.2209,-26.9656 L 63.2945,-27.1487
 L 63.3703,-27.3295 L 63.4483,-27.5079 L 63.5283,-27.684 L 63.6105,-27.8578 L 63.6949,-28.0292 L 63.7814,-28.1982
 L 63.87,-28.3649 L 63.9607,-28.5293 L 64.0536,-28.6914 L 64.1486,-28.8511 L 64.2458,-29.0085 L 64.3447,-29.163
 L 64.4451,-29.3141 L 64.5468,-29.4618 L 64.65,-29.6061 L 64.7546,-29.7471 L 64.8606,-29.8846 L 64.968,-30.0188
 L 65.0768,-30.1495 L 65.187,-30.2769 L 65.2987,-30.4008 L 65.4117,-30.5214 L 65.5262,-30.6385 L 65.642,-30.7523
 L 65.7593,-30.8627 L 65.878,-30.9696 L 65.9981,-31.0732 L 66.1197,-31.1734 L 66.2426,-31.2702 L 66.3669,-31.3636
 L 66.4927,-31.4536 L 66.6199,-31.5401 L 66.7484,-31.6234 L 66.8784,-31.7032 L 67.0098,-31.7796 L 67.1426,-31.8526
 L 67.2769,-31.9222 L 67.4125,-31.9884 L 67.5496,-32.0513 L 67.688,-32.1107 L 67.8279,-32.1667 L 67.9692,-32.2194
 L 68.1119,-32.2686 L 68.256,-32.3144 L 68.4015,-32.3569 L 68.5484,-32.3959 L 68.6967,-32.4316 L 68.8465,-32.4639
 L 68.9977,-32.4927 L 69.1502,-32.5182 L 69.3042,-32.5403 L 69.4596,-32.5589 L 69.6164,-32.5742 L 69.7746,-32.5861
 L 69.9343,-32.5946 L 70.0953,-32.5997 L 70.2578,-32.6014 L 70.3981,-32.6004 L 70.5382,-32.5974 L 70.678,-32.5923
 L 70.8177,-32.5853 L 70.9571,-32.5762 L 71.0962,-32.5652 L 71.2352,-32.5521 L 71.3739,-32.537 L 71.5123,-32.5199
 L 71.6506,-32.5008 L 71.7886,-32.4796 L 71.9264,-32.4565 L 72.064,-32.4314 L 72.2013,-32.4042 L 72.3384,-32.375
 L 72.4753,-32.3438 L 72.6119,-32.3106 L 72.7484,-32.2754 L 72.8845,-32.2382 L 73.0205,-32.1989 L 73.1562,-32.1577
 L 73.2917,-32.1144 L 73.427,-32.0691 L 73.562,-32.0219 L 73.6968,-31.9725 L 73.8314,-31.9212 L 73.9658,-31.8679
 L 74.0999,-31.8125 L 74.2338,-31.7552 L 74.3675,-31.6958 L 74.5009,-31.6345 L 74.6341,-31.5711 L 74.7671,-31.5057
 L 74.8998,-31.4383 L 75.0323,-31.3688 L 75.1646,-31.2974 L 75.2967,-31.2239 L 75.4285,-31.1485 L 75.5601,-31.071
 L 75.6915,-30.9915 L 75.8226,-30.91 L 75.9536,-30.8265 L 76.0842,-30.741 L 76.2147,-30.6534 L 76.3449,-30.5639
 L 76.4749,-30.4723 L 78.3981,-37.0727 L 78.2283,-37.1757 L 78.0582,-37.2764 L 77.8878,-37.3749 L 77.7172,-37.4711
 L 77.5462,-37.565 L 77.375,-37.6567 L 77.2035,-37.7462 L 77.0318,-37.8333 L 76.8597,-37.9182 L 76.6873,-38.0009
 L 76.5147,-38.0812 L 76.3418,-38.1593 L 76.1686,-38.2352 L 75.9951,-38.3087 L 75.8214,-38.3801 L 75.6474,-38.4491
 L 75.473,-38.5159 L 75.2984,-38.5804 L 75.1236,-38.6427 L 74.9484,-38.7027 L 74.7729,-38.7604 L 74.5972,-38.8158
 L 74.4212,-38.869 L 74.2449,-38.92 L 74.0683,-38.9687 L 73.8915,-39.0151 L 73.7143,-39.0592 L 73.5369,-39.1011
 L 73.3592,-39.1407 L 73.1812,-39.1781 L 73.0029,-39.2132 L 72.8244,-39.246 L 72.6455,-39.2765 L 72.4664,-39.3048
 L 72.287,-39.3309 L 72.1073,-39.3546 L 71.9274,-39.3761 L 71.7471,-39.3954 L 71.5666,-39.4124 L 71.3858,-39.4271
 L 71.2047,-39.4395 L 71.0233,-39.4497 L 70.8416,-39.4576 L 70.6597,-39.4633 L 70.4775,-39.4667 L 70.295,-39.4678
 L 70.0049,-39.4653 L 69.7177,-39.4579 L 69.4331,-39.4454 L 69.1514,-39.428 L 68.8724,-39.4056 L 68.5962,-39.3782
 L 68.3227,-39.3458 L 68.052,-39.3085 L 67.7841,-39.2661 L 67.5189,-39.2188 L 67.2565,-39.1665 L 66.9968,-39.1092
 L 66.7399,-39.047 L 66.4858,-38.9797 L 66.2344,-38.9075 L 65.9858,-38.8303 L 65.74,-38.7481 L 65.4969,-38.661
 L 65.2565,-38.5688 L 65.019,-38.4717 L 64.7842,-38.3696 L 64.5521,-38.2625 L 64.3229,-38.1505 L 64.0963,-38.0334
 L 63.8726,-37.9114 L 63.6516,-37.7844 L 63.4333,-37.6524 L 63.2179,-37.5154 L 63.0052,-37.3735 L 62.7952,-37.2265
 L 62.588,-37.0746 L 62.3836,-36.9177 L 62.182,-36.7559 L 61.9831,-36.589 L 61.7869,-36.4172 L 61.5935,-36.2404
 L 61.4029,-36.0586 L 61.2151,-35.8718 L 61.03,-35.6801 L 60.8476,-35.4833 L 60.6681,-35.2816 L 60.4913,-35.0749
 L 60.3172,-34.8632 L 60.1459,-34.6466 L 59.9774,-34.4249 L 59.8116,-34.1983 L 59.649,-33.9672 L 59.49,-33.7322
 L 59.3346,-33.4933 L 59.1827,-33.2505 L 59.0344,-33.0037 L 58.8897,-32.753 L 58.7485,-32.4984 L 58.6109,-32.2399
 L 58.4769,-31.9774 L 58.3465,-31.711 L 58.2197,-31.4407 L 58.0963,-31.1665 L 57.9766,-30.8883 L 57.8605,-30.6062
 L 57.7479,-30.3202 L 57.6389,-30.0303 L 57.5335,-29.7365 L 57.4317,-29.4387 L 57.3334,-29.137 L 57.2387,-28.8313
 L 57.1476,-28.5218 L 57.06,-28.2083 L 56.9761,-27.8909 L 56.8957,-27.5696 L 56.8188,-27.2444 L 56.7456,-26.9152
 L 56.6759,-26.5821 L 56.6098,-26.2451 L 56.5472,-25.9042 L 56.4883,-25.5593 L 56.4329,-25.2105 L 56.3811,-24.8578
 L 56.3328,-24.5012 L 56.2882,-24.1406 L 56.2471,-23.7761 L 56.2095,-23.4077 L 56.1756,-23.0354 L 56.1452,-22.6591
 L 56.1184,-22.2789 L 56.0952,-21.8949 L 56.0755,-21.5068 L 56.0594,-21.1149 L 56.047,-20.719 L 56.038,-20.3192
 L 56.0327,-19.9155 L 56.0309,-19.5079 L 56.0324,-19.0888 L 56.037,-18.674 L 56.0447,-18.2635 L 56.0555,-17.8572
 L 56.0694,-17.4552 L 56.0863,-17.0574 L 56.1063,-16.664 L 56.1294,-16.2747 L 56.1556,-15.8898 L 56.1848,-15.5091
 L 56.2172,-15.1327 L 56.2526,-14.7605 L 56.2911,-14.3926 L 56.3326,-14.029 L 56.3773,-13.6696 L 56.425,-13.3145
 L 56.4758,-12.9637 L 56.5297,-12.6171 L 56.5867,-12.2748 L 56.6467,-11.9367 L 56.7099,-11.603 L 56.7761,-11.2734
 L 56.8454,-10.9482 L 56.9177,-10.6272 L 56.9931,-10.3104 L 57.0717,-9.99796 L 57.1533,-9.68977 L 57.238,-9.38582
 L 57.3257,-9.08614 L 57.4166,-8.79073 L 57.5105,-8.49957 L 57.6075,-8.21268 L 57.7076,-7.93005 L 57.8107,-7.6517
 L 57.9169,-7.37761 L 58.0263,-7.10777 L 58.1387,-6.84219 L 58.2542,-6.58089 L 58.3727,-6.32385 L 58.4943,-6.07108
 L 58.619,-5.82256 L 58.7468,-5.57829 L 58.8777,-5.3383 L 59.0117,-5.10258 L 59.1487,-4.87112 L 59.2888,-4.64392
 L 59.4318,-4.42133 L 59.5776,-4.20363 L 59.7262,-3.9908 L 59.8775,-3.78288 L 60.0316,-3.57983 L 60.1884,-3.3817
 L 60.348,-3.18845 L 60.5104,-3.00011 L 60.6755,-2.81664 L 60.8434,-2.63806 L 61.014,-2.46437 L 61.1874,-2.29559
 L 61.3636,-2.1317 L 61.5425,-1.9727 L 61.7242,-1.81859 L 61.9087,-1.66937 L 62.0959,-1.52505 L 62.2859,-1.38562
 L 62.4786,-1.25108 L 62.6741,-1.12143 L 62.8724,-0.996674 L 63.0734,-0.876816 L 63.2772,-0.761841 L 63.4838,-0.651764
 L 63.6931,-0.546585 L 63.9052,-0.446274 L 64.12,-0.350891 L 64.3376,-0.260376 L 64.558,-0.174759 L 64.7811,-0.0940399
 L 65.007,-0.0182037 L 65.2356,0.0527039 L 65.4671,0.118759 L 65.7012,0.179901 L 65.9381,0.236176 L 66.1778,0.287537
 L 66.4203,0.334015 L 66.6655,0.375595 L 66.9135,0.412292 L 67.1642,0.444092 L 67.4177,0.470993 L 67.674,0.493011
 L 67.933,0.510147 L 68.1948,0.522385 L 68.4594,0.529709 L 68.7267,0.53215 z
M 9.22313,-13.8392 L 11.7063,-13.8392 L 11.926,-13.8408 L 12.1435,-13.8455 L 12.3588,-13.8533 L 12.5719,-13.8643
 L 12.7828,-13.8785 L 12.9915,-13.8958 L 13.1981,-13.9162 L 13.4024,-13.9398 L 13.6045,-13.9665 L 13.8044,-13.9964
 L 14.0022,-14.0294 L 14.1977,-14.0656 L 14.391,-14.1049 L 14.5822,-14.1473 L 14.7711,-14.1929 L 14.9578,-14.2416
 L 15.1424,-14.2935 L 15.3247,-14.3485 L 15.5049,-14.4067 L 15.6829,-14.468 L 15.8586,-14.5325 L 16.0322,-14.6001
 L 16.2035,-14.6708 L 16.3727,-14.7447 L 16.5397,-14.8217 L 16.7045,-14.9019 L 16.867,-14.9852 L 17.0274,-15.0717
 L 17.1856,-15.1613 L 17.3416,-15.2541 L 17.4953,-15.3499 L 17.6469,-15.449 L 17.7963,-15.5512 L 17.9435,-15.6565
 L 18.0885,-15.765 L 18.2313,-15.8766 L 18.3719,-15.9913 L 18.5103,-16.1093 L 18.6465,-16.2303 L 18.7805,-16.3545
 L 18.9124,-16.4818 L 19.042,-16.6123 L 19.1694,-16.7459 L 19.2946,-16.8827 L 19.4177,-17.0226 L 19.5385,-17.1657
 L 19.6569,-17.3117 L 19.7728,-17.4606 L 19.886,-17.6122 L 19.9966,-17.7666 L 20.1047,-17.9238 L 20.2101,-18.0838
 L 20.3129,-18.2466 L 20.4131,-18.4122 L 20.5107,-18.5806 L 20.6058,-18.7517 L 20.6982,-18.9257 L 20.788,-19.1024
 L 20.8752,-19.282 L 20.9598,-19.4643 L 21.0418,-19.6494 L 21.1212,-19.8373 L 21.198,-20.0281 L 21.2722,-20.2216
 L 21.3438,-20.4178 L 21.4127,-20.6169 L 21.4791,-20.8188 L 21.5429,-21.0235 L 21.604,-21.2309 L 21.6626,-21.4412
 L 21.7186,-21.6542 L 21.772,-21.8701 L 21.8227,-22.0887 L 21.8709,-22.3101 L 21.9164,-22.5343 L 21.9594,-22.7613
 L 21.9997,-22.9911 L 22.0375,-23.2237 L 22.0726,-23.4591 L 22.1051,-23.6973 L 22.1351,-23.9382 L 22.1624,-24.182
 L 22.1871,-24.4285 L 22.2093,-24.6778 L 22.2288,-24.93 L 22.2457,-25.1849 L 22.26,-25.4426 L 22.2717,-25.7031
 L 22.2809,-25.9664 L 22.2874,-26.2325 L 22.2913,-26.5013 L 22.2926,-26.773 L 22.2914,-27.0343 L 22.2877,-27.2927
 L 22.2816,-27.5483 L 22.273,-27.8011 L 22.262,-28.051 L 22.2486,-28.2981 L 22.2327,-28.5424 L 22.2144,-28.7838
 L 22.1936,-29.0225 L 22.1704,-29.2582 L 22.1447,-29.4912 L 22.1166,-29.7213 L 22.086,-29.9486 L 22.0531,-30.1731
 L 22.0176,-30.3947 L 21.9797,-30.6135 L 21.9394,-30.8295 L 21.8966,-31.0426 L 21.8514,-31.2529 L 21.8037,-31.4604
 L 21.7536,-31.6651 L 21.7011,-31.8669 L 21.6461,-32.0659 L 21.5887,-32.2621 L 21.5288,-32.4554 L 21.4665,-32.6459
 L 21.4017,-32.8336 L 21.3345,-33.0184 L 21.2648,-33.2004 L 21.1927,-33.3796 L 21.1182,-33.5559 L 21.0412,-33.7295
 L 20.9618,-33.9001 L 20.8799,-34.068 L 20.7956,-34.233 L 20.7088,-34.3952 L 20.6196,-34.5546 L 20.5279,-34.7111
 L 20.4338,-34.8648 L 20.3373,-35.0157 L 20.2383,-35.1638 L 20.1369,-35.309 L 20.033,-35.4514 L 19.9267,-35.5909
 L 19.8179,-35.7276 L 19.7067,-35.8615 L 19.5932,-35.9926 L 19.4774,-36.1208 L 19.3593,-36.2461 L 19.239,-36.3685
 L 19.1164,-36.488 L 18.9916,-36.6047 L 18.8646,-36.7184 L 18.7353,-36.8293 L 18.6037,-36.9374 L 18.4699,-37.0425
 L 18.3339,-37.1447 L 18.1956,-37.2441 L 18.055,-37.3406 L 17.9122,-37.4342 L 17.7672,-37.5249 L 17.6199,-37.6128
 L 17.4703,-37.6978 L 17.3185,-37.7799 L 17.1644,-37.8591 L 17.0081,-37.9354 L 16.8496,-38.0089 L 16.6888,-38.0794
 L 16.5257,-38.1471 L 16.3604,-38.2119 L 16.1929,-38.2738 L 16.0231,-38.3329 L 15.851,-38.3891 L 15.6767,-38.4423
 L 15.5002,-38.4928 L 15.3214,-38.5403 L 15.1403,-38.5849 L 14.957,-38.6267 L 14.7715,-38.6656 L 14.5836,-38.7016
 L 14.3936,-38.7347 L 14.2013,-38.765 L 14.0067,-38.7923 L 13.81,-38.8168 L 13.6109,-38.8384 L 13.4096,-38.8571
 L 13.206,-38.873 L 13.0002,-38.8859 L 12.7922,-38.896 L 12.5819,-38.9032 L 12.3693,-38.9075 L 12.1545,-38.909
 L 3.4355,-38.909 L 3.4355,-0 L 9.22313,-0 z
M 9.22313,-20.5989 L 9.22313,-32.1493 L 11.8558,-32.1493 L 11.9583,-32.1486 L 12.0596,-32.1467 L 12.1597,-32.1434
 L 12.2586,-32.1388 L 12.3564,-32.1329 L 12.4529,-32.1257 L 12.5482,-32.1172 L 12.6424,-32.1074 L 12.7354,-32.0963
 L 12.8271,-32.0839 L 12.9177,-32.0701 L 13.0071,-32.0551 L 13.0953,-32.0387 L 13.1823,-32.0211 L 13.2682,-32.0021
 L 13.3528,-31.9818 L 13.4362,-31.9602 L 13.5185,-31.9373 L 13.5995,-31.9131 L 13.6794,-31.8876 L 13.7581,-31.8608
 L 13.8356,-31.8327 L 13.9118,-31.8032 L 13.987,-31.7725 L 14.0609,-31.7404 L 14.1336,-31.7071 L 14.2051,-31.6724
 L 14.2755,-31.6364 L 14.3446,-31.5991 L 14.4126,-31.5605 L 14.4793,-31.5206 L 14.5449,-31.4794 L 14.6093,-31.4369
 L 14.6725,-31.3931 L 14.7345,-31.3479 L 14.7953,-31.3015 L 14.8549,-31.2538 L 14.9133,-31.2047 L 14.9705,-31.1543
 L 15.0266,-31.1026 L 15.0814,-31.0497 L 15.1351,-30.9954 L 15.1876,-30.9398 L 15.2389,-30.8828 L 15.2889,-30.8246
 L 15.3378,-30.7651 L 15.3856,-30.7042 L 15.4323,-30.6419 L 15.478,-30.5781 L 15.5226,-30.513 L 15.5662,-30.4463
 L 15.6087,-30.3783 L 15.6502,-30.3088 L 15.6906,-30.2379 L 15.73,-30.1655 L 15.7684,-30.0917 L 15.8056,-30.0165
 L 15.8419,-29.9398 L 15.877,-29.8618 L 15.9112,-29.7822 L 15.9442,-29.7013 L 15.9763,-29.6189 L 16.0072,-29.5351
 L 16.0372,-29.4498 L 16.066,-29.3631 L 16.0939,-29.275 L 16.1207,-29.1854 L 16.1464,-29.0944 L 16.1711,-29.002
 L 16.1947,-28.9081 L 16.2173,-28.8128 L 16.2388,-28.7161 L 16.2592,-28.6179 L 16.2787,-28.5183 L 16.2971,-28.4173
 L 16.3144,-28.3148 L 16.3307,-28.2109 L 16.3459,-28.1056 L 16.36,-27.9988 L 16.3732,-27.8906 L 16.3853,-27.7809
 L 16.3963,-27.6699 L 16.4062,-27.5574 L 16.4152,-27.4434 L 16.423,-27.328 L 16.4299,-27.2112 L 16.4357,-27.093
 L 16.4404,-26.9733 L 16.4441,-26.8522 L 16.4467,-26.7296 L 16.4483,-26.6057 L 16.4488,-26.4803 L 16.4482,-26.3559
 L 16.4463,-26.2329 L 16.4431,-26.1112 L 16.4388,-25.9908 L 16.4331,-25.8717 L 16.4262,-25.7538 L 16.4181,-25.6373
 L 16.4087,-25.522 L 16.398,-25.4081 L 16.3861,-25.2954 L 16.373,-25.1841 L 16.3586,-25.074 L 16.3429,-24.9653
 L 16.326,-24.8578 L 16.3078,-24.7516 L 16.2884,-24.6467 L 16.2677,-24.5431 L 16.2458,-24.4408 L 16.2226,-24.3398
 L 16.1982,-24.2401 L 16.1725,-24.1417 L 16.1456,-24.0446 L 16.1174,-23.9488 L 16.0879,-23.8543 L 16.0572,-23.761
 L 16.0253,-23.6691 L 15.9921,-23.5785 L 15.9576,-23.4891 L 15.9219,-23.4011 L 15.8849,-23.3143 L 15.8467,-23.2289
 L 15.8072,-23.1447 L 15.7665,-23.0618 L 15.7245,-22.9803 L 15.6813,-22.9 L 15.6368,-22.821 L 15.5911,-22.7433
 L 15.5441,-22.6669 L 15.4959,-22.5918 L 15.4464,-22.518 L 15.3956,-22.4455 L 15.3436,-22.3743 L 15.2904,-22.3044
 L 15.2359,-22.2357 L 15.1801,-22.1684 L 15.1231,-22.1024 L 15.0648,-22.0377 L 15.0053,-21.9745 L 14.9445,-21.9127
 L 14.8824,-21.8523 L 14.819,-21.7933 L 14.7544,-21.7357 L 14.6885,-21.6796 L 14.6213,-21.6249 L 14.5529,-21.5716
 L 14.4832,-21.5197 L 14.4122,-21.4693 L 14.34,-21.4203 L 14.2664,-21.3727 L 14.1916,-21.3265 L 14.1156,-21.2817
 L 14.0383,-21.2384 L 13.9596,-21.1964 L 13.8798,-21.1559 L 13.7986,-21.1169 L 13.7162,-21.0792 L 13.6325,-21.043
 L 13.5476,-21.0081 L 13.4613,-20.9748 L 13.3739,-20.9428 L 13.2851,-20.9122 L 13.1951,-20.8831 L 13.1038,-20.8554
 L 13.0112,-20.8291 L 12.9173,-20.8042 L 12.8222,-20.7808 L 12.7258,-20.7587 L 12.6282,-20.7381 L 12.5292,-20.719
 L 12.429,-20.7012 L 12.3276,-20.6848 L 12.2248,-20.6699 L 12.1208,-20.6564 L 12.0155,-20.6443 L 11.909,-20.6337
 L 11.8012,-20.6245 L 11.6921,-20.6166 L 11.5817,-20.6102 L 11.4701,-20.6053 L 11.3572,-20.6017 L 11.243,-20.5996
 L 11.1276,-20.5989 z
M 32.0564,-18.3101 L 32.0563,-18.4568 L 32.0558,-18.6078 L 32.0549,-18.763 L 32.0538,-18.9225 L 32.0522,-19.0861
 L 32.0504,-19.254 L 32.0482,-19.4261 L 32.0457,-19.6025 L 32.0428,-19.783 L 32.0397,-19.9678 L 32.0361,-20.1568
 L 32.0323,-20.3501 L 32.0281,-20.5475 L 32.0236,-20.7492 L 32.0187,-20.9552 L 32.0135,-21.1653 L 32.008,-21.3797
 L 32.0021,-21.5983 L 31.9959,-21.8211 L 31.9893,-22.0481 L 31.9825,-22.2794 L 31.9753,-22.5149 L 31.9677,-22.7546
 L 31.9598,-22.9986 L 31.9516,-23.2468 L 31.9431,-23.4992 L 31.9342,-23.7558 L 31.9249,-24.0167 L 31.9154,-24.2818
 L 31.9055,-24.5511 L 31.8953,-24.8246 L 31.8847,-25.1023 L 31.8738,-25.3843 L 31.8626,-25.6705 L 31.851,-25.961
 L 31.8391,-26.2556 L 31.8268,-26.5545 L 31.8143,-26.8576 L 31.8013,-27.165 L 31.7881,-27.4765 L 31.7745,-27.7923
 L 31.7606,-28.1124 L 31.7463,-28.4366 L 31.7317,-28.7651 L 31.7168,-29.0977 L 31.7016,-29.4347 L 31.8695,-29.4347
 L 43.744,-0 L 51.1002,-0 L 51.1002,-38.909 L 45.8913,-38.909 L 45.8913,-20.4925 L 45.8914,-20.3539
 L 45.8918,-20.211 L 45.8925,-20.064 L 45.8934,-19.9128 L 45.8946,-19.7573 L 45.8961,-19.5977 L 45.8978,-19.4338
 L 45.8998,-19.2658 L 45.902,-19.0935 L 45.9045,-18.9171 L 45.9073,-18.7364 L 45.9104,-18.5516 L 45.9137,-18.3625
 L 45.9172,-18.1693 L 45.9211,-17.9718 L 45.9252,-17.7702 L 45.9295,-17.5643 L 45.9342,-17.3542 L 45.9391,-17.14
 L 45.9442,-16.9215 L 45.9496,-16.6989 L 45.9553,-16.472 L 45.9613,-16.2409 L 45.9675,-16.0057 L 45.974,-15.7662
 L 45.9807,-15.5226 L 45.9877,-15.2747 L 45.995,-15.0226 L 46.0026,-14.7663 L 46.0104,-14.5059 L 46.0184,-14.2412
 L 46.0268,-13.9723 L 46.0354,-13.6993 L 46.0443,-13.422 L 46.0534,-13.1405 L 46.0628,-12.8549 L 46.0724,-12.565
 L 46.0824,-12.2709 L 46.0926,-11.9726 L 46.103,-11.6702 L 46.1137,-11.3635 L 46.1247,-11.0526 L 46.136,-10.7375
 L 46.1475,-10.4182 L 46.1593,-10.0947 L 46.1713,-9.76706 L 46.0405,-9.76706 L 34.1847,-38.909 L 26.8847,-38.909
 L 26.8847,-0 L 32.0564,-0 z
" stroke="black" fill="black" stroke-width="0.5"/>
</svg>
