<?xml version="1.0" standalone="no"?>
<!DOCTYPE svg PUBLIC "-//W3C//DTD SVG 1.1//EN" "http://www.w3.org/Graphics/SVG/1.1/DTD/svg11.dtd">
<svg width="97mm" height="101mm" viewBox="-13 -100 97 101" xmlns="http://www.w3.org/2000/svg" version="1.1">
<title>OpenSCAD Model</title>
<path d="
M 5,-70 L 23,-70 L 23.2617,-70.0069 L 23.4707,-70.0178 L 23.9912,-70.0725 L 24.198,-70.1053
 L 24.71,-70.2141 L 24.9122,-70.2683 L 25.4099,-70.43 L 25.6053,-70.505 L 26.0833,-70.7178 L 26.2698,-70.8129
 L 26.7234,-71.0747 L 26.899,-71.1888 L 27.3222,-71.4963 L 27.4849,-71.628 L 27.8738,-71.9782 L 28.0218,-72.1262
 L 28.372,-72.5151 L 28.5037,-72.6778 L 28.8112,-73.101 L 28.9253,-73.2766 L 29.1871,-73.7302 L 29.2822,-73.9167
 L 29.495,-74.3947 L 29.57,-74.5901 L 29.7317,-75.0878 L 29.7859,-75.29 L 29.8947,-75.802 L 29.9275,-76.0088
 L 29.9822,-76.5293 L 29.9931,-76.7383 L 30,-77 L 30,-95 L 63,-95 L 63.2091,-94.989
 L 63.4158,-94.9563 L 63.618,-94.9021 L 63.8135,-94.8271 L 64,-94.7321 L 64.1756,-94.618 L 64.3383,-94.4863
 L 64.4863,-94.3383 L 64.618,-94.1756 L 64.7321,-94 L 64.8271,-93.8135 L 64.9021,-93.618 L 64.9563,-93.4158
 L 64.989,-93.2091 L 65,-93 L 65,-45 L 70,-45 L 70,-93 L 69.9931,-93.2617
 L 69.9822,-93.4707 L 69.9275,-93.9912 L 69.8947,-94.198 L 69.7859,-94.71 L 69.7317,-94.9122 L 69.57,-95.4099
 L 69.495,-95.6053 L 69.2822,-96.0833 L 69.1871,-96.2698 L 68.9253,-96.7234 L 68.8112,-96.899 L 68.5037,-97.3222
 L 68.372,-97.4849 L 68.0218,-97.8738 L 67.8738,-98.0218 L 67.4849,-98.372 L 67.3222,-98.5037 L 66.899,-98.8112
 L 66.7234,-98.9253 L 66.2698,-99.1871 L 66.0833,-99.2822 L 65.6053,-99.495 L 65.4099,-99.57 L 64.9122,-99.7317
 L 64.71,-99.7859 L 64.198,-99.8947 L 63.9912,-99.9275 L 63.4707,-99.9822 L 63.2617,-99.9931 L 63,-100
 L 25,-100 L 0,-75 L 0,-45 L 5,-45 z
M 71.747,0.467728 L 72.5123,0.447144 L 73.2735,0.412827 L 74.0305,0.364777 L 74.7835,0.303009 L 75.5324,0.227509
 L 76.2772,0.13829 L 77.018,0.0353394 L 77.7628,-0.0845642 L 78.52,-0.224884 L 79.2893,-0.385605 L 80.0709,-0.566727
 L 80.8648,-0.76825 L 81.6708,-0.990158 L 82.4892,-1.23248 L 83.3197,-1.49519 L 83.3197,-19.4859 L 69.5535,-19.4859
 L 69.5535,-13.3623 L 76.1283,-13.3623 L 76.1283,-6.1236 L 75.5359,-6.01228 L 74.9459,-5.9158 L 74.358,-5.83417
 L 73.7724,-5.76738 L 73.189,-5.71544 L 72.6079,-5.67833 L 72.0289,-5.65607 L 71.4523,-5.64864 L 70.3814,-5.69518
 L 69.3763,-5.83479 L 68.4367,-6.06749 L 67.5628,-6.39326 L 66.7545,-6.81212 L 66.0119,-7.32405 L 65.3349,-7.92906
 L 64.7235,-8.62714 L 64.1812,-9.41357 L 63.7112,-10.2834 L 63.3135,-11.2368 L 62.9881,-12.2735 L 62.735,-13.3937
 L 62.5543,-14.5974 L 62.4458,-15.8845 L 62.4097,-17.255 L 62.4545,-18.5733 L 62.5891,-19.8227 L 62.8135,-21.0031
 L 63.1276,-22.1145 L 63.5314,-23.1569 L 64.025,-24.1303 L 64.6083,-25.0348 L 65.2814,-25.8702 L 66.0291,-26.6212
 L 66.8361,-27.2721 L 67.7024,-27.8228 L 68.6281,-28.2734 L 69.6131,-28.6239 L 70.6574,-28.8742 L 71.761,-29.0244
 L 72.924,-29.0745 L 73.9456,-29.0448 L 74.9577,-28.9558 L 75.96,-28.8075 L 76.9528,-28.5998 L 77.9359,-28.3328
 L 78.9093,-28.0064 L 79.8732,-27.6208 L 80.8274,-27.1757 L 83.2721,-33.062 L 82.026,-33.5627 L 80.7681,-33.9966
 L 79.4983,-34.3637 L 78.2166,-34.6641 L 76.9231,-34.8977 L 75.6177,-35.0646 L 74.3004,-35.1647 L 72.9713,-35.1981
 L 70.8992,-35.1247 L 68.9432,-34.9044 L 67.1033,-34.5372 L 65.3794,-34.0232 L 63.7716,-33.3624 L 62.2799,-32.5547
 L 60.9042,-31.6001 L 59.6447,-30.4986 L 58.5182,-29.2659 L 57.5419,-27.9175 L 56.7159,-26.4534 L 56.04,-24.8736
 L 55.5143,-23.1781 L 55.1388,-21.3669 L 54.9136,-19.44 L 54.8385,-17.3974 L 54.9032,-15.3004 L 55.0973,-13.3292
 L 55.4209,-11.4836 L 55.8738,-9.76376 L 56.4563,-8.16963 L 57.1681,-6.70122 L 58.0093,-5.35852 L 58.98,-4.14154
 L 60.0734,-3.05963 L 61.2829,-2.12198 L 62.6085,-1.32858 L 64.0502,-0.679428 L 65.6079,-0.174545 L 67.2818,0.186081
 L 69.0717,0.402466 L 70.9777,0.474594 z
M -4.66451,-12.342 L -1.50786,-12.342 L 0.059906,-12.3884 L 1.53534,-12.5275 L 2.91841,-12.7592 L 4.20914,-13.0837
 L 5.40752,-13.5009 L 6.51355,-14.0108 L 7.52725,-14.6133 L 8.44859,-15.3086 L 9.26915,-16.0915 L 9.9803,-16.9567
 L 10.582,-17.9043 L 11.0744,-18.9341 L 11.4573,-20.0463 L 11.7308,-21.2408 L 11.8949,-22.5175 L 11.9496,-23.8766
 L 11.8983,-25.1819 L 11.7442,-26.4037 L 11.4874,-27.542 L 11.1279,-28.5969 L 10.6656,-29.5684 L 10.1006,-30.4563
 L 9.43289,-31.2609 L 8.66245,-31.9819 L 7.79337,-32.6189 L 6.82971,-33.171 L 5.7715,-33.6381 L 4.61873,-34.0202
 L 3.37138,-34.3175 L 2.02946,-34.5298 L 0.592987,-34.6572 L -0.938049,-34.6997 L -12.0219,-34.6997 L -12.0219,-0
 L -4.66451,-0 z
M -4.66451,-18.3704 L -4.66451,-28.6713 L -1.31781,-28.6713 L -0.589279,-28.652 L 0.0891724,-28.5941 L 0.717575,-28.4977
 L 1.29591,-28.3627 L 1.82419,-28.1891 L 2.3024,-27.9769 L 2.73056,-27.7262 L 3.10864,-27.4368 L 3.43964,-27.1072
 L 3.7265,-26.7352 L 3.96924,-26.321 L 4.16783,-25.8645 L 4.3223,-25.3657 L 4.43263,-24.8246 L 4.49883,-24.2412
 L 4.5209,-23.6155 L 4.49457,-22.9939 L 4.41557,-22.4104 L 4.28391,-21.8651 L 4.09958,-21.358 L 3.86259,-20.889
 L 3.57294,-20.4583 L 3.23062,-20.0657 L 2.83565,-19.7113 L 2.38763,-19.397 L 1.88623,-19.1247 L 1.33142,-18.8942
 L 0.723221,-18.7057 L 0.0616302,-18.559 L -0.653366,-18.4542 L -1.42177,-18.3914 L -2.24355,-18.3704 z
M 24.3617,-16.3292 L 24.3546,-17.1333 L 24.3335,-18.0619 L 24.2982,-19.1152 L 24.2489,-20.293 L 24.1855,-21.5954
 L 24.1079,-23.0225 L 24.0163,-24.5741 L 23.9105,-26.2503 L 24.124,-26.2503 L 39.2192,-0 L 48.5705,-0
 L 48.5705,-34.6997 L 41.9488,-34.6997 L 41.9488,-18.2756 L 41.9544,-17.5135 L 41.9711,-16.6275 L 41.9989,-15.6177
 L 42.0378,-14.4839 L 42.0879,-13.2264 L 42.149,-11.8449 L 42.2213,-10.3396 L 42.3048,-8.71045 L 42.1385,-8.71045
 L 27.0672,-34.6997 L 17.7873,-34.6997 L 17.7873,-0 L 24.3617,-0 z
" stroke="black" fill="black" stroke-width="0.5"/>
</svg>
