<?xml version="1.0" standalone="no"?>
<!DOCTYPE svg PUBLIC "-//W3C//DTD SVG 1.1//EN" "http://www.w3.org/Graphics/SVG/1.1/DTD/svg11.dtd">
<svg width="100mm" height="100mm" viewBox="-8 -108 116 116" xmlns="http://www.w3.org/2000/svg" version="1.1">
<title>OpenSCAD Model</title>
<path d="
M 84.1993,-0.00497437 L 84.3984,-0.0149078 L 84.5973,-0.0298004 L 84.7955,-0.0546417 L 84.9926,-0.0843658 L 85.1891,-0.119003
 L 85.3832,-0.163315 L 85.5764,-0.212509 L 85.7684,-0.266525 L 85.9575,-0.330063 L 86.1449,-0.398254 L 86.3306,-0.471115
 L 86.5125,-0.553223 L 86.6922,-0.63974 L 86.8696,-0.730728 L 87.0423,-0.830399 L 87.2124,-0.934357 L 87.3799,-1.04256
 L 87.5419,-1.15901 L 87.7008,-1.2794 L 87.8568,-1.40376 L 88.0063,-1.53571 L 88.1524,-1.67133 L 88.2952,-1.81058
 L 88.4308,-1.95677 L 88.5628,-2.10626 L 88.691,-2.25905 L 88.8113,-2.41792 L 88.9277,-2.5798 L 89.0401,-2.74458
 L 89.1443,-2.9151 L 89.244,-3.08778 L 89.3393,-3.26295 L 89.4258,-3.44243 L 89.5078,-3.62416 L 89.5852,-3.80795
 L 89.6534,-3.99522 L 89.7169,-4.18422 L 89.7757,-4.3748 L 89.825,-4.56818 L 89.8693,-4.76257 L 89.9088,-4.95807
 L 89.9386,-5.15555 L 89.9634,-5.35338 L 89.9832,-5.55183 L 89.9916,-5.70078 L 89.9972,-5.85023 L 90,-6
 L 90,-94 L 89.995,-94.1993 L 89.9851,-94.3984 L 89.9702,-94.5973 L 89.9454,-94.7955 L 89.9156,-94.9926
 L 89.881,-95.1891 L 89.8367,-95.3832 L 89.7875,-95.5764 L 89.7335,-95.7684 L 89.6699,-95.9575 L 89.6017,-96.1449
 L 89.5289,-96.3306 L 89.4468,-96.5125 L 89.3603,-96.6922 L 89.2693,-96.8696 L 89.1696,-97.0423 L 89.0656,-97.2124
 L 88.9574,-97.3799 L 88.841,-97.5419 L 88.7206,-97.7008 L 88.5962,-97.8568 L 88.4643,-98.0063 L 88.3287,-98.1524
 L 88.1894,-98.2952 L 88.0432,-98.4308 L 87.8937,-98.5628 L 87.741,-98.691 L 87.5821,-98.8113 L 87.4202,-98.9277
 L 87.2554,-99.0401 L 87.0849,-99.1443 L 86.9122,-99.244 L 86.737,-99.3393 L 86.5576,-99.4258 L 86.3758,-99.5078
 L 86.192,-99.5852 L 86.0048,-99.6534 L 85.8158,-99.7169 L 85.6252,-99.7757 L 85.4318,-99.825 L 85.2374,-99.8693
 L 85.0419,-99.9088 L 84.8445,-99.9386 L 84.6466,-99.9634 L 84.4482,-99.9832 L 84.2992,-99.9916 L 84.1498,-99.9972
 L 84,-100 L 36,-100 L 10,-74 L 10,-50 L 14,-50 L 14,-70
 L 34,-70 L 34.1993,-70.005 L 34.3984,-70.0149 L 34.5973,-70.0298 L 34.7955,-70.0546 L 34.9926,-70.0844
 L 35.1891,-70.119 L 35.3832,-70.1633 L 35.5764,-70.2125 L 35.7684,-70.2665 L 35.9575,-70.3301 L 36.1449,-70.3983
 L 36.3306,-70.4711 L 36.5125,-70.5532 L 36.6922,-70.6397 L 36.8696,-70.7307 L 37.0423,-70.8304 L 37.2124,-70.9344
 L 37.3799,-71.0426 L 37.5419,-71.159 L 37.7008,-71.2794 L 37.8568,-71.4038 L 38.0063,-71.5357 L 38.1524,-71.6713
 L 38.2952,-71.8106 L 38.4308,-71.9568 L 38.5628,-72.1063 L 38.691,-72.259 L 38.8113,-72.4179 L 38.9277,-72.5798
 L 39.0401,-72.7446 L 39.1443,-72.9151 L 39.244,-73.0878 L 39.3393,-73.263 L 39.4258,-73.4424 L 39.5078,-73.6242
 L 39.5852,-73.808 L 39.6534,-73.9952 L 39.7169,-74.1842 L 39.7757,-74.3748 L 39.825,-74.5682 L 39.8693,-74.7626
 L 39.9088,-74.9581 L 39.9386,-75.1555 L 39.9634,-75.3534 L 39.9832,-75.5518 L 39.9916,-75.7008 L 39.9972,-75.8502
 L 40,-76 L 40,-96 L 84,-96 L 84.1495,-95.9944 L 84.3473,-95.9696 L 84.5417,-95.9252
 L 84.7307,-95.8617 L 84.9124,-95.7797 L 85.0851,-95.6801 L 85.247,-95.5637 L 85.3965,-95.4317 L 85.5321,-95.2856
 L 85.6525,-95.1266 L 85.7564,-94.9565 L 85.843,-94.7769 L 85.9111,-94.5895 L 85.9603,-94.3963 L 85.9901,-94.1991
 L 86,-94 L 86,-6 L 85.9944,-5.85054 L 85.9696,-5.65271 L 85.9252,-5.45831 L 85.8617,-5.26932
 L 85.7797,-5.08759 L 85.6801,-4.9149 L 85.5637,-4.75302 L 85.4317,-4.60353 L 85.2856,-4.46791 L 85.1266,-4.34752
 L 84.9565,-4.24356 L 84.7769,-4.15704 L 84.5895,-4.08885 L 84.3963,-4.03966 L 84.1991,-4.00993 L 84,-4
 L 80,-4 L 80,-0 L 84,-0 z
M 14.828,0.550766 L 14.985,0.548218 L 15.1418,0.543991 L 15.2982,0.538055 L 15.4543,0.530426 L 15.61,0.521118
 L 15.7655,0.510086 L 15.9207,0.497391 L 16.0756,0.482986 L 16.2302,0.466888 L 16.3844,0.449097 L 16.5384,0.429596
 L 16.6921,0.408417 L 16.8454,0.385544 L 16.9985,0.360977 L 17.1513,0.334702 L 17.3037,0.306763 L 17.4558,0.2771
 L 17.6077,0.245758 L 17.7592,0.212723 L 17.9105,0.177979 L 18.0614,0.141541 L 18.212,0.103424 L 18.3623,0.0635834
 L 18.5123,0.0220795 L 18.662,-0.0211029 L 18.8115,-0.0660095 L 18.9606,-0.11261 L 19.1094,-0.160904 L 19.2578,-0.210892
 L 19.406,-0.262558 L 19.5539,-0.315948 L 19.7015,-0.371017 L 19.8488,-0.42778 L 19.9958,-0.486237 L 20.1424,-0.546387
 L 20.2888,-0.608246 L 20.4348,-0.671799 L 20.5806,-0.73703 L 20.7261,-0.803955 L 20.8712,-0.872589 L 21.0161,-0.942917
 L 21.1606,-1.01492 L 21.3048,-1.08862 L 21.4488,-1.16403 L 21.5924,-1.24115 L 21.7353,-1.31976 L 21.877,-1.39967
 L 22.0176,-1.4809 L 22.1569,-1.56343 L 22.2952,-1.64726 L 22.4322,-1.73239 L 22.568,-1.81883 L 22.7027,-1.90659
 L 22.8363,-1.99562 L 22.9686,-2.08597 L 23.0998,-2.17763 L 23.2298,-2.2706 L 23.3586,-2.36485 L 23.4862,-2.46042
 L 23.6127,-2.5573 L 23.738,-2.65546 L 23.8621,-2.75493 L 23.9851,-2.85573 L 24.1069,-2.95781 L 24.2275,-3.0612
 L 24.3469,-3.16589 L 24.4652,-3.27188 L 24.5823,-3.37918 L 24.6982,-3.48778 L 24.813,-3.5977 L 24.9265,-3.70892
 L 25.0389,-3.82143 L 25.1502,-3.93526 L 25.2602,-4.05037 L 25.3691,-4.16679 L 25.4768,-4.28455 L 25.5833,-4.40356
 L 25.6887,-4.52391 L 25.7929,-4.64555 L 25.8959,-4.76849 L 25.9977,-4.89275 L 26.0984,-5.01831 L 26.1979,-5.14517
 L 26.2962,-5.27333 L 26.3934,-5.40279 L 26.4894,-5.53355 L 26.5842,-5.66563 L 26.6778,-5.79901 L 26.7702,-5.9337
 L 26.8615,-6.06969 L 26.9516,-6.20697 L 26.9516,-20.4967 L 15.6635,-20.4967 L 15.6635,-14.483 L 21.9879,-14.483
 L 21.9879,-9.10339 L 21.9403,-9.04128 L 21.8919,-8.97963 L 21.8426,-8.91847 L 21.7925,-8.8578 L 21.7415,-8.79761
 L 21.6896,-8.73788 L 21.6369,-8.67867 L 21.5834,-8.6199 L 21.529,-8.56165 L 21.4737,-8.50386 L 21.4176,-8.44656
 L 21.3607,-8.38974 L 21.3029,-8.3334 L 21.2442,-8.27754 L 21.1847,-8.22217 L 21.1244,-8.16728 L 21.0631,-8.11288
 L 21.0011,-8.05896 L 20.9382,-8.00551 L 20.8744,-7.95255 L 20.8098,-7.90005 L 20.7443,-7.84805 L 20.678,-7.79655
 L 20.6108,-7.74551 L 20.5428,-7.69496 L 20.4739,-7.6449 L 20.4042,-7.59531 L 20.3336,-7.5462 L 20.2622,-7.49757
 L 20.1899,-7.44945 L 20.1168,-7.40178 L 20.0428,-7.35461 L 19.968,-7.30792 L 19.8923,-7.2617 L 19.8158,-7.21597
 L 19.7384,-7.17072 L 19.6601,-7.12595 L 19.581,-7.08168 L 19.5011,-7.03787 L 19.4203,-6.99455 L 19.3386,-6.95171
 L 19.2561,-6.90936 L 19.1728,-6.86749 L 19.0886,-6.8261 L 19.0035,-6.78519 L 18.9176,-6.74475 L 18.8312,-6.70502
 L 18.7447,-6.66614 L 18.6581,-6.62814 L 18.5713,-6.591 L 18.4845,-6.55475 L 18.3975,-6.51936 L 18.3103,-6.48488
 L 18.2231,-6.45123 L 18.1357,-6.41847 L 18.0482,-6.3866 L 17.9606,-6.35558 L 17.8729,-6.32544 L 17.7851,-6.29617
 L 17.6971,-6.26779 L 17.609,-6.24026 L 17.5208,-6.21361 L 17.4325,-6.18785 L 17.344,-6.16295 L 17.2554,-6.13893
 L 17.1667,-6.11578 L 17.0779,-6.09351 L 16.989,-6.0721 L 16.8999,-6.05157 L 16.8107,-6.03191 L 16.7214,-6.01314
 L 16.632,-5.99522 L 16.5424,-5.97818 L 16.4528,-5.96204 L 16.363,-5.94675 L 16.2731,-5.93233 L 16.183,-5.91878
 L 16.0929,-5.90611 L 16.0026,-5.89433 L 15.9122,-5.88341 L 15.8217,-5.87337 L 15.731,-5.86418 L 15.6403,-5.85588
 L 15.5494,-5.84846 L 15.4584,-5.8419 L 15.3672,-5.83623 L 15.276,-5.83144 L 15.1846,-5.82748 L 15.0931,-5.82443
 L 15.0015,-5.82227 L 14.9098,-5.82094 L 14.8179,-5.82051 L 14.6573,-5.8222 L 14.4982,-5.82732 L 14.3406,-5.83582
 L 14.1847,-5.84772 L 14.0303,-5.86304 L 13.8775,-5.88176 L 13.7262,-5.90387 L 13.5766,-5.9294 L 13.4285,-5.95833
 L 13.2819,-5.99065 L 13.137,-6.02638 L 12.9936,-6.06551 L 12.8518,-6.10805 L 12.7116,-6.15399 L 12.5729,-6.20332
 L 12.4358,-6.25607 L 12.3003,-6.31221 L 12.1664,-6.37177 L 12.034,-6.43472 L 11.9032,-6.50107 L 11.774,-6.57083
 L 11.6463,-6.644 L 11.5202,-6.72055 L 11.3957,-6.80054 L 11.2728,-6.8839 L 11.1514,-6.97067 L 11.0317,-7.06084
 L 10.9134,-7.15442 L 10.7968,-7.2514 L 10.6817,-7.35179 L 10.5682,-7.45557 L 10.4563,-7.56276 L 10.3459,-7.67336
 L 10.2372,-7.78735 L 10.1299,-7.90475 L 10.0243,-8.02554 L 9.92026,-8.14975 L 9.81776,-8.27736 L 9.71684,-8.40836
 L 9.61749,-8.54279 L 9.51973,-8.68059 L 9.42352,-8.82179 L 9.32889,-8.96643 L 9.23586,-9.11444 L 9.14436,-9.26587
 L 9.05444,-9.42072 L 8.96629,-9.57866 L 8.88008,-9.73943 L 8.79579,-9.90302 L 8.71346,-10.0695 L 8.63304,-10.2387
 L 8.55458,-10.4108 L 8.47806,-10.5857 L 8.40346,-10.7635 L 8.33081,-10.944 L 8.26009,-11.1274 L 8.1913,-11.3137
 L 8.12447,-11.5027 L 8.05956,-11.6946 L 7.9966,-11.8894 L 7.93556,-12.0869 L 7.87646,-12.2873 L 7.81931,-12.4905
 L 7.7641,-12.6965 L 7.71082,-12.9054 L 7.65947,-13.1171 L 7.61006,-13.3316 L 7.56259,-13.5489 L 7.51707,-13.7691
 L 7.47348,-13.9921 L 7.43182,-14.218 L 7.39209,-14.4466 L 7.35432,-14.6781 L 7.31847,-14.9124 L 7.28458,-15.1496
 L 7.25261,-15.3896 L 7.22256,-15.6324 L 7.19447,-15.878 L 7.16832,-16.1265 L 7.1441,-16.3778 L 7.12183,-16.6319
 L 7.10147,-16.8888 L 7.08307,-17.1486 L 7.0666,-17.4112 L 7.05208,-17.6767 L 7.03947,-17.9449 L 7.02882,-18.216
 L 7.02011,-18.49 L 7.01332,-18.7667 L 7.00848,-19.0463 L 7.00557,-19.3287 L 7.00461,-19.6139 L 7.00554,-19.8944
 L 7.00836,-20.172 L 7.01305,-20.4467 L 7.01962,-20.7186 L 7.02806,-20.9877 L 7.03838,-21.254 L 7.05057,-21.5173
 L 7.06465,-21.7779 L 7.0806,-22.0356 L 7.09842,-22.2904 L 7.11813,-22.5425 L 7.13971,-22.7916 L 7.16316,-23.038
 L 7.18849,-23.2814 L 7.2157,-23.5221 L 7.2448,-23.7599 L 7.27576,-23.9949 L 7.30859,-24.227 L 7.34331,-24.4563
 L 7.3799,-24.6827 L 7.41837,-24.9063 L 7.45871,-25.1271 L 7.50093,-25.345 L 7.54503,-25.56 L 7.591,-25.7723
 L 7.63885,-25.9816 L 7.68858,-26.1882 L 7.74019,-26.3919 L 7.79367,-26.5927 L 7.84903,-26.7908 L 7.90625,-26.9859
 L 7.96536,-27.1783 L 8.02635,-27.3678 L 8.08922,-27.5544 L 8.15396,-27.7382 L 8.22057,-27.9192 L 8.28906,-28.0973
 L 8.35944,-28.2726 L 8.43167,-28.445 L 8.50578,-28.6146 L 8.58179,-28.7813 L 8.65967,-28.9453 L 8.73941,-29.1063
 L 8.82104,-29.2645 L 8.90454,-29.4199 L 8.98993,-29.5724 L 9.07713,-29.7219 L 9.16606,-29.8681 L 9.25674,-30.011
 L 9.34914,-30.1507 L 9.4433,-30.287 L 9.53918,-30.42 L 9.63681,-30.5498 L 9.73618,-30.6763 L 9.83728,-30.7995
 L 9.94011,-30.9194 L 10.0447,-31.036 L 10.151,-31.1493 L 10.259,-31.2594 L 10.3688,-31.3662 L 10.4804,-31.4697
 L 10.5936,-31.5698 L 10.7086,-31.6667 L 10.8254,-31.7604 L 10.9438,-31.8507 L 11.0641,-31.9378 L 11.186,-32.0216
 L 11.3097,-32.102 L 11.4351,-32.1792 L 11.5623,-32.2532 L 11.6912,-32.3238 L 11.8218,-32.3911 L 11.9542,-32.4552
 L 12.0883,-32.516 L 12.2242,-32.5735 L 12.3618,-32.6277 L 12.5011,-32.6786 L 12.6422,-32.7262 L 12.7849,-32.7706
 L 12.9295,-32.8116 L 13.0758,-32.8494 L 13.2238,-32.8839 L 13.3735,-32.9151 L 13.525,-32.943 L 13.6783,-32.9677
 L 13.8332,-32.989 L 13.9899,-33.0071 L 14.1484,-33.0219 L 14.3085,-33.0334 L 14.4705,-33.0416 L 14.6341,-33.0465
 L 14.7995,-33.0482 L 14.9007,-33.0475 L 15.0014,-33.0453 L 15.1015,-33.0417 L 15.201,-33.0367 L 15.2999,-33.0302
 L 15.3983,-33.0224 L 15.496,-33.013 L 15.5932,-33.0023 L 15.6899,-32.9901 L 15.7859,-32.9765 L 15.8814,-32.9614
 L 15.9764,-32.9449 L 16.0707,-32.927 L 16.1645,-32.9076 L 16.2577,-32.8868 L 16.3503,-32.8646 L 16.4423,-32.8409
 L 16.5338,-32.8158 L 16.6247,-32.7893 L 16.7151,-32.7613 L 16.8048,-32.7319 L 16.894,-32.7011 L 16.9826,-32.6688
 L 17.0706,-32.6351 L 17.1581,-32.6 L 17.245,-32.5634 L 17.3313,-32.5254 L 17.417,-32.486 L 17.5022,-32.4451
 L 17.5868,-32.4028 L 17.6708,-32.3591 L 17.7543,-32.3139 L 17.8371,-32.2673 L 17.9194,-32.2192 L 18.0012,-32.1697
 L 18.0823,-32.1188 L 18.1629,-32.0665 L 18.2429,-32.0127 L 18.3223,-31.9575 L 18.4012,-31.9008 L 18.4795,-31.8427
 L 18.5572,-31.7832 L 18.6343,-31.7223 L 18.7109,-31.6599 L 18.7869,-31.5961 L 18.8623,-31.5308 L 18.937,-31.4642
 L 19.0109,-31.3962 L 19.0838,-31.3268 L 19.1559,-31.2561 L 19.2272,-31.1841 L 19.2975,-31.1107 L 19.3671,-31.0359
 L 19.4357,-30.9598 L 19.5034,-30.8823 L 19.5703,-30.8034 L 19.6363,-30.7233 L 19.7015,-30.6417 L 19.7658,-30.5588
 L 19.8292,-30.4745 L 19.8917,-30.3889 L 19.9534,-30.3019 L 20.0142,-30.2136 L 20.0741,-30.1239 L 20.1332,-30.0329
 L 20.1914,-29.9405 L 20.2487,-29.8467 L 20.3052,-29.7516 L 20.3608,-29.6551 L 20.4155,-29.5573 L 20.4694,-29.4581
 L 20.5224,-29.3576 L 20.5745,-29.2557 L 20.6257,-29.1525 L 20.6761,-29.0479 L 20.7256,-28.9419 L 20.7743,-28.8346
 L 20.8221,-28.7259 L 20.8689,-28.6159 L 20.915,-28.5045 L 20.9601,-28.3917 L 21.0044,-28.2776 L 21.0479,-28.1622
 L 21.0904,-28.0454 L 21.1321,-27.9272 L 21.1729,-27.8077 L 21.2129,-27.6868 L 21.252,-27.5646 L 21.2902,-27.441
 L 21.3275,-27.316 L 21.364,-27.1897 L 21.3996,-27.0621 L 26.4002,-29.3243 L 26.2892,-29.7597 L 26.1718,-30.1855
 L 26.0482,-30.6018 L 25.9184,-31.0085 L 25.7822,-31.4056 L 25.6398,-31.7931 L 25.4911,-32.1711 L 25.3362,-32.5395
 L 25.1749,-32.8984 L 25.0074,-33.2476 L 24.8336,-33.5873 L 24.6536,-33.9174 L 24.4673,-34.238 L 24.2747,-34.549
 L 24.0758,-34.8504 L 23.8707,-35.1423 L 23.6593,-35.4246 L 23.4416,-35.6973 L 23.2176,-35.9605 L 22.9874,-36.214
 L 22.7509,-36.458 L 22.5081,-36.6925 L 22.259,-36.9174 L 22.0037,-37.1327 L 21.7421,-37.3384 L 21.4742,-37.5346
 L 21.2001,-37.7212 L 20.9197,-37.8982 L 20.633,-38.0657 L 20.34,-38.2235 L 20.0408,-38.3719 L 19.7353,-38.5106
 L 19.4235,-38.6398 L 19.1054,-38.7594 L 18.7811,-38.8695 L 18.4505,-38.9699 L 18.1136,-39.0608 L 17.7705,-39.1422
 L 17.4211,-39.2139 L 17.0654,-39.2761 L 16.7034,-39.3288 L 16.3352,-39.3718 L 15.9607,-39.4053 L 15.5799,-39.4292
 L 15.1928,-39.4436 L 14.7995,-39.4484 L 14.522,-39.446 L 14.2472,-39.4387 L 13.9754,-39.4266 L 13.7063,-39.4097
 L 13.4401,-39.3879 L 13.1767,-39.3613 L 12.9162,-39.3299 L 12.6584,-39.2936 L 12.4036,-39.2525 L 12.1515,-39.2065
 L 11.9023,-39.1557 L 11.6559,-39.1001 L 11.4124,-39.0397 L 11.1716,-38.9744 L 10.9337,-38.9042 L 10.6987,-38.8293
 L 10.4664,-38.7494 L 10.237,-38.6648 L 10.0105,-38.5753 L 9.78674,-38.481 L 9.56584,-38.3818 L 9.34776,-38.2778
 L 9.13254,-38.169 L 8.92014,-38.0553 L 8.71056,-37.9368 L 8.50381,-37.8135 L 8.2999,-37.6853 L 8.09882,-37.5523
 L 7.90057,-37.4144 L 7.70517,-37.2717 L 7.51257,-37.1242 L 7.32283,-36.9718 L 7.13591,-36.8146 L 6.95183,-36.6526
 L 6.77057,-36.4857 L 6.59216,-36.314 L 6.41656,-36.1375 L 6.2438,-35.9561 L 6.07388,-35.7698 L 5.90678,-35.5788
 L 5.74252,-35.3829 L 5.5811,-35.1821 L 5.4225,-34.9766 L 5.26674,-34.7661 L 5.1138,-34.5509 L 4.9637,-34.3308
 L 4.81664,-34.1062 L 4.67282,-33.8774 L 4.53223,-33.6443 L 4.39487,-33.407 L 4.26074,-33.1654 L 4.12984,-32.9196
 L 4.00217,-32.6696 L 3.87773,-32.4153 L 3.75655,-32.1569 L 3.63857,-31.8941 L 3.52383,-31.6272 L 3.41232,-31.3559
 L 3.30406,-31.0805 L 3.19902,-30.8008 L 3.09721,-30.5169 L 2.99863,-30.2287 L 2.90329,-29.9364 L 2.81117,-29.6397
 L 2.72229,-29.3389 L 2.63664,-29.0338 L 2.55423,-28.7244 L 2.47504,-28.4108 L 2.39909,-28.093 L 2.32637,-27.771
 L 2.25688,-27.4447 L 2.19063,-27.1142 L 2.12759,-26.7794 L 2.06781,-26.4404 L 2.01125,-26.0972 L 1.95792,-25.7497
 L 1.90782,-25.398 L 1.86095,-25.042 L 1.81732,-24.6819 L 1.77693,-24.3174 L 1.73976,-23.9488 L 1.70583,-23.5759
 L 1.67513,-23.1988 L 1.64764,-22.8174 L 1.6234,-22.4318 L 1.6024,-22.0419 L 1.58461,-21.6479 L 1.57007,-21.2496
 L 1.55876,-20.847 L 1.55069,-20.4402 L 1.54584,-20.0292 L 1.54422,-19.6139 L 1.54582,-19.1962 L 1.55064,-18.7827
 L 1.55869,-18.3733 L 1.56993,-17.968 L 1.5844,-17.5669 L 1.60208,-17.17 L 1.62297,-16.7772 L 1.64708,-16.3886
 L 1.67441,-16.0042 L 1.70494,-15.6239 L 1.73871,-15.2477 L 1.77568,-14.8758 L 1.81586,-14.508 L 1.85925,-14.1443
 L 1.90585,-13.7848 L 1.95569,-13.4295 L 2.00873,-13.0783 L 2.06497,-12.7313 L 2.12445,-12.3884 L 2.18713,-12.0497
 L 2.25304,-11.7152 L 2.32216,-11.3848 L 2.39449,-11.0586 L 2.47002,-10.7365 L 2.54878,-10.4186 L 2.63075,-10.1049
 L 2.71594,-9.79529 L 2.80435,-9.48988 L 2.89595,-9.1886 L 2.99078,-8.89149 L 3.08884,-8.59856 L 3.19009,-8.30975
 L 3.29457,-8.02513 L 3.40225,-7.74466 L 3.51317,-7.46834 L 3.62727,-7.1962 L 3.74461,-6.92819 L 3.86516,-6.66437
 L 3.98892,-6.40469 L 4.11591,-6.14919 L 4.24609,-5.89781 L 4.3795,-5.65062 L 4.51611,-5.40759 L 4.65596,-5.1687
 L 4.79901,-4.93399 L 4.94527,-4.70343 L 5.09453,-4.47743 L 5.24655,-4.25641 L 5.40135,-4.04034 L 5.5589,-3.82924
 L 5.71921,-3.62311 L 5.88229,-3.42194 L 6.04814,-3.22575 L 6.21674,-3.03453 L 6.38809,-2.84827 L 6.56223,-2.66696
 L 6.73912,-2.49065 L 6.91878,-2.31927 L 7.10118,-2.15289 L 7.28638,-1.99146 L 7.47432,-1.83499 L 7.66501,-1.6835
 L 7.85847,-1.53699 L 8.0547,-1.39543 L 8.25371,-1.25883 L 8.45546,-1.12721 L 8.65997,-1.00055 L 8.86725,-0.87886
 L 9.0773,-0.762131 L 9.29008,-0.650375 L 9.50566,-0.543579 L 9.72398,-0.441757 L 9.94508,-0.344894 L 10.1689,-0.253021
 L 10.3956,-0.166092 L 10.6249,-0.084137 L 10.8571,-0.00714111 L 11.092,0.0648499 L 11.3297,0.131897 L 11.5701,0.193985
 L 11.8133,0.251114 L 12.0592,0.303268 L 12.3079,0.350449 L 12.5594,0.39267 L 12.8137,0.429916 L 13.0707,0.462204
 L 13.3304,0.489517 L 13.593,0.511871 L 13.8583,0.529251 L 14.1263,0.541672 L 14.3971,0.549118 L 14.6707,0.551605
 z
M 50.4426,-6.28955 L 36.544,-6.28955 L 36.544,-38.8691 L 31.1205,-38.8691 L 31.1205,-0 L 50.4426,-0
 z
M 66.7467,-0.00135803 L 66.9484,-0.00544739 L 67.1482,-0.0122986 L 67.346,-0.0218811 L 67.5419,-0.0342102 L 67.7358,-0.0492554
 L 67.9278,-0.0670624 L 68.1178,-0.0875854 L 68.3059,-0.110855 L 68.492,-0.136856 L 68.6762,-0.165619 L 68.8585,-0.197083
 L 69.0388,-0.231323 L 69.2171,-0.268265 L 69.3935,-0.307968 L 69.568,-0.350403 L 69.7405,-0.395569 L 69.9111,-0.443481
 L 70.0797,-0.494125 L 70.2464,-0.547501 L 70.4111,-0.603638 L 70.5739,-0.662491 L 70.7347,-0.724091 L 70.8936,-0.788422
 L 71.0506,-0.855499 L 71.2056,-0.925308 L 71.3586,-0.997864 L 71.5097,-1.07314 L 71.6589,-1.15117 L 71.8061,-1.23192
 L 71.9514,-1.31543 L 72.0947,-1.40166 L 72.2361,-1.49063 L 72.3755,-1.58234 L 72.513,-1.67679 L 72.6485,-1.77397
 L 72.7821,-1.8739 L 72.9138,-1.97656 L 73.0435,-2.08197 L 73.1712,-2.19009 L 73.297,-2.30098 L 73.4209,-2.41458
 L 73.5428,-2.53094 L 73.6628,-2.65002 L 73.7808,-2.77185 L 73.8969,-2.89641 L 74.0107,-3.0235 L 74.1221,-3.15285
 L 74.2309,-3.28447 L 74.3372,-3.41835 L 74.4411,-3.55452 L 74.5424,-3.69293 L 74.6413,-3.83362 L 74.7376,-3.97659
 L 74.8314,-4.12181 L 74.9228,-4.26932 L 75.0116,-4.41908 L 75.0979,-4.57112 L 75.1817,-4.72542 L 75.2631,-4.88199
 L 75.3419,-5.04082 L 75.4182,-5.20193 L 75.492,-5.36531 L 75.5634,-5.53094 L 75.6322,-5.69885 L 75.6985,-5.86903
 L 75.7623,-6.04149 L 75.8236,-6.2162 L 75.8824,-6.39317 L 75.9387,-6.57243 L 75.9925,-6.75395 L 76.0438,-6.93774
 L 76.0926,-7.12379 L 76.1389,-7.31212 L 76.1826,-7.50272 L 76.2239,-7.69557 L 76.2627,-7.8907 L 76.299,-8.08809
 L 76.3328,-8.28777 L 76.3641,-8.4897 L 76.3928,-8.69389 L 76.4191,-8.90038 L 76.4429,-9.1091 L 76.4642,-9.3201
 L 76.4829,-9.53339 L 76.4992,-9.74892 L 76.5129,-9.96674 L 76.5242,-10.1868 L 76.533,-10.4092 L 76.5392,-10.6338
 L 76.543,-10.8607 L 76.5442,-11.0898 L 76.5434,-11.2618 L 76.5411,-11.4323 L 76.5372,-11.6013 L 76.5318,-11.7689
 L 76.5248,-11.935 L 76.5162,-12.0996 L 76.5061,-12.2627 L 76.4945,-12.4244 L 76.4812,-12.5846 L 76.4665,-12.7433
 L 76.4501,-12.9005 L 76.4323,-13.0563 L 76.4128,-13.2106 L 76.3918,-13.3634 L 76.3693,-13.5148 L 76.3452,-13.6646
 L 76.3195,-13.813 L 76.2923,-13.96 L 76.2635,-14.1054 L 76.2332,-14.2494 L 76.2013,-14.3919 L 76.1679,-14.533
 L 76.1329,-14.6725 L 76.0963,-14.8106 L 76.0582,-14.9472 L 76.0186,-15.0824 L 75.9774,-15.216 L 75.9346,-15.3482
 L 75.8903,-15.4789 L 75.8444,-15.6082 L 75.797,-15.736 L 75.748,-15.8623 L 75.6974,-15.9871 L 75.6453,-16.1105
 L 75.5917,-16.2323 L 75.5365,-16.3528 L 75.4797,-16.4717 L 75.4214,-16.5891 L 75.3615,-16.7051 L 75.3001,-16.8196
 L 75.2371,-16.9327 L 75.1726,-17.0443 L 75.1065,-17.1543 L 75.0388,-17.263 L 74.9696,-17.3701 L 74.8989,-17.4758
 L 74.8266,-17.5799 L 74.753,-17.6822 L 74.6779,-17.7827 L 74.6014,-17.8815 L 74.5235,-17.9786 L 74.4442,-18.0738
 L 74.3634,-18.1673 L 74.2812,-18.2591 L 74.1977,-18.3491 L 74.1127,-18.4373 L 74.0263,-18.5238 L 73.9384,-18.6085
 L 73.8492,-18.6915 L 73.7586,-18.7727 L 73.6665,-18.8521 L 73.573,-18.9298 L 73.4781,-19.0057 L 73.3818,-19.0798
 L 73.284,-19.1522 L 73.1849,-19.2228 L 73.0843,-19.2917 L 72.9823,-19.3588 L 72.8789,-19.4242 L 72.7741,-19.4877
 L 72.6678,-19.5496 L 72.5602,-19.6097 L 72.4511,-19.668 L 72.3407,-19.7245 L 72.2288,-19.7793 L 72.1154,-19.8323
 L 72.0007,-19.8836 L 71.8846,-19.9331 L 71.767,-19.9809 L 71.648,-20.0268 L 71.5276,-20.0711 L 71.4058,-20.1135
 L 71.2826,-20.1542 L 71.1579,-20.1932 L 71.0318,-20.2304 L 70.9044,-20.2658 L 70.7755,-20.2995 L 70.6452,-20.3314
 L 70.5134,-20.3615 L 70.3803,-20.3899 L 70.2457,-20.4165 L 70.1098,-20.4414 L 70.2178,-20.4769 L 70.3247,-20.5137
 L 70.4304,-20.552 L 70.5349,-20.5917 L 70.6382,-20.6328 L 70.7402,-20.6752 L 70.8411,-20.7191 L 70.9407,-20.7643
 L 71.0392,-20.811 L 71.1364,-20.859 L 71.2324,-20.9084 L 71.3272,-20.9593 L 71.4208,-21.0115 L 71.5132,-21.0651
 L 71.6044,-21.1201 L 71.6944,-21.1765 L 71.7832,-21.2343 L 71.8707,-21.2935 L 71.9571,-21.3541 L 72.0423,-21.4161
 L 72.1262,-21.4795 L 72.2089,-21.5443 L 72.2905,-21.6104 L 72.3708,-21.678 L 72.4499,-21.7469 L 72.5278,-21.8173
 L 72.6045,-21.8891 L 72.68,-21.9622 L 72.7543,-22.0367 L 72.8274,-22.1127 L 72.8992,-22.19 L 72.9699,-22.2687
 L 73.0394,-22.3488 L 73.1076,-22.4303 L 73.1746,-22.5132 L 73.2404,-22.5975 L 73.3051,-22.6832 L 73.3685,-22.7703
 L 73.4307,-22.8588 L 73.4917,-22.9487 L 73.5515,-23.0399 L 73.6101,-23.1326 L 73.6674,-23.2267 L 73.7236,-23.3221
 L 73.7786,-23.419 L 73.8323,-23.5172 L 73.8849,-23.6167 L 73.9363,-23.7171 L 73.9866,-23.8185 L 74.0357,-23.9209
 L 74.0837,-24.0242 L 74.1305,-24.1286 L 74.1761,-24.2339 L 74.2206,-24.3401 L 74.264,-24.4474 L 74.3062,-24.5557
 L 74.3472,-24.6649 L 74.387,-24.7751 L 74.4258,-24.8863 L 74.4633,-24.9984 L 74.4997,-25.1116 L 74.535,-25.2257
 L 74.5691,-25.3407 L 74.602,-25.4568 L 74.6338,-25.5738 L 74.6644,-25.6919 L 74.6939,-25.8109 L 74.7222,-25.9308
 L 74.7494,-26.0518 L 74.7754,-26.1737 L 74.8002,-26.2966 L 74.8239,-26.4205 L 74.8464,-26.5454 L 74.8678,-26.6712
 L 74.888,-26.798 L 74.9071,-26.9258 L 74.925,-27.0546 L 74.9418,-27.1843 L 74.9574,-27.315 L 74.9718,-27.4468
 L 74.9851,-27.5794 L 74.9972,-27.7131 L 75.0082,-27.8477 L 75.0181,-27.9833 L 75.0267,-28.1199 L 75.0342,-28.2575
 L 75.0406,-28.396 L 75.0458,-28.5356 L 75.0498,-28.6761 L 75.0527,-28.8175 L 75.0545,-28.96 L 75.055,-29.1034
 L 75.0539,-29.3122 L 75.0504,-29.5187 L 75.0447,-29.7231 L 75.0366,-29.9251 L 75.0262,-30.125 L 75.0136,-30.3226
 L 74.9986,-30.518 L 74.9813,-30.7112 L 74.9618,-30.9021 L 74.9399,-31.0909 L 74.9157,-31.2773 L 74.8893,-31.4616
 L 74.8605,-31.6436 L 74.8294,-31.8234 L 74.796,-32.001 L 74.7603,-32.1763 L 74.7223,-32.3494 L 74.682,-32.5203
 L 74.6395,-32.689 L 74.5946,-32.8554 L 74.5474,-33.0196 L 74.4978,-33.1815 L 74.446,-33.3413 L 74.392,-33.4988
 L 74.3355,-33.6541 L 74.2768,-33.8071 L 74.2158,-33.9579 L 74.1525,-34.1065 L 74.0869,-34.2529 L 74.019,-34.397
 L 73.9487,-34.5389 L 73.8762,-34.6785 L 73.8014,-34.816 L 73.7243,-34.9512 L 73.6448,-35.0842 L 73.5631,-35.2149
 L 73.479,-35.3434 L 73.3927,-35.4697 L 73.3041,-35.5938 L 73.2131,-35.7156 L 73.1199,-35.8352 L 73.0243,-35.9526
 L 72.9265,-36.0678 L 72.8263,-36.1807 L 72.7239,-36.2914 L 72.6191,-36.3998 L 72.5121,-36.506 L 72.4029,-36.6099
 L 72.2916,-36.7114 L 72.178,-36.8106 L 72.0623,-36.9074 L 71.9444,-37.002 L 71.8243,-37.0941 L 71.7021,-37.184
 L 71.5776,-37.2715 L 71.451,-37.3567 L 71.3222,-37.4396 L 71.1912,-37.5201 L 71.058,-37.5983 L 70.9227,-37.6741
 L 70.7851,-37.7477 L 70.6454,-37.8188 L 70.5035,-37.8877 L 70.3595,-37.9542 L 70.2132,-38.0184 L 70.0648,-38.0802
 L 69.9141,-38.1398 L 69.7613,-38.1969 L 69.6064,-38.2518 L 69.4492,-38.3043 L 69.2899,-38.3545 L 69.1283,-38.4023
 L 68.9646,-38.4478 L 68.7988,-38.491 L 68.6307,-38.5318 L 68.4604,-38.5704 L 68.288,-38.6065 L 68.1134,-38.6404
 L 67.9366,-38.6719 L 67.7576,-38.701 L 67.5765,-38.7279 L 67.3932,-38.7524 L 67.2077,-38.7746 L 67.02,-38.7944
 L 66.8301,-38.8119 L 66.638,-38.8271 L 66.4438,-38.8399 L 66.2474,-38.8504 L 66.0488,-38.8586 L 65.848,-38.8644
 L 65.6451,-38.8679 L 65.4399,-38.8691 L 53.5819,-38.8691 L 53.5819,-0 L 66.543,-0 z
M 59.0054,-23.1999 L 59.0054,-32.8277 L 65.1826,-32.8277 L 65.2773,-32.8272 L 65.3708,-32.8256 L 65.4634,-32.823
 L 65.555,-32.8193 L 65.6455,-32.8147 L 65.7351,-32.8089 L 65.8236,-32.8021 L 65.9111,-32.7943 L 65.9976,-32.7854
 L 66.083,-32.7755 L 66.1675,-32.7646 L 66.2509,-32.7526 L 66.3333,-32.7395 L 66.4147,-32.7254 L 66.4951,-32.7103
 L 66.5745,-32.6942 L 66.6528,-32.677 L 66.7301,-32.6587 L 66.8065,-32.6394 L 66.8817,-32.619 L 66.956,-32.5977
 L 67.0293,-32.5752 L 67.1015,-32.5518 L 67.1728,-32.5273 L 67.243,-32.5017 L 67.3122,-32.4751 L 67.3803,-32.4474
 L 67.4475,-32.4188 L 67.5137,-32.389 L 67.5788,-32.3583 L 67.6429,-32.3264 L 67.706,-32.2936 L 67.7681,-32.2597
 L 67.8291,-32.2247 L 67.8892,-32.1888 L 67.9482,-32.1517 L 68.0062,-32.1136 L 68.0632,-32.0745 L 68.1192,-32.0344
 L 68.1741,-31.9932 L 68.2281,-31.9509 L 68.281,-31.9076 L 68.3329,-31.8633 L 68.3838,-31.8179 L 68.4337,-31.7715
 L 68.4826,-31.724 L 68.5304,-31.6753 L 68.5772,-31.6252 L 68.6229,-31.5737 L 68.6676,-31.5207 L 68.7112,-31.4663
 L 68.7538,-31.4104 L 68.7953,-31.3531 L 68.8358,-31.2944 L 68.8752,-31.2342 L 68.9136,-31.1726 L 68.9509,-31.1096
 L 68.9872,-31.0452 L 69.0224,-30.9793 L 69.0566,-30.9119 L 69.0897,-30.8432 L 69.1218,-30.773 L 69.1528,-30.7013
 L 69.1828,-30.6283 L 69.2117,-30.5538 L 69.2395,-30.4778 L 69.2664,-30.4005 L 69.2921,-30.3217 L 69.3168,-30.2414
 L 69.3405,-30.1598 L 69.3631,-30.0767 L 69.3846,-29.9921 L 69.4051,-29.9062 L 69.4246,-29.8187 L 69.443,-29.7299
 L 69.4603,-29.6396 L 69.4766,-29.5479 L 69.4919,-29.4548 L 69.5061,-29.3602 L 69.5192,-29.2642 L 69.5313,-29.1667
 L 69.5423,-29.0679 L 69.5523,-28.9675 L 69.5613,-28.8658 L 69.5692,-28.7626 L 69.576,-28.658 L 69.5818,-28.5519
 L 69.5865,-28.4445 L 69.5902,-28.3355 L 69.5928,-28.2252 L 69.5944,-28.1134 L 69.5949,-28.0002 L 69.5944,-27.8964
 L 69.593,-27.7937 L 69.5905,-27.6922 L 69.5871,-27.5918 L 69.5826,-27.4926 L 69.5772,-27.3945 L 69.5708,-27.2975
 L 69.5635,-27.2016 L 69.5551,-27.1069 L 69.5458,-27.0134 L 69.5355,-26.9209 L 69.5242,-26.8296 L 69.5119,-26.7394
 L 69.4987,-26.6504 L 69.4845,-26.5625 L 69.4692,-26.4757 L 69.453,-26.3901 L 69.4358,-26.3056 L 69.4177,-26.2222
 L 69.3985,-26.14 L 69.3784,-26.0589 L 69.3573,-25.9789 L 69.3352,-25.9001 L 69.3121,-25.8224 L 69.2881,-25.7458
 L 69.263,-25.6703 L 69.237,-25.5961 L 69.21,-25.5229 L 69.182,-25.4509 L 69.153,-25.38 L 69.1231,-25.3102
 L 69.0922,-25.2416 L 69.0603,-25.1741 L 69.0274,-25.1078 L 68.9935,-25.0425 L 68.9586,-24.9785 L 68.9228,-24.9155
 L 68.886,-24.8537 L 68.8481,-24.793 L 68.8094,-24.7334 L 68.7696,-24.675 L 68.7288,-24.6178 L 68.6871,-24.5616
 L 68.6444,-24.5066 L 68.6007,-24.4527 L 68.556,-24.4 L 68.5103,-24.3483 L 68.4633,-24.2979 L 68.4152,-24.2485
 L 68.3659,-24.2003 L 68.3154,-24.1533 L 68.2637,-24.1073 L 68.2108,-24.0625 L 68.1567,-24.0188 L 68.1014,-23.9763
 L 68.0449,-23.9349 L 67.9873,-23.8946 L 67.9284,-23.8555 L 67.8684,-23.8175 L 67.8072,-23.7806 L 67.7448,-23.7449
 L 67.6812,-23.7103 L 67.6164,-23.6769 L 67.5504,-23.6445 L 67.4832,-23.6133 L 67.4148,-23.5833 L 67.3453,-23.5544
 L 67.2745,-23.5266 L 67.2026,-23.4999 L 67.1295,-23.4744 L 67.0551,-23.45 L 66.9796,-23.4268 L 66.9029,-23.4046
 L 66.825,-23.3837 L 66.746,-23.3638 L 66.6657,-23.3451 L 66.5842,-23.3275 L 66.5016,-23.3111 L 66.4178,-23.2957
 L 66.3327,-23.2816 L 66.2465,-23.2685 L 66.1591,-23.2566 L 66.0705,-23.2458 L 65.9807,-23.2362 L 65.8897,-23.2277
 L 65.7975,-23.2203 L 65.7042,-23.2141 L 65.6096,-23.209 L 65.5139,-23.205 L 65.4169,-23.2022 L 65.3188,-23.2005
 L 65.2195,-23.1999 z
M 59.0054,-6.04141 L 59.0054,-17.1861 L 65.8813,-17.1861 L 66.1058,-17.1836 L 66.3254,-17.1758 L 66.5401,-17.1629
 L 66.7498,-17.1449 L 66.9547,-17.1216 L 67.1545,-17.0932 L 67.3494,-17.0596 L 67.5394,-17.0209 L 67.7245,-16.9771
 L 67.9046,-16.928 L 68.0798,-16.8738 L 68.2501,-16.8144 L 68.4154,-16.7499 L 68.5758,-16.6802 L 68.7313,-16.6053
 L 68.8818,-16.5253 L 69.0274,-16.4401 L 69.168,-16.3498 L 69.3037,-16.2543 L 69.4345,-16.1536 L 69.5603,-16.0478
 L 69.6813,-15.9368 L 69.7972,-15.8206 L 69.9083,-15.6993 L 70.0144,-15.5728 L 70.1155,-15.4412 L 70.2118,-15.3044
 L 70.3031,-15.1624 L 70.3894,-15.0152 L 70.4709,-14.8629 L 70.5473,-14.7055 L 70.6189,-14.5429 L 70.6855,-14.3751
 L 70.7472,-14.2021 L 70.804,-14.024 L 70.8558,-13.8407 L 70.9027,-13.6523 L 70.9446,-13.4587 L 70.9816,-13.2599
 L 71.0137,-13.056 L 71.0409,-12.8469 L 71.0631,-12.6326 L 71.0803,-12.4132 L 71.0927,-12.1887 L 71.1001,-11.9589
 L 71.1026,-11.724 L 71.102,-11.6012 L 71.1003,-11.4796 L 71.0974,-11.3595 L 71.0934,-11.2406 L 71.0883,-11.1232
 L 71.0821,-11.007 L 71.0747,-10.8922 L 71.0661,-10.7788 L 71.0564,-10.6666 L 71.0456,-10.5559 L 71.0337,-10.4464
 L 71.0206,-10.3383 L 71.0064,-10.2316 L 70.991,-10.1262 L 70.9745,-10.0221 L 70.9568,-9.9194 L 70.9381,-9.81802
 L 70.9182,-9.71799 L 70.8971,-9.61929 L 70.8749,-9.52196 L 70.8516,-9.42593 L 70.8271,-9.33128 L 70.8015,-9.23795
 L 70.7747,-9.14597 L 70.7468,-9.05533 L 70.7178,-8.96602 L 70.6877,-8.87807 L 70.6564,-8.79146 L 70.6239,-8.70619
 L 70.5903,-8.62227 L 70.5556,-8.53967 L 70.5198,-8.45842 L 70.4828,-8.37852 L 70.4446,-8.29997 L 70.4054,-8.22275
 L 70.365,-8.14688 L 70.3234,-8.07234 L 70.2807,-7.99916 L 70.2369,-7.92731 L 70.192,-7.8568 L 70.1459,-7.78763
 L 70.0986,-7.71982 L 70.0502,-7.65334 L 70.0007,-7.58821 L 69.9501,-7.52441 L 69.8983,-7.46194 L 69.8453,-7.40085
 L 69.7909,-7.34111 L 69.7352,-7.28271 L 69.6782,-7.22563 L 69.6199,-7.16992 L 69.5602,-7.11554 L 69.4992,-7.06252
 L 69.4369,-7.01082 L 69.3732,-6.96046 L 69.3082,-6.91145 L 69.2419,-6.8638 L 69.1743,-6.81746 L 69.1053,-6.77249
 L 69.035,-6.72885 L 68.9634,-6.68657 L 68.8904,-6.64561 L 68.8161,-6.60599 L 68.7405,-6.56772 L 68.6635,-6.53081
 L 68.5853,-6.49522 L 68.5057,-6.46098 L 68.4247,-6.42809 L 68.3425,-6.39655 L 68.2589,-6.36633 L 68.174,-6.33746
 L 68.0877,-6.30994 L 68.0001,-6.28375 L 67.9112,-6.25891 L 67.821,-6.23541 L 67.7294,-6.21326 L 67.6365,-6.19244
 L 67.5423,-6.17299 L 67.4467,-6.15486 L 67.3498,-6.13808 L 67.2516,-6.12263 L 67.1521,-6.10854 L 67.0512,-6.09578
 L 66.949,-6.08437 L 66.8455,-6.0743 L 66.7406,-6.06557 L 66.6344,-6.05818 L 66.5269,-6.05214 L 66.418,-6.04744
 L 66.3079,-6.0441 L 66.1964,-6.04207 L 66.0835,-6.04141 z
" stroke="black" fill="black" stroke-width="0.5"/>
</svg>
