<?xml version="1.0" standalone="no"?>
<!DOCTYPE svg PUBLIC "-//W3C//DTD SVG 1.1//EN" "http://www.w3.org/Graphics/SVG/1.1/DTD/svg11.dtd">
<svg width="100mm" height="100mm" viewBox="-8 -108 116 116" xmlns="http://www.w3.org/2000/svg" version="1.1">
<title>OpenSCAD Model</title>
<path d="
M 84.1993,-0.00497437 L 84.3984,-0.0149078 L 84.5973,-0.0298004 L 84.7955,-0.0546417 L 84.9926,-0.0843658 L 85.1891,-0.119003
 L 85.3832,-0.163315 L 85.5764,-0.212509 L 85.7684,-0.266525 L 85.9575,-0.330063 L 86.1449,-0.398254 L 86.3306,-0.471115
 L 86.5125,-0.553223 L 86.6922,-0.63974 L 86.8696,-0.730728 L 87.0423,-0.830399 L 87.2124,-0.934357 L 87.3799,-1.04256
 L 87.5419,-1.15901 L 87.7008,-1.2794 L 87.8568,-1.40376 L 88.0063,-1.53571 L 88.1524,-1.67133 L 88.2952,-1.81058
 L 88.4308,-1.95677 L 88.5628,-2.10626 L 88.691,-2.25905 L 88.8113,-2.41792 L 88.9277,-2.5798 L 89.0401,-2.74458
 L 89.1443,-2.9151 L 89.244,-3.08778 L 89.3393,-3.26295 L 89.4258,-3.44243 L 89.5078,-3.62416 L 89.5852,-3.80795
 L 89.6534,-3.99522 L 89.7169,-4.18422 L 89.7757,-4.3748 L 89.825,-4.56818 L 89.8693,-4.76257 L 89.9088,-4.95807
 L 89.9386,-5.15555 L 89.9634,-5.35338 L 89.9832,-5.55183 L 89.9916,-5.70078 L 89.9972,-5.85023 L 90,-6
 L 90,-94 L 89.995,-94.1993 L 89.9851,-94.3984 L 89.9702,-94.5973 L 89.9454,-94.7955 L 89.9156,-94.9926
 L 89.881,-95.1891 L 89.8367,-95.3832 L 89.7875,-95.5764 L 89.7335,-95.7684 L 89.6699,-95.9575 L 89.6017,-96.1449
 L 89.5289,-96.3306 L 89.4468,-96.5125 L 89.3603,-96.6922 L 89.2693,-96.8696 L 89.1696,-97.0423 L 89.0656,-97.2124
 L 88.9574,-97.3799 L 88.841,-97.5419 L 88.7206,-97.7008 L 88.5962,-97.8568 L 88.4643,-98.0063 L 88.3287,-98.1524
 L 88.1894,-98.2952 L 88.0432,-98.4308 L 87.8937,-98.5628 L 87.741,-98.691 L 87.5821,-98.8113 L 87.4202,-98.9277
 L 87.2554,-99.0401 L 87.0849,-99.1443 L 86.9122,-99.244 L 86.737,-99.3393 L 86.5576,-99.4258 L 86.3758,-99.5078
 L 86.192,-99.5852 L 86.0048,-99.6534 L 85.8158,-99.7169 L 85.6252,-99.7757 L 85.4318,-99.825 L 85.2374,-99.8693
 L 85.0419,-99.9088 L 84.8445,-99.9386 L 84.6466,-99.9634 L 84.4482,-99.9832 L 84.2992,-99.9916 L 84.1498,-99.9972
 L 84,-100 L 36,-100 L 10,-74 L 10,-50 L 14,-50 L 14,-70
 L 34,-70 L 34.1993,-70.005 L 34.3984,-70.0149 L 34.5973,-70.0298 L 34.7955,-70.0546 L 34.9926,-70.0844
 L 35.1891,-70.119 L 35.3832,-70.1633 L 35.5764,-70.2125 L 35.7684,-70.2665 L 35.9575,-70.3301 L 36.1449,-70.3983
 L 36.3306,-70.4711 L 36.5125,-70.5532 L 36.6922,-70.6397 L 36.8696,-70.7307 L 37.0423,-70.8304 L 37.2124,-70.9344
 L 37.3799,-71.0426 L 37.5419,-71.159 L 37.7008,-71.2794 L 37.8568,-71.4038 L 38.0063,-71.5357 L 38.1524,-71.6713
 L 38.2952,-71.8106 L 38.4308,-71.9568 L 38.5628,-72.1063 L 38.691,-72.259 L 38.8113,-72.4179 L 38.9277,-72.5798
 L 39.0401,-72.7446 L 39.1443,-72.9151 L 39.244,-73.0878 L 39.3393,-73.263 L 39.4258,-73.4424 L 39.5078,-73.6242
 L 39.5852,-73.808 L 39.6534,-73.9952 L 39.7169,-74.1842 L 39.7757,-74.3748 L 39.825,-74.5682 L 39.8693,-74.7626
 L 39.9088,-74.9581 L 39.9386,-75.1555 L 39.9634,-75.3534 L 39.9832,-75.5518 L 39.9916,-75.7008 L 39.9972,-75.8502
 L 40,-76 L 40,-96 L 84,-96 L 84.1495,-95.9944 L 84.3473,-95.9696 L 84.5417,-95.9252
 L 84.7307,-95.8617 L 84.9124,-95.7797 L 85.0851,-95.6801 L 85.247,-95.5637 L 85.3965,-95.4317 L 85.5321,-95.2856
 L 85.6525,-95.1266 L 85.7564,-94.9565 L 85.843,-94.7769 L 85.9111,-94.5895 L 85.9603,-94.3963 L 85.9901,-94.1991
 L 86,-94 L 86,-6 L 85.9944,-5.85054 L 85.9696,-5.65271 L 85.9252,-5.45831 L 85.8617,-5.26932
 L 85.7797,-5.08759 L 85.6801,-4.9149 L 85.5637,-4.75302 L 85.4317,-4.60353 L 85.2856,-4.46791 L 85.1266,-4.34752
 L 84.9565,-4.24356 L 84.7769,-4.15704 L 84.5895,-4.08885 L 84.3963,-4.03966 L 84.1991,-4.00993 L 84,-4
 L 80,-4 L 80,-0 L 84,-0 z
M 13.7399,0.550171 L 13.9912,0.545898 L 14.2399,0.538757 L 14.4858,0.528763 L 14.7291,0.51593 L 14.9697,0.500229
 L 15.2076,0.481659 L 15.4428,0.460251 L 15.6754,0.435974 L 15.9052,0.408875 L 16.1324,0.378891 L 16.3569,0.346054
 L 16.5787,0.310379 L 16.7979,0.27182 L 17.0143,0.230423 L 17.2281,0.186188 L 17.4392,0.139069 L 17.6476,0.0891113
 L 17.8533,0.0362854 L 18.0563,-0.0193481 L 18.2567,-0.0778809 L 18.4544,-0.139252 L 18.6494,-0.203476 L 18.8417,-0.270584
 L 19.0313,-0.34053 L 19.2183,-0.413315 L 19.4025,-0.488968 L 19.5841,-0.56749 L 19.763,-0.648865 L 19.9392,-0.733078
 L 20.1128,-0.820145 L 20.2836,-0.91008 L 20.4518,-1.00285 L 20.6173,-1.0985 L 20.7801,-1.19699 L 20.9402,-1.29834
 L 21.0977,-1.40254 L 21.2525,-1.50961 L 21.4045,-1.61952 L 21.5539,-1.7323 L 21.7007,-1.84792 L 21.8447,-1.9664
 L 21.986,-2.08772 L 22.1247,-2.21191 L 22.2607,-2.33897 L 22.394,-2.46887 L 22.5246,-2.60147 L 22.6522,-2.73663
 L 22.7771,-2.87433 L 22.899,-3.01457 L 23.0181,-3.15735 L 23.1342,-3.30269 L 23.2476,-3.45056 L 23.358,-3.60095
 L 23.4656,-3.75391 L 23.5704,-3.90939 L 23.6722,-4.06744 L 23.7712,-4.22801 L 23.8673,-4.39113 L 23.9606,-4.55679
 L 24.0509,-4.72499 L 24.1385,-4.89574 L 24.2231,-5.06902 L 24.3049,-5.24486 L 24.3838,-5.42322 L 24.4598,-5.60414
 L 24.533,-5.7876 L 24.6033,-5.97357 L 24.6707,-6.16212 L 24.7352,-6.3532 L 24.7969,-6.54683 L 24.8557,-6.74298
 L 24.9117,-6.94168 L 24.9648,-7.14294 L 25.015,-7.34673 L 25.0623,-7.55305 L 25.1068,-7.76193 L 25.1484,-7.97334
 L 25.1871,-8.1873 L 25.223,-8.40379 L 25.256,-8.62283 L 25.2861,-8.84442 L 25.3134,-9.06856 L 25.3378,-9.29521
 L 25.3593,-9.52441 L 25.3779,-9.75616 L 25.3937,-9.99046 L 25.4066,-10.2273 L 25.4167,-10.4667 L 25.4238,-10.7086
 L 25.4281,-10.953 L 25.4296,-11.2001 L 25.4293,-11.3053 L 25.4286,-11.4101 L 25.4273,-11.5143 L 25.4255,-11.6179
 L 25.4233,-11.7211 L 25.4205,-11.8237 L 25.4172,-11.9257 L 25.4134,-12.0273 L 25.4091,-12.1283 L 25.4043,-12.2287
 L 25.399,-12.3286 L 25.3932,-12.428 L 25.3869,-12.5269 L 25.3801,-12.6252 L 25.3728,-12.723 L 25.365,-12.8203
 L 25.3566,-12.917 L 25.3478,-13.0132 L 25.3385,-13.1088 L 25.3286,-13.2039 L 25.3183,-13.2985 L 25.3074,-13.3926
 L 25.2961,-13.4861 L 25.2842,-13.5791 L 25.2719,-13.6715 L 25.259,-13.7634 L 25.2456,-13.8548 L 25.2318,-13.9456
 L 25.2174,-14.0359 L 25.2025,-14.1257 L 25.1871,-14.2149 L 25.1712,-14.3036 L 25.1548,-14.3918 L 25.1379,-14.4794
 L 25.1205,-14.5666 L 25.1026,-14.6531 L 25.0841,-14.7392 L 25.0652,-14.8246 L 25.0458,-14.9096 L 25.0258,-14.994
 L 25.0054,-15.0779 L 24.9845,-15.1613 L 24.963,-15.2441 L 24.9411,-15.3264 L 24.9186,-15.4082 L 24.8956,-15.4894
 L 24.8722,-15.5701 L 24.8483,-15.6503 L 24.824,-15.7301 L 24.7992,-15.8093 L 24.774,-15.888 L 24.7483,-15.9663
 L 24.7222,-16.044 L 24.6956,-16.1213 L 24.6685,-16.198 L 24.6411,-16.2743 L 24.6132,-16.3501 L 24.5848,-16.4253
 L 24.556,-16.5001 L 24.5267,-16.5744 L 24.497,-16.6482 L 24.4668,-16.7215 L 24.4362,-16.7943 L 24.4051,-16.8666
 L 24.3736,-16.9384 L 24.3416,-17.0097 L 24.3092,-17.0805 L 24.2764,-17.1508 L 24.243,-17.2206 L 24.2093,-17.2899
 L 24.1751,-17.3588 L 24.1404,-17.4271 L 24.1053,-17.4949 L 24.0698,-17.5623 L 24.0338,-17.6291 L 23.9973,-17.6955
 L 23.9604,-17.7613 L 23.9231,-17.8267 L 23.8853,-17.8916 L 23.847,-17.9559 L 23.8083,-18.0198 L 23.7692,-18.0832
 L 23.7296,-18.1461 L 23.6896,-18.2084 L 23.6491,-18.2703 L 23.6081,-18.3317 L 23.5668,-18.3926 L 23.5249,-18.453
 L 23.4826,-18.5129 L 23.4399,-18.5723 L 23.3967,-18.6313 L 23.3531,-18.6897 L 23.3089,-18.7477 L 23.264,-18.8054
 L 23.2185,-18.8628 L 23.1723,-18.9199 L 23.1254,-18.9766 L 23.0778,-19.0331 L 23.0295,-19.0892 L 22.9805,-19.1451
 L 22.9309,-19.2006 L 22.8806,-19.2558 L 22.8295,-19.3107 L 22.7779,-19.3652 L 22.7255,-19.4195 L 22.6724,-19.4734
 L 22.6187,-19.5271 L 22.5643,-19.5804 L 22.5092,-19.6334 L 22.4534,-19.6861 L 22.3969,-19.7385 L 22.3398,-19.7905
 L 22.282,-19.8423 L 22.2234,-19.8937 L 22.1642,-19.9449 L 22.1044,-19.9957 L 22.0438,-20.0462 L 21.9826,-20.0964
 L 21.9206,-20.1463 L 21.858,-20.1958 L 21.7947,-20.2451 L 21.7308,-20.294 L 21.6661,-20.3427 L 21.6008,-20.391
 L 21.5347,-20.439 L 21.468,-20.4867 L 21.4007,-20.534 L 21.3326,-20.5811 L 21.2638,-20.6279 L 21.1944,-20.6743
 L 21.1243,-20.7204 L 21.0535,-20.7662 L 20.982,-20.8117 L 20.9099,-20.8569 L 20.837,-20.9018 L 20.7635,-20.9463
 L 20.6893,-20.9906 L 20.6144,-21.0345 L 20.5381,-21.0784 L 20.4596,-21.1224 L 20.379,-21.1666 L 20.2962,-21.2109
 L 20.2113,-21.2555 L 20.1242,-21.3002 L 20.0349,-21.3451 L 19.9435,-21.3901 L 19.85,-21.4353 L 19.7542,-21.4807
 L 19.6563,-21.5263 L 19.5563,-21.572 L 19.4541,-21.6179 L 19.3497,-21.664 L 19.2432,-21.7102 L 19.1345,-21.7566
 L 19.0237,-21.8032 L 18.9107,-21.8499 L 18.7955,-21.8968 L 18.6782,-21.9439 L 18.5587,-21.9912 L 18.4371,-22.0386
 L 18.3133,-22.0862 L 18.1873,-22.1339 L 18.0592,-22.1819 L 17.9289,-22.23 L 17.7965,-22.2782 L 17.6619,-22.3267
 L 17.5252,-22.3753 L 17.3863,-22.4241 L 17.2452,-22.473 L 17.102,-22.5221 L 16.9566,-22.5714 L 16.8091,-22.6209
 L 16.6593,-22.6705 L 16.5075,-22.7203 L 16.3535,-22.7702 L 16.1973,-22.8204 L 16.039,-22.8707 L 15.8785,-22.9212
 L 15.7158,-22.9718 L 15.551,-23.0226 L 15.384,-23.0736 L 15.2149,-23.1248 L 15.0436,-23.1761 L 14.8701,-23.2276
 L 14.7242,-23.2718 L 14.5804,-23.3157 L 14.4388,-23.3592 L 14.2993,-23.4025 L 14.1619,-23.4454 L 14.0267,-23.488
 L 13.8937,-23.5302 L 13.7628,-23.5721 L 13.634,-23.6137 L 13.5074,-23.655 L 13.383,-23.696 L 13.2607,-23.7366
 L 13.1405,-23.7769 L 13.0225,-23.8169 L 12.9067,-23.8565 L 12.793,-23.8959 L 12.6814,-23.9348 L 12.572,-23.9735
 L 12.4648,-24.0119 L 12.3596,-24.0499 L 12.2567,-24.0876 L 12.1559,-24.125 L 12.0572,-24.162 L 11.9607,-24.1987
 L 11.8663,-24.2351 L 11.7741,-24.2711 L 11.6841,-24.3069 L 11.5962,-24.3423 L 11.5104,-24.3774 L 11.4268,-24.4121
 L 11.3453,-24.4466 L 11.266,-24.4807 L 11.1888,-24.5145 L 11.1138,-24.5479 L 11.041,-24.581 L 10.9702,-24.6138
 L 10.9017,-24.6463 L 10.8353,-24.6785 L 10.771,-24.7103 L 10.7088,-24.7418 L 10.6489,-24.773 L 10.591,-24.8038
 L 10.5354,-24.8343 L 10.4818,-24.8645 L 10.4305,-24.8944 L 10.3812,-24.9239 L 10.3334,-24.9535 L 10.286,-24.9833
 L 10.2391,-25.0133 L 10.1928,-25.0437 L 10.147,-25.0743 L 10.1017,-25.1052 L 10.0569,-25.1364 L 10.0126,-25.1678
 L 9.9688,-25.1996 L 9.92554,-25.2316 L 9.8828,-25.2638 L 9.84056,-25.2964 L 9.79884,-25.3292 L 9.75764,-25.3623
 L 9.71695,-25.3956 L 9.67679,-25.4293 L 9.63712,-25.4632 L 9.59798,-25.4973 L 9.55933,-25.5318 L 9.52121,-25.5665
 L 9.4836,-25.6015 L 9.44652,-25.6368 L 9.40993,-25.6723 L 9.37387,-25.7082 L 9.33832,-25.7442 L 9.30327,-25.7806
 L 9.26874,-25.8173 L 9.23473,-25.8542 L 9.20123,-25.8914 L 9.16826,-25.9288 L 9.13579,-25.9666 L 9.10382,-26.0046
 L 9.07237,-26.0428 L 9.04146,-26.0814 L 9.01105,-26.1202 L 8.98114,-26.1593 L 8.95175,-26.1987 L 8.92288,-26.2383
 L 8.89452,-26.2783 L 8.86667,-26.3185 L 8.83934,-26.3589 L 8.81252,-26.3997 L 8.78621,-26.4407 L 8.76042,-26.482
 L 8.73514,-26.5235 L 8.71039,-26.5654 L 8.68616,-26.6076 L 8.66246,-26.6504 L 8.63928,-26.6937 L 8.61667,-26.7375
 L 8.59456,-26.7818 L 8.573,-26.8267 L 8.55197,-26.8721 L 8.53146,-26.918 L 8.51149,-26.9644 L 8.49205,-27.0113
 L 8.47316,-27.0588 L 8.45479,-27.1068 L 8.43695,-27.1553 L 8.41965,-27.2043 L 8.40286,-27.2539 L 8.38663,-27.3039
 L 8.37093,-27.3545 L 8.35574,-27.4056 L 8.34109,-27.4573 L 8.327,-27.5094 L 8.31342,-27.5621 L 8.30037,-27.6153
 L 8.28784,-27.669 L 8.27586,-27.7233 L 8.26442,-27.778 L 8.25351,-27.8333 L 8.24312,-27.8891 L 8.23328,-27.9454
 L 8.22395,-28.0023 L 8.21516,-28.0597 L 8.20691,-28.1176 L 8.19919,-28.176 L 8.192,-28.2349 L 8.18535,-28.2944
 L 8.17923,-28.3543 L 8.17363,-28.4148 L 8.16856,-28.4758 L 8.16405,-28.5374 L 8.16005,-28.5995 L 8.15659,-28.662
 L 8.15366,-28.7252 L 8.15128,-28.7888 L 8.1494,-28.8529 L 8.14807,-28.9176 L 8.14728,-28.9828 L 8.14702,-29.0485
 L 8.14952,-29.2478 L 8.15703,-29.4427 L 8.16956,-29.6333 L 8.18707,-29.8194 L 8.20961,-30.0012 L 8.23717,-30.1786
 L 8.26973,-30.3516 L 8.3073,-30.5203 L 8.34987,-30.6845 L 8.39746,-30.8444 L 8.45006,-30.9999 L 8.50764,-31.151
 L 8.57027,-31.2977 L 8.63789,-31.4401 L 8.71053,-31.5781 L 8.78816,-31.7117 L 8.8708,-31.8409 L 8.95847,-31.9657
 L 9.05113,-32.0862 L 9.1488,-32.2023 L 9.2515,-32.3139 L 9.35919,-32.4213 L 9.47189,-32.5242 L 9.5896,-32.6228
 L 9.71233,-32.7169 L 9.84006,-32.8067 L 9.97279,-32.8922 L 10.1105,-32.9732 L 10.2533,-33.0499 L 10.4011,-33.1221
 L 10.5538,-33.19 L 10.7116,-33.2535 L 10.8744,-33.3127 L 11.0422,-33.3674 L 11.215,-33.4178 L 11.3929,-33.4638
 L 11.5757,-33.5054 L 11.7635,-33.5426 L 11.9564,-33.5755 L 12.1542,-33.6039 L 12.3571,-33.628 L 12.565,-33.6478
 L 12.7778,-33.6631 L 12.9957,-33.674 L 13.2186,-33.6806 L 13.4465,-33.6828 L 13.5543,-33.6822 L 13.661,-33.6804
 L 13.7666,-33.6774 L 13.8711,-33.6732 L 13.9745,-33.6678 L 14.0768,-33.6612 L 14.178,-33.6534 L 14.2781,-33.6444
 L 14.3772,-33.6342 L 14.4751,-33.6228 L 14.572,-33.6102 L 14.6677,-33.5964 L 14.7624,-33.5814 L 14.8559,-33.5652
 L 14.9484,-33.5478 L 15.0398,-33.5292 L 15.1301,-33.5094 L 15.2192,-33.4884 L 15.3073,-33.4662 L 15.3943,-33.4429
 L 15.4803,-33.4183 L 15.5651,-33.3925 L 15.6488,-33.3655 L 15.7314,-33.3373 L 15.813,-33.3079 L 15.8934,-33.2773
 L 15.9727,-33.2455 L 16.051,-33.2125 L 16.1282,-33.1783 L 16.2042,-33.1429 L 16.2792,-33.1063 L 16.3531,-33.0686
 L 16.4259,-33.0296 L 16.4976,-32.9894 L 16.5682,-32.948 L 16.6377,-32.9054 L 16.7061,-32.8616 L 16.7734,-32.8166
 L 16.8396,-32.7704 L 16.9048,-32.7231 L 16.9688,-32.6745 L 17.0318,-32.6247 L 17.0936,-32.5737 L 17.1544,-32.5215
 L 17.2141,-32.4681 L 17.2726,-32.4136 L 17.3303,-32.3578 L 17.387,-32.3009 L 17.4429,-32.2428 L 17.498,-32.1835
 L 17.5522,-32.1231 L 17.6056,-32.0614 L 17.6581,-31.9987 L 17.7097,-31.9347 L 17.7606,-31.8695 L 17.8105,-31.8032
 L 17.8596,-31.7357 L 17.9079,-31.6671 L 17.9553,-31.5972 L 18.0018,-31.5262 L 18.0475,-31.4541 L 18.0924,-31.3807
 L 18.1364,-31.3062 L 18.1796,-31.2305 L 18.2218,-31.1536 L 18.2633,-31.0755 L 18.3039,-30.9963 L 18.3436,-30.9159
 L 18.3825,-30.8344 L 18.4206,-30.7516 L 18.4578,-30.6677 L 18.4941,-30.5826 L 18.5296,-30.4963 L 18.5643,-30.4089
 L 18.5981,-30.3203 L 18.631,-30.2305 L 18.6631,-30.1395 L 18.6943,-30.0474 L 18.7247,-29.9541 L 18.7543,-29.8596
 L 18.783,-29.764 L 18.8108,-29.6672 L 18.8378,-29.5692 L 18.8639,-29.47 L 18.8892,-29.3696 L 18.9136,-29.2681
 L 18.9372,-29.1654 L 18.9599,-29.0616 L 18.9818,-28.9565 L 19.0029,-28.8503 L 19.023,-28.7429 L 19.0424,-28.6344
 L 24.698,-29.7104 L 24.6644,-29.9357 L 24.6291,-30.1582 L 24.5921,-30.3779 L 24.5533,-30.5948 L 24.5127,-30.809
 L 24.4705,-31.0203 L 24.4264,-31.2289 L 24.3806,-31.4346 L 24.3331,-31.6376 L 24.2838,-31.8378 L 24.2328,-32.0352
 L 24.1801,-32.2298 L 24.1255,-32.4216 L 24.0693,-32.6106 L 24.0113,-32.7969 L 23.9515,-32.9803 L 23.89,-33.161
 L 23.8267,-33.3388 L 23.7617,-33.5139 L 23.695,-33.6862 L 23.6265,-33.8557 L 23.5562,-34.0224 L 23.4842,-34.1863
 L 23.4105,-34.3474 L 23.335,-34.5058 L 23.2578,-34.6613 L 23.1788,-34.8141 L 23.098,-34.964 L 23.0156,-35.1112
 L 22.9313,-35.2556 L 22.8454,-35.3972 L 22.7576,-35.5359 L 22.6682,-35.672 L 22.577,-35.8052 L 22.484,-35.9356
 L 22.3893,-36.0632 L 22.2928,-36.1881 L 22.1946,-36.3102 L 22.0946,-36.4294 L 21.9929,-36.5459 L 21.8895,-36.6596
 L 21.7843,-36.7705 L 21.6773,-36.8786 L 21.5686,-36.9839 L 21.4582,-37.0864 L 21.346,-37.1862 L 21.2317,-37.2834
 L 21.115,-37.3786 L 20.9959,-37.4716 L 20.8743,-37.5625 L 20.7502,-37.6512 L 20.6238,-37.7378 L 20.4949,-37.8223
 L 20.3635,-37.9046 L 20.2298,-37.9848 L 20.0935,-38.0628 L 19.9549,-38.1387 L 19.8138,-38.2125 L 19.6702,-38.2841
 L 19.5242,-38.3536 L 19.3758,-38.421 L 19.2249,-38.4862 L 19.0717,-38.5493 L 18.9159,-38.6102 L 18.7577,-38.669
 L 18.5971,-38.7257 L 18.4341,-38.7802 L 18.2686,-38.8326 L 18.1006,-38.8828 L 17.9303,-38.9309 L 17.7574,-38.9769
 L 17.5822,-39.0207 L 17.4045,-39.0624 L 17.2244,-39.102 L 17.0418,-39.1394 L 16.8568,-39.1747 L 16.6694,-39.2078
 L 16.4795,-39.2388 L 16.2871,-39.2677 L 16.0924,-39.2944 L 15.8952,-39.319 L 15.6955,-39.3415 L 15.4935,-39.3618
 L 15.2889,-39.38 L 15.082,-39.396 L 14.8726,-39.4099 L 14.6607,-39.4217 L 14.4464,-39.4313 L 14.2297,-39.4388
 L 14.0106,-39.4441 L 13.789,-39.4473 L 13.5649,-39.4484 L 13.3306,-39.4471 L 13.0987,-39.4431 L 12.8692,-39.4365
 L 12.6422,-39.4272 L 12.4176,-39.4153 L 12.1955,-39.4008 L 11.9758,-39.3835 L 11.7585,-39.3637 L 11.5437,-39.3412
 L 11.3313,-39.3161 L 11.1213,-39.2883 L 10.9138,-39.2578 L 10.7087,-39.2247 L 10.5061,-39.189 L 10.3059,-39.1507
 L 10.1081,-39.1096 L 9.91281,-39.066 L 9.71992,-39.0196 L 9.52948,-38.9707 L 9.34148,-38.9191 L 9.15591,-38.8648
 L 8.97279,-38.8079 L 8.7921,-38.7484 L 8.61385,-38.6862 L 8.43803,-38.6214 L 8.26468,-38.5539 L 8.09373,-38.4837
 L 7.92525,-38.4109 L 7.7592,-38.3355 L 7.59558,-38.2574 L 7.4344,-38.1767 L 7.27567,-38.0934 L 7.11937,-38.0074
 L 6.96552,-37.9187 L 6.8141,-37.8274 L 6.66512,-37.7334 L 6.51857,-37.6368 L 6.37447,-37.5376 L 6.2328,-37.4357
 L 6.09358,-37.3312 L 5.95679,-37.224 L 5.82245,-37.1142 L 5.69054,-37.0017 L 5.56107,-36.8866 L 5.43404,-36.7688
 L 5.30945,-36.6484 L 5.18741,-36.5255 L 5.06807,-36.4002 L 4.95139,-36.2726 L 4.8374,-36.1427 L 4.7261,-36.0105
 L 4.61748,-35.8759 L 4.51155,-35.739 L 4.40829,-35.5998 L 4.30771,-35.4582 L 4.20982,-35.3143 L 4.11461,-35.1681
 L 4.02208,-35.0195 L 3.93224,-34.8686 L 3.84506,-34.7153 L 3.76059,-34.5597 L 3.67879,-34.4018 L 3.59967,-34.2416
 L 3.52322,-34.079 L 3.44948,-33.9141 L 3.3784,-33.7469 L 3.31001,-33.5773 L 3.24429,-33.4054 L 3.18127,-33.2311
 L 3.12093,-33.0546 L 3.06326,-32.8756 L 3.00829,-32.6944 L 2.95598,-32.5108 L 2.90636,-32.3249 L 2.85944,-32.1367
 L 2.81519,-31.9461 L 2.77361,-31.7532 L 2.73473,-31.5579 L 2.69852,-31.3603 L 2.66499,-31.1604 L 2.63414,-30.9582
 L 2.60597,-30.7536 L 2.58051,-30.5467 L 2.55771,-30.3374 L 2.5376,-30.1259 L 2.52016,-29.9119 L 2.50542,-29.6957
 L 2.49335,-29.4771 L 2.48395,-29.2562 L 2.47725,-29.0329 L 2.47324,-28.8074 L 2.47188,-28.5795 L 2.47206,-28.4897
 L 2.47261,-28.4004 L 2.47351,-28.3116 L 2.47479,-28.2232 L 2.47643,-28.1352 L 2.47844,-28.0477 L 2.4808,-27.9606
 L 2.48354,-27.874 L 2.48665,-27.7878 L 2.4901,-27.702 L 2.49393,-27.6168 L 2.49811,-27.5319 L 2.50267,-27.4475
 L 2.50758,-27.3635 L 2.51288,-27.28 L 2.51852,-27.1969 L 2.52454,-27.1142 L 2.5309,-27.0321 L 2.53764,-26.9503
 L 2.54475,-26.869 L 2.55223,-26.7881 L 2.56006,-26.7077 L 2.56825,-26.6277 L 2.57683,-26.5482 L 2.58574,-26.4691
 L 2.59503,-26.3904 L 2.60469,-26.3122 L 2.61472,-26.2345 L 2.62511,-26.1572 L 2.63585,-26.0803 L 2.64696,-26.0038
 L 2.65843,-25.9278 L 2.67027,-25.8523 L 2.68248,-25.7772 L 2.69505,-25.7025 L 2.70799,-25.6283 L 2.72128,-25.5545
 L 2.73495,-25.4812 L 2.74898,-25.4083 L 2.76337,-25.3359 L 2.77812,-25.2639 L 2.79324,-25.1923 L 2.80875,-25.1212
 L 2.82458,-25.0505 L 2.84081,-24.9803 L 2.85738,-24.9105 L 2.87428,-24.8411 L 2.89148,-24.7722 L 2.90897,-24.7036
 L 2.92674,-24.6354 L 2.94481,-24.5676 L 2.96317,-24.5002 L 2.9818,-24.4331 L 3.00073,-24.3665 L 3.01996,-24.3003
 L 3.03947,-24.2344 L 3.05927,-24.169 L 3.07936,-24.1039 L 3.09975,-24.0392 L 3.12042,-23.9749 L 3.14137,-23.911
 L 3.16263,-23.8475 L 3.18416,-23.7844 L 3.20599,-23.7217 L 3.22812,-23.6594 L 3.25053,-23.5975 L 3.27322,-23.5359
 L 3.29622,-23.4747 L 3.31949,-23.414 L 3.34305,-23.3536 L 3.36691,-23.2936 L 3.39107,-23.234 L 3.4155,-23.1748
 L 3.44023,-23.116 L 3.46526,-23.0576 L 3.49055,-22.9996 L 3.51614,-22.9419 L 3.54204,-22.8847 L 3.56821,-22.8278
 L 3.59467,-22.7714 L 3.62143,-22.7153 L 3.64847,-22.6596 L 3.6758,-22.6043 L 3.70343,-22.5494 L 3.73134,-22.4949
 L 3.75954,-22.4408 L 3.78804,-22.3871 L 3.81682,-22.3338 L 3.84589,-22.2808 L 3.87524,-22.2282 L 3.90491,-22.1761
 L 3.93484,-22.1243 L 3.96507,-22.0729 L 3.99561,-22.0218 L 4.0264,-21.9711 L 4.05748,-21.9206 L 4.08884,-21.8705
 L 4.12047,-21.8207 L 4.15239,-21.7713 L 4.18459,-21.7221 L 4.21707,-21.6733 L 4.24982,-21.6248 L 4.28287,-21.5767
 L 4.31619,-21.5289 L 4.34978,-21.4814 L 4.38367,-21.4342 L 4.41782,-21.3873 L 4.45226,-21.3408 L 4.48698,-21.2946
 L 4.52197,-21.2487 L 4.55725,-21.2032 L 4.5928,-21.1579 L 4.62865,-21.113 L 4.66476,-21.0685 L 4.70117,-21.0242
 L 4.73784,-20.9803 L 4.77481,-20.9367 L 4.81204,-20.8934 L 4.84956,-20.8505 L 4.88736,-20.8079 L 4.92545,-20.7656
 L 4.96379,-20.7236 L 5.00244,-20.682 L 5.04137,-20.6407 L 5.08057,-20.5997 L 5.12004,-20.559 L 5.15979,-20.5186
 L 5.19983,-20.4786 L 5.24016,-20.4389 L 5.28075,-20.3996 L 5.32164,-20.3605 L 5.36279,-20.3218 L 5.40422,-20.2834
 L 5.44595,-20.2454 L 5.48795,-20.2077 L 5.53023,-20.1702 L 5.57278,-20.1332 L 5.61562,-20.0964 L 5.65872,-20.0599
 L 5.70206,-20.0237 L 5.74561,-19.9876 L 5.78938,-19.9518 L 5.83339,-19.9161 L 5.87761,-19.8807 L 5.92206,-19.8455
 L 5.96672,-19.8105 L 6.01163,-19.7757 L 6.05675,-19.7411 L 6.1021,-19.7067 L 6.14766,-19.6725 L 6.19345,-19.6385
 L 6.23947,-19.6048 L 6.28571,-19.5712 L 6.33217,-19.5379 L 6.37888,-19.5047 L 6.42578,-19.4718 L 6.47292,-19.4391
 L 6.52028,-19.4066 L 6.56786,-19.3743 L 6.61568,-19.3422 L 6.66371,-19.3103 L 6.71198,-19.2786 L 6.76045,-19.2471
 L 6.80916,-19.2159 L 6.85809,-19.1848 L 6.90724,-19.1539 L 6.95662,-19.1233 L 7.00623,-19.0929 L 7.05605,-19.0627
 L 7.10609,-19.0326 L 7.15637,-19.0029 L 7.20688,-18.9733 L 7.2576,-18.9439 L 7.30855,-18.9147 L 7.35971,-18.8857
 L 7.4111,-18.8569 L 7.46272,-18.8284 L 7.51456,-18.8001 L 7.56664,-18.7719 L 7.61893,-18.744 L 7.67145,-18.7163
 L 7.72418,-18.6888 L 7.77715,-18.6615 L 7.83034,-18.6344 L 7.88454,-18.6072 L 7.94055,-18.5797 L 7.99834,-18.5517
 L 8.05794,-18.5234 L 8.11931,-18.4948 L 8.1825,-18.4657 L 8.24747,-18.4363 L 8.31424,-18.4065 L 8.38281,-18.3763
 L 8.45317,-18.3457 L 8.52531,-18.3148 L 8.59927,-18.2835 L 8.675,-18.2518 L 8.75253,-18.2197 L 8.83186,-18.1872
 L 8.91299,-18.1544 L 8.99591,-18.1212 L 9.08063,-18.0876 L 9.16711,-18.0536 L 9.25542,-18.0192 L 9.34552,-17.9845
 L 9.43741,-17.9494 L 9.53108,-17.9139 L 9.62657,-17.8781 L 9.72383,-17.8418 L 9.82291,-17.8052 L 9.92377,-17.7682
 L 10.0264,-17.7308 L 10.1309,-17.6931 L 10.2371,-17.6549 L 10.3452,-17.6164 L 10.455,-17.5775 L 10.5666,-17.5383
 L 10.68,-17.4986 L 10.7952,-17.4586 L 10.9122,-17.4182 L 11.0311,-17.3774 L 11.1516,-17.3362 L 11.274,-17.2947
 L 11.3982,-17.2528 L 11.5242,-17.2105 L 11.652,-17.1678 L 11.7815,-17.1248 L 11.9129,-17.0813 L 12.0461,-17.0375
 L 12.181,-16.9933 L 12.3372,-16.9491 L 12.4912,-16.9051 L 12.643,-16.8614 L 12.7926,-16.8181 L 12.9399,-16.7749
 L 13.0851,-16.7321 L 13.228,-16.6896 L 13.3687,-16.6474 L 13.5072,-16.6054 L 13.6435,-16.5637 L 13.7776,-16.5224
 L 13.9095,-16.4813 L 14.0391,-16.4405 L 14.1665,-16.3999 L 14.2917,-16.3597 L 14.4147,-16.3198 L 14.5355,-16.2801
 L 14.6541,-16.2408 L 14.7704,-16.2017 L 14.8846,-16.1629 L 14.9965,-16.1244 L 15.1062,-16.0862 L 15.2137,-16.0482
 L 15.319,-16.0106 L 15.4221,-15.9732 L 15.5229,-15.9361 L 15.6216,-15.8994 L 15.718,-15.8629 L 15.8122,-15.8267
 L 15.9042,-15.7907 L 15.994,-15.7551 L 16.0815,-15.7198 L 16.1669,-15.6847 L 16.25,-15.6499 L 16.3309,-15.6154
 L 16.4097,-15.5812 L 16.4861,-15.5473 L 16.5604,-15.5137 L 16.6325,-15.4804 L 16.7023,-15.4473 L 16.77,-15.4146
 L 16.8354,-15.3821 L 16.8986,-15.3499 L 16.9596,-15.318 L 17.0184,-15.2864 L 17.0749,-15.2551 L 17.1301,-15.2237
 L 17.1848,-15.192 L 17.2388,-15.16 L 17.2924,-15.1276 L 17.3454,-15.0949 L 17.3979,-15.0619 L 17.4498,-15.0285
 L 17.5012,-14.9948 L 17.5521,-14.9607 L 17.6024,-14.9263 L 17.6521,-14.8915 L 17.7014,-14.8564 L 17.75,-14.821
 L 17.7982,-14.7853 L 17.8458,-14.7492 L 17.8928,-14.7127 L 17.9393,-14.6759 L 17.9853,-14.6388 L 18.0307,-14.6014
 L 18.0756,-14.5636 L 18.1199,-14.5255 L 18.1637,-14.487 L 18.207,-14.4482 L 18.2497,-14.409 L 18.2919,-14.3695
 L 18.3335,-14.3297 L 18.3746,-14.2895 L 18.4151,-14.249 L 18.4552,-14.2082 L 18.4946,-14.167 L 18.5335,-14.1255
 L 18.5719,-14.0836 L 18.6097,-14.0414 L 18.647,-13.9988 L 18.6838,-13.9559 L 18.72,-13.9127 L 18.7557,-13.8692
 L 18.7908,-13.8253 L 18.8254,-13.7811 L 18.8594,-13.7365 L 18.8929,-13.6916 L 18.9259,-13.6463 L 18.9583,-13.6007
 L 18.9902,-13.5548 L 19.0215,-13.5085 L 19.0523,-13.4619 L 19.0825,-13.4148 L 19.112,-13.3672 L 19.1409,-13.3191
 L 19.1691,-13.2704 L 19.1966,-13.2212 L 19.2235,-13.1714 L 19.2497,-13.1211 L 19.2753,-13.0702 L 19.3002,-13.0188
 L 19.3244,-12.9668 L 19.3479,-12.9143 L 19.3708,-12.8613 L 19.3931,-12.8076 L 19.4146,-12.7535 L 19.4356,-12.6988
 L 19.4558,-12.6435 L 19.4754,-12.5877 L 19.4943,-12.5313 L 19.5125,-12.4745 L 19.5301,-12.417 L 19.547,-12.359
 L 19.5633,-12.3005 L 19.5789,-12.2414 L 19.5938,-12.1817 L 19.6081,-12.1215 L 19.6217,-12.0608 L 19.6347,-11.9995
 L 19.6469,-11.9377 L 19.6586,-11.8753 L 19.6695,-11.8124 L 19.6798,-11.7489 L 19.6894,-11.6849 L 19.6984,-11.6203
 L 19.7067,-11.5552 L 19.7143,-11.4895 L 19.7213,-11.4233 L 19.7276,-11.3565 L 19.7332,-11.2892 L 19.7382,-11.2214
 L 19.7425,-11.153 L 19.7462,-11.084 L 19.7491,-11.0145 L 19.7515,-10.9444 L 19.7531,-10.8739 L 19.7541,-10.8027
 L 19.7545,-10.731 L 19.7516,-10.508 L 19.7429,-10.2898 L 19.7285,-10.0766 L 19.7083,-9.86826 L 19.6823,-9.66483
 L 19.6505,-9.46631 L 19.613,-9.27266 L 19.5696,-9.08394 L 19.5206,-8.90012 L 19.4657,-8.72119 L 19.405,-8.54718
 L 19.3386,-8.37805 L 19.2664,-8.21384 L 19.1885,-8.05452 L 19.1047,-7.9001 L 19.0152,-7.7506 L 18.9199,-7.60599
 L 18.8189,-7.46628 L 18.712,-7.33147 L 18.5994,-7.20157 L 18.481,-7.07657 L 18.3568,-6.95647 L 18.2269,-6.84128
 L 18.0912,-6.73097 L 17.9497,-6.6256 L 17.8024,-6.5251 L 17.6494,-6.4295 L 17.4906,-6.33882 L 17.326,-6.25304
 L 17.1556,-6.17215 L 16.9794,-6.09618 L 16.7975,-6.0251 L 16.6098,-5.95891 L 16.4164,-5.89764 L 16.2171,-5.84126
 L 16.0121,-5.78979 L 15.8013,-5.74323 L 15.5847,-5.70155 L 15.3624,-5.66479 L 15.1343,-5.63293 L 14.9004,-5.60597
 L 14.6607,-5.58391 L 14.4153,-5.56676 L 14.164,-5.5545 L 13.907,-5.54715 L 13.6443,-5.54469 L 13.5168,-5.54535
 L 13.3905,-5.54732 L 13.2654,-5.55063 L 13.1416,-5.55522 L 13.0189,-5.56114 L 12.8975,-5.56839 L 12.7773,-5.57695
 L 12.6583,-5.58684 L 12.5405,-5.59802 L 12.424,-5.61053 L 12.3086,-5.62434 L 12.1945,-5.63948 L 12.0816,-5.65594
 L 11.9699,-5.67372 L 11.8594,-5.69281 L 11.7501,-5.71321 L 11.642,-5.73494 L 11.5352,-5.75797 L 11.4296,-5.78233
 L 11.3251,-5.808 L 11.222,-5.83498 L 11.12,-5.8633 L 11.0192,-5.89291 L 10.9196,-5.92386 L 10.8213,-5.9561
 L 10.7242,-5.98969 L 10.6283,-6.02457 L 10.5336,-6.06078 L 10.4401,-6.0983 L 10.3478,-6.13715 L 10.2567,-6.17729
 L 10.1669,-6.21877 L 10.0783,-6.26155 L 9.99088,-6.30565 L 9.90468,-6.35107 L 9.81969,-6.3978 L 9.73593,-6.44586
 L 9.65337,-6.49522 L 9.57204,-6.54593 L 9.49191,-6.59793 L 9.41301,-6.65125 L 9.33531,-6.70587 L 9.25883,-6.76183
 L 9.18356,-6.81909 L 9.10953,-6.87769 L 9.03668,-6.93759 L 8.96498,-6.99896 L 8.8943,-7.06195 L 8.82466,-7.12654
 L 8.75604,-7.19272 L 8.68846,-7.26053 L 8.62189,-7.32993 L 8.55637,-7.40091 L 8.49185,-7.47351 L 8.42838,-7.54771
 L 8.36592,-7.62354 L 8.3045,-7.70094 L 8.24411,-7.77997 L 8.18475,-7.86058 L 8.1264,-7.94281 L 8.06911,-8.02664
 L 8.01283,-8.11208 L 7.95757,-8.1991 L 7.90335,-8.28773 L 7.85014,-8.37798 L 7.79799,-8.46982 L 7.74684,-8.56326
 L 7.69673,-8.65831 L 7.64764,-8.75497 L 7.59958,-8.85323 L 7.55255,-8.95308 L 7.50656,-9.05455 L 7.46158,-9.15762
 L 7.41765,-9.2623 L 7.37473,-9.36858 L 7.33284,-9.47644 L 7.29198,-9.58592 L 7.25215,-9.69701 L 7.21333,-9.80969
 L 7.17555,-9.92398 L 7.13882,-10.0399 L 7.1031,-10.1574 L 7.06841,-10.2765 L 7.03474,-10.3972 L 7.00211,-10.5195
 L 6.97049,-10.6434 L 6.93991,-10.7689 L 6.91035,-10.896 L 6.88184,-11.0247 L 6.85434,-11.1551 L 6.82788,-11.287
 L 6.80244,-11.4205 L 1.16667,-10.1241 L 1.20554,-9.89148 L 1.24646,-9.66148 L 1.28943,-9.43405 L 1.33446,-9.20921
 L 1.38155,-8.98694 L 1.43068,-8.76727 L 1.48187,-8.55017 L 1.53513,-8.33566 L 1.59044,-8.12372 L 1.64778,-7.91437
 L 1.70721,-7.70758 L 1.76868,-7.5034 L 1.83221,-7.30179 L 1.8978,-7.10277 L 1.96544,-6.9063 L 2.03514,-6.71245
 L 2.10689,-6.52115 L 2.18069,-6.33246 L 2.25656,-6.14633 L 2.33449,-5.96278 L 2.41446,-5.78181 L 2.49649,-5.60344
 L 2.58057,-5.42764 L 2.66672,-5.25441 L 2.75493,-5.08377 L 2.84517,-4.91573 L 2.93748,-4.75026 L 3.03185,-4.58736
 L 3.12828,-4.42705 L 3.22676,-4.26932 L 3.32729,-4.11417 L 3.42987,-3.96159 L 3.53453,-3.8116 L 3.64122,-3.6642
 L 3.74998,-3.51936 L 3.86079,-3.37712 L 3.97366,-3.23746 L 4.08859,-3.10039 L 4.20557,-2.96588 L 4.3246,-2.83395
 L 4.44569,-2.70462 L 4.56885,-2.57785 L 4.69405,-2.45367 L 4.82132,-2.33209 L 4.95062,-2.21307 L 5.082,-2.09665
 L 5.21548,-1.98274 L 5.35117,-1.87135 L 5.48903,-1.76248 L 5.62909,-1.6561 L 5.77133,-1.55222 L 5.91574,-1.45084
 L 6.06236,-1.35197 L 6.21117,-1.2556 L 6.36215,-1.16174 L 6.51532,-1.07036 L 6.67068,-0.981506 L 6.82823,-0.895142
 L 6.98798,-0.81131 L 7.14989,-0.72995 L 7.314,-0.651108 L 7.48029,-0.574753 L 7.64876,-0.500916 L 7.81943,-0.429581
 L 7.99228,-0.360748 L 8.16733,-0.294403 L 8.34456,-0.230576 L 8.52397,-0.16925 L 8.70557,-0.110443 L 8.88934,-0.0541077
 L 9.07533,-0.000289917 L 9.26349,0.0509796 L 9.45384,0.0998077 L 9.64638,0.146118 L 9.84109,0.189911 L 10.038,0.231216
 L 10.2371,0.270004 L 10.4384,0.306305 L 10.6418,0.340088 L 10.8475,0.371384 L 11.0553,0.400177 L 11.2654,0.426453
 L 11.4776,0.450241 L 11.692,0.471512 L 11.9086,0.49028 L 12.1273,0.506561 L 12.3483,0.520325 L 12.5715,0.531586
 L 12.7968,0.540344 L 13.0243,0.5466 L 13.254,0.550369 L 13.4859,0.551605 z
M 41.6655,-32.5795 L 50.6827,-32.5795 L 50.6827,-38.8691 L 26.835,-38.8691 L 26.835,-32.5795 L 35.8321,-32.5795
 L 35.8321,-0 L 41.6655,-0 z
M 59.0818,-13.6828 L 66.0027,-13.6828 L 66.139,-13.6835 L 66.2745,-13.6858 L 66.4091,-13.6896 L 66.543,-13.695
 L 66.676,-13.7018 L 66.8083,-13.7102 L 66.9397,-13.7201 L 67.0703,-13.7316 L 67.2001,-13.7446 L 67.3291,-13.759
 L 67.4573,-13.775 L 67.5846,-13.7926 L 67.7112,-13.8116 L 67.8369,-13.8322 L 67.9618,-13.8544 L 68.0859,-13.878
 L 68.2092,-13.9032 L 68.3317,-13.9299 L 68.4533,-13.9581 L 68.5742,-13.9878 L 68.6942,-14.0191 L 68.8134,-14.0519
 L 68.9319,-14.0862 L 69.0495,-14.1221 L 69.1662,-14.1594 L 69.2822,-14.1983 L 69.3974,-14.2387 L 69.5117,-14.2807
 L 69.6252,-14.3242 L 69.7379,-14.3692 L 69.8499,-14.4157 L 69.961,-14.4637 L 70.0712,-14.5133 L 70.1807,-14.5644
 L 70.2893,-14.617 L 70.3972,-14.6712 L 70.5042,-14.7268 L 70.6104,-14.784 L 70.7158,-14.8428 L 70.8204,-14.903
 L 70.9241,-14.9648 L 71.0271,-15.0281 L 71.1292,-15.0929 L 71.2306,-15.1593 L 71.3311,-15.2271 L 71.4308,-15.2965
 L 71.5296,-15.3674 L 71.6274,-15.4394 L 71.7242,-15.5127 L 71.82,-15.5873 L 71.9148,-15.6632 L 72.0086,-15.7403
 L 72.1014,-15.8187 L 72.1932,-15.8983 L 72.284,-15.9793 L 72.3738,-16.0614 L 72.4626,-16.1449 L 72.5504,-16.2296
 L 72.6372,-16.3156 L 72.723,-16.4028 L 72.8078,-16.4913 L 72.8915,-16.5811 L 72.9743,-16.6721 L 73.0561,-16.7644
 L 73.1369,-16.8579 L 73.2167,-16.9528 L 73.2955,-17.0489 L 73.3733,-17.1462 L 73.4501,-17.2448 L 73.5259,-17.3447
 L 73.6007,-17.4459 L 73.6745,-17.5483 L 73.7473,-17.652 L 73.8191,-17.7569 L 73.8899,-17.8631 L 73.9597,-17.9706
 L 74.0285,-18.0793 L 74.0963,-18.1893 L 74.1631,-18.3006 L 74.2289,-18.4131 L 74.2937,-18.5269 L 74.3575,-18.6419
 L 74.4203,-18.7583 L 74.4821,-18.8759 L 74.5429,-18.9947 L 74.6027,-19.1148 L 74.6615,-19.2362 L 74.7193,-19.3589
 L 74.7761,-19.4828 L 74.8319,-19.6079 L 74.8867,-19.7344 L 74.9405,-19.8621 L 74.9932,-19.9908 L 75.0448,-20.1203
 L 75.0952,-20.2505 L 75.1445,-20.3815 L 75.1926,-20.5132 L 75.2395,-20.6457 L 75.2853,-20.779 L 75.3299,-20.913
 L 75.3734,-21.0477 L 75.4157,-21.1833 L 75.4568,-21.3195 L 75.4968,-21.4566 L 75.5356,-21.5944 L 75.5733,-21.7329
 L 75.6098,-21.8722 L 75.6451,-22.0123 L 75.6793,-22.1531 L 75.7124,-22.2946 L 75.7442,-22.437 L 75.7749,-22.58
 L 75.8045,-22.7238 L 75.8329,-22.8685 L 75.8601,-23.0138 L 75.8862,-23.1599 L 75.9111,-23.3067 L 75.9349,-23.4544
 L 75.9575,-23.6027 L 75.9789,-23.7519 L 75.9992,-23.9017 L 76.0183,-24.0524 L 76.0363,-24.2038 L 76.0531,-24.3559
 L 76.0687,-24.5088 L 76.0832,-24.6625 L 76.0966,-24.8169 L 76.1087,-24.9721 L 76.1198,-25.128 L 76.1296,-25.2847
 L 76.1383,-25.4421 L 76.1458,-25.6003 L 76.1522,-25.7593 L 76.1574,-25.919 L 76.1615,-26.0794 L 76.1644,-26.2407
 L 76.1661,-26.4026 L 76.1667,-26.5654 L 76.1654,-26.8196 L 76.1616,-27.0713 L 76.1552,-27.3205 L 76.1463,-27.5672
 L 76.1348,-27.8114 L 76.1208,-28.053 L 76.1042,-28.2921 L 76.085,-28.5287 L 76.0634,-28.7629 L 76.0391,-28.9944
 L 76.0123,-29.2235 L 75.983,-29.4501 L 75.9511,-29.6741 L 75.9167,-29.8956 L 75.8797,-30.1146 L 75.8401,-30.3311
 L 75.798,-30.5451 L 75.7534,-30.7565 L 75.7062,-30.9654 L 75.6564,-31.1719 L 75.6041,-31.3757 L 75.5492,-31.5771
 L 75.4919,-31.776 L 75.4319,-31.9724 L 75.3694,-32.1662 L 75.3043,-32.3575 L 75.2367,-32.5463 L 75.1665,-32.7326
 L 75.0938,-32.9164 L 75.0186,-33.0976 L 74.9408,-33.2763 L 74.8604,-33.4526 L 74.7775,-33.6263 L 74.692,-33.7974
 L 74.604,-33.9661 L 74.5134,-34.1323 L 74.4203,-34.2959 L 74.3246,-34.457 L 74.2264,-34.6156 L 74.1256,-34.7717
 L 74.0223,-34.9253 L 73.9164,-35.0763 L 73.808,-35.2249 L 73.697,-35.3709 L 73.5834,-35.5144 L 73.4673,-35.6554
 L 73.3489,-35.7936 L 73.2283,-35.9287 L 73.1055,-36.0609 L 72.9805,-36.19 L 72.8534,-36.316 L 72.724,-36.439
 L 72.5925,-36.559 L 72.4589,-36.676 L 72.323,-36.7899 L 72.185,-36.9008 L 72.0448,-37.0086 L 71.9024,-37.1134
 L 71.7578,-37.2151 L 71.6111,-37.3139 L 71.4621,-37.4096 L 71.311,-37.5022 L 71.1578,-37.5918 L 71.0023,-37.6784
 L 70.8447,-37.7619 L 70.6849,-37.8424 L 70.5229,-37.9199 L 70.3587,-37.9943 L 70.1924,-38.0657 L 70.0238,-38.134
 L 69.8532,-38.1993 L 69.6803,-38.2616 L 69.5052,-38.3208 L 69.328,-38.377 L 69.1486,-38.4302 L 68.967,-38.4803
 L 68.7833,-38.5274 L 68.5973,-38.5714 L 68.4092,-38.6124 L 68.2189,-38.6504 L 68.0265,-38.6853 L 67.8318,-38.7172
 L 67.635,-38.7461 L 67.436,-38.7719 L 67.2348,-38.7947 L 67.0314,-38.8144 L 66.8259,-38.8311 L 66.6182,-38.8448
 L 66.4083,-38.8554 L 66.1963,-38.863 L 65.982,-38.8676 L 65.7656,-38.8691 L 53.2484,-38.8691 L 53.2484,-0
 L 59.0818,-0 z
M 59.0818,-19.9447 L 59.0818,-32.5519 L 65.113,-32.5519 L 65.3358,-32.549 L 65.5537,-32.5403 L 65.7667,-32.5258
 L 65.9748,-32.5056 L 66.1781,-32.4795 L 66.3764,-32.4477 L 66.5698,-32.41 L 66.7583,-32.3666 L 66.942,-32.3174
 L 67.1207,-32.2624 L 67.2945,-32.2017 L 67.4635,-32.1351 L 67.6275,-32.0627 L 67.7867,-31.9846 L 67.9409,-31.9007
 L 68.0903,-31.8109 L 68.2347,-31.7154 L 68.3743,-31.6141 L 68.509,-31.507 L 68.6387,-31.3941 L 68.7636,-31.2755
 L 68.8836,-31.151 L 68.9986,-31.0208 L 69.1088,-30.8847 L 69.2141,-30.7429 L 69.3145,-30.5953 L 69.41,-30.4419
 L 69.5006,-30.2827 L 69.5863,-30.1178 L 69.6671,-29.947 L 69.743,-29.7704 L 69.814,-29.5881 L 69.8801,-29.3999
 L 69.9413,-29.206 L 69.9976,-29.0063 L 70.049,-28.8008 L 70.0955,-28.5895 L 70.1371,-28.3725 L 70.1739,-28.1496
 L 70.2057,-27.9209 L 70.2326,-27.6865 L 70.2547,-27.4463 L 70.2718,-27.2003 L 70.2841,-26.9485 L 70.2914,-26.6908
 L 70.2939,-26.4275 L 70.2932,-26.2914 L 70.2914,-26.1568 L 70.2883,-26.0236 L 70.284,-25.8917 L 70.2784,-25.7613
 L 70.2716,-25.6322 L 70.2636,-25.5046 L 70.2544,-25.3783 L 70.2439,-25.2535 L 70.2322,-25.13 L 70.2192,-25.0079
 L 70.205,-24.8872 L 70.1896,-24.7679 L 70.173,-24.65 L 70.1551,-24.5335 L 70.1359,-24.4184 L 70.1156,-24.3047
 L 70.094,-24.1924 L 70.0712,-24.0815 L 70.0471,-23.972 L 70.0218,-23.8638 L 69.9953,-23.7571 L 69.9675,-23.6517
 L 69.9386,-23.5478 L 69.9083,-23.4453 L 69.8769,-23.3441 L 69.8442,-23.2443 L 69.8103,-23.146 L 69.7751,-23.049
 L 69.7387,-22.9534 L 69.7011,-22.8592 L 69.6622,-22.7664 L 69.6221,-22.675 L 69.5808,-22.585 L 69.5382,-22.4964
 L 69.4944,-22.4092 L 69.4494,-22.3234 L 69.4032,-22.239 L 69.3557,-22.1559 L 69.3069,-22.0743 L 69.257,-21.9941
 L 69.2058,-21.9152 L 69.1533,-21.8378 L 69.0997,-21.7617 L 69.0448,-21.687 L 68.9886,-21.6138 L 68.9314,-21.542
 L 68.873,-21.4718 L 68.8137,-21.4032 L 68.7533,-21.3361 L 68.6918,-21.2706 L 68.6293,-21.2068 L 68.5658,-21.1445
 L 68.5012,-21.0837 L 68.4355,-21.0245 L 68.3688,-20.967 L 68.3011,-20.911 L 68.2323,-20.8565 L 68.1625,-20.8037
 L 68.0916,-20.7524 L 68.0197,-20.7027 L 67.9467,-20.6546 L 67.8727,-20.6081 L 67.7977,-20.5631 L 67.7215,-20.5197
 L 67.6444,-20.4779 L 67.5662,-20.4377 L 67.4869,-20.399 L 67.4066,-20.362 L 67.3253,-20.3264 L 67.2429,-20.2925
 L 67.1595,-20.2602 L 67.075,-20.2294 L 66.9895,-20.2002 L 66.9029,-20.1726 L 66.8153,-20.1466 L 66.7266,-20.1221
 L 66.6369,-20.0993 L 66.5461,-20.078 L 66.4543,-20.0583 L 66.3615,-20.0401 L 66.2676,-20.0235 L 66.1726,-20.0086
 L 66.0766,-19.9951 L 65.9796,-19.9833 L 65.8815,-19.9731 L 65.7824,-19.9644 L 65.6822,-19.9573 L 65.581,-19.9518
 L 65.4787,-19.9478 L 65.3754,-19.9455 L 65.271,-19.9447 z
" stroke="white" fill="white" stroke-width="0.5"/>
</svg>
