<?xml version="1.0" standalone="no"?>
<!DOCTYPE svg PUBLIC "-//W3C//DTD SVG 1.1//EN" "http://www.w3.org/Graphics/SVG/1.1/DTD/svg11.dtd">
<svg width="100mm" height="100mm" viewBox="-8 -108 116 116" xmlns="http://www.w3.org/2000/svg" version="1.1">
<title>OpenSCAD Model</title>
<path d="
M 84.2093,-0.00547791 L 84.4184,-0.0164337 L 84.8348,-0.0601959 L 85.0415,-0.0929413 L 85.4511,-0.180008 L 85.6533,-0.234192
 L 86.0515,-0.363571 L 86.247,-0.438599 L 86.6293,-0.608841 L 86.8159,-0.703873 L 87.1787,-0.913391 L 87.3543,-1.02742
 L 87.6929,-1.27341 L 87.8556,-1.40515 L 88.1667,-1.68529 L 88.3147,-1.83331 L 88.5948,-2.14444 L 88.7266,-2.30713
 L 88.9726,-2.64569 L 89.0866,-2.82126 L 89.2961,-3.18414 L 89.3912,-3.37067 L 89.5614,-3.75304 L 89.6364,-3.94849
 L 89.7658,-4.34666 L 89.82,-4.54887 L 89.9071,-4.95848 L 89.9398,-5.16524 L 89.9836,-5.5816 L 89.9945,-5.79066
 L 90,-6 L 90,-94 L 89.9945,-94.2093 L 89.9836,-94.4184 L 89.9398,-94.8348 L 89.9071,-95.0415
 L 89.82,-95.4511 L 89.7658,-95.6533 L 89.6364,-96.0515 L 89.5614,-96.247 L 89.3912,-96.6293 L 89.2961,-96.8159
 L 89.0866,-97.1787 L 88.9726,-97.3543 L 88.7266,-97.6929 L 88.5948,-97.8556 L 88.3147,-98.1667 L 88.1667,-98.3147
 L 87.8556,-98.5948 L 87.6929,-98.7266 L 87.3543,-98.9726 L 87.1787,-99.0866 L 86.8159,-99.2961 L 86.6293,-99.3912
 L 86.247,-99.5614 L 86.0515,-99.6364 L 85.6533,-99.7658 L 85.4511,-99.82 L 85.0415,-99.9071 L 84.8348,-99.9398
 L 84.4184,-99.9836 L 84.2093,-99.9945 L 84,-100 L 36,-100 L 10,-74 L 10,-50
 L 14,-50 L 14,-70 L 34,-70 L 34.2093,-70.0055 L 34.4184,-70.0164 L 34.8348,-70.0602
 L 35.0415,-70.0929 L 35.4511,-70.18 L 35.6533,-70.2342 L 36.0515,-70.3636 L 36.247,-70.4386 L 36.6293,-70.6088
 L 36.8159,-70.7039 L 37.1787,-70.9134 L 37.3543,-71.0274 L 37.6929,-71.2734 L 37.8556,-71.4052 L 38.1667,-71.6853
 L 38.3147,-71.8333 L 38.5948,-72.1444 L 38.7266,-72.3071 L 38.9726,-72.6457 L 39.0866,-72.8213 L 39.2961,-73.1841
 L 39.3912,-73.3707 L 39.5614,-73.753 L 39.6364,-73.9485 L 39.7658,-74.3467 L 39.82,-74.5489 L 39.9071,-74.9585
 L 39.9398,-75.1652 L 39.9836,-75.5816 L 39.9945,-75.7907 L 40,-76 L 40,-96 L 84,-96
 L 84.2091,-95.989 L 84.4158,-95.9563 L 84.618,-95.9021 L 84.8135,-95.8271 L 85,-95.7321 L 85.1756,-95.618
 L 85.3383,-95.4863 L 85.4863,-95.3383 L 85.618,-95.1756 L 85.7321,-95 L 85.8271,-94.8135 L 85.9021,-94.618
 L 85.9563,-94.4158 L 85.989,-94.2091 L 86,-94 L 86,-6 L 85.989,-5.79094 L 85.9563,-5.58418
 L 85.9021,-5.38197 L 85.8271,-5.18652 L 85.7321,-5 L 85.618,-4.82443 L 85.4863,-4.66174 L 85.3383,-4.51372
 L 85.1756,-4.38197 L 85,-4.26794 L 84.8135,-4.17291 L 84.618,-4.09789 L 84.4158,-4.0437 L 84.2091,-4.01096
 L 84,-4 L 80,-4 L 80,-0 L 84,-0 z
M 10.365,-14.2272 L 13.1556,-14.2272 L 14.5415,-14.2807 L 15.8458,-14.441 L 17.0685,-14.7082 L 18.2096,-15.0822
 L 19.269,-15.5631 L 20.2468,-16.1509 L 21.1429,-16.8455 L 21.9574,-17.647 L 22.6828,-18.5495 L 23.3115,-19.5468
 L 23.8434,-20.6391 L 24.2787,-21.8262 L 24.6172,-23.1083 L 24.859,-24.4852 L 25.0041,-25.957 L 25.0524,-27.5237
 L 25.007,-29.0284 L 24.8708,-30.4368 L 24.6438,-31.749 L 24.326,-32.965 L 23.9173,-34.0848 L 23.4178,-35.1085
 L 22.8275,-36.0359 L 22.1465,-36.8671 L 21.3782,-37.6014 L 20.5263,-38.2377 L 19.5908,-38.7762 L 18.5717,-39.2168
 L 17.469,-39.5594 L 16.2827,-39.8042 L 15.0128,-39.951 L 13.6593,-40 L 3.86082,-40 L 3.86082,-0
 L 10.365,-0 z
M 10.365,-21.1765 L 10.365,-33.0508 L 13.3236,-33.0508 L 13.9676,-33.0285 L 14.5674,-32.9618 L 15.1229,-32.8506
 L 15.6342,-32.695 L 16.1012,-32.4949 L 16.524,-32.2503 L 16.9025,-31.9613 L 17.2367,-31.6278 L 17.5293,-31.2477
 L 17.7829,-30.819 L 17.9975,-30.3415 L 18.1731,-29.8152 L 18.3096,-29.2402 L 18.4072,-28.6165 L 18.4657,-27.944
 L 18.4852,-27.2228 L 18.4619,-26.5061 L 18.3921,-25.8335 L 18.2757,-25.2049 L 18.1127,-24.6203 L 17.9032,-24.0798
 L 17.6472,-23.5832 L 17.3445,-23.1307 L 16.9954,-22.7221 L 16.5993,-22.3599 L 16.156,-22.0459 L 15.6656,-21.7803
 L 15.1279,-21.5629 L 14.543,-21.3938 L 13.911,-21.2731 L 13.2317,-21.2006 L 12.5052,-21.1765 z
M 40.8749,-0.0820618 L 42.7307,-0.328293 L 44.4668,-0.738693 L 46.0832,-1.31325 L 47.5799,-2.05196 L 48.957,-2.95483
 L 50.2144,-4.02187 L 51.3521,-5.25305 L 52.3627,-6.63857 L 53.2386,-8.16858 L 53.9797,-9.84306 L 54.5861,-11.662
 L 55.0577,-13.6255 L 55.3946,-15.7335 L 55.5967,-17.9859 L 55.6641,-20.3829 L 55.5992,-22.6375 L 55.4044,-24.7639
 L 55.0799,-26.7621 L 54.6255,-28.6319 L 54.0413,-30.3736 L 53.3272,-31.9869 L 52.4833,-33.472 L 51.5096,-34.8288
 L 50.4185,-36.0408 L 49.2226,-37.0912 L 47.9217,-37.98 L 46.5159,-38.7072 L 45.0052,-39.2728 L 43.3895,-39.6768
 L 41.669,-39.9192 L 39.8436,-40 L 30.2131,-40 L 30.2131,-0 L 38.8996,-0 z
M 36.7173,-7.00407 L 36.7173,-33.0508 L 40.1793,-33.0508 L 42.225,-32.8494 L 43.998,-32.2453 L 45.4982,-31.2386
 L 46.7257,-29.8291 L 47.6803,-28.0169 L 48.3622,-25.8021 L 48.7714,-23.1845 L 48.9078,-20.1642 L 48.7609,-17.0798
 L 48.3203,-14.4066 L 47.5859,-12.1447 L 46.5578,-10.2941 L 45.2359,-8.85472 L 43.6203,-7.82658 L 41.711,-7.20972
 L 39.5078,-7.00407 z
M 67.6774,-15.8141 L 78.0845,-15.8141 L 78.0845,-22.7359 L 67.6774,-22.7359 L 67.6774,-33.0508 L 78.8608,-33.0508
 L 78.8608,-40 L 61.2782,-40 L 61.2782,-0 L 67.6774,-0 z
" stroke="black" fill="black" stroke-width="0.5"/>
</svg>
