<?xml version="1.0" standalone="no"?>
<!DOCTYPE svg PUBLIC "-//W3C//DTD SVG 1.1//EN" "http://www.w3.org/Graphics/SVG/1.1/DTD/svg11.dtd">
<svg width="86mm" height="100mm" viewBox="-7 -100 86 100" xmlns="http://www.w3.org/2000/svg" version="1.1">
<title>OpenSCAD Model</title>
<path d="
M 5,-70 L 23,-70 L 23.2617,-70.0069 L 23.4707,-70.0178 L 23.9912,-70.0725 L 24.198,-70.1053
 L 24.71,-70.2141 L 24.9122,-70.2683 L 25.4099,-70.43 L 25.6053,-70.505 L 26.0833,-70.7178 L 26.2698,-70.8129
 L 26.7234,-71.0747 L 26.899,-71.1888 L 27.3222,-71.4963 L 27.4849,-71.628 L 27.8738,-71.9782 L 28.0218,-72.1262
 L 28.372,-72.5151 L 28.5037,-72.6778 L 28.8112,-73.101 L 28.9253,-73.2766 L 29.1871,-73.7302 L 29.2822,-73.9167
 L 29.495,-74.3947 L 29.57,-74.5901 L 29.7317,-75.0878 L 29.7859,-75.29 L 29.8947,-75.802 L 29.9275,-76.0088
 L 29.9822,-76.5293 L 29.9931,-76.7383 L 30,-77 L 30,-95 L 63,-95 L 63.2091,-94.989
 L 63.4158,-94.9563 L 63.618,-94.9021 L 63.8135,-94.8271 L 64,-94.7321 L 64.1756,-94.618 L 64.3383,-94.4863
 L 64.4863,-94.3383 L 64.618,-94.1756 L 64.7321,-94 L 64.8271,-93.8135 L 64.9021,-93.618 L 64.9563,-93.4158
 L 64.989,-93.2091 L 65,-93 L 65,-45 L 70,-45 L 70,-93 L 69.9931,-93.2617
 L 69.9822,-93.4707 L 69.9275,-93.9912 L 69.8947,-94.198 L 69.7859,-94.71 L 69.7317,-94.9122 L 69.57,-95.4099
 L 69.495,-95.6053 L 69.2822,-96.0833 L 69.1871,-96.2698 L 68.9253,-96.7234 L 68.8112,-96.899 L 68.5037,-97.3222
 L 68.372,-97.4849 L 68.0218,-97.8738 L 67.8738,-98.0218 L 67.4849,-98.372 L 67.3222,-98.5037 L 66.899,-98.8112
 L 66.7234,-98.9253 L 66.2698,-99.1871 L 66.0833,-99.2822 L 65.6053,-99.495 L 65.4099,-99.57 L 64.9122,-99.7317
 L 64.71,-99.7859 L 64.198,-99.8947 L 63.9912,-99.9275 L 63.4707,-99.9822 L 63.2617,-99.9931 L 63,-100
 L 25,-100 L 0,-75 L 0,-45 L 5,-45 z
M 1.22311,-12.342 L 4.37978,-12.342 L 5.94754,-12.3884 L 7.42296,-12.5275 L 8.80603,-12.7592 L 10.0968,-13.0837
 L 11.2951,-13.5009 L 12.4012,-14.0108 L 13.4149,-14.6133 L 14.3362,-15.3086 L 15.1568,-16.0915 L 15.8679,-16.9567
 L 16.4697,-17.9043 L 16.962,-18.9341 L 17.3449,-20.0463 L 17.6185,-21.2408 L 17.7826,-22.5175 L 17.8373,-23.8766
 L 17.7859,-25.1819 L 17.6318,-26.4037 L 17.375,-27.542 L 17.0155,-28.5969 L 16.5532,-29.5684 L 15.9882,-30.4563
 L 15.3205,-31.2609 L 14.5501,-31.9819 L 13.681,-32.6189 L 12.7173,-33.171 L 11.6591,-33.6381 L 10.5063,-34.0202
 L 9.259,-34.3175 L 7.91708,-34.5298 L 6.48061,-34.6572 L 4.94957,-34.6997 L -6.13423,-34.6997 L -6.13423,-0
 L 1.22311,-0 z
M 1.22311,-18.3704 L 1.22311,-28.6713 L 4.56982,-28.6713 L 5.29834,-28.652 L 5.97679,-28.5941 L 6.60519,-28.4977
 L 7.18353,-28.3627 L 7.71181,-28.1891 L 8.19002,-27.9769 L 8.61818,-27.7262 L 8.99628,-27.4368 L 9.32727,-27.1072
 L 9.61414,-26.7352 L 9.85686,-26.321 L 10.0555,-25.8645 L 10.2099,-25.3657 L 10.3203,-24.8246 L 10.3865,-24.2412
 L 10.4085,-23.6155 L 10.3822,-22.9939 L 10.3032,-22.4104 L 10.1715,-21.8651 L 9.98721,-21.358 L 9.75021,-20.889
 L 9.46057,-20.4583 L 9.11826,-20.0657 L 8.72327,-19.7113 L 8.27525,-19.397 L 7.77385,-19.1247 L 7.21904,-18.8942
 L 6.61084,-18.7057 L 5.94925,-18.559 L 5.23425,-18.4542 L 4.46587,-18.3914 L 3.64407,-18.3704 z
M 35.7353,-0.0711975 L 37.8345,-0.284805 L 39.7983,-0.640823 L 41.6267,-1.13924 L 43.3198,-1.78008 L 44.8775,-2.56331
 L 46.2999,-3.48895 L 47.5869,-4.55699 L 48.7301,-5.75891 L 49.7208,-7.08618 L 50.5592,-8.53879 L 51.2451,-10.1167
 L 51.7786,-11.82 L 52.1596,-13.6487 L 52.3883,-15.6027 L 52.4645,-17.682 L 52.3911,-19.6379 L 52.1708,-21.4825
 L 51.8036,-23.2159 L 51.2896,-24.838 L 50.6288,-26.3488 L 49.821,-27.7484 L 48.8665,-29.0367 L 47.765,-30.2137
 L 46.5308,-31.2651 L 45.178,-32.1763 L 43.7064,-32.9474 L 42.1162,-33.5782 L 40.4073,-34.0689 L 38.5798,-34.4193
 L 36.6335,-34.6296 L 34.5686,-34.6997 L 23.6749,-34.6997 L 23.6749,-0 L 33.5008,-0 z
M 31.0323,-6.07599 L 31.0323,-28.6713 L 34.9484,-28.6713 L 37.2625,-28.4966 L 39.268,-27.9726 L 40.965,-27.0992
 L 42.3535,-25.8765 L 43.4334,-24.3045 L 44.2048,-22.3831 L 44.6676,-20.1124 L 44.8219,-17.4923 L 44.6557,-14.8166
 L 44.1573,-12.4977 L 43.3266,-10.5355 L 42.1636,-8.93007 L 40.6684,-7.68141 L 38.8408,-6.78951 L 36.681,-6.25438
 L 34.1889,-6.07599 z
M 66.0537,-13.7186 L 77.826,-13.7186 L 77.826,-19.7232 L 66.0537,-19.7232 L 66.0537,-28.6713 L 78.7041,-28.6713
 L 78.7041,-34.6997 L 58.815,-34.6997 L 58.815,-0 L 66.0537,-0 z
" stroke="white" fill="white" stroke-width="0.5"/>
</svg>
