<?xml version="1.0" standalone="no"?>
<!DOCTYPE svg PUBLIC "-//W3C//DTD SVG 1.1//EN" "http://www.w3.org/Graphics/SVG/1.1/DTD/svg11.dtd">
<svg width="100mm" height="100mm" viewBox="-8 -108 116 116" xmlns="http://www.w3.org/2000/svg" version="1.1">
<title>OpenSCAD Model</title>
<path d="
M 84.2093,-0.00547791 L 84.4184,-0.0164337 L 84.8348,-0.0601959 L 85.0415,-0.0929413 L 85.4511,-0.180008 L 85.6533,-0.234192
 L 86.0515,-0.363571 L 86.247,-0.438599 L 86.6293,-0.608841 L 86.8159,-0.703873 L 87.1787,-0.913391 L 87.3543,-1.02742
 L 87.6929,-1.27341 L 87.8556,-1.40515 L 88.1667,-1.68529 L 88.3147,-1.83331 L 88.5948,-2.14444 L 88.7266,-2.30713
 L 88.9726,-2.64569 L 89.0866,-2.82126 L 89.2961,-3.18414 L 89.3912,-3.37067 L 89.5614,-3.75304 L 89.6364,-3.94849
 L 89.7658,-4.34666 L 89.82,-4.54887 L 89.9071,-4.95848 L 89.9398,-5.16524 L 89.9836,-5.5816 L 89.9945,-5.79066
 L 90,-6 L 90,-94 L 89.9945,-94.2093 L 89.9836,-94.4184 L 89.9398,-94.8348 L 89.9071,-95.0415
 L 89.82,-95.4511 L 89.7658,-95.6533 L 89.6364,-96.0515 L 89.5614,-96.247 L 89.3912,-96.6293 L 89.2961,-96.8159
 L 89.0866,-97.1787 L 88.9726,-97.3543 L 88.7266,-97.6929 L 88.5948,-97.8556 L 88.3147,-98.1667 L 88.1667,-98.3147
 L 87.8556,-98.5948 L 87.6929,-98.7266 L 87.3543,-98.9726 L 87.1787,-99.0866 L 86.8159,-99.2961 L 86.6293,-99.3912
 L 86.247,-99.5614 L 86.0515,-99.6364 L 85.6533,-99.7658 L 85.4511,-99.82 L 85.0415,-99.9071 L 84.8348,-99.9398
 L 84.4184,-99.9836 L 84.2093,-99.9945 L 84,-100 L 36,-100 L 10,-74 L 10,-50
 L 14,-50 L 14,-70 L 34,-70 L 34.2093,-70.0055 L 34.4184,-70.0164 L 34.8348,-70.0602
 L 35.0415,-70.0929 L 35.4511,-70.18 L 35.6533,-70.2342 L 36.0515,-70.3636 L 36.247,-70.4386 L 36.6293,-70.6088
 L 36.8159,-70.7039 L 37.1787,-70.9134 L 37.3543,-71.0274 L 37.6929,-71.2734 L 37.8556,-71.4052 L 38.1667,-71.6853
 L 38.3147,-71.8333 L 38.5948,-72.1444 L 38.7266,-72.3071 L 38.9726,-72.6457 L 39.0866,-72.8213 L 39.2961,-73.1841
 L 39.3912,-73.3707 L 39.5614,-73.753 L 39.6364,-73.9485 L 39.7658,-74.3467 L 39.82,-74.5489 L 39.9071,-74.9585
 L 39.9398,-75.1652 L 39.9836,-75.5816 L 39.9945,-75.7907 L 40,-76 L 40,-96 L 84,-96
 L 84.2091,-95.989 L 84.4158,-95.9563 L 84.618,-95.9021 L 84.8135,-95.8271 L 85,-95.7321 L 85.1756,-95.618
 L 85.3383,-95.4863 L 85.4863,-95.3383 L 85.618,-95.1756 L 85.7321,-95 L 85.8271,-94.8135 L 85.9021,-94.618
 L 85.9563,-94.4158 L 85.989,-94.2091 L 86,-94 L 86,-6 L 85.989,-5.79094 L 85.9563,-5.58418
 L 85.9021,-5.38197 L 85.8271,-5.18652 L 85.7321,-5 L 85.618,-4.82443 L 85.4863,-4.66174 L 85.3383,-4.51372
 L 85.1756,-4.38197 L 85,-4.26794 L 84.8135,-4.17291 L 84.618,-4.09789 L 84.4158,-4.0437 L 84.2091,-4.01096
 L 84,-4 L 80,-4 L 80,-0 L 84,-0 z
M 14.212,-0.0820618 L 16.0281,-0.328293 L 17.727,-0.738693 L 19.3089,-1.31325 L 20.7736,-2.05196 L 22.1212,-2.95483
 L 23.3517,-4.02187 L 24.4651,-5.25305 L 25.4541,-6.63857 L 26.3113,-8.16858 L 27.0365,-9.84306 L 27.6299,-11.662
 L 28.0915,-13.6255 L 28.4211,-15.7335 L 28.6189,-17.9859 L 28.6849,-20.3829 L 28.6214,-22.6375 L 28.4308,-24.7639
 L 28.1131,-26.7621 L 27.6685,-28.6319 L 27.0967,-30.3736 L 26.398,-31.9869 L 25.5721,-33.472 L 24.6193,-34.8288
 L 23.5515,-36.0408 L 22.3811,-37.0912 L 21.108,-37.98 L 19.7323,-38.7072 L 18.2539,-39.2728 L 16.6729,-39.6768
 L 14.9891,-39.9192 L 13.2027,-40 L 3.77826,-40 L 3.77826,-0 L 12.2789,-0 z
M 10.1433,-7.00407 L 10.1433,-33.0508 L 13.5312,-33.0508 L 15.5332,-32.8494 L 17.2683,-32.2453 L 18.7364,-31.2386
 L 19.9376,-29.8291 L 20.8719,-28.0169 L 21.5392,-25.8021 L 21.9396,-23.1845 L 22.0731,-20.1642 L 21.9293,-17.0798
 L 21.4981,-14.4066 L 20.7795,-12.1447 L 19.7733,-10.2941 L 18.4798,-8.85472 L 16.8987,-7.82658 L 15.0302,-7.20972
 L 12.8742,-7.00407 z
M 44.1989,-15.1298 L 51.1802,-0 L 58.449,-0 L 48.3057,-20.1642 L 57.7302,-40 L 50.8722,-40
 L 44.5275,-25.6089 L 38.0595,-40 L 31.0371,-40 L 40.3592,-20.6294 L 30.4006,-0 L 37.2177,-0
 z
M 67.8341,-15.8141 L 78.0185,-15.8141 L 78.0185,-22.7359 L 67.8341,-22.7359 L 67.8341,-33.0508 L 78.7783,-33.0508
 L 78.7783,-40 L 61.5717,-40 L 61.5717,-0 L 67.8341,-0 z
" stroke="black" fill="black" stroke-width="0.5"/>
</svg>
