<?xml version="1.0" standalone="no"?>
<!DOCTYPE svg PUBLIC "-//W3C//DTD SVG 1.1//EN" "http://www.w3.org/Graphics/SVG/1.1/DTD/svg11.dtd">
<svg width="102mm" height="100mm" viewBox="-17 -100 102 100" xmlns="http://www.w3.org/2000/svg" version="1.1">
<title>OpenSCAD Model</title>
<path d="
M 5,-70 L 23,-70 L 23.2617,-70.0069 L 23.4707,-70.0178 L 23.9912,-70.0725 L 24.198,-70.1053
 L 24.71,-70.2141 L 24.9122,-70.2683 L 25.4099,-70.43 L 25.6053,-70.505 L 26.0833,-70.7178 L 26.2698,-70.8129
 L 26.7234,-71.0747 L 26.899,-71.1888 L 27.3222,-71.4963 L 27.4849,-71.628 L 27.8738,-71.9782 L 28.0218,-72.1262
 L 28.372,-72.5151 L 28.5037,-72.6778 L 28.8112,-73.101 L 28.9253,-73.2766 L 29.1871,-73.7302 L 29.2822,-73.9167
 L 29.495,-74.3947 L 29.57,-74.5901 L 29.7317,-75.0878 L 29.7859,-75.29 L 29.8947,-75.802 L 29.9275,-76.0088
 L 29.9822,-76.5293 L 29.9931,-76.7383 L 30,-77 L 30,-95 L 63,-95 L 63.2091,-94.989
 L 63.4158,-94.9563 L 63.618,-94.9021 L 63.8135,-94.8271 L 64,-94.7321 L 64.1756,-94.618 L 64.3383,-94.4863
 L 64.4863,-94.3383 L 64.618,-94.1756 L 64.7321,-94 L 64.8271,-93.8135 L 64.9021,-93.618 L 64.9563,-93.4158
 L 64.989,-93.2091 L 65,-93 L 65,-45 L 70,-45 L 70,-93 L 69.9931,-93.2617
 L 69.9822,-93.4707 L 69.9275,-93.9912 L 69.8947,-94.198 L 69.7859,-94.71 L 69.7317,-94.9122 L 69.57,-95.4099
 L 69.495,-95.6053 L 69.2822,-96.0833 L 69.1871,-96.2698 L 68.9253,-96.7234 L 68.8112,-96.899 L 68.5037,-97.3222
 L 68.372,-97.4849 L 68.0218,-97.8738 L 67.8738,-98.0218 L 67.4849,-98.372 L 67.3222,-98.5037 L 66.899,-98.8112
 L 66.7234,-98.9253 L 66.2698,-99.1871 L 66.0833,-99.2822 L 65.6053,-99.495 L 65.4099,-99.57 L 64.9122,-99.7317
 L 64.71,-99.7859 L 64.198,-99.8947 L 63.9912,-99.9275 L 63.4707,-99.9822 L 63.2617,-99.9931 L 63,-100
 L 25,-100 L 0,-75 L 0,-45 L 5,-45 z
M -6.33977,-8.25964 L 6.31062,-8.25964 L 8.82643,-0 L 16.7536,-0 L 4.45912,-34.8421 L -4.53622,-34.8421
 L -16.7831,-0 L -8.85593,-0 z
M -4.48862,-14.4305 L -3.60858,-17.2871 L -2.81978,-19.8641 L -2.12222,-22.1615 L -1.5159,-24.1793 L -1.00082,-25.9175
 L -0.576981,-27.376 L -0.244385,-28.5549 L -0.00302124,-29.4542 L 0.0483704,-29.231 L 0.107559,-28.9885 L 0.174515,-28.7267
 L 0.249237,-28.4455 L 0.331741,-28.1451 L 0.422028,-27.8254 L 0.520096,-27.4864 L 0.625931,-27.1281 L 0.783386,-26.6079
 L 1.03615,-25.7828 L 1.3842,-24.6528 L 1.82756,-23.218 L 2.36623,-21.4784 L 3.00017,-19.4339 L 3.72943,-17.0846
 L 4.55397,-14.4305 z
M 26.9113,-16.1395 L 26.9043,-16.9202 L 26.8831,-17.8736 L 26.8479,-18.9999 L 26.7985,-20.2989 L 26.7351,-21.7708
 L 26.6575,-23.4155 L 26.5659,-25.233 L 26.4602,-27.2233 L 26.6737,-27.2233 L 35.0282,-0 L 41.7688,-0
 L 50.7169,-27.1757 L 50.9304,-27.1757 L 50.8631,-25.6167 L 50.8035,-24.2149 L 50.7518,-22.9704 L 50.7078,-21.883
 L 50.6716,-20.953 L 50.6432,-20.1801 L 50.6226,-19.5645 L 50.6098,-19.1061 L 50.6015,-18.7319 L 50.5943,-18.3689
 L 50.5883,-18.017 L 50.5833,-17.6761 L 50.5794,-17.3464 L 50.5767,-17.0279 L 50.575,-16.7204 L 50.5744,-16.4241
 L 50.5744,-0 L 57.4334,-0 L 57.4334,-34.6997 L 47.4178,-34.6997 L 38.707,-8.16479 L 38.5649,-8.16479
 L 30.3525,-34.6997 L 20.3369,-34.6997 L 20.3369,-0 L 26.9113,-0 z
M 72.3353,-13.7186 L 84.1075,-13.7186 L 84.1075,-19.7232 L 72.3353,-19.7232 L 72.3353,-28.6713 L 84.9857,-28.6713
 L 84.9857,-34.6997 L 65.0966,-34.6997 L 65.0966,-0 L 72.3353,-0 z
" stroke="black" fill="black" stroke-width="0.5"/>
</svg>
