<?xml version="1.0" standalone="no"?>
<!DOCTYPE svg PUBLIC "-//W3C//DTD SVG 1.1//EN" "http://www.w3.org/Graphics/SVG/1.1/DTD/svg11.dtd">
<svg width="100mm" height="100mm" viewBox="-8 -108 116 116" xmlns="http://www.w3.org/2000/svg" version="1.1">
<title>OpenSCAD Model</title>
<path d="
M 84.1993,-0.00497437 L 84.3984,-0.0149078 L 84.5973,-0.0298004 L 84.7955,-0.0546417 L 84.9926,-0.0843658 L 85.1891,-0.119003
 L 85.3832,-0.163315 L 85.5764,-0.212509 L 85.7684,-0.266525 L 85.9575,-0.330063 L 86.1449,-0.398254 L 86.3306,-0.471115
 L 86.5125,-0.553223 L 86.6922,-0.63974 L 86.8696,-0.730728 L 87.0423,-0.830399 L 87.2124,-0.934357 L 87.3799,-1.04256
 L 87.5419,-1.15901 L 87.7008,-1.2794 L 87.8568,-1.40376 L 88.0063,-1.53571 L 88.1524,-1.67133 L 88.2952,-1.81058
 L 88.4308,-1.95677 L 88.5628,-2.10626 L 88.691,-2.25905 L 88.8113,-2.41792 L 88.9277,-2.5798 L 89.0401,-2.74458
 L 89.1443,-2.9151 L 89.244,-3.08778 L 89.3393,-3.26295 L 89.4258,-3.44243 L 89.5078,-3.62416 L 89.5852,-3.80795
 L 89.6534,-3.99522 L 89.7169,-4.18422 L 89.7757,-4.3748 L 89.825,-4.56818 L 89.8693,-4.76257 L 89.9088,-4.95807
 L 89.9386,-5.15555 L 89.9634,-5.35338 L 89.9832,-5.55183 L 89.9916,-5.70078 L 89.9972,-5.85023 L 90,-6
 L 90,-94 L 89.995,-94.1993 L 89.9851,-94.3984 L 89.9702,-94.5973 L 89.9454,-94.7955 L 89.9156,-94.9926
 L 89.881,-95.1891 L 89.8367,-95.3832 L 89.7875,-95.5764 L 89.7335,-95.7684 L 89.6699,-95.9575 L 89.6017,-96.1449
 L 89.5289,-96.3306 L 89.4468,-96.5125 L 89.3603,-96.6922 L 89.2693,-96.8696 L 89.1696,-97.0423 L 89.0656,-97.2124
 L 88.9574,-97.3799 L 88.841,-97.5419 L 88.7206,-97.7008 L 88.5962,-97.8568 L 88.4643,-98.0063 L 88.3287,-98.1524
 L 88.1894,-98.2952 L 88.0432,-98.4308 L 87.8937,-98.5628 L 87.741,-98.691 L 87.5821,-98.8113 L 87.4202,-98.9277
 L 87.2554,-99.0401 L 87.0849,-99.1443 L 86.9122,-99.244 L 86.737,-99.3393 L 86.5576,-99.4258 L 86.3758,-99.5078
 L 86.192,-99.5852 L 86.0048,-99.6534 L 85.8158,-99.7169 L 85.6252,-99.7757 L 85.4318,-99.825 L 85.2374,-99.8693
 L 85.0419,-99.9088 L 84.8445,-99.9386 L 84.6466,-99.9634 L 84.4482,-99.9832 L 84.2992,-99.9916 L 84.1498,-99.9972
 L 84,-100 L 36,-100 L 10,-74 L 10,-50 L 14,-50 L 14,-70
 L 34,-70 L 34.1993,-70.005 L 34.3984,-70.0149 L 34.5973,-70.0298 L 34.7955,-70.0546 L 34.9926,-70.0844
 L 35.1891,-70.119 L 35.3832,-70.1633 L 35.5764,-70.2125 L 35.7684,-70.2665 L 35.9575,-70.3301 L 36.1449,-70.3983
 L 36.3306,-70.4711 L 36.5125,-70.5532 L 36.6922,-70.6397 L 36.8696,-70.7307 L 37.0423,-70.8304 L 37.2124,-70.9344
 L 37.3799,-71.0426 L 37.5419,-71.159 L 37.7008,-71.2794 L 37.8568,-71.4038 L 38.0063,-71.5357 L 38.1524,-71.6713
 L 38.2952,-71.8106 L 38.4308,-71.9568 L 38.5628,-72.1063 L 38.691,-72.259 L 38.8113,-72.4179 L 38.9277,-72.5798
 L 39.0401,-72.7446 L 39.1443,-72.9151 L 39.244,-73.0878 L 39.3393,-73.263 L 39.4258,-73.4424 L 39.5078,-73.6242
 L 39.5852,-73.808 L 39.6534,-73.9952 L 39.7169,-74.1842 L 39.7757,-74.3748 L 39.825,-74.5682 L 39.8693,-74.7626
 L 39.9088,-74.9581 L 39.9386,-75.1555 L 39.9634,-75.3534 L 39.9832,-75.5518 L 39.9916,-75.7008 L 39.9972,-75.8502
 L 40,-76 L 40,-96 L 84,-96 L 84.1495,-95.9944 L 84.3473,-95.9696 L 84.5417,-95.9252
 L 84.7307,-95.8617 L 84.9124,-95.7797 L 85.0851,-95.6801 L 85.247,-95.5637 L 85.3965,-95.4317 L 85.5321,-95.2856
 L 85.6525,-95.1266 L 85.7564,-94.9565 L 85.843,-94.7769 L 85.9111,-94.5895 L 85.9603,-94.3963 L 85.9901,-94.1991
 L 86,-94 L 86,-6 L 85.9944,-5.85054 L 85.9696,-5.65271 L 85.9252,-5.45831 L 85.8617,-5.26932
 L 85.7797,-5.08759 L 85.6801,-4.9149 L 85.5637,-4.75302 L 85.4317,-4.60353 L 85.2856,-4.46791 L 85.1266,-4.34752
 L 84.9565,-4.24356 L 84.7769,-4.15704 L 84.5895,-4.08885 L 84.3963,-4.03966 L 84.1991,-4.00993 L 84,-4
 L 80,-4 L 80,-0 L 84,-0 z
M 12.1486,-2.05151 L 12.4172,-4.01939 L 12.6743,-5.90361 L 12.9199,-7.70416 L 13.154,-9.42104 L 13.3767,-11.0542
 L 13.4837,-11.8395 L 13.7875,-14.0697 L 13.9756,-15.4519 L 14.1523,-16.7505 L 14.2364,-17.3684 L 14.3958,-18.5414
 L 14.4713,-19.0966 L 14.6135,-20.1442 L 14.6803,-20.6366 L 14.8053,-21.5587 L 14.9189,-22.3971 L 14.9713,-22.7849
 L 15.0676,-23.4978 L 15.1115,-23.8229 L 15.1524,-24.127 L 15.1905,-24.4103 L 15.2258,-24.6726 L 15.2581,-24.9141
 L 15.2876,-25.1346 L 15.3142,-25.3341 L 15.338,-25.5128 L 15.3588,-25.6706 L 15.3768,-25.8074 L 15.392,-25.9233
 L 15.4042,-26.0183 L 15.4151,-26.1037 L 15.4262,-26.1908 L 15.4373,-26.2795 L 15.4487,-26.3699 L 15.4601,-26.462
 L 15.4717,-26.5558 L 15.4835,-26.6512 L 15.4953,-26.7484 L 15.5074,-26.8472 L 15.5195,-26.9477 L 15.5318,-27.0498
 L 15.5443,-27.1537 L 15.5569,-27.2592 L 15.5696,-27.3664 L 15.5825,-27.4752 L 15.5955,-27.5858 L 15.6087,-27.698
 L 15.6354,-27.9275 L 15.649,-28.0447 L 15.6627,-28.1637 L 15.6906,-28.4066 L 15.719,-28.6562 L 15.748,-28.9125
 L 15.7627,-29.0431 L 15.7926,-29.3095 L 15.8077,-29.4452 L 15.8384,-29.7217 L 15.854,-29.8624 L 15.8697,-30.0048
 L 15.9015,-30.2947 L 15.9176,-30.4421 L 15.9339,-30.5912 L 15.9668,-30.8945 L 15.9835,-31.0487 L 16.0173,-31.362
 L 16.0344,-31.5212 L 16.0517,-31.6821 L 16.0691,-31.4885 L 16.0867,-31.2952 L 16.1044,-31.1023 L 16.1223,-30.9097
 L 16.1404,-30.7175 L 16.1587,-30.5256 L 16.1771,-30.3341 L 16.1957,-30.1429 L 16.2145,-29.9521 L 16.2335,-29.7616
 L 16.2526,-29.5715 L 16.2719,-29.3817 L 16.2914,-29.1923 L 16.3111,-29.0032 L 16.3309,-28.8145 L 16.3509,-28.6261
 L 16.371,-28.438 L 16.3914,-28.2504 L 16.4119,-28.063 L 16.4326,-27.876 L 16.4534,-27.6894 L 16.4745,-27.5031
 L 16.4957,-27.3172 L 16.517,-27.1316 L 16.5386,-26.9463 L 16.5603,-26.7614 L 16.5822,-26.5769 L 16.6043,-26.3927
 L 16.6265,-26.2088 L 16.6489,-26.0253 L 16.6715,-25.8422 L 16.6943,-25.6594 L 16.7172,-25.4769 L 16.7403,-25.2948
 L 16.7636,-25.1131 L 16.787,-24.9317 L 16.8107,-24.7506 L 16.8345,-24.5699 L 16.8584,-24.3896 L 16.8826,-24.2095
 L 16.9069,-24.0299 L 16.9314,-23.8506 L 16.9561,-23.6716 L 16.9809,-23.493 L 17.0059,-23.3147 L 17.0311,-23.1368
 L 20.2015,-0 L 26.0112,-0 L 32.0535,-40 L 27.0902,-40 L 24.2684,-17.7431 L 23.3886,-11.2136
 L 22.9737,-7.92061 L 22.9378,-8.28311 L 22.9024,-8.63992 L 22.8675,-8.99104 L 22.833,-9.33647 L 22.7989,-9.67622
 L 22.7653,-10.0103 L 22.7322,-10.3386 L 22.6995,-10.6613 L 22.6673,-10.9783 L 22.6355,-11.2896 L 22.6042,-11.5952
 L 22.5734,-11.8952 L 22.543,-12.1894 L 22.513,-12.478 L 22.4835,-12.7608 L 22.4545,-13.038 L 22.4259,-13.3095
 L 22.3978,-13.5753 L 22.3701,-13.8354 L 22.3429,-14.0898 L 22.3161,-14.3385 L 22.2899,-14.5816 L 22.264,-14.8189
 L 22.2386,-15.0506 L 22.2137,-15.2766 L 22.1892,-15.4969 L 22.1651,-15.7115 L 22.1416,-15.9204 L 22.1185,-16.1236
 L 22.0958,-16.3211 L 22.0736,-16.513 L 22.0518,-16.6991 L 22.0305,-16.8796 L 22.0097,-17.0544 L 21.9893,-17.2235
 L 21.9694,-17.3869 L 21.9499,-17.5446 L 21.9309,-17.6966 L 21.9123,-17.843 L 21.8942,-17.9836 L 21.8765,-18.1186
 L 21.8593,-18.2479 L 21.8426,-18.3714 L 21.8263,-18.4893 L 21.8104,-18.6015 L 21.795,-18.7081 L 18.8403,-40
 L 13.3625,-40 L 13.1174,-38.211 L 12.9983,-37.3411 L 12.8815,-36.4876 L 12.767,-35.6505 L 12.5448,-34.0256
 L 12.4372,-33.2377 L 12.2289,-31.7112 L 12.1282,-30.9726 L 12.0298,-30.2504 L 11.9336,-29.5446 L 11.8398,-28.8551
 L 11.7483,-28.1821 L 11.659,-27.5256 L 11.5721,-26.8854 L 11.4875,-26.2616 L 11.4052,-25.6542 L 11.3251,-25.0633
 L 11.2474,-24.4887 L 11.1719,-23.9306 L 11.0988,-23.3889 L 11.028,-22.8635 L 10.9594,-22.3546 L 10.8932,-21.8621
 L 10.8292,-21.386 L 10.7675,-20.9263 L 10.7082,-20.483 L 10.6512,-20.0562 L 10.5964,-19.6457 L 10.5439,-19.2517
 L 10.4938,-18.874 L 10.4459,-18.5128 L 10.4003,-18.168 L 10.3571,-17.8395 L 10.3161,-17.5275 L 10.2774,-17.2319
 L 10.2411,-16.9527 L 10.207,-16.6899 L 10.1752,-16.4435 L 10.1457,-16.2136 L 10.1186,-16 L 10.0937,-15.8029
 L 10.0711,-15.6221 L 10.0508,-15.4578 L 10.0125,-15.1448 L 9.97412,-14.8306 L 9.91637,-14.3566 L 9.87775,-14.039
 L 9.83902,-13.72 L 9.8002,-13.3997 L 9.76131,-13.078 L 9.72231,-12.755 L 9.68321,-12.4307 L 9.64403,-12.105
 L 9.56538,-11.4496 L 9.52592,-11.1199 L 9.48636,-10.7888 L 9.40695,-10.1227 L 9.36713,-9.78757 L 9.32719,-9.45114
 L 9.28717,-9.11337 L 9.24706,-8.77426 L 9.20683,-8.43381 L 9.14635,-7.92061 L 8.38261,-14.1658 L 4.99652,-40
 L 0.0332794,-40 L 6.05887,-0 L 11.8686,-0 z
M 38.5076,-15.1882 L 44.2509,-15.1882 L 49.679,-0 L 55.1901,-0 L 48.8656,-16.8062 L 48.9683,-16.8492
 L 49.0702,-16.8941 L 49.171,-16.941 L 49.271,-16.9899 L 49.37,-17.0407 L 49.4682,-17.0935 L 49.5653,-17.1483
 L 49.6616,-17.2051 L 49.7569,-17.2638 L 49.8513,-17.3245 L 49.9448,-17.3872 L 50.0374,-17.4518 L 50.129,-17.5185
 L 50.2197,-17.5871 L 50.3095,-17.6576 L 50.3984,-17.7301 L 50.4863,-17.8047 L 50.5733,-17.8811 L 50.6594,-17.9596
 L 50.7445,-18.04 L 50.8288,-18.1224 L 50.912,-18.2068 L 50.9944,-18.2931 L 51.0759,-18.3814 L 51.1564,-18.4717
 L 51.236,-18.5639 L 51.3147,-18.6582 L 51.3924,-18.7544 L 51.4692,-18.8525 L 51.5451,-18.9527 L 51.6201,-19.0548
 L 51.6941,-19.1589 L 51.7673,-19.2649 L 51.8394,-19.3729 L 51.9107,-19.4829 L 51.9811,-19.5949 L 52.0505,-19.7088
 L 52.119,-19.8248 L 52.1865,-19.9426 L 52.2532,-20.0625 L 52.3189,-20.1843 L 52.3837,-20.3081 L 52.4475,-20.4339
 L 52.5105,-20.5616 L 52.5725,-20.6913 L 52.6336,-20.823 L 52.6935,-20.9563 L 52.7522,-21.0906 L 52.8095,-21.226
 L 52.8655,-21.3625 L 52.9202,-21.5001 L 52.9736,-21.6387 L 53.0257,-21.7785 L 53.0764,-21.9193 L 53.1259,-22.0613
 L 53.174,-22.2043 L 53.2208,-22.3484 L 53.2662,-22.4936 L 53.3104,-22.6398 L 53.3532,-22.7872 L 53.3947,-22.9357
 L 53.435,-23.0852 L 53.4738,-23.2358 L 53.5114,-23.3875 L 53.5477,-23.5403 L 53.5826,-23.6942 L 53.6162,-23.8492
 L 53.6485,-24.0052 L 53.6795,-24.1624 L 53.7091,-24.3206 L 53.7374,-24.4799 L 53.7645,-24.6404 L 53.7902,-24.8018
 L 53.8146,-24.9644 L 53.8376,-25.1281 L 53.8594,-25.2929 L 53.8798,-25.4587 L 53.8989,-25.6256 L 53.9167,-25.7936
 L 53.9332,-25.9627 L 53.9483,-26.1329 L 53.9622,-26.3042 L 53.9747,-26.4766 L 53.9859,-26.65 L 53.9958,-26.8246
 L 54.0044,-27.0002 L 54.0116,-27.1769 L 54.0175,-27.3547 L 54.0222,-27.5336 L 54.0255,-27.7136 L 54.0274,-27.8946
 L 54.0281,-28.0768 L 54.027,-28.3261 L 54.0238,-28.5728 L 54.0184,-28.817 L 54.0109,-29.0587 L 54.0012,-29.2979
 L 53.9894,-29.5345 L 53.9754,-29.7686 L 53.9593,-30.0001 L 53.941,-30.2291 L 53.9206,-30.4556 L 53.898,-30.6795
 L 53.8733,-30.9009 L 53.8465,-31.1198 L 53.8174,-31.3361 L 53.7863,-31.5499 L 53.7529,-31.7612 L 53.7175,-31.9699
 L 53.6799,-32.1761 L 53.6401,-32.3797 L 53.5982,-32.5809 L 53.5541,-32.7794 L 53.5079,-32.9755 L 53.4595,-33.169
 L 53.409,-33.3599 L 53.3563,-33.5484 L 53.3015,-33.7343 L 53.2446,-33.9176 L 53.1854,-34.0985 L 53.1242,-34.2767
 L 53.0608,-34.4525 L 52.9952,-34.6257 L 52.9275,-34.7964 L 52.8576,-34.9646 L 52.7856,-35.1302 L 52.7115,-35.2932
 L 52.6351,-35.4538 L 52.5567,-35.6118 L 52.4761,-35.7672 L 52.3933,-35.9202 L 52.3084,-36.0706 L 52.2213,-36.2184
 L 52.1321,-36.3637 L 52.0408,-36.5065 L 51.9473,-36.6468 L 51.8516,-36.7845 L 51.7538,-36.9196 L 51.654,-37.0521
 L 51.5524,-37.1817 L 51.4491,-37.3083 L 51.3439,-37.4321 L 51.2369,-37.5529 L 51.1281,-37.6708 L 51.0175,-37.7858
 L 50.9051,-37.8979 L 50.7909,-38.0071 L 50.6749,-38.1134 L 50.5571,-38.2167 L 50.4374,-38.3172 L 50.316,-38.4147
 L 50.1928,-38.5093 L 50.0677,-38.601 L 49.9409,-38.6898 L 49.8123,-38.7757 L 49.6818,-38.8587 L 49.5495,-38.9388
 L 49.4155,-39.0159 L 49.2796,-39.0902 L 49.142,-39.1615 L 49.0025,-39.2299 L 48.8612,-39.2954 L 48.7181,-39.358
 L 48.5733,-39.4177 L 48.4266,-39.4745 L 48.2781,-39.5283 L 48.1278,-39.5793 L 47.9757,-39.6273 L 47.8218,-39.6725
 L 47.6661,-39.7147 L 47.5085,-39.754 L 47.3492,-39.7904 L 47.1881,-39.8239 L 47.0252,-39.8544 L 46.8604,-39.8821
 L 46.6939,-39.9068 L 46.5256,-39.9286 L 46.3554,-39.9476 L 46.1835,-39.9636 L 46.0097,-39.9767 L 45.8342,-39.9869
 L 45.6568,-39.9942 L 45.4776,-39.9985 L 45.2966,-40 L 33.6107,-40 L 33.6107,-0 L 38.5076,-0
 z
M 38.5076,-21.6892 L 38.5076,-33.499 L 44.7821,-33.499 L 44.9677,-33.4962 L 45.1492,-33.4881 L 45.3267,-33.4745
 L 45.5,-33.4554 L 45.6693,-33.4309 L 45.8345,-33.4009 L 45.9957,-33.3655 L 46.1527,-33.3247 L 46.3057,-33.2784
 L 46.4546,-33.2266 L 46.5994,-33.1694 L 46.7401,-33.1068 L 46.8768,-33.0387 L 47.0094,-32.9651 L 47.1378,-32.8862
 L 47.2623,-32.8017 L 47.3826,-32.7119 L 47.4989,-32.6165 L 47.611,-32.5158 L 47.7191,-32.4096 L 47.8232,-32.2979
 L 47.9231,-32.1808 L 48.019,-32.0582 L 48.1107,-31.9302 L 48.1984,-31.7968 L 48.2821,-31.6579 L 48.3616,-31.5135
 L 48.4371,-31.3637 L 48.5085,-31.2085 L 48.5758,-31.0478 L 48.639,-30.8817 L 48.6981,-30.7101 L 48.7532,-30.5331
 L 48.8042,-30.3506 L 48.8511,-30.1626 L 48.8939,-29.9693 L 48.9327,-29.7705 L 48.9674,-29.5662 L 48.998,-29.3565
 L 49.0245,-29.1413 L 49.0469,-28.9207 L 49.0653,-28.6947 L 49.0795,-28.4632 L 49.0897,-28.2262 L 49.0959,-27.9838
 L 49.0979,-27.736 L 49.0974,-27.6119 L 49.0959,-27.4891 L 49.0934,-27.3674 L 49.0899,-27.247 L 49.0853,-27.1278
 L 49.0798,-27.0098 L 49.0733,-26.8929 L 49.0658,-26.7773 L 49.0572,-26.6629 L 49.0477,-26.5497 L 49.0371,-26.4377
 L 49.0256,-26.327 L 49.013,-26.2174 L 48.9995,-26.109 L 48.9849,-26.0019 L 48.9694,-25.8959 L 48.9528,-25.7912
 L 48.9352,-25.6876 L 48.9167,-25.5853 L 48.8971,-25.4842 L 48.8765,-25.3843 L 48.8549,-25.2856 L 48.8323,-25.1881
 L 48.8087,-25.0918 L 48.7841,-24.9967 L 48.7585,-24.9028 L 48.7319,-24.8101 L 48.7043,-24.7187 L 48.6757,-24.6284
 L 48.646,-24.5394 L 48.6154,-24.4515 L 48.5838,-24.3649 L 48.5511,-24.2795 L 48.5175,-24.1952 L 48.4829,-24.1122
 L 48.4472,-24.0304 L 48.4106,-23.9498 L 48.3729,-23.8704 L 48.3343,-23.7923 L 48.2946,-23.7153 L 48.2539,-23.6395
 L 48.2123,-23.5649 L 48.1696,-23.4916 L 48.1259,-23.4194 L 48.0812,-23.3485 L 48.0355,-23.2787 L 47.9889,-23.2104
 L 47.9413,-23.1435 L 47.8927,-23.0782 L 47.8432,-23.0143 L 47.7928,-22.952 L 47.7415,-22.8911 L 47.6891,-22.8318
 L 47.6359,-22.774 L 47.5817,-22.7176 L 47.5266,-22.6628 L 47.4705,-22.6094 L 47.4135,-22.5576 L 47.3555,-22.5073
 L 47.2966,-22.4584 L 47.2368,-22.4111 L 47.176,-22.3653 L 47.1143,-22.321 L 47.0517,-22.2782 L 46.9881,-22.2368
 L 46.9235,-22.197 L 46.858,-22.1587 L 46.7916,-22.1219 L 46.7242,-22.0866 L 46.6559,-22.0528 L 46.5867,-22.0205
 L 46.5165,-21.9897 L 46.4454,-21.9604 L 46.3733,-21.9326 L 46.3003,-21.9063 L 46.2263,-21.8815 L 46.1514,-21.8582
 L 46.0756,-21.8364 L 45.9988,-21.8161 L 45.9211,-21.7974 L 45.8424,-21.7801 L 45.7628,-21.7643 L 45.6823,-21.75
 L 45.6008,-21.7373 L 45.5184,-21.726 L 45.435,-21.7162 L 45.3507,-21.708 L 45.2654,-21.7012 L 45.1792,-21.696
 L 45.0921,-21.6922 L 45.004,-21.6899 L 44.915,-21.6892 z
M 75.0333,-6.47253 L 62.4842,-6.47253 L 62.4842,-40 L 57.5873,-40 L 57.5873,-0 L 75.0333,-0
 z
" stroke="black" fill="black" stroke-width="0.5"/>
</svg>
