<?xml version="1.0" standalone="no"?>
<!DOCTYPE svg PUBLIC "-//W3C//DTD SVG 1.1//EN" "http://www.w3.org/Graphics/SVG/1.1/DTD/svg11.dtd">
<svg width="100mm" height="100mm" viewBox="-8 -108 116 116" xmlns="http://www.w3.org/2000/svg" version="1.1">
<title>OpenSCAD Model</title>
<path d="
M 84.1993,-0.00497437 L 84.3984,-0.0149078 L 84.5973,-0.0298004 L 84.7955,-0.0546417 L 84.9926,-0.0843658 L 85.1891,-0.119003
 L 85.3832,-0.163315 L 85.5764,-0.212509 L 85.7684,-0.266525 L 85.9575,-0.330063 L 86.1449,-0.398254 L 86.3306,-0.471115
 L 86.5125,-0.553223 L 86.6922,-0.63974 L 86.8696,-0.730728 L 87.0423,-0.830399 L 87.2124,-0.934357 L 87.3799,-1.04256
 L 87.5419,-1.15901 L 87.7008,-1.2794 L 87.8568,-1.40376 L 88.0063,-1.53571 L 88.1524,-1.67133 L 88.2952,-1.81058
 L 88.4308,-1.95677 L 88.5628,-2.10626 L 88.691,-2.25905 L 88.8113,-2.41792 L 88.9277,-2.5798 L 89.0401,-2.74458
 L 89.1443,-2.9151 L 89.244,-3.08778 L 89.3393,-3.26295 L 89.4258,-3.44243 L 89.5078,-3.62416 L 89.5852,-3.80795
 L 89.6534,-3.99522 L 89.7169,-4.18422 L 89.7757,-4.3748 L 89.825,-4.56818 L 89.8693,-4.76257 L 89.9088,-4.95807
 L 89.9386,-5.15555 L 89.9634,-5.35338 L 89.9832,-5.55183 L 89.9916,-5.70078 L 89.9972,-5.85023 L 90,-6
 L 90,-94 L 89.995,-94.1993 L 89.9851,-94.3984 L 89.9702,-94.5973 L 89.9454,-94.7955 L 89.9156,-94.9926
 L 89.881,-95.1891 L 89.8367,-95.3832 L 89.7875,-95.5764 L 89.7335,-95.7684 L 89.6699,-95.9575 L 89.6017,-96.1449
 L 89.5289,-96.3306 L 89.4468,-96.5125 L 89.3603,-96.6922 L 89.2693,-96.8696 L 89.1696,-97.0423 L 89.0656,-97.2124
 L 88.9574,-97.3799 L 88.841,-97.5419 L 88.7206,-97.7008 L 88.5962,-97.8568 L 88.4643,-98.0063 L 88.3287,-98.1524
 L 88.1894,-98.2952 L 88.0432,-98.4308 L 87.8937,-98.5628 L 87.741,-98.691 L 87.5821,-98.8113 L 87.4202,-98.9277
 L 87.2554,-99.0401 L 87.0849,-99.1443 L 86.9122,-99.244 L 86.737,-99.3393 L 86.5576,-99.4258 L 86.3758,-99.5078
 L 86.192,-99.5852 L 86.0048,-99.6534 L 85.8158,-99.7169 L 85.6252,-99.7757 L 85.4318,-99.825 L 85.2374,-99.8693
 L 85.0419,-99.9088 L 84.8445,-99.9386 L 84.6466,-99.9634 L 84.4482,-99.9832 L 84.2992,-99.9916 L 84.1498,-99.9972
 L 84,-100 L 36,-100 L 10,-74 L 10,-50 L 14,-50 L 14,-70
 L 34,-70 L 34.1993,-70.005 L 34.3984,-70.0149 L 34.5973,-70.0298 L 34.7955,-70.0546 L 34.9926,-70.0844
 L 35.1891,-70.119 L 35.3832,-70.1633 L 35.5764,-70.2125 L 35.7684,-70.2665 L 35.9575,-70.3301 L 36.1449,-70.3983
 L 36.3306,-70.4711 L 36.5125,-70.5532 L 36.6922,-70.6397 L 36.8696,-70.7307 L 37.0423,-70.8304 L 37.2124,-70.9344
 L 37.3799,-71.0426 L 37.5419,-71.159 L 37.7008,-71.2794 L 37.8568,-71.4038 L 38.0063,-71.5357 L 38.1524,-71.6713
 L 38.2952,-71.8106 L 38.4308,-71.9568 L 38.5628,-72.1063 L 38.691,-72.259 L 38.8113,-72.4179 L 38.9277,-72.5798
 L 39.0401,-72.7446 L 39.1443,-72.9151 L 39.244,-73.0878 L 39.3393,-73.263 L 39.4258,-73.4424 L 39.5078,-73.6242
 L 39.5852,-73.808 L 39.6534,-73.9952 L 39.7169,-74.1842 L 39.7757,-74.3748 L 39.825,-74.5682 L 39.8693,-74.7626
 L 39.9088,-74.9581 L 39.9386,-75.1555 L 39.9634,-75.3534 L 39.9832,-75.5518 L 39.9916,-75.7008 L 39.9972,-75.8502
 L 40,-76 L 40,-96 L 84,-96 L 84.1495,-95.9944 L 84.3473,-95.9696 L 84.5417,-95.9252
 L 84.7307,-95.8617 L 84.9124,-95.7797 L 85.0851,-95.6801 L 85.247,-95.5637 L 85.3965,-95.4317 L 85.5321,-95.2856
 L 85.6525,-95.1266 L 85.7564,-94.9565 L 85.843,-94.7769 L 85.9111,-94.5895 L 85.9603,-94.3963 L 85.9901,-94.1991
 L 86,-94 L 86,-6 L 85.9944,-5.85054 L 85.9696,-5.65271 L 85.9252,-5.45831 L 85.8617,-5.26932
 L 85.7797,-5.08759 L 85.6801,-4.9149 L 85.5637,-4.75302 L 85.4317,-4.60353 L 85.2856,-4.46791 L 85.1266,-4.34752
 L 84.9565,-4.24356 L 84.7769,-4.15704 L 84.5895,-4.08885 L 84.3963,-4.03966 L 84.1991,-4.00993 L 84,-4
 L 80,-4 L 80,-0 L 84,-0 z
M 13.2946,-0.00114441 L 13.4565,-0.00460815 L 13.6176,-0.010376 L 13.778,-0.0184479 L 13.9375,-0.0288391 L 14.0963,-0.0415344
 L 14.2542,-0.0565186 L 14.4114,-0.0738373 L 14.5677,-0.0934448 L 14.7233,-0.115372 L 14.878,-0.139603 L 15.032,-0.166138
 L 15.1851,-0.194977 L 15.3375,-0.226135 L 15.489,-0.259598 L 15.6398,-0.295364 L 15.7897,-0.333435 L 15.9389,-0.373825
 L 16.0872,-0.416519 L 16.2348,-0.461517 L 16.3815,-0.50882 L 16.5275,-0.558441 L 16.6727,-0.610352 L 16.817,-0.664597
 L 16.9606,-0.72113 L 17.1033,-0.779968 L 17.2453,-0.841125 L 17.3865,-0.904587 L 17.5268,-0.970352 L 17.6664,-1.03842
 L 17.8052,-1.10881 L 17.9431,-1.1815 L 18.0803,-1.2565 L 18.2167,-1.3338 L 18.3522,-1.41342 L 18.487,-1.49533
 L 18.621,-1.57957 L 18.7541,-1.66611 L 18.8865,-1.75496 L 19.0181,-1.84612 L 19.1488,-1.93958 L 19.2788,-2.03534
 L 19.408,-2.13341 L 19.5364,-2.2338 L 19.664,-2.33649 L 19.7907,-2.44148 L 19.9165,-2.54866 L 20.041,-2.65788
 L 20.1643,-2.76917 L 20.2863,-2.88251 L 20.4071,-2.99789 L 20.5266,-3.11534 L 20.6449,-3.23483 L 20.762,-3.35637
 L 20.8777,-3.47997 L 20.9923,-3.60562 L 21.1056,-3.73332 L 21.2177,-3.86308 L 21.3285,-3.99489 L 21.438,-4.12875
 L 21.5463,-4.26465 L 21.6534,-4.40262 L 21.7592,-4.54263 L 21.8638,-4.68471 L 21.9671,-4.82883 L 22.0692,-4.97501
 L 22.17,-5.12323 L 22.2696,-5.27351 L 22.368,-5.42584 L 22.4651,-5.58023 L 22.5609,-5.73666 L 22.6555,-5.89516
 L 22.7489,-6.05569 L 22.841,-6.21828 L 22.9319,-6.38293 L 23.0215,-6.54964 L 23.1098,-6.7184 L 23.1969,-6.88919
 L 23.2828,-7.06204 L 23.3675,-7.23695 L 23.4508,-7.41391 L 23.533,-7.59293 L 23.6139,-7.774 L 23.6935,-7.95712
 L 23.7719,-8.14229 L 23.8491,-8.3295 L 23.925,-8.51878 L 23.9996,-8.71011 L 24.073,-8.90349 L 24.1452,-9.09892
 L 24.2161,-9.2964 L 24.2858,-9.49596 L 24.3541,-9.69727 L 24.4209,-9.90009 L 24.4862,-10.1044 L 24.55,-10.3102
 L 24.6123,-10.5175 L 24.673,-10.7262 L 24.7323,-10.9365 L 24.7901,-11.1482 L 24.8464,-11.3615 L 24.9012,-11.5762
 L 24.9545,-11.7924 L 25.0063,-12.0101 L 25.0566,-12.2293 L 25.1054,-12.45 L 25.1526,-12.6722 L 25.1984,-12.8958
 L 25.2427,-13.121 L 25.2855,-13.3476 L 25.3268,-13.5758 L 25.3665,-13.8054 L 25.4048,-14.0365 L 25.4416,-14.2691
 L 25.4769,-14.5032 L 25.5106,-14.7387 L 25.5429,-14.9758 L 25.5737,-15.2144 L 25.603,-15.4544 L 25.6307,-15.6959
 L 25.657,-15.9389 L 25.6818,-16.1835 L 25.705,-16.4294 L 25.7268,-16.6769 L 25.7471,-16.9259 L 25.7658,-17.1764
 L 25.7831,-17.4283 L 25.7988,-17.6818 L 25.8131,-17.9367 L 25.8259,-18.1931 L 25.8371,-18.451 L 25.8469,-18.7104
 L 25.8551,-18.9713 L 25.8619,-19.2337 L 25.8671,-19.4975 L 25.8709,-19.7629 L 25.8731,-20.0297 L 25.8739,-20.2981
 L 25.8722,-20.7095 L 25.867,-21.1167 L 25.8585,-21.5197 L 25.8465,-21.9186 L 25.8311,-22.3133 L 25.8123,-22.7039
 L 25.79,-23.0902 L 25.7643,-23.4724 L 25.7352,-23.8504 L 25.7027,-24.2243 L 25.6668,-24.594 L 25.6274,-24.9595
 L 25.5846,-25.3208 L 25.5384,-25.678 L 25.4887,-26.0309 L 25.4357,-26.3798 L 25.3792,-26.7244 L 25.3193,-27.0649
 L 25.2559,-27.4012 L 25.1892,-27.7333 L 25.119,-28.0612 L 25.0454,-28.385 L 24.9684,-28.7046 L 24.8879,-29.0201
 L 24.804,-29.3313 L 24.7167,-29.6384 L 24.626,-29.9413 L 24.5319,-30.2401 L 24.4343,-30.5346 L 24.3333,-30.825
 L 24.2289,-31.1113 L 24.121,-31.3933 L 24.0098,-31.6712 L 23.8951,-31.9449 L 23.777,-32.2144 L 23.6554,-32.4798
 L 23.5305,-32.741 L 23.4021,-32.998 L 23.2703,-33.2508 L 23.135,-33.4995 L 22.9964,-33.744 L 22.8543,-33.9843
 L 22.7088,-34.2205 L 22.5599,-34.4525 L 22.4075,-34.6803 L 22.2518,-34.9039 L 22.0929,-35.1231 L 21.9312,-35.3374
 L 21.7666,-35.547 L 21.5993,-35.7516 L 21.4291,-35.9515 L 21.2561,-36.1466 L 21.0802,-36.3369 L 20.9016,-36.5223
 L 20.72,-36.703 L 20.5357,-36.8788 L 20.3486,-37.0498 L 20.1586,-37.2159 L 19.9658,-37.3773 L 19.7702,-37.5338
 L 19.5717,-37.6856 L 19.3704,-37.8325 L 19.1663,-37.9746 L 18.9594,-38.1118 L 18.7496,-38.2443 L 18.537,-38.3719
 L 18.3216,-38.4948 L 18.1034,-38.6128 L 17.8823,-38.726 L 17.6584,-38.8344 L 17.4317,-38.9379 L 17.2021,-39.0367
 L 16.9698,-39.1306 L 16.7346,-39.2197 L 16.4965,-39.304 L 16.2557,-39.3835 L 16.012,-39.4581 L 15.7655,-39.528
 L 15.5161,-39.593 L 15.264,-39.6532 L 15.009,-39.7086 L 14.7512,-39.7592 L 14.4905,-39.8049 L 14.2271,-39.8459
 L 13.9608,-39.882 L 13.6917,-39.9133 L 13.4197,-39.9398 L 13.1449,-39.9615 L 12.8673,-39.9783 L 12.5869,-39.9904
 L 12.3036,-39.9976 L 12.0176,-40 L 2.54456,-40 L 2.54456,-0 L 13.1318,-0 z
M 8.02403,-6.47253 L 8.02403,-33.5274 L 11.9061,-33.5274 L 12.0821,-33.5258 L 12.2563,-33.521 L 12.4287,-33.513
 L 12.5993,-33.5018 L 12.7682,-33.4874 L 12.9353,-33.4697 L 13.1007,-33.4489 L 13.2642,-33.4248 L 13.426,-33.3976
 L 13.586,-33.3671 L 13.7443,-33.3334 L 13.9007,-33.2966 L 14.0554,-33.2565 L 14.2084,-33.2132 L 14.3595,-33.1667
 L 14.5089,-33.117 L 14.6565,-33.0641 L 14.8023,-33.0079 L 14.9464,-32.9486 L 15.0887,-32.8861 L 15.2292,-32.8204
 L 15.3679,-32.7514 L 15.5049,-32.6793 L 15.6401,-32.6039 L 15.7735,-32.5254 L 15.9051,-32.4436 L 16.035,-32.3586
 L 16.1631,-32.2704 L 16.2894,-32.179 L 16.414,-32.0844 L 16.5368,-31.9866 L 16.6577,-31.8856 L 16.777,-31.7814
 L 16.8944,-31.674 L 17.0101,-31.5634 L 17.124,-31.4495 L 17.2362,-31.3325 L 17.3466,-31.2122 L 17.4551,-31.0888
 L 17.562,-30.9621 L 17.667,-30.8322 L 17.7703,-30.6992 L 17.8718,-30.5629 L 17.9715,-30.4234 L 18.0695,-30.2807
 L 18.1656,-30.1348 L 18.2599,-29.9858 L 18.3521,-29.834 L 18.4422,-29.6793 L 18.5303,-29.5217 L 18.6162,-29.3612
 L 18.7001,-29.1978 L 18.782,-29.0316 L 18.8617,-28.8625 L 18.9394,-28.6904 L 19.015,-28.5155 L 19.0886,-28.3377
 L 19.16,-28.1571 L 19.2294,-27.9735 L 19.2968,-27.787 L 19.362,-27.5977 L 19.4252,-27.4055 L 19.4863,-27.2104
 L 19.5454,-27.0125 L 19.6023,-26.8116 L 19.6572,-26.6078 L 19.7101,-26.4012 L 19.7608,-26.1917 L 19.8095,-25.9793
 L 19.8561,-25.764 L 19.9007,-25.5458 L 19.9431,-25.3248 L 19.9835,-25.1008 L 20.0218,-24.874 L 20.0581,-24.6443
 L 20.0923,-24.4117 L 20.1244,-24.1763 L 20.1544,-23.9379 L 20.1824,-23.6967 L 20.2083,-23.4525 L 20.2321,-23.2055
 L 20.2539,-22.9556 L 20.2735,-22.7029 L 20.2912,-22.4472 L 20.3067,-22.1886 L 20.3202,-21.9272 L 20.3315,-21.6629
 L 20.3409,-21.3957 L 20.3481,-21.1256 L 20.3533,-20.8526 L 20.3564,-20.5768 L 20.3574,-20.2981 L 20.3565,-20.0216
 L 20.3535,-19.7477 L 20.3486,-19.4762 L 20.3417,-19.2074 L 20.3329,-18.941 L 20.3221,-18.6771 L 20.3093,-18.4158
 L 20.2945,-18.157 L 20.2778,-17.9007 L 20.2591,-17.647 L 20.2385,-17.3957 L 20.2159,-17.147 L 20.1913,-16.9008
 L 20.1647,-16.6571 L 20.1362,-16.416 L 20.1058,-16.1774 L 20.0733,-15.9413 L 20.0389,-15.7077 L 20.0025,-15.4766
 L 19.9642,-15.2481 L 19.9239,-15.022 L 19.8816,-14.7986 L 19.8374,-14.5776 L 19.7912,-14.3591 L 19.743,-14.1432
 L 19.6928,-13.9298 L 19.6407,-13.7189 L 19.5867,-13.5105 L 19.5306,-13.3047 L 19.4726,-13.1014 L 19.4126,-12.9006
 L 19.3507,-12.7023 L 19.2868,-12.5066 L 19.2209,-12.3133 L 19.1531,-12.1226 L 19.0833,-11.9344 L 19.0115,-11.7488
 L 18.9378,-11.5656 L 18.8621,-11.385 L 18.7844,-11.2069 L 18.7048,-11.0313 L 18.6232,-10.8583 L 18.5396,-10.6878
 L 18.4541,-10.5198 L 18.3666,-10.3543 L 18.2771,-10.1913 L 18.186,-10.0314 L 18.0935,-9.87495 L 17.9996,-9.72206
 L 17.9044,-9.57269 L 17.8078,-9.42682 L 17.7098,-9.28447 L 17.6104,-9.14561 L 17.5097,-9.0103 L 17.4076,-8.87849
 L 17.3042,-8.7502 L 17.1993,-8.62543 L 17.0931,-8.50415 L 16.9856,-8.3864 L 16.8766,-8.27217 L 16.7663,-8.16145
 L 16.6547,-8.05424 L 16.5416,-7.95056 L 16.4272,-7.85037 L 16.3114,-7.75372 L 16.1943,-7.66058 L 16.0757,-7.57095
 L 15.9558,-7.48483 L 15.8346,-7.40224 L 15.7119,-7.32315 L 15.588,-7.24759 L 15.4626,-7.17552 L 15.3358,-7.10698
 L 15.2077,-7.04196 L 15.0782,-6.98044 L 14.9474,-6.92245 L 14.8152,-6.86797 L 14.6816,-6.817 L 14.5466,-6.76956
 L 14.4103,-6.72562 L 14.2726,-6.6852 L 14.1335,-6.64828 L 13.9931,-6.6149 L 13.8513,-6.58501 L 13.7081,-6.55867
 L 13.5636,-6.53581 L 13.4177,-6.51649 L 13.2704,-6.50066 L 13.1217,-6.48836 L 12.9717,-6.47958 L 12.8203,-6.47429
 L 12.6676,-6.47253 z
M 35.5776,-10.2202 L 45.5518,-10.2202 L 47.8737,-0 L 53.2973,-0 L 43.7873,-40 L 37.3235,-40
 L 27.7762,-0 L 33.2557,-0 z
M 36.8033,-16.5224 L 37.0535,-17.6357 L 37.2935,-18.7046 L 37.5234,-19.7291 L 37.6346,-20.2247 L 37.8493,-21.1825
 L 37.9529,-21.6447 L 38.1525,-22.5359 L 38.2485,-22.9648 L 38.342,-23.3826 L 38.4329,-23.7893 L 38.5213,-24.1849
 L 38.6906,-24.9428 L 38.7714,-25.3051 L 38.9255,-25.9963 L 38.9987,-26.3252 L 39.0695,-26.643 L 39.1376,-26.9498
 L 39.2033,-27.2454 L 39.2664,-27.5299 L 39.327,-27.8033 L 39.3851,-28.0656 L 39.4407,-28.3167 L 39.4937,-28.5568
 L 39.5442,-28.7858 L 39.5921,-29.0036 L 39.6376,-29.2104 L 39.6805,-29.406 L 39.7209,-29.5905 L 39.7587,-29.7639
 L 39.794,-29.9262 L 39.8268,-30.0774 L 39.8571,-30.2175 L 39.8848,-30.3465 L 39.91,-30.4644 L 39.9327,-30.5711
 L 39.9529,-30.6668 L 39.9705,-30.7513 L 39.9856,-30.8248 L 39.9981,-30.8871 L 40.0094,-30.9437 L 40.0317,-31.0562
 L 40.0647,-31.2229 L 40.097,-31.3872 L 40.1287,-31.549 L 40.1598,-31.7085 L 40.1802,-31.8135 L 40.2003,-31.9174
 L 40.2299,-32.0712 L 40.2493,-32.1724 L 40.2778,-32.3223 L 40.3057,-32.4697 L 40.324,-32.5666 L 40.342,-32.6625
 L 40.3597,-32.7573 L 40.3771,-32.851 L 40.4028,-32.9895 L 40.4195,-33.0806 L 40.444,-33.2151 L 40.5553,-33.8397
 L 40.9456,-31.8805 L 41.744,-28.0198 L 44.3258,-16.5224 z
M 77.5446,-6.47253 L 61.6822,-6.47253 L 61.6822,-17.0051 L 75.65,-17.0051 L 75.65,-23.4776 L 61.6822,-23.4776
 L 61.6822,-33.5274 L 76.7831,-33.5274 L 76.7831,-40 L 56.2027,-40 L 56.2027,-0 L 77.5446,-0
 z
" stroke="white" fill="white" stroke-width="0.5"/>
</svg>
