<?xml version="1.0" standalone="no"?>
<!DOCTYPE svg PUBLIC "-//W3C//DTD SVG 1.1//EN" "http://www.w3.org/Graphics/SVG/1.1/DTD/svg11.dtd">
<svg width="100mm" height="100mm" viewBox="-8 -108 116 116" xmlns="http://www.w3.org/2000/svg" version="1.1">
<title>OpenSCAD Model</title>
<path d="
M 84.2093,-0.00547791 L 84.4184,-0.0164337 L 84.8348,-0.0601959 L 85.0415,-0.0929413 L 85.4511,-0.180008 L 85.6533,-0.234192
 L 86.0515,-0.363571 L 86.247,-0.438599 L 86.6293,-0.608841 L 86.8159,-0.703873 L 87.1787,-0.913391 L 87.3543,-1.02742
 L 87.6929,-1.27341 L 87.8556,-1.40515 L 88.1667,-1.68529 L 88.3147,-1.83331 L 88.5948,-2.14444 L 88.7266,-2.30713
 L 88.9726,-2.64569 L 89.0866,-2.82126 L 89.2961,-3.18414 L 89.3912,-3.37067 L 89.5614,-3.75304 L 89.6364,-3.94849
 L 89.7658,-4.34666 L 89.82,-4.54887 L 89.9071,-4.95848 L 89.9398,-5.16524 L 89.9836,-5.5816 L 89.9945,-5.79066
 L 90,-6 L 90,-94 L 89.9945,-94.2093 L 89.9836,-94.4184 L 89.9398,-94.8348 L 89.9071,-95.0415
 L 89.82,-95.4511 L 89.7658,-95.6533 L 89.6364,-96.0515 L 89.5614,-96.247 L 89.3912,-96.6293 L 89.2961,-96.8159
 L 89.0866,-97.1787 L 88.9726,-97.3543 L 88.7266,-97.6929 L 88.5948,-97.8556 L 88.3147,-98.1667 L 88.1667,-98.3147
 L 87.8556,-98.5948 L 87.6929,-98.7266 L 87.3543,-98.9726 L 87.1787,-99.0866 L 86.8159,-99.2961 L 86.6293,-99.3912
 L 86.247,-99.5614 L 86.0515,-99.6364 L 85.6533,-99.7658 L 85.4511,-99.82 L 85.0415,-99.9071 L 84.8348,-99.9398
 L 84.4184,-99.9836 L 84.2093,-99.9945 L 84,-100 L 36,-100 L 10,-74 L 10,-50
 L 14,-50 L 14,-70 L 34,-70 L 34.2093,-70.0055 L 34.4184,-70.0164 L 34.8348,-70.0602
 L 35.0415,-70.0929 L 35.4511,-70.18 L 35.6533,-70.2342 L 36.0515,-70.3636 L 36.247,-70.4386 L 36.6293,-70.6088
 L 36.8159,-70.7039 L 37.1787,-70.9134 L 37.3543,-71.0274 L 37.6929,-71.2734 L 37.8556,-71.4052 L 38.1667,-71.6853
 L 38.3147,-71.8333 L 38.5948,-72.1444 L 38.7266,-72.3071 L 38.9726,-72.6457 L 39.0866,-72.8213 L 39.2961,-73.1841
 L 39.3912,-73.3707 L 39.5614,-73.753 L 39.6364,-73.9485 L 39.7658,-74.3467 L 39.82,-74.5489 L 39.9071,-74.9585
 L 39.9398,-75.1652 L 39.9836,-75.5816 L 39.9945,-75.7907 L 40,-76 L 40,-96 L 84,-96
 L 84.2091,-95.989 L 84.4158,-95.9563 L 84.618,-95.9021 L 84.8135,-95.8271 L 85,-95.7321 L 85.1756,-95.618
 L 85.3383,-95.4863 L 85.4863,-95.3383 L 85.618,-95.1756 L 85.7321,-95 L 85.8271,-94.8135 L 85.9021,-94.618
 L 85.9563,-94.4158 L 85.989,-94.2091 L 86,-94 L 86,-6 L 85.989,-5.79094 L 85.9563,-5.58418
 L 85.9021,-5.38197 L 85.8271,-5.18652 L 85.7321,-5 L 85.618,-4.82443 L 85.4863,-4.66174 L 85.3383,-4.51372
 L 85.1756,-4.38197 L 85,-4.26794 L 84.8135,-4.17291 L 84.618,-4.09789 L 84.4158,-4.0437 L 84.2091,-4.01096
 L 84,-4 L 80,-4 L 80,-0 L 84,-0 z
M 10.7443,0.483307 L 11.9691,0.3367 L 13.1166,0.0924072 L 14.1868,-0.249588 L 15.1797,-0.689331 L 16.0953,-1.22681
 L 16.9336,-1.862 L 17.6946,-2.59491 L 18.3718,-3.41556 L 18.9587,-4.31398 L 19.4554,-5.29013 L 19.8617,-6.34406
 L 20.1777,-7.47572 L 20.4035,-8.68517 L 20.5389,-9.97235 L 20.5841,-11.3373 L 20.5572,-12.2773 L 20.4767,-13.1678
 L 20.3424,-14.0089 L 20.1544,-14.8004 L 19.9128,-15.5425 L 19.6174,-16.2351 L 19.2684,-16.8782 L 18.8656,-17.4718
 L 18.4106,-18.0142 L 17.9048,-18.5039 L 17.3483,-18.9407 L 16.7411,-19.3248 L 16.083,-19.656 L 15.3743,-19.9344
 L 14.6148,-20.16 L 13.8045,-20.3328 L 13.8045,-20.4925 L 14.4929,-20.757 L 15.1418,-21.0713 L 15.7511,-21.4356
 L 16.3208,-21.8497 L 16.8511,-22.3138 L 17.3417,-22.8278 L 17.7929,-23.3916 L 18.2045,-24.0054 L 18.5719,-24.6612
 L 18.8903,-25.351 L 19.1597,-26.075 L 19.3801,-26.8331 L 19.5516,-27.6252 L 19.6741,-28.4515 L 19.7475,-29.3118
 L 19.772,-30.2062 L 19.7332,-31.2674 L 19.6168,-32.2688 L 19.4228,-33.2102 L 19.1512,-34.0918 L 18.8019,-34.9134
 L 18.3751,-35.6753 L 17.8706,-36.3772 L 17.2885,-37.0193 L 16.6396,-37.5932 L 15.9342,-38.0905 L 15.1725,-38.5114
 L 14.3545,-38.8557 L 13.4801,-39.1235 L 12.5493,-39.3148 L 11.5622,-39.4296 L 10.5187,-39.4678 L 9.2337,-39.4079
 L 7.99411,-39.2283 L 6.79996,-38.9289 L 5.65125,-38.5098 L 4.54796,-37.9708 L 3.49013,-37.3121 L 2.47771,-36.5337
 L 1.51074,-35.6355 L 4.21115,-29.9668 L 4.63591,-30.3448 L 5.05093,-30.6937 L 5.45621,-31.0135 L 5.85175,-31.3041
 L 6.23755,-31.5657 L 6.61362,-31.7981 L 6.97995,-32.0014 L 7.33653,-32.1756 L 7.68752,-32.3253 L 8.03703,-32.4551
 L 8.38507,-32.5649 L 8.73163,-32.6548 L 9.07674,-32.7247 L 9.42038,-32.7746 L 9.76253,-32.8045 L 10.1032,-32.8145
 L 11.0238,-32.7455 L 11.8217,-32.5384 L 12.4968,-32.1932 L 13.0492,-31.71 L 13.4788,-31.0888 L 13.7857,-30.3294
 L 13.9698,-29.4321 L 14.0312,-28.3966 L 14.008,-27.7044 L 13.9385,-27.065 L 13.8227,-26.4785 L 13.6605,-25.9447
 L 13.452,-25.4638 L 13.1972,-25.0357 L 12.896,-24.6603 L 12.5486,-24.3378 L 12.151,-24.0603 L 11.6994,-23.8198
 L 11.1938,-23.6163 L 10.6342,-23.4498 L 10.0206,-23.3203 L 9.35304,-23.2278 L 8.63147,-23.1723 L 7.8559,-23.1538
 L 5.72191,-23.1538 L 5.72191,-16.8462 L 7.81802,-16.8462 L 8.65723,-16.8283 L 9.43742,-16.7747 L 10.1586,-16.6853
 L 10.8207,-16.5601 L 11.4238,-16.3992 L 11.968,-16.2025 L 12.453,-15.97 L 12.8791,-15.7018 L 13.2509,-15.3908
 L 13.5731,-15.0298 L 13.8457,-14.619 L 14.0688,-14.1583 L 14.2423,-13.6477 L 14.3662,-13.0872 L 14.4405,-12.4768
 L 14.4653,-11.8165 L 14.4438,-11.0775 L 14.3792,-10.3909 L 14.2715,-9.75671 L 14.1207,-9.17494 L 13.9268,-8.64558
 L 13.6899,-8.16862 L 13.4099,-7.74405 L 13.0869,-7.3719 L 12.7186,-7.04758 L 12.3032,-6.76649 L 11.8405,-6.52864
 L 11.3306,-6.33405 L 10.7735,-6.18269 L 10.1692,-6.07458 L 9.51764,-6.00972 L 8.81888,-5.9881 L 8.34619,-5.99933
 L 7.87231,-6.033 L 7.39728,-6.08916 L 6.92104,-6.16774 L 6.44362,-6.26878 L 5.96501,-6.3923 L 5.48523,-6.53827
 L 5.00426,-6.70668 L 4.52771,-6.89297 L 4.06122,-7.09259 L 3.60474,-7.30551 L 3.15829,-7.53174 L 2.72189,-7.77126
 L 2.2955,-8.02409 L 1.87918,-8.29022 L 1.47285,-8.56967 L 1.47285,-1.57021 L 2.35751,-1.07745 L 3.27402,-0.650406
 L 4.22238,-0.289047 L 5.20261,0.00656128 L 6.21469,0.236511 L 7.25864,0.400757 L 8.33444,0.499313 L 9.44211,0.53215
 z
M 30.2657,-18.0974 L 30.2601,-18.9727 L 30.2432,-20.0418 L 30.2152,-21.3047 L 30.1759,-22.7613 L 30.1255,-24.4117
 L 30.0638,-26.256 L 29.9908,-28.2939 L 29.9067,-30.5257 L 30.0766,-30.5257 L 36.7239,-0 L 42.0871,-0
 L 49.2067,-30.4723 L 49.3766,-30.4723 L 49.323,-28.7242 L 49.2757,-27.1523 L 49.2345,-25.7568 L 49.1995,-24.5376
 L 49.1707,-23.4947 L 49.1481,-22.6281 L 49.1317,-21.9378 L 49.1215,-21.4238 L 49.1149,-21.0042 L 49.1092,-20.5971
 L 49.1044,-20.2025 L 49.1004,-19.8203 L 49.0974,-19.4507 L 49.0952,-19.0934 L 49.0938,-18.7487 L 49.0934,-18.4164
 L 49.0934,-0 L 54.5508,-0 L 54.5508,-38.909 L 46.5818,-38.909 L 39.651,-9.15523 L 39.5379,-9.15523
 L 33.0037,-38.909 L 25.0347,-38.909 L 25.0347,-0 L 30.2657,-0 z
M 66.4075,-15.3827 L 75.7742,-15.3827 L 75.7742,-22.1157 L 66.4075,-22.1157 L 66.4075,-32.1493 L 76.4729,-32.1493
 L 76.4729,-38.909 L 60.648,-38.909 L 60.648,-0 L 66.4075,-0 z
" stroke="black" fill="black" stroke-width="0.5"/>
</svg>
