<?xml version="1.0" standalone="no"?>
<!DOCTYPE svg PUBLIC "-//W3C//DTD SVG 1.1//EN" "http://www.w3.org/Graphics/SVG/1.1/DTD/svg11.dtd">
<svg width="87mm" height="101mm" viewBox="-8 -100 87 101" xmlns="http://www.w3.org/2000/svg" version="1.1">
<title>OpenSCAD Model</title>
<path d="
M 5,-70 L 23,-70 L 23.2617,-70.0069 L 23.4707,-70.0178 L 23.9912,-70.0725 L 24.198,-70.1053
 L 24.71,-70.2141 L 24.9122,-70.2683 L 25.4099,-70.43 L 25.6053,-70.505 L 26.0833,-70.7178 L 26.2698,-70.8129
 L 26.7234,-71.0747 L 26.899,-71.1888 L 27.3222,-71.4963 L 27.4849,-71.628 L 27.8738,-71.9782 L 28.0218,-72.1262
 L 28.372,-72.5151 L 28.5037,-72.6778 L 28.8112,-73.101 L 28.9253,-73.2766 L 29.1871,-73.7302 L 29.2822,-73.9167
 L 29.495,-74.3947 L 29.57,-74.5901 L 29.7317,-75.0878 L 29.7859,-75.29 L 29.8947,-75.802 L 29.9275,-76.0088
 L 29.9822,-76.5293 L 29.9931,-76.7383 L 30,-77 L 30,-95 L 63,-95 L 63.2091,-94.989
 L 63.4158,-94.9563 L 63.618,-94.9021 L 63.8135,-94.8271 L 64,-94.7321 L 64.1756,-94.618 L 64.3383,-94.4863
 L 64.4863,-94.3383 L 64.618,-94.1756 L 64.7321,-94 L 64.8271,-93.8135 L 64.9021,-93.618 L 64.9563,-93.4158
 L 64.989,-93.2091 L 65,-93 L 65,-45 L 70,-45 L 70,-93 L 69.9931,-93.2617
 L 69.9822,-93.4707 L 69.9275,-93.9912 L 69.8947,-94.198 L 69.7859,-94.71 L 69.7317,-94.9122 L 69.57,-95.4099
 L 69.495,-95.6053 L 69.2822,-96.0833 L 69.1871,-96.2698 L 68.9253,-96.7234 L 68.8112,-96.899 L 68.5037,-97.3222
 L 68.372,-97.4849 L 68.0218,-97.8738 L 67.8738,-98.0218 L 67.4849,-98.372 L 67.3222,-98.5037 L 66.899,-98.8112
 L 66.7234,-98.9253 L 66.2698,-99.1871 L 66.0833,-99.2822 L 65.6053,-99.495 L 65.4099,-99.57 L 64.9122,-99.7317
 L 64.71,-99.7859 L 64.198,-99.8947 L 63.9912,-99.9275 L 63.4707,-99.9822 L 63.2617,-99.9931 L 63,-100
 L 25,-100 L 0,-75 L 0,-45 L 5,-45 z
M 11.334,0.402283 L 13.1542,0.185333 L 14.8586,-0.176208 L 16.4473,-0.682404 L 17.9203,-1.33322 L 19.2776,-2.12868
 L 20.5192,-3.06874 L 21.6451,-4.15344 L 22.6464,-5.37285 L 23.5142,-6.71684 L 24.2486,-8.18544 L 24.8494,-9.77864
 L 25.3167,-11.4964 L 25.6505,-13.3388 L 25.8507,-15.3058 L 25.9175,-17.3974 L 25.8513,-19.4942 L 25.6527,-21.4648
 L 25.3217,-23.3094 L 24.8583,-25.0279 L 24.2625,-26.6203 L 23.5343,-28.0866 L 22.6737,-29.4269 L 21.6807,-30.6411
 L 20.5629,-31.7203 L 19.3274,-32.6556 L 17.9744,-33.447 L 16.5038,-34.0945 L 14.9156,-34.5982 L 13.2099,-34.9579
 L 11.3866,-35.1738 L 9.4458,-35.2457 L 7.5042,-35.1743 L 5.67868,-34.9601 L 3.96924,-34.6032 L 2.37589,-34.1035
 L 0.898605,-33.461 L -0.462601,-32.6757 L -1.70772,-31.7476 L -2.83676,-30.6768 L -3.84082,-29.4706 L -4.711,-28.1364
 L -5.44731,-26.6744 L -6.04976,-25.0843 L -6.51833,-23.3663 L -6.85301,-21.5204 L -7.05382,-19.5465 L -7.12076,-17.4447
 L -7.054,-15.342 L -6.85374,-13.3654 L -6.51999,-11.5149 L -6.05273,-9.79045 L -5.45197,-8.19209 L -4.7177,-6.7198
 L -3.84993,-5.37358 L -2.84866,-4.15344 L -1.72278,-3.06874 L -0.481186,-2.12868 L 0.876099,-1.33322 L 2.34911,-0.682404
 L 3.93782,-0.176208 L 5.64223,0.185333 L 7.46236,0.402283 L 9.39819,0.474594 z
M 8.33463,-5.74223 L 7.33928,-5.88019 L 6.41216,-6.11012 L 5.55327,-6.43204 L 4.7626,-6.84592 L 4.04018,-7.35176
 L 3.38597,-7.94958 L 2.79999,-8.63939 L 2.2827,-9.42004 L 1.83438,-10.2905 L 1.45505,-11.2506 L 1.14467,-12.3005
 L 0.903275,-13.4401 L 0.730835,-14.6695 L 0.62738,-15.9886 L 0.592896,-17.3974 L 0.627747,-18.8065 L 0.73233,-20.1261
 L 0.906616,-21.3564 L 1.15062,-22.4973 L 1.46434,-23.5488 L 1.84778,-24.5109 L 2.30093,-25.3837 L 2.82379,-26.167
 L 3.41534,-26.8596 L 4.07439,-27.4599 L 4.80092,-27.9678 L 5.59492,-28.3833 L 6.45641,-28.7065 L 7.38539,-28.9374
 L 8.38185,-29.0759 L 9.4458,-29.1221 L 11.4985,-28.9389 L 13.2774,-28.3893 L 14.7827,-27.4733 L 16.0143,-26.1909
 L 16.9722,-24.5421 L 17.6565,-22.527 L 18.067,-20.1454 L 18.2038,-17.3974 L 18.0663,-14.655 L 17.6535,-12.2782
 L 16.9655,-10.267 L 16.0024,-8.62154 L 14.7641,-7.34172 L 13.2507,-6.42757 L 11.462,-5.87907 L 9.39819,-5.69624
 z
M 39.4436,-13.7186 L 51.2159,-13.7186 L 51.2159,-19.7232 L 39.4436,-19.7232 L 39.4436,-28.6713 L 52.094,-28.6713
 L 52.094,-34.6997 L 32.205,-34.6997 L 32.205,-0 L 39.4436,-0 z
M 65.4975,-13.7186 L 77.2697,-13.7186 L 77.2697,-19.7232 L 65.4975,-19.7232 L 65.4975,-28.6713 L 78.1478,-28.6713
 L 78.1478,-34.6997 L 58.2587,-34.6997 L 58.2587,-0 L 65.4975,-0 z
" stroke="white" fill="white" stroke-width="0.5"/>
</svg>
