<?xml version="1.0" standalone="no"?>
<!DOCTYPE svg PUBLIC "-//W3C//DTD SVG 1.1//EN" "http://www.w3.org/Graphics/SVG/1.1/DTD/svg11.dtd">
<svg width="100mm" height="100mm" viewBox="-8 -108 116 116" xmlns="http://www.w3.org/2000/svg" version="1.1">
<title>OpenSCAD Model</title>
<path d="
M 84.1993,-0.00497437 L 84.3984,-0.0149078 L 84.5973,-0.0298004 L 84.7955,-0.0546417 L 84.9926,-0.0843658 L 85.1891,-0.119003
 L 85.3832,-0.163315 L 85.5764,-0.212509 L 85.7684,-0.266525 L 85.9575,-0.330063 L 86.1449,-0.398254 L 86.3306,-0.471115
 L 86.5125,-0.553223 L 86.6922,-0.63974 L 86.8696,-0.730728 L 87.0423,-0.830399 L 87.2124,-0.934357 L 87.3799,-1.04256
 L 87.5419,-1.15901 L 87.7008,-1.2794 L 87.8568,-1.40376 L 88.0063,-1.53571 L 88.1524,-1.67133 L 88.2952,-1.81058
 L 88.4308,-1.95677 L 88.5628,-2.10626 L 88.691,-2.25905 L 88.8113,-2.41792 L 88.9277,-2.5798 L 89.0401,-2.74458
 L 89.1443,-2.9151 L 89.244,-3.08778 L 89.3393,-3.26295 L 89.4258,-3.44243 L 89.5078,-3.62416 L 89.5852,-3.80795
 L 89.6534,-3.99522 L 89.7169,-4.18422 L 89.7757,-4.3748 L 89.825,-4.56818 L 89.8693,-4.76257 L 89.9088,-4.95807
 L 89.9386,-5.15555 L 89.9634,-5.35338 L 89.9832,-5.55183 L 89.9916,-5.70078 L 89.9972,-5.85023 L 90,-6
 L 90,-94 L 89.995,-94.1993 L 89.9851,-94.3984 L 89.9702,-94.5973 L 89.9454,-94.7955 L 89.9156,-94.9926
 L 89.881,-95.1891 L 89.8367,-95.3832 L 89.7875,-95.5764 L 89.7335,-95.7684 L 89.6699,-95.9575 L 89.6017,-96.1449
 L 89.5289,-96.3306 L 89.4468,-96.5125 L 89.3603,-96.6922 L 89.2693,-96.8696 L 89.1696,-97.0423 L 89.0656,-97.2124
 L 88.9574,-97.3799 L 88.841,-97.5419 L 88.7206,-97.7008 L 88.5962,-97.8568 L 88.4643,-98.0063 L 88.3287,-98.1524
 L 88.1894,-98.2952 L 88.0432,-98.4308 L 87.8937,-98.5628 L 87.741,-98.691 L 87.5821,-98.8113 L 87.4202,-98.9277
 L 87.2554,-99.0401 L 87.0849,-99.1443 L 86.9122,-99.244 L 86.737,-99.3393 L 86.5576,-99.4258 L 86.3758,-99.5078
 L 86.192,-99.5852 L 86.0048,-99.6534 L 85.8158,-99.7169 L 85.6252,-99.7757 L 85.4318,-99.825 L 85.2374,-99.8693
 L 85.0419,-99.9088 L 84.8445,-99.9386 L 84.6466,-99.9634 L 84.4482,-99.9832 L 84.2992,-99.9916 L 84.1498,-99.9972
 L 84,-100 L 36,-100 L 10,-74 L 10,-50 L 14,-50 L 14,-70
 L 34,-70 L 34.1993,-70.005 L 34.3984,-70.0149 L 34.5973,-70.0298 L 34.7955,-70.0546 L 34.9926,-70.0844
 L 35.1891,-70.119 L 35.3832,-70.1633 L 35.5764,-70.2125 L 35.7684,-70.2665 L 35.9575,-70.3301 L 36.1449,-70.3983
 L 36.3306,-70.4711 L 36.5125,-70.5532 L 36.6922,-70.6397 L 36.8696,-70.7307 L 37.0423,-70.8304 L 37.2124,-70.9344
 L 37.3799,-71.0426 L 37.5419,-71.159 L 37.7008,-71.2794 L 37.8568,-71.4038 L 38.0063,-71.5357 L 38.1524,-71.6713
 L 38.2952,-71.8106 L 38.4308,-71.9568 L 38.5628,-72.1063 L 38.691,-72.259 L 38.8113,-72.4179 L 38.9277,-72.5798
 L 39.0401,-72.7446 L 39.1443,-72.9151 L 39.244,-73.0878 L 39.3393,-73.263 L 39.4258,-73.4424 L 39.5078,-73.6242
 L 39.5852,-73.808 L 39.6534,-73.9952 L 39.7169,-74.1842 L 39.7757,-74.3748 L 39.825,-74.5682 L 39.8693,-74.7626
 L 39.9088,-74.9581 L 39.9386,-75.1555 L 39.9634,-75.3534 L 39.9832,-75.5518 L 39.9916,-75.7008 L 39.9972,-75.8502
 L 40,-76 L 40,-96 L 84,-96 L 84.1495,-95.9944 L 84.3473,-95.9696 L 84.5417,-95.9252
 L 84.7307,-95.8617 L 84.9124,-95.7797 L 85.0851,-95.6801 L 85.247,-95.5637 L 85.3965,-95.4317 L 85.5321,-95.2856
 L 85.6525,-95.1266 L 85.7564,-94.9565 L 85.843,-94.7769 L 85.9111,-94.5895 L 85.9603,-94.3963 L 85.9901,-94.1991
 L 86,-94 L 86,-6 L 85.9944,-5.85054 L 85.9696,-5.65271 L 85.9252,-5.45831 L 85.8617,-5.26932
 L 85.7797,-5.08759 L 85.6801,-4.9149 L 85.5637,-4.75302 L 85.4317,-4.60353 L 85.2856,-4.46791 L 85.1266,-4.34752
 L 84.9565,-4.24356 L 84.7769,-4.15704 L 84.5895,-4.08885 L 84.3963,-4.03966 L 84.1991,-4.00993 L 84,-4
 L 80,-4 L 80,-0 L 84,-0 z
M 9.08012,-14.0809 L 16.4366,-14.0809 L 16.5815,-14.0816 L 16.7255,-14.084 L 16.8687,-14.0879 L 17.011,-14.0934
 L 17.1524,-14.1005 L 17.293,-14.1091 L 17.4326,-14.1193 L 17.5715,-14.1311 L 17.7094,-14.1444 L 17.8465,-14.1593
 L 17.9828,-14.1758 L 18.1181,-14.1939 L 18.2527,-14.2135 L 18.3863,-14.2347 L 18.5191,-14.2575 L 18.651,-14.2818
 L 18.782,-14.3077 L 18.9122,-14.3352 L 19.0415,-14.3642 L 19.17,-14.3948 L 19.2976,-14.427 L 19.4243,-14.4607
 L 19.5502,-14.496 L 19.6752,-14.5329 L 19.7993,-14.5714 L 19.9226,-14.6114 L 20.045,-14.653 L 20.1665,-14.6962
 L 20.2872,-14.7409 L 20.407,-14.7872 L 20.526,-14.8351 L 20.6441,-14.8846 L 20.7613,-14.9356 L 20.8776,-14.9881
 L 20.9931,-15.0423 L 21.1077,-15.098 L 21.2215,-15.1553 L 21.3344,-15.2142 L 21.4464,-15.2746 L 21.5576,-15.3366
 L 21.6679,-15.4002 L 21.7773,-15.4653 L 21.8859,-15.532 L 21.9936,-15.6003 L 22.1005,-15.6702 L 22.2064,-15.7416
 L 22.3115,-15.8145 L 22.4154,-15.8886 L 22.5183,-15.9641 L 22.6201,-16.0408 L 22.7209,-16.1189 L 22.8206,-16.1983
 L 22.9192,-16.2789 L 23.0168,-16.3609 L 23.1133,-16.4442 L 23.2088,-16.5287 L 23.3031,-16.6146 L 23.3965,-16.7018
 L 23.4887,-16.7903 L 23.5799,-16.88 L 23.6701,-16.9711 L 23.7591,-17.0635 L 23.8471,-17.1572 L 23.9341,-17.2522
 L 24.02,-17.3484 L 24.1048,-17.446 L 24.1886,-17.5449 L 24.2713,-17.6451 L 24.3529,-17.7466 L 24.4335,-17.8493
 L 24.513,-17.9534 L 24.5914,-18.0588 L 24.6688,-18.1655 L 24.7451,-18.2735 L 24.8204,-18.3828 L 24.8945,-18.4934
 L 24.9677,-18.6053 L 25.0397,-18.7185 L 25.1107,-18.833 L 25.1807,-18.9488 L 25.2496,-19.0659 L 25.3174,-19.1843
 L 25.3841,-19.304 L 25.4498,-19.4251 L 25.5144,-19.5474 L 25.578,-19.671 L 25.6405,-19.7959 L 25.7019,-19.9221
 L 25.7623,-20.0496 L 25.8216,-20.1784 L 25.8799,-20.3085 L 25.9371,-20.44 L 25.9931,-20.5724 L 26.0479,-20.7057
 L 26.1015,-20.8397 L 26.1539,-20.9745 L 26.205,-21.1101 L 26.2549,-21.2464 L 26.3036,-21.3835 L 26.351,-21.5214
 L 26.3972,-21.6601 L 26.4422,-21.7996 L 26.4859,-21.9398 L 26.5284,-22.0808 L 26.5696,-22.2226 L 26.6097,-22.3652
 L 26.6485,-22.5086 L 26.6861,-22.6527 L 26.7224,-22.7976 L 26.7575,-22.9433 L 26.7914,-23.0898 L 26.824,-23.237
 L 26.8555,-23.385 L 26.8856,-23.5338 L 26.9146,-23.6834 L 26.9423,-23.8337 L 26.9688,-23.9849 L 26.994,-24.1368
 L 27.0181,-24.2894 L 27.0408,-24.4429 L 27.0624,-24.5972 L 27.0827,-24.7522 L 27.1018,-24.908 L 27.1197,-25.0646
 L 27.1363,-25.2219 L 27.1517,-25.38 L 27.1659,-25.5389 L 27.1788,-25.6986 L 27.1905,-25.8591 L 27.201,-26.0203
 L 27.2102,-26.1824 L 27.2183,-26.3452 L 27.225,-26.5087 L 27.2306,-26.6731 L 27.2349,-26.8382 L 27.238,-27.0041
 L 27.2398,-27.1708 L 27.2404,-27.3383 L 27.2391,-27.5999 L 27.235,-27.859 L 27.2282,-28.1154 L 27.2187,-28.3693
 L 27.2065,-28.6205 L 27.1916,-28.8692 L 27.174,-29.1153 L 27.1536,-29.3588 L 27.1306,-29.5997 L 27.1048,-29.838
 L 27.0764,-30.0738 L 27.0452,-30.3069 L 27.0113,-30.5374 L 26.9747,-30.7654 L 26.9353,-30.9908 L 26.8933,-31.2136
 L 26.8485,-31.4338 L 26.8011,-31.6514 L 26.7509,-31.8664 L 26.698,-32.0788 L 26.6424,-32.2886 L 26.5841,-32.4959
 L 26.5231,-32.7005 L 26.4594,-32.9026 L 26.3929,-33.1021 L 26.3238,-33.2989 L 26.2519,-33.4932 L 26.1773,-33.6849
 L 26.1001,-33.8741 L 26.02,-34.0606 L 25.9373,-34.2445 L 25.8519,-34.4259 L 25.7638,-34.6046 L 25.6729,-34.7808
 L 25.5793,-34.9543 L 25.4831,-35.1253 L 25.3841,-35.2937 L 25.2824,-35.4595 L 25.178,-35.6228 L 25.0708,-35.7834
 L 24.961,-35.9414 L 24.8485,-36.0969 L 24.7332,-36.2497 L 24.6152,-36.4 L 24.4946,-36.5477 L 24.3712,-36.6927
 L 24.2453,-36.835 L 24.1171,-36.9741 L 23.9865,-37.1101 L 23.8537,-37.2429 L 23.7186,-37.3727 L 23.5811,-37.4992
 L 23.4413,-37.6227 L 23.2992,-37.7431 L 23.1548,-37.8603 L 23.0081,-37.9744 L 22.859,-38.0854 L 22.7077,-38.1932
 L 22.554,-38.2979 L 22.398,-38.3995 L 22.2397,-38.498 L 22.0791,-38.5933 L 21.9162,-38.6855 L 21.751,-38.7746
 L 21.5834,-38.8606 L 21.4135,-38.9434 L 21.2414,-39.0231 L 21.0669,-39.0997 L 20.89,-39.1732 L 20.7109,-39.2435
 L 20.5295,-39.3107 L 20.3457,-39.3748 L 20.1597,-39.4358 L 19.9713,-39.4936 L 19.7806,-39.5483 L 19.5876,-39.5999
 L 19.3923,-39.6483 L 19.1946,-39.6936 L 18.9946,-39.7359 L 18.7924,-39.7749 L 18.5878,-39.8109 L 18.3809,-39.8437
 L 18.1717,-39.8734 L 17.9602,-39.9 L 17.7463,-39.9234 L 17.5302,-39.9437 L 17.3117,-39.9609 L 17.0909,-39.975
 L 16.8678,-39.9859 L 16.6424,-39.9937 L 16.4147,-39.9984 L 16.1846,-40 L 2.87947,-40 L 2.87947,-0
 L 9.08012,-0 z
M 9.08012,-20.525 L 9.08012,-33.499 L 15.491,-33.499 L 15.7278,-33.496 L 15.9594,-33.4871 L 16.1858,-33.4722
 L 16.407,-33.4513 L 16.623,-33.4245 L 16.8338,-33.3917 L 17.0395,-33.353 L 17.2399,-33.3083 L 17.435,-33.2577
 L 17.625,-33.2011 L 17.8098,-33.1386 L 17.9894,-33.0701 L 18.1638,-32.9956 L 18.3329,-32.9152 L 18.4969,-32.8288
 L 18.6556,-32.7365 L 18.8092,-32.6382 L 18.9575,-32.5339 L 19.1007,-32.4237 L 19.2386,-32.3075 L 19.3713,-32.1854
 L 19.4989,-32.0573 L 19.6212,-31.9233 L 19.7383,-31.7833 L 19.8502,-31.6374 L 19.9569,-31.4855 L 20.0584,-31.3276
 L 20.1547,-31.1638 L 20.2458,-30.994 L 20.3317,-30.8183 L 20.4123,-30.6366 L 20.4878,-30.4489 L 20.5581,-30.2553
 L 20.6232,-30.0558 L 20.683,-29.8503 L 20.7377,-29.6388 L 20.7871,-29.4213 L 20.8314,-29.198 L 20.8704,-28.9686
 L 20.9042,-28.7333 L 20.9329,-28.492 L 20.9563,-28.2448 L 20.9745,-27.9916 L 20.9875,-27.7325 L 20.9953,-27.4674
 L 20.9979,-27.1964 L 20.9973,-27.0564 L 20.9953,-26.9178 L 20.992,-26.7807 L 20.9874,-26.6451 L 20.9815,-26.5108
 L 20.9743,-26.378 L 20.9658,-26.2466 L 20.956,-26.1167 L 20.9448,-25.9882 L 20.9324,-25.8611 L 20.9186,-25.7355
 L 20.9035,-25.6113 L 20.8871,-25.4886 L 20.8694,-25.3672 L 20.8504,-25.2473 L 20.8301,-25.1289 L 20.8084,-25.0119
 L 20.7855,-24.8963 L 20.7612,-24.7822 L 20.7357,-24.6694 L 20.7088,-24.5582 L 20.6806,-24.4483 L 20.6511,-24.3399
 L 20.6203,-24.2329 L 20.5881,-24.1274 L 20.5547,-24.0233 L 20.52,-23.9206 L 20.4839,-23.8194 L 20.4465,-23.7196
 L 20.4078,-23.6212 L 20.3678,-23.5243 L 20.3265,-23.4288 L 20.2839,-23.3348 L 20.24,-23.2421 L 20.1947,-23.1509
 L 20.1482,-23.0612 L 20.1003,-22.9729 L 20.0512,-22.886 L 20.0007,-22.8006 L 19.9489,-22.7166 L 19.8958,-22.634
 L 19.8414,-22.5528 L 19.7856,-22.4731 L 19.7286,-22.3949 L 19.6702,-22.318 L 19.6105,-22.2426 L 19.5497,-22.1688
 L 19.4877,-22.0965 L 19.4246,-22.0259 L 19.3604,-21.9569 L 19.2951,-21.8895 L 19.2286,-21.8238 L 19.1611,-21.7596
 L 19.0924,-21.6971 L 19.0226,-21.6362 L 18.9517,-21.577 L 18.8797,-21.5194 L 18.8066,-21.4633 L 18.7324,-21.409
 L 18.6571,-21.3562 L 18.5806,-21.3051 L 18.5031,-21.2555 L 18.4244,-21.2077 L 18.3446,-21.1614 L 18.2637,-21.1167
 L 18.1817,-21.0737 L 18.0986,-21.0323 L 18.0143,-20.9925 L 17.929,-20.9544 L 17.8425,-20.9178 L 17.7549,-20.8829
 L 17.6663,-20.8497 L 17.5765,-20.818 L 17.4855,-20.788 L 17.3935,-20.7596 L 17.3004,-20.7328 L 17.2061,-20.7076
 L 17.1108,-20.6841 L 17.0143,-20.6621 L 16.9167,-20.6419 L 16.818,-20.6232 L 16.7182,-20.6061 L 16.6173,-20.5907
 L 16.5153,-20.5769 L 16.4121,-20.5647 L 16.3079,-20.5542 L 16.2025,-20.5453 L 16.096,-20.5379 L 15.9884,-20.5323
 L 15.8797,-20.5282 L 15.7699,-20.5258 L 15.6589,-20.525 z
M 53.011,-6.47253 L 37.1208,-6.47253 L 37.1208,-40 L 30.9202,-40 L 30.9202,-0 L 53.011,-0
 z
M 67.328,-16.4089 L 77.8795,-40 L 71.3847,-40 L 64.1962,-23.0803 L 57.092,-40 L 50.5969,-40
 L 61.1484,-16.4089 L 61.1484,-0 L 67.328,-0 z
" stroke="black" fill="black" stroke-width="0.5"/>
</svg>
