<?xml version="1.0" standalone="no"?>
<!DOCTYPE svg PUBLIC "-//W3C//DTD SVG 1.1//EN" "http://www.w3.org/Graphics/SVG/1.1/DTD/svg11.dtd">
<svg width="100mm" height="100mm" viewBox="-8 -108 116 116" xmlns="http://www.w3.org/2000/svg" version="1.1">
<title>OpenSCAD Model</title>
<path d="
M 84.1993,-0.00497437 L 84.3984,-0.0149078 L 84.5973,-0.0298004 L 84.7955,-0.0546417 L 84.9926,-0.0843658 L 85.1891,-0.119003
 L 85.3832,-0.163315 L 85.5764,-0.212509 L 85.7684,-0.266525 L 85.9575,-0.330063 L 86.1449,-0.398254 L 86.3306,-0.471115
 L 86.5125,-0.553223 L 86.6922,-0.63974 L 86.8696,-0.730728 L 87.0423,-0.830399 L 87.2124,-0.934357 L 87.3799,-1.04256
 L 87.5419,-1.15901 L 87.7008,-1.2794 L 87.8568,-1.40376 L 88.0063,-1.53571 L 88.1524,-1.67133 L 88.2952,-1.81058
 L 88.4308,-1.95677 L 88.5628,-2.10626 L 88.691,-2.25905 L 88.8113,-2.41792 L 88.9277,-2.5798 L 89.0401,-2.74458
 L 89.1443,-2.9151 L 89.244,-3.08778 L 89.3393,-3.26295 L 89.4258,-3.44243 L 89.5078,-3.62416 L 89.5852,-3.80795
 L 89.6534,-3.99522 L 89.7169,-4.18422 L 89.7757,-4.3748 L 89.825,-4.56818 L 89.8693,-4.76257 L 89.9088,-4.95807
 L 89.9386,-5.15555 L 89.9634,-5.35338 L 89.9832,-5.55183 L 89.9916,-5.70078 L 89.9972,-5.85023 L 90,-6
 L 90,-94 L 89.995,-94.1993 L 89.9851,-94.3984 L 89.9702,-94.5973 L 89.9454,-94.7955 L 89.9156,-94.9926
 L 89.881,-95.1891 L 89.8367,-95.3832 L 89.7875,-95.5764 L 89.7335,-95.7684 L 89.6699,-95.9575 L 89.6017,-96.1449
 L 89.5289,-96.3306 L 89.4468,-96.5125 L 89.3603,-96.6922 L 89.2693,-96.8696 L 89.1696,-97.0423 L 89.0656,-97.2124
 L 88.9574,-97.3799 L 88.841,-97.5419 L 88.7206,-97.7008 L 88.5962,-97.8568 L 88.4643,-98.0063 L 88.3287,-98.1524
 L 88.1894,-98.2952 L 88.0432,-98.4308 L 87.8937,-98.5628 L 87.741,-98.691 L 87.5821,-98.8113 L 87.4202,-98.9277
 L 87.2554,-99.0401 L 87.0849,-99.1443 L 86.9122,-99.244 L 86.737,-99.3393 L 86.5576,-99.4258 L 86.3758,-99.5078
 L 86.192,-99.5852 L 86.0048,-99.6534 L 85.8158,-99.7169 L 85.6252,-99.7757 L 85.4318,-99.825 L 85.2374,-99.8693
 L 85.0419,-99.9088 L 84.8445,-99.9386 L 84.6466,-99.9634 L 84.4482,-99.9832 L 84.2992,-99.9916 L 84.1498,-99.9972
 L 84,-100 L 36,-100 L 10,-74 L 10,-50 L 14,-50 L 14,-70
 L 34,-70 L 34.1993,-70.005 L 34.3984,-70.0149 L 34.5973,-70.0298 L 34.7955,-70.0546 L 34.9926,-70.0844
 L 35.1891,-70.119 L 35.3832,-70.1633 L 35.5764,-70.2125 L 35.7684,-70.2665 L 35.9575,-70.3301 L 36.1449,-70.3983
 L 36.3306,-70.4711 L 36.5125,-70.5532 L 36.6922,-70.6397 L 36.8696,-70.7307 L 37.0423,-70.8304 L 37.2124,-70.9344
 L 37.3799,-71.0426 L 37.5419,-71.159 L 37.7008,-71.2794 L 37.8568,-71.4038 L 38.0063,-71.5357 L 38.1524,-71.6713
 L 38.2952,-71.8106 L 38.4308,-71.9568 L 38.5628,-72.1063 L 38.691,-72.259 L 38.8113,-72.4179 L 38.9277,-72.5798
 L 39.0401,-72.7446 L 39.1443,-72.9151 L 39.244,-73.0878 L 39.3393,-73.263 L 39.4258,-73.4424 L 39.5078,-73.6242
 L 39.5852,-73.808 L 39.6534,-73.9952 L 39.7169,-74.1842 L 39.7757,-74.3748 L 39.825,-74.5682 L 39.8693,-74.7626
 L 39.9088,-74.9581 L 39.9386,-75.1555 L 39.9634,-75.3534 L 39.9832,-75.5518 L 39.9916,-75.7008 L 39.9972,-75.8502
 L 40,-76 L 40,-96 L 84,-96 L 84.1495,-95.9944 L 84.3473,-95.9696 L 84.5417,-95.9252
 L 84.7307,-95.8617 L 84.9124,-95.7797 L 85.0851,-95.6801 L 85.247,-95.5637 L 85.3965,-95.4317 L 85.5321,-95.2856
 L 85.6525,-95.1266 L 85.7564,-94.9565 L 85.843,-94.7769 L 85.9111,-94.5895 L 85.9603,-94.3963 L 85.9901,-94.1991
 L 86,-94 L 86,-6 L 85.9944,-5.85054 L 85.9696,-5.65271 L 85.9252,-5.45831 L 85.8617,-5.26932
 L 85.7797,-5.08759 L 85.6801,-4.9149 L 85.5637,-4.75302 L 85.4317,-4.60353 L 85.2856,-4.46791 L 85.1266,-4.34752
 L 84.9565,-4.24356 L 84.7769,-4.15704 L 84.5895,-4.08885 L 84.3963,-4.03966 L 84.1991,-4.00993 L 84,-4
 L 80,-4 L 80,-0 L 84,-0 z
M 10.7333,0.530716 L 10.9584,0.526413 L 11.1814,0.519241 L 11.4021,0.509216 L 11.6207,0.496307 L 11.8371,0.480545
 L 12.0513,0.461914 L 12.2633,0.440399 L 12.4732,0.416016 L 12.6809,0.388794 L 12.8864,0.358688 L 13.0897,0.325699
 L 13.2908,0.289856 L 13.4898,0.251144 L 13.6866,0.209579 L 13.8812,0.165131 L 14.0736,0.117813 L 14.2638,0.0676422
 L 14.4519,0.0145874 L 14.6378,-0.0412903 L 14.8215,-0.100067 L 15.003,-0.161728 L 15.1824,-0.226242 L 15.3595,-0.293625
 L 15.5345,-0.363861 L 15.7073,-0.436981 L 15.878,-0.51297 L 16.0464,-0.591827 L 16.2127,-0.673553 L 16.3768,-0.758148
 L 16.5387,-0.845581 L 16.6984,-0.935913 L 16.856,-1.0291 L 17.0113,-1.12515 L 17.1645,-1.22409 L 17.3155,-1.32587
 L 17.4644,-1.43054 L 17.611,-1.53806 L 17.7555,-1.64845 L 17.8978,-1.76172 L 18.0379,-1.87785 L 18.1758,-1.99684
 L 18.3116,-2.11871 L 18.4452,-2.24345 L 18.5766,-2.37105 L 18.7058,-2.50151 L 18.8326,-2.63448 L 18.9565,-2.76956
 L 19.0777,-2.90677 L 19.1961,-3.04608 L 19.3117,-3.18752 L 19.4245,-3.33104 L 19.5345,-3.47668 L 19.6418,-3.62445
 L 19.7463,-3.77432 L 19.8479,-3.92632 L 19.9468,-4.08043 L 20.0429,-4.23663 L 20.1362,-4.39497 L 20.2268,-4.5554
 L 20.3145,-4.71796 L 20.3995,-4.88261 L 20.4817,-5.04939 L 20.5611,-5.21831 L 20.6377,-5.3893 L 20.7115,-5.56242
 L 20.7825,-5.73764 L 20.8508,-5.91499 L 20.9162,-6.09445 L 20.9789,-6.27602 L 21.0388,-6.4597 L 21.0959,-6.64549
 L 21.1503,-6.8334 L 21.2018,-7.02342 L 21.2505,-7.21556 L 21.2965,-7.40981 L 21.3397,-7.60617 L 21.3801,-7.80464
 L 21.4177,-8.00522 L 21.4525,-8.20793 L 21.4845,-8.41273 L 21.5138,-8.61966 L 21.5402,-8.8287 L 21.5639,-9.03984
 L 21.5848,-9.25311 L 21.6029,-9.46849 L 21.6182,-9.68597 L 21.6308,-9.90558 L 21.6405,-10.1273 L 21.6475,-10.3511
 L 21.6517,-10.5771 L 21.6531,-10.8051 L 21.6523,-10.97 L 21.6501,-11.1338 L 21.6464,-11.2965 L 21.6412,-11.458
 L 21.6345,-11.6184 L 21.6263,-11.7778 L 21.6167,-11.9359 L 21.6055,-12.093 L 21.5929,-12.2489 L 21.5788,-12.4038
 L 21.5632,-12.5575 L 21.5461,-12.7101 L 21.5275,-12.8615 L 21.5075,-13.0119 L 21.4859,-13.1611 L 21.4629,-13.3092
 L 21.4384,-13.4562 L 21.4124,-13.6021 L 21.3849,-13.7468 L 21.3559,-13.8905 L 21.3255,-14.033 L 21.2935,-14.1744
 L 21.2601,-14.3147 L 21.2252,-14.4538 L 21.1888,-14.5919 L 21.1509,-14.7288 L 21.1115,-14.8646 L 21.0707,-14.9993
 L 21.0283,-15.1328 L 20.9845,-15.2652 L 20.9392,-15.3965 L 20.8924,-15.5267 L 20.8441,-15.6558 L 20.7943,-15.7838
 L 20.7431,-15.9106 L 20.6904,-16.0363 L 20.6361,-16.161 L 20.5804,-16.2844 L 20.5232,-16.4068 L 20.4645,-16.528
 L 20.4044,-16.6482 L 20.3427,-16.7672 L 20.2796,-16.8851 L 20.2149,-17.0018 L 20.1488,-17.1175 L 20.0812,-17.232
 L 20.0116,-17.346 L 19.9395,-17.4599 L 19.8649,-17.5739 L 19.7877,-17.6878 L 19.708,-17.8018 L 19.6258,-17.9157
 L 19.5411,-18.0296 L 19.4538,-18.1434 L 19.3641,-18.2573 L 19.2717,-18.3712 L 19.1769,-18.485 L 19.0796,-18.5989
 L 18.9797,-18.7127 L 18.8774,-18.8265 L 18.7725,-18.9403 L 18.6651,-19.0541 L 18.5551,-19.1679 L 18.4426,-19.2816
 L 18.3277,-19.3954 L 18.2101,-19.5091 L 18.0901,-19.6229 L 17.9676,-19.7366 L 17.8425,-19.8503 L 17.7149,-19.964
 L 17.5848,-20.0776 L 17.4521,-20.1913 L 17.317,-20.3049 L 17.1793,-20.4186 L 17.0391,-20.5322 L 16.8964,-20.6458
 L 16.7512,-20.7594 L 16.6034,-20.873 L 16.4531,-20.9866 L 16.3003,-21.1001 L 16.145,-21.2137 L 15.9871,-21.3272
 L 15.8268,-21.4407 L 15.6639,-21.5542 L 15.4985,-21.6677 L 15.3305,-21.7812 L 15.1601,-21.8947 L 14.9871,-22.0082
 L 14.8116,-22.1216 L 14.6336,-22.235 L 14.453,-22.3485 L 14.27,-22.4619 L 14.1317,-22.5469 L 13.9957,-22.6308
 L 13.8618,-22.7136 L 13.7302,-22.7952 L 13.6008,-22.8757 L 13.4737,-22.955 L 13.3487,-23.0332 L 13.226,-23.1102
 L 13.1055,-23.1861 L 12.9872,-23.2609 L 12.8711,-23.3345 L 12.7572,-23.407 L 12.6456,-23.4783 L 12.5362,-23.5484
 L 12.429,-23.6175 L 12.324,-23.6853 L 12.2212,-23.7521 L 12.1207,-23.8177 L 12.0223,-23.8821 L 11.9262,-23.9454
 L 11.8323,-24.0076 L 11.7406,-24.0686 L 11.6512,-24.1284 L 11.5639,-24.1872 L 11.4789,-24.2447 L 11.3961,-24.3012
 L 11.3155,-24.3565 L 11.2372,-24.4106 L 11.161,-24.4636 L 11.0871,-24.5155 L 11.0154,-24.5662 L 10.9459,-24.6157
 L 10.8786,-24.6642 L 10.8135,-24.7114 L 10.7507,-24.7576 L 10.6901,-24.8026 L 10.6317,-24.8464 L 10.5755,-24.8891
 L 10.5215,-24.9306 L 10.4698,-24.9711 L 10.4203,-25.0103 L 10.373,-25.0484 L 10.3279,-25.0854 L 10.285,-25.1212
 L 10.2443,-25.1559 L 10.2059,-25.1895 L 10.1688,-25.2225 L 10.1322,-25.2555 L 10.0959,-25.2886 L 10.0602,-25.3218
 L 10.0248,-25.355 L 9.98994,-25.3883 L 9.95547,-25.4216 L 9.92146,-25.4549 L 9.88789,-25.4883 L 9.85475,-25.5218
 L 9.82205,-25.5553 L 9.78981,-25.5889 L 9.75798,-25.6225 L 9.72661,-25.6561 L 9.69566,-25.6898 L 9.66518,-25.7236
 L 9.63512,-25.7574 L 9.60548,-25.7913 L 9.57629,-25.8252 L 9.54756,-25.8591 L 9.51926,-25.8931 L 9.49139,-25.9272
 L 9.46397,-25.9613 L 9.437,-25.9955 L 9.41045,-26.0297 L 9.38435,-26.0639 L 9.35869,-26.0983 L 9.33347,-26.1326
 L 9.30867,-26.167 L 9.28433,-26.2015 L 9.26044,-26.236 L 9.23697,-26.2706 L 9.21393,-26.3052 L 9.19135,-26.3398
 L 9.1692,-26.3746 L 9.14749,-26.4093 L 9.12622,-26.4441 L 9.10539,-26.479 L 9.08501,-26.5139 L 9.06506,-26.5488
 L 9.04556,-26.5839 L 9.02649,-26.6189 L 9.00784,-26.654 L 8.98967,-26.6892 L 8.97191,-26.7244 L 8.95461,-26.7597
 L 8.93771,-26.7951 L 8.92119,-26.8308 L 8.90503,-26.8668 L 8.88925,-26.903 L 8.87386,-26.9395 L 8.85881,-26.9762
 L 8.84415,-27.0133 L 8.82985,-27.0505 L 8.81593,-27.0881 L 8.80237,-27.1259 L 8.7892,-27.164 L 8.77638,-27.2023
 L 8.76395,-27.2409 L 8.75188,-27.2798 L 8.74019,-27.3189 L 8.72887,-27.3583 L 8.71791,-27.398 L 8.70734,-27.4379
 L 8.69713,-27.4781 L 8.68729,-27.5185 L 8.67781,-27.5592 L 8.66873,-27.6002 L 8.66,-27.6414 L 8.65164,-27.6829
 L 8.64366,-27.7247 L 8.63605,-27.7667 L 8.62881,-27.809 L 8.62195,-27.8516 L 8.61545,-27.8944 L 8.60931,-27.9375
 L 8.60356,-27.9808 L 8.59818,-28.0244 L 8.59317,-28.0683 L 8.58852,-28.1125 L 8.58426,-28.1569 L 8.58035,-28.2015
 L 8.57683,-28.2465 L 8.57368,-28.2917 L 8.57089,-28.3371 L 8.56848,-28.3828 L 8.56644,-28.4288 L 8.56476,-28.4751
 L 8.56346,-28.5216 L 8.56253,-28.5684 L 8.56198,-28.6154 L 8.5618,-28.6627 L 8.56226,-28.7388 L 8.56363,-28.8142
 L 8.56593,-28.889 L 8.56914,-28.9632 L 8.57329,-29.0367 L 8.57832,-29.1096 L 8.5843,-29.1819 L 8.59119,-29.2536
 L 8.599,-29.3246 L 8.60773,-29.395 L 8.61737,-29.4648 L 8.62793,-29.5339 L 8.63942,-29.6024 L 8.65182,-29.6703
 L 8.66515,-29.7376 L 8.67938,-29.8042 L 8.69453,-29.8702 L 8.71062,-29.9355 L 8.72762,-30.0003 L 8.74553,-30.0644
 L 8.76436,-30.1279 L 8.7841,-30.1907 L 8.80478,-30.2529 L 8.82637,-30.3145 L 8.84888,-30.3755 L 8.8723,-30.4358
 L 8.89664,-30.4955 L 8.92191,-30.5546 L 8.94809,-30.6131 L 8.97519,-30.6709 L 9.0032,-30.728 L 9.03215,-30.7846
 L 9.06201,-30.8405 L 9.09279,-30.8958 L 9.12448,-30.9505 L 9.15709,-31.0045 L 9.19061,-31.058 L 9.22508,-31.1107
 L 9.26044,-31.1629 L 9.29672,-31.2144 L 9.33394,-31.2653 L 9.37206,-31.3156 L 9.4111,-31.3652 L 9.45107,-31.4142
 L 9.49194,-31.4626 L 9.53374,-31.5104 L 9.57642,-31.5573 L 9.61989,-31.6032 L 9.66415,-31.648 L 9.70924,-31.6919
 L 9.75511,-31.7346 L 9.8018,-31.7764 L 9.84927,-31.8172 L 9.89755,-31.8569 L 9.94662,-31.8955 L 9.99651,-31.9332
 L 10.0472,-31.9698 L 10.0987,-32.0054 L 10.151,-32.0399 L 10.2041,-32.0734 L 10.2579,-32.1059 L 10.3126,-32.1373
 L 10.3681,-32.1678 L 10.4244,-32.1972 L 10.4815,-32.2255 L 10.5394,-32.2529 L 10.5981,-32.2791 L 10.6576,-32.3044
 L 10.7179,-32.3286 L 10.779,-32.3519 L 10.8409,-32.374 L 10.9036,-32.3952 L 10.9671,-32.4153 L 11.0314,-32.4343
 L 11.0965,-32.4524 L 11.1624,-32.4694 L 11.2291,-32.4854 L 11.2966,-32.5003 L 11.3649,-32.5143 L 11.434,-32.5271
 L 11.5039,-32.539 L 11.5746,-32.5499 L 11.6461,-32.5596 L 11.7184,-32.5684 L 11.7915,-32.5761 L 11.8655,-32.5828
 L 11.9402,-32.5885 L 12.0157,-32.5932 L 12.092,-32.5968 L 12.1691,-32.5993 L 12.247,-32.6009 L 12.3258,-32.6014
 L 12.3923,-32.6012 L 12.4589,-32.6004 L 12.5256,-32.5992 L 12.5923,-32.5976 L 12.6591,-32.5954 L 12.7259,-32.5928
 L 12.7927,-32.5897 L 12.8596,-32.5861 L 12.9266,-32.582 L 12.9936,-32.5775 L 13.0606,-32.5725 L 13.1277,-32.567
 L 13.1949,-32.561 L 13.2621,-32.5546 L 13.3293,-32.5476 L 13.3966,-32.5402 L 13.464,-32.5323 L 13.5314,-32.5239
 L 13.5988,-32.5151 L 13.6663,-32.5058 L 13.7339,-32.496 L 13.8015,-32.4857 L 13.8691,-32.4749 L 13.9368,-32.4637
 L 14.0045,-32.452 L 14.0723,-32.4398 L 14.1401,-32.4271 L 14.208,-32.414 L 14.276,-32.4003 L 14.3439,-32.3862
 L 14.412,-32.3717 L 14.48,-32.3566 L 14.5482,-32.341 L 14.6163,-32.325 L 14.6846,-32.3085 L 14.7529,-32.2916
 L 14.8212,-32.2741 L 14.8896,-32.2562 L 14.958,-32.2378 L 15.0265,-32.2189 L 15.095,-32.1995 L 15.1635,-32.1797
 L 15.2322,-32.1593 L 15.3008,-32.1386 L 15.3696,-32.1173 L 15.4383,-32.0955 L 15.5075,-32.0732 L 15.5775,-32.0501
 L 15.6483,-32.0263 L 15.7198,-32.0018 L 15.7922,-31.9765 L 15.8653,-31.9505 L 15.9393,-31.9238 L 16.014,-31.8964
 L 16.0895,-31.8682 L 16.1658,-31.8393 L 16.2429,-31.8096 L 16.3208,-31.7793 L 16.3995,-31.7482 L 16.479,-31.7163
 L 16.5592,-31.6838 L 16.6403,-31.6505 L 16.7222,-31.6165 L 16.8048,-31.5817 L 16.8882,-31.5462 L 16.9725,-31.51
 L 17.0575,-31.4731 L 17.1433,-31.4354 L 17.2299,-31.397 L 17.3173,-31.3579 L 17.4055,-31.3181 L 17.4944,-31.2775
 L 17.5842,-31.2362 L 17.6748,-31.1941 L 17.7661,-31.1514 L 17.8583,-31.1079 L 17.9512,-31.0636 L 18.0449,-31.0187
 L 18.1394,-30.973 L 18.2347,-30.9265 L 18.3308,-30.8794 L 18.4277,-30.8315 L 18.5254,-30.7829 L 18.6239,-30.7336
 L 18.7231,-30.6835 L 18.8232,-30.6327 L 18.9241,-30.5812 L 19.0257,-30.5289 L 19.1281,-30.4759 L 19.2314,-30.4222
 L 19.3354,-30.3678 L 19.4402,-30.3126 L 21.5082,-36.7265 L 21.4067,-36.7829 L 21.3053,-36.8388 L 21.2042,-36.8941
 L 21.1032,-36.9489 L 21.0025,-37.0031 L 20.9019,-37.0568 L 20.8015,-37.1099 L 20.7013,-37.1624 L 20.6012,-37.2144
 L 20.5014,-37.2659 L 20.4017,-37.3167 L 20.3022,-37.3671 L 20.203,-37.4169 L 20.1039,-37.4661 L 20.0049,-37.5148
 L 19.9062,-37.5629 L 19.8077,-37.6105 L 19.7093,-37.6575 L 19.6111,-37.7039 L 19.5131,-37.7499 L 19.4153,-37.7952
 L 19.3177,-37.84 L 19.2203,-37.8843 L 19.123,-37.9279 L 19.026,-37.9711 L 18.9291,-38.0137 L 18.8324,-38.0557
 L 18.7359,-38.0972 L 18.6396,-38.1381 L 18.5435,-38.1785 L 18.4475,-38.2183 L 18.3517,-38.2576 L 18.2562,-38.2963
 L 18.1608,-38.3345 L 18.0656,-38.3721 L 17.9706,-38.4091 L 17.8757,-38.4456 L 17.7811,-38.4816 L 17.6866,-38.517
 L 17.5923,-38.5518 L 17.4982,-38.5861 L 17.4044,-38.6198 L 17.3106,-38.653 L 17.2171,-38.6857 L 17.1237,-38.7177
 L 17.0306,-38.7492 L 16.9374,-38.7801 L 16.8441,-38.8104 L 16.7505,-38.8399 L 16.6567,-38.8688 L 16.5627,-38.897
 L 16.4685,-38.9245 L 16.3742,-38.9513 L 16.2796,-38.9774 L 16.1848,-39.0029 L 16.0898,-39.0277 L 15.9945,-39.0518
 L 15.8991,-39.0753 L 15.8035,-39.098 L 15.7077,-39.1201 L 15.6116,-39.1415 L 15.5154,-39.1622 L 15.4189,-39.1822
 L 15.3223,-39.2016 L 15.2254,-39.2203 L 15.1284,-39.2383 L 15.0311,-39.2556 L 14.9336,-39.2722 L 14.8359,-39.2882
 L 14.738,-39.3035 L 14.6399,-39.3181 L 14.5417,-39.332 L 14.4431,-39.3452 L 14.3444,-39.3578 L 14.2455,-39.3697
 L 14.1464,-39.3809 L 14.0471,-39.3914 L 13.9475,-39.4013 L 13.8478,-39.4104 L 13.7479,-39.4189 L 13.6477,-39.4267
 L 13.5474,-39.4339 L 13.4468,-39.4403 L 13.346,-39.4461 L 13.2451,-39.4512 L 13.1439,-39.4556 L 13.0425,-39.4593
 L 12.9409,-39.4624 L 12.8391,-39.4648 L 12.7372,-39.4665 L 12.6349,-39.4675 L 12.5325,-39.4678 L 12.3249,-39.4664
 L 12.1193,-39.4622 L 11.9156,-39.4553 L 11.7139,-39.4455 L 11.5141,-39.4329 L 11.3163,-39.4176 L 11.1205,-39.3994
 L 10.9266,-39.3785 L 10.7347,-39.3548 L 10.5447,-39.3282 L 10.3568,-39.2989 L 10.1707,-39.2668 L 9.98669,-39.2319
 L 9.80461,-39.1942 L 9.62448,-39.1537 L 9.44633,-39.1104 L 9.27014,-39.0644 L 9.0959,-39.0155 L 8.92365,-38.9639
 L 8.75336,-38.9094 L 8.58501,-38.8522 L 8.41864,-38.7921 L 8.25423,-38.7293 L 8.09178,-38.6637 L 7.9313,-38.5953
 L 7.7728,-38.5241 L 7.61624,-38.4501 L 7.46165,-38.3733 L 7.30902,-38.2938 L 7.15837,-38.2114 L 7.00967,-38.1262
 L 6.86295,-38.0383 L 6.71819,-37.9475 L 6.57538,-37.854 L 6.43454,-37.7577 L 6.29567,-37.6586 L 6.15875,-37.5566
 L 6.02382,-37.452 L 5.89084,-37.3444 L 5.75981,-37.2342 L 5.63075,-37.1211 L 5.50368,-37.0052 L 5.37856,-36.8866
 L 5.25539,-36.7651 L 5.1342,-36.6409 L 5.01495,-36.5138 L 4.89801,-36.3843 L 4.78363,-36.2527 L 4.67181,-36.1191
 L 4.56258,-35.9834 L 4.4559,-35.8455 L 4.35181,-35.7056 L 4.25027,-35.5636 L 4.15131,-35.4195 L 4.05493,-35.2733
 L 3.96111,-35.125 L 3.86987,-34.9747 L 3.78119,-34.8222 L 3.69508,-34.6677 L 3.61154,-34.5111 L 3.53058,-34.3524
 L 3.45218,-34.1916 L 3.37636,-34.0287 L 3.3031,-33.8637 L 3.23242,-33.6966 L 3.16431,-33.5275 L 3.09875,-33.3562
 L 3.03578,-33.1829 L 2.97539,-33.0075 L 2.91756,-32.83 L 2.86227,-32.6504 L 2.80959,-32.4687 L 2.75948,-32.2849
 L 2.71191,-32.0991 L 2.66693,-31.9111 L 2.62453,-31.7211 L 2.58469,-31.529 L 2.54741,-31.3348 L 2.51271,-31.1385
 L 2.48059,-30.9401 L 2.45102,-30.7396 L 2.42403,-30.5371 L 2.39961,-30.3324 L 2.37776,-30.1257 L 2.35849,-29.9169
 L 2.34178,-29.7059 L 2.32765,-29.4929 L 2.31609,-29.2778 L 2.30708,-29.0607 L 2.30066,-28.8414 L 2.2968,-28.6201
 L 2.29552,-28.3966 L 2.29591,-28.2778 L 2.29709,-28.1595 L 2.29904,-28.042 L 2.30177,-27.9251 L 2.30528,-27.8089
 L 2.30959,-27.6933 L 2.31468,-27.5783 L 2.32054,-27.464 L 2.32718,-27.3504 L 2.33461,-27.2374 L 2.34282,-27.1251
 L 2.35179,-27.0134 L 2.36157,-26.9024 L 2.37213,-26.7921 L 2.38347,-26.6824 L 2.39557,-26.5733 L 2.40848,-26.4649
 L 2.42216,-26.3572 L 2.43661,-26.2501 L 2.45187,-26.1437 L 2.4679,-26.0379 L 2.4847,-25.9327 L 2.50229,-25.8283
 L 2.52066,-25.7245 L 2.53981,-25.6213 L 2.55975,-25.5188 L 2.58046,-25.4169 L 2.60196,-25.3157 L 2.62424,-25.2152
 L 2.64731,-25.1153 L 2.67114,-25.016 L 2.69577,-24.9174 L 2.72118,-24.8195 L 2.74738,-24.7222 L 2.77434,-24.6256
 L 2.80208,-24.5296 L 2.83063,-24.4343 L 2.85994,-24.3397 L 2.89003,-24.2456 L 2.92091,-24.1523 L 2.95258,-24.0596
 L 2.98502,-23.9675 L 3.01823,-23.8761 L 3.05225,-23.7854 L 3.08704,-23.6953 L 3.1226,-23.6059 L 3.15884,-23.517
 L 3.1956,-23.4287 L 3.23289,-23.3408 L 3.27072,-23.2534 L 3.30907,-23.1664 L 3.34795,-23.08 L 3.38734,-22.994
 L 3.42728,-22.9085 L 3.46773,-22.8235 L 3.50871,-22.7389 L 3.55023,-22.6548 L 3.59227,-22.5712 L 3.63483,-22.4881
 L 3.67793,-22.4055 L 3.72154,-22.3233 L 3.7657,-22.2416 L 3.81038,-22.1604 L 3.85558,-22.0797 L 3.90132,-21.9995
 L 3.94757,-21.9197 L 3.99435,-21.8404 L 4.04167,-21.7616 L 4.08951,-21.6832 L 4.13789,-21.6054 L 4.18678,-21.528
 L 4.23622,-21.4511 L 4.28616,-21.3747 L 4.33664,-21.2987 L 4.38765,-21.2233 L 4.43919,-21.1483 L 4.49126,-21.0737
 L 4.54384,-20.9997 L 4.59695,-20.9261 L 4.6506,-20.8531 L 4.70477,-20.7805 L 4.75948,-20.7083 L 4.81471,-20.6367
 L 4.87045,-20.5655 L 4.92674,-20.4948 L 4.98355,-20.4246 L 5.04089,-20.3549 L 5.09875,-20.2856 L 5.15715,-20.2168
 L 5.21606,-20.1485 L 5.27551,-20.0807 L 5.33548,-20.0133 L 5.39639,-19.9462 L 5.45862,-19.8789 L 5.52214,-19.8114
 L 5.58698,-19.7439 L 5.65312,-19.6762 L 5.72057,-19.6084 L 5.78934,-19.5405 L 5.85941,-19.4724 L 5.9308,-19.4043
 L 6.00348,-19.3359 L 6.07748,-19.2675 L 6.1528,-19.199 L 6.22942,-19.1303 L 6.30734,-19.0615 L 6.3866,-18.9925
 L 6.46713,-18.9235 L 6.549,-18.8543 L 6.63217,-18.785 L 6.71664,-18.7155 L 6.80243,-18.646 L 6.88954,-18.5763
 L 6.97794,-18.5065 L 7.06766,-18.4365 L 7.15868,-18.3665 L 7.25102,-18.2963 L 7.34467,-18.226 L 7.43962,-18.1555
 L 7.53589,-18.085 L 7.63345,-18.0143 L 7.73235,-17.9434 L 7.83253,-17.8725 L 7.93404,-17.8014 L 8.03685,-17.7302
 L 8.14098,-17.6589 L 8.2464,-17.5875 L 8.35313,-17.5159 L 8.4612,-17.4442 L 8.57054,-17.3724 L 8.68121,-17.3004
 L 8.7932,-17.2283 L 8.90648,-17.1561 L 9.02109,-17.0838 L 9.13699,-17.0113 L 9.25421,-16.9388 L 9.37273,-16.8661
 L 9.49257,-16.7932 L 9.62021,-16.715 L 9.74596,-16.6377 L 9.86983,-16.5613 L 9.99181,-16.4859 L 10.1119,-16.4114
 L 10.2301,-16.3378 L 10.3464,-16.2652 L 10.4608,-16.1935 L 10.5734,-16.1227 L 10.6841,-16.0528 L 10.7928,-15.9839
 L 10.8997,-15.9159 L 11.0047,-15.8489 L 11.1078,-15.7827 L 11.209,-15.7175 L 11.3084,-15.6533 L 11.4058,-15.5899
 L 11.5014,-15.5275 L 11.5951,-15.4661 L 11.6869,-15.4055 L 11.7768,-15.3459 L 11.8648,-15.2872 L 11.951,-15.2295
 L 12.0352,-15.1727 L 12.1176,-15.1168 L 12.198,-15.0618 L 12.2766,-15.0078 L 12.3533,-14.9547 L 12.4282,-14.9026
 L 12.5011,-14.8513 L 12.5721,-14.801 L 12.6413,-14.7517 L 12.7086,-14.7032 L 12.774,-14.6557 L 12.8375,-14.6091
 L 12.8991,-14.5635 L 12.9588,-14.5188 L 13.0166,-14.475 L 13.0726,-14.4321 L 13.1267,-14.3902 L 13.1788,-14.3492
 L 13.2291,-14.3092 L 13.2776,-14.2701 L 13.3241,-14.2319 L 13.3687,-14.1946 L 13.4115,-14.1583 L 13.4531,-14.1224
 L 13.4942,-14.0864 L 13.535,-14.0504 L 13.5752,-14.0143 L 13.6151,-13.9781 L 13.6545,-13.9419 L 13.6934,-13.9057
 L 13.732,-13.8693 L 13.77,-13.8329 L 13.8077,-13.7964 L 13.8449,-13.7599 L 13.8816,-13.7233 L 13.918,-13.6867
 L 13.9538,-13.6499 L 13.9893,-13.6132 L 14.0243,-13.5763 L 14.0588,-13.5394 L 14.0929,-13.5024 L 14.1266,-13.4654
 L 14.1599,-13.4283 L 14.1927,-13.3911 L 14.225,-13.3539 L 14.2569,-13.3166 L 14.2884,-13.2793 L 14.3194,-13.2419
 L 14.35,-13.2044 L 14.3802,-13.1669 L 14.4099,-13.1293 L 14.4392,-13.0916 L 14.468,-13.0539 L 14.4964,-13.0161
 L 14.5244,-12.9782 L 14.5519,-12.9403 L 14.579,-12.9023 L 14.6056,-12.8643 L 14.6318,-12.8262 L 14.6576,-12.788
 L 14.6829,-12.7498 L 14.7077,-12.7115 L 14.7322,-12.6731 L 14.7562,-12.6347 L 14.7797,-12.5962 L 14.8029,-12.5577
 L 14.8255,-12.5191 L 14.8478,-12.4804 L 14.8696,-12.4417 L 14.8909,-12.4028 L 14.9118,-12.3637 L 14.9322,-12.3243
 L 14.9521,-12.2847 L 14.9716,-12.2449 L 14.9906,-12.2048 L 15.0092,-12.1645 L 15.0272,-12.124 L 15.0448,-12.0832
 L 15.062,-12.0422 L 15.0786,-12.0009 L 15.0948,-11.9594 L 15.1105,-11.9177 L 15.1258,-11.8757 L 15.1406,-11.8335
 L 15.1549,-11.791 L 15.1687,-11.7483 L 15.1821,-11.7054 L 15.195,-11.6622 L 15.2074,-11.6188 L 15.2194,-11.5751
 L 15.2309,-11.5312 L 15.2419,-11.4871 L 15.2525,-11.4427 L 15.2626,-11.3981 L 15.2722,-11.3533 L 15.2813,-11.3082
 L 15.29,-11.2628 L 15.2982,-11.2173 L 15.306,-11.1715 L 15.3132,-11.1254 L 15.3201,-11.0791 L 15.3264,-11.0326
 L 15.3323,-10.9858 L 15.3377,-10.9388 L 15.3426,-10.8916 L 15.347,-10.8441 L 15.351,-10.7964 L 15.3546,-10.7484
 L 15.3576,-10.7002 L 15.3602,-10.6518 L 15.3623,-10.6031 L 15.3639,-10.5542 L 15.3651,-10.505 L 15.3658,-10.4556
 L 15.366,-10.406 L 15.3655,-10.3174 L 15.3639,-10.2297 L 15.3613,-10.143 L 15.3575,-10.0572 L 15.3527,-9.9724
 L 15.3469,-9.88857 L 15.3399,-9.80568 L 15.332,-9.72374 L 15.3229,-9.64276 L 15.3128,-9.56274 L 15.3016,-9.48366
 L 15.2893,-9.40555 L 15.276,-9.3284 L 15.2616,-9.2522 L 15.2462,-9.17694 L 15.2297,-9.10266 L 15.2121,-9.02933
 L 15.1935,-8.95697 L 15.1737,-8.88553 L 15.153,-8.81506 L 15.1311,-8.74557 L 15.1082,-8.67702 L 15.0842,-8.60941
 L 15.0592,-8.54277 L 15.0331,-8.4771 L 15.0059,-8.41235 L 14.9777,-8.34859 L 14.9484,-8.28577 L 14.918,-8.22391
 L 14.8866,-8.16301 L 14.8541,-8.10306 L 14.8206,-8.04405 L 14.7859,-7.98602 L 14.7503,-7.92894 L 14.7135,-7.87282
 L 14.6757,-7.81766 L 14.6368,-7.76344 L 14.5968,-7.71017 L 14.5558,-7.65788 L 14.5137,-7.60652 L 14.4706,-7.55614
 L 14.4264,-7.5067 L 14.3811,-7.45822 L 14.3347,-7.41071 L 14.2873,-7.36414 L 14.2389,-7.31853 L 14.1894,-7.2739
 L 14.139,-7.23026 L 14.0877,-7.18759 L 14.0354,-7.14592 L 13.9822,-7.10521 L 13.9281,-7.06549 L 13.8731,-7.02675
 L 13.8171,-6.98898 L 13.7602,-6.95221 L 13.7024,-6.91641 L 13.6436,-6.88159 L 13.5839,-6.84775 L 13.5233,-6.81491
 L 13.4618,-6.78304 L 13.3993,-6.75214 L 13.3359,-6.72221 L 13.2716,-6.69328 L 13.2063,-6.66533 L 13.1401,-6.63837
 L 13.073,-6.61238 L 13.005,-6.58736 L 12.936,-6.56332 L 12.8661,-6.54028 L 12.7953,-6.5182 L 12.7235,-6.49713
 L 12.6508,-6.47702 L 12.5772,-6.4579 L 12.5027,-6.43976 L 12.4272,-6.42259 L 12.3508,-6.4064 L 12.2735,-6.3912
 L 12.1952,-6.37698 L 12.116,-6.36374 L 12.0359,-6.35149 L 11.9549,-6.34021 L 11.8729,-6.32991 L 11.79,-6.32059
 L 11.7062,-6.31226 L 11.6215,-6.3049 L 11.5358,-6.29852 L 11.4492,-6.29314 L 11.3616,-6.28871 L 11.2732,-6.28529
 L 11.1838,-6.28284 L 11.0934,-6.28137 L 11.0022,-6.28087 L 10.9256,-6.2812 L 10.8486,-6.28223 L 10.7714,-6.28392
 L 10.6937,-6.2863 L 10.6158,-6.28937 L 10.5374,-6.29309 L 10.4588,-6.2975 L 10.3798,-6.30261 L 10.3005,-6.30838
 L 10.2208,-6.31482 L 10.1408,-6.32196 L 10.0604,-6.32977 L 9.97971,-6.33826 L 9.89865,-6.34743 L 9.81726,-6.35728
 L 9.73553,-6.36781 L 9.65346,-6.37901 L 9.57104,-6.3909 L 9.48828,-6.40347 L 9.40518,-6.4167 L 9.32173,-6.43063
 L 9.23796,-6.44524 L 9.15382,-6.46051 L 9.06935,-6.47649 L 8.98454,-6.49312 L 8.89938,-6.51044 L 8.81389,-6.52843
 L 8.72806,-6.54712 L 8.64188,-6.56648 L 8.55536,-6.5865 L 8.46849,-6.60722 L 8.38127,-6.62862 L 8.29373,-6.65068
 L 8.20584,-6.67345 L 8.11761,-6.69687 L 8.02902,-6.72099 L 7.94011,-6.74579 L 7.85086,-6.77126 L 7.76126,-6.79741
 L 7.6713,-6.82423 L 7.58102,-6.85173 L 7.4904,-6.87993 L 7.39941,-6.90878 L 7.30811,-6.93832 L 7.21646,-6.96855
 L 7.12445,-6.99945 L 7.03186,-7.03119 L 6.93837,-7.0639 L 6.84399,-7.09761 L 6.74872,-7.13228 L 6.65256,-7.16794
 L 6.55551,-7.20457 L 6.45757,-7.24219 L 6.35875,-7.28079 L 6.25903,-7.32037 L 6.15842,-7.36093 L 6.05692,-7.40248
 L 5.95453,-7.44499 L 5.85126,-7.48849 L 5.74709,-7.53297 L 5.64203,-7.57845 L 5.53609,-7.62488 L 5.42924,-7.67232
 L 5.32152,-7.72072 L 5.21289,-7.7701 L 5.10339,-7.82047 L 4.993,-7.87181 L 4.8817,-7.92415 L 4.76953,-7.97746
 L 4.65646,-8.03175 L 4.54251,-8.08702 L 4.42766,-8.14326 L 4.31194,-8.2005 L 4.1953,-8.25873 L 4.07779,-8.31792
 L 3.95938,-8.3781 L 3.84009,-8.43925 L 3.71991,-8.50139 L 3.59883,-8.56451 L 3.47687,-8.6286 L 3.35402,-8.69368
 L 3.23027,-8.75975 L 3.10564,-8.82678 L 2.9801,-8.89481 L 2.8537,-8.96381 L 2.72639,-9.0338 L 2.59821,-9.10475
 L 2.46912,-9.17671 L 2.33914,-9.24963 L 2.20828,-9.32355 L 2.07654,-9.39842 L 1.94388,-9.47429 L 1.94388,-1.8096
 L 2.10626,-1.70889 L 2.26971,-1.6104 L 2.43422,-1.51411 L 2.59978,-1.42004 L 2.76637,-1.3282 L 2.93405,-1.23854
 L 3.10277,-1.15112 L 3.27254,-1.0659 L 3.44337,-0.982895 L 3.61526,-0.9021 L 3.78819,-0.823532 L 3.96219,-0.747162
 L 4.13725,-0.673019 L 4.31335,-0.601074 L 4.49052,-0.531357 L 4.66873,-0.463852 L 4.84801,-0.398544 L 5.02834,-0.33548
 L 5.20972,-0.274612 L 5.39217,-0.215942 L 5.57567,-0.159515 L 5.76021,-0.10527 L 5.94582,-0.0532532 L 6.13248,-0.00346375
 L 6.32019,0.0440979 L 6.50896,0.0894775 L 6.69879,0.132629 L 6.88968,0.173584 L 7.0816,0.212311 L 7.2746,0.24884
 L 7.46864,0.283157 L 7.66376,0.315231 L 7.85991,0.345123 L 8.05713,0.372787 L 8.25539,0.398254 L 8.45471,0.421494
 L 8.65509,0.442505 L 8.85654,0.461319 L 9.05902,0.477936 L 9.26256,0.49231 L 9.46716,0.504486 L 9.67282,0.51445
 L 9.87953,0.522202 L 10.0873,0.52774 L 10.2961,0.531052 L 10.506,0.53215 z
M 66.3065,0.531921 L 66.4232,0.531219 L 66.5398,0.53006 L 66.6564,0.528427 L 66.7728,0.526352 L 66.8891,0.523788
 L 67.0053,0.520752 L 67.1214,0.517258 L 67.2373,0.513306 L 67.3532,0.508881 L 67.469,0.503998 L 67.5846,0.498627
 L 67.7002,0.492828 L 67.8156,0.486542 L 67.931,0.479782 L 68.0462,0.472565 L 68.1613,0.46489 L 68.2763,0.456741
 L 68.3912,0.44812 L 68.506,0.439041 L 68.6207,0.429504 L 68.7353,0.419495 L 68.8497,0.409012 L 68.9641,0.398087
 L 69.0784,0.386673 L 69.1925,0.374802 L 69.3066,0.362473 L 69.4205,0.34967 L 69.5343,0.336411 L 69.648,0.322662
 L 69.7616,0.308472 L 69.8751,0.293793 L 69.9885,0.278671 L 70.1018,0.263077 L 70.215,0.247009 L 70.3281,0.230484
 L 70.441,0.213501 L 70.5539,0.196045 L 70.6666,0.178116 L 70.7793,0.159729 L 70.8918,0.140869 L 71.0042,0.121552
 L 71.1165,0.101761 L 71.2288,0.0815277 L 71.3409,0.0608063 L 71.4529,0.0396271 L 71.565,0.0178833 L 71.6774,-0.00453186
 L 71.7901,-0.0276642 L 71.9032,-0.0514832 L 72.0166,-0.0759888 L 72.1304,-0.101181 L 72.2444,-0.127075 L 72.3588,-0.153671
 L 72.4735,-0.180954 L 72.5885,-0.208908 L 72.7038,-0.237564 L 72.8195,-0.266922 L 72.9355,-0.296967 L 73.0518,-0.327713
 L 73.1684,-0.359131 L 73.2854,-0.391266 L 73.4026,-0.424057 L 73.5202,-0.457565 L 73.6382,-0.491776 L 73.7564,-0.526657
 L 73.875,-0.562225 L 73.9939,-0.598511 L 74.113,-0.635468 L 74.2326,-0.673126 L 74.3524,-0.711472 L 74.4726,-0.750504
 L 74.5931,-0.790237 L 74.7139,-0.830658 L 74.8351,-0.871765 L 74.9565,-0.913589 L 75.0783,-0.95607 L 75.2004,-0.999268
 L 75.3229,-1.04315 L 75.4456,-1.08772 L 75.5687,-1.13298 L 75.6921,-1.17896 L 75.8158,-1.2256 L 75.9399,-1.27293
 L 76.0643,-1.32097 L 76.1889,-1.36969 L 76.314,-1.41911 L 76.4393,-1.46921 L 76.565,-1.52002 L 76.6909,-1.5715
 L 76.8173,-1.62369 L 76.9439,-1.67656 L 76.9439,-21.8496 L 64.9487,-21.8496 L 64.9487,-14.9832 L 70.6776,-14.9832
 L 70.6776,-6.86642 L 70.5877,-6.84352 L 70.4979,-6.82112 L 70.4081,-6.79921 L 70.3184,-6.77782 L 70.2287,-6.75694
 L 70.1391,-6.73654 L 70.0496,-6.71666 L 69.9601,-6.69728 L 69.8706,-6.67842 L 69.7813,-6.66003 L 69.692,-6.64217
 L 69.6027,-6.6248 L 69.5135,-6.60793 L 69.4244,-6.59158 L 69.3353,-6.57571 L 69.2463,-6.56036 L 69.1573,-6.54552
 L 69.0685,-6.53117 L 68.9796,-6.51732 L 68.8908,-6.50398 L 68.8021,-6.49115 L 68.7134,-6.47882 L 68.6248,-6.467
 L 68.5363,-6.45566 L 68.4478,-6.44485 L 68.3594,-6.43452 L 68.271,-6.42471 L 68.1827,-6.41541 L 68.0944,-6.40659
 L 68.0063,-6.39827 L 67.9181,-6.39047 L 67.83,-6.38318 L 67.742,-6.37639 L 67.6541,-6.3701 L 67.5662,-6.3643
 L 67.4783,-6.35902 L 67.3905,-6.35423 L 67.3028,-6.34996 L 67.2152,-6.34618 L 67.1276,-6.34291 L 67.04,-6.34015
 L 66.9525,-6.33788 L 66.8651,-6.33612 L 66.7777,-6.33485 L 66.6904,-6.33411 L 66.6032,-6.33386 L 66.4368,-6.33543
 L 66.2721,-6.34016 L 66.1092,-6.34807 L 65.948,-6.35912 L 65.7886,-6.37331 L 65.6308,-6.39067 L 65.4748,-6.41119
 L 65.3206,-6.43486 L 65.168,-6.4617 L 65.0172,-6.49168 L 64.8681,-6.52483 L 64.7208,-6.56113 L 64.5752,-6.6006
 L 64.4313,-6.6432 L 64.2891,-6.68898 L 64.1487,-6.73792 L 64.01,-6.78999 L 63.873,-6.84523 L 63.7378,-6.90364
 L 63.6042,-6.96519 L 63.4725,-7.02991 L 63.3424,-7.09778 L 63.2141,-7.16881 L 63.0875,-7.24298 L 62.9626,-7.32033
 L 62.8395,-7.40083 L 62.7181,-7.48447 L 62.5984,-7.57129 L 62.4805,-7.66125 L 62.3643,-7.75436 L 62.2498,-7.85066
 L 62.137,-7.95009 L 62.026,-8.05269 L 61.9167,-8.15843 L 61.8091,-8.26733 L 61.7033,-8.37941 L 61.5992,-8.49463
 L 61.4968,-8.61301 L 61.3962,-8.73454 L 61.2972,-8.85924 L 61.2001,-8.98708 L 61.1046,-9.11809 L 61.0109,-9.25224
 L 60.9189,-9.38956 L 60.8286,-9.53003 L 60.7401,-9.67366 L 60.6534,-9.8203 L 60.5686,-9.96977 L 60.4857,-10.1221
 L 60.4047,-10.2772 L 60.3256,-10.4352 L 60.2484,-10.596 L 60.1731,-10.7596 L 60.0998,-10.926 L 60.0283,-11.0953
 L 59.9587,-11.2674 L 59.8911,-11.4424 L 59.8253,-11.6201 L 59.7615,-11.8007 L 59.6996,-11.9842 L 59.6396,-12.1704
 L 59.5814,-12.3595 L 59.5252,-12.5514 L 59.4709,-12.7462 L 59.4185,-12.9438 L 59.368,-13.1442 L 59.3194,-13.3474
 L 59.2727,-13.5535 L 59.2279,-13.7624 L 59.1851,-13.9741 L 59.1441,-14.1887 L 59.105,-14.4061 L 59.0679,-14.6263
 L 59.0326,-14.8493 L 58.9993,-15.0752 L 58.9678,-15.3039 L 58.9383,-15.5354 L 58.9106,-15.7698 L 58.8849,-16.007
 L 58.8611,-16.247 L 58.8392,-16.4899 L 58.8192,-16.7356 L 58.8011,-16.9841 L 58.7849,-17.2355 L 58.7706,-17.4896
 L 58.7582,-17.7466 L 58.7477,-18.0065 L 58.7391,-18.2691 L 58.7325,-18.5347 L 58.7277,-18.803 L 58.7248,-19.0741
 L 58.7239,-19.3481 L 58.7251,-19.6108 L 58.7286,-19.8711 L 58.7345,-20.129 L 58.7428,-20.3847 L 58.7534,-20.638
 L 58.7665,-20.8889 L 58.7818,-21.1375 L 58.7996,-21.3838 L 58.8197,-21.6277 L 58.8421,-21.8693 L 58.867,-22.1086
 L 58.8942,-22.3455 L 58.9238,-22.58 L 58.9557,-22.8123 L 58.99,-23.0422 L 59.0266,-23.2697 L 59.0657,-23.4949
 L 59.107,-23.7178 L 59.1508,-23.9383 L 59.1969,-24.1566 L 59.2454,-24.3724 L 59.2962,-24.5859 L 59.3495,-24.7971
 L 59.405,-25.0059 L 59.463,-25.2124 L 59.5233,-25.4166 L 59.586,-25.6184 L 59.651,-25.8179 L 59.7184,-26.015
 L 59.7882,-26.2098 L 59.8603,-26.4023 L 59.9348,-26.5924 L 60.0117,-26.7802 L 60.0909,-26.9656 L 60.1725,-27.1487
 L 60.2565,-27.3295 L 60.3428,-27.5079 L 60.4315,-27.684 L 60.5226,-27.8578 L 60.616,-28.0292 L 60.7118,-28.1982
 L 60.8099,-28.3649 L 60.9104,-28.5293 L 61.0133,-28.6914 L 61.1186,-28.8511 L 61.2262,-29.0085 L 61.3358,-29.163
 L 61.4469,-29.3141 L 61.5597,-29.4618 L 61.6739,-29.6061 L 61.7898,-29.7471 L 61.9072,-29.8846 L 62.0262,-30.0188
 L 62.1467,-30.1495 L 62.2688,-30.2769 L 62.3925,-30.4008 L 62.5177,-30.5214 L 62.6445,-30.6385 L 62.7728,-30.7523
 L 62.9027,-30.8627 L 63.0342,-30.9696 L 63.1673,-31.0732 L 63.3019,-31.1734 L 63.438,-31.2702 L 63.5758,-31.3636
 L 63.7151,-31.4536 L 63.8559,-31.5401 L 63.9984,-31.6234 L 64.1423,-31.7032 L 64.2879,-31.7796 L 64.435,-31.8526
 L 64.5837,-31.9222 L 64.7339,-31.9884 L 64.8857,-32.0513 L 65.0391,-32.1107 L 65.194,-32.1667 L 65.3505,-32.2194
 L 65.5086,-32.2686 L 65.6682,-32.3144 L 65.8294,-32.3569 L 65.9921,-32.3959 L 66.1565,-32.4316 L 66.3223,-32.4639
 L 66.4898,-32.4927 L 66.6588,-32.5182 L 66.8293,-32.5403 L 67.0015,-32.5589 L 67.1752,-32.5742 L 67.3504,-32.5861
 L 67.5273,-32.5946 L 67.7056,-32.5997 L 67.8856,-32.6014 L 68.041,-32.6004 L 68.1962,-32.5974 L 68.3511,-32.5923
 L 68.5057,-32.5853 L 68.6602,-32.5762 L 68.8143,-32.5652 L 68.9682,-32.5521 L 69.1218,-32.537 L 69.2752,-32.5199
 L 69.4284,-32.5008 L 69.5813,-32.4796 L 69.7339,-32.4565 L 69.8863,-32.4314 L 70.0384,-32.4042 L 70.1903,-32.375
 L 70.3419,-32.3438 L 70.4932,-32.3106 L 70.6443,-32.2754 L 70.7952,-32.2382 L 70.9458,-32.1989 L 71.0961,-32.1577
 L 71.2462,-32.1144 L 71.396,-32.0691 L 71.5456,-32.0219 L 71.695,-31.9725 L 71.844,-31.9212 L 71.9928,-31.8679
 L 72.1414,-31.8125 L 72.2897,-31.7552 L 72.4378,-31.6958 L 72.5856,-31.6345 L 72.7331,-31.5711 L 72.8804,-31.5057
 L 73.0275,-31.4383 L 73.1743,-31.3688 L 73.3208,-31.2974 L 73.4671,-31.2239 L 73.6131,-31.1485 L 73.7589,-31.071
 L 73.9044,-30.9915 L 74.0497,-30.91 L 74.1947,-30.8265 L 74.3394,-30.741 L 74.4839,-30.6534 L 74.6282,-30.5639
 L 74.7722,-30.4723 L 76.9024,-37.0727 L 76.7143,-37.1757 L 76.5259,-37.2764 L 76.3372,-37.3749 L 76.1482,-37.4711
 L 75.9588,-37.565 L 75.7692,-37.6567 L 75.5792,-37.7462 L 75.389,-37.8333 L 75.1984,-37.9182 L 75.0075,-38.0009
 L 74.8163,-38.0812 L 74.6247,-38.1593 L 74.4329,-38.2352 L 74.2408,-38.3087 L 74.0483,-38.3801 L 73.8555,-38.4491
 L 73.6624,-38.5159 L 73.469,-38.5804 L 73.2753,-38.6427 L 73.0813,-38.7027 L 72.8869,-38.7604 L 72.6923,-38.8158
 L 72.4973,-38.869 L 72.302,-38.92 L 72.1064,-38.9687 L 71.9105,-39.0151 L 71.7143,-39.0592 L 71.5178,-39.1011
 L 71.3209,-39.1407 L 71.1238,-39.1781 L 70.9263,-39.2132 L 70.7285,-39.246 L 70.5304,-39.2765 L 70.332,-39.3048
 L 70.1333,-39.3309 L 69.9343,-39.3546 L 69.7349,-39.3761 L 69.5353,-39.3954 L 69.3353,-39.4124 L 69.135,-39.4271
 L 68.9344,-39.4395 L 68.7335,-39.4497 L 68.5323,-39.4576 L 68.3308,-39.4633 L 68.1289,-39.4667 L 67.9268,-39.4678
 L 67.6055,-39.4653 L 67.2873,-39.4579 L 66.9721,-39.4454 L 66.66,-39.428 L 66.351,-39.4056 L 66.045,-39.3782
 L 65.7421,-39.3458 L 65.4423,-39.3085 L 65.1455,-39.2661 L 64.8518,-39.2188 L 64.5611,-39.1665 L 64.2735,-39.1092
 L 63.9889,-39.047 L 63.7074,-38.9797 L 63.429,-38.9075 L 63.1536,-38.8303 L 62.8813,-38.7481 L 62.612,-38.661
 L 62.3458,-38.5688 L 62.0827,-38.4717 L 61.8226,-38.3696 L 61.5656,-38.2625 L 61.3116,-38.1505 L 61.0607,-38.0334
 L 60.8128,-37.9114 L 60.568,-37.7844 L 60.3263,-37.6524 L 60.0876,-37.5154 L 59.852,-37.3735 L 59.6195,-37.2265
 L 59.39,-37.0746 L 59.1635,-36.9177 L 58.9402,-36.7559 L 58.7198,-36.589 L 58.5026,-36.4172 L 58.2884,-36.2404
 L 58.0772,-36.0586 L 57.8692,-35.8718 L 57.6641,-35.6801 L 57.4622,-35.4833 L 57.2633,-35.2816 L 57.0674,-35.0749
 L 56.8746,-34.8632 L 56.6849,-34.6466 L 56.4982,-34.4249 L 56.3146,-34.1983 L 56.1345,-33.9672 L 55.9584,-33.7322
 L 55.7862,-33.4933 L 55.618,-33.2505 L 55.4537,-33.0037 L 55.2934,-32.753 L 55.137,-32.4984 L 54.9846,-32.2399
 L 54.8362,-31.9774 L 54.6917,-31.711 L 54.5512,-31.4407 L 54.4146,-31.1665 L 54.282,-30.8883 L 54.1534,-30.6062
 L 54.0287,-30.3202 L 53.908,-30.0303 L 53.7912,-29.7365 L 53.6784,-29.4387 L 53.5695,-29.137 L 53.4646,-28.8313
 L 53.3637,-28.5218 L 53.2667,-28.2083 L 53.1737,-27.8909 L 53.0846,-27.5696 L 52.9995,-27.2444 L 52.9184,-26.9152
 L 52.8412,-26.5821 L 52.768,-26.2451 L 52.6987,-25.9042 L 52.6334,-25.5593 L 52.572,-25.2105 L 52.5146,-24.8578
 L 52.4612,-24.5012 L 52.4117,-24.1406 L 52.3662,-23.7761 L 52.3246,-23.4077 L 52.287,-23.0354 L 52.2534,-22.6591
 L 52.2237,-22.2789 L 52.198,-21.8949 L 52.1762,-21.5068 L 52.1584,-21.1149 L 52.1445,-20.719 L 52.1346,-20.3192
 L 52.1287,-19.9155 L 52.1267,-19.5079 L 52.1284,-19.0888 L 52.1335,-18.674 L 52.1421,-18.2635 L 52.154,-17.8572
 L 52.1694,-17.4552 L 52.1881,-17.0574 L 52.2103,-16.664 L 52.2359,-16.2747 L 52.2649,-15.8898 L 52.2973,-15.5091
 L 52.3331,-15.1327 L 52.3723,-14.7605 L 52.4149,-14.3926 L 52.461,-14.029 L 52.5104,-13.6696 L 52.5633,-13.3145
 L 52.6196,-12.9637 L 52.6793,-12.6171 L 52.7424,-12.2748 L 52.8089,-11.9367 L 52.8788,-11.603 L 52.9521,-11.2734
 L 53.0289,-10.9482 L 53.1091,-10.6272 L 53.1926,-10.3104 L 53.2796,-9.99796 L 53.37,-9.68977 L 53.4638,-9.38582
 L 53.561,-9.08614 L 53.6616,-8.79073 L 53.7657,-8.49957 L 53.8731,-8.21268 L 53.984,-7.93005 L 54.0982,-7.6517
 L 54.2159,-7.37761 L 54.337,-7.10777 L 54.4615,-6.84219 L 54.5894,-6.58089 L 54.7207,-6.32385 L 54.8554,-6.07108
 L 54.9936,-5.82256 L 55.1351,-5.57829 L 55.2801,-5.3383 L 55.4285,-5.10258 L 55.5803,-4.87112 L 55.7355,-4.64392
 L 55.8939,-4.42133 L 56.0554,-4.20363 L 56.2199,-3.9908 L 56.3875,-3.78288 L 56.5582,-3.57983 L 56.7319,-3.3817
 L 56.9087,-3.18845 L 57.0886,-3.00011 L 57.2715,-2.81664 L 57.4574,-2.63806 L 57.6465,-2.46437 L 57.8385,-2.29559
 L 58.0337,-2.1317 L 58.2319,-1.9727 L 58.4332,-1.81859 L 58.6375,-1.66937 L 58.8449,-1.52505 L 59.0553,-1.38562
 L 59.2688,-1.25108 L 59.4853,-1.12143 L 59.705,-0.996674 L 59.9276,-0.876816 L 60.1534,-0.761841 L 60.3822,-0.651764
 L 60.614,-0.546585 L 60.8489,-0.446274 L 61.0869,-0.350891 L 61.3279,-0.260376 L 61.572,-0.174759 L 61.8192,-0.0940399
 L 62.0694,-0.0182037 L 62.3226,0.0527039 L 62.579,0.118759 L 62.8384,0.179901 L 63.1008,0.236176 L 63.3663,0.287537
 L 63.6349,0.334015 L 63.9065,0.375595 L 64.1812,0.412292 L 64.4589,0.444092 L 64.7397,0.470993 L 65.0236,0.493011
 L 65.3105,0.510147 L 65.6005,0.522385 L 65.8935,0.529709 L 66.1896,0.53215 z
M 50.3089,-38.909 L 43.8359,-38.909 L 38.1073,-15.7552 L 38.0503,-15.4908 L 37.9943,-15.2298 L 37.9393,-14.9724
 L 37.8854,-14.7184 L 37.8325,-14.4679 L 37.7807,-14.2208 L 37.7298,-13.9773 L 37.6801,-13.7372 L 37.6313,-13.5005
 L 37.5836,-13.2674 L 37.537,-13.0377 L 37.4913,-12.8115 L 37.4467,-12.5887 L 37.4032,-12.3694 L 37.3606,-12.1536
 L 37.3191,-11.9413 L 37.2787,-11.7325 L 37.2393,-11.5271 L 37.2009,-11.3251 L 37.1635,-11.1267 L 37.1272,-10.9317
 L 37.092,-10.7402 L 37.0577,-10.5522 L 37.0245,-10.3676 L 36.9924,-10.1865 L 36.9612,-10.0089 L 36.9311,-9.83476
 L 36.9021,-9.66408 L 36.8741,-9.49687 L 36.8471,-9.33315 L 36.8211,-9.17288 L 36.7962,-9.01608 L 36.7723,-8.86276
 L 36.7495,-8.71292 L 36.7277,-8.56653 L 36.7069,-8.42363 L 36.6872,-8.28419 L 36.6685,-8.14822 L 36.6508,-8.01573
 L 36.6342,-7.88672 L 36.6186,-7.76117 L 36.604,-7.63908 L 36.5905,-7.52048 L 36.578,-7.40535 L 36.5666,-7.29369
 L 36.5562,-7.18549 L 36.5506,-7.23257 L 36.5447,-7.2812 L 36.5384,-7.33144 L 36.5317,-7.38322 L 36.5247,-7.4366
 L 36.5173,-7.49153 L 36.5096,-7.54803 L 36.5014,-7.60612 L 36.493,-7.66577 L 36.4841,-7.72701 L 36.4749,-7.78979
 L 36.4654,-7.85417 L 36.4555,-7.9201 L 36.4452,-7.98761 L 36.4345,-8.05669 L 36.4235,-8.12733 L 36.4122,-8.19957
 L 36.4005,-8.27338 L 36.3884,-8.34874 L 36.3759,-8.42567 L 36.3631,-8.5042 L 36.3499,-8.58427 L 36.3364,-8.66592
 L 36.3225,-8.74915 L 36.3082,-8.83395 L 36.2936,-8.92033 L 36.2786,-9.00827 L 36.2633,-9.09778 L 36.2476,-9.18886
 L 36.2315,-9.28152 L 36.2151,-9.37575 L 36.1983,-9.47156 L 36.1811,-9.56894 L 36.1636,-9.66788 L 36.1457,-9.76839
 L 36.1275,-9.87048 L 36.1089,-9.97414 L 36.0899,-10.0794 L 36.0706,-10.1862 L 36.0509,-10.2946 L 36.0309,-10.4045
 L 36.0105,-10.516 L 35.9897,-10.6291 L 35.9686,-10.7438 L 35.9471,-10.86 L 35.9252,-10.9778 L 35.9032,-11.0961
 L 35.8812,-11.2137 L 35.8593,-11.3307 L 35.8374,-11.4471 L 35.8155,-11.5628 L 35.7936,-11.6779 L 35.7718,-11.7923
 L 35.75,-11.9061 L 35.7282,-12.0193 L 35.7064,-12.1318 L 35.6847,-12.2437 L 35.663,-12.3549 L 35.6414,-12.4655
 L 35.6198,-12.5755 L 35.5981,-12.6848 L 35.5766,-12.7934 L 35.555,-12.9014 L 35.5335,-13.0088 L 35.5121,-13.1156
 L 35.4906,-13.2217 L 35.4692,-13.3271 L 35.4478,-13.4319 L 35.4264,-13.5361 L 35.4051,-13.6397 L 35.3838,-13.7426
 L 35.3625,-13.8448 L 35.3413,-13.9464 L 35.3201,-14.0474 L 35.2989,-14.1477 L 35.2777,-14.2474 L 35.2566,-14.3465
 L 35.2355,-14.4449 L 35.2144,-14.5426 L 35.1934,-14.6397 L 35.1724,-14.7362 L 35.1514,-14.8321 L 35.1304,-14.9272
 L 35.1095,-15.0218 L 35.0886,-15.1157 L 35.0677,-15.209 L 35.0469,-15.3016 L 35.0261,-15.3936 L 35.0053,-15.485
 L 34.9846,-15.5757 L 34.9639,-15.6657 L 34.9432,-15.7552 L 29.2558,-38.909 L 22.7827,-38.909 L 33.0405,-0
 L 40.0307,-0 z
" stroke="white" fill="white" stroke-width="0.5"/>
</svg>
