<?xml version="1.0" standalone="no"?>
<!DOCTYPE svg PUBLIC "-//W3C//DTD SVG 1.1//EN" "http://www.w3.org/Graphics/SVG/1.1/DTD/svg11.dtd">
<svg width="86mm" height="101mm" viewBox="-8 -100 86 101" xmlns="http://www.w3.org/2000/svg" version="1.1">
<title>OpenSCAD Model</title>
<path d="
M 5,-70 L 23,-70 L 23.2617,-70.0069 L 23.4707,-70.0178 L 23.9912,-70.0725 L 24.198,-70.1053
 L 24.71,-70.2141 L 24.9122,-70.2683 L 25.4099,-70.43 L 25.6053,-70.505 L 26.0833,-70.7178 L 26.2698,-70.8129
 L 26.7234,-71.0747 L 26.899,-71.1888 L 27.3222,-71.4963 L 27.4849,-71.628 L 27.8738,-71.9782 L 28.0218,-72.1262
 L 28.372,-72.5151 L 28.5037,-72.6778 L 28.8112,-73.101 L 28.9253,-73.2766 L 29.1871,-73.7302 L 29.2822,-73.9167
 L 29.495,-74.3947 L 29.57,-74.5901 L 29.7317,-75.0878 L 29.7859,-75.29 L 29.8947,-75.802 L 29.9275,-76.0088
 L 29.9822,-76.5293 L 29.9931,-76.7383 L 30,-77 L 30,-95 L 63,-95 L 63.2091,-94.989
 L 63.4158,-94.9563 L 63.618,-94.9021 L 63.8135,-94.8271 L 64,-94.7321 L 64.1756,-94.618 L 64.3383,-94.4863
 L 64.4863,-94.3383 L 64.618,-94.1756 L 64.7321,-94 L 64.8271,-93.8135 L 64.9021,-93.618 L 64.9563,-93.4158
 L 64.989,-93.2091 L 65,-93 L 65,-45 L 70,-45 L 70,-93 L 69.9931,-93.2617
 L 69.9822,-93.4707 L 69.9275,-93.9912 L 69.8947,-94.198 L 69.7859,-94.71 L 69.7317,-94.9122 L 69.57,-95.4099
 L 69.495,-95.6053 L 69.2822,-96.0833 L 69.1871,-96.2698 L 68.9253,-96.7234 L 68.8112,-96.899 L 68.5037,-97.3222
 L 68.372,-97.4849 L 68.0218,-97.8738 L 67.8738,-98.0218 L 67.4849,-98.372 L 67.3222,-98.5037 L 66.899,-98.8112
 L 66.7234,-98.9253 L 66.2698,-99.1871 L 66.0833,-99.2822 L 65.6053,-99.495 L 65.4099,-99.57 L 64.9122,-99.7317
 L 64.71,-99.7859 L 64.198,-99.8947 L 63.9912,-99.9275 L 63.4707,-99.9822 L 63.2617,-99.9931 L 63,-100
 L 25,-100 L 0,-75 L 0,-45 L 5,-45 z
M 9.33421,0.446777 L 10.6047,0.363342 L 11.8441,0.224258 L 13.0523,0.0295715 L 14.2293,-0.220749 L 15.3752,-0.526703
 L 16.49,-0.888275 L 17.5736,-1.3055 L 17.5736,-7.47635 L 16.2982,-7.04797 L 15.0711,-6.67673 L 13.8921,-6.36259
 L 12.7614,-6.10556 L 11.6789,-5.90567 L 10.6446,-5.76288 L 9.65852,-5.6772 L 8.72066,-5.64864 L 6.67915,-5.82999
 L 4.90984,-6.37404 L 3.41273,-7.28079 L 2.18782,-8.55023 L 1.23512,-10.1824 L 0.554611,-12.1772 L 0.146317,-14.5348
 L 0.0102081,-17.255 L 0.0458069,-18.611 L 0.152618,-19.8903 L 0.330627,-21.0927 L 0.579834,-22.2184 L 0.900253,-23.2674
 L 1.29187,-24.2395 L 1.75468,-25.1349 L 2.28871,-25.9535 L 2.88763,-26.685 L 3.54515,-27.319 L 4.26125,-27.8554
 L 5.03595,-28.2943 L 5.86923,-28.6356 L 6.76112,-28.8794 L 7.71159,-29.0257 L 8.72066,-29.0745 L 9.19646,-29.0637
 L 9.67447,-29.0315 L 10.1547,-28.9777 L 10.6372,-28.9024 L 11.1219,-28.8056 L 11.6087,-28.6872 L 12.0979,-28.5474
 L 12.5892,-28.386 L 13.0814,-28.2103 L 13.5728,-28.0272 L 14.0635,-27.8366 L 14.5534,-27.6386 L 15.0426,-27.4332
 L 15.5311,-27.2204 L 16.0188,-27.0002 L 16.5057,-26.7725 L 18.8791,-32.7533 L 17.604,-33.3263 L 16.3305,-33.8229
 L 15.0585,-34.2431 L 13.788,-34.5869 L 12.5189,-34.8543 L 11.2513,-35.0453 L 9.98526,-35.1599 L 8.72066,-35.1981
 L 7.50037,-35.1642 L 6.31975,-35.0624 L 5.17882,-34.8927 L 4.07756,-34.6552 L 3.01599,-34.3497 L 1.99409,-33.9765
 L 1.01189,-33.5353 L 0.0693665,-33.0263 L -0.826355,-32.4537 L -1.66832,-31.8218 L -2.45653,-31.1305 L -3.19098,-30.3799
 L -3.87167,-29.57 L -4.4986,-28.7007 L -5.07178,-27.772 L -5.59119,-26.7841 L -6.05286,-25.7456 L -6.45297,-24.6652
 L -6.79153,-23.5428 L -7.06854,-22.3786 L -7.28398,-21.1724 L -7.43788,-19.9242 L -7.53021,-18.6342 L -7.56099,-17.3022
 L -7.49832,-15.2168 L -7.3103,-13.2563 L -6.99695,-11.4208 L -6.55824,-9.71022 L -5.99419,-8.12463 L -5.30481,-6.66403
 L -4.49007,-5.3284 L -3.54999,-4.11774 L -2.49161,-3.04141 L -1.32196,-2.1086 L -0.0410309,-1.31927 L 1.35115,-0.673477
 L 2.8546,-0.171188 L 4.46931,0.187576 L 6.19531,0.402832 L 8.03256,0.474594 z
M 33.3868,0.432312 L 34.7698,0.305496 L 36.0702,0.0941315 L 37.2878,-0.201767 L 38.4228,-0.58223 L 39.475,-1.04724
 L 40.4446,-1.59679 L 41.3315,-2.2309 L 42.1242,-2.93851 L 42.8113,-3.70842 L 43.3926,-4.54063 L 43.8683,-5.43513
 L 44.2382,-6.39195 L 44.5025,-7.41107 L 44.661,-8.49248 L 44.7139,-9.6362 L 44.6857,-10.4682 L 44.6011,-11.2672
 L 44.4602,-12.0331 L 44.2629,-12.7661 L 44.0092,-13.466 L 43.6992,-14.1329 L 43.3327,-14.7669 L 42.91,-15.3678
 L 42.4111,-15.9521 L 41.8167,-16.536 L 41.1265,-17.1196 L 40.3407,-17.7028 L 39.4592,-18.2856 L 38.482,-18.8681
 L 37.4092,-19.4502 L 36.2407,-20.0319 L 35.3631,-20.4541 L 34.5697,-20.8425 L 33.8604,-21.1972 L 33.2353,-21.5182
 L 32.6944,-21.8054 L 32.2376,-22.0588 L 31.865,-22.2785 L 31.5766,-22.4644 L 31.3387,-22.6343 L 31.1175,-22.8056
 L 30.913,-22.9785 L 30.7252,-23.1528 L 30.554,-23.3285 L 30.3995,-23.5058 L 30.2617,-23.6845 L 30.1406,-23.8647
 L 30.0349,-24.0497 L 29.9433,-24.2424 L 29.8659,-24.4429 L 29.8025,-24.6511 L 29.7532,-24.8671 L 29.718,-25.0909
 L 29.6968,-25.3225 L 29.6898,-25.5619 L 29.7072,-25.9443 L 29.7595,-26.3081 L 29.8466,-26.6534 L 29.9686,-26.9801
 L 30.1255,-27.2883 L 30.3172,-27.5779 L 30.5438,-27.849 L 30.8052,-28.1015 L 31.0994,-28.3295 L 31.4239,-28.5272
 L 31.7789,-28.6944 L 32.1642,-28.8312 L 32.5799,-28.9377 L 33.026,-29.0137 L 33.5026,-29.0593 L 34.0095,-29.0745
 L 34.4495,-29.0674 L 34.8913,-29.0463 L 35.3351,-29.011 L 35.7806,-28.9617 L 36.2281,-28.8983 L 36.6774,-28.8207
 L 37.1285,-28.7291 L 37.5816,-28.6233 L 38.0505,-28.4999 L 38.5495,-28.3549 L 39.0786,-28.1884 L 39.6376,-28.0004
 L 40.2267,-27.7909 L 40.8459,-27.5599 L 41.4951,-27.3073 L 42.1743,-27.0333 L 44.5476,-32.7533 L 43.8806,-33.0359
 L 43.2207,-33.3022 L 42.5678,-33.5522 L 41.9219,-33.7858 L 41.2831,-34.0032 L 40.6513,-34.2042 L 40.0266,-34.3889
 L 39.4089,-34.5572 L 38.7909,-34.7074 L 38.1652,-34.8376 L 37.5316,-34.9478 L 36.8902,-35.0379 L 36.2411,-35.108
 L 35.5841,-35.158 L 34.9193,-35.1881 L 34.2468,-35.1981 L 32.9075,-35.1569 L 31.6427,-35.0334 L 30.4525,-34.8276
 L 29.3368,-34.5395 L 28.2956,-34.169 L 27.329,-33.7162 L 26.4369,-33.1811 L 25.6193,-32.5636 L 24.8878,-31.8743
 L 24.2539,-31.1233 L 23.7175,-30.3107 L 23.2786,-29.4367 L 22.9372,-28.501 L 22.6934,-27.5038 L 22.5471,-26.445
 L 22.4983,-25.3246 L 22.5132,-24.7231 L 22.5576,-24.1408 L 22.6318,-23.5778 L 22.7356,-23.0341 L 22.8691,-22.5097
 L 23.0323,-22.0046 L 23.2251,-21.5187 L 23.4475,-21.0521 L 23.6949,-20.6024 L 23.9623,-20.1666 L 24.2498,-19.745
 L 24.5572,-19.3375 L 24.8847,-18.944 L 25.2321,-18.5647 L 25.5996,-18.1994 L 25.9871,-17.8482 L 26.4096,-17.5023
 L 26.8817,-17.1526 L 27.4035,-16.7991 L 27.975,-16.442 L 28.5962,-16.0812 L 29.2671,-15.7167 L 29.9877,-15.3484
 L 30.758,-14.9765 L 31.5707,-14.5867 L 32.3118,-14.2243 L 32.9814,-13.8894 L 33.5793,-13.5819 L 34.1057,-13.3019
 L 34.5605,-13.0493 L 34.9438,-12.8242 L 35.2555,-12.6266 L 35.5231,-12.4417 L 35.774,-12.255 L 36.0082,-12.0665
 L 36.2258,-11.876 L 36.4266,-11.6837 L 36.6107,-11.4896 L 36.7781,-11.2936 L 36.9288,-11.0957 L 37.0624,-10.8934
 L 37.1781,-10.6842 L 37.276,-10.4678 L 37.3562,-10.2444 L 37.4185,-10.0139 L 37.463,-9.77643 L 37.4897,-9.53186
 L 37.4986,-9.28024 L 37.4784,-8.83742 L 37.4178,-8.42276 L 37.3167,-8.0363 L 37.1752,-7.67802 L 36.9933,-7.34795
 L 36.771,-7.04604 L 36.5082,-6.77232 L 36.205,-6.52679 L 35.864,-6.30991 L 35.4877,-6.12193 L 35.0763,-5.96288
 L 34.6296,-5.83275 L 34.1477,-5.73152 L 33.6305,-5.65923 L 33.0781,-5.61584 L 32.4905,-5.60139 L 31.9796,-5.6114
 L 31.4558,-5.64145 L 30.919,-5.69151 L 30.3692,-5.76161 L 29.8064,-5.85173 L 29.2307,-5.96187 L 28.642,-6.09204
 L 28.0402,-6.24225 L 27.4152,-6.41692 L 26.7564,-6.6205 L 26.0639,-6.85301 L 25.3376,-7.11444 L 24.5775,-7.40479
 L 23.7837,-7.72406 L 22.9561,-8.07224 L 22.0948,-8.44934 L 22.0948,-1.61385 L 23.1829,-1.12436 L 24.3111,-0.70015
 L 25.4793,-0.341187 L 26.6876,-0.0475006 L 27.9359,0.180908 L 29.2242,0.34407 L 30.5526,0.441956 L 31.921,0.474594
 z
M 65.7433,0.467728 L 66.5086,0.447144 L 67.2698,0.412827 L 68.0269,0.364777 L 68.7799,0.303009 L 69.5288,0.227509
 L 70.2736,0.13829 L 71.0143,0.0353394 L 71.7592,-0.0845642 L 72.5163,-0.224884 L 73.2857,-0.385605 L 74.0673,-0.566727
 L 74.8611,-0.76825 L 75.6672,-0.990158 L 76.4855,-1.23248 L 77.316,-1.49519 L 77.316,-19.4859 L 63.5499,-19.4859
 L 63.5499,-13.3623 L 70.1246,-13.3623 L 70.1246,-6.1236 L 69.5323,-6.01228 L 68.9422,-5.9158 L 68.3544,-5.83417
 L 67.7687,-5.76738 L 67.1854,-5.71544 L 66.6042,-5.67833 L 66.0253,-5.65607 L 65.4486,-5.64864 L 64.3778,-5.69518
 L 63.3726,-5.83479 L 62.433,-6.06749 L 61.5591,-6.39326 L 60.7509,-6.81212 L 60.0082,-7.32405 L 59.3312,-7.92906
 L 58.7198,-8.62714 L 58.1775,-9.41357 L 57.7075,-10.2834 L 57.3098,-11.2368 L 56.9845,-12.2735 L 56.7314,-13.3937
 L 56.5506,-14.5974 L 56.4422,-15.8845 L 56.406,-17.255 L 56.4509,-18.5733 L 56.5855,-19.8227 L 56.8098,-21.0031
 L 57.1239,-22.1145 L 57.5278,-23.1569 L 58.0213,-24.1303 L 58.6047,-25.0348 L 59.2777,-25.8702 L 60.0254,-26.6212
 L 60.8324,-27.2721 L 61.6988,-27.8228 L 62.6245,-28.2734 L 63.6094,-28.6239 L 64.6537,-28.8742 L 65.7574,-29.0244
 L 66.9203,-29.0745 L 67.942,-29.0448 L 68.954,-28.9558 L 69.9564,-28.8075 L 70.9491,-28.5998 L 71.9322,-28.3328
 L 72.9057,-28.0064 L 73.8695,-27.6208 L 74.8237,-27.1757 L 77.2684,-33.062 L 76.0224,-33.5627 L 74.7644,-33.9966
 L 73.4946,-34.3637 L 72.213,-34.6641 L 70.9194,-34.8977 L 69.614,-35.0646 L 68.2967,-35.1647 L 66.9676,-35.1981
 L 64.8955,-35.1247 L 62.9395,-34.9044 L 61.0996,-34.5372 L 59.3757,-34.0232 L 57.768,-33.3624 L 56.2762,-32.5547
 L 54.9006,-31.6001 L 53.641,-30.4986 L 52.5145,-29.2659 L 51.5383,-27.9175 L 50.7122,-26.4534 L 50.0363,-24.8736
 L 49.5107,-23.1781 L 49.1352,-21.3669 L 48.9099,-19.44 L 48.8348,-17.3974 L 48.8995,-15.3004 L 49.0936,-13.3292
 L 49.4172,-11.4836 L 49.8702,-9.76376 L 50.4526,-8.16963 L 51.1644,-6.70122 L 52.0057,-5.35852 L 52.9763,-4.14154
 L 54.0698,-3.05963 L 55.2793,-2.12198 L 56.6049,-1.32858 L 58.0465,-0.679428 L 59.6043,-0.174545 L 61.2781,0.186081
 L 63.068,0.402466 L 64.974,0.474594 z
" stroke="black" fill="black" stroke-width="0.5"/>
</svg>
