<?xml version="1.0" standalone="no"?>
<!DOCTYPE svg PUBLIC "-//W3C//DTD SVG 1.1//EN" "http://www.w3.org/Graphics/SVG/1.1/DTD/svg11.dtd">
<svg width="100mm" height="100mm" viewBox="-8 -108 116 116" xmlns="http://www.w3.org/2000/svg" version="1.1">
<title>OpenSCAD Model</title>
<path d="
M 84.2093,-0.00547791 L 84.4184,-0.0164337 L 84.8348,-0.0601959 L 85.0415,-0.0929413 L 85.4511,-0.180008 L 85.6533,-0.234192
 L 86.0515,-0.363571 L 86.247,-0.438599 L 86.6293,-0.608841 L 86.8159,-0.703873 L 87.1787,-0.913391 L 87.3543,-1.02742
 L 87.6929,-1.27341 L 87.8556,-1.40515 L 88.1667,-1.68529 L 88.3147,-1.83331 L 88.5948,-2.14444 L 88.7266,-2.30713
 L 88.9726,-2.64569 L 89.0866,-2.82126 L 89.2961,-3.18414 L 89.3912,-3.37067 L 89.5614,-3.75304 L 89.6364,-3.94849
 L 89.7658,-4.34666 L 89.82,-4.54887 L 89.9071,-4.95848 L 89.9398,-5.16524 L 89.9836,-5.5816 L 89.9945,-5.79066
 L 90,-6 L 90,-94 L 89.9945,-94.2093 L 89.9836,-94.4184 L 89.9398,-94.8348 L 89.9071,-95.0415
 L 89.82,-95.4511 L 89.7658,-95.6533 L 89.6364,-96.0515 L 89.5614,-96.247 L 89.3912,-96.6293 L 89.2961,-96.8159
 L 89.0866,-97.1787 L 88.9726,-97.3543 L 88.7266,-97.6929 L 88.5948,-97.8556 L 88.3147,-98.1667 L 88.1667,-98.3147
 L 87.8556,-98.5948 L 87.6929,-98.7266 L 87.3543,-98.9726 L 87.1787,-99.0866 L 86.8159,-99.2961 L 86.6293,-99.3912
 L 86.247,-99.5614 L 86.0515,-99.6364 L 85.6533,-99.7658 L 85.4511,-99.82 L 85.0415,-99.9071 L 84.8348,-99.9398
 L 84.4184,-99.9836 L 84.2093,-99.9945 L 84,-100 L 36,-100 L 10,-74 L 10,-50
 L 14,-50 L 14,-70 L 34,-70 L 34.2093,-70.0055 L 34.4184,-70.0164 L 34.8348,-70.0602
 L 35.0415,-70.0929 L 35.4511,-70.18 L 35.6533,-70.2342 L 36.0515,-70.3636 L 36.247,-70.4386 L 36.6293,-70.6088
 L 36.8159,-70.7039 L 37.1787,-70.9134 L 37.3543,-71.0274 L 37.6929,-71.2734 L 37.8556,-71.4052 L 38.1667,-71.6853
 L 38.3147,-71.8333 L 38.5948,-72.1444 L 38.7266,-72.3071 L 38.9726,-72.6457 L 39.0866,-72.8213 L 39.2961,-73.1841
 L 39.3912,-73.3707 L 39.5614,-73.753 L 39.6364,-73.9485 L 39.7658,-74.3467 L 39.82,-74.5489 L 39.9071,-74.9585
 L 39.9398,-75.1652 L 39.9836,-75.5816 L 39.9945,-75.7907 L 40,-76 L 40,-96 L 84,-96
 L 84.2091,-95.989 L 84.4158,-95.9563 L 84.618,-95.9021 L 84.8135,-95.8271 L 85,-95.7321 L 85.1756,-95.618
 L 85.3383,-95.4863 L 85.4863,-95.3383 L 85.618,-95.1756 L 85.7321,-95 L 85.8271,-94.8135 L 85.9021,-94.618
 L 85.9563,-94.4158 L 85.989,-94.2091 L 86,-94 L 86,-6 L 85.989,-5.79094 L 85.9563,-5.58418
 L 85.9021,-5.38197 L 85.8271,-5.18652 L 85.7321,-5 L 85.618,-4.82443 L 85.4863,-4.66174 L 85.3383,-4.51372
 L 85.1756,-4.38197 L 85,-4.26794 L 84.8135,-4.17291 L 84.618,-4.09789 L 84.4158,-4.0437 L 84.2091,-4.01096
 L 84,-4 L 80,-4 L 80,-0 L 84,-0 z
M 18.7167,0.45047 L 20.3176,0.20755 L 21.8168,-0.197311 L 23.2142,-0.76416 L 24.5098,-1.49295 L 25.7036,-2.38371
 L 26.7957,-3.43642 L 27.786,-4.65108 L 28.6667,-6.01657 L 29.4301,-7.52159 L 30.076,-9.16615 L 30.6044,-10.9502
 L 31.0154,-12.8739 L 31.309,-14.937 L 31.4852,-17.1396 L 31.5439,-19.4819 L 31.4857,-21.8298 L 31.311,-24.0365
 L 31.0199,-26.1021 L 30.6123,-28.0265 L 30.0882,-29.8097 L 29.4477,-31.4518 L 28.6908,-32.9526 L 27.8174,-34.3123
 L 26.8341,-35.5208 L 25.7474,-36.5681 L 24.5574,-37.4544 L 23.2639,-38.1795 L 21.867,-38.7434 L 20.3667,-39.1463
 L 18.763,-39.388 L 17.0558,-39.4685 L 15.3481,-39.3886 L 13.7424,-39.1488 L 12.2388,-38.7491 L 10.8373,-38.1895
 L 9.53796,-37.47 L 8.34068,-36.5906 L 7.2455,-35.5514 L 6.25244,-34.3522 L 5.36928,-33.0015 L 4.6039,-31.5075
 L 3.95625,-29.8703 L 3.42636,-28.0897 L 3.01422,-26.1659 L 2.71985,-24.0988 L 2.54321,-21.8884 L 2.48434,-19.5348
 L 2.54305,-17.1802 L 2.71919,-14.9668 L 3.01276,-12.8945 L 3.42375,-10.9635 L 3.95216,-9.17358 L 4.59801,-7.5249
 L 5.36127,-6.0174 L 6.24197,-4.65108 L 7.23225,-3.43642 L 8.32433,-2.38371 L 9.51817,-1.49295 L 10.8138,-0.76416
 L 12.2112,-0.197311 L 13.7103,0.20755 L 15.3113,0.45047 L 17.014,0.531448 z
M 16.0785,-6.43021 L 15.203,-6.5847 L 14.3875,-6.84218 L 13.6321,-7.20265 L 12.9366,-7.66612 L 12.3012,-8.23259
 L 11.7258,-8.90204 L 11.2104,-9.6745 L 10.7554,-10.5487 L 10.3611,-11.5234 L 10.0274,-12.5985 L 9.75439,-13.7742
 L 9.54205,-15.0504 L 9.3904,-16.427 L 9.29939,-17.9042 L 9.26906,-19.4819 L 9.29973,-21.0597 L 9.39171,-22.5375
 L 9.545,-23.9151 L 9.75963,-25.1927 L 10.0356,-26.3702 L 10.3728,-27.4476 L 10.7714,-28.4249 L 11.2313,-29.3022
 L 11.7516,-30.0777 L 12.3313,-30.7499 L 12.9703,-31.3186 L 13.6687,-31.784 L 14.4265,-32.1459 L 15.2436,-32.4044
 L 16.12,-32.5596 L 17.0558,-32.6113 L 18.8613,-32.4061 L 20.4261,-31.7907 L 21.7501,-30.7649 L 22.8333,-29.3289
 L 23.6759,-27.4826 L 24.2777,-25.226 L 24.6388,-22.5591 L 24.7592,-19.4819 L 24.6382,-16.4108 L 24.2751,-13.7492
 L 23.67,-11.4971 L 22.8229,-9.6545 L 21.7337,-8.22134 L 20.4025,-7.19766 L 18.8293,-6.58345 L 17.014,-6.37872
 z
M 43.4411,-15.3622 L 53.7957,-15.3622 L 53.7957,-22.0863 L 43.4411,-22.0863 L 43.4411,-32.1065 L 54.5681,-32.1065
 L 54.5681,-38.8571 L 37.0742,-38.8571 L 37.0742,-0 L 43.4411,-0 z
M 66.3574,-15.3622 L 76.7119,-15.3622 L 76.7119,-22.0863 L 66.3574,-22.0863 L 66.3574,-32.1065 L 77.4843,-32.1065
 L 77.4843,-38.8571 L 59.9904,-38.8571 L 59.9904,-0 L 66.3574,-0 z
" stroke="black" fill="black" stroke-width="0.5"/>
</svg>
