<?xml version="1.0" encoding="UTF-8"?>
<svg xmlns="http://www.w3.org/2000/svg" xmlns:xlink="http://www.w3.org/1999/xlink" width="73.590mm" height="86.207mm" viewBox="40.204926 32.896553 73.590141 86.206894">
    <path style="stroke:none;fill:#000000;fill-rule:evenodd" d="M100.856781,115.102539L100.856781,101.052246L103.127289,101.052246L103.127289,118.947754L100.69809,118.947754L91.298676,104.885254L91.298676,118.947754L89.028168,118.947754L89.028168,101.052246L91.457367,101.052246L100.856781,115.102539z"/>
    <path style="stroke:none;fill:#000000;fill-rule:evenodd" d="M79.604095,101.059814C80.525337,101.061745,81.442436,101.183281,82.332367,101.421387C83.425018,101.747902,84.33017,102.519318,84.825775,103.546387C85.556396,104.963135,85.589027,106.637657,84.914154,108.081787C84.421761,109.047684,83.598297,109.804413,82.59433,110.213623C81.87812,110.512085,81.124489,110.711273,80.35434,110.805664L80.79599,111.030762C81.15033,111.212425,81.48159,111.436058,81.782562,111.696777C82.534973,112.40461,83.195282,113.204361,83.747894,114.077148L86.860687,118.947754L83.882172,118.947754L81.514008,115.224609C80.898956,114.227249,80.218842,113.271477,79.478119,112.363525C78.936829,111.668861,78.156479,111.200317,77.28891,111.049072C76.928459,111.012428,76.566223,110.996368,76.203949,111.000977L73.457367,111.000977L73.457367,118.947754L71.089203,118.947754L71.089203,101.052246L79.023773,101.052246L79.604095,101.059814zM73.457367,103.029785L73.457367,108.950195L78.547699,108.950195C79.406898,108.981781,80.265289,108.868286,81.086761,108.614502C81.9375,108.324768,82.591614,107.634758,82.835541,106.769775C83.062866,106.019707,82.9758,105.20932,82.59433,104.524658C82.208588,103.876411,81.577423,103.411118,80.844086,103.234375C80.281815,103.08831,79.702278,103.019485,79.121429,103.029785L73.457367,103.029785z"/>
    <path style="stroke:none;fill:#000000;fill-rule:evenodd" d="M61.418793,101.060791C62.257069,101.071342,63.088928,101.208725,63.886078,101.468262C66.056572,102.224243,67.279617,104.520699,66.695648,106.743652C66.342255,107.937157,65.484863,108.917282,64.348969,109.42627L64.743011,109.555664C65.925499,109.946541,66.884468,110.824989,67.377289,111.96875C68.131744,113.940712,67.613068,116.172287,66.066254,117.609375C65.438087,118.115494,64.702492,118.470978,63.915619,118.648682C62.969074,118.865562,61.999557,118.965996,61.028656,118.947754L54.204926,118.947754L54.204926,101.052246L60.918793,101.052246L61.418793,101.060791zM56.57309,103.164063L56.57309,108.571777C57.988743,108.58255,59.406666,108.581482,60.822357,108.568604C61.454746,108.582199,62.086342,108.513496,62.701019,108.364258C63.373692,108.202011,63.943291,107.756134,64.262299,107.14209C64.496292,106.620888,64.576416,106.043747,64.493256,105.478516C64.43206,104.875443,64.158203,104.313705,63.720795,103.894043C63.350002,103.57148,62.891739,103.36644,62.404144,103.304932C61.657749,103.196838,60.903801,103.149727,60.14975,103.164063L56.57309,103.164063zM56.57309,110.683594L56.57309,116.835938C58.150738,116.842407,59.727196,116.842041,61.304779,116.834717C62.011047,116.864799,62.717285,116.770157,63.390717,116.555176C64.296295,116.254524,64.97554,115.49688,65.175873,114.563965C65.350906,113.842445,65.28064,113.083145,64.976166,112.406006C64.609749,111.645348,63.914356,111.094772,63.089935,110.912598C62.308937,110.742012,61.510471,110.665138,60.711273,110.683594L56.57309,110.683594z"/>
    <path style="stroke:none;fill:#000000;fill-rule:evenodd" d="M42.57309,116.835938L51.386566,116.835938L51.386566,118.947754L40.204926,118.947754L40.204926,101.052246L42.57309,101.052246L42.57309,116.835938z"/>
    <path style="stroke:none;fill:#000000;fill-rule:evenodd" d="M108.794464,119.099159L108.966103,119.090599L109.137566,119.077759L109.308434,119.056343L109.47834,119.030716L109.647743,119.000854L109.815071,118.962662L109.981621,118.92025L110.147141,118.873688L110.31015,118.818909L110.471703,118.760124L110.63179,118.697311L110.788597,118.626534L110.94352,118.551949L111.096443,118.473511L111.245323,118.387589L111.391968,118.297966L111.536362,118.204689L111.676018,118.104301L111.812996,118.000519L111.947479,117.893311L112.076363,117.779556L112.202309,117.662643L112.325409,117.542603L112.442314,117.416573L112.556099,117.287704L112.666618,117.155991L112.770325,117.019035L112.870667,116.879478L112.967567,116.737427L113.057396,116.590431L113.143349,116.441566L113.225502,116.290558L113.300064,116.135834L113.370758,115.979172L113.437477,115.820732L113.496269,115.659294L113.551018,115.496361L113.601707,115.332069L113.644203,115.165359L113.682396,114.99778L113.716446,114.829247L113.742134,114.659004L113.763519,114.488464L113.780586,114.31739L113.787827,114.18898L113.792656,114.060143L113.795067,113.93103L113.795067,38.068962L113.790756,37.897156L113.782227,37.725517L113.769379,37.554054L113.747993,37.383186L113.722313,37.21328L113.692482,37.043877L113.654289,36.876549L113.611877,36.709999L113.565323,36.544479L113.510498,36.38147L113.451706,36.219917L113.388947,36.05983L113.318169,35.903023L113.243599,35.7481L113.165154,35.595177L113.079208,35.446297L112.989548,35.299652L112.896271,35.155258L112.795937,35.015602L112.692131,34.878624L112.584892,34.744141L112.471191,34.615257L112.354286,34.489311L112.234207,34.366211L112.10817,34.249306L111.979294,34.135521L111.847649,34.025002L111.71067,33.921288L111.571098,33.820953L111.429031,33.724052L111.282051,33.634224L111.133171,33.548271L110.98214,33.466118L110.827484,33.391556L110.670761,33.320862L110.512314,33.254143L110.350929,33.195351L110.188004,33.140602L110.023689,33.089912L109.856964,33.047417L109.689377,33.009224L109.520844,32.975174L109.35067,32.949486L109.180069,32.928101L109.009033,32.911034L108.880585,32.903793L108.751793,32.898964L108.622658,32.896553L67.243347,32.896553L44.829552,55.310345L44.829552,76L48.277828,76L48.277828,58.758621L65.519211,58.758621L65.691017,58.754311L65.862656,58.745777L66.034119,58.732929L66.204987,58.711548L66.374893,58.685863L66.544289,58.656033L66.711624,58.617844L66.878174,58.575428L67.043686,58.528877L67.206711,58.474052L67.368256,58.415257L67.528343,58.352501L67.685158,58.281723L67.840073,58.207153L67.992996,58.128708L68.141876,58.042759L68.288513,57.953102L68.432915,57.859825L68.572571,57.759487L68.709549,57.655685L68.84404,57.548447L68.972916,57.434742L69.098862,57.317841L69.22197,57.197758L69.338867,57.07172L69.452652,56.942844L69.563171,56.811203L69.666878,56.674225L69.767227,56.534653L69.86412,56.392586L69.953949,56.245602L70.039894,56.096725L70.122055,55.94569L70.196625,55.791035L70.267311,55.634312L70.33403,55.475864L70.392822,55.31448L70.447571,55.151554L70.49826,54.987236L70.540756,54.820518L70.578949,54.652931L70.612999,54.484398L70.638687,54.314224L70.660065,54.143616L70.677139,53.97258L70.68438,53.844139L70.689209,53.715347L70.69162,53.586205L70.69162,36.344826L108.622658,36.344826L108.751534,36.349655L108.92205,36.37104L109.089638,36.409309L109.252563,36.46405L109.409203,36.534737L109.558083,36.620605L109.697655,36.720947L109.82653,36.83474L109.943428,36.960693L110.047218,37.097755L110.136795,37.2444L110.211449,37.399223L110.270157,37.560776L110.312569,37.727325L110.338257,37.897331L110.346794,38.068962L110.346794,113.93103L110.341965,114.059875L110.32058,114.230423L110.28231,114.39801L110.22757,114.560928L110.156876,114.71759L110.071014,114.866463L109.970673,115.00602L109.85688,115.134888L109.730927,115.251801L109.593864,115.355583L109.44722,115.445206L109.292397,115.519791L109.130844,115.578575L108.964294,115.620979L108.794289,115.646614L108.622658,115.655174L105.174377,115.655174L105.174377,119.103447L108.622658,119.103447L108.794464,119.099159z"/>
</svg>
