<?xml version="1.0" standalone="no"?>
<!DOCTYPE svg PUBLIC "-//W3C//DTD SVG 1.1//EN" "http://www.w3.org/Graphics/SVG/1.1/DTD/svg11.dtd">
<svg width="87mm" height="101mm" viewBox="-9 -100 87 101" xmlns="http://www.w3.org/2000/svg" version="1.1">
<title>OpenSCAD Model</title>
<path d="
M 5,-70 L 23,-70 L 23.2617,-70.0069 L 23.4707,-70.0178 L 23.9912,-70.0725 L 24.198,-70.1053
 L 24.71,-70.2141 L 24.9122,-70.2683 L 25.4099,-70.43 L 25.6053,-70.505 L 26.0833,-70.7178 L 26.2698,-70.8129
 L 26.7234,-71.0747 L 26.899,-71.1888 L 27.3222,-71.4963 L 27.4849,-71.628 L 27.8738,-71.9782 L 28.0218,-72.1262
 L 28.372,-72.5151 L 28.5037,-72.6778 L 28.8112,-73.101 L 28.9253,-73.2766 L 29.1871,-73.7302 L 29.2822,-73.9167
 L 29.495,-74.3947 L 29.57,-74.5901 L 29.7317,-75.0878 L 29.7859,-75.29 L 29.8947,-75.802 L 29.9275,-76.0088
 L 29.9822,-76.5293 L 29.9931,-76.7383 L 30,-77 L 30,-95 L 63,-95 L 63.2091,-94.989
 L 63.4158,-94.9563 L 63.618,-94.9021 L 63.8135,-94.8271 L 64,-94.7321 L 64.1756,-94.618 L 64.3383,-94.4863
 L 64.4863,-94.3383 L 64.618,-94.1756 L 64.7321,-94 L 64.8271,-93.8135 L 64.9021,-93.618 L 64.9563,-93.4158
 L 64.989,-93.2091 L 65,-93 L 65,-45 L 70,-45 L 70,-93 L 69.9931,-93.2617
 L 69.9822,-93.4707 L 69.9275,-93.9912 L 69.8947,-94.198 L 69.7859,-94.71 L 69.7317,-94.9122 L 69.57,-95.4099
 L 69.495,-95.6053 L 69.2822,-96.0833 L 69.1871,-96.2698 L 68.9253,-96.7234 L 68.8112,-96.899 L 68.5037,-97.3222
 L 68.372,-97.4849 L 68.0218,-97.8738 L 67.8738,-98.0218 L 67.4849,-98.372 L 67.3222,-98.5037 L 66.899,-98.8112
 L 66.7234,-98.9253 L 66.2698,-99.1871 L 66.0833,-99.2822 L 65.6053,-99.495 L 65.4099,-99.57 L 64.9122,-99.7317
 L 64.71,-99.7859 L 64.198,-99.8947 L 63.9912,-99.9275 L 63.4707,-99.9822 L 63.2617,-99.9931 L 63,-100
 L 25,-100 L 0,-75 L 0,-45 L 5,-45 z
M 2.83612,0.432312 L 4.21916,0.305496 L 5.51952,0.0941315 L 6.73718,-0.201767 L 7.87213,-0.58223 L 8.92439,-1.04724
 L 9.89395,-1.59679 L 10.7808,-2.2309 L 11.5736,-2.93851 L 12.2606,-3.70842 L 12.842,-4.54063 L 13.3176,-5.43513
 L 13.6876,-6.39195 L 13.9518,-7.41107 L 14.1104,-8.49248 L 14.1632,-9.6362 L 14.135,-10.4682 L 14.0505,-11.2672
 L 13.9095,-12.0331 L 13.7122,-12.7661 L 13.4586,-13.466 L 13.1485,-14.1329 L 12.7821,-14.7669 L 12.3593,-15.3678
 L 11.8605,-15.9521 L 11.266,-16.536 L 10.5759,-17.1196 L 9.79005,-17.7028 L 8.90857,-18.2856 L 7.9314,-18.8681
 L 6.85857,-19.4502 L 5.69006,-20.0319 L 4.81244,-20.4541 L 4.019,-20.8425 L 3.30972,-21.1972 L 2.68462,-21.5182
 L 2.14369,-21.8054 L 1.68694,-22.0588 L 1.31436,-22.2785 L 1.02597,-22.4644 L 0.788086,-22.6343 L 0.566879,-22.8056
 L 0.36235,-22.9785 L 0.1745,-23.1528 L 0.00334167,-23.3285 L -0.151154,-23.5058 L -0.288956,-23.6845 L -0.41008,-23.8647
 L -0.515747,-24.0497 L -0.607315,-24.2424 L -0.684784,-24.4429 L -0.748184,-24.6511 L -0.797485,-24.8671 L -0.832703,-25.0909
 L -0.853836,-25.3225 L -0.860886,-25.5619 L -0.84346,-25.9443 L -0.791168,-26.3081 L -0.704025,-26.6534 L -0.582016,-26.9801
 L -0.425156,-27.2883 L -0.233444,-27.5779 L -0.00686646,-27.849 L 0.254562,-28.1015 L 0.548706,-28.3295 L 0.87326,-28.5272
 L 1.2282,-28.6944 L 1.61353,-28.8312 L 2.02925,-28.9377 L 2.47539,-29.0137 L 2.9519,-29.0593 L 3.45882,-29.0745
 L 3.89882,-29.0674 L 4.34068,-29.0463 L 4.78441,-29.011 L 5.23,-28.9617 L 5.67743,-28.8983 L 6.12674,-28.8207
 L 6.5779,-28.7291 L 7.03091,-28.6233 L 7.49988,-28.4999 L 7.99889,-28.3549 L 8.52792,-28.1884 L 9.08699,-28.0004
 L 9.6761,-27.7909 L 10.2952,-27.5599 L 10.9444,-27.3073 L 11.6236,-27.0333 L 13.997,-32.7533 L 13.33,-33.0359
 L 12.67,-33.3022 L 12.0171,-33.5522 L 11.3713,-33.7858 L 10.7325,-34.0032 L 10.1007,-34.2042 L 9.47595,-34.3889
 L 8.85826,-34.5572 L 8.2403,-34.7074 L 7.61452,-34.8376 L 6.98094,-34.9478 L 6.33958,-35.0379 L 5.69041,-35.108
 L 5.03345,-35.158 L 4.36868,-35.1881 L 3.69612,-35.1981 L 2.35683,-35.1569 L 1.09207,-35.0334 L -0.0981598,-34.8276
 L -1.21385,-34.5395 L -2.25504,-34.169 L -3.22168,-33.7162 L -4.1138,-33.1811 L -4.93138,-32.5636 L -5.66286,-31.8743
 L -6.2968,-31.1233 L -6.83321,-30.3107 L -7.27209,-29.4367 L -7.61345,-28.501 L -7.85727,-27.5038 L -8.00357,-26.445
 L -8.05234,-25.3246 L -8.03751,-24.7231 L -7.99301,-24.1408 L -7.91885,-23.5778 L -7.81503,-23.0341 L -7.68155,-22.5097
 L -7.5184,-22.0046 L -7.32561,-21.5187 L -7.10313,-21.0521 L -6.85574,-20.6024 L -6.58833,-20.1666 L -6.3009,-19.745
 L -5.99345,-19.3375 L -5.666,-18.944 L -5.31853,-18.5647 L -4.95103,-18.1994 L -4.56354,-17.8482 L -4.14108,-17.5023
 L -3.66896,-17.1526 L -3.14714,-16.7991 L -2.57562,-16.442 L -1.95442,-16.0812 L -1.28354,-15.7167 L -0.562958,-15.3484
 L 0.207321,-14.9765 L 1.02002,-14.5867 L 1.76114,-14.2243 L 2.43069,-13.8894 L 3.02867,-13.5819 L 3.55507,-13.3019
 L 4.00989,-13.0493 L 4.39314,-12.8242 L 4.70482,-12.6266 L 4.97244,-12.4417 L 5.22336,-12.255 L 5.45758,-12.0665
 L 5.67511,-11.876 L 5.87592,-11.6837 L 6.06004,-11.4896 L 6.22745,-11.2936 L 6.37816,-11.0957 L 6.51172,-10.8934
 L 6.62746,-10.6842 L 6.72539,-10.4678 L 6.80551,-10.2444 L 6.86784,-10.0139 L 6.91235,-9.77643 L 6.93906,-9.53186
 L 6.94797,-9.28024 L 6.92775,-8.83742 L 6.86711,-8.42276 L 6.76605,-8.0363 L 6.62457,-7.67802 L 6.44266,-7.34795
 L 6.22032,-7.04604 L 5.95755,-6.77232 L 5.65437,-6.52679 L 5.31335,-6.30991 L 4.9371,-6.12193 L 4.52563,-5.96288
 L 4.07893,-5.83275 L 3.597,-5.73152 L 3.07983,-5.65923 L 2.52744,-5.61584 L 1.93982,-5.60139 L 1.42897,-5.6114
 L 0.905151,-5.64145 L 0.368347,-5.69151 L -0.181442,-5.76161 L -0.744217,-5.85173 L -1.31998,-5.96187 L -1.90871,-6.09204
 L -2.51044,-6.24225 L -3.13544,-6.41692 L -3.79422,-6.6205 L -4.48674,-6.85301 L -5.21304,-7.11444 L -5.97311,-7.40479
 L -6.76694,-7.72406 L -7.59453,-8.07224 L -8.45589,-8.44934 L -8.45589,-1.61385 L -7.36775,-1.12436 L -6.23958,-0.70015
 L -5.07135,-0.341187 L -3.8631,-0.0475006 L -2.61479,0.180908 L -1.32645,0.34407 L 0.00193787,0.441956 L 1.37036,0.474594
 z
M 66.0446,0.467728 L 66.8099,0.447144 L 67.5711,0.412827 L 68.3282,0.364777 L 69.0812,0.303009 L 69.8301,0.227509
 L 70.5749,0.13829 L 71.3156,0.0353394 L 72.0605,-0.0845642 L 72.8176,-0.224884 L 73.587,-0.385605 L 74.3685,-0.566727
 L 75.1624,-0.76825 L 75.9685,-0.990158 L 76.7868,-1.23248 L 77.6173,-1.49519 L 77.6173,-19.4859 L 63.8511,-19.4859
 L 63.8511,-13.3623 L 70.4259,-13.3623 L 70.4259,-6.1236 L 69.8336,-6.01228 L 69.2435,-5.9158 L 68.6557,-5.83417
 L 68.07,-5.76738 L 67.4866,-5.71544 L 66.9055,-5.67833 L 66.3266,-5.65607 L 65.7499,-5.64864 L 64.6791,-5.69518
 L 63.6739,-5.83479 L 62.7343,-6.06749 L 61.8604,-6.39326 L 61.0522,-6.81212 L 60.3095,-7.32405 L 59.6325,-7.92906
 L 59.0211,-8.62714 L 58.4788,-9.41357 L 58.0088,-10.2834 L 57.6111,-11.2368 L 57.2858,-12.2735 L 57.0327,-13.3937
 L 56.8519,-14.5974 L 56.7434,-15.8845 L 56.7073,-17.255 L 56.7522,-18.5733 L 56.8868,-19.8227 L 57.1111,-21.0031
 L 57.4252,-22.1145 L 57.8291,-23.1569 L 58.3226,-24.1303 L 58.906,-25.0348 L 59.579,-25.8702 L 60.3267,-26.6212
 L 61.1337,-27.2721 L 62.0001,-27.8228 L 62.9257,-28.2734 L 63.9107,-28.6239 L 64.955,-28.8742 L 66.0587,-29.0244
 L 67.2216,-29.0745 L 68.2433,-29.0448 L 69.2553,-28.9558 L 70.2577,-28.8075 L 71.2504,-28.5998 L 72.2335,-28.3328
 L 73.207,-28.0064 L 74.1708,-27.6208 L 75.125,-27.1757 L 77.5697,-33.062 L 76.3237,-33.5627 L 75.0657,-33.9966
 L 73.7959,-34.3637 L 72.5143,-34.6641 L 71.2207,-34.8977 L 69.9153,-35.0646 L 68.598,-35.1647 L 67.2689,-35.1981
 L 65.1968,-35.1247 L 63.2408,-34.9044 L 61.4009,-34.5372 L 59.677,-34.0232 L 58.0692,-33.3624 L 56.5775,-32.5547
 L 55.2019,-31.6001 L 53.9423,-30.4986 L 52.8158,-29.2659 L 51.8396,-27.9175 L 51.0135,-26.4534 L 50.3376,-24.8736
 L 49.812,-23.1781 L 49.4365,-21.3669 L 49.2112,-19.44 L 49.1361,-17.3974 L 49.2008,-15.3004 L 49.3949,-13.3292
 L 49.7185,-11.4836 L 50.1715,-9.76376 L 50.7539,-8.16963 L 51.4657,-6.70122 L 52.307,-5.35852 L 53.2776,-4.14154
 L 54.3711,-3.05963 L 55.5806,-2.12198 L 56.9062,-1.32858 L 58.3478,-0.679428 L 59.9056,-0.174545 L 61.5794,0.186081
 L 63.3693,0.402466 L 65.2753,0.474594 z
M 47.0499,-34.6997 L 39.6212,-34.6997 L 33.0468,-14.0507 L 32.6867,-12.7372 L 32.3659,-11.526 L 32.0844,-10.4171
 L 31.8423,-9.41061 L 31.6394,-8.50647 L 31.4759,-7.70467 L 31.3516,-7.00523 L 31.2667,-6.40814 L 31.2242,-6.6687
 L 31.168,-6.9756 L 31.0981,-7.32884 L 31.0144,-7.72842 L 30.9171,-8.17436 L 30.806,-8.66663 L 30.6811,-9.20525
 L 30.5426,-9.79019 L 30.3978,-10.3889 L 30.2541,-10.9688 L 30.1116,-11.5297 L 29.9701,-12.0718 L 29.8298,-12.5949
 L 29.6906,-13.0991 L 29.5525,-13.5844 L 29.4156,-14.0507 L 22.8884,-34.6997 L 15.4597,-34.6997 L 27.2319,-0
 L 35.2542,-0 z
" stroke="black" fill="black" stroke-width="0.5"/>
</svg>
