<?xml version="1.0" standalone="no"?>
<!DOCTYPE svg PUBLIC "-//W3C//DTD SVG 1.1//EN" "http://www.w3.org/Graphics/SVG/1.1/DTD/svg11.dtd">
<svg width="100mm" height="100mm" viewBox="-8 -108 116 116" xmlns="http://www.w3.org/2000/svg" version="1.1">
<title>OpenSCAD Model</title>
<path d="
M 84.1993,-0.00497437 L 84.3984,-0.0149078 L 84.5973,-0.0298004 L 84.7955,-0.0546417 L 84.9926,-0.0843658 L 85.1891,-0.119003
 L 85.3832,-0.163315 L 85.5764,-0.212509 L 85.7684,-0.266525 L 85.9575,-0.330063 L 86.1449,-0.398254 L 86.3306,-0.471115
 L 86.5125,-0.553223 L 86.6922,-0.63974 L 86.8696,-0.730728 L 87.0423,-0.830399 L 87.2124,-0.934357 L 87.3799,-1.04256
 L 87.5419,-1.15901 L 87.7008,-1.2794 L 87.8568,-1.40376 L 88.0063,-1.53571 L 88.1524,-1.67133 L 88.2952,-1.81058
 L 88.4308,-1.95677 L 88.5628,-2.10626 L 88.691,-2.25905 L 88.8113,-2.41792 L 88.9277,-2.5798 L 89.0401,-2.74458
 L 89.1443,-2.9151 L 89.244,-3.08778 L 89.3393,-3.26295 L 89.4258,-3.44243 L 89.5078,-3.62416 L 89.5852,-3.80795
 L 89.6534,-3.99522 L 89.7169,-4.18422 L 89.7757,-4.3748 L 89.825,-4.56818 L 89.8693,-4.76257 L 89.9088,-4.95807
 L 89.9386,-5.15555 L 89.9634,-5.35338 L 89.9832,-5.55183 L 89.9916,-5.70078 L 89.9972,-5.85023 L 90,-6
 L 90,-94 L 89.995,-94.1993 L 89.9851,-94.3984 L 89.9702,-94.5973 L 89.9454,-94.7955 L 89.9156,-94.9926
 L 89.881,-95.1891 L 89.8367,-95.3832 L 89.7875,-95.5764 L 89.7335,-95.7684 L 89.6699,-95.9575 L 89.6017,-96.1449
 L 89.5289,-96.3306 L 89.4468,-96.5125 L 89.3603,-96.6922 L 89.2693,-96.8696 L 89.1696,-97.0423 L 89.0656,-97.2124
 L 88.9574,-97.3799 L 88.841,-97.5419 L 88.7206,-97.7008 L 88.5962,-97.8568 L 88.4643,-98.0063 L 88.3287,-98.1524
 L 88.1894,-98.2952 L 88.0432,-98.4308 L 87.8937,-98.5628 L 87.741,-98.691 L 87.5821,-98.8113 L 87.4202,-98.9277
 L 87.2554,-99.0401 L 87.0849,-99.1443 L 86.9122,-99.244 L 86.737,-99.3393 L 86.5576,-99.4258 L 86.3758,-99.5078
 L 86.192,-99.5852 L 86.0048,-99.6534 L 85.8158,-99.7169 L 85.6252,-99.7757 L 85.4318,-99.825 L 85.2374,-99.8693
 L 85.0419,-99.9088 L 84.8445,-99.9386 L 84.6466,-99.9634 L 84.4482,-99.9832 L 84.2992,-99.9916 L 84.1498,-99.9972
 L 84,-100 L 36,-100 L 10,-74 L 10,-50 L 14,-50 L 14,-70
 L 34,-70 L 34.1993,-70.005 L 34.3984,-70.0149 L 34.5973,-70.0298 L 34.7955,-70.0546 L 34.9926,-70.0844
 L 35.1891,-70.119 L 35.3832,-70.1633 L 35.5764,-70.2125 L 35.7684,-70.2665 L 35.9575,-70.3301 L 36.1449,-70.3983
 L 36.3306,-70.4711 L 36.5125,-70.5532 L 36.6922,-70.6397 L 36.8696,-70.7307 L 37.0423,-70.8304 L 37.2124,-70.9344
 L 37.3799,-71.0426 L 37.5419,-71.159 L 37.7008,-71.2794 L 37.8568,-71.4038 L 38.0063,-71.5357 L 38.1524,-71.6713
 L 38.2952,-71.8106 L 38.4308,-71.9568 L 38.5628,-72.1063 L 38.691,-72.259 L 38.8113,-72.4179 L 38.9277,-72.5798
 L 39.0401,-72.7446 L 39.1443,-72.9151 L 39.244,-73.0878 L 39.3393,-73.263 L 39.4258,-73.4424 L 39.5078,-73.6242
 L 39.5852,-73.808 L 39.6534,-73.9952 L 39.7169,-74.1842 L 39.7757,-74.3748 L 39.825,-74.5682 L 39.8693,-74.7626
 L 39.9088,-74.9581 L 39.9386,-75.1555 L 39.9634,-75.3534 L 39.9832,-75.5518 L 39.9916,-75.7008 L 39.9972,-75.8502
 L 40,-76 L 40,-96 L 84,-96 L 84.1495,-95.9944 L 84.3473,-95.9696 L 84.5417,-95.9252
 L 84.7307,-95.8617 L 84.9124,-95.7797 L 85.0851,-95.6801 L 85.247,-95.5637 L 85.3965,-95.4317 L 85.5321,-95.2856
 L 85.6525,-95.1266 L 85.7564,-94.9565 L 85.843,-94.7769 L 85.9111,-94.5895 L 85.9603,-94.3963 L 85.9901,-94.1991
 L 86,-94 L 86,-6 L 85.9944,-5.85054 L 85.9696,-5.65271 L 85.9252,-5.45831 L 85.8617,-5.26932
 L 85.7797,-5.08759 L 85.6801,-4.9149 L 85.5637,-4.75302 L 85.4317,-4.60353 L 85.2856,-4.46791 L 85.1266,-4.34752
 L 84.9565,-4.24356 L 84.7769,-4.15704 L 84.5895,-4.08885 L 84.3963,-4.03966 L 84.1991,-4.00993 L 84,-4
 L 80,-4 L 80,-0 L 84,-0 z
M 37.4751,0.631866 L 37.6769,0.627655 L 37.8766,0.620636 L 38.0742,0.610794 L 38.2698,0.59816 L 38.4634,0.582703
 L 38.6549,0.564438 L 38.8444,0.54335 L 39.0319,0.519455 L 39.2173,0.492783 L 39.4007,0.463257 L 39.582,0.430939
 L 39.7613,0.395813 L 39.9385,0.35788 L 40.1137,0.317139 L 40.2869,0.273575 L 40.458,0.227203 L 40.6271,0.178024
 L 40.7941,0.126038 L 40.9591,0.071228 L 41.1221,0.0136261 L 41.283,-0.0467834 L 41.4419,-0.110001 L 41.5987,-0.176041
 L 41.7535,-0.244888 L 41.9063,-0.316559 L 42.057,-0.391037 L 42.2057,-0.468307 L 42.3523,-0.548401 L 42.4969,-0.631302
 L 42.6394,-0.71701 L 42.78,-0.805542 L 42.9184,-0.896866 L 43.0549,-0.991013 L 43.1892,-1.08797 L 43.3216,-1.18773
 L 43.4519,-1.29031 L 43.5802,-1.39569 L 43.7064,-1.50388 L 43.8306,-1.61488 L 43.9527,-1.72871 L 44.0728,-1.84534
 L 44.1909,-1.96477 L 44.3069,-2.08701 L 44.4209,-2.21207 L 44.5329,-2.33994 L 44.6426,-2.47037 L 44.7499,-2.60316
 L 44.8548,-2.7383 L 44.9573,-2.87575 L 45.0574,-3.01556 L 45.1551,-3.15773 L 45.2503,-3.30222 L 45.3432,-3.44905
 L 45.4336,-3.59822 L 45.5216,-3.74974 L 45.6072,-3.90359 L 45.6904,-4.0598 L 45.7712,-4.21835 L 45.8496,-4.37924
 L 45.9256,-4.54247 L 45.9991,-4.70802 L 46.0703,-4.87595 L 46.139,-5.04619 L 46.2053,-5.2188 L 46.2692,-5.39372
 L 46.3307,-5.571 L 46.3898,-5.75061 L 46.4465,-5.93257 L 46.5007,-6.11688 L 46.5526,-6.30353 L 46.602,-6.49251
 L 46.649,-6.68384 L 46.6937,-6.8775 L 46.7359,-7.07352 L 46.7757,-7.27188 L 46.813,-7.47256 L 46.848,-7.6756
 L 46.8806,-7.88098 L 46.9107,-8.08871 L 46.9384,-8.29877 L 46.9638,-8.51117 L 46.9867,-8.72592 L 47.0072,-8.94301
 L 47.0253,-9.16245 L 47.0409,-9.3842 L 47.0542,-9.60832 L 47.0651,-9.83478 L 47.0735,-10.0636 L 47.0795,-10.2947
 L 47.0831,-10.5282 L 47.0844,-10.764 L 47.0835,-10.9261 L 47.0811,-11.087 L 47.0771,-11.2466 L 47.0714,-11.405
 L 47.0641,-11.5621 L 47.0551,-11.7179 L 47.0446,-11.8725 L 47.0324,-12.0258 L 47.0186,-12.1778 L 47.0032,-12.3286
 L 46.9861,-12.4781 L 46.9675,-12.6264 L 46.9472,-12.7734 L 46.9253,-12.9191 L 46.9017,-13.0636 L 46.8766,-13.2068
 L 46.8498,-13.3488 L 46.8214,-13.4895 L 46.7914,-13.6289 L 46.7597,-13.767 L 46.7264,-13.904 L 46.6915,-14.0396
 L 46.655,-14.174 L 46.6169,-14.3071 L 46.5771,-14.4389 L 46.5357,-14.5695 L 46.4927,-14.6989 L 46.448,-14.8269
 L 46.4018,-14.9537 L 46.3539,-15.0793 L 46.3044,-15.2036 L 46.2533,-15.3266 L 46.2005,-15.4483 L 46.1461,-15.5688
 L 46.0901,-15.688 L 46.0325,-15.806 L 45.9732,-15.9227 L 45.9124,-16.0382 L 45.8499,-16.1524 L 45.7858,-16.2653
 L 45.72,-16.377 L 45.6526,-16.4874 L 45.5836,-16.5965 L 45.513,-16.7044 L 45.4408,-16.811 L 45.3669,-16.9163
 L 45.2916,-17.0202 L 45.2149,-17.1222 L 45.1368,-17.2225 L 45.0573,-17.321 L 44.9764,-17.4177 L 44.8941,-17.5127
 L 44.8105,-17.6058 L 44.7255,-17.6972 L 44.6391,-17.7868 L 44.5513,-17.8746 L 44.4621,-17.9606 L 44.3716,-18.0448
 L 44.2796,-18.1273 L 44.1863,-18.208 L 44.0916,-18.2869 L 43.9955,-18.364 L 43.8981,-18.4393 L 43.7993,-18.5129
 L 43.699,-18.5846 L 43.5974,-18.6546 L 43.4944,-18.7228 L 43.3901,-18.7892 L 43.2843,-18.8539 L 43.1772,-18.9167
 L 43.0686,-18.9778 L 42.9588,-19.0371 L 42.8475,-19.0946 L 42.7348,-19.1503 L 42.6208,-19.2043 L 42.5053,-19.2564
 L 42.3885,-19.3068 L 42.2704,-19.3554 L 42.1508,-19.4022 L 42.0298,-19.4472 L 41.9075,-19.4905 L 41.7838,-19.5319
 L 41.6587,-19.5716 L 41.5322,-19.6095 L 41.4043,-19.6456 L 41.2751,-19.68 L 41.1445,-19.7125 L 41.0124,-19.7433
 L 40.8791,-19.7723 L 40.7443,-19.7995 L 40.6081,-19.8249 L 40.4706,-19.8486 L 40.4706,-19.9586 L 40.5945,-19.9929
 L 40.7172,-20.0286 L 40.8386,-20.0658 L 40.9587,-20.1045 L 41.0776,-20.1447 L 41.1952,-20.1864 L 41.3115,-20.2295
 L 41.4265,-20.2742 L 41.5403,-20.3203 L 41.6528,-20.3679 L 41.764,-20.417 L 41.874,-20.4676 L 41.9827,-20.5196
 L 42.0901,-20.5732 L 42.1963,-20.6282 L 42.3012,-20.6847 L 42.4048,-20.7427 L 42.5071,-20.8022 L 42.6082,-20.8631
 L 42.708,-20.9256 L 42.8065,-20.9895 L 42.9037,-21.0549 L 42.9997,-21.1218 L 43.0945,-21.1901 L 43.1879,-21.26
 L 43.2801,-21.3313 L 43.371,-21.4041 L 43.4606,-21.4784 L 43.549,-21.5542 L 43.6361,-21.6315 L 43.7219,-21.7102
 L 43.8064,-21.7905 L 43.8897,-21.8722 L 43.9717,-21.9554 L 44.0524,-22.0401 L 44.1319,-22.1262 L 44.2101,-22.2139
 L 44.287,-22.303 L 44.3627,-22.3936 L 44.4371,-22.4857 L 44.5102,-22.5793 L 44.582,-22.6744 L 44.6526,-22.7709
 L 44.7219,-22.869 L 44.7899,-22.9685 L 44.8567,-23.0695 L 44.9221,-23.1718 L 44.9861,-23.2754 L 45.0487,-23.3802
 L 45.1098,-23.4862 L 45.1694,-23.5934 L 45.2277,-23.7019 L 45.2844,-23.8116 L 45.3398,-23.9225 L 45.3937,-24.0346
 L 45.4462,-24.148 L 45.4972,-24.2626 L 45.5468,-24.3783 L 45.595,-24.4954 L 45.6417,-24.6136 L 45.687,-24.7331
 L 45.7309,-24.8538 L 45.7733,-24.9757 L 45.8143,-25.0988 L 45.8538,-25.2232 L 45.8919,-25.3488 L 45.9286,-25.4756
 L 45.9638,-25.6036 L 45.9976,-25.7328 L 46.0299,-25.8633 L 46.0609,-25.995 L 46.0903,-26.1279 L 46.1184,-26.2621
 L 46.145,-26.3974 L 46.1701,-26.534 L 46.1938,-26.6718 L 46.2161,-26.8109 L 46.237,-26.9511 L 46.2564,-27.0926
 L 46.2744,-27.2353 L 46.2909,-27.3793 L 46.306,-27.5244 L 46.3197,-27.6708 L 46.3319,-27.8184 L 46.3427,-27.9672
 L 46.352,-28.1172 L 46.3599,-28.2685 L 46.3664,-28.421 L 46.3714,-28.5747 L 46.375,-28.7296 L 46.3772,-28.8858
 L 46.3779,-29.0432 L 46.3767,-29.2528 L 46.3733,-29.4605 L 46.3675,-29.6662 L 46.3594,-29.8699 L 46.349,-30.0715
 L 46.3363,-30.2713 L 46.3213,-30.469 L 46.304,-30.6647 L 46.2843,-30.8584 L 46.2624,-31.0502 L 46.2382,-31.2399
 L 46.2116,-31.4277 L 46.1827,-31.6135 L 46.1516,-31.7973 L 46.1181,-31.9791 L 46.0823,-32.1589 L 46.0441,-32.3367
 L 46.0037,-32.5125 L 45.961,-32.6863 L 45.916,-32.8582 L 45.8686,-33.028 L 45.819,-33.1959 L 45.767,-33.3618
 L 45.7127,-33.5256 L 45.6561,-33.6875 L 45.5972,-33.8474 L 45.536,-34.0053 L 45.4725,-34.1612 L 45.4067,-34.3152
 L 45.3386,-34.4671 L 45.2681,-34.617 L 45.1954,-34.765 L 45.1203,-34.9109 L 45.0429,-35.0549 L 44.9633,-35.1969
 L 44.8813,-35.3369 L 44.797,-35.4749 L 44.7104,-35.6109 L 44.6214,-35.7449 L 44.5302,-35.8769 L 44.4367,-36.007
 L 44.3408,-36.135 L 44.2427,-36.2611 L 44.1422,-36.3851 L 44.0394,-36.5072 L 43.9343,-36.6273 L 43.8272,-36.7451
 L 43.7183,-36.8603 L 43.6076,-36.9729 L 43.4951,-37.083 L 43.3808,-37.1904 L 43.2647,-37.2953 L 43.1469,-37.3976
 L 43.0272,-37.4973 L 42.9058,-37.5944 L 42.7825,-37.6889 L 42.6575,-37.7808 L 42.5307,-37.8701 L 42.4021,-37.9569
 L 42.2717,-38.041 L 42.1395,-38.1226 L 42.0055,-38.2015 L 41.8697,-38.2779 L 41.7322,-38.3517 L 41.5928,-38.4229
 L 41.4517,-38.4915 L 41.3087,-38.5576 L 41.164,-38.621 L 41.0175,-38.6819 L 40.8692,-38.7401 L 40.7191,-38.7958
 L 40.5672,-38.8489 L 40.4136,-38.8994 L 40.2581,-38.9473 L 40.1008,-38.9926 L 39.9418,-39.0353 L 39.781,-39.0754
 L 39.6183,-39.113 L 39.4539,-39.1479 L 39.2877,-39.1803 L 39.1197,-39.2101 L 38.9499,-39.2372 L 38.7784,-39.2618
 L 38.605,-39.2839 L 38.4298,-39.3033 L 38.2529,-39.3201 L 38.0741,-39.3343 L 37.8936,-39.346 L 37.7113,-39.3551
 L 37.5272,-39.3615 L 37.3413,-39.3654 L 37.1536,-39.3667 L 36.9768,-39.3654 L 36.8015,-39.3613 L 36.6277,-39.3546
 L 36.4553,-39.3453 L 36.2845,-39.3332 L 36.115,-39.3185 L 35.9471,-39.301 L 35.7806,-39.2809 L 35.6155,-39.2582
 L 35.452,-39.2327 L 35.2899,-39.2046 L 35.1292,-39.1737 L 34.9701,-39.1402 L 34.8124,-39.104 L 34.6561,-39.0652
 L 34.5013,-39.0236 L 34.348,-38.9794 L 34.1962,-38.9325 L 34.0458,-38.8829 L 33.8969,-38.8307 L 33.7495,-38.7757
 L 33.6035,-38.7181 L 33.459,-38.6578 L 33.3159,-38.5948 L 33.1743,-38.5291 L 33.0342,-38.4608 L 32.8955,-38.3898
 L 32.7583,-38.3161 L 32.6226,-38.2397 L 32.4884,-38.1606 L 32.3556,-38.0789 L 32.2242,-37.9945 L 32.0944,-37.9073
 L 31.966,-37.8176 L 31.8391,-37.7251 L 31.7136,-37.6299 L 31.5896,-37.5321 L 31.4671,-37.4316 L 31.346,-37.3284
 L 31.2264,-37.2226 L 31.1082,-37.114 L 30.9916,-37.0028 L 30.8764,-36.8889 L 30.7626,-36.7723 L 30.6503,-36.653
 L 30.5395,-36.5311 L 30.4305,-36.4068 L 30.3233,-36.2804 L 30.2182,-36.152 L 30.1151,-36.0215 L 30.014,-35.889
 L 29.9149,-35.7545 L 29.8177,-35.6178 L 29.7225,-35.4791 L 29.6293,-35.3384 L 29.5381,-35.1956 L 29.4489,-35.0507
 L 29.3616,-34.9038 L 29.2764,-34.7548 L 29.1931,-34.6038 L 29.1118,-34.4507 L 29.0325,-34.2956 L 28.9552,-34.1384
 L 28.8798,-33.9792 L 28.8065,-33.8179 L 28.7351,-33.6545 L 28.6657,-33.4891 L 28.5983,-33.3216 L 28.5329,-33.1521
 L 28.4695,-32.9805 L 28.4081,-32.8069 L 28.3486,-32.6311 L 28.2911,-32.4534 L 28.2356,-32.2736 L 28.1821,-32.0917
 L 28.1306,-31.9078 L 28.0811,-31.7218 L 28.0335,-31.5338 L 27.9879,-31.3437 L 27.9444,-31.1516 L 27.9028,-30.9574
 L 27.8632,-30.7611 L 27.8255,-30.5628 L 27.7899,-30.3624 L 27.7562,-30.16 L 27.7245,-29.9556 L 27.6949,-29.749
 L 27.6672,-29.5404 L 27.6414,-29.3298 L 27.6177,-29.1171 L 27.5959,-28.9023 L 27.5762,-28.6855 L 33.091,-28.1346
 L 33.0983,-28.2394 L 33.1064,-28.3432 L 33.1153,-28.4459 L 33.1251,-28.5476 L 33.1357,-28.6483 L 33.1472,-28.7479
 L 33.1595,-28.8465 L 33.1727,-28.944 L 33.1867,-29.0405 L 33.2015,-29.1359 L 33.2172,-29.2303 L 33.2338,-29.3237
 L 33.2511,-29.416 L 33.2694,-29.5073 L 33.2884,-29.5976 L 33.3083,-29.6868 L 33.3291,-29.7749 L 33.3507,-29.8621
 L 33.3731,-29.9481 L 33.3964,-30.0332 L 33.4205,-30.1172 L 33.4455,-30.2001 L 33.4713,-30.282 L 33.498,-30.3629
 L 33.5255,-30.4427 L 33.5538,-30.5215 L 33.583,-30.5993 L 33.6131,-30.676 L 33.6439,-30.7517 L 33.6756,-30.8263
 L 33.7082,-30.8999 L 33.7416,-30.9724 L 33.7759,-31.0439 L 33.811,-31.1144 L 33.8469,-31.1838 L 33.8837,-31.2522
 L 33.9213,-31.3195 L 33.9598,-31.3858 L 33.9991,-31.4511 L 34.0392,-31.5153 L 34.0802,-31.5785 L 34.1221,-31.6406
 L 34.1648,-31.7017 L 34.2083,-31.7618 L 34.2527,-31.8208 L 34.2979,-31.8788 L 34.3439,-31.9356 L 34.3904,-31.9912
 L 34.4377,-32.0455 L 34.4855,-32.0986 L 34.5339,-32.1504 L 34.583,-32.201 L 34.6327,-32.2504 L 34.683,-32.2984
 L 34.7339,-32.3453 L 34.7855,-32.3909 L 34.8377,-32.4352 L 34.8905,-32.4783 L 34.9439,-32.5201 L 34.9979,-32.5607
 L 35.0526,-32.6001 L 35.1079,-32.6382 L 35.1638,-32.675 L 35.2203,-32.7106 L 35.2775,-32.7449 L 35.3353,-32.778
 L 35.3936,-32.8099 L 35.4527,-32.8405 L 35.5123,-32.8698 L 35.5726,-32.8979 L 35.6334,-32.9248 L 35.6949,-32.9504
 L 35.757,-32.9747 L 35.8198,-32.9978 L 35.8832,-33.0197 L 35.9472,-33.0403 L 36.0118,-33.0597 L 36.077,-33.0778
 L 36.1428,-33.0947 L 36.2093,-33.1103 L 36.2764,-33.1246 L 36.3441,-33.1377 L 36.4125,-33.1496 L 36.4814,-33.1602
 L 36.551,-33.1696 L 36.6212,-33.1777 L 36.692,-33.1846 L 36.7635,-33.1902 L 36.8355,-33.1946 L 36.9082,-33.1977
 L 36.9815,-33.1996 L 37.0555,-33.2002 L 37.1344,-33.1995 L 37.2125,-33.1976 L 37.2898,-33.1944 L 37.3663,-33.1899
 L 37.442,-33.1841 L 37.5168,-33.177 L 37.5908,-33.1686 L 37.664,-33.159 L 37.7363,-33.148 L 37.8078,-33.1358
 L 37.8785,-33.1222 L 37.9484,-33.1074 L 38.0174,-33.0913 L 38.0856,-33.0739 L 38.153,-33.0553 L 38.2196,-33.0353
 L 38.2853,-33.014 L 38.3503,-32.9915 L 38.4144,-32.9677 L 38.4776,-32.9426 L 38.5401,-32.9162 L 38.6017,-32.8885
 L 38.6624,-32.8595 L 38.7224,-32.8292 L 38.7816,-32.7977 L 38.8399,-32.7648 L 38.8974,-32.7307 L 38.954,-32.6953
 L 39.0098,-32.6585 L 39.0648,-32.6205 L 39.119,-32.5813 L 39.1724,-32.5407 L 39.2249,-32.4988 L 39.2766,-32.4557
 L 39.3275,-32.4112 L 39.3776,-32.3655 L 39.4268,-32.3185 L 39.4752,-32.2702 L 39.5228,-32.2206 L 39.5695,-32.1697
 L 39.6155,-32.1175 L 39.6606,-32.0641 L 39.7048,-32.0093 L 39.7483,-31.9533 L 39.7909,-31.896 L 39.8327,-31.8374
 L 39.8736,-31.7776 L 39.9137,-31.7169 L 39.9528,-31.6552 L 39.9911,-31.5926 L 40.0284,-31.5289 L 40.0648,-31.4643
 L 40.1004,-31.3987 L 40.135,-31.3321 L 40.1688,-31.2646 L 40.2016,-31.1961 L 40.2335,-31.1266 L 40.2646,-31.0561
 L 40.2947,-30.9847 L 40.324,-30.9122 L 40.3523,-30.8389 L 40.3797,-30.7645 L 40.4063,-30.6891 L 40.4319,-30.6128
 L 40.4567,-30.5355 L 40.4805,-30.4572 L 40.5034,-30.378 L 40.5255,-30.2978 L 40.5466,-30.2166 L 40.5669,-30.1344
 L 40.5862,-30.0513 L 40.6047,-29.9671 L 40.6222,-29.882 L 40.6389,-29.796 L 40.6546,-29.7089 L 40.6694,-29.6209
 L 40.6834,-29.5319 L 40.6964,-29.4419 L 40.7086,-29.351 L 40.7198,-29.259 L 40.7302,-29.1661 L 40.7396,-29.0722
 L 40.7482,-28.9774 L 40.7558,-28.8815 L 40.7626,-28.7847 L 40.7684,-28.687 L 40.7734,-28.5882 L 40.7774,-28.4885
 L 40.7806,-28.3878 L 40.7828,-28.2861 L 40.7842,-28.1834 L 40.7846,-28.0798 L 40.784,-27.9702 L 40.7823,-27.8618
 L 40.7795,-27.7544 L 40.7755,-27.6482 L 40.7705,-27.543 L 40.7642,-27.439 L 40.7569,-27.3361 L 40.7484,-27.2342
 L 40.7388,-27.1335 L 40.728,-27.0339 L 40.7161,-26.9354 L 40.7031,-26.838 L 40.689,-26.7417 L 40.6737,-26.6465
 L 40.6573,-26.5524 L 40.6398,-26.4594 L 40.6211,-26.3676 L 40.6013,-26.2768 L 40.5803,-26.1871 L 40.5583,-26.0986
 L 40.5351,-26.0111 L 40.5107,-25.9248 L 40.4853,-25.8395 L 40.4587,-25.7554 L 40.431,-25.6724 L 40.4021,-25.5904
 L 40.3721,-25.5096 L 40.341,-25.4299 L 40.3087,-25.3513 L 40.2754,-25.2738 L 40.2408,-25.1974 L 40.2052,-25.1221
 L 40.1684,-25.0479 L 40.1305,-24.9749 L 40.0915,-24.9029 L 40.0513,-24.832 L 40.01,-24.7623 L 39.9675,-24.6936
 L 39.924,-24.6261 L 39.8793,-24.5596 L 39.8334,-24.4943 L 39.7865,-24.4301 L 39.7384,-24.367 L 39.6891,-24.3049
 L 39.6388,-24.244 L 39.5873,-24.1842 L 39.5347,-24.1256 L 39.481,-24.0683 L 39.4261,-24.0123 L 39.3701,-23.9576
 L 39.3131,-23.9041 L 39.2549,-23.852 L 39.1956,-23.8011 L 39.1352,-23.7516 L 39.0737,-23.7032 L 39.0111,-23.6562
 L 38.9473,-23.6105 L 38.8825,-23.5661 L 38.8165,-23.523 L 38.7494,-23.4811 L 38.6812,-23.4406 L 38.6119,-23.4013
 L 38.5415,-23.3633 L 38.47,-23.3266 L 38.3973,-23.2912 L 38.3236,-23.2571 L 38.2487,-23.2242 L 38.1727,-23.1927
 L 38.0956,-23.1624 L 38.0174,-23.1334 L 37.9381,-23.1058 L 37.8577,-23.0794 L 37.7761,-23.0542 L 37.6935,-23.0304
 L 37.6097,-23.0079 L 37.5248,-22.9866 L 37.4388,-22.9667 L 37.3517,-22.948 L 37.2635,-22.9306 L 37.1741,-22.9145
 L 37.0837,-22.8997 L 36.9921,-22.8862 L 36.8994,-22.874 L 36.8057,-22.863 L 36.7108,-22.8534 L 36.6147,-22.845
 L 36.5176,-22.8379 L 36.4194,-22.8321 L 36.32,-22.8276 L 36.2196,-22.8244 L 36.118,-22.8225 L 36.0153,-22.8218
 L 34.2096,-22.8218 L 34.2096,-16.5725 L 36.1331,-16.5725 L 36.2468,-16.5718 L 36.3593,-16.5699 L 36.4706,-16.5666
 L 36.5807,-16.5621 L 36.6895,-16.5562 L 36.7971,-16.5491 L 36.9035,-16.5406 L 37.0087,-16.5308 L 37.1126,-16.5198
 L 37.2153,-16.5074 L 37.3168,-16.4938 L 37.4171,-16.4788 L 37.5161,-16.4625 L 37.6139,-16.445 L 37.7105,-16.4261
 L 37.8059,-16.4059 L 37.9,-16.3845 L 37.993,-16.3617 L 38.0846,-16.3376 L 38.1751,-16.3123 L 38.2644,-16.2856
 L 38.3524,-16.2576 L 38.4392,-16.2283 L 38.5247,-16.1977 L 38.6091,-16.1659 L 38.6922,-16.1327 L 38.7741,-16.0982
 L 38.8548,-16.0624 L 38.9342,-16.0253 L 39.0125,-15.987 L 39.0895,-15.9473 L 39.1652,-15.9063 L 39.2398,-15.864
 L 39.3131,-15.8204 L 39.3852,-15.7755 L 39.4561,-15.7293 L 39.5257,-15.6818 L 39.5942,-15.6331 L 39.6614,-15.583
 L 39.7274,-15.5316 L 39.7921,-15.4789 L 39.8557,-15.4249 L 39.918,-15.3696 L 39.979,-15.313 L 40.0389,-15.2551
 L 40.0975,-15.1959 L 40.1549,-15.1355 L 40.2111,-15.0739 L 40.2659,-15.0112 L 40.3195,-14.9474 L 40.3719,-14.8824
 L 40.423,-14.8162 L 40.4728,-14.749 L 40.5213,-14.6806 L 40.5686,-14.611 L 40.6147,-14.5403 L 40.6595,-14.4684
 L 40.703,-14.3954 L 40.7452,-14.3213 L 40.7862,-14.246 L 40.826,-14.1695 L 40.8644,-14.0919 L 40.9016,-14.0132
 L 40.9376,-13.9333 L 40.9723,-13.8523 L 41.0057,-13.7702 L 41.0379,-13.6869 L 41.0688,-13.6024 L 41.0984,-13.5168
 L 41.1268,-13.4301 L 41.1539,-13.3422 L 41.1798,-13.2532 L 41.2044,-13.163 L 41.2277,-13.0717 L 41.2498,-12.9792
 L 41.2706,-12.8856 L 41.2901,-12.7908 L 41.3084,-12.6949 L 41.3255,-12.5979 L 41.3412,-12.4997 L 41.3557,-12.4003
 L 41.369,-12.2999 L 41.381,-12.1982 L 41.3917,-12.0955 L 41.4011,-11.9916 L 41.4093,-11.8865 L 41.4163,-11.7803
 L 41.4219,-11.6729 L 41.4264,-11.5644 L 41.4295,-11.4548 L 41.4314,-11.344 L 41.432,-11.2321 L 41.4315,-11.1095
 L 41.43,-10.9883 L 41.4274,-10.8684 L 41.4237,-10.75 L 41.4191,-10.6329 L 41.4133,-10.5172 L 41.4066,-10.4028
 L 41.3988,-10.2899 L 41.39,-10.1783 L 41.3801,-10.0681 L 41.3692,-9.95934 L 41.3572,-9.85191 L 41.3442,-9.74586
 L 41.3302,-9.64119 L 41.3152,-9.5379 L 41.2991,-9.43599 L 41.2819,-9.33545 L 41.2637,-9.2363 L 41.2445,-9.13852
 L 41.2242,-9.04211 L 41.2029,-8.94711 L 41.1806,-8.85345 L 41.1572,-8.76122 L 41.1328,-8.67032 L 41.1074,-8.58083
 L 41.0809,-8.49269 L 41.0533,-8.40596 L 41.0248,-8.32059 L 40.9951,-8.2366 L 40.9645,-8.15399 L 40.9328,-8.07277
 L 40.9001,-7.99294 L 40.8663,-7.91444 L 40.8315,-7.83736 L 40.7957,-7.76164 L 40.7588,-7.68732 L 40.7209,-7.61436
 L 40.6819,-7.54279 L 40.6419,-7.4726 L 40.6009,-7.40378 L 40.5588,-7.33635 L 40.5157,-7.27028 L 40.4715,-7.2056
 L 40.4263,-7.1423 L 40.3801,-7.08038 L 40.3328,-7.01984 L 40.2846,-6.96065 L 40.2356,-6.90277 L 40.1857,-6.84619
 L 40.135,-6.79091 L 40.0835,-6.73692 L 40.0311,-6.68423 L 39.9779,-6.63286 L 39.9239,-6.58279 L 39.869,-6.53401
 L 39.8133,-6.48653 L 39.7568,-6.44035 L 39.6994,-6.39548 L 39.6411,-6.3519 L 39.5821,-6.30963 L 39.5222,-6.26866
 L 39.4615,-6.22897 L 39.3999,-6.1906 L 39.3376,-6.15353 L 39.2743,-6.11775 L 39.2103,-6.08328 L 39.1454,-6.05013
 L 39.0797,-6.01826 L 39.0131,-5.98769 L 38.9457,-5.95842 L 38.8775,-5.93045 L 38.8084,-5.90379 L 38.7385,-5.87842
 L 38.6677,-5.85435 L 38.5962,-5.83159 L 38.5238,-5.81012 L 38.4505,-5.78998 L 38.3764,-5.77112 L 38.3015,-5.75356
 L 38.2258,-5.73729 L 38.1492,-5.72234 L 38.0718,-5.70868 L 37.9935,-5.69632 L 37.9144,-5.68526 L 37.8345,-5.67551
 L 37.7538,-5.66705 L 37.6722,-5.6599 L 37.5898,-5.65404 L 37.5065,-5.64949 L 37.4224,-5.64624 L 37.3375,-5.64429
 L 37.2517,-5.64363 L 37.0793,-5.64629 L 36.9101,-5.65419 L 36.7443,-5.6674 L 36.5817,-5.6859 L 36.4224,-5.70967
 L 36.2664,-5.73872 L 36.1137,-5.77306 L 35.9642,-5.81267 L 35.8181,-5.85756 L 35.6752,-5.90773 L 35.5356,-5.96321
 L 35.3993,-6.02394 L 35.2663,-6.08998 L 35.1365,-6.16127 L 35.0101,-6.23787 L 34.8869,-6.31975 L 34.767,-6.40691
 L 34.6504,-6.49934 L 34.537,-6.59706 L 34.427,-6.70006 L 34.3203,-6.80833 L 34.2168,-6.92191 L 34.1166,-7.04074
 L 34.0197,-7.16487 L 33.926,-7.29428 L 33.8357,-7.42899 L 33.7486,-7.56895 L 33.6649,-7.7142 L 33.5844,-7.86475
 L 33.5071,-8.02057 L 33.4332,-8.18167 L 33.3626,-8.34805 L 33.2952,-8.51973 L 33.2311,-8.69669 L 33.1703,-8.87891
 L 33.1128,-9.06642 L 33.0586,-9.25922 L 33.0076,-9.45729 L 32.96,-9.66066 L 32.9156,-9.86931 L 32.8745,-10.0832
 L 32.8367,-10.3024 L 32.8022,-10.5269 L 32.7709,-10.7567 L 32.7429,-10.9917 L 32.7183,-11.2321 L 27.105,-10.5436
 L 27.1257,-10.309 L 27.1484,-10.0768 L 27.1732,-9.84702 L 27.2,-9.61966 L 27.2289,-9.39468 L 27.2599,-9.17213
 L 27.2929,-8.95198 L 27.3279,-8.73425 L 27.3651,-8.51892 L 27.4043,-8.30598 L 27.4455,-8.09546 L 27.4888,-7.88734
 L 27.5342,-7.68163 L 27.5816,-7.47832 L 27.6311,-7.27744 L 27.6826,-7.07893 L 27.7363,-6.88287 L 27.7919,-6.68918
 L 27.8496,-6.49791 L 27.9094,-6.30904 L 27.9713,-6.12259 L 28.0352,-5.93854 L 28.1011,-5.7569 L 28.1691,-5.57767
 L 28.2392,-5.40083 L 28.3113,-5.22641 L 28.3855,-5.05438 L 28.4618,-4.88478 L 28.5401,-4.71758 L 28.6205,-4.55278
 L 28.7029,-4.3904 L 28.7874,-4.23041 L 28.8739,-4.07283 L 28.9626,-3.91766 L 29.0532,-3.76489 L 29.146,-3.61453
 L 29.2407,-3.46658 L 29.3376,-3.32104 L 29.4365,-3.1779 L 29.5374,-3.03717 L 29.6405,-2.89883 L 29.7455,-2.76292
 L 29.8527,-2.62941 L 29.9619,-2.49831 L 30.0731,-2.3696 L 30.1864,-2.24332 L 30.3016,-2.11961 L 30.4186,-1.99861
 L 30.5372,-1.88034 L 30.6576,-1.76479 L 30.7797,-1.65195 L 30.9036,-1.54184 L 31.0291,-1.43445 L 31.1564,-1.32976
 L 31.2854,-1.2278 L 31.4161,-1.12856 L 31.5486,-1.03203 L 31.6828,-0.938232 L 31.8187,-0.847153 L 31.9563,-0.758789
 L 32.0957,-0.673126 L 32.2368,-0.590195 L 32.3796,-0.509995 L 32.5241,-0.43251 L 32.6703,-0.357742 L 32.8183,-0.285675
 L 32.968,-0.216354 L 33.1195,-0.14975 L 33.2726,-0.0858459 L 33.4275,-0.0246582 L 33.5841,0.0337524 L 33.7425,0.0895081
 L 33.9025,0.142517 L 34.0643,0.19281 L 34.2278,0.240402 L 34.3931,0.285263 L 34.56,0.327393 L 34.7287,0.366821
 L 34.8991,0.403534 L 35.0712,0.437515 L 35.2451,0.468796 L 35.4207,0.49733 L 35.598,0.523163 L 35.777,0.54628
 L 35.9578,0.566666 L 36.1403,0.584351 L 36.3245,0.599289 L 36.5104,0.611526 L 36.698,0.621048 L 36.8874,0.627853
 L 37.0785,0.631912 L 37.2714,0.633286 z
M 13.4243,-15.4439 L 20.3718,-0 L 26.4559,-0 L 17.2513,-20.399 L 25.6513,-38.7886 L 19.5672,-38.7886
 L 13.4243,-25.0789 L 7.28114,-38.7886 L 1.15794,-38.7886 L 9.93076,-20.399 L 0.353363,-0 L 6.47656,-0
 z
M 62.0616,-0.00111389 L 62.2327,-0.00447083 L 62.403,-0.0100555 L 62.5724,-0.0178986 L 62.741,-0.0279541 L 62.9087,-0.0402679
 L 63.0756,-0.0548096 L 63.2417,-0.0715942 L 63.4069,-0.0906219 L 63.5712,-0.111877 L 63.7348,-0.135376 L 63.8974,-0.161118
 L 64.0592,-0.189072 L 64.2202,-0.219284 L 64.3804,-0.25174 L 64.5397,-0.286423 L 64.6981,-0.323349 L 64.8557,-0.362503
 L 65.0125,-0.4039 L 65.1684,-0.44754 L 65.3234,-0.493408 L 65.4777,-0.541534 L 65.631,-0.591873 L 65.7836,-0.64447
 L 65.9353,-0.69928 L 66.0861,-0.756348 L 66.2361,-0.815643 L 66.3853,-0.877182 L 66.5336,-0.940964 L 66.681,-1.00697
 L 66.8277,-1.07523 L 66.9734,-1.14572 L 67.1184,-1.21844 L 67.2625,-1.29341 L 67.4057,-1.37062 L 67.5481,-1.45006
 L 67.6897,-1.53174 L 67.8304,-1.61565 L 67.9703,-1.70181 L 68.1093,-1.79021 L 68.2475,-1.88083 L 68.3848,-1.97369
 L 68.5213,-2.0688 L 68.6569,-2.16615 L 68.7917,-2.26572 L 68.9257,-2.36754 L 69.0586,-2.47147 L 69.1902,-2.57739
 L 69.3204,-2.6853 L 69.4493,-2.79521 L 69.577,-2.9071 L 69.7033,-3.021 L 69.8282,-3.13686 L 69.9519,-3.25473
 L 70.0743,-3.37457 L 70.1953,-3.49641 L 70.315,-3.62027 L 70.4334,-3.74609 L 70.5505,-3.87392 L 70.6663,-4.00371
 L 70.7807,-4.1355 L 70.8938,-4.26929 L 71.0057,-4.40508 L 71.1162,-4.54283 L 71.2253,-4.6826 L 71.3332,-4.82434
 L 71.4398,-4.96808 L 71.545,-5.11382 L 71.6489,-5.26154 L 71.7515,-5.41124 L 71.8528,-5.56294 L 71.9527,-5.71661
 L 72.0514,-5.8723 L 72.1487,-6.02997 L 72.2447,-6.18964 L 72.3394,-6.35129 L 72.4328,-6.51494 L 72.5248,-6.68056
 L 72.6156,-6.84818 L 72.705,-7.01778 L 72.7931,-7.18938 L 72.8799,-7.36298 L 72.9653,-7.53856 L 73.0495,-7.71614
 L 73.1323,-7.89571 L 73.2139,-8.07726 L 73.2941,-8.26079 L 73.373,-8.44633 L 73.4505,-8.63385 L 73.5268,-8.82336
 L 73.6017,-9.01488 L 73.6753,-9.20837 L 73.7475,-9.40359 L 73.8181,-9.60027 L 73.8871,-9.7984 L 73.9545,-9.99796
 L 74.0203,-10.199 L 74.0845,-10.4014 L 74.1472,-10.6053 L 74.2082,-10.8106 L 74.2677,-11.0174 L 74.3256,-11.2256
 L 74.3819,-11.4353 L 74.4366,-11.6464 L 74.4898,-11.859 L 74.5413,-12.073 L 74.5913,-12.2884 L 74.6396,-12.5053
 L 74.6864,-12.7236 L 74.7316,-12.9434 L 74.7752,-13.1646 L 74.8173,-13.3873 L 74.8577,-13.6114 L 74.8966,-13.837
 L 74.9339,-14.0639 L 74.9695,-14.2924 L 75.0036,-14.5223 L 75.0361,-14.7536 L 75.0671,-14.9864 L 75.0964,-15.2206
 L 75.1242,-15.4562 L 75.1503,-15.6933 L 75.1749,-15.9319 L 75.1979,-16.1719 L 75.2193,-16.4133 L 75.2392,-16.6562
 L 75.2574,-16.9005 L 75.2741,-17.1463 L 75.2891,-17.3935 L 75.3026,-17.6421 L 75.3145,-17.8922 L 75.3248,-18.1438
 L 75.3335,-18.3968 L 75.3407,-18.6512 L 75.3462,-18.9071 L 75.3502,-19.1644 L 75.3526,-19.4231 L 75.3534,-19.6833
 L 75.3515,-20.0823 L 75.3461,-20.4772 L 75.3371,-20.868 L 75.3244,-21.2548 L 75.3081,-21.6376 L 75.2882,-22.0163
 L 75.2647,-22.391 L 75.2376,-22.7616 L 75.2069,-23.1282 L 75.1725,-23.4907 L 75.1345,-23.8492 L 75.0929,-24.2036
 L 75.0477,-24.554 L 74.9989,-24.9003 L 74.9464,-25.2426 L 74.8903,-25.5809 L 74.8306,-25.9151 L 74.7673,-26.2452
 L 74.7004,-26.5714 L 74.6299,-26.8934 L 74.5557,-27.2114 L 74.4779,-27.5254 L 74.3965,-27.8353 L 74.3115,-28.1412
 L 74.2229,-28.443 L 74.1307,-28.7408 L 74.0348,-29.0346 L 73.9353,-29.3242 L 73.8322,-29.6099 L 73.7255,-29.8915
 L 73.6152,-30.1691 L 73.5012,-30.4426 L 73.3837,-30.7121 L 73.2625,-30.9775 L 73.1377,-31.2388 L 73.0093,-31.4962
 L 72.8772,-31.7494 L 72.7416,-31.9987 L 72.6023,-32.2439 L 72.4594,-32.485 L 72.3129,-32.7221 L 72.1628,-32.9551
 L 72.009,-33.1841 L 71.8517,-33.4091 L 71.6907,-33.63 L 71.5261,-33.8469 L 71.3582,-34.0594 L 71.1874,-34.2672
 L 71.0135,-34.4704 L 70.8367,-34.6689 L 70.6568,-34.8628 L 70.474,-35.052 L 70.2882,-35.2364 L 70.0994,-35.4163
 L 69.9076,-35.5914 L 69.7129,-35.7619 L 69.5151,-35.9277 L 69.3144,-36.0889 L 69.1107,-36.2453 L 68.904,-36.3971
 L 68.6943,-36.5443 L 68.4816,-36.6868 L 68.2659,-36.8245 L 68.0473,-36.9576 L 67.8256,-37.0861 L 67.601,-37.2099
 L 67.3734,-37.329 L 67.1428,-37.4434 L 66.9092,-37.5532 L 66.6726,-37.6583 L 66.433,-37.7587 L 66.1905,-37.8544
 L 65.945,-37.9455 L 65.6964,-38.0319 L 65.4449,-38.1137 L 65.1904,-38.1908 L 64.9329,-38.2631 L 64.6725,-38.3309
 L 64.409,-38.3939 L 64.1426,-38.4523 L 63.8732,-38.506 L 63.6007,-38.5551 L 63.3253,-38.5995 L 63.047,-38.6391
 L 62.7656,-38.6742 L 62.4812,-38.7045 L 62.1939,-38.7302 L 61.9035,-38.7513 L 61.6102,-38.7676 L 61.3139,-38.7793
 L 61.0146,-38.7863 L 60.7123,-38.7886 L 50.7028,-38.7886 L 50.7028,-0 L 61.8897,-0 z
M 56.4926,-6.27652 L 56.4926,-32.5121 L 60.5945,-32.5121 L 60.7805,-32.5105 L 60.9645,-32.5059 L 61.1467,-32.4981
 L 61.327,-32.4872 L 61.5055,-32.4732 L 61.6821,-32.4561 L 61.8568,-32.4359 L 62.0296,-32.4126 L 62.2005,-32.3861
 L 62.3696,-32.3566 L 62.5368,-32.3239 L 62.7021,-32.2882 L 62.8656,-32.2493 L 63.0272,-32.2073 L 63.1869,-32.1623
 L 63.3447,-32.114 L 63.5007,-32.0627 L 63.6548,-32.0083 L 63.807,-31.9508 L 63.9573,-31.8902 L 64.1058,-31.8264
 L 64.2524,-31.7596 L 64.3971,-31.6896 L 64.54,-31.6165 L 64.6809,-31.5403 L 64.82,-31.461 L 64.9573,-31.3786
 L 65.0926,-31.2931 L 65.2261,-31.2045 L 65.3577,-31.1128 L 65.4874,-31.0179 L 65.6153,-30.92 L 65.7413,-30.8189
 L 65.8654,-30.7148 L 65.9876,-30.6075 L 66.108,-30.4971 L 66.2265,-30.3836 L 66.3431,-30.267 L 66.4578,-30.1473
 L 66.5707,-30.0244 L 66.6817,-29.8985 L 66.7908,-29.7695 L 66.8981,-29.6373 L 67.0034,-29.502 L 67.1069,-29.3637
 L 67.2086,-29.2222 L 67.3082,-29.0777 L 67.4056,-28.9305 L 67.5008,-28.7805 L 67.5938,-28.6276 L 67.6847,-28.472
 L 67.7733,-28.3136 L 67.8598,-28.1524 L 67.9441,-27.9884 L 68.0262,-27.8216 L 68.106,-27.6519 L 68.1838,-27.4796
 L 68.2593,-27.3043 L 68.3326,-27.1263 L 68.4038,-26.9455 L 68.4727,-26.7619 L 68.5395,-26.5756 L 68.604,-26.3864
 L 68.6664,-26.1944 L 68.7266,-25.9996 L 68.7846,-25.802 L 68.8405,-25.6017 L 68.8941,-25.3985 L 68.9455,-25.1925
 L 68.9948,-24.9837 L 69.0418,-24.7722 L 69.0867,-24.5578 L 69.1294,-24.3407 L 69.1699,-24.1207 L 69.2082,-23.898
 L 69.2443,-23.6724 L 69.2782,-23.4441 L 69.31,-23.213 L 69.3395,-22.979 L 69.3669,-22.7423 L 69.3921,-22.5027
 L 69.4151,-22.2604 L 69.4359,-22.0153 L 69.4545,-21.7674 L 69.4709,-21.5167 L 69.4851,-21.2632 L 69.4971,-21.0069
 L 69.507,-20.7477 L 69.5146,-20.4858 L 69.5201,-20.2211 L 69.5234,-19.9536 L 69.5245,-19.6833 L 69.5235,-19.4153
 L 69.5204,-19.1496 L 69.5152,-18.8864 L 69.5079,-18.6257 L 69.4985,-18.3674 L 69.4871,-18.1115 L 69.4736,-17.8581
 L 69.458,-17.6071 L 69.4404,-17.3586 L 69.4206,-17.1125 L 69.3988,-16.8689 L 69.3749,-16.6277 L 69.3489,-16.389
 L 69.3209,-16.1527 L 69.2908,-15.9188 L 69.2586,-15.6874 L 69.2243,-15.4585 L 69.1879,-15.232 L 69.1495,-15.0079
 L 69.109,-14.7863 L 69.0664,-14.5671 L 69.0217,-14.3504 L 68.975,-14.1361 L 68.9261,-13.9243 L 68.8752,-13.7149
 L 68.8223,-13.5079 L 68.7672,-13.3035 L 68.7101,-13.1014 L 68.6509,-12.9018 L 68.5896,-12.7046 L 68.5262,-12.5099
 L 68.4608,-12.3176 L 68.3932,-12.1278 L 68.3236,-11.9404 L 68.252,-11.7555 L 68.1782,-11.573 L 68.1024,-11.393
 L 68.0244,-11.2154 L 67.9445,-11.0402 L 67.8624,-10.8675 L 67.7783,-10.6973 L 67.692,-10.5295 L 67.6037,-10.3641
 L 67.5134,-10.2012 L 67.4209,-10.0407 L 67.3264,-9.88268 L 67.2301,-9.72757 L 67.1323,-9.5759 L 67.0331,-9.42764
 L 66.9325,-9.28278 L 66.8304,-9.14133 L 66.7269,-9.0033 L 66.6219,-8.86865 L 66.5155,-8.73743 L 66.4076,-8.60962
 L 66.2983,-8.4852 L 66.1875,-8.36421 L 66.0753,-8.24661 L 65.9617,-8.13243 L 65.8466,-8.02165 L 65.73,-7.91429
 L 65.612,-7.81033 L 65.4926,-7.70978 L 65.3717,-7.61264 L 65.2493,-7.51891 L 65.1255,-7.42859 L 65.0003,-7.34167
 L 64.8736,-7.25816 L 64.7455,-7.17807 L 64.6159,-7.10138 L 64.4849,-7.02809 L 64.3524,-6.95822 L 64.2185,-6.89175
 L 64.0831,-6.82869 L 63.9463,-6.76904 L 63.8081,-6.71281 L 63.6684,-6.65997 L 63.5272,-6.61057 L 63.3846,-6.56454
 L 63.2406,-6.52193 L 63.0951,-6.48274 L 62.9481,-6.44695 L 62.7997,-6.41457 L 62.6499,-6.38559 L 62.4986,-6.36005
 L 62.3459,-6.33788 L 62.1917,-6.31914 L 62.0361,-6.30379 L 61.879,-6.29187 L 61.7205,-6.28336 L 61.5605,-6.27823
 L 61.3991,-6.27652 z
" stroke="white" fill="white" stroke-width="0.5"/>
</svg>
