<?xml version="1.0" standalone="no"?>
<!DOCTYPE svg PUBLIC "-//W3C//DTD SVG 1.1//EN" "http://www.w3.org/Graphics/SVG/1.1/DTD/svg11.dtd">
<svg width="96mm" height="101mm" viewBox="-13 -100 96 101" xmlns="http://www.w3.org/2000/svg" version="1.1">
<title>OpenSCAD Model</title>
<path d="
M 5,-70 L 23,-70 L 23.2617,-70.0069 L 23.4707,-70.0178 L 23.9912,-70.0725 L 24.198,-70.1053
 L 24.71,-70.2141 L 24.9122,-70.2683 L 25.4099,-70.43 L 25.6053,-70.505 L 26.0833,-70.7178 L 26.2698,-70.8129
 L 26.7234,-71.0747 L 26.899,-71.1888 L 27.3222,-71.4963 L 27.4849,-71.628 L 27.8738,-71.9782 L 28.0218,-72.1262
 L 28.372,-72.5151 L 28.5037,-72.6778 L 28.8112,-73.101 L 28.9253,-73.2766 L 29.1871,-73.7302 L 29.2822,-73.9167
 L 29.495,-74.3947 L 29.57,-74.5901 L 29.7317,-75.0878 L 29.7859,-75.29 L 29.8947,-75.802 L 29.9275,-76.0088
 L 29.9822,-76.5293 L 29.9931,-76.7383 L 30,-77 L 30,-95 L 63,-95 L 63.2091,-94.989
 L 63.4158,-94.9563 L 63.618,-94.9021 L 63.8135,-94.8271 L 64,-94.7321 L 64.1756,-94.618 L 64.3383,-94.4863
 L 64.4863,-94.3383 L 64.618,-94.1756 L 64.7321,-94 L 64.8271,-93.8135 L 64.9021,-93.618 L 64.9563,-93.4158
 L 64.989,-93.2091 L 65,-93 L 65,-45 L 70,-45 L 70,-93 L 69.9931,-93.2617
 L 69.9822,-93.4707 L 69.9275,-93.9912 L 69.8947,-94.198 L 69.7859,-94.71 L 69.7317,-94.9122 L 69.57,-95.4099
 L 69.495,-95.6053 L 69.2822,-96.0833 L 69.1871,-96.2698 L 68.9253,-96.7234 L 68.8112,-96.899 L 68.5037,-97.3222
 L 68.372,-97.4849 L 68.0218,-97.8738 L 67.8738,-98.0218 L 67.4849,-98.372 L 67.3222,-98.5037 L 66.899,-98.8112
 L 66.7234,-98.9253 L 66.2698,-99.1871 L 66.0833,-99.2822 L 65.6053,-99.495 L 65.4099,-99.57 L 64.9122,-99.7317
 L 64.71,-99.7859 L 64.198,-99.8947 L 63.9912,-99.9275 L 63.4707,-99.9822 L 63.2617,-99.9931 L 63,-100
 L 25,-100 L 0,-75 L 0,-45 L 5,-45 z
M -0.451538,0.431015 L 1.08788,0.300293 L 2.53011,0.0824127 L 3.87518,-0.222595 L 5.12309,-0.614761 L 6.27382,-1.09409
 L 7.32739,-1.66057 L 8.28378,-2.31419 L 9.13493,-3.04607 L 9.8726,-3.84727 L 10.4968,-4.71783 L 11.0075,-5.65775
 L 11.4047,-6.66699 L 11.6884,-7.74557 L 11.8586,-8.89351 L 11.9154,-10.1108 L 11.8816,-10.9491 L 11.7804,-11.7433
 L 11.6116,-12.4934 L 11.3754,-13.1993 L 11.0717,-13.8611 L 10.7005,-14.4787 L 10.2617,-15.0522 L 9.75554,-15.5816
 L 9.18367,-16.0654 L 8.54803,-16.5021 L 7.8486,-16.8917 L 7.08539,-17.2342 L 6.25838,-17.5296 L 5.36758,-17.7778
 L 4.41299,-17.979 L 3.39464,-18.1331 L 3.39464,-18.2756 L 4.25983,-18.5114 L 5.07533,-18.7918 L 5.84113,-19.1166
 L 6.55724,-19.486 L 7.22363,-19.8998 L 7.84033,-20.3582 L 8.40733,-20.8611 L 8.92464,-21.4084 L 9.38638,-21.9933
 L 9.78658,-22.6085 L 10.1252,-23.2542 L 10.4023,-23.9302 L 10.6177,-24.6366 L 10.7717,-25.3735 L 10.864,-26.1408
 L 10.8948,-26.9384 L 10.846,-27.8848 L 10.6997,-28.7778 L 10.4559,-29.6174 L 10.1145,-30.4036 L 9.67552,-31.1364
 L 9.13905,-31.8158 L 8.50504,-32.4418 L 7.77348,-33.0144 L 6.95782,-33.5262 L 6.07135,-33.9698 L 5.11403,-34.3451
 L 4.08588,-34.6522 L 2.98691,-34.891 L 1.81709,-35.0616 L 0.576462,-35.164 L -0.735016,-35.1981 L -2.35007,-35.1447
 L -3.908,-34.9845 L -5.40884,-34.7175 L -6.85258,-34.3437 L -8.23921,-33.863 L -9.56873,-33.2756 L -10.8412,-32.5814
 L -12.0565,-31.7803 L -8.66252,-26.7249 L -8.12868,-27.062 L -7.60707,-27.3732 L -7.0977,-27.6584 L -6.60059,-27.9176
 L -6.11569,-28.1508 L -5.64305,-28.3581 L -5.18263,-28.5394 L -4.73447,-28.6947 L -4.29333,-28.8283 L -3.85406,-28.944
 L -3.41664,-29.042 L -2.98105,-29.1221 L -2.54732,-29.1844 L -2.11543,-29.2289 L -1.68541,-29.2556 L -1.25722,-29.2645
 L -0.100159,-29.203 L 0.902618,-29.0183 L 1.75111,-28.7105 L 2.44534,-28.2796 L 2.98531,-27.7255 L 3.37099,-27.0483
 L 3.6024,-26.248 L 3.67953,-25.3246 L 3.65042,-24.7073 L 3.56306,-24.1371 L 3.4175,-23.614 L 3.21368,-23.138
 L 2.95164,-22.7091 L 2.63136,-22.3272 L 2.25287,-21.9925 L 1.81613,-21.7049 L 1.31644,-21.4574 L 0.748871,-21.2429
 L 0.113449,-21.0614 L -0.589859,-20.9129 L -1.36102,-20.7974 L -2.20006,-20.7149 L -3.10695,-20.6654 L -4.08171,-20.6489
 L -6.76376,-20.6489 L -6.76376,-15.0237 L -4.12932,-15.0237 L -3.07458,-15.0078 L -2.09402,-14.96 L -1.18764,-14.8802
 L -0.355438,-14.7686 L 0.402588,-14.6251 L 1.08643,-14.4497 L 1.69609,-14.2423 L 2.23158,-14.0031 L 2.69884,-13.7257
 L 3.10379,-13.4039 L 3.44643,-13.0375 L 3.72678,-12.6266 L 3.94484,-12.1712 L 4.10059,-11.6714 L 4.19403,-11.127
 L 4.22519,-10.5381 L 4.19812,-9.8791 L 4.1169,-9.26678 L 3.98155,-8.70122 L 3.79205,-8.18237 L 3.54843,-7.71028
 L 3.25066,-7.28491 L 2.89874,-6.90628 L 2.49268,-6.57439 L 2.02989,-6.28516 L 1.50774,-6.03447 L 0.926254,-5.82236
 L 0.2854,-5.64882 L -0.41478,-5.51384 L -1.17432,-5.41742 L -1.99319,-5.35957 L -2.87141,-5.34029 L -3.4655,-5.35031
 L -4.06107,-5.38034 L -4.65813,-5.4304 L -5.25667,-5.5005 L -5.8567,-5.59062 L -6.45822,-5.70078 L -7.06122,-5.83095
 L -7.66571,-5.98114 L -8.26465,-6.14729 L -8.85097,-6.3253 L -9.42468,-6.51518 L -9.98578,-6.71693 L -10.5343,-6.93054
 L -11.0701,-7.15602 L -11.5934,-7.39337 L -12.1041,-7.64259 L -12.1041,-1.40034 L -10.9922,-0.960907 L -9.84033,-0.580048
 L -8.64841,-0.257797 L -7.41643,0.00585938 L -6.14441,0.210922 L -4.83235,0.357407 L -3.48026,0.445297 L -2.08812,0.474594
 z
M 24.0835,-16.1395 L 24.0764,-16.9202 L 24.0553,-17.8736 L 24.02,-18.9999 L 23.9707,-20.2989 L 23.9072,-21.7708
 L 23.8297,-23.4155 L 23.738,-25.233 L 23.6323,-27.2233 L 23.8458,-27.2233 L 32.2003,-0 L 38.9409,-0
 L 47.889,-27.1757 L 48.1025,-27.1757 L 48.0352,-25.6167 L 47.9757,-24.2149 L 47.9239,-22.9704 L 47.8799,-21.883
 L 47.8438,-20.953 L 47.8154,-20.1801 L 47.7948,-19.5645 L 47.7819,-19.1061 L 47.7737,-18.7319 L 47.7665,-18.3689
 L 47.7604,-18.017 L 47.7554,-17.6761 L 47.7516,-17.3464 L 47.7488,-17.0279 L 47.7471,-16.7204 L 47.7466,-16.4241
 L 47.7466,-0 L 54.6055,-0 L 54.6055,-34.6997 L 44.5899,-34.6997 L 35.8791,-8.16479 L 35.737,-8.16479
 L 27.5247,-34.6997 L 17.509,-34.6997 L 17.509,-0 L 24.0835,-0 z
M 69.5074,-13.7186 L 81.2797,-13.7186 L 81.2797,-19.7232 L 69.5074,-19.7232 L 69.5074,-28.6713 L 82.1578,-28.6713
 L 82.1578,-34.6997 L 62.2687,-34.6997 L 62.2687,-0 L 69.5074,-0 z
" stroke="black" fill="black" stroke-width="0.5"/>
</svg>
