<?xml version="1.0" standalone="no"?>
<!DOCTYPE svg PUBLIC "-//W3C//DTD SVG 1.1//EN" "http://www.w3.org/Graphics/SVG/1.1/DTD/svg11.dtd">
<svg width="100mm" height="100mm" viewBox="-8 -108 116 116" xmlns="http://www.w3.org/2000/svg" version="1.1">
<title>OpenSCAD Model</title>
<path d="
M 84.2093,-0.00547791 L 84.4184,-0.0164337 L 84.8348,-0.0601959 L 85.0415,-0.0929413 L 85.4511,-0.180008 L 85.6533,-0.234192
 L 86.0515,-0.363571 L 86.247,-0.438599 L 86.6293,-0.608841 L 86.8159,-0.703873 L 87.1787,-0.913391 L 87.3543,-1.02742
 L 87.6929,-1.27341 L 87.8556,-1.40515 L 88.1667,-1.68529 L 88.3147,-1.83331 L 88.5948,-2.14444 L 88.7266,-2.30713
 L 88.9726,-2.64569 L 89.0866,-2.82126 L 89.2961,-3.18414 L 89.3912,-3.37067 L 89.5614,-3.75304 L 89.6364,-3.94849
 L 89.7658,-4.34666 L 89.82,-4.54887 L 89.9071,-4.95848 L 89.9398,-5.16524 L 89.9836,-5.5816 L 89.9945,-5.79066
 L 90,-6 L 90,-94 L 89.9945,-94.2093 L 89.9836,-94.4184 L 89.9398,-94.8348 L 89.9071,-95.0415
 L 89.82,-95.4511 L 89.7658,-95.6533 L 89.6364,-96.0515 L 89.5614,-96.247 L 89.3912,-96.6293 L 89.2961,-96.8159
 L 89.0866,-97.1787 L 88.9726,-97.3543 L 88.7266,-97.6929 L 88.5948,-97.8556 L 88.3147,-98.1667 L 88.1667,-98.3147
 L 87.8556,-98.5948 L 87.6929,-98.7266 L 87.3543,-98.9726 L 87.1787,-99.0866 L 86.8159,-99.2961 L 86.6293,-99.3912
 L 86.247,-99.5614 L 86.0515,-99.6364 L 85.6533,-99.7658 L 85.4511,-99.82 L 85.0415,-99.9071 L 84.8348,-99.9398
 L 84.4184,-99.9836 L 84.2093,-99.9945 L 84,-100 L 36,-100 L 10,-74 L 10,-50
 L 14,-50 L 14,-70 L 34,-70 L 34.2093,-70.0055 L 34.4184,-70.0164 L 34.8348,-70.0602
 L 35.0415,-70.0929 L 35.4511,-70.18 L 35.6533,-70.2342 L 36.0515,-70.3636 L 36.247,-70.4386 L 36.6293,-70.6088
 L 36.8159,-70.7039 L 37.1787,-70.9134 L 37.3543,-71.0274 L 37.6929,-71.2734 L 37.8556,-71.4052 L 38.1667,-71.6853
 L 38.3147,-71.8333 L 38.5948,-72.1444 L 38.7266,-72.3071 L 38.9726,-72.6457 L 39.0866,-72.8213 L 39.2961,-73.1841
 L 39.3912,-73.3707 L 39.5614,-73.753 L 39.6364,-73.9485 L 39.7658,-74.3467 L 39.82,-74.5489 L 39.9071,-74.9585
 L 39.9398,-75.1652 L 39.9836,-75.5816 L 39.9945,-75.7907 L 40,-76 L 40,-96 L 84,-96
 L 84.2091,-95.989 L 84.4158,-95.9563 L 84.618,-95.9021 L 84.8135,-95.8271 L 85,-95.7321 L 85.1756,-95.618
 L 85.3383,-95.4863 L 85.4863,-95.3383 L 85.618,-95.1756 L 85.7321,-95 L 85.8271,-94.8135 L 85.9021,-94.618
 L 85.9563,-94.4158 L 85.989,-94.2091 L 86,-94 L 86,-6 L 85.989,-5.79094 L 85.9563,-5.58418
 L 85.9021,-5.38197 L 85.8271,-5.18652 L 85.7321,-5 L 85.618,-4.82443 L 85.4863,-4.66174 L 85.3383,-4.51372
 L 85.1756,-4.38197 L 85,-4.26794 L 84.8135,-4.17291 L 84.618,-4.09789 L 84.4158,-4.0437 L 84.2091,-4.01096
 L 84,-4 L 80,-4 L 80,-0 L 84,-0 z
M 13.1365,0.484756 L 14.4801,0.342545 L 15.7433,0.105545 L 16.9261,-0.226242 L 18.0287,-0.652847 L 19.0509,-1.17426
 L 19.9927,-1.79048 L 20.8542,-2.50151 L 21.6244,-3.29495 L 22.2918,-4.15826 L 22.8565,-5.09142 L 23.3186,-6.09445
 L 23.678,-7.16734 L 23.9346,-8.31006 L 24.0887,-9.52266 L 24.14,-10.8051 L 24.1126,-11.738 L 24.0305,-12.6339
 L 23.8936,-13.4928 L 23.7019,-14.3147 L 23.4555,-15.0995 L 23.1543,-15.8474 L 22.7984,-16.5582 L 22.3876,-17.232
 L 21.9031,-17.8872 L 21.3256,-18.542 L 20.6552,-19.1963 L 19.8918,-19.8503 L 19.0355,-20.5038 L 18.0862,-21.1569
 L 17.0441,-21.8096 L 15.9089,-22.4619 L 15.0564,-22.9353 L 14.2856,-23.3708 L 13.5966,-23.7686 L 12.9893,-24.1284
 L 12.4639,-24.4505 L 12.0202,-24.7346 L 11.6583,-24.981 L 11.3781,-25.1895 L 11.147,-25.3799 L 10.9321,-25.5721
 L 10.7334,-25.7659 L 10.551,-25.9613 L 10.3847,-26.1584 L 10.2346,-26.3572 L 10.1007,-26.5576 L 9.98308,-26.7597
 L 9.88043,-26.967 L 9.79149,-27.1831 L 9.71622,-27.4079 L 9.65465,-27.6414 L 9.60675,-27.8837 L 9.57253,-28.1346
 L 9.552,-28.3943 L 9.54517,-28.6627 L 9.56209,-29.0915 L 9.61288,-29.4994 L 9.69754,-29.8866 L 9.81606,-30.2529
 L 9.96843,-30.5985 L 10.1547,-30.9232 L 10.3748,-31.2272 L 10.6287,-31.5104 L 10.9145,-31.7661 L 11.2298,-31.9877
 L 11.5746,-32.1752 L 11.9489,-32.3286 L 12.3527,-32.448 L 12.7861,-32.5332 L 13.249,-32.5844 L 13.7414,-32.6014
 L 14.1689,-32.5935 L 14.5981,-32.5698 L 15.0292,-32.5303 L 15.462,-32.4749 L 15.8967,-32.4038 L 16.3331,-32.3168
 L 16.7714,-32.2141 L 17.2115,-32.0955 L 17.6671,-31.9571 L 18.1518,-31.7945 L 18.6657,-31.6078 L 19.2088,-31.397
 L 19.7811,-31.1621 L 20.3825,-30.9031 L 21.0132,-30.6199 L 21.673,-30.3126 L 23.9785,-36.7265 L 23.3306,-37.0434
 L 22.6895,-37.342 L 22.0552,-37.6223 L 21.4278,-37.8843 L 20.8073,-38.1279 L 20.1935,-38.3534 L 19.5867,-38.5605
 L 18.9866,-38.7492 L 18.3863,-38.9177 L 17.7784,-39.0636 L 17.1629,-39.1871 L 16.5399,-39.2882 L 15.9093,-39.3668
 L 15.2711,-39.4229 L 14.6253,-39.4566 L 13.972,-39.4678 L 12.6709,-39.4217 L 11.4423,-39.2832 L 10.2861,-39.0524
 L 9.20226,-38.7293 L 8.19084,-38.3139 L 7.25182,-37.8062 L 6.38518,-37.2062 L 5.59096,-36.5138 L 4.88037,-35.7408
 L 4.26456,-34.8987 L 3.74345,-33.9876 L 3.31712,-33.0075 L 2.98552,-31.9583 L 2.74866,-30.8401 L 2.60654,-29.6529
 L 2.55916,-28.3966 L 2.57358,-27.7221 L 2.61681,-27.0692 L 2.68884,-26.4379 L 2.78969,-25.8283 L 2.91936,-25.2402
 L 3.07784,-24.6738 L 3.26514,-24.129 L 3.48125,-23.6059 L 3.72157,-23.1015 L 3.98135,-22.613 L 4.26057,-22.1402
 L 4.55922,-21.6832 L 4.87733,-21.2421 L 5.21487,-20.8167 L 5.57185,-20.4071 L 5.94829,-20.0133 L 6.35867,-19.6254
 L 6.81732,-19.2333 L 7.32422,-18.837 L 7.87941,-18.4365 L 8.48286,-18.032 L 9.13458,-17.6232 L 9.83458,-17.2103
 L 10.5828,-16.7932 L 11.3723,-16.3561 L 12.0923,-15.9498 L 12.7427,-15.5742 L 13.3236,-15.2295 L 13.8349,-14.9155
 L 14.2768,-14.6323 L 14.6491,-14.3799 L 14.9518,-14.1583 L 15.2118,-13.951 L 15.4556,-13.7416 L 15.6831,-13.5302
 L 15.8944,-13.3166 L 16.0895,-13.101 L 16.2683,-12.8833 L 16.431,-12.6635 L 16.5774,-12.4417 L 16.7071,-12.2149
 L 16.8195,-11.9802 L 16.9147,-11.7376 L 16.9925,-11.4871 L 17.0531,-11.2287 L 17.0963,-10.9624 L 17.1223,-10.6881
 L 17.1309,-10.406 L 17.1113,-9.90944 L 17.0524,-9.44449 L 16.9542,-9.01114 L 16.8167,-8.60941 L 16.64,-8.23927
 L 16.424,-7.90076 L 16.1688,-7.59383 L 15.8743,-7.31853 L 15.543,-7.07533 L 15.1775,-6.86455 L 14.7778,-6.6862
 L 14.3438,-6.54028 L 13.8757,-6.42679 L 13.3733,-6.34573 L 12.8367,-6.29709 L 12.2658,-6.28087 L 11.7696,-6.2921
 L 11.2607,-6.32579 L 10.7393,-6.38193 L 10.2052,-6.46051 L 9.65849,-6.56157 L 9.09918,-6.68507 L 8.52727,-6.83104
 L 7.94273,-6.99945 L 7.33559,-7.19531 L 6.69563,-7.42361 L 6.02289,-7.68433 L 5.31734,-7.97746 L 4.57899,-8.30302
 L 3.80783,-8.66103 L 3.00389,-9.05145 L 2.16714,-9.47429 L 2.16714,-1.8096 L 3.22418,-1.26074 L 4.32014,-0.78508
 L 5.45497,-0.382584 L 6.62872,-0.0532532 L 7.84135,0.202835 L 9.09288,0.385803 L 10.3833,0.49556 L 11.7126,0.53215
 z
M 42.6456,-32.0425 L 51.7987,-32.0425 L 51.7987,-38.909 L 26.3446,-38.909 L 26.3446,-32.0425 L 35.4981,-32.0425
 L 35.4981,-0 L 42.6456,-0 z
M 77.1671,-6.81303 L 63.4947,-6.81303 L 63.4947,-38.909 L 56.3476,-38.909 L 56.3476,-0 L 77.1671,-0
 z
" stroke="white" fill="white" stroke-width="0.5"/>
</svg>
