<?xml version="1.0" standalone="no"?>
<!DOCTYPE svg PUBLIC "-//W3C//DTD SVG 1.1//EN" "http://www.w3.org/Graphics/SVG/1.1/DTD/svg11.dtd">
<svg width="100mm" height="100mm" viewBox="-8 -108 116 116" xmlns="http://www.w3.org/2000/svg" version="1.1">
<title>OpenSCAD Model</title>
<path d="
M 50.6981,-8.00594 L 50.7679,-8.00716 L 51.4309,-8.02452 L 51.5007,-8.02696 L 52.1632,-8.05588 L 52.233,-8.05954
 L 52.8949,-8.10003 L 52.9646,-8.1049 L 53.6258,-8.15693 L 53.6953,-8.16302 L 54.3555,-8.22658 L 54.4249,-8.23388
 L 55.0838,-8.30896 L 55.1531,-8.31747 L 55.8107,-8.40403 L 55.8798,-8.41375 L 56.5357,-8.51178 L 56.6047,-8.5227
 L 57.2588,-8.63216 L 57.3276,-8.64429 L 57.9797,-8.76515 L 58.0482,-8.77847 L 58.6981,-8.91069 L 58.7664,-8.92521
 L 59.4139,-9.06875 L 59.4819,-9.08446 L 60.1268,-9.23928 L 60.1946,-9.25617 L 60.8366,-9.42223 L 60.9041,-9.4403
 L 61.5432,-9.61753 L 61.6103,-9.63678 L 62.2462,-9.82514 L 62.3129,-9.84555 L 62.9455,-10.045 L 63.0119,-10.0666
 L 63.6408,-10.277 L 63.7068,-10.2997 L 64.332,-10.5211 L 64.3976,-10.545 L 65.0188,-10.7773 L 65.084,-10.8023
 L 65.7011,-11.0453 L 65.7658,-11.0715 L 66.3785,-11.3253 L 66.4428,-11.3526 L 67.051,-11.617 L 67.1148,-11.6454
 L 67.7183,-11.9205 L 67.7815,-11.95 L 68.3801,-12.2355 L 68.4429,-12.2661 L 69.0364,-12.562 L 69.0986,-12.5937
 L 69.6869,-12.8999 L 69.7486,-12.9327 L 70.3314,-13.2492 L 70.3925,-13.283 L 70.9697,-13.6096 L 71.0302,-13.6445
 L 71.6016,-13.9811 L 71.6614,-14.0171 L 72.2269,-14.3636 L 72.2861,-14.4006 L 72.8455,-14.757 L 72.904,-14.795
 L 73.4571,-15.161 L 73.515,-15.2001 L 74.0615,-15.5757 L 74.1187,-15.6158 L 74.6587,-16.0009 L 74.7151,-16.0419
 L 75.2483,-16.4364 L 75.304,-16.4784 L 75.8302,-16.8822 L 75.8852,-16.9252 L 76.4042,-17.338 L 76.4585,-17.382
 L 76.9702,-17.8038 L 77.0237,-17.8487 L 77.528,-18.2794 L 77.5807,-18.3252 L 78.0774,-18.7647 L 78.1293,-18.8114
 L 78.6183,-19.2594 L 78.6694,-19.3071 L 79.1504,-19.7636 L 79.2007,-19.8121 L 79.6737,-20.2769 L 79.7231,-20.3263
 L 80.1879,-20.7993 L 80.2364,-20.8496 L 80.6929,-21.3306 L 80.7406,-21.3817 L 81.1886,-21.8707 L 81.2353,-21.9226
 L 81.6748,-22.4193 L 81.7206,-22.472 L 82.1513,-22.9763 L 82.1962,-23.0298 L 82.618,-23.5415 L 82.662,-23.5958
 L 83.0748,-24.1148 L 83.1178,-24.1698 L 83.5216,-24.696 L 83.5636,-24.7517 L 83.9581,-25.2849 L 83.9991,-25.3413
 L 84.3842,-25.8813 L 84.4243,-25.9385 L 84.7999,-26.485 L 84.839,-26.5429 L 85.205,-27.096 L 85.243,-27.1545
 L 85.5994,-27.7139 L 85.6364,-27.7731 L 85.9829,-28.3386 L 86.0189,-28.3984 L 86.3555,-28.9698 L 86.3904,-29.0303
 L 86.717,-29.6075 L 86.7508,-29.6686 L 87.0673,-30.2514 L 87.1001,-30.3131 L 87.4063,-30.9014 L 87.438,-30.9636
 L 87.7339,-31.5571 L 87.7645,-31.6199 L 88.05,-32.2185 L 88.0795,-32.2817 L 88.3546,-32.8852 L 88.383,-32.949
 L 88.6474,-33.5572 L 88.6747,-33.6215 L 88.9285,-34.2342 L 88.9547,-34.2989 L 89.1977,-34.916 L 89.2227,-34.9812
 L 89.455,-35.6024 L 89.4789,-35.668 L 89.7003,-36.2932 L 89.723,-36.3592 L 89.9334,-36.9881 L 89.955,-37.0545
 L 90.1544,-37.6871 L 90.1749,-37.7538 L 90.3632,-38.3897 L 90.3825,-38.4568 L 90.5597,-39.0959 L 90.5778,-39.1634
 L 90.7438,-39.8054 L 90.7607,-39.8732 L 90.9155,-40.5181 L 90.9312,-40.5861 L 91.0748,-41.2336 L 91.0893,-41.3019
 L 91.2215,-41.9518 L 91.2349,-42.0203 L 91.3557,-42.6724 L 91.3678,-42.7412 L 91.4773,-43.3953 L 91.4882,-43.4643
 L 91.5863,-44.1202 L 91.596,-44.1893 L 91.6825,-44.8469 L 91.691,-44.9162 L 91.7661,-45.5751 L 91.7734,-45.6445
 L 91.837,-46.3047 L 91.8431,-46.3742 L 91.8951,-47.0354 L 91.9,-47.1051 L 91.9405,-47.767 L 91.9441,-47.8368
 L 91.973,-48.4993 L 91.9755,-48.5691 L 91.9928,-49.2321 L 91.9941,-49.3019 L 91.9998,-49.9651 L 91.9998,-50.0349
 L 91.9941,-50.6981 L 91.9928,-50.7679 L 91.9755,-51.4309 L 91.973,-51.5007 L 91.9441,-52.1632 L 91.9405,-52.233
 L 91.9,-52.8949 L 91.8951,-52.9646 L 91.8431,-53.6258 L 91.837,-53.6953 L 91.7734,-54.3555 L 91.7661,-54.4249
 L 91.691,-55.0838 L 91.6825,-55.1531 L 91.596,-55.8107 L 91.5863,-55.8798 L 91.4882,-56.5357 L 91.4773,-56.6047
 L 91.3678,-57.2588 L 91.3557,-57.3276 L 91.2349,-57.9797 L 91.2215,-58.0482 L 91.0893,-58.6981 L 91.0748,-58.7664
 L 90.9312,-59.4139 L 90.9155,-59.4819 L 90.7607,-60.1268 L 90.7438,-60.1946 L 90.5778,-60.8366 L 90.5597,-60.9041
 L 90.3825,-61.5432 L 90.3632,-61.6103 L 90.1749,-62.2462 L 90.1544,-62.3129 L 89.955,-62.9455 L 89.9334,-63.0119
 L 89.723,-63.6408 L 89.7003,-63.7068 L 89.4789,-64.332 L 89.455,-64.3976 L 89.2227,-65.0188 L 89.1977,-65.084
 L 88.9547,-65.7011 L 88.9285,-65.7658 L 88.6747,-66.3785 L 88.6474,-66.4428 L 88.383,-67.051 L 88.3546,-67.1148
 L 88.0795,-67.7183 L 88.05,-67.7815 L 87.7645,-68.3801 L 87.7339,-68.4429 L 87.438,-69.0364 L 87.4063,-69.0986
 L 87.1001,-69.6869 L 87.0673,-69.7486 L 86.7508,-70.3314 L 86.717,-70.3925 L 86.3904,-70.9697 L 86.3555,-71.0302
 L 86.0189,-71.6016 L 85.9829,-71.6614 L 85.6364,-72.2269 L 85.5994,-72.2861 L 85.243,-72.8455 L 85.205,-72.904
 L 84.839,-73.4571 L 84.7999,-73.515 L 84.4243,-74.0615 L 84.3842,-74.1187 L 83.9991,-74.6587 L 83.9581,-74.7151
 L 83.5636,-75.2483 L 83.5216,-75.304 L 83.1178,-75.8302 L 83.0748,-75.8852 L 82.662,-76.4042 L 82.618,-76.4585
 L 82.1962,-76.9702 L 82.1513,-77.0237 L 81.7206,-77.528 L 81.6748,-77.5807 L 81.2353,-78.0774 L 81.1886,-78.1293
 L 80.7406,-78.6183 L 80.6929,-78.6694 L 80.2364,-79.1504 L 80.1879,-79.2007 L 79.7231,-79.6737 L 79.6737,-79.7231
 L 79.2007,-80.1879 L 79.1504,-80.2364 L 78.6694,-80.6929 L 78.6183,-80.7406 L 78.1293,-81.1886 L 78.0774,-81.2353
 L 77.5807,-81.6748 L 77.528,-81.7206 L 77.0237,-82.1513 L 76.9702,-82.1962 L 76.4585,-82.618 L 76.4042,-82.662
 L 75.8852,-83.0748 L 75.8302,-83.1178 L 75.304,-83.5216 L 75.2483,-83.5636 L 74.7151,-83.9581 L 74.6587,-83.9991
 L 74.1187,-84.3842 L 74.0615,-84.4243 L 73.515,-84.7999 L 73.4571,-84.839 L 72.904,-85.205 L 72.8455,-85.243
 L 72.2861,-85.5994 L 72.2269,-85.6364 L 71.6614,-85.9829 L 71.6016,-86.0189 L 71.0302,-86.3555 L 70.9697,-86.3904
 L 70.3925,-86.717 L 70.3314,-86.7508 L 69.7486,-87.0673 L 69.6869,-87.1001 L 69.0986,-87.4063 L 69.0364,-87.438
 L 68.4429,-87.7339 L 68.3801,-87.7645 L 67.7815,-88.05 L 67.7183,-88.0795 L 67.1148,-88.3546 L 67.051,-88.383
 L 66.4428,-88.6474 L 66.3785,-88.6747 L 65.7658,-88.9285 L 65.7011,-88.9547 L 65.084,-89.1977 L 65.0188,-89.2227
 L 64.3976,-89.455 L 64.332,-89.4789 L 63.7068,-89.7003 L 63.6408,-89.723 L 63.0119,-89.9334 L 62.9455,-89.955
 L 62.3129,-90.1544 L 62.2462,-90.1749 L 61.6103,-90.3632 L 61.5432,-90.3825 L 60.9041,-90.5597 L 60.8366,-90.5778
 L 60.1946,-90.7438 L 60.1268,-90.7607 L 59.4819,-90.9155 L 59.4139,-90.9312 L 58.7664,-91.0748 L 58.6981,-91.0893
 L 58.0482,-91.2215 L 57.9797,-91.2349 L 57.3276,-91.3557 L 57.2588,-91.3678 L 56.6047,-91.4773 L 56.5357,-91.4882
 L 55.8798,-91.5863 L 55.8107,-91.596 L 55.1531,-91.6825 L 55.0838,-91.691 L 54.4249,-91.7661 L 54.3555,-91.7734
 L 53.6953,-91.837 L 53.6258,-91.8431 L 52.9646,-91.8951 L 52.8949,-91.9 L 52.233,-91.9405 L 52.1632,-91.9441
 L 51.5007,-91.973 L 51.4309,-91.9755 L 50.7679,-91.9928 L 50.6981,-91.9941 L 50.0349,-91.9998 L 49.9651,-91.9998
 L 49.3019,-91.9941 L 49.2321,-91.9928 L 48.5691,-91.9755 L 48.4993,-91.973 L 47.8368,-91.9441 L 47.767,-91.9405
 L 47.1051,-91.9 L 47.0354,-91.8951 L 46.3742,-91.8431 L 46.3047,-91.837 L 45.6445,-91.7734 L 45.5751,-91.7661
 L 44.9162,-91.691 L 44.8469,-91.6825 L 44.1893,-91.596 L 44.1202,-91.5863 L 43.4643,-91.4882 L 43.3953,-91.4773
 L 42.7412,-91.3678 L 42.6724,-91.3557 L 42.0203,-91.2349 L 41.9518,-91.2215 L 41.3019,-91.0893 L 41.2336,-91.0748
 L 40.5861,-90.9312 L 40.5181,-90.9155 L 39.8732,-90.7607 L 39.8054,-90.7438 L 39.1634,-90.5778 L 39.0959,-90.5597
 L 38.4568,-90.3825 L 38.3897,-90.3632 L 37.7538,-90.1749 L 37.6871,-90.1544 L 37.0545,-89.955 L 36.9881,-89.9334
 L 36.3592,-89.723 L 36.2932,-89.7003 L 35.668,-89.4789 L 35.6024,-89.455 L 34.9812,-89.2227 L 34.916,-89.1977
 L 34.2989,-88.9547 L 34.2342,-88.9285 L 33.6215,-88.6747 L 33.5572,-88.6474 L 32.949,-88.383 L 32.8852,-88.3546
 L 32.2817,-88.0795 L 32.2185,-88.05 L 31.6199,-87.7645 L 31.5571,-87.7339 L 30.9636,-87.438 L 30.9014,-87.4063
 L 30.3131,-87.1001 L 30.2514,-87.0673 L 29.6686,-86.7508 L 29.6075,-86.717 L 29.0303,-86.3904 L 28.9698,-86.3555
 L 28.3984,-86.0189 L 28.3386,-85.9829 L 27.7731,-85.6364 L 27.7139,-85.5994 L 27.1545,-85.243 L 27.096,-85.205
 L 26.5429,-84.839 L 26.485,-84.7999 L 25.9385,-84.4243 L 25.8813,-84.3842 L 25.3413,-83.9991 L 25.2849,-83.9581
 L 24.7517,-83.5636 L 24.696,-83.5216 L 24.1698,-83.1178 L 24.1148,-83.0748 L 23.5958,-82.662 L 23.5415,-82.618
 L 23.0298,-82.1962 L 22.9763,-82.1513 L 22.472,-81.7206 L 22.4193,-81.6748 L 21.9226,-81.2353 L 21.8707,-81.1886
 L 21.3817,-80.7406 L 21.3306,-80.6929 L 20.8496,-80.2364 L 20.7993,-80.1879 L 20.3263,-79.7231 L 20.2769,-79.6737
 L 19.8121,-79.2007 L 19.7636,-79.1504 L 19.3071,-78.6694 L 19.2594,-78.6183 L 18.8114,-78.1293 L 18.7647,-78.0774
 L 18.3252,-77.5807 L 18.2794,-77.528 L 17.8487,-77.0237 L 17.8038,-76.9702 L 17.382,-76.4585 L 17.338,-76.4042
 L 16.9252,-75.8852 L 16.8822,-75.8302 L 16.4784,-75.304 L 16.4364,-75.2483 L 16.0419,-74.7151 L 16.0009,-74.6587
 L 15.6158,-74.1187 L 15.5757,-74.0615 L 15.2001,-73.515 L 15.161,-73.4571 L 14.795,-72.904 L 14.757,-72.8455
 L 14.4006,-72.2861 L 14.3636,-72.2269 L 14.0171,-71.6614 L 13.9811,-71.6016 L 13.6445,-71.0302 L 13.6096,-70.9697
 L 13.283,-70.3925 L 13.2492,-70.3314 L 12.9327,-69.7486 L 12.8999,-69.6869 L 12.5937,-69.0986 L 12.562,-69.0364
 L 12.2661,-68.4429 L 12.2355,-68.3801 L 11.95,-67.7815 L 11.9205,-67.7183 L 11.6454,-67.1148 L 11.617,-67.051
 L 11.3526,-66.4428 L 11.3253,-66.3785 L 11.0715,-65.7658 L 11.0453,-65.7011 L 10.8023,-65.084 L 10.7773,-65.0188
 L 10.545,-64.3976 L 10.5211,-64.332 L 10.2997,-63.7068 L 10.277,-63.6408 L 10.0666,-63.0119 L 10.045,-62.9455
 L 9.84555,-62.3129 L 9.82514,-62.2462 L 9.63678,-61.6103 L 9.61753,-61.5432 L 9.4403,-60.9041 L 9.42223,-60.8366
 L 9.25617,-60.1946 L 9.23928,-60.1268 L 9.08446,-59.4819 L 9.06875,-59.4139 L 8.92521,-58.7664 L 8.91069,-58.6981
 L 8.77847,-58.0482 L 8.76515,-57.9797 L 8.64429,-57.3276 L 8.63216,-57.2588 L 8.5227,-56.6047 L 8.51178,-56.5357
 L 8.41375,-55.8798 L 8.40403,-55.8107 L 8.31747,-55.1531 L 8.30896,-55.0838 L 8.23388,-54.4249 L 8.22658,-54.3555
 L 8.16302,-53.6953 L 8.15693,-53.6258 L 8.1049,-52.9646 L 8.10003,-52.8949 L 8.05954,-52.233 L 8.05588,-52.1632
 L 8.02696,-51.5007 L 8.02452,-51.4309 L 8.00716,-50.7679 L 8.00594,-50.6981 L 8.00015,-50.0349 L 8.00015,-49.9651
 L 8.00594,-49.3019 L 8.00716,-49.2321 L 8.02452,-48.5691 L 8.02696,-48.4993 L 8.05588,-47.8368 L 8.05954,-47.767
 L 8.10003,-47.1051 L 8.1049,-47.0354 L 8.15693,-46.3742 L 8.16302,-46.3047 L 8.22658,-45.6445 L 8.23388,-45.5751
 L 8.30896,-44.9162 L 8.31747,-44.8469 L 8.40403,-44.1893 L 8.41375,-44.1202 L 8.51178,-43.4643 L 8.5227,-43.3953
 L 8.63216,-42.7412 L 8.64429,-42.6724 L 8.76515,-42.0203 L 8.77847,-41.9518 L 8.91069,-41.3019 L 8.92521,-41.2336
 L 9.06875,-40.5861 L 9.08446,-40.5181 L 9.23928,-39.8732 L 9.25617,-39.8054 L 9.42223,-39.1634 L 9.4403,-39.0959
 L 9.61753,-38.4568 L 9.63678,-38.3897 L 9.82514,-37.7538 L 9.84555,-37.6871 L 10.045,-37.0545 L 10.0666,-36.9881
 L 10.277,-36.3592 L 10.2997,-36.2932 L 10.5211,-35.668 L 10.545,-35.6024 L 10.7773,-34.9812 L 10.8023,-34.916
 L 11.0453,-34.2989 L 11.0715,-34.2342 L 11.3253,-33.6215 L 11.3526,-33.5572 L 11.617,-32.949 L 11.6454,-32.8852
 L 11.9205,-32.2817 L 11.95,-32.2185 L 12.2355,-31.6199 L 12.2661,-31.5571 L 12.562,-30.9636 L 12.5937,-30.9014
 L 12.8999,-30.3131 L 12.9327,-30.2514 L 13.2492,-29.6686 L 13.283,-29.6075 L 13.6096,-29.0303 L 13.6445,-28.9698
 L 13.9811,-28.3984 L 14.0171,-28.3386 L 14.3636,-27.7731 L 14.4006,-27.7139 L 14.757,-27.1545 L 14.795,-27.096
 L 15.161,-26.5429 L 15.2001,-26.485 L 15.5757,-25.9385 L 15.6158,-25.8813 L 16.0009,-25.3413 L 16.0419,-25.2849
 L 16.4364,-24.7517 L 16.4784,-24.696 L 16.8822,-24.1698 L 16.9252,-24.1148 L 17.338,-23.5958 L 17.382,-23.5415
 L 17.8038,-23.0298 L 17.8487,-22.9763 L 18.2794,-22.472 L 18.3252,-22.4193 L 18.7647,-21.9226 L 18.8114,-21.8707
 L 19.2594,-21.3817 L 19.3071,-21.3306 L 19.7636,-20.8496 L 19.8121,-20.7993 L 20.2769,-20.3263 L 20.3263,-20.2769
 L 20.7993,-19.8121 L 20.8496,-19.7636 L 21.3306,-19.3071 L 21.3817,-19.2594 L 21.8707,-18.8114 L 21.9226,-18.7647
 L 22.4193,-18.3252 L 22.472,-18.2794 L 22.9763,-17.8487 L 23.0298,-17.8038 L 23.5415,-17.382 L 23.5958,-17.338
 L 24.1148,-16.9252 L 24.1698,-16.8822 L 24.696,-16.4784 L 24.7517,-16.4364 L 25.2849,-16.0419 L 25.3413,-16.0009
 L 25.8813,-15.6158 L 25.9385,-15.5757 L 26.485,-15.2001 L 26.5429,-15.161 L 27.096,-14.795 L 27.1545,-14.757
 L 27.7139,-14.4006 L 27.7731,-14.3636 L 28.3386,-14.0171 L 28.3984,-13.9811 L 28.9698,-13.6445 L 29.0303,-13.6096
 L 29.6075,-13.283 L 29.6686,-13.2492 L 30.2514,-12.9327 L 30.3131,-12.8999 L 30.9014,-12.5937 L 30.9636,-12.562
 L 31.5571,-12.2661 L 31.6199,-12.2355 L 32.2185,-11.95 L 32.2817,-11.9205 L 32.8852,-11.6454 L 32.949,-11.617
 L 33.5572,-11.3526 L 33.6215,-11.3253 L 34.2342,-11.0715 L 34.2989,-11.0453 L 34.916,-10.8023 L 34.9812,-10.7773
 L 35.6024,-10.545 L 35.668,-10.5211 L 36.2932,-10.2997 L 36.3592,-10.277 L 36.9881,-10.0666 L 37.0545,-10.045
 L 37.6871,-9.84555 L 37.7538,-9.82514 L 38.3897,-9.63678 L 38.4568,-9.61753 L 39.0959,-9.4403 L 39.1634,-9.42223
 L 39.8054,-9.25617 L 39.8732,-9.23928 L 40.5181,-9.08446 L 40.5861,-9.06875 L 41.2336,-8.92521 L 41.3019,-8.91069
 L 41.9518,-8.77847 L 42.0203,-8.76515 L 42.6724,-8.64429 L 42.7412,-8.63216 L 43.3953,-8.5227 L 43.4643,-8.51178
 L 44.1202,-8.41375 L 44.1893,-8.40403 L 44.8469,-8.31747 L 44.9162,-8.30896 L 45.5751,-8.23388 L 45.6445,-8.22658
 L 46.3047,-8.16302 L 46.3742,-8.15693 L 47.0354,-8.1049 L 47.1051,-8.10003 L 47.767,-8.05954 L 47.8368,-8.05588
 L 48.4993,-8.02696 L 48.5691,-8.02452 L 49.2321,-8.00716 L 49.3019,-8.00594 L 49.9651,-8.00015 L 50.0349,-8.00015
 z
M 49.3368,-12.0058 L 48.6738,-12.0231 L 48.0112,-12.0521 L 47.3493,-12.0926 L 46.6881,-12.1446 L 46.0279,-12.2082
 L 45.369,-12.2832 L 44.7114,-12.3698 L 44.0555,-12.4678 L 43.4014,-12.5773 L 42.7493,-12.6982 L 42.0994,-12.8304
 L 41.4519,-12.9739 L 40.807,-13.1288 L 40.1649,-13.2948 L 39.5258,-13.4721 L 38.8899,-13.6604 L 38.2574,-13.8599
 L 37.6284,-14.0703 L 37.0032,-14.2917 L 36.382,-14.5239 L 35.7649,-14.767 L 35.1522,-15.0208 L 34.544,-15.2853
 L 33.9405,-15.5603 L 33.3419,-15.8458 L 32.7484,-16.1418 L 32.1601,-16.448 L 31.5772,-16.7645 L 31,-17.091
 L 30.4286,-17.4276 L 29.8631,-17.7742 L 29.3037,-18.1305 L 28.7507,-18.4966 L 28.2041,-18.8722 L 27.6642,-19.2574
 L 27.131,-19.6519 L 26.6049,-20.0556 L 26.0858,-20.4685 L 25.5741,-20.8903 L 25.0698,-21.321 L 24.573,-21.7605
 L 24.0841,-22.2086 L 23.603,-22.6651 L 23.1299,-23.1299 L 22.6651,-23.603 L 22.2086,-24.0841 L 21.7605,-24.573
 L 21.321,-25.0698 L 20.8903,-25.5741 L 20.4685,-26.0858 L 20.0556,-26.6049 L 19.6519,-27.131 L 19.2574,-27.6642
 L 18.8722,-28.2041 L 18.4966,-28.7507 L 18.1305,-29.3037 L 17.7742,-29.8631 L 17.4276,-30.4286 L 17.091,-31
 L 16.7645,-31.5772 L 16.448,-32.1601 L 16.1418,-32.7484 L 15.8458,-33.3419 L 15.5603,-33.9405 L 15.2853,-34.544
 L 15.0208,-35.1522 L 14.767,-35.7649 L 14.5239,-36.382 L 14.2917,-37.0032 L 14.0703,-37.6284 L 13.8599,-38.2574
 L 13.6604,-38.8899 L 13.4721,-39.5258 L 13.2948,-40.1649 L 13.1288,-40.807 L 12.9739,-41.4519 L 12.8304,-42.0994
 L 12.6982,-42.7493 L 12.5773,-43.4014 L 12.4678,-44.0555 L 12.3698,-44.7114 L 12.2832,-45.369 L 12.2082,-46.0279
 L 12.1446,-46.6881 L 12.0926,-47.3493 L 12.0521,-48.0112 L 12.0231,-48.6738 L 12.0058,-49.3368 L 12,-50
 L 12.0058,-50.6632 L 12.0231,-51.3262 L 12.0521,-51.9888 L 12.0926,-52.6507 L 12.1446,-53.3119 L 12.2082,-53.9721
 L 12.2832,-54.631 L 12.3698,-55.2886 L 12.4678,-55.9445 L 12.5773,-56.5986 L 12.6982,-57.2507 L 12.8304,-57.9006
 L 12.9739,-58.5481 L 13.1288,-59.193 L 13.2948,-59.8351 L 13.4721,-60.4742 L 13.6604,-61.1101 L 13.8599,-61.7426
 L 14.0703,-62.3716 L 14.2917,-62.9968 L 14.5239,-63.618 L 14.767,-64.2351 L 15.0208,-64.8478 L 15.2853,-65.456
 L 15.5603,-66.0595 L 15.8458,-66.6581 L 16.1418,-67.2516 L 16.448,-67.8399 L 16.7645,-68.4228 L 17.091,-69
 L 17.4276,-69.5714 L 17.7742,-70.1369 L 18.1305,-70.6963 L 18.4966,-71.2493 L 18.8722,-71.7959 L 19.2574,-72.3358
 L 19.6519,-72.869 L 20.0556,-73.3951 L 20.4685,-73.9142 L 20.8903,-74.4259 L 21.321,-74.9302 L 21.7605,-75.427
 L 22.2086,-75.9159 L 22.6651,-76.397 L 23.1299,-76.8701 L 23.603,-77.3349 L 24.0841,-77.7914 L 24.573,-78.2395
 L 25.0698,-78.679 L 25.5741,-79.1097 L 26.0858,-79.5315 L 26.6049,-79.9444 L 27.131,-80.3481 L 27.6642,-80.7426
 L 28.2041,-81.1278 L 28.7507,-81.5034 L 29.3037,-81.8695 L 29.8631,-82.2258 L 30.4286,-82.5724 L 31,-82.909
 L 31.5772,-83.2355 L 32.1601,-83.552 L 32.7484,-83.8582 L 33.3419,-84.1542 L 33.9405,-84.4397 L 34.544,-84.7147
 L 35.1522,-84.9792 L 35.7649,-85.233 L 36.382,-85.4761 L 37.0032,-85.7083 L 37.6284,-85.9297 L 38.2574,-86.1401
 L 38.8899,-86.3396 L 39.5258,-86.5279 L 40.1649,-86.7052 L 40.807,-86.8712 L 41.4519,-87.0261 L 42.0994,-87.1696
 L 42.7493,-87.3018 L 43.4014,-87.4227 L 44.0555,-87.5322 L 44.7114,-87.6302 L 45.369,-87.7168 L 46.0279,-87.7918
 L 46.6881,-87.8554 L 47.3493,-87.9074 L 48.0112,-87.9479 L 48.6738,-87.9769 L 49.3368,-87.9942 L 50,-88
 L 50.6632,-87.9942 L 51.3262,-87.9769 L 51.9888,-87.9479 L 52.6507,-87.9074 L 53.3119,-87.8554 L 53.9721,-87.7918
 L 54.631,-87.7168 L 55.2886,-87.6302 L 55.9445,-87.5322 L 56.5986,-87.4227 L 57.2507,-87.3018 L 57.9006,-87.1696
 L 58.5481,-87.0261 L 59.193,-86.8712 L 59.8351,-86.7052 L 60.4742,-86.5279 L 61.1101,-86.3396 L 61.7426,-86.1401
 L 62.3716,-85.9297 L 62.9968,-85.7083 L 63.618,-85.4761 L 64.2351,-85.233 L 64.8478,-84.9792 L 65.456,-84.7147
 L 66.0595,-84.4397 L 66.6581,-84.1542 L 67.2516,-83.8582 L 67.8399,-83.552 L 68.4228,-83.2355 L 69,-82.909
 L 69.5714,-82.5724 L 70.1369,-82.2258 L 70.6963,-81.8695 L 71.2493,-81.5034 L 71.7959,-81.1278 L 72.3358,-80.7426
 L 72.869,-80.3481 L 73.3951,-79.9444 L 73.9142,-79.5315 L 74.4259,-79.1097 L 74.9302,-78.679 L 75.427,-78.2395
 L 75.9159,-77.7914 L 76.397,-77.3349 L 76.8701,-76.8701 L 77.3349,-76.397 L 77.7914,-75.9159 L 78.2395,-75.427
 L 78.679,-74.9302 L 79.1097,-74.4259 L 79.5315,-73.9142 L 79.9444,-73.3951 L 80.3481,-72.869 L 80.7426,-72.3358
 L 81.1278,-71.7959 L 81.5034,-71.2493 L 81.8695,-70.6963 L 82.2258,-70.1369 L 82.5724,-69.5714 L 82.909,-69
 L 83.2355,-68.4228 L 83.552,-67.8399 L 83.8582,-67.2516 L 84.1542,-66.6581 L 84.4397,-66.0595 L 84.7147,-65.456
 L 84.9792,-64.8478 L 85.233,-64.2351 L 85.4761,-63.618 L 85.7083,-62.9968 L 85.9297,-62.3716 L 86.1401,-61.7426
 L 86.3396,-61.1101 L 86.5279,-60.4742 L 86.7052,-59.8351 L 86.8712,-59.193 L 87.0261,-58.5481 L 87.1696,-57.9006
 L 87.3018,-57.2507 L 87.4227,-56.5986 L 87.5322,-55.9445 L 87.6302,-55.2886 L 87.7168,-54.631 L 87.7918,-53.9721
 L 87.8554,-53.3119 L 87.9074,-52.6507 L 87.9479,-51.9888 L 87.9769,-51.3262 L 87.9942,-50.6632 L 88,-50
 L 87.9942,-49.3368 L 87.9769,-48.6738 L 87.9479,-48.0112 L 87.9074,-47.3493 L 87.8554,-46.6881 L 87.7918,-46.0279
 L 87.7168,-45.369 L 87.6302,-44.7114 L 87.5322,-44.0555 L 87.4227,-43.4014 L 87.3018,-42.7493 L 87.1696,-42.0994
 L 87.0261,-41.4519 L 86.8712,-40.807 L 86.7052,-40.1649 L 86.5279,-39.5258 L 86.3396,-38.8899 L 86.1401,-38.2574
 L 85.9297,-37.6284 L 85.7083,-37.0032 L 85.4761,-36.382 L 85.233,-35.7649 L 84.9792,-35.1522 L 84.7147,-34.544
 L 84.4397,-33.9405 L 84.1542,-33.3419 L 83.8582,-32.7484 L 83.552,-32.1601 L 83.2355,-31.5772 L 82.909,-31
 L 82.5724,-30.4286 L 82.2258,-29.8631 L 81.8695,-29.3037 L 81.5034,-28.7507 L 81.1278,-28.2041 L 80.7426,-27.6642
 L 80.3481,-27.131 L 79.9444,-26.6049 L 79.5315,-26.0858 L 79.1097,-25.5741 L 78.679,-25.0698 L 78.2395,-24.573
 L 77.7914,-24.0841 L 77.3349,-23.603 L 76.8701,-23.1299 L 76.397,-22.6651 L 75.9159,-22.2086 L 75.427,-21.7605
 L 74.9302,-21.321 L 74.4259,-20.8903 L 73.9142,-20.4685 L 73.3951,-20.0556 L 72.869,-19.6519 L 72.3358,-19.2574
 L 71.7959,-18.8722 L 71.2493,-18.4966 L 70.6963,-18.1305 L 70.1369,-17.7742 L 69.5714,-17.4276 L 69,-17.091
 L 68.4228,-16.7645 L 67.8399,-16.448 L 67.2516,-16.1418 L 66.6581,-15.8458 L 66.0595,-15.5603 L 65.456,-15.2853
 L 64.8478,-15.0208 L 64.2351,-14.767 L 63.618,-14.5239 L 62.9968,-14.2917 L 62.3716,-14.0703 L 61.7426,-13.8599
 L 61.1101,-13.6604 L 60.4742,-13.4721 L 59.8351,-13.2948 L 59.193,-13.1288 L 58.5481,-12.9739 L 57.9006,-12.8304
 L 57.2507,-12.6982 L 56.5986,-12.5773 L 55.9445,-12.4678 L 55.2886,-12.3698 L 54.631,-12.2832 L 53.9721,-12.2082
 L 53.3119,-12.1446 L 52.6507,-12.0926 L 51.9888,-12.0521 L 51.3262,-12.0231 L 50.6632,-12.0058 L 50,-12
 z
" stroke="white" fill="white" stroke-width="0.5"/>
</svg>
