<?xml version="1.0" standalone="no"?>
<!DOCTYPE svg PUBLIC "-//W3C//DTD SVG 1.1//EN" "http://www.w3.org/Graphics/SVG/1.1/DTD/svg11.dtd">
<svg width="100mm" height="100mm" viewBox="-8 -108 116 116" xmlns="http://www.w3.org/2000/svg" version="1.1">
<title>OpenSCAD Model</title>
<path d="
M 90,-80 L 10,-80 L 10,-70 L 90,-70 z
M 12.2487,-28.0155 L 12.445,-28.0501 L 12.637,-28.1041 L 12.8226,-28.177 L 13,-28.2679 L 13.1675,-28.3761
 L 13.3234,-28.5004 L 13.4142,-28.5858 L 28.4142,-43.5858 L 28.548,-43.7336 L 28.6664,-43.894 L 28.7682,-44.0655
 L 28.8525,-44.2462 L 28.9184,-44.4344 L 28.9651,-44.6282 L 28.9924,-44.8257 L 28.9998,-45.0249 L 28.9874,-45.2239
 L 28.9552,-45.4207 L 28.9036,-45.6133 L 28.8331,-45.7998 L 28.7444,-45.9783 L 28.6383,-46.1472 L 28.5159,-46.3046
 L 28.4142,-46.4142 L 13.4142,-61.4142 L 13.2664,-61.548 L 13.106,-61.6664 L 12.9345,-61.7682 L 12.7538,-61.8525
 L 12.5656,-61.9184 L 12.3718,-61.9651 L 12.1743,-61.9924 L 11.9751,-61.9998 L 11.7761,-61.9874 L 11.5793,-61.9552
 L 11.3867,-61.9036 L 11.2002,-61.8331 L 11.0217,-61.7444 L 10.8528,-61.6383 L 10.6954,-61.5159 L 10.551,-61.3785
 L 10.4209,-61.2274 L 10.3065,-61.0641 L 10.209,-60.8902 L 10.1293,-60.7074 L 10.0681,-60.5176 L 10.0262,-60.3227
 L 10.0039,-60.1246 L 10,-60 L 10,-30 L 10.0099,-29.8009 L 10.0397,-29.6037 L 10.0889,-29.4105
 L 10.157,-29.2231 L 10.2436,-29.0435 L 10.3475,-28.8734 L 10.4679,-28.7144 L 10.6035,-28.5683 L 10.753,-28.4363
 L 10.9149,-28.3199 L 11.0876,-28.2203 L 11.2693,-28.1383 L 11.4583,-28.0748 L 11.6527,-28.0304 L 11.8505,-28.0056
 L 12.0499,-28.0006 z
M 90,-60 L 40,-60 L 40,-50 L 90,-50 z
M 90,-40 L 40,-40 L 40,-30 L 90,-30 z
M 90,-20 L 10,-20 L 10,-10 L 90,-10 z
" stroke="white" fill="white" stroke-width="0.5"/>
</svg>
