<?xml version="1.0" standalone="no"?>
<!DOCTYPE svg PUBLIC "-//W3C//DTD SVG 1.1//EN" "http://www.w3.org/Graphics/SVG/1.1/DTD/svg11.dtd">
<svg width="100mm" height="100mm" viewBox="-8 -108 116 116" xmlns="http://www.w3.org/2000/svg" version="1.1">
<title>OpenSCAD Model</title>
<path d="
M 90,-80 L 10,-80 L 10,-70 L 90,-70 z
M 12.2091,-28.011 L 12.4158,-28.0437 L 12.618,-28.0979 L 12.8135,-28.1729 L 13,-28.2679 L 13.1756,-28.382
 L 13.4142,-28.5858 L 28.4142,-43.5858 L 28.5543,-43.7414 L 28.6773,-43.9107 L 28.782,-44.092 L 28.8672,-44.2833
 L 28.9319,-44.4824 L 28.9754,-44.6871 L 28.9973,-44.8953 L 28.9973,-45.1047 L 28.9754,-45.3129 L 28.9319,-45.5176
 L 28.8672,-45.7167 L 28.782,-45.908 L 28.6773,-46.0893 L 28.5543,-46.2586 L 28.4142,-46.4142 L 13.4142,-61.4142
 L 13.2586,-61.5543 L 13.0893,-61.6773 L 12.908,-61.782 L 12.7167,-61.8672 L 12.5176,-61.9319 L 12.3129,-61.9754
 L 12.1047,-61.9973 L 11.8953,-61.9973 L 11.6871,-61.9754 L 11.4824,-61.9319 L 11.2833,-61.8672 L 11.092,-61.782
 L 10.9107,-61.6773 L 10.7414,-61.5543 L 10.5858,-61.4142 L 10.4457,-61.2586 L 10.3227,-61.0893 L 10.218,-60.908
 L 10.1328,-60.7167 L 10.0681,-60.5176 L 10.0246,-60.3129 L 10,-60 L 10,-30 L 10.011,-29.7909
 L 10.0437,-29.5842 L 10.0979,-29.382 L 10.1729,-29.1865 L 10.2679,-29 L 10.382,-28.8244 L 10.5137,-28.6617
 L 10.6617,-28.5137 L 10.8244,-28.382 L 11,-28.2679 L 11.1865,-28.1729 L 11.382,-28.0979 L 11.5842,-28.0437
 L 11.7909,-28.011 L 12,-28 z
M 90,-60 L 40,-60 L 40,-50 L 90,-50 z
M 90,-40 L 40,-40 L 40,-30 L 90,-30 z
M 90,-20 L 10,-20 L 10,-10 L 90,-10 z
" stroke="white" fill="white" stroke-width="0.5"/>
</svg>
