<?xml version="1.0" standalone="no"?>
<!DOCTYPE svg PUBLIC "-//W3C//DTD SVG 1.1//EN" "http://www.w3.org/Graphics/SVG/1.1/DTD/svg11.dtd">
<svg width="100mm" height="100mm" viewBox="-8 -108 116 116" xmlns="http://www.w3.org/2000/svg" version="1.1">
<title>OpenSCAD Model</title>
<path d="
M 50.2239,-10.5126 L 50.4207,-10.5448 L 50.6133,-10.5964 L 50.7998,-10.6669 L 50.9783,-10.7556 L 51.1472,-10.8617
 L 51.3046,-10.9841 L 51.4142,-11.0858 L 91.4142,-51.0858 L 91.548,-51.2336 L 91.6664,-51.394 L 91.7682,-51.5655
 L 91.8525,-51.7462 L 91.9184,-51.9344 L 91.9651,-52.1282 L 91.9924,-52.3257 L 91.9998,-52.5249 L 91.9874,-52.7239
 L 91.9552,-52.9207 L 91.9036,-53.1133 L 91.8331,-53.2998 L 91.7444,-53.4783 L 91.6383,-53.6472 L 91.5159,-53.8046
 L 91.4142,-53.9142 L 88.5858,-56.7426 L 88.4379,-56.8764 L 88.2775,-56.9948 L 88.1061,-57.0966 L 87.9254,-57.1809
 L 87.7372,-57.2468 L 87.5434,-57.2935 L 87.3459,-57.3208 L 87.1466,-57.3283 L 86.9476,-57.3158 L 86.7509,-57.2837
 L 86.5583,-57.2321 L 86.3718,-57.1615 L 86.1932,-57.0728 L 86.0244,-56.9667 L 85.867,-56.8444 L 85.7574,-56.7426
 L 69.9848,-40.9701 L 69.991,-41.044 L 70.0012,-41.174 L 70.0106,-41.3046 L 70.0195,-41.4358 L 70.0276,-41.5676
 L 70.0352,-41.7001 L 70.042,-41.8331 L 70.0482,-41.9668 L 70.0538,-42.1012 L 70.0587,-42.2361 L 70.0629,-42.3717
 L 70.0665,-42.5079 L 70.0695,-42.6447 L 70.0718,-42.7822 L 70.0734,-42.9202 L 70.0744,-43.0589 L 70.0747,-43.1983
 L 70.0744,-43.3247 L 70.0735,-43.4505 L 70.072,-43.5757 L 70.0699,-43.7002 L 70.0672,-43.8242 L 70.0639,-43.9475
 L 70.06,-44.0701 L 70.0555,-44.1922 L 70.0504,-44.3136 L 70.0447,-44.4344 L 70.0384,-44.5546 L 70.0314,-44.6742
 L 70.0239,-44.7931 L 70.0158,-44.9114 L 70.0071,-45.0291 L 69.9978,-45.1461 L 69.9879,-45.2625 L 69.9774,-45.3783
 L 69.9662,-45.4935 L 69.9545,-45.6081 L 69.9422,-45.722 L 69.9293,-45.8353 L 69.9158,-45.948 L 69.9017,-46.06
 L 69.8869,-46.1714 L 69.8716,-46.2822 L 69.8557,-46.3924 L 69.8392,-46.502 L 69.822,-46.6109 L 69.8043,-46.7192
 L 69.786,-46.8269 L 69.7671,-46.9339 L 69.7475,-47.0403 L 69.7274,-47.1461 L 69.7067,-47.2513 L 69.6853,-47.3558
 L 69.6634,-47.4598 L 69.6409,-47.5631 L 69.6177,-47.6657 L 69.594,-47.7678 L 69.5697,-47.8692 L 69.5447,-47.97
 L 69.5192,-48.0702 L 69.4931,-48.1697 L 69.4663,-48.2686 L 69.439,-48.3669 L 69.4111,-48.4646 L 69.3828,-48.5615
 L 69.354,-48.6578 L 69.3247,-48.7533 L 69.295,-48.8481 L 69.2649,-48.9423 L 69.2343,-49.0357 L 69.2032,-49.1284
 L 69.1716,-49.2205 L 69.1396,-49.3118 L 69.1071,-49.4025 L 69.0742,-49.4924 L 69.0408,-49.5816 L 69.007,-49.6701
 L 68.9727,-49.7579 L 68.9379,-49.845 L 68.9027,-49.9315 L 68.867,-50.0172 L 68.8309,-50.1022 L 68.7943,-50.1865
 L 68.7572,-50.2701 L 68.7197,-50.353 L 68.6817,-50.4352 L 68.6433,-50.5167 L 68.6044,-50.5975 L 68.5651,-50.6776
 L 68.5252,-50.757 L 68.485,-50.8357 L 68.4442,-50.9137 L 68.4031,-50.991 L 68.3614,-51.0676 L 68.3193,-51.1435
 L 68.2767,-51.2187 L 68.2337,-51.2931 L 68.1902,-51.3669 L 68.1463,-51.44 L 68.1018,-51.5124 L 68.057,-51.5841
 L 68.0117,-51.655 L 67.9659,-51.7253 L 67.9196,-51.7949 L 67.8729,-51.8637 L 67.8257,-51.9319 L 67.7781,-51.9994
 L 67.73,-52.0661 L 67.6815,-52.1322 L 67.6326,-52.1976 L 67.5832,-52.2622 L 67.5336,-52.3262 L 67.4835,-52.3896
 L 67.4331,-52.4522 L 67.3822,-52.5141 L 67.3311,-52.5754 L 67.2795,-52.6359 L 67.2276,-52.6958 L 67.1753,-52.755
 L 67.1227,-52.8134 L 67.0697,-52.8712 L 67.0163,-52.9284 L 66.9625,-52.9848 L 66.9083,-53.0405 L 66.8538,-53.0956
 L 66.7989,-53.1499 L 66.7437,-53.2036 L 66.688,-53.2565 L 66.632,-53.3088 L 66.5757,-53.3604 L 66.5189,-53.4113
 L 66.4618,-53.4616 L 66.4043,-53.5111 L 66.3465,-53.5599 L 66.2882,-53.6081 L 66.2296,-53.6555 L 66.1707,-53.7023
 L 66.1113,-53.7484 L 66.0516,-53.7938 L 65.9915,-53.8385 L 65.9311,-53.8825 L 65.8702,-53.9258 L 65.809,-53.9685
 L 65.7475,-54.0104 L 65.6855,-54.0517 L 65.6232,-54.0922 L 65.5605,-54.1321 L 65.4975,-54.1713 L 65.4341,-54.2098
 L 65.3703,-54.2476 L 65.3061,-54.2847 L 65.2415,-54.3212 L 65.1766,-54.3569 L 65.1113,-54.392 L 65.0457,-54.4263
 L 64.9797,-54.46 L 64.9135,-54.493 L 64.8471,-54.5251 L 64.7805,-54.5566 L 64.7136,-54.5873 L 64.6465,-54.6173
 L 64.5792,-54.6465 L 64.5116,-54.675 L 64.4438,-54.7027 L 64.3758,-54.7297 L 64.3076,-54.756 L 64.2391,-54.7815
 L 64.1704,-54.8063 L 64.1014,-54.8304 L 64.0323,-54.8537 L 63.9629,-54.8763 L 63.8932,-54.8981 L 63.8234,-54.9192
 L 63.7533,-54.9395 L 63.683,-54.9591 L 63.6124,-54.978 L 63.5417,-54.9961 L 63.4706,-55.0135 L 63.3994,-55.0302
 L 63.3279,-55.0461 L 63.2562,-55.0613 L 63.1843,-55.0757 L 63.1122,-55.0894 L 63.0398,-55.1023 L 62.9672,-55.1145
 L 62.8943,-55.126 L 62.8213,-55.1367 L 62.748,-55.1467 L 62.6744,-55.156 L 62.6007,-55.1645 L 62.5267,-55.1723
 L 62.4525,-55.1793 L 62.378,-55.1856 L 62.3033,-55.1911 L 62.2284,-55.1959 L 62.1533,-55.2 L 62.0779,-55.2033
 L 62.0023,-55.2059 L 61.9265,-55.2078 L 61.8504,-55.2089 L 61.7742,-55.2092 L 61.7199,-55.2092 L 61.6661,-55.2089
 L 61.6127,-55.2085 L 61.5598,-55.2078 L 61.5072,-55.207 L 61.4552,-55.206 L 61.4035,-55.2049 L 61.3523,-55.2035
 L 61.3015,-55.202 L 61.2512,-55.2003 L 61.2012,-55.1984 L 61.1517,-55.1964 L 61.1027,-55.1941 L 61.0541,-55.1917
 L 61.0059,-55.1891 L 60.9581,-55.1864 L 60.9108,-55.1834 L 60.8639,-55.1803 L 60.8175,-55.177 L 60.7715,-55.1735
 L 60.7259,-55.1698 L 60.6807,-55.166 L 60.636,-55.162 L 60.5917,-55.1578 L 60.5479,-55.1534 L 60.5044,-55.1488
 L 60.4615,-55.1441 L 60.4189,-55.1392 L 60.3768,-55.1341 L 60.3351,-55.1288 L 60.2938,-55.1234 L 60.253,-55.1178
 L 60.2126,-55.112 L 60.1727,-55.106 L 60.1331,-55.0998 L 60.094,-55.0934 L 60.0554,-55.0869 L 60.0172,-55.0802
 L 59.9794,-55.0733 L 59.942,-55.0663 L 59.9051,-55.0591 L 59.8686,-55.0516 L 59.8325,-55.044 L 59.7969,-55.0363
 L 59.7617,-55.0283 L 59.7269,-55.0202 L 59.6582,-55.0038 L 59.5902,-54.9874 L 59.5565,-54.9792 L 59.4897,-54.9628
 L 59.4236,-54.9464 L 59.3582,-54.9299 L 59.2935,-54.9135 L 59.2296,-54.8971 L 59.198,-54.8889 L 59.1352,-54.8725
 L 59.1041,-54.8643 L 59.0424,-54.8479 L 59.0119,-54.8396 L 58.9815,-54.8314 L 58.9213,-54.815 L 58.8915,-54.8068
 L 58.8324,-54.7904 L 58.8032,-54.7822 L 58.7741,-54.774 L 58.7165,-54.7575 L 58.688,-54.7493 L 58.6315,-54.7329
 L 58.6036,-54.7247 L 58.5482,-54.7082 L 58.5208,-54.7 L 58.4936,-54.6918 L 58.4397,-54.6754 L 58.4131,-54.6671
 L 58.3603,-54.6507 L 58.3342,-54.6425 L 58.6446,-60 L 80.1,-60 L 80.1,-84.5 L 72.8997,-77.2997
 L 72.6196,-77.6646 L 72.6121,-77.6743 L 72.3079,-78.0567 L 72.3002,-78.0662 L 71.9894,-78.4433 L 71.9815,-78.4527
 L 71.6641,-78.8243 L 71.6561,-78.8335 L 71.3323,-79.1995 L 71.3241,-79.2086 L 70.994,-79.5689 L 70.9857,-79.5778
 L 70.6493,-79.9323 L 70.6408,-79.9411 L 70.2983,-80.2896 L 70.2896,-80.2983 L 69.9411,-80.6408 L 69.9323,-80.6493
 L 69.5778,-80.9857 L 69.5689,-80.994 L 69.2086,-81.3241 L 69.1995,-81.3323 L 68.8335,-81.6561 L 68.8243,-81.6641
 L 68.4527,-81.9815 L 68.4433,-81.9894 L 68.0662,-82.3002 L 68.0567,-82.3079 L 67.6743,-82.6121 L 67.6646,-82.6196
 L 67.2769,-82.9171 L 67.2672,-82.9245 L 66.8743,-83.2152 L 66.8645,-83.2224 L 66.4666,-83.5061 L 66.4566,-83.5131
 L 66.0539,-83.7899 L 66.0437,-83.7968 L 65.6362,-84.0665 L 65.626,-84.0731 L 65.2138,-84.3357 L 65.2035,-84.3422
 L 64.7868,-84.5975 L 64.7763,-84.6038 L 64.3553,-84.8518 L 64.3447,-84.8579 L 63.9194,-85.0986 L 63.9087,-85.1045
 L 63.4792,-85.3377 L 63.4684,-85.3434 L 63.0349,-85.5691 L 63.0241,-85.5746 L 62.5867,-85.7927 L 62.5757,-85.798
 L 62.1347,-86.0084 L 62.1236,-86.0136 L 61.6789,-86.2162 L 61.6677,-86.2212 L 61.2196,-86.4161 L 61.2083,-86.4209
 L 60.7568,-86.6078 L 60.7455,-86.6124 L 60.2909,-86.7915 L 60.2794,-86.7959 L 59.8217,-86.9671 L 59.8102,-86.9712
 L 59.3496,-87.1344 L 59.338,-87.1384 L 58.8746,-87.2934 L 58.863,-87.2972 L 58.3969,-87.4441 L 58.3852,-87.4477
 L 57.9166,-87.5865 L 57.9049,-87.5898 L 57.434,-87.7204 L 57.4222,-87.7236 L 56.9491,-87.846 L 56.9372,-87.8489
 L 56.462,-87.963 L 56.4501,-87.9657 L 55.973,-88.0715 L 55.9611,-88.0741 L 55.4822,-88.1715 L 55.4702,-88.1738
 L 54.9897,-88.2629 L 54.9777,-88.265 L 54.4957,-88.3457 L 54.4836,-88.3476 L 54.0003,-88.4198 L 53.9882,-88.4215
 L 53.5037,-88.4853 L 53.4916,-88.4868 L 53.006,-88.5421 L 52.9939,-88.5434 L 52.5074,-88.5902 L 52.4953,-88.5913
 L 52.0081,-88.6296 L 51.9959,-88.6305 L 51.5081,-88.6603 L 51.4959,-88.6609 L 51.0077,-88.6823 L 50.9955,-88.6827
 L 50.507,-88.6955 L 50.4948,-88.6957 L 50.0061,-88.7 L 49.9939,-88.7 L 49.5052,-88.6957 L 49.493,-88.6955
 L 49.0045,-88.6827 L 48.9923,-88.6823 L 48.5041,-88.6609 L 48.4919,-88.6603 L 48.0041,-88.6305 L 47.9919,-88.6296
 L 47.5047,-88.5913 L 47.4926,-88.5902 L 47.0061,-88.5434 L 46.994,-88.5421 L 46.5084,-88.4868 L 46.4963,-88.4853
 L 46.0118,-88.4215 L 45.9997,-88.4198 L 45.5164,-88.3476 L 45.5043,-88.3457 L 45.0223,-88.265 L 45.0103,-88.2629
 L 44.5298,-88.1738 L 44.5178,-88.1715 L 44.0389,-88.0741 L 44.0269,-88.0715 L 43.5499,-87.9657 L 43.538,-87.963
 L 43.0628,-87.8489 L 43.0509,-87.846 L 42.5778,-87.7236 L 42.566,-87.7204 L 42.0951,-87.5898 L 42.0833,-87.5865
 L 41.6148,-87.4477 L 41.6031,-87.4441 L 41.137,-87.2972 L 41.1254,-87.2934 L 40.662,-87.1384 L 40.6504,-87.1344
 L 40.1898,-86.9712 L 40.1783,-86.9671 L 39.7206,-86.7959 L 39.7091,-86.7915 L 39.2545,-86.6124 L 39.2431,-86.6078
 L 38.7917,-86.4209 L 38.7804,-86.4161 L 38.3322,-86.2212 L 38.3211,-86.2162 L 37.8764,-86.0136 L 37.8653,-86.0084
 L 37.4243,-85.798 L 37.4133,-85.7927 L 36.9759,-85.5746 L 36.965,-85.5691 L 36.5316,-85.3434 L 36.5208,-85.3377
 L 36.0913,-85.1045 L 36.0806,-85.0986 L 35.6553,-84.8579 L 35.6447,-84.8518 L 35.2236,-84.6038 L 35.2132,-84.5975
 L 34.7965,-84.3422 L 34.7861,-84.3357 L 34.374,-84.0731 L 34.3638,-84.0665 L 33.9563,-83.7968 L 33.9461,-83.7899
 L 33.5434,-83.5131 L 33.5334,-83.5061 L 33.1355,-83.2224 L 33.1256,-83.2152 L 32.7328,-82.9245 L 32.7231,-82.9171
 L 32.3353,-82.6196 L 32.3257,-82.6121 L 31.9433,-82.3079 L 31.9338,-82.3002 L 31.5567,-81.9894 L 31.5473,-81.9815
 L 31.1757,-81.6641 L 31.1665,-81.6561 L 30.8005,-81.3323 L 30.7914,-81.3241 L 30.4311,-80.994 L 30.4222,-80.9857
 L 30.0677,-80.6493 L 30.0589,-80.6408 L 29.7104,-80.2983 L 29.7017,-80.2896 L 29.3592,-79.9411 L 29.3507,-79.9323
 L 29.0143,-79.5778 L 29.006,-79.5689 L 28.6759,-79.2086 L 28.6677,-79.1995 L 28.3439,-78.8335 L 28.3358,-78.8243
 L 28.0185,-78.4527 L 28.0106,-78.4433 L 27.6998,-78.0662 L 27.6921,-78.0567 L 27.3879,-77.6743 L 27.3804,-77.6646
 L 27.0829,-77.2769 L 27.0755,-77.2672 L 26.7848,-76.8743 L 26.7776,-76.8645 L 26.4939,-76.4666 L 26.4869,-76.4566
 L 26.2101,-76.0539 L 26.2032,-76.0437 L 25.9335,-75.6362 L 25.9268,-75.626 L 25.6643,-75.2138 L 25.6578,-75.2035
 L 25.4025,-74.7868 L 25.3962,-74.7763 L 25.1481,-74.3553 L 25.142,-74.3447 L 24.9014,-73.9194 L 24.8955,-73.9087
 L 24.6623,-73.4792 L 24.6566,-73.4684 L 24.4309,-73.0349 L 24.4254,-73.0241 L 24.2073,-72.5867 L 24.202,-72.5757
 L 23.9916,-72.1347 L 23.9864,-72.1236 L 23.7838,-71.6789 L 23.7788,-71.6677 L 23.5839,-71.2196 L 23.5791,-71.2083
 L 23.3921,-70.7568 L 23.3876,-70.7455 L 23.2085,-70.2909 L 23.2041,-70.2794 L 23.0329,-69.8217 L 23.0288,-69.8102
 L 22.8656,-69.3496 L 22.8616,-69.338 L 22.7066,-68.8746 L 22.7028,-68.863 L 22.5559,-68.3969 L 22.5523,-68.3852
 L 22.4135,-67.9166 L 22.4101,-67.9049 L 22.2795,-67.434 L 22.2764,-67.4222 L 22.154,-66.9491 L 22.1511,-66.9372
 L 22.037,-66.462 L 22.0342,-66.4501 L 21.9285,-65.973 L 21.9259,-65.9611 L 21.8285,-65.4822 L 21.8262,-65.4702
 L 21.7371,-64.9897 L 21.735,-64.9777 L 21.6543,-64.4957 L 21.6524,-64.4836 L 21.5802,-64.0003 L 21.5785,-63.9882
 L 21.5147,-63.5037 L 21.5132,-63.4916 L 21.4579,-63.006 L 21.4566,-62.9939 L 21.4444,-62.8671 L 21.4447,-62.7299
 L 21.4718,-62.5953 L 21.5246,-62.4687 L 21.601,-62.3547 L 21.6983,-62.2579 L 21.8125,-62.1819 L 21.9394,-62.1297
 L 22.1412,-62.1 L 22.1762,-62.1 L 22.3128,-62.1134 L 22.4441,-62.1533 L 22.5651,-62.218 L 22.6712,-62.305
 L 22.7582,-62.4111 L 22.8229,-62.5321 L 22.8702,-62.7086 L 22.9112,-63.0199 L 22.9672,-63.3947 L 23.0296,-63.7677
 L 23.0988,-64.1411 L 23.1741,-64.511 L 23.2563,-64.8817 L 23.3446,-65.2495 L 23.4395,-65.6166 L 23.5407,-65.9814
 L 23.6482,-66.3444 L 23.7621,-66.7057 L 23.8822,-67.0647 L 24.0086,-67.4217 L 24.1414,-67.7769 L 24.2802,-68.129
 L 24.425,-68.4786 L 24.5759,-68.8257 L 24.7334,-69.1713 L 24.8961,-69.5124 L 25.0651,-69.8515 L 25.2402,-70.1877
 L 25.4208,-70.5204 L 25.6073,-70.85 L 25.7995,-71.1763 L 25.9973,-71.4992 L 26.2007,-71.8183 L 26.41,-72.1347
 L 26.6246,-72.4468 L 26.8441,-72.7546 L 27.0697,-73.0594 L 27.3002,-73.3598 L 27.536,-73.6563 L 27.7768,-73.9484
 L 28.0228,-74.2364 L 28.274,-74.5203 L 28.5295,-74.7992 L 28.7901,-75.0738 L 29.0558,-75.3442 L 29.3262,-75.6099
 L 29.6008,-75.8705 L 29.8797,-76.126 L 30.1636,-76.3772 L 30.4515,-76.6231 L 30.7437,-76.864 L 31.0401,-77.0998
 L 31.3405,-77.3303 L 31.6454,-77.5559 L 31.9532,-77.7754 L 32.2653,-77.9899 L 32.5817,-78.1993 L 32.9008,-78.4026
 L 33.2237,-78.6005 L 33.55,-78.7927 L 33.8796,-78.9792 L 34.2122,-79.1598 L 34.5485,-79.3349 L 34.8876,-79.5039
 L 35.2287,-79.6666 L 35.5742,-79.8241 L 35.9213,-79.975 L 36.271,-80.1198 L 36.6231,-80.2585 L 36.9783,-80.3913
 L 37.3353,-80.5178 L 37.6942,-80.6379 L 38.0556,-80.7518 L 38.4186,-80.8593 L 38.7834,-80.9605 L 39.1505,-81.0554
 L 39.5182,-81.1437 L 39.8889,-81.2259 L 40.2589,-81.3012 L 40.6323,-81.3704 L 41.0053,-81.4328 L 41.38,-81.4888
 L 41.7552,-81.5382 L 42.132,-81.5811 L 42.5085,-81.6174 L 42.8862,-81.6471 L 43.2642,-81.6702 L 43.6427,-81.6867
 L 44.0219,-81.6967 L 44.4,-81.7 L 44.7781,-81.6967 L 45.1573,-81.6867 L 45.5358,-81.6702 L 45.9138,-81.6471
 L 46.2915,-81.6174 L 46.668,-81.5811 L 47.0448,-81.5382 L 47.42,-81.4888 L 47.7947,-81.4328 L 48.1677,-81.3704
 L 48.5411,-81.3012 L 48.9111,-81.2259 L 49.2818,-81.1437 L 49.6494,-81.0555 L 50.0167,-80.9604 L 50.3814,-80.8593
 L 50.7444,-80.7518 L 51.1057,-80.6379 L 51.4647,-80.5178 L 51.8217,-80.3913 L 52.1769,-80.2585 L 52.529,-80.1198
 L 52.8786,-79.975 L 53.2257,-79.8241 L 53.5713,-79.6666 L 53.9124,-79.5039 L 54.2515,-79.3349 L 54.5877,-79.1598
 L 54.9204,-78.9792 L 55.25,-78.7927 L 55.5763,-78.6005 L 55.8992,-78.4026 L 56.2183,-78.1993 L 56.5347,-77.9899
 L 56.8468,-77.7754 L 57.1546,-77.5559 L 57.4595,-77.3303 L 57.7599,-77.0998 L 58.0563,-76.864 L 58.3484,-76.6231
 L 58.6364,-76.3772 L 58.9203,-76.126 L 59.1992,-75.8705 L 59.4738,-75.6099 L 59.7442,-75.3442 L 60.0099,-75.0738
 L 60.2705,-74.7992 L 60.526,-74.5203 L 60.7772,-74.2364 L 61.0231,-73.9484 L 61.264,-73.6563 L 61.4998,-73.3598
 L 61.7303,-73.0594 L 61.9559,-72.7546 L 62.1754,-72.4468 L 62.3899,-72.1347 L 62.5993,-71.8183 L 62.8026,-71.4992
 L 63.0005,-71.1763 L 63.1927,-70.85 L 63.3792,-70.5204 L 63.5598,-70.1877 L 63.7348,-69.8515 L 63.9039,-69.5124
 L 63.9288,-69.4603 L 53.7727,-69.4603 L 52.7444,-49.3524 L 55.0439,-47.5709 L 55.0594,-47.5779 L 55.0751,-47.5849
 L 55.0908,-47.5919 L 55.1067,-47.599 L 55.1227,-47.6059 L 55.1388,-47.6129 L 55.1715,-47.6268 L 55.188,-47.6338
 L 55.2213,-47.6476 L 55.2552,-47.6614 L 55.2896,-47.6751 L 55.3069,-47.6819 L 55.3244,-47.6888 L 55.342,-47.6956
 L 55.3776,-47.7092 L 55.4137,-47.7227 L 55.4503,-47.7362 L 55.4874,-47.7497 L 55.5249,-47.7631 L 55.563,-47.7764
 L 55.5822,-47.7831 L 55.621,-47.7964 L 55.6603,-47.8096 L 55.6802,-47.8161 L 55.7202,-47.8293 L 55.7607,-47.8424
 L 55.8018,-47.8554 L 55.8433,-47.8684 L 55.8853,-47.8813 L 55.9276,-47.8942 L 55.9915,-47.9135 L 56.0558,-47.9326
 L 56.0988,-47.9453 L 56.142,-47.9579 L 56.1855,-47.9705 L 56.229,-47.983 L 56.2947,-48.0017 L 56.3388,-48.0141
 L 56.383,-48.0264 L 56.4274,-48.0387 L 56.4719,-48.051 L 56.5166,-48.0632 L 56.5615,-48.0753 L 56.6066,-48.0874
 L 56.6519,-48.0994 L 56.6973,-48.1114 L 56.7429,-48.1234 L 56.7887,-48.1352 L 56.8577,-48.153 L 56.9271,-48.1706
 L 56.9503,-48.1764 L 56.9735,-48.1821 L 56.9967,-48.1878 L 57.02,-48.1934 L 57.0433,-48.199 L 57.0899,-48.21
 L 57.1132,-48.2155 L 57.1365,-48.2208 L 57.1599,-48.2262 L 57.1832,-48.2314 L 57.2066,-48.2367 L 57.2534,-48.247
 L 57.2769,-48.252 L 57.3003,-48.2571 L 57.3238,-48.262 L 57.3473,-48.267 L 57.3708,-48.2718 L 57.3943,-48.2766
 L 57.4415,-48.2861 L 57.4886,-48.2954 L 57.5359,-48.3045 L 57.5595,-48.3089 L 57.5832,-48.3133 L 57.6069,-48.3177
 L 57.6306,-48.322 L 57.6543,-48.3263 L 57.678,-48.3305 L 57.7256,-48.3387 L 57.7731,-48.3468 L 57.797,-48.3507
 L 57.8447,-48.3585 L 57.8686,-48.3623 L 57.8925,-48.366 L 57.9164,-48.3697 L 57.9403,-48.3733 L 57.9642,-48.3769
 L 58.0121,-48.3839 L 58.036,-48.3874 L 58.0599,-48.3907 L 58.0836,-48.394 L 58.1073,-48.3972 L 58.131,-48.4003
 L 58.1546,-48.4033 L 58.1781,-48.4062 L 58.2016,-48.4091 L 58.2249,-48.4119 L 58.2483,-48.4146 L 58.2715,-48.4173
 L 58.2948,-48.4199 L 58.341,-48.4248 L 58.364,-48.4271 L 58.387,-48.4294 L 58.4099,-48.4316 L 58.4327,-48.4337
 L 58.4555,-48.4357 L 58.4782,-48.4377 L 58.5009,-48.4396 L 58.546,-48.4431 L 58.5684,-48.4447 L 58.5908,-48.4463
 L 58.6132,-48.4478 L 58.6355,-48.4492 L 58.6577,-48.4506 L 58.6798,-48.4518 L 58.7019,-48.453 L 58.724,-48.4541
 L 58.7459,-48.4552 L 58.7678,-48.4561 L 58.7897,-48.457 L 58.8115,-48.4578 L 58.8332,-48.4586 L 58.8548,-48.4592
 L 58.8764,-48.4598 L 58.898,-48.4603 L 58.9194,-48.4607 L 58.9409,-48.461 L 58.9622,-48.4613 L 58.9835,-48.4615
 L 59.0047,-48.4616 L 59.0259,-48.4617 L 59.1414,-48.4609 L 59.2557,-48.4588 L 59.3687,-48.4552 L 59.4803,-48.4501
 L 59.5906,-48.4436 L 59.6996,-48.4357 L 59.8073,-48.4263 L 59.9137,-48.4155 L 60.0187,-48.4033 L 60.1225,-48.3896
 L 60.2249,-48.3744 L 60.326,-48.3578 L 60.4258,-48.3398 L 60.5242,-48.3204 L 60.6214,-48.2995 L 60.7172,-48.2771
 L 60.8117,-48.2533 L 60.9049,-48.2281 L 60.9968,-48.2014 L 61.0874,-48.1733 L 61.1767,-48.1438 L 61.2646,-48.1128
 L 61.3512,-48.0804 L 61.4365,-48.0465 L 61.5205,-48.0112 L 61.6031,-47.9744 L 61.6845,-47.9362 L 61.7645,-47.8965
 L 61.8432,-47.8555 L 61.9207,-47.8129 L 61.9967,-47.769 L 62.0715,-47.7236 L 62.1449,-47.6767 L 62.2171,-47.6284
 L 62.2879,-47.5787 L 62.3574,-47.5275 L 62.4256,-47.4749 L 62.4925,-47.4208 L 62.558,-47.3653 L 62.6222,-47.3084
 L 62.6852,-47.25 L 62.7468,-47.1902 L 62.8071,-47.1289 L 62.866,-47.0662 L 62.9237,-47.002 L 62.98,-46.9364
 L 63.0351,-46.8695 L 63.0889,-46.8012 L 63.1416,-46.7316 L 63.193,-46.6608 L 63.2433,-46.5885 L 63.2923,-46.515
 L 63.3401,-46.4402 L 63.3867,-46.364 L 63.4321,-46.2866 L 63.4762,-46.2078 L 63.5192,-46.1277 L 63.561,-46.0463
 L 63.6015,-45.9636 L 63.6408,-45.8795 L 63.679,-45.7942 L 63.7159,-45.7075 L 63.7516,-45.6195 L 63.7861,-45.5302
 L 63.8194,-45.4396 L 63.8515,-45.3477 L 63.8823,-45.2545 L 63.912,-45.1599 L 63.9404,-45.0641 L 63.9677,-44.9669
 L 63.9937,-44.8684 L 64.0185,-44.7686 L 64.0421,-44.6675 L 64.0645,-44.565 L 64.0856,-44.4613 L 64.1056,-44.3562
 L 64.1244,-44.2499 L 64.1419,-44.1422 L 64.1583,-44.0332 L 64.1734,-43.9229 L 64.1873,-43.8112 L 64.2,-43.6983
 L 64.2115,-43.584 L 64.2218,-43.4684 L 64.2309,-43.3516 L 64.2388,-43.2334 L 64.2454,-43.1138 L 64.2509,-42.993
 L 64.2551,-42.8709 L 64.2581,-42.7474 L 64.2599,-42.6226 L 64.2605,-42.4966 L 64.2599,-42.3554 L 64.2581,-42.2159
 L 64.255,-42.0781 L 64.2507,-41.942 L 64.2451,-41.8075 L 64.2383,-41.6747 L 64.2302,-41.5436 L 64.221,-41.4141
 L 64.2104,-41.2863 L 64.1987,-41.1602 L 64.1857,-41.0358 L 64.1715,-40.913 L 64.156,-40.7919 L 64.1393,-40.6725
 L 64.1214,-40.5547 L 64.1022,-40.4386 L 64.0818,-40.3242 L 64.0602,-40.2114 L 64.0373,-40.1003 L 64.0132,-39.9909
 L 63.9878,-39.8832 L 63.9612,-39.7771 L 63.9334,-39.6727 L 63.9043,-39.57 L 63.874,-39.4689 L 63.8425,-39.3696
 L 63.8097,-39.2718 L 63.7757,-39.1758 L 63.7404,-39.0814 L 63.7039,-38.9887 L 63.6662,-38.8977 L 63.6272,-38.8083
 L 63.587,-38.7206 L 63.5456,-38.6346 L 63.5029,-38.5503 L 63.459,-38.4676 L 63.4139,-38.3866 L 63.3675,-38.3072
 L 63.3199,-38.2296 L 63.271,-38.1536 L 63.2209,-38.0793 L 63.1696,-38.0066 L 63.117,-37.9356 L 63.0632,-37.8663
 L 63.0082,-37.7986 L 62.9519,-37.7327 L 62.8944,-37.6683 L 62.8358,-37.6053 L 62.7761,-37.5437 L 62.7152,-37.4835
 L 62.6533,-37.4248 L 62.5901,-37.3674 L 62.5259,-37.3115 L 62.4605,-37.257 L 62.394,-37.2039 L 62.3264,-37.1523
 L 62.2576,-37.102 L 62.1877,-37.0532 L 62.1166,-37.0058 L 62.0445,-36.9597 L 61.9712,-36.9151 L 61.8967,-36.872
 L 61.8212,-36.8302 L 61.7445,-36.7899 L 61.6667,-36.7509 L 61.5877,-36.7134 L 61.5076,-36.6773 L 61.4264,-36.6426
 L 61.3441,-36.6094 L 61.2606,-36.5775 L 61.176,-36.5471 L 61.0903,-36.5181 L 61.0034,-36.4904 L 60.9154,-36.4643
 L 60.8263,-36.4395 L 60.736,-36.4161 L 60.6446,-36.3942 L 60.5521,-36.3737 L 60.4585,-36.3546 L 60.3637,-36.3369
 L 60.2678,-36.3206 L 60.1707,-36.3057 L 60.0726,-36.2923 L 59.9732,-36.2802 L 59.8728,-36.2696 L 59.7712,-36.2604
 L 59.6685,-36.2526 L 59.5647,-36.2463 L 59.4597,-36.2413 L 59.3537,-36.2378 L 59.2464,-36.2356 L 59.1381,-36.2349
 L 59.1015,-36.235 L 59.0648,-36.2353 L 59.028,-36.2358 L 58.9911,-36.2365 L 58.9541,-36.2373 L 58.9171,-36.2384
 L 58.8799,-36.2396 L 58.8427,-36.2411 L 58.8054,-36.2427 L 58.7679,-36.2445 L 58.7305,-36.2465 L 58.6929,-36.2487
 L 58.6552,-36.2511 L 58.6174,-36.2537 L 58.5796,-36.2564 L 58.5416,-36.2594 L 58.5036,-36.2626 L 58.4655,-36.2659
 L 58.4273,-36.2694 L 58.389,-36.2731 L 58.3506,-36.2771 L 58.3121,-36.2812 L 58.2735,-36.2855 L 58.2349,-36.29
 L 58.1961,-36.2946 L 58.1573,-36.2995 L 58.1184,-36.3046 L 58.0794,-36.3098 L 58.0403,-36.3153 L 58.0011,-36.3209
 L 57.9618,-36.3268 L 57.9225,-36.3328 L 57.883,-36.339 L 57.8435,-36.3454 L 57.8039,-36.352 L 57.7641,-36.3588
 L 57.7243,-36.3658 L 57.6845,-36.3729 L 57.6445,-36.3803 L 57.6044,-36.3878 L 57.5642,-36.3956 L 57.524,-36.4035
 L 57.4837,-36.4116 L 57.4432,-36.4199 L 57.4027,-36.4284 L 57.3621,-36.4371 L 57.3215,-36.446 L 57.2809,-36.455
 L 57.2403,-36.4641 L 57.1997,-36.4734 L 57.1591,-36.4828 L 57.1185,-36.4923 L 57.0779,-36.5019 L 57.0373,-36.5117
 L 56.9968,-36.5215 L 56.9562,-36.5316 L 56.9157,-36.5417 L 56.8751,-36.552 L 56.8346,-36.5624 L 56.7941,-36.5729
 L 56.7536,-36.5836 L 56.7131,-36.5943 L 56.6726,-36.6052 L 56.6321,-36.6163 L 56.5916,-36.6274 L 56.5512,-36.6387
 L 56.5107,-36.6501 L 56.4703,-36.6617 L 56.4298,-36.6734 L 56.3894,-36.6852 L 56.349,-36.6971 L 56.3086,-36.7091
 L 56.2682,-36.7213 L 56.2278,-36.7336 L 56.1874,-36.746 L 56.147,-36.7586 L 56.1066,-36.7713 L 56.0663,-36.7841
 L 56.0259,-36.797 L 55.9856,-36.8101 L 55.9452,-36.8233 L 55.9049,-36.8366 L 55.8646,-36.8501 L 55.8243,-36.8637
 L 55.784,-36.8773 L 55.7437,-36.8912 L 55.7034,-36.9052 L 55.6631,-36.9192 L 55.6228,-36.9334 L 55.5826,-36.9478
 L 55.5423,-36.9622 L 55.5021,-36.9769 L 55.4619,-36.9916 L 55.4217,-37.0065 L 55.3817,-37.0214 L 55.3416,-37.0366
 L 55.3017,-37.0518 L 55.2618,-37.0672 L 55.2219,-37.0827 L 55.1822,-37.0983 L 55.1425,-37.1141 L 55.1028,-37.13
 L 55.0632,-37.146 L 55.0237,-37.1621 L 54.9842,-37.1784 L 54.9448,-37.1948 L 54.9055,-37.2113 L 54.8662,-37.228
 L 54.827,-37.2447 L 54.7878,-37.2617 L 54.7487,-37.2787 L 54.7097,-37.2958 L 54.6707,-37.3131 L 54.6318,-37.3306
 L 54.593,-37.3481 L 54.5542,-37.3658 L 54.5154,-37.3836 L 54.4768,-37.4015 L 54.4382,-37.4195 L 54.3996,-37.4377
 L 54.3612,-37.456 L 54.3228,-37.4745 L 54.2844,-37.493 L 54.2461,-37.5117 L 54.2079,-37.5305 L 54.1697,-37.5495
 L 54.1316,-37.5686 L 54.0936,-37.5878 L 54.0556,-37.6071 L 54.0176,-37.6266 L 53.9798,-37.6461 L 53.942,-37.6659
 L 53.9043,-37.6857 L 53.8666,-37.7057 L 53.829,-37.7258 L 53.7914,-37.746 L 53.7539,-37.7663 L 53.7165,-37.7868
 L 53.6792,-37.8074 L 53.6421,-37.828 L 53.6052,-37.8487 L 53.5685,-37.8695 L 53.532,-37.8903 L 53.4957,-37.9112
 L 53.4596,-37.9322 L 53.4236,-37.9532 L 53.3879,-37.9743 L 53.3524,-37.9954 L 53.317,-38.0166 L 53.2819,-38.0379
 L 53.2469,-38.0592 L 53.2121,-38.0806 L 53.1776,-38.1021 L 53.1432,-38.1236 L 53.109,-38.1452 L 53.0751,-38.1668
 L 53.0413,-38.1886 L 53.0077,-38.2103 L 52.9743,-38.2322 L 52.9411,-38.2541 L 52.9081,-38.2761 L 52.8752,-38.2981
 L 52.8426,-38.3202 L 52.8102,-38.3424 L 52.778,-38.3646 L 52.7459,-38.3869 L 52.7141,-38.4092 L 52.6824,-38.4317
 L 52.651,-38.4541 L 52.6197,-38.4767 L 52.5886,-38.4993 L 52.5578,-38.522 L 52.5271,-38.5447 L 52.4966,-38.5675
 L 52.4663,-38.5903 L 52.4362,-38.6133 L 52.4063,-38.6363 L 52.3766,-38.6593 L 52.3471,-38.6824 L 52.3178,-38.7056
 L 52.2886,-38.7289 L 52.2597,-38.7522 L 52.231,-38.7755 L 52.2024,-38.799 L 52.2024,-31.5925 L 52.2318,-31.569
 L 52.2613,-31.5458 L 52.2909,-31.5226 L 52.3207,-31.4996 L 52.3506,-31.4767 L 52.3807,-31.4539 L 52.4109,-31.4313
 L 52.4413,-31.4088 L 52.4718,-31.3864 L 52.5025,-31.3642 L 52.5334,-31.342 L 52.5643,-31.32 L 52.5955,-31.2981
 L 52.6268,-31.2764 L 52.6582,-31.2548 L 52.6898,-31.2333 L 52.7215,-31.2119 L 52.7534,-31.1907 L 52.7854,-31.1696
 L 52.8176,-31.1486 L 52.85,-31.1277 L 52.8824,-31.107 L 52.9151,-31.0864 L 52.9479,-31.0659 L 52.9808,-31.0455
 L 53.0139,-31.0253 L 53.0471,-31.0052 L 53.0805,-30.9853 L 53.114,-30.9654 L 53.1477,-30.9457 L 53.1816,-30.9261
 L 53.2156,-30.9067 L 53.2497,-30.8873 L 53.284,-30.8681 L 53.3184,-30.849 L 53.353,-30.8301 L 53.3877,-30.8113
 L 53.4226,-30.7926 L 53.4577,-30.774 L 53.4928,-30.7556 L 53.5282,-30.7372 L 53.5637,-30.719 L 53.5993,-30.701
 L 53.6351,-30.6831 L 53.671,-30.6652 L 53.7071,-30.6476 L 53.7433,-30.63 L 53.7796,-30.6127 L 53.816,-30.5954
 L 53.8525,-30.5783 L 53.8891,-30.5613 L 53.9258,-30.5445 L 53.9625,-30.5278 L 53.9993,-30.5113 L 54.0363,-30.4948
 L 54.0733,-30.4786 L 54.1104,-30.4625 L 54.1476,-30.4465 L 54.1848,-30.4306 L 54.2222,-30.4149 L 54.2597,-30.3994
 L 54.2972,-30.3839 L 54.3348,-30.3687 L 54.3726,-30.3535 L 54.4104,-30.3385 L 54.4483,-30.3236 L 54.4863,-30.3089
 L 54.5243,-30.2943 L 54.5625,-30.2799 L 54.6007,-30.2656 L 54.6391,-30.2514 L 54.6775,-30.2374 L 54.716,-30.2235
 L 54.7546,-30.2098 L 54.7933,-30.1962 L 54.8321,-30.1827 L 54.871,-30.1694 L 54.9099,-30.1562 L 54.949,-30.1432
 L 54.9881,-30.1303 L 55.0273,-30.1175 L 55.0666,-30.1049 L 55.106,-30.0924 L 55.1455,-30.0801 L 55.1851,-30.0679
 L 55.2248,-30.0558 L 55.2645,-30.0439 L 55.3044,-30.0322 L 55.3443,-30.0205 L 55.3843,-30.009 L 55.4244,-29.9977
 L 55.4646,-29.9865 L 55.5049,-29.9754 L 55.5452,-29.9644 L 55.5857,-29.9536 L 55.6262,-29.9428 L 55.6668,-29.9322
 L 55.7075,-29.9217 L 55.7482,-29.9113 L 55.789,-29.901 L 55.83,-29.8908 L 55.871,-29.8808 L 55.912,-29.8708
 L 55.9532,-29.861 L 55.9944,-29.8513 L 56.0357,-29.8417 L 56.0771,-29.8322 L 56.1186,-29.8228 L 56.1601,-29.8136
 L 56.2018,-29.8044 L 56.2435,-29.7954 L 56.2852,-29.7865 L 56.3271,-29.7777 L 56.369,-29.7691 L 56.4111,-29.7605
 L 56.4532,-29.752 L 56.4954,-29.7437 L 56.5376,-29.7355 L 56.58,-29.7274 L 56.6224,-29.7194 L 56.6649,-29.7115
 L 56.7075,-29.7038 L 56.7502,-29.6961 L 56.7929,-29.6886 L 56.8357,-29.6812 L 56.8786,-29.6739 L 56.9216,-29.6667
 L 56.9647,-29.6596 L 57.0078,-29.6527 L 57.051,-29.6458 L 57.0943,-29.6391 L 57.1377,-29.6325 L 57.1811,-29.626
 L 57.2247,-29.6196 L 57.2683,-29.6133 L 57.312,-29.6072 L 57.3558,-29.6012 L 57.3996,-29.5952 L 57.4435,-29.5894
 L 57.4874,-29.5837 L 57.5314,-29.5782 L 57.5753,-29.5728 L 57.6193,-29.5675 L 57.6633,-29.5623 L 57.7073,-29.5573
 L 57.7513,-29.5524 L 57.7954,-29.5476 L 57.8394,-29.5429 L 57.8835,-29.5384 L 57.9276,-29.534 L 57.9717,-29.5297
 L 58.0158,-29.5256 L 58.06,-29.5216 L 58.1042,-29.5177 L 58.1483,-29.5139 L 58.1925,-29.5103 L 58.2368,-29.5068
 L 58.281,-29.5034 L 58.3252,-29.5002 L 58.3695,-29.497 L 58.4138,-29.494 L 58.4581,-29.4911 L 58.5031,-29.4884
 L 50,-20.9853 L 32.8072,-38.1781 L 41.3664,-38.1781 L 41.3664,-30 L 46.9937,-30 L 46.9937,-38.1781
 L 50.2839,-38.1781 L 50.2839,-44.6558 L 46.9937,-44.6558 L 46.9937,-69.4603 L 41.6843,-69.4603 L 30.0747,-43.9812
 L 30.0747,-40.9106 L 14.2426,-56.7426 L 14.0948,-56.8764 L 13.9344,-56.9948 L 13.763,-57.0966 L 13.5823,-57.1809
 L 13.3941,-57.2468 L 13.2003,-57.2935 L 13.0027,-57.3208 L 12.8035,-57.3283 L 12.6045,-57.3158 L 12.4077,-57.2837
 L 12.2151,-57.2321 L 12.0286,-57.1615 L 11.8501,-57.0728 L 11.6813,-56.9667 L 11.5238,-56.8444 L 11.4142,-56.7426
 L 8.58578,-53.9142 L 8.45201,-53.7664 L 8.3336,-53.606 L 8.23177,-53.4345 L 8.14751,-53.2538 L 8.08165,-53.0656
 L 8.03487,-52.8718 L 8.00761,-52.6743 L 8.00015,-52.4751 L 8.01257,-52.2761 L 8.04475,-52.0793 L 8.09634,-51.8867
 L 8.16687,-51.7002 L 8.25562,-51.5217 L 8.36169,-51.3528 L 8.48405,-51.1954 L 8.58578,-51.0858 L 48.5858,-11.0858
 L 48.7336,-10.952 L 48.894,-10.8336 L 49.0655,-10.7318 L 49.2462,-10.6475 L 49.4344,-10.5816 L 49.6282,-10.5349
 L 49.8257,-10.5076 L 50.0249,-10.5002 z
M 35.1597,-44.6558 L 39.7214,-54.6425 L 39.7449,-54.6976 L 39.7683,-54.7528 L 39.7916,-54.8079 L 39.8147,-54.8631
 L 39.8378,-54.9182 L 39.8607,-54.9734 L 39.8835,-55.0285 L 39.9062,-55.0837 L 39.9288,-55.1388 L 39.9513,-55.194
 L 39.9737,-55.2491 L 39.9959,-55.3043 L 40.0181,-55.3594 L 40.0401,-55.4146 L 40.062,-55.4697 L 40.0838,-55.5249
 L 40.1054,-55.58 L 40.127,-55.6352 L 40.1485,-55.6903 L 40.1698,-55.7455 L 40.191,-55.8006 L 40.2121,-55.8558
 L 40.2331,-55.9109 L 40.2539,-55.9661 L 40.2747,-56.0213 L 40.2953,-56.0764 L 40.3159,-56.1316 L 40.3363,-56.1867
 L 40.3566,-56.2419 L 40.3768,-56.297 L 40.3968,-56.3522 L 40.4168,-56.4073 L 40.4366,-56.4625 L 40.4563,-56.5176
 L 40.476,-56.5728 L 40.4955,-56.6279 L 40.5148,-56.6831 L 40.5341,-56.7382 L 40.5533,-56.7934 L 40.5723,-56.8485
 L 40.5912,-56.9037 L 40.61,-56.9588 L 40.6287,-57.014 L 40.6473,-57.0691 L 40.6657,-57.1243 L 40.6841,-57.1794
 L 40.7205,-57.2895 L 40.7566,-57.399 L 40.7924,-57.5081 L 40.8279,-57.6166 L 40.8455,-57.6707 L 40.8805,-57.7784
 L 40.8978,-57.8321 L 40.9495,-57.9924 L 40.9835,-58.0986 L 41.0172,-58.2044 L 41.034,-58.257 L 41.0672,-58.362
 L 41.0837,-58.4143 L 41.1165,-58.5185 L 41.1327,-58.5704 L 41.165,-58.6738 L 41.1969,-58.7768 L 41.2286,-58.8792
 L 41.2443,-58.9302 L 41.2754,-59.0319 L 41.3063,-59.133 L 41.3368,-59.2336 L 41.367,-59.3338 L 41.3969,-59.4334
 L 41.4265,-59.5325 L 41.4411,-59.5819 L 41.6096,-59.5819 L 41.6071,-59.5452 L 41.6045,-59.5056 L 41.6028,-59.4777
 L 41.6001,-59.4333 L 41.5963,-59.3698 L 41.5925,-59.3011 L 41.5895,-59.2463 L 41.5854,-59.1687 L 41.5811,-59.086
 L 41.5767,-58.9982 L 41.5699,-58.8569 L 41.5627,-58.7043 L 41.559,-58.6242 L 41.5554,-58.5424 L 41.5505,-58.4307
 L 41.5456,-58.316 L 41.5407,-58.1981 L 41.5358,-58.0772 L 41.5309,-57.9532 L 41.526,-57.8262 L 41.5211,-57.6961
 L 41.5162,-57.5629 L 41.5113,-57.4266 L 41.5065,-57.2873 L 41.4931,-56.8955 L 41.4834,-56.6047 L 41.4712,-56.2343
 L 41.4554,-55.7413 L 41.4481,-55.5096 L 41.4421,-55.3171 L 41.4364,-55.1259 L 41.4321,-54.9738 L 41.4268,-54.7849
 L 41.4227,-54.6347 L 41.4188,-54.4854 L 41.414,-54.2998 L 41.4095,-54.1154 L 41.4061,-53.9689 L 41.4036,-53.8596
 L 41.4005,-53.7154 L 41.396,-53.5041 L 41.3912,-53.2651 L 41.3874,-53.0667 L 41.3845,-52.9059 L 41.3813,-52.7185
 L 41.3779,-52.5073 L 41.3754,-52.3328 L 41.3728,-52.1409 L 41.3712,-52.0126 L 41.3699,-51.8916 L 41.3685,-51.7561
 L 41.3677,-51.6513 L 41.3672,-51.5727 L 41.3668,-51.4988 L 41.3666,-51.4464 L 41.3664,-51.3808 L 41.3664,-44.6558
 z
" stroke="black" fill="black" stroke-width="0.5"/>
</svg>
