<?xml version="1.0" standalone="no"?>
<!DOCTYPE svg PUBLIC "-//W3C//DTD SVG 1.1//EN" "http://www.w3.org/Graphics/SVG/1.1/DTD/svg11.dtd">
<svg width="100mm" height="100mm" viewBox="-8 -108 116 116" xmlns="http://www.w3.org/2000/svg" version="1.1">
<title>OpenSCAD Model</title>
<path d="
M 14.6991,-8.00993 L 14.8963,-8.03966 L 15.0895,-8.08885 L 15.2769,-8.15704 L 15.4565,-8.24356 L 15.6266,-8.34752
 L 15.7856,-8.46791 L 15.9317,-8.60353 L 16.0637,-8.75302 L 16.1801,-8.9149 L 16.2797,-9.08759 L 16.3617,-9.26932
 L 16.4252,-9.45831 L 16.4696,-9.65271 L 16.4944,-9.85054 L 16.5,-10 L 16.5,-46 L 17.6716,-46
 L 35.0858,-28.5858 L 35.2336,-28.452 L 35.394,-28.3336 L 35.5655,-28.2318 L 35.7462,-28.1475 L 35.9344,-28.0816
 L 36.1282,-28.0349 L 36.3257,-28.0076 L 36.5249,-28.0002 L 36.7239,-28.0126 L 36.9207,-28.0448 L 37.1133,-28.0964
 L 37.2998,-28.1669 L 37.4783,-28.2556 L 37.6472,-28.3617 L 37.8046,-28.4841 L 37.949,-28.6215 L 38.0791,-28.7726
 L 38.1935,-28.9359 L 38.291,-29.1098 L 38.3707,-29.2926 L 38.4319,-29.4824 L 38.4738,-29.6773 L 38.4961,-29.8754
 L 38.5,-30 L 38.5,-46 L 61.5,-46 L 61.5,-30 L 61.5099,-29.8009 L 61.5397,-29.6037
 L 61.5889,-29.4105 L 61.657,-29.2231 L 61.7436,-29.0435 L 61.8475,-28.8734 L 61.9679,-28.7144 L 62.1035,-28.5683
 L 62.253,-28.4363 L 62.4149,-28.3199 L 62.5876,-28.2203 L 62.7693,-28.1383 L 62.9583,-28.0748 L 63.1527,-28.0304
 L 63.3505,-28.0056 L 63.5499,-28.0006 L 63.7487,-28.0155 L 63.945,-28.0501 L 64.137,-28.1041 L 64.3226,-28.177
 L 64.5,-28.2679 L 64.6675,-28.3761 L 64.8234,-28.5004 L 64.9142,-28.5858 L 82.3284,-46 L 83.5,-46
 L 83.5,-10 L 83.5099,-9.80086 L 83.5397,-9.60371 L 83.5889,-9.41049 L 83.657,-9.22313 L 83.7436,-9.04349
 L 83.8475,-8.87337 L 83.9679,-8.71443 L 84.1035,-8.56827 L 84.253,-8.43634 L 84.4149,-8.31995 L 84.5876,-8.22026
 L 84.7693,-8.13826 L 84.9583,-8.07475 L 85.1527,-8.03038 L 85.3505,-8.0056 L 85.5,-8 L 89.5,-8
 L 89.6991,-8.00993 L 89.8963,-8.03966 L 90.0895,-8.08885 L 90.2769,-8.15704 L 90.4565,-8.24356 L 90.6266,-8.34752
 L 90.7856,-8.46791 L 90.9317,-8.60353 L 91.0637,-8.75302 L 91.1801,-8.9149 L 91.2797,-9.08759 L 91.3617,-9.26932
 L 91.4252,-9.45831 L 91.4696,-9.65271 L 91.4944,-9.85054 L 91.5,-10 L 91.5,-90 L 91.4901,-90.1991
 L 91.4603,-90.3963 L 91.4111,-90.5895 L 91.343,-90.7769 L 91.2564,-90.9565 L 91.1525,-91.1266 L 91.0321,-91.2856
 L 90.8965,-91.4317 L 90.747,-91.5637 L 90.5851,-91.6801 L 90.4124,-91.7797 L 90.2307,-91.8617 L 90.0417,-91.9252
 L 89.8473,-91.9696 L 89.6495,-91.9944 L 89.5,-92 L 85.5,-92 L 85.3009,-91.9901 L 85.1037,-91.9603
 L 84.9105,-91.9111 L 84.7231,-91.843 L 84.5435,-91.7564 L 84.3734,-91.6525 L 84.2144,-91.5321 L 84.0683,-91.3965
 L 83.9363,-91.247 L 83.8199,-91.0851 L 83.7203,-90.9124 L 83.6383,-90.7307 L 83.5748,-90.5417 L 83.5304,-90.3473
 L 83.5056,-90.1495 L 83.5,-90 L 83.5,-54 L 82.3284,-54 L 64.9142,-71.4142 L 64.7664,-71.548
 L 64.606,-71.6664 L 64.4345,-71.7682 L 64.2538,-71.8525 L 64.0656,-71.9184 L 63.8718,-71.9651 L 63.6743,-71.9924
 L 63.4751,-71.9998 L 63.2761,-71.9874 L 63.0793,-71.9552 L 62.8867,-71.9036 L 62.7002,-71.8331 L 62.5217,-71.7444
 L 62.3528,-71.6383 L 62.1954,-71.5159 L 62.051,-71.3785 L 61.9209,-71.2274 L 61.8065,-71.0641 L 61.709,-70.8902
 L 61.6293,-70.7074 L 61.5681,-70.5176 L 61.5262,-70.3227 L 61.5039,-70.1246 L 61.5,-70 L 61.5,-54
 L 38.5,-54 L 38.5,-70 L 38.4901,-70.1991 L 38.4603,-70.3963 L 38.4111,-70.5895 L 38.343,-70.7769
 L 38.2564,-70.9565 L 38.1525,-71.1266 L 38.0321,-71.2856 L 37.8965,-71.4317 L 37.747,-71.5637 L 37.5851,-71.6801
 L 37.4124,-71.7797 L 37.2307,-71.8617 L 37.0417,-71.9252 L 36.8473,-71.9696 L 36.6495,-71.9944 L 36.4501,-71.9994
 L 36.2513,-71.9845 L 36.055,-71.9499 L 35.863,-71.8959 L 35.6774,-71.823 L 35.5,-71.7321 L 35.3325,-71.6239
 L 35.1766,-71.4996 L 35.0858,-71.4142 L 17.6716,-54 L 16.5,-54 L 16.5,-90 L 16.4901,-90.1991
 L 16.4603,-90.3963 L 16.4111,-90.5895 L 16.343,-90.7769 L 16.2564,-90.9565 L 16.1525,-91.1266 L 16.0321,-91.2856
 L 15.8965,-91.4317 L 15.747,-91.5637 L 15.5851,-91.6801 L 15.4124,-91.7797 L 15.2307,-91.8617 L 15.0417,-91.9252
 L 14.8473,-91.9696 L 14.6495,-91.9944 L 14.5,-92 L 10.5,-92 L 10.3009,-91.9901 L 10.1037,-91.9603
 L 9.91049,-91.9111 L 9.72313,-91.843 L 9.54349,-91.7564 L 9.37337,-91.6525 L 9.21443,-91.5321 L 9.06827,-91.3965
 L 8.93634,-91.247 L 8.81995,-91.0851 L 8.72026,-90.9124 L 8.63826,-90.7307 L 8.57475,-90.5417 L 8.53038,-90.3473
 L 8.5056,-90.1495 L 8.5,-90 L 8.5,-10 L 8.50993,-9.80086 L 8.53966,-9.60371 L 8.58885,-9.41049
 L 8.65704,-9.22313 L 8.74356,-9.04349 L 8.84752,-8.87337 L 8.96791,-8.71443 L 9.10353,-8.56827 L 9.25302,-8.43634
 L 9.4149,-8.31995 L 9.58759,-8.22026 L 9.76932,-8.13826 L 9.95831,-8.07475 L 10.1527,-8.03038 L 10.3505,-8.0056
 L 10.5,-8 L 14.5,-8 z
" stroke="white" fill="white" stroke-width="0.5"/>
</svg>
