<?xml version="1.0" standalone="no"?>
<!DOCTYPE svg PUBLIC "-//W3C//DTD SVG 1.1//EN" "http://www.w3.org/Graphics/SVG/1.1/DTD/svg11.dtd">
<svg width="100mm" height="100mm" viewBox="-8 -108 116 116" xmlns="http://www.w3.org/2000/svg" version="1.1">
<title>OpenSCAD Model</title>
<path d="
M 12.8992,-8.00993 L 13.0963,-8.03966 L 13.2895,-8.08885 L 13.4769,-8.15704 L 13.6565,-8.24356 L 13.8266,-8.34752
 L 13.9856,-8.46791 L 14.1317,-8.60353 L 14.2637,-8.75302 L 14.3801,-8.9149 L 14.4798,-9.08759 L 14.5618,-9.26932
 L 14.6253,-9.45831 L 14.6696,-9.65271 L 14.6944,-9.85054 L 14.7,-10 L 14.7,-30.3716 L 31.4858,-13.5858
 L 31.6336,-13.452 L 31.7941,-13.3336 L 31.9655,-13.2318 L 32.1462,-13.1475 L 32.3344,-13.0816 L 32.5282,-13.0349
 L 32.7257,-13.0076 L 32.9249,-13.0002 L 33.1239,-13.0126 L 33.3207,-13.0448 L 33.5133,-13.0964 L 33.6998,-13.1669
 L 33.8783,-13.2556 L 34.0472,-13.3617 L 34.2046,-13.4841 L 34.349,-13.6215 L 34.4791,-13.7726 L 34.5935,-13.9359
 L 34.691,-14.1098 L 34.7707,-14.2926 L 34.8319,-14.4824 L 34.8738,-14.6773 L 34.8961,-14.8754 L 34.9,-15
 L 34.9,-31 L 65.1,-31 L 65.1,-15 L 65.1099,-14.8009 L 65.1396,-14.6037 L 65.1888,-14.4105
 L 65.257,-14.2231 L 65.3436,-14.0435 L 65.4475,-13.8734 L 65.5679,-13.7144 L 65.7035,-13.5683 L 65.853,-13.4363
 L 66.0149,-13.3199 L 66.1876,-13.2203 L 66.3693,-13.1383 L 66.5583,-13.0748 L 66.7527,-13.0304 L 66.9505,-13.0056
 L 67.1499,-13.0006 L 67.3487,-13.0155 L 67.545,-13.0501 L 67.737,-13.1041 L 67.9226,-13.177 L 68.1,-13.2679
 L 68.2675,-13.3761 L 68.4234,-13.5004 L 68.5142,-13.5858 L 85.3,-30.3716 L 85.3,-10 L 85.3099,-9.80086
 L 85.3396,-9.60371 L 85.3888,-9.41049 L 85.457,-9.22313 L 85.5435,-9.04349 L 85.6475,-8.87337 L 85.7679,-8.71443
 L 85.9035,-8.56827 L 86.053,-8.43634 L 86.2149,-8.31995 L 86.3876,-8.22026 L 86.5693,-8.13826 L 86.7583,-8.07475
 L 86.9527,-8.03038 L 87.1505,-8.0056 L 87.3,-8 L 87.7,-8 L 87.8991,-8.00993 L 88.0963,-8.03966
 L 88.2895,-8.08885 L 88.4769,-8.15704 L 88.6565,-8.24356 L 88.8266,-8.34752 L 88.9856,-8.46791 L 89.1317,-8.60353
 L 89.2637,-8.75302 L 89.3801,-8.9149 L 89.4797,-9.08759 L 89.5617,-9.26932 L 89.6252,-9.45831 L 89.6696,-9.65271
 L 89.6944,-9.85054 L 89.7,-10 L 89.7,-90 L 89.6901,-90.1991 L 89.6603,-90.3963 L 89.6111,-90.5895
 L 89.543,-90.7769 L 89.4564,-90.9565 L 89.3525,-91.1266 L 89.2321,-91.2856 L 89.0965,-91.4317 L 88.947,-91.5637
 L 88.7851,-91.6801 L 88.6124,-91.7797 L 88.4307,-91.8617 L 88.2417,-91.9252 L 88.0473,-91.9696 L 87.8495,-91.9944
 L 87.7,-92 L 87.3,-92 L 87.1008,-91.9901 L 86.9037,-91.9603 L 86.7105,-91.9111 L 86.5231,-91.843
 L 86.3435,-91.7564 L 86.1734,-91.6525 L 86.0144,-91.5321 L 85.8683,-91.3965 L 85.7363,-91.247 L 85.6199,-91.0851
 L 85.5202,-90.9124 L 85.4382,-90.7307 L 85.3747,-90.5417 L 85.3304,-90.3473 L 85.3056,-90.1495 L 85.3,-90
 L 85.3,-39.6284 L 68.5142,-56.4142 L 68.3664,-56.548 L 68.2059,-56.6664 L 68.0345,-56.7682 L 67.8538,-56.8525
 L 67.6656,-56.9184 L 67.4718,-56.9651 L 67.2743,-56.9924 L 67.0751,-56.9998 L 66.8761,-56.9874 L 66.6793,-56.9552
 L 66.4867,-56.9036 L 66.3002,-56.8331 L 66.1217,-56.7444 L 65.9528,-56.6383 L 65.7954,-56.5159 L 65.651,-56.3785
 L 65.5209,-56.2274 L 65.4065,-56.0641 L 65.309,-55.8902 L 65.2293,-55.7074 L 65.1681,-55.5176 L 65.1262,-55.3227
 L 65.1039,-55.1246 L 65.1,-55 L 65.1,-39 L 34.9,-39 L 34.9,-50 L 40.7523,-50
 L 40.7523,-88.8571 L 35.8549,-88.8571 L 26.7739,-78.8902 L 29.666,-73.9468 L 32.9176,-77.5488 L 32.9428,-77.5769
 L 32.9554,-77.591 L 32.9808,-77.6195 L 33.0062,-77.6483 L 33.0316,-77.6774 L 33.0572,-77.7068 L 33.07,-77.7216
 L 33.0957,-77.7514 L 33.1214,-77.7816 L 33.1343,-77.7968 L 33.1601,-77.8274 L 33.1731,-77.8428 L 33.199,-77.8739
 L 33.212,-77.8895 L 33.2381,-77.921 L 33.2642,-77.9528 L 33.2904,-77.9849 L 33.3035,-78.0011 L 33.343,-78.05
 L 33.3562,-78.0665 L 33.3827,-78.0996 L 33.396,-78.1163 L 33.4225,-78.1499 L 33.4492,-78.1838 L 33.4759,-78.218
 L 33.5161,-78.2699 L 33.5828,-78.3563 L 33.6623,-78.4596 L 33.7149,-78.5282 L 33.7803,-78.6137 L 33.8452,-78.6989
 L 33.8968,-78.7668 L 33.9737,-78.8683 L 34.0499,-78.9693 L 34.1502,-79.1029 L 34.2113,-79.1846 L 34.2711,-79.2648
 L 34.3524,-79.3744 L 34.42,-79.4659 L 34.464,-79.5256 L 34.5282,-79.6134 L 34.57,-79.6706 L 34.5905,-79.6988
 L 34.6309,-79.7545 L 34.6601,-79.795 L 34.6882,-79.8341 L 34.7063,-79.8595 L 34.7239,-79.8842 L 34.7409,-79.9083
 L 34.7735,-79.9548 L 34.7966,-79.988 L 34.8114,-80.0094 L 34.8326,-80.0404 L 34.8461,-80.0603 L 34.8591,-80.0796
 L 34.8715,-80.0983 L 34.8835,-80.1164 L 34.9004,-80.1424 L 34.9059,-80.1508 L 34.9163,-80.167 L 34.9262,-80.1827
 L 34.9356,-80.1978 L 34.9445,-80.2123 L 34.9487,-80.2193 L 34.9444,-80.0264 L 34.938,-79.749 L 34.9341,-79.5866
 L 34.928,-79.3377 L 34.9205,-79.0393 L 34.9149,-78.8209 L 34.9066,-78.5078 L 34.8729,-77.2651 L 34.8414,-76.1203
 L 34.8378,-75.984 L 34.8344,-75.8483 L 34.8311,-75.7133 L 34.828,-75.579 L 34.825,-75.4454 L 34.8231,-75.3567
 L 34.8213,-75.2682 L 34.8187,-75.1362 L 34.8171,-75.0485 L 34.8148,-74.9176 L 34.8133,-74.8307 L 34.812,-74.7441
 L 34.8106,-74.6578 L 34.8094,-74.5718 L 34.8082,-74.4861 L 34.8071,-74.4007 L 34.8056,-74.2731 L 34.8047,-74.1885
 L 34.8027,-73.9797 L 34.8005,-73.7377 L 34.7987,-73.5052 L 34.7977,-73.3554 L 34.7968,-73.2099 L 34.7963,-73.1035
 L 34.7957,-72.9654 L 34.7952,-72.8315 L 34.7948,-72.7017 L 34.7947,-72.5762 L 34.7946,-72.4848 L 34.7946,-55.6349
 L 34.743,-55.7769 L 34.6564,-55.9565 L 34.5525,-56.1266 L 34.4321,-56.2856 L 34.2965,-56.4317 L 34.147,-56.5637
 L 33.9851,-56.6801 L 33.8124,-56.7797 L 33.6307,-56.8617 L 33.4417,-56.9252 L 33.2473,-56.9696 L 33.0495,-56.9944
 L 32.8501,-56.9994 L 32.6513,-56.9845 L 32.455,-56.9499 L 32.263,-56.8959 L 32.0774,-56.823 L 31.9,-56.7321
 L 31.7325,-56.6239 L 31.5766,-56.4996 L 31.4858,-56.4142 L 14.7,-39.6284 L 14.7,-90 L 14.6901,-90.1991
 L 14.6604,-90.3963 L 14.6112,-90.5895 L 14.543,-90.7769 L 14.4565,-90.9565 L 14.3525,-91.1266 L 14.2321,-91.2856
 L 14.0965,-91.4317 L 13.947,-91.5637 L 13.7851,-91.6801 L 13.6124,-91.7797 L 13.4307,-91.8617 L 13.2417,-91.9252
 L 13.0473,-91.9696 L 12.8495,-91.9944 L 12.7,-92 L 12.3,-92 L 12.1009,-91.9901 L 11.9037,-91.9603
 L 11.7105,-91.9111 L 11.5231,-91.843 L 11.3435,-91.7564 L 11.1734,-91.6525 L 11.0144,-91.5321 L 10.8683,-91.3965
 L 10.7363,-91.247 L 10.6199,-91.0851 L 10.5203,-90.9124 L 10.4383,-90.7307 L 10.3748,-90.5417 L 10.3304,-90.3473
 L 10.3056,-90.1495 L 10.3,-90 L 10.3,-10 L 10.3099,-9.80086 L 10.3397,-9.60371 L 10.3889,-9.41049
 L 10.457,-9.22313 L 10.5436,-9.04349 L 10.6475,-8.87337 L 10.7679,-8.71443 L 10.9035,-8.56827 L 11.053,-8.43634
 L 11.2149,-8.31995 L 11.3876,-8.22026 L 11.5693,-8.13826 L 11.7583,-8.07475 L 11.9527,-8.03038 L 12.1505,-8.0056
 L 12.3,-8 L 12.7,-8 z
M 57.2078,-49.4692 L 57.3199,-49.4711 L 57.4312,-49.4743 L 57.5419,-49.4788 L 57.6518,-49.4846 L 57.761,-49.4916
 L 57.8695,-49.4999 L 57.9773,-49.5095 L 58.0844,-49.5204 L 58.1907,-49.5326 L 58.2963,-49.546 L 58.4012,-49.5608
 L 58.5054,-49.5768 L 58.6088,-49.5941 L 58.7116,-49.6127 L 58.8136,-49.6325 L 58.9149,-49.6537 L 59.0154,-49.6761
 L 59.1153,-49.6998 L 59.2144,-49.7247 L 59.3128,-49.751 L 59.4105,-49.7785 L 59.5075,-49.8074 L 59.6038,-49.8375
 L 59.6993,-49.8689 L 59.7941,-49.9015 L 59.8882,-49.9355 L 59.9816,-49.9707 L 60.0742,-50.0072 L 60.1662,-50.045
 L 60.2574,-50.084 L 60.3479,-50.1244 L 60.4377,-50.166 L 60.5267,-50.209 L 60.615,-50.2531 L 60.7027,-50.2986
 L 60.7895,-50.3454 L 60.8757,-50.3934 L 60.9612,-50.4427 L 61.0459,-50.4933 L 61.1299,-50.5452 L 61.2132,-50.5984
 L 61.2958,-50.6528 L 61.3777,-50.7085 L 61.4588,-50.7655 L 61.5392,-50.8238 L 61.6189,-50.8833 L 61.698,-50.944
 L 61.7765,-51.0059 L 61.8543,-51.0688 L 61.9315,-51.133 L 62.0081,-51.1983 L 62.084,-51.2647 L 62.1592,-51.3324
 L 62.2339,-51.4011 L 62.3079,-51.471 L 62.3812,-51.5421 L 62.4539,-51.6143 L 62.526,-51.6877 L 62.5975,-51.7622
 L 62.6683,-51.8379 L 62.7385,-51.9148 L 62.808,-51.9928 L 62.8769,-52.0719 L 62.9452,-52.1523 L 63.0128,-52.2337
 L 63.0798,-52.3163 L 63.1461,-52.4001 L 63.2118,-52.485 L 63.2769,-52.5711 L 63.3413,-52.6584 L 63.4051,-52.7468
 L 63.4683,-52.8363 L 63.5308,-52.927 L 63.5927,-53.0189 L 63.6539,-53.1119 L 63.7145,-53.2061 L 63.7745,-53.3014
 L 63.8338,-53.3979 L 63.8925,-53.4955 L 63.9505,-53.5943 L 64.008,-53.6943 L 64.0647,-53.7954 L 64.1209,-53.8976
 L 64.1764,-54.001 L 64.2313,-54.1056 L 64.2855,-54.2113 L 64.3391,-54.3182 L 64.392,-54.4263 L 64.4443,-54.5354
 L 64.496,-54.6458 L 64.547,-54.7573 L 64.5975,-54.8699 L 64.6473,-54.9836 L 64.6965,-55.0983 L 64.7451,-55.2141
 L 64.7931,-55.3309 L 64.8405,-55.4488 L 64.8874,-55.5678 L 64.9336,-55.6878 L 64.9792,-55.8089 L 65.0242,-55.931
 L 65.0686,-56.0541 L 65.1124,-56.1784 L 65.1556,-56.3036 L 65.1982,-56.43 L 65.2402,-56.5574 L 65.2816,-56.6858
 L 65.3224,-56.8153 L 65.3625,-56.9459 L 65.4021,-57.0775 L 65.4411,-57.2101 L 65.4795,-57.3439 L 65.5173,-57.4787
 L 65.5545,-57.6145 L 65.5911,-57.7514 L 65.627,-57.8893 L 65.6624,-58.0283 L 65.6972,-58.1684 L 65.7314,-58.3095
 L 65.7649,-58.4516 L 65.7979,-58.5948 L 65.8303,-58.7391 L 65.862,-58.8844 L 65.8932,-59.0308 L 65.9238,-59.1783
 L 65.9537,-59.3268 L 65.9831,-59.4763 L 66.0119,-59.6269 L 66.04,-59.7785 L 66.0676,-59.9313 L 66.0945,-60.085
 L 66.1209,-60.2399 L 66.1466,-60.3957 L 66.1718,-60.5527 L 66.1963,-60.7107 L 66.2203,-60.8697 L 66.2436,-61.0298
 L 66.2664,-61.1909 L 66.2887,-61.353 L 66.3105,-61.516 L 66.3318,-61.6799 L 66.3526,-61.8448 L 66.3729,-62.0107
 L 66.3927,-62.1776 L 66.412,-62.3453 L 66.4308,-62.5141 L 66.4491,-62.6838 L 66.4669,-62.8544 L 66.4842,-63.026
 L 66.501,-63.1986 L 66.5173,-63.3721 L 66.5331,-63.5466 L 66.5483,-63.722 L 66.5631,-63.8984 L 66.5774,-64.0757
 L 66.5912,-64.254 L 66.6045,-64.4332 L 66.6172,-64.6134 L 66.6295,-64.7946 L 66.6413,-64.9767 L 66.6526,-65.1597
 L 66.6634,-65.3437 L 66.6736,-65.5287 L 66.6834,-65.7146 L 66.6927,-65.9015 L 66.7014,-66.0894 L 66.7097,-66.2781
 L 66.7175,-66.4679 L 66.7247,-66.6586 L 66.7315,-66.8502 L 66.7378,-67.0428 L 66.7435,-67.2364 L 66.7488,-67.4309
 L 66.7536,-67.6264 L 66.7578,-67.8228 L 66.7616,-68.0202 L 66.7648,-68.2185 L 66.7676,-68.4178 L 66.7699,-68.618
 L 66.7716,-68.8192 L 66.7729,-69.0214 L 66.7736,-69.2245 L 66.7739,-69.4286 L 66.7736,-69.6338 L 66.7728,-69.838
 L 66.7713,-70.0414 L 66.7693,-70.2437 L 66.7668,-70.4451 L 66.7637,-70.6456 L 66.76,-70.845 L 66.7558,-71.0436
 L 66.751,-71.2412 L 66.7456,-71.4378 L 66.7397,-71.6334 L 66.7332,-71.8282 L 66.7261,-72.0219 L 66.7185,-72.2147
 L 66.7103,-72.4066 L 66.7016,-72.5975 L 66.6922,-72.7874 L 66.6824,-72.9764 L 66.6719,-73.1644 L 66.6609,-73.3515
 L 66.6493,-73.5376 L 66.6372,-73.7228 L 66.6245,-73.907 L 66.6112,-74.0902 L 66.5974,-74.2725 L 66.5829,-74.4539
 L 66.568,-74.6343 L 66.5524,-74.8137 L 66.5363,-74.9922 L 66.5197,-75.1697 L 66.5024,-75.3463 L 66.4846,-75.5219
 L 66.4663,-75.6966 L 66.4474,-75.8703 L 66.4279,-76.043 L 66.4078,-76.2148 L 66.3872,-76.3856 L 66.366,-76.5555
 L 66.3443,-76.7245 L 66.322,-76.8924 L 66.2991,-77.0594 L 66.2756,-77.2255 L 66.2516,-77.3906 L 66.2271,-77.5548
 L 66.2019,-77.718 L 66.1762,-77.8802 L 66.1499,-78.0415 L 66.1231,-78.2016 L 66.0957,-78.3607 L 66.0676,-78.5187
 L 66.039,-78.6756 L 66.0098,-78.8315 L 65.98,-78.9863 L 65.9497,-79.1399 L 65.9187,-79.2925 L 65.8872,-79.444
 L 65.8551,-79.5945 L 65.8224,-79.7439 L 65.7892,-79.8921 L 65.7553,-80.0393 L 65.7209,-80.1854 L 65.6858,-80.3305
 L 65.6502,-80.4745 L 65.614,-80.6173 L 65.5773,-80.7591 L 65.5399,-80.8999 L 65.502,-81.0395 L 65.4634,-81.1781
 L 65.4243,-81.3155 L 65.3846,-81.4519 L 65.3444,-81.5872 L 65.3035,-81.7215 L 65.2621,-81.8546 L 65.2201,-81.9867
 L 65.1775,-82.1177 L 65.1343,-82.2476 L 65.0905,-82.3765 L 65.0461,-82.5042 L 65.0012,-82.6309 L 64.9557,-82.7565
 L 64.9096,-82.881 L 64.8629,-83.0044 L 64.8156,-83.1268 L 64.7678,-83.2481 L 64.7193,-83.3683 L 64.6703,-83.4874
 L 64.6207,-83.6054 L 64.5705,-83.7224 L 64.5198,-83.8383 L 64.4684,-83.953 L 64.4165,-84.0668 L 64.364,-84.1794
 L 64.3109,-84.2909 L 64.2572,-84.4013 L 64.203,-84.5105 L 64.1482,-84.6185 L 64.0928,-84.7254 L 64.0369,-84.8311
 L 63.9804,-84.9357 L 63.9234,-85.0391 L 63.8658,-85.1414 L 63.8076,-85.2425 L 63.7489,-85.3425 L 63.6895,-85.4413
 L 63.6297,-85.5389 L 63.5692,-85.6354 L 63.5082,-85.7308 L 63.4467,-85.8249 L 63.3845,-85.918 L 63.3218,-86.0098
 L 63.2585,-86.1005 L 63.1947,-86.1901 L 63.1303,-86.2785 L 63.0654,-86.3657 L 62.9998,-86.4518 L 62.9337,-86.5367
 L 62.8671,-86.6205 L 62.7999,-86.7032 L 62.7321,-86.7846 L 62.6637,-86.8649 L 62.5948,-86.9441 L 62.5253,-87.0221
 L 62.4553,-87.0989 L 62.3847,-87.1746 L 62.3135,-87.2491 L 62.2418,-87.3225 L 62.1694,-87.3947 L 62.0966,-87.4658
 L 62.0231,-87.5357 L 61.9491,-87.6044 L 61.8746,-87.672 L 61.7994,-87.7385 L 61.7237,-87.8038 L 61.6475,-87.8679
 L 61.5706,-87.9309 L 61.4932,-87.9927 L 61.4153,-88.0533 L 61.3368,-88.1128 L 61.2577,-88.1711 L 61.178,-88.2282
 L 61.0977,-88.2839 L 61.0169,-88.3384 L 60.9355,-88.3915 L 60.8535,-88.4434 L 60.7709,-88.4941 L 60.6877,-88.5434
 L 60.604,-88.5914 L 60.5197,-88.6382 L 60.4347,-88.6837 L 60.3492,-88.7279 L 60.2631,-88.7708 L 60.1765,-88.8125
 L 60.0892,-88.8528 L 60.0014,-88.8919 L 59.9129,-88.9297 L 59.8239,-88.9662 L 59.7344,-89.0015 L 59.6442,-89.0354
 L 59.5534,-89.0681 L 59.4621,-89.0995 L 59.3702,-89.1296 L 59.2777,-89.1584 L 59.1846,-89.186 L 59.0909,-89.2123
 L 58.9967,-89.2372 L 58.9018,-89.261 L 58.8064,-89.2834 L 58.7104,-89.3045 L 58.6138,-89.3244 L 58.5166,-89.343
 L 58.4189,-89.3603 L 58.3205,-89.3763 L 58.2216,-89.391 L 58.1221,-89.4045 L 58.022,-89.4166 L 57.9213,-89.4275
 L 57.8201,-89.4371 L 57.7182,-89.4455 L 57.6158,-89.4525 L 57.5128,-89.4583 L 57.4092,-89.4628 L 57.3051,-89.466
 L 57.2003,-89.4679 L 57.095,-89.4685 L 56.9821,-89.4679 L 56.8701,-89.466 L 56.7587,-89.4627 L 56.6481,-89.4582
 L 56.5383,-89.4524 L 56.4291,-89.4453 L 56.3207,-89.4368 L 56.213,-89.4271 L 56.106,-89.4161 L 55.9998,-89.4039
 L 55.8943,-89.3903 L 55.7895,-89.3754 L 55.6854,-89.3592 L 55.5821,-89.3417 L 55.4795,-89.323 L 55.3776,-89.3029
 L 55.2765,-89.2816 L 55.1761,-89.2589 L 55.0764,-89.235 L 54.9774,-89.2097 L 54.8792,-89.1832 L 54.7817,-89.1554
 L 54.685,-89.1263 L 54.5889,-89.0959 L 54.4936,-89.0642 L 54.399,-89.0312 L 54.3052,-88.9969 L 54.2121,-88.9613
 L 54.1196,-88.9244 L 54.028,-88.8863 L 53.937,-88.8468 L 53.8468,-88.806 L 53.7574,-88.764 L 53.6686,-88.7206
 L 53.5806,-88.676 L 53.4933,-88.63 L 53.4067,-88.5828 L 53.3209,-88.5343 L 53.2357,-88.4845 L 53.1514,-88.4333
 L 53.0677,-88.381 L 52.9848,-88.3273 L 52.9026,-88.2723 L 52.8211,-88.216 L 52.7404,-88.1584 L 52.6604,-88.0995
 L 52.5811,-88.0394 L 52.5024,-87.9782 L 52.4243,-87.9158 L 52.3469,-87.8523 L 52.2702,-87.7877 L 52.194,-87.7219
 L 52.1185,-87.655 L 52.0437,-87.5869 L 51.9695,-87.5177 L 51.8959,-87.4473 L 51.823,-87.3758 L 51.7507,-87.3031
 L 51.679,-87.2293 L 51.608,-87.1544 L 51.5376,-87.0783 L 51.4678,-87.0011 L 51.3987,-86.9227 L 51.3302,-86.8432
 L 51.2624,-86.7626 L 51.1952,-86.6808 L 51.1286,-86.5978 L 51.0627,-86.5137 L 50.9974,-86.4285 L 50.9328,-86.3421
 L 50.8688,-86.2546 L 50.8054,-86.166 L 50.7427,-86.0762 L 50.6806,-85.9852 L 50.6191,-85.8931 L 50.5583,-85.7999
 L 50.4981,-85.7055 L 50.4386,-85.61 L 50.3797,-85.5134 L 50.3214,-85.4156 L 50.2637,-85.3166 L 50.2067,-85.2165
 L 50.1504,-85.1153 L 50.0947,-85.0129 L 50.0396,-84.9094 L 49.9851,-84.8047 L 49.9313,-84.6989 L 49.8782,-84.592
 L 49.8256,-84.4839 L 49.7737,-84.3746 L 49.7225,-84.2643 L 49.6719,-84.1527 L 49.6219,-84.0401 L 49.5725,-83.9264
 L 49.5237,-83.8116 L 49.4754,-83.6957 L 49.4278,-83.5788 L 49.3808,-83.4607 L 49.3343,-83.3416 L 49.2885,-83.2214
 L 49.2432,-83.1001 L 49.1986,-82.9778 L 49.1545,-82.8544 L 49.111,-82.7298 L 49.0681,-82.6042 L 49.0258,-82.4776
 L 48.9841,-82.3498 L 48.943,-82.221 L 48.9025,-82.091 L 48.8626,-81.9601 L 48.8232,-81.828 L 48.7845,-81.6948
 L 48.7463,-81.5606 L 48.7088,-81.4253 L 48.6718,-81.2889 L 48.6354,-81.1514 L 48.5997,-81.0128 L 48.5645,-80.8732
 L 48.5299,-80.7325 L 48.4959,-80.5907 L 48.4624,-80.4478 L 48.4296,-80.3038 L 48.3974,-80.1588 L 48.3658,-80.0127
 L 48.3347,-79.8655 L 48.3042,-79.7172 L 48.2744,-79.5678 L 48.2451,-79.4174 L 48.2164,-79.2659 L 48.1883,-79.1133
 L 48.1608,-78.9596 L 48.134,-78.8048 L 48.1076,-78.649 L 48.0819,-78.4921 L 48.0568,-78.3341 L 48.0323,-78.175
 L 48.0083,-78.0148 L 47.985,-77.8536 L 47.9622,-77.6913 L 47.9399,-77.5282 L 47.918,-77.3641 L 47.8968,-77.1991
 L 47.876,-77.0331 L 47.8557,-76.8662 L 47.8359,-76.6984 L 47.8166,-76.5297 L 47.7978,-76.36 L 47.7795,-76.1894
 L 47.7617,-76.0179 L 47.7444,-75.8454 L 47.7276,-75.672 L 47.7113,-75.4977 L 47.6955,-75.3225 L 47.6802,-75.1463
 L 47.6655,-74.9692 L 47.6512,-74.7912 L 47.6374,-74.6122 L 47.6241,-74.4323 L 47.6113,-74.2514 L 47.599,-74.0697
 L 47.5873,-73.887 L 47.576,-73.7034 L 47.5652,-73.5188 L 47.5549,-73.3334 L 47.5452,-73.1469 L 47.5359,-72.9596
 L 47.5271,-72.7713 L 47.5188,-72.5822 L 47.5111,-72.392 L 47.5038,-72.201 L 47.4971,-72.009 L 47.4908,-71.8161
 L 47.485,-71.6222 L 47.4798,-71.4274 L 47.475,-71.2317 L 47.4707,-71.0351 L 47.467,-70.8375 L 47.4637,-70.6391
 L 47.461,-70.4396 L 47.4587,-70.2393 L 47.457,-70.038 L 47.4557,-69.8358 L 47.455,-69.6326 L 47.4547,-69.4286
 L 47.455,-69.2245 L 47.4558,-69.0214 L 47.4572,-68.8192 L 47.4592,-68.618 L 47.4616,-68.4178 L 47.4647,-68.2185
 L 47.4683,-68.0202 L 47.4725,-67.8228 L 47.4772,-67.6264 L 47.4825,-67.4309 L 47.4883,-67.2364 L 47.4947,-67.0428
 L 47.5017,-66.8502 L 47.5092,-66.6586 L 47.5172,-66.4679 L 47.5258,-66.2781 L 47.535,-66.0894 L 47.5447,-65.9015
 L 47.555,-65.7146 L 47.5659,-65.5287 L 47.5772,-65.3437 L 47.5892,-65.1597 L 47.6017,-64.9767 L 47.6148,-64.7946
 L 47.6284,-64.6134 L 47.6425,-64.4332 L 47.6573,-64.254 L 47.6725,-64.0757 L 47.6884,-63.8984 L 47.7048,-63.722
 L 47.7217,-63.5466 L 47.7392,-63.3721 L 47.7573,-63.1986 L 47.7759,-63.026 L 47.7951,-62.8544 L 47.8148,-62.6838
 L 47.8351,-62.5141 L 47.856,-62.3453 L 47.8773,-62.1776 L 47.8993,-62.0107 L 47.9218,-61.8448 L 47.9449,-61.6799
 L 47.9685,-61.516 L 47.9927,-61.353 L 48.0174,-61.1909 L 48.0427,-61.0298 L 48.0685,-60.8697 L 48.095,-60.7107
 L 48.122,-60.5527 L 48.1496,-60.3957 L 48.1777,-60.2399 L 48.2065,-60.085 L 48.2358,-59.9313 L 48.2657,-59.7785
 L 48.2961,-59.6269 L 48.3271,-59.4763 L 48.3587,-59.3268 L 48.3909,-59.1783 L 48.4237,-59.0308 L 48.457,-58.8844
 L 48.4909,-58.7391 L 48.5253,-58.5948 L 48.5604,-58.4516 L 48.596,-58.3095 L 48.6322,-58.1684 L 48.669,-58.0283
 L 48.7063,-57.8893 L 48.7442,-57.7514 L 48.7827,-57.6145 L 48.8218,-57.4787 L 48.8614,-57.3439 L 48.9016,-57.2101
 L 48.9424,-57.0775 L 48.9837,-56.9459 L 49.0257,-56.8153 L 49.0682,-56.6858 L 49.1113,-56.5574 L 49.1549,-56.43
 L 49.1991,-56.3036 L 49.2439,-56.1784 L 49.2893,-56.0541 L 49.3352,-55.931 L 49.3818,-55.8089 L 49.4288,-55.6878
 L 49.4765,-55.5678 L 49.5247,-55.4488 L 49.5736,-55.3309 L 49.623,-55.2141 L 49.6729,-55.0983 L 49.7234,-54.9836
 L 49.7746,-54.8699 L 49.8262,-54.7573 L 49.8785,-54.6458 L 49.9314,-54.5354 L 49.9848,-54.4263 L 50.0388,-54.3182
 L 50.0934,-54.2113 L 50.1486,-54.1056 L 50.2044,-54.001 L 50.2607,-53.8976 L 50.3177,-53.7954 L 50.3752,-53.6943
 L 50.4333,-53.5943 L 50.492,-53.4955 L 50.5513,-53.3979 L 50.6111,-53.3014 L 50.6715,-53.2061 L 50.7326,-53.1119
 L 50.7942,-53.0189 L 50.8563,-52.927 L 50.9191,-52.8363 L 50.9825,-52.7468 L 51.0464,-52.6584 L 51.1109,-52.5711
 L 51.176,-52.485 L 51.2417,-52.4001 L 51.3079,-52.3163 L 51.3748,-52.2337 L 51.4422,-52.1523 L 51.5102,-52.0719
 L 51.5788,-51.9928 L 51.648,-51.9148 L 51.7177,-51.8379 L 51.7881,-51.7622 L 51.859,-51.6877 L 51.9305,-51.6143
 L 52.0026,-51.5421 L 52.0753,-51.471 L 52.1485,-51.4011 L 52.2224,-51.3324 L 52.2968,-51.2647 L 52.3718,-51.1983
 L 52.4474,-51.133 L 52.5236,-51.0688 L 52.6003,-51.0059 L 52.6777,-50.944 L 52.7556,-50.8833 L 52.8341,-50.8238
 L 52.9132,-50.7655 L 52.9929,-50.7085 L 53.0732,-50.6528 L 53.1541,-50.5984 L 53.2356,-50.5452 L 53.3177,-50.4933
 L 53.4004,-50.4427 L 53.4837,-50.3934 L 53.5676,-50.3454 L 53.6521,-50.2986 L 53.7372,-50.2531 L 53.8229,-50.209
 L 53.9092,-50.166 L 53.9962,-50.1244 L 54.0837,-50.084 L 54.1718,-50.045 L 54.2605,-50.0072 L 54.3498,-49.9707
 L 54.4397,-49.9355 L 54.5303,-49.9015 L 54.6214,-49.8689 L 54.7131,-49.8375 L 54.8055,-49.8074 L 54.8984,-49.7785
 L 54.9919,-49.751 L 55.086,-49.7247 L 55.1808,-49.6998 L 55.2761,-49.6761 L 55.372,-49.6537 L 55.4686,-49.6325
 L 55.5657,-49.6127 L 55.6635,-49.5941 L 55.7618,-49.5768 L 55.8607,-49.5608 L 55.9603,-49.546 L 56.0604,-49.5326
 L 56.1612,-49.5204 L 56.2625,-49.5095 L 56.3645,-49.4999 L 56.467,-49.4916 L 56.5702,-49.4846 L 56.6739,-49.4788
 L 56.7783,-49.4743 L 56.8832,-49.4711 L 56.9888,-49.4692 L 57.095,-49.4685 z
M 57.0067,-56.0879 L 56.9195,-56.0927 L 56.8336,-56.1006 L 56.7487,-56.1116 L 56.665,-56.1259 L 56.5825,-56.1433
 L 56.5011,-56.1639 L 56.4208,-56.1876 L 56.3417,-56.2145 L 56.2638,-56.2446 L 56.187,-56.2778 L 56.1113,-56.3142
 L 56.0368,-56.3538 L 55.9635,-56.3965 L 55.8913,-56.4424 L 55.8202,-56.4915 L 55.7503,-56.5437 L 55.6815,-56.5991
 L 55.6139,-56.6576 L 55.5474,-56.7193 L 55.4821,-56.7842 L 55.4179,-56.8523 L 55.3549,-56.9235 L 55.293,-56.9979
 L 55.2323,-57.0754 L 55.1727,-57.1561 L 55.1143,-57.24 L 55.057,-57.327 L 55.0009,-57.4173 L 54.9459,-57.5106
 L 54.892,-57.6072 L 54.8393,-57.7069 L 54.7878,-57.8097 L 54.7374,-57.9158 L 54.6881,-58.025 L 54.64,-58.1373
 L 54.5931,-58.2529 L 54.5473,-58.3715 L 54.5026,-58.4934 L 54.4591,-58.6184 L 54.4167,-58.7466 L 54.3755,-58.878
 L 54.3355,-59.0125 L 54.2966,-59.1502 L 54.2588,-59.291 L 54.2222,-59.435 L 54.1865,-59.5822 L 54.1516,-59.7325
 L 54.1175,-59.8859 L 54.0842,-60.0424 L 54.0517,-60.202 L 54.02,-60.3648 L 53.989,-60.5306 L 53.9589,-60.6996
 L 53.9295,-60.8717 L 53.9009,-61.0469 L 53.873,-61.2252 L 53.846,-61.4066 L 53.8198,-61.5912 L 53.7943,-61.7788
 L 53.7696,-61.9696 L 53.7457,-62.1635 L 53.7226,-62.3605 L 53.7003,-62.5606 L 53.6787,-62.7639 L 53.6579,-62.9702
 L 53.638,-63.1797 L 53.6188,-63.3922 L 53.6003,-63.6079 L 53.5827,-63.8267 L 53.5659,-64.0487 L 53.5498,-64.2737
 L 53.5345,-64.5019 L 53.52,-64.7331 L 53.5063,-64.9675 L 53.4934,-65.205 L 53.4812,-65.4456 L 53.4699,-65.6893
 L 53.4593,-65.9362 L 53.4495,-66.1861 L 53.4405,-66.4392 L 53.4323,-66.6954 L 53.4248,-66.9547 L 53.4182,-67.2171
 L 53.4123,-67.4827 L 53.4072,-67.7513 L 53.4029,-68.023 L 53.3993,-68.2979 L 53.3966,-68.5759 L 53.3946,-68.857
 L 53.3935,-69.1412 L 53.3931,-69.4286 L 53.3932,-69.5726 L 53.3934,-69.7159 L 53.3939,-69.8585 L 53.3945,-70.0002
 L 53.3954,-70.1412 L 53.3963,-70.2815 L 53.3975,-70.421 L 53.3989,-70.5597 L 53.4005,-70.6976 L 53.4022,-70.8348
 L 53.4041,-70.9712 L 53.4062,-71.1068 L 53.4085,-71.2417 L 53.4109,-71.3758 L 53.4136,-71.5091 L 53.4164,-71.6417
 L 53.4194,-71.7735 L 53.4226,-71.9046 L 53.426,-72.0348 L 53.4295,-72.1643 L 53.4332,-72.2931 L 53.4372,-72.421
 L 53.4413,-72.5483 L 53.4455,-72.6747 L 53.45,-72.8004 L 53.4547,-72.9253 L 53.4595,-73.0494 L 53.4645,-73.1728
 L 53.4697,-73.2954 L 53.4751,-73.4173 L 53.4806,-73.5383 L 53.4864,-73.6586 L 53.4923,-73.7782 L 53.4984,-73.897
 L 53.5047,-74.015 L 53.5111,-74.1322 L 53.5178,-74.2487 L 53.5246,-74.3644 L 53.5316,-74.4793 L 53.5388,-74.5935
 L 53.5462,-74.7069 L 53.5538,-74.8196 L 53.5615,-74.9314 L 53.5694,-75.0426 L 53.5776,-75.1529 L 53.5858,-75.2625
 L 53.5944,-75.3713 L 53.6031,-75.4793 L 53.6121,-75.5865 L 53.6213,-75.6929 L 53.6308,-75.7986 L 53.6405,-75.9034
 L 53.6504,-76.0075 L 53.6606,-76.1107 L 53.671,-76.2132 L 53.6816,-76.3149 L 53.6925,-76.4158 L 53.7036,-76.5159
 L 53.7149,-76.6152 L 53.7265,-76.7137 L 53.7383,-76.8114 L 53.7504,-76.9084 L 53.7627,-77.0045 L 53.7752,-77.0998
 L 53.788,-77.1944 L 53.801,-77.2882 L 53.8143,-77.3811 L 53.8277,-77.4733 L 53.8414,-77.5647 L 53.8554,-77.6553
 L 53.8696,-77.7451 L 53.884,-77.8342 L 53.8987,-77.9224 L 53.9136,-78.0098 L 53.9287,-78.0965 L 53.9441,-78.1823
 L 53.9597,-78.2674 L 53.9755,-78.3517 L 53.9916,-78.4351 L 54.0079,-78.5178 L 54.0245,-78.5997 L 54.0413,-78.6808
 L 54.0583,-78.7611 L 54.0755,-78.8407 L 54.093,-78.9194 L 54.1108,-78.9973 L 54.1288,-79.0745 L 54.147,-79.1508
 L 54.1654,-79.2264 L 54.1841,-79.3012 L 54.203,-79.3752 L 54.2222,-79.4483 L 54.2416,-79.5208 L 54.2612,-79.5924
 L 54.2811,-79.6632 L 54.3013,-79.7333 L 54.3216,-79.8026 L 54.3423,-79.8711 L 54.3632,-79.9389 L 54.3843,-80.0058
 L 54.4057,-80.072 L 54.4273,-80.1374 L 54.4492,-80.202 L 54.4713,-80.2659 L 54.4936,-80.3289 L 54.5162,-80.3912
 L 54.5391,-80.4527 L 54.5622,-80.5134 L 54.5855,-80.5734 L 54.6091,-80.6326 L 54.6329,-80.691 L 54.657,-80.7486
 L 54.6814,-80.8054 L 54.7059,-80.8615 L 54.7307,-80.9167 L 54.7558,-80.9712 L 54.7811,-81.0249 L 54.8067,-81.0779
 L 54.8325,-81.1301 L 54.8585,-81.1814 L 54.8848,-81.232 L 54.9113,-81.2819 L 54.9381,-81.3309 L 54.9651,-81.3792
 L 54.9924,-81.4267 L 55.0199,-81.4734 L 55.0477,-81.5193 L 55.0757,-81.5645 L 55.104,-81.6089 L 55.1325,-81.6525
 L 55.1613,-81.6953 L 55.1902,-81.7373 L 55.2195,-81.7786 L 55.249,-81.819 L 55.2787,-81.8588 L 55.3087,-81.8977
 L 55.3389,-81.9358 L 55.3694,-81.9732 L 55.4001,-82.0098 L 55.4312,-82.0455 L 55.4625,-82.0805 L 55.4942,-82.1147
 L 55.5261,-82.148 L 55.5584,-82.1806 L 55.5909,-82.2123 L 55.6238,-82.2433 L 55.6569,-82.2734 L 55.6904,-82.3028
 L 55.7241,-82.3313 L 55.7582,-82.3591 L 55.7925,-82.386 L 55.8272,-82.4121 L 55.8622,-82.4374 L 55.8974,-82.4619
 L 55.933,-82.4857 L 55.9688,-82.5086 L 56.005,-82.5307 L 56.0415,-82.552 L 56.0782,-82.5725 L 56.1153,-82.5922
 L 56.1526,-82.6111 L 56.1903,-82.6292 L 56.2283,-82.6464 L 56.2665,-82.6629 L 56.3051,-82.6786 L 56.344,-82.6935
 L 56.3831,-82.7075 L 56.4226,-82.7208 L 56.4624,-82.7332 L 56.5024,-82.7449 L 56.5428,-82.7558 L 56.5835,-82.7658
 L 56.6244,-82.7751 L 56.6657,-82.7835 L 56.7073,-82.7911 L 56.7491,-82.798 L 56.7913,-82.804 L 56.8338,-82.8092
 L 56.8766,-82.8136 L 56.9196,-82.8173 L 56.963,-82.8201 L 57.0067,-82.8221 L 57.0507,-82.8233 L 57.095,-82.8237
 L 57.1816,-82.8221 L 57.2672,-82.8173 L 57.3517,-82.8094 L 57.4352,-82.7983 L 57.5176,-82.784 L 57.5989,-82.7665
 L 57.6791,-82.7458 L 57.7583,-82.722 L 57.8365,-82.695 L 57.9135,-82.6648 L 57.9895,-82.6314 L 58.0644,-82.5949
 L 58.1383,-82.5552 L 58.2111,-82.5123 L 58.2828,-82.4662 L 58.3535,-82.4169 L 58.4231,-82.3645 L 58.4916,-82.3089
 L 58.5591,-82.2501 L 58.6254,-82.1881 L 58.6908,-82.123 L 58.755,-82.0547 L 58.8182,-81.9832 L 58.8804,-81.9085
 L 58.9414,-81.8306 L 59.0014,-81.7496 L 59.0603,-81.6654 L 59.1182,-81.578 L 59.175,-81.4875 L 59.2307,-81.3937
 L 59.2854,-81.2968 L 59.339,-81.1967 L 59.3915,-81.0934 L 59.443,-80.987 L 59.4934,-80.8773 L 59.5427,-80.7645
 L 59.591,-80.6486 L 59.6382,-80.5294 L 59.6843,-80.407 L 59.7294,-80.2815 L 59.7734,-80.1528 L 59.8163,-80.021
 L 59.8582,-79.8859 L 59.899,-79.7477 L 59.9388,-79.6063 L 59.9774,-79.4617 L 60.0152,-79.3139 L 60.052,-79.1631
 L 60.0881,-79.0091 L 60.1234,-78.852 L 60.1578,-78.6917 L 60.1914,-78.5283 L 60.2241,-78.3618 L 60.2561,-78.1922
 L 60.2872,-78.0194 L 60.3174,-77.8436 L 60.3469,-77.6645 L 60.3755,-77.4824 L 60.4033,-77.2971 L 60.4302,-77.1087
 L 60.4563,-76.9172 L 60.4816,-76.7225 L 60.5061,-76.5248 L 60.5297,-76.3239 L 60.5526,-76.1198 L 60.5745,-75.9126
 L 60.5957,-75.7024 L 60.616,-75.4889 L 60.6355,-75.2724 L 60.6541,-75.0527 L 60.672,-74.8299 L 60.689,-74.604
 L 60.7052,-74.3749 L 60.7205,-74.1427 L 60.735,-73.9074 L 60.7487,-73.669 L 60.7615,-73.4274 L 60.7736,-73.1827
 L 60.7848,-72.9349 L 60.7951,-72.6839 L 60.8047,-72.4299 L 60.8134,-72.1727 L 60.8213,-71.9123 L 60.8283,-71.6489
 L 60.8345,-71.3823 L 60.8399,-71.1125 L 60.8445,-70.8397 L 60.8482,-70.5637 L 60.8511,-70.2846 L 60.8532,-70.0024
 L 60.8544,-69.717 L 60.8548,-69.4286 L 60.8544,-69.1389 L 60.8532,-68.8525 L 60.8511,-68.5693 L 60.8482,-68.2892
 L 60.8445,-68.0124 L 60.8399,-67.7387 L 60.8345,-67.4683 L 60.8283,-67.201 L 60.8213,-66.9369 L 60.8134,-66.676
 L 60.8047,-66.4183 L 60.7951,-66.1638 L 60.7848,-65.9124 L 60.7736,-65.6643 L 60.7615,-65.4194 L 60.7487,-65.1776
 L 60.735,-64.939 L 60.7205,-64.7037 L 60.7052,-64.4715 L 60.689,-64.2425 L 60.672,-64.0167 L 60.6541,-63.794
 L 60.6355,-63.5746 L 60.616,-63.3584 L 60.5957,-63.1453 L 60.5745,-62.9355 L 60.5526,-62.7288 L 60.5297,-62.5254
 L 60.5061,-62.3251 L 60.4816,-62.128 L 60.4563,-61.9341 L 60.4302,-61.7434 L 60.4033,-61.5558 L 60.3755,-61.3715
 L 60.3469,-61.1904 L 60.3174,-61.0124 L 60.2872,-60.8377 L 60.2561,-60.6661 L 60.2241,-60.4977 L 60.1914,-60.3325
 L 60.1578,-60.1705 L 60.1234,-60.0117 L 60.0881,-59.8561 L 60.052,-59.7036 L 60.0152,-59.5544 L 59.9774,-59.4084
 L 59.9388,-59.2655 L 59.899,-59.1258 L 59.8582,-58.9892 L 59.8163,-58.8557 L 59.7734,-58.7254 L 59.7294,-58.5983
 L 59.6843,-58.4742 L 59.6382,-58.3533 L 59.591,-58.2356 L 59.5427,-58.121 L 59.4934,-58.0095 L 59.443,-57.9012
 L 59.3915,-57.796 L 59.339,-57.694 L 59.2854,-57.5951 L 59.2307,-57.4993 L 59.175,-57.4067 L 59.1182,-57.3172
 L 59.0603,-57.2308 L 59.0014,-57.1476 L 58.9414,-57.0676 L 58.8804,-56.9906 L 58.8182,-56.9168 L 58.755,-56.8462
 L 58.6908,-56.7787 L 58.6254,-56.7143 L 58.5591,-56.6531 L 58.4916,-56.595 L 58.4231,-56.5401 L 58.3535,-56.4883
 L 58.2828,-56.4396 L 58.2111,-56.394 L 58.1383,-56.3517 L 58.0644,-56.3124 L 57.9895,-56.2763 L 57.9135,-56.2433
 L 57.8365,-56.2135 L 57.7583,-56.1868 L 57.6791,-56.1633 L 57.5989,-56.1429 L 57.5176,-56.1256 L 57.4352,-56.1115
 L 57.3517,-56.1005 L 57.2672,-56.0926 L 57.1816,-56.0879 L 57.095,-56.0863 z
" stroke="black" fill="black" stroke-width="0.5"/>
</svg>
