<?xml version="1.0" standalone="no"?>
<!DOCTYPE svg PUBLIC "-//W3C//DTD SVG 1.1//EN" "http://www.w3.org/Graphics/SVG/1.1/DTD/svg11.dtd">
<svg width="70mm" height="100mm" viewBox="0 -100 70 100" xmlns="http://www.w3.org/2000/svg" version="1.1">
<title>OpenSCAD Model</title>
<path d="
M 63.2617,-0.0068512 L 63.4707,-0.017807 L 63.9912,-0.0725098 L 64.198,-0.105255 L 64.71,-0.214081 L 64.9122,-0.268265
 L 65.4099,-0.429993 L 65.6053,-0.50502 L 66.0833,-0.717819 L 66.2698,-0.812851 L 66.7234,-1.07474 L 66.899,-1.18877
 L 67.3222,-1.49626 L 67.4849,-1.62801 L 67.8738,-1.97818 L 68.0218,-2.12621 L 68.372,-2.51512 L 68.5037,-2.67781
 L 68.8112,-3.101 L 68.9253,-3.27657 L 69.1871,-3.73018 L 69.2822,-3.9167 L 69.495,-4.39465 L 69.57,-4.5901
 L 69.7317,-5.08783 L 69.7859,-5.29004 L 69.8947,-5.80205 L 69.9275,-6.0088 L 69.9822,-6.52927 L 69.9931,-6.73833
 L 70,-7 L 70,-93 L 69.9931,-93.2617 L 69.9822,-93.4707 L 69.9275,-93.9912 L 69.8947,-94.198
 L 69.7859,-94.71 L 69.7317,-94.9122 L 69.57,-95.4099 L 69.495,-95.6053 L 69.2822,-96.0833 L 69.1871,-96.2698
 L 68.9253,-96.7234 L 68.8112,-96.899 L 68.5037,-97.3222 L 68.372,-97.4849 L 68.0218,-97.8738 L 67.8738,-98.0218
 L 67.4849,-98.372 L 67.3222,-98.5037 L 66.899,-98.8112 L 66.7234,-98.9253 L 66.2698,-99.1871 L 66.0833,-99.2822
 L 65.6053,-99.495 L 65.4099,-99.57 L 64.9122,-99.7317 L 64.71,-99.7859 L 64.198,-99.8947 L 63.9912,-99.9275
 L 63.4707,-99.9822 L 63.2617,-99.9931 L 63,-100 L 25,-100 L 0,-75 L 0,-7
 L 0.0068512,-6.73833 L 0.017807,-6.52927 L 0.0725098,-6.0088 L 0.105255,-5.80205 L 0.214081,-5.29004 L 0.268265,-5.08783
 L 0.429993,-4.5901 L 0.50502,-4.39465 L 0.717819,-3.9167 L 0.812851,-3.73018 L 1.07474,-3.27657 L 1.18877,-3.101
 L 1.49626,-2.67781 L 1.62801,-2.51512 L 1.97818,-2.12621 L 2.12621,-1.97818 L 2.51512,-1.62801 L 2.67781,-1.49626
 L 3.101,-1.18877 L 3.27657,-1.07474 L 3.73018,-0.812851 L 3.9167,-0.717819 L 4.39465,-0.50502 L 4.5901,-0.429993
 L 5.08783,-0.268265 L 5.29004,-0.214081 L 5.80205,-0.105255 L 6.0088,-0.0725098 L 6.52927,-0.017807 L 6.73833,-0.0068512
 L 7,-0 L 63,-0 z
M 7,-5 L 6.79094,-5.01096 L 6.58418,-5.0437 L 6.38197,-5.09789 L 6.18652,-5.17291 L 6,-5.26794
 L 5.82443,-5.38197 L 5.66174,-5.51372 L 5.51372,-5.66174 L 5.38197,-5.82443 L 5.26794,-6 L 5.17291,-6.18652
 L 5.09789,-6.38197 L 5.0437,-6.58418 L 5.01096,-6.79094 L 5,-7 L 5,-70 L 23,-70
 L 23.2617,-70.0069 L 23.4707,-70.0178 L 23.9912,-70.0725 L 24.198,-70.1053 L 24.71,-70.2141 L 24.9122,-70.2683
 L 25.4099,-70.43 L 25.6053,-70.505 L 26.0833,-70.7178 L 26.2698,-70.8129 L 26.7234,-71.0747 L 26.899,-71.1888
 L 27.3222,-71.4963 L 27.4849,-71.628 L 27.8738,-71.9782 L 28.0218,-72.1262 L 28.372,-72.5151 L 28.5037,-72.6778
 L 28.8112,-73.101 L 28.9253,-73.2766 L 29.1871,-73.7302 L 29.2822,-73.9167 L 29.495,-74.3947 L 29.57,-74.5901
 L 29.7317,-75.0878 L 29.7859,-75.29 L 29.8947,-75.802 L 29.9275,-76.0088 L 29.9822,-76.5293 L 29.9931,-76.7383
 L 30,-77 L 30,-95 L 63,-95 L 63.2091,-94.989 L 63.4158,-94.9563 L 63.618,-94.9021
 L 63.8135,-94.8271 L 64,-94.7321 L 64.1756,-94.618 L 64.3383,-94.4863 L 64.4863,-94.3383 L 64.618,-94.1756
 L 64.7321,-94 L 64.8271,-93.8135 L 64.9021,-93.618 L 64.9563,-93.4158 L 64.989,-93.2091 L 65,-93
 L 65,-7 L 64.989,-6.79094 L 64.9563,-6.58418 L 64.9021,-6.38197 L 64.8271,-6.18652 L 64.7321,-6
 L 64.618,-5.82443 L 64.4863,-5.66174 L 64.3383,-5.51372 L 64.1756,-5.38197 L 64,-5.26794 L 63.8135,-5.17291
 L 63.618,-5.09789 L 63.4158,-5.0437 L 63.2091,-5.01096 L 63,-5 z
M 40,-35 L 52.5,-35 L 52.5,-45 L 40,-45 L 40,-57.5 L 30,-57.5
 L 30,-45 L 17.5,-45 L 17.5,-35 L 30,-35 L 30,-22.5 L 40,-22.5
 z
" stroke="white" fill="white" stroke-width="0.5"/>
</svg>
