<?xml version="1.0" standalone="no"?>
<!DOCTYPE svg PUBLIC "-//W3C//DTD SVG 1.1//EN" "http://www.w3.org/Graphics/SVG/1.1/DTD/svg11.dtd">
<svg width="100mm" height="100mm" viewBox="-8 -108 116 116" xmlns="http://www.w3.org/2000/svg" version="1.1">
<title>OpenSCAD Model</title>
<path d="
M 84.2093,-0.00547791 L 84.4184,-0.0164337 L 84.8348,-0.0601959 L 85.0415,-0.0929413 L 85.4511,-0.180008 L 85.6533,-0.234192
 L 86.0515,-0.363571 L 86.247,-0.438599 L 86.6293,-0.608841 L 86.8159,-0.703873 L 87.1787,-0.913391 L 87.3543,-1.02742
 L 87.6929,-1.27341 L 87.8556,-1.40515 L 88.1667,-1.68529 L 88.3147,-1.83331 L 88.5948,-2.14444 L 88.7266,-2.30713
 L 88.9726,-2.64569 L 89.0866,-2.82126 L 89.2961,-3.18414 L 89.3912,-3.37067 L 89.5614,-3.75304 L 89.6364,-3.94849
 L 89.7658,-4.34666 L 89.82,-4.54887 L 89.9071,-4.95848 L 89.9398,-5.16524 L 89.9836,-5.5816 L 89.9945,-5.79066
 L 90,-6 L 90,-94 L 89.9945,-94.2093 L 89.9836,-94.4184 L 89.9398,-94.8348 L 89.9071,-95.0415
 L 89.82,-95.4511 L 89.7658,-95.6533 L 89.6364,-96.0515 L 89.5614,-96.247 L 89.3912,-96.6293 L 89.2961,-96.8159
 L 89.0866,-97.1787 L 88.9726,-97.3543 L 88.7266,-97.6929 L 88.5948,-97.8556 L 88.3147,-98.1667 L 88.1667,-98.3147
 L 87.8556,-98.5948 L 87.6929,-98.7266 L 87.3543,-98.9726 L 87.1787,-99.0866 L 86.8159,-99.2961 L 86.6293,-99.3912
 L 86.247,-99.5614 L 86.0515,-99.6364 L 85.6533,-99.7658 L 85.4511,-99.82 L 85.0415,-99.9071 L 84.8348,-99.9398
 L 84.4184,-99.9836 L 84.2093,-99.9945 L 84,-100 L 36,-100 L 10,-74 L 10,-6
 L 10.0055,-5.79066 L 10.0164,-5.5816 L 10.0602,-5.16524 L 10.0929,-4.95848 L 10.18,-4.54887 L 10.2342,-4.34666
 L 10.3636,-3.94849 L 10.4386,-3.75304 L 10.6088,-3.37067 L 10.7039,-3.18414 L 10.9134,-2.82126 L 11.0274,-2.64569
 L 11.2734,-2.30713 L 11.4052,-2.14444 L 11.6853,-1.83331 L 11.8333,-1.68529 L 12.1444,-1.40515 L 12.3071,-1.27341
 L 12.6457,-1.02742 L 12.8213,-0.913391 L 13.1841,-0.703873 L 13.3707,-0.608841 L 13.753,-0.438599 L 13.9485,-0.363571
 L 14.3467,-0.234192 L 14.5489,-0.180008 L 14.9585,-0.0929413 L 15.1652,-0.0601959 L 15.5816,-0.0164337 L 15.7907,-0.00547791
 L 16,-0 L 84,-0 z
M 16,-4 L 15.7909,-4.01096 L 15.5842,-4.0437 L 15.382,-4.09789 L 15.1865,-4.17291 L 15,-4.26794
 L 14.8244,-4.38197 L 14.6617,-4.51372 L 14.5137,-4.66174 L 14.382,-4.82443 L 14.2679,-5 L 14.1729,-5.18652
 L 14.0979,-5.38197 L 14.0437,-5.58418 L 14.011,-5.79094 L 14,-6 L 14,-70 L 34,-70
 L 34.2093,-70.0055 L 34.4184,-70.0164 L 34.8348,-70.0602 L 35.0415,-70.0929 L 35.4511,-70.18 L 35.6533,-70.2342
 L 36.0515,-70.3636 L 36.247,-70.4386 L 36.6293,-70.6088 L 36.8159,-70.7039 L 37.1787,-70.9134 L 37.3543,-71.0274
 L 37.6929,-71.2734 L 37.8556,-71.4052 L 38.1667,-71.6853 L 38.3147,-71.8333 L 38.5948,-72.1444 L 38.7266,-72.3071
 L 38.9726,-72.6457 L 39.0866,-72.8213 L 39.2961,-73.1841 L 39.3912,-73.3707 L 39.5614,-73.753 L 39.6364,-73.9485
 L 39.7658,-74.3467 L 39.82,-74.5489 L 39.9071,-74.9585 L 39.9398,-75.1652 L 39.9836,-75.5816 L 39.9945,-75.7907
 L 40,-76 L 40,-96 L 84,-96 L 84.2091,-95.989 L 84.4158,-95.9563 L 84.618,-95.9021
 L 84.8135,-95.8271 L 85,-95.7321 L 85.1756,-95.618 L 85.3383,-95.4863 L 85.4863,-95.3383 L 85.618,-95.1756
 L 85.7321,-95 L 85.8271,-94.8135 L 85.9021,-94.618 L 85.9563,-94.4158 L 85.989,-94.2091 L 86,-94
 L 86,-6 L 85.989,-5.79094 L 85.9563,-5.58418 L 85.9021,-5.38197 L 85.8271,-5.18652 L 85.7321,-5
 L 85.618,-4.82443 L 85.4863,-4.66174 L 85.3383,-4.51372 L 85.1756,-4.38197 L 85,-4.26794 L 84.8135,-4.17291
 L 84.618,-4.09789 L 84.4158,-4.0437 L 84.2091,-4.01096 L 84,-4 z
M 52,-38 L 66,-38 L 66,-42 L 52,-42 L 52,-56 L 48,-56
 L 48,-42 L 34,-42 L 34,-38 L 48,-38 L 48,-24 L 52,-24
 z
" stroke="black" fill="black" stroke-width="0.5"/>
</svg>
