<?xml version="1.0" standalone="no"?>
<!DOCTYPE svg PUBLIC "-//W3C//DTD SVG 1.1//EN" "http://www.w3.org/Graphics/SVG/1.1/DTD/svg11.dtd">
<svg width="100mm" height="100mm" viewBox="-8 -108 116 116" xmlns="http://www.w3.org/2000/svg" version="1.1">
<title>OpenSCAD Model</title>
<path d="
M 17.1425,-22.4792 L 17.1425,-69.525 L 32.5425,-69.525 L 32.7037,-69.5292 L 32.8647,-69.5376 L 33.1853,-69.5714
 L 33.3445,-69.5966 L 33.6599,-69.6636 L 33.8156,-69.7053 L 34.1222,-69.8049 L 34.2727,-69.8627 L 34.5671,-69.9938
 L 34.7107,-70.067 L 34.9901,-70.2283 L 35.1253,-70.3161 L 35.386,-70.5055 L 35.5113,-70.607 L 35.7508,-70.8227
 L 35.8648,-70.9366 L 36.0805,-71.1762 L 36.182,-71.3015 L 36.3714,-71.5622 L 36.4592,-71.6974 L 36.6205,-71.9768
 L 36.6937,-72.1204 L 36.8248,-72.4148 L 36.8825,-72.5653 L 36.9822,-72.8719 L 37.0239,-73.0276 L 37.0909,-73.343
 L 37.1161,-73.5022 L 37.1498,-73.8228 L 37.1583,-73.9838 L 37.1625,-74.145 L 37.1625,-89.545 L 71.0425,-89.545
 L 71.2035,-89.5366 L 71.3627,-89.5113 L 71.5184,-89.4696 L 71.6689,-89.4118 L 71.8125,-89.3387 L 71.9477,-89.2509
 L 72.073,-89.1494 L 72.1869,-89.0354 L 72.2884,-88.9102 L 72.3762,-88.775 L 72.4494,-88.6314 L 72.5071,-88.4809
 L 72.5488,-88.3252 L 72.5741,-88.166 L 72.5825,-88.005 L 72.5825,-43.5 L 75.6625,-43.5 L 75.6625,-88.005
 L 75.6583,-88.1662 L 75.6498,-88.3272 L 75.6161,-88.6478 L 75.5909,-88.807 L 75.5239,-89.1224 L 75.4822,-89.2781
 L 75.3825,-89.5847 L 75.3248,-89.7352 L 75.1937,-90.0296 L 75.1205,-90.1732 L 74.9592,-90.4526 L 74.8714,-90.5878
 L 74.682,-90.8485 L 74.5805,-90.9738 L 74.3648,-91.2133 L 74.2508,-91.3273 L 74.0113,-91.543 L 73.886,-91.6445
 L 73.6253,-91.8339 L 73.4901,-91.9217 L 73.2107,-92.083 L 73.0671,-92.1562 L 72.7727,-92.2873 L 72.6222,-92.345
 L 72.3156,-92.4447 L 72.1599,-92.4864 L 71.8445,-92.5534 L 71.6853,-92.5786 L 71.3647,-92.6123 L 71.2037,-92.6208
 L 71.0425,-92.625 L 34.0825,-92.625 L 14.0625,-72.605 L 14.0625,-20.245 L 14.0667,-20.0838 L 14.0751,-19.9228
 L 14.1088,-19.6022 L 14.1341,-19.443 L 14.2011,-19.1276 L 14.2428,-18.9719 L 14.3424,-18.6653 L 14.4002,-18.5148
 L 14.5313,-18.2204 L 14.6045,-18.0768 L 14.7658,-17.7974 L 14.786,-17.7663 z
M 77.2091,-0.0109558 L 77.4158,-0.0437012 L 77.618,-0.0978851 L 77.8135,-0.172913 L 78,-0.267944 L 78.1756,-0.381973
 L 78.3383,-0.513718 L 78.4863,-0.661743 L 78.618,-0.824432 L 78.7321,-1 L 78.7888,-1.10558 L 97.5388,-38.6056
 L 97.6225,-38.7975 L 97.6857,-38.997 L 97.7277,-39.2021 L 97.748,-39.4105 L 97.7464,-39.6198 L 97.7229,-39.8279
 L 97.6779,-40.0323 L 97.6117,-40.2309 L 97.5251,-40.4215 L 97.419,-40.602 L 97.2947,-40.7704 L 97.1534,-40.9249
 L 96.9968,-41.0638 L 96.8265,-41.1856 L 96.6444,-41.2888 L 96.4525,-41.3725 L 96.253,-41.4357 L 96.0479,-41.4777
 L 95.75,-41.5 L 77.6875,-41.5 L 77.6875,-55.375 L 77.6765,-55.5841 L 77.6625,-55.6728 L 77.6625,-41.5
 L 30.125,-41.5 L 29.9159,-41.489 L 29.7092,-41.4563 L 29.507,-41.4021 L 29.3115,-41.3271 L 29.125,-41.2321
 L 28.9494,-41.118 L 28.7867,-40.9863 L 28.6387,-40.8383 L 28.507,-40.6756 L 28.3929,-40.5 L 28.3362,-40.3944
 L 11.1389,-6 L 8,-6 L 7.79094,-6.01096 L 7.58418,-6.0437 L 7.38197,-6.09789 L 7.18652,-6.17291
 L 7,-6.26794 L 6.82443,-6.38197 L 6.66174,-6.51372 L 6.51372,-6.66174 L 6.38197,-6.82443 L 6.26794,-7
 L 6.17291,-7.18652 L 6.09789,-7.38197 L 6.0437,-7.58418 L 6.01096,-7.79094 L 6,-8 L 6,-58.75
 L 6.01096,-58.9591 L 6.0437,-59.1658 L 6.09789,-59.368 L 6.17291,-59.5635 L 6.26794,-59.75 L 6.38197,-59.9256
 L 6.51372,-60.0883 L 6.66174,-60.2363 L 6.82443,-60.368 L 7,-60.4821 L 7.18652,-60.5771 L 7.38197,-60.6521
 L 7.58418,-60.7063 L 7.79094,-60.739 L 8,-60.75 L 12.0625,-60.75 L 12.0625,-66.75 L 2,-66.75
 L 1.79094,-66.739 L 1.58418,-66.7063 L 1.38197,-66.6521 L 1.18652,-66.5771 L 1,-66.4821 L 0.824432,-66.368
 L 0.661743,-66.2363 L 0.513718,-66.0883 L 0.381973,-65.9256 L 0.267944,-65.75 L 0.172913,-65.5635 L 0.0978851,-65.368
 L 0.0437012,-65.1658 L 0.0109558,-64.9591 L 0,-64.75 L 0,-2 L 0.0109558,-1.79094 L 0.0437012,-1.58418
 L 0.0978851,-1.38197 L 0.172913,-1.18652 L 0.267944,-1 L 0.381973,-0.824432 L 0.513718,-0.661743 L 0.661743,-0.513718
 L 0.824432,-0.381973 L 1,-0.267944 L 1.18652,-0.172913 L 1.38197,-0.0978851 L 1.58418,-0.0437012 L 1.79094,-0.0109558
 L 2,-0 L 77,-0 z
" stroke="white" fill="white" stroke-width="0.5"/>
</svg>
