<?xml version="1.0" standalone="no"?>
<!DOCTYPE svg PUBLIC "-//W3C//DTD SVG 1.1//EN" "http://www.w3.org/Graphics/SVG/1.1/DTD/svg11.dtd">
<svg width="100mm" height="100mm" viewBox="-8 -108 116 116" xmlns="http://www.w3.org/2000/svg" version="1.1">
<title>OpenSCAD Model</title>
<path d="
M 17.1425,-22.4792 L 17.1425,-69.525 L 32.5425,-69.525 L 32.6959,-69.5288 L 32.8493,-69.5365 L 33.0024,-69.5479
 L 33.155,-69.5671 L 33.3068,-69.59 L 33.4581,-69.6166 L 33.6076,-69.6507 L 33.7563,-69.6886 L 33.9042,-69.7302
 L 34.0498,-69.7791 L 34.1941,-69.8316 L 34.337,-69.8878 L 34.4771,-69.951 L 34.6154,-70.0176 L 34.7521,-70.0876
 L 34.885,-70.1644 L 35.016,-70.2444 L 35.145,-70.3278 L 35.2697,-70.4174 L 35.3921,-70.5101 L 35.5122,-70.6059
 L 35.6273,-70.7075 L 35.7399,-70.8119 L 35.8498,-70.9191 L 35.9542,-71.0317 L 36.0558,-71.1468 L 36.1545,-71.2645
 L 36.2472,-71.3868 L 36.3368,-71.5114 L 36.4233,-71.6383 L 36.5036,-71.7696 L 36.5803,-71.9026 L 36.6538,-72.0375
 L 36.7203,-72.1757 L 36.7835,-72.3156 L 36.8431,-72.4571 L 36.8956,-72.6013 L 36.9445,-72.7468 L 36.9898,-72.8936
 L 37.0277,-73.0425 L 37.0619,-73.1922 L 37.0923,-73.3427 L 37.1152,-73.4948 L 37.1343,-73.6471 L 37.1496,-73.7999
 L 37.156,-73.9146 L 37.1603,-74.0297 L 37.1625,-74.145 L 37.1625,-89.545 L 71.0425,-89.545 L 71.1576,-89.5407
 L 71.3099,-89.5216 L 71.4596,-89.4874 L 71.6051,-89.4385 L 71.7451,-89.3754 L 71.878,-89.2986 L 72.0027,-89.209
 L 72.1178,-89.1074 L 72.2222,-88.9949 L 72.3149,-88.8725 L 72.3949,-88.7415 L 72.4616,-88.6032 L 72.5141,-88.4589
 L 72.552,-88.3101 L 72.5748,-88.1583 L 72.5825,-88.005 L 72.5825,-43.5 L 75.6625,-43.5 L 75.6625,-88.005
 L 75.6587,-88.1584 L 75.651,-88.3118 L 75.6395,-88.4649 L 75.6204,-88.6175 L 75.5975,-88.7693 L 75.5709,-88.9206
 L 75.5367,-89.0701 L 75.4989,-89.2188 L 75.4573,-89.3667 L 75.4083,-89.5123 L 75.3558,-89.6566 L 75.2997,-89.7995
 L 75.2365,-89.9396 L 75.1699,-90.078 L 75.0998,-90.2146 L 75.0231,-90.3475 L 74.943,-90.4785 L 74.8597,-90.6075
 L 74.7701,-90.7322 L 74.6774,-90.8546 L 74.5816,-90.9747 L 74.48,-91.0898 L 74.3756,-91.2024 L 74.2683,-91.3123
 L 74.1558,-91.4167 L 74.0407,-91.5183 L 73.923,-91.6171 L 73.8007,-91.7097 L 73.676,-91.7993 L 73.5492,-91.8858
 L 73.4179,-91.9661 L 73.2849,-92.0428 L 73.15,-92.1163 L 73.0118,-92.1828 L 72.8719,-92.246 L 72.7304,-92.3056
 L 72.5862,-92.3581 L 72.4406,-92.407 L 72.2939,-92.4523 L 72.145,-92.4902 L 71.9953,-92.5244 L 71.8448,-92.5548
 L 71.6927,-92.5777 L 71.5404,-92.5968 L 71.3876,-92.6121 L 71.2729,-92.6185 L 71.1578,-92.6228 L 71.0425,-92.625
 L 34.0825,-92.625 L 14.0625,-72.605 L 14.0625,-20.245 L 14.0663,-20.0916 L 14.074,-19.9382 L 14.0854,-19.7851
 L 14.1046,-19.6325 L 14.1275,-19.4807 L 14.1541,-19.3294 L 14.1882,-19.1799 L 14.2261,-19.0311 L 14.2677,-18.8833
 L 14.3166,-18.7377 L 14.3692,-18.5934 L 14.4252,-18.4505 L 14.4885,-18.3104 L 14.5551,-18.172 L 14.6252,-18.0354
 L 14.7019,-17.9025 L 14.782,-17.7715 L 14.7857,-17.7657 z
M 77.1991,-0.00993347 L 77.3963,-0.0396576 L 77.5895,-0.0888519 L 77.7769,-0.157043 L 77.9565,-0.243561 L 78.1266,-0.347519
 L 78.2856,-0.467911 L 78.4317,-0.603531 L 78.5637,-0.753021 L 78.6801,-0.914902 L 78.7888,-1.10558 L 97.5388,-38.6056
 L 97.619,-38.7881 L 97.6806,-38.9778 L 97.723,-39.1726 L 97.7458,-39.3707 L 97.7488,-39.57 L 97.7319,-39.7687
 L 97.6953,-39.9647 L 97.6393,-40.1561 L 97.5646,-40.3409 L 97.4719,-40.5174 L 97.362,-40.6838 L 97.2361,-40.8384
 L 97.0955,-40.9798 L 96.9415,-41.1064 L 96.7756,-41.217 L 96.5995,-41.3106 L 96.4151,-41.3862 L 96.2239,-41.443
 L 96.0281,-41.4806 L 95.75,-41.5 L 77.6875,-41.5 L 77.6875,-55.375 L 77.6776,-55.5741 L 77.6625,-55.6741
 L 77.6625,-41.5 L 30.125,-41.5 L 29.9259,-41.4901 L 29.7287,-41.4603 L 29.5355,-41.4111 L 29.3481,-41.343
 L 29.1685,-41.2564 L 28.9984,-41.1525 L 28.8394,-41.0321 L 28.6933,-40.8965 L 28.5613,-40.747 L 28.4449,-40.5851
 L 28.3362,-40.3944 L 11.1389,-6 L 8,-6 L 7.85054,-6.0056 L 7.65271,-6.03038 L 7.45831,-6.07475
 L 7.26932,-6.13826 L 7.08759,-6.22026 L 6.9149,-6.31995 L 6.75302,-6.43634 L 6.60353,-6.56827 L 6.46791,-6.71443
 L 6.34752,-6.87337 L 6.24356,-7.04349 L 6.15704,-7.22313 L 6.08885,-7.41049 L 6.03966,-7.60371 L 6.00993,-7.80086
 L 6,-8 L 6,-58.75 L 6.0056,-58.8995 L 6.03038,-59.0973 L 6.07475,-59.2917 L 6.13826,-59.4807
 L 6.22026,-59.6624 L 6.31995,-59.8351 L 6.43634,-59.997 L 6.56827,-60.1465 L 6.71443,-60.2821 L 6.87337,-60.4025
 L 7.04349,-60.5064 L 7.22313,-60.593 L 7.41049,-60.6611 L 7.60371,-60.7103 L 7.80086,-60.7401 L 8,-60.75
 L 12.0625,-60.75 L 12.0625,-66.75 L 2,-66.75 L 1.80086,-66.7401 L 1.60371,-66.7103 L 1.41049,-66.6611
 L 1.22313,-66.593 L 1.04349,-66.5064 L 0.873367,-66.4025 L 0.714432,-66.2821 L 0.568268,-66.1465 L 0.43634,-65.997
 L 0.319946,-65.8351 L 0.220261,-65.6624 L 0.13826,-65.4807 L 0.0747528,-65.2917 L 0.0303802,-65.0973 L 0.00559998,-64.8995
 L 0,-64.75 L 0,-2 L 0.00993347,-1.80086 L 0.0396576,-1.60371 L 0.0888519,-1.41049 L 0.157043,-1.22313
 L 0.243561,-1.04349 L 0.347519,-0.873367 L 0.467911,-0.714432 L 0.603531,-0.568268 L 0.753021,-0.43634 L 0.914902,-0.319946
 L 1.08759,-0.220261 L 1.26932,-0.13826 L 1.45831,-0.0747528 L 1.65271,-0.0303802 L 1.85054,-0.00559998 L 2,-0
 L 77,-0 z
" stroke="black" fill="black" stroke-width="0.5"/>
</svg>
