<?xml version="1.0" standalone="no"?>
<!DOCTYPE svg PUBLIC "-//W3C//DTD SVG 1.1//EN" "http://www.w3.org/Graphics/SVG/1.1/DTD/svg11.dtd">
<svg width="100mm" height="100mm" viewBox="-8 -108 116 116" xmlns="http://www.w3.org/2000/svg" version="1.1">
<title>OpenSCAD Model</title>
<path d="
M 91.618,-28.8244 L 91.732,-29 L 91.8271,-29.1865 L 91.9021,-29.382 L 91.9563,-29.5842 L 91.989,-29.7909
 L 92,-30 L 92,-90 L 91.989,-90.209 L 91.9563,-90.4158 L 91.9021,-90.618 L 91.8271,-90.8135
 L 91.732,-91 L 91.618,-91.1756 L 91.4863,-91.3383 L 91.3383,-91.4863 L 91.1756,-91.618 L 91,-91.732
 L 90.8135,-91.8271 L 90.618,-91.9021 L 90.4158,-91.9563 L 90.209,-91.989 L 90,-92 L 30,-92
 L 29.7909,-91.989 L 29.5842,-91.9563 L 29.382,-91.9021 L 29.1865,-91.8271 L 29,-91.732 L 28.8244,-91.618
 L 28.6617,-91.4863 L 8.5137,-71.3383 L 8.38196,-71.1756 L 8.26794,-71 L 8.1729,-70.8135 L 8.09789,-70.618
 L 8.0437,-70.4158 L 8.01096,-70.209 L 8,-70 L 8,-10 L 8.01096,-9.79094 L 8.0437,-9.58417
 L 8.09789,-9.38196 L 8.1729,-9.18652 L 8.26794,-9 L 8.38196,-8.82442 L 8.5137,-8.66173 L 8.66173,-8.5137
 L 8.82442,-8.38196 L 9,-8.26794 L 9.18652,-8.1729 L 9.38196,-8.09789 L 9.58417,-8.0437 L 9.79094,-8.01096
 L 10,-8 L 70,-8 L 70.209,-8.01096 L 70.4158,-8.0437 L 70.618,-8.09789 L 70.8135,-8.1729
 L 71,-8.26794 L 71.1756,-8.38196 L 71.3383,-8.5137 L 91.4863,-28.6617 z
M 32,-72 L 32,-88 L 85.1754,-88 L 69.1754,-72 z
M 14.8246,-72 L 28,-85.1754 L 28,-72 z
M 72,-32 L 72,-69.1754 L 88,-85.1754 L 88,-32 z
M 12,-68 L 28,-68 L 28,-30.8246 L 12,-14.8246 z
M 32,-32 L 32,-68 L 68,-68 L 68,-32 z
M 14.8246,-12 L 30.8246,-28 L 68,-28 L 68,-12 z
M 72,-28 L 85.1754,-28 L 72,-14.8246 z
" stroke="white" fill="white" stroke-width="0.5"/>
</svg>
