<?xml version="1.0" standalone="no"?>
<!DOCTYPE svg PUBLIC "-//W3C//DTD SVG 1.1//EN" "http://www.w3.org/Graphics/SVG/1.1/DTD/svg11.dtd">
<svg width="100mm" height="100mm" viewBox="-8 -108 116 116" xmlns="http://www.w3.org/2000/svg" version="1.1">
<title>OpenSCAD Model</title>
<path d="
M 84.7909,-96.989 L 84.5842,-96.9563 L 84.382,-96.9021 L 84.1865,-96.8271 L 4.18652,-56.8271 L 4,-56.732
 L 3.82442,-56.618 L 3.66173,-56.4863 L 3.5137,-56.3383 L 3.38196,-56.1756 L 3.26794,-56 L 3.1729,-55.8135
 L 3.09789,-55.618 L 3.0437,-55.4158 L 3.01096,-55.209 L 3,-55 L 3,-5 L 3.01096,-4.79094
 L 3.0437,-4.58417 L 3.09789,-4.38196 L 3.1729,-4.18652 L 3.26794,-4 L 3.38196,-3.82442 L 3.5137,-3.66173
 L 3.66173,-3.5137 L 3.82442,-3.38196 L 4,-3.26794 L 4.18652,-3.1729 L 4.38196,-3.09789 L 4.58417,-3.0437
 L 4.79094,-3.01096 L 5,-3 L 55,-3 L 55.209,-3.01096 L 55.4158,-3.0437 L 55.618,-3.09789
 L 55.8135,-3.1729 L 56,-3.26794 L 56.1756,-3.38196 L 56.3383,-3.5137 L 56.4863,-3.66173 L 56.618,-3.82442
 L 56.732,-4 L 56.8271,-4.18652 L 96.8271,-84.1865 L 96.9021,-84.382 L 96.9563,-84.5842 L 96.989,-84.7909
 L 97,-85 L 97,-95 L 96.989,-95.209 L 96.9563,-95.4158 L 96.9021,-95.618 L 96.8271,-95.8135
 L 96.732,-96 L 96.618,-96.1756 L 96.4863,-96.3383 L 96.3383,-96.4863 L 96.1756,-96.618 L 96,-96.732
 L 95.8135,-96.8271 L 95.618,-96.9021 L 95.4158,-96.9563 L 95.209,-96.989 L 95,-97 L 85,-97
 z
M 13.4677,-57 L 85.4677,-93 L 90.1754,-93 L 54.1754,-57 z
M 57,-54.1754 L 93,-90.1754 L 93,-85.4677 L 57,-13.4677 z
M 7,-7 L 7,-53 L 53,-53 L 53,-7 z
" stroke="black" fill="black" stroke-width="0.5"/>
</svg>
