<?xml version="1.0" standalone="no"?>
<!DOCTYPE svg PUBLIC "-//W3C//DTD SVG 1.1//EN" "http://www.w3.org/Graphics/SVG/1.1/DTD/svg11.dtd">
<svg width="74mm" height="94mm" viewBox="-37 -83 74 94" xmlns="http://www.w3.org/2000/svg" version="1.1">
<title>OpenSCAD Model</title>
<path d="
M 3.62314,-75.9243 L 3.82991,-75.9571 L 4.03212,-76.0113 L 4.22755,-76.0863 L 4.41409,-76.1813 L 4.58966,-76.2953
 L 4.75235,-76.4271 L 4.90038,-76.5751 L 5.03212,-76.7378 L 5.14618,-76.9135 L 5.24617,-77.0867 L 5.3412,-77.2732
 L 5.41621,-77.4686 L 5.4704,-77.6708 L 5.50313,-77.8776 L 5.51408,-78.0867 L 5.50313,-78.2957 L 5.47037,-78.5025
 L 5.41618,-78.7047 L 5.34114,-78.9001 L 5.24611,-79.0867 L 5.13208,-79.2622 L 5.00034,-79.4249 L 4.85229,-79.5729
 L 4.68961,-79.7047 L 4.51408,-79.8186 L 1.33951,-81.6515 L 1.21208,-81.7547 L 1.03651,-81.8687 L 0.849976,-81.9637
 L 0.654541,-82.0387 L 0.452316,-82.0929 L 0.24556,-82.1256 L 0.036499,-82.1366 L -0.00012207,-82.1347 L -0.0368958,-82.1366
 L -0.245956,-82.1256 L -0.452713,-82.0928 L -0.654907,-82.0386 L -0.850342,-81.9635 L -1.03685,-81.8685 L -1.2124,-81.7544
 L -1.3394,-81.6516 L -4.51408,-79.8186 L -4.68965,-79.7046 L -4.85236,-79.5729 L -5.00038,-79.4249 L -5.13213,-79.2622
 L -5.24614,-79.0866 L -5.34117,-78.9001 L -5.4162,-78.7046 L -5.47038,-78.5024 L -5.50313,-78.2956 L -5.51408,-78.0866
 L -5.50313,-77.8775 L -5.47038,-77.6708 L -5.4162,-77.4686 L -5.34117,-77.2731 L -5.24617,-77.0867 L -5.14618,-76.9135
 L -5.03217,-76.7379 L -4.90042,-76.5752 L -4.75241,-76.4271 L -4.58972,-76.2954 L -4.41415,-76.1814 L -4.22763,-76.0863
 L -4.0322,-76.0113 L -3.82999,-75.9571 L -3.62321,-75.9243 L -3.41415,-75.9134 L -3.20511,-75.9243 L -2.99834,-75.9571
 L -2.79613,-76.0113 L -2.60068,-76.0863 L -2.41409,-76.1814 L 0,-77.5751 L 2.41409,-76.1814 L 2.60062,-76.0863
 L 2.79605,-76.0113 L 2.99826,-75.9571 L 3.20503,-75.9243 L 3.41408,-75.9134 z
M 14.0155,-69.9243 L 14.2222,-69.9571 L 14.4244,-70.0113 L 14.6199,-70.0863 L 14.8064,-70.1813 L 14.982,-70.2953
 L 15.1447,-70.4271 L 15.2927,-70.5751 L 15.4244,-70.7378 L 15.5385,-70.9135 L 15.6385,-71.0867 L 15.7335,-71.2732
 L 15.8085,-71.4686 L 15.8627,-71.6708 L 15.8954,-71.8776 L 15.9064,-72.0867 L 15.8954,-72.2957 L 15.8627,-72.5025
 L 15.8085,-72.7047 L 15.7334,-72.9001 L 15.6384,-73.0867 L 15.5244,-73.2622 L 15.3926,-73.4249 L 15.2446,-73.5729
 L 15.0819,-73.7047 L 14.9064,-73.8186 L 11.4423,-75.8186 L 11.2558,-75.9137 L 11.0603,-75.9887 L 10.8581,-76.0429
 L 10.6514,-76.0756 L 10.4423,-76.0866 L 10.2332,-76.0756 L 10.0265,-76.0429 L 9.82426,-75.9887 L 9.62881,-75.9137
 L 9.44229,-75.8186 L 9.26672,-75.7046 L 9.10403,-75.5729 L 8.95601,-75.4249 L 8.82426,-75.2622 L 8.71021,-75.0865
 L 8.61021,-74.9133 L 8.51518,-74.7268 L 8.44017,-74.5314 L 8.38599,-74.3291 L 8.35326,-74.1224 L 8.3423,-73.9133
 L 8.35326,-73.7043 L 8.38602,-73.4975 L 8.4402,-73.2953 L 8.51524,-73.0999 L 8.61028,-72.9133 L 8.7243,-72.7378
 L 8.85605,-72.5751 L 9.00409,-72.4271 L 9.16678,-72.2953 L 9.3423,-72.1813 L 12.8064,-70.1813 L 12.9929,-70.0863
 L 13.1884,-70.0113 L 13.3906,-69.9571 L 13.5973,-69.9243 L 13.8064,-69.9134 z
M -13.5974,-69.9243 L -13.3906,-69.9571 L -13.1884,-70.0113 L -12.993,-70.0863 L -12.8064,-70.1813 L -9.3423,-72.1813
 L -9.16673,-72.2954 L -9.00404,-72.4271 L -8.856,-72.5751 L -8.72426,-72.7378 L -8.61024,-72.9134 L -8.51521,-73.0999
 L -8.44019,-73.2954 L -8.386,-73.4976 L -8.35326,-73.7043 L -8.3423,-73.9134 L -8.35326,-74.1225 L -8.386,-74.3292
 L -8.44019,-74.5314 L -8.51521,-74.7269 L -8.61021,-74.9133 L -8.71021,-75.0865 L -8.82422,-75.2621 L -8.95596,-75.4248
 L -9.10397,-75.5728 L -9.26666,-75.7046 L -9.44223,-75.8186 L -9.62875,-75.9137 L -9.82419,-75.9887 L -10.0264,-76.0429
 L -10.2332,-76.0756 L -10.4422,-76.0866 L -10.6513,-76.0756 L -10.858,-76.0429 L -11.0603,-75.9887 L -11.2557,-75.9137
 L -11.4423,-75.8186 L -14.9064,-73.8186 L -15.082,-73.7046 L -15.2446,-73.5729 L -15.3927,-73.4249 L -15.5244,-73.2622
 L -15.6384,-73.0866 L -15.7335,-72.9001 L -15.8085,-72.7046 L -15.8627,-72.5024 L -15.8954,-72.2957 L -15.9064,-72.0866
 L -15.8954,-71.8775 L -15.8627,-71.6708 L -15.8085,-71.4686 L -15.7335,-71.2731 L -15.6385,-71.0867 L -15.5385,-70.9135
 L -15.4245,-70.7379 L -15.2927,-70.5752 L -15.1447,-70.4271 L -14.982,-70.2954 L -14.8065,-70.1814 L -14.6199,-70.0863
 L -14.4245,-70.0113 L -14.2223,-69.9571 L -14.0155,-69.9243 L -13.8065,-69.9134 z
M 24.4078,-63.9243 L 24.6145,-63.9571 L 24.8168,-64.0113 L 25.0122,-64.0863 L 25.1987,-64.1813 L 25.3743,-64.2954
 L 25.537,-64.4271 L 25.685,-64.5751 L 25.8168,-64.7378 L 25.9308,-64.9135 L 26.0308,-65.0867 L 26.1258,-65.2732
 L 26.2008,-65.4686 L 26.255,-65.6708 L 26.2878,-65.8776 L 26.2987,-66.0867 L 26.2878,-66.2957 L 26.255,-66.5025
 L 26.2008,-66.7047 L 26.1258,-66.9001 L 26.0307,-67.0867 L 25.9167,-67.2622 L 25.785,-67.4249 L 25.6369,-67.5729
 L 25.4742,-67.7047 L 25.2987,-67.8186 L 21.8346,-69.8186 L 21.6481,-69.9137 L 21.4526,-69.9887 L 21.2504,-70.0429
 L 21.0437,-70.0756 L 20.8346,-70.0866 L 20.6255,-70.0756 L 20.4188,-70.0429 L 20.2166,-69.9887 L 20.0211,-69.9137
 L 19.8346,-69.8186 L 19.659,-69.7046 L 19.4963,-69.5729 L 19.3483,-69.4249 L 19.2166,-69.2622 L 19.1025,-69.0865
 L 19.0025,-68.9133 L 18.9075,-68.7268 L 18.8325,-68.5314 L 18.7783,-68.3291 L 18.7456,-68.1224 L 18.7346,-67.9133
 L 18.7456,-67.7043 L 18.7783,-67.4975 L 18.8325,-67.2953 L 18.9075,-67.0999 L 19.0026,-66.9133 L 19.1166,-66.7378
 L 19.2484,-66.5751 L 19.3964,-66.4271 L 19.5591,-66.2953 L 19.7346,-66.1813 L 23.1987,-64.1813 L 23.3852,-64.0863
 L 23.5807,-64.0113 L 23.7829,-63.9571 L 23.9897,-63.9243 L 24.1987,-63.9134 z
M -23.9897,-63.9243 L -23.783,-63.9571 L -23.5807,-64.0113 L -23.3853,-64.0863 L -23.1987,-64.1813 L -19.7346,-66.1813
 L -19.559,-66.2953 L -19.3963,-66.4271 L -19.2483,-66.5751 L -19.1166,-66.7378 L -19.0025,-66.9134 L -18.9075,-67.0999
 L -18.8325,-67.2953 L -18.7783,-67.4976 L -18.7456,-67.7043 L -18.7346,-67.9134 L -18.7456,-68.1225 L -18.7783,-68.3292
 L -18.8325,-68.5314 L -18.9075,-68.7269 L -19.0025,-68.9133 L -19.1025,-69.0865 L -19.2165,-69.2621 L -19.3483,-69.4248
 L -19.4963,-69.5728 L -19.659,-69.7046 L -19.8345,-69.8186 L -20.0211,-69.9137 L -20.2165,-69.9887 L -20.4187,-70.0429
 L -20.6255,-70.0756 L -20.8345,-70.0866 L -21.0436,-70.0756 L -21.2504,-70.0429 L -21.4526,-69.9887 L -21.648,-69.9137
 L -21.8346,-69.8186 L -25.2987,-67.8186 L -25.4743,-67.7046 L -25.637,-67.5729 L -25.785,-67.4249 L -25.9167,-67.2622
 L -26.0308,-67.0866 L -26.1258,-66.9001 L -26.2008,-66.7046 L -26.255,-66.5024 L -26.2878,-66.2957 L -26.2987,-66.0866
 L -26.2878,-65.8775 L -26.255,-65.6708 L -26.2008,-65.4686 L -26.1258,-65.2731 L -26.0308,-65.0867 L -25.9308,-64.9135
 L -25.8168,-64.7379 L -25.685,-64.5752 L -25.537,-64.4271 L -25.3743,-64.2954 L -25.1988,-64.1814 L -25.0123,-64.0863
 L -24.8168,-64.0113 L -24.6146,-63.9571 L -24.4078,-63.9243 L -24.1988,-63.9134 z
M -34.332,-54.011 L -34.1252,-54.0437 L -33.923,-54.0979 L -33.7275,-54.1729 L -33.541,-54.2679 L -33.3654,-54.382
 L -33.2028,-54.5137 L -33.0547,-54.6617 L -32.923,-54.8244 L -32.809,-55 L -32.7139,-55.1865 L -32.6389,-55.382
 L -32.5847,-55.5842 L -32.552,-55.7909 L -32.541,-56 L -32.541,-56.3627 L -32.2269,-56.1813 L -32.0404,-56.0863
 L -31.8449,-56.0113 L -31.6427,-55.9571 L -31.436,-55.9243 L -31.2269,-55.9134 L -31.0178,-55.9243 L -30.8111,-55.9571
 L -30.6089,-56.0113 L -30.4134,-56.0863 L -30.2269,-56.1813 L -30.0513,-56.2954 L -29.8886,-56.4271 L -29.7406,-56.5751
 L -29.6089,-56.7378 L -29.4948,-56.9135 L -29.3948,-57.0867 L -29.2998,-57.2732 L -29.2248,-57.4686 L -29.1706,-57.6708
 L -29.1379,-57.8776 L -29.1269,-58.0867 L -29.1379,-58.2957 L -29.1706,-58.5025 L -29.2248,-58.7047 L -29.2999,-58.9001
 L -29.3949,-59.0867 L -29.5089,-59.2622 L -29.6407,-59.4249 L -29.7887,-59.5729 L -29.9514,-59.7047 L -30.1269,-59.8186
 L -30.441,-60 L -30.1269,-60.1813 L -29.9513,-60.2953 L -29.7887,-60.4271 L -29.6406,-60.5751 L -29.5089,-60.7378
 L -29.3949,-60.9134 L -29.2998,-61.0999 L -29.2248,-61.2953 L -29.1706,-61.4976 L -29.1379,-61.7043 L -29.1269,-61.9134
 L -29.1379,-62.1224 L -29.1706,-62.3292 L -29.2248,-62.5314 L -29.2998,-62.7269 L -29.3948,-62.9133 L -29.4948,-63.0865
 L -29.6088,-63.2621 L -29.7406,-63.4248 L -29.8886,-63.5728 L -30.0513,-63.7046 L -30.2268,-63.8186 L -30.4134,-63.9137
 L -30.6088,-63.9887 L -30.811,-64.0429 L -31.0178,-64.0756 L -31.2268,-64.0866 L -31.4359,-64.0756 L -31.6427,-64.0429
 L -31.8449,-63.9887 L -32.0403,-63.9137 L -32.2269,-63.8186 L -35.338,-62.0224 L -35.4911,-61.9637 L -35.6776,-61.8686
 L -35.7083,-61.8487 L -35.741,-61.832 L -35.9166,-61.718 L -36.0793,-61.5863 L -36.2273,-61.4382 L -36.359,-61.2756
 L -36.4731,-61.1 L -36.4897,-61.0673 L -36.5096,-61.0366 L -36.6047,-60.8501 L -36.6797,-60.6547 L -36.7339,-60.4525
 L -36.7666,-60.2457 L -36.7776,-60.0366 L -36.7757,-60 L -36.7776,-59.9633 L -36.7666,-59.7543 L -36.741,-59.5924
 L -36.741,-56 L -36.73,-55.7909 L -36.6973,-55.5842 L -36.6431,-55.382 L -36.5681,-55.1865 L -36.4731,-55
 L -36.359,-54.8244 L -36.2273,-54.6617 L -36.0793,-54.5137 L -35.9166,-54.382 L -35.741,-54.2679 L -35.5545,-54.1729
 L -35.359,-54.0979 L -35.1568,-54.0437 L -34.9501,-54.011 L -34.741,-54 L -34.541,-54 z
M 34.9501,-54.011 L 35.1568,-54.0437 L 35.359,-54.0979 L 35.5545,-54.1729 L 35.741,-54.2679 L 35.9166,-54.382
 L 36.0793,-54.5137 L 36.2273,-54.6617 L 36.359,-54.8244 L 36.4731,-55 L 36.5681,-55.1865 L 36.6431,-55.382
 L 36.6973,-55.5842 L 36.73,-55.7909 L 36.741,-56 L 36.741,-59.5924 L 36.7666,-59.7543 L 36.7776,-59.9633
 L 36.7757,-59.9999 L 36.7776,-60.0363 L 36.7667,-60.2453 L 36.734,-60.4521 L 36.6798,-60.6543 L 36.6048,-60.8498
 L 36.5098,-61.0363 L 36.4897,-61.0672 L 36.4731,-61.1 L 36.359,-61.2756 L 36.2273,-61.4382 L 36.0793,-61.5863
 L 35.9166,-61.718 L 35.741,-61.832 L 35.7082,-61.8488 L 35.6773,-61.8688 L 35.4908,-61.9638 L 35.3381,-62.0224
 L 32.2269,-63.8186 L 32.0404,-63.9137 L 31.8449,-63.9887 L 31.6427,-64.0429 L 31.436,-64.0756 L 31.2269,-64.0866
 L 31.0179,-64.0756 L 30.8111,-64.0429 L 30.6089,-63.9887 L 30.4134,-63.9137 L 30.2269,-63.8186 L 30.0513,-63.7046
 L 29.8886,-63.5729 L 29.7406,-63.4249 L 29.6089,-63.2622 L 29.4948,-63.0865 L 29.3948,-62.9133 L 29.2998,-62.7268
 L 29.2248,-62.5314 L 29.1706,-62.3291 L 29.1379,-62.1224 L 29.1269,-61.9133 L 29.1379,-61.7043 L 29.1706,-61.4975
 L 29.2248,-61.2953 L 29.2999,-61.0999 L 29.3949,-60.9133 L 29.5089,-60.7378 L 29.6407,-60.5751 L 29.7887,-60.4271
 L 29.9514,-60.2953 L 30.1269,-60.1813 L 30.441,-60 L 30.1269,-59.8186 L 29.9513,-59.7046 L 29.7887,-59.5729
 L 29.6406,-59.4249 L 29.5089,-59.2622 L 29.3949,-59.0866 L 29.2998,-58.9001 L 29.2248,-58.7046 L 29.1706,-58.5024
 L 29.1379,-58.2957 L 29.1269,-58.0866 L 29.1379,-57.8775 L 29.1706,-57.6708 L 29.2248,-57.4686 L 29.2998,-57.2731
 L 29.3948,-57.0867 L 29.4948,-56.9135 L 29.6088,-56.7379 L 29.7406,-56.5752 L 29.8886,-56.4271 L 30.0513,-56.2954
 L 30.2268,-56.1814 L 30.4134,-56.0863 L 30.6088,-56.0113 L 30.811,-55.9571 L 31.0178,-55.9243 L 31.2268,-55.9134
 L 31.4359,-55.9243 L 31.6427,-55.9571 L 31.8449,-56.0113 L 32.0403,-56.0863 L 32.2269,-56.1813 L 32.541,-56.3627
 L 32.541,-56 L 32.552,-55.7909 L 32.5847,-55.5842 L 32.6389,-55.382 L 32.7139,-55.1865 L 32.809,-55
 L 32.923,-54.8244 L 33.0547,-54.6617 L 33.2028,-54.5137 L 33.3654,-54.382 L 33.541,-54.2679 L 33.7275,-54.1729
 L 33.923,-54.0979 L 34.1252,-54.0437 L 34.332,-54.011 L 34.541,-54 L 34.741,-54 z
M -20.6255,-49.9243 L -20.4188,-49.9571 L -20.2166,-50.0113 L -20.0211,-50.0863 L -19.8346,-50.1813 L -19.659,-50.2954
 L -19.4963,-50.4271 L -19.3483,-50.5751 L -19.2166,-50.7378 L -19.1025,-50.9135 L -19.0025,-51.0867 L -18.9075,-51.2732
 L -18.8325,-51.4686 L -18.7783,-51.6708 L -18.7456,-51.8776 L -18.7346,-52.0867 L -18.7456,-52.2957 L -18.7783,-52.5025
 L -18.8325,-52.7047 L -18.9075,-52.9001 L -19.0026,-53.0867 L -19.1166,-53.2622 L -19.2484,-53.4249 L -19.3964,-53.5729
 L -19.5591,-53.7047 L -19.7346,-53.8186 L -23.1987,-55.8186 L -23.3852,-55.9137 L -23.5807,-55.9887 L -23.7829,-56.0429
 L -23.9897,-56.0756 L -24.1987,-56.0866 L -24.4078,-56.0756 L -24.6145,-56.0429 L -24.8168,-55.9887 L -25.0122,-55.9137
 L -25.1987,-55.8186 L -25.3743,-55.7046 L -25.537,-55.5729 L -25.685,-55.4249 L -25.8168,-55.2622 L -25.9308,-55.0865
 L -26.0308,-54.9133 L -26.1258,-54.7268 L -26.2008,-54.5314 L -26.255,-54.3291 L -26.2878,-54.1224 L -26.2987,-53.9133
 L -26.2878,-53.7043 L -26.255,-53.4975 L -26.2008,-53.2953 L -26.1258,-53.0999 L -26.0307,-52.9133 L -25.9167,-52.7378
 L -25.785,-52.5751 L -25.6369,-52.4271 L -25.4742,-52.2953 L -25.2987,-52.1813 L -21.8346,-50.1813 L -21.6481,-50.0863
 L -21.4526,-50.0113 L -21.2504,-49.9571 L -21.0437,-49.9243 L -20.8346,-49.9134 z
M 21.0436,-49.9243 L 21.2504,-49.9571 L 21.4526,-50.0113 L 21.648,-50.0863 L 21.8346,-50.1813 L 25.2987,-52.1813
 L 25.4743,-52.2953 L 25.637,-52.4271 L 25.785,-52.5751 L 25.9167,-52.7378 L 26.0308,-52.9134 L 26.1258,-53.0999
 L 26.2008,-53.2953 L 26.255,-53.4976 L 26.2878,-53.7043 L 26.2987,-53.9134 L 26.2878,-54.1225 L 26.255,-54.3292
 L 26.2008,-54.5314 L 26.1258,-54.7269 L 26.0308,-54.9133 L 25.9308,-55.0865 L 25.8168,-55.2621 L 25.685,-55.4248
 L 25.537,-55.5728 L 25.3743,-55.7046 L 25.1988,-55.8186 L 25.0123,-55.9137 L 24.8168,-55.9887 L 24.6146,-56.0429
 L 24.4078,-56.0756 L 24.1988,-56.0866 L 23.9897,-56.0756 L 23.783,-56.0429 L 23.5807,-55.9887 L 23.3853,-55.9137
 L 23.1987,-55.8186 L 19.7346,-53.8186 L 19.559,-53.7046 L 19.3963,-53.5729 L 19.2483,-53.4249 L 19.1166,-53.2622
 L 19.0025,-53.0866 L 18.9075,-52.9001 L 18.8325,-52.7046 L 18.7783,-52.5024 L 18.7456,-52.2957 L 18.7346,-52.0866
 L 18.7456,-51.8775 L 18.7783,-51.6708 L 18.8325,-51.4686 L 18.9075,-51.2731 L 19.0025,-51.0867 L 19.1025,-50.9135
 L 19.2165,-50.7379 L 19.3483,-50.5752 L 19.4963,-50.4271 L 19.659,-50.2954 L 19.8345,-50.1814 L 20.0211,-50.0863
 L 20.2165,-50.0113 L 20.4187,-49.9571 L 20.6255,-49.9243 L 20.8345,-49.9134 z
M 10.6513,-43.9243 L 10.858,-43.9571 L 11.0603,-44.0113 L 11.2557,-44.0863 L 11.4423,-44.1813 L 14.9064,-46.1813
 L 15.082,-46.2954 L 15.2446,-46.4271 L 15.3927,-46.5751 L 15.5244,-46.7378 L 15.6384,-46.9134 L 15.7335,-47.0999
 L 15.8085,-47.2954 L 15.8627,-47.4976 L 15.8954,-47.7043 L 15.9064,-47.9134 L 15.8954,-48.1225 L 15.8627,-48.3292
 L 15.8085,-48.5314 L 15.7335,-48.7269 L 15.6385,-48.9133 L 15.5385,-49.0865 L 15.4245,-49.2621 L 15.2927,-49.4248
 L 15.1447,-49.5728 L 14.982,-49.7046 L 14.8065,-49.8186 L 14.6199,-49.9137 L 14.4245,-49.9887 L 14.2223,-50.0429
 L 14.0155,-50.0756 L 13.8065,-50.0866 L 13.5974,-50.0756 L 13.3906,-50.0429 L 13.1884,-49.9887 L 12.993,-49.9137
 L 12.8064,-49.8186 L 9.3423,-47.8186 L 9.16673,-47.7046 L 9.00404,-47.5729 L 8.856,-47.4249 L 8.72426,-47.2622
 L 8.61024,-47.0866 L 8.51521,-46.9001 L 8.44019,-46.7046 L 8.386,-46.5024 L 8.35326,-46.2957 L 8.3423,-46.0866
 L 8.35326,-45.8775 L 8.386,-45.6708 L 8.44019,-45.4686 L 8.51521,-45.2731 L 8.61021,-45.0867 L 8.71021,-44.9135
 L 8.82422,-44.7379 L 8.95596,-44.5752 L 9.10397,-44.4271 L 9.26666,-44.2954 L 9.44223,-44.1814 L 9.62875,-44.0863
 L 9.82419,-44.0113 L 10.0264,-43.9571 L 10.2332,-43.9243 L 10.4422,-43.9134 z
M -10.2332,-43.9243 L -10.0265,-43.9571 L -9.82426,-44.0113 L -9.62881,-44.0863 L -9.44229,-44.1813 L -9.26672,-44.2953
 L -9.10403,-44.4271 L -8.95601,-44.5751 L -8.82426,-44.7378 L -8.71021,-44.9135 L -8.61021,-45.0867 L -8.51518,-45.2732
 L -8.44017,-45.4686 L -8.38599,-45.6708 L -8.35326,-45.8776 L -8.3423,-46.0867 L -8.35326,-46.2957 L -8.38602,-46.5025
 L -8.4402,-46.7047 L -8.51524,-46.9001 L -8.61028,-47.0867 L -8.7243,-47.2622 L -8.85605,-47.4249 L -9.00409,-47.5729
 L -9.16678,-47.7047 L -9.3423,-47.8186 L -12.8064,-49.8186 L -12.9929,-49.9137 L -13.1884,-49.9887 L -13.3906,-50.0429
 L -13.5973,-50.0756 L -13.8064,-50.0866 L -14.0155,-50.0756 L -14.2222,-50.0429 L -14.4244,-49.9887 L -14.6199,-49.9137
 L -14.8064,-49.8186 L -14.982,-49.7046 L -15.1447,-49.5729 L -15.2927,-49.4249 L -15.4244,-49.2622 L -15.5385,-49.0865
 L -15.6385,-48.9133 L -15.7335,-48.7268 L -15.8085,-48.5314 L -15.8627,-48.3291 L -15.8954,-48.1224 L -15.9064,-47.9133
 L -15.8954,-47.7043 L -15.8627,-47.4975 L -15.8085,-47.2953 L -15.7334,-47.0999 L -15.6384,-46.9133 L -15.5244,-46.7378
 L -15.3926,-46.5751 L -15.2446,-46.4271 L -15.0819,-46.2953 L -14.9064,-46.1813 L -11.4423,-44.1813 L -11.2558,-44.0863
 L -11.0603,-44.0113 L -10.8581,-43.9571 L -10.6514,-43.9243 L -10.4423,-43.9134 z
M -34.332,-42.011 L -34.1252,-42.0437 L -33.923,-42.0979 L -33.7275,-42.1729 L -33.541,-42.2679 L -33.3654,-42.382
 L -33.2028,-42.5137 L -33.0547,-42.6617 L -32.923,-42.8244 L -32.809,-43 L -32.7139,-43.1865 L -32.6389,-43.382
 L -32.5847,-43.5842 L -32.552,-43.7909 L -32.541,-44 L -32.541,-48 L -32.552,-48.2091 L -32.5847,-48.4158
 L -32.6389,-48.618 L -32.7139,-48.8135 L -32.809,-49 L -32.923,-49.1756 L -33.0547,-49.3383 L -33.2028,-49.4863
 L -33.3654,-49.618 L -33.541,-49.7321 L -33.7275,-49.8271 L -33.923,-49.9021 L -34.1252,-49.9563 L -34.332,-49.989
 L -34.541,-50 L -34.741,-50 L -34.9501,-49.989 L -35.1568,-49.9563 L -35.359,-49.9021 L -35.5545,-49.8271
 L -35.741,-49.7321 L -35.9166,-49.618 L -36.0793,-49.4863 L -36.2273,-49.3383 L -36.359,-49.1756 L -36.4731,-49
 L -36.5681,-48.8135 L -36.6431,-48.618 L -36.6973,-48.4158 L -36.73,-48.2091 L -36.741,-48 L -36.741,-44
 L -36.73,-43.7909 L -36.6973,-43.5842 L -36.6431,-43.382 L -36.5681,-43.1865 L -36.4731,-43 L -36.359,-42.8244
 L -36.2273,-42.6617 L -36.0793,-42.5137 L -35.9166,-42.382 L -35.741,-42.2679 L -35.5545,-42.1729 L -35.359,-42.0979
 L -35.1568,-42.0437 L -34.9501,-42.011 L -34.741,-42 L -34.541,-42 z
M 34.9501,-42.011 L 35.1568,-42.0437 L 35.359,-42.0979 L 35.5545,-42.1729 L 35.741,-42.2679 L 35.9166,-42.382
 L 36.0793,-42.5137 L 36.2273,-42.6617 L 36.359,-42.8244 L 36.4731,-43 L 36.5681,-43.1865 L 36.6431,-43.382
 L 36.6973,-43.5842 L 36.73,-43.7909 L 36.741,-44 L 36.741,-48 L 36.73,-48.2091 L 36.6973,-48.4158
 L 36.6431,-48.618 L 36.5681,-48.8135 L 36.4731,-49 L 36.359,-49.1756 L 36.2273,-49.3383 L 36.0793,-49.4863
 L 35.9166,-49.618 L 35.741,-49.7321 L 35.5545,-49.8271 L 35.359,-49.9021 L 35.1568,-49.9563 L 34.9501,-49.989
 L 34.741,-50 L 34.541,-50 L 34.332,-49.989 L 34.1252,-49.9563 L 33.923,-49.9021 L 33.7275,-49.8271
 L 33.541,-49.7321 L 33.3654,-49.618 L 33.2028,-49.4863 L 33.0547,-49.3383 L 32.923,-49.1756 L 32.809,-49
 L 32.7139,-48.8135 L 32.6389,-48.618 L 32.5847,-48.4158 L 32.552,-48.2091 L 32.541,-48 L 32.541,-44
 L 32.552,-43.7909 L 32.5847,-43.5842 L 32.6389,-43.382 L 32.7139,-43.1865 L 32.809,-43 L 32.923,-42.8244
 L 33.0547,-42.6617 L 33.2028,-42.5137 L 33.3654,-42.382 L 33.541,-42.2679 L 33.7275,-42.1729 L 33.923,-42.0979
 L 34.1252,-42.0437 L 34.332,-42.011 L 34.541,-42 L 34.741,-42 z
M 0.309052,-34.011 L 0.515808,-34.0437 L 0.718018,-34.0979 L 0.913467,-34.1729 L 1.09999,-34.2679 L 1.27556,-34.382
 L 1.43825,-34.5137 L 1.58627,-34.6617 L 1.71802,-34.8244 L 1.83205,-35 L 1.92708,-35.1865 L 2.00211,-35.382
 L 2.05629,-35.5842 L 2.08904,-35.7909 L 2.09999,-36 L 2.09999,-38.7876 L 4.51408,-40.1813 L 4.68965,-40.2954
 L 4.85234,-40.4271 L 5.00038,-40.5751 L 5.13213,-40.7378 L 5.24614,-40.9134 L 5.34117,-41.0999 L 5.4162,-41.2954
 L 5.47038,-41.4976 L 5.50313,-41.7043 L 5.51408,-41.9134 L 5.50313,-42.1225 L 5.47038,-42.3292 L 5.4162,-42.5314
 L 5.34117,-42.7269 L 5.24617,-42.9133 L 5.14618,-43.0865 L 5.03217,-43.2621 L 4.90042,-43.4248 L 4.75241,-43.5728
 L 4.58972,-43.7046 L 4.41415,-43.8186 L 4.22763,-43.9137 L 4.0322,-43.9887 L 3.82999,-44.0429 L 3.62321,-44.0756
 L 3.41415,-44.0866 L 3.20511,-44.0756 L 2.99834,-44.0429 L 2.79613,-43.9887 L 2.60068,-43.9137 L 2.41409,-43.8186
 L 0,-42.4249 L -2.41409,-43.8186 L -2.60062,-43.9137 L -2.79605,-43.9887 L -2.99826,-44.0429 L -3.20503,-44.0756
 L -3.41408,-44.0866 L -3.62314,-44.0756 L -3.82991,-44.0429 L -4.03212,-43.9887 L -4.22755,-43.9137 L -4.41409,-43.8186
 L -4.58966,-43.7046 L -4.75235,-43.5729 L -4.90038,-43.4249 L -5.03212,-43.2622 L -5.14618,-43.0865 L -5.24617,-42.9133
 L -5.3412,-42.7268 L -5.41621,-42.5314 L -5.4704,-42.3291 L -5.50313,-42.1224 L -5.51408,-41.9133 L -5.50313,-41.7043
 L -5.47037,-41.4975 L -5.41618,-41.2953 L -5.34114,-41.0999 L -5.24611,-40.9133 L -5.13208,-40.7378 L -5.00034,-40.5751
 L -4.85229,-40.4271 L -4.68961,-40.2953 L -4.51408,-40.1813 L -2.09999,-38.7876 L -2.09999,-36 L -2.08904,-35.7909
 L -2.05629,-35.5842 L -2.00211,-35.382 L -1.92708,-35.1865 L -1.83205,-35 L -1.71802,-34.8244 L -1.58627,-34.6617
 L -1.43825,-34.5137 L -1.27556,-34.382 L -1.09999,-34.2679 L -0.913467,-34.1729 L -0.718018,-34.0979 L -0.515808,-34.0437
 L -0.309052,-34.011 L -0.0999908,-34 L 0.0999908,-34 z
M 34.9501,-30.011 L 35.1568,-30.0437 L 35.359,-30.0979 L 35.5545,-30.1729 L 35.741,-30.2679 L 35.9166,-30.382
 L 36.0793,-30.5137 L 36.2273,-30.6617 L 36.359,-30.8244 L 36.4731,-31 L 36.5681,-31.1865 L 36.6431,-31.382
 L 36.6973,-31.5842 L 36.73,-31.7909 L 36.741,-32 L 36.741,-36 L 36.73,-36.2091 L 36.6973,-36.4158
 L 36.6431,-36.618 L 36.5681,-36.8135 L 36.4731,-37 L 36.359,-37.1756 L 36.2273,-37.3383 L 36.0793,-37.4863
 L 35.9166,-37.618 L 35.741,-37.7321 L 35.5545,-37.8271 L 35.359,-37.9021 L 35.1568,-37.9563 L 34.9501,-37.989
 L 34.741,-38 L 34.541,-38 L 34.332,-37.989 L 34.1252,-37.9563 L 33.923,-37.9021 L 33.7275,-37.8271
 L 33.541,-37.7321 L 33.3654,-37.618 L 33.2028,-37.4863 L 33.0547,-37.3383 L 32.923,-37.1756 L 32.809,-37
 L 32.7139,-36.8135 L 32.6389,-36.618 L 32.5847,-36.4158 L 32.552,-36.2091 L 32.541,-36 L 32.541,-32
 L 32.552,-31.7909 L 32.5847,-31.5842 L 32.6389,-31.382 L 32.7139,-31.1865 L 32.809,-31 L 32.923,-30.8244
 L 33.0547,-30.6617 L 33.2028,-30.5137 L 33.3654,-30.382 L 33.541,-30.2679 L 33.7275,-30.1729 L 33.923,-30.0979
 L 34.1252,-30.0437 L 34.332,-30.011 L 34.541,-30 L 34.741,-30 z
M -34.332,-30.011 L -34.1252,-30.0437 L -33.923,-30.0979 L -33.7275,-30.1729 L -33.541,-30.2679 L -33.3654,-30.382
 L -33.2028,-30.5137 L -33.0547,-30.6617 L -32.923,-30.8244 L -32.809,-31 L -32.7139,-31.1865 L -32.6389,-31.382
 L -32.5847,-31.5842 L -32.552,-31.7909 L -32.541,-32 L -32.541,-36 L -32.552,-36.2091 L -32.5847,-36.4158
 L -32.6389,-36.618 L -32.7139,-36.8135 L -32.809,-37 L -32.923,-37.1756 L -33.0547,-37.3383 L -33.2028,-37.4863
 L -33.3654,-37.618 L -33.541,-37.7321 L -33.7275,-37.8271 L -33.923,-37.9021 L -34.1252,-37.9563 L -34.332,-37.989
 L -34.541,-38 L -34.741,-38 L -34.9501,-37.989 L -35.1568,-37.9563 L -35.359,-37.9021 L -35.5545,-37.8271
 L -35.741,-37.7321 L -35.9166,-37.618 L -36.0793,-37.4863 L -36.2273,-37.3383 L -36.359,-37.1756 L -36.4731,-37
 L -36.5681,-36.8135 L -36.6431,-36.618 L -36.6973,-36.4158 L -36.73,-36.2091 L -36.741,-36 L -36.741,-32
 L -36.73,-31.7909 L -36.6973,-31.5842 L -36.6431,-31.382 L -36.5681,-31.1865 L -36.4731,-31 L -36.359,-30.8244
 L -36.2273,-30.6617 L -36.0793,-30.5137 L -35.9166,-30.382 L -35.741,-30.2679 L -35.5545,-30.1729 L -35.359,-30.0979
 L -35.1568,-30.0437 L -34.9501,-30.011 L -34.741,-30 L -34.541,-30 z
M 0.309052,-22.011 L 0.515808,-22.0437 L 0.718018,-22.0979 L 0.913467,-22.1729 L 1.09999,-22.2679 L 1.27556,-22.382
 L 1.43825,-22.5137 L 1.58627,-22.6617 L 1.71802,-22.8244 L 1.83205,-23 L 1.92708,-23.1865 L 2.00211,-23.382
 L 2.05629,-23.5842 L 2.08904,-23.7909 L 2.09999,-24 L 2.09999,-28 L 2.08904,-28.2091 L 2.05629,-28.4158
 L 2.00211,-28.618 L 1.92708,-28.8135 L 1.83205,-29 L 1.71802,-29.1756 L 1.58627,-29.3383 L 1.43825,-29.4863
 L 1.27556,-29.618 L 1.09999,-29.7321 L 0.913467,-29.8271 L 0.718018,-29.9021 L 0.515808,-29.9563 L 0.309052,-29.989
 L 0.0999908,-30 L -0.0999908,-30 L -0.309052,-29.989 L -0.515808,-29.9563 L -0.718018,-29.9021 L -0.913467,-29.8271
 L -1.09999,-29.7321 L -1.27556,-29.618 L -1.43825,-29.4863 L -1.58627,-29.3383 L -1.71802,-29.1756 L -1.83205,-29
 L -1.92708,-28.8135 L -2.00211,-28.618 L -2.05629,-28.4158 L -2.08904,-28.2091 L -2.09999,-28 L -2.09999,-24
 L -2.08904,-23.7909 L -2.05629,-23.5842 L -2.00211,-23.382 L -1.92708,-23.1865 L -1.83205,-23 L -1.71802,-22.8244
 L -1.58627,-22.6617 L -1.43825,-22.5137 L -1.27556,-22.382 L -1.09999,-22.2679 L -0.913467,-22.1729 L -0.718018,-22.0979
 L -0.515808,-22.0437 L -0.309052,-22.011 L -0.0999908,-22 L 0.0999908,-22 z
M -31.0178,-15.9243 L -30.8111,-15.9571 L -30.6089,-16.0113 L -30.4134,-16.0863 L -30.2269,-16.1813 L -30.0513,-16.2953
 L -29.8886,-16.4271 L -29.7406,-16.5751 L -29.6089,-16.7378 L -29.4948,-16.9135 L -29.3948,-17.0867 L -29.2998,-17.2732
 L -29.2248,-17.4686 L -29.1706,-17.6708 L -29.1379,-17.8776 L -29.1269,-18.0867 L -29.1379,-18.2957 L -29.1706,-18.5025
 L -29.2248,-18.7047 L -29.2999,-18.9001 L -29.3949,-19.0867 L -29.5089,-19.2622 L -29.6407,-19.4249 L -29.7887,-19.5729
 L -29.9514,-19.7047 L -30.1269,-19.8186 L -32.541,-21.2124 L -32.541,-24 L -32.552,-24.2091 L -32.5847,-24.4158
 L -32.6389,-24.618 L -32.7139,-24.8135 L -32.809,-25 L -32.923,-25.1756 L -33.0547,-25.3383 L -33.2028,-25.4863
 L -33.3654,-25.618 L -33.541,-25.7321 L -33.7275,-25.8271 L -33.923,-25.9021 L -34.1252,-25.9563 L -34.332,-25.989
 L -34.541,-26 L -34.741,-26 L -34.9501,-25.989 L -35.1568,-25.9563 L -35.359,-25.9021 L -35.5545,-25.8271
 L -35.741,-25.7321 L -35.9166,-25.618 L -36.0793,-25.4863 L -36.2273,-25.3383 L -36.359,-25.1756 L -36.4731,-25
 L -36.5681,-24.8135 L -36.6431,-24.618 L -36.6973,-24.4158 L -36.73,-24.2091 L -36.741,-24 L -36.741,-20.3344
 L -36.7666,-20.1725 L -36.7776,-19.9634 L -36.7666,-19.7544 L -36.7339,-19.5476 L -36.6797,-19.3454 L -36.6047,-19.15
 L -36.5097,-18.9634 L -36.4897,-18.9326 L -36.4731,-18.9 L -36.359,-18.7244 L -36.2273,-18.5618 L -36.0793,-18.4137
 L -35.9166,-18.282 L -35.741,-18.168 L -35.5545,-18.0729 L -35.4015,-18.0142 L -32.2269,-16.1813 L -32.0404,-16.0863
 L -31.8449,-16.0113 L -31.6427,-15.9571 L -31.436,-15.9243 L -31.2269,-15.9134 z
M 31.4359,-15.9243 L 31.6427,-15.9571 L 31.8449,-16.0113 L 32.0403,-16.0863 L 32.2269,-16.1813 L 35.4015,-18.0142
 L 35.5545,-18.0729 L 35.741,-18.168 L 35.9166,-18.282 L 36.0793,-18.4137 L 36.2273,-18.5618 L 36.359,-18.7244
 L 36.4731,-18.9 L 36.4897,-18.9326 L 36.5096,-18.9634 L 36.6047,-19.1499 L 36.6797,-19.3453 L 36.7339,-19.5475
 L 36.7666,-19.7543 L 36.7776,-19.9633 L 36.7666,-20.1724 L 36.741,-20.3344 L 36.741,-24 L 36.73,-24.2091
 L 36.6973,-24.4158 L 36.6431,-24.618 L 36.5681,-24.8135 L 36.4731,-25 L 36.359,-25.1756 L 36.2273,-25.3383
 L 36.0793,-25.4863 L 35.9166,-25.618 L 35.741,-25.7321 L 35.5545,-25.8271 L 35.359,-25.9021 L 35.1568,-25.9563
 L 34.9501,-25.989 L 34.741,-26 L 34.541,-26 L 34.332,-25.989 L 34.1252,-25.9563 L 33.923,-25.9021
 L 33.7275,-25.8271 L 33.541,-25.7321 L 33.3654,-25.618 L 33.2028,-25.4863 L 33.0547,-25.3383 L 32.923,-25.1756
 L 32.809,-25 L 32.7139,-24.8135 L 32.6389,-24.618 L 32.5847,-24.4158 L 32.552,-24.2091 L 32.541,-24
 L 32.541,-21.2124 L 30.1269,-19.8186 L 29.9513,-19.7046 L 29.7887,-19.5729 L 29.6406,-19.4249 L 29.5089,-19.2622
 L 29.3949,-19.0866 L 29.2998,-18.9001 L 29.2248,-18.7046 L 29.1706,-18.5024 L 29.1379,-18.2957 L 29.1269,-18.0866
 L 29.1379,-17.8775 L 29.1706,-17.6708 L 29.2248,-17.4686 L 29.2998,-17.2731 L 29.3948,-17.0867 L 29.4948,-16.9135
 L 29.6088,-16.7379 L 29.7406,-16.5752 L 29.8886,-16.4271 L 30.0513,-16.2954 L 30.2268,-16.1814 L 30.4134,-16.0863
 L 30.6088,-16.0113 L 30.811,-15.9571 L 31.0178,-15.9243 L 31.2268,-15.9134 z
M 0,-4 L -9,-19 L -18,-19 L -9,-4 L -18,11 L -9,11
 z
M 18,-4 L 9,-19 L 0,-19 L 9,-4 L 0,11 L 9,11
 z
M -20.6255,-9.92435 L -20.4188,-9.95709 L -20.2166,-10.0113 L -20.0211,-10.0863 L -19.8346,-10.1813 L -19.659,-10.2954
 L -19.4963,-10.4271 L -19.3483,-10.5751 L -19.2166,-10.7378 L -19.1025,-10.9135 L -19.0025,-11.0867 L -18.9075,-11.2732
 L -18.8325,-11.4686 L -18.7783,-11.6708 L -18.7456,-11.8776 L -18.7346,-12.0867 L -18.7456,-12.2957 L -18.7783,-12.5025
 L -18.8325,-12.7047 L -18.9075,-12.9001 L -19.0026,-13.0867 L -19.1166,-13.2622 L -19.2484,-13.4249 L -19.3964,-13.5729
 L -19.5591,-13.7047 L -19.7346,-13.8186 L -23.1987,-15.8186 L -23.3852,-15.9137 L -23.5807,-15.9887 L -23.7829,-16.0429
 L -23.9897,-16.0756 L -24.1987,-16.0866 L -24.4078,-16.0756 L -24.6145,-16.0429 L -24.8168,-15.9887 L -25.0122,-15.9137
 L -25.1987,-15.8186 L -25.3743,-15.7046 L -25.537,-15.5729 L -25.685,-15.4249 L -25.8168,-15.2622 L -25.9308,-15.0865
 L -26.0308,-14.9133 L -26.1258,-14.7268 L -26.2008,-14.5314 L -26.255,-14.3291 L -26.2878,-14.1224 L -26.2987,-13.9133
 L -26.2878,-13.7043 L -26.255,-13.4975 L -26.2008,-13.2953 L -26.1258,-13.0999 L -26.0307,-12.9133 L -25.9167,-12.7378
 L -25.785,-12.5751 L -25.6369,-12.4271 L -25.4742,-12.2953 L -25.2987,-12.1813 L -21.8346,-10.1813 L -21.6481,-10.0863
 L -21.4526,-10.0113 L -21.2504,-9.95709 L -21.0437,-9.92435 L -20.8346,-9.91339 z
M 21.0436,-9.92435 L 21.2504,-9.95708 L 21.4526,-10.0113 L 21.648,-10.0863 L 21.8346,-10.1813 L 25.2987,-12.1813
 L 25.4743,-12.2953 L 25.637,-12.4271 L 25.785,-12.5751 L 25.9167,-12.7378 L 26.0308,-12.9134 L 26.1258,-13.0999
 L 26.2008,-13.2953 L 26.255,-13.4976 L 26.2878,-13.7043 L 26.2987,-13.9134 L 26.2878,-14.1225 L 26.255,-14.3292
 L 26.2008,-14.5314 L 26.1258,-14.7269 L 26.0308,-14.9133 L 25.9308,-15.0865 L 25.8168,-15.2621 L 25.685,-15.4248
 L 25.537,-15.5728 L 25.3743,-15.7046 L 25.1988,-15.8186 L 25.0123,-15.9137 L 24.8168,-15.9887 L 24.6146,-16.0429
 L 24.4078,-16.0756 L 24.1988,-16.0866 L 23.9897,-16.0756 L 23.783,-16.0429 L 23.5807,-15.9887 L 23.3853,-15.9137
 L 23.1987,-15.8186 L 19.7346,-13.8186 L 19.559,-13.7046 L 19.3963,-13.5729 L 19.2483,-13.4249 L 19.1166,-13.2622
 L 19.0025,-13.0866 L 18.9075,-12.9001 L 18.8325,-12.7046 L 18.7783,-12.5024 L 18.7456,-12.2957 L 18.7346,-12.0866
 L 18.7456,-11.8775 L 18.7783,-11.6708 L 18.8325,-11.4686 L 18.9075,-11.2731 L 19.0025,-11.0867 L 19.1025,-10.9135
 L 19.2165,-10.7379 L 19.3483,-10.5752 L 19.4963,-10.4271 L 19.659,-10.2954 L 19.8345,-10.1814 L 20.0211,-10.0863
 L 20.2165,-10.0113 L 20.4187,-9.95711 L 20.6255,-9.92435 L 20.8345,-9.91339 z
" stroke="black" fill="black" stroke-width="0.5"/>
</svg>
