<?xml version="1.0" standalone="no"?>
<!DOCTYPE svg PUBLIC "-//W3C//DTD SVG 1.1//EN" "http://www.w3.org/Graphics/SVG/1.1/DTD/svg11.dtd">
<svg width="100mm" height="100mm" viewBox="-8 -108 116 116" xmlns="http://www.w3.org/2000/svg" version="1.1">
<title>OpenSCAD Model</title>
<path d="
M 53.6231,-85.9243 L 53.8299,-85.9571 L 54.0321,-86.0113 L 54.2276,-86.0863 L 54.4141,-86.1813 L 54.5897,-86.2953
 L 54.7523,-86.4271 L 54.9004,-86.5751 L 55.0321,-86.7378 L 55.1462,-86.9135 L 55.2462,-87.0867 L 55.3412,-87.2732
 L 55.4162,-87.4686 L 55.4704,-87.6708 L 55.5031,-87.8776 L 55.5141,-88.0867 L 55.5031,-88.2957 L 55.4704,-88.5025
 L 55.4162,-88.7047 L 55.3411,-88.9001 L 55.2461,-89.0867 L 55.1321,-89.2622 L 55.0003,-89.4249 L 54.8523,-89.5729
 L 54.6896,-89.7047 L 54.5141,-89.8186 L 51.3395,-91.6515 L 51.2121,-91.7547 L 51.0365,-91.8687 L 50.85,-91.9637
 L 50.6545,-92.0387 L 50.4523,-92.0929 L 50.2456,-92.1256 L 50.0365,-92.1366 L 49.9999,-92.1347 L 49.9631,-92.1366
 L 49.754,-92.1256 L 49.5473,-92.0928 L 49.3451,-92.0386 L 49.1497,-91.9635 L 48.9632,-91.8685 L 48.7876,-91.7544
 L 48.6606,-91.6516 L 45.4859,-89.8186 L 45.3103,-89.7046 L 45.1476,-89.5729 L 44.9996,-89.4249 L 44.8679,-89.2622
 L 44.7539,-89.0866 L 44.6588,-88.9001 L 44.5838,-88.7046 L 44.5296,-88.5024 L 44.4969,-88.2956 L 44.4859,-88.0866
 L 44.4969,-87.8775 L 44.5296,-87.6708 L 44.5838,-87.4686 L 44.6588,-87.2731 L 44.7538,-87.0867 L 44.8538,-86.9135
 L 44.9678,-86.7379 L 45.0996,-86.5752 L 45.2476,-86.4271 L 45.4103,-86.2954 L 45.5858,-86.1814 L 45.7724,-86.0863
 L 45.9678,-86.0113 L 46.17,-85.9571 L 46.3768,-85.9243 L 46.5858,-85.9134 L 46.7949,-85.9243 L 47.0017,-85.9571
 L 47.2039,-86.0113 L 47.3993,-86.0863 L 47.5859,-86.1814 L 50,-87.5751 L 52.4141,-86.1814 L 52.6006,-86.0863
 L 52.7961,-86.0113 L 52.9983,-85.9571 L 53.205,-85.9243 L 53.4141,-85.9134 z
M 64.0155,-79.9243 L 64.2222,-79.9571 L 64.4244,-80.0113 L 64.6199,-80.0863 L 64.8064,-80.1813 L 64.982,-80.2953
 L 65.1447,-80.4271 L 65.2927,-80.5751 L 65.4244,-80.7378 L 65.5385,-80.9135 L 65.6385,-81.0867 L 65.7335,-81.2732
 L 65.8085,-81.4686 L 65.8627,-81.6708 L 65.8954,-81.8776 L 65.9064,-82.0867 L 65.8954,-82.2957 L 65.8627,-82.5025
 L 65.8085,-82.7047 L 65.7334,-82.9001 L 65.6384,-83.0867 L 65.5244,-83.2622 L 65.3926,-83.4249 L 65.2446,-83.5729
 L 65.0819,-83.7047 L 64.9064,-83.8186 L 61.4423,-85.8186 L 61.2558,-85.9137 L 61.0603,-85.9887 L 60.8581,-86.0429
 L 60.6514,-86.0756 L 60.4423,-86.0866 L 60.2332,-86.0756 L 60.0265,-86.0429 L 59.8243,-85.9887 L 59.6288,-85.9137
 L 59.4423,-85.8186 L 59.2667,-85.7046 L 59.104,-85.5729 L 58.956,-85.4249 L 58.8243,-85.2622 L 58.7102,-85.0865
 L 58.6102,-84.9133 L 58.5152,-84.7268 L 58.4402,-84.5314 L 58.386,-84.3291 L 58.3533,-84.1224 L 58.3423,-83.9133
 L 58.3533,-83.7043 L 58.386,-83.4975 L 58.4402,-83.2953 L 58.5152,-83.0999 L 58.6103,-82.9133 L 58.7243,-82.7378
 L 58.856,-82.5751 L 59.0041,-82.4271 L 59.1668,-82.2953 L 59.3423,-82.1813 L 62.8064,-80.1813 L 62.9929,-80.0863
 L 63.1884,-80.0113 L 63.3906,-79.9571 L 63.5973,-79.9243 L 63.8064,-79.9134 z
M 36.4026,-79.9243 L 36.6094,-79.9571 L 36.8116,-80.0113 L 37.007,-80.0863 L 37.1936,-80.1813 L 40.6577,-82.1813
 L 40.8333,-82.2954 L 40.996,-82.4271 L 41.144,-82.5751 L 41.2757,-82.7378 L 41.3898,-82.9134 L 41.4848,-83.0999
 L 41.5598,-83.2954 L 41.614,-83.4976 L 41.6467,-83.7043 L 41.6577,-83.9134 L 41.6467,-84.1225 L 41.614,-84.3292
 L 41.5598,-84.5314 L 41.4848,-84.7269 L 41.3898,-84.9133 L 41.2898,-85.0865 L 41.1758,-85.2621 L 41.044,-85.4248
 L 40.896,-85.5728 L 40.7333,-85.7046 L 40.5578,-85.8186 L 40.3712,-85.9137 L 40.1758,-85.9887 L 39.9736,-86.0429
 L 39.7668,-86.0756 L 39.5578,-86.0866 L 39.3487,-86.0756 L 39.142,-86.0429 L 38.9397,-85.9887 L 38.7443,-85.9137
 L 38.5577,-85.8186 L 35.0936,-83.8186 L 34.918,-83.7046 L 34.7554,-83.5729 L 34.6073,-83.4249 L 34.4756,-83.2622
 L 34.3616,-83.0866 L 34.2665,-82.9001 L 34.1915,-82.7046 L 34.1373,-82.5024 L 34.1046,-82.2957 L 34.0936,-82.0866
 L 34.1046,-81.8775 L 34.1373,-81.6708 L 34.1915,-81.4686 L 34.2665,-81.2731 L 34.3615,-81.0867 L 34.4615,-80.9135
 L 34.5755,-80.7379 L 34.7073,-80.5752 L 34.8553,-80.4271 L 35.018,-80.2954 L 35.1935,-80.1814 L 35.3801,-80.0863
 L 35.5755,-80.0113 L 35.7777,-79.9571 L 35.9845,-79.9243 L 36.1935,-79.9134 z
M 74.4078,-73.9243 L 74.6145,-73.9571 L 74.8168,-74.0113 L 75.0122,-74.0863 L 75.1987,-74.1813 L 75.3743,-74.2954
 L 75.537,-74.4271 L 75.685,-74.5751 L 75.8168,-74.7378 L 75.9308,-74.9135 L 76.0308,-75.0867 L 76.1258,-75.2732
 L 76.2008,-75.4686 L 76.255,-75.6708 L 76.2878,-75.8776 L 76.2987,-76.0867 L 76.2878,-76.2957 L 76.255,-76.5025
 L 76.2008,-76.7047 L 76.1258,-76.9001 L 76.0307,-77.0867 L 75.9167,-77.2622 L 75.785,-77.4249 L 75.6369,-77.5729
 L 75.4742,-77.7047 L 75.2987,-77.8186 L 71.8346,-79.8186 L 71.6481,-79.9137 L 71.4526,-79.9887 L 71.2504,-80.0429
 L 71.0437,-80.0756 L 70.8346,-80.0866 L 70.6255,-80.0756 L 70.4188,-80.0429 L 70.2166,-79.9887 L 70.0211,-79.9137
 L 69.8346,-79.8186 L 69.659,-79.7046 L 69.4963,-79.5729 L 69.3483,-79.4249 L 69.2166,-79.2622 L 69.1025,-79.0865
 L 69.0025,-78.9133 L 68.9075,-78.7268 L 68.8325,-78.5314 L 68.7783,-78.3291 L 68.7456,-78.1224 L 68.7346,-77.9133
 L 68.7456,-77.7043 L 68.7783,-77.4975 L 68.8325,-77.2953 L 68.9075,-77.0999 L 69.0026,-76.9133 L 69.1166,-76.7378
 L 69.2484,-76.5751 L 69.3964,-76.4271 L 69.5591,-76.2953 L 69.7346,-76.1813 L 73.1987,-74.1813 L 73.3852,-74.0863
 L 73.5807,-74.0113 L 73.7829,-73.9571 L 73.9897,-73.9243 L 74.1987,-73.9134 z
M 26.0103,-73.9243 L 26.217,-73.9571 L 26.4193,-74.0113 L 26.6147,-74.0863 L 26.8013,-74.1813 L 30.2654,-76.1813
 L 30.441,-76.2953 L 30.6037,-76.4271 L 30.7517,-76.5751 L 30.8834,-76.7378 L 30.9975,-76.9134 L 31.0925,-77.0999
 L 31.1675,-77.2953 L 31.2217,-77.4976 L 31.2544,-77.7043 L 31.2654,-77.9134 L 31.2544,-78.1225 L 31.2217,-78.3292
 L 31.1675,-78.5314 L 31.0925,-78.7269 L 30.9975,-78.9133 L 30.8975,-79.0865 L 30.7835,-79.2621 L 30.6517,-79.4248
 L 30.5037,-79.5728 L 30.341,-79.7046 L 30.1655,-79.8186 L 29.9789,-79.9137 L 29.7835,-79.9887 L 29.5813,-80.0429
 L 29.3745,-80.0756 L 29.1655,-80.0866 L 28.9564,-80.0756 L 28.7496,-80.0429 L 28.5474,-79.9887 L 28.352,-79.9137
 L 28.1654,-79.8186 L 24.7013,-77.8186 L 24.5257,-77.7046 L 24.363,-77.5729 L 24.215,-77.4249 L 24.0833,-77.2622
 L 23.9692,-77.0866 L 23.8742,-76.9001 L 23.7992,-76.7046 L 23.745,-76.5024 L 23.7122,-76.2957 L 23.7013,-76.0866
 L 23.7122,-75.8775 L 23.745,-75.6708 L 23.7992,-75.4686 L 23.8742,-75.2731 L 23.9692,-75.0867 L 24.0692,-74.9135
 L 24.1832,-74.7379 L 24.315,-74.5752 L 24.463,-74.4271 L 24.6257,-74.2954 L 24.8012,-74.1814 L 24.9877,-74.0863
 L 25.1832,-74.0113 L 25.3854,-73.9571 L 25.5922,-73.9243 L 25.8012,-73.9134 z
M 15.668,-64.011 L 15.8748,-64.0437 L 16.077,-64.0979 L 16.2725,-64.1729 L 16.459,-64.2679 L 16.6346,-64.382
 L 16.7972,-64.5137 L 16.9453,-64.6617 L 17.077,-64.8244 L 17.191,-65 L 17.2861,-65.1865 L 17.3611,-65.382
 L 17.4153,-65.5842 L 17.448,-65.7909 L 17.459,-66 L 17.459,-66.3627 L 17.7731,-66.1813 L 17.9596,-66.0863
 L 18.1551,-66.0113 L 18.3573,-65.9571 L 18.564,-65.9243 L 18.7731,-65.9134 L 18.9822,-65.9243 L 19.1889,-65.9571
 L 19.3911,-66.0113 L 19.5866,-66.0863 L 19.7731,-66.1813 L 19.9487,-66.2954 L 20.1114,-66.4271 L 20.2594,-66.5751
 L 20.3911,-66.7378 L 20.5052,-66.9135 L 20.6052,-67.0867 L 20.7002,-67.2732 L 20.7752,-67.4686 L 20.8294,-67.6708
 L 20.8621,-67.8776 L 20.8731,-68.0867 L 20.8621,-68.2957 L 20.8294,-68.5025 L 20.7752,-68.7047 L 20.7001,-68.9001
 L 20.6051,-69.0867 L 20.4911,-69.2622 L 20.3593,-69.4249 L 20.2113,-69.5729 L 20.0486,-69.7047 L 19.8731,-69.8186
 L 19.559,-70 L 19.8731,-70.1813 L 20.0487,-70.2953 L 20.2113,-70.4271 L 20.3594,-70.5751 L 20.4911,-70.7378
 L 20.6051,-70.9134 L 20.7002,-71.0999 L 20.7752,-71.2953 L 20.8294,-71.4976 L 20.8621,-71.7043 L 20.8731,-71.9134
 L 20.8621,-72.1224 L 20.8294,-72.3292 L 20.7752,-72.5314 L 20.7002,-72.7269 L 20.6052,-72.9133 L 20.5052,-73.0865
 L 20.3912,-73.2621 L 20.2594,-73.4248 L 20.1114,-73.5728 L 19.9487,-73.7046 L 19.7732,-73.8186 L 19.5866,-73.9137
 L 19.3912,-73.9887 L 19.189,-74.0429 L 18.9822,-74.0756 L 18.7732,-74.0866 L 18.5641,-74.0756 L 18.3573,-74.0429
 L 18.1551,-73.9887 L 17.9597,-73.9137 L 17.7731,-73.8186 L 14.662,-72.0224 L 14.5089,-71.9637 L 14.3224,-71.8686
 L 14.2917,-71.8487 L 14.259,-71.832 L 14.0834,-71.718 L 13.9207,-71.5863 L 13.7727,-71.4382 L 13.641,-71.2756
 L 13.5269,-71.1 L 13.5103,-71.0673 L 13.4904,-71.0366 L 13.3953,-70.8501 L 13.3203,-70.6547 L 13.2661,-70.4525
 L 13.2334,-70.2457 L 13.2224,-70.0366 L 13.2243,-70 L 13.2224,-69.9633 L 13.2334,-69.7543 L 13.259,-69.5924
 L 13.259,-66 L 13.27,-65.7909 L 13.3027,-65.5842 L 13.3569,-65.382 L 13.4319,-65.1865 L 13.5269,-65
 L 13.641,-64.8244 L 13.7727,-64.6617 L 13.9207,-64.5137 L 14.0834,-64.382 L 14.259,-64.2679 L 14.4455,-64.1729
 L 14.641,-64.0979 L 14.8432,-64.0437 L 15.0499,-64.011 L 15.259,-64 L 15.459,-64 z
M 84.9501,-64.011 L 85.1568,-64.0437 L 85.359,-64.0979 L 85.5545,-64.1729 L 85.741,-64.2679 L 85.9166,-64.382
 L 86.0793,-64.5137 L 86.2273,-64.6617 L 86.359,-64.8244 L 86.4731,-65 L 86.5681,-65.1865 L 86.6431,-65.382
 L 86.6973,-65.5842 L 86.73,-65.7909 L 86.741,-66 L 86.741,-69.5924 L 86.7666,-69.7543 L 86.7776,-69.9633
 L 86.7757,-69.9999 L 86.7776,-70.0363 L 86.7667,-70.2453 L 86.734,-70.4521 L 86.6798,-70.6543 L 86.6048,-70.8498
 L 86.5098,-71.0363 L 86.4897,-71.0672 L 86.4731,-71.1 L 86.359,-71.2756 L 86.2273,-71.4382 L 86.0793,-71.5863
 L 85.9166,-71.718 L 85.741,-71.832 L 85.7082,-71.8488 L 85.6773,-71.8688 L 85.4908,-71.9638 L 85.3381,-72.0224
 L 82.2269,-73.8186 L 82.0404,-73.9137 L 81.8449,-73.9887 L 81.6427,-74.0429 L 81.436,-74.0756 L 81.2269,-74.0866
 L 81.0179,-74.0756 L 80.8111,-74.0429 L 80.6089,-73.9887 L 80.4134,-73.9137 L 80.2269,-73.8186 L 80.0513,-73.7046
 L 79.8886,-73.5729 L 79.7406,-73.4249 L 79.6089,-73.2622 L 79.4948,-73.0865 L 79.3948,-72.9133 L 79.2998,-72.7268
 L 79.2248,-72.5314 L 79.1706,-72.3291 L 79.1379,-72.1224 L 79.1269,-71.9133 L 79.1379,-71.7043 L 79.1706,-71.4975
 L 79.2248,-71.2953 L 79.2999,-71.0999 L 79.3949,-70.9133 L 79.5089,-70.7378 L 79.6407,-70.5751 L 79.7887,-70.4271
 L 79.9514,-70.2953 L 80.1269,-70.1813 L 80.441,-70 L 80.1269,-69.8186 L 79.9513,-69.7046 L 79.7887,-69.5729
 L 79.6406,-69.4249 L 79.5089,-69.2622 L 79.3949,-69.0866 L 79.2998,-68.9001 L 79.2248,-68.7046 L 79.1706,-68.5024
 L 79.1379,-68.2957 L 79.1269,-68.0866 L 79.1379,-67.8775 L 79.1706,-67.6708 L 79.2248,-67.4686 L 79.2998,-67.2731
 L 79.3948,-67.0867 L 79.4948,-66.9135 L 79.6088,-66.7379 L 79.7406,-66.5752 L 79.8886,-66.4271 L 80.0513,-66.2954
 L 80.2268,-66.1814 L 80.4134,-66.0863 L 80.6088,-66.0113 L 80.811,-65.9571 L 81.0178,-65.9243 L 81.2268,-65.9134
 L 81.4359,-65.9243 L 81.6427,-65.9571 L 81.8449,-66.0113 L 82.0403,-66.0863 L 82.2269,-66.1813 L 82.541,-66.3627
 L 82.541,-66 L 82.552,-65.7909 L 82.5847,-65.5842 L 82.6389,-65.382 L 82.7139,-65.1865 L 82.809,-65
 L 82.923,-64.8244 L 83.0547,-64.6617 L 83.2028,-64.5137 L 83.3654,-64.382 L 83.541,-64.2679 L 83.7275,-64.1729
 L 83.923,-64.0979 L 84.1252,-64.0437 L 84.332,-64.011 L 84.541,-64 L 84.741,-64 z
M 29.3745,-59.9243 L 29.5812,-59.9571 L 29.7834,-60.0113 L 29.9789,-60.0863 L 30.1654,-60.1813 L 30.341,-60.2954
 L 30.5037,-60.4271 L 30.6517,-60.5751 L 30.7834,-60.7378 L 30.8975,-60.9135 L 30.9975,-61.0867 L 31.0925,-61.2732
 L 31.1675,-61.4686 L 31.2217,-61.6708 L 31.2544,-61.8776 L 31.2654,-62.0867 L 31.2544,-62.2957 L 31.2217,-62.5025
 L 31.1675,-62.7047 L 31.0925,-62.9001 L 30.9974,-63.0867 L 30.8834,-63.2622 L 30.7516,-63.4249 L 30.6036,-63.5729
 L 30.4409,-63.7047 L 30.2654,-63.8186 L 26.8013,-65.8186 L 26.6148,-65.9137 L 26.4193,-65.9887 L 26.2171,-66.0429
 L 26.0103,-66.0756 L 25.8013,-66.0866 L 25.5922,-66.0756 L 25.3855,-66.0429 L 25.1832,-65.9887 L 24.9878,-65.9137
 L 24.8013,-65.8186 L 24.6257,-65.7046 L 24.463,-65.5729 L 24.315,-65.4249 L 24.1832,-65.2622 L 24.0692,-65.0865
 L 23.9692,-64.9133 L 23.8742,-64.7268 L 23.7992,-64.5314 L 23.745,-64.3291 L 23.7122,-64.1224 L 23.7013,-63.9133
 L 23.7122,-63.7043 L 23.745,-63.4975 L 23.7992,-63.2953 L 23.8742,-63.0999 L 23.9693,-62.9133 L 24.0833,-62.7378
 L 24.215,-62.5751 L 24.3631,-62.4271 L 24.5258,-62.2953 L 24.7013,-62.1813 L 28.1654,-60.1813 L 28.3519,-60.0863
 L 28.5474,-60.0113 L 28.7496,-59.9571 L 28.9563,-59.9243 L 29.1654,-59.9134 z
M 71.0436,-59.9243 L 71.2504,-59.9571 L 71.4526,-60.0113 L 71.648,-60.0863 L 71.8346,-60.1813 L 75.2987,-62.1813
 L 75.4743,-62.2953 L 75.637,-62.4271 L 75.785,-62.5751 L 75.9167,-62.7378 L 76.0308,-62.9134 L 76.1258,-63.0999
 L 76.2008,-63.2953 L 76.255,-63.4976 L 76.2878,-63.7043 L 76.2987,-63.9134 L 76.2878,-64.1225 L 76.255,-64.3292
 L 76.2008,-64.5314 L 76.1258,-64.7269 L 76.0308,-64.9133 L 75.9308,-65.0865 L 75.8168,-65.2621 L 75.685,-65.4248
 L 75.537,-65.5728 L 75.3743,-65.7046 L 75.1988,-65.8186 L 75.0123,-65.9137 L 74.8168,-65.9887 L 74.6146,-66.0429
 L 74.4078,-66.0756 L 74.1988,-66.0866 L 73.9897,-66.0756 L 73.783,-66.0429 L 73.5807,-65.9887 L 73.3853,-65.9137
 L 73.1987,-65.8186 L 69.7346,-63.8186 L 69.559,-63.7046 L 69.3963,-63.5729 L 69.2483,-63.4249 L 69.1166,-63.2622
 L 69.0025,-63.0866 L 68.9075,-62.9001 L 68.8325,-62.7046 L 68.7783,-62.5024 L 68.7456,-62.2957 L 68.7346,-62.0866
 L 68.7456,-61.8775 L 68.7783,-61.6708 L 68.8325,-61.4686 L 68.9075,-61.2731 L 69.0025,-61.0867 L 69.1025,-60.9135
 L 69.2165,-60.7379 L 69.3483,-60.5752 L 69.4963,-60.4271 L 69.659,-60.2954 L 69.8345,-60.1814 L 70.0211,-60.0863
 L 70.2165,-60.0113 L 70.4187,-59.9571 L 70.6255,-59.9243 L 70.8345,-59.9134 z
M 60.6513,-53.9243 L 60.858,-53.9571 L 61.0603,-54.0113 L 61.2557,-54.0863 L 61.4423,-54.1813 L 64.9064,-56.1813
 L 65.082,-56.2954 L 65.2446,-56.4271 L 65.3927,-56.5751 L 65.5244,-56.7378 L 65.6384,-56.9134 L 65.7335,-57.0999
 L 65.8085,-57.2954 L 65.8627,-57.4976 L 65.8954,-57.7043 L 65.9064,-57.9134 L 65.8954,-58.1225 L 65.8627,-58.3292
 L 65.8085,-58.5314 L 65.7335,-58.7269 L 65.6385,-58.9133 L 65.5385,-59.0865 L 65.4245,-59.2621 L 65.2927,-59.4248
 L 65.1447,-59.5728 L 64.982,-59.7046 L 64.8065,-59.8186 L 64.6199,-59.9137 L 64.4245,-59.9887 L 64.2223,-60.0429
 L 64.0155,-60.0756 L 63.8065,-60.0866 L 63.5974,-60.0756 L 63.3906,-60.0429 L 63.1884,-59.9887 L 62.993,-59.9137
 L 62.8064,-59.8186 L 59.3423,-57.8186 L 59.1667,-57.7046 L 59.004,-57.5729 L 58.856,-57.4249 L 58.7243,-57.2622
 L 58.6102,-57.0866 L 58.5152,-56.9001 L 58.4402,-56.7046 L 58.386,-56.5024 L 58.3533,-56.2957 L 58.3423,-56.0866
 L 58.3533,-55.8775 L 58.386,-55.6708 L 58.4402,-55.4686 L 58.5152,-55.2731 L 58.6102,-55.0867 L 58.7102,-54.9135
 L 58.8242,-54.7379 L 58.956,-54.5752 L 59.104,-54.4271 L 59.2667,-54.2954 L 59.4422,-54.1814 L 59.6288,-54.0863
 L 59.8242,-54.0113 L 60.0264,-53.9571 L 60.2332,-53.9243 L 60.4422,-53.9134 z
M 39.7668,-53.9243 L 39.9735,-53.9571 L 40.1757,-54.0113 L 40.3712,-54.0863 L 40.5577,-54.1813 L 40.7333,-54.2953
 L 40.896,-54.4271 L 41.044,-54.5751 L 41.1757,-54.7378 L 41.2898,-54.9135 L 41.3898,-55.0867 L 41.4848,-55.2732
 L 41.5598,-55.4686 L 41.614,-55.6708 L 41.6467,-55.8776 L 41.6577,-56.0867 L 41.6467,-56.2957 L 41.614,-56.5025
 L 41.5598,-56.7047 L 41.4848,-56.9001 L 41.3897,-57.0867 L 41.2757,-57.2622 L 41.144,-57.4249 L 40.9959,-57.5729
 L 40.8332,-57.7047 L 40.6577,-57.8186 L 37.1936,-59.8186 L 37.0071,-59.9137 L 36.8116,-59.9887 L 36.6094,-60.0429
 L 36.4027,-60.0756 L 36.1936,-60.0866 L 35.9845,-60.0756 L 35.7778,-60.0429 L 35.5756,-59.9887 L 35.3801,-59.9137
 L 35.1936,-59.8186 L 35.018,-59.7046 L 34.8553,-59.5729 L 34.7073,-59.4249 L 34.5756,-59.2622 L 34.4615,-59.0865
 L 34.3615,-58.9133 L 34.2665,-58.7268 L 34.1915,-58.5314 L 34.1373,-58.3291 L 34.1046,-58.1224 L 34.0936,-57.9133
 L 34.1046,-57.7043 L 34.1373,-57.4975 L 34.1915,-57.2953 L 34.2666,-57.0999 L 34.3616,-56.9133 L 34.4756,-56.7378
 L 34.6074,-56.5751 L 34.7554,-56.4271 L 34.9181,-56.2953 L 35.0936,-56.1813 L 38.5577,-54.1813 L 38.7442,-54.0863
 L 38.9397,-54.0113 L 39.1419,-53.9571 L 39.3486,-53.9243 L 39.5577,-53.9134 z
M 15.668,-52.011 L 15.8748,-52.0437 L 16.077,-52.0979 L 16.2725,-52.1729 L 16.459,-52.2679 L 16.6346,-52.382
 L 16.7972,-52.5137 L 16.9453,-52.6617 L 17.077,-52.8244 L 17.191,-53 L 17.2861,-53.1865 L 17.3611,-53.382
 L 17.4153,-53.5842 L 17.448,-53.7909 L 17.459,-54 L 17.459,-58 L 17.448,-58.2091 L 17.4153,-58.4158
 L 17.3611,-58.618 L 17.2861,-58.8135 L 17.191,-59 L 17.077,-59.1756 L 16.9453,-59.3383 L 16.7972,-59.4863
 L 16.6346,-59.618 L 16.459,-59.7321 L 16.2725,-59.8271 L 16.077,-59.9021 L 15.8748,-59.9563 L 15.668,-59.989
 L 15.459,-60 L 15.259,-60 L 15.0499,-59.989 L 14.8432,-59.9563 L 14.641,-59.9021 L 14.4455,-59.8271
 L 14.259,-59.7321 L 14.0834,-59.618 L 13.9207,-59.4863 L 13.7727,-59.3383 L 13.641,-59.1756 L 13.5269,-59
 L 13.4319,-58.8135 L 13.3569,-58.618 L 13.3027,-58.4158 L 13.27,-58.2091 L 13.259,-58 L 13.259,-54
 L 13.27,-53.7909 L 13.3027,-53.5842 L 13.3569,-53.382 L 13.4319,-53.1865 L 13.5269,-53 L 13.641,-52.8244
 L 13.7727,-52.6617 L 13.9207,-52.5137 L 14.0834,-52.382 L 14.259,-52.2679 L 14.4455,-52.1729 L 14.641,-52.0979
 L 14.8432,-52.0437 L 15.0499,-52.011 L 15.259,-52 L 15.459,-52 z
M 84.9501,-52.011 L 85.1568,-52.0437 L 85.359,-52.0979 L 85.5545,-52.1729 L 85.741,-52.2679 L 85.9166,-52.382
 L 86.0793,-52.5137 L 86.2273,-52.6617 L 86.359,-52.8244 L 86.4731,-53 L 86.5681,-53.1865 L 86.6431,-53.382
 L 86.6973,-53.5842 L 86.73,-53.7909 L 86.741,-54 L 86.741,-58 L 86.73,-58.2091 L 86.6973,-58.4158
 L 86.6431,-58.618 L 86.5681,-58.8135 L 86.4731,-59 L 86.359,-59.1756 L 86.2273,-59.3383 L 86.0793,-59.4863
 L 85.9166,-59.618 L 85.741,-59.7321 L 85.5545,-59.8271 L 85.359,-59.9021 L 85.1568,-59.9563 L 84.9501,-59.989
 L 84.741,-60 L 84.541,-60 L 84.332,-59.989 L 84.1252,-59.9563 L 83.923,-59.9021 L 83.7275,-59.8271
 L 83.541,-59.7321 L 83.3654,-59.618 L 83.2028,-59.4863 L 83.0547,-59.3383 L 82.923,-59.1756 L 82.809,-59
 L 82.7139,-58.8135 L 82.6389,-58.618 L 82.5847,-58.4158 L 82.552,-58.2091 L 82.541,-58 L 82.541,-54
 L 82.552,-53.7909 L 82.5847,-53.5842 L 82.6389,-53.382 L 82.7139,-53.1865 L 82.809,-53 L 82.923,-52.8244
 L 83.0547,-52.6617 L 83.2028,-52.5137 L 83.3654,-52.382 L 83.541,-52.2679 L 83.7275,-52.1729 L 83.923,-52.0979
 L 84.1252,-52.0437 L 84.332,-52.011 L 84.541,-52 L 84.741,-52 z
M 50.3091,-44.011 L 50.5158,-44.0437 L 50.718,-44.0979 L 50.9135,-44.1729 L 51.1,-44.2679 L 51.2756,-44.382
 L 51.4382,-44.5137 L 51.5863,-44.6617 L 51.718,-44.8244 L 51.832,-45 L 51.9271,-45.1865 L 52.0021,-45.382
 L 52.0563,-45.5842 L 52.089,-45.7909 L 52.1,-46 L 52.1,-48.7876 L 54.5141,-50.1813 L 54.6897,-50.2954
 L 54.8523,-50.4271 L 55.0004,-50.5751 L 55.1321,-50.7378 L 55.2461,-50.9134 L 55.3412,-51.0999 L 55.4162,-51.2954
 L 55.4704,-51.4976 L 55.5031,-51.7043 L 55.5141,-51.9134 L 55.5031,-52.1225 L 55.4704,-52.3292 L 55.4162,-52.5314
 L 55.3412,-52.7269 L 55.2462,-52.9133 L 55.1462,-53.0865 L 55.0322,-53.2621 L 54.9004,-53.4248 L 54.7524,-53.5728
 L 54.5897,-53.7046 L 54.4142,-53.8186 L 54.2276,-53.9137 L 54.0322,-53.9887 L 53.83,-54.0429 L 53.6232,-54.0756
 L 53.4142,-54.0866 L 53.2051,-54.0756 L 52.9983,-54.0429 L 52.7961,-53.9887 L 52.6007,-53.9137 L 52.4141,-53.8186
 L 50,-52.4249 L 47.5859,-53.8186 L 47.3994,-53.9137 L 47.2039,-53.9887 L 47.0017,-54.0429 L 46.795,-54.0756
 L 46.5859,-54.0866 L 46.3769,-54.0756 L 46.1701,-54.0429 L 45.9679,-53.9887 L 45.7724,-53.9137 L 45.5859,-53.8186
 L 45.4103,-53.7046 L 45.2477,-53.5729 L 45.0996,-53.4249 L 44.9679,-53.2622 L 44.8538,-53.0865 L 44.7538,-52.9133
 L 44.6588,-52.7268 L 44.5838,-52.5314 L 44.5296,-52.3291 L 44.4969,-52.1224 L 44.4859,-51.9133 L 44.4969,-51.7043
 L 44.5296,-51.4975 L 44.5838,-51.2953 L 44.6589,-51.0999 L 44.7539,-50.9133 L 44.8679,-50.7378 L 44.9997,-50.5751
 L 45.1477,-50.4271 L 45.3104,-50.2953 L 45.4859,-50.1813 L 47.9,-48.7876 L 47.9,-46 L 47.911,-45.7909
 L 47.9437,-45.5842 L 47.9979,-45.382 L 48.0729,-45.1865 L 48.168,-45 L 48.282,-44.8244 L 48.4137,-44.6617
 L 48.5618,-44.5137 L 48.7244,-44.382 L 48.9,-44.2679 L 49.0865,-44.1729 L 49.282,-44.0979 L 49.4842,-44.0437
 L 49.6909,-44.011 L 49.9,-44 L 50.1,-44 z
M 84.9501,-40.011 L 85.1568,-40.0437 L 85.359,-40.0979 L 85.5545,-40.1729 L 85.741,-40.2679 L 85.9166,-40.382
 L 86.0793,-40.5137 L 86.2273,-40.6617 L 86.359,-40.8244 L 86.4731,-41 L 86.5681,-41.1865 L 86.6431,-41.382
 L 86.6973,-41.5842 L 86.73,-41.7909 L 86.741,-42 L 86.741,-46 L 86.73,-46.2091 L 86.6973,-46.4158
 L 86.6431,-46.618 L 86.5681,-46.8135 L 86.4731,-47 L 86.359,-47.1756 L 86.2273,-47.3383 L 86.0793,-47.4863
 L 85.9166,-47.618 L 85.741,-47.7321 L 85.5545,-47.8271 L 85.359,-47.9021 L 85.1568,-47.9563 L 84.9501,-47.989
 L 84.741,-48 L 84.541,-48 L 84.332,-47.989 L 84.1252,-47.9563 L 83.923,-47.9021 L 83.7275,-47.8271
 L 83.541,-47.7321 L 83.3654,-47.618 L 83.2028,-47.4863 L 83.0547,-47.3383 L 82.923,-47.1756 L 82.809,-47
 L 82.7139,-46.8135 L 82.6389,-46.618 L 82.5847,-46.4158 L 82.552,-46.2091 L 82.541,-46 L 82.541,-42
 L 82.552,-41.7909 L 82.5847,-41.5842 L 82.6389,-41.382 L 82.7139,-41.1865 L 82.809,-41 L 82.923,-40.8244
 L 83.0547,-40.6617 L 83.2028,-40.5137 L 83.3654,-40.382 L 83.541,-40.2679 L 83.7275,-40.1729 L 83.923,-40.0979
 L 84.1252,-40.0437 L 84.332,-40.011 L 84.541,-40 L 84.741,-40 z
M 15.668,-40.011 L 15.8748,-40.0437 L 16.077,-40.0979 L 16.2725,-40.1729 L 16.459,-40.2679 L 16.6346,-40.382
 L 16.7972,-40.5137 L 16.9453,-40.6617 L 17.077,-40.8244 L 17.191,-41 L 17.2861,-41.1865 L 17.3611,-41.382
 L 17.4153,-41.5842 L 17.448,-41.7909 L 17.459,-42 L 17.459,-46 L 17.448,-46.2091 L 17.4153,-46.4158
 L 17.3611,-46.618 L 17.2861,-46.8135 L 17.191,-47 L 17.077,-47.1756 L 16.9453,-47.3383 L 16.7972,-47.4863
 L 16.6346,-47.618 L 16.459,-47.7321 L 16.2725,-47.8271 L 16.077,-47.9021 L 15.8748,-47.9563 L 15.668,-47.989
 L 15.459,-48 L 15.259,-48 L 15.0499,-47.989 L 14.8432,-47.9563 L 14.641,-47.9021 L 14.4455,-47.8271
 L 14.259,-47.7321 L 14.0834,-47.618 L 13.9207,-47.4863 L 13.7727,-47.3383 L 13.641,-47.1756 L 13.5269,-47
 L 13.4319,-46.8135 L 13.3569,-46.618 L 13.3027,-46.4158 L 13.27,-46.2091 L 13.259,-46 L 13.259,-42
 L 13.27,-41.7909 L 13.3027,-41.5842 L 13.3569,-41.382 L 13.4319,-41.1865 L 13.5269,-41 L 13.641,-40.8244
 L 13.7727,-40.6617 L 13.9207,-40.5137 L 14.0834,-40.382 L 14.259,-40.2679 L 14.4455,-40.1729 L 14.641,-40.0979
 L 14.8432,-40.0437 L 15.0499,-40.011 L 15.259,-40 L 15.459,-40 z
M 50.3091,-32.011 L 50.5158,-32.0437 L 50.718,-32.0979 L 50.9135,-32.1729 L 51.1,-32.2679 L 51.2756,-32.382
 L 51.4382,-32.5137 L 51.5863,-32.6617 L 51.718,-32.8244 L 51.832,-33 L 51.9271,-33.1865 L 52.0021,-33.382
 L 52.0563,-33.5842 L 52.089,-33.7909 L 52.1,-34 L 52.1,-38 L 52.089,-38.2091 L 52.0563,-38.4158
 L 52.0021,-38.618 L 51.9271,-38.8135 L 51.832,-39 L 51.718,-39.1756 L 51.5863,-39.3383 L 51.4382,-39.4863
 L 51.2756,-39.618 L 51.1,-39.7321 L 50.9135,-39.8271 L 50.718,-39.9021 L 50.5158,-39.9563 L 50.3091,-39.989
 L 50.1,-40 L 49.9,-40 L 49.6909,-39.989 L 49.4842,-39.9563 L 49.282,-39.9021 L 49.0865,-39.8271
 L 48.9,-39.7321 L 48.7244,-39.618 L 48.5618,-39.4863 L 48.4137,-39.3383 L 48.282,-39.1756 L 48.168,-39
 L 48.0729,-38.8135 L 47.9979,-38.618 L 47.9437,-38.4158 L 47.911,-38.2091 L 47.9,-38 L 47.9,-34
 L 47.911,-33.7909 L 47.9437,-33.5842 L 47.9979,-33.382 L 48.0729,-33.1865 L 48.168,-33 L 48.282,-32.8244
 L 48.4137,-32.6617 L 48.5618,-32.5137 L 48.7244,-32.382 L 48.9,-32.2679 L 49.0865,-32.1729 L 49.282,-32.0979
 L 49.4842,-32.0437 L 49.6909,-32.011 L 49.9,-32 L 50.1,-32 z
M 18.9822,-25.9243 L 19.1889,-25.9571 L 19.3911,-26.0113 L 19.5866,-26.0863 L 19.7731,-26.1813 L 19.9487,-26.2953
 L 20.1114,-26.4271 L 20.2594,-26.5751 L 20.3911,-26.7378 L 20.5052,-26.9135 L 20.6052,-27.0867 L 20.7002,-27.2732
 L 20.7752,-27.4686 L 20.8294,-27.6708 L 20.8621,-27.8776 L 20.8731,-28.0867 L 20.8621,-28.2957 L 20.8294,-28.5025
 L 20.7752,-28.7047 L 20.7001,-28.9001 L 20.6051,-29.0867 L 20.4911,-29.2622 L 20.3593,-29.4249 L 20.2113,-29.5729
 L 20.0486,-29.7047 L 19.8731,-29.8186 L 17.459,-31.2124 L 17.459,-34 L 17.448,-34.2091 L 17.4153,-34.4158
 L 17.3611,-34.618 L 17.2861,-34.8135 L 17.191,-35 L 17.077,-35.1756 L 16.9453,-35.3383 L 16.7972,-35.4863
 L 16.6346,-35.618 L 16.459,-35.7321 L 16.2725,-35.8271 L 16.077,-35.9021 L 15.8748,-35.9563 L 15.668,-35.989
 L 15.459,-36 L 15.259,-36 L 15.0499,-35.989 L 14.8432,-35.9563 L 14.641,-35.9021 L 14.4455,-35.8271
 L 14.259,-35.7321 L 14.0834,-35.618 L 13.9207,-35.4863 L 13.7727,-35.3383 L 13.641,-35.1756 L 13.5269,-35
 L 13.4319,-34.8135 L 13.3569,-34.618 L 13.3027,-34.4158 L 13.27,-34.2091 L 13.259,-34 L 13.259,-30.3344
 L 13.2334,-30.1725 L 13.2224,-29.9634 L 13.2334,-29.7544 L 13.2661,-29.5476 L 13.3203,-29.3454 L 13.3953,-29.15
 L 13.4903,-28.9634 L 13.5103,-28.9326 L 13.5269,-28.9 L 13.641,-28.7244 L 13.7727,-28.5618 L 13.9207,-28.4137
 L 14.0834,-28.282 L 14.259,-28.168 L 14.4455,-28.0729 L 14.5985,-28.0142 L 17.7731,-26.1813 L 17.9596,-26.0863
 L 18.1551,-26.0113 L 18.3573,-25.9571 L 18.564,-25.9243 L 18.7731,-25.9134 z
M 81.4359,-25.9243 L 81.6427,-25.9571 L 81.8449,-26.0113 L 82.0403,-26.0863 L 82.2269,-26.1813 L 85.4015,-28.0142
 L 85.5545,-28.0729 L 85.741,-28.168 L 85.9166,-28.282 L 86.0793,-28.4137 L 86.2273,-28.5618 L 86.359,-28.7244
 L 86.4731,-28.9 L 86.4897,-28.9326 L 86.5096,-28.9634 L 86.6047,-29.1499 L 86.6797,-29.3453 L 86.7339,-29.5475
 L 86.7666,-29.7543 L 86.7776,-29.9633 L 86.7666,-30.1724 L 86.741,-30.3344 L 86.741,-34 L 86.73,-34.2091
 L 86.6973,-34.4158 L 86.6431,-34.618 L 86.5681,-34.8135 L 86.4731,-35 L 86.359,-35.1756 L 86.2273,-35.3383
 L 86.0793,-35.4863 L 85.9166,-35.618 L 85.741,-35.7321 L 85.5545,-35.8271 L 85.359,-35.9021 L 85.1568,-35.9563
 L 84.9501,-35.989 L 84.741,-36 L 84.541,-36 L 84.332,-35.989 L 84.1252,-35.9563 L 83.923,-35.9021
 L 83.7275,-35.8271 L 83.541,-35.7321 L 83.3654,-35.618 L 83.2028,-35.4863 L 83.0547,-35.3383 L 82.923,-35.1756
 L 82.809,-35 L 82.7139,-34.8135 L 82.6389,-34.618 L 82.5847,-34.4158 L 82.552,-34.2091 L 82.541,-34
 L 82.541,-31.2124 L 80.1269,-29.8186 L 79.9513,-29.7046 L 79.7887,-29.5729 L 79.6406,-29.4249 L 79.5089,-29.2622
 L 79.3949,-29.0866 L 79.2998,-28.9001 L 79.2248,-28.7046 L 79.1706,-28.5024 L 79.1379,-28.2957 L 79.1269,-28.0866
 L 79.1379,-27.8775 L 79.1706,-27.6708 L 79.2248,-27.4686 L 79.2998,-27.2731 L 79.3948,-27.0867 L 79.4948,-26.9135
 L 79.6088,-26.7379 L 79.7406,-26.5752 L 79.8886,-26.4271 L 80.0513,-26.2954 L 80.2268,-26.1814 L 80.4134,-26.0863
 L 80.6088,-26.0113 L 80.811,-25.9571 L 81.0178,-25.9243 L 81.2268,-25.9134 z
M 50,-14 L 41,-28 L 32,-28 L 41,-14 L 32,-0 L 41,-0
 z
M 68,-14 L 59,-28 L 50,-28 L 59,-14 L 50,-0 L 59,-0
 z
M 29.3745,-19.9243 L 29.5812,-19.9571 L 29.7834,-20.0113 L 29.9789,-20.0863 L 30.1654,-20.1813 L 30.341,-20.2954
 L 30.5037,-20.4271 L 30.6517,-20.5751 L 30.7834,-20.7378 L 30.8975,-20.9135 L 30.9975,-21.0867 L 31.0925,-21.2732
 L 31.1675,-21.4686 L 31.2217,-21.6708 L 31.2544,-21.8776 L 31.2654,-22.0867 L 31.2544,-22.2957 L 31.2217,-22.5025
 L 31.1675,-22.7047 L 31.0925,-22.9001 L 30.9974,-23.0867 L 30.8834,-23.2622 L 30.7516,-23.4249 L 30.6036,-23.5729
 L 30.4409,-23.7047 L 30.2654,-23.8186 L 26.8013,-25.8186 L 26.6148,-25.9137 L 26.4193,-25.9887 L 26.2171,-26.0429
 L 26.0103,-26.0756 L 25.8013,-26.0866 L 25.5922,-26.0756 L 25.3855,-26.0429 L 25.1832,-25.9887 L 24.9878,-25.9137
 L 24.8013,-25.8186 L 24.6257,-25.7046 L 24.463,-25.5729 L 24.315,-25.4249 L 24.1832,-25.2622 L 24.0692,-25.0865
 L 23.9692,-24.9133 L 23.8742,-24.7268 L 23.7992,-24.5314 L 23.745,-24.3291 L 23.7122,-24.1224 L 23.7013,-23.9133
 L 23.7122,-23.7043 L 23.745,-23.4975 L 23.7992,-23.2953 L 23.8742,-23.0999 L 23.9693,-22.9133 L 24.0833,-22.7378
 L 24.215,-22.5751 L 24.3631,-22.4271 L 24.5258,-22.2953 L 24.7013,-22.1813 L 28.1654,-20.1813 L 28.3519,-20.0863
 L 28.5474,-20.0113 L 28.7496,-19.9571 L 28.9563,-19.9243 L 29.1654,-19.9134 z
M 71.0436,-19.9243 L 71.2504,-19.9571 L 71.4526,-20.0113 L 71.648,-20.0863 L 71.8346,-20.1813 L 75.2987,-22.1813
 L 75.4743,-22.2953 L 75.637,-22.4271 L 75.785,-22.5751 L 75.9167,-22.7378 L 76.0308,-22.9134 L 76.1258,-23.0999
 L 76.2008,-23.2953 L 76.255,-23.4976 L 76.2878,-23.7043 L 76.2987,-23.9134 L 76.2878,-24.1225 L 76.255,-24.3292
 L 76.2008,-24.5314 L 76.1258,-24.7269 L 76.0308,-24.9133 L 75.9308,-25.0865 L 75.8168,-25.2621 L 75.685,-25.4248
 L 75.537,-25.5728 L 75.3743,-25.7046 L 75.1988,-25.8186 L 75.0123,-25.9137 L 74.8168,-25.9887 L 74.6146,-26.0429
 L 74.4078,-26.0756 L 74.1988,-26.0866 L 73.9897,-26.0756 L 73.783,-26.0429 L 73.5807,-25.9887 L 73.3853,-25.9137
 L 73.1987,-25.8186 L 69.7346,-23.8186 L 69.559,-23.7046 L 69.3963,-23.5729 L 69.2483,-23.4249 L 69.1166,-23.2622
 L 69.0025,-23.0866 L 68.9075,-22.9001 L 68.8325,-22.7046 L 68.7783,-22.5024 L 68.7456,-22.2957 L 68.7346,-22.0866
 L 68.7456,-21.8775 L 68.7783,-21.6708 L 68.8325,-21.4686 L 68.9075,-21.2731 L 69.0025,-21.0867 L 69.1025,-20.9135
 L 69.2165,-20.7379 L 69.3483,-20.5752 L 69.4963,-20.4271 L 69.659,-20.2954 L 69.8345,-20.1814 L 70.0211,-20.0863
 L 70.2165,-20.0113 L 70.4187,-19.9571 L 70.6255,-19.9243 L 70.8345,-19.9134 z
" stroke="black" fill="black" stroke-width="0.5"/>
</svg>
