<?xml version="1.0" standalone="no"?>
<!DOCTYPE svg PUBLIC "-//W3C//DTD SVG 1.1//EN" "http://www.w3.org/Graphics/SVG/1.1/DTD/svg11.dtd">
<svg width="100mm" height="100mm" viewBox="-8 -108 116 116" xmlns="http://www.w3.org/2000/svg" version="1.1">
<title>OpenSCAD Model</title>
<path d="
M 93,-68.3333 L 82.6917,-58.025 L 80.5029,-60.7279 L 80.4329,-60.8057 L 77.4723,-63.7662 L 77.3945,-63.8363
 L 74.1407,-66.4712 L 74.056,-66.5327 L 70.5446,-68.813 L 70.454,-68.8653 L 66.7234,-70.7661 L 66.6278,-70.8087
 L 62.719,-72.3092 L 62.6195,-72.3415 L 58.5753,-73.4252 L 58.4729,-73.4469 L 54.3376,-74.1019 L 54.2335,-74.1128
 L 50.0523,-74.332 L 49.9477,-74.332 L 45.7665,-74.1128 L 45.6624,-74.1019 L 41.5271,-73.4469 L 41.4247,-73.4252
 L 37.3805,-72.3415 L 37.281,-72.3092 L 33.3722,-70.8087 L 33.2766,-70.7661 L 29.546,-68.8653 L 29.4554,-68.813
 L 25.944,-66.5327 L 25.8593,-66.4712 L 22.6055,-63.8363 L 22.5277,-63.7662 L 19.5671,-60.8057 L 19.4971,-60.7279
 L 16.8622,-57.474 L 16.8007,-57.3894 L 14.5203,-53.878 L 14.468,-53.7873 L 12.5672,-50.0568 L 12.5246,-49.9612
 L 11.0242,-46.0524 L 10.9918,-45.9528 L 9.90817,-41.9086 L 9.88641,-41.8062 L 9.23145,-37.6709 L 9.2205,-37.5668
 L 9.21101,-37.3857 L 9.21101,-37.281 L 9.22195,-37.1769 L 9.24371,-37.0745 L 9.27606,-36.975 L 9.31863,-36.8793
 L 9.37097,-36.7887 L 9.4325,-36.704 L 9.50255,-36.6262 L 9.58032,-36.5562 L 9.66501,-36.4946 L 9.75566,-36.4423
 L 9.85129,-36.3998 L 9.95084,-36.3674 L 10.0532,-36.3456 L 10.2096,-36.3333 L 10.2791,-36.3333 L 10.3836,-36.3388
 L 10.487,-36.3552 L 10.5881,-36.3823 L 10.6858,-36.4198 L 10.7791,-36.4673 L 10.8669,-36.5243 L 10.9482,-36.5902
 L 11.0222,-36.6642 L 11.0881,-36.7455 L 11.1451,-36.8333 L 11.1926,-36.9266 L 11.2301,-37.0243 L 11.2572,-37.1254
 L 11.2668,-37.1769 L 11.6788,-39.7783 L 12.5186,-42.9125 L 13.6813,-45.9416 L 15.1544,-48.8327 L 16.9216,-51.5538
 L 18.9635,-54.0754 L 21.2579,-56.3698 L 23.7795,-58.4118 L 26.5006,-60.1789 L 29.3918,-61.652 L 32.4209,-62.8148
 L 35.5551,-63.6546 L 38.7598,-64.1621 L 42,-64.332 L 45.2402,-64.1621 L 48.4449,-63.6546 L 51.5791,-62.8148
 L 54.6082,-61.652 L 57.4994,-60.1789 L 60.2205,-58.4118 L 62.7421,-56.3698 L 65.0365,-54.0754 L 67.0784,-51.5538
 L 68.8456,-48.8327 L 70.3187,-45.9416 L 70.399,-45.7323 L 58,-33.3333 L 93,-33.3333 z
" stroke="white" fill="white" stroke-width="0.5"/>
</svg>
