<?xml version="1.0" standalone="no"?>
<!DOCTYPE svg PUBLIC "-//W3C//DTD SVG 1.1//EN" "http://www.w3.org/Graphics/SVG/1.1/DTD/svg11.dtd">
<svg width="100mm" height="100mm" viewBox="-8 -108 116 116" xmlns="http://www.w3.org/2000/svg" version="1.1">
<title>OpenSCAD Model</title>
<path d="
M 85.4014,-28.0142 L 85.5545,-28.0729 L 85.741,-28.1679 L 85.9166,-28.282 L 86.0793,-28.4137 L 86.2273,-28.5617
 L 86.359,-28.7244 L 86.4731,-28.9 L 86.4897,-28.9327 L 86.5096,-28.9634 L 86.6047,-29.1499 L 86.6797,-29.3453
 L 86.7339,-29.5475 L 86.7667,-29.7543 L 86.7776,-29.9633 L 86.7667,-30.1724 L 86.741,-30.3344 L 86.741,-69.5924
 L 86.7667,-69.7543 L 86.7776,-69.9633 L 86.7757,-70 L 86.7776,-70.0366 L 86.7667,-70.2457 L 86.7339,-70.4525
 L 86.6797,-70.6547 L 86.6047,-70.8501 L 86.5096,-71.0366 L 86.4897,-71.0673 L 86.4731,-71.1 L 86.359,-71.2756
 L 86.2273,-71.4382 L 86.0793,-71.5863 L 85.9166,-71.718 L 85.741,-71.832 L 85.7083,-71.8487 L 85.6776,-71.8686
 L 85.4911,-71.9637 L 85.338,-72.0224 L 51.3395,-91.6515 L 51.2122,-91.7546 L 51.0367,-91.8686 L 50.8502,-91.9636
 L 50.6547,-92.0387 L 50.4525,-92.0929 L 50.2458,-92.1256 L 50.0367,-92.1366 L 49.9999,-92.1347 L 49.9631,-92.1366
 L 49.754,-92.1256 L 49.5473,-92.0928 L 49.3451,-92.0386 L 49.1497,-91.9636 L 48.9632,-91.8685 L 48.7876,-91.7545
 L 48.6605,-91.6515 L 14.662,-72.0224 L 14.5089,-71.9637 L 14.3224,-71.8686 L 14.2917,-71.8487 L 14.259,-71.832
 L 14.0834,-71.718 L 13.9207,-71.5863 L 13.7727,-71.4382 L 13.641,-71.2756 L 13.5269,-71.1 L 13.5103,-71.0673
 L 13.4904,-71.0366 L 13.3953,-70.8501 L 13.3203,-70.6547 L 13.2661,-70.4525 L 13.2333,-70.2457 L 13.2224,-70.0366
 L 13.2243,-70.0001 L 13.2224,-69.9637 L 13.2333,-69.7547 L 13.259,-69.5923 L 13.259,-30.3344 L 13.2333,-30.1725
 L 13.2224,-29.9634 L 13.2333,-29.7544 L 13.2661,-29.5476 L 13.3203,-29.3454 L 13.3953,-29.15 L 13.4903,-28.9634
 L 13.5103,-28.9327 L 13.5269,-28.9 L 13.641,-28.7244 L 13.7727,-28.5617 L 13.9207,-28.4137 L 14.0834,-28.282
 L 14.259,-28.1679 L 14.4455,-28.0729 L 14.5986,-28.0142 L 34.4566,-16.5491 L 36.5404,-20.1958 L 17.459,-31.2124
 L 17.459,-66.3627 L 47.9,-48.7875 L 47.9,-46 L 52.1,-46 L 52.1,-48.7875 L 82.541,-66.3627
 L 82.541,-31.2124 L 63.4596,-20.1958 L 65.5434,-16.5491 z
M 19.559,-70 L 50,-87.5751 L 80.441,-70 L 50,-52.4249 z
M 64.4,-4.8 L 62,-4.8 L 61.9956,-4.88362 L 61.9825,-4.96631 L 61.9608,-5.0472 L 61.9308,-5.12537
 L 61.8928,-5.20001 L 52.5214,-22.381 L 61.8928,-38 L 61.9308,-38.0746 L 61.9608,-38.1528 L 61.9825,-38.2337
 L 61.9956,-38.3163 L 62,-38.4 L 64.4,-38.4 L 64.4,-41.6 L 35.6,-41.6 L 35.6,-38.4
 L 38,-38.4 L 38.0044,-38.3163 L 38.0175,-38.2337 L 38.0392,-38.1528 L 38.0692,-38.0746 L 38.1072,-38
 L 47.4786,-22.381 L 38.1072,-5.20001 L 38.0692,-5.12537 L 38.0392,-5.0472 L 38.0175,-4.96631 L 38.0044,-4.88362
 L 38,-4.8 L 35.6,-4.8 L 35.6,-1.60001 L 64.4,-1.60001 z
M 39.711,-4.8 L 49.0928,-22 L 49.1309,-22.0746 L 49.1609,-22.1528 L 49.1825,-22.2337 L 49.1956,-22.3163
 L 49.2,-22.4 L 49.1956,-22.4836 L 49.1825,-22.5663 L 49.1609,-22.6472 L 49.1309,-22.7254 L 49.0928,-22.8
 L 39.7328,-38.4 L 60.2672,-38.4 L 50.9072,-22.8 L 50.8691,-22.7254 L 50.8391,-22.6472 L 50.8175,-22.5663
 L 50.8044,-22.4836 L 50.8,-22.4 L 50.8044,-22.3163 L 50.8175,-22.2337 L 50.8391,-22.1528 L 50.8691,-22.0746
 L 50.9072,-22 L 60.289,-4.8 z
M 50.16,-9.60001 L 50.32,-23.2 L 56.4,-33.6 L 43.6,-33.6 L 49.68,-23.2 L 49.84,-9.60001
 L 42,-5.60001 L 58,-5.60001 z
" stroke="black" fill="black" stroke-width="0.5"/>
</svg>
