<?xml version="1.0" standalone="no"?>
<!DOCTYPE svg PUBLIC "-//W3C//DTD SVG 1.1//EN" "http://www.w3.org/Graphics/SVG/1.1/DTD/svg11.dtd">
<svg width="74mm" height="96mm" viewBox="-37 -83 74 96" xmlns="http://www.w3.org/2000/svg" version="1.1">
<title>OpenSCAD Model</title>
<path d="
M 35.4014,-18.0142 L 35.5545,-18.0729 L 35.741,-18.1679 L 35.9166,-18.282 L 36.0793,-18.4137 L 36.2273,-18.5617
 L 36.359,-18.7244 L 36.4731,-18.9 L 36.4897,-18.9327 L 36.5096,-18.9634 L 36.6047,-19.1499 L 36.6797,-19.3453
 L 36.7339,-19.5475 L 36.7667,-19.7543 L 36.7776,-19.9633 L 36.7667,-20.1724 L 36.741,-20.3344 L 36.741,-59.5924
 L 36.7667,-59.7543 L 36.7776,-59.9633 L 36.7757,-60 L 36.7776,-60.0366 L 36.7667,-60.2457 L 36.7339,-60.4525
 L 36.6797,-60.6547 L 36.6047,-60.8501 L 36.5096,-61.0366 L 36.4897,-61.0673 L 36.4731,-61.1 L 36.359,-61.2756
 L 36.2273,-61.4382 L 36.0793,-61.5863 L 35.9166,-61.718 L 35.741,-61.832 L 35.7083,-61.8487 L 35.6776,-61.8686
 L 35.4911,-61.9637 L 35.338,-62.0224 L 1.33954,-81.6515 L 1.21225,-81.7546 L 1.03668,-81.8686 L 0.850174,-81.9636
 L 0.654739,-82.0387 L 0.45253,-82.0929 L 0.245758,-82.1256 L 0.0366974,-82.1366 L -7.62939e-05,-82.1347 L -0.0368958,-82.1366
 L -0.245956,-82.1256 L -0.452713,-82.0928 L -0.654907,-82.0386 L -0.850342,-81.9636 L -1.03685,-81.8685 L -1.2124,-81.7545
 L -1.33946,-81.6515 L -35.338,-62.0224 L -35.4911,-61.9637 L -35.6776,-61.8686 L -35.7083,-61.8487 L -35.741,-61.832
 L -35.9166,-61.718 L -36.0793,-61.5863 L -36.2273,-61.4382 L -36.359,-61.2756 L -36.4731,-61.1 L -36.4897,-61.0673
 L -36.5096,-61.0366 L -36.6047,-60.8501 L -36.6797,-60.6547 L -36.7339,-60.4525 L -36.7667,-60.2457 L -36.7776,-60.0366
 L -36.7757,-60.0001 L -36.7776,-59.9637 L -36.7667,-59.7547 L -36.741,-59.5923 L -36.741,-20.3344 L -36.7667,-20.1725
 L -36.7776,-19.9634 L -36.7667,-19.7544 L -36.7339,-19.5476 L -36.6797,-19.3454 L -36.6047,-19.15 L -36.5097,-18.9634
 L -36.4897,-18.9327 L -36.4731,-18.9 L -36.359,-18.7244 L -36.2273,-18.5617 L -36.0793,-18.4137 L -35.9166,-18.282
 L -35.741,-18.1679 L -35.5545,-18.0729 L -35.4014,-18.0142 L -9.31023,-2.95038 L -7.07526,-6.50978 L -32.541,-21.2124
 L -32.541,-56.3627 L -2.09999,-38.7875 L -2.09999,-35 L 2.09999,-35 L 2.09999,-38.7875 L 32.541,-56.3627
 L 32.541,-21.2124 L 7.07526,-6.50978 L 9.31023,-2.95038 z
M -30.441,-60 L 0,-77.5751 L 30.441,-60 L 0,-42.4249 z
M 16,7.59999 L 13.0807,7.59999 L 2.91931,-10 L 13.0807,-27.6 L 16,-27.6 L 16,-32.4
 L -16,-32.4 L -16,-27.6 L -13.0807,-27.6 L -2.91931,-10 L -13.0807,7.59999 L -16,7.59999
 L -16,12.4 L 16,12.4 z
M -11.2332,7.59999 L -1.08099,-9.98401 L -1.06715,-9.99199 L -1.07178,-10 L -1.06715,-10.008 L -1.08099,-10.016
 L -11.2332,-27.6 L 11.2332,-27.6 L 1.08099,-10.016 L 1.06715,-10.008 L 1.07178,-10 L 1.06715,-9.99199
 L 1.08099,-9.98401 L 11.2332,7.59999 z
M 0.159973,2 L 0.319992,-11.6 L 6.39999,-22 L -6.39999,-22 L -0.319992,-11.6 L -0.159973,2
 L -8,6 L 8,6 z
" stroke="white" fill="white" stroke-width="0.5"/>
</svg>
