<?xml version="1.0" standalone="no"?>
<!DOCTYPE svg PUBLIC "-//W3C//DTD SVG 1.1//EN" "http://www.w3.org/Graphics/SVG/1.1/DTD/svg11.dtd">
<svg width="100mm" height="100mm" viewBox="-8 -108 116 116" xmlns="http://www.w3.org/2000/svg" version="1.1">
<title>OpenSCAD Model</title>
<path d="
M 53.8678,-11.1972 L 54.2842,-11.241 L 57.9026,-11.8141 L 58.3122,-11.9011 L 61.8508,-12.8493 L 62.249,-12.9787
 L 65.6692,-14.2916 L 66.0517,-14.4619 L 69.316,-16.1251 L 69.6786,-16.3344 L 72.751,-18.3297 L 73.0898,-18.5758
 L 75.9368,-20.8814 L 76.248,-21.1615 L 78.8385,-23.752 L 79.1186,-24.0632 L 81.4242,-26.9102 L 81.6703,-27.249
 L 83.6656,-30.3214 L 83.8749,-30.684 L 85.5381,-33.9483 L 85.7084,-34.3308 L 87.0213,-37.751 L 87.1507,-38.1492
 L 88.0989,-41.6878 L 88.1859,-42.0974 L 88.759,-45.7158 L 88.8028,-46.1322 L 88.9945,-49.7906 L 88.9945,-50.2094
 L 88.8028,-53.8678 L 88.759,-54.2842 L 88.1859,-57.9026 L 88.0989,-58.3122 L 87.1507,-61.8508 L 87.0213,-62.249
 L 85.7084,-65.6692 L 85.5381,-66.0517 L 83.8749,-69.316 L 83.6656,-69.6786 L 81.6703,-72.751 L 81.4242,-73.0898
 L 79.1186,-75.9368 L 78.8385,-76.248 L 76.248,-78.8385 L 75.9368,-79.1186 L 73.0898,-81.4242 L 72.751,-81.6703
 L 69.6786,-83.6656 L 69.316,-83.8749 L 66.0517,-85.5381 L 65.6692,-85.7084 L 62.249,-87.0213 L 61.8508,-87.1507
 L 58.3122,-88.0989 L 57.9026,-88.1859 L 54.2842,-88.759 L 53.8678,-88.8028 L 50.2094,-88.9945 L 49.7906,-88.9945
 L 46.1322,-88.8028 L 45.7158,-88.759 L 42.0974,-88.1859 L 41.6878,-88.0989 L 38.1492,-87.1507 L 37.751,-87.0213
 L 34.3308,-85.7084 L 33.9483,-85.5381 L 30.684,-83.8749 L 30.3214,-83.6656 L 27.249,-81.6703 L 26.9102,-81.4242
 L 24.0632,-79.1186 L 23.752,-78.8385 L 22.5846,-77.6711 L 16.7245,-82.5883 L 15.6098,-68.3046 L 15.1592,-67.4204
 L 15.5265,-67.2368 L 15.3859,-65.4358 L 17.8548,-66.0726 L 18.7371,-65.6315 L 19.1293,-66.4013 L 32.0454,-69.7326
 L 25.6605,-75.0901 L 26.5804,-76.0101 L 29.4275,-78.3156 L 32.5,-80.3109 L 35.7642,-81.9741 L 39.1844,-83.287
 L 42.7231,-84.2352 L 46.3415,-84.8083 L 50,-85 L 53.6585,-84.8083 L 57.2769,-84.2352 L 60.8156,-83.287
 L 64.2358,-81.9741 L 67.5,-80.3109 L 70.5725,-78.3156 L 73.4196,-76.0101 L 76.0101,-73.4196 L 78.3156,-70.5725
 L 80.3109,-67.5 L 81.9741,-64.2358 L 83.287,-60.8156 L 84.2352,-57.2769 L 84.8083,-53.6585 L 85,-50
 L 84.8083,-46.3415 L 84.2352,-42.7231 L 83.287,-39.1844 L 81.9741,-35.7642 L 80.3109,-32.5 L 78.3156,-29.4275
 L 76.0101,-26.5804 L 73.4196,-23.9899 L 70.5725,-21.6844 L 67.5,-19.6891 L 64.2358,-18.0259 L 60.8156,-16.713
 L 57.2769,-15.7648 L 53.6585,-15.1917 L 50,-15 L 46.3415,-15.1917 L 42.7231,-15.7648 L 39.1844,-16.713
 L 35.7642,-18.0259 L 32.5,-19.6891 L 29.4275,-21.6844 L 26.5804,-23.9899 L 23.9899,-26.5804 L 21.6844,-29.4275
 L 19.6891,-32.5 L 18.7371,-34.3685 L 15.1592,-32.5796 L 16.1251,-30.684 L 16.3344,-30.3214 L 18.3297,-27.249
 L 18.5758,-26.9102 L 20.8814,-24.0632 L 21.1615,-23.752 L 23.752,-21.1615 L 24.0632,-20.8814 L 26.9102,-18.5758
 L 27.249,-18.3297 L 30.3214,-16.3344 L 30.684,-16.1251 L 33.9483,-14.4619 L 34.3308,-14.2916 L 37.751,-12.9787
 L 38.1492,-12.8493 L 41.6878,-11.9011 L 42.0974,-11.8141 L 45.7158,-11.241 L 46.1322,-11.1972 L 49.7906,-11.0055
 L 50.2094,-11.0055 z
" stroke="black" fill="black" stroke-width="0.5"/>
</svg>
