<?xml version="1.0" standalone="no"?>
<!DOCTYPE svg PUBLIC "-//W3C//DTD SVG 1.1//EN" "http://www.w3.org/Graphics/SVG/1.1/DTD/svg11.dtd">
<svg width="100mm" height="100mm" viewBox="-8 -108 116 116" xmlns="http://www.w3.org/2000/svg" version="1.1">
<title>OpenSCAD Model</title>
<path d="
M 50.3091,-65.111 L 50.5158,-65.1437 L 50.718,-65.1979 L 50.9135,-65.2729 L 51.1,-65.368 L 51.2756,-65.482
 L 51.4382,-65.6137 L 51.5863,-65.7617 L 51.718,-65.9244 L 51.832,-66.1 L 51.9271,-66.2865 L 52.0021,-66.482
 L 52.0563,-66.6842 L 52.089,-66.8909 L 52.1,-67.1 L 52.1,-89.1627 L 55.6313,-83.0462 L 55.7454,-82.8707
 L 55.8771,-82.708 L 56.0251,-82.56 L 56.1878,-82.4282 L 56.3634,-82.3142 L 56.5499,-82.2191 L 56.7453,-82.1441
 L 56.9476,-82.0899 L 57.1543,-82.0572 L 57.3634,-82.0462 L 57.5724,-82.0572 L 57.7792,-82.0899 L 57.9814,-82.1441
 L 58.1769,-82.2191 L 58.3633,-82.3141 L 58.5365,-82.4141 L 58.7121,-82.5282 L 58.8748,-82.6599 L 59.0228,-82.8079
 L 59.1546,-82.9706 L 59.2686,-83.1462 L 59.3636,-83.3327 L 59.4387,-83.5281 L 59.4929,-83.7303 L 59.5256,-83.9371
 L 59.5366,-84.1462 L 59.5256,-84.3552 L 59.4929,-84.562 L 59.4387,-84.7642 L 59.3637,-84.9596 L 59.2686,-85.1462
 L 52.0224,-97.697 L 51.9637,-97.8501 L 51.8686,-98.0366 L 51.8487,-98.0673 L 51.832,-98.1 L 51.718,-98.2756
 L 51.5863,-98.4382 L 51.4382,-98.5863 L 51.2756,-98.718 L 51.1,-98.832 L 51.0673,-98.8487 L 51.0366,-98.8686
 L 50.8501,-98.9637 L 50.6547,-99.0387 L 50.4525,-99.0929 L 50.2457,-99.1256 L 50.0366,-99.1366 L 50.0001,-99.1347
 L 49.9637,-99.1366 L 49.7547,-99.1257 L 49.5479,-99.093 L 49.3457,-99.0388 L 49.1502,-98.9638 L 48.9637,-98.8688
 L 48.9328,-98.8487 L 48.9,-98.832 L 48.7244,-98.718 L 48.5618,-98.5863 L 48.4137,-98.4382 L 48.282,-98.2756
 L 48.168,-98.1 L 48.1513,-98.0673 L 48.1314,-98.0366 L 48.0363,-97.8501 L 47.9776,-97.697 L 40.7314,-85.1462
 L 40.6363,-84.9597 L 40.5613,-84.7643 L 40.5071,-84.562 L 40.4744,-84.3553 L 40.4634,-84.1462 L 40.4744,-83.9372
 L 40.5071,-83.7304 L 40.5613,-83.5282 L 40.6363,-83.3327 L 40.7314,-83.1462 L 40.8454,-82.9707 L 40.9771,-82.808
 L 41.1252,-82.6599 L 41.2878,-82.5282 L 41.4635,-82.4141 L 41.6367,-82.3141 L 41.8232,-82.2191 L 42.0186,-82.1441
 L 42.2209,-82.0899 L 42.4276,-82.0572 L 42.6367,-82.0462 L 42.8457,-82.0572 L 43.0525,-82.09 L 43.2547,-82.1441
 L 43.4501,-82.2192 L 43.6367,-82.3142 L 43.8122,-82.4282 L 43.9749,-82.56 L 44.1229,-82.708 L 44.2547,-82.8707
 L 44.3687,-83.0462 L 47.9,-89.1627 L 47.9,-67.1 L 47.911,-66.8909 L 47.9437,-66.6842 L 47.9979,-66.482
 L 48.0729,-66.2865 L 48.168,-66.1 L 48.282,-65.9244 L 48.4137,-65.7617 L 48.5618,-65.6137 L 48.7244,-65.482
 L 48.9,-65.368 L 49.0865,-65.2729 L 49.282,-65.1979 L 49.4842,-65.1437 L 49.6909,-65.111 L 49.9,-65.1
 L 50.1,-65.1 z
M 50.246,-7.87439 L 50.4527,-7.90717 L 50.6549,-7.96138 L 50.8503,-8.03644 L 51.0368,-8.1315 L 51.0674,-8.15135
 L 51.1,-8.16795 L 51.2756,-8.28198 L 51.4028,-8.38506 L 85.4014,-28.0142 L 85.5545,-28.0729 L 85.741,-28.1679
 L 85.9166,-28.282 L 86.0793,-28.4137 L 86.2273,-28.5617 L 86.359,-28.7244 L 86.4731,-28.9 L 86.4897,-28.9327
 L 86.5096,-28.9634 L 86.6047,-29.1499 L 86.6797,-29.3453 L 86.7339,-29.5475 L 86.7667,-29.7543 L 86.7776,-29.9633
 L 86.7667,-30.1724 L 86.741,-30.3344 L 86.741,-69.5924 L 86.7667,-69.7543 L 86.7776,-69.9633 L 86.7757,-70
 L 86.7776,-70.0366 L 86.7667,-70.2457 L 86.7339,-70.4525 L 86.6797,-70.6547 L 86.6047,-70.8501 L 86.5096,-71.0366
 L 86.4897,-71.0673 L 86.4731,-71.1 L 86.359,-71.2756 L 86.2273,-71.4382 L 86.0793,-71.5863 L 85.9166,-71.718
 L 85.741,-71.832 L 85.7083,-71.8487 L 85.6776,-71.8686 L 85.4911,-71.9637 L 85.338,-72.0224 L 70,-80.8779
 L 70,-76.0281 L 80.441,-70 L 50,-52.4249 L 19.559,-70 L 30,-76.0281 L 30,-80.8779
 L 14.662,-72.0224 L 14.5089,-71.9637 L 14.3224,-71.8686 L 14.2917,-71.8487 L 14.259,-71.832 L 14.0834,-71.718
 L 13.9207,-71.5863 L 13.7727,-71.4382 L 13.641,-71.2756 L 13.5269,-71.1 L 13.5103,-71.0673 L 13.4904,-71.0366
 L 13.3953,-70.8501 L 13.3203,-70.6547 L 13.2661,-70.4525 L 13.2333,-70.2457 L 13.2224,-70.0366 L 13.2243,-70.0001
 L 13.2224,-69.9637 L 13.2333,-69.7547 L 13.259,-69.5923 L 13.259,-30.3344 L 13.2333,-30.1725 L 13.2224,-29.9634
 L 13.2333,-29.7544 L 13.2661,-29.5476 L 13.3203,-29.3454 L 13.3953,-29.15 L 13.4903,-28.9634 L 13.5103,-28.9327
 L 13.5269,-28.9 L 13.641,-28.7244 L 13.7727,-28.5617 L 13.9207,-28.4137 L 14.0834,-28.282 L 14.259,-28.1679
 L 14.4455,-28.0729 L 14.5986,-28.0142 L 48.5972,-8.38506 L 48.7244,-8.28198 L 48.9,-8.16795 L 48.9327,-8.15129
 L 48.9634,-8.13138 L 49.1499,-8.03633 L 49.3453,-7.9613 L 49.5475,-7.90712 L 49.7543,-7.87436 L 49.9634,-7.8634
 L 50.0001,-7.86533 L 50.0369,-7.8634 z
M 17.459,-31.2124 L 17.459,-66.3627 L 47.9,-48.7875 L 47.9,-13.6373 z
M 52.1,-48.7875 L 82.541,-66.3627 L 82.541,-31.2124 L 52.1,-13.6373 z
" stroke="black" fill="black" stroke-width="0.5"/>
</svg>
