<?xml version="1.0" standalone="no"?>
<!DOCTYPE svg PUBLIC "-//W3C//DTD SVG 1.1//EN" "http://www.w3.org/Graphics/SVG/1.1/DTD/svg11.dtd">
<svg width="74mm" height="96mm" viewBox="-37 -93 74 96" xmlns="http://www.w3.org/2000/svg" version="1.1">
<title>OpenSCAD Model</title>
<path d="
M 0.309052,-58.1109 L 0.515808,-58.1437 L 0.718018,-58.1979 L 0.913467,-58.2729 L 1.09999,-58.3679 L 1.27556,-58.482
 L 1.43825,-58.6137 L 1.58627,-58.7617 L 1.71802,-58.9244 L 1.83205,-59.1 L 1.92708,-59.2865 L 2.00211,-59.482
 L 2.05629,-59.6842 L 2.08904,-59.8909 L 2.09999,-60.1 L 2.09999,-82.1627 L 5.63133,-76.0462 L 5.74535,-75.8707
 L 5.87709,-75.708 L 6.02513,-75.5599 L 6.18782,-75.4282 L 6.36339,-75.3142 L 6.54991,-75.2191 L 6.74535,-75.1441
 L 6.94756,-75.0899 L 7.15433,-75.0572 L 7.36339,-75.0462 L 7.57245,-75.0572 L 7.77921,-75.0899 L 7.98141,-75.1441
 L 8.17686,-75.2191 L 8.36333,-75.3141 L 8.53653,-75.4141 L 8.71211,-75.5281 L 8.8748,-75.6599 L 9.02284,-75.8079
 L 9.15459,-75.9706 L 9.26862,-76.1461 L 9.36365,-76.3327 L 9.43869,-76.5281 L 9.49287,-76.7303 L 9.52563,-76.9371
 L 9.53659,-77.1461 L 9.52563,-77.3552 L 9.4929,-77.562 L 9.43872,-77.7642 L 9.36371,-77.9596 L 9.26865,-78.1462
 L 2.02243,-90.697 L 1.96367,-90.8501 L 1.86862,-91.0366 L 1.84871,-91.0673 L 1.83205,-91.1 L 1.71802,-91.2756
 L 1.58627,-91.4382 L 1.43825,-91.5863 L 1.27556,-91.718 L 1.09999,-91.832 L 1.06728,-91.8487 L 1.03662,-91.8686
 L 0.850098,-91.9637 L 0.654663,-92.0387 L 0.452454,-92.0929 L 0.245682,-92.1256 L 0.0366364,-92.1366 L 0.000137329,-92.1347
 L -0.0362701,-92.1366 L -0.245331,-92.1257 L -0.452103,-92.093 L -0.654312,-92.0388 L -0.849777,-91.9638 L -1.03632,-91.8688
 L -1.06721,-91.8487 L -1.09999,-91.832 L -1.27556,-91.718 L -1.43825,-91.5863 L -1.58627,-91.4382 L -1.71802,-91.2756
 L -1.83205,-91.1 L -1.84871,-91.0673 L -1.86862,-91.0366 L -1.96367,-90.8501 L -2.02243,-90.697 L -9.26865,-78.1462
 L -9.36368,-77.9597 L -9.43871,-77.7642 L -9.49289,-77.562 L -9.52563,-77.3553 L -9.53659,-77.1462 L -9.52563,-76.9371
 L -9.49289,-76.7304 L -9.43871,-76.5282 L -9.36368,-76.3327 L -9.26865,-76.1462 L -9.15462,-75.9706 L -9.02287,-75.808
 L -8.87485,-75.6599 L -8.71216,-75.5282 L -8.53653,-75.4141 L -8.36333,-75.3141 L -8.1768,-75.2191 L -7.98135,-75.1441
 L -7.77914,-75.0899 L -7.57237,-75.0572 L -7.36333,-75.0462 L -7.15427,-75.0572 L -6.94749,-75.0899 L -6.74529,-75.1441
 L -6.54985,-75.2192 L -6.36333,-75.3142 L -6.18776,-75.4282 L -6.02507,-75.56 L -5.87706,-75.708 L -5.74532,-75.8707
 L -5.63133,-76.0462 L -2.09999,-82.1627 L -2.09999,-60.1 L -2.08904,-59.8909 L -2.05629,-59.6842 L -2.00211,-59.482
 L -1.92708,-59.2865 L -1.83205,-59.1 L -1.71802,-58.9244 L -1.58627,-58.7617 L -1.43825,-58.6137 L -1.27556,-58.482
 L -1.09999,-58.3679 L -0.913467,-58.2729 L -0.718018,-58.1979 L -0.515808,-58.1437 L -0.309052,-58.1109 L -0.0999908,-58.1
 L 0.0999908,-58.1 z
M 0.245956,2.12561 L 0.452713,2.09283 L 0.654907,2.03862 L 0.850342,1.96356 L 1.03685,1.8685 L 1.06741,1.84865
 L 1.09999,1.83205 L 1.27556,1.71802 L 1.40285,1.61494 L 35.4014,-18.0142 L 35.5545,-18.0729 L 35.741,-18.1679
 L 35.9166,-18.282 L 36.0793,-18.4137 L 36.2273,-18.5617 L 36.359,-18.7244 L 36.4731,-18.9 L 36.4897,-18.9327
 L 36.5096,-18.9634 L 36.6047,-19.1499 L 36.6797,-19.3453 L 36.7339,-19.5475 L 36.7667,-19.7543 L 36.7776,-19.9633
 L 36.7667,-20.1724 L 36.741,-20.3344 L 36.741,-59.5924 L 36.7667,-59.7543 L 36.7776,-59.9633 L 36.7757,-60
 L 36.7776,-60.0366 L 36.7667,-60.2457 L 36.7339,-60.4525 L 36.6797,-60.6547 L 36.6047,-60.8501 L 36.5096,-61.0366
 L 36.4897,-61.0673 L 36.4731,-61.1 L 36.359,-61.2756 L 36.2273,-61.4382 L 36.0793,-61.5863 L 35.9166,-61.718
 L 35.741,-61.832 L 35.7083,-61.8487 L 35.6776,-61.8686 L 35.4911,-61.9637 L 35.338,-62.0224 L 20,-70.8779
 L 20,-66.0281 L 30.441,-60 L 0,-42.4249 L -30.441,-60 L -20,-66.0281 L -20,-70.8779
 L -35.338,-62.0224 L -35.4911,-61.9637 L -35.6776,-61.8686 L -35.7083,-61.8487 L -35.741,-61.832 L -35.9166,-61.718
 L -36.0793,-61.5863 L -36.2273,-61.4382 L -36.359,-61.2756 L -36.4731,-61.1 L -36.4897,-61.0673 L -36.5096,-61.0366
 L -36.6047,-60.8501 L -36.6797,-60.6547 L -36.7339,-60.4525 L -36.7667,-60.2457 L -36.7776,-60.0366 L -36.7757,-60.0001
 L -36.7776,-59.9637 L -36.7667,-59.7547 L -36.741,-59.5923 L -36.741,-20.3344 L -36.7667,-20.1725 L -36.7776,-19.9634
 L -36.7667,-19.7544 L -36.7339,-19.5476 L -36.6797,-19.3454 L -36.6047,-19.15 L -36.5097,-18.9634 L -36.4897,-18.9327
 L -36.4731,-18.9 L -36.359,-18.7244 L -36.2273,-18.5617 L -36.0793,-18.4137 L -35.9166,-18.282 L -35.741,-18.1679
 L -35.5545,-18.0729 L -35.4014,-18.0142 L -1.40285,1.61494 L -1.27556,1.71802 L -1.09999,1.83205 L -1.06728,1.84871
 L -1.03662,1.86862 L -0.850098,1.96367 L -0.654663,2.0387 L -0.452454,2.09288 L -0.245682,2.12564 L -0.0366364,2.1366
 L 7.62939e-05,2.13467 L 0.0368958,2.1366 z
M -32.541,-21.2124 L -32.541,-56.3627 L -2.09999,-38.7875 L -2.09999,-3.6373 z
M 2.09999,-38.7875 L 32.541,-56.3627 L 32.541,-21.2124 L 2.09999,-3.6373 z
" stroke="white" fill="white" stroke-width="0.5"/>
</svg>
