<?xml version="1.0" standalone="no"?>
<!DOCTYPE svg PUBLIC "-//W3C//DTD SVG 1.1//EN" "http://www.w3.org/Graphics/SVG/1.1/DTD/svg11.dtd">
<svg width="100mm" height="100mm" viewBox="-8 -108 116 116" xmlns="http://www.w3.org/2000/svg" version="1.1">
<title>OpenSCAD Model</title>
<path d="
M 15.2981,-70.0089 L 15.4963,-70.0247 L 15.6937,-70.0483 L 15.89,-70.0798 L 16.0849,-70.1191 L 16.2781,-70.1661
 L 16.4693,-70.2207 L 16.6581,-70.2829 L 16.8443,-70.3526 L 17.0276,-70.4296 L 17.2077,-70.5138 L 17.3843,-70.6051
 L 17.5572,-70.7034 L 17.726,-70.8084 L 17.8905,-70.9201 L 18.0504,-71.0383 L 18.2055,-71.1627 L 18.3555,-71.2932
 L 18.5002,-71.4295 L 18.6394,-71.5715 L 18.7728,-71.7189 L 18.9003,-71.8714 L 19.0216,-72.029 L 19.1365,-72.1912
 L 19.2449,-72.3579 L 19.3466,-72.5287 L 19.4414,-72.7035 L 19.5292,-72.8819 L 19.6098,-73.0636 L 19.6832,-73.2484
 L 19.7491,-73.436 L 19.8075,-73.6261 L 19.8584,-73.8183 L 19.9015,-74.0124 L 19.9369,-74.208 L 19.9645,-74.4049
 L 19.9842,-74.6027 L 19.996,-74.8012 L 20,-75 L 19.996,-75.1988 L 19.9842,-75.3972 L 19.9645,-75.5951
 L 19.9369,-75.792 L 19.9015,-75.9876 L 19.8584,-76.1817 L 19.8075,-76.3739 L 19.7491,-76.564 L 19.6832,-76.7515
 L 19.6098,-76.9364 L 19.5292,-77.1181 L 19.4414,-77.2965 L 19.3466,-77.4712 L 19.2449,-77.6421 L 19.1365,-77.8088
 L 19.0216,-77.971 L 18.9003,-78.1285 L 18.7728,-78.2811 L 18.6394,-78.4285 L 18.5002,-78.5705 L 18.3555,-78.7068
 L 18.2055,-78.8373 L 18.0504,-78.9617 L 17.8905,-79.0798 L 17.726,-79.1915 L 17.5572,-79.2966 L 17.3843,-79.3949
 L 17.2077,-79.4862 L 17.0276,-79.5704 L 16.8443,-79.6474 L 16.6581,-79.7171 L 16.4693,-79.7793 L 16.2781,-79.8339
 L 16.0849,-79.8809 L 15.89,-79.9202 L 15.6937,-79.9516 L 15.4963,-79.9753 L 15.2981,-79.9911 L 15.0994,-79.999
 L 14.9006,-79.999 L 14.7019,-79.9911 L 14.5037,-79.9753 L 14.3063,-79.9516 L 14.11,-79.9202 L 13.9151,-79.8809
 L 13.7219,-79.8339 L 13.5308,-79.7793 L 13.3419,-79.7171 L 13.1557,-79.6474 L 12.9724,-79.5704 L 12.7923,-79.4862
 L 12.6157,-79.3949 L 12.4428,-79.2966 L 12.274,-79.1915 L 12.1095,-79.0798 L 11.9496,-78.9617 L 11.7945,-78.8373
 L 11.6445,-78.7068 L 11.4998,-78.5705 L 11.3606,-78.4285 L 11.2272,-78.2811 L 11.0997,-78.1285 L 10.9784,-77.971
 L 10.8635,-77.8088 L 10.7551,-77.6421 L 10.6534,-77.4712 L 10.5586,-77.2965 L 10.4708,-77.1181 L 10.3902,-76.9364
 L 10.3168,-76.7515 L 10.2509,-76.564 L 10.1925,-76.3739 L 10.1417,-76.1817 L 10.0985,-75.9876 L 10.0631,-75.792
 L 10.0356,-75.5951 L 10.0158,-75.3972 L 10.004,-75.1988 L 10,-75 L 10.004,-74.8012 L 10.0158,-74.6027
 L 10.0356,-74.4049 L 10.0631,-74.208 L 10.0985,-74.0124 L 10.1417,-73.8183 L 10.1925,-73.6261 L 10.2509,-73.436
 L 10.3168,-73.2484 L 10.3902,-73.0636 L 10.4708,-72.8819 L 10.5586,-72.7035 L 10.6534,-72.5287 L 10.7551,-72.3579
 L 10.8635,-72.1912 L 10.9784,-72.029 L 11.0997,-71.8714 L 11.2272,-71.7189 L 11.3606,-71.5715 L 11.4998,-71.4295
 L 11.6445,-71.2932 L 11.7945,-71.1627 L 11.9496,-71.0383 L 12.1095,-70.9201 L 12.274,-70.8084 L 12.4428,-70.7034
 L 12.6157,-70.6051 L 12.7923,-70.5138 L 12.9724,-70.4296 L 13.1557,-70.3526 L 13.3419,-70.2829 L 13.5308,-70.2207
 L 13.7219,-70.1661 L 13.9151,-70.1191 L 14.11,-70.0798 L 14.3063,-70.0483 L 14.5037,-70.0247 L 14.7019,-70.0089
 L 14.9006,-70.001 L 15.0994,-70.001 z
M 85.2981,-70.0089 L 85.4963,-70.0247 L 85.6937,-70.0483 L 85.89,-70.0798 L 86.0849,-70.1191 L 86.2781,-70.1661
 L 86.4692,-70.2207 L 86.6581,-70.2829 L 86.8443,-70.3526 L 87.0276,-70.4296 L 87.2077,-70.5138 L 87.3843,-70.6051
 L 87.5572,-70.7034 L 87.726,-70.8084 L 87.8905,-70.9201 L 88.0504,-71.0383 L 88.2055,-71.1627 L 88.3555,-71.2932
 L 88.5002,-71.4295 L 88.6394,-71.5715 L 88.7728,-71.7189 L 88.9003,-71.8714 L 89.0216,-72.029 L 89.1365,-72.1912
 L 89.2449,-72.3579 L 89.3466,-72.5287 L 89.4414,-72.7035 L 89.5292,-72.8819 L 89.6098,-73.0636 L 89.6832,-73.2484
 L 89.7491,-73.436 L 89.8075,-73.6261 L 89.8583,-73.8183 L 89.9015,-74.0124 L 89.9369,-74.208 L 89.9644,-74.4049
 L 89.9842,-74.6027 L 89.996,-74.8012 L 90,-75 L 89.996,-75.1988 L 89.9842,-75.3972 L 89.9644,-75.5951
 L 89.9369,-75.792 L 89.9015,-75.9876 L 89.8583,-76.1817 L 89.8075,-76.3739 L 89.7491,-76.564 L 89.6832,-76.7515
 L 89.6098,-76.9364 L 89.5292,-77.1181 L 89.4414,-77.2965 L 89.3466,-77.4712 L 89.2449,-77.6421 L 89.1365,-77.8088
 L 89.0216,-77.971 L 88.9003,-78.1285 L 88.7728,-78.2811 L 88.6394,-78.4285 L 88.5002,-78.5705 L 88.3555,-78.7068
 L 88.2055,-78.8373 L 88.0504,-78.9617 L 87.8905,-79.0798 L 87.726,-79.1915 L 87.5572,-79.2966 L 87.3843,-79.3949
 L 87.2077,-79.4862 L 87.0276,-79.5704 L 86.8443,-79.6474 L 86.6581,-79.7171 L 86.4692,-79.7793 L 86.2781,-79.8339
 L 86.0849,-79.8809 L 85.89,-79.9202 L 85.6937,-79.9516 L 85.4963,-79.9753 L 85.2981,-79.9911 L 85.0994,-79.999
 L 84.9006,-79.999 L 84.7019,-79.9911 L 84.5037,-79.9753 L 84.3063,-79.9516 L 84.11,-79.9202 L 83.9151,-79.8809
 L 83.7219,-79.8339 L 83.5307,-79.7793 L 83.3419,-79.7171 L 83.1557,-79.6474 L 82.9724,-79.5704 L 82.7923,-79.4862
 L 82.6157,-79.3949 L 82.4428,-79.2966 L 82.274,-79.1915 L 82.1095,-79.0798 L 81.9496,-78.9617 L 81.7945,-78.8373
 L 81.6445,-78.7068 L 81.4998,-78.5705 L 81.3606,-78.4285 L 81.2272,-78.2811 L 81.0997,-78.1285 L 80.9784,-77.971
 L 80.8635,-77.8088 L 80.7551,-77.6421 L 80.6534,-77.4712 L 80.5586,-77.2965 L 80.4708,-77.1181 L 80.3902,-76.9364
 L 80.3168,-76.7515 L 80.2509,-76.564 L 80.1925,-76.3739 L 80.1416,-76.1817 L 80.0985,-75.9876 L 80.0631,-75.792
 L 80.0355,-75.5951 L 80.0158,-75.3972 L 80.004,-75.1988 L 80,-75 L 80.004,-74.8012 L 80.0158,-74.6027
 L 80.0355,-74.4049 L 80.0631,-74.208 L 80.0985,-74.0124 L 80.1416,-73.8183 L 80.1925,-73.6261 L 80.2509,-73.436
 L 80.3168,-73.2484 L 80.3902,-73.0636 L 80.4708,-72.8819 L 80.5586,-72.7035 L 80.6534,-72.5287 L 80.7551,-72.3579
 L 80.8635,-72.1912 L 80.9784,-72.029 L 81.0997,-71.8714 L 81.2272,-71.7189 L 81.3606,-71.5715 L 81.4998,-71.4295
 L 81.6445,-71.2932 L 81.7945,-71.1627 L 81.9496,-71.0383 L 82.1095,-70.9201 L 82.274,-70.8084 L 82.4428,-70.7034
 L 82.6157,-70.6051 L 82.7923,-70.5138 L 82.9724,-70.4296 L 83.1557,-70.3526 L 83.3419,-70.2829 L 83.5307,-70.2207
 L 83.7219,-70.1661 L 83.9151,-70.1191 L 84.11,-70.0798 L 84.3063,-70.0483 L 84.5037,-70.0247 L 84.7019,-70.0089
 L 84.9006,-70.001 L 85.0994,-70.001 z
M 70,-77 L 30,-77 L 30,-73 L 70,-73 z
M 87,-60 L 83,-60 L 83,-40 L 87,-40 z
M 17,-60 L 13,-60 L 13,-40 L 17,-40 z
M 85.2981,-20.0089 L 85.4963,-20.0247 L 85.6937,-20.0484 L 85.89,-20.0798 L 86.0849,-20.1191 L 86.2781,-20.1661
 L 86.4692,-20.2207 L 86.6581,-20.2829 L 86.8443,-20.3526 L 87.0276,-20.4296 L 87.2077,-20.5138 L 87.3843,-20.6051
 L 87.5572,-20.7034 L 87.726,-20.8085 L 87.8905,-20.9202 L 88.0504,-21.0383 L 88.2055,-21.1627 L 88.3555,-21.2932
 L 88.5002,-21.4295 L 88.6394,-21.5715 L 88.7728,-21.7189 L 88.9003,-21.8715 L 89.0216,-22.029 L 89.1365,-22.1912
 L 89.2449,-22.3579 L 89.3466,-22.5288 L 89.4414,-22.7035 L 89.5292,-22.8819 L 89.6098,-23.0636 L 89.6832,-23.2485
 L 89.7491,-23.436 L 89.8075,-23.6261 L 89.8583,-23.8183 L 89.9015,-24.0124 L 89.9369,-24.208 L 89.9644,-24.4049
 L 89.9842,-24.6028 L 89.996,-24.8012 L 90,-25 L 89.996,-25.1988 L 89.9842,-25.3973 L 89.9644,-25.5951
 L 89.9369,-25.792 L 89.9015,-25.9876 L 89.8583,-26.1817 L 89.8075,-26.3739 L 89.7491,-26.564 L 89.6832,-26.7516
 L 89.6098,-26.9364 L 89.5292,-27.1181 L 89.4414,-27.2965 L 89.3466,-27.4713 L 89.2449,-27.6421 L 89.1365,-27.8088
 L 89.0216,-27.971 L 88.9003,-28.1286 L 88.7728,-28.2811 L 88.6394,-28.4285 L 88.5002,-28.5705 L 88.3555,-28.7068
 L 88.2055,-28.8373 L 88.0504,-28.9617 L 87.8905,-29.0799 L 87.726,-29.1916 L 87.5572,-29.2966 L 87.3843,-29.3949
 L 87.2077,-29.4862 L 87.0276,-29.5704 L 86.8443,-29.6474 L 86.6581,-29.7171 L 86.4692,-29.7793 L 86.2781,-29.8339
 L 86.0849,-29.8809 L 85.89,-29.9202 L 85.6937,-29.9517 L 85.4963,-29.9753 L 85.2981,-29.9911 L 85.0994,-29.999
 L 84.9006,-29.999 L 84.7019,-29.9911 L 84.5037,-29.9753 L 84.3063,-29.9517 L 84.11,-29.9202 L 83.9151,-29.8809
 L 83.7219,-29.8339 L 83.5307,-29.7793 L 83.3419,-29.7171 L 83.1557,-29.6474 L 82.9724,-29.5704 L 82.7923,-29.4862
 L 82.6157,-29.3949 L 82.4428,-29.2966 L 82.274,-29.1916 L 82.1095,-29.0799 L 81.9496,-28.9617 L 81.7945,-28.8373
 L 81.6445,-28.7068 L 81.4998,-28.5705 L 81.3606,-28.4285 L 81.2272,-28.2811 L 81.0997,-28.1286 L 80.9784,-27.971
 L 80.8635,-27.8088 L 80.7551,-27.6421 L 80.6534,-27.4713 L 80.5586,-27.2965 L 80.4708,-27.1181 L 80.3902,-26.9364
 L 80.3168,-26.7516 L 80.2509,-26.564 L 80.1925,-26.3739 L 80.1416,-26.1817 L 80.0985,-25.9876 L 80.0631,-25.792
 L 80.0355,-25.5951 L 80.0158,-25.3973 L 80.004,-25.1988 L 80,-25 L 80.004,-24.8012 L 80.0158,-24.6028
 L 80.0355,-24.4049 L 80.0631,-24.208 L 80.0985,-24.0124 L 80.1416,-23.8183 L 80.1925,-23.6261 L 80.2509,-23.436
 L 80.3168,-23.2485 L 80.3902,-23.0636 L 80.4708,-22.8819 L 80.5586,-22.7035 L 80.6534,-22.5288 L 80.7551,-22.3579
 L 80.8635,-22.1912 L 80.9784,-22.029 L 81.0997,-21.8715 L 81.2272,-21.7189 L 81.3606,-21.5715 L 81.4998,-21.4295
 L 81.6445,-21.2932 L 81.7945,-21.1627 L 81.9496,-21.0383 L 82.1095,-20.9202 L 82.274,-20.8085 L 82.4428,-20.7034
 L 82.6157,-20.6051 L 82.7923,-20.5138 L 82.9724,-20.4296 L 83.1557,-20.3526 L 83.3419,-20.2829 L 83.5307,-20.2207
 L 83.7219,-20.1661 L 83.9151,-20.1191 L 84.11,-20.0798 L 84.3063,-20.0484 L 84.5037,-20.0247 L 84.7019,-20.0089
 L 84.9006,-20.001 L 85.0994,-20.001 z
M 15.2981,-20.0089 L 15.4963,-20.0247 L 15.6937,-20.0484 L 15.89,-20.0798 L 16.0849,-20.1191 L 16.2781,-20.1661
 L 16.4693,-20.2207 L 16.6581,-20.2829 L 16.8443,-20.3526 L 17.0276,-20.4296 L 17.2077,-20.5138 L 17.3843,-20.6051
 L 17.5572,-20.7034 L 17.726,-20.8085 L 17.8905,-20.9202 L 18.0504,-21.0383 L 18.2055,-21.1627 L 18.3555,-21.2932
 L 18.5002,-21.4295 L 18.6394,-21.5715 L 18.7728,-21.7189 L 18.9003,-21.8715 L 19.0216,-22.029 L 19.1365,-22.1912
 L 19.2449,-22.3579 L 19.3466,-22.5288 L 19.4414,-22.7035 L 19.5292,-22.8819 L 19.6098,-23.0636 L 19.6832,-23.2485
 L 19.7491,-23.436 L 19.8075,-23.6261 L 19.8584,-23.8183 L 19.9015,-24.0124 L 19.9369,-24.208 L 19.9645,-24.4049
 L 19.9842,-24.6028 L 19.996,-24.8012 L 20,-25 L 19.996,-25.1988 L 19.9842,-25.3973 L 19.9645,-25.5951
 L 19.9369,-25.792 L 19.9015,-25.9876 L 19.8584,-26.1817 L 19.8075,-26.3739 L 19.7491,-26.564 L 19.6832,-26.7516
 L 19.6098,-26.9364 L 19.5292,-27.1181 L 19.4414,-27.2965 L 19.3466,-27.4713 L 19.2449,-27.6421 L 19.1365,-27.8088
 L 19.0216,-27.971 L 18.9003,-28.1286 L 18.7728,-28.2811 L 18.6394,-28.4285 L 18.5002,-28.5705 L 18.3555,-28.7068
 L 18.2055,-28.8373 L 18.0504,-28.9617 L 17.8905,-29.0799 L 17.726,-29.1916 L 17.5572,-29.2966 L 17.3843,-29.3949
 L 17.2077,-29.4862 L 17.0276,-29.5704 L 16.8443,-29.6474 L 16.6581,-29.7171 L 16.4693,-29.7793 L 16.2781,-29.8339
 L 16.0849,-29.8809 L 15.89,-29.9202 L 15.6937,-29.9517 L 15.4963,-29.9753 L 15.2981,-29.9911 L 15.0994,-29.999
 L 14.9006,-29.999 L 14.7019,-29.9911 L 14.5037,-29.9753 L 14.3063,-29.9517 L 14.11,-29.9202 L 13.9151,-29.8809
 L 13.7219,-29.8339 L 13.5308,-29.7793 L 13.3419,-29.7171 L 13.1557,-29.6474 L 12.9724,-29.5704 L 12.7923,-29.4862
 L 12.6157,-29.3949 L 12.4428,-29.2966 L 12.274,-29.1916 L 12.1095,-29.0799 L 11.9496,-28.9617 L 11.7945,-28.8373
 L 11.6445,-28.7068 L 11.4998,-28.5705 L 11.3606,-28.4285 L 11.2272,-28.2811 L 11.0997,-28.1286 L 10.9784,-27.971
 L 10.8635,-27.8088 L 10.7551,-27.6421 L 10.6534,-27.4713 L 10.5586,-27.2965 L 10.4708,-27.1181 L 10.3902,-26.9364
 L 10.3168,-26.7516 L 10.2509,-26.564 L 10.1925,-26.3739 L 10.1417,-26.1817 L 10.0985,-25.9876 L 10.0631,-25.792
 L 10.0356,-25.5951 L 10.0158,-25.3973 L 10.004,-25.1988 L 10,-25 L 10.004,-24.8012 L 10.0158,-24.6028
 L 10.0356,-24.4049 L 10.0631,-24.208 L 10.0985,-24.0124 L 10.1417,-23.8183 L 10.1925,-23.6261 L 10.2509,-23.436
 L 10.3168,-23.2485 L 10.3902,-23.0636 L 10.4708,-22.8819 L 10.5586,-22.7035 L 10.6534,-22.5288 L 10.7551,-22.3579
 L 10.8635,-22.1912 L 10.9784,-22.029 L 11.0997,-21.8715 L 11.2272,-21.7189 L 11.3606,-21.5715 L 11.4998,-21.4295
 L 11.6445,-21.2932 L 11.7945,-21.1627 L 11.9496,-21.0383 L 12.1095,-20.9202 L 12.274,-20.8085 L 12.4428,-20.7034
 L 12.6157,-20.6051 L 12.7923,-20.5138 L 12.9724,-20.4296 L 13.1557,-20.3526 L 13.3419,-20.2829 L 13.5308,-20.2207
 L 13.7219,-20.1661 L 13.9151,-20.1191 L 14.11,-20.0798 L 14.3063,-20.0484 L 14.5037,-20.0247 L 14.7019,-20.0089
 L 14.9006,-20.001 L 15.0994,-20.001 z
M 70,-27 L 30,-27 L 30,-23 L 70,-23 z
" stroke="black" fill="black" stroke-width="0.5"/>
</svg>
