<?xml version="1.0" standalone="no"?>
<!DOCTYPE svg PUBLIC "-//W3C//DTD SVG 1.1//EN" "http://www.w3.org/Graphics/SVG/1.1/DTD/svg11.dtd">
<svg width="100mm" height="100mm" viewBox="-8 -108 116 116" xmlns="http://www.w3.org/2000/svg" version="1.1">
<title>OpenSCAD Model</title>
<path d="
M 29.601,-45.7323 L 29.6813,-45.9416 L 31.1544,-48.8327 L 32.9216,-51.5538 L 34.9635,-54.0754 L 37.2579,-56.3698
 L 39.7795,-58.4118 L 42.5006,-60.1789 L 45.3918,-61.652 L 48.4209,-62.8148 L 51.5551,-63.6546 L 54.7598,-64.1621
 L 58,-64.332 L 61.2402,-64.1621 L 64.4449,-63.6546 L 67.5791,-62.8148 L 70.6082,-61.652 L 73.4994,-60.1789
 L 76.2205,-58.4118 L 78.7421,-56.3698 L 81.0365,-54.0754 L 83.0784,-51.5538 L 84.8456,-48.8327 L 86.3187,-45.9416
 L 87.4814,-42.9125 L 88.3212,-39.7783 L 88.7332,-37.1769 L 88.7428,-37.1254 L 88.7699,-37.0243 L 88.8074,-36.9266
 L 88.8549,-36.8333 L 88.9119,-36.7455 L 88.9778,-36.6642 L 89.0518,-36.5902 L 89.1331,-36.5243 L 89.2209,-36.4673
 L 89.3142,-36.4198 L 89.4119,-36.3823 L 89.513,-36.3552 L 89.6164,-36.3388 L 89.7209,-36.3333 L 89.7904,-36.3333
 L 89.9468,-36.3456 L 90.0492,-36.3674 L 90.1487,-36.3998 L 90.2443,-36.4423 L 90.335,-36.4946 L 90.4197,-36.5562
 L 90.4975,-36.6262 L 90.5675,-36.704 L 90.629,-36.7887 L 90.6814,-36.8793 L 90.7239,-36.975 L 90.7563,-37.0745
 L 90.778,-37.1769 L 90.789,-37.281 L 90.789,-37.3857 L 90.7795,-37.5668 L 90.7686,-37.6709 L 90.1136,-41.8062
 L 90.0918,-41.9086 L 89.0082,-45.9528 L 88.9758,-46.0524 L 87.4754,-49.9612 L 87.4328,-50.0568 L 85.532,-53.7873
 L 85.4797,-53.878 L 83.1993,-57.3894 L 83.1378,-57.474 L 80.5029,-60.7279 L 80.4329,-60.8057 L 77.4723,-63.7662
 L 77.3945,-63.8363 L 74.1407,-66.4712 L 74.056,-66.5327 L 70.5446,-68.813 L 70.454,-68.8653 L 66.7234,-70.7661
 L 66.6278,-70.8087 L 62.719,-72.3092 L 62.6195,-72.3415 L 58.5753,-73.4252 L 58.4729,-73.4469 L 54.3376,-74.1019
 L 54.2335,-74.1128 L 50.0523,-74.332 L 49.9477,-74.332 L 45.7665,-74.1128 L 45.6624,-74.1019 L 41.5271,-73.4469
 L 41.4247,-73.4252 L 37.3805,-72.3415 L 37.281,-72.3092 L 33.3722,-70.8087 L 33.2766,-70.7661 L 29.546,-68.8653
 L 29.4554,-68.813 L 25.944,-66.5327 L 25.8593,-66.4712 L 22.6055,-63.8363 L 22.5277,-63.7662 L 19.5671,-60.8057
 L 19.4971,-60.7279 L 17.3083,-58.025 L 7,-68.3333 L 7,-33.3333 L 42,-33.3333 z
" stroke="black" fill="black" stroke-width="0.5"/>
</svg>
