<?xml version="1.0" standalone="no"?>
<!DOCTYPE svg PUBLIC "-//W3C//DTD SVG 1.1//EN" "http://www.w3.org/Graphics/SVG/1.1/DTD/svg11.dtd">
<svg width="80mm" height="70mm" viewBox="0 -70 80 70" xmlns="http://www.w3.org/2000/svg" version="1.1">
<title>OpenSCAD Model</title>
<path d="
M 80,-70 L 0,-70 L 0,-60 L 80,-60 z
M 17.3129,-18.0246 L 17.5176,-18.0681 L 17.7167,-18.1328 L 17.908,-18.218 L 18.0893,-18.3227 L 18.2586,-18.4457
 L 18.4142,-18.5858 L 18.5543,-18.7414 L 18.6773,-18.9107 L 18.782,-19.092 L 18.8672,-19.2833 L 18.9319,-19.4824
 L 18.9754,-19.6871 L 19,-20 L 19,-50 L 18.989,-50.2091 L 18.9563,-50.4158 L 18.9021,-50.618
 L 18.8271,-50.8135 L 18.7321,-51 L 18.618,-51.1756 L 18.4863,-51.3383 L 18.3383,-51.4863 L 18.1756,-51.618
 L 18,-51.7321 L 17.8135,-51.8271 L 17.618,-51.9021 L 17.4158,-51.9563 L 17.2091,-51.989 L 17,-52
 L 16.7909,-51.989 L 16.5842,-51.9563 L 16.382,-51.9021 L 16.1865,-51.8271 L 16,-51.7321 L 15.8244,-51.618
 L 15.5858,-51.4142 L 0.585785,-36.4142 L 0.445709,-36.2586 L 0.322662,-36.0893 L 0.217987,-35.908 L 0.132843,-35.7167
 L 0.0681458,-35.5176 L 0.0246277,-35.3129 L 0.00274658,-35.1047 L 0.00274658,-34.8953 L 0.0246277,-34.6871 L 0.0681458,-34.4824
 L 0.132843,-34.2833 L 0.217987,-34.092 L 0.322662,-33.9107 L 0.445709,-33.7414 L 0.585785,-33.5858 L 15.5858,-18.5858
 L 15.7414,-18.4457 L 15.9107,-18.3227 L 16.092,-18.218 L 16.2833,-18.1328 L 16.4824,-18.0681 L 16.6871,-18.0246
 L 16.8953,-18.0027 L 17.1047,-18.0027 z
M 80,-50 L 30,-50 L 30,-40 L 80,-40 z
M 80,-30 L 30,-30 L 30,-20 L 80,-20 z
M 80,-10 L 0,-10 L 0,-0 L 80,-0 z
" stroke="white" fill="white" stroke-width="0.5"/>
</svg>
