<?xml version="1.0" standalone="no"?>
<!DOCTYPE svg PUBLIC "-//W3C//DTD SVG 1.1//EN" "http://www.w3.org/Graphics/SVG/1.1/DTD/svg11.dtd">
<svg width="100mm" height="100mm" viewBox="-8 -108 116 116" xmlns="http://www.w3.org/2000/svg" version="1.1">
<title>OpenSCAD Model</title>
<path d="
M 90,-80 L 10,-80 L 10,-70 L 90,-70 z
M 27.2239,-28.0126 L 27.4207,-28.0448 L 27.6133,-28.0964 L 27.7998,-28.1669 L 27.9783,-28.2556 L 28.1472,-28.3617
 L 28.3046,-28.4841 L 28.449,-28.6215 L 28.5791,-28.7726 L 28.6935,-28.9359 L 28.791,-29.1098 L 28.8707,-29.2926
 L 28.9319,-29.4824 L 28.9738,-29.6773 L 28.9961,-29.8754 L 29,-30 L 29,-60 L 28.9901,-60.1991
 L 28.9603,-60.3963 L 28.9111,-60.5895 L 28.843,-60.7769 L 28.7564,-60.9565 L 28.6525,-61.1266 L 28.5321,-61.2856
 L 28.3965,-61.4317 L 28.247,-61.5637 L 28.0851,-61.6801 L 27.9124,-61.7797 L 27.7307,-61.8617 L 27.5417,-61.9252
 L 27.3473,-61.9696 L 27.1495,-61.9944 L 26.9501,-61.9994 L 26.7513,-61.9845 L 26.555,-61.9499 L 26.363,-61.8959
 L 26.1774,-61.823 L 26,-61.7321 L 25.8325,-61.6239 L 25.6766,-61.4996 L 25.5858,-61.4142 L 10.5858,-46.4142
 L 10.452,-46.2664 L 10.3336,-46.106 L 10.2318,-45.9345 L 10.1475,-45.7538 L 10.0816,-45.5656 L 10.0349,-45.3718
 L 10.0076,-45.1743 L 10.0002,-44.9751 L 10.0126,-44.7761 L 10.0448,-44.5793 L 10.0964,-44.3867 L 10.1669,-44.2002
 L 10.2556,-44.0217 L 10.3617,-43.8528 L 10.4841,-43.6954 L 10.5858,-43.5858 L 25.5858,-28.5858 L 25.7336,-28.452
 L 25.894,-28.3336 L 26.0655,-28.2318 L 26.2462,-28.1475 L 26.4344,-28.0816 L 26.6282,-28.0349 L 26.8257,-28.0076
 L 27.0249,-28.0002 z
M 90,-60 L 40,-60 L 40,-50 L 90,-50 z
M 90,-40 L 40,-40 L 40,-30 L 90,-30 z
M 90,-20 L 10,-20 L 10,-10 L 90,-10 z
" stroke="black" fill="black" stroke-width="0.5"/>
</svg>
