<?xml version="1.0" standalone="no"?>
<!DOCTYPE svg PUBLIC "-//W3C//DTD SVG 1.1//EN" "http://www.w3.org/Graphics/SVG/1.1/DTD/svg11.dtd">
<svg width="100mm" height="100mm" viewBox="-8 -108 116 116" xmlns="http://www.w3.org/2000/svg" version="1.1">
<title>OpenSCAD Model</title>
<path d="
M 90,-80 L 10,-80 L 10,-70 L 90,-70 z
M 27.3129,-28.0246 L 27.5176,-28.0681 L 27.7167,-28.1328 L 27.908,-28.218 L 28.0893,-28.3227 L 28.2586,-28.4457
 L 28.4142,-28.5858 L 28.5543,-28.7414 L 28.6773,-28.9107 L 28.782,-29.092 L 28.8672,-29.2833 L 28.9319,-29.4824
 L 28.9754,-29.6871 L 29,-30 L 29,-60 L 28.989,-60.2091 L 28.9563,-60.4158 L 28.9021,-60.618
 L 28.8271,-60.8135 L 28.7321,-61 L 28.618,-61.1756 L 28.4863,-61.3383 L 28.3383,-61.4863 L 28.1756,-61.618
 L 28,-61.7321 L 27.8135,-61.8271 L 27.618,-61.9021 L 27.4158,-61.9563 L 27.2091,-61.989 L 27,-62
 L 26.7909,-61.989 L 26.5842,-61.9563 L 26.382,-61.9021 L 26.1865,-61.8271 L 26,-61.7321 L 25.8244,-61.618
 L 25.5858,-61.4142 L 10.5858,-46.4142 L 10.4457,-46.2586 L 10.3227,-46.0893 L 10.218,-45.908 L 10.1328,-45.7167
 L 10.0681,-45.5176 L 10.0246,-45.3129 L 10.0027,-45.1047 L 10.0027,-44.8953 L 10.0246,-44.6871 L 10.0681,-44.4824
 L 10.1328,-44.2833 L 10.218,-44.092 L 10.3227,-43.9107 L 10.4457,-43.7414 L 10.5858,-43.5858 L 25.5858,-28.5858
 L 25.7414,-28.4457 L 25.9107,-28.3227 L 26.092,-28.218 L 26.2833,-28.1328 L 26.4824,-28.0681 L 26.6871,-28.0246
 L 26.8953,-28.0027 L 27.1047,-28.0027 z
M 90,-60 L 40,-60 L 40,-50 L 90,-50 z
M 90,-40 L 40,-40 L 40,-30 L 90,-30 z
M 90,-20 L 10,-20 L 10,-10 L 90,-10 z
" stroke="black" fill="black" stroke-width="0.5"/>
</svg>
