<?xml version="1.0" standalone="no"?>
<!DOCTYPE svg PUBLIC "-//W3C//DTD SVG 1.1//EN" "http://www.w3.org/Graphics/SVG/1.1/DTD/svg11.dtd">
<svg width="100mm" height="100mm" viewBox="-8 -108 116 116" xmlns="http://www.w3.org/2000/svg" version="1.1">
<title>OpenSCAD Model</title>
<path d="
M 62.6495,-26.355 L 62.8473,-26.3797 L 63.0417,-26.4241 L 63.2307,-26.4876 L 63.4124,-26.5696 L 63.5851,-26.6693
 L 63.747,-26.7857 L 63.8965,-26.9176 L 64.0321,-27.0638 L 64.1525,-27.2227 L 64.2564,-27.3929 L 64.343,-27.5725
 L 64.4111,-27.7599 L 64.4603,-27.9531 L 64.4901,-28.1502 L 64.5,-28.3494 L 64.5,-71.6506 L 64.4901,-71.8498
 L 64.4603,-72.0469 L 64.4111,-72.2401 L 64.343,-72.4275 L 64.2564,-72.6071 L 64.1525,-72.7773 L 64.0321,-72.9362
 L 63.8965,-73.0824 L 63.747,-73.2143 L 63.5851,-73.3307 L 63.4124,-73.4304 L 63.2307,-73.5124 L 63.0417,-73.5759
 L 62.8473,-73.6203 L 62.6495,-73.645 L 62.4501,-73.65 L 62.2513,-73.6351 L 62.055,-73.6005 L 61.863,-73.5465
 L 61.6774,-73.4736 L 61.5,-73.3827 L 32,-56.3509 L 32,-70 L 31.9901,-70.1991 L 31.9603,-70.3963
 L 31.9111,-70.5895 L 31.843,-70.7769 L 31.7564,-70.9565 L 31.6525,-71.1266 L 31.5321,-71.2856 L 31.3965,-71.4317
 L 31.247,-71.5637 L 31.0851,-71.6801 L 30.9124,-71.7797 L 30.7307,-71.8617 L 30.5417,-71.9252 L 30.3473,-71.9696
 L 30.1495,-71.9944 L 30,-72 L 20,-72 L 19.8009,-71.9901 L 19.6037,-71.9603 L 19.4105,-71.9111
 L 19.2231,-71.843 L 19.0435,-71.7564 L 18.8734,-71.6525 L 18.7144,-71.5321 L 18.5683,-71.3965 L 18.4363,-71.247
 L 18.3199,-71.0851 L 18.2203,-70.9124 L 18.1383,-70.7307 L 18.0748,-70.5417 L 18.0304,-70.3473 L 18.0056,-70.1495
 L 18,-70 L 18,-30 L 18.0099,-29.8009 L 18.0397,-29.6037 L 18.0889,-29.4105 L 18.157,-29.2231
 L 18.2436,-29.0435 L 18.3475,-28.8734 L 18.4679,-28.7144 L 18.6035,-28.5683 L 18.753,-28.4363 L 18.9149,-28.3199
 L 19.0876,-28.2203 L 19.2693,-28.1383 L 19.4583,-28.0748 L 19.6527,-28.0304 L 19.8505,-28.0056 L 20,-28
 L 30,-28 L 30.1991,-28.0099 L 30.3963,-28.0397 L 30.5895,-28.0889 L 30.7769,-28.157 L 30.9565,-28.2436
 L 31.1266,-28.3475 L 31.2856,-28.4679 L 31.4317,-28.6035 L 31.5637,-28.753 L 31.6801,-28.9149 L 31.7797,-29.0876
 L 31.8617,-29.2693 L 31.9252,-29.4583 L 31.9696,-29.6527 L 31.9944,-29.8505 L 32,-30 L 32,-43.6491
 L 61.5,-26.6173 L 61.6774,-26.5264 L 61.863,-26.4535 L 62.055,-26.3995 L 62.2513,-26.3649 L 62.4501,-26.35
 z
" stroke="white" fill="white" stroke-width="0.5"/>
</svg>
