<?xml version="1.0" standalone="no"?>
<!DOCTYPE svg PUBLIC "-//W3C//DTD SVG 1.1//EN" "http://www.w3.org/Graphics/SVG/1.1/DTD/svg11.dtd">
<svg width="100mm" height="100mm" viewBox="-8 -108 116 116" xmlns="http://www.w3.org/2000/svg" version="1.1">
<title>OpenSCAD Model</title>
<path d="
M 37.7487,-26.3649 L 37.945,-26.3995 L 38.137,-26.4535 L 38.3226,-26.5263 L 38.5,-26.6173 L 76,-48.2679
 L 76.1675,-48.3761 L 76.3234,-48.5004 L 76.4661,-48.6396 L 76.5943,-48.7924 L 76.7066,-48.9571 L 76.8019,-49.1322
 L 76.8794,-49.316 L 76.9382,-49.5065 L 76.9777,-49.7019 L 76.9975,-49.9003 L 76.9975,-50.0997 L 76.9777,-50.2981
 L 76.9382,-50.4935 L 76.8794,-50.684 L 76.8019,-50.8678 L 76.7066,-51.0429 L 76.5943,-51.2076 L 76.4661,-51.3604
 L 76.3234,-51.4996 L 76.1675,-51.6239 L 76,-51.7321 L 38.5,-73.3827 L 38.3226,-73.4736 L 38.137,-73.5465
 L 37.945,-73.6005 L 37.7487,-73.6351 L 37.5499,-73.65 L 37.3505,-73.645 L 37.1527,-73.6203 L 36.9583,-73.5759
 L 36.7693,-73.5124 L 36.5876,-73.4304 L 36.4149,-73.3307 L 36.253,-73.2143 L 36.1035,-73.0824 L 35.9679,-72.9362
 L 35.8475,-72.7773 L 35.7436,-72.6071 L 35.657,-72.4275 L 35.5889,-72.2401 L 35.5397,-72.0469 L 35.5099,-71.8498
 L 35.5,-71.6506 L 35.5,-28.3493 L 35.5099,-28.1502 L 35.5397,-27.9531 L 35.5889,-27.7598 L 35.657,-27.5725
 L 35.7436,-27.3928 L 35.8475,-27.2227 L 35.9679,-27.0638 L 36.1035,-26.9176 L 36.253,-26.7857 L 36.4149,-26.6693
 L 36.5876,-26.5696 L 36.7693,-26.4876 L 36.9583,-26.4241 L 37.1527,-26.3797 L 37.3505,-26.3549 L 37.5499,-26.35
 z
" stroke="black" fill="black" stroke-width="0.5"/>
</svg>
