<?xml version="1.0" standalone="no"?>
<!DOCTYPE svg PUBLIC "-//W3C//DTD SVG 1.1//EN" "http://www.w3.org/Graphics/SVG/1.1/DTD/svg11.dtd">
<svg width="100mm" height="100mm" viewBox="-8 -108 116 116" xmlns="http://www.w3.org/2000/svg" version="1.1">
<title>OpenSCAD Model</title>
<path d="
M 42.5236,-86.0046 L 43.047,-86.0183 L 43.5701,-86.0411 L 44.0927,-86.0731 L 44.6147,-86.1142 L 45.1358,-86.1644
 L 45.6561,-86.2236 L 46.1752,-86.292 L 46.693,-86.3694 L 47.2094,-86.4558 L 47.7243,-86.5512 L 48.2374,-86.6556
 L 48.7485,-86.7689 L 49.2576,-86.8911 L 49.7646,-87.0222 L 50.2691,-87.1622 L 50.7711,-87.3109 L 51.2705,-87.4683
 L 51.767,-87.6344 L 52.2606,-87.8092 L 52.751,-87.9926 L 53.2382,-88.1845 L 53.7219,-88.3849 L 54.2021,-88.5936
 L 54.6785,-88.8108 L 55.1511,-89.0362 L 55.6197,-89.2698 L 56.0841,-89.5116 L 56.5443,-89.7614 L 57,-90.0192
 L 57.4511,-90.285 L 57.8976,-90.5586 L 58.3392,-90.8399 L 58.7758,-91.1289 L 59.2073,-91.4254 L 59.6335,-91.7295
 L 60.0544,-92.0409 L 60.4698,-92.3597 L 60.8796,-92.6856 L 61.2836,-93.0187 L 61.6818,-93.3587 L 62.0739,-93.7057
 L 62.4599,-94.0594 L 62.8397,-94.4198 L 63.2132,-94.7868 L 63.5802,-95.1603 L 63.9406,-95.5401 L 64.2943,-95.9261
 L 64.3597,-96 L 64.2943,-96.0739 L 63.9406,-96.4599 L 63.5802,-96.8397 L 63.2132,-97.2132 L 62.8397,-97.5802
 L 62.4599,-97.9406 L 62.0739,-98.2943 L 61.6818,-98.6413 L 61.2836,-98.9813 L 60.8796,-99.3144 L 60.4698,-99.6403
 L 60.0544,-99.9591 L 59.6335,-100.271 L 59.2073,-100.575 L 58.7758,-100.871 L 58.3392,-101.16 L 57.8976,-101.441
 L 57.4511,-101.715 L 57,-101.981 L 56.5443,-102.239 L 56.0841,-102.488 L 55.6197,-102.73 L 55.1511,-102.964
 L 54.6785,-103.189 L 54.2021,-103.406 L 53.7219,-103.615 L 53.2382,-103.816 L 52.751,-104.007 L 52.2606,-104.191
 L 51.767,-104.366 L 51.2705,-104.532 L 50.7711,-104.689 L 50.2691,-104.838 L 49.7646,-104.978 L 49.2576,-105.109
 L 48.7485,-105.231 L 48.2374,-105.344 L 47.7243,-105.449 L 47.2094,-105.544 L 46.693,-105.631 L 46.1752,-105.708
 L 45.6561,-105.776 L 45.1358,-105.836 L 44.6147,-105.886 L 44.0927,-105.927 L 43.5701,-105.959 L 43.047,-105.982
 L 42.5236,-105.995 L 42,-106 L 41.4764,-105.995 L 40.953,-105.982 L 40.4299,-105.959 L 39.9073,-105.927
 L 39.3853,-105.886 L 38.8642,-105.836 L 38.3439,-105.776 L 37.8248,-105.708 L 37.307,-105.631 L 36.7906,-105.544
 L 36.2757,-105.449 L 35.7626,-105.344 L 35.2515,-105.231 L 34.7424,-105.109 L 34.2354,-104.978 L 33.7309,-104.838
 L 33.2289,-104.689 L 32.7295,-104.532 L 32.233,-104.366 L 31.7394,-104.191 L 31.249,-104.007 L 30.7618,-103.816
 L 30.2781,-103.615 L 29.7979,-103.406 L 29.3215,-103.189 L 28.8489,-102.964 L 28.3803,-102.73 L 27.9159,-102.488
 L 27.4557,-102.239 L 27,-101.981 L 26.5489,-101.715 L 26.1024,-101.441 L 25.6608,-101.16 L 25.2242,-100.871
 L 24.7927,-100.575 L 24.3665,-100.271 L 23.9456,-99.9591 L 23.5302,-99.6403 L 23.1204,-99.3144 L 22.7164,-98.9813
 L 22.3182,-98.6413 L 21.9261,-98.2943 L 21.5401,-97.9406 L 21.1603,-97.5802 L 20.7868,-97.2132 L 20.4198,-96.8397
 L 20.0594,-96.4599 L 19.7057,-96.0739 L 19.6403,-96 L 19.7057,-95.9261 L 20.0594,-95.5401 L 20.4198,-95.1603
 L 20.7868,-94.7868 L 21.1603,-94.4198 L 21.5401,-94.0594 L 21.9261,-93.7057 L 22.3182,-93.3587 L 22.7164,-93.0187
 L 23.1204,-92.6856 L 23.5302,-92.3597 L 23.9456,-92.0409 L 24.3665,-91.7295 L 24.7927,-91.4254 L 25.2242,-91.1289
 L 25.6608,-90.8399 L 26.1024,-90.5586 L 26.5489,-90.285 L 27,-90.0192 L 27.4557,-89.7614 L 27.9159,-89.5116
 L 28.3803,-89.2698 L 28.8489,-89.0362 L 29.3215,-88.8108 L 29.7979,-88.5936 L 30.2781,-88.3849 L 30.7618,-88.1845
 L 31.249,-87.9926 L 31.7394,-87.8092 L 32.233,-87.6344 L 32.7295,-87.4683 L 33.2289,-87.3109 L 33.7309,-87.1622
 L 34.2354,-87.0222 L 34.7424,-86.8911 L 35.2515,-86.7689 L 35.7626,-86.6556 L 36.2757,-86.5512 L 36.7906,-86.4558
 L 37.307,-86.3694 L 37.8248,-86.292 L 38.3439,-86.2236 L 38.8642,-86.1644 L 39.3853,-86.1142 L 39.9073,-86.0731
 L 40.4299,-86.0411 L 40.953,-86.0183 L 41.4764,-86.0046 L 42,-86 z
M 41.7503,-87.0035 L 41.5506,-87.0112 L 41.3512,-87.0234 L 41.152,-87.04 L 40.9533,-87.0611 L 40.7551,-87.0865
 L 40.5576,-87.1163 L 40.3607,-87.1506 L 40.1647,-87.1891 L 39.9695,-87.2321 L 39.7753,-87.2793 L 39.5823,-87.3308
 L 39.3904,-87.3866 L 39.1999,-87.4467 L 39.0107,-87.511 L 38.8229,-87.5794 L 38.6368,-87.652 L 38.4523,-87.7287
 L 38.2695,-87.8096 L 38.0886,-87.8944 L 37.9096,-87.9832 L 37.7327,-88.076 L 37.5578,-88.1727 L 37.3851,-88.2732
 L 37.2147,-88.3776 L 37.0467,-88.4857 L 36.8811,-88.5975 L 36.718,-88.713 L 36.5576,-88.832 L 36.3998,-88.9546
 L 36.2447,-89.0807 L 36.0925,-89.2102 L 35.9433,-89.343 L 35.797,-89.4791 L 35.6537,-89.6184 L 35.5136,-89.7609
 L 35.3767,-89.9064 L 35.2431,-90.0549 L 35.1127,-90.2064 L 34.9858,-90.3607 L 34.8624,-90.5179 L 34.7424,-90.6777
 L 34.6261,-90.8401 L 34.5133,-91.0051 L 34.4043,-91.1725 L 34.299,-91.3423 L 34.1975,-91.5144 L 34.0998,-91.6888
 L 34.006,-91.8652 L 33.9162,-92.0437 L 33.8304,-92.2241 L 33.7486,-92.4064 L 33.6708,-92.5905 L 33.5972,-92.7762
 L 33.5277,-92.9636 L 33.4624,-93.1524 L 33.4013,-93.3427 L 33.3444,-93.5342 L 33.2918,-93.727 L 33.2435,-93.9209
 L 33.1995,-94.1158 L 33.1598,-94.3116 L 33.1245,-94.5083 L 33.0936,-94.7057 L 33.067,-94.9037 L 33.0449,-95.1023
 L 33.0272,-95.3013 L 33.0139,-95.5007 L 33.005,-95.7003 L 33.0006,-95.9001 L 33.0006,-96.0999 L 33.005,-96.2997
 L 33.0139,-96.4993 L 33.0272,-96.6987 L 33.0449,-96.8977 L 33.067,-97.0963 L 33.0936,-97.2943 L 33.1245,-97.4917
 L 33.1598,-97.6884 L 33.1995,-97.8842 L 33.2435,-98.0791 L 33.2918,-98.273 L 33.3444,-98.4658 L 33.4013,-98.6573
 L 33.4624,-98.8476 L 33.5277,-99.0364 L 33.5972,-99.2238 L 33.6708,-99.4095 L 33.7486,-99.5936 L 33.8304,-99.7759
 L 33.9162,-99.9563 L 34.006,-100.135 L 34.0998,-100.311 L 34.1975,-100.486 L 34.299,-100.658 L 34.4043,-100.827
 L 34.5133,-100.995 L 34.6261,-101.16 L 34.7424,-101.322 L 34.8624,-101.482 L 34.9858,-101.639 L 35.1127,-101.794
 L 35.2431,-101.945 L 35.3767,-102.094 L 35.5136,-102.239 L 35.6537,-102.382 L 35.797,-102.521 L 35.9433,-102.657
 L 36.0925,-102.79 L 36.2447,-102.919 L 36.3998,-103.045 L 36.5576,-103.168 L 36.718,-103.287 L 36.8811,-103.402
 L 37.0467,-103.514 L 37.2147,-103.622 L 37.3851,-103.727 L 37.5578,-103.827 L 37.7327,-103.924 L 37.9096,-104.017
 L 38.0886,-104.106 L 38.2695,-104.19 L 38.4523,-104.271 L 38.6368,-104.348 L 38.8229,-104.421 L 39.0107,-104.489
 L 39.1999,-104.553 L 39.3904,-104.613 L 39.5823,-104.669 L 39.7753,-104.721 L 39.9695,-104.768 L 40.1647,-104.811
 L 40.3607,-104.849 L 40.5576,-104.884 L 40.7551,-104.913 L 40.9533,-104.939 L 41.152,-104.96 L 41.3512,-104.977
 L 41.5506,-104.989 L 41.7503,-104.997 L 41.9501,-105 L 42.1499,-104.999 L 42.3496,-104.993 L 42.5491,-104.983
 L 42.7484,-104.969 L 42.9474,-104.95 L 43.1458,-104.927 L 43.3437,-104.899 L 43.541,-104.867 L 43.7374,-104.831
 L 43.933,-104.79 L 44.1277,-104.745 L 44.3213,-104.695 L 44.5138,-104.642 L 44.705,-104.584 L 44.8949,-104.522
 L 45.0834,-104.455 L 45.2703,-104.385 L 45.4557,-104.31 L 45.6393,-104.231 L 45.8212,-104.149 L 46.0011,-104.062
 L 46.1791,-103.971 L 46.355,-103.876 L 46.5288,-103.778 L 46.7003,-103.675 L 46.8696,-103.569 L 47.0364,-103.459
 L 47.2008,-103.345 L 47.3625,-103.228 L 47.5217,-103.107 L 47.6781,-102.983 L 47.8317,-102.855 L 47.9825,-102.724
 L 48.1303,-102.589 L 48.275,-102.452 L 48.4167,-102.311 L 48.5552,-102.167 L 48.6905,-102.02 L 48.8225,-101.87
 L 48.9511,-101.717 L 49.0763,-101.561 L 49.1981,-101.403 L 49.3162,-101.241 L 49.4308,-101.078 L 49.5417,-100.912
 L 49.6488,-100.743 L 49.7523,-100.572 L 49.8519,-100.399 L 49.9476,-100.223 L 50.0394,-100.046 L 50.1272,-99.8663
 L 50.211,-99.685 L 50.2908,-99.5018 L 50.3665,-99.3168 L 50.4381,-99.1303 L 50.5055,-98.9422 L 50.5687,-98.7526
 L 50.6277,-98.5617 L 50.6825,-98.3696 L 50.7329,-98.1762 L 50.7791,-97.9818 L 50.8209,-97.7864 L 50.8584,-97.5901
 L 50.8915,-97.3931 L 50.9203,-97.1954 L 50.9446,-96.997 L 50.9645,-96.7982 L 50.98,-96.599 L 50.9911,-96.3995
 L 50.9978,-96.1998 L 51,-96 L 50.9978,-95.8002 L 50.9911,-95.6005 L 50.98,-95.401 L 50.9645,-95.2018
 L 50.9446,-95.003 L 50.9203,-94.8046 L 50.8915,-94.6069 L 50.8584,-94.4099 L 50.8209,-94.2136 L 50.7791,-94.0182
 L 50.7329,-93.8238 L 50.6825,-93.6304 L 50.6277,-93.4383 L 50.5687,-93.2474 L 50.5055,-93.0578 L 50.4381,-92.8697
 L 50.3665,-92.6832 L 50.2908,-92.4982 L 50.211,-92.315 L 50.1272,-92.1337 L 50.0394,-91.9542 L 49.9476,-91.7767
 L 49.8519,-91.6013 L 49.7523,-91.4281 L 49.6488,-91.2571 L 49.5417,-91.0885 L 49.4308,-90.9223 L 49.3162,-90.7586
 L 49.1981,-90.5974 L 49.0763,-90.4389 L 48.9511,-90.2832 L 48.8225,-90.1303 L 48.6905,-89.9803 L 48.5552,-89.8333
 L 48.4167,-89.6893 L 48.275,-89.5484 L 48.1303,-89.4106 L 47.9825,-89.2762 L 47.8317,-89.145 L 47.6781,-89.0172
 L 47.5217,-88.8929 L 47.3625,-88.7721 L 47.2008,-88.6548 L 47.0364,-88.5412 L 46.8696,-88.4312 L 46.7003,-88.3249
 L 46.5288,-88.2225 L 46.355,-88.1239 L 46.1791,-88.0291 L 46.0011,-87.9383 L 45.8212,-87.8515 L 45.6393,-87.7686
 L 45.4557,-87.6899 L 45.2703,-87.6152 L 45.0834,-87.5447 L 44.8949,-87.4783 L 44.705,-87.4161 L 44.5138,-87.3582
 L 44.3213,-87.3045 L 44.1277,-87.2551 L 43.933,-87.2101 L 43.7374,-87.1693 L 43.541,-87.1329 L 43.3437,-87.1009
 L 43.1458,-87.0732 L 42.9474,-87.05 L 42.7484,-87.0312 L 42.5491,-87.0168 L 42.3496,-87.0068 L 42.1499,-87.0013
 L 41.9501,-87.0002 z
M 43.9934,-26.3048 L 43.9934,-52.5482 L 70.3679,-47.3506 L 71.6358,-48.4997 L 71.6358,-51.2186 L 46.4576,-56.1805
 L 56.8832,-65.6293 L 56.8832,-68.3483 L 54.1643,-68.8841 L 43.9934,-59.6661 L 43.9934,-84.3085 L 41.2745,-84.8443
 L 40.0066,-83.6952 L 40.0066,-57.4518 L 13.6321,-62.6494 L 12.3642,-61.5003 L 12.3642,-58.7814 L 37.5424,-53.8195
 L 27.1168,-44.3707 L 27.1168,-41.6517 L 29.8357,-41.1159 L 40.0066,-50.3339 L 40.0066,-25.6915 L 42.7255,-25.1557
 z
M 101.477,-4.21333 L 85.4994,-4.21333 L 101.036,-36.3612 L 101.036,-40 L 81.8353,-40 L 81.8353,-35.8141
 L 96.8919,-35.8141 L 81.3549,-3.63881 L 81.3549,-0 L 101.477,-0 z
M 74.4691,-17.8661 L 82.718,-17.8661 L 82.718,-21.6417 L 74.4691,-21.6417 L 74.4691,-33.3513 L 71.686,-33.3513
 L 71.686,-21.6417 L 63.477,-21.6417 L 63.477,-17.8661 L 71.686,-17.8661 L 71.686,-6.21048 L 74.4691,-6.21048
 z
" stroke="black" fill="black" stroke-width="0.5"/>
</svg>
