<?xml version="1.0" standalone="no"?>
<!DOCTYPE svg PUBLIC "-//W3C//DTD SVG 1.1//EN" "http://www.w3.org/Graphics/SVG/1.1/DTD/svg11.dtd">
<svg width="100mm" height="100mm" viewBox="-8 -108 116 116" xmlns="http://www.w3.org/2000/svg" version="1.1">
<title>OpenSCAD Model</title>
<path d="
M 43.9934,-26.3048 L 43.9934,-52.5482 L 70.3679,-47.3506 L 71.6358,-48.4997 L 71.6358,-51.2186 L 46.4576,-56.1805
 L 56.8832,-65.6293 L 56.8832,-68.3483 L 54.1643,-68.8841 L 43.9934,-59.6661 L 43.9934,-84.3085 L 41.2745,-84.8443
 L 40.0066,-83.6952 L 40.0066,-57.4518 L 13.6321,-62.6494 L 12.3642,-61.5003 L 12.3642,-58.7814 L 37.5424,-53.8195
 L 27.1168,-44.3707 L 27.1168,-41.6517 L 29.8357,-41.1159 L 40.0066,-50.3339 L 40.0066,-25.6915 L 42.7255,-25.1557
 z
M 102.347,-4.21333 L 82.3697,-4.21333 L 101.797,-36.3612 L 101.797,-40 L 77.7881,-40 L 77.7881,-35.8141
 L 96.6145,-35.8141 L 77.1875,-3.63881 L 77.1875,-0 L 102.347,-0 z
M 42.5236,-4.00458 L 43.047,-4.01828 L 43.5701,-4.04112 L 44.0927,-4.07309 L 44.6147,-4.11417 L 45.1358,-4.16435
 L 45.6561,-4.22362 L 46.1752,-4.29196 L 46.693,-4.36935 L 47.2094,-4.45578 L 47.7243,-4.55119 L 48.2374,-4.65558
 L 48.7485,-4.76891 L 49.2576,-4.89113 L 49.7646,-5.02223 L 50.2691,-5.16216 L 50.7711,-5.31087 L 51.2705,-5.46831
 L 51.767,-5.63445 L 52.2606,-5.80923 L 52.751,-5.9926 L 53.2382,-6.18449 L 53.7219,-6.38486 L 54.2021,-6.59364
 L 54.6785,-6.81078 L 55.1511,-7.03619 L 55.6197,-7.26981 L 56.0841,-7.51158 L 56.5443,-7.76141 L 57,-8.01924
 L 57.4511,-8.28499 L 57.8976,-8.55856 L 58.3392,-8.83989 L 58.7758,-9.12888 L 59.2073,-9.42545 L 59.6335,-9.72949
 L 60.0544,-10.0409 L 60.4698,-10.3597 L 60.8796,-10.6856 L 61.2836,-11.0187 L 61.6818,-11.3587 L 62.0739,-11.7057
 L 62.4599,-12.0594 L 62.8397,-12.4198 L 63.2132,-12.7868 L 63.5802,-13.1603 L 63.9406,-13.5401 L 64.2943,-13.9261
 L 64.3475,-13.9861 L 64.3475,-12.941 L 76.6397,-12.941 L 76.6397,-17.0999 L 64.3475,-17.0999 L 64.3475,-14.0139
 L 64.2943,-14.0739 L 63.9406,-14.4599 L 63.5802,-14.8397 L 63.2132,-15.2132 L 62.8397,-15.5802 L 62.4599,-15.9406
 L 62.0739,-16.2943 L 61.6818,-16.6413 L 61.2836,-16.9813 L 60.8796,-17.3144 L 60.4698,-17.6403 L 60.0544,-17.9591
 L 59.6335,-18.2705 L 59.2073,-18.5746 L 58.7758,-18.8711 L 58.3392,-19.1601 L 57.8976,-19.4414 L 57.4511,-19.715
 L 57,-19.9808 L 56.5443,-20.2386 L 56.0841,-20.4884 L 55.6197,-20.7302 L 55.1511,-20.9638 L 54.6785,-21.1892
 L 54.2021,-21.4064 L 53.7219,-21.6151 L 53.2382,-21.8155 L 52.751,-22.0074 L 52.2606,-22.1908 L 51.767,-22.3656
 L 51.2705,-22.5317 L 50.7711,-22.6891 L 50.2691,-22.8378 L 49.7646,-22.9778 L 49.2576,-23.1089 L 48.7485,-23.2311
 L 48.2374,-23.3444 L 47.7243,-23.4488 L 47.2094,-23.5442 L 46.693,-23.6306 L 46.1752,-23.708 L 45.6561,-23.7764
 L 45.1358,-23.8356 L 44.6147,-23.8858 L 44.0927,-23.9269 L 43.5701,-23.9589 L 43.047,-23.9817 L 42.5236,-23.9954
 L 42,-24 L 41.4764,-23.9954 L 40.953,-23.9817 L 40.4299,-23.9589 L 39.9073,-23.9269 L 39.3853,-23.8858
 L 38.8642,-23.8356 L 38.3439,-23.7764 L 37.8248,-23.708 L 37.307,-23.6306 L 36.7906,-23.5442 L 36.2757,-23.4488
 L 35.7626,-23.3444 L 35.2515,-23.2311 L 34.7424,-23.1089 L 34.2354,-22.9778 L 33.7309,-22.8378 L 33.2289,-22.6891
 L 32.7295,-22.5317 L 32.233,-22.3656 L 31.7394,-22.1908 L 31.249,-22.0074 L 30.7618,-21.8155 L 30.2781,-21.6151
 L 29.7979,-21.4064 L 29.3215,-21.1892 L 28.8489,-20.9638 L 28.3803,-20.7302 L 27.9159,-20.4884 L 27.4557,-20.2386
 L 27,-19.9808 L 26.5489,-19.715 L 26.1024,-19.4414 L 25.6608,-19.1601 L 25.2242,-18.8711 L 24.7927,-18.5746
 L 24.3665,-18.2705 L 23.9456,-17.9591 L 23.5302,-17.6403 L 23.1204,-17.3144 L 22.7164,-16.9813 L 22.3182,-16.6413
 L 21.9261,-16.2943 L 21.5401,-15.9406 L 21.1603,-15.5802 L 20.7868,-15.2132 L 20.4198,-14.8397 L 20.0594,-14.4599
 L 19.7057,-14.0739 L 19.6403,-14 L 19.7057,-13.9261 L 20.0594,-13.5401 L 20.4198,-13.1603 L 20.7868,-12.7868
 L 21.1603,-12.4198 L 21.5401,-12.0594 L 21.9261,-11.7057 L 22.3182,-11.3587 L 22.7164,-11.0187 L 23.1204,-10.6856
 L 23.5302,-10.3597 L 23.9456,-10.0409 L 24.3665,-9.72949 L 24.7927,-9.42545 L 25.2242,-9.12888 L 25.6608,-8.83989
 L 26.1024,-8.55856 L 26.5489,-8.28499 L 27,-8.01924 L 27.4557,-7.76141 L 27.9159,-7.51158 L 28.3803,-7.26981
 L 28.8489,-7.03619 L 29.3215,-6.81078 L 29.7979,-6.59364 L 30.2781,-6.38486 L 30.7618,-6.18449 L 31.249,-5.9926
 L 31.7394,-5.80923 L 32.233,-5.63445 L 32.7295,-5.46831 L 33.2289,-5.31087 L 33.7309,-5.16216 L 34.2354,-5.02223
 L 34.7424,-4.89113 L 35.2515,-4.76891 L 35.7626,-4.65558 L 36.2757,-4.55119 L 36.7906,-4.45578 L 37.307,-4.36935
 L 37.8248,-4.29196 L 38.3439,-4.22362 L 38.8642,-4.16435 L 39.3853,-4.11417 L 39.9073,-4.07309 L 40.4299,-4.04112
 L 40.953,-4.01828 L 41.4764,-4.00458 L 42,-4 z
M 41.7503,-5.00348 L 41.5506,-5.01123 L 41.3512,-5.02342 L 41.152,-5.04004 L 40.9533,-5.06108 L 40.7551,-5.08652
 L 40.5576,-5.11635 L 40.3607,-5.15056 L 40.1647,-5.18913 L 39.9695,-5.23206 L 39.7753,-5.2793 L 39.5823,-5.33083
 L 39.3904,-5.38664 L 39.1999,-5.4467 L 39.0107,-5.51097 L 38.8229,-5.57942 L 38.6368,-5.65202 L 38.4523,-5.72874
 L 38.2695,-5.80956 L 38.0886,-5.89439 L 37.9096,-5.98322 L 37.7327,-6.076 L 37.5578,-6.17268 L 37.3851,-6.27324
 L 37.2147,-6.37759 L 37.0467,-6.4857 L 36.8811,-6.59752 L 36.718,-6.71298 L 36.5576,-6.83205 L 36.3998,-6.95464
 L 36.2447,-7.0807 L 36.0925,-7.21017 L 35.9433,-7.34299 L 35.797,-7.4791 L 35.6537,-7.61841 L 35.5136,-7.76086
 L 35.3767,-7.9064 L 35.2431,-8.05495 L 35.1127,-8.20642 L 34.9858,-8.36075 L 34.8624,-8.51785 L 34.7424,-8.67766
 L 34.6261,-8.84009 L 34.5133,-9.00507 L 34.4043,-9.1725 L 34.299,-9.34232 L 34.1975,-9.51443 L 34.0998,-9.68877
 L 34.006,-9.8652 L 33.9162,-10.0437 L 33.8304,-10.2241 L 33.7486,-10.4064 L 33.6708,-10.5905 L 33.5972,-10.7762
 L 33.5277,-10.9636 L 33.4624,-11.1524 L 33.4013,-11.3427 L 33.3444,-11.5342 L 33.2918,-11.727 L 33.2435,-11.9209
 L 33.1995,-12.1158 L 33.1598,-12.3116 L 33.1245,-12.5083 L 33.0936,-12.7057 L 33.067,-12.9037 L 33.0449,-13.1023
 L 33.0272,-13.3013 L 33.0139,-13.5007 L 33.005,-13.7003 L 33.0006,-13.9001 L 33.0006,-14.0999 L 33.005,-14.2997
 L 33.0139,-14.4993 L 33.0272,-14.6987 L 33.0449,-14.8977 L 33.067,-15.0963 L 33.0936,-15.2943 L 33.1245,-15.4917
 L 33.1598,-15.6884 L 33.1995,-15.8842 L 33.2435,-16.0791 L 33.2918,-16.273 L 33.3444,-16.4658 L 33.4013,-16.6573
 L 33.4624,-16.8476 L 33.5277,-17.0364 L 33.5972,-17.2238 L 33.6708,-17.4095 L 33.7486,-17.5936 L 33.8304,-17.7759
 L 33.9162,-17.9563 L 34.006,-18.1348 L 34.0998,-18.3112 L 34.1975,-18.4856 L 34.299,-18.6577 L 34.4043,-18.8275
 L 34.5133,-18.9949 L 34.6261,-19.1599 L 34.7424,-19.3223 L 34.8624,-19.4821 L 34.9858,-19.6393 L 35.1127,-19.7936
 L 35.2431,-19.9451 L 35.3767,-20.0936 L 35.5136,-20.2391 L 35.6537,-20.3816 L 35.797,-20.5209 L 35.9433,-20.657
 L 36.0925,-20.7898 L 36.2447,-20.9193 L 36.3998,-21.0454 L 36.5576,-21.168 L 36.718,-21.287 L 36.8811,-21.4025
 L 37.0467,-21.5143 L 37.2147,-21.6224 L 37.3851,-21.7268 L 37.5578,-21.8273 L 37.7327,-21.924 L 37.9096,-22.0168
 L 38.0886,-22.1056 L 38.2695,-22.1904 L 38.4523,-22.2713 L 38.6368,-22.348 L 38.8229,-22.4206 L 39.0107,-22.489
 L 39.1999,-22.5533 L 39.3904,-22.6134 L 39.5823,-22.6692 L 39.7753,-22.7207 L 39.9695,-22.7679 L 40.1647,-22.8109
 L 40.3607,-22.8494 L 40.5576,-22.8837 L 40.7551,-22.9135 L 40.9533,-22.9389 L 41.152,-22.96 L 41.3512,-22.9766
 L 41.5506,-22.9888 L 41.7503,-22.9965 L 41.9501,-22.9998 L 42.1499,-22.9987 L 42.3496,-22.9932 L 42.5491,-22.9832
 L 42.7484,-22.9688 L 42.9474,-22.95 L 43.1458,-22.9268 L 43.3437,-22.8991 L 43.541,-22.8671 L 43.7374,-22.8307
 L 43.933,-22.7899 L 44.1277,-22.7449 L 44.3213,-22.6955 L 44.5138,-22.6418 L 44.705,-22.5839 L 44.8949,-22.5217
 L 45.0834,-22.4553 L 45.2703,-22.3848 L 45.4557,-22.3101 L 45.6393,-22.2314 L 45.8212,-22.1485 L 46.0011,-22.0617
 L 46.1791,-21.9709 L 46.355,-21.8761 L 46.5288,-21.7775 L 46.7003,-21.6751 L 46.8696,-21.5688 L 47.0364,-21.4588
 L 47.2008,-21.3452 L 47.3625,-21.2279 L 47.5217,-21.1071 L 47.6781,-20.9828 L 47.8317,-20.855 L 47.9825,-20.7238
 L 48.1303,-20.5894 L 48.275,-20.4516 L 48.4167,-20.3107 L 48.5552,-20.1667 L 48.6905,-20.0197 L 48.8225,-19.8697
 L 48.9511,-19.7168 L 49.0763,-19.5611 L 49.1981,-19.4026 L 49.3162,-19.2414 L 49.4308,-19.0777 L 49.5417,-18.9115
 L 49.6488,-18.7429 L 49.7523,-18.5719 L 49.8519,-18.3987 L 49.9476,-18.2233 L 50.0394,-18.0458 L 50.1272,-17.8663
 L 50.211,-17.685 L 50.2908,-17.5018 L 50.3665,-17.3168 L 50.4381,-17.1303 L 50.5055,-16.9422 L 50.5687,-16.7526
 L 50.6277,-16.5617 L 50.6825,-16.3696 L 50.7329,-16.1762 L 50.7791,-15.9818 L 50.8209,-15.7864 L 50.8584,-15.5901
 L 50.8915,-15.3931 L 50.9203,-15.1954 L 50.9446,-14.997 L 50.9645,-14.7982 L 50.98,-14.599 L 50.9911,-14.3995
 L 50.9978,-14.1998 L 51,-14 L 50.9978,-13.8002 L 50.9911,-13.6005 L 50.98,-13.401 L 50.9645,-13.2018
 L 50.9446,-13.003 L 50.9203,-12.8046 L 50.8915,-12.6069 L 50.8584,-12.4099 L 50.8209,-12.2136 L 50.7791,-12.0182
 L 50.7329,-11.8238 L 50.6825,-11.6304 L 50.6277,-11.4383 L 50.5687,-11.2474 L 50.5055,-11.0578 L 50.4381,-10.8697
 L 50.3665,-10.6832 L 50.2908,-10.4982 L 50.211,-10.315 L 50.1272,-10.1337 L 50.0394,-9.95421 L 49.9476,-9.77672
 L 49.8519,-9.60133 L 49.7523,-9.4281 L 49.6488,-9.25713 L 49.5417,-9.08849 L 49.4308,-8.92227 L 49.3162,-8.75856
 L 49.1981,-8.59743 L 49.0763,-8.43895 L 48.9511,-8.28323 L 48.8225,-8.13033 L 48.6905,-7.9803 L 48.5552,-7.83327
 L 48.4167,-7.68925 L 48.275,-7.54836 L 48.1303,-7.41063 L 47.9825,-7.27617 L 47.8317,-7.145 L 47.6781,-7.01724
 L 47.5217,-6.8929 L 47.3625,-6.77206 L 47.2008,-6.6548 L 47.0364,-6.54115 L 46.8696,-6.43118 L 46.7003,-6.32494
 L 46.5288,-6.22249 L 46.355,-6.12386 L 46.1791,-6.02911 L 46.0011,-5.93831 L 45.8212,-5.85147 L 45.6393,-5.76865
 L 45.4557,-5.68988 L 45.2703,-5.6152 L 45.0834,-5.54468 L 44.8949,-5.4783 L 44.705,-5.41614 L 44.5138,-5.3582
 L 44.3213,-5.30452 L 44.1277,-5.25513 L 43.933,-5.21005 L 43.7374,-5.16931 L 43.541,-5.1329 L 43.3437,-5.10089
 L 43.1458,-5.07324 L 42.9474,-5.05 L 42.7484,-5.03119 L 42.5491,-5.01678 L 42.3496,-5.00681 L 42.1499,-5.00125
 L 41.9501,-5.00015 z
" stroke="black" fill="black" stroke-width="0.5"/>
</svg>
