<?xml version="1.0" standalone="no"?>
<!DOCTYPE svg PUBLIC "-//W3C//DTD SVG 1.1//EN" "http://www.w3.org/Graphics/SVG/1.1/DTD/svg11.dtd">
<svg width="100mm" height="100mm" viewBox="-8 -108 116 116" xmlns="http://www.w3.org/2000/svg" version="1.1">
<title>OpenSCAD Model</title>
<path d="
M 87.1256,-50.246 L 87.0928,-50.4527 L 87.0386,-50.6549 L 86.9636,-50.8503 L 86.8685,-51.0368 L 86.8486,-51.0674
 L 86.832,-51.1 L 86.718,-51.2756 L 86.6149,-51.4028 L 69.4858,-81.0713 L 69.4271,-81.2244 L 69.3321,-81.4109
 L 69.218,-81.5865 L 69.0863,-81.7491 L 68.9383,-81.8972 L 68.7756,-82.0289 L 68.6,-82.1429 L 68.4135,-82.238
 L 68.218,-82.313 L 68.0158,-82.3672 L 67.8091,-82.3999 L 67.6,-82.4109 L 32.8343,-82.4109 L 32.6724,-82.4365
 L 32.4633,-82.4475 L 32.2543,-82.4365 L 32.0475,-82.4038 L 31.8453,-82.3496 L 31.6499,-82.2745 L 31.4633,-82.1795
 L 31.2878,-82.0655 L 31.1251,-81.9337 L 30.9771,-81.7857 L 30.8453,-81.623 L 30.7314,-81.4475 L 16.5811,-56.9386
 L -2.5,-50 L 16.5811,-43.0614 L 30.7314,-18.5525 L 30.8454,-18.377 L 30.9771,-18.2143 L 31.1252,-18.0662
 L 31.2878,-17.9345 L 31.4634,-17.8205 L 31.6499,-17.7254 L 31.8454,-17.6504 L 32.0476,-17.5962 L 32.2543,-17.5635
 L 32.4634,-17.5525 L 32.6725,-17.5635 L 32.8343,-17.5891 L 67.6,-17.5891 L 67.8091,-17.6001 L 68.0158,-17.6328
 L 68.218,-17.687 L 68.4135,-17.762 L 68.6,-17.8571 L 68.7756,-17.9711 L 68.9383,-18.1028 L 69.0863,-18.2509
 L 69.218,-18.4135 L 69.3321,-18.5891 L 69.4271,-18.7756 L 69.4858,-18.9287 L 86.6149,-48.5972 L 86.718,-48.7244
 L 86.832,-48.9 L 86.8487,-48.9327 L 86.8686,-48.9634 L 86.9637,-49.1499 L 87.0387,-49.3453 L 87.0929,-49.5475
 L 87.1256,-49.7543 L 87.1366,-49.9634 L 87.1347,-50.0001 L 87.1366,-50.0369 z
M 32.5,-23.8891 L 22.0362,-42.013 L 21.6894,-43.8197 L 21.4185,-45.8418 L 21.2548,-47.9094 L 21.2,-50
 L 21.2548,-52.0906 L 21.4185,-54.1582 L 21.6894,-56.1803 L 22.0362,-57.987 L 32.5,-76.1109 L 47.5751,-50
 z
M 66.2876,-21.7891 L 36.1373,-21.7891 L 51.2124,-47.9 L 81.3627,-47.9 z
M 51.2124,-52.1 L 36.1373,-78.2109 L 66.2876,-78.2109 L 81.3627,-52.1 z
" stroke="white" fill="white" stroke-width="0.5"/>
</svg>
