<?xml version="1.0" standalone="no"?>
<!DOCTYPE svg PUBLIC "-//W3C//DTD SVG 1.1//EN" "http://www.w3.org/Graphics/SVG/1.1/DTD/svg11.dtd">
<svg width="100mm" height="100mm" viewBox="-8 -108 116 116" xmlns="http://www.w3.org/2000/svg" version="1.1">
<title>OpenSCAD Model</title>
<path d="
M 50.246,-12.8744 L 50.4527,-12.9072 L 50.6549,-12.9614 L 50.8503,-13.0364 L 51.0368,-13.1315 L 51.0674,-13.1514
 L 51.1,-13.168 L 51.2756,-13.282 L 51.4028,-13.3851 L 81.0713,-30.5142 L 81.2244,-30.5729 L 81.4109,-30.6679
 L 81.5865,-30.782 L 81.7491,-30.9137 L 81.8972,-31.0617 L 82.0289,-31.2244 L 82.1429,-31.4 L 82.238,-31.5865
 L 82.313,-31.782 L 82.3672,-31.9842 L 82.3999,-32.1909 L 82.4109,-32.4 L 82.4109,-67.1657 L 82.4365,-67.3276
 L 82.4475,-67.5367 L 82.4365,-67.7457 L 82.4038,-67.9525 L 82.3496,-68.1547 L 82.2745,-68.3501 L 82.1795,-68.5367
 L 82.0655,-68.7122 L 81.9337,-68.8749 L 81.7857,-69.0229 L 81.623,-69.1547 L 81.4475,-69.2686 L 51.1366,-86.7686
 L 50.9501,-86.8637 L 50.7546,-86.9387 L 50.5524,-86.9929 L 50.3457,-87.0256 L 50.1366,-87.0366 L 50,-87.0294
 L 49.8633,-87.0366 L 49.6543,-87.0256 L 49.4475,-86.9929 L 49.2453,-86.9387 L 49.0499,-86.8636 L 48.8634,-86.7686
 L 18.5525,-69.2686 L 18.377,-69.1546 L 18.2143,-69.0229 L 18.0662,-68.8748 L 17.9345,-68.7122 L 17.8205,-68.5366
 L 17.7254,-68.3501 L 17.6504,-68.1546 L 17.5962,-67.9524 L 17.5635,-67.7457 L 17.5525,-67.5366 L 17.5635,-67.3275
 L 17.5891,-67.1657 L 17.5891,-32.4 L 17.6001,-32.1909 L 17.6328,-31.9842 L 17.687,-31.782 L 17.762,-31.5865
 L 17.8571,-31.4 L 17.9711,-31.2244 L 18.1028,-31.0617 L 18.2509,-30.9137 L 18.4135,-30.782 L 18.5891,-30.6679
 L 18.7756,-30.5729 L 18.9287,-30.5142 L 48.5972,-13.3851 L 48.7244,-13.282 L 48.9,-13.168 L 48.9327,-13.1513
 L 48.9634,-13.1314 L 49.1499,-13.0363 L 49.3453,-12.9613 L 49.5475,-12.9071 L 49.7543,-12.8744 L 49.9634,-12.8634
 L 50.0001,-12.8653 L 50.0369,-12.8634 z
M 23.8891,-67.5 L 49,-81.9978 L 49,-53.0022 z
M 21.7891,-33.7124 L 21.7891,-63.8627 L 47.9,-48.7876 L 47.9,-18.6373 z
M 52.1,-47.6329 L 77.2109,-33.1351 L 52.1,-18.6373 z
" stroke="black" fill="black" stroke-width="0.5"/>
</svg>
