<?xml version="1.0" standalone="no"?>
<!DOCTYPE svg PUBLIC "-//W3C//DTD SVG 1.1//EN" "http://www.w3.org/Graphics/SVG/1.1/DTD/svg11.dtd">
<svg width="100mm" height="100mm" viewBox="-8 -108 116 116" xmlns="http://www.w3.org/2000/svg" version="1.1">
<title>OpenSCAD Model</title>
<path d="
M 49.754,-87.1256 L 49.5473,-87.0928 L 49.3451,-87.0386 L 49.1497,-86.9636 L 48.9632,-86.8685 L 48.9326,-86.8486
 L 48.9,-86.832 L 48.7244,-86.718 L 48.5972,-86.6149 L 18.9287,-69.4858 L 18.7756,-69.4271 L 18.5891,-69.3321
 L 18.4135,-69.218 L 18.2509,-69.0863 L 18.1028,-68.9383 L 17.9711,-68.7756 L 17.8571,-68.6 L 17.762,-68.4135
 L 17.687,-68.218 L 17.6328,-68.0158 L 17.6001,-67.8091 L 17.5891,-67.6 L 17.5891,-32.8343 L 17.5635,-32.6724
 L 17.5525,-32.4633 L 17.5635,-32.2543 L 17.5962,-32.0475 L 17.6504,-31.8453 L 17.7255,-31.6499 L 17.8205,-31.4633
 L 17.9345,-31.2878 L 18.0663,-31.1251 L 18.2143,-30.9771 L 18.377,-30.8453 L 18.5525,-30.7314 L 43.0614,-16.5811
 L 50,2.5 L 56.9386,-16.5811 L 81.4475,-30.7314 L 81.623,-30.8454 L 81.7857,-30.9771 L 81.9338,-31.1252
 L 82.0655,-31.2878 L 82.1795,-31.4634 L 82.2746,-31.6499 L 82.3496,-31.8454 L 82.4038,-32.0476 L 82.4365,-32.2543
 L 82.4475,-32.4634 L 82.4365,-32.6725 L 82.4109,-32.8343 L 82.4109,-67.6 L 82.3999,-67.8091 L 82.3672,-68.0158
 L 82.313,-68.218 L 82.238,-68.4135 L 82.1429,-68.6 L 82.0289,-68.7756 L 81.8972,-68.9383 L 81.7491,-69.0863
 L 81.5865,-69.218 L 81.4109,-69.3321 L 81.2244,-69.4271 L 81.0713,-69.4858 L 51.4028,-86.6149 L 51.2756,-86.718
 L 51.1,-86.832 L 51.0673,-86.8487 L 51.0366,-86.8686 L 50.8501,-86.9637 L 50.6547,-87.0387 L 50.4525,-87.0929
 L 50.2457,-87.1256 L 50.0366,-87.1366 L 49.9999,-87.1347 L 49.9631,-87.1366 z
M 76.1109,-32.5 L 57.987,-22.0362 L 56.1803,-21.6894 L 54.1582,-21.4185 L 52.0906,-21.2548 L 50,-21.2
 L 47.9094,-21.2548 L 45.8418,-21.4185 L 43.8197,-21.6894 L 42.013,-22.0362 L 23.8891,-32.5 L 50,-47.5751
 z
M 78.2109,-66.2876 L 78.2109,-36.1373 L 52.1,-51.2124 L 52.1,-81.3627 z
M 47.9,-51.2124 L 21.7891,-36.1373 L 21.7891,-66.2876 L 47.9,-81.3627 z
" stroke="black" fill="black" stroke-width="0.5"/>
</svg>
