<?xml version="1.0" standalone="no"?>
<!DOCTYPE svg PUBLIC "-//W3C//DTD SVG 1.1//EN" "http://www.w3.org/Graphics/SVG/1.1/DTD/svg11.dtd">
<svg width="100mm" height="100mm" viewBox="-8 -108 116 116" xmlns="http://www.w3.org/2000/svg" version="1.1">
<title>OpenSCAD Model</title>
<path d="
M 43.9934,-26.3048 L 43.9934,-52.5482 L 70.3679,-47.3506 L 71.6358,-48.4997 L 71.6358,-48.848 L 71.7394,-48.8092
 L 72.233,-48.6344 L 72.7295,-48.4683 L 73.2289,-48.3109 L 73.7309,-48.1622 L 74.2354,-48.0222 L 74.7424,-47.8911
 L 75.2515,-47.7689 L 75.7626,-47.6556 L 76.2757,-47.5512 L 76.7906,-47.4558 L 77.307,-47.3694 L 77.8248,-47.292
 L 78.3439,-47.2236 L 78.8642,-47.1644 L 79.3853,-47.1142 L 79.9073,-47.0731 L 80.4299,-47.0411 L 80.953,-47.0183
 L 81.4764,-47.0046 L 82,-47 L 82.5236,-47.0046 L 83.047,-47.0183 L 83.5701,-47.0411 L 84.0927,-47.0731
 L 84.6147,-47.1142 L 85.1358,-47.1644 L 85.6561,-47.2236 L 86.1752,-47.292 L 86.693,-47.3694 L 87.2094,-47.4558
 L 87.7243,-47.5512 L 88.2374,-47.6556 L 88.7485,-47.7689 L 89.2576,-47.8911 L 89.7646,-48.0222 L 90.2691,-48.1622
 L 90.7711,-48.3109 L 91.2705,-48.4683 L 91.767,-48.6344 L 92.2606,-48.8092 L 92.751,-48.9926 L 93.2382,-49.1845
 L 93.7219,-49.3849 L 94.2021,-49.5936 L 94.6785,-49.8108 L 95.1511,-50.0362 L 95.6197,-50.2698 L 96.0841,-50.5116
 L 96.5443,-50.7614 L 97,-51.0192 L 97.4511,-51.285 L 97.8976,-51.5586 L 98.3392,-51.8399 L 98.7758,-52.1289
 L 99.2073,-52.4254 L 99.6335,-52.7295 L 100.054,-53.0409 L 100.47,-53.3597 L 100.88,-53.6856 L 101.284,-54.0187
 L 101.682,-54.3587 L 102.074,-54.7057 L 102.46,-55.0594 L 102.84,-55.4198 L 103.213,-55.7868 L 103.58,-56.1603
 L 103.941,-56.5401 L 104.294,-56.9261 L 104.36,-57 L 104.294,-57.0739 L 103.941,-57.4599 L 103.58,-57.8397
 L 103.213,-58.2132 L 102.84,-58.5802 L 102.46,-58.9406 L 102.074,-59.2943 L 101.682,-59.6413 L 101.284,-59.9813
 L 100.88,-60.3144 L 100.47,-60.6403 L 100.054,-60.9591 L 99.6335,-61.2705 L 99.2073,-61.5746 L 98.7758,-61.8711
 L 98.3392,-62.1601 L 97.8976,-62.4414 L 97.4511,-62.715 L 97,-62.9808 L 96.5443,-63.2386 L 96.0841,-63.4884
 L 95.6197,-63.7302 L 95.1511,-63.9638 L 94.6785,-64.1892 L 94.2021,-64.4064 L 93.7219,-64.6151 L 93.2382,-64.8155
 L 92.751,-65.0074 L 92.2606,-65.1908 L 91.767,-65.3656 L 91.2705,-65.5317 L 90.7711,-65.6891 L 90.2691,-65.8378
 L 89.7646,-65.9778 L 89.2576,-66.1089 L 88.7485,-66.2311 L 88.2374,-66.3444 L 87.7243,-66.4488 L 87.2094,-66.5442
 L 86.693,-66.6306 L 86.1752,-66.708 L 85.6561,-66.7764 L 85.1358,-66.8356 L 84.6147,-66.8858 L 84.0927,-66.9269
 L 83.5701,-66.9589 L 83.047,-66.9817 L 82.5236,-66.9954 L 82,-67 L 81.4764,-66.9954 L 80.953,-66.9817
 L 80.4299,-66.9589 L 79.9073,-66.9269 L 79.3853,-66.8858 L 78.8642,-66.8356 L 78.3439,-66.7764 L 77.8248,-66.708
 L 77.307,-66.6306 L 76.7906,-66.5442 L 76.2757,-66.4488 L 75.7626,-66.3444 L 75.2515,-66.2311 L 74.7424,-66.1089
 L 74.2354,-65.9778 L 73.7309,-65.8378 L 73.2289,-65.6891 L 72.7295,-65.5317 L 72.233,-65.3656 L 71.7394,-65.1908
 L 71.249,-65.0074 L 70.7618,-64.8155 L 70.2781,-64.6151 L 69.7979,-64.4064 L 69.3215,-64.1892 L 68.8489,-63.9638
 L 68.3803,-63.7302 L 67.9159,-63.4884 L 67.4557,-63.2386 L 67,-62.9808 L 66.5489,-62.715 L 66.1024,-62.4414
 L 65.6608,-62.1601 L 65.2242,-61.8711 L 64.7927,-61.5746 L 64.3665,-61.2705 L 63.9456,-60.9591 L 63.5302,-60.6403
 L 63.1204,-60.3144 L 62.7164,-59.9813 L 62.3182,-59.6413 L 61.9261,-59.2943 L 61.5401,-58.9406 L 61.1603,-58.5802
 L 60.7868,-58.2132 L 60.4198,-57.8397 L 60.0594,-57.4599 L 59.7057,-57.0739 L 59.6403,-57 L 59.7057,-56.9261
 L 60.0594,-56.5401 L 60.4198,-56.1603 L 60.7868,-55.7868 L 61.1603,-55.4198 L 61.5401,-55.0594 L 61.9261,-54.7057
 L 62.3182,-54.3587 L 62.7164,-54.0187 L 63.1204,-53.6856 L 63.5302,-53.3597 L 63.9456,-53.0409 L 64.3665,-52.7295
 L 64.5182,-52.6213 L 46.4576,-56.1805 L 56.8832,-65.6293 L 56.8832,-68.3483 L 54.1643,-68.8841 L 43.9934,-59.6661
 L 43.9934,-84.3085 L 41.2745,-84.8443 L 40.0066,-83.6952 L 40.0066,-57.4518 L 13.6321,-62.6494 L 12.3642,-61.5003
 L 12.3642,-58.7814 L 37.5424,-53.8195 L 27.1168,-44.3707 L 27.1168,-41.6517 L 29.8357,-41.1159 L 40.0066,-50.3339
 L 40.0066,-25.6915 L 42.7255,-25.1557 z
M 81.7503,-48.0035 L 81.5506,-48.0112 L 81.3512,-48.0234 L 81.152,-48.04 L 80.9533,-48.0611 L 80.7551,-48.0865
 L 80.5576,-48.1163 L 80.3607,-48.1506 L 80.1647,-48.1891 L 79.9695,-48.2321 L 79.7753,-48.2793 L 79.5823,-48.3308
 L 79.3904,-48.3866 L 79.1999,-48.4467 L 79.0107,-48.511 L 78.8229,-48.5794 L 78.6368,-48.652 L 78.4523,-48.7287
 L 78.2695,-48.8096 L 78.0886,-48.8944 L 77.9096,-48.9832 L 77.7327,-49.076 L 77.5578,-49.1727 L 77.3851,-49.2732
 L 77.2147,-49.3776 L 77.0467,-49.4857 L 76.8811,-49.5975 L 76.718,-49.713 L 76.5576,-49.832 L 76.3998,-49.9546
 L 76.2447,-50.0807 L 76.0925,-50.2102 L 75.9433,-50.343 L 75.797,-50.4791 L 75.6537,-50.6184 L 75.5136,-50.7609
 L 75.3767,-50.9064 L 75.2431,-51.0549 L 75.1127,-51.2064 L 74.9858,-51.3607 L 74.8624,-51.5179 L 74.7424,-51.6777
 L 74.6261,-51.8401 L 74.5133,-52.0051 L 74.4043,-52.1725 L 74.299,-52.3423 L 74.1975,-52.5144 L 74.0998,-52.6888
 L 74.006,-52.8652 L 73.9162,-53.0437 L 73.8304,-53.2241 L 73.7486,-53.4064 L 73.6708,-53.5905 L 73.5972,-53.7762
 L 73.5277,-53.9636 L 73.4624,-54.1524 L 73.4013,-54.3427 L 73.3444,-54.5342 L 73.2918,-54.727 L 73.2435,-54.9209
 L 73.1995,-55.1158 L 73.1598,-55.3116 L 73.1245,-55.5083 L 73.0936,-55.7057 L 73.067,-55.9037 L 73.0449,-56.1023
 L 73.0272,-56.3013 L 73.0139,-56.5007 L 73.005,-56.7003 L 73.0006,-56.9001 L 73.0006,-57.0999 L 73.005,-57.2997
 L 73.0139,-57.4993 L 73.0272,-57.6987 L 73.0449,-57.8977 L 73.067,-58.0963 L 73.0936,-58.2943 L 73.1245,-58.4917
 L 73.1598,-58.6884 L 73.1995,-58.8842 L 73.2435,-59.0791 L 73.2918,-59.273 L 73.3444,-59.4658 L 73.4013,-59.6573
 L 73.4624,-59.8476 L 73.5277,-60.0364 L 73.5972,-60.2238 L 73.6708,-60.4095 L 73.7486,-60.5936 L 73.8304,-60.7759
 L 73.9162,-60.9563 L 74.006,-61.1348 L 74.0998,-61.3112 L 74.1975,-61.4856 L 74.299,-61.6577 L 74.4043,-61.8275
 L 74.5133,-61.9949 L 74.6261,-62.1599 L 74.7424,-62.3223 L 74.8624,-62.4821 L 74.9858,-62.6393 L 75.1127,-62.7936
 L 75.2431,-62.9451 L 75.3767,-63.0936 L 75.5136,-63.2391 L 75.6537,-63.3816 L 75.797,-63.5209 L 75.9433,-63.657
 L 76.0925,-63.7898 L 76.2447,-63.9193 L 76.3998,-64.0454 L 76.5576,-64.168 L 76.718,-64.287 L 76.8811,-64.4025
 L 77.0467,-64.5143 L 77.2147,-64.6224 L 77.3851,-64.7268 L 77.5578,-64.8273 L 77.7327,-64.924 L 77.9096,-65.0168
 L 78.0886,-65.1056 L 78.2695,-65.1904 L 78.4523,-65.2713 L 78.6368,-65.348 L 78.8229,-65.4206 L 79.0107,-65.489
 L 79.1999,-65.5533 L 79.3904,-65.6134 L 79.5823,-65.6692 L 79.7753,-65.7207 L 79.9695,-65.7679 L 80.1647,-65.8109
 L 80.3607,-65.8494 L 80.5576,-65.8837 L 80.7551,-65.9135 L 80.9533,-65.9389 L 81.152,-65.96 L 81.3512,-65.9766
 L 81.5506,-65.9888 L 81.7503,-65.9965 L 81.9501,-65.9998 L 82.1499,-65.9987 L 82.3496,-65.9932 L 82.5491,-65.9832
 L 82.7484,-65.9688 L 82.9474,-65.95 L 83.1458,-65.9268 L 83.3437,-65.8991 L 83.541,-65.8671 L 83.7374,-65.8307
 L 83.933,-65.7899 L 84.1277,-65.7449 L 84.3213,-65.6955 L 84.5138,-65.6418 L 84.705,-65.5839 L 84.8949,-65.5217
 L 85.0834,-65.4553 L 85.2703,-65.3848 L 85.4557,-65.3101 L 85.6393,-65.2314 L 85.8212,-65.1485 L 86.0011,-65.0617
 L 86.1791,-64.9709 L 86.355,-64.8761 L 86.5288,-64.7775 L 86.7003,-64.6751 L 86.8696,-64.5688 L 87.0364,-64.4588
 L 87.2008,-64.3452 L 87.3625,-64.2279 L 87.5217,-64.1071 L 87.6781,-63.9828 L 87.8317,-63.855 L 87.9825,-63.7238
 L 88.1303,-63.5894 L 88.275,-63.4516 L 88.4167,-63.3107 L 88.5552,-63.1667 L 88.6905,-63.0197 L 88.8225,-62.8697
 L 88.9511,-62.7168 L 89.0763,-62.5611 L 89.1981,-62.4026 L 89.3162,-62.2414 L 89.4308,-62.0777 L 89.5417,-61.9115
 L 89.6488,-61.7429 L 89.7523,-61.5719 L 89.8519,-61.3987 L 89.9476,-61.2233 L 90.0394,-61.0458 L 90.1272,-60.8663
 L 90.211,-60.685 L 90.2908,-60.5018 L 90.3665,-60.3168 L 90.4381,-60.1303 L 90.5055,-59.9422 L 90.5687,-59.7526
 L 90.6277,-59.5617 L 90.6825,-59.3696 L 90.7329,-59.1762 L 90.7791,-58.9818 L 90.8209,-58.7864 L 90.8584,-58.5901
 L 90.8915,-58.3931 L 90.9203,-58.1954 L 90.9446,-57.997 L 90.9645,-57.7982 L 90.98,-57.599 L 90.9911,-57.3995
 L 90.9978,-57.1998 L 91,-57 L 90.9978,-56.8002 L 90.9911,-56.6005 L 90.98,-56.401 L 90.9645,-56.2018
 L 90.9446,-56.003 L 90.9203,-55.8046 L 90.8915,-55.6069 L 90.8584,-55.4099 L 90.8209,-55.2136 L 90.7791,-55.0182
 L 90.7329,-54.8238 L 90.6825,-54.6304 L 90.6277,-54.4383 L 90.5687,-54.2474 L 90.5055,-54.0578 L 90.4381,-53.8697
 L 90.3665,-53.6832 L 90.2908,-53.4982 L 90.211,-53.315 L 90.1272,-53.1337 L 90.0394,-52.9542 L 89.9476,-52.7767
 L 89.8519,-52.6013 L 89.7523,-52.4281 L 89.6488,-52.2571 L 89.5417,-52.0885 L 89.4308,-51.9223 L 89.3162,-51.7586
 L 89.1981,-51.5974 L 89.0763,-51.4389 L 88.9511,-51.2832 L 88.8225,-51.1303 L 88.6905,-50.9803 L 88.5552,-50.8333
 L 88.4167,-50.6893 L 88.275,-50.5484 L 88.1303,-50.4106 L 87.9825,-50.2762 L 87.8317,-50.145 L 87.6781,-50.0172
 L 87.5217,-49.8929 L 87.3625,-49.7721 L 87.2008,-49.6548 L 87.0364,-49.5412 L 86.8696,-49.4312 L 86.7003,-49.3249
 L 86.5288,-49.2225 L 86.355,-49.1239 L 86.1791,-49.0291 L 86.0011,-48.9383 L 85.8212,-48.8515 L 85.6393,-48.7686
 L 85.4557,-48.6899 L 85.2703,-48.6152 L 85.0834,-48.5447 L 84.8949,-48.4783 L 84.705,-48.4161 L 84.5138,-48.3582
 L 84.3213,-48.3045 L 84.1277,-48.2551 L 83.933,-48.2101 L 83.7374,-48.1693 L 83.541,-48.1329 L 83.3437,-48.1009
 L 83.1458,-48.0732 L 82.9474,-48.05 L 82.7484,-48.0312 L 82.5491,-48.0168 L 82.3496,-48.0068 L 82.1499,-48.0013
 L 81.9501,-48.0002 z
M 91.577,-17.5921 L 99.1007,-0 L 102.796,-0 L 93.453,-21.0672 L 102.125,-40 L 98.6603,-40
 L 91.6535,-24.1585 L 84.7041,-40 L 81.1048,-40 L 89.7773,-20.9029 L 80.4733,-0 L 83.9192,-0
 z
M 75.306,-17.8661 L 83.1933,-17.8661 L 83.1933,-21.6417 L 75.306,-21.6417 L 75.306,-33.3513 L 72.6449,-33.3513
 L 72.6449,-21.6417 L 64.7957,-21.6417 L 64.7957,-17.8661 L 72.6449,-17.8661 L 72.6449,-6.21048 L 75.306,-6.21048
 z
" stroke="white" fill="white" stroke-width="0.5"/>
</svg>
