<?xml version="1.0" standalone="no"?>
<!DOCTYPE svg PUBLIC "-//W3C//DTD SVG 1.1//EN" "http://www.w3.org/Graphics/SVG/1.1/DTD/svg11.dtd">
<svg width="100mm" height="100mm" viewBox="-8 -108 116 116" xmlns="http://www.w3.org/2000/svg" version="1.1">
<title>OpenSCAD Model</title>
<path d="
M 49.9382,-87.1341 L 49.9369,-87.1341 L 49.9365,-87.1341 L 49.8136,-87.131 L 49.6158,-87.1062 L 49.4214,-87.0618
 L 49.2324,-86.9982 L 49.0507,-86.9162 L 48.966,-86.8673 L 48.9435,-86.8564 L 48.8791,-86.8171 L 48.8781,-86.8165
 L 48.8777,-86.8162 L 48.7734,-86.7525 L 48.6144,-86.6321 L 48.594,-86.6131 L 18.9263,-69.4845 L 18.8122,-69.443
 L 18.6326,-69.3564 L 18.4625,-69.2525 L 18.3035,-69.1321 L 18.1574,-68.9965 L 18.0255,-68.847 L 17.9091,-68.6851
 L 17.8094,-68.5124 L 17.7274,-68.3307 L 17.6639,-68.1417 L 17.6195,-67.9473 L 17.5947,-67.7495 L 17.5891,-67.6
 L 17.5891,-32.8316 L 17.568,-32.712 L 17.5531,-32.5132 L 17.5581,-32.3139 L 17.5829,-32.116 L 17.6273,-31.9217
 L 17.6908,-31.7327 L 17.7728,-31.5509 L 17.8725,-31.3783 L 17.9889,-31.2164 L 18.1208,-31.0669 L 18.267,-30.9313
 L 18.4259,-30.8109 L 18.5525,-30.7314 L 43.0614,-16.5811 L 50,2.5 L 56.9386,-16.5811 L 81.4475,-30.7314
 L 81.615,-30.8395 L 81.7708,-30.9639 L 81.9136,-31.1031 L 82.0417,-31.2558 L 82.1541,-31.4205 L 82.2494,-31.5956
 L 82.3269,-31.7794 L 82.3856,-31.9699 L 82.4251,-32.1653 L 82.445,-32.3637 L 82.445,-32.5631 L 82.4251,-32.7615
 L 82.4109,-32.832 L 82.4109,-67.6 L 82.401,-67.7991 L 82.3712,-67.9963 L 82.322,-68.1895 L 82.2538,-68.3769
 L 82.1673,-68.5565 L 82.0634,-68.7266 L 81.943,-68.8856 L 81.8074,-69.0317 L 81.6579,-69.1637 L 81.496,-69.2801
 L 81.3233,-69.3797 L 81.1416,-69.4617 L 81.0734,-69.4847 L 51.4009,-86.6161 L 51.347,-86.6637 L 51.1851,-86.78
 L 51.1001,-86.8291 L 51.0795,-86.8432 L 51.0135,-86.8791 L 51.0124,-86.8797 L 51.012,-86.8799 L 50.9044,-86.9385
 L 50.7207,-87.016 L 50.5301,-87.0747 L 50.3347,-87.1143 L 50.1363,-87.1341 L 50.0381,-87.1341 L 50.013,-87.136
 z
M 76.1109,-32.5 L 57.9767,-22.0303 L 57.8605,-22.0047 L 57.4921,-21.9282 L 57.1208,-21.8553 L 56.7466,-21.7861
 L 56.3697,-21.7207 L 55.9903,-21.6591 L 55.6085,-21.6013 L 55.2245,-21.5472 L 54.8384,-21.4971 L 54.4504,-21.4507
 L 54.0606,-21.4083 L 53.6692,-21.3697 L 53.2764,-21.3351 L 52.8822,-21.3044 L 52.4869,-21.2776 L 52.0906,-21.2548
 L 51.6934,-21.2359 L 51.2956,-21.221 L 50.8973,-21.2101 L 50.4986,-21.2031 L 50.0997,-21.2001 L 49.7008,-21.2011
 L 49.302,-21.2061 L 48.9035,-21.215 L 48.5054,-21.228 L 48.1079,-21.2449 L 47.7112,-21.2657 L 47.3153,-21.2905
 L 46.9206,-21.3193 L 46.527,-21.3519 L 46.1349,-21.3885 L 45.7443,-21.429 L 45.3553,-21.4734 L 44.9683,-21.5217
 L 44.5832,-21.5738 L 44.2003,-21.6297 L 43.8197,-21.6894 L 43.4415,-21.753 L 43.066,-21.8203 L 42.6932,-21.8913
 L 42.3233,-21.966 L 42.0237,-22.03 L 23.8891,-32.5 L 50,-47.5751 z
M 78.2109,-66.2876 L 78.2109,-36.1373 L 52.1,-51.2124 L 52.1,-81.3627 z
M 47.9,-51.2124 L 21.7891,-36.1373 L 21.7891,-66.2876 L 47.9,-81.3627 z
" stroke="black" fill="black" stroke-width="0.5"/>
</svg>
