<?xml version="1.0" standalone="no"?>
<!DOCTYPE svg PUBLIC "-//W3C//DTD SVG 1.1//EN" "http://www.w3.org/Graphics/SVG/1.1/DTD/svg11.dtd">
<svg width="100mm" height="100mm" viewBox="-8 -108 116 116" xmlns="http://www.w3.org/2000/svg" version="1.1">
<title>OpenSCAD Model</title>
<path d="
M 50.0618,-12.8659 L 50.0631,-12.8659 L 50.0635,-12.8659 L 50.1864,-12.869 L 50.3842,-12.8938 L 50.5786,-12.9382
 L 50.7676,-13.0018 L 50.9493,-13.0838 L 51.034,-13.1327 L 51.0565,-13.1436 L 51.1209,-13.1829 L 51.1219,-13.1835
 L 51.1223,-13.1838 L 51.2266,-13.2475 L 51.3856,-13.3679 L 51.406,-13.3869 L 81.0737,-30.5155 L 81.1878,-30.557
 L 81.3674,-30.6436 L 81.5375,-30.7475 L 81.6965,-30.8679 L 81.8426,-31.0035 L 81.9745,-31.153 L 82.0909,-31.3149
 L 82.1906,-31.4876 L 82.2726,-31.6693 L 82.3361,-31.8583 L 82.3805,-32.0527 L 82.4053,-32.2505 L 82.4109,-32.4
 L 82.4109,-67.1684 L 82.432,-67.288 L 82.4469,-67.4868 L 82.4419,-67.6861 L 82.4171,-67.884 L 82.3727,-68.0783
 L 82.3092,-68.2673 L 82.2272,-68.4491 L 82.1275,-68.6217 L 82.0111,-68.7836 L 81.8792,-68.9331 L 81.733,-69.0687
 L 81.5741,-69.1891 L 81.4475,-69.2686 L 51.1366,-86.7686 L 50.9592,-86.8596 L 50.7736,-86.9324 L 50.5816,-86.9865
 L 50.3853,-87.0211 L 50.1865,-87.036 L 49.9928,-87.0311 L 49.963,-87.0341 L 49.7636,-87.0341 L 49.5652,-87.0142
 L 49.3698,-86.9747 L 49.1793,-86.916 L 48.9956,-86.8385 L 48.8634,-86.7686 L 18.5525,-69.2686 L 18.385,-69.1605
 L 18.2292,-69.0361 L 18.0864,-68.8969 L 17.9583,-68.7442 L 17.8459,-68.5795 L 17.7506,-68.4044 L 17.6731,-68.2206
 L 17.6144,-68.0301 L 17.5749,-67.8347 L 17.555,-67.6363 L 17.555,-67.4369 L 17.5749,-67.2385 L 17.5891,-67.168
 L 17.5891,-32.4 L 17.599,-32.2009 L 17.6288,-32.0037 L 17.678,-31.8105 L 17.7462,-31.6231 L 17.8327,-31.4435
 L 17.9366,-31.2734 L 18.057,-31.1144 L 18.1926,-30.9683 L 18.3421,-30.8363 L 18.504,-30.7199 L 18.6767,-30.6203
 L 18.8584,-30.5383 L 18.9266,-30.5153 L 48.5991,-13.3839 L 48.653,-13.3363 L 48.8149,-13.22 L 48.8999,-13.1709
 L 48.9205,-13.1568 L 48.9865,-13.1209 L 48.9876,-13.1203 L 48.988,-13.1201 L 49.0956,-13.0615 L 49.2793,-12.984
 L 49.4699,-12.9253 L 49.6653,-12.8857 L 49.8637,-12.8659 L 49.9619,-12.8659 L 49.987,-12.864 z
M 23.8891,-67.5 L 49,-81.9978 L 49,-53.0022 z
M 21.7891,-33.7124 L 21.7891,-63.8627 L 47.9,-48.7876 L 47.9,-18.6373 z
M 52.1,-47.6353 L 77.213,-33.1363 L 52.1,-18.6373 z
" stroke="black" fill="black" stroke-width="0.5"/>
</svg>
