<?xml version="1.0" standalone="no"?>
<!DOCTYPE svg PUBLIC "-//W3C//DTD SVG 1.1//EN" "http://www.w3.org/Graphics/SVG/1.1/DTD/svg11.dtd">
<svg width="100mm" height="100mm" viewBox="-8 -108 116 116" xmlns="http://www.w3.org/2000/svg" version="1.1">
<title>OpenSCAD Model</title>
<path d="
M 12.8744,-49.754 L 12.9072,-49.5473 L 12.9614,-49.3451 L 13.0364,-49.1497 L 13.1315,-48.9632 L 13.1514,-48.9326
 L 13.168,-48.9 L 13.282,-48.7244 L 13.3851,-48.5972 L 30.5142,-18.9287 L 30.5729,-18.7756 L 30.6679,-18.5891
 L 30.782,-18.4135 L 30.9137,-18.2509 L 31.0617,-18.1028 L 31.2244,-17.9711 L 31.4,-17.8571 L 31.5865,-17.762
 L 31.782,-17.687 L 31.9842,-17.6328 L 32.1909,-17.6001 L 32.4,-17.5891 L 67.1657,-17.5891 L 67.3276,-17.5635
 L 67.5367,-17.5525 L 67.7457,-17.5635 L 67.9525,-17.5962 L 68.1547,-17.6504 L 68.3501,-17.7255 L 68.5367,-17.8205
 L 68.7122,-17.9345 L 68.8749,-18.0663 L 69.0229,-18.2143 L 69.1547,-18.377 L 69.2686,-18.5525 L 83.4189,-43.0614
 L 102.5,-50 L 83.4189,-56.9386 L 69.2686,-81.4475 L 69.1546,-81.623 L 69.0229,-81.7857 L 68.8748,-81.9338
 L 68.7122,-82.0655 L 68.5366,-82.1795 L 68.3501,-82.2746 L 68.1546,-82.3496 L 67.9524,-82.4038 L 67.7457,-82.4365
 L 67.5366,-82.4475 L 67.3275,-82.4365 L 67.1657,-82.4109 L 32.4,-82.4109 L 32.1909,-82.3999 L 31.9842,-82.3672
 L 31.782,-82.313 L 31.5865,-82.238 L 31.4,-82.1429 L 31.2244,-82.0289 L 31.0617,-81.8972 L 30.9137,-81.7491
 L 30.782,-81.5865 L 30.6679,-81.4109 L 30.5729,-81.2244 L 30.5142,-81.0713 L 13.3851,-51.4028 L 13.282,-51.2756
 L 13.168,-51.1 L 13.1513,-51.0673 L 13.1314,-51.0366 L 13.0363,-50.8501 L 12.9613,-50.6547 L 12.9071,-50.4525
 L 12.8744,-50.2457 L 12.8634,-50.0366 L 12.8653,-49.9999 L 12.8634,-49.9631 z
M 67.5,-76.1109 L 77.9638,-57.987 L 78.3106,-56.1803 L 78.5815,-54.1582 L 78.7452,-52.0906 L 78.8,-50
 L 78.7452,-47.9094 L 78.5815,-45.8418 L 78.3106,-43.8197 L 77.9638,-42.013 L 67.5,-23.8891 L 52.4249,-50
 z
M 33.7124,-78.2109 L 63.8627,-78.2109 L 48.7876,-52.1 L 18.6373,-52.1 z
M 48.7876,-47.9 L 63.8627,-21.7891 L 33.7124,-21.7891 L 18.6373,-47.9 z
" stroke="white" fill="white" stroke-width="0.5"/>
</svg>
