<?xml version="1.0" standalone="no"?>
<!DOCTYPE svg PUBLIC "-//W3C//DTD SVG 1.1//EN" "http://www.w3.org/Graphics/SVG/1.1/DTD/svg11.dtd">
<svg width="100mm" height="100mm" viewBox="-8 -108 116 116" xmlns="http://www.w3.org/2000/svg" version="1.1">
<title>OpenSCAD Model</title>
<path d="
M 70.5236,-69.0046 L 71.047,-69.0183 L 71.5701,-69.0411 L 72.0927,-69.0731 L 72.6147,-69.1142 L 73.1358,-69.1644
 L 73.6561,-69.2236 L 74.1752,-69.292 L 74.693,-69.3694 L 75.2094,-69.4558 L 75.7243,-69.5512 L 76.2374,-69.6556
 L 76.7485,-69.7689 L 77.2576,-69.8911 L 77.7646,-70.0222 L 78.2691,-70.1622 L 78.7711,-70.3109 L 79.2705,-70.4683
 L 79.767,-70.6344 L 80.2606,-70.8092 L 80.751,-70.9926 L 81.2382,-71.1845 L 81.7219,-71.3849 L 82.2021,-71.5936
 L 82.6785,-71.8108 L 83.1511,-72.0362 L 83.6197,-72.2698 L 84.0841,-72.5116 L 84.5443,-72.7614 L 85,-73.0192
 L 85.4511,-73.285 L 85.8976,-73.5586 L 86.3392,-73.8399 L 86.7758,-74.1289 L 87.2073,-74.4254 L 87.6335,-74.7295
 L 88.0544,-75.0409 L 88.4698,-75.3597 L 88.8796,-75.6856 L 89.2836,-76.0187 L 89.6818,-76.3587 L 90.0739,-76.7057
 L 90.4599,-77.0594 L 90.8397,-77.4198 L 91.2132,-77.7868 L 91.5802,-78.1603 L 91.9406,-78.5401 L 92.2943,-78.9261
 L 92.3597,-79 L 92.2943,-79.0739 L 91.9406,-79.4599 L 91.5802,-79.8397 L 91.2132,-80.2132 L 90.8397,-80.5802
 L 90.4599,-80.9406 L 90.0739,-81.2943 L 89.6818,-81.6413 L 89.2836,-81.9813 L 88.8796,-82.3144 L 88.4698,-82.6403
 L 88.0544,-82.9591 L 87.6335,-83.2705 L 87.2073,-83.5746 L 86.7758,-83.8711 L 86.3392,-84.1601 L 85.8976,-84.4414
 L 85.4511,-84.715 L 85,-84.9808 L 84.5443,-85.2386 L 84.0841,-85.4884 L 83.6197,-85.7302 L 83.1511,-85.9638
 L 82.6785,-86.1892 L 82.2021,-86.4064 L 81.7219,-86.6151 L 81.2382,-86.8155 L 80.751,-87.0074 L 80.2606,-87.1908
 L 79.767,-87.3656 L 79.2705,-87.5317 L 78.7711,-87.6891 L 78.2691,-87.8378 L 77.7646,-87.9778 L 77.2576,-88.1089
 L 76.7485,-88.2311 L 76.2374,-88.3444 L 75.7243,-88.4488 L 75.2094,-88.5442 L 74.693,-88.6306 L 74.1752,-88.708
 L 73.6561,-88.7764 L 73.1358,-88.8356 L 72.6147,-88.8858 L 72.0927,-88.9269 L 71.5701,-88.9589 L 71.047,-88.9817
 L 70.5236,-88.9954 L 70,-89 L 69.4764,-88.9954 L 68.953,-88.9817 L 68.4299,-88.9589 L 67.9073,-88.9269
 L 67.3853,-88.8858 L 66.8642,-88.8356 L 66.3439,-88.7764 L 65.8248,-88.708 L 65.307,-88.6306 L 64.7906,-88.5442
 L 64.2757,-88.4488 L 63.7626,-88.3444 L 63.2515,-88.2311 L 62.7424,-88.1089 L 62.2354,-87.9778 L 61.7309,-87.8378
 L 61.2289,-87.6891 L 60.7295,-87.5317 L 60.233,-87.3656 L 59.7394,-87.1908 L 59.249,-87.0074 L 58.7618,-86.8155
 L 58.2781,-86.6151 L 57.7979,-86.4064 L 57.3215,-86.1892 L 56.8489,-85.9638 L 56.3803,-85.7302 L 55.9159,-85.4884
 L 55.4557,-85.2386 L 55,-84.9808 L 54.5489,-84.715 L 54.1024,-84.4414 L 53.6608,-84.1601 L 53.2242,-83.8711
 L 52.7927,-83.5746 L 52.3665,-83.2705 L 51.9456,-82.9591 L 51.5302,-82.6403 L 51.1204,-82.3144 L 50.7164,-81.9813
 L 50.3182,-81.6413 L 49.9261,-81.2943 L 49.5401,-80.9406 L 49.1603,-80.5802 L 48.7868,-80.2132 L 48.4198,-79.8397
 L 48.0594,-79.4599 L 47.7057,-79.0739 L 47.6403,-79 L 47.7057,-78.9261 L 48.0594,-78.5401 L 48.4198,-78.1603
 L 48.7868,-77.7868 L 49.1603,-77.4198 L 49.5401,-77.0594 L 49.9261,-76.7057 L 50.3182,-76.3587 L 50.7164,-76.0187
 L 51.1204,-75.6856 L 51.5302,-75.3597 L 51.9456,-75.0409 L 52.3665,-74.7295 L 52.7927,-74.4254 L 53.2242,-74.1289
 L 53.6608,-73.8399 L 54.1024,-73.5586 L 54.5489,-73.285 L 55,-73.0192 L 55.4557,-72.7614 L 55.9159,-72.5116
 L 56.3803,-72.2698 L 56.8489,-72.0362 L 57.3215,-71.8108 L 57.7979,-71.5936 L 58.2781,-71.3849 L 58.7618,-71.1845
 L 59.249,-70.9926 L 59.7394,-70.8092 L 60.233,-70.6344 L 60.7295,-70.4683 L 61.2289,-70.3109 L 61.7309,-70.1622
 L 62.2354,-70.0222 L 62.7424,-69.8911 L 63.2515,-69.7689 L 63.7626,-69.6556 L 64.2757,-69.5512 L 64.7906,-69.4558
 L 65.307,-69.3694 L 65.8248,-69.292 L 66.3439,-69.2236 L 66.8642,-69.1644 L 67.3853,-69.1142 L 67.9073,-69.0731
 L 68.4299,-69.0411 L 68.953,-69.0183 L 69.4764,-69.0046 L 70,-69 z
M 69.7503,-70.0035 L 69.5506,-70.0112 L 69.3512,-70.0234 L 69.152,-70.04 L 68.9533,-70.0611 L 68.7551,-70.0865
 L 68.5576,-70.1163 L 68.3607,-70.1506 L 68.1647,-70.1891 L 67.9695,-70.2321 L 67.7753,-70.2793 L 67.5823,-70.3308
 L 67.3904,-70.3866 L 67.1999,-70.4467 L 67.0107,-70.511 L 66.8229,-70.5794 L 66.6368,-70.652 L 66.4523,-70.7287
 L 66.2695,-70.8096 L 66.0886,-70.8944 L 65.9096,-70.9832 L 65.7327,-71.076 L 65.5578,-71.1727 L 65.3851,-71.2732
 L 65.2147,-71.3776 L 65.0467,-71.4857 L 64.8811,-71.5975 L 64.718,-71.713 L 64.5576,-71.832 L 64.3998,-71.9546
 L 64.2447,-72.0807 L 64.0925,-72.2102 L 63.9433,-72.343 L 63.797,-72.4791 L 63.6537,-72.6184 L 63.5136,-72.7609
 L 63.3767,-72.9064 L 63.2431,-73.0549 L 63.1127,-73.2064 L 62.9858,-73.3607 L 62.8624,-73.5179 L 62.7424,-73.6777
 L 62.6261,-73.8401 L 62.5133,-74.0051 L 62.4043,-74.1725 L 62.299,-74.3423 L 62.1975,-74.5144 L 62.0998,-74.6888
 L 62.006,-74.8652 L 61.9162,-75.0437 L 61.8304,-75.2241 L 61.7486,-75.4064 L 61.6708,-75.5905 L 61.5972,-75.7762
 L 61.5277,-75.9636 L 61.4624,-76.1524 L 61.4013,-76.3427 L 61.3444,-76.5342 L 61.2918,-76.727 L 61.2435,-76.9209
 L 61.1995,-77.1158 L 61.1598,-77.3116 L 61.1245,-77.5083 L 61.0936,-77.7057 L 61.067,-77.9037 L 61.0449,-78.1023
 L 61.0272,-78.3013 L 61.0139,-78.5007 L 61.005,-78.7003 L 61.0006,-78.9001 L 61.0006,-79.0999 L 61.005,-79.2997
 L 61.0139,-79.4993 L 61.0272,-79.6987 L 61.0449,-79.8977 L 61.067,-80.0963 L 61.0936,-80.2943 L 61.1245,-80.4917
 L 61.1598,-80.6884 L 61.1995,-80.8842 L 61.2435,-81.0791 L 61.2918,-81.273 L 61.3444,-81.4658 L 61.4013,-81.6573
 L 61.4624,-81.8476 L 61.5277,-82.0364 L 61.5972,-82.2238 L 61.6708,-82.4095 L 61.7486,-82.5936 L 61.8304,-82.7759
 L 61.9162,-82.9563 L 62.006,-83.1348 L 62.0998,-83.3112 L 62.1975,-83.4856 L 62.299,-83.6577 L 62.4043,-83.8275
 L 62.5133,-83.9949 L 62.6261,-84.1599 L 62.7424,-84.3223 L 62.8624,-84.4821 L 62.9858,-84.6393 L 63.1127,-84.7936
 L 63.2431,-84.9451 L 63.3767,-85.0936 L 63.5136,-85.2391 L 63.6537,-85.3816 L 63.797,-85.5209 L 63.9433,-85.657
 L 64.0925,-85.7898 L 64.2447,-85.9193 L 64.3998,-86.0454 L 64.5576,-86.168 L 64.718,-86.287 L 64.8811,-86.4025
 L 65.0467,-86.5143 L 65.2147,-86.6224 L 65.3851,-86.7268 L 65.5578,-86.8273 L 65.7327,-86.924 L 65.9096,-87.0168
 L 66.0886,-87.1056 L 66.2695,-87.1904 L 66.4523,-87.2713 L 66.6368,-87.348 L 66.8229,-87.4206 L 67.0107,-87.489
 L 67.1999,-87.5533 L 67.3904,-87.6134 L 67.5823,-87.6692 L 67.7753,-87.7207 L 67.9695,-87.7679 L 68.1647,-87.8109
 L 68.3607,-87.8494 L 68.5576,-87.8837 L 68.7551,-87.9135 L 68.9533,-87.9389 L 69.152,-87.96 L 69.3512,-87.9766
 L 69.5506,-87.9888 L 69.7503,-87.9965 L 69.9501,-87.9998 L 70.1499,-87.9987 L 70.3496,-87.9932 L 70.5491,-87.9832
 L 70.7484,-87.9688 L 70.9474,-87.95 L 71.1458,-87.9268 L 71.3437,-87.8991 L 71.541,-87.8671 L 71.7374,-87.8307
 L 71.933,-87.7899 L 72.1277,-87.7449 L 72.3213,-87.6955 L 72.5138,-87.6418 L 72.705,-87.5839 L 72.8949,-87.5217
 L 73.0834,-87.4553 L 73.2703,-87.3848 L 73.4557,-87.3101 L 73.6393,-87.2314 L 73.8212,-87.1485 L 74.0011,-87.0617
 L 74.1791,-86.9709 L 74.355,-86.8761 L 74.5288,-86.7775 L 74.7003,-86.6751 L 74.8696,-86.5688 L 75.0364,-86.4588
 L 75.2008,-86.3452 L 75.3625,-86.2279 L 75.5217,-86.1071 L 75.6781,-85.9828 L 75.8317,-85.855 L 75.9825,-85.7238
 L 76.1303,-85.5894 L 76.275,-85.4516 L 76.4167,-85.3107 L 76.5552,-85.1667 L 76.6905,-85.0197 L 76.8225,-84.8697
 L 76.9511,-84.7168 L 77.0763,-84.5611 L 77.1981,-84.4026 L 77.3162,-84.2414 L 77.4308,-84.0777 L 77.5417,-83.9115
 L 77.6488,-83.7429 L 77.7523,-83.5719 L 77.8519,-83.3987 L 77.9476,-83.2233 L 78.0394,-83.0458 L 78.1272,-82.8663
 L 78.211,-82.685 L 78.2908,-82.5018 L 78.3665,-82.3168 L 78.4381,-82.1303 L 78.5055,-81.9422 L 78.5687,-81.7526
 L 78.6277,-81.5617 L 78.6825,-81.3696 L 78.7329,-81.1762 L 78.7791,-80.9818 L 78.8209,-80.7864 L 78.8584,-80.5901
 L 78.8915,-80.3931 L 78.9203,-80.1954 L 78.9446,-79.997 L 78.9645,-79.7982 L 78.98,-79.599 L 78.9911,-79.3995
 L 78.9978,-79.1998 L 79,-79 L 78.9978,-78.8002 L 78.9911,-78.6005 L 78.98,-78.401 L 78.9645,-78.2018
 L 78.9446,-78.003 L 78.9203,-77.8046 L 78.8915,-77.6069 L 78.8584,-77.4099 L 78.8209,-77.2136 L 78.7791,-77.0182
 L 78.7329,-76.8238 L 78.6825,-76.6304 L 78.6277,-76.4383 L 78.5687,-76.2474 L 78.5055,-76.0578 L 78.4381,-75.8697
 L 78.3665,-75.6832 L 78.2908,-75.4982 L 78.211,-75.315 L 78.1272,-75.1337 L 78.0394,-74.9542 L 77.9476,-74.7767
 L 77.8519,-74.6013 L 77.7523,-74.4281 L 77.6488,-74.2571 L 77.5417,-74.0885 L 77.4308,-73.9223 L 77.3162,-73.7586
 L 77.1981,-73.5974 L 77.0763,-73.4389 L 76.9511,-73.2832 L 76.8225,-73.1303 L 76.6905,-72.9803 L 76.5552,-72.8333
 L 76.4167,-72.6893 L 76.275,-72.5484 L 76.1303,-72.4106 L 75.9825,-72.2762 L 75.8317,-72.145 L 75.6781,-72.0172
 L 75.5217,-71.8929 L 75.3625,-71.7721 L 75.2008,-71.6548 L 75.0364,-71.5412 L 74.8696,-71.4312 L 74.7003,-71.3249
 L 74.5288,-71.2225 L 74.355,-71.1239 L 74.1791,-71.0291 L 74.0011,-70.9383 L 73.8212,-70.8515 L 73.6393,-70.7686
 L 73.4557,-70.6899 L 73.2703,-70.6152 L 73.0834,-70.5447 L 72.8949,-70.4783 L 72.705,-70.4161 L 72.5138,-70.3582
 L 72.3213,-70.3045 L 72.1277,-70.2551 L 71.933,-70.2101 L 71.7374,-70.1693 L 71.541,-70.1329 L 71.3437,-70.1009
 L 71.1458,-70.0732 L 70.9474,-70.05 L 70.7484,-70.0312 L 70.5491,-70.0168 L 70.3496,-70.0068 L 70.1499,-70.0013
 L 69.9501,-70.0002 z
M 43.9934,-26.3048 L 43.9934,-52.5482 L 70.3679,-47.3506 L 71.6358,-48.4997 L 71.6358,-51.2186 L 46.4576,-56.1805
 L 56.8832,-65.6293 L 56.8832,-68.3483 L 54.1643,-68.8841 L 43.9934,-59.6661 L 43.9934,-84.3085 L 41.2745,-84.8443
 L 40.0066,-83.6952 L 40.0066,-57.4518 L 13.6321,-62.6494 L 12.3642,-61.5003 L 12.3642,-58.7814 L 37.5424,-53.8195
 L 27.1168,-44.3707 L 27.1168,-41.6517 L 29.8357,-41.1159 L 40.0066,-50.3339 L 40.0066,-25.6915 L 42.7255,-25.1557
 z
M 93.3971,-15.5131 L 102.869,-40 L 99.2973,-40 L 91.7282,-20 L 84.2169,-40 L 80.607,-40
 L 90.059,-15.294 L 90.059,-0 L 93.3971,-0 z
M 75.5239,-17.8661 L 83.52,-17.8661 L 83.52,-21.6417 L 75.5239,-21.6417 L 75.5239,-33.3513 L 72.8261,-33.3513
 L 72.8261,-21.6417 L 64.8686,-21.6417 L 64.8686,-17.8661 L 72.8261,-17.8661 L 72.8261,-6.21048 L 75.5239,-6.21048
 z
" stroke="white" fill="white" stroke-width="0.5"/>
</svg>
