<?xml version="1.0" standalone="no"?>
<!DOCTYPE svg PUBLIC "-//W3C//DTD SVG 1.1//EN" "http://www.w3.org/Graphics/SVG/1.1/DTD/svg11.dtd">
<svg width="100mm" height="100mm" viewBox="-8 -108 116 116" xmlns="http://www.w3.org/2000/svg" version="1.1">
<title>OpenSCAD Model</title>
<path d="
M 87.1341,-50.0618 L 87.1341,-50.0631 L 87.1341,-50.0635 L 87.131,-50.1864 L 87.1062,-50.3842 L 87.0618,-50.5786
 L 86.9982,-50.7676 L 86.9162,-50.9493 L 86.8673,-51.034 L 86.8564,-51.0565 L 86.8171,-51.1209 L 86.8165,-51.1219
 L 86.8162,-51.1223 L 86.7525,-51.2266 L 86.6321,-51.3856 L 86.6131,-51.406 L 69.4845,-81.0737 L 69.443,-81.1878
 L 69.3564,-81.3674 L 69.2525,-81.5375 L 69.1321,-81.6965 L 68.9965,-81.8426 L 68.847,-81.9745 L 68.6851,-82.0909
 L 68.5124,-82.1906 L 68.3307,-82.2726 L 68.1417,-82.3361 L 67.9473,-82.3805 L 67.7495,-82.4053 L 67.6,-82.4109
 L 32.8316,-82.4109 L 32.712,-82.432 L 32.5132,-82.4469 L 32.3139,-82.4419 L 32.116,-82.4171 L 31.9217,-82.3727
 L 31.7327,-82.3092 L 31.5509,-82.2272 L 31.3783,-82.1275 L 31.2164,-82.0111 L 31.0669,-81.8792 L 30.9313,-81.733
 L 30.8109,-81.5741 L 30.7314,-81.4475 L 16.5811,-56.9386 L -2.5,-50 L 16.5811,-43.0614 L 30.7314,-18.5525
 L 30.8395,-18.385 L 30.9639,-18.2292 L 31.1031,-18.0864 L 31.2558,-17.9583 L 31.4205,-17.8459 L 31.5956,-17.7506
 L 31.7794,-17.6731 L 31.9699,-17.6144 L 32.1653,-17.5749 L 32.3637,-17.555 L 32.5631,-17.555 L 32.7615,-17.5749
 L 32.832,-17.5891 L 67.6,-17.5891 L 67.7991,-17.599 L 67.9963,-17.6288 L 68.1895,-17.678 L 68.3769,-17.7462
 L 68.5565,-17.8327 L 68.7266,-17.9366 L 68.8856,-18.057 L 69.0317,-18.1926 L 69.1637,-18.3421 L 69.2801,-18.504
 L 69.3797,-18.6767 L 69.4617,-18.8584 L 69.4847,-18.9266 L 86.6161,-48.5991 L 86.6637,-48.653 L 86.78,-48.8149
 L 86.8291,-48.8999 L 86.8432,-48.9205 L 86.8791,-48.9865 L 86.8797,-48.9876 L 86.8799,-48.988 L 86.9385,-49.0956
 L 87.016,-49.2793 L 87.0747,-49.4699 L 87.1143,-49.6653 L 87.1341,-49.8637 L 87.1341,-49.9619 L 87.136,-49.987
 z
M 32.5,-23.8891 L 22.0303,-42.0233 L 22.0047,-42.1395 L 21.9282,-42.5079 L 21.8553,-42.8792 L 21.7861,-43.2534
 L 21.7207,-43.6303 L 21.6591,-44.0097 L 21.6013,-44.3915 L 21.5472,-44.7755 L 21.4971,-45.1616 L 21.4507,-45.5496
 L 21.4083,-45.9394 L 21.3697,-46.3308 L 21.3351,-46.7236 L 21.3044,-47.1178 L 21.2776,-47.5131 L 21.2548,-47.9094
 L 21.2359,-48.3066 L 21.221,-48.7044 L 21.2101,-49.1027 L 21.2031,-49.5014 L 21.2001,-49.9003 L 21.2011,-50.2992
 L 21.2061,-50.698 L 21.215,-51.0965 L 21.228,-51.4946 L 21.2449,-51.8921 L 21.2657,-52.2888 L 21.2905,-52.6847
 L 21.3193,-53.0794 L 21.3519,-53.473 L 21.3885,-53.8651 L 21.429,-54.2557 L 21.4734,-54.6447 L 21.5217,-55.0317
 L 21.5738,-55.4168 L 21.6297,-55.7997 L 21.6894,-56.1803 L 21.753,-56.5585 L 21.8203,-56.934 L 21.8913,-57.3068
 L 21.966,-57.6767 L 22.03,-57.9763 L 32.5,-76.1109 L 47.5751,-50 z
M 66.2876,-21.7891 L 36.1373,-21.7891 L 51.2124,-47.9 L 81.3627,-47.9 z
M 51.2124,-52.1 L 36.1373,-78.2109 L 66.2876,-78.2109 L 81.3627,-52.1 z
" stroke="white" fill="white" stroke-width="0.5"/>
</svg>
