<?xml version="1.0" standalone="no"?>
<!DOCTYPE svg PUBLIC "-//W3C//DTD SVG 1.1//EN" "http://www.w3.org/Graphics/SVG/1.1/DTD/svg11.dtd">
<svg width="100mm" height="100mm" viewBox="-8 -108 116 116" xmlns="http://www.w3.org/2000/svg" version="1.1">
<title>OpenSCAD Model</title>
<path d="
M 12.8659,-49.9382 L 12.8659,-49.9369 L 12.8659,-49.9365 L 12.869,-49.8136 L 12.8938,-49.6158 L 12.9382,-49.4214
 L 13.0018,-49.2324 L 13.0838,-49.0507 L 13.1327,-48.966 L 13.1436,-48.9435 L 13.1829,-48.8791 L 13.1835,-48.8781
 L 13.1838,-48.8777 L 13.2475,-48.7734 L 13.3679,-48.6144 L 13.3869,-48.594 L 30.5155,-18.9263 L 30.557,-18.8122
 L 30.6436,-18.6326 L 30.7475,-18.4625 L 30.8679,-18.3035 L 31.0035,-18.1574 L 31.153,-18.0255 L 31.3149,-17.9091
 L 31.4876,-17.8094 L 31.6693,-17.7274 L 31.8583,-17.6639 L 32.0527,-17.6195 L 32.2505,-17.5947 L 32.4,-17.5891
 L 67.1684,-17.5891 L 67.288,-17.568 L 67.4868,-17.5531 L 67.6861,-17.5581 L 67.884,-17.5829 L 68.0783,-17.6273
 L 68.2673,-17.6908 L 68.4491,-17.7728 L 68.6217,-17.8725 L 68.7836,-17.9889 L 68.9331,-18.1208 L 69.0687,-18.267
 L 69.1891,-18.4259 L 69.2686,-18.5525 L 83.4189,-43.0614 L 102.5,-50 L 83.4189,-56.9386 L 69.2686,-81.4475
 L 69.1605,-81.615 L 69.0361,-81.7708 L 68.8969,-81.9136 L 68.7442,-82.0417 L 68.5795,-82.1541 L 68.4044,-82.2494
 L 68.2206,-82.3269 L 68.0301,-82.3856 L 67.8347,-82.4251 L 67.6363,-82.445 L 67.4369,-82.445 L 67.2385,-82.4251
 L 67.168,-82.4109 L 32.4,-82.4109 L 32.2009,-82.401 L 32.0037,-82.3712 L 31.8105,-82.322 L 31.6231,-82.2538
 L 31.4435,-82.1673 L 31.2734,-82.0634 L 31.1144,-81.943 L 30.9683,-81.8074 L 30.8363,-81.6579 L 30.7199,-81.496
 L 30.6203,-81.3233 L 30.5383,-81.1416 L 30.5153,-81.0734 L 13.3839,-51.4009 L 13.3363,-51.347 L 13.22,-51.1851
 L 13.1709,-51.1001 L 13.1568,-51.0795 L 13.1209,-51.0135 L 13.1203,-51.0124 L 13.1201,-51.012 L 13.0615,-50.9044
 L 12.984,-50.7207 L 12.9253,-50.5301 L 12.8857,-50.3347 L 12.8659,-50.1363 L 12.8659,-50.0381 L 12.864,-50.013
 z
M 67.5,-76.1109 L 77.9697,-57.9767 L 77.9953,-57.8605 L 78.0718,-57.4921 L 78.1447,-57.1208 L 78.2139,-56.7466
 L 78.2793,-56.3697 L 78.3409,-55.9903 L 78.3987,-55.6085 L 78.4528,-55.2245 L 78.5029,-54.8384 L 78.5493,-54.4504
 L 78.5917,-54.0606 L 78.6303,-53.6692 L 78.6649,-53.2764 L 78.6956,-52.8822 L 78.7224,-52.4869 L 78.7452,-52.0906
 L 78.7641,-51.6934 L 78.779,-51.2956 L 78.7899,-50.8973 L 78.7969,-50.4986 L 78.7999,-50.0997 L 78.7989,-49.7008
 L 78.7939,-49.302 L 78.785,-48.9035 L 78.772,-48.5054 L 78.7551,-48.1079 L 78.7343,-47.7112 L 78.7095,-47.3153
 L 78.6807,-46.9206 L 78.6481,-46.527 L 78.6115,-46.1349 L 78.571,-45.7443 L 78.5266,-45.3553 L 78.4783,-44.9683
 L 78.4262,-44.5832 L 78.3703,-44.2003 L 78.3106,-43.8197 L 78.247,-43.4415 L 78.1797,-43.066 L 78.1087,-42.6932
 L 78.034,-42.3233 L 77.97,-42.0237 L 67.5,-23.8891 L 52.4249,-50 z
M 33.7124,-78.2109 L 63.8627,-78.2109 L 48.7876,-52.1 L 18.6373,-52.1 z
M 48.7876,-47.9 L 63.8627,-21.7891 L 33.7124,-21.7891 L 18.6373,-47.9 z
" stroke="black" fill="black" stroke-width="0.5"/>
</svg>
