<?xml version="1.0" standalone="no"?>
<!DOCTYPE svg PUBLIC "-//W3C//DTD SVG 1.1//EN" "http://www.w3.org/Graphics/SVG/1.1/DTD/svg11.dtd">
<svg width="101mm" height="131mm" viewBox="-50 -50 101 131" xmlns="http://www.w3.org/2000/svg" version="1.1">
<title>OpenSCAD Model</title>
<path d="
M -47.2909,-17.6861 L -47.0842,-17.7188 L -46.882,-17.773 L -46.6865,-17.8481 L -46.5,-17.9431 L -46.3244,-18.0571
 L -46.0858,-18.2609 L -41.0858,-23.2609 L -40.9457,-23.4165 L -40.8227,-23.5859 L -40.718,-23.7672 L -40.6328,-23.9584
 L -40.5681,-24.1575 L -40.5246,-24.3623 L -40.5,-24.6751 L -40.5,-40.5 L -24.6751,-40.5 L -24.4661,-40.511
 L -24.2593,-40.5437 L -24.0571,-40.5979 L -23.8617,-40.6729 L -23.6751,-40.7679 L -23.4996,-40.882 L -23.2609,-41.0858
 L -18.2609,-46.0858 L -18.1208,-46.2414 L -17.9978,-46.4107 L -17.8931,-46.592 L -17.808,-46.7833 L -17.7433,-46.9824
 L -17.6998,-47.1871 L -17.6779,-47.3953 L -17.6779,-47.6047 L -17.6998,-47.8129 L -17.7433,-48.0176 L -17.808,-48.2167
 L -17.8931,-48.408 L -17.9978,-48.5893 L -18.1208,-48.7586 L -18.2609,-48.9142 L -18.4165,-49.0543 L -18.5859,-49.1773
 L -18.7672,-49.282 L -18.9584,-49.3672 L -19.1575,-49.4319 L -19.3623,-49.4754 L -19.6751,-49.5 L -47.5,-49.5
 L -47.7091,-49.489 L -47.9158,-49.4563 L -48.118,-49.4021 L -48.3135,-49.3271 L -48.5,-49.2321 L -48.6756,-49.118
 L -48.8383,-48.9863 L -48.9863,-48.8383 L -49.118,-48.6756 L -49.2321,-48.5 L -49.3271,-48.3135 L -49.4021,-48.118
 L -49.4563,-47.9158 L -49.489,-47.7091 L -49.5,-47.5 L -49.5,-19.6751 L -49.489,-19.4661 L -49.4563,-19.2593
 L -49.4021,-19.0571 L -49.3271,-18.8617 L -49.2321,-18.6751 L -49.118,-18.4996 L -48.9863,-18.3369 L -48.8383,-18.1889
 L -48.6756,-18.0571 L -48.5,-17.9431 L -48.3135,-17.8481 L -48.118,-17.773 L -47.9158,-17.7188 L -47.7091,-17.6861
 L -47.5,-17.6751 z
M 47.8129,-17.6998 L 48.0176,-17.7433 L 48.2167,-17.808 L 48.408,-17.8931 L 48.5893,-17.9978 L 48.7586,-18.1208
 L 48.9142,-18.2609 L 49.0543,-18.4165 L 49.1773,-18.5859 L 49.282,-18.7672 L 49.3672,-18.9584 L 49.4319,-19.1575
 L 49.4754,-19.3623 L 49.5,-19.6751 L 49.5,-47.5 L 49.489,-47.7091 L 49.4563,-47.9158 L 49.4021,-48.118
 L 49.3271,-48.3135 L 49.2321,-48.5 L 49.118,-48.6756 L 48.9863,-48.8383 L 48.8383,-48.9863 L 48.6756,-49.118
 L 48.5,-49.2321 L 48.3135,-49.3271 L 48.118,-49.4021 L 47.9158,-49.4563 L 47.7091,-49.489 L 47.5,-49.5
 L 19.6751,-49.5 L 19.4661,-49.489 L 19.2593,-49.4563 L 19.0571,-49.4021 L 18.8617,-49.3271 L 18.6751,-49.2321
 L 18.4996,-49.118 L 18.3369,-48.9863 L 18.1889,-48.8383 L 18.0571,-48.6756 L 17.9431,-48.5 L 17.8481,-48.3135
 L 17.773,-48.118 L 17.7188,-47.9158 L 17.6861,-47.7091 L 17.6751,-47.5 L 17.6861,-47.2909 L 17.7188,-47.0842
 L 17.773,-46.882 L 17.8481,-46.6865 L 17.9431,-46.5 L 18.0571,-46.3244 L 18.2609,-46.0858 L 23.2609,-41.0858
 L 23.4165,-40.9457 L 23.5859,-40.8227 L 23.7672,-40.718 L 23.9584,-40.6328 L 24.1575,-40.5681 L 24.3623,-40.5246
 L 24.6751,-40.5 L 40.5,-40.5 L 40.5,-24.6751 L 40.511,-24.4661 L 40.5437,-24.2593 L 40.5979,-24.0571
 L 40.6729,-23.8617 L 40.7679,-23.6751 L 40.882,-23.4996 L 41.0858,-23.2609 L 46.0858,-18.2609 L 46.2414,-18.1208
 L 46.4107,-17.9978 L 46.592,-17.8931 L 46.7833,-17.808 L 46.9824,-17.7433 L 47.1871,-17.6998 L 47.3953,-17.6779
 L 47.6047,-17.6779 z
M 39.5585,80.5848 L 40.0754,80.5029 L 40.581,80.3674 L 41.0696,80.1799 L 41.5359,79.9423 L 48.4641,75.9423
 L 48.903,75.6572 L 49.3098,75.3279 L 49.6798,74.9578 L 50.0092,74.5511 L 50.2942,74.1122 L 50.5318,73.6458
 L 50.7194,73.1572 L 50.8548,72.6517 L 50.9367,72.1348 L 50.9641,71.6122 L 50.9367,71.0895 L 50.8548,70.5726
 L 50.7194,70.0671 L 50.5318,69.5785 L 50.2942,69.1122 L 38.9711,49.5 L 47.5,49.5 L 47.7091,49.489
 L 47.9158,49.4563 L 48.118,49.4021 L 48.3135,49.3271 L 48.5,49.2321 L 48.6756,49.118 L 48.8383,48.9863
 L 48.9863,48.8383 L 49.118,48.6756 L 49.2321,48.5 L 49.3271,48.3135 L 49.4021,48.118 L 49.4563,47.9158
 L 49.489,47.7091 L 49.5,47.5 L 49.5,19.6751 L 49.489,19.4661 L 49.4563,19.2593 L 49.4021,19.0571
 L 49.3271,18.8617 L 49.2321,18.6751 L 49.118,18.4996 L 48.9863,18.3369 L 48.8383,18.1889 L 48.6756,18.0571
 L 48.5,17.9431 L 48.3135,17.8481 L 48.118,17.773 L 47.9158,17.7188 L 47.7091,17.6861 L 47.5,17.6751
 L 47.2909,17.6861 L 47.0842,17.7188 L 46.882,17.773 L 46.6865,17.8481 L 46.5,17.9431 L 46.3244,18.0571
 L 46.0858,18.2609 L 41.0858,23.2609 L 40.9457,23.4165 L 40.8227,23.5859 L 40.718,23.7672 L 40.6328,23.9584
 L 40.5681,24.1575 L 40.5246,24.3623 L 40.5,24.6751 L 40.5,40.5 L 33.775,40.5 L 27.2656,29.2254
 L 29.7258,26.7652 L 32.3607,23.5114 L 34.641,20 L 36.5418,16.2695 L 38.0423,12.3607 L 39.1259,8.31647
 L 39.7809,4.18114 L 40,-0 L 39.7809,-4.18114 L 39.1259,-8.31647 L 38.0423,-12.3607 L 36.5418,-16.2695
 L 34.641,-20 L 32.3607,-23.5114 L 29.7258,-26.7652 L 26.7652,-29.7258 L 23.5114,-32.3607 L 20,-34.641
 L 16.2695,-36.5418 L 12.3607,-38.0423 L 8.31647,-39.1259 L 4.18114,-39.7809 L 0,-40 L -4.18114,-39.7809
 L -8.31647,-39.1259 L -12.3607,-38.0423 L -16.2695,-36.5418 L -20,-34.641 L -23.5114,-32.3607 L -26.7652,-29.7258
 L -29.7258,-26.7652 L -32.3607,-23.5114 L -34.641,-20 L -36.5418,-16.2695 L -38.0423,-12.3607 L -39.1259,-8.31647
 L -39.7809,-4.18114 L -40,-0 L -39.7809,4.18114 L -39.1259,8.31647 L -38.0423,12.3607 L -36.5418,16.2695
 L -34.641,20 L -32.3607,23.5114 L -29.7258,26.7652 L -26.7652,29.7258 L -23.5114,32.3607 L -20,34.641
 L -16.2695,36.5418 L -12.3607,38.0423 L -8.31647,39.1259 L -4.18114,39.7809 L 0,40 L 4.18114,39.7809
 L 8.31647,39.1259 L 11.6772,38.2254 L 34.7058,78.1122 L 34.9908,78.5511 L 35.3202,78.9578 L 35.6902,79.3279
 L 36.097,79.6572 L 36.5359,79.9423 L 37.0022,80.1799 L 37.4908,80.3674 L 37.9963,80.5029 L 38.5133,80.5848
 L 39.0359,80.6122 z
M -3.65849,34.8083 L -7.2769,34.2352 L -10.8156,33.287 L -14.2358,31.9741 L -17.5,30.3109 L -20.5725,28.3156
 L -23.4196,26.0101 L -26.0101,23.4196 L -28.3156,20.5725 L -30.3109,17.5 L -31.9741,14.2358 L -33.287,10.8156
 L -34.2352,7.2769 L -34.8083,3.65849 L -35,-0 L -34.8083,-3.65849 L -34.2352,-7.2769 L -33.287,-10.8156
 L -31.9741,-14.2358 L -30.3109,-17.5 L -28.3156,-20.5725 L -26.0101,-23.4196 L -23.4196,-26.0101 L -20.5725,-28.3156
 L -17.5,-30.3109 L -14.2358,-31.9741 L -10.8156,-33.287 L -7.2769,-34.2352 L -3.65849,-34.8083 L 0,-35
 L 3.65849,-34.8083 L 7.2769,-34.2352 L 10.8156,-33.287 L 14.2358,-31.9741 L 17.5,-30.3109 L 20.5725,-28.3156
 L 23.4196,-26.0101 L 26.0101,-23.4196 L 28.3156,-20.5725 L 30.3109,-17.5 L 31.9741,-14.2358 L 33.287,-10.8156
 L 34.2352,-7.2769 L 34.8083,-3.65849 L 35,-0 L 34.8083,3.65849 L 34.2352,7.2769 L 33.287,10.8156
 L 31.9741,14.2358 L 30.3109,17.5 L 28.3156,20.5725 L 26.0101,23.4196 L 23.4196,26.0101 L 20.5725,28.3156
 L 17.5,30.3109 L 14.2358,31.9741 L 10.8156,33.287 L 7.2769,34.2352 L 3.65849,34.8083 L 0,35
 z
M -19.4661,49.489 L -19.2593,49.4563 L -19.0571,49.4021 L -18.8617,49.3271 L -18.6751,49.2321 L -18.4996,49.118
 L -18.3369,48.9863 L -18.1889,48.8383 L -18.0571,48.6756 L -17.9431,48.5 L -17.8481,48.3135 L -17.773,48.118
 L -17.7188,47.9158 L -17.6861,47.7091 L -17.6751,47.5 L -17.6861,47.2909 L -17.7188,47.0842 L -17.773,46.882
 L -17.8481,46.6865 L -17.9431,46.5 L -18.0571,46.3244 L -18.2609,46.0858 L -23.2609,41.0858 L -23.4165,40.9457
 L -23.5859,40.8227 L -23.7672,40.718 L -23.9584,40.6328 L -24.1575,40.5681 L -24.3623,40.5246 L -24.6751,40.5
 L -40.5,40.5 L -40.5,24.6751 L -40.511,24.4661 L -40.5437,24.2593 L -40.5979,24.0571 L -40.6729,23.8617
 L -40.7679,23.6751 L -40.882,23.4996 L -41.0858,23.2609 L -46.0858,18.2609 L -46.2414,18.1208 L -46.4107,17.9978
 L -46.592,17.8931 L -46.7833,17.808 L -46.9824,17.7433 L -47.1871,17.6998 L -47.3953,17.6779 L -47.6047,17.6779
 L -47.8129,17.6998 L -48.0176,17.7433 L -48.2167,17.808 L -48.408,17.8931 L -48.5893,17.9978 L -48.7586,18.1208
 L -48.9142,18.2609 L -49.0543,18.4165 L -49.1773,18.5859 L -49.282,18.7672 L -49.3672,18.9584 L -49.4319,19.1575
 L -49.4754,19.3623 L -49.5,19.6751 L -49.5,47.5 L -49.489,47.7091 L -49.4563,47.9158 L -49.4021,48.118
 L -49.3271,48.3135 L -49.2321,48.5 L -49.118,48.6756 L -48.9863,48.8383 L -48.8383,48.9863 L -48.6756,49.118
 L -48.5,49.2321 L -48.3135,49.3271 L -48.118,49.4021 L -47.9158,49.4563 L -47.7091,49.489 L -47.5,49.5
 L -19.6751,49.5 z
" stroke="black" fill="black" stroke-width="0.5"/>
</svg>
