<?xml version="1.0" standalone="no"?>
<!DOCTYPE svg PUBLIC "-//W3C//DTD SVG 1.1//EN" "http://www.w3.org/Graphics/SVG/1.1/DTD/svg11.dtd">
<svg width="100mm" height="100mm" viewBox="-8 -108 116 116" xmlns="http://www.w3.org/2000/svg" version="1.1">
<title>OpenSCAD Model</title>
<path d="
M 29.3235,-56.0099 L 29.5206,-56.0397 L 29.7139,-56.0889 L 29.9012,-56.157 L 30.0809,-56.2436 L 30.251,-56.3475
 L 30.4099,-56.4679 L 30.5561,-56.6035 L 30.688,-56.753 L 30.8044,-56.9149 L 30.9041,-57.0876 L 30.9861,-57.2693
 L 31.0496,-57.4583 L 31.094,-57.6527 L 31.1187,-57.8505 L 31.1237,-58.0499 L 31.1088,-58.2487 L 31.0742,-58.445
 L 31.0202,-58.637 L 30.9474,-58.8226 L 30.8564,-59 L 18.7321,-80 L 18.6239,-80.1675 L 18.4996,-80.3234
 L 18.3604,-80.4661 L 18.2076,-80.5943 L 18.0429,-80.7066 L 17.8678,-80.8019 L 17.684,-80.8794 L 17.4935,-80.9382
 L 17.2981,-80.9777 L 17.0997,-80.9975 L 16.9003,-80.9975 L 16.7019,-80.9777 L 16.5065,-80.9382 L 16.316,-80.8794
 L 16.1322,-80.8019 L 15.9571,-80.7066 L 15.7924,-80.5943 L 15.6396,-80.4661 L 15.5004,-80.3234 L 15.3761,-80.1675
 L 15.2679,-80 L 3.1436,-59 L 3.05264,-58.8226 L 2.9798,-58.637 L 2.9258,-58.445 L 2.89117,-58.2487
 L 2.87628,-58.0499 L 2.88126,-57.8505 L 2.90604,-57.6527 L 2.95041,-57.4583 L 3.01392,-57.2693 L 3.09592,-57.0876
 L 3.1956,-56.9149 L 3.312,-56.753 L 3.44392,-56.6035 L 3.59009,-56.4679 L 3.74902,-56.3475 L 3.91914,-56.2436
 L 4.09879,-56.157 L 4.28615,-56.0889 L 4.47937,-56.0397 L 4.67651,-56.0099 L 4.87566,-56 L 29.1243,-56
 z
M 56.709,-22.0731 L 84.5256,-22.0731 L 93.165,-0 L 101.519,-0 L 74.2251,-69.6843 L 67.4372,-69.6843
 L 40,-0 L 48.1648,-0 z
M 59.5573,-29.3356 L 67.7221,-50.8389 L 67.8063,-51.0758 L 67.8896,-51.3119 L 67.9721,-51.5471 L 68.0537,-51.7815
 L 68.1345,-52.015 L 68.2144,-52.2477 L 68.2935,-52.4795 L 68.3717,-52.7105 L 68.4491,-52.9406 L 68.5256,-53.1699
 L 68.6012,-53.3983 L 68.676,-53.6258 L 68.75,-53.8525 L 68.8231,-54.0784 L 68.8954,-54.3034 L 68.9668,-54.5275
 L 69.0373,-54.7508 L 69.107,-54.9732 L 69.1758,-55.1948 L 69.2438,-55.4155 L 69.311,-55.6354 L 69.3773,-55.8544
 L 69.4427,-56.0726 L 69.5073,-56.2899 L 69.571,-56.5064 L 69.6339,-56.722 L 69.6959,-56.9368 L 69.7571,-57.1507
 L 69.8174,-57.3637 L 69.8769,-57.5759 L 69.9355,-57.7873 L 69.9933,-57.9978 L 70.0502,-58.2074 L 70.1062,-58.4162
 L 70.1614,-58.6242 L 70.2158,-58.8313 L 70.2693,-59.0375 L 70.322,-59.2429 L 70.3737,-59.4474 L 70.4247,-59.6511
 L 70.4748,-59.8539 L 70.524,-60.0558 L 70.5724,-60.257 L 70.62,-60.4572 L 70.6667,-60.6566 L 70.7125,-60.8552
 L 70.7847,-60.5981 L 70.8568,-60.3427 L 70.9288,-60.0891 L 71.0007,-59.8372 L 71.0725,-59.5871 L 71.1442,-59.3387
 L 71.2159,-59.0921 L 71.2874,-58.8472 L 71.3589,-58.6041 L 71.4302,-58.3627 L 71.5015,-58.1231 L 71.5727,-57.8852
 L 71.6438,-57.6491 L 71.7148,-57.4147 L 71.7858,-57.1821 L 71.8566,-56.9513 L 71.9274,-56.7221 L 71.998,-56.4948
 L 72.0686,-56.2691 L 72.1391,-56.0453 L 72.2095,-55.8232 L 72.2798,-55.6028 L 72.35,-55.3842 L 72.4201,-55.1673
 L 72.4901,-54.9522 L 72.5601,-54.7388 L 72.6299,-54.5272 L 72.6997,-54.3173 L 72.7694,-54.1092 L 72.8389,-53.9028
 L 72.9084,-53.6982 L 72.9779,-53.4953 L 73.0472,-53.2942 L 73.1164,-53.0948 L 73.1855,-52.8972 L 73.2546,-52.7014
 L 73.3236,-52.5072 L 73.3924,-52.3149 L 73.4612,-52.1242 L 73.5299,-51.9354 L 73.5985,-51.7482 L 73.667,-51.5629
 L 73.7355,-51.3793 L 73.8038,-51.1974 L 73.872,-51.0173 L 73.9402,-50.8389 L 82.0098,-29.3356 z
M 8.35449,-11.0365 L 22.2628,-11.0365 L 26.5825,-0 L 30.7597,-0 L 17.1125,-34.8421 L 13.7186,-34.8421
 L 0,-0 L 4.0824,-0 z
M 9.77864,-14.6678 L 13.861,-25.4194 L 13.9031,-25.5379 L 13.9448,-25.6559 L 13.986,-25.7736 L 14.0269,-25.8907
 L 14.0672,-26.0075 L 14.1072,-26.1239 L 14.1467,-26.2398 L 14.1858,-26.3552 L 14.2245,-26.4703 L 14.2628,-26.5849
 L 14.3006,-26.6991 L 14.338,-26.8129 L 14.375,-26.9263 L 14.4115,-27.0392 L 14.4477,-27.1517 L 14.4834,-27.2637
 L 14.5186,-27.3754 L 14.5535,-27.4866 L 14.5879,-27.5974 L 14.6219,-27.7078 L 14.6555,-27.8177 L 14.6886,-27.9272
 L 14.7213,-28.0363 L 14.7536,-28.145 L 14.7855,-28.2532 L 14.8169,-28.361 L 14.8479,-28.4684 L 14.8785,-28.5753
 L 14.9087,-28.6819 L 14.9384,-28.788 L 14.9677,-28.8936 L 14.9966,-28.9989 L 15.0251,-29.1037 L 15.0531,-29.2081
 L 15.0807,-29.3121 L 15.1079,-29.4156 L 15.1346,-29.5187 L 15.161,-29.6214 L 15.1869,-29.7237 L 15.2123,-29.8255
 L 15.2374,-29.9269 L 15.262,-30.0279 L 15.2862,-30.1285 L 15.31,-30.2286 L 15.3333,-30.3283 L 15.3562,-30.4276
 L 15.3923,-30.299 L 15.4284,-30.1713 L 15.4644,-30.0445 L 15.5003,-29.9186 L 15.5362,-29.7935 L 15.5721,-29.6694
 L 15.6079,-29.5461 L 15.6437,-29.4236 L 15.6794,-29.302 L 15.7151,-29.1814 L 15.7508,-29.0616 L 15.7864,-28.9426
 L 15.8219,-28.8246 L 15.8574,-28.7074 L 15.8929,-28.5911 L 15.9283,-28.4756 L 15.9637,-28.3611 L 15.999,-28.2474
 L 16.0343,-28.1346 L 16.0695,-28.0226 L 16.1047,-27.9116 L 16.1399,-27.8014 L 16.175,-27.6921 L 16.21,-27.5836
 L 16.2451,-27.4761 L 16.28,-27.3694 L 16.315,-27.2636 L 16.3498,-27.1586 L 16.3847,-27.0546 L 16.4195,-26.9514
 L 16.4542,-26.8491 L 16.4889,-26.7477 L 16.5236,-26.6471 L 16.5582,-26.5474 L 16.5928,-26.4486 L 16.6273,-26.3507
 L 16.6618,-26.2536 L 16.6962,-26.1574 L 16.7306,-26.0621 L 16.765,-25.9677 L 16.7993,-25.8741 L 16.8335,-25.7814
 L 16.8677,-25.6896 L 16.9019,-25.5987 L 16.936,-25.5086 L 16.9701,-25.4194 L 21.0049,-14.6678 z
" stroke="black" fill="black" stroke-width="0.5"/>
</svg>
