<?xml version="1.0" standalone="no"?>
<!DOCTYPE svg PUBLIC "-//W3C//DTD SVG 1.1//EN" "http://www.w3.org/Graphics/SVG/1.1/DTD/svg11.dtd">
<svg width="102mm" height="81mm" viewBox="0 -81 102 81" xmlns="http://www.w3.org/2000/svg" version="1.1">
<title>OpenSCAD Model</title>
<path d="
M 29.3334,-56.011 L 29.5402,-56.0437 L 29.7424,-56.0979 L 29.9378,-56.1729 L 30.1243,-56.2679 L 30.2999,-56.382
 L 30.4626,-56.5137 L 30.6106,-56.6617 L 30.7424,-56.8244 L 30.8564,-57 L 30.9514,-57.1865 L 31.0265,-57.382
 L 31.0806,-57.5842 L 31.1134,-57.7909 L 31.1243,-58 L 31.1134,-58.2091 L 31.0806,-58.4158 L 31.0265,-58.618
 L 30.9514,-58.8135 L 30.8564,-59 L 18.7321,-80 L 18.618,-80.1756 L 18.4863,-80.3383 L 18.3383,-80.4863
 L 18.1756,-80.618 L 18,-80.7321 L 17.8135,-80.8271 L 17.618,-80.9021 L 17.4158,-80.9563 L 17.2091,-80.989
 L 17,-81 L 16.7909,-80.989 L 16.5842,-80.9563 L 16.382,-80.9021 L 16.1865,-80.8271 L 16,-80.7321
 L 15.8244,-80.618 L 15.6617,-80.4863 L 15.5137,-80.3383 L 15.382,-80.1756 L 15.2679,-80 L 3.1436,-59
 L 3.04857,-58.8135 L 2.97354,-58.618 L 2.91936,-58.4158 L 2.88661,-58.2091 L 2.87566,-58 L 2.88661,-57.7909
 L 2.91936,-57.5842 L 2.97354,-57.382 L 3.04857,-57.1865 L 3.1436,-57 L 3.25763,-56.8244 L 3.38937,-56.6617
 L 3.5374,-56.5137 L 3.70009,-56.382 L 3.87566,-56.2679 L 4.06218,-56.1729 L 4.25763,-56.0979 L 4.45984,-56.0437
 L 4.6666,-56.011 L 4.87566,-56 L 29.1243,-56 z
M 56.709,-22.0731 L 84.5256,-22.0731 L 93.165,-0 L 101.519,-0 L 74.2251,-69.6843 L 67.4372,-69.6843
 L 40,-0 L 48.1648,-0 z
M 59.5573,-29.3356 L 67.7221,-50.8389 L 68.1945,-52.1896 L 68.6387,-53.5121 L 69.0548,-54.8065 L 69.4427,-56.0726
 L 69.8024,-57.3106 L 70.1339,-58.5203 L 70.4373,-59.7018 L 70.7125,-60.8552 L 71.1263,-59.4007 L 71.5371,-58.004
 L 71.945,-56.6651 L 72.35,-55.3842 L 72.752,-54.1611 L 73.151,-52.9958 L 73.5471,-51.8884 L 73.9402,-50.8389
 L 82.0098,-29.3356 z
M 8.35449,-11.0365 L 22.2628,-11.0365 L 26.5825,-0 L 30.7597,-0 L 17.1125,-34.8421 L 13.7186,-34.8421
 L 0,-0 L 4.0824,-0 z
M 9.77864,-14.6678 L 13.861,-25.4194 L 14.0972,-26.0948 L 14.3194,-26.7561 L 14.5274,-27.4032 L 14.7213,-28.0363
 L 14.9012,-28.6553 L 15.067,-29.2601 L 15.2186,-29.8509 L 15.3562,-30.4276 L 15.5631,-29.7003 L 15.7686,-29.002
 L 15.9725,-28.3326 L 16.175,-27.6921 L 16.376,-27.0805 L 16.5755,-26.4979 L 16.7735,-25.9442 L 16.9701,-25.4194
 L 21.0049,-14.6678 z
" stroke="black" fill="black" stroke-width="0.5"/>
</svg>
