<?xml version="1.0" standalone="no"?>
<!DOCTYPE svg PUBLIC "-//W3C//DTD SVG 1.1//EN" "http://www.w3.org/Graphics/SVG/1.1/DTD/svg11.dtd">
<svg width="102mm" height="80mm" viewBox="-32 -80 102 80" xmlns="http://www.w3.org/2000/svg" version="1.1">
<title>OpenSCAD Model</title>
<path d="
M 53.2091,-55.011 L 53.4158,-55.0437 L 53.618,-55.0979 L 53.8135,-55.1729 L 54,-55.2679 L 54.1756,-55.382
 L 54.3383,-55.5137 L 54.4863,-55.6617 L 54.618,-55.8244 L 54.7321,-56 L 66.8564,-77 L 66.9514,-77.1865
 L 67.0265,-77.382 L 67.0806,-77.5842 L 67.1134,-77.7909 L 67.1243,-78 L 67.1134,-78.2091 L 67.0806,-78.4158
 L 67.0265,-78.618 L 66.9514,-78.8135 L 66.8564,-79 L 66.7424,-79.1756 L 66.6106,-79.3383 L 66.4626,-79.4863
 L 66.2999,-79.618 L 66.1243,-79.7321 L 65.9378,-79.8271 L 65.7424,-79.9021 L 65.5402,-79.9563 L 65.3334,-79.989
 L 65.1243,-80 L 40.8757,-80 L 40.6666,-79.989 L 40.4598,-79.9563 L 40.2576,-79.9021 L 40.0622,-79.8271
 L 39.8757,-79.7321 L 39.7001,-79.618 L 39.5374,-79.4863 L 39.3894,-79.3383 L 39.2576,-79.1756 L 39.1436,-79
 L 39.0486,-78.8135 L 38.9735,-78.618 L 38.9194,-78.4158 L 38.8866,-78.2091 L 38.8757,-78 L 38.8866,-77.7909
 L 38.9194,-77.5842 L 38.9735,-77.382 L 39.0486,-77.1865 L 39.1436,-77 L 51.2679,-56 L 51.382,-55.8244
 L 51.5137,-55.6617 L 51.6617,-55.5137 L 51.8244,-55.382 L 52,-55.2679 L 52.1865,-55.1729 L 52.382,-55.0979
 L 52.5842,-55.0437 L 52.7909,-55.011 L 53,-55 z
M -14.5256,-22.0731 L 13.291,-22.0731 L 21.8352,-0 L 30,-0 L 2.56281,-69.6843 L -4.2251,-69.6843
 L -31.5195,-0 L -23.165,-0 z
M -12.0098,-29.3356 L -3.94019,-50.8389 L -3.54707,-51.8884 L -3.15099,-52.9958 L -2.75195,-54.1611 L -2.34996,-55.3842
 L -1.94502,-56.6651 L -1.53714,-58.004 L -1.1263,-59.4007 L -0.712494,-60.8552 L -0.437302,-59.7018 L -0.133942,-58.5203
 L 0.197601,-57.3106 L 0.557312,-56.0726 L 0.94519,-54.8065 L 1.36125,-53.5121 L 1.8055,-52.1896 L 2.27791,-50.8389
 L 10.4427,-29.3356 z
M 47.7372,-11.0365 L 61.6455,-11.0365 L 65.9176,-0 L 70,-0 L 56.2814,-34.8421 L 52.8875,-34.8421
 L 39.2403,-0 L 43.4175,-0 z
M 48.9951,-14.6678 L 53.0299,-25.4194 L 53.2265,-25.9442 L 53.4245,-26.4979 L 53.624,-27.0805 L 53.825,-27.6921
 L 54.0275,-28.3326 L 54.2314,-29.002 L 54.4369,-29.7003 L 54.6438,-30.4276 L 54.7814,-29.8509 L 54.933,-29.2601
 L 55.0988,-28.6553 L 55.2787,-28.0363 L 55.4726,-27.4032 L 55.6806,-26.7561 L 55.9028,-26.0948 L 56.139,-25.4194
 L 60.2214,-14.6678 z
" stroke="white" fill="white" stroke-width="0.5"/>
</svg>
