<?xml version="1.0" standalone="no"?>
<!DOCTYPE svg PUBLIC "-//W3C//DTD SVG 1.1//EN" "http://www.w3.org/Graphics/SVG/1.1/DTD/svg11.dtd">
<svg width="100mm" height="100mm" viewBox="-8 -108 116 116" xmlns="http://www.w3.org/2000/svg" version="1.1">
<title>OpenSCAD Model</title>
<path d="
M 66.588,-0.694366 L 67.0015,-0.759857 L 67.4059,-0.868225 L 67.7968,-1.01826 L 68.1699,-1.20836 L 76.8301,-6.20836
 L 77.1813,-6.43639 L 77.5067,-6.69987 L 77.8027,-6.99593 L 78.0662,-7.32132 L 78.2942,-7.67247 L 78.4843,-8.0455
 L 78.6344,-8.43639 L 78.7427,-8.84081 L 78.8082,-9.25435 L 78.8301,-9.67245 L 78.8082,-10.0906 L 78.7427,-10.5041
 L 78.6344,-10.9085 L 78.4843,-11.2994 L 78.2942,-11.6725 L 62.0963,-39.7281 L 62.2943,-39.9261 L 64.2705,-42.3665
 L 65.9808,-45 L 67.4064,-47.7979 L 68.5317,-50.7295 L 69.3444,-53.7626 L 69.8356,-56.8642 L 70,-60
 L 69.8356,-63.1358 L 69.3444,-66.2374 L 68.5317,-69.2705 L 67.4064,-72.2021 L 65.9808,-75 L 64.2705,-77.6335
 L 62.2943,-80.0739 L 60.0739,-82.2943 L 57.6335,-84.2705 L 55,-85.9808 L 52.2021,-87.4064 L 49.2705,-88.5317
 L 46.2374,-89.3444 L 43.1358,-89.8356 L 40,-90 L 36.8642,-89.8356 L 33.7626,-89.3444 L 30.7295,-88.5317
 L 27.7979,-87.4064 L 25,-85.9808 L 22.3665,-84.2705 L 19.9261,-82.2943 L 17.7057,-80.0739 L 15.7295,-77.6335
 L 14.0192,-75 L 12.5936,-72.2021 L 11.4683,-69.2705 L 10.6556,-66.2374 L 10.1644,-63.1358 L 10,-60
 L 10.1644,-56.8642 L 10.6556,-53.7626 L 11.4683,-50.7295 L 12.5936,-47.7979 L 14.0192,-45 L 15.7295,-42.3665
 L 17.7057,-39.9261 L 19.9261,-37.7057 L 22.3665,-35.7295 L 25,-34.0192 L 27.7979,-32.5936 L 30.7295,-31.4683
 L 33.7626,-30.6556 L 36.8642,-30.1644 L 40,-30 L 43.1358,-30.1644 L 46.2374,-30.6556 L 46.5079,-30.7281
 L 62.7058,-2.67245 L 62.9338,-2.3213 L 63.1973,-1.99593 L 63.4933,-1.69987 L 63.8187,-1.43639 L 64.1699,-1.20836
 L 64.5429,-1.01828 L 64.9338,-0.868225 L 65.3382,-0.759857 L 65.7518,-0.694366 L 66.1699,-0.67247 z
M 37.2823,-34.1424 L 34.5943,-34.5682 L 31.9656,-35.2725 L 29.4249,-36.2478 L 27,-37.4834 L 24.7176,-38.9656
 L 22.6026,-40.6782 L 20.6782,-42.6026 L 18.9656,-44.7176 L 17.4834,-47 L 16.2478,-49.4249 L 15.2725,-51.9656
 L 14.5682,-54.5943 L 14.1424,-57.2823 L 14,-60 L 14.1424,-62.7177 L 14.5682,-65.4057 L 15.2725,-68.0344
 L 16.2478,-70.5751 L 17.4834,-73 L 18.9656,-75.2824 L 20.6782,-77.3974 L 22.6026,-79.3218 L 24.7176,-81.0344
 L 27,-82.5166 L 29.4249,-83.7522 L 31.9656,-84.7275 L 34.5943,-85.4318 L 37.2823,-85.8576 L 40,-86
 L 42.7177,-85.8576 L 45.4057,-85.4318 L 48.0344,-84.7275 L 50.5751,-83.7522 L 53,-82.5166 L 55.2824,-81.0344
 L 57.3974,-79.3218 L 59.3218,-77.3974 L 61.0344,-75.2824 L 62.5166,-73 L 63.7522,-70.5751 L 64.7275,-68.0344
 L 65.4318,-65.4057 L 65.8576,-62.7177 L 66,-60 L 65.8576,-57.2823 L 65.4318,-54.5943 L 64.7275,-51.9656
 L 63.7522,-49.4249 L 62.5166,-47 L 61.0344,-44.7176 L 59.3218,-42.6026 L 57.3974,-40.6782 L 55.2824,-38.9656
 L 53,-37.4834 L 50.5751,-36.2478 L 48.0344,-35.2725 L 45.4057,-34.5682 L 42.7177,-34.1424 L 40,-34
 z
M 42,-58 L 56,-58 L 56,-62 L 42,-62 L 42,-76 L 38,-76
 L 38,-62 L 24,-62 L 24,-58 L 38,-58 L 38,-44 L 42,-44
 z
" stroke="black" fill="black" stroke-width="0.5"/>
</svg>
