<?xml version="1.0" standalone="no"?>
<!DOCTYPE svg PUBLIC "-//W3C//DTD SVG 1.1//EN" "http://www.w3.org/Graphics/SVG/1.1/DTD/svg11.dtd">
<svg width="91mm" height="121mm" viewBox="-40 -40 91 121" xmlns="http://www.w3.org/2000/svg" version="1.1">
<title>OpenSCAD Model</title>
<path d="
M 39.5585,80.5848 L 40.0754,80.5029 L 40.581,80.3674 L 41.0696,80.1799 L 41.5359,79.9423 L 48.4641,75.9423
 L 48.903,75.6572 L 49.3098,75.3279 L 49.6798,74.9578 L 50.0092,74.5511 L 50.2942,74.1122 L 50.5318,73.6458
 L 50.7194,73.1572 L 50.8548,72.6517 L 50.9367,72.1348 L 50.9641,71.6122 L 50.9367,71.0895 L 50.8548,70.5726
 L 50.7194,70.0671 L 50.5318,69.5785 L 50.2942,69.1122 L 27.2656,29.2254 L 29.7258,26.7652 L 32.3607,23.5114
 L 34.641,20 L 36.5418,16.2695 L 38.0423,12.3607 L 39.1259,8.31647 L 39.7809,4.18114 L 40,-0
 L 39.7809,-4.18114 L 39.1259,-8.31647 L 38.0423,-12.3607 L 36.5418,-16.2695 L 34.641,-20 L 32.3607,-23.5114
 L 29.7258,-26.7652 L 26.7652,-29.7258 L 23.5114,-32.3607 L 20,-34.641 L 16.2695,-36.5418 L 12.3607,-38.0423
 L 8.31647,-39.1259 L 4.18114,-39.7809 L 0,-40 L -4.18114,-39.7809 L -8.31647,-39.1259 L -12.3607,-38.0423
 L -16.2695,-36.5418 L -20,-34.641 L -23.5114,-32.3607 L -26.7652,-29.7258 L -29.7258,-26.7652 L -32.3607,-23.5114
 L -34.641,-20 L -36.5418,-16.2695 L -38.0423,-12.3607 L -39.1259,-8.31647 L -39.7809,-4.18114 L -40,-0
 L -39.7809,4.18114 L -39.1259,8.31647 L -38.0423,12.3607 L -36.5418,16.2695 L -34.641,20 L -32.3607,23.5114
 L -29.7258,26.7652 L -26.7652,29.7258 L -23.5114,32.3607 L -20,34.641 L -16.2695,36.5418 L -12.3607,38.0423
 L -8.31647,39.1259 L -4.18114,39.7809 L 0,40 L 4.18114,39.7809 L 8.31647,39.1259 L 11.6772,38.2254
 L 34.7058,78.1122 L 34.9908,78.5511 L 35.3202,78.9578 L 35.6902,79.3279 L 36.097,79.6572 L 36.5359,79.9423
 L 37.0022,80.1799 L 37.4908,80.3674 L 37.9963,80.5029 L 38.5133,80.5848 L 39.0359,80.6122 z
M -3.65849,34.8083 L -7.2769,34.2352 L -10.8156,33.287 L -14.2358,31.9741 L -17.5,30.3109 L -20.5725,28.3156
 L -23.4196,26.0101 L -26.0101,23.4196 L -28.3156,20.5725 L -30.3109,17.5 L -31.9741,14.2358 L -33.287,10.8156
 L -34.2352,7.2769 L -34.8083,3.65849 L -35,-0 L -34.8083,-3.65849 L -34.2352,-7.2769 L -33.287,-10.8156
 L -31.9741,-14.2358 L -30.3109,-17.5 L -28.3156,-20.5725 L -26.0101,-23.4196 L -23.4196,-26.0101 L -20.5725,-28.3156
 L -17.5,-30.3109 L -14.2358,-31.9741 L -10.8156,-33.287 L -7.2769,-34.2352 L -3.65849,-34.8083 L 0,-35
 L 3.65849,-34.8083 L 7.2769,-34.2352 L 10.8156,-33.287 L 14.2358,-31.9741 L 17.5,-30.3109 L 20.5725,-28.3156
 L 23.4196,-26.0101 L 26.0101,-23.4196 L 28.3156,-20.5725 L 30.3109,-17.5 L 31.9741,-14.2358 L 33.287,-10.8156
 L 34.2352,-7.2769 L 34.8083,-3.65849 L 35,-0 L 34.8083,3.65849 L 34.2352,7.2769 L 33.287,10.8156
 L 31.9741,14.2358 L 30.3109,17.5 L 28.3156,20.5725 L 26.0101,23.4196 L 23.4196,26.0101 L 20.5725,28.3156
 L 17.5,30.3109 L 14.2358,31.9741 L 10.8156,33.287 L 7.2769,34.2352 L 3.65849,34.8083 L 0,35
 z
M 5,5 L 17.5,5 L 17.5,-5 L 5,-5 L 5,-17.5 L -5,-17.5
 L -5,-5 L -17.5,-5 L -17.5,5 L -5,5 L -5,17.5 L 5,17.5
 z
" stroke="black" fill="black" stroke-width="0.5"/>
</svg>
