<?xml version="1.0" standalone="no"?>
<!DOCTYPE svg PUBLIC "-//W3C//DTD SVG 1.1//EN" "http://www.w3.org/Graphics/SVG/1.1/DTD/svg11.dtd">
<svg width="100mm" height="100mm" viewBox="-8 -108 116 116" xmlns="http://www.w3.org/2000/svg" version="1.1">
<title>OpenSCAD Model</title>
<path d="
M 83.2091,-55.011 L 83.4158,-55.0437 L 83.618,-55.0979 L 83.8135,-55.1729 L 84,-55.2679 L 84.1756,-55.382
 L 84.3383,-55.5137 L 84.4863,-55.6617 L 84.618,-55.8244 L 84.7321,-56 L 96.8564,-77 L 96.9514,-77.1865
 L 97.0265,-77.382 L 97.0806,-77.5842 L 97.1134,-77.7909 L 97.1243,-78 L 97.1134,-78.2091 L 97.0806,-78.4158
 L 97.0265,-78.618 L 96.9514,-78.8135 L 96.8564,-79 L 96.7424,-79.1756 L 96.6106,-79.3383 L 96.4626,-79.4863
 L 96.2999,-79.618 L 96.1243,-79.7321 L 95.9378,-79.8271 L 95.7424,-79.9021 L 95.5402,-79.9563 L 95.3334,-79.989
 L 95.1243,-80 L 70.8757,-80 L 70.6666,-79.989 L 70.4598,-79.9563 L 70.2576,-79.9021 L 70.0622,-79.8271
 L 69.8757,-79.7321 L 69.7001,-79.618 L 69.5374,-79.4863 L 69.3894,-79.3383 L 69.2576,-79.1756 L 69.1436,-79
 L 69.0486,-78.8135 L 68.9735,-78.618 L 68.9194,-78.4158 L 68.8866,-78.2091 L 68.8757,-78 L 68.8866,-77.7909
 L 68.9194,-77.5842 L 68.9735,-77.382 L 69.0486,-77.1865 L 69.1436,-77 L 81.2679,-56 L 81.382,-55.8244
 L 81.5137,-55.6617 L 81.6617,-55.5137 L 81.8244,-55.382 L 82,-55.2679 L 82.1865,-55.1729 L 82.382,-55.0979
 L 82.5842,-55.0437 L 82.7909,-55.011 L 83,-55 z
M 15.4744,-22.0731 L 43.291,-22.0731 L 51.8352,-0 L 60,-0 L 32.5628,-69.6843 L 25.7749,-69.6843
 L -1.51949,-0 L 6.83501,-0 z
M 17.9902,-29.3356 L 26.0598,-50.8389 L 26.4529,-51.8884 L 26.849,-52.9958 L 27.248,-54.1611 L 27.65,-55.3842
 L 28.055,-56.6651 L 28.4629,-58.004 L 28.8737,-59.4007 L 29.2875,-60.8552 L 29.5627,-59.7018 L 29.8661,-58.5203
 L 30.1976,-57.3106 L 30.5573,-56.0726 L 30.9452,-54.8065 L 31.3613,-53.5121 L 31.8055,-52.1896 L 32.2779,-50.8389
 L 40.4427,-29.3356 z
M 77.7372,-11.0365 L 91.6455,-11.0365 L 95.9176,-0 L 100,-0 L 86.2814,-34.8421 L 82.8875,-34.8421
 L 69.2403,-0 L 73.4175,-0 z
M 78.9951,-14.6678 L 83.0299,-25.4194 L 83.2265,-25.9442 L 83.4245,-26.4979 L 83.624,-27.0805 L 83.825,-27.6921
 L 84.0275,-28.3326 L 84.2314,-29.002 L 84.4369,-29.7003 L 84.6438,-30.4276 L 84.7814,-29.8509 L 84.933,-29.2601
 L 85.0988,-28.6553 L 85.2787,-28.0363 L 85.4726,-27.4032 L 85.6806,-26.7561 L 85.9028,-26.0948 L 86.139,-25.4194
 L 90.2214,-14.6678 z
" stroke="black" fill="black" stroke-width="0.5"/>
</svg>
