<?xml version="1.0" standalone="no"?>
<!DOCTYPE svg PUBLIC "-//W3C//DTD SVG 1.1//EN" "http://www.w3.org/Graphics/SVG/1.1/DTD/svg11.dtd">
<svg width="100mm" height="100mm" viewBox="-8 -108 116 116" xmlns="http://www.w3.org/2000/svg" version="1.1">
<title>OpenSCAD Model</title>
<path d="
M 2.70906,-80.615 L 2.91582,-80.6478 L 3.11803,-80.702 L 3.31348,-80.777 L 3.5,-80.872 L 3.67557,-80.986
 L 3.91422,-81.1898 L 5.91422,-83.1898 L 6.05429,-83.3454 L 6.17734,-83.5148 L 6.28201,-83.6961 L 6.36716,-83.8873
 L 6.43185,-84.0864 L 6.47537,-84.2912 L 6.5,-84.6041 L 6.5,-93.5 L 15.3959,-93.5 L 15.605,-93.511
 L 15.8118,-93.5437 L 16.014,-93.5979 L 16.2094,-93.6729 L 16.3959,-93.7679 L 16.5715,-93.882 L 16.8102,-94.0858
 L 18.8102,-96.0858 L 18.9502,-96.2414 L 19.0733,-96.4107 L 19.1779,-96.592 L 19.2631,-96.7833 L 19.3278,-96.9824
 L 19.3713,-97.1871 L 19.3932,-97.3953 L 19.3932,-97.6047 L 19.3713,-97.8129 L 19.3278,-98.0176 L 19.2631,-98.2167
 L 19.1779,-98.408 L 19.0733,-98.5893 L 18.9502,-98.7586 L 18.8102,-98.9142 L 18.6546,-99.0543 L 18.4852,-99.1773
 L 18.3039,-99.282 L 18.1127,-99.3672 L 17.9136,-99.4319 L 17.7088,-99.4754 L 17.3959,-99.5 L 2.5,-99.5
 L 2.29094,-99.489 L 2.08418,-99.4563 L 1.88197,-99.4021 L 1.68652,-99.3271 L 1.5,-99.2321 L 1.32443,-99.118
 L 1.16174,-98.9863 L 1.01372,-98.8383 L 0.881973,-98.6756 L 0.767944,-98.5 L 0.672913,-98.3135 L 0.597885,-98.118
 L 0.543701,-97.9158 L 0.510956,-97.7091 L 0.5,-97.5 L 0.5,-82.6041 L 0.510956,-82.395 L 0.543701,-82.1882
 L 0.597885,-81.986 L 0.672913,-81.7906 L 0.767944,-81.6041 L 0.881973,-81.4285 L 1.01372,-81.2658 L 1.16174,-81.1178
 L 1.32443,-80.986 L 1.5,-80.872 L 1.68652,-80.777 L 1.88197,-80.702 L 2.08418,-80.6478 L 2.29094,-80.615
 L 2.5,-80.6041 z
M 77.8129,-80.6287 L 78.0176,-80.6722 L 78.2167,-80.7369 L 78.408,-80.8221 L 78.5893,-80.9267 L 78.7586,-81.0498
 L 78.9142,-81.1898 L 79.0543,-81.3454 L 79.1773,-81.5148 L 79.282,-81.6961 L 79.3672,-81.8873 L 79.4319,-82.0864
 L 79.4754,-82.2912 L 79.5,-82.6041 L 79.5,-97.5 L 79.489,-97.7091 L 79.4563,-97.9158 L 79.4021,-98.118
 L 79.3271,-98.3135 L 79.2321,-98.5 L 79.118,-98.6756 L 78.9863,-98.8383 L 78.8383,-98.9863 L 78.6756,-99.118
 L 78.5,-99.2321 L 78.3135,-99.3271 L 78.118,-99.4021 L 77.9158,-99.4563 L 77.7091,-99.489 L 77.5,-99.5
 L 62.6041,-99.5 L 62.395,-99.489 L 62.1882,-99.4563 L 61.986,-99.4021 L 61.7906,-99.3271 L 61.6041,-99.2321
 L 61.4285,-99.118 L 61.2658,-98.9863 L 61.1178,-98.8383 L 60.986,-98.6756 L 60.872,-98.5 L 60.777,-98.3135
 L 60.702,-98.118 L 60.6478,-97.9158 L 60.615,-97.7091 L 60.6041,-97.5 L 60.615,-97.2909 L 60.6478,-97.0842
 L 60.702,-96.882 L 60.777,-96.6865 L 60.872,-96.5 L 60.986,-96.3244 L 61.1898,-96.0858 L 63.1898,-94.0858
 L 63.3454,-93.9457 L 63.5148,-93.8227 L 63.6961,-93.718 L 63.8873,-93.6328 L 64.0864,-93.5681 L 64.2912,-93.5246
 L 64.6041,-93.5 L 73.5,-93.5 L 73.5,-84.6041 L 73.511,-84.395 L 73.5437,-84.1882 L 73.5979,-83.986
 L 73.6729,-83.7906 L 73.7679,-83.6041 L 73.882,-83.4285 L 74.0858,-83.1898 L 76.0858,-81.1898 L 76.2414,-81.0498
 L 76.4107,-80.9267 L 76.592,-80.8221 L 76.7833,-80.7369 L 76.9824,-80.6722 L 77.1871,-80.6287 L 77.3953,-80.6068
 L 77.6047,-80.6068 z
M 66.588,-0.694366 L 67.0015,-0.759857 L 67.4059,-0.868225 L 67.7968,-1.01826 L 68.1699,-1.20836 L 76.8301,-6.20836
 L 77.1813,-6.43639 L 77.5067,-6.69987 L 77.8027,-6.99593 L 78.0662,-7.32132 L 78.2942,-7.67247 L 78.4843,-8.0455
 L 78.6344,-8.43639 L 78.7427,-8.84081 L 78.8082,-9.25435 L 78.8301,-9.67245 L 78.8082,-10.0906 L 78.7427,-10.5041
 L 78.6344,-10.9085 L 78.4843,-11.2994 L 78.2942,-11.6725 L 73.1976,-20.5 L 77.5,-20.5 L 77.7091,-20.511
 L 77.9158,-20.5437 L 78.118,-20.5979 L 78.3135,-20.6729 L 78.5,-20.7679 L 78.6756,-20.882 L 78.8383,-21.0137
 L 78.9863,-21.1617 L 79.118,-21.3244 L 79.2321,-21.5 L 79.3271,-21.6865 L 79.4021,-21.882 L 79.4563,-22.0842
 L 79.489,-22.2909 L 79.5,-22.5 L 79.5,-37.3959 L 79.489,-37.605 L 79.4563,-37.8118 L 79.4021,-38.014
 L 79.3271,-38.2094 L 79.2321,-38.3959 L 79.118,-38.5715 L 78.9863,-38.7342 L 78.8383,-38.8822 L 78.6756,-39.014
 L 78.5,-39.128 L 78.3135,-39.223 L 78.118,-39.298 L 77.9158,-39.3522 L 77.7091,-39.385 L 77.5,-39.3959
 L 77.2909,-39.385 L 77.0842,-39.3522 L 76.882,-39.298 L 76.6865,-39.223 L 76.5,-39.128 L 76.3244,-39.014
 L 76.0858,-38.8102 L 74.0858,-36.8102 L 73.9457,-36.6546 L 73.8227,-36.4852 L 73.718,-36.3039 L 73.6328,-36.1127
 L 73.5681,-35.9136 L 73.5246,-35.7088 L 73.5,-35.3959 L 73.5,-26.5 L 69.7335,-26.5 L 62.0963,-39.7281
 L 62.2943,-39.9261 L 64.2705,-42.3665 L 65.9808,-45 L 67.4064,-47.7979 L 68.5317,-50.7295 L 69.3444,-53.7626
 L 69.8356,-56.8642 L 70,-60 L 69.8356,-63.1358 L 69.3444,-66.2374 L 68.5317,-69.2705 L 67.4064,-72.2021
 L 65.9808,-75 L 64.2705,-77.6335 L 62.2943,-80.0739 L 60.0739,-82.2943 L 57.6335,-84.2705 L 55,-85.9808
 L 52.2021,-87.4064 L 49.2705,-88.5317 L 46.2374,-89.3444 L 43.1358,-89.8356 L 40,-90 L 36.8642,-89.8356
 L 33.7626,-89.3444 L 30.7295,-88.5317 L 27.7979,-87.4064 L 25,-85.9808 L 22.3665,-84.2705 L 19.9261,-82.2943
 L 17.7057,-80.0739 L 15.7295,-77.6335 L 14.0192,-75 L 12.5936,-72.2021 L 11.4683,-69.2705 L 10.6556,-66.2374
 L 10.1644,-63.1358 L 10,-60 L 10.1644,-56.8642 L 10.6556,-53.7626 L 11.4683,-50.7295 L 12.5936,-47.7979
 L 14.0192,-45 L 15.7295,-42.3665 L 17.7057,-39.9261 L 19.9261,-37.7057 L 22.3665,-35.7295 L 25,-34.0192
 L 27.7979,-32.5936 L 30.7295,-31.4683 L 33.7626,-30.6556 L 36.8642,-30.1644 L 40,-30 L 43.1358,-30.1644
 L 46.2374,-30.6556 L 46.5079,-30.7281 L 62.7058,-2.67245 L 62.9338,-2.3213 L 63.1973,-1.99593 L 63.4933,-1.69987
 L 63.8187,-1.43639 L 64.1699,-1.20836 L 64.5429,-1.01828 L 64.9338,-0.868225 L 65.3382,-0.759857 L 65.7518,-0.694366
 L 66.1699,-0.67247 z
M 37.2823,-34.1424 L 34.5943,-34.5682 L 31.9656,-35.2725 L 29.4249,-36.2478 L 27,-37.4834 L 24.7176,-38.9656
 L 22.6026,-40.6782 L 20.6782,-42.6026 L 18.9656,-44.7176 L 17.4834,-47 L 16.2478,-49.4249 L 15.2725,-51.9656
 L 14.5682,-54.5943 L 14.1424,-57.2823 L 14,-60 L 14.1424,-62.7177 L 14.5682,-65.4057 L 15.2725,-68.0344
 L 16.2478,-70.5751 L 17.4834,-73 L 18.9656,-75.2824 L 20.6782,-77.3974 L 22.6026,-79.3218 L 24.7176,-81.0344
 L 27,-82.5166 L 29.4249,-83.7522 L 31.9656,-84.7275 L 34.5943,-85.4318 L 37.2823,-85.8576 L 40,-86
 L 42.7177,-85.8576 L 45.4057,-85.4318 L 48.0344,-84.7275 L 50.5751,-83.7522 L 53,-82.5166 L 55.2824,-81.0344
 L 57.3974,-79.3218 L 59.3218,-77.3974 L 61.0344,-75.2824 L 62.5166,-73 L 63.7522,-70.5751 L 64.7275,-68.0344
 L 65.4318,-65.4057 L 65.8576,-62.7177 L 66,-60 L 65.8576,-57.2823 L 65.4318,-54.5943 L 64.7275,-51.9656
 L 63.7522,-49.4249 L 62.5166,-47 L 61.0344,-44.7176 L 59.3218,-42.6026 L 57.3974,-40.6782 L 55.2824,-38.9656
 L 53,-37.4834 L 50.5751,-36.2478 L 48.0344,-35.2725 L 45.4057,-34.5682 L 42.7177,-34.1424 L 40,-34
 z
M 17.605,-20.511 L 17.8118,-20.5437 L 18.014,-20.5979 L 18.2094,-20.6729 L 18.3959,-20.7679 L 18.5715,-20.882
 L 18.7342,-21.0137 L 18.8822,-21.1617 L 19.014,-21.3244 L 19.128,-21.5 L 19.223,-21.6865 L 19.298,-21.882
 L 19.3522,-22.0842 L 19.385,-22.2909 L 19.3959,-22.5 L 19.385,-22.7091 L 19.3522,-22.9158 L 19.298,-23.118
 L 19.223,-23.3135 L 19.128,-23.5 L 19.014,-23.6756 L 18.8102,-23.9142 L 16.8102,-25.9142 L 16.6546,-26.0543
 L 16.4852,-26.1773 L 16.3039,-26.282 L 16.1127,-26.3672 L 15.9136,-26.4319 L 15.7088,-26.4754 L 15.3959,-26.5
 L 6.5,-26.5 L 6.5,-35.3959 L 6.48904,-35.605 L 6.4563,-35.8118 L 6.40211,-36.014 L 6.32709,-36.2094
 L 6.23206,-36.3959 L 6.11803,-36.5715 L 5.91422,-36.8102 L 3.91422,-38.8102 L 3.75864,-38.9502 L 3.58928,-39.0733
 L 3.40797,-39.1779 L 3.21674,-39.2631 L 3.01764,-39.3278 L 2.81287,-39.3713 L 2.60468,-39.3932 L 2.39532,-39.3932
 L 2.18713,-39.3713 L 1.98236,-39.3278 L 1.78326,-39.2631 L 1.59203,-39.1779 L 1.41072,-39.0733 L 1.24136,-38.9502
 L 1.08578,-38.8102 L 0.945709,-38.6546 L 0.822662,-38.4852 L 0.717987,-38.3039 L 0.632843,-38.1127 L 0.568146,-37.9136
 L 0.524628,-37.7088 L 0.5,-37.3959 L 0.5,-22.5 L 0.510956,-22.2909 L 0.543701,-22.0842 L 0.597885,-21.882
 L 0.672913,-21.6865 L 0.767944,-21.5 L 0.881973,-21.3244 L 1.01372,-21.1617 L 1.16174,-21.0137 L 1.32443,-20.882
 L 1.5,-20.7679 L 1.68652,-20.6729 L 1.88197,-20.5979 L 2.08418,-20.5437 L 2.29094,-20.511 L 2.5,-20.5
 L 17.3959,-20.5 z
" stroke="black" fill="black" stroke-width="0.5"/>
</svg>
