<?xml version="1.0" standalone="no"?>
<!DOCTYPE svg PUBLIC "-//W3C//DTD SVG 1.1//EN" "http://www.w3.org/Graphics/SVG/1.1/DTD/svg11.dtd">
<svg width="100" height="101" viewBox="-15 -100 100 101" xmlns="http://www.w3.org/2000/svg" version="1.1">
<title>OpenSCAD Model</title>
<path d="
M 5,-70 L 23,-70 L 23.2617,-70.0069 L 23.4707,-70.0178 L 23.9912,-70.0725 L 24.198,-70.1053
 L 24.71,-70.2141 L 24.9122,-70.2683 L 25.4099,-70.43 L 25.6053,-70.505 L 26.0833,-70.7178 L 26.2698,-70.8129
 L 26.7234,-71.0747 L 26.899,-71.1888 L 27.3222,-71.4963 L 27.4849,-71.628 L 27.8738,-71.9782 L 28.0218,-72.1262
 L 28.372,-72.5151 L 28.5037,-72.6778 L 28.8112,-73.101 L 28.9253,-73.2766 L 29.1871,-73.7302 L 29.2822,-73.9167
 L 29.495,-74.3947 L 29.57,-74.5901 L 29.7317,-75.0878 L 29.7859,-75.29 L 29.8947,-75.802 L 29.9275,-76.0088
 L 29.9822,-76.5293 L 29.9931,-76.7383 L 30,-77 L 30,-95 L 63,-95 L 63.2091,-94.989
 L 63.4158,-94.9563 L 63.618,-94.9021 L 63.8135,-94.8271 L 64,-94.7321 L 64.1756,-94.618 L 64.3383,-94.4863
 L 64.4863,-94.3383 L 64.618,-94.1756 L 64.7321,-94 L 64.8271,-93.8135 L 64.9021,-93.618 L 64.9563,-93.4158
 L 64.989,-93.2091 L 65,-93 L 65,-45 L 70,-45 L 70,-93 L 69.9931,-93.2617
 L 69.9822,-93.4707 L 69.9275,-93.9912 L 69.8947,-94.198 L 69.7859,-94.71 L 69.7317,-94.9122 L 69.57,-95.4099
 L 69.495,-95.6053 L 69.2822,-96.0833 L 69.1871,-96.2698 L 68.9253,-96.7234 L 68.8112,-96.899 L 68.5037,-97.3222
 L 68.372,-97.4849 L 68.0218,-97.8738 L 67.8738,-98.0218 L 67.4849,-98.372 L 67.3222,-98.5037 L 66.899,-98.8112
 L 66.7234,-98.9253 L 66.2698,-99.1871 L 66.0833,-99.2822 L 65.6053,-99.495 L 65.4099,-99.57 L 64.9122,-99.7317
 L 64.71,-99.7859 L 64.198,-99.8947 L 63.9912,-99.9275 L 63.4707,-99.9822 L 63.2617,-99.9931 L 63,-100
 L 25,-100 L 0,-75 L 0,-45 L 5,-45 z
M 3.72739,0.41098 L 4.98695,0.299927 L 6.19939,0.114853 L 7.3647,-0.144241 L 8.48288,-0.477386 L 9.55396,-0.884552
 L 10.5779,-1.36575 L 11.5547,-1.92099 L 12.4792,-2.55212 L 13.3461,-3.26099 L 14.1556,-4.04762 L 14.9075,-4.91199
 L 15.6018,-5.85411 L 16.2386,-6.87399 L 16.8179,-7.97162 L 17.3397,-9.14699 L 11.2367,-11.456 L 10.5584,-9.9574
 L 9.75908,-8.65862 L 8.83867,-7.55965 L 7.7972,-6.66049 L 6.63467,-5.96115 L 5.35107,-5.46162 L 3.94641,-5.1619
 L 2.4207,-5.062 L 1.26178,-5.10948 L 0.173004,-5.25192 L -0.845596,-5.48935 L -1.79405,-5.82175 L -2.67235,-6.2491
 L -3.48048,-6.77142 L -4.21848,-7.38873 L -4.88631,-8.101 L -5.47926,-8.90363 L -5.99318,-9.79155 L -6.42802,-10.7648
 L -6.7838,-11.8232 L -7.06052,-12.967 L -7.25818,-14.1961 L -7.37677,-15.5104 L -7.41631,-16.91 L -7.37788,-18.2861
 L -7.26262,-19.5768 L -7.07051,-20.7822 L -6.80154,-21.9022 L -6.45575,-22.937 L -6.03311,-23.8863 L -5.53363,-24.7503
 L -4.95731,-25.529 L -4.3067,-26.2192 L -3.58443,-26.8174 L -2.79045,-27.3236 L -1.9248,-27.7377 L -0.987457,-28.0598
 L 0.0215759,-28.2899 L 1.10229,-28.428 L 2.2547,-28.474 L 3.0199,-28.4507 L 3.75951,-28.381 L 4.47353,-28.2647
 L 5.16194,-28.102 L 5.82478,-27.8927 L 6.46201,-27.637 L 7.07365,-27.3347 L 7.6597,-26.986 L 8.20937,-26.5981
 L 8.71188,-26.1777 L 9.16725,-25.7251 L 9.57545,-25.24 L 9.93649,-24.7225 L 10.2504,-24.1727 L 10.5171,-23.5906
 L 10.7367,-22.976 L 16.9117,-24.664 L 16.5029,-25.7765 L 16.0251,-26.8195 L 15.4783,-27.793 L 14.8624,-28.697
 L 14.1776,-29.5315 L 13.4236,-30.2965 L 12.6007,-30.992 L 11.7087,-31.618 L 10.7481,-32.1725 L 9.71913,-32.6531
 L 8.62193,-33.0598 L 7.45645,-33.3925 L 6.22269,-33.6513 L 4.92064,-33.8361 L 3.55031,-33.947 L 2.11169,-33.984
 L 0.152206,-33.915 L -1.68781,-33.7079 L -3.40829,-33.3629 L -5.00931,-32.8797 L -6.4908,-32.2586 L -7.8528,-31.4994
 L -9.09531,-30.6022 L -10.2183,-29.567 L -11.2149,-28.403 L -12.0786,-27.1196 L -12.8094,-25.7166 L -13.4073,-24.1942
 L -13.8724,-22.5524 L -14.2045,-20.7911 L -14.4039,-18.9103 L -14.4703,-16.91 L -14.4014,-14.9129 L -14.1949,-13.0298
 L -13.8506,-11.2606 L -13.3685,-9.60524 L -12.7488,-8.06383 L -11.9914,-6.63631 L -11.0962,-5.32269 L -10.0633,-4.12299
 L -8.90421,-3.05167 L -7.63043,-2.12318 L -6.24196,-1.33754 L -4.7388,-0.694748 L -3.12096,-0.194794 L -1.38843,0.162308
 L 0.458786,0.376572 L 2.4207,0.447998 z
M 35.7469,0.407364 L 37.3509,0.285492 L 38.8483,0.0823669 L 40.2392,-0.201996 L 41.5235,-0.567612 L 42.7014,-1.0145
 L 43.7727,-1.54262 L 44.7374,-2.15199 L 45.5922,-2.83818 L 46.333,-3.59674 L 46.9598,-4.42767 L 47.4727,-5.33099
 L 47.8716,-6.30669 L 48.1565,-7.35474 L 48.3274,-8.47517 L 48.3844,-9.668 L 48.3744,-10.1829 L 48.3443,-10.6825
 L 48.2941,-11.1669 L 48.2239,-11.636 L 48.1336,-12.0899 L 48.0233,-12.5285 L 47.8929,-12.9519 L 47.7424,-13.36
 L 47.5732,-13.7537 L 47.3862,-14.1333 L 47.1814,-14.4988 L 46.9587,-14.8502 L 46.7181,-15.1876 L 46.4597,-15.5108
 L 46.1835,-15.8199 L 45.8894,-16.115 L 45.5731,-16.3985 L 45.2297,-16.6731 L 44.8591,-16.9388 L 44.4614,-17.1955
 L 44.0366,-17.4433 L 43.5847,-17.6821 L 43.1056,-17.912 L 42.5994,-18.133 L 42.037,-18.3521 L 41.3889,-18.5761
 L 40.6549,-18.8049 L 39.8352,-19.0385 L 38.9297,-19.2769 L 37.9384,-19.5201 L 36.8613,-19.7681 L 35.6984,-20.021
 L 34.7256,-20.2361 L 33.8381,-20.4419 L 33.036,-20.6385 L 32.3192,-20.8257 L 31.6877,-21.0037 L 31.1416,-21.1724
 L 30.6809,-21.3318 L 30.3054,-21.482 L 29.9831,-21.6314 L 29.6812,-21.7886 L 29.3998,-21.9535 L 29.1387,-22.1262
 L 28.898,-22.3068 L 28.6777,-22.4951 L 28.4779,-22.6911 L 28.2984,-22.895 L 28.1398,-23.1102 L 28.0022,-23.3402
 L 27.8859,-23.585 L 27.7907,-23.8447 L 27.7166,-24.1193 L 27.6637,-24.4087 L 27.632,-24.7129 L 27.6214,-25.032
 L 27.7209,-25.9667 L 28.0194,-26.7767 L 28.5168,-27.4622 L 29.2132,-28.023 L 30.1085,-28.4592 L 31.2029,-28.7707
 L 32.4962,-28.9577 L 33.9884,-29.02 L 34.7152,-29.003 L 35.3985,-28.9522 L 36.0383,-28.8674 L 36.6347,-28.7487
 L 37.1876,-28.5962 L 37.697,-28.4097 L 38.1629,-28.1893 L 38.5854,-27.935 L 38.9695,-27.6472 L 39.3199,-27.3262
 L 39.6364,-26.972 L 39.9192,-26.5847 L 40.1682,-26.1643 L 40.3834,-25.7107 L 40.5648,-25.2239 L 40.7124,-24.704
 L 47.5054,-25.627 L 47.245,-26.7061 L 46.9151,-27.7061 L 46.5158,-28.6269 L 46.0472,-29.4685 L 45.5091,-30.2309
 L 44.9016,-30.9141 L 44.2247,-31.5181 L 43.4784,-32.043 L 42.6492,-32.4979 L 41.7231,-32.8922 L 40.7001,-33.2258
 L 39.5802,-33.4987 L 38.3633,-33.711 L 37.0496,-33.8627 L 35.639,-33.9537 L 34.1314,-33.984 L 32.5529,-33.9463
 L 31.0711,-33.8333 L 29.6862,-33.6449 L 28.3982,-33.3812 L 27.207,-33.0422 L 26.1126,-32.6278 L 25.1151,-32.1381
 L 24.2144,-31.573 L 23.4155,-30.9373 L 22.723,-30.2352 L 22.1371,-29.4667 L 21.6577,-28.6317 L 21.2848,-27.7304
 L 21.0185,-26.7627 L 20.8587,-25.7285 L 20.8054,-24.628 L 20.8127,-24.189 L 20.8344,-23.7627 L 20.8705,-23.3489
 L 20.9212,-22.9477 L 20.9863,-22.5592 L 21.0659,-22.1832 L 21.1599,-21.8198 L 21.2684,-21.469 L 21.3899,-21.1303
 L 21.5229,-20.8027 L 21.6674,-20.4863 L 21.8234,-20.181 L 21.9909,-19.8868 L 22.1699,-19.6037 L 22.3604,-19.3318
 L 22.5624,-19.071 L 22.776,-18.8204 L 23.0007,-18.5791 L 23.2365,-18.347 L 23.4834,-18.1242 L 23.7415,-17.9108
 L 24.0107,-17.7066 L 24.291,-17.5116 L 24.5824,-17.326 L 24.8839,-17.1479 L 25.1942,-16.9758 L 25.5134,-16.8096
 L 25.8414,-16.6492 L 26.1784,-16.4948 L 26.5242,-16.3463 L 26.8789,-16.2037 L 27.2424,-16.067 L 27.6463,-15.9281
 L 28.1215,-15.7784 L 28.668,-15.618 L 29.2857,-15.4467 L 29.9747,-15.2647 L 30.735,-15.0719 L 31.5666,-14.8683
 L 32.4694,-14.654 L 33.5122,-14.4386 L 34.467,-14.2312 L 35.3338,-14.0321 L 36.1127,-13.841 L 36.8036,-13.6581
 L 37.4065,-13.4832 L 37.9214,-13.3166 L 38.3484,-13.158 L 38.7207,-12.9989 L 39.0714,-12.8302 L 39.4005,-12.6518
 L 39.7082,-12.4637 L 39.9943,-12.266 L 40.2589,-12.0587 L 40.5019,-11.8417 L 40.7234,-11.615 L 40.9212,-11.3757
 L 41.0927,-11.1208 L 41.2377,-10.8503 L 41.3564,-10.5642 L 41.4487,-10.2626 L 41.5147,-9.94531 L 41.5542,-9.61244
 L 41.5674,-9.26399 L 41.4527,-8.21797 L 41.1086,-7.31143 L 40.5351,-6.54436 L 39.7322,-5.91675 L 38.6998,-5.4286
 L 37.4381,-5.07993 L 35.947,-4.87073 L 34.2264,-4.80099 L 33.3656,-4.81972 L 32.5529,-4.87587 L 31.7886,-4.96947
 L 31.0724,-5.10049 L 30.4046,-5.26897 L 29.7849,-5.47487 L 29.2136,-5.71822 L 28.6904,-5.99899 L 28.2121,-6.32153
 L 27.7746,-6.68968 L 27.3778,-7.10341 L 27.0219,-7.56274 L 26.7068,-8.06766 L 26.4326,-8.61818 L 26.1991,-9.21429
 L 26.0064,-9.85599 L 19.2374,-8.73999 L 19.5395,-7.61923 L 19.9232,-6.57193 L 20.3886,-5.5981 L 20.9357,-4.69774
 L 21.5644,-3.87085 L 22.2747,-3.11743 L 23.0668,-2.43747 L 23.9404,-1.83099 L 24.8986,-1.29684 L 25.9436,-0.833923
 L 27.0753,-0.44223 L 28.2939,-0.12175 L 29.5993,0.127502 L 30.9916,0.305557 L 32.4706,0.412384 L 34.0364,0.447998
 z
M 69.6298,0.423889 L 70.7796,0.351562 L 71.9164,0.231003 L 73.0403,0.0622406 L 74.1512,-0.154724 L 75.2491,-0.419937
 L 76.334,-0.733353 L 77.406,-1.09499 L 78.4467,-1.49928 L 79.4373,-1.94067 L 80.3777,-2.41916 L 81.268,-2.93474
 L 82.1082,-3.48741 L 82.8983,-4.07718 L 83.6382,-4.70404 L 84.328,-5.368 L 84.328,-17.664 L 69.749,-17.664
 L 69.749,-12.486 L 77.915,-12.486 L 77.915,-7.86099 L 77.5466,-7.55936 L 77.1418,-7.27142 L 76.7007,-6.99722
 L 76.2233,-6.73674 L 75.7095,-6.48997 L 75.1593,-6.25693 L 74.5729,-6.0376 L 73.95,-5.83199 L 73.3067,-5.6459
 L 72.658,-5.48462 L 72.0042,-5.34814 L 71.345,-5.2365 L 70.6807,-5.14964 L 70.011,-5.08762 L 69.3362,-5.0504
 L 68.656,-5.03799 L 67.4908,-5.0864 L 66.3928,-5.23161 L 65.3618,-5.47365 L 64.398,-5.8125 L 63.5013,-6.24815
 L 62.6718,-6.78062 L 61.9093,-7.4099 L 61.214,-8.13599 L 60.5936,-8.95099 L 60.056,-9.8465 L 59.601,-10.8225
 L 59.2288,-11.879 L 58.9393,-13.016 L 58.7325,-14.2335 L 58.6084,-15.5315 L 58.567,-16.91 L 58.6071,-18.2646
 L 58.7273,-19.5382 L 58.9276,-20.731 L 59.208,-21.843 L 59.5686,-22.8741 L 60.0093,-23.8242 L 60.5301,-24.6936
 L 61.131,-25.482 L 61.8091,-26.1832 L 62.5614,-26.791 L 63.3879,-27.3052 L 64.2885,-27.726 L 65.2634,-28.0532
 L 66.3124,-28.287 L 67.4356,-28.4272 L 68.633,-28.474 L 69.3743,-28.4535 L 70.0911,-28.3919 L 70.7834,-28.2894
 L 71.4513,-28.1457 L 72.0947,-27.9611 L 72.7136,-27.7354 L 73.308,-27.4687 L 73.878,-27.161 L 74.4175,-26.8136
 L 74.9198,-26.4274 L 75.3851,-26.0025 L 75.8133,-25.5387 L 76.2044,-25.0362 L 76.5583,-24.4949 L 76.8752,-23.9149
 L 77.155,-23.296 L 83.615,-25.248 L 82.6798,-27.2955 L 81.4767,-29.07 L 80.0057,-30.5715 L 78.2668,-31.8
 L 76.26,-32.7555 L 73.9852,-33.438 L 71.4426,-33.8475 L 68.632,-33.984 L 66.621,-33.9152 L 64.7309,-33.7087
 L 62.9616,-33.3645 L 61.3133,-32.8827 L 59.7859,-32.2633 L 58.3793,-31.5062 L 57.0937,-30.6114 L 55.929,-29.579
 L 54.894,-28.4174 L 53.997,-27.1353 L 53.238,-25.7326 L 52.617,-24.2092 L 52.134,-22.5653 L 51.789,-20.8008
 L 51.582,-18.9157 L 51.513,-16.91 L 51.5817,-14.8914 L 51.7875,-12.9912 L 52.1307,-11.2093 L 52.611,-9.54575
 L 53.2287,-8.00053 L 53.9835,-6.57368 L 54.8757,-5.26517 L 55.905,-4.075 L 57.0623,-3.01491 L 58.3375,-2.09618
 L 59.7308,-1.31879 L 61.242,-0.682739 L 62.8713,-0.188034 L 64.6185,0.165298 L 66.4838,0.377319 L 68.467,0.447998
 z
" stroke="black" fill="black" stroke-width="0.5"/></svg>
