<?xml version="1.0" standalone="no"?>
<!DOCTYPE svg PUBLIC "-//W3C//DTD SVG 1.1//EN" "http://www.w3.org/Graphics/SVG/1.1/DTD/svg11.dtd">
<svg width="98" height="101" viewBox="-14 -100 98 101" xmlns="http://www.w3.org/2000/svg" version="1.1">
<title>OpenSCAD Model</title>
<path d="
M 5,-70 L 23,-70 L 23.2617,-70.0069 L 23.4707,-70.0178 L 23.9912,-70.0725 L 24.198,-70.1053
 L 24.71,-70.2141 L 24.9122,-70.2683 L 25.4099,-70.43 L 25.6053,-70.505 L 26.0833,-70.7178 L 26.2698,-70.8129
 L 26.7234,-71.0747 L 26.899,-71.1888 L 27.3222,-71.4963 L 27.4849,-71.628 L 27.8738,-71.9782 L 28.0218,-72.1262
 L 28.372,-72.5151 L 28.5037,-72.6778 L 28.8112,-73.101 L 28.9253,-73.2766 L 29.1871,-73.7302 L 29.2822,-73.9167
 L 29.495,-74.3947 L 29.57,-74.5901 L 29.7317,-75.0878 L 29.7859,-75.29 L 29.8947,-75.802 L 29.9275,-76.0088
 L 29.9822,-76.5293 L 29.9931,-76.7383 L 30,-77 L 30,-95 L 63,-95 L 63.2091,-94.989
 L 63.4158,-94.9563 L 63.618,-94.9021 L 63.8135,-94.8271 L 64,-94.7321 L 64.1756,-94.618 L 64.3383,-94.4863
 L 64.4863,-94.3383 L 64.618,-94.1756 L 64.7321,-94 L 64.8271,-93.8135 L 64.9021,-93.618 L 64.9563,-93.4158
 L 64.989,-93.2091 L 65,-93 L 65,-45 L 70,-45 L 70,-93 L 69.9931,-93.2617
 L 69.9822,-93.4707 L 69.9275,-93.9912 L 69.8947,-94.198 L 69.7859,-94.71 L 69.7317,-94.9122 L 69.57,-95.4099
 L 69.495,-95.6053 L 69.2822,-96.0833 L 69.1871,-96.2698 L 68.9253,-96.7234 L 68.8112,-96.899 L 68.5037,-97.3222
 L 68.372,-97.4849 L 68.0218,-97.8738 L 67.8738,-98.0218 L 67.4849,-98.372 L 67.3222,-98.5037 L 66.899,-98.8112
 L 66.7234,-98.9253 L 66.2698,-99.1871 L 66.0833,-99.2822 L 65.6053,-99.495 L 65.4099,-99.57 L 64.9122,-99.7317
 L 64.71,-99.7859 L 64.198,-99.8947 L 63.9912,-99.9275 L 63.4707,-99.9822 L 63.2617,-99.9931 L 63,-100
 L 25,-100 L 0,-75 L 0,-45 L 5,-45 z
M 2.75424,0.407364 L 4.3582,0.285492 L 5.85562,0.0823669 L 7.24651,-0.201996 L 8.53087,-0.567612 L 9.70869,-1.0145
 L 10.78,-1.54262 L 11.7448,-2.15199 L 12.5995,-2.83818 L 13.3403,-3.59674 L 13.9671,-4.42767 L 14.48,-5.33099
 L 14.8789,-6.30669 L 15.1638,-7.35474 L 15.3348,-8.47517 L 15.3918,-9.668 L 15.3817,-10.1829 L 15.3516,-10.6825
 L 15.3015,-11.1669 L 15.2313,-11.636 L 15.141,-12.0899 L 15.0306,-12.5285 L 14.9002,-12.9519 L 14.7498,-13.36
 L 14.5806,-13.7537 L 14.3936,-14.1333 L 14.1887,-14.4988 L 13.966,-14.8502 L 13.7255,-15.1876 L 13.4671,-15.5108
 L 13.1908,-15.8199 L 12.8968,-16.115 L 12.5804,-16.3985 L 12.237,-16.6731 L 11.8664,-16.9388 L 11.4688,-17.1955
 L 11.0439,-17.4433 L 10.592,-17.6821 L 10.1129,-17.912 L 9.60675,-18.133 L 9.04437,-18.3521 L 8.39619,-18.5761
 L 7.66225,-18.8049 L 6.84251,-19.0385 L 5.937,-19.2769 L 4.94569,-19.5201 L 3.86862,-19.7681 L 2.70576,-20.021
 L 1.73293,-20.2361 L 0.845444,-20.4419 L 0.0433044,-20.6385 L -0.673492,-20.8257 L -1.30495,-21.0037 L -1.85106,-21.1724
 L -2.31181,-21.3318 L -2.68724,-21.482 L -3.00954,-21.6314 L -3.31143,-21.7886 L -3.59291,-21.9535 L -3.85399,-22.1262
 L -4.09467,-22.3068 L -4.31493,-22.4951 L -4.51479,-22.6911 L -4.69424,-22.895 L -4.85292,-23.1102 L -4.99043,-23.3402
 L -5.1068,-23.585 L -5.202,-23.8447 L -5.27605,-24.1193 L -5.32893,-24.4087 L -5.36066,-24.7129 L -5.37125,-25.032
 L -5.27176,-25.9667 L -4.97331,-26.7767 L -4.47588,-27.4622 L -3.7795,-28.023 L -2.88414,-28.4592 L -1.78981,-28.7707
 L -0.496506,-28.9577 L 0.995758,-29.02 L 1.72252,-29.003 L 2.40582,-28.9522 L 3.04565,-28.8674 L 3.64201,-28.7487
 L 4.1949,-28.5962 L 4.70432,-28.4097 L 5.17027,-28.1893 L 5.59276,-27.935 L 5.97687,-27.6472 L 6.32719,-27.3262
 L 6.64374,-26.972 L 6.92651,-26.5847 L 7.17549,-26.1643 L 7.3907,-25.7107 L 7.57211,-25.2239 L 7.71976,-24.704
 L 14.5128,-25.627 L 14.2523,-26.7061 L 13.9224,-27.7061 L 13.5232,-28.6269 L 13.0545,-29.4685 L 12.5164,-30.2309
 L 11.909,-30.9141 L 11.2321,-31.5181 L 10.4858,-32.043 L 9.65656,-32.4979 L 8.73044,-32.8922 L 7.70743,-33.2258
 L 6.58751,-33.4987 L 5.37068,-33.711 L 4.05695,-33.8627 L 2.6463,-33.9537 L 1.13876,-33.984 L -0.439819,-33.9463
 L -1.92155,-33.8333 L -3.30644,-33.6449 L -4.5945,-33.3812 L -5.78569,-33.0422 L -6.88005,-32.6278 L -7.87756,-32.1381
 L -8.77824,-31.573 L -9.57722,-30.9373 L -10.2697,-30.2352 L -10.8556,-29.4667 L -11.335,-28.6317 L -11.7079,-27.7304
 L -11.9742,-26.7627 L -12.134,-25.7285 L -12.1872,-24.628 L -12.18,-24.189 L -12.1583,-23.7627 L -12.1221,-23.3489
 L -12.0715,-22.9477 L -12.0064,-22.5592 L -11.9268,-22.1832 L -11.8328,-21.8198 L -11.7242,-21.469 L -11.6027,-21.1303
 L -11.4697,-20.8027 L -11.3252,-20.4863 L -11.1692,-20.181 L -11.0017,-19.8868 L -10.8227,-19.6037 L -10.6322,-19.3318
 L -10.4302,-19.071 L -10.2167,-18.8204 L -9.99199,-18.5791 L -9.75618,-18.347 L -9.50925,-18.1242 L -9.25117,-17.9108
 L -8.98199,-17.7066 L -8.70168,-17.5116 L -8.41025,-17.326 L -8.10881,-17.1479 L -7.79849,-16.9758 L -7.47931,-16.8096
 L -7.15125,-16.6492 L -6.8143,-16.4948 L -6.46849,-16.3463 L -6.1138,-16.2037 L -5.75024,-16.067 L -5.34636,-15.9281
 L -4.87119,-15.7784 L -4.32472,-15.618 L -3.70699,-15.4467 L -3.01797,-15.2647 L -2.25768,-15.0719 L -1.4261,-14.8683
 L -0.523239,-14.654 L 0.519516,-14.4386 L 1.47432,-14.2312 L 2.34114,-14.0321 L 3.12001,-13.841 L 3.8109,-13.6581
 L 4.41382,-13.4832 L 4.92877,-13.3166 L 5.35576,-13.158 L 5.728,-12.9989 L 6.07869,-12.8302 L 6.40787,-12.6518
 L 6.71552,-12.4637 L 7.00162,-12.266 L 7.26619,-12.0587 L 7.50925,-11.8417 L 7.73076,-11.615 L 7.92857,-11.3757
 L 8.10001,-11.1208 L 8.24507,-10.8503 L 8.36375,-10.5642 L 8.45607,-10.2626 L 8.522,-9.94531 L 8.56157,-9.61244
 L 8.57475,-9.26399 L 8.46005,-8.21797 L 8.11595,-7.31143 L 7.54243,-6.54436 L 6.7395,-5.91675 L 5.70718,-5.4286
 L 4.44545,-5.07993 L 2.9543,-4.87073 L 1.23376,-4.80099 L 0.372879,-4.81972 L -0.439743,-4.87587 L -1.20412,-4.96947
 L -1.92024,-5.10049 L -2.58812,-5.26897 L -3.20775,-5.47487 L -3.77911,-5.71822 L -4.30225,-5.99899 L -4.78058,-6.32153
 L -5.21812,-6.68968 L -5.61484,-7.10341 L -5.97075,-7.56274 L -6.28584,-8.06766 L -6.56012,-8.61818 L -6.79358,-9.21429
 L -6.98624,-9.85599 L -13.7552,-8.73999 L -13.4532,-7.61923 L -13.0694,-6.57193 L -12.604,-5.5981 L -12.057,-4.69774
 L -11.4283,-3.87085 L -10.7179,-3.11743 L -9.92592,-2.43747 L -9.05225,-1.83099 L -8.09409,-1.29684 L -7.04912,-0.833923
 L -5.91734,-0.44223 L -4.69875,-0.12175 L -3.39334,0.127502 L -2.00111,0.305557 L -0.522079,0.412384 L 1.04376,0.447998
 z
M 68.3197,0.423889 L 69.4695,0.351562 L 70.6064,0.231003 L 71.7302,0.0622406 L 72.8411,-0.154724 L 73.939,-0.419937
 L 75.024,-0.733353 L 76.096,-1.09499 L 77.1367,-1.49928 L 78.1272,-1.94067 L 79.0677,-2.41916 L 79.958,-2.93474
 L 80.7982,-3.48741 L 81.5882,-4.07718 L 82.3282,-4.70404 L 83.018,-5.368 L 83.018,-17.664 L 68.439,-17.664
 L 68.439,-12.486 L 76.605,-12.486 L 76.605,-7.86099 L 76.2366,-7.55936 L 75.8318,-7.27142 L 75.3907,-6.99722
 L 74.9132,-6.73674 L 74.3994,-6.48997 L 73.8493,-6.25693 L 73.2628,-6.0376 L 72.64,-5.83199 L 71.9966,-5.6459
 L 71.348,-5.48462 L 70.6941,-5.34814 L 70.035,-5.2365 L 69.3706,-5.14964 L 68.701,-5.08762 L 68.0261,-5.0504
 L 67.346,-5.03799 L 66.1808,-5.0864 L 65.0827,-5.23161 L 64.0518,-5.47365 L 63.088,-5.8125 L 62.1913,-6.24815
 L 61.3617,-6.78062 L 60.5993,-7.4099 L 59.904,-8.13599 L 59.2836,-8.95099 L 58.7459,-9.8465 L 58.291,-10.8225
 L 57.9187,-11.879 L 57.6292,-13.016 L 57.4224,-14.2335 L 57.2983,-15.5315 L 57.257,-16.91 L 57.297,-18.2646
 L 57.4172,-19.5382 L 57.6175,-20.731 L 57.898,-21.843 L 58.2585,-22.8741 L 58.6992,-23.8242 L 59.22,-24.6936
 L 59.821,-25.482 L 60.4991,-26.1832 L 61.2514,-26.791 L 62.0778,-27.3052 L 62.9785,-27.726 L 63.9533,-28.0532
 L 65.0023,-28.287 L 66.1256,-28.4272 L 67.323,-28.474 L 68.0642,-28.4535 L 68.781,-28.3919 L 69.4734,-28.2894
 L 70.1412,-28.1457 L 70.7846,-27.9611 L 71.4035,-27.7354 L 71.998,-27.4687 L 72.568,-27.161 L 73.1074,-26.8136
 L 73.6098,-26.4274 L 74.0751,-26.0025 L 74.5032,-25.5387 L 74.8943,-25.0362 L 75.2483,-24.4949 L 75.5652,-23.9149
 L 75.845,-23.296 L 82.305,-25.248 L 81.3698,-27.2955 L 80.1667,-29.07 L 78.6956,-30.5715 L 76.9567,-31.8
 L 74.9499,-32.7555 L 72.6752,-33.438 L 70.1325,-33.8475 L 67.322,-33.984 L 65.3109,-33.9152 L 63.4208,-33.7087
 L 61.6516,-33.3645 L 60.0032,-32.8827 L 58.4758,-32.2633 L 57.0693,-31.5062 L 55.7837,-30.6114 L 54.619,-29.579
 L 53.584,-28.4174 L 52.687,-27.1353 L 51.928,-25.7326 L 51.307,-24.2092 L 50.824,-22.5653 L 50.479,-20.8008
 L 50.272,-18.9157 L 50.203,-16.91 L 50.2716,-14.8914 L 50.4775,-12.9912 L 50.8206,-11.2093 L 51.301,-9.54575
 L 51.9186,-8.00053 L 52.6735,-6.57368 L 53.5656,-5.26517 L 54.595,-4.075 L 55.7522,-3.01491 L 57.0275,-2.09618
 L 58.4207,-1.31879 L 59.932,-0.682739 L 61.5612,-0.188034 L 63.3085,0.165298 L 65.1737,0.377319 L 67.157,0.447998
 z
M 48.6414,-33.472 L 41.3974,-33.472 L 34.5314,-11.972 L 33.3204,-7.696 L 32.8214,-5.653 L 32.5496,-6.67682
 L 32.2926,-7.6338 L 32.0506,-8.52394 L 31.8234,-9.34724 L 31.6111,-10.1037 L 31.4136,-10.7933 L 31.2311,-11.4161
 L 31.0634,-11.972 L 24.1744,-33.472 L 16.8594,-33.472 L 29.2344,-0 L 36.3364,-0 z
" stroke="black" fill="black" stroke-width="0.5"/></svg>
