<?xml version="1.0" standalone="no"?>
<!DOCTYPE svg PUBLIC "-//W3C//DTD SVG 1.1//EN" "http://www.w3.org/Graphics/SVG/1.1/DTD/svg11.dtd">
<svg width="89" height="101" viewBox="-9 -100 89 101" xmlns="http://www.w3.org/2000/svg" version="1.1">
<title>OpenSCAD Model</title>
<path d="
M 5,-70 L 23,-70 L 23.2617,-70.0069 L 23.4707,-70.0178 L 23.9912,-70.0725 L 24.198,-70.1053
 L 24.71,-70.2141 L 24.9122,-70.2683 L 25.4099,-70.43 L 25.6053,-70.505 L 26.0833,-70.7178 L 26.2698,-70.8129
 L 26.7234,-71.0747 L 26.899,-71.1888 L 27.3222,-71.4963 L 27.4849,-71.628 L 27.8738,-71.9782 L 28.0218,-72.1262
 L 28.372,-72.5151 L 28.5037,-72.6778 L 28.8112,-73.101 L 28.9253,-73.2766 L 29.1871,-73.7302 L 29.2822,-73.9167
 L 29.495,-74.3947 L 29.57,-74.5901 L 29.7317,-75.0878 L 29.7859,-75.29 L 29.8947,-75.802 L 29.9275,-76.0088
 L 29.9822,-76.5293 L 29.9931,-76.7383 L 30,-77 L 30,-95 L 63,-95 L 63.2091,-94.989
 L 63.4158,-94.9563 L 63.618,-94.9021 L 63.8135,-94.8271 L 64,-94.7321 L 64.1756,-94.618 L 64.3383,-94.4863
 L 64.4863,-94.3383 L 64.618,-94.1756 L 64.7321,-94 L 64.8271,-93.8135 L 64.9021,-93.618 L 64.9563,-93.4158
 L 64.989,-93.2091 L 65,-93 L 65,-45 L 70,-45 L 70,-93 L 69.9931,-93.2617
 L 69.9822,-93.4707 L 69.9275,-93.9912 L 69.8947,-94.198 L 69.7859,-94.71 L 69.7317,-94.9122 L 69.57,-95.4099
 L 69.495,-95.6053 L 69.2822,-96.0833 L 69.1871,-96.2698 L 68.9253,-96.7234 L 68.8112,-96.899 L 68.5037,-97.3222
 L 68.372,-97.4849 L 68.0218,-97.8738 L 67.8738,-98.0218 L 67.4849,-98.372 L 67.3222,-98.5037 L 66.899,-98.8112
 L 66.7234,-98.9253 L 66.2698,-99.1871 L 66.0833,-99.2822 L 65.6053,-99.495 L 65.4099,-99.57 L 64.9122,-99.7317
 L 64.71,-99.7859 L 64.198,-99.8947 L 63.9912,-99.9275 L 63.4707,-99.9822 L 63.2617,-99.9931 L 63,-100
 L 25,-100 L 0,-75 L 0,-45 L 5,-45 z
M 8.05453,0.407364 L 9.65849,0.285492 L 11.1559,0.0823669 L 12.5468,-0.201996 L 13.8312,-0.567612 L 15.009,-1.0145
 L 16.0803,-1.54262 L 17.045,-2.15199 L 17.8998,-2.83818 L 18.6406,-3.59674 L 19.2674,-4.42767 L 19.7803,-5.33099
 L 20.1792,-6.30669 L 20.4641,-7.35474 L 20.6351,-8.47517 L 20.692,-9.668 L 20.682,-10.1829 L 20.6519,-10.6825
 L 20.6018,-11.1669 L 20.5316,-11.636 L 20.4413,-12.0899 L 20.3309,-12.5285 L 20.2005,-12.9519 L 20.05,-13.36
 L 19.8809,-13.7537 L 19.6939,-14.1333 L 19.489,-14.4988 L 19.2663,-14.8502 L 19.0258,-15.1876 L 18.7674,-15.5108
 L 18.4911,-15.8199 L 18.1971,-16.115 L 17.8807,-16.3985 L 17.5373,-16.6731 L 17.1667,-16.9388 L 16.769,-17.1955
 L 16.3442,-17.4433 L 15.8923,-17.6821 L 15.4132,-17.912 L 14.907,-18.133 L 14.3447,-18.3521 L 13.6965,-18.5761
 L 12.9625,-18.8049 L 12.1428,-19.0385 L 11.2373,-19.2769 L 10.246,-19.5201 L 9.16891,-19.7681 L 8.00606,-20.021
 L 7.03322,-20.2361 L 6.14574,-20.4419 L 5.3436,-20.6385 L 4.6268,-20.8257 L 3.99535,-21.0037 L 3.44923,-21.1724
 L 2.98848,-21.3318 L 2.61305,-21.482 L 2.29076,-21.6314 L 1.98886,-21.7886 L 1.70738,-21.9535 L 1.4463,-22.1262
 L 1.20563,-22.3068 L 0.985367,-22.4951 L 0.785507,-22.6911 L 0.606049,-22.895 L 0.447372,-23.1102 L 0.30986,-23.3402
 L 0.193497,-23.585 L 0.0982971,-23.8447 L 0.0242462,-24.1193 L -0.0286407,-24.4087 L -0.0603638,-24.7129 L -0.0709534,-25.032
 L 0.0285339,-25.9667 L 0.326981,-26.7767 L 0.824417,-27.4622 L 1.5208,-28.023 L 2.41615,-28.4592 L 3.51048,-28.7707
 L 4.80379,-28.9577 L 6.29605,-29.02 L 7.02281,-29.003 L 7.70612,-28.9522 L 8.34595,-28.8674 L 8.94231,-28.7487
 L 9.49519,-28.5962 L 10.0046,-28.4097 L 10.4706,-28.1893 L 10.8931,-27.935 L 11.2772,-27.6472 L 11.6275,-27.3262
 L 11.944,-26.972 L 12.2268,-26.5847 L 12.4758,-26.1643 L 12.691,-25.7107 L 12.8724,-25.2239 L 13.0201,-24.704
 L 19.813,-25.627 L 19.5526,-26.7061 L 19.2227,-27.7061 L 18.8235,-28.6269 L 18.3548,-29.4685 L 17.8167,-30.2309
 L 17.2092,-30.9141 L 16.5323,-31.5181 L 15.7861,-32.043 L 14.9568,-32.4979 L 14.0307,-32.8922 L 13.0077,-33.2258
 L 11.8878,-33.4987 L 10.671,-33.711 L 9.35724,-33.8627 L 7.94659,-33.9537 L 6.43906,-33.984 L 4.86047,-33.9463
 L 3.37874,-33.8333 L 1.99385,-33.6449 L 0.705795,-33.3812 L -0.485397,-33.0422 L -1.57976,-32.6278 L -2.57727,-32.1381
 L -3.47795,-31.573 L -4.27693,-30.9373 L -4.96939,-30.2352 L -5.55531,-29.4667 L -6.0347,-28.6317 L -6.40756,-27.7304
 L -6.67389,-26.7627 L -6.83368,-25.7285 L -6.88695,-24.628 L -6.87971,-24.189 L -6.85802,-23.7627 L -6.82184,-23.3489
 L -6.77119,-22.9477 L -6.70609,-22.5592 L -6.62651,-22.1832 L -6.53247,-21.8198 L -6.42395,-21.469 L -6.30244,-21.1303
 L -6.16945,-20.8027 L -6.02495,-20.4863 L -5.86894,-20.181 L -5.70145,-19.8868 L -5.52245,-19.6037 L -5.33195,-19.3318
 L -5.12994,-19.071 L -4.91638,-18.8204 L -4.6917,-18.5791 L -4.45589,-18.347 L -4.20895,-18.1242 L -3.95088,-17.9108
 L -3.6817,-17.7066 L -3.40138,-17.5116 L -3.10995,-17.326 L -2.80852,-17.1479 L -2.4982,-16.9758 L -2.17902,-16.8096
 L -1.85095,-16.6492 L -1.51401,-16.4948 L -1.1682,-16.3463 L -0.813507,-16.2037 L -0.449951,-16.067 L -0.0460663,-15.9281
 L 0.429108,-15.7784 L 0.975571,-15.618 L 1.59331,-15.4467 L 2.28232,-15.2647 L 3.04262,-15.0719 L 3.87419,-14.8683
 L 4.77705,-14.654 L 5.81981,-14.4386 L 6.77461,-14.2312 L 7.64143,-14.0321 L 8.4203,-13.841 L 9.11119,-13.6581
 L 9.71411,-13.4832 L 10.2291,-13.3166 L 10.6561,-13.158 L 11.0283,-12.9989 L 11.379,-12.8302 L 11.7082,-12.6518
 L 12.0158,-12.4637 L 12.3019,-12.266 L 12.5665,-12.0587 L 12.8095,-11.8417 L 13.0311,-11.615 L 13.2289,-11.3757
 L 13.4003,-11.1208 L 13.5454,-10.8503 L 13.664,-10.5642 L 13.7564,-10.2626 L 13.8223,-9.94531 L 13.8619,-9.61244
 L 13.875,-9.26399 L 13.7603,-8.21797 L 13.4162,-7.31143 L 12.8427,-6.54436 L 12.0398,-5.91675 L 11.0075,-5.4286
 L 9.74574,-5.07993 L 8.25459,-4.87073 L 6.53406,-4.80099 L 5.67317,-4.81972 L 4.86055,-4.87587 L 4.09618,-4.96947
 L 3.38005,-5.10049 L 2.71217,-5.26897 L 2.09254,-5.47487 L 1.52118,-5.71822 L 0.998047,-5.99899 L 0.519714,-6.32153
 L 0.0821686,-6.68968 L -0.314545,-7.10341 L -0.670456,-7.56274 L -0.98555,-8.06766 L -1.25983,-8.61818 L -1.49329,-9.21429
 L -1.68594,-9.85599 L -8.45496,-8.73999 L -8.15288,-7.61923 L -7.76913,-6.57193 L -7.30374,-5.5981 L -6.7567,-4.69774
 L -6.12799,-3.87085 L -5.41763,-3.11743 L -4.62563,-2.43747 L -3.75195,-1.83099 L -2.79379,-1.29684 L -1.74883,-0.833923
 L -0.61705,-0.44223 L 0.601547,-0.12175 L 1.90695,0.127502 L 3.29918,0.305557 L 4.77821,0.412384 L 6.34406,0.447998
 z
M 40.1797,-28.057 L 51.0007,-28.057 L 51.0007,-33.472 L 22.3727,-33.472 L 22.3727,-28.057 L 33.1737,-28.057
 L 33.1737,-0 L 40.1797,-0 z
M 79.0423,-5.41499 L 61.0993,-5.41499 L 61.0993,-33.472 L 54.0933,-33.472 L 54.0933,-0 L 79.0423,-0
 z
" stroke="black" fill="black" stroke-width="0.5"/></svg>
