<?xml version="1.0" standalone="no"?>
<!DOCTYPE svg PUBLIC "-//W3C//DTD SVG 1.1//EN" "http://www.w3.org/Graphics/SVG/1.1/DTD/svg11.dtd">
<svg width="102" height="100" viewBox="-16 -100 102 100" xmlns="http://www.w3.org/2000/svg" version="1.1">
<title>OpenSCAD Model</title>
<path d="
M 5,-70 L 23,-70 L 23.2617,-70.0069 L 23.4707,-70.0178 L 23.9912,-70.0725 L 24.198,-70.1053
 L 24.71,-70.2141 L 24.9122,-70.2683 L 25.4099,-70.43 L 25.6053,-70.505 L 26.0833,-70.7178 L 26.2698,-70.8129
 L 26.7234,-71.0747 L 26.899,-71.1888 L 27.3222,-71.4963 L 27.4849,-71.628 L 27.8738,-71.9782 L 28.0218,-72.1262
 L 28.372,-72.5151 L 28.5037,-72.6778 L 28.8112,-73.101 L 28.9253,-73.2766 L 29.1871,-73.7302 L 29.2822,-73.9167
 L 29.495,-74.3947 L 29.57,-74.5901 L 29.7317,-75.0878 L 29.7859,-75.29 L 29.8947,-75.802 L 29.9275,-76.0088
 L 29.9822,-76.5293 L 29.9931,-76.7383 L 30,-77 L 30,-95 L 63,-95 L 63.2091,-94.989
 L 63.4158,-94.9563 L 63.618,-94.9021 L 63.8135,-94.8271 L 64,-94.7321 L 64.1756,-94.618 L 64.3383,-94.4863
 L 64.4863,-94.3383 L 64.618,-94.1756 L 64.7321,-94 L 64.8271,-93.8135 L 64.9021,-93.618 L 64.9563,-93.4158
 L 64.989,-93.2091 L 65,-93 L 65,-45 L 70,-45 L 70,-93 L 69.9931,-93.2617
 L 69.9822,-93.4707 L 69.9275,-93.9912 L 69.8947,-94.198 L 69.7859,-94.71 L 69.7317,-94.9122 L 69.57,-95.4099
 L 69.495,-95.6053 L 69.2822,-96.0833 L 69.1871,-96.2698 L 68.9253,-96.7234 L 68.8112,-96.899 L 68.5037,-97.3222
 L 68.372,-97.4849 L 68.0218,-97.8738 L 67.8738,-98.0218 L 67.4849,-98.372 L 67.3222,-98.5037 L 66.899,-98.8112
 L 66.7234,-98.9253 L 66.2698,-99.1871 L 66.0833,-99.2822 L 65.6053,-99.495 L 65.4099,-99.57 L 64.9122,-99.7317
 L 64.71,-99.7859 L 64.198,-99.8947 L 63.9912,-99.9275 L 63.4707,-99.9822 L 63.2617,-99.9931 L 63,-100
 L 25,-100 L 0,-75 L 0,-45 L 5,-45 z
M -5.25386,-8.55099 L 7.50514,-8.55099 L 10.4751,-0 L 17.4101,-0 L 5.24614,-33.472 L -3.01886,-33.472
 L -15.2309,-0 L -8.22386,-0 z
M -3.68587,-13.824 L -2.02274,-18.6733 L -0.787369,-22.2932 L -0.330078,-23.6422 L 0.0202637,-24.6838 L 0.263672,-25.4181
 L 0.400131,-25.845 L 0.636383,-26.6313 L 0.845642,-27.3506 L 0.970139,-27.793 L 1.11314,-28.316 L 1.61214,-26.677
 L 2.63414,-23.446 L 5.93713,-13.824 z
M 27.3349,-20.288 L 27.3304,-20.7918 L 27.3171,-21.412 L 27.2948,-22.1489 L 27.2636,-23.0022 L 27.2235,-23.9721
 L 27.1746,-25.0585 L 27.1167,-26.2615 L 27.0499,-27.581 L 29.5909,-18.672 L 35.6219,-0 L 40.6089,-0
 L 46.6399,-18.672 L 46.8556,-19.3622 L 47.0987,-20.1734 L 47.3693,-21.1056 L 47.6674,-22.1587 L 47.9928,-23.3329
 L 48.3457,-24.6279 L 48.7261,-26.044 L 49.1339,-27.581 L 48.9704,-23.4892 L 48.9265,-22.2941 L 48.914,-21.9091
 L 48.9005,-21.1492 L 48.8959,-20.288 L 48.8959,-0 L 55.1189,-0 L 55.1189,-33.472 L 45.7849,-33.472
 L 39.6349,-13.826 L 38.1399,-8.45699 L 36.9999,-12.947 L 36.4769,-14.752 L 30.4939,-33.472 L 21.1129,-33.472
 L 21.1129,-0 L 27.3349,-0 z
M 67.6862,-12.313 L 84.7982,-12.313 L 84.7982,-17.728 L 67.6862,-17.728 L 67.6862,-28.057 L 85.3442,-28.057
 L 85.3442,-33.472 L 60.6802,-33.472 L 60.6802,-0 L 67.6862,-0 z
" stroke="white" fill="white" stroke-width="0.5"/></svg>
