<?xml version="1.0" standalone="no"?>
<!DOCTYPE svg PUBLIC "-//W3C//DTD SVG 1.1//EN" "http://www.w3.org/Graphics/SVG/1.1/DTD/svg11.dtd">
<svg width="92" height="100" viewBox="-10 -100 92 100" xmlns="http://www.w3.org/2000/svg" version="1.1">
<title>OpenSCAD Model</title>
<path d="
M 5,-70 L 23,-70 L 23.2617,-70.0069 L 23.4707,-70.0178 L 23.9912,-70.0725 L 24.198,-70.1053
 L 24.71,-70.2141 L 24.9122,-70.2683 L 25.4099,-70.43 L 25.6053,-70.505 L 26.0833,-70.7178 L 26.2698,-70.8129
 L 26.7234,-71.0747 L 26.899,-71.1888 L 27.3222,-71.4963 L 27.4849,-71.628 L 27.8738,-71.9782 L 28.0218,-72.1262
 L 28.372,-72.5151 L 28.5037,-72.6778 L 28.8112,-73.101 L 28.9253,-73.2766 L 29.1871,-73.7302 L 29.2822,-73.9167
 L 29.495,-74.3947 L 29.57,-74.5901 L 29.7317,-75.0878 L 29.7859,-75.29 L 29.8947,-75.802 L 29.9275,-76.0088
 L 29.9822,-76.5293 L 29.9931,-76.7383 L 30,-77 L 30,-95 L 63,-95 L 63.2091,-94.989
 L 63.4158,-94.9563 L 63.618,-94.9021 L 63.8135,-94.8271 L 64,-94.7321 L 64.1756,-94.618 L 64.3383,-94.4863
 L 64.4863,-94.3383 L 64.618,-94.1756 L 64.7321,-94 L 64.8271,-93.8135 L 64.9021,-93.618 L 64.9563,-93.4158
 L 64.989,-93.2091 L 65,-93 L 65,-45 L 70,-45 L 70,-93 L 69.9931,-93.2617
 L 69.9822,-93.4707 L 69.9275,-93.9912 L 69.8947,-94.198 L 69.7859,-94.71 L 69.7317,-94.9122 L 69.57,-95.4099
 L 69.495,-95.6053 L 69.2822,-96.0833 L 69.1871,-96.2698 L 68.9253,-96.7234 L 68.8112,-96.899 L 68.5037,-97.3222
 L 68.372,-97.4849 L 68.0218,-97.8738 L 67.8738,-98.0218 L 67.4849,-98.372 L 67.3222,-98.5037 L 66.899,-98.8112
 L 66.7234,-98.9253 L 66.2698,-99.1871 L 66.0833,-99.2822 L 65.6053,-99.495 L 65.4099,-99.57 L 64.9122,-99.7317
 L 64.71,-99.7859 L 64.198,-99.8947 L 63.9912,-99.9275 L 63.4707,-99.9822 L 63.2617,-99.9931 L 63,-100
 L 25,-100 L 0,-75 L 0,-45 L 5,-45 z
M 5.47887,-0.0319214 L 6.62794,-0.127686 L 7.74324,-0.287292 L 8.82475,-0.510742 L 9.8725,-0.798035 L 10.8864,-1.14919
 L 11.8666,-1.56416 L 12.813,-2.043 L 13.7161,-2.58214 L 14.5666,-3.17805 L 15.3643,-3.83076 L 16.1093,-4.54024
 L 16.8015,-5.3065 L 17.4411,-6.12956 L 18.0279,-7.00938 L 18.562,-7.946 L 19.038,-8.93182 L 19.4506,-9.9588
 L 19.7997,-11.0269 L 20.0853,-12.1362 L 20.3074,-13.2867 L 20.4661,-14.4783 L 20.5613,-15.7111 L 20.593,-16.985
 L 20.5206,-18.917 L 20.3035,-20.7336 L 19.9415,-22.4346 L 19.4348,-24.0202 L 18.7832,-25.4904 L 17.9869,-26.8451
 L 17.0459,-28.0843 L 15.96,-29.208 L 14.7422,-30.2074 L 13.4049,-31.0735 L 11.9481,-31.8064 L 10.3718,-32.406
 L 8.67587,-32.8724 L 6.86044,-33.2055 L 4.92549,-33.4054 L 2.871,-33.472 L -9.245,-33.472 L -9.245,-0
 L 4.29601,-0 z
M -2.239,-5.41499 L -2.239,-28.057 L 2.72701,-28.057 L 3.99051,-28.0126 L 5.179,-27.8796 L 6.29251,-27.6578
 L 7.33101,-27.3472 L 8.29451,-26.948 L 9.18301,-26.4601 L 9.99651,-25.8834 L 10.735,-25.218 L 11.3922,-24.4683
 L 11.9618,-23.6388 L 12.4437,-22.7294 L 12.838,-21.7402 L 13.1447,-20.6712 L 13.3638,-19.5223 L 13.4952,-18.2936
 L 13.539,-16.985 L 13.4974,-15.6836 L 13.3726,-14.452 L 13.1647,-13.2901 L 12.8735,-12.198 L 12.4992,-11.1756
 L 12.0416,-10.223 L 11.5009,-9.34012 L 10.877,-8.52699 L 10.1828,-7.79762 L 9.43069,-7.1655 L 8.62068,-6.63062
 L 7.75276,-6.19299 L 6.82693,-5.85262 L 5.8432,-5.6095 L 4.80156,-5.46362 L 3.70201,-5.41499 z
M 38.0507,-13.327 L 46.4607,-0 L 53.8227,-0 L 42.6827,-17.603 L 52.8497,-33.472 L 45.4877,-33.472
 L 38.0507,-21.642 L 30.6137,-33.472 L 23.2037,-33.472 L 33.8227,-17.603 L 22.2307,-0 L 29.6407,-0
 z
M 63.7433,-12.313 L 80.8553,-12.313 L 80.8553,-17.728 L 63.7433,-17.728 L 63.7433,-28.057 L 81.4013,-28.057
 L 81.4013,-33.472 L 56.7374,-33.472 L 56.7374,-0 L 63.7433,-0 z
" stroke="white" fill="white" stroke-width="0.5"/></svg>
