<?xml version="1.0" standalone="no"?>
<!DOCTYPE svg PUBLIC "-//W3C//DTD SVG 1.1//EN" "http://www.w3.org/Graphics/SVG/1.1/DTD/svg11.dtd">
<svg width="93" height="101" viewBox="-11 -100 93 101" xmlns="http://www.w3.org/2000/svg" version="1.1">
<title>OpenSCAD Model</title>
<path d="
M 5,-70 L 23,-70 L 23.2617,-70.0069 L 23.4707,-70.0178 L 23.9912,-70.0725 L 24.198,-70.1053
 L 24.71,-70.2141 L 24.9122,-70.2683 L 25.4099,-70.43 L 25.6053,-70.505 L 26.0833,-70.7178 L 26.2698,-70.8129
 L 26.7234,-71.0747 L 26.899,-71.1888 L 27.3222,-71.4963 L 27.4849,-71.628 L 27.8738,-71.9782 L 28.0218,-72.1262
 L 28.372,-72.5151 L 28.5037,-72.6778 L 28.8112,-73.101 L 28.9253,-73.2766 L 29.1871,-73.7302 L 29.2822,-73.9167
 L 29.495,-74.3947 L 29.57,-74.5901 L 29.7317,-75.0878 L 29.7859,-75.29 L 29.8947,-75.802 L 29.9275,-76.0088
 L 29.9822,-76.5293 L 29.9931,-76.7383 L 30,-77 L 30,-95 L 63,-95 L 63.2091,-94.989
 L 63.4158,-94.9563 L 63.618,-94.9021 L 63.8135,-94.8271 L 64,-94.7321 L 64.1756,-94.618 L 64.3383,-94.4863
 L 64.4863,-94.3383 L 64.618,-94.1756 L 64.7321,-94 L 64.8271,-93.8135 L 64.9021,-93.618 L 64.9563,-93.4158
 L 64.989,-93.2091 L 65,-93 L 65,-45 L 70,-45 L 70,-93 L 69.9931,-93.2617
 L 69.9822,-93.4707 L 69.9275,-93.9912 L 69.8947,-94.198 L 69.7859,-94.71 L 69.7317,-94.9122 L 69.57,-95.4099
 L 69.495,-95.6053 L 69.2822,-96.0833 L 69.1871,-96.2698 L 68.9253,-96.7234 L 68.8112,-96.899 L 68.5037,-97.3222
 L 68.372,-97.4849 L 68.0218,-97.8738 L 67.8738,-98.0218 L 67.4849,-98.372 L 67.3222,-98.5037 L 66.899,-98.8112
 L 66.7234,-98.9253 L 66.2698,-99.1871 L 66.0833,-99.2822 L 65.6053,-99.495 L 65.4099,-99.57 L 64.9122,-99.7317
 L 64.71,-99.7859 L 64.198,-99.8947 L 63.9912,-99.9275 L 63.4707,-99.9822 L 63.2617,-99.9931 L 63,-100
 L 25,-100 L 0,-75 L 0,-45 L 5,-45 z
M 7.60271,0.415161 L 8.82466,0.316681 L 10.0066,0.152542 L 11.1485,-0.07724 L 12.2503,-0.372696 L 13.3122,-0.73381
 L 14.334,-1.16057 L 15.3157,-1.653 L 16.2496,-2.2076 L 17.1279,-2.82043 L 17.9504,-3.49147 L 18.7172,-4.22075
 L 19.4284,-5.00822 L 20.0838,-5.85393 L 20.6836,-6.75786 L 21.2277,-7.71999 L 21.7119,-8.73116 L 22.1316,-9.78162
 L 22.4867,-10.8714 L 22.7772,-12.0005 L 23.0032,-13.1689 L 23.1646,-14.3766 L 23.2614,-15.6236 L 23.2937,-16.91
 L 23.2238,-18.8457 L 23.014,-20.6752 L 22.6643,-22.3987 L 22.1747,-24.016 L 21.5453,-25.5272 L 20.776,-26.9322
 L 19.8668,-28.2312 L 18.8177,-29.424 L 17.6444,-30.4927 L 16.3624,-31.419 L 14.9716,-32.2027 L 13.4722,-32.844
 L 11.8641,-33.3427 L 10.1474,-33.699 L 8.32188,-33.9127 L 6.38773,-33.984 L 4.45375,-33.9135 L 2.62885,-33.702
 L 0.91301,-33.3495 L -0.693771,-32.856 L -2.1915,-32.2215 L -3.58015,-31.446 L -4.85974,-30.5295 L -6.03027,-29.472
 L -7.07652,-28.2887 L -7.98328,-26.9949 L -8.75052,-25.5905 L -9.37828,-24.0755 L -9.86652,-22.45 L -10.2153,-20.7139
 L -10.4245,-18.8672 L -10.4943,-16.91 L -10.4243,-14.9453 L -10.2145,-13.0879 L -9.86484,-11.3376 L -9.37527,-9.69449
 L -8.74583,-8.15858 L -7.97652,-6.72987 L -7.06734,-5.40834 L -6.01828,-4.19398 L -4.84604,-3.10602 L -3.56734,-2.16312
 L -2.18216,-1.36528 L -0.690521,-0.712494 L 0.907593,-0.204773 L 2.61217,0.157867 L 4.42322,0.375458 L 6.34073,0.447998
 z
M 5.23708,-5.11153 L 4.1931,-5.26012 L 3.20882,-5.50777 L 2.28423,-5.85449 L 1.41933,-6.30028 L 0.614105,-6.84512
 L -0.131424,-7.48903 L -0.817276,-8.23199 L -1.43204,-9.06102 L -1.96484,-9.96312 L -2.41566,-10.9383 L -2.78453,-11.9865
 L -3.07141,-13.1078 L -3.27634,-14.3021 L -3.39929,-15.5695 L -3.44028,-16.91 L -3.40021,-18.2378 L -3.28003,-19.4903
 L -3.07971,-20.6674 L -2.79927,-21.7692 L -2.43871,-22.7957 L -1.99802,-23.7468 L -1.47722,-24.6226 L -0.876266,-25.423
 L -0.201889,-26.1381 L 0.539291,-26.7578 L 1.34724,-27.2822 L 2.22197,-27.7112 L 3.1635,-28.045 L 4.17178,-28.2833
 L 5.24687,-28.4263 L 6.38873,-28.474 L 7.51372,-28.4259 L 8.57416,-28.2818 L 9.57008,-28.0416 L 10.5015,-27.7052
 L 11.3683,-27.2728 L 12.1707,-26.7443 L 12.9085,-26.1197 L 13.5817,-25.399 L 14.1827,-24.5937 L 14.7035,-23.7153
 L 15.1442,-22.7638 L 15.5047,-21.7392 L 15.7852,-20.6416 L 15.9855,-19.4708 L 16.1057,-18.2269 L 16.1457,-16.91
 L 16.1059,-15.5319 L 15.9862,-14.2347 L 15.7868,-13.0183 L 15.5077,-11.8827 L 15.1488,-10.828 L 14.7102,-9.85419
 L 14.1918,-8.96117 L 13.5937,-8.14899 L 12.9221,-7.42548 L 12.1834,-6.79843 L 11.3775,-6.26785 L 10.5045,-5.83374
 L 9.56427,-5.49611 L 8.55692,-5.25493 L 7.48239,-5.11023 L 6.34073,-5.062 z
M 34.717,-12.313 L 51.829,-12.313 L 51.829,-17.728 L 34.717,-17.728 L 34.717,-28.057 L 52.375,-28.057
 L 52.375,-33.472 L 27.711,-33.472 L 27.711,-0 L 34.717,-0 z
M 63.7316,-12.313 L 80.8436,-12.313 L 80.8436,-17.728 L 63.7316,-17.728 L 63.7316,-28.057 L 81.3896,-28.057
 L 81.3896,-33.472 L 56.7256,-33.472 L 56.7256,-0 L 63.7316,-0 z
" stroke="white" fill="white" stroke-width="0.5"/></svg>
