<?xml version="1.0" encoding="utf-8"?>
<!-- Generator: Adobe Illustrator 16.0.4, SVG Export Plug-In . SVG Version: 6.00 Build 0)  -->
<!DOCTYPE svg PUBLIC "-//W3C//DTD SVG 1.1//EN" "http://www.w3.org/Graphics/SVG/1.1/DTD/svg11.dtd">
<svg version="1.1" id="Capa_1" xmlns="http://www.w3.org/2000/svg" xmlns:xlink="http://www.w3.org/1999/xlink" x="0px" y="0px"
	 width="216px" height="146px" viewBox="0 0 216 146" enable-background="new 0 0 216 146" xml:space="preserve">
<g>
	<path d="M37.608,99.071c0.761,0,1.385-0.244,1.874-0.733l23.464-23.464c0.488-0.489,0.733-1.113,0.733-1.874
		s-0.245-1.385-0.733-1.874L39.482,47.662c-0.489-0.489-1.113-0.733-1.874-0.733c-0.706,0-1.317,0.257-1.833,0.773
		c-0.516,0.517-0.774,1.128-0.774,1.834v46.928c0,0.707,0.258,1.317,0.774,1.834C36.291,98.812,36.902,99.071,37.608,99.071z"/>
	<path d="M178.393,109.5H37.607c-0.706,0-1.317,0.257-1.833,0.773S35,111.4,35,112.107v15.643c0,0.706,0.258,1.316,0.774,1.833
		s1.127,0.774,1.833,0.774h140.786c0.707,0,1.317-0.258,1.834-0.774c0.516-0.517,0.773-1.127,0.773-1.833v-15.643
		c0-0.707-0.258-1.317-0.773-1.834C179.71,109.758,179.1,109.5,178.393,109.5z"/>
	<path d="M178.393,78.214H89.75c-0.706,0-1.317,0.259-1.833,0.774s-0.774,1.127-0.774,1.833v15.643c0,0.707,0.258,1.317,0.774,1.834
		c0.516,0.515,1.127,0.772,1.833,0.772h88.643c0.707,0,1.317-0.256,1.834-0.772c0.516-0.517,0.773-1.127,0.773-1.834V80.821
		c0-0.706-0.258-1.317-0.773-1.833C179.71,78.473,179.1,78.214,178.393,78.214z"/>
	<path d="M178.393,46.929H89.75c-0.706,0-1.317,0.257-1.833,0.773c-0.516,0.517-0.774,1.128-0.774,1.834v15.643
		c0,0.706,0.258,1.317,0.774,1.833c0.516,0.515,1.127,0.774,1.833,0.774h88.643c0.707,0,1.317-0.258,1.834-0.774
		c0.516-0.516,0.773-1.127,0.773-1.833V49.536c0-0.706-0.258-1.317-0.773-1.834C179.71,47.187,179.1,46.929,178.393,46.929z"/>
	<path d="M180.227,16.417c-0.517-0.515-1.127-0.774-1.834-0.774H37.607c-0.706,0-1.317,0.258-1.833,0.774S35,17.544,35,18.25v15.643
		c0,0.706,0.258,1.317,0.774,1.833s1.127,0.774,1.833,0.774h140.786c0.707,0,1.317-0.257,1.834-0.774
		c0.516-0.516,0.773-1.127,0.773-1.833V18.25C181,17.544,180.742,16.933,180.227,16.417z"/>
</g>
</svg>
