<?xml version="1.0" standalone="no"?>
<!DOCTYPE svg PUBLIC "-//W3C//DTD SVG 1.1//EN" "http://www.w3.org/Graphics/SVG/1.1/DTD/svg11.dtd">
<svg width="80" height="70" viewBox="0 -70 80 70" xmlns="http://www.w3.org/2000/svg" version="1.1">
<title>OpenSCAD Model</title>
<path d="
M 80,-70 L 0,-70 L 0,-60 L 80,-60 z
M 2.20906,-18.011 L 2.41582,-18.0437 L 2.61803,-18.0979 L 2.81348,-18.1729 L 3,-18.2679 L 3.17557,-18.382
 L 3.41422,-18.5858 L 18.4142,-33.5858 L 18.5543,-33.7414 L 18.6773,-33.9107 L 18.782,-34.092 L 18.8672,-34.2833
 L 18.9319,-34.4824 L 18.9754,-34.6871 L 18.9973,-34.8953 L 18.9973,-35.1047 L 18.9754,-35.3129 L 18.9319,-35.5176
 L 18.8672,-35.7167 L 18.782,-35.908 L 18.6773,-36.0893 L 18.5543,-36.2586 L 18.4142,-36.4142 L 3.41422,-51.4142
 L 3.25864,-51.5543 L 3.08928,-51.6773 L 2.90797,-51.782 L 2.71674,-51.8672 L 2.51764,-51.9319 L 2.31287,-51.9754
 L 2.10468,-51.9973 L 1.89532,-51.9973 L 1.68713,-51.9754 L 1.48236,-51.9319 L 1.28326,-51.8672 L 1.09203,-51.782
 L 0.910721,-51.6773 L 0.741364,-51.5543 L 0.585785,-51.4142 L 0.445709,-51.2586 L 0.322662,-51.0893 L 0.217987,-50.908
 L 0.132843,-50.7167 L 0.0681458,-50.5176 L 0.0246277,-50.3129 L 0,-50 L 0,-20 L 0.0109558,-19.7909
 L 0.0437012,-19.5842 L 0.0978851,-19.382 L 0.172913,-19.1865 L 0.267944,-19 L 0.381973,-18.8244 L 0.513718,-18.6617
 L 0.661743,-18.5137 L 0.824432,-18.382 L 1,-18.2679 L 1.18652,-18.1729 L 1.38197,-18.0979 L 1.58418,-18.0437
 L 1.79094,-18.011 L 2,-18 z
M 80,-50 L 30,-50 L 30,-40 L 80,-40 z
M 80,-30 L 30,-30 L 30,-20 L 80,-20 z
M 80,-10 L 0,-10 L 0,-0 L 80,-0 z
" stroke="white" fill="white" stroke-width="0.5"/></svg>
