<?xml version="1.0" encoding="utf-8"?>
<!-- Generator: Adobe Illustrator 16.0.0, SVG Export Plug-In . SVG Version: 6.00 Build 0)  -->
<!DOCTYPE svg PUBLIC "-//W3C//DTD SVG 1.1//EN" "http://www.w3.org/Graphics/SVG/1.1/DTD/svg11.dtd">
<svg version="1.1" id="Layer_1" xmlns="http://www.w3.org/2000/svg" xmlns:xlink="http://www.w3.org/1999/xlink" x="0px" y="0px"
	 width="100px" height="100px" viewBox="0 0 100 100" enable-background="new 0 0 100 100" xml:space="preserve">
<path fill="#020202" d="M98.37,61.368L81.062,94.123c-0.847,1.63-3.247,3.352-5.101,3.352L6.554,97.488
	c-1.466,0-2.872-0.582-3.908-1.618c-1.036-1.037-1.618-2.442-1.618-3.908l0.011-53.896c0-3.048,2.471-5.521,5.519-5.524l5.075-0.005
	v4.708H8.238c-0.665,0-1.303,0.264-1.773,0.734s-0.734,1.108-0.734,1.773l0.005,50.523c0,1.385,1.123,2.507,2.507,2.507h3.477
	L28.123,59.6c0.927-1.854,2.678-3.351,4.529-3.351h40.171l0.013-13.354c2.624,0.243,4.694,2.419,4.694,5.104v8.25h18.424
	C98.13,56.271,99.961,58.422,98.37,61.368z M14.833,76.078c-0.15-16.516,0-66.067,0-66.067c0-2.5,2.033-4.532,4.531-4.532h36.284
	c0.581,0,1.135,0.243,1.528,0.671l11.73,12.745c0.353,0.384,0.549,0.886,0.549,1.407v33.017H65.65V23.153
	c0-0.522-0.424-0.946-0.946-0.946h-8.979c-1.05,0-1.905-0.853-1.905-1.902V10.231c0-0.522-0.424-0.946-0.946-0.946H19.366
	c-0.4,0-0.726,0.326-0.726,0.726v61.914l-2.912,5.891C15.728,77.815,14.848,77.751,14.833,76.078z M57.63,18.403h5.652l-5.652-6.144
	V18.403z M59.691,26.083H24.623c-1.292,0-2.341,1.05-2.341,2.342c0,1.291,1.05,2.341,2.341,2.341h35.069
	c1.292,0,2.343-1.051,2.343-2.341C62.034,27.134,60.982,26.083,59.691,26.083z M62.034,42.061c0-1.291-1.051-2.34-2.343-2.34H24.623
	c-1.292,0-2.341,1.051-2.341,2.34c0,1.291,1.05,2.34,2.341,2.34h35.069C60.982,44.401,62.034,43.352,62.034,42.061z M22.281,55.79
	c0,1.291,1.05,2.339,2.341,2.339h0.841c1.48-4.124,5.149-4.68,5.149-4.68h-5.99C23.333,53.449,22.281,54.498,22.281,55.79z"/>
</svg>
