<?xml version="1.0" standalone="no"?>
<!DOCTYPE svg PUBLIC "-//W3C//DTD SVG 1.1//EN" "http://www.w3.org/Graphics/SVG/1.1/DTD/svg11.dtd">
<svg width="98" height="93" viewBox="0 -93 98 93" xmlns="http://www.w3.org/2000/svg" version="1.1">
<title>OpenSCAD Model</title>
<path d="
M 17.9125,-24.0192 L 17.9125,-69.525 L 31.7725,-69.525 L 31.974,-69.5303 L 32.135,-69.5387 L 32.5357,-69.5808
 L 32.6949,-69.606 L 33.0892,-69.6898 L 33.2449,-69.7316 L 33.6281,-69.8561 L 33.7786,-69.9139 L 34.1466,-70.0777
 L 34.2903,-70.1509 L 34.6395,-70.3525 L 34.7747,-70.4403 L 35.1006,-70.6771 L 35.2258,-70.7786 L 35.5253,-71.0482
 L 35.6393,-71.1622 L 35.9089,-71.4616 L 36.0104,-71.5869 L 36.2471,-71.9128 L 36.3349,-72.0479 L 36.5366,-72.3972
 L 36.6098,-72.5408 L 36.7736,-72.9089 L 36.8314,-73.0594 L 36.9559,-73.4426 L 36.9977,-73.5983 L 37.0815,-73.9926
 L 37.1067,-74.1518 L 37.1488,-74.5525 L 37.1572,-74.7135 L 37.1625,-74.915 L 37.1625,-88.775 L 62.5725,-88.775
 L 62.7335,-88.7666 L 62.8927,-88.7413 L 63.0484,-88.6996 L 63.1989,-88.6418 L 63.3425,-88.5687 L 63.4777,-88.4809
 L 63.603,-88.3794 L 63.7169,-88.2655 L 63.8184,-88.1402 L 63.9062,-88.005 L 63.9794,-87.8614 L 64.0371,-87.7109
 L 64.0788,-87.5552 L 64.104,-87.396 L 64.1125,-87.235 L 64.1125,-43.5 L 67.9625,-43.5 L 67.9625,-87.235
 L 67.9572,-87.4365 L 67.9488,-87.5975 L 67.9067,-87.9982 L 67.8814,-88.1574 L 67.7977,-88.5517 L 67.7559,-88.7074
 L 67.6314,-89.0906 L 67.5736,-89.2411 L 67.4098,-89.6091 L 67.3366,-89.7528 L 67.1349,-90.102 L 67.0471,-90.2372
 L 66.8104,-90.5631 L 66.7089,-90.6884 L 66.4393,-90.9878 L 66.3253,-91.1018 L 66.0258,-91.3714 L 65.9006,-91.4729
 L 65.5747,-91.7096 L 65.4395,-91.7974 L 65.0903,-91.9991 L 64.9466,-92.0723 L 64.5786,-92.2361 L 64.4281,-92.2939
 L 64.0449,-92.4184 L 63.8892,-92.4601 L 63.4949,-92.5439 L 63.3357,-92.5692 L 62.935,-92.6113 L 62.774,-92.6197
 L 62.5725,-92.625 L 33.3125,-92.625 L 14.0625,-73.375 L 14.0625,-21.015 L 14.0678,-20.8135 L 14.0762,-20.6525
 L 14.1183,-20.2518 L 14.1435,-20.0926 L 14.2273,-19.6983 L 14.2691,-19.5426 L 14.3936,-19.1594 L 14.4514,-19.0089
 L 14.6152,-18.6409 L 14.6884,-18.4972 L 14.89,-18.1479 L 14.9391,-18.0724 z
M 77.2091,-0.0109558 L 77.4158,-0.0437012 L 77.618,-0.0978851 L 77.8135,-0.172913 L 78,-0.267944 L 78.1756,-0.381973
 L 78.3383,-0.513718 L 78.4863,-0.661743 L 78.618,-0.824432 L 78.7321,-1 L 78.7888,-1.10558 L 97.5388,-38.6056
 L 97.6225,-38.7975 L 97.6857,-38.997 L 97.7277,-39.2021 L 97.748,-39.4105 L 97.7464,-39.6198 L 97.7229,-39.8279
 L 97.6779,-40.0323 L 97.6117,-40.2309 L 97.5251,-40.4215 L 97.419,-40.602 L 97.2947,-40.7704 L 97.1534,-40.9249
 L 96.9968,-41.0638 L 96.8265,-41.1856 L 96.6444,-41.2888 L 96.4525,-41.3725 L 96.253,-41.4357 L 96.0479,-41.4777
 L 95.75,-41.5 L 76.6875,-41.5 L 76.6875,-54.375 L 76.6765,-54.5841 L 76.6438,-54.7908 L 76.5896,-54.993
 L 76.5146,-55.1885 L 76.4196,-55.375 L 76.3055,-55.5506 L 76.1738,-55.7133 L 76.0258,-55.8613 L 75.8631,-55.993
 L 75.6875,-56.1071 L 75.501,-56.2021 L 75.3055,-56.2771 L 75.1033,-56.3313 L 74.8966,-56.364 L 74.6875,-56.375
 L 69.9621,-56.375 L 69.9623,-41.5 L 30.125,-41.5 L 29.9159,-41.489 L 29.7092,-41.4563 L 29.507,-41.4021
 L 29.3115,-41.3271 L 29.125,-41.2321 L 28.9494,-41.118 L 28.7867,-40.9863 L 28.6387,-40.8383 L 28.507,-40.6756
 L 28.3929,-40.5 L 28.3362,-40.3944 L 11.6389,-7 L 9,-7 L 8.79094,-7.01096 L 8.58418,-7.0437
 L 8.38197,-7.09789 L 8.18652,-7.17291 L 8,-7.26794 L 7.82443,-7.38197 L 7.66174,-7.51372 L 7.51372,-7.66174
 L 7.38197,-7.82443 L 7.26794,-8 L 7.17291,-8.18652 L 7.09789,-8.38197 L 7.0437,-8.58418 L 7.01096,-8.79094
 L 7,-9 L 7,-56.75 L 7.01096,-56.9591 L 7.0437,-57.1658 L 7.09789,-57.368 L 7.17291,-57.5635
 L 7.26794,-57.75 L 7.38197,-57.9256 L 7.51372,-58.0883 L 7.66174,-58.2363 L 7.82443,-58.368 L 8,-58.4821
 L 8.18652,-58.5771 L 8.38197,-58.6521 L 8.58418,-58.7063 L 8.79094,-58.739 L 9,-58.75 L 12.0627,-58.75
 L 12.0626,-65.75 L 2,-65.75 L 1.79094,-65.739 L 1.58418,-65.7063 L 1.38197,-65.6521 L 1.18652,-65.5771
 L 1,-65.4821 L 0.824432,-65.368 L 0.661743,-65.2363 L 0.513718,-65.0883 L 0.381973,-64.9256 L 0.267944,-64.75
 L 0.172913,-64.5635 L 0.0978851,-64.368 L 0.0437012,-64.1658 L 0.0109558,-63.9591 L 0,-63.75 L 0,-2
 L 0.0109558,-1.79094 L 0.0437012,-1.58418 L 0.0978851,-1.38197 L 0.172913,-1.18652 L 0.267944,-1 L 0.381973,-0.824432
 L 0.513718,-0.661743 L 0.661743,-0.513718 L 0.824432,-0.381973 L 1,-0.267944 L 1.18652,-0.172913 L 1.38197,-0.0978851
 L 1.58418,-0.0437012 L 1.79094,-0.0109558 L 2,-0 L 77,-0 z
" stroke="black" fill="black" stroke-width="0.5"/></svg>
