<?xml version="1.0" standalone="no"?>
<!DOCTYPE svg PUBLIC "-//W3C//DTD SVG 1.1//EN" "http://www.w3.org/Graphics/SVG/1.1/DTD/svg11.dtd">
<svg width="84" height="41" viewBox="-43 -41 84 41" xmlns="http://www.w3.org/2000/svg" version="1.1">
<title>OpenSCAD Model</title>
<path d="
M -20.399,-12.399 L -20.3187,-12.6082 L -18.8456,-15.4994 L -17.0784,-18.2205 L -15.0365,-20.7421 L -12.7421,-23.0365
 L -10.2205,-25.0784 L -7.49937,-26.8456 L -4.60823,-28.3187 L -1.57912,-29.4814 L 1.55505,-30.3212 L 4.75975,-30.8288
 L 7.99998,-30.9986 L 11.2402,-30.8288 L 14.4449,-30.3212 L 17.5791,-29.4814 L 20.6082,-28.3187 L 23.4994,-26.8456
 L 26.2205,-25.0784 L 28.7421,-23.0365 L 31.0365,-20.7421 L 33.0784,-18.2205 L 34.8456,-15.4994 L 36.3187,-12.6082
 L 37.4814,-9.57912 L 38.3212,-6.44493 L 38.7332,-3.84357 L 38.7428,-3.79208 L 38.7699,-3.69098 L 38.8074,-3.59326
 L 38.8549,-3.5 L 38.9119,-3.41222 L 38.9778,-3.33087 L 39.0518,-3.25685 L 39.1331,-3.19098 L 39.2209,-3.13397
 L 39.3142,-3.08646 L 39.4119,-3.04895 L 39.513,-3.02185 L 39.6164,-3.00548 L 39.7209,-3 L 39.7904,-3
 L 39.9468,-3.01231 L 40.0492,-3.03407 L 40.1487,-3.06642 L 40.2443,-3.10899 L 40.335,-3.16132 L 40.4197,-3.22285
 L 40.4975,-3.29289 L 40.5675,-3.37067 L 40.629,-3.45535 L 40.6814,-3.54601 L 40.7239,-3.64162 L 40.7563,-3.74117
 L 40.778,-3.84355 L 40.789,-3.94765 L 40.789,-4.05232 L 40.7795,-4.23346 L 40.7686,-4.33757 L 40.1136,-8.4729
 L 40.0918,-8.57529 L 39.0082,-12.6195 L 38.9758,-12.719 L 37.4754,-16.6278 L 37.4328,-16.7234 L 35.532,-20.454
 L 35.4797,-20.5446 L 33.1993,-24.056 L 33.1378,-24.1407 L 30.5029,-27.3945 L 30.4329,-27.4723 L 27.4723,-30.4329
 L 27.3945,-30.5029 L 24.1407,-33.1378 L 24.056,-33.1993 L 20.5446,-35.4797 L 20.454,-35.532 L 16.7234,-37.4328
 L 16.6278,-37.4754 L 12.719,-38.9758 L 12.6195,-39.0082 L 8.57529,-40.0918 L 8.4729,-40.1136 L 4.33757,-40.7686
 L 4.23347,-40.7795 L 0.0523376,-40.9986 L -0.0523376,-40.9986 L -4.23347,-40.7795 L -4.33757,-40.7686 L -8.4729,-40.1136
 L -8.57529,-40.0918 L -12.6195,-39.0082 L -12.719,-38.9758 L -16.6278,-37.4754 L -16.7234,-37.4328 L -20.454,-35.532
 L -20.5446,-35.4797 L -24.056,-33.1993 L -24.1407,-33.1378 L -27.3945,-30.5029 L -27.4723,-30.4329 L -30.4329,-27.4723
 L -30.5029,-27.3945 L -32.6917,-24.6917 L -43,-35 L -43,-0 L -8,-0 z
" stroke="white" fill="white" stroke-width="0.5"/></svg>
