<?xml version="1.0" encoding="iso-8859-1"?>
<!-- Generator: Adobe Illustrator 18.0.0, SVG Export Plug-In . SVG Version: 6.00 Build 0)  -->
<!DOCTYPE svg PUBLIC "-//W3C//DTD SVG 1.1//EN" "http://www.w3.org/Graphics/SVG/1.1/DTD/svg11.dtd">
<svg version="1.1" id="Capa_1" xmlns="http://www.w3.org/2000/svg" xmlns:xlink="http://www.w3.org/1999/xlink" x="0px" y="0px"
	 viewBox="0 0 76.089 75.441" style="enable-background:new 0 0 76.089 75.441;" xml:space="preserve">
<g>
	<path d="M74.776,66.301L53.917,45.489c0.188-0.282,0.328-0.75,0.469-1.36c2.203-3.703,3.565-7.734,3.984-12
		c0.097-0.984,0.141-2.015,0.141-3c0-3.234-0.54-6.476-1.641-9.656c-1.431-4.133-3.742-7.789-6.891-10.969
		C38.738-2.847,19.81-2.822,8.59,8.504c-3.732,3.767-6.265,8.16-7.594,13.172c-1.343,5.067-1.312,10.031,0,15.047
		s3.811,9.408,7.594,13.172c5.639,5.611,13.031,8.531,20.672,8.531c5.859,0,11.186-1.694,16.125-4.781l0.75-0.469l20.953,20.906
		c0.822,0.82,1.639,1.359,2.438,1.359h0.422c0.609,0,1.133-0.126,1.547-0.375c0.524-0.314,1.135-0.786,1.828-1.453
		c0.526-0.505,0.797-0.797,0.844-0.937c1.266-1.266,1.922-2.485,1.922-3.657C76.089,68.082,75.668,67.19,74.776,66.301z
		 M52.511,35.411c-1.1,4.119-3.188,7.734-6.281,10.828c-4.5,4.499-10.547,7.031-16.969,7.031c-6.562,0-12.177-2.403-17.015-7.031
		c-9.177-8.779-9.155-25.137,0-33.984c4.814-4.653,10.406-7.078,17.015-7.078c6.703,0,12.295,2.376,16.969,7.078
		c3.061,3.08,5.203,6.656,6.281,10.781C53.589,27.16,53.614,31.279,52.511,35.411z"/>
	<rect x="16.98" y="26.363" width="24.656" height="5.672"/>
</g>
<g>
</g>
<g>
</g>
<g>
</g>
<g>
</g>
<g>
</g>
<g>
</g>
<g>
</g>
<g>
</g>
<g>
</g>
<g>
</g>
<g>
</g>
<g>
</g>
<g>
</g>
<g>
</g>
<g>
</g>
</svg>
