<?xml version="1.0" standalone="no"?>
<!DOCTYPE svg PUBLIC "-//W3C//DTD SVG 1.1//EN" "http://www.w3.org/Graphics/SVG/1.1/DTD/svg11.dtd">
<svg width="112" height="112" viewBox="-40 -40 112 112" xmlns="http://www.w3.org/2000/svg" version="1.1">
<title>OpenSCAD Model</title>
<path d="
M 61.5934,71.4065 L 62.1053,71.2977 L 62.603,71.1359 L 63.0811,70.9231 L 63.5344,70.6614 L 63.9578,70.3538
 L 64.3467,70.0036 L 70.0036,64.3467 L 70.3538,63.9578 L 70.6614,63.5344 L 70.9231,63.0811 L 71.1359,62.603
 L 71.2977,62.1053 L 71.4065,61.5934 L 71.4612,61.0729 L 71.4612,60.5495 L 71.4065,60.029 L 71.2977,59.5171
 L 71.1359,59.0193 L 70.9231,58.5412 L 70.6614,58.088 L 70.3538,57.6646 L 70.0036,57.2756 L 33.8878,21.1599
 L 34.641,20 L 36.5418,16.2695 L 38.0423,12.3607 L 39.1259,8.31647 L 39.7809,4.18114 L 40,-0
 L 39.7809,-4.18114 L 39.1259,-8.31647 L 38.0423,-12.3607 L 36.5418,-16.2695 L 34.641,-20 L 32.3607,-23.5114
 L 29.7258,-26.7652 L 26.7652,-29.7258 L 23.5114,-32.3607 L 20,-34.641 L 16.2695,-36.5418 L 12.3607,-38.0423
 L 8.31647,-39.1259 L 4.18114,-39.7809 L 0,-40 L -4.18114,-39.7809 L -8.31647,-39.1259 L -12.3607,-38.0423
 L -16.2695,-36.5418 L -20,-34.641 L -23.5114,-32.3607 L -26.7652,-29.7258 L -29.7258,-26.7652 L -32.3607,-23.5114
 L -34.641,-20 L -36.5418,-16.2695 L -38.0423,-12.3607 L -39.1259,-8.31647 L -39.7809,-4.18114 L -40,-0
 L -39.7809,4.18114 L -39.1259,8.31647 L -38.0423,12.3607 L -36.5418,16.2695 L -34.641,20 L -32.3607,23.5114
 L -29.7258,26.7652 L -26.7652,29.7258 L -23.5114,32.3607 L -20,34.641 L -16.2695,36.5418 L -12.3607,38.0423
 L -8.31647,39.1259 L -4.18114,39.7809 L 0,40 L 4.18114,39.7809 L 8.31647,39.1259 L 12.3607,38.0423
 L 16.2695,36.5418 L 20,34.641 L 21.1599,33.8878 L 57.2756,70.0036 L 57.6646,70.3538 L 58.088,70.6614
 L 58.5412,70.9231 L 59.0193,71.1359 L 59.5171,71.2977 L 60.029,71.4065 L 60.5495,71.4612 L 61.0729,71.4612
 z
M -3.65849,34.8083 L -7.2769,34.2352 L -10.8156,33.287 L -14.2358,31.9741 L -17.5,30.3109 L -20.5725,28.3156
 L -23.4196,26.0101 L -26.0101,23.4196 L -28.3156,20.5725 L -30.3109,17.5 L -31.9741,14.2358 L -33.287,10.8156
 L -34.2352,7.2769 L -34.8083,3.65849 L -35,-0 L -34.8083,-3.65849 L -34.2352,-7.2769 L -33.287,-10.8156
 L -31.9741,-14.2358 L -30.3109,-17.5 L -28.3156,-20.5725 L -26.0101,-23.4196 L -23.4196,-26.0101 L -20.5725,-28.3156
 L -17.5,-30.3109 L -14.2358,-31.9741 L -10.8156,-33.287 L -7.2769,-34.2352 L -3.65849,-34.8083 L 0,-35
 L 3.65849,-34.8083 L 7.2769,-34.2352 L 10.8156,-33.287 L 14.2358,-31.9741 L 17.5,-30.3109 L 20.5725,-28.3156
 L 23.4196,-26.0101 L 26.0101,-23.4196 L 28.3156,-20.5725 L 30.3109,-17.5 L 31.9741,-14.2358 L 33.287,-10.8156
 L 34.2352,-7.2769 L 34.8083,-3.65849 L 35,-0 L 34.8083,3.65849 L 34.2352,7.2769 L 33.287,10.8156
 L 31.9741,14.2358 L 30.3109,17.5 L 28.3156,20.5725 L 26.0101,23.4196 L 23.4196,26.0101 L 20.5725,28.3156
 L 17.5,30.3109 L 14.2358,31.9741 L 10.8156,33.287 L 7.2769,34.2352 L 3.65849,34.8083 L 0,35
 z
M 17.5,-5 L -17.5,-5 L -17.5,5 L 17.5,5 z
" stroke="white" fill="white" stroke-width="0.5"/></svg>
