solid OpenSCAD_Model
  facet normal -0.9945219 0.104528464 0
    outer loop
      vertex -10 0 0
      vertex -10 0 10
      vertex -9.781476 2.0791168 10
    endloop
  endfacet
  facet normal -0.9945219 -0.104528464 0
    outer loop
      vertex -10 0 0
      vertex -9.781476 -2.0791168 0
      vertex -10 0 10
    endloop
  endfacet
  facet normal 0 0 -1
    outer loop
      vertex -10 0 0
      vertex -9.781476 2.0791168 0
      vertex 0 0 0
    endloop
  endfacet
  facet normal -0.9945219 0.104528464 5.0466713e-19
    outer loop
      vertex -10 0 0
      vertex -9.781476 2.0791168 10
      vertex -9.781476 2.0791168 0
    endloop
  endfacet
  facet normal 0 0 -1
    outer loop
      vertex -10 0 0
      vertex 0 0 0
      vertex -9.781476 -2.0791168 0
    endloop
  endfacet
  facet normal -0.9945219 -0.104528464 -5.0466713e-19
    outer loop
      vertex -10 0 10
      vertex -9.781476 -2.0791168 0
      vertex -9.781476 -2.0791168 10
    endloop
  endfacet
  facet normal 0 0 1
    outer loop
      vertex -10 0 10
      vertex -9.781476 -2.0791168 10
      vertex 0 0 10
    endloop
  endfacet
  facet normal 0 0 1
    outer loop
      vertex -10 0 10
      vertex 0 0 10
      vertex -9.781476 2.0791168 10
    endloop
  endfacet
  facet normal -0.95105654 -0.309017 0
    outer loop
      vertex -9.781476 -2.0791168 0
      vertex -9.135454 -4.0673666 0
      vertex -9.781476 -2.0791168 10
    endloop
  endfacet
  facet normal 0 0 -1
    outer loop
      vertex -9.781476 -2.0791168 0
      vertex 0 0 0
      vertex -9.135454 -4.0673666 0
    endloop
  endfacet
  facet normal -0.95105654 -0.309017 2.8840672e-18
    outer loop
      vertex -9.781476 -2.0791168 10
      vertex -9.135454 -4.0673666 0
      vertex -9.135454 -4.0673666 10
    endloop
  endfacet
  facet normal 0 0 1
    outer loop
      vertex -9.781476 -2.0791168 10
      vertex -9.135454 -4.0673666 10
      vertex 0 0 10
    endloop
  endfacet
  facet normal -0.95105654 0.309017 0
    outer loop
      vertex -9.781476 2.0791168 0
      vertex -9.781476 2.0791168 10
      vertex -9.135454 4.0673666 10
    endloop
  endfacet
  facet normal 0 0 -1
    outer loop
      vertex -9.781476 2.0791168 0
      vertex -9.135454 4.0673666 0
      vertex 0 0 0
    endloop
  endfacet
  facet normal -0.95105654 0.309017 -2.8840672e-18
    outer loop
      vertex -9.781476 2.0791168 0
      vertex -9.135454 4.0673666 10
      vertex -9.135454 4.0673666 0
    endloop
  endfacet
  facet normal 0 0 1
    outer loop
      vertex -9.781476 2.0791168 10
      vertex 0 0 10
      vertex -9.135454 4.0673666 10
    endloop
  endfacet
  facet normal -0.8660254 -0.5 0
    outer loop
      vertex -9.135454 -4.0673666 0
      vertex -8.09017 -5.8778524 0
      vertex -9.135454 -4.0673666 10
    endloop
  endfacet
  facet normal 0 0 -1
    outer loop
      vertex -9.135454 -4.0673666 0
      vertex 0 0 0
      vertex -8.09017 -5.8778524 0
    endloop
  endfacet
  facet normal -0.8660254 -0.5 8.567649e-19
    outer loop
      vertex -9.135454 -4.0673666 10
      vertex -8.09017 -5.8778524 0
      vertex -8.09017 -5.8778524 10
    endloop
  endfacet
  facet normal 0 0 1
    outer loop
      vertex -9.135454 -4.0673666 10
      vertex -8.09017 -5.8778524 10
      vertex 0 0 10
    endloop
  endfacet
  facet normal -0.8660254 0.5 0
    outer loop
      vertex -9.135454 4.0673666 0
      vertex -9.135454 4.0673666 10
      vertex -8.09017 5.8778524 10
    endloop
  endfacet
  facet normal 0 0 -1
    outer loop
      vertex -9.135454 4.0673666 0
      vertex -8.09017 5.8778524 0
      vertex 0 0 0
    endloop
  endfacet
  facet normal -0.8660254 0.5 -8.567649e-19
    outer loop
      vertex -9.135454 4.0673666 0
      vertex -8.09017 5.8778524 10
      vertex -8.09017 5.8778524 0
    endloop
  endfacet
  facet normal 0 0 1
    outer loop
      vertex -9.135454 4.0673666 10
      vertex 0 0 10
      vertex -8.09017 5.8778524 10
    endloop
  endfacet
  facet normal -0.7431448 -0.6691306 0
    outer loop
      vertex -8.09017 -5.8778524 0
      vertex -6.691306 -7.4314485 0
      vertex -8.09017 -5.8778524 10
    endloop
  endfacet
  facet normal 0 0 -1
    outer loop
      vertex -8.09017 -5.8778524 0
      vertex 0 0 0
      vertex -6.691306 -7.4314485 0
    endloop
  endfacet
  facet normal -0.7431448 -0.6691306 9.592661e-18
    outer loop
      vertex -8.09017 -5.8778524 10
      vertex -6.691306 -7.4314485 0
      vertex -6.691306 -7.4314485 10
    endloop
  endfacet
  facet normal 0 0 1
    outer loop
      vertex -8.09017 -5.8778524 10
      vertex -6.691306 -7.4314485 10
      vertex 0 0 10
    endloop
  endfacet
  facet normal -0.7431448 0.6691306 0
    outer loop
      vertex -8.09017 5.8778524 0
      vertex -8.09017 5.8778524 10
      vertex -6.691306 7.4314485 10
    endloop
  endfacet
  facet normal 0 0 -1
    outer loop
      vertex -8.09017 5.8778524 0
      vertex -6.691306 7.4314485 0
      vertex 0 0 0
    endloop
  endfacet
  facet normal -0.7431448 0.6691306 -9.592661e-18
    outer loop
      vertex -8.09017 5.8778524 0
      vertex -6.691306 7.4314485 10
      vertex -6.691306 7.4314485 0
    endloop
  endfacet
  facet normal 0 0 1
    outer loop
      vertex -8.09017 5.8778524 10
      vertex 0 0 10
      vertex -6.691306 7.4314485 10
    endloop
  endfacet
  facet normal -0.58778524 -0.809017 0
    outer loop
      vertex -6.691306 -7.4314485 0
      vertex -5 -8.6602545 0
      vertex -6.691306 -7.4314485 10
    endloop
  endfacet
  facet normal 0 0 -1
    outer loop
      vertex -6.691306 -7.4314485 0
      vertex 0 0 0
      vertex -5 -8.6602545 0
    endloop
  endfacet
  facet normal -0.58778524 -0.809017 7.028372e-18
    outer loop
      vertex -6.691306 -7.4314485 10
      vertex -5 -8.6602545 0
      vertex -5 -8.6602545 10
    endloop
  endfacet
  facet normal 0 0 1
    outer loop
      vertex -6.691306 -7.4314485 10
      vertex -5 -8.6602545 10
      vertex 0 0 10
    endloop
  endfacet
  facet normal -0.58778524 0.809017 0
    outer loop
      vertex -6.691306 7.4314485 0
      vertex -6.691306 7.4314485 10
      vertex -5 8.6602545 10
    endloop
  endfacet
  facet normal 0 0 -1
    outer loop
      vertex -6.691306 7.4314485 0
      vertex -5 8.6602545 0
      vertex 0 0 0
    endloop
  endfacet
  facet normal -0.58778524 0.809017 -7.028372e-18
    outer loop
      vertex -6.691306 7.4314485 0
      vertex -5 8.6602545 10
      vertex -5 8.6602545 0
    endloop
  endfacet
  facet normal 0 0 1
    outer loop
      vertex -6.691306 7.4314485 10
      vertex 0 0 10
      vertex -5 8.6602545 10
    endloop
  endfacet
  facet normal -0.40673664 -0.9135454 0
    outer loop
      vertex -5 -8.6602545 0
      vertex -3.09017 -9.510565 0
      vertex -5 -8.6602545 10
    endloop
  endfacet
  facet normal 0 0 -1
    outer loop
      vertex -5 -8.6602545 0
      vertex 0 0 0
      vertex -3.09017 -9.510565 0
    endloop
  endfacet
  facet normal -0.40673664 -0.9135454 6.9911e-19
    outer loop
      vertex -5 -8.6602545 10
      vertex -3.09017 -9.510565 0
      vertex -3.09017 -9.510565 10
    endloop
  endfacet
  facet normal 0 0 1
    outer loop
      vertex -5 -8.6602545 10
      vertex -3.09017 -9.510565 10
      vertex 0 0 10
    endloop
  endfacet
  facet normal -0.40673664 0.9135454 0
    outer loop
      vertex -5 8.6602545 0
      vertex -5 8.6602545 10
      vertex -3.09017 9.510565 10
    endloop
  endfacet
  facet normal 0 0 -1
    outer loop
      vertex -5 8.6602545 0
      vertex -3.09017 9.510565 0
      vertex 0 0 0
    endloop
  endfacet
  facet normal -0.40673664 0.9135454 -6.9911e-19
    outer loop
      vertex -5 8.6602545 0
      vertex -3.09017 9.510565 10
      vertex -3.09017 9.510565 0
    endloop
  endfacet
  facet normal 0 0 1
    outer loop
      vertex -5 8.6602545 10
      vertex 0 0 10
      vertex -3.09017 9.510565 10
    endloop
  endfacet
  facet normal -0.20791169 -0.9781476 0
    outer loop
      vertex -3.09017 -9.510565 0
      vertex -1.0452846 -9.945219 0
      vertex -3.09017 -9.510565 10
    endloop
  endfacet
  facet normal 0 0 -1
    outer loop
      vertex -3.09017 -9.510565 0
      vertex 0 0 0
      vertex -1.0452846 -9.945219 0
    endloop
  endfacet
  facet normal -0.20791169 -0.9781476 1.0259913e-18
    outer loop
      vertex -3.09017 -9.510565 10
      vertex -1.0452846 -9.945219 0
      vertex -1.0452846 -9.945219 10
    endloop
  endfacet
  facet normal 0 0 1
    outer loop
      vertex -3.09017 -9.510565 10
      vertex -1.0452846 -9.945219 10
      vertex 0 0 10
    endloop
  endfacet
  facet normal -0.20791169 0.9781476 0
    outer loop
      vertex -3.09017 9.510565 0
      vertex -3.09017 9.510565 10
      vertex -1.0452846 9.945219 10
    endloop
  endfacet
  facet normal 0 0 -1
    outer loop
      vertex -3.09017 9.510565 0
      vertex -1.0452846 9.945219 0
      vertex 0 0 0
    endloop
  endfacet
  facet normal -0.20791169 0.9781476 -1.0259913e-18
    outer loop
      vertex -3.09017 9.510565 0
      vertex -1.0452846 9.945219 10
      vertex -1.0452846 9.945219 0
    endloop
  endfacet
  facet normal 0 0 1
    outer loop
      vertex -3.09017 9.510565 10
      vertex 0 0 10
      vertex -1.0452846 9.945219 10
    endloop
  endfacet
  facet normal 0 0 -1
    outer loop
      vertex -1.0452846 -9.945219 0
      vertex 0 0 0
      vertex 1.0452846 -9.945219 0
    endloop
  endfacet
  facet normal 0 -1 0
    outer loop
      vertex -1.0452846 -9.945219 0
      vertex 1.0452846 -9.945219 0
      vertex -1.0452846 -9.945219 10
    endloop
  endfacet
  facet normal 0 -1 0
    outer loop
      vertex -1.0452846 -9.945219 10
      vertex 1.0452846 -9.945219 0
      vertex 1.0452846 -9.945219 10
    endloop
  endfacet
  facet normal 0 0 1
    outer loop
      vertex -1.0452846 -9.945219 10
      vertex 1.0452846 -9.945219 10
      vertex 0 0 10
    endloop
  endfacet
  facet normal 0 1 0
    outer loop
      vertex -1.0452846 9.945219 0
      vertex -1.0452846 9.945219 10
      vertex 1.0452846 9.945219 10
    endloop
  endfacet
  facet normal 0 0 -1
    outer loop
      vertex -1.0452846 9.945219 0
      vertex 1.0452846 9.945219 0
      vertex 0 0 0
    endloop
  endfacet
  facet normal 0 1 0
    outer loop
      vertex -1.0452846 9.945219 0
      vertex 1.0452846 9.945219 10
      vertex 1.0452846 9.945219 0
    endloop
  endfacet
  facet normal 0 0 1
    outer loop
      vertex -1.0452846 9.945219 10
      vertex 0 0 10
      vertex 1.0452846 9.945219 10
    endloop
  endfacet
  facet normal 0 0 -1
    outer loop
      vertex 0 0 0
      vertex 1.0452846 9.945219 0
      vertex 3.09017 9.510565 0
    endloop
  endfacet
  facet normal 0 0 -1
    outer loop
      vertex 0 0 0
      vertex 3.09017 -9.510565 0
      vertex 1.0452846 -9.945219 0
    endloop
  endfacet
  facet normal 0 0 -1
    outer loop
      vertex 0 0 0
      vertex 3.09017 9.510565 0
      vertex 5 8.6602545 0
    endloop
  endfacet
  facet normal 0 0 -1
    outer loop
      vertex 0 0 0
      vertex 5 -8.6602545 0
      vertex 3.09017 -9.510565 0
    endloop
  endfacet
  facet normal 0 0 -1
    outer loop
      vertex 0 0 0
      vertex 5 8.6602545 0
      vertex 6.691306 7.4314485 0
    endloop
  endfacet
  facet normal 0 0 -1
    outer loop
      vertex 0 0 0
      vertex 6.691306 -7.4314485 0
      vertex 5 -8.6602545 0
    endloop
  endfacet
  facet normal 0 0 -1
    outer loop
      vertex 0 0 0
      vertex 6.691306 7.4314485 0
      vertex 8.09017 5.8778524 0
    endloop
  endfacet
  facet normal 0 0 -1
    outer loop
      vertex 0 0 0
      vertex 8.09017 -5.8778524 0
      vertex 6.691306 -7.4314485 0
    endloop
  endfacet
  facet normal 0 0 -1
    outer loop
      vertex 0 0 0
      vertex 8.09017 5.8778524 0
      vertex 9.135454 4.0673666 0
    endloop
  endfacet
  facet normal 0 0 -1
    outer loop
      vertex 0 0 0
      vertex 9.135454 -4.0673666 0
      vertex 8.09017 -5.8778524 0
    endloop
  endfacet
  facet normal 0 0 -1
    outer loop
      vertex 0 0 0
      vertex 9.135454 4.0673666 0
      vertex 9.781476 2.0791168 0
    endloop
  endfacet
  facet normal 0 0 -1
    outer loop
      vertex 0 0 0
      vertex 9.781476 -2.0791168 0
      vertex 9.135454 -4.0673666 0
    endloop
  endfacet
  facet normal 0 0 -1
    outer loop
      vertex 0 0 0
      vertex 9.781476 2.0791168 0
      vertex 10 0 0
    endloop
  endfacet
  facet normal 0 0 -1
    outer loop
      vertex 0 0 0
      vertex 10 0 0
      vertex 9.781476 -2.0791168 0
    endloop
  endfacet
  facet normal 0 0 1
    outer loop
      vertex 0 0 10
      vertex 1.0452846 -9.945219 10
      vertex 3.09017 -9.510565 10
    endloop
  endfacet
  facet normal 0 0 1
    outer loop
      vertex 0 0 10
      vertex 3.09017 -9.510565 10
      vertex 5 -8.6602545 10
    endloop
  endfacet
  facet normal 0 0 1
    outer loop
      vertex 0 0 10
      vertex 3.09017 9.510565 10
      vertex 1.0452846 9.945219 10
    endloop
  endfacet
  facet normal 0 0 1
    outer loop
      vertex 0 0 10
      vertex 5 -8.6602545 10
      vertex 6.691306 -7.4314485 10
    endloop
  endfacet
  facet normal 0 0 1
    outer loop
      vertex 0 0 10
      vertex 5 8.6602545 10
      vertex 3.09017 9.510565 10
    endloop
  endfacet
  facet normal 0 0 1
    outer loop
      vertex 0 0 10
      vertex 6.691306 -7.4314485 10
      vertex 8.09017 -5.8778524 10
    endloop
  endfacet
  facet normal 0 0 1
    outer loop
      vertex 0 0 10
      vertex 6.691306 7.4314485 10
      vertex 5 8.6602545 10
    endloop
  endfacet
  facet normal 0 0 1
    outer loop
      vertex 0 0 10
      vertex 8.09017 -5.8778524 10
      vertex 9.135454 -4.0673666 10
    endloop
  endfacet
  facet normal 0 0 1
    outer loop
      vertex 0 0 10
      vertex 8.09017 5.8778524 10
      vertex 6.691306 7.4314485 10
    endloop
  endfacet
  facet normal 0 0 1
    outer loop
      vertex 0 0 10
      vertex 9.135454 -4.0673666 10
      vertex 9.781476 -2.0791168 10
    endloop
  endfacet
  facet normal 0 0 1
    outer loop
      vertex 0 0 10
      vertex 9.135454 4.0673666 10
      vertex 8.09017 5.8778524 10
    endloop
  endfacet
  facet normal 0 0 1
    outer loop
      vertex 0 0 10
      vertex 9.781476 -2.0791168 10
      vertex 10 0 10
    endloop
  endfacet
  facet normal 0 0 1
    outer loop
      vertex 0 0 10
      vertex 9.781476 2.0791168 10
      vertex 9.135454 4.0673666 10
    endloop
  endfacet
  facet normal 0 0 1
    outer loop
      vertex 0 0 10
      vertex 10 0 10
      vertex 9.781476 2.0791168 10
    endloop
  endfacet
  facet normal 0.20791169 -0.9781476 0
    outer loop
      vertex 1.0452846 -9.945219 0
      vertex 3.09017 -9.510565 0
      vertex 1.0452846 -9.945219 10
    endloop
  endfacet
  facet normal 0.20791169 -0.9781476 -1.0259913e-18
    outer loop
      vertex 1.0452846 -9.945219 10
      vertex 3.09017 -9.510565 0
      vertex 3.09017 -9.510565 10
    endloop
  endfacet
  facet normal 0.20791169 0.9781476 0
    outer loop
      vertex 1.0452846 9.945219 0
      vertex 1.0452846 9.945219 10
      vertex 3.09017 9.510565 10
    endloop
  endfacet
  facet normal 0.20791169 0.9781476 1.0259913e-18
    outer loop
      vertex 1.0452846 9.945219 0
      vertex 3.09017 9.510565 10
      vertex 3.09017 9.510565 0
    endloop
  endfacet
  facet normal 0.40673664 -0.9135454 0
    outer loop
      vertex 3.09017 -9.510565 0
      vertex 5 -8.6602545 0
      vertex 3.09017 -9.510565 10
    endloop
  endfacet
  facet normal 0.40673664 -0.9135454 -6.9911e-19
    outer loop
      vertex 3.09017 -9.510565 10
      vertex 5 -8.6602545 0
      vertex 5 -8.6602545 10
    endloop
  endfacet
  facet normal 0.40673664 0.9135454 0
    outer loop
      vertex 3.09017 9.510565 0
      vertex 3.09017 9.510565 10
      vertex 5 8.6602545 10
    endloop
  endfacet
  facet normal 0.40673664 0.9135454 6.9911e-19
    outer loop
      vertex 3.09017 9.510565 0
      vertex 5 8.6602545 10
      vertex 5 8.6602545 0
    endloop
  endfacet
  facet normal 0.58778524 -0.809017 0
    outer loop
      vertex 5 -8.6602545 0
      vertex 6.691306 -7.4314485 0
      vertex 5 -8.6602545 10
    endloop
  endfacet
  facet normal 0.58778524 -0.809017 -7.028372e-18
    outer loop
      vertex 5 -8.6602545 10
      vertex 6.691306 -7.4314485 0
      vertex 6.691306 -7.4314485 10
    endloop
  endfacet
  facet normal 0.58778524 0.809017 0
    outer loop
      vertex 5 8.6602545 0
      vertex 5 8.6602545 10
      vertex 6.691306 7.4314485 10
    endloop
  endfacet
  facet normal 0.58778524 0.809017 7.028372e-18
    outer loop
      vertex 5 8.6602545 0
      vertex 6.691306 7.4314485 10
      vertex 6.691306 7.4314485 0
    endloop
  endfacet
  facet normal 0.7431448 -0.6691306 0
    outer loop
      vertex 6.691306 -7.4314485 0
      vertex 8.09017 -5.8778524 0
      vertex 6.691306 -7.4314485 10
    endloop
  endfacet
  facet normal 0.7431448 -0.6691306 -9.592661e-18
    outer loop
      vertex 6.691306 -7.4314485 10
      vertex 8.09017 -5.8778524 0
      vertex 8.09017 -5.8778524 10
    endloop
  endfacet
  facet normal 0.7431448 0.6691306 0
    outer loop
      vertex 6.691306 7.4314485 0
      vertex 6.691306 7.4314485 10
      vertex 8.09017 5.8778524 10
    endloop
  endfacet
  facet normal 0.7431448 0.6691306 9.592661e-18
    outer loop
      vertex 6.691306 7.4314485 0
      vertex 8.09017 5.8778524 10
      vertex 8.09017 5.8778524 0
    endloop
  endfacet
  facet normal 0.8660254 -0.5 0
    outer loop
      vertex 8.09017 -5.8778524 0
      vertex 9.135454 -4.0673666 0
      vertex 8.09017 -5.8778524 10
    endloop
  endfacet
  facet normal 0.8660254 -0.5 -8.567649e-19
    outer loop
      vertex 8.09017 -5.8778524 10
      vertex 9.135454 -4.0673666 0
      vertex 9.135454 -4.0673666 10
    endloop
  endfacet
  facet normal 0.8660254 0.5 0
    outer loop
      vertex 8.09017 5.8778524 0
      vertex 8.09017 5.8778524 10
      vertex 9.135454 4.0673666 10
    endloop
  endfacet
  facet normal 0.8660254 0.5 8.567649e-19
    outer loop
      vertex 8.09017 5.8778524 0
      vertex 9.135454 4.0673666 10
      vertex 9.135454 4.0673666 0
    endloop
  endfacet
  facet normal 0.95105654 -0.309017 0
    outer loop
      vertex 9.135454 -4.0673666 0
      vertex 9.781476 -2.0791168 0
      vertex 9.135454 -4.0673666 10
    endloop
  endfacet
  facet normal 0.95105654 -0.309017 -2.8840672e-18
    outer loop
      vertex 9.135454 -4.0673666 10
      vertex 9.781476 -2.0791168 0
      vertex 9.781476 -2.0791168 10
    endloop
  endfacet
  facet normal 0.95105654 0.309017 0
    outer loop
      vertex 9.135454 4.0673666 0
      vertex 9.135454 4.0673666 10
      vertex 9.781476 2.0791168 10
    endloop
  endfacet
  facet normal 0.95105654 0.309017 2.8840672e-18
    outer loop
      vertex 9.135454 4.0673666 0
      vertex 9.781476 2.0791168 10
      vertex 9.781476 2.0791168 0
    endloop
  endfacet
  facet normal 0.9945219 -0.104528464 0
    outer loop
      vertex 9.781476 -2.0791168 0
      vertex 10 0 0
      vertex 9.781476 -2.0791168 10
    endloop
  endfacet
  facet normal 0.9945219 -0.104528464 5.0466713e-19
    outer loop
      vertex 9.781476 -2.0791168 10
      vertex 10 0 0
      vertex 10 0 10
    endloop
  endfacet
  facet normal 0.9945219 0.104528464 0
    outer loop
      vertex 9.781476 2.0791168 0
      vertex 9.781476 2.0791168 10
      vertex 10 0 10
    endloop
  endfacet
  facet normal 0.9945219 0.104528464 -5.0466713e-19
    outer loop
      vertex 9.781476 2.0791168 0
      vertex 10 0 10
      vertex 10 0 0
    endloop
  endfacet
endsolid OpenSCAD_Model
