solid OpenSCAD_Model
  facet normal -0.705162 -0.074115515 0.705162
    outer loop
      vertex -14.142136 0 0
      vertex -13.8330965 -2.9403152 0
      vertex -7.071068 0 7.071068
    endloop
  endfacet
  facet normal -0.705162 0.074115515 -0.705162
    outer loop
      vertex -14.142136 0 0
      vertex -13.8330965 2.9403152 0
      vertex -7.071068 0 -7.071068
    endloop
  endfacet
  facet normal -0.705162 -0.074115515 -0.705162
    outer loop
      vertex -14.142136 0 0
      vertex -7.071068 0 -7.071068
      vertex -6.9165483 -1.4701576 -7.071068
    endloop
  endfacet
  facet normal -0.705162 0.074115515 0.705162
    outer loop
      vertex -14.142136 0 0
      vertex -7.071068 0 7.071068
      vertex -6.9165483 1.4701576 7.071068
    endloop
  endfacet
  facet normal -0.705162 -0.074115515 -0.705162
    outer loop
      vertex -14.142136 0 0
      vertex -6.9165483 -1.4701576 -7.071068
      vertex -13.8330965 -2.9403152 0
    endloop
  endfacet
  facet normal -0.705162 0.074115515 0.705162
    outer loop
      vertex -14.142136 0 0
      vertex -6.9165483 1.4701576 7.071068
      vertex -13.8330965 2.9403152 0
    endloop
  endfacet
  facet normal -0.67434305 -0.21910733 0.705162
    outer loop
      vertex -13.8330965 -2.9403152 0
      vertex -12.919484 -5.752125 0
      vertex -6.9165483 -1.4701576 7.071068
    endloop
  endfacet
  facet normal -0.67434305 -0.21910733 -0.705162
    outer loop
      vertex -13.8330965 -2.9403152 0
      vertex -6.9165483 -1.4701576 -7.071068
      vertex -6.459742 -2.8760624 -7.071068
    endloop
  endfacet
  facet normal -0.705162 -0.074115515 0.705162
    outer loop
      vertex -13.8330965 -2.9403152 0
      vertex -6.9165483 -1.4701576 7.071068
      vertex -7.071068 0 7.071068
    endloop
  endfacet
  facet normal -0.67434305 -0.21910733 -0.705162
    outer loop
      vertex -13.8330965 -2.9403152 0
      vertex -6.459742 -2.8760624 -7.071068
      vertex -12.919484 -5.752125 0
    endloop
  endfacet
  facet normal -0.67434305 0.21910733 -0.705162
    outer loop
      vertex -13.8330965 2.9403152 0
      vertex -12.919484 5.752125 0
      vertex -6.9165483 1.4701576 -7.071068
    endloop
  endfacet
  facet normal -0.705162 0.074115515 -0.705162
    outer loop
      vertex -13.8330965 2.9403152 0
      vertex -6.9165483 1.4701576 -7.071068
      vertex -7.071068 0 -7.071068
    endloop
  endfacet
  facet normal -0.67434305 0.21910733 0.705162
    outer loop
      vertex -13.8330965 2.9403152 0
      vertex -6.9165483 1.4701576 7.071068
      vertex -6.459742 2.8760624 7.071068
    endloop
  endfacet
  facet normal -0.67434305 0.21910733 0.705162
    outer loop
      vertex -13.8330965 2.9403152 0
      vertex -6.459742 2.8760624 7.071068
      vertex -12.919484 5.752125 0
    endloop
  endfacet
  facet normal -0.61405206 -0.35452312 0.705162
    outer loop
      vertex -12.919484 -5.752125 0
      vertex -11.441228 -8.312539 0
      vertex -6.459742 -2.8760624 7.071068
    endloop
  endfacet
  facet normal -0.61405206 -0.35452312 -0.705162
    outer loop
      vertex -12.919484 -5.752125 0
      vertex -6.459742 -2.8760624 -7.071068
      vertex -5.720614 -4.1562696 -7.071068
    endloop
  endfacet
  facet normal -0.67434305 -0.21910733 0.705162
    outer loop
      vertex -12.919484 -5.752125 0
      vertex -6.459742 -2.8760624 7.071068
      vertex -6.9165483 -1.4701576 7.071068
    endloop
  endfacet
  facet normal -0.61405206 -0.35452312 -0.705162
    outer loop
      vertex -12.919484 -5.752125 0
      vertex -5.720614 -4.1562696 -7.071068
      vertex -11.441228 -8.312539 0
    endloop
  endfacet
  facet normal -0.61405206 0.35452312 -0.705162
    outer loop
      vertex -12.919484 5.752125 0
      vertex -11.441228 8.312539 0
      vertex -6.459742 2.8760624 -7.071068
    endloop
  endfacet
  facet normal -0.67434305 0.21910733 -0.705162
    outer loop
      vertex -12.919484 5.752125 0
      vertex -6.459742 2.8760624 -7.071068
      vertex -6.9165483 1.4701576 -7.071068
    endloop
  endfacet
  facet normal -0.61405206 0.35452312 0.705162
    outer loop
      vertex -12.919484 5.752125 0
      vertex -6.459742 2.8760624 7.071068
      vertex -5.720614 4.1562696 7.071068
    endloop
  endfacet
  facet normal -0.61405206 0.35452312 0.705162
    outer loop
      vertex -12.919484 5.752125 0
      vertex -5.720614 4.1562696 7.071068
      vertex -11.441228 8.312539 0
    endloop
  endfacet
  facet normal -0.526924 -0.47444454 0.705162
    outer loop
      vertex -11.441228 -8.312539 0
      vertex -9.462935 -10.509655 0
      vertex -5.720614 -4.1562696 7.071068
    endloop
  endfacet
  facet normal -0.526924 -0.47444454 -0.705162
    outer loop
      vertex -11.441228 -8.312539 0
      vertex -5.720614 -4.1562696 -7.071068
      vertex -4.7314677 -5.2548275 -7.071068
    endloop
  endfacet
  facet normal -0.61405206 -0.35452312 0.705162
    outer loop
      vertex -11.441228 -8.312539 0
      vertex -5.720614 -4.1562696 7.071068
      vertex -6.459742 -2.8760624 7.071068
    endloop
  endfacet
  facet normal -0.526924 -0.47444454 -0.705162
    outer loop
      vertex -11.441228 -8.312539 0
      vertex -4.7314677 -5.2548275 -7.071068
      vertex -9.462935 -10.509655 0
    endloop
  endfacet
  facet normal -0.526924 0.47444454 -0.705162
    outer loop
      vertex -11.441228 8.312539 0
      vertex -9.462935 10.509655 0
      vertex -5.720614 4.1562696 -7.071068
    endloop
  endfacet
  facet normal -0.61405206 0.35452312 -0.705162
    outer loop
      vertex -11.441228 8.312539 0
      vertex -5.720614 4.1562696 -7.071068
      vertex -6.459742 2.8760624 -7.071068
    endloop
  endfacet
  facet normal -0.526924 0.47444454 0.705162
    outer loop
      vertex -11.441228 8.312539 0
      vertex -5.720614 4.1562696 7.071068
      vertex -4.7314677 5.2548275 7.071068
    endloop
  endfacet
  facet normal -0.526924 0.47444454 0.705162
    outer loop
      vertex -11.441228 8.312539 0
      vertex -4.7314677 5.2548275 7.071068
      vertex -9.462935 10.509655 0
    endloop
  endfacet
  facet normal -0.4167669 -0.57363045 0.705162
    outer loop
      vertex -9.462935 -10.509655 0
      vertex -7.071068 -12.247449 0
      vertex -4.7314677 -5.2548275 7.071068
    endloop
  endfacet
  facet normal -0.4167669 -0.57363045 -0.705162
    outer loop
      vertex -9.462935 -10.509655 0
      vertex -4.7314677 -5.2548275 -7.071068
      vertex -3.535534 -6.1237245 -7.071068
    endloop
  endfacet
  facet normal -0.526924 -0.47444454 0.705162
    outer loop
      vertex -9.462935 -10.509655 0
      vertex -4.7314677 -5.2548275 7.071068
      vertex -5.720614 -4.1562696 7.071068
    endloop
  endfacet
  facet normal -0.4167669 -0.57363045 -0.705162
    outer loop
      vertex -9.462935 -10.509655 0
      vertex -3.535534 -6.1237245 -7.071068
      vertex -7.071068 -12.247449 0
    endloop
  endfacet
  facet normal -0.4167669 0.57363045 -0.705162
    outer loop
      vertex -9.462935 10.509655 0
      vertex -7.071068 12.247449 0
      vertex -4.7314677 5.2548275 -7.071068
    endloop
  endfacet
  facet normal -0.526924 0.47444454 -0.705162
    outer loop
      vertex -9.462935 10.509655 0
      vertex -4.7314677 5.2548275 -7.071068
      vertex -5.720614 4.1562696 -7.071068
    endloop
  endfacet
  facet normal -0.4167669 0.57363045 0.705162
    outer loop
      vertex -9.462935 10.509655 0
      vertex -4.7314677 5.2548275 7.071068
      vertex -3.535534 6.1237245 7.071068
    endloop
  endfacet
  facet normal -0.4167669 0.57363045 0.705162
    outer loop
      vertex -9.462935 10.509655 0
      vertex -3.535534 6.1237245 7.071068
      vertex -7.071068 12.247449 0
    endloop
  endfacet
  facet normal -0.28839508 -0.64774597 0.705162
    outer loop
      vertex -7.071068 -12.247449 0
      vertex -4.37016 -13.44997 0
      vertex -3.535534 -6.1237245 7.071068
    endloop
  endfacet
  facet normal -0.28839508 -0.64774597 -0.705162
    outer loop
      vertex -7.071068 -12.247449 0
      vertex -3.535534 -6.1237245 -7.071068
      vertex -2.18508 -6.724985 -7.071068
    endloop
  endfacet
  facet normal -0.4167669 -0.57363045 0.705162
    outer loop
      vertex -7.071068 -12.247449 0
      vertex -3.535534 -6.1237245 7.071068
      vertex -4.7314677 -5.2548275 7.071068
    endloop
  endfacet
  facet normal -0.28839508 -0.64774597 -0.705162
    outer loop
      vertex -7.071068 -12.247449 0
      vertex -2.18508 -6.724985 -7.071068
      vertex -4.37016 -13.44997 0
    endloop
  endfacet
  facet normal 0.705162 -0.074115515 -0.705162
    outer loop
      vertex -7.071068 0 -7.071068
      vertex -6.9165483 1.4701576 -7.071068
      vertex 0 0 0
    endloop
  endfacet
  facet normal 0.705162 0.074115515 -0.705162
    outer loop
      vertex -7.071068 0 -7.071068
      vertex 0 0 0
      vertex -6.9165483 -1.4701576 -7.071068
    endloop
  endfacet
  facet normal 0.705162 0.074115515 0.705162
    outer loop
      vertex -7.071068 0 7.071068
      vertex -6.9165483 -1.4701576 7.071068
      vertex 0 0 0
    endloop
  endfacet
  facet normal 0.705162 -0.074115515 0.705162
    outer loop
      vertex -7.071068 0 7.071068
      vertex 0 0 0
      vertex -6.9165483 1.4701576 7.071068
    endloop
  endfacet
  facet normal -0.28839508 0.64774597 -0.705162
    outer loop
      vertex -7.071068 12.247449 0
      vertex -4.37016 13.44997 0
      vertex -3.535534 6.1237245 -7.071068
    endloop
  endfacet
  facet normal -0.4167669 0.57363045 -0.705162
    outer loop
      vertex -7.071068 12.247449 0
      vertex -3.535534 6.1237245 -7.071068
      vertex -4.7314677 5.2548275 -7.071068
    endloop
  endfacet
  facet normal -0.28839508 0.64774597 0.705162
    outer loop
      vertex -7.071068 12.247449 0
      vertex -3.535534 6.1237245 7.071068
      vertex -2.18508 6.724985 7.071068
    endloop
  endfacet
  facet normal -0.28839508 0.64774597 0.705162
    outer loop
      vertex -7.071068 12.247449 0
      vertex -2.18508 6.724985 7.071068
      vertex -4.37016 13.44997 0
    endloop
  endfacet
  facet normal 0.67434305 0.21910733 -0.705162
    outer loop
      vertex -6.9165483 -1.4701576 -7.071068
      vertex 0 0 0
      vertex -6.459742 -2.8760624 -7.071068
    endloop
  endfacet
  facet normal 0.67434305 0.21910733 0.705162
    outer loop
      vertex -6.9165483 -1.4701576 7.071068
      vertex -6.459742 -2.8760624 7.071068
      vertex 0 0 0
    endloop
  endfacet
  facet normal 0.67434305 -0.21910733 -0.705162
    outer loop
      vertex -6.9165483 1.4701576 -7.071068
      vertex -6.459742 2.8760624 -7.071068
      vertex 0 0 0
    endloop
  endfacet
  facet normal 0.67434305 -0.21910733 0.705162
    outer loop
      vertex -6.9165483 1.4701576 7.071068
      vertex 0 0 0
      vertex -6.459742 2.8760624 7.071068
    endloop
  endfacet
  facet normal 0.61405206 0.35452312 -0.705162
    outer loop
      vertex -6.459742 -2.8760624 -7.071068
      vertex 0 0 0
      vertex -5.720614 -4.1562696 -7.071068
    endloop
  endfacet
  facet normal 0.61405206 0.35452312 0.705162
    outer loop
      vertex -6.459742 -2.8760624 7.071068
      vertex -5.720614 -4.1562696 7.071068
      vertex 0 0 0
    endloop
  endfacet
  facet normal 0.61405206 -0.35452312 -0.705162
    outer loop
      vertex -6.459742 2.8760624 -7.071068
      vertex -5.720614 4.1562696 -7.071068
      vertex 0 0 0
    endloop
  endfacet
  facet normal 0.61405206 -0.35452312 0.705162
    outer loop
      vertex -6.459742 2.8760624 7.071068
      vertex 0 0 0
      vertex -5.720614 4.1562696 7.071068
    endloop
  endfacet
  facet normal 0.526924 0.47444454 -0.705162
    outer loop
      vertex -5.720614 -4.1562696 -7.071068
      vertex 0 0 0
      vertex -4.7314677 -5.2548275 -7.071068
    endloop
  endfacet
  facet normal 0.526924 0.47444454 0.705162
    outer loop
      vertex -5.720614 -4.1562696 7.071068
      vertex -4.7314677 -5.2548275 7.071068
      vertex 0 0 0
    endloop
  endfacet
  facet normal 0.526924 -0.47444454 -0.705162
    outer loop
      vertex -5.720614 4.1562696 -7.071068
      vertex -4.7314677 5.2548275 -7.071068
      vertex 0 0 0
    endloop
  endfacet
  facet normal 0.526924 -0.47444454 0.705162
    outer loop
      vertex -5.720614 4.1562696 7.071068
      vertex 0 0 0
      vertex -4.7314677 5.2548275 7.071068
    endloop
  endfacet
  facet normal 0.4167669 0.57363045 -0.705162
    outer loop
      vertex -4.7314677 -5.2548275 -7.071068
      vertex 0 0 0
      vertex -3.535534 -6.1237245 -7.071068
    endloop
  endfacet
  facet normal 0.4167669 0.57363045 0.705162
    outer loop
      vertex -4.7314677 -5.2548275 7.071068
      vertex -3.535534 -6.1237245 7.071068
      vertex 0 0 0
    endloop
  endfacet
  facet normal 0.4167669 -0.57363045 -0.705162
    outer loop
      vertex -4.7314677 5.2548275 -7.071068
      vertex -3.535534 6.1237245 -7.071068
      vertex 0 0 0
    endloop
  endfacet
  facet normal 0.4167669 -0.57363045 0.705162
    outer loop
      vertex -4.7314677 5.2548275 7.071068
      vertex 0 0 0
      vertex -3.535534 6.1237245 7.071068
    endloop
  endfacet
  facet normal -0.147419 -0.69355184 -0.705162
    outer loop
      vertex -4.37016 -13.44997 0
      vertex -2.18508 -6.724985 -7.071068
      vertex -0.7391279 -7.032332 -7.071068
    endloop
  endfacet
  facet normal -0.28839508 -0.64774597 0.705162
    outer loop
      vertex -4.37016 -13.44997 0
      vertex -2.18508 -6.724985 7.071068
      vertex -3.535534 -6.1237245 7.071068
    endloop
  endfacet
  facet normal -0.147419 -0.69355184 0.705162
    outer loop
      vertex -4.37016 -13.44997 0
      vertex -1.4782557 -14.064664 0
      vertex -2.18508 -6.724985 7.071068
    endloop
  endfacet
  facet normal -0.147419 -0.69355184 -0.705162
    outer loop
      vertex -4.37016 -13.44997 0
      vertex -0.7391279 -7.032332 -7.071068
      vertex -1.4782557 -14.064664 0
    endloop
  endfacet
  facet normal -0.28839508 0.64774597 -0.705162
    outer loop
      vertex -4.37016 13.44997 0
      vertex -2.18508 6.724985 -7.071068
      vertex -3.535534 6.1237245 -7.071068
    endloop
  endfacet
  facet normal -0.147419 0.69355184 0.705162
    outer loop
      vertex -4.37016 13.44997 0
      vertex -2.18508 6.724985 7.071068
      vertex -0.7391279 7.032332 7.071068
    endloop
  endfacet
  facet normal -0.147419 0.69355184 -0.705162
    outer loop
      vertex -4.37016 13.44997 0
      vertex -1.4782557 14.064664 0
      vertex -2.18508 6.724985 -7.071068
    endloop
  endfacet
  facet normal -0.147419 0.69355184 0.705162
    outer loop
      vertex -4.37016 13.44997 0
      vertex -0.7391279 7.032332 7.071068
      vertex -1.4782557 14.064664 0
    endloop
  endfacet
  facet normal 0.28839508 0.64774597 -0.705162
    outer loop
      vertex -3.535534 -6.1237245 -7.071068
      vertex 0 0 0
      vertex -2.18508 -6.724985 -7.071068
    endloop
  endfacet
  facet normal 0.28839508 0.64774597 0.705162
    outer loop
      vertex -3.535534 -6.1237245 7.071068
      vertex -2.18508 -6.724985 7.071068
      vertex 0 0 0
    endloop
  endfacet
  facet normal 0.28839508 -0.64774597 -0.705162
    outer loop
      vertex -3.535534 6.1237245 -7.071068
      vertex -2.18508 6.724985 -7.071068
      vertex 0 0 0
    endloop
  endfacet
  facet normal 0.28839508 -0.64774597 0.705162
    outer loop
      vertex -3.535534 6.1237245 7.071068
      vertex 0 0 0
      vertex -2.18508 6.724985 7.071068
    endloop
  endfacet
  facet normal 0.147419 0.69355184 -0.705162
    outer loop
      vertex -2.18508 -6.724985 -7.071068
      vertex 0 0 0
      vertex -0.7391279 -7.032332 -7.071068
    endloop
  endfacet
  facet normal -0.147419 -0.69355184 0.705162
    outer loop
      vertex -2.18508 -6.724985 7.071068
      vertex -1.4782557 -14.064664 0
      vertex -0.7391279 -7.032332 7.071068
    endloop
  endfacet
  facet normal 0.147419 0.69355184 0.705162
    outer loop
      vertex -2.18508 -6.724985 7.071068
      vertex -0.7391279 -7.032332 7.071068
      vertex 0 0 0
    endloop
  endfacet
  facet normal -0.147419 0.69355184 -0.705162
    outer loop
      vertex -2.18508 6.724985 -7.071068
      vertex -1.4782557 14.064664 0
      vertex -0.7391279 7.032332 -7.071068
    endloop
  endfacet
  facet normal 0.147419 -0.69355184 -0.705162
    outer loop
      vertex -2.18508 6.724985 -7.071068
      vertex -0.7391279 7.032332 -7.071068
      vertex 0 0 0
    endloop
  endfacet
  facet normal 0.147419 -0.69355184 0.705162
    outer loop
      vertex -2.18508 6.724985 7.071068
      vertex 0 0 0
      vertex -0.7391279 7.032332 7.071068
    endloop
  endfacet
  facet normal 1.5337949e-17 -0.70904624 -0.705162
    outer loop
      vertex -1.4782557 -14.064664 0
      vertex -0.7391279 -7.032332 -7.071068
      vertex 0.7391279 -7.032332 -7.071068
    endloop
  endfacet
  facet normal 0 -0.70904624 -0.705162
    outer loop
      vertex -1.4782557 -14.064664 0
      vertex 0.7391279 -7.032332 -7.071068
      vertex 1.4782557 -14.064664 0
    endloop
  endfacet
  facet normal 0 -0.70904624 0.705162
    outer loop
      vertex -1.4782557 -14.064664 0
      vertex 1.4782557 -14.064664 0
      vertex -0.7391279 -7.032332 7.071068
    endloop
  endfacet
  facet normal 1.5337949e-17 0.70904624 0.705162
    outer loop
      vertex -1.4782557 14.064664 0
      vertex -0.7391279 7.032332 7.071068
      vertex 0.7391279 7.032332 7.071068
    endloop
  endfacet
  facet normal 0 0.70904624 0.705162
    outer loop
      vertex -1.4782557 14.064664 0
      vertex 0.7391279 7.032332 7.071068
      vertex 1.4782557 14.064664 0
    endloop
  endfacet
  facet normal 0 0.70904624 -0.705162
    outer loop
      vertex -1.4782557 14.064664 0
      vertex 1.4782557 14.064664 0
      vertex -0.7391279 7.032332 -7.071068
    endloop
  endfacet
  facet normal 0 0.70904624 -0.705162
    outer loop
      vertex -0.7391279 -7.032332 -7.071068
      vertex 0 0 0
      vertex 0.7391279 -7.032332 -7.071068
    endloop
  endfacet
  facet normal 0 0.70904624 0.705162
    outer loop
      vertex -0.7391279 -7.032332 7.071068
      vertex 0.7391279 -7.032332 7.071068
      vertex 0 0 0
    endloop
  endfacet
  facet normal 0 -0.70904624 0.705162
    outer loop
      vertex -0.7391279 -7.032332 7.071068
      vertex 1.4782557 -14.064664 0
      vertex 0.7391279 -7.032332 7.071068
    endloop
  endfacet
  facet normal 0 -0.70904624 -0.705162
    outer loop
      vertex -0.7391279 7.032332 -7.071068
      vertex 0.7391279 7.032332 -7.071068
      vertex 0 0 0
    endloop
  endfacet
  facet normal 0 0.70904624 -0.705162
    outer loop
      vertex -0.7391279 7.032332 -7.071068
      vertex 1.4782557 14.064664 0
      vertex 0.7391279 7.032332 -7.071068
    endloop
  endfacet
  facet normal 0 -0.70904624 0.705162
    outer loop
      vertex -0.7391279 7.032332 7.071068
      vertex 0 0 0
      vertex 0.7391279 7.032332 7.071068
    endloop
  endfacet
  facet normal -0.147419 0.69355184 0.705162
    outer loop
      vertex 0 0 0
      vertex 0.7391279 -7.032332 7.071068
      vertex 2.18508 -6.724985 7.071068
    endloop
  endfacet
  facet normal -0.147419 -0.69355184 -0.705162
    outer loop
      vertex 0 0 0
      vertex 0.7391279 7.032332 -7.071068
      vertex 2.18508 6.724985 -7.071068
    endloop
  endfacet
  facet normal -0.147419 0.69355184 -0.705162
    outer loop
      vertex 0 0 0
      vertex 2.18508 -6.724985 -7.071068
      vertex 0.7391279 -7.032332 -7.071068
    endloop
  endfacet
  facet normal -0.28839508 0.64774597 0.705162
    outer loop
      vertex 0 0 0
      vertex 2.18508 -6.724985 7.071068
      vertex 3.535534 -6.1237245 7.071068
    endloop
  endfacet
  facet normal -0.28839508 -0.64774597 -0.705162
    outer loop
      vertex 0 0 0
      vertex 2.18508 6.724985 -7.071068
      vertex 3.535534 6.1237245 -7.071068
    endloop
  endfacet
  facet normal -0.147419 -0.69355184 0.705162
    outer loop
      vertex 0 0 0
      vertex 2.18508 6.724985 7.071068
      vertex 0.7391279 7.032332 7.071068
    endloop
  endfacet
  facet normal -0.28839508 0.64774597 -0.705162
    outer loop
      vertex 0 0 0
      vertex 3.535534 -6.1237245 -7.071068
      vertex 2.18508 -6.724985 -7.071068
    endloop
  endfacet
  facet normal -0.4167669 0.57363045 0.705162
    outer loop
      vertex 0 0 0
      vertex 3.535534 -6.1237245 7.071068
      vertex 4.7314677 -5.2548275 7.071068
    endloop
  endfacet
  facet normal -0.4167669 -0.57363045 -0.705162
    outer loop
      vertex 0 0 0
      vertex 3.535534 6.1237245 -7.071068
      vertex 4.7314677 5.2548275 -7.071068
    endloop
  endfacet
  facet normal -0.28839508 -0.64774597 0.705162
    outer loop
      vertex 0 0 0
      vertex 3.535534 6.1237245 7.071068
      vertex 2.18508 6.724985 7.071068
    endloop
  endfacet
  facet normal -0.4167669 0.57363045 -0.705162
    outer loop
      vertex 0 0 0
      vertex 4.7314677 -5.2548275 -7.071068
      vertex 3.535534 -6.1237245 -7.071068
    endloop
  endfacet
  facet normal -0.526924 0.47444454 0.705162
    outer loop
      vertex 0 0 0
      vertex 4.7314677 -5.2548275 7.071068
      vertex 5.720614 -4.1562696 7.071068
    endloop
  endfacet
  facet normal -0.526924 -0.47444454 -0.705162
    outer loop
      vertex 0 0 0
      vertex 4.7314677 5.2548275 -7.071068
      vertex 5.720614 4.1562696 -7.071068
    endloop
  endfacet
  facet normal -0.4167669 -0.57363045 0.705162
    outer loop
      vertex 0 0 0
      vertex 4.7314677 5.2548275 7.071068
      vertex 3.535534 6.1237245 7.071068
    endloop
  endfacet
  facet normal -0.526924 0.47444454 -0.705162
    outer loop
      vertex 0 0 0
      vertex 5.720614 -4.1562696 -7.071068
      vertex 4.7314677 -5.2548275 -7.071068
    endloop
  endfacet
  facet normal -0.61405206 0.35452312 0.705162
    outer loop
      vertex 0 0 0
      vertex 5.720614 -4.1562696 7.071068
      vertex 6.459742 -2.8760624 7.071068
    endloop
  endfacet
  facet normal -0.61405206 -0.35452312 -0.705162
    outer loop
      vertex 0 0 0
      vertex 5.720614 4.1562696 -7.071068
      vertex 6.459742 2.8760624 -7.071068
    endloop
  endfacet
  facet normal -0.526924 -0.47444454 0.705162
    outer loop
      vertex 0 0 0
      vertex 5.720614 4.1562696 7.071068
      vertex 4.7314677 5.2548275 7.071068
    endloop
  endfacet
  facet normal -0.61405206 0.35452312 -0.705162
    outer loop
      vertex 0 0 0
      vertex 6.459742 -2.8760624 -7.071068
      vertex 5.720614 -4.1562696 -7.071068
    endloop
  endfacet
  facet normal -0.67434305 0.21910733 0.705162
    outer loop
      vertex 0 0 0
      vertex 6.459742 -2.8760624 7.071068
      vertex 6.9165483 -1.4701576 7.071068
    endloop
  endfacet
  facet normal -0.67434305 -0.21910733 -0.705162
    outer loop
      vertex 0 0 0
      vertex 6.459742 2.8760624 -7.071068
      vertex 6.9165483 1.4701576 -7.071068
    endloop
  endfacet
  facet normal -0.61405206 -0.35452312 0.705162
    outer loop
      vertex 0 0 0
      vertex 6.459742 2.8760624 7.071068
      vertex 5.720614 4.1562696 7.071068
    endloop
  endfacet
  facet normal -0.67434305 0.21910733 -0.705162
    outer loop
      vertex 0 0 0
      vertex 6.9165483 -1.4701576 -7.071068
      vertex 6.459742 -2.8760624 -7.071068
    endloop
  endfacet
  facet normal -0.705162 0.074115515 0.705162
    outer loop
      vertex 0 0 0
      vertex 6.9165483 -1.4701576 7.071068
      vertex 7.071068 0 7.071068
    endloop
  endfacet
  facet normal -0.705162 -0.074115515 -0.705162
    outer loop
      vertex 0 0 0
      vertex 6.9165483 1.4701576 -7.071068
      vertex 7.071068 0 -7.071068
    endloop
  endfacet
  facet normal -0.67434305 -0.21910733 0.705162
    outer loop
      vertex 0 0 0
      vertex 6.9165483 1.4701576 7.071068
      vertex 6.459742 2.8760624 7.071068
    endloop
  endfacet
  facet normal -0.705162 0.074115515 -0.705162
    outer loop
      vertex 0 0 0
      vertex 7.071068 0 -7.071068
      vertex 6.9165483 -1.4701576 -7.071068
    endloop
  endfacet
  facet normal -0.705162 -0.074115515 0.705162
    outer loop
      vertex 0 0 0
      vertex 7.071068 0 7.071068
      vertex 6.9165483 1.4701576 7.071068
    endloop
  endfacet
  facet normal 0.147419 -0.69355184 -0.705162
    outer loop
      vertex 0.7391279 -7.032332 -7.071068
      vertex 2.18508 -6.724985 -7.071068
      vertex 1.4782557 -14.064664 0
    endloop
  endfacet
  facet normal 0.147419 -0.69355184 0.705162
    outer loop
      vertex 0.7391279 -7.032332 7.071068
      vertex 1.4782557 -14.064664 0
      vertex 4.37016 -13.44997 0
    endloop
  endfacet
  facet normal 0.147419 -0.69355184 0.705162
    outer loop
      vertex 0.7391279 -7.032332 7.071068
      vertex 4.37016 -13.44997 0
      vertex 2.18508 -6.724985 7.071068
    endloop
  endfacet
  facet normal 0.147419 0.69355184 -0.705162
    outer loop
      vertex 0.7391279 7.032332 -7.071068
      vertex 1.4782557 14.064664 0
      vertex 4.37016 13.44997 0
    endloop
  endfacet
  facet normal 0.147419 0.69355184 -0.705162
    outer loop
      vertex 0.7391279 7.032332 -7.071068
      vertex 4.37016 13.44997 0
      vertex 2.18508 6.724985 -7.071068
    endloop
  endfacet
  facet normal 0.147419 0.69355184 0.705162
    outer loop
      vertex 0.7391279 7.032332 7.071068
      vertex 2.18508 6.724985 7.071068
      vertex 1.4782557 14.064664 0
    endloop
  endfacet
  facet normal 0.147419 -0.69355184 -0.705162
    outer loop
      vertex 1.4782557 -14.064664 0
      vertex 2.18508 -6.724985 -7.071068
      vertex 4.37016 -13.44997 0
    endloop
  endfacet
  facet normal 0.147419 0.69355184 0.705162
    outer loop
      vertex 1.4782557 14.064664 0
      vertex 2.18508 6.724985 7.071068
      vertex 4.37016 13.44997 0
    endloop
  endfacet
  facet normal 0.28839508 -0.64774597 -0.705162
    outer loop
      vertex 2.18508 -6.724985 -7.071068
      vertex 3.535534 -6.1237245 -7.071068
      vertex 4.37016 -13.44997 0
    endloop
  endfacet
  facet normal 0.28839508 -0.64774597 0.705162
    outer loop
      vertex 2.18508 -6.724985 7.071068
      vertex 4.37016 -13.44997 0
      vertex 7.071068 -12.247449 0
    endloop
  endfacet
  facet normal 0.28839508 -0.64774597 0.705162
    outer loop
      vertex 2.18508 -6.724985 7.071068
      vertex 7.071068 -12.247449 0
      vertex 3.535534 -6.1237245 7.071068
    endloop
  endfacet
  facet normal 0.28839508 0.64774597 -0.705162
    outer loop
      vertex 2.18508 6.724985 -7.071068
      vertex 4.37016 13.44997 0
      vertex 7.071068 12.247449 0
    endloop
  endfacet
  facet normal 0.28839508 0.64774597 -0.705162
    outer loop
      vertex 2.18508 6.724985 -7.071068
      vertex 7.071068 12.247449 0
      vertex 3.535534 6.1237245 -7.071068
    endloop
  endfacet
  facet normal 0.28839508 0.64774597 0.705162
    outer loop
      vertex 2.18508 6.724985 7.071068
      vertex 3.535534 6.1237245 7.071068
      vertex 4.37016 13.44997 0
    endloop
  endfacet
  facet normal 0.4167669 -0.57363045 -0.705162
    outer loop
      vertex 3.535534 -6.1237245 -7.071068
      vertex 4.7314677 -5.2548275 -7.071068
      vertex 7.071068 -12.247449 0
    endloop
  endfacet
  facet normal 0.28839508 -0.64774597 -0.705162
    outer loop
      vertex 3.535534 -6.1237245 -7.071068
      vertex 7.071068 -12.247449 0
      vertex 4.37016 -13.44997 0
    endloop
  endfacet
  facet normal 0.4167669 -0.57363045 0.705162
    outer loop
      vertex 3.535534 -6.1237245 7.071068
      vertex 7.071068 -12.247449 0
      vertex 9.462935 -10.509655 0
    endloop
  endfacet
  facet normal 0.4167669 -0.57363045 0.705162
    outer loop
      vertex 3.535534 -6.1237245 7.071068
      vertex 9.462935 -10.509655 0
      vertex 4.7314677 -5.2548275 7.071068
    endloop
  endfacet
  facet normal 0.4167669 0.57363045 -0.705162
    outer loop
      vertex 3.535534 6.1237245 -7.071068
      vertex 7.071068 12.247449 0
      vertex 9.462935 10.509655 0
    endloop
  endfacet
  facet normal 0.4167669 0.57363045 -0.705162
    outer loop
      vertex 3.535534 6.1237245 -7.071068
      vertex 9.462935 10.509655 0
      vertex 4.7314677 5.2548275 -7.071068
    endloop
  endfacet
  facet normal 0.4167669 0.57363045 0.705162
    outer loop
      vertex 3.535534 6.1237245 7.071068
      vertex 4.7314677 5.2548275 7.071068
      vertex 7.071068 12.247449 0
    endloop
  endfacet
  facet normal 0.28839508 0.64774597 0.705162
    outer loop
      vertex 3.535534 6.1237245 7.071068
      vertex 7.071068 12.247449 0
      vertex 4.37016 13.44997 0
    endloop
  endfacet
  facet normal 0.526924 -0.47444454 -0.705162
    outer loop
      vertex 4.7314677 -5.2548275 -7.071068
      vertex 5.720614 -4.1562696 -7.071068
      vertex 9.462935 -10.509655 0
    endloop
  endfacet
  facet normal 0.4167669 -0.57363045 -0.705162
    outer loop
      vertex 4.7314677 -5.2548275 -7.071068
      vertex 9.462935 -10.509655 0
      vertex 7.071068 -12.247449 0
    endloop
  endfacet
  facet normal 0.526924 -0.47444454 0.705162
    outer loop
      vertex 4.7314677 -5.2548275 7.071068
      vertex 9.462935 -10.509655 0
      vertex 11.441228 -8.312539 0
    endloop
  endfacet
  facet normal 0.526924 -0.47444454 0.705162
    outer loop
      vertex 4.7314677 -5.2548275 7.071068
      vertex 11.441228 -8.312539 0
      vertex 5.720614 -4.1562696 7.071068
    endloop
  endfacet
  facet normal 0.526924 0.47444454 -0.705162
    outer loop
      vertex 4.7314677 5.2548275 -7.071068
      vertex 9.462935 10.509655 0
      vertex 11.441228 8.312539 0
    endloop
  endfacet
  facet normal 0.526924 0.47444454 -0.705162
    outer loop
      vertex 4.7314677 5.2548275 -7.071068
      vertex 11.441228 8.312539 0
      vertex 5.720614 4.1562696 -7.071068
    endloop
  endfacet
  facet normal 0.526924 0.47444454 0.705162
    outer loop
      vertex 4.7314677 5.2548275 7.071068
      vertex 5.720614 4.1562696 7.071068
      vertex 9.462935 10.509655 0
    endloop
  endfacet
  facet normal 0.4167669 0.57363045 0.705162
    outer loop
      vertex 4.7314677 5.2548275 7.071068
      vertex 9.462935 10.509655 0
      vertex 7.071068 12.247449 0
    endloop
  endfacet
  facet normal 0.61405206 -0.35452312 -0.705162
    outer loop
      vertex 5.720614 -4.1562696 -7.071068
      vertex 6.459742 -2.8760624 -7.071068
      vertex 11.441228 -8.312539 0
    endloop
  endfacet
  facet normal 0.526924 -0.47444454 -0.705162
    outer loop
      vertex 5.720614 -4.1562696 -7.071068
      vertex 11.441228 -8.312539 0
      vertex 9.462935 -10.509655 0
    endloop
  endfacet
  facet normal 0.61405206 -0.35452312 0.705162
    outer loop
      vertex 5.720614 -4.1562696 7.071068
      vertex 11.441228 -8.312539 0
      vertex 12.919484 -5.752125 0
    endloop
  endfacet
  facet normal 0.61405206 -0.35452312 0.705162
    outer loop
      vertex 5.720614 -4.1562696 7.071068
      vertex 12.919484 -5.752125 0
      vertex 6.459742 -2.8760624 7.071068
    endloop
  endfacet
  facet normal 0.61405206 0.35452312 -0.705162
    outer loop
      vertex 5.720614 4.1562696 -7.071068
      vertex 11.441228 8.312539 0
      vertex 12.919484 5.752125 0
    endloop
  endfacet
  facet normal 0.61405206 0.35452312 -0.705162
    outer loop
      vertex 5.720614 4.1562696 -7.071068
      vertex 12.919484 5.752125 0
      vertex 6.459742 2.8760624 -7.071068
    endloop
  endfacet
  facet normal 0.61405206 0.35452312 0.705162
    outer loop
      vertex 5.720614 4.1562696 7.071068
      vertex 6.459742 2.8760624 7.071068
      vertex 11.441228 8.312539 0
    endloop
  endfacet
  facet normal 0.526924 0.47444454 0.705162
    outer loop
      vertex 5.720614 4.1562696 7.071068
      vertex 11.441228 8.312539 0
      vertex 9.462935 10.509655 0
    endloop
  endfacet
  facet normal 0.67434305 -0.21910733 -0.705162
    outer loop
      vertex 6.459742 -2.8760624 -7.071068
      vertex 6.9165483 -1.4701576 -7.071068
      vertex 12.919484 -5.752125 0
    endloop
  endfacet
  facet normal 0.61405206 -0.35452312 -0.705162
    outer loop
      vertex 6.459742 -2.8760624 -7.071068
      vertex 12.919484 -5.752125 0
      vertex 11.441228 -8.312539 0
    endloop
  endfacet
  facet normal 0.67434305 -0.21910733 0.705162
    outer loop
      vertex 6.459742 -2.8760624 7.071068
      vertex 12.919484 -5.752125 0
      vertex 13.8330965 -2.9403152 0
    endloop
  endfacet
  facet normal 0.67434305 -0.21910733 0.705162
    outer loop
      vertex 6.459742 -2.8760624 7.071068
      vertex 13.8330965 -2.9403152 0
      vertex 6.9165483 -1.4701576 7.071068
    endloop
  endfacet
  facet normal 0.67434305 0.21910733 -0.705162
    outer loop
      vertex 6.459742 2.8760624 -7.071068
      vertex 12.919484 5.752125 0
      vertex 13.8330965 2.9403152 0
    endloop
  endfacet
  facet normal 0.67434305 0.21910733 -0.705162
    outer loop
      vertex 6.459742 2.8760624 -7.071068
      vertex 13.8330965 2.9403152 0
      vertex 6.9165483 1.4701576 -7.071068
    endloop
  endfacet
  facet normal 0.67434305 0.21910733 0.705162
    outer loop
      vertex 6.459742 2.8760624 7.071068
      vertex 6.9165483 1.4701576 7.071068
      vertex 12.919484 5.752125 0
    endloop
  endfacet
  facet normal 0.61405206 0.35452312 0.705162
    outer loop
      vertex 6.459742 2.8760624 7.071068
      vertex 12.919484 5.752125 0
      vertex 11.441228 8.312539 0
    endloop
  endfacet
  facet normal 0.705162 -0.074115515 -0.705162
    outer loop
      vertex 6.9165483 -1.4701576 -7.071068
      vertex 7.071068 0 -7.071068
      vertex 13.8330965 -2.9403152 0
    endloop
  endfacet
  facet normal 0.67434305 -0.21910733 -0.705162
    outer loop
      vertex 6.9165483 -1.4701576 -7.071068
      vertex 13.8330965 -2.9403152 0
      vertex 12.919484 -5.752125 0
    endloop
  endfacet
  facet normal 0.705162 -0.074115515 0.705162
    outer loop
      vertex 6.9165483 -1.4701576 7.071068
      vertex 13.8330965 -2.9403152 0
      vertex 14.142136 0 0
    endloop
  endfacet
  facet normal 0.705162 -0.074115515 0.705162
    outer loop
      vertex 6.9165483 -1.4701576 7.071068
      vertex 14.142136 0 0
      vertex 7.071068 0 7.071068
    endloop
  endfacet
  facet normal 0.705162 0.074115515 -0.705162
    outer loop
      vertex 6.9165483 1.4701576 -7.071068
      vertex 13.8330965 2.9403152 0
      vertex 14.142136 0 0
    endloop
  endfacet
  facet normal 0.705162 0.074115515 -0.705162
    outer loop
      vertex 6.9165483 1.4701576 -7.071068
      vertex 14.142136 0 0
      vertex 7.071068 0 -7.071068
    endloop
  endfacet
  facet normal 0.705162 0.074115515 0.705162
    outer loop
      vertex 6.9165483 1.4701576 7.071068
      vertex 7.071068 0 7.071068
      vertex 13.8330965 2.9403152 0
    endloop
  endfacet
  facet normal 0.67434305 0.21910733 0.705162
    outer loop
      vertex 6.9165483 1.4701576 7.071068
      vertex 13.8330965 2.9403152 0
      vertex 12.919484 5.752125 0
    endloop
  endfacet
  facet normal 0.705162 -0.074115515 -0.705162
    outer loop
      vertex 7.071068 0 -7.071068
      vertex 14.142136 0 0
      vertex 13.8330965 -2.9403152 0
    endloop
  endfacet
  facet normal 0.705162 0.074115515 0.705162
    outer loop
      vertex 7.071068 0 7.071068
      vertex 14.142136 0 0
      vertex 13.8330965 2.9403152 0
    endloop
  endfacet
endsolid OpenSCAD_Model
