solid OpenSCAD_Model
  facet normal -0.6396021 -0.6396021 0.42640144
    outer loop
      vertex -4 0 6
      vertex 0 -4 6
      vertex 0 0 12
    endloop
  endfacet
  facet normal -0.6396021 -0.6396021 -0.42640144
    outer loop
      vertex -4 0 6
      vertex 0 0 0
      vertex 0 -4 6
    endloop
  endfacet
  facet normal -0.6396021 0.6396021 0.42640144
    outer loop
      vertex -4 0 6
      vertex 0 0 12
      vertex 0 4 6
    endloop
  endfacet
  facet normal -0.6396021 0.6396021 -0.42640144
    outer loop
      vertex -4 0 6
      vertex 0 4 6
      vertex 0 0 0
    endloop
  endfacet
  facet normal 0.6396021 -0.6396021 -0.42640144
    outer loop
      vertex 0 -4 6
      vertex 0 0 0
      vertex 4 0 6
    endloop
  endfacet
  facet normal 0.6396021 -0.6396021 0.42640144
    outer loop
      vertex 0 -4 6
      vertex 4 0 6
      vertex 0 0 12
    endloop
  endfacet
  facet normal 0.6396021 0.6396021 -0.42640144
    outer loop
      vertex 0 0 0
      vertex 0 4 6
      vertex 4 0 6
    endloop
  endfacet
  facet normal 0.6396021 0.6396021 0.42640144
    outer loop
      vertex 0 0 12
      vertex 4 0 6
      vertex 0 4 6
    endloop
  endfacet
endsolid OpenSCAD_Model
